%FSLAX34Y34*%
%MOMM*%
%LNCOPPER_TOP*%
G71*
G01*
%ADD10R,1.700X1.700*%
%ADD11C,1.800*%
%ADD12R,2.700X2.300*%
%ADD13R,2.900X5.000*%
%ADD14R,3.400X2.400*%
%ADD15R,2.200X1.900*%
%ADD16C,1.050*%
%ADD17C,2.300*%
%ADD18R,1.400X1.500*%
%ADD19R,1.500X1.500*%
%ADD20R,1.500X1.100*%
%ADD21R,1.400X1.400*%
%ADD22C,1.500*%
%ADD23C,1.700*%
%ADD24C,1.900*%
%ADD25R,1.900X3.400*%
%ADD26R,1.050X1.400*%
%ADD27R,1.400X1.050*%
%ADD28C,1.600*%
%ADD29C,1.400*%
%ADD30C,1.200*%
%ADD31C,1.400*%
%ADD32C,0.650*%
%ADD33C,1.600*%
%ADD34R,1.900X2.200*%
%ADD35R,1.900X1.900*%
%ADD36R,1.800X1.920*%
%ADD37R,1.700X2.000*%
%ADD38C,0.700*%
%ADD39C,1.920*%
%ADD40R,1.800X2.000*%
%ADD41R,1.920X1.800*%
%ADD42R,3.600X1.900*%
%ADD43C,1.800*%
%ADD44C,1.400*%
%ADD45C,1.300*%
%ADD46C,0.200*%
%ADD47C,0.150*%
%ADD48R,3.160X2.160*%
%ADD49C,1.000*%
%ADD50C,1.800*%
%ADD51C,0.500*%
%ADD52C,0.800*%
%ADD53C,0.900*%
%ADD54C,0.100*%
%ADD55R,0.900X0.900*%
%ADD56C,1.000*%
%ADD57R,1.900X1.500*%
%ADD58R,2.100X4.200*%
%ADD59R,2.600X2.790*%
%ADD60R,2.600X1.600*%
%ADD61R,1.400X1.100*%
%ADD62C,0.250*%
%ADD63R,0.800X0.900*%
%ADD64R,1.100X0.700*%
%ADD65R,0.600X0.600*%
%ADD66R,1.400X1.600*%
%ADD67C,1.100*%
%ADD68R,1.100X1.400*%
%ADD69R,1.500X3.000*%
%ADD70R,0.250X0.600*%
%ADD71R,0.600X0.250*%
%ADD72R,2.600X2.600*%
%ADD73C,0.600*%
%ADD74C,0.600*%
%ADD75C,0.800*%
%ADD76R,1.000X1.120*%
%ADD77R,4.600X3.900*%
%ADD78C,1.120*%
%ADD79R,1.120X1.000*%
%ADD80R,3.900X4.600*%
%ADD81R,0.900X1.200*%
%ADD82R,0.600X2.200*%
%ADD83R,3.200X1.500*%
%ADD84C,1.000*%
%ADD85C,0.300*%
%LPD*%
G36*
X0Y1000000D02*
X602000Y1000000D01*
X602000Y798000D01*
X0Y798000D01*
X0Y1000000D01*
G37*
%LPC*%
X329916Y844025D02*
G54D10*
D03*
X330016Y827325D02*
G54D10*
D03*
X184509Y900816D02*
G54D11*
D03*
G36*
X388009Y917155D02*
X376002Y905121D01*
X363968Y917129D01*
X375975Y929163D01*
X388009Y917155D01*
G37*
G36*
X376271Y905283D02*
X364271Y893242D01*
X352230Y905242D01*
X364230Y917284D01*
X376271Y905283D01*
G37*
X162357Y925014D02*
G54D12*
D03*
X162457Y902014D02*
G54D12*
D03*
X162457Y879014D02*
G54D12*
D03*
X103757Y901914D02*
G54D13*
D03*
X211256Y925791D02*
G54D14*
D03*
X211256Y897791D02*
G54D14*
D03*
X184762Y879869D02*
G54D15*
D03*
X184762Y900469D02*
G54D15*
D03*
G54D16*
X324900Y905000D02*
X324900Y912000D01*
X324906Y912005D01*
X310493Y924631D01*
G54D16*
X329900Y905000D02*
X329900Y914000D01*
X329897Y921131D01*
X329000Y924300D01*
G54D16*
X334900Y905000D02*
X334900Y914000D01*
X340900Y920000D01*
X341000Y924300D01*
G54D16*
X341400Y898500D02*
X349400Y898500D01*
X351900Y901000D01*
X351900Y916200D01*
X355000Y924300D01*
G54D16*
X341400Y893500D02*
X352400Y893500D01*
X357900Y899000D01*
G54D16*
X357900Y899000D02*
X365773Y906873D01*
X364251Y905263D01*
G54D17*
X162457Y902014D02*
X103857Y902014D01*
X103757Y901914D01*
X317000Y844000D02*
G54D10*
D03*
X316900Y827300D02*
G54D10*
D03*
X331400Y960100D02*
G54D18*
D03*
X348100Y960000D02*
G54D18*
D03*
X300121Y960104D02*
G54D19*
D03*
X316821Y960004D02*
G54D19*
D03*
X277700Y827500D02*
G54D10*
D03*
X277800Y844200D02*
G54D10*
D03*
X359247Y846600D02*
G54D10*
D03*
X359347Y863300D02*
G54D10*
D03*
X345648Y844100D02*
G54D10*
D03*
X345548Y827400D02*
G54D10*
D03*
X359347Y816300D02*
G54D10*
D03*
X359447Y833000D02*
G54D10*
D03*
X372747Y849700D02*
G54D10*
D03*
X372647Y833000D02*
G54D10*
D03*
X389548Y863500D02*
G54D10*
D03*
X372848Y863600D02*
G54D10*
D03*
X385747Y849700D02*
G54D10*
D03*
X385647Y833000D02*
G54D10*
D03*
X399348Y850500D02*
G54D10*
D03*
X416048Y850400D02*
G54D10*
D03*
G36*
X391147Y845400D02*
X408147Y845401D01*
X408148Y828401D01*
X391148Y828400D01*
X391147Y845400D01*
G37*
X416347Y836800D02*
G54D10*
D03*
X467862Y853774D02*
G54D20*
D03*
X467862Y834774D02*
G54D20*
D03*
X440862Y853774D02*
G54D20*
D03*
X440862Y834774D02*
G54D20*
D03*
X440862Y844274D02*
G54D20*
D03*
X467862Y844274D02*
G54D20*
D03*
X429262Y846150D02*
G54D21*
D03*
X429262Y835050D02*
G54D21*
D03*
G54D22*
X440862Y853774D02*
X440743Y869712D01*
G54D22*
X467862Y844274D02*
X454400Y844274D01*
X455400Y866500D01*
G54D22*
X454400Y844274D02*
X454400Y824500D01*
X472100Y866400D02*
G54D10*
D03*
X455400Y866500D02*
G54D10*
D03*
G54D23*
X467862Y857024D02*
X472100Y866400D01*
G36*
X414587Y830686D02*
X431587Y830713D01*
X431613Y813714D01*
X414613Y813687D01*
X414587Y830686D01*
G37*
G36*
X431286Y830587D02*
X448286Y830614D01*
X448313Y813614D01*
X431313Y813587D01*
X431286Y830587D01*
G37*
G36*
X446094Y830694D02*
X463094Y830706D01*
X463106Y813706D01*
X446106Y813694D01*
X446094Y830694D01*
G37*
G36*
X462799Y830599D02*
X479799Y830601D01*
X479801Y813601D01*
X462801Y813599D01*
X462799Y830599D01*
G37*
G54D24*
X467806Y832721D02*
X471300Y822100D01*
X182475Y915974D02*
G54D10*
D03*
X182575Y932674D02*
G54D10*
D03*
X263700Y862500D02*
G54D10*
D03*
X280400Y862400D02*
G54D10*
D03*
X280400Y875500D02*
G54D10*
D03*
X263700Y875600D02*
G54D10*
D03*
X280400Y888500D02*
G54D10*
D03*
X263700Y888600D02*
G54D10*
D03*
X280400Y901500D02*
G54D10*
D03*
X263700Y901600D02*
G54D10*
D03*
X280400Y914500D02*
G54D10*
D03*
X263700Y914600D02*
G54D10*
D03*
X280400Y927500D02*
G54D19*
D03*
X263700Y927600D02*
G54D19*
D03*
X248491Y856091D02*
G54D10*
D03*
X248391Y839391D02*
G54D10*
D03*
X276500Y984500D02*
G54D25*
D03*
X334900Y905000D02*
G54D26*
D03*
X334900Y867000D02*
G54D26*
D03*
X329900Y905000D02*
G54D26*
D03*
X329900Y867000D02*
G54D26*
D03*
X324900Y905000D02*
G54D26*
D03*
X324900Y867000D02*
G54D26*
D03*
X319900Y905000D02*
G54D26*
D03*
X319900Y867000D02*
G54D26*
D03*
X314900Y905000D02*
G54D26*
D03*
X314900Y867000D02*
G54D26*
D03*
X309900Y905000D02*
G54D26*
D03*
X309900Y867000D02*
G54D26*
D03*
X341400Y898500D02*
G54D27*
D03*
X303400Y898500D02*
G54D27*
D03*
X341400Y893500D02*
G54D27*
D03*
X303400Y893500D02*
G54D27*
D03*
X341400Y888500D02*
G54D27*
D03*
X303400Y888500D02*
G54D27*
D03*
X341400Y883500D02*
G54D27*
D03*
X303400Y883500D02*
G54D27*
D03*
X341400Y878500D02*
G54D27*
D03*
X303400Y878500D02*
G54D27*
D03*
X341400Y873500D02*
G54D27*
D03*
X303400Y873500D02*
G54D27*
D03*
X351936Y913151D02*
G54D28*
D03*
G54D29*
X351936Y913151D02*
X355000Y924300D01*
G54D29*
X355507Y959975D02*
X355482Y960000D01*
X348100Y960000D01*
G54D29*
X331400Y960100D02*
X331304Y960004D01*
X315821Y960004D01*
X335336Y929251D02*
G54D28*
D03*
G36*
X299618Y944561D02*
X308806Y935363D01*
X299608Y926176D01*
X290421Y935374D01*
X299618Y944561D01*
G37*
G36*
X311509Y932823D02*
X320685Y923614D01*
X311476Y914438D01*
X302300Y923648D01*
X311509Y932823D01*
G37*
G54D30*
X298613Y936369D02*
X281000Y954000D01*
G54D30*
X281000Y954000D02*
X276400Y958600D01*
X276500Y987500D01*
G54D16*
X303400Y893500D02*
X296500Y893500D01*
X294000Y896000D01*
X294000Y908000D01*
X287500Y914500D01*
X280400Y914500D01*
G54D16*
X303400Y888500D02*
X294500Y888500D01*
X289000Y894000D01*
X289000Y898000D01*
X286000Y901000D01*
X280900Y901000D01*
X280400Y901500D01*
G54D16*
X303400Y883500D02*
X292500Y883500D01*
X288000Y888000D01*
X280900Y888000D01*
X280400Y888500D01*
G54D16*
X303400Y878500D02*
X292500Y878500D01*
X290000Y876000D01*
X280900Y876000D01*
X280400Y875500D01*
X308807Y855475D02*
G54D31*
D03*
G54D16*
X314900Y867000D02*
X314900Y860568D01*
X308807Y855475D01*
X287807Y862475D02*
G54D31*
D03*
G54D22*
X287596Y862628D02*
X280077Y862628D01*
X279671Y862221D01*
G54D32*
X309900Y905000D02*
X304000Y905000D01*
X281500Y927500D01*
X280400Y927500D01*
G54D29*
X255807Y927475D02*
X263700Y927600D01*
G54D29*
X255807Y914475D02*
X263700Y914600D01*
G54D29*
X255807Y901475D02*
X263700Y901600D01*
G54D29*
X255807Y888475D02*
X263700Y888600D01*
G54D29*
X255807Y875475D02*
X263700Y875600D01*
G54D29*
X263744Y852950D02*
X263700Y862500D01*
G54D29*
X305007Y951675D02*
X300121Y960104D01*
G54D16*
X319900Y867000D02*
X319900Y860568D01*
X320907Y855275D01*
G54D16*
X324900Y867000D02*
X324900Y863100D01*
X329000Y859000D01*
X329000Y845000D01*
X329416Y844425D01*
G54D29*
X291100Y827386D02*
X304101Y827386D01*
G54D33*
X317000Y844000D02*
X329916Y844025D01*
G54D33*
X277800Y844200D02*
X304001Y844086D01*
G54D16*
X303400Y873500D02*
X299500Y873500D01*
X296000Y870000D01*
X296000Y856000D01*
X291000Y851000D01*
X291000Y844086D01*
G54D16*
X334900Y862000D02*
X337000Y860000D01*
X352047Y860000D01*
X359347Y863300D01*
G54D29*
X345648Y844100D02*
X345648Y848134D01*
X341707Y851775D01*
G54D29*
X345548Y827400D02*
X359447Y833000D01*
G54D29*
X359447Y833000D02*
X359247Y846600D01*
G54D29*
X359347Y863300D02*
X372848Y863600D01*
G54D29*
X372848Y863600D02*
X372747Y849700D01*
G54D29*
X385747Y849700D02*
X389548Y863500D01*
G54D29*
X389548Y863500D02*
X399348Y850500D01*
G54D29*
X399348Y850500D02*
X385747Y849700D01*
G54D29*
X385747Y849700D02*
X391235Y855550D01*
G54D22*
X467862Y844274D02*
X482300Y844200D01*
G36*
X369637Y895266D02*
X381635Y907309D01*
X393678Y895311D01*
X381680Y883268D01*
X369637Y895266D01*
G37*
G36*
X381375Y907156D02*
X393384Y919189D01*
X405416Y907180D01*
X393407Y895147D01*
X381375Y907156D01*
G37*
X542481Y946400D02*
G54D34*
D03*
X521881Y946400D02*
G54D34*
D03*
X572800Y899300D02*
G54D35*
D03*
X556100Y899200D02*
G54D35*
D03*
G36*
X502060Y824469D02*
X514069Y836502D01*
X526102Y824494D01*
X514094Y812460D01*
X502060Y824469D01*
G37*
G36*
X513798Y836351D02*
X525810Y848381D01*
X537840Y836370D01*
X525828Y824340D01*
X513798Y836351D01*
G37*
G36*
X511987Y988986D02*
X528986Y989013D01*
X529013Y972014D01*
X512014Y971987D01*
X511987Y988986D01*
G37*
G36*
X528686Y988887D02*
X545686Y988914D01*
X545713Y971914D01*
X528713Y971887D01*
X528686Y988887D01*
G37*
X445000Y940000D02*
G54D36*
D03*
X414800Y940000D02*
G54D36*
D03*
X429900Y901100D02*
G54D36*
D03*
X438705Y972567D02*
G54D37*
D03*
X418106Y972567D02*
G54D37*
D03*
X472300Y894000D02*
G54D10*
D03*
X472200Y910700D02*
G54D10*
D03*
X472831Y980883D02*
G54D10*
D03*
X472731Y964183D02*
G54D10*
D03*
G54D32*
X341400Y888500D02*
X375069Y888500D01*
X382857Y896289D01*
G36*
X379069Y888500D02*
X380947Y889940D01*
X378304Y895947D01*
X354372Y888549D01*
X379069Y888500D01*
G37*
G54D32*
X379069Y888500D02*
X380947Y889940D01*
X378304Y895947D01*
X354372Y888549D01*
X379069Y888500D01*
G36*
X399432Y907548D02*
X403792Y934597D01*
X393000Y936000D01*
X380250Y935083D01*
X386537Y925436D01*
X388217Y917562D01*
X387448Y907437D01*
X398838Y906958D01*
X399432Y907548D01*
G37*
G54D38*
X399432Y907548D02*
X403792Y934597D01*
X393000Y936000D01*
X380250Y935083D01*
X386537Y925436D01*
X388217Y917562D01*
X387448Y907437D01*
X398838Y906958D01*
X399432Y907548D01*
G54D39*
X411800Y940000D02*
X404316Y939905D01*
X397640Y940821D01*
G54D23*
X445000Y940000D02*
X461000Y940000D01*
X472000Y931000D01*
X472216Y919602D01*
X472200Y910700D01*
G36*
X445000Y948500D02*
X445000Y931500D01*
X436500Y931500D01*
X436500Y948500D01*
X445000Y948500D01*
G37*
G36*
X463700Y910715D02*
X480700Y910684D01*
X480684Y902184D01*
X463684Y902215D01*
X463700Y910715D01*
G37*
G54D23*
X472300Y894000D02*
X472000Y866500D01*
X472100Y866400D01*
G36*
X480800Y893907D02*
X463800Y894093D01*
X463893Y902592D01*
X480892Y902407D01*
X480800Y893907D01*
G37*
X438743Y869712D02*
G54D40*
D03*
X540512Y862552D02*
G54D41*
D03*
X540512Y892752D02*
G54D41*
D03*
X501612Y877652D02*
G54D41*
D03*
G54D23*
X471300Y822100D02*
X501000Y822000D01*
X514081Y824481D01*
G54D24*
X540512Y862101D02*
X540509Y858280D01*
X537512Y851053D01*
X532498Y843041D01*
X525819Y836360D01*
G36*
X550012Y862096D02*
X531012Y862107D01*
X531017Y871607D01*
X550017Y871596D01*
X550012Y862096D01*
G37*
G36*
X519101Y843077D02*
X532537Y829644D01*
X525820Y822925D01*
X512384Y836359D01*
X519101Y843077D01*
G37*
G54D24*
X471300Y822100D02*
X511700Y822100D01*
X514081Y824481D01*
G36*
X471300Y831600D02*
X471300Y812600D01*
X461800Y812600D01*
X461800Y831600D01*
X471300Y831600D01*
G37*
G36*
X520799Y817764D02*
X507364Y831199D01*
X514081Y837916D01*
X527516Y824481D01*
X520799Y817764D01*
G37*
G54D22*
X439800Y822100D02*
X454500Y822100D01*
X454600Y822200D01*
G54D22*
X439800Y822100D02*
X439800Y822100D01*
X484781Y978328D02*
G54D37*
D03*
X507781Y978328D02*
G54D37*
D03*
G54D24*
X542481Y946400D02*
X542550Y946469D01*
X542550Y956450D01*
X542550Y964999D01*
G54D23*
X542550Y964999D02*
X541293Y973807D01*
X537200Y980400D01*
G54D23*
X520500Y980500D02*
X513039Y980475D01*
X507781Y978500D01*
X507781Y978328D01*
G54D24*
X415314Y972228D02*
X414833Y972328D01*
X392756Y971191D01*
X584300Y899000D02*
G54D42*
D03*
X485584Y964427D02*
G54D43*
D03*
G54D23*
X484781Y978328D02*
X484781Y965230D01*
X485584Y964427D01*
G54D23*
X472731Y964183D02*
X485341Y964183D01*
X485584Y964427D01*
G54D22*
X438705Y972567D02*
X441053Y974914D01*
X456090Y974914D01*
G54D23*
X456090Y974914D02*
X462058Y980883D01*
X472831Y980883D01*
X456090Y974915D02*
G54D15*
D03*
X542550Y965099D02*
G54D34*
D03*
X482300Y844200D02*
G54D10*
D03*
X329000Y924300D02*
G54D10*
D03*
X342000Y924300D02*
G54D10*
D03*
X355000Y924300D02*
G54D10*
D03*
X324351Y960364D02*
G54D28*
D03*
X355953Y960148D02*
G54D28*
D03*
X263171Y945653D02*
G54D28*
D03*
X413936Y822151D02*
G54D28*
D03*
X316936Y819151D02*
G54D44*
D03*
X265111Y830151D02*
G54D28*
D03*
G54D22*
X413936Y822151D02*
X423100Y822200D01*
G54D17*
X548688Y899112D02*
X553450Y899112D01*
G36*
X548688Y910612D02*
X548688Y887612D01*
X537188Y887612D01*
X537188Y910612D01*
X548688Y910612D01*
G37*
G36*
X553450Y887612D02*
X553450Y910612D01*
X564950Y910612D01*
X564950Y887612D01*
X553450Y887612D01*
G37*
G54D33*
X416048Y850400D02*
X416347Y836800D01*
G54D22*
X440862Y834774D02*
X418374Y834774D01*
X416347Y836800D01*
G54D45*
X277700Y827500D02*
X270938Y827500D01*
X265111Y830151D01*
X182518Y951658D02*
G54D37*
D03*
X205518Y951658D02*
G54D37*
D03*
X214131Y951402D02*
G54D28*
D03*
G54D33*
X214131Y951402D02*
X205774Y951402D01*
X205518Y951658D01*
G54D33*
X263171Y945653D02*
X255503Y945653D01*
X245475Y935625D01*
X245475Y867362D01*
X248491Y856091D01*
G54D45*
X265111Y830151D02*
X257630Y830151D01*
X248391Y839391D01*
G54D23*
X182518Y951658D02*
X182518Y970244D01*
X181512Y971250D01*
G54D23*
X182518Y951658D02*
X182518Y932730D01*
X182575Y932674D01*
G54D23*
X162357Y928014D02*
X166986Y928014D01*
X179026Y915974D01*
X182475Y915974D01*
G54D24*
X162357Y928014D02*
X163210Y928866D01*
X163209Y951197D01*
G54D24*
X184762Y900469D02*
X162457Y900469D01*
X162457Y902014D01*
G54D24*
X184762Y879869D02*
X162457Y879869D01*
X162457Y879014D01*
G36*
X133000Y983000D02*
X133000Y962000D01*
X149000Y962000D01*
X149000Y939000D01*
X145000Y939000D01*
X145000Y815000D01*
X17000Y815000D01*
X17000Y983000D01*
X133000Y983000D01*
G37*
G54D45*
X133000Y983000D02*
X133000Y962000D01*
X149000Y962000D01*
X149000Y939000D01*
X145000Y939000D01*
X145000Y815000D01*
X17000Y815000D01*
X17000Y983000D01*
X133000Y983000D01*
X163210Y951197D02*
G54D15*
D03*
X181512Y971250D02*
G54D34*
D03*
G36*
X263171Y945653D02*
X255503Y945653D01*
X245475Y935625D01*
X245475Y859106D01*
X248491Y856091D01*
X248491Y839491D01*
X248391Y839391D01*
X257630Y830151D01*
X265111Y830151D01*
X275049Y830151D01*
X277700Y827500D01*
X329842Y827500D01*
X330016Y827325D01*
X345473Y827325D01*
X345548Y827400D01*
X400432Y827400D01*
X400507Y827475D01*
X400507Y849342D01*
X399348Y850500D01*
X399348Y853700D01*
X389548Y863500D01*
X372948Y863500D01*
X372848Y863600D01*
X360061Y863600D01*
X352843Y870818D01*
X342818Y870818D01*
X342000Y870000D01*
X342000Y887000D01*
X343000Y888000D01*
X374369Y888000D01*
X381657Y895289D01*
X381657Y896657D01*
X396000Y911000D01*
X396000Y939181D01*
X397640Y940821D01*
X383921Y940821D01*
X377200Y934100D01*
X372100Y934100D01*
X370000Y932000D01*
X312131Y932000D01*
X309712Y929581D01*
X309712Y925411D01*
X311493Y923631D01*
X311493Y919013D01*
X302465Y909985D01*
X297915Y909985D01*
X280400Y927500D01*
X273500Y927500D01*
X267000Y934000D01*
X267000Y941824D01*
X263171Y945653D01*
G37*
G54D46*
X263171Y945653D02*
X255503Y945653D01*
X245475Y935625D01*
X245475Y859106D01*
X248491Y856091D01*
X248491Y839491D01*
X248391Y839391D01*
X257630Y830151D01*
X265111Y830151D01*
X275049Y830151D01*
X277700Y827500D01*
X329842Y827500D01*
X330016Y827325D01*
X345473Y827325D01*
X345548Y827400D01*
X400432Y827400D01*
X400507Y827475D01*
X400507Y849342D01*
X399348Y850500D01*
X399348Y853700D01*
X389548Y863500D01*
X372948Y863500D01*
X372848Y863600D01*
X360061Y863600D01*
X352843Y870818D01*
X342818Y870818D01*
X342000Y870000D01*
X342000Y887000D01*
X343000Y888000D01*
X374369Y888000D01*
X381657Y895289D01*
X381657Y896657D01*
X396000Y911000D01*
X396000Y939181D01*
X397640Y940821D01*
X383921Y940821D01*
X377200Y934100D01*
X372100Y934100D01*
X370000Y932000D01*
X312131Y932000D01*
X309712Y929581D01*
X309712Y925411D01*
X311493Y923631D01*
X311493Y919013D01*
X302465Y909985D01*
X297915Y909985D01*
X280400Y927500D01*
X273500Y927500D01*
X267000Y934000D01*
X267000Y941824D01*
X263171Y945653D01*
G36*
X316000Y957000D02*
X301000Y957000D01*
X301000Y966563D01*
X316000Y966563D01*
X316000Y957000D01*
G37*
G54D46*
X316000Y957000D02*
X301000Y957000D01*
X301000Y966563D01*
X316000Y966563D01*
X316000Y957000D01*
G36*
X474000Y842000D02*
X489775Y842000D01*
X489775Y822517D01*
X474000Y822517D01*
X474000Y842000D01*
G37*
G54D46*
X474000Y842000D02*
X489775Y842000D01*
X489775Y822517D01*
X474000Y822517D01*
X474000Y842000D01*
G36*
X471000Y861000D02*
X479571Y861000D01*
X479571Y849938D01*
X471000Y849938D01*
X471000Y861000D01*
G37*
G54D46*
X471000Y861000D02*
X479571Y861000D01*
X479571Y849938D01*
X471000Y849938D01*
X471000Y861000D01*
G36*
X278000Y928000D02*
X264986Y928000D01*
X264986Y934292D01*
X278000Y934292D01*
X278000Y928000D01*
G37*
G54D47*
X278000Y928000D02*
X264986Y928000D01*
X264986Y934292D01*
X278000Y934292D01*
X278000Y928000D01*
G54D16*
X309900Y867000D02*
X309900Y863900D01*
X309000Y863000D01*
X302000Y863000D01*
X301000Y862000D01*
X301000Y851000D01*
X304000Y848000D01*
X304001Y844086D01*
X320907Y855275D02*
G54D43*
D03*
X341707Y851775D02*
G54D28*
D03*
G36*
X502981Y938000D02*
X526981Y938000D01*
X526982Y904000D01*
X502982Y904000D01*
X502981Y938000D01*
G37*
G36*
X530981Y938000D02*
X554981Y938000D01*
X554982Y904000D01*
X530982Y904000D01*
X530981Y938000D01*
G37*
X392756Y943190D02*
G54D48*
D03*
X392756Y971191D02*
G54D48*
D03*
G54D24*
X184762Y900469D02*
X191593Y900520D01*
X199105Y900298D01*
X200978Y899469D01*
X211256Y897190D01*
G54D49*
X316936Y819151D02*
X316936Y827264D01*
X316900Y827300D01*
G54D29*
X316936Y819151D02*
X316936Y827264D01*
X316900Y827300D01*
G54D50*
X211256Y927191D02*
X227796Y935730D01*
X244758Y935722D01*
G36*
X194000Y882000D02*
X162457Y882000D01*
X162457Y902014D01*
X194000Y902014D01*
X194000Y882000D01*
G37*
G54D51*
X194000Y882000D02*
X162457Y882000D01*
X162457Y902014D01*
X194000Y902014D01*
X194000Y882000D01*
G36*
X181000Y922000D02*
X163210Y922000D01*
X163210Y951197D01*
X181000Y951197D01*
X181000Y922000D01*
G37*
G54D51*
X181000Y922000D02*
X163210Y922000D01*
X163210Y951197D01*
X181000Y951197D01*
X181000Y922000D01*
G36*
X182518Y951658D02*
X152839Y951658D01*
X152839Y963732D01*
X182518Y963732D01*
X182518Y951658D01*
G37*
G54D51*
X182518Y951658D02*
X152839Y951658D01*
X152839Y963732D01*
X182518Y963732D01*
X182518Y951658D01*
X368500Y934100D02*
G54D10*
D03*
G54D24*
X540411Y893962D02*
X540512Y918530D01*
X542982Y921000D01*
G54D33*
X546988Y901189D02*
X546988Y913631D01*
X546700Y913919D01*
G36*
X521881Y946400D02*
X535935Y946400D01*
X535935Y908032D01*
X521881Y908032D01*
X521881Y946400D01*
G37*
G54D52*
X521881Y946400D02*
X535935Y946400D01*
X535935Y908032D01*
X521881Y908032D01*
X521881Y946400D01*
G36*
X539352Y942146D02*
X527964Y942146D01*
X527964Y953392D01*
X539352Y953392D01*
X539352Y942146D01*
G37*
G54D52*
X539352Y942146D02*
X527964Y942146D01*
X527964Y953392D01*
X539352Y953392D01*
X539352Y942146D01*
G54D24*
X514981Y921000D02*
X521881Y946400D01*
G54D23*
X375989Y917142D02*
X368500Y924631D01*
X368500Y934100D01*
G36*
X178000Y885000D02*
X149000Y885000D01*
X149000Y924000D01*
X178000Y924000D01*
X178000Y885000D01*
G37*
G54D53*
X178000Y885000D02*
X149000Y885000D01*
X149000Y924000D01*
X178000Y924000D01*
X178000Y885000D01*
G36*
X561000Y902000D02*
X569763Y902000D01*
X569763Y890000D01*
X561000Y890000D01*
X561000Y902000D01*
G37*
G54D54*
X561000Y902000D02*
X569763Y902000D01*
X569763Y890000D01*
X561000Y890000D01*
X561000Y902000D01*
%LPD*%
X329916Y844025D02*
G54D55*
D03*
X330016Y827325D02*
G54D55*
D03*
X184509Y900816D02*
G54D56*
D03*
X146257Y956200D02*
G54D55*
D03*
X146157Y972900D02*
G54D55*
D03*
X328900Y941000D02*
G54D55*
D03*
X329000Y924300D02*
G54D55*
D03*
X341900Y941000D02*
G54D55*
D03*
X342000Y924300D02*
G54D55*
D03*
X354900Y941000D02*
G54D55*
D03*
X355000Y924300D02*
G54D55*
D03*
G36*
X382353Y917149D02*
X375996Y910778D01*
X369625Y917135D01*
X375982Y923506D01*
X382353Y917149D01*
G37*
G36*
X370615Y905274D02*
X364261Y898899D01*
X357887Y905252D01*
X364240Y911627D01*
X370615Y905274D01*
G37*
X162357Y925014D02*
G54D57*
D03*
X162457Y902014D02*
G54D57*
D03*
X162457Y879014D02*
G54D57*
D03*
X103757Y901914D02*
G54D58*
D03*
X113452Y843971D02*
G54D59*
D03*
G36*
X153252Y857921D02*
X179252Y857921D01*
X179252Y830021D01*
X153252Y830021D01*
X153252Y857921D01*
G37*
X211256Y925791D02*
G54D60*
D03*
X211256Y897791D02*
G54D60*
D03*
X184762Y879869D02*
G54D61*
D03*
X184762Y900469D02*
G54D61*
D03*
X163210Y971797D02*
G54D61*
D03*
X163210Y951197D02*
G54D61*
D03*
G54D62*
X324900Y905000D02*
X324900Y912000D01*
X324906Y912005D01*
X310493Y924631D01*
G54D62*
X314900Y907000D02*
X314900Y909000D01*
X315900Y910000D01*
X316900Y910000D01*
X318900Y910000D01*
X319900Y909000D01*
X319900Y907000D01*
G54D62*
X314900Y903000D02*
X314900Y897000D01*
G54D62*
X319900Y903000D02*
X319900Y897000D01*
G54D62*
X314900Y907000D02*
X314900Y909000D01*
G54D62*
X341400Y883500D02*
X333400Y883500D01*
X332900Y883000D01*
G54D62*
X341400Y878500D02*
X331400Y878500D01*
X330900Y879000D01*
G54D62*
X341400Y873500D02*
X338400Y873500D01*
X335054Y874398D01*
X333900Y875000D01*
X332900Y876000D01*
G54D62*
X341400Y883500D02*
X347400Y883500D01*
X348900Y882000D01*
X348900Y880000D01*
X347400Y878500D01*
X341400Y878500D01*
G54D62*
X341400Y873500D02*
X347400Y873500D01*
X348900Y875000D01*
X348900Y882000D01*
G54D62*
X347400Y878500D02*
X348900Y877000D01*
G54D62*
X329900Y905000D02*
X329900Y914000D01*
X329897Y921131D01*
X329000Y924300D01*
G54D62*
X334900Y905000D02*
X334900Y914000D01*
X340900Y920000D01*
X341000Y924300D01*
G54D62*
X341400Y898500D02*
X349400Y898500D01*
X351900Y901000D01*
X351900Y916200D01*
X355000Y924300D01*
G54D38*
X329000Y924300D02*
X341000Y924300D01*
G54D38*
X328900Y941000D02*
X354900Y941000D01*
G54D62*
X341400Y893500D02*
X352400Y893500D01*
X357900Y899000D01*
G54D62*
X357900Y899000D02*
X365773Y906873D01*
X364251Y905263D01*
G54D62*
X334900Y867000D02*
X334900Y862000D01*
G54D22*
X162457Y902014D02*
X103857Y902014D01*
X103757Y901914D01*
X317000Y844000D02*
G54D55*
D03*
X316900Y827300D02*
G54D55*
D03*
X368600Y950800D02*
G54D55*
D03*
X368500Y934100D02*
G54D55*
D03*
G54D49*
X368196Y951114D02*
X368200Y963000D01*
G36*
X363196Y951115D02*
X373196Y951112D01*
X373194Y946112D01*
X363194Y946115D01*
X363196Y951115D01*
G37*
X331400Y960100D02*
G54D63*
D03*
X348100Y960000D02*
G54D63*
D03*
X300121Y960104D02*
G54D55*
D03*
X316821Y960004D02*
G54D55*
D03*
X277700Y827500D02*
G54D55*
D03*
X277800Y844200D02*
G54D55*
D03*
X359247Y846600D02*
G54D55*
D03*
X359347Y863300D02*
G54D55*
D03*
X345648Y844100D02*
G54D55*
D03*
X345548Y827400D02*
G54D55*
D03*
X359347Y816300D02*
G54D55*
D03*
X359447Y833000D02*
G54D55*
D03*
X372747Y849700D02*
G54D55*
D03*
X372647Y833000D02*
G54D55*
D03*
X389548Y863500D02*
G54D55*
D03*
X372848Y863600D02*
G54D55*
D03*
X385747Y849700D02*
G54D55*
D03*
X385647Y833000D02*
G54D55*
D03*
X399348Y850500D02*
G54D55*
D03*
X416048Y850400D02*
G54D55*
D03*
G36*
X395147Y841400D02*
X404147Y841401D01*
X404148Y832401D01*
X395148Y832400D01*
X395147Y841400D01*
G37*
X416347Y836800D02*
G54D55*
D03*
X467862Y853774D02*
G54D64*
D03*
X467862Y834774D02*
G54D64*
D03*
X440862Y853774D02*
G54D64*
D03*
X440862Y834774D02*
G54D64*
D03*
X440862Y844274D02*
G54D64*
D03*
X467862Y844274D02*
G54D64*
D03*
X429262Y846150D02*
G54D65*
D03*
X429262Y835050D02*
G54D65*
D03*
X418143Y869712D02*
G54D66*
D03*
X438743Y869712D02*
G54D66*
D03*
G54D38*
X440862Y853774D02*
X440743Y869712D01*
G36*
X477796Y848697D02*
X486796Y848703D01*
X486803Y839703D01*
X477803Y839697D01*
X477796Y848697D01*
G37*
G36*
X494499Y848599D02*
X503499Y848601D01*
X503501Y839601D01*
X494501Y839599D01*
X494499Y848599D01*
G37*
G54D38*
X467862Y844274D02*
X454400Y844274D01*
X455400Y866500D01*
G54D38*
X454400Y844274D02*
X454400Y824500D01*
X472100Y866400D02*
G54D55*
D03*
X455400Y866500D02*
G54D55*
D03*
G54D67*
X467862Y857024D02*
X472100Y866400D01*
G36*
X418593Y826693D02*
X427593Y826707D01*
X427607Y817707D01*
X418607Y817693D01*
X418593Y826693D01*
G37*
G36*
X435293Y826593D02*
X444293Y826607D01*
X444307Y817607D01*
X435307Y817593D01*
X435293Y826593D01*
G37*
G36*
X450097Y826697D02*
X459097Y826703D01*
X459103Y817703D01*
X450103Y817697D01*
X450097Y826697D01*
G37*
G36*
X466799Y826600D02*
X475799Y826601D01*
X475801Y817601D01*
X466801Y817600D01*
X466799Y826600D01*
G37*
G54D67*
X467806Y832721D02*
X471300Y822100D01*
X182475Y915974D02*
G54D55*
D03*
X182575Y932674D02*
G54D55*
D03*
X202112Y971250D02*
G54D68*
D03*
X181512Y971250D02*
G54D68*
D03*
X263700Y862500D02*
G54D55*
D03*
X280400Y862400D02*
G54D55*
D03*
X280400Y875500D02*
G54D55*
D03*
X263700Y875600D02*
G54D55*
D03*
X280400Y888500D02*
G54D55*
D03*
X263700Y888600D02*
G54D55*
D03*
X280400Y901500D02*
G54D55*
D03*
X263700Y901600D02*
G54D55*
D03*
X280400Y914500D02*
G54D55*
D03*
X263700Y914600D02*
G54D55*
D03*
X280400Y927500D02*
G54D55*
D03*
X263700Y927600D02*
G54D55*
D03*
X248491Y856091D02*
G54D55*
D03*
X248391Y839391D02*
G54D55*
D03*
X276500Y984500D02*
G54D69*
D03*
X334900Y905000D02*
G54D70*
D03*
X334900Y867000D02*
G54D70*
D03*
X329900Y905000D02*
G54D70*
D03*
X329900Y867000D02*
G54D70*
D03*
X324900Y905000D02*
G54D70*
D03*
X324900Y867000D02*
G54D70*
D03*
X319900Y905000D02*
G54D70*
D03*
X319900Y867000D02*
G54D70*
D03*
X314900Y905000D02*
G54D70*
D03*
X314900Y867000D02*
G54D70*
D03*
X309900Y905000D02*
G54D70*
D03*
X309900Y867000D02*
G54D70*
D03*
X341400Y898500D02*
G54D71*
D03*
X303400Y898500D02*
G54D71*
D03*
X341400Y893500D02*
G54D71*
D03*
X303400Y893500D02*
G54D71*
D03*
X341400Y888500D02*
G54D71*
D03*
X303400Y888500D02*
G54D71*
D03*
X341400Y883500D02*
G54D71*
D03*
X303400Y883500D02*
G54D71*
D03*
X341400Y878500D02*
G54D71*
D03*
X303400Y878500D02*
G54D71*
D03*
X341400Y873500D02*
G54D71*
D03*
X303400Y873500D02*
G54D71*
D03*
X322400Y886000D02*
G54D72*
D03*
X291000Y844086D02*
G54D55*
D03*
X291100Y827386D02*
G54D55*
D03*
X304001Y844086D02*
G54D55*
D03*
X304101Y827386D02*
G54D55*
D03*
X313419Y894995D02*
G54D73*
D03*
X319419Y894995D02*
G54D73*
D03*
X325419Y894995D02*
G54D73*
D03*
X331419Y894995D02*
G54D73*
D03*
X313419Y888995D02*
G54D73*
D03*
X319419Y888995D02*
G54D73*
D03*
X325419Y888995D02*
G54D73*
D03*
X331419Y888995D02*
G54D73*
D03*
X313419Y882995D02*
G54D73*
D03*
X319419Y882995D02*
G54D73*
D03*
X325419Y882995D02*
G54D73*
D03*
X331419Y882995D02*
G54D73*
D03*
X313419Y876995D02*
G54D73*
D03*
X319419Y876995D02*
G54D73*
D03*
X325419Y876995D02*
G54D73*
D03*
X331419Y876995D02*
G54D73*
D03*
X326807Y948475D02*
G54D73*
D03*
X332807Y948475D02*
G54D73*
D03*
X338807Y948475D02*
G54D73*
D03*
X344807Y948475D02*
G54D73*
D03*
X350807Y948475D02*
G54D73*
D03*
X356807Y948475D02*
G54D73*
D03*
G54D74*
X326807Y948475D02*
X356807Y948475D01*
X355632Y945000D01*
X354000Y945000D01*
X334000Y945000D01*
X328900Y941000D01*
X326807Y948475D01*
X351936Y913151D02*
G54D75*
D03*
G54D74*
X351936Y913151D02*
X355000Y924300D01*
G54D74*
X355507Y959975D02*
X355482Y960000D01*
X348100Y960000D01*
G54D74*
X331400Y960100D02*
X331304Y960004D01*
X315821Y960004D01*
X335336Y929251D02*
G54D75*
D03*
G36*
X299617Y941733D02*
X305977Y935365D01*
X299610Y929005D01*
X293249Y935372D01*
X299617Y941733D01*
G37*
G36*
X311504Y929995D02*
X317857Y923619D01*
X311481Y917267D01*
X305129Y923642D01*
X311504Y929995D01*
G37*
G54D52*
X298613Y936369D02*
X281000Y954000D01*
X372463Y960753D02*
G54D73*
D03*
G54D52*
X281000Y954000D02*
X276400Y958600D01*
X276500Y987500D01*
G54D62*
X303400Y893500D02*
X296500Y893500D01*
X294000Y896000D01*
X294000Y908000D01*
X287500Y914500D01*
X280400Y914500D01*
G54D62*
X303400Y888500D02*
X294500Y888500D01*
X289000Y894000D01*
X289000Y898000D01*
X286000Y901000D01*
X280900Y901000D01*
X280400Y901500D01*
G54D62*
X303400Y883500D02*
X292500Y883500D01*
X288000Y888000D01*
X280900Y888000D01*
X280400Y888500D01*
G54D62*
X303400Y878500D02*
X292500Y878500D01*
X290000Y876000D01*
X280900Y876000D01*
X280400Y875500D01*
X308807Y855475D02*
G54D73*
D03*
G54D62*
X314900Y867000D02*
X314900Y860568D01*
X308807Y855475D01*
X287807Y862475D02*
G54D73*
D03*
G54D38*
X287596Y862628D02*
X280077Y862628D01*
X279671Y862221D01*
G54D62*
X309900Y905000D02*
X304000Y905000D01*
X281500Y927500D01*
X280400Y927500D01*
X263744Y852950D02*
G54D73*
D03*
X255807Y875475D02*
G54D73*
D03*
X255807Y888475D02*
G54D73*
D03*
X255807Y901475D02*
G54D73*
D03*
X255807Y914475D02*
G54D73*
D03*
X255807Y927475D02*
G54D73*
D03*
G54D74*
X255807Y927475D02*
X263700Y927600D01*
G54D74*
X255807Y914475D02*
X263700Y914600D01*
G54D74*
X255807Y901475D02*
X263700Y901600D01*
G54D74*
X255807Y888475D02*
X263700Y888600D01*
G54D74*
X255807Y875475D02*
X263700Y875600D01*
G54D74*
X263744Y852950D02*
X263700Y862500D01*
X351807Y881475D02*
G54D73*
D03*
X351807Y875475D02*
G54D73*
D03*
G54D74*
X351807Y881475D02*
X351807Y875475D01*
G54D62*
X347400Y873500D02*
X351963Y873748D01*
G54D62*
X347400Y883500D02*
X351992Y883219D01*
G54D74*
X305007Y951675D02*
X300121Y960104D01*
G54D62*
X319900Y867000D02*
X319900Y860568D01*
X320907Y855275D01*
G54D62*
X324900Y867000D02*
X324900Y863100D01*
X329000Y859000D01*
X329000Y845000D01*
X329416Y844425D01*
X288807Y819475D02*
G54D73*
D03*
X294807Y819475D02*
G54D73*
D03*
X300807Y819475D02*
G54D73*
D03*
X306807Y819475D02*
G54D73*
D03*
G54D49*
X330016Y827325D02*
X330012Y821439D01*
G36*
X335016Y827322D02*
X325016Y827329D01*
X325020Y832329D01*
X335020Y832322D01*
X335016Y827322D01*
G37*
X333406Y819464D02*
G54D73*
D03*
X327406Y819464D02*
G54D73*
D03*
G54D74*
X306807Y819475D02*
X288807Y819475D01*
X291100Y827386D01*
G54D74*
X306807Y819475D02*
X304101Y827386D01*
G54D74*
X304000Y823000D02*
X291000Y823000D01*
G54D74*
X291100Y827386D02*
X304101Y827386D01*
G54D52*
X317000Y844000D02*
X329916Y844025D01*
G54D52*
X277800Y844200D02*
X304001Y844086D01*
G54D74*
X327406Y819464D02*
X333406Y819464D01*
G54D62*
X303400Y873500D02*
X299500Y873500D01*
X296000Y870000D01*
X296000Y856000D01*
X291000Y851000D01*
X291000Y844086D01*
G54D62*
X334900Y862000D02*
X337000Y860000D01*
X352047Y860000D01*
X359347Y863300D01*
G54D74*
X345648Y844100D02*
X345648Y848134D01*
X341707Y851775D01*
G54D74*
X345548Y827400D02*
X359447Y833000D01*
G54D74*
X359447Y833000D02*
X359247Y846600D01*
G54D74*
X359347Y863300D02*
X372848Y863600D01*
G54D74*
X372848Y863600D02*
X372747Y849700D01*
G54D74*
X385747Y849700D02*
X389548Y863500D01*
G54D74*
X389548Y863500D02*
X399348Y850500D01*
G54D74*
X399348Y850500D02*
X385747Y849700D01*
G54D74*
X385747Y849700D02*
X391235Y855550D01*
X370407Y825475D02*
G54D73*
D03*
X376407Y825475D02*
G54D73*
D03*
X382407Y825475D02*
G54D73*
D03*
X388407Y825475D02*
G54D73*
D03*
X347507Y815975D02*
G54D73*
D03*
G54D74*
X370407Y825475D02*
X388407Y825475D01*
G54D74*
X370407Y825475D02*
X372647Y833000D01*
G54D74*
X388407Y825475D02*
X385647Y833000D01*
G54D74*
X385647Y833000D02*
X372647Y833000D01*
G54D74*
X373000Y828000D02*
X384000Y828000D01*
G54D74*
X359398Y803166D02*
X359347Y816300D01*
G54D74*
X347507Y815975D02*
X359347Y816300D01*
X282722Y938358D02*
G54D73*
D03*
X263807Y989475D02*
G54D73*
D03*
X263807Y995475D02*
G54D73*
D03*
X289107Y995475D02*
G54D73*
D03*
X289107Y971475D02*
G54D73*
D03*
X292807Y926475D02*
G54D73*
D03*
X297807Y921475D02*
G54D73*
D03*
X302807Y916475D02*
G54D73*
D03*
G54D38*
X467862Y844274D02*
X482300Y844200D01*
X494507Y834975D02*
G54D73*
D03*
X508507Y851175D02*
G54D73*
D03*
X508507Y837975D02*
G54D73*
D03*
X508507Y844775D02*
G54D73*
D03*
G36*
X375293Y895277D02*
X381646Y901653D01*
X388021Y895300D01*
X381669Y888925D01*
X375293Y895277D01*
G37*
G36*
X387031Y907162D02*
X393389Y913532D01*
X399759Y907174D01*
X393402Y900804D01*
X387031Y907162D01*
G37*
X542481Y946400D02*
G54D68*
D03*
X521881Y946400D02*
G54D68*
D03*
X542550Y964999D02*
G54D68*
D03*
X521950Y964999D02*
G54D68*
D03*
X572800Y899300D02*
G54D55*
D03*
X556100Y899200D02*
G54D55*
D03*
G36*
X507717Y824475D02*
X514075Y830845D01*
X520445Y824488D01*
X514088Y818117D01*
X507717Y824475D01*
G37*
G36*
X519455Y836355D02*
X525814Y842724D01*
X532183Y836365D01*
X525824Y829996D01*
X519455Y836355D01*
G37*
G36*
X515993Y984993D02*
X524993Y985007D01*
X525007Y976007D01*
X516007Y975993D01*
X515993Y984993D01*
G37*
G36*
X532693Y984893D02*
X541693Y984907D01*
X541707Y975907D01*
X532707Y975893D01*
X532693Y984893D01*
G37*
X445000Y940000D02*
G54D76*
D03*
X429900Y940000D02*
G54D76*
D03*
X414800Y940000D02*
G54D76*
D03*
X429900Y901100D02*
G54D76*
D03*
G54D52*
X430000Y933000D02*
X430000Y908000D01*
X438705Y972567D02*
G54D68*
D03*
X418106Y972567D02*
G54D68*
D03*
X456090Y974914D02*
G54D61*
D03*
X456089Y954314D02*
G54D61*
D03*
X472300Y894000D02*
G54D55*
D03*
X472200Y910700D02*
G54D55*
D03*
X429900Y901100D02*
G54D77*
D03*
G54D49*
X429900Y940000D02*
X429900Y901100D01*
X448027Y886044D02*
G54D73*
D03*
X442027Y886044D02*
G54D73*
D03*
X436027Y886044D02*
G54D73*
D03*
X430027Y886044D02*
G54D73*
D03*
X424027Y886044D02*
G54D73*
D03*
X418027Y886044D02*
G54D73*
D03*
X412027Y886044D02*
G54D73*
D03*
X448027Y915044D02*
G54D73*
D03*
X448027Y907044D02*
G54D73*
D03*
X448027Y900044D02*
G54D73*
D03*
X448027Y893044D02*
G54D73*
D03*
X412027Y893044D02*
G54D73*
D03*
X412027Y900044D02*
G54D73*
D03*
X412027Y907044D02*
G54D73*
D03*
X412027Y915044D02*
G54D73*
D03*
X439027Y915044D02*
G54D73*
D03*
X430027Y915044D02*
G54D73*
D03*
X421027Y915044D02*
G54D73*
D03*
X430027Y922044D02*
G54D73*
D03*
X430000Y930000D02*
G54D73*
D03*
X435827Y951044D02*
G54D73*
D03*
X429827Y951044D02*
G54D73*
D03*
X423827Y951044D02*
G54D73*
D03*
X432794Y956264D02*
G54D73*
D03*
X426806Y956164D02*
G54D73*
D03*
G54D52*
X426806Y956164D02*
X432794Y956264D01*
X435827Y951044D01*
X423827Y951044D01*
G54D49*
X429827Y951044D02*
X429900Y940000D01*
X472831Y980883D02*
G54D55*
D03*
X472731Y964183D02*
G54D55*
D03*
G54D62*
X341400Y888500D02*
X375069Y888500D01*
X382857Y896289D01*
G36*
X379069Y888500D02*
X380947Y889940D01*
X378304Y895947D01*
X354372Y888549D01*
X379069Y888500D01*
G37*
G54D62*
X379069Y888500D02*
X380947Y889940D01*
X378304Y895947D01*
X354372Y888549D01*
X379069Y888500D01*
G36*
X399432Y907548D02*
X403792Y934597D01*
X393000Y936000D01*
X380250Y935083D01*
X386537Y925436D01*
X388217Y917562D01*
X387448Y907437D01*
X398838Y906958D01*
X399432Y907548D01*
G37*
G54D54*
X399432Y907548D02*
X403792Y934597D01*
X393000Y936000D01*
X380250Y935083D01*
X386537Y925436D01*
X388217Y917562D01*
X387448Y907437D01*
X398838Y906958D01*
X399432Y907548D01*
G54D78*
X411800Y940000D02*
X404316Y939905D01*
X397640Y940821D01*
G54D67*
X445000Y940000D02*
X461000Y940000D01*
X472000Y931000D01*
X472216Y919602D01*
X472200Y910700D01*
G36*
X445000Y945500D02*
X445000Y934500D01*
X439500Y934500D01*
X439500Y945500D01*
X445000Y945500D01*
G37*
G36*
X466700Y910710D02*
X477700Y910689D01*
X477690Y905189D01*
X466690Y905210D01*
X466700Y910710D01*
G37*
G54D67*
X472300Y894000D02*
X472000Y866500D01*
X472100Y866400D01*
G36*
X477800Y893940D02*
X466800Y894060D01*
X466860Y899560D01*
X477860Y899440D01*
X477800Y893940D01*
G37*
X428934Y855085D02*
G54D73*
D03*
X403107Y863475D02*
G54D73*
D03*
X403107Y870175D02*
G54D73*
D03*
X403107Y877675D02*
G54D73*
D03*
X360507Y875275D02*
G54D73*
D03*
X369507Y875375D02*
G54D73*
D03*
X378507Y875375D02*
G54D73*
D03*
X387507Y875375D02*
G54D73*
D03*
X395507Y875375D02*
G54D73*
D03*
X360507Y881975D02*
G54D73*
D03*
X369507Y881975D02*
G54D73*
D03*
X378507Y881975D02*
G54D73*
D03*
X386607Y882675D02*
G54D73*
D03*
X395507Y881975D02*
G54D73*
D03*
X392007Y888475D02*
G54D73*
D03*
X397707Y894175D02*
G54D73*
D03*
X403507Y900175D02*
G54D73*
D03*
X403107Y884975D02*
G54D73*
D03*
G54D38*
X440862Y844274D02*
X431138Y844274D01*
X429262Y846150D01*
X428934Y855085D01*
X438743Y869712D02*
G54D66*
D03*
X459884Y878965D02*
G54D73*
D03*
X459884Y886688D02*
G54D73*
D03*
X459884Y900975D02*
G54D73*
D03*
X459884Y914975D02*
G54D73*
D03*
X457107Y927875D02*
G54D73*
D03*
X449607Y925475D02*
G54D73*
D03*
X440607Y925475D02*
G54D73*
D03*
X419607Y925475D02*
G54D73*
D03*
X411607Y925475D02*
G54D73*
D03*
X540512Y862552D02*
G54D79*
D03*
X540512Y877652D02*
G54D79*
D03*
X540512Y892752D02*
G54D79*
D03*
X501612Y877652D02*
G54D79*
D03*
G54D52*
X533512Y877552D02*
X508512Y877551D01*
X501612Y877652D02*
G54D80*
D03*
G54D49*
X540512Y877652D02*
X501612Y877651D01*
X486556Y859524D02*
G54D73*
D03*
X486556Y865524D02*
G54D73*
D03*
X486556Y871524D02*
G54D73*
D03*
X486556Y877524D02*
G54D73*
D03*
X486556Y883524D02*
G54D73*
D03*
X486556Y889524D02*
G54D73*
D03*
X486556Y895524D02*
G54D73*
D03*
X515556Y859524D02*
G54D73*
D03*
X507556Y859524D02*
G54D73*
D03*
X500556Y859524D02*
G54D73*
D03*
X493556Y859524D02*
G54D73*
D03*
X493556Y895524D02*
G54D73*
D03*
X500556Y895524D02*
G54D73*
D03*
X507556Y895524D02*
G54D73*
D03*
X515556Y895525D02*
G54D73*
D03*
X515556Y868524D02*
G54D73*
D03*
X515556Y877524D02*
G54D73*
D03*
X515556Y886524D02*
G54D73*
D03*
X522901Y877928D02*
G54D73*
D03*
X530166Y877954D02*
G54D73*
D03*
X553761Y876679D02*
G54D73*
D03*
X554078Y883803D02*
G54D73*
D03*
X559742Y878228D02*
G54D73*
D03*
X560606Y884292D02*
G54D73*
D03*
G54D49*
X551556Y877724D02*
X540512Y877652D01*
G54D53*
X471300Y822100D02*
X501000Y822000D01*
X514081Y824481D01*
G54D67*
X540512Y862101D02*
X540509Y858280D01*
X537512Y851053D01*
X532498Y843041D01*
X525819Y836360D01*
G36*
X546012Y862098D02*
X535012Y862105D01*
X535015Y867605D01*
X546015Y867598D01*
X546012Y862098D01*
G37*
G36*
X521930Y840249D02*
X529708Y832472D01*
X525820Y828582D01*
X518041Y836360D01*
X521930Y840249D01*
G37*
G54D67*
X471300Y822100D02*
X511700Y822100D01*
X514081Y824481D01*
G36*
X471300Y827600D02*
X471300Y816600D01*
X465800Y816600D01*
X465800Y827600D01*
X471300Y827600D01*
G37*
G36*
X517970Y820592D02*
X510192Y828370D01*
X514081Y832259D01*
X521859Y824481D01*
X517970Y820592D01*
G37*
X394507Y826475D02*
G54D73*
D03*
X400507Y827475D02*
G54D73*
D03*
G54D53*
X399647Y836900D02*
X399651Y831760D01*
X399678Y828979D01*
G54D53*
X385647Y833000D02*
X395747Y833000D01*
X399647Y836900D01*
G54D38*
X439800Y822100D02*
X454500Y822100D01*
X454600Y822200D01*
G54D38*
X439800Y822100D02*
X439800Y822100D01*
X484781Y978328D02*
G54D81*
D03*
X507781Y978328D02*
G54D81*
D03*
X496281Y978328D02*
G54D82*
D03*
X485000Y909000D02*
G54D73*
D03*
X485000Y918000D02*
G54D73*
D03*
X485000Y927000D02*
G54D73*
D03*
X505362Y941636D02*
G54D73*
D03*
X509419Y958881D02*
G54D73*
D03*
X484702Y945688D02*
G54D73*
D03*
X510504Y965081D02*
G54D73*
D03*
X496138Y958269D02*
G54D73*
D03*
X497683Y964329D02*
G54D73*
D03*
X472671Y946176D02*
G54D73*
D03*
X491496Y953716D02*
G54D73*
D03*
X485270Y952370D02*
G54D73*
D03*
X468651Y952392D02*
G54D73*
D03*
X477725Y951757D02*
G54D73*
D03*
X479281Y941913D02*
G54D73*
D03*
X485000Y935000D02*
G54D73*
D03*
X499000Y930000D02*
G54D73*
D03*
X508763Y946784D02*
G54D73*
D03*
X439720Y959237D02*
G54D73*
D03*
X415507Y957236D02*
G54D73*
D03*
X391580Y957289D02*
G54D73*
D03*
X499000Y922000D02*
G54D73*
D03*
X499000Y914000D02*
G54D73*
D03*
X499000Y938000D02*
G54D73*
D03*
X503951Y965247D02*
G54D73*
D03*
X509257Y952858D02*
G54D73*
D03*
X444109Y953450D02*
G54D73*
D03*
X380940Y957290D02*
G54D73*
D03*
G54D67*
X542481Y946400D02*
X542550Y946469D01*
X542550Y956450D01*
X542550Y964999D01*
G54D53*
X542550Y964999D02*
X541293Y973807D01*
X537200Y980400D01*
G54D53*
X520500Y980500D02*
X513039Y980475D01*
X507781Y978500D01*
X507781Y978328D01*
G54D45*
X415314Y972228D02*
X414833Y972328D01*
X392756Y971191D01*
X584300Y899000D02*
G54D83*
D03*
X485584Y964427D02*
G54D84*
D03*
G54D53*
X484781Y978328D02*
X484781Y965230D01*
X485584Y964427D01*
G54D53*
X472731Y964183D02*
X485341Y964183D01*
X485584Y964427D01*
G54D53*
X438705Y972567D02*
X441053Y974914D01*
X456090Y974914D01*
G54D53*
X456090Y974914D02*
X462058Y980883D01*
X472831Y980883D01*
X263807Y983475D02*
G54D73*
D03*
X263807Y977475D02*
G54D73*
D03*
X263807Y971475D02*
G54D73*
D03*
X289107Y989475D02*
G54D73*
D03*
X289107Y983475D02*
G54D73*
D03*
X289107Y977475D02*
G54D73*
D03*
X456090Y974915D02*
G54D61*
D03*
X542550Y965099D02*
G54D68*
D03*
X526661Y899099D02*
G54D73*
D03*
X526661Y887099D02*
G54D73*
D03*
X526960Y868522D02*
G54D73*
D03*
X526661Y861099D02*
G54D73*
D03*
X482300Y844200D02*
G54D55*
D03*
X459884Y922099D02*
G54D73*
D03*
X459884Y908099D02*
G54D73*
D03*
X459884Y893914D02*
G54D73*
D03*
X452323Y878737D02*
G54D73*
D03*
X329000Y924300D02*
G54D55*
D03*
X342000Y924300D02*
G54D55*
D03*
X355000Y924300D02*
G54D55*
D03*
G54D85*
X302807Y916475D02*
X307000Y912000D01*
X313517Y911999D01*
X315544Y909964D01*
X324351Y960364D02*
G54D75*
D03*
X355953Y960148D02*
G54D75*
D03*
X304336Y952251D02*
G54D75*
D03*
X263171Y945653D02*
G54D75*
D03*
X307104Y941850D02*
G54D73*
D03*
G54D74*
X388407Y825475D02*
X400507Y827475D01*
X413936Y822151D02*
G54D75*
D03*
X316936Y819151D02*
G54D75*
D03*
X265111Y830151D02*
G54D75*
D03*
G54D38*
X413936Y822151D02*
X423100Y822200D01*
G54D22*
X548688Y899112D02*
X553450Y899112D01*
G36*
X548688Y906612D02*
X548688Y891612D01*
X541188Y891612D01*
X541188Y906612D01*
X548688Y906612D01*
G37*
G36*
X553450Y891612D02*
X553450Y906612D01*
X560950Y906612D01*
X560950Y891612D01*
X553450Y891612D01*
G37*
X232707Y965648D02*
G54D73*
D03*
X232756Y841803D02*
G54D73*
D03*
X232801Y852189D02*
G54D73*
D03*
X232756Y862441D02*
G54D73*
D03*
X232801Y872827D02*
G54D73*
D03*
X232756Y883078D02*
G54D73*
D03*
X232801Y893464D02*
G54D73*
D03*
X232756Y903716D02*
G54D73*
D03*
X232801Y914102D02*
G54D73*
D03*
X232756Y923553D02*
G54D73*
D03*
X232847Y821300D02*
G54D73*
D03*
X232801Y831552D02*
G54D73*
D03*
X220056Y965628D02*
G54D73*
D03*
X226406Y965628D02*
G54D73*
D03*
X232753Y955555D02*
G54D73*
D03*
X232707Y971998D02*
G54D73*
D03*
X220056Y971978D02*
G54D73*
D03*
X226406Y971978D02*
G54D73*
D03*
X232707Y978348D02*
G54D73*
D03*
X220056Y978328D02*
G54D73*
D03*
X226406Y978328D02*
G54D73*
D03*
X232707Y947698D02*
G54D73*
D03*
X597969Y886310D02*
G54D73*
D03*
X573969Y886310D02*
G54D73*
D03*
X591969Y886310D02*
G54D73*
D03*
X585969Y886310D02*
G54D73*
D03*
X579969Y886310D02*
G54D73*
D03*
X597969Y911879D02*
G54D73*
D03*
X573969Y911879D02*
G54D73*
D03*
X591969Y911879D02*
G54D73*
D03*
X585969Y911879D02*
G54D73*
D03*
X579969Y911879D02*
G54D73*
D03*
G54D52*
X416048Y850400D02*
X416347Y836800D01*
G54D38*
X440862Y834774D02*
X418374Y834774D01*
X416347Y836800D01*
G54D51*
X277700Y827500D02*
X270938Y827500D01*
X265111Y830151D01*
X524124Y854359D02*
G54D73*
D03*
X519778Y849230D02*
G54D73*
D03*
X514961Y844049D02*
G54D73*
D03*
X182518Y951658D02*
G54D81*
D03*
X205518Y951658D02*
G54D81*
D03*
X194018Y951658D02*
G54D82*
D03*
X214131Y951402D02*
G54D75*
D03*
G54D52*
X214131Y951402D02*
X205774Y951402D01*
X205518Y951658D01*
G54D52*
X263171Y945653D02*
X255503Y945653D01*
X245475Y935625D01*
X245475Y867362D01*
X248491Y856091D01*
G54D51*
X265111Y830151D02*
X257630Y830151D01*
X248391Y839391D01*
X301000Y994000D02*
G54D73*
D03*
X311000Y994000D02*
G54D73*
D03*
X321000Y994000D02*
G54D73*
D03*
X331000Y994000D02*
G54D73*
D03*
X341000Y994000D02*
G54D73*
D03*
X351000Y994000D02*
G54D73*
D03*
X361000Y994000D02*
G54D73*
D03*
X371000Y994000D02*
G54D73*
D03*
X381000Y994000D02*
G54D73*
D03*
X391000Y994000D02*
G54D73*
D03*
X401000Y994000D02*
G54D73*
D03*
X411000Y994000D02*
G54D73*
D03*
X421000Y994000D02*
G54D73*
D03*
X431000Y994000D02*
G54D73*
D03*
X441000Y994000D02*
G54D73*
D03*
X451000Y994000D02*
G54D73*
D03*
X461000Y994000D02*
G54D73*
D03*
X471000Y994000D02*
G54D73*
D03*
X481000Y994000D02*
G54D73*
D03*
X491500Y994000D02*
G54D73*
D03*
X501300Y993900D02*
G54D73*
D03*
X511000Y994000D02*
G54D73*
D03*
X521000Y994000D02*
G54D73*
D03*
X531000Y994000D02*
G54D73*
D03*
X541000Y994000D02*
G54D73*
D03*
X551000Y994000D02*
G54D73*
D03*
X561000Y994000D02*
G54D73*
D03*
X571000Y994000D02*
G54D73*
D03*
X581000Y994000D02*
G54D73*
D03*
X591000Y994000D02*
G54D73*
D03*
X596000Y985000D02*
G54D73*
D03*
X596000Y975000D02*
G54D73*
D03*
X596000Y965000D02*
G54D73*
D03*
X596000Y955000D02*
G54D73*
D03*
X596000Y945000D02*
G54D73*
D03*
X596000Y935000D02*
G54D73*
D03*
X541000Y804000D02*
G54D73*
D03*
X551000Y804000D02*
G54D73*
D03*
X561000Y804000D02*
G54D73*
D03*
X571000Y804000D02*
G54D73*
D03*
X581000Y804000D02*
G54D73*
D03*
X591000Y804000D02*
G54D73*
D03*
X596000Y864000D02*
G54D73*
D03*
X596000Y854000D02*
G54D73*
D03*
X596000Y844000D02*
G54D73*
D03*
X596000Y834000D02*
G54D73*
D03*
X596000Y824000D02*
G54D73*
D03*
X596000Y814000D02*
G54D73*
D03*
X481000Y804000D02*
G54D73*
D03*
X491000Y804000D02*
G54D73*
D03*
X501000Y804000D02*
G54D73*
D03*
X511000Y804000D02*
G54D73*
D03*
X521000Y804000D02*
G54D73*
D03*
X531000Y804000D02*
G54D73*
D03*
X421000Y804000D02*
G54D73*
D03*
X431000Y804000D02*
G54D73*
D03*
X441000Y804000D02*
G54D73*
D03*
X451000Y804000D02*
G54D73*
D03*
X461000Y804000D02*
G54D73*
D03*
X471000Y804000D02*
G54D73*
D03*
X361000Y804000D02*
G54D73*
D03*
X371000Y804000D02*
G54D73*
D03*
X381000Y804000D02*
G54D73*
D03*
X391000Y804000D02*
G54D73*
D03*
X401000Y804000D02*
G54D73*
D03*
X411000Y804000D02*
G54D73*
D03*
X301000Y804000D02*
G54D73*
D03*
X311000Y804000D02*
G54D73*
D03*
X321000Y804000D02*
G54D73*
D03*
X331000Y804000D02*
G54D73*
D03*
X341000Y804000D02*
G54D73*
D03*
X351000Y804000D02*
G54D73*
D03*
X241000Y804000D02*
G54D73*
D03*
X251000Y804000D02*
G54D73*
D03*
X261000Y804000D02*
G54D73*
D03*
X271000Y804000D02*
G54D73*
D03*
X281000Y804000D02*
G54D73*
D03*
X291000Y804000D02*
G54D73*
D03*
X181000Y804000D02*
G54D73*
D03*
X191000Y804000D02*
G54D73*
D03*
X201000Y804000D02*
G54D73*
D03*
X211000Y804000D02*
G54D73*
D03*
X221000Y804000D02*
G54D73*
D03*
X231000Y804000D02*
G54D73*
D03*
X121000Y804000D02*
G54D73*
D03*
X131000Y804000D02*
G54D73*
D03*
X141000Y804000D02*
G54D73*
D03*
X151000Y804000D02*
G54D73*
D03*
X161000Y804000D02*
G54D73*
D03*
X171000Y804000D02*
G54D73*
D03*
X61000Y804000D02*
G54D73*
D03*
X71000Y804000D02*
G54D73*
D03*
X81000Y804000D02*
G54D73*
D03*
X91000Y804000D02*
G54D73*
D03*
X101000Y804000D02*
G54D73*
D03*
X111000Y804000D02*
G54D73*
D03*
X61000Y993900D02*
G54D73*
D03*
X71000Y993900D02*
G54D73*
D03*
X81000Y993900D02*
G54D73*
D03*
X91000Y993900D02*
G54D73*
D03*
X101000Y993900D02*
G54D73*
D03*
X111000Y993900D02*
G54D73*
D03*
X121000Y993900D02*
G54D73*
D03*
X131000Y993900D02*
G54D73*
D03*
X141000Y993900D02*
G54D73*
D03*
X151000Y993900D02*
G54D73*
D03*
X161000Y993900D02*
G54D73*
D03*
X171000Y993900D02*
G54D73*
D03*
X181000Y993900D02*
G54D73*
D03*
X191000Y993900D02*
G54D73*
D03*
X201000Y993900D02*
G54D73*
D03*
X211000Y993900D02*
G54D73*
D03*
X221000Y993900D02*
G54D73*
D03*
X231000Y993900D02*
G54D73*
D03*
X241000Y993900D02*
G54D73*
D03*
X251000Y993900D02*
G54D73*
D03*
X41000Y993900D02*
G54D73*
D03*
X51000Y993900D02*
G54D73*
D03*
X21000Y993900D02*
G54D73*
D03*
X31000Y993900D02*
G54D73*
D03*
X41000Y804000D02*
G54D73*
D03*
X51000Y804000D02*
G54D73*
D03*
X21000Y804000D02*
G54D73*
D03*
X31000Y804000D02*
G54D73*
D03*
X11000Y804000D02*
G54D73*
D03*
X11000Y993900D02*
G54D73*
D03*
X6200Y874000D02*
G54D73*
D03*
X6200Y864000D02*
G54D73*
D03*
X6200Y854000D02*
G54D73*
D03*
X6200Y844000D02*
G54D73*
D03*
X6200Y834000D02*
G54D73*
D03*
X6200Y824000D02*
G54D73*
D03*
X6200Y934000D02*
G54D73*
D03*
X6200Y924000D02*
G54D73*
D03*
X6200Y914000D02*
G54D73*
D03*
X6200Y904000D02*
G54D73*
D03*
X6200Y894000D02*
G54D73*
D03*
X6200Y884000D02*
G54D73*
D03*
X6200Y954000D02*
G54D73*
D03*
X6200Y944000D02*
G54D73*
D03*
X6200Y974000D02*
G54D73*
D03*
X6200Y964000D02*
G54D73*
D03*
X6200Y984000D02*
G54D73*
D03*
X6200Y814000D02*
G54D73*
D03*
G54D49*
X6000Y804000D02*
X596000Y804000D01*
G36*
X6000Y809000D02*
X6000Y799000D01*
X1000Y799000D01*
X1000Y809000D01*
X6000Y809000D01*
G37*
G36*
X596000Y799000D02*
X596000Y809000D01*
X601000Y809000D01*
X601000Y799000D01*
X596000Y799000D01*
G37*
G54D49*
X6000Y994000D02*
X256000Y994000D01*
G36*
X6000Y999000D02*
X6000Y989000D01*
X1000Y989000D01*
X1000Y999000D01*
X6000Y999000D01*
G37*
G36*
X256000Y989000D02*
X256000Y999000D01*
X261000Y999000D01*
X261000Y989000D01*
X256000Y989000D01*
G37*
G54D49*
X297000Y994000D02*
X596000Y994000D01*
G36*
X297000Y999000D02*
X297000Y989000D01*
X292000Y989000D01*
X292000Y999000D01*
X297000Y999000D01*
G37*
G36*
X596000Y989000D02*
X596000Y999000D01*
X601000Y999000D01*
X601000Y989000D01*
X596000Y989000D01*
G37*
G54D49*
X6000Y984000D02*
X6000Y814000D01*
G36*
X11000Y984000D02*
X1000Y984000D01*
X1001Y989000D01*
X11001Y989000D01*
X11000Y984000D01*
G37*
G36*
X1000Y814000D02*
X11000Y814000D01*
X11000Y809000D01*
X1000Y809000D01*
X1000Y814000D01*
G37*
G54D49*
X596000Y985000D02*
X596000Y920000D01*
G36*
X601000Y985000D02*
X591000Y985000D01*
X591000Y990000D01*
X601000Y990000D01*
X601000Y985000D01*
G37*
G36*
X591000Y920000D02*
X601000Y920000D01*
X601000Y915000D01*
X591000Y915000D01*
X591000Y920000D01*
G37*
G54D49*
X596000Y878000D02*
X596000Y804000D01*
G36*
X601000Y878000D02*
X591000Y878000D01*
X591000Y883000D01*
X601000Y883000D01*
X601000Y878000D01*
G37*
G36*
X591000Y804000D02*
X601000Y804000D01*
X601000Y799000D01*
X591000Y799000D01*
X591000Y804000D01*
G37*
X596000Y926400D02*
G54D73*
D03*
X596000Y872000D02*
G54D73*
D03*
X595964Y879821D02*
G54D73*
D03*
X596006Y918651D02*
G54D73*
D03*
X567661Y886309D02*
G54D73*
D03*
X566896Y913495D02*
G54D73*
D03*
X558661Y914544D02*
G54D73*
D03*
X558661Y923099D02*
G54D73*
D03*
X558661Y932099D02*
G54D73*
D03*
X556000Y946000D02*
G54D73*
D03*
X556000Y954000D02*
G54D73*
D03*
X556000Y963000D02*
G54D73*
D03*
X556000Y971000D02*
G54D73*
D03*
X555000Y980000D02*
G54D73*
D03*
X549957Y985384D02*
G54D73*
D03*
X568661Y983099D02*
G54D73*
D03*
X583661Y971099D02*
G54D73*
D03*
X566661Y958099D02*
G54D73*
D03*
X581000Y946000D02*
G54D73*
D03*
X568661Y934099D02*
G54D73*
D03*
X581661Y924099D02*
G54D73*
D03*
X559548Y871895D02*
G54D73*
D03*
X582661Y876099D02*
G54D73*
D03*
X580661Y860099D02*
G54D73*
D03*
X562661Y860099D02*
G54D73*
D03*
X579661Y833099D02*
G54D73*
D03*
X567661Y844099D02*
G54D73*
D03*
X554661Y841099D02*
G54D73*
D03*
X563661Y824099D02*
G54D73*
D03*
X578661Y816099D02*
G54D73*
D03*
X550661Y813099D02*
G54D73*
D03*
X546661Y826099D02*
G54D73*
D03*
X535389Y813103D02*
G54D73*
D03*
X522101Y813539D02*
G54D73*
D03*
X527829Y819732D02*
G54D73*
D03*
X535661Y828099D02*
G54D73*
D03*
X543661Y836099D02*
G54D73*
D03*
X548661Y844099D02*
G54D73*
D03*
X552547Y851417D02*
G54D73*
D03*
X553661Y861099D02*
G54D73*
D03*
X553661Y869099D02*
G54D73*
D03*
X513986Y809377D02*
G54D73*
D03*
X505661Y809377D02*
G54D73*
D03*
X495661Y809377D02*
G54D73*
D03*
X485661Y809377D02*
G54D73*
D03*
X475661Y809377D02*
G54D73*
D03*
X465661Y809377D02*
G54D73*
D03*
X455661Y810099D02*
G54D73*
D03*
X501661Y835099D02*
G54D73*
D03*
X339661Y815099D02*
G54D73*
D03*
X281661Y815099D02*
G54D73*
D03*
X273661Y815099D02*
G54D73*
D03*
X307661Y811099D02*
G54D73*
D03*
X325661Y810099D02*
G54D73*
D03*
X265661Y816099D02*
G54D73*
D03*
X259661Y819099D02*
G54D73*
D03*
X445661Y810099D02*
G54D73*
D03*
X435661Y810099D02*
G54D73*
D03*
X425661Y810099D02*
G54D73*
D03*
X415661Y810099D02*
G54D73*
D03*
G54D53*
X182518Y951658D02*
X182518Y970244D01*
X181512Y971250D01*
G54D53*
X182518Y951658D02*
X182518Y932730D01*
X182575Y932674D01*
G54D53*
X162357Y928014D02*
X166986Y928014D01*
X179026Y915974D01*
X182475Y915974D01*
G54D67*
X162357Y928014D02*
X163210Y928866D01*
X163209Y951197D01*
G54D67*
X184762Y900469D02*
X162457Y900469D01*
X162457Y902014D01*
G54D67*
X184762Y879869D02*
X162457Y879869D01*
X162457Y879014D01*
G36*
X133000Y983000D02*
X133000Y962000D01*
X149000Y962000D01*
X149000Y939000D01*
X145000Y939000D01*
X145000Y815000D01*
X17000Y815000D01*
X17000Y983000D01*
X133000Y983000D01*
G37*
G54D51*
X133000Y983000D02*
X133000Y962000D01*
X149000Y962000D01*
X149000Y939000D01*
X145000Y939000D01*
X145000Y815000D01*
X17000Y815000D01*
X17000Y983000D01*
X133000Y983000D01*
X156107Y982433D02*
G54D73*
D03*
X143456Y982413D02*
G54D73*
D03*
X149806Y982413D02*
G54D73*
D03*
X162276Y982423D02*
G54D73*
D03*
X168457Y982423D02*
G54D73*
D03*
X192600Y985700D02*
G54D73*
D03*
X199000Y982000D02*
G54D73*
D03*
X205000Y982000D02*
G54D73*
D03*
X211000Y982000D02*
G54D73*
D03*
X217100Y984000D02*
G54D73*
D03*
X163210Y951197D02*
G54D61*
D03*
X181512Y971250D02*
G54D68*
D03*
X403189Y957289D02*
G54D73*
D03*
X298661Y976099D02*
G54D73*
D03*
X306661Y981099D02*
G54D73*
D03*
X315661Y983099D02*
G54D73*
D03*
X324661Y983099D02*
G54D73*
D03*
X334661Y983099D02*
G54D73*
D03*
X344661Y983099D02*
G54D73*
D03*
X354661Y983099D02*
G54D73*
D03*
X364661Y983099D02*
G54D73*
D03*
X373661Y983099D02*
G54D73*
D03*
X242818Y964751D02*
G54D73*
D03*
X257769Y968020D02*
G54D73*
D03*
X247661Y979099D02*
G54D73*
D03*
G54D62*
X309900Y867000D02*
X309900Y863900D01*
X309000Y863000D01*
X302000Y863000D01*
X301000Y862000D01*
X301000Y851000D01*
X304000Y848000D01*
X304001Y844086D01*
X320907Y855275D02*
G54D75*
D03*
X341707Y851775D02*
G54D75*
D03*
G36*
X506981Y934000D02*
X522981Y934000D01*
X522982Y908000D01*
X506982Y908000D01*
X506981Y934000D01*
G37*
G36*
X534981Y934000D02*
X550981Y934000D01*
X550982Y908000D01*
X534982Y908000D01*
X534981Y934000D01*
G37*
X392756Y943190D02*
G54D60*
D03*
X392756Y971191D02*
G54D60*
D03*
G54D67*
X184762Y900469D02*
X191593Y900520D01*
X199105Y900298D01*
X200978Y899469D01*
X211256Y897190D01*
G54D46*
X316936Y819151D02*
X316936Y827264D01*
X316900Y827300D01*
G54D52*
X316936Y819151D02*
X316936Y827264D01*
X316900Y827300D01*
G54D49*
X211256Y927191D02*
X227796Y935730D01*
X244758Y935722D01*
G54D67*
X184762Y879869D02*
X204000Y879869D01*
X204000Y877000D01*
G54D67*
X184762Y879869D02*
X184762Y862238D01*
X186000Y861000D01*
G54D29*
X162457Y879014D02*
X162457Y859543D01*
X164000Y858000D01*
X368500Y934100D02*
G54D55*
D03*
G54D67*
X540411Y893962D02*
X540512Y918530D01*
X542982Y921000D01*
G54D52*
X546988Y901189D02*
X546988Y913631D01*
X546700Y913919D01*
G54D67*
X514981Y921000D02*
X521881Y946400D01*
X499000Y906000D02*
G54D73*
D03*
X491451Y904064D02*
G54D73*
D03*
G54D53*
X375989Y917142D02*
X368500Y924631D01*
X368500Y934100D01*
X246661Y822099D02*
G54D73*
D03*
X220661Y822499D02*
G54D73*
D03*
X210661Y822499D02*
G54D73*
D03*
X198661Y822499D02*
G54D73*
D03*
X187661Y822499D02*
G54D73*
D03*
X175661Y823099D02*
G54D73*
D03*
X164661Y823099D02*
G54D73*
D03*
X155661Y823099D02*
G54D73*
D03*
X155661Y814099D02*
G54D73*
D03*
X170661Y814099D02*
G54D73*
D03*
X184661Y814099D02*
G54D73*
D03*
X197661Y814099D02*
G54D73*
D03*
X210661Y814099D02*
G54D73*
D03*
X223661Y814099D02*
G54D73*
D03*
X239661Y814099D02*
G54D73*
D03*
X253661Y814099D02*
G54D73*
D03*
X250659Y966144D02*
G54D73*
D03*
X176461Y985751D02*
G54D73*
D03*
X184813Y985809D02*
G54D73*
D03*
X81000Y919000D02*
G54D73*
D03*
X81000Y909000D02*
G54D73*
D03*
X81000Y899000D02*
G54D73*
D03*
X81000Y889000D02*
G54D73*
D03*
X81000Y879000D02*
G54D73*
D03*
X81000Y869000D02*
G54D73*
D03*
X81000Y929000D02*
G54D73*
D03*
X81000Y939000D02*
G54D73*
D03*
X91000Y939000D02*
G54D73*
D03*
X101000Y939000D02*
G54D73*
D03*
X111000Y939000D02*
G54D73*
D03*
X121000Y939000D02*
G54D73*
D03*
X131000Y939000D02*
G54D73*
D03*
X91000Y869000D02*
G54D73*
D03*
X101000Y869000D02*
G54D73*
D03*
X111000Y869000D02*
G54D73*
D03*
X121000Y869000D02*
G54D73*
D03*
X131000Y869000D02*
G54D73*
D03*
X75572Y934000D02*
G54D73*
D03*
X75572Y924000D02*
G54D73*
D03*
X75498Y914001D02*
G54D73*
D03*
X75572Y904000D02*
G54D73*
D03*
X75572Y894000D02*
G54D73*
D03*
X75572Y884000D02*
G54D73*
D03*
X75572Y874000D02*
G54D73*
D03*
X86000Y864000D02*
G54D73*
D03*
X96000Y864000D02*
G54D73*
D03*
X106000Y864000D02*
G54D73*
D03*
X116000Y864000D02*
G54D73*
D03*
X126000Y864000D02*
G54D73*
D03*
X86000Y944000D02*
G54D73*
D03*
X96000Y944000D02*
G54D73*
D03*
X106000Y944000D02*
G54D73*
D03*
X116000Y944000D02*
G54D73*
D03*
X126000Y944000D02*
G54D73*
D03*
X71000Y929000D02*
G54D73*
D03*
X71000Y919000D02*
G54D73*
D03*
X71000Y909000D02*
G54D73*
D03*
X71000Y899000D02*
G54D73*
D03*
X71000Y889000D02*
G54D73*
D03*
X71000Y879000D02*
G54D73*
D03*
X21000Y979000D02*
G54D73*
D03*
X41000Y979000D02*
G54D73*
D03*
X61000Y979000D02*
G54D73*
D03*
X81000Y979000D02*
G54D73*
D03*
X101000Y979000D02*
G54D73*
D03*
X121000Y979000D02*
G54D73*
D03*
X131000Y959000D02*
G54D73*
D03*
X21000Y959000D02*
G54D73*
D03*
X21000Y939000D02*
G54D73*
D03*
X21000Y919000D02*
G54D73*
D03*
X21000Y899000D02*
G54D73*
D03*
X21000Y879000D02*
G54D73*
D03*
X21000Y859000D02*
G54D73*
D03*
X21000Y839000D02*
G54D73*
D03*
X21000Y819000D02*
G54D73*
D03*
X41000Y819000D02*
G54D73*
D03*
X61000Y819000D02*
G54D73*
D03*
X81000Y819000D02*
G54D73*
D03*
X101000Y819000D02*
G54D73*
D03*
X121000Y819000D02*
G54D73*
D03*
X131000Y839000D02*
G54D73*
D03*
G54D38*
X359000Y816000D02*
X376000Y816000D01*
X428266Y985912D02*
G54D73*
D03*
M02*
