%FSLAX34Y34*%
%MOMM*%
%LNSMDMASK_TOP*%
G71*
G01*
%ADD10R,0.900X0.900*%
%ADD11R,1.900X1.500*%
%ADD12R,2.100X4.200*%
%ADD13R,2.600X2.790*%
%ADD14R,2.600X1.600*%
%ADD15R,1.400X1.100*%
%ADD16R,0.800X0.900*%
%ADD17R,1.100X0.700*%
%ADD18R,0.600X0.600*%
%ADD19R,1.400X1.600*%
%ADD20R,1.100X1.400*%
%ADD21R,1.500X3.000*%
%ADD22R,0.250X0.600*%
%ADD23R,0.600X0.250*%
%ADD24R,2.600X2.600*%
%ADD25R,1.000X1.120*%
%ADD26R,4.600X3.900*%
%ADD27R,1.120X1.000*%
%ADD28R,3.900X4.600*%
%ADD29R,0.900X1.200*%
%ADD30R,0.600X2.200*%
%ADD31R,3.200X1.500*%
%LPD*%
X329916Y844025D02*
G54D10*
D03*
X330016Y827325D02*
G54D10*
D03*
X146257Y956200D02*
G54D10*
D03*
X146157Y972900D02*
G54D10*
D03*
X328900Y941000D02*
G54D10*
D03*
X329000Y924300D02*
G54D10*
D03*
X341900Y941000D02*
G54D10*
D03*
X342000Y924300D02*
G54D10*
D03*
X354900Y941000D02*
G54D10*
D03*
X355000Y924300D02*
G54D10*
D03*
G36*
X382353Y917149D02*
X375996Y910778D01*
X369625Y917135D01*
X375982Y923506D01*
X382353Y917149D01*
G37*
G36*
X370615Y905274D02*
X364261Y898899D01*
X357887Y905252D01*
X364240Y911627D01*
X370615Y905274D01*
G37*
X162357Y925014D02*
G54D11*
D03*
X162457Y902014D02*
G54D11*
D03*
X162457Y879014D02*
G54D11*
D03*
X103757Y901914D02*
G54D12*
D03*
X113452Y843971D02*
G54D13*
D03*
G36*
X153252Y857921D02*
X179252Y857921D01*
X179252Y830021D01*
X153252Y830021D01*
X153252Y857921D01*
G37*
X211256Y925791D02*
G54D14*
D03*
X211256Y897791D02*
G54D14*
D03*
X184762Y879869D02*
G54D15*
D03*
X184762Y900469D02*
G54D15*
D03*
X163210Y971797D02*
G54D15*
D03*
X163210Y951197D02*
G54D15*
D03*
X317000Y844000D02*
G54D10*
D03*
X316900Y827300D02*
G54D10*
D03*
X368600Y950800D02*
G54D10*
D03*
X368500Y934100D02*
G54D10*
D03*
X331400Y960100D02*
G54D16*
D03*
X348100Y960000D02*
G54D16*
D03*
X300121Y960104D02*
G54D10*
D03*
X316821Y960004D02*
G54D10*
D03*
X277700Y827500D02*
G54D10*
D03*
X277800Y844200D02*
G54D10*
D03*
X359247Y846600D02*
G54D10*
D03*
X359347Y863300D02*
G54D10*
D03*
X345648Y844100D02*
G54D10*
D03*
X345548Y827400D02*
G54D10*
D03*
X359347Y816300D02*
G54D10*
D03*
X359447Y833000D02*
G54D10*
D03*
X372747Y849700D02*
G54D10*
D03*
X372647Y833000D02*
G54D10*
D03*
X389548Y863500D02*
G54D10*
D03*
X372848Y863600D02*
G54D10*
D03*
X385747Y849700D02*
G54D10*
D03*
X385647Y833000D02*
G54D10*
D03*
X399348Y850500D02*
G54D10*
D03*
X416048Y850400D02*
G54D10*
D03*
G36*
X395147Y841400D02*
X404147Y841401D01*
X404148Y832401D01*
X395148Y832400D01*
X395147Y841400D01*
G37*
X416347Y836800D02*
G54D10*
D03*
X467862Y853774D02*
G54D17*
D03*
X467862Y834774D02*
G54D17*
D03*
X440862Y853774D02*
G54D17*
D03*
X440862Y834774D02*
G54D17*
D03*
X440862Y844274D02*
G54D17*
D03*
X467862Y844274D02*
G54D17*
D03*
X429262Y846150D02*
G54D18*
D03*
X429262Y835050D02*
G54D18*
D03*
X418143Y869712D02*
G54D19*
D03*
X438743Y869712D02*
G54D19*
D03*
G36*
X477796Y848697D02*
X486796Y848703D01*
X486803Y839703D01*
X477803Y839697D01*
X477796Y848697D01*
G37*
G36*
X494499Y848599D02*
X503499Y848601D01*
X503501Y839601D01*
X494501Y839599D01*
X494499Y848599D01*
G37*
X472100Y866400D02*
G54D10*
D03*
X455400Y866500D02*
G54D10*
D03*
G36*
X418593Y826693D02*
X427593Y826707D01*
X427607Y817707D01*
X418607Y817693D01*
X418593Y826693D01*
G37*
G36*
X435293Y826593D02*
X444293Y826607D01*
X444307Y817607D01*
X435307Y817593D01*
X435293Y826593D01*
G37*
G36*
X450097Y826697D02*
X459097Y826703D01*
X459103Y817703D01*
X450103Y817697D01*
X450097Y826697D01*
G37*
G36*
X466799Y826600D02*
X475799Y826601D01*
X475801Y817601D01*
X466801Y817600D01*
X466799Y826600D01*
G37*
X182475Y915974D02*
G54D10*
D03*
X182575Y932674D02*
G54D10*
D03*
X202112Y971250D02*
G54D20*
D03*
X181512Y971250D02*
G54D20*
D03*
X263700Y862500D02*
G54D10*
D03*
X280400Y862400D02*
G54D10*
D03*
X280400Y875500D02*
G54D10*
D03*
X263700Y875600D02*
G54D10*
D03*
X280400Y888500D02*
G54D10*
D03*
X263700Y888600D02*
G54D10*
D03*
X280400Y901500D02*
G54D10*
D03*
X263700Y901600D02*
G54D10*
D03*
X280400Y914500D02*
G54D10*
D03*
X263700Y914600D02*
G54D10*
D03*
X280400Y927500D02*
G54D10*
D03*
X263700Y927600D02*
G54D10*
D03*
X248491Y856091D02*
G54D10*
D03*
X248391Y839391D02*
G54D10*
D03*
X276500Y984500D02*
G54D21*
D03*
X334900Y905000D02*
G54D22*
D03*
X334900Y867000D02*
G54D22*
D03*
X329900Y905000D02*
G54D22*
D03*
X329900Y867000D02*
G54D22*
D03*
X324900Y905000D02*
G54D22*
D03*
X324900Y867000D02*
G54D22*
D03*
X319900Y905000D02*
G54D22*
D03*
X319900Y867000D02*
G54D22*
D03*
X314900Y905000D02*
G54D22*
D03*
X314900Y867000D02*
G54D22*
D03*
X309900Y905000D02*
G54D22*
D03*
X309900Y867000D02*
G54D22*
D03*
X341400Y898500D02*
G54D23*
D03*
X303400Y898500D02*
G54D23*
D03*
X341400Y893500D02*
G54D23*
D03*
X303400Y893500D02*
G54D23*
D03*
X341400Y888500D02*
G54D23*
D03*
X303400Y888500D02*
G54D23*
D03*
X341400Y883500D02*
G54D23*
D03*
X303400Y883500D02*
G54D23*
D03*
X341400Y878500D02*
G54D23*
D03*
X303400Y878500D02*
G54D23*
D03*
X341400Y873500D02*
G54D23*
D03*
X303400Y873500D02*
G54D23*
D03*
X322400Y886000D02*
G54D24*
D03*
X291000Y844086D02*
G54D10*
D03*
X291100Y827386D02*
G54D10*
D03*
X304001Y844086D02*
G54D10*
D03*
X304101Y827386D02*
G54D10*
D03*
G36*
X299617Y941733D02*
X305977Y935365D01*
X299610Y929005D01*
X293249Y935372D01*
X299617Y941733D01*
G37*
G36*
X311504Y929995D02*
X317857Y923619D01*
X311481Y917267D01*
X305129Y923642D01*
X311504Y929995D01*
G37*
G36*
X375293Y895277D02*
X381646Y901653D01*
X388021Y895300D01*
X381669Y888925D01*
X375293Y895277D01*
G37*
G36*
X387031Y907162D02*
X393389Y913532D01*
X399759Y907174D01*
X393402Y900804D01*
X387031Y907162D01*
G37*
X542481Y946400D02*
G54D20*
D03*
X521881Y946400D02*
G54D20*
D03*
X542550Y964999D02*
G54D20*
D03*
X521950Y964999D02*
G54D20*
D03*
X572800Y899300D02*
G54D10*
D03*
X556100Y899200D02*
G54D10*
D03*
G36*
X507717Y824475D02*
X514075Y830845D01*
X520445Y824488D01*
X514088Y818117D01*
X507717Y824475D01*
G37*
G36*
X519455Y836355D02*
X525814Y842724D01*
X532183Y836365D01*
X525824Y829996D01*
X519455Y836355D01*
G37*
G36*
X515993Y984993D02*
X524993Y985007D01*
X525007Y976007D01*
X516007Y975993D01*
X515993Y984993D01*
G37*
G36*
X532693Y984893D02*
X541693Y984907D01*
X541707Y975907D01*
X532707Y975893D01*
X532693Y984893D01*
G37*
X445000Y940000D02*
G54D25*
D03*
X429900Y940000D02*
G54D25*
D03*
X414800Y940000D02*
G54D25*
D03*
X429900Y901100D02*
G54D25*
D03*
X438705Y972567D02*
G54D20*
D03*
X418106Y972567D02*
G54D20*
D03*
X456090Y974914D02*
G54D15*
D03*
X456089Y954314D02*
G54D15*
D03*
X472300Y894000D02*
G54D10*
D03*
X472200Y910700D02*
G54D10*
D03*
X429900Y901100D02*
G54D26*
D03*
X472831Y980883D02*
G54D10*
D03*
X472731Y964183D02*
G54D10*
D03*
X438743Y869712D02*
G54D19*
D03*
X540512Y862552D02*
G54D27*
D03*
X540512Y877652D02*
G54D27*
D03*
X540512Y892752D02*
G54D27*
D03*
X501612Y877652D02*
G54D27*
D03*
X501612Y877652D02*
G54D28*
D03*
X484781Y978328D02*
G54D29*
D03*
X507781Y978328D02*
G54D29*
D03*
X496281Y978328D02*
G54D30*
D03*
X584300Y899000D02*
G54D31*
D03*
X456090Y974915D02*
G54D15*
D03*
X542550Y965099D02*
G54D20*
D03*
X482300Y844200D02*
G54D10*
D03*
X329000Y924300D02*
G54D10*
D03*
X342000Y924300D02*
G54D10*
D03*
X355000Y924300D02*
G54D10*
D03*
X182518Y951658D02*
G54D29*
D03*
X205518Y951658D02*
G54D29*
D03*
X194018Y951658D02*
G54D30*
D03*
X163210Y951197D02*
G54D15*
D03*
X181512Y971250D02*
G54D20*
D03*
G36*
X506981Y934000D02*
X522981Y934000D01*
X522982Y908000D01*
X506982Y908000D01*
X506981Y934000D01*
G37*
G36*
X534981Y934000D02*
X550981Y934000D01*
X550982Y908000D01*
X534982Y908000D01*
X534981Y934000D01*
G37*
X392756Y943190D02*
G54D14*
D03*
X392756Y971191D02*
G54D14*
D03*
X368500Y934100D02*
G54D10*
D03*
M02*
