%FSLAX34Y34*%
%MOMM*%
%LNSILK_TOP*%
G71*
G01*
%ADD10C,0.150*%
%ADD11C,0.200*%
%ADD12C,0.222*%
%ADD13C,0.167*%
%LPD*%
G54D10*
X335404Y849875D02*
X324429Y849876D01*
X324429Y821575D01*
X335404Y821575D01*
X335404Y849875D01*
G54D10*
X140769Y950350D02*
X151744Y950350D01*
X151744Y978650D01*
X140769Y978650D01*
X140769Y950350D01*
G54D10*
X334388Y946850D02*
X323412Y946850D01*
X323413Y918550D01*
X334388Y918550D01*
X334388Y946850D01*
G54D10*
X347388Y946850D02*
X336413Y946850D01*
X336413Y918550D01*
X347388Y918550D01*
X347388Y946850D01*
G54D10*
X360388Y946850D02*
X349412Y946850D01*
X349413Y918550D01*
X360388Y918550D01*
X360388Y946850D01*
G54D10*
X384006Y917398D02*
X376245Y925159D01*
X356234Y905148D01*
X363994Y897387D01*
X384006Y917398D01*
G54D10*
X151157Y933714D02*
X116257Y933714D01*
X116257Y870214D01*
X151157Y870214D01*
X151157Y933714D01*
G54D10*
X98952Y858971D02*
X98952Y828971D01*
X180752Y828971D01*
X180752Y858971D01*
X98952Y858971D01*
G54D10*
X110277Y866196D02*
X116627Y866196D01*
G54D10*
X113452Y869371D02*
X113452Y863021D01*
G54D10*
X227256Y936791D02*
X195256Y936791D01*
X195256Y886791D01*
X227256Y886791D01*
X227256Y936791D01*
G54D10*
X176181Y907607D02*
X193244Y907607D01*
G54D10*
X176181Y872926D02*
X193244Y872925D01*
G54D10*
X176181Y907607D02*
X176181Y872926D01*
G54D10*
X193244Y907607D02*
X193244Y872925D01*
G54D10*
X154628Y944059D02*
X171691Y944059D01*
G54D10*
X154628Y978741D02*
X171691Y978741D01*
G54D10*
X154628Y944059D02*
X154628Y978741D01*
G54D10*
X171691Y944059D02*
X171691Y978741D01*
G54D10*
X311512Y849850D02*
X322488Y849850D01*
X322488Y821550D01*
X311512Y821550D01*
X311512Y849850D01*
G54D10*
X363112Y956650D02*
X374088Y956650D01*
X374088Y928350D01*
X363112Y928350D01*
X363112Y956650D01*
G54D10*
X325550Y954612D02*
X325550Y965587D01*
X353850Y965587D01*
X353850Y954612D01*
X325550Y954612D01*
G54D10*
X294271Y954617D02*
X294271Y965592D01*
X322571Y965592D01*
X322571Y954617D01*
X294271Y954617D01*
G54D10*
X283188Y821650D02*
X272212Y821650D01*
X272212Y849950D01*
X283188Y849950D01*
X283188Y821650D01*
G54D10*
X364734Y840750D02*
X353760Y840750D01*
X353760Y869050D01*
X364734Y869050D01*
X364734Y840750D01*
G54D10*
X340160Y849950D02*
X351135Y849950D01*
X351135Y821650D01*
X340160Y821650D01*
X340160Y849950D01*
G54D10*
X364835Y810450D02*
X353860Y810450D01*
X353860Y838750D01*
X364835Y838750D01*
X364835Y810450D01*
G54D10*
X367260Y855550D02*
X378235Y855550D01*
X378235Y827250D01*
X367260Y827250D01*
X367260Y855550D01*
G54D10*
X395398Y868988D02*
X395398Y858013D01*
X367098Y858013D01*
X367098Y868988D01*
X395398Y868988D01*
G54D10*
X380260Y855550D02*
X391235Y855550D01*
X391235Y827250D01*
X380260Y827250D01*
X380260Y855550D01*
G54D10*
X393498Y845013D02*
X393498Y855988D01*
X421798Y855988D01*
X421798Y845013D01*
X393498Y845013D01*
G54D10*
X393797Y831413D02*
X393798Y842388D01*
X422097Y842388D01*
X422097Y831413D01*
X393797Y831413D01*
G54D10*
X460781Y858574D02*
X448043Y858574D01*
X448043Y829974D01*
X460781Y829974D01*
X460781Y858574D01*
G54D11*
G75*
G01X453556Y854568D02*
G03X453556Y854568I-1600J0D01*
G01*
G36*
G75*
G01X453556Y854568D02*
G03X453556Y854568I-1600J0D01*
G01*
G37*
X453556Y854568D01*
G54D10*
X433350Y850112D02*
X433350Y830787D01*
G54D10*
X425274Y850112D02*
X425274Y830787D01*
G54D10*
X433350Y850112D02*
X425274Y850112D01*
G54D10*
X433350Y830787D02*
X425274Y830787D01*
G54D10*
X476450Y838712D02*
X476450Y849688D01*
X504750Y849688D01*
X504750Y838712D01*
X476450Y838712D01*
G54D10*
X477950Y871888D02*
X477950Y860913D01*
X449650Y860912D01*
X449650Y871888D01*
X477950Y871888D01*
G54D10*
X417250Y816713D02*
X417250Y827687D01*
X445550Y827688D01*
X445550Y816713D01*
X417250Y816713D01*
G54D10*
X448750Y816712D02*
X448750Y827687D01*
X477050Y827688D01*
X477050Y816713D01*
X448750Y816712D01*
G54D10*
X187962Y910124D02*
X176988Y910124D01*
X176988Y938424D01*
X187962Y938424D01*
X187962Y910124D01*
G54D10*
X174375Y979831D02*
X174375Y962769D01*
G54D10*
X209056Y979831D02*
X209056Y962769D01*
G54D10*
X174375Y979831D02*
X209056Y979831D01*
G54D10*
X174375Y962769D02*
X209056Y962769D01*
G54D10*
X257850Y857012D02*
X257850Y867988D01*
X286150Y867988D01*
X286150Y857012D01*
X257850Y857012D01*
G54D10*
X286250Y880988D02*
X286250Y870012D01*
X257950Y870012D01*
X257950Y880988D01*
X286250Y880988D01*
G54D10*
X286250Y893988D02*
X286250Y883012D01*
X257950Y883012D01*
X257950Y893988D01*
X286250Y893988D01*
G54D10*
X286250Y906988D02*
X286250Y896012D01*
X257950Y896012D01*
X257950Y906988D01*
X286250Y906988D01*
G54D10*
X286250Y919988D02*
X286250Y909012D01*
X257950Y909012D01*
X257950Y919988D01*
X286250Y919988D01*
G54D10*
X286250Y932988D02*
X286250Y922012D01*
X257950Y922012D01*
X257950Y932988D01*
X286250Y932988D01*
G54D10*
X243003Y861941D02*
X253978Y861941D01*
X253978Y833641D01*
X243003Y833641D01*
X243003Y861941D01*
G54D10*
X345900Y862500D02*
X298900Y862500D01*
X298900Y909500D01*
X345900Y909500D01*
X345900Y862500D01*
G36*
X339000Y863000D02*
X339000Y869000D01*
X345000Y869000D01*
X345000Y863600D01*
X344900Y863500D01*
X339000Y863000D01*
G37*
G54D10*
X339000Y863000D02*
X339000Y869000D01*
X345000Y869000D01*
X345000Y863600D01*
X344900Y863500D01*
X339000Y863000D01*
G54D10*
X296488Y849936D02*
X285512Y849936D01*
X285513Y821636D01*
X296488Y821636D01*
X296488Y849936D01*
G54D10*
X309488Y849936D02*
X298513Y849936D01*
X298513Y821636D01*
X309488Y821636D01*
X309488Y849936D01*
G54D10*
X299357Y943386D02*
X291596Y935625D01*
X311608Y915614D01*
X319368Y923375D01*
X299357Y943386D01*
G54D10*
X409500Y879293D02*
X447300Y879293D01*
X447300Y860100D01*
X409500Y860100D01*
X409500Y879293D01*
G54D10*
X373640Y895032D02*
X381401Y887272D01*
X401412Y907283D01*
X393652Y915043D01*
X373640Y895032D01*
G54D10*
X514744Y937819D02*
X514744Y954881D01*
G54D10*
X549425Y937819D02*
X549425Y954881D01*
G54D10*
X514744Y937819D02*
X549425Y937819D01*
G54D10*
X514744Y954881D02*
X549425Y954881D01*
G54D10*
X514812Y956418D02*
X514812Y973481D01*
G54D10*
X549494Y956418D02*
X549494Y973481D01*
G54D10*
X514812Y956418D02*
X549494Y956418D01*
G54D10*
X514812Y973481D02*
X549494Y973481D01*
G54D10*
X578650Y893812D02*
X578650Y904788D01*
X550350Y904788D01*
X550350Y893812D01*
X578650Y893812D01*
G54D10*
X506064Y824225D02*
X513825Y816464D01*
X533836Y836475D01*
X526075Y844236D01*
X506064Y824225D01*
G54D10*
X514650Y975012D02*
X514650Y985987D01*
X542950Y985988D01*
X542950Y975013D01*
X514650Y975012D01*
G54D10*
X405319Y910675D02*
X404600Y910681D01*
X404600Y930519D01*
X423319Y930519D01*
G54D10*
X454282Y910675D02*
X455001Y910681D01*
X455001Y930519D01*
X436282Y930519D01*
G54D10*
X410968Y963986D02*
X410968Y981048D01*
G54D10*
X445649Y963986D02*
X445649Y981048D01*
G54D10*
X410968Y963986D02*
X445649Y963986D01*
G54D10*
X410968Y981048D02*
X445649Y981048D01*
G54D10*
X464671Y947176D02*
X447608Y947177D01*
G54D10*
X464671Y981858D02*
X447608Y981858D01*
G54D10*
X464671Y947176D02*
X464671Y981858D01*
G54D10*
X447608Y947177D02*
X447608Y981858D01*
G54D10*
X466812Y888150D02*
X477788Y888150D01*
X477788Y916450D01*
X466812Y916450D01*
X466812Y888150D01*
G54D10*
X467343Y986733D02*
X478318Y986733D01*
X478318Y958433D01*
X467343Y958433D01*
X467343Y986733D01*
G54D10*
X511186Y902233D02*
X511193Y902952D01*
X531030Y902952D01*
X531030Y884233D01*
G54D10*
X511187Y853270D02*
X511193Y852551D01*
X531030Y852551D01*
X531030Y871270D01*
G54D10*
X501031Y969078D02*
X511031Y969078D01*
X511031Y970828D01*
G54D10*
X501031Y987478D02*
X511031Y987478D01*
X511031Y985728D01*
G54D10*
X491531Y987478D02*
X481531Y987478D01*
X481531Y985728D01*
G54D10*
X491531Y969078D02*
X481531Y969078D01*
X481531Y970828D01*
G54D10*
X198768Y942408D02*
X208768Y942408D01*
X208768Y944158D01*
G54D10*
X198768Y960808D02*
X208768Y960808D01*
X208768Y959058D01*
G54D10*
X189268Y960808D02*
X179268Y960808D01*
X179268Y959058D01*
G54D10*
X189268Y942408D02*
X179268Y942408D01*
X179268Y944158D01*
G54D10*
X503982Y937000D02*
X503982Y905000D01*
X553982Y905000D01*
X553982Y937000D01*
X503982Y937000D01*
G54D10*
X376756Y932191D02*
X408756Y932191D01*
X408756Y982191D01*
X376756Y982191D01*
X376756Y932191D01*
G54D12*
X44992Y832429D02*
X27214Y832429D01*
X27214Y839096D01*
X28325Y841762D01*
X30547Y843096D01*
X32770Y843096D01*
X34992Y841762D01*
X36103Y839096D01*
X36103Y832429D01*
G54D12*
X27214Y847985D02*
X44992Y847985D01*
X44992Y857318D01*
G54D12*
X27214Y862207D02*
X44992Y862207D01*
X44992Y871540D01*
G54D12*
X27214Y881585D02*
X44992Y888252D01*
X27214Y894918D01*
G54D12*
X41659Y910474D02*
X43881Y909140D01*
X44992Y906474D01*
X44992Y903807D01*
X43881Y901140D01*
X41659Y899807D01*
X30547Y899807D01*
X28325Y901140D01*
X27214Y903807D01*
X27214Y906474D01*
X28325Y909140D01*
X30547Y910474D01*
G54D12*
X30547Y926030D02*
X41659Y926030D01*
X43881Y924696D01*
X44992Y922030D01*
X44992Y919363D01*
X43881Y916696D01*
X41659Y915363D01*
X30547Y915363D01*
X28325Y916696D01*
X27214Y919363D01*
X27214Y922030D01*
X28325Y924696D01*
X30547Y926030D01*
G54D12*
X33881Y936075D02*
X27214Y942742D01*
X44992Y942742D01*
G54D12*
X37214Y947631D02*
X37214Y958298D01*
G54D12*
X33881Y963187D02*
X27214Y969854D01*
X44992Y969854D01*
G54D13*
X298826Y977889D02*
X301826Y976222D01*
X302826Y974556D01*
X302826Y971222D01*
G54D13*
X294826Y971222D02*
X294826Y984556D01*
X299826Y984556D01*
X301826Y983722D01*
X302826Y982056D01*
X302826Y980389D01*
X301826Y978722D01*
X299826Y977889D01*
X294826Y977889D01*
G54D13*
X313492Y971222D02*
X306492Y971222D01*
X306492Y984556D01*
X313492Y984556D01*
G54D13*
X306492Y977889D02*
X313492Y977889D01*
G54D13*
X317160Y971222D02*
X317160Y984556D01*
X324160Y984556D01*
G54D13*
X317160Y977889D02*
X324160Y977889D01*
G54D13*
X327826Y971222D02*
X337826Y971222D01*
G54D13*
X349494Y973722D02*
X348494Y972056D01*
X346494Y971222D01*
X344494Y971222D01*
X342494Y972056D01*
X341494Y973722D01*
X341494Y982056D01*
X342494Y983722D01*
X344494Y984556D01*
X346494Y984556D01*
X348494Y983722D01*
X349494Y982056D01*
G54D13*
X353160Y984556D02*
X353160Y971222D01*
X360160Y971222D01*
G54D13*
X363828Y971222D02*
X363828Y984556D01*
G54D13*
X363828Y975389D02*
X371828Y984556D01*
G54D13*
X366828Y977889D02*
X371828Y971222D01*
G54D13*
X572629Y846391D02*
X585963Y851391D01*
X572629Y856391D01*
G54D13*
X583463Y868058D02*
X585129Y867058D01*
X585963Y865058D01*
X585963Y863058D01*
X585129Y861058D01*
X583463Y860058D01*
X575129Y860058D01*
X573463Y861058D01*
X572629Y863058D01*
X572629Y865058D01*
X573463Y867058D01*
X575129Y868058D01*
G54D13*
X575129Y879725D02*
X583463Y879725D01*
X585129Y878725D01*
X585963Y876725D01*
X585963Y874725D01*
X585129Y872725D01*
X583463Y871725D01*
X575129Y871725D01*
X573463Y872725D01*
X572629Y874725D01*
X572629Y876725D01*
X573463Y878725D01*
X575129Y879725D01*
G54D13*
X575729Y927391D02*
X584063Y927391D01*
X585729Y926391D01*
X586563Y924391D01*
X586563Y922391D01*
X585729Y920391D01*
X584063Y919391D01*
X575729Y919391D01*
X574063Y920391D01*
X573229Y922391D01*
X573229Y924391D01*
X574063Y926391D01*
X575729Y927391D01*
G54D13*
X573229Y931058D02*
X584063Y931058D01*
X585729Y932058D01*
X586563Y934058D01*
X586563Y936058D01*
X585729Y938058D01*
X584063Y939058D01*
X573229Y939058D01*
G54D13*
X586563Y946725D02*
X573229Y946725D01*
G54D13*
X573229Y942725D02*
X573229Y950725D01*
M02*
