; Drill file
; Format: 2.4 (00.0000)
M48
INCH
T01C0.0118
T02C0.0157
%
G05
G90
T01
X000430Y031650
X000830Y031650
X001220Y031650
X001610Y031650
X002010Y031650
X002400Y031650
X002800Y031650
X003190Y031650
X003580Y031650
X003980Y031650
X004370Y031650
X004760Y031650
X005160Y031650
X005550Y031650
X005940Y031650
X006340Y031650
X006730Y031650
X007130Y031650
X007520Y031650
X007910Y031650
X008310Y031650
X008700Y031650
X009090Y031650
X009490Y031650
X009880Y031650
X010280Y031650
X010670Y031650
X011060Y031650
X011460Y031650
X011850Y031650
X012110Y031930
X012240Y031650
X012640Y031650
X012820Y031890
X013030Y031650
X013430Y031650
X013820Y031650
X014210Y031650
X014610Y031650
X015000Y031650
X015390Y031650
X015790Y031650
X016180Y031650
X016360Y031890
X016570Y031650
X016760Y031890
X016970Y031650
X017150Y031890
X017360Y031650
X017550Y031890
X017760Y031650
X017940Y031890
X018150Y031650
X018330Y031870
X018540Y031650
X018730Y031870
X018940Y031650
X019120Y031870
X019330Y031650
X019510Y031870
X019720Y031650
X019910Y031870
X020120Y031650
X020240Y031870
X020510Y031650
X020560Y032030
X020780Y032270
X021080Y032010
X020910Y031650
X021300Y031650
X021690Y031650
X021680Y032010
X021520Y032520
X021400Y032920
X021600Y033230
X021840Y033110
X021750Y033520
X021800Y033900
X021800Y034220
X022030Y034330
X022040Y034580
X022070Y034810
X021810Y034800
X021800Y034510
X022350Y034890
X022600Y034890
X022830Y034890
X023070Y034890
X023310Y034890
X023540Y034890
X023460Y034640
X023460Y034330
X023460Y034020
X023460Y033620
X023460Y033230
X023460Y032830
X023460Y032440
X023460Y032050
X023270Y031650
X022870Y031650
X022480Y031650
X022090Y031650
X022190Y032440
X022780Y032130
X022820Y032800
X022350Y033230
X022150Y033860
X022860Y033860
X022940Y034490
X022830Y035900
X023070Y035900
X023310Y035900
X023540Y035900
X023460Y036170
X023460Y036470
X023460Y036810
X023460Y037200
X023460Y037600
X023460Y037990
X023460Y038390
X023460Y038780
X023270Y039130
X022870Y039130
X022480Y039130
X022090Y039130
X021690Y039130
X021650Y038790
X021850Y038580
X021890Y038230
X021890Y037910
X021890Y037560
X021890Y037240
X021990Y036700
X021990Y036340
X021990Y036010
X022320Y035960
X022600Y035900
X022900Y036380
X022390Y036780
X022870Y037240
X022310Y037720
X022980Y038230
X022390Y038700
X021300Y039130
X020910Y039130
X020510Y039130
X020120Y039130
X019740Y039130
X019350Y039130
X018940Y039130
X018540Y039130
X018150Y039130
X017760Y039130
X017360Y039130
X016970Y039130
X016860Y038820
X016570Y039130
X016180Y039130
X015790Y039130
X015390Y039130
X015000Y039130
X014610Y039130
X014210Y039130
X013820Y039130
X013430Y039130
X013030Y039130
X012640Y039130
X012240Y039130
X011850Y039130
X011380Y039190
X011380Y038960
X011380Y038720
X011380Y038480
X011380Y038250
X011760Y038430
X012070Y038630
X012430Y038700
X012780Y038700
X013180Y038700
X013570Y038700
X013960Y038700
X014360Y038700
X014710Y038700
X014660Y037820
X015000Y037690
X015420Y037690
X015870Y037690
X016360Y037690
X016690Y037440
X016800Y037640
X016920Y037440
X017160Y037440
X017040Y037650
X017310Y037770
X017480Y037540
X018450Y037500
X018610Y037250
X018810Y037470
X019110Y037490
X019350Y037550
X019530Y037730
X019590Y037970
X019840Y038000
X020100Y038000
X020060Y037750
X020050Y037510
X020030Y037270
X019900Y037070
X019650Y036930
X019650Y036610
X019650Y036300
X019650Y035980
X019650Y035670
X019350Y035590
X019090Y035790
X019090Y036140
X019090Y036500
X019090Y036810
X018870Y037080
X019080Y037230
X018000Y036530
X018110Y036300
X018110Y036020
X018110Y035750
X018110Y035470
X018110Y035190
X018110Y034910
X018110Y034600
X017810Y034600
X017640Y034880
X017400Y034880
X017170Y034880
X016930Y034880
X016690Y034880
X016460Y034880
X016220Y034880
X016220Y035160
X016220Y035430
X016220Y035710
X016220Y036030
X016580Y036030
X016930Y036030
X016930Y036300
X016930Y036610
X016520Y036440
X016210Y036440
X015890Y035440
X015660Y035200
X015430Y034980
X015570Y034720
X015570Y034460
X015870Y034550
X015870Y034840
X015870Y034260
X015870Y034000
X015260Y034460
X015220Y034750
X014900Y034720
X014900Y034460
X014550Y034460
X014550Y034720
X014190Y034720
X014190Y034460
X013850Y034470
X013850Y034700
X013050Y034760
X013050Y035000
X013050Y035240
X012810Y035240
X012580Y035240
X012340Y035240
X012340Y035000
X012580Y035000
X012810Y035000
X012810Y034760
X012580Y034760
X012340Y034760
X012340Y034530
X012580Y034530
X012810Y034530
X013050Y034530
X012160Y033680
X011330Y033960
X010380Y033580
X010070Y034470
X010070Y034980
X010070Y035490
X010070Y036000
X010070Y036510
X009160Y036360
X009170Y035990
X009160Y035580
X009170Y035180
X009160Y034770
X009170Y034360
X009160Y033950
X009170Y033550
X009160Y033140
X009170Y032740
X009170Y032330
X009440Y032050
X009710Y032370
X009990Y032050
X010220Y032250
X010460Y032130
X010770Y032090
X011090Y032090
X011370Y032260
X011610Y032260
X011840Y032260
X012080Y032260
X012890Y032260
X013130Y032260
X013370Y032090
X013680Y032120
X014580Y032500
X014820Y032500
X015060Y032500
X015290Y032500
X015530Y032540
X015770Y032580
X016890Y033660
X017640Y035160
X017640Y035430
X017640Y035710
X017640Y036030
X017280Y036030
X017350Y036440
X017700Y036440
X019160Y035260
X019160Y035020
X019160Y034780
X019160Y034550
X019160Y034310
X019160Y034080
X019160Y033840
X019430Y033840
X019710Y033840
X019980Y033840
X020300Y033840
X020300Y034190
X020300Y034550
X020590Y034560
X020870Y034570
X020730Y034930
X020300Y034900
X020300Y035260
X019980Y035260
X019710Y035260
X019430Y035260
X020730Y035400
X020750Y034190
X020730Y033900
X020630Y033640
X020460Y033430
X020270Y033230
X020020Y033260
X020020Y033510
X020020Y032990
X019750Y032880
X019470Y032870
X021090Y032600
X014050Y037340
X013810Y037340
X013580Y037340
X013340Y037340
X013100Y037340
X012870Y037340
X012090Y037080
X011530Y036480
X011720Y036280
X011920Y036080
X011130Y036940
X010390Y038250
X010390Y038480
X010390Y038720
X010390Y038960
X010390Y039190
X009880Y039130
X009490Y039130
X009090Y039130
X008700Y039130
X008310Y039130
X007910Y039130
X007520Y039130
X007580Y038810
X007830Y038660
X008070Y038660
X008310Y038660
X008550Y038740
X008660Y038520
X008660Y038270
X008660Y038020
X008910Y038020
X009160Y038020
X009160Y038270
X008910Y038270
X008910Y038520
X009160Y038520
X009750Y038550
X009870Y038040
X010150Y038110
X009560Y037980
X009160Y037620
X009160Y037310
X007280Y038810
X006950Y038810
X006630Y038680
X006390Y038680
X006150Y038680
X005900Y038680
X005650Y038680
X005550Y039130
X005160Y039130
X004760Y039130
X004370Y039130
X003980Y039130
X003580Y039130
X003190Y039130
X002800Y039130
X002400Y039130
X002010Y039130
X001610Y039130
X001220Y039130
X000830Y039130
X000430Y039130
X000240Y038740
X000240Y038350
X000240Y037950
X000240Y037560
X000240Y037170
X000240Y036770
X000240Y036380
X000240Y035980
X000240Y035590
X000240Y035200
X000240Y034800
X000240Y034410
X000240Y034020
X000240Y033620
X000240Y033230
X000240Y032830
X000240Y032440
X000240Y032050
X000830Y032240
X000830Y033030
X000830Y033820
X000830Y034610
X000830Y035390
X000830Y036180
X000830Y036970
X000830Y037760
X000830Y038540
X001610Y038540
X002400Y038540
X003190Y038540
X003980Y038540
X004760Y038540
X005160Y037760
X004960Y037170
X004760Y036970
X004570Y037170
X004370Y036970
X004170Y037170
X003980Y036970
X003780Y037170
X003580Y036970
X003390Y037170
X003190Y036970
X002980Y036770
X002800Y036570
X002980Y036380
X002800Y036180
X002970Y035980
X002800Y035790
X002980Y035590
X002800Y035390
X002980Y035200
X002800Y035000
X002980Y034800
X002800Y034610
X002980Y034410
X003190Y034610
X003190Y035000
X003190Y035390
X003190Y035790
X003190Y036180
X003190Y036570
X005160Y036970
X005940Y039130
X006340Y039130
X006730Y039130
X007130Y039130
X005160Y034210
X004960Y034020
X004760Y034210
X004570Y034020
X004370Y034210
X004170Y034020
X003980Y034210
X003780Y034020
X003580Y034210
X003390Y034020
X003190Y034210
X003190Y032240
X002400Y032240
X001610Y032240
X003980Y032240
X004760Y032240
X005160Y033030
X006130Y032410
X006480Y032410
X006720Y032050
X006920Y032410
X007390Y032380
X007270Y032050
X007780Y032050
X007820Y032380
X008290Y032380
X008290Y032050
X008810Y032050
X008690Y032380
X006130Y032050
T02
X008430Y037460
X010360Y037230
X011980Y037490
X012770Y037810
X014010Y037800
X013200Y036580
X013860Y035950
X013450Y033530
X012630Y033670
X012480Y032250
X010440Y032680
X016300Y032370
X019120Y037970
M30
