<?xml version="1.0" encoding="utf-8" standalone="no"?>
<!DOCTYPE svg PUBLIC "-//W3C//DTD SVG 1.1//EN"
  "http://www.w3.org/Graphics/SVG/1.1/DTD/svg11.dtd">
<svg xmlns:xlink="http://www.w3.org/1999/xlink" width="460.8pt" height="345.6pt" viewBox="0 0 460.8 345.6" xmlns="http://www.w3.org/2000/svg" version="1.1">
 <metadata>
  <rdf:RDF xmlns:dc="http://purl.org/dc/elements/1.1/" xmlns:cc="http://creativecommons.org/ns#" xmlns:rdf="http://www.w3.org/1999/02/22-rdf-syntax-ns#">
   <cc:Work>
    <dc:type rdf:resource="http://purl.org/dc/dcmitype/StillImage"/>
    <dc:date>2022-11-10T15:08:45.814812</dc:date>
    <dc:format>image/svg+xml</dc:format>
    <dc:creator>
     <cc:Agent>
      <dc:title>Matplotlib v3.5.1, https://matplotlib.org/</dc:title>
     </cc:Agent>
    </dc:creator>
   </cc:Work>
  </rdf:RDF>
 </metadata>
 <defs>
  <style type="text/css">*{stroke-linejoin: round; stroke-linecap: butt}</style>
 </defs>
 <g id="figure_1">
  <g id="patch_1">
   <path d="M 0 345.6 
L 460.8 345.6 
L 460.8 0 
L 0 0 
z
" style="fill: #ffffff"/>
  </g>
  <g id="axes_1">
   <g id="patch_2">
    <path d="M 57.6 307.584 
L 414.72 307.584 
L 414.72 41.472 
L 57.6 41.472 
z
" style="fill: #ffffff"/>
   </g>
   <g id="matplotlib.axis_1">
    <g id="xtick_1">
     <g id="line2d_1">
      <defs>
       <path id="m6b6671b2f9" d="M 0 0 
L 0 3.5 
" style="stroke: #000000; stroke-width: 0.8"/>
      </defs>
      <g>
       <use xlink:href="#m6b6671b2f9" x="73.832727" y="307.584" style="stroke: #000000; stroke-width: 0.8"/>
      </g>
     </g>
     <g id="text_1">
      <!-- $\mathdefault{10^{3}}$ -->
      <g transform="translate(65.032727 322.182437)scale(0.1 -0.1)">
       <defs>
        <path id="DejaVuSans-31" d="M 794 531 
L 1825 531 
L 1825 4091 
L 703 3866 
L 703 4441 
L 1819 4666 
L 2450 4666 
L 2450 531 
L 3481 531 
L 3481 0 
L 794 0 
L 794 531 
z
" transform="scale(0.015625)"/>
        <path id="DejaVuSans-30" d="M 2034 4250 
Q 1547 4250 1301 3770 
Q 1056 3291 1056 2328 
Q 1056 1369 1301 889 
Q 1547 409 2034 409 
Q 2525 409 2770 889 
Q 3016 1369 3016 2328 
Q 3016 3291 2770 3770 
Q 2525 4250 2034 4250 
z
M 2034 4750 
Q 2819 4750 3233 4129 
Q 3647 3509 3647 2328 
Q 3647 1150 3233 529 
Q 2819 -91 2034 -91 
Q 1250 -91 836 529 
Q 422 1150 422 2328 
Q 422 3509 836 4129 
Q 1250 4750 2034 4750 
z
" transform="scale(0.015625)"/>
        <path id="DejaVuSans-33" d="M 2597 2516 
Q 3050 2419 3304 2112 
Q 3559 1806 3559 1356 
Q 3559 666 3084 287 
Q 2609 -91 1734 -91 
Q 1441 -91 1130 -33 
Q 819 25 488 141 
L 488 750 
Q 750 597 1062 519 
Q 1375 441 1716 441 
Q 2309 441 2620 675 
Q 2931 909 2931 1356 
Q 2931 1769 2642 2001 
Q 2353 2234 1838 2234 
L 1294 2234 
L 1294 2753 
L 1863 2753 
Q 2328 2753 2575 2939 
Q 2822 3125 2822 3475 
Q 2822 3834 2567 4026 
Q 2313 4219 1838 4219 
Q 1578 4219 1281 4162 
Q 984 4106 628 3988 
L 628 4550 
Q 988 4650 1302 4700 
Q 1616 4750 1894 4750 
Q 2613 4750 3031 4423 
Q 3450 4097 3450 3541 
Q 3450 3153 3228 2886 
Q 3006 2619 2597 2516 
z
" transform="scale(0.015625)"/>
       </defs>
       <use xlink:href="#DejaVuSans-31" transform="translate(0 0.765625)"/>
       <use xlink:href="#DejaVuSans-30" transform="translate(63.623047 0.765625)"/>
       <use xlink:href="#DejaVuSans-33" transform="translate(128.203125 39.046875)scale(0.7)"/>
      </g>
     </g>
    </g>
    <g id="xtick_2">
     <g id="line2d_2">
      <g>
       <use xlink:href="#m6b6671b2f9" x="154.996364" y="307.584" style="stroke: #000000; stroke-width: 0.8"/>
      </g>
     </g>
     <g id="text_2">
      <!-- $\mathdefault{10^{4}}$ -->
      <g transform="translate(146.196364 322.182437)scale(0.1 -0.1)">
       <defs>
        <path id="DejaVuSans-34" d="M 2419 4116 
L 825 1625 
L 2419 1625 
L 2419 4116 
z
M 2253 4666 
L 3047 4666 
L 3047 1625 
L 3713 1625 
L 3713 1100 
L 3047 1100 
L 3047 0 
L 2419 0 
L 2419 1100 
L 313 1100 
L 313 1709 
L 2253 4666 
z
" transform="scale(0.015625)"/>
       </defs>
       <use xlink:href="#DejaVuSans-31" transform="translate(0 0.684375)"/>
       <use xlink:href="#DejaVuSans-30" transform="translate(63.623047 0.684375)"/>
       <use xlink:href="#DejaVuSans-34" transform="translate(128.203125 38.965625)scale(0.7)"/>
      </g>
     </g>
    </g>
    <g id="xtick_3">
     <g id="line2d_3">
      <g>
       <use xlink:href="#m6b6671b2f9" x="236.16" y="307.584" style="stroke: #000000; stroke-width: 0.8"/>
      </g>
     </g>
     <g id="text_3">
      <!-- $\mathdefault{10^{5}}$ -->
      <g transform="translate(227.36 322.182437)scale(0.1 -0.1)">
       <defs>
        <path id="DejaVuSans-35" d="M 691 4666 
L 3169 4666 
L 3169 4134 
L 1269 4134 
L 1269 2991 
Q 1406 3038 1543 3061 
Q 1681 3084 1819 3084 
Q 2600 3084 3056 2656 
Q 3513 2228 3513 1497 
Q 3513 744 3044 326 
Q 2575 -91 1722 -91 
Q 1428 -91 1123 -41 
Q 819 9 494 109 
L 494 744 
Q 775 591 1075 516 
Q 1375 441 1709 441 
Q 2250 441 2565 725 
Q 2881 1009 2881 1497 
Q 2881 1984 2565 2268 
Q 2250 2553 1709 2553 
Q 1456 2553 1204 2497 
Q 953 2441 691 2322 
L 691 4666 
z
" transform="scale(0.015625)"/>
       </defs>
       <use xlink:href="#DejaVuSans-31" transform="translate(0 0.684375)"/>
       <use xlink:href="#DejaVuSans-30" transform="translate(63.623047 0.684375)"/>
       <use xlink:href="#DejaVuSans-35" transform="translate(128.203125 38.965625)scale(0.7)"/>
      </g>
     </g>
    </g>
    <g id="xtick_4">
     <g id="line2d_4">
      <g>
       <use xlink:href="#m6b6671b2f9" x="317.323636" y="307.584" style="stroke: #000000; stroke-width: 0.8"/>
      </g>
     </g>
     <g id="text_4">
      <!-- $\mathdefault{10^{6}}$ -->
      <g transform="translate(308.523636 322.182437)scale(0.1 -0.1)">
       <defs>
        <path id="DejaVuSans-36" d="M 2113 2584 
Q 1688 2584 1439 2293 
Q 1191 2003 1191 1497 
Q 1191 994 1439 701 
Q 1688 409 2113 409 
Q 2538 409 2786 701 
Q 3034 994 3034 1497 
Q 3034 2003 2786 2293 
Q 2538 2584 2113 2584 
z
M 3366 4563 
L 3366 3988 
Q 3128 4100 2886 4159 
Q 2644 4219 2406 4219 
Q 1781 4219 1451 3797 
Q 1122 3375 1075 2522 
Q 1259 2794 1537 2939 
Q 1816 3084 2150 3084 
Q 2853 3084 3261 2657 
Q 3669 2231 3669 1497 
Q 3669 778 3244 343 
Q 2819 -91 2113 -91 
Q 1303 -91 875 529 
Q 447 1150 447 2328 
Q 447 3434 972 4092 
Q 1497 4750 2381 4750 
Q 2619 4750 2861 4703 
Q 3103 4656 3366 4563 
z
" transform="scale(0.015625)"/>
       </defs>
       <use xlink:href="#DejaVuSans-31" transform="translate(0 0.765625)"/>
       <use xlink:href="#DejaVuSans-30" transform="translate(63.623047 0.765625)"/>
       <use xlink:href="#DejaVuSans-36" transform="translate(128.203125 39.046875)scale(0.7)"/>
      </g>
     </g>
    </g>
    <g id="xtick_5">
     <g id="line2d_5">
      <g>
       <use xlink:href="#m6b6671b2f9" x="398.487273" y="307.584" style="stroke: #000000; stroke-width: 0.8"/>
      </g>
     </g>
     <g id="text_5">
      <!-- $\mathdefault{10^{7}}$ -->
      <g transform="translate(389.687273 322.182437)scale(0.1 -0.1)">
       <defs>
        <path id="DejaVuSans-37" d="M 525 4666 
L 3525 4666 
L 3525 4397 
L 1831 0 
L 1172 0 
L 2766 4134 
L 525 4134 
L 525 4666 
z
" transform="scale(0.015625)"/>
       </defs>
       <use xlink:href="#DejaVuSans-31" transform="translate(0 0.684375)"/>
       <use xlink:href="#DejaVuSans-30" transform="translate(63.623047 0.684375)"/>
       <use xlink:href="#DejaVuSans-37" transform="translate(128.203125 38.965625)scale(0.7)"/>
      </g>
     </g>
    </g>
    <g id="xtick_6">
     <g id="line2d_6">
      <defs>
       <path id="m2392f6ccb9" d="M 0 0 
L 0 2 
" style="stroke: #000000; stroke-width: 0.6"/>
      </defs>
      <g>
       <use xlink:href="#m2392f6ccb9" x="61.260321" y="307.584" style="stroke: #000000; stroke-width: 0.6"/>
      </g>
     </g>
    </g>
    <g id="xtick_7">
     <g id="line2d_7">
      <g>
       <use xlink:href="#m2392f6ccb9" x="65.967158" y="307.584" style="stroke: #000000; stroke-width: 0.6"/>
      </g>
     </g>
    </g>
    <g id="xtick_8">
     <g id="line2d_8">
      <g>
       <use xlink:href="#m2392f6ccb9" x="70.118883" y="307.584" style="stroke: #000000; stroke-width: 0.6"/>
      </g>
     </g>
    </g>
    <g id="xtick_9">
     <g id="line2d_9">
      <g>
       <use xlink:href="#m2392f6ccb9" x="98.265416" y="307.584" style="stroke: #000000; stroke-width: 0.6"/>
      </g>
     </g>
    </g>
    <g id="xtick_10">
     <g id="line2d_10">
      <g>
       <use xlink:href="#m2392f6ccb9" x="112.557623" y="307.584" style="stroke: #000000; stroke-width: 0.6"/>
      </g>
     </g>
    </g>
    <g id="xtick_11">
     <g id="line2d_11">
      <g>
       <use xlink:href="#m2392f6ccb9" x="122.698105" y="307.584" style="stroke: #000000; stroke-width: 0.6"/>
      </g>
     </g>
    </g>
    <g id="xtick_12">
     <g id="line2d_12">
      <g>
       <use xlink:href="#m2392f6ccb9" x="130.563675" y="307.584" style="stroke: #000000; stroke-width: 0.6"/>
      </g>
     </g>
    </g>
    <g id="xtick_13">
     <g id="line2d_13">
      <g>
       <use xlink:href="#m2392f6ccb9" x="136.990312" y="307.584" style="stroke: #000000; stroke-width: 0.6"/>
      </g>
     </g>
    </g>
    <g id="xtick_14">
     <g id="line2d_14">
      <g>
       <use xlink:href="#m2392f6ccb9" x="142.423957" y="307.584" style="stroke: #000000; stroke-width: 0.6"/>
      </g>
     </g>
    </g>
    <g id="xtick_15">
     <g id="line2d_15">
      <g>
       <use xlink:href="#m2392f6ccb9" x="147.130795" y="307.584" style="stroke: #000000; stroke-width: 0.6"/>
      </g>
     </g>
    </g>
    <g id="xtick_16">
     <g id="line2d_16">
      <g>
       <use xlink:href="#m2392f6ccb9" x="151.282519" y="307.584" style="stroke: #000000; stroke-width: 0.6"/>
      </g>
     </g>
    </g>
    <g id="xtick_17">
     <g id="line2d_17">
      <g>
       <use xlink:href="#m2392f6ccb9" x="179.429053" y="307.584" style="stroke: #000000; stroke-width: 0.6"/>
      </g>
     </g>
    </g>
    <g id="xtick_18">
     <g id="line2d_18">
      <g>
       <use xlink:href="#m2392f6ccb9" x="193.72126" y="307.584" style="stroke: #000000; stroke-width: 0.6"/>
      </g>
     </g>
    </g>
    <g id="xtick_19">
     <g id="line2d_19">
      <g>
       <use xlink:href="#m2392f6ccb9" x="203.861742" y="307.584" style="stroke: #000000; stroke-width: 0.6"/>
      </g>
     </g>
    </g>
    <g id="xtick_20">
     <g id="line2d_20">
      <g>
       <use xlink:href="#m2392f6ccb9" x="211.727311" y="307.584" style="stroke: #000000; stroke-width: 0.6"/>
      </g>
     </g>
    </g>
    <g id="xtick_21">
     <g id="line2d_21">
      <g>
       <use xlink:href="#m2392f6ccb9" x="218.153949" y="307.584" style="stroke: #000000; stroke-width: 0.6"/>
      </g>
     </g>
    </g>
    <g id="xtick_22">
     <g id="line2d_22">
      <g>
       <use xlink:href="#m2392f6ccb9" x="223.587594" y="307.584" style="stroke: #000000; stroke-width: 0.6"/>
      </g>
     </g>
    </g>
    <g id="xtick_23">
     <g id="line2d_23">
      <g>
       <use xlink:href="#m2392f6ccb9" x="228.294431" y="307.584" style="stroke: #000000; stroke-width: 0.6"/>
      </g>
     </g>
    </g>
    <g id="xtick_24">
     <g id="line2d_24">
      <g>
       <use xlink:href="#m2392f6ccb9" x="232.446156" y="307.584" style="stroke: #000000; stroke-width: 0.6"/>
      </g>
     </g>
    </g>
    <g id="xtick_25">
     <g id="line2d_25">
      <g>
       <use xlink:href="#m2392f6ccb9" x="260.592689" y="307.584" style="stroke: #000000; stroke-width: 0.6"/>
      </g>
     </g>
    </g>
    <g id="xtick_26">
     <g id="line2d_26">
      <g>
       <use xlink:href="#m2392f6ccb9" x="274.884896" y="307.584" style="stroke: #000000; stroke-width: 0.6"/>
      </g>
     </g>
    </g>
    <g id="xtick_27">
     <g id="line2d_27">
      <g>
       <use xlink:href="#m2392f6ccb9" x="285.025378" y="307.584" style="stroke: #000000; stroke-width: 0.6"/>
      </g>
     </g>
    </g>
    <g id="xtick_28">
     <g id="line2d_28">
      <g>
       <use xlink:href="#m2392f6ccb9" x="292.890947" y="307.584" style="stroke: #000000; stroke-width: 0.6"/>
      </g>
     </g>
    </g>
    <g id="xtick_29">
     <g id="line2d_29">
      <g>
       <use xlink:href="#m2392f6ccb9" x="299.317585" y="307.584" style="stroke: #000000; stroke-width: 0.6"/>
      </g>
     </g>
    </g>
    <g id="xtick_30">
     <g id="line2d_30">
      <g>
       <use xlink:href="#m2392f6ccb9" x="304.75123" y="307.584" style="stroke: #000000; stroke-width: 0.6"/>
      </g>
     </g>
    </g>
    <g id="xtick_31">
     <g id="line2d_31">
      <g>
       <use xlink:href="#m2392f6ccb9" x="309.458067" y="307.584" style="stroke: #000000; stroke-width: 0.6"/>
      </g>
     </g>
    </g>
    <g id="xtick_32">
     <g id="line2d_32">
      <g>
       <use xlink:href="#m2392f6ccb9" x="313.609792" y="307.584" style="stroke: #000000; stroke-width: 0.6"/>
      </g>
     </g>
    </g>
    <g id="xtick_33">
     <g id="line2d_33">
      <g>
       <use xlink:href="#m2392f6ccb9" x="341.756325" y="307.584" style="stroke: #000000; stroke-width: 0.6"/>
      </g>
     </g>
    </g>
    <g id="xtick_34">
     <g id="line2d_34">
      <g>
       <use xlink:href="#m2392f6ccb9" x="356.048532" y="307.584" style="stroke: #000000; stroke-width: 0.6"/>
      </g>
     </g>
    </g>
    <g id="xtick_35">
     <g id="line2d_35">
      <g>
       <use xlink:href="#m2392f6ccb9" x="366.189015" y="307.584" style="stroke: #000000; stroke-width: 0.6"/>
      </g>
     </g>
    </g>
    <g id="xtick_36">
     <g id="line2d_36">
      <g>
       <use xlink:href="#m2392f6ccb9" x="374.054584" y="307.584" style="stroke: #000000; stroke-width: 0.6"/>
      </g>
     </g>
    </g>
    <g id="xtick_37">
     <g id="line2d_37">
      <g>
       <use xlink:href="#m2392f6ccb9" x="380.481221" y="307.584" style="stroke: #000000; stroke-width: 0.6"/>
      </g>
     </g>
    </g>
    <g id="xtick_38">
     <g id="line2d_38">
      <g>
       <use xlink:href="#m2392f6ccb9" x="385.914866" y="307.584" style="stroke: #000000; stroke-width: 0.6"/>
      </g>
     </g>
    </g>
    <g id="xtick_39">
     <g id="line2d_39">
      <g>
       <use xlink:href="#m2392f6ccb9" x="390.621704" y="307.584" style="stroke: #000000; stroke-width: 0.6"/>
      </g>
     </g>
    </g>
    <g id="xtick_40">
     <g id="line2d_40">
      <g>
       <use xlink:href="#m2392f6ccb9" x="394.773428" y="307.584" style="stroke: #000000; stroke-width: 0.6"/>
      </g>
     </g>
    </g>
    <g id="text_6">
     <!-- Frequency [Hz] -->
     <g transform="translate(198.455312 335.860562)scale(0.1 -0.1)">
      <defs>
       <path id="DejaVuSans-46" d="M 628 4666 
L 3309 4666 
L 3309 4134 
L 1259 4134 
L 1259 2759 
L 3109 2759 
L 3109 2228 
L 1259 2228 
L 1259 0 
L 628 0 
L 628 4666 
z
" transform="scale(0.015625)"/>
       <path id="DejaVuSans-72" d="M 2631 2963 
Q 2534 3019 2420 3045 
Q 2306 3072 2169 3072 
Q 1681 3072 1420 2755 
Q 1159 2438 1159 1844 
L 1159 0 
L 581 0 
L 581 3500 
L 1159 3500 
L 1159 2956 
Q 1341 3275 1631 3429 
Q 1922 3584 2338 3584 
Q 2397 3584 2469 3576 
Q 2541 3569 2628 3553 
L 2631 2963 
z
" transform="scale(0.015625)"/>
       <path id="DejaVuSans-65" d="M 3597 1894 
L 3597 1613 
L 953 1613 
Q 991 1019 1311 708 
Q 1631 397 2203 397 
Q 2534 397 2845 478 
Q 3156 559 3463 722 
L 3463 178 
Q 3153 47 2828 -22 
Q 2503 -91 2169 -91 
Q 1331 -91 842 396 
Q 353 884 353 1716 
Q 353 2575 817 3079 
Q 1281 3584 2069 3584 
Q 2775 3584 3186 3129 
Q 3597 2675 3597 1894 
z
M 3022 2063 
Q 3016 2534 2758 2815 
Q 2500 3097 2075 3097 
Q 1594 3097 1305 2825 
Q 1016 2553 972 2059 
L 3022 2063 
z
" transform="scale(0.015625)"/>
       <path id="DejaVuSans-71" d="M 947 1747 
Q 947 1113 1208 752 
Q 1469 391 1925 391 
Q 2381 391 2643 752 
Q 2906 1113 2906 1747 
Q 2906 2381 2643 2742 
Q 2381 3103 1925 3103 
Q 1469 3103 1208 2742 
Q 947 2381 947 1747 
z
M 2906 525 
Q 2725 213 2448 61 
Q 2172 -91 1784 -91 
Q 1150 -91 751 415 
Q 353 922 353 1747 
Q 353 2572 751 3078 
Q 1150 3584 1784 3584 
Q 2172 3584 2448 3432 
Q 2725 3281 2906 2969 
L 2906 3500 
L 3481 3500 
L 3481 -1331 
L 2906 -1331 
L 2906 525 
z
" transform="scale(0.015625)"/>
       <path id="DejaVuSans-75" d="M 544 1381 
L 544 3500 
L 1119 3500 
L 1119 1403 
Q 1119 906 1312 657 
Q 1506 409 1894 409 
Q 2359 409 2629 706 
Q 2900 1003 2900 1516 
L 2900 3500 
L 3475 3500 
L 3475 0 
L 2900 0 
L 2900 538 
Q 2691 219 2414 64 
Q 2138 -91 1772 -91 
Q 1169 -91 856 284 
Q 544 659 544 1381 
z
M 1991 3584 
L 1991 3584 
z
" transform="scale(0.015625)"/>
       <path id="DejaVuSans-6e" d="M 3513 2113 
L 3513 0 
L 2938 0 
L 2938 2094 
Q 2938 2591 2744 2837 
Q 2550 3084 2163 3084 
Q 1697 3084 1428 2787 
Q 1159 2491 1159 1978 
L 1159 0 
L 581 0 
L 581 3500 
L 1159 3500 
L 1159 2956 
Q 1366 3272 1645 3428 
Q 1925 3584 2291 3584 
Q 2894 3584 3203 3211 
Q 3513 2838 3513 2113 
z
" transform="scale(0.015625)"/>
       <path id="DejaVuSans-63" d="M 3122 3366 
L 3122 2828 
Q 2878 2963 2633 3030 
Q 2388 3097 2138 3097 
Q 1578 3097 1268 2742 
Q 959 2388 959 1747 
Q 959 1106 1268 751 
Q 1578 397 2138 397 
Q 2388 397 2633 464 
Q 2878 531 3122 666 
L 3122 134 
Q 2881 22 2623 -34 
Q 2366 -91 2075 -91 
Q 1284 -91 818 406 
Q 353 903 353 1747 
Q 353 2603 823 3093 
Q 1294 3584 2113 3584 
Q 2378 3584 2631 3529 
Q 2884 3475 3122 3366 
z
" transform="scale(0.015625)"/>
       <path id="DejaVuSans-79" d="M 2059 -325 
Q 1816 -950 1584 -1140 
Q 1353 -1331 966 -1331 
L 506 -1331 
L 506 -850 
L 844 -850 
Q 1081 -850 1212 -737 
Q 1344 -625 1503 -206 
L 1606 56 
L 191 3500 
L 800 3500 
L 1894 763 
L 2988 3500 
L 3597 3500 
L 2059 -325 
z
" transform="scale(0.015625)"/>
       <path id="DejaVuSans-20" transform="scale(0.015625)"/>
       <path id="DejaVuSans-5b" d="M 550 4863 
L 1875 4863 
L 1875 4416 
L 1125 4416 
L 1125 -397 
L 1875 -397 
L 1875 -844 
L 550 -844 
L 550 4863 
z
" transform="scale(0.015625)"/>
       <path id="DejaVuSans-48" d="M 628 4666 
L 1259 4666 
L 1259 2753 
L 3553 2753 
L 3553 4666 
L 4184 4666 
L 4184 0 
L 3553 0 
L 3553 2222 
L 1259 2222 
L 1259 0 
L 628 0 
L 628 4666 
z
" transform="scale(0.015625)"/>
       <path id="DejaVuSans-7a" d="M 353 3500 
L 3084 3500 
L 3084 2975 
L 922 459 
L 3084 459 
L 3084 0 
L 275 0 
L 275 525 
L 2438 3041 
L 353 3041 
L 353 3500 
z
" transform="scale(0.015625)"/>
       <path id="DejaVuSans-5d" d="M 1947 4863 
L 1947 -844 
L 622 -844 
L 622 -397 
L 1369 -397 
L 1369 4416 
L 622 4416 
L 622 4863 
L 1947 4863 
z
" transform="scale(0.015625)"/>
      </defs>
      <use xlink:href="#DejaVuSans-46"/>
      <use xlink:href="#DejaVuSans-72" x="50.269531"/>
      <use xlink:href="#DejaVuSans-65" x="89.132812"/>
      <use xlink:href="#DejaVuSans-71" x="150.65625"/>
      <use xlink:href="#DejaVuSans-75" x="214.132812"/>
      <use xlink:href="#DejaVuSans-65" x="277.511719"/>
      <use xlink:href="#DejaVuSans-6e" x="339.035156"/>
      <use xlink:href="#DejaVuSans-63" x="402.414062"/>
      <use xlink:href="#DejaVuSans-79" x="457.394531"/>
      <use xlink:href="#DejaVuSans-20" x="516.574219"/>
      <use xlink:href="#DejaVuSans-5b" x="548.361328"/>
      <use xlink:href="#DejaVuSans-48" x="587.375"/>
      <use xlink:href="#DejaVuSans-7a" x="662.570312"/>
      <use xlink:href="#DejaVuSans-5d" x="715.060547"/>
     </g>
    </g>
   </g>
   <g id="matplotlib.axis_2">
    <g id="ytick_1">
     <g id="line2d_41">
      <defs>
       <path id="m40f910a636" d="M 0 0 
L -3.5 0 
" style="stroke: #000000; stroke-width: 0.8"/>
      </defs>
      <g>
       <use xlink:href="#m40f910a636" x="57.6" y="307.584" style="stroke: #000000; stroke-width: 0.8"/>
      </g>
     </g>
     <g id="text_7">
      <!-- −140 -->
      <g transform="translate(23.132812 311.383219)scale(0.1 -0.1)">
       <defs>
        <path id="DejaVuSans-2212" d="M 678 2272 
L 4684 2272 
L 4684 1741 
L 678 1741 
L 678 2272 
z
" transform="scale(0.015625)"/>
       </defs>
       <use xlink:href="#DejaVuSans-2212"/>
       <use xlink:href="#DejaVuSans-31" x="83.789062"/>
       <use xlink:href="#DejaVuSans-34" x="147.412109"/>
       <use xlink:href="#DejaVuSans-30" x="211.035156"/>
      </g>
     </g>
    </g>
    <g id="ytick_2">
     <g id="line2d_42">
      <g>
       <use xlink:href="#m40f910a636" x="57.6" y="274.32" style="stroke: #000000; stroke-width: 0.8"/>
      </g>
     </g>
     <g id="text_8">
      <!-- −130 -->
      <g transform="translate(23.132812 278.119219)scale(0.1 -0.1)">
       <use xlink:href="#DejaVuSans-2212"/>
       <use xlink:href="#DejaVuSans-31" x="83.789062"/>
       <use xlink:href="#DejaVuSans-33" x="147.412109"/>
       <use xlink:href="#DejaVuSans-30" x="211.035156"/>
      </g>
     </g>
    </g>
    <g id="ytick_3">
     <g id="line2d_43">
      <g>
       <use xlink:href="#m40f910a636" x="57.6" y="241.056" style="stroke: #000000; stroke-width: 0.8"/>
      </g>
     </g>
     <g id="text_9">
      <!-- −120 -->
      <g transform="translate(23.132812 244.855219)scale(0.1 -0.1)">
       <defs>
        <path id="DejaVuSans-32" d="M 1228 531 
L 3431 531 
L 3431 0 
L 469 0 
L 469 531 
Q 828 903 1448 1529 
Q 2069 2156 2228 2338 
Q 2531 2678 2651 2914 
Q 2772 3150 2772 3378 
Q 2772 3750 2511 3984 
Q 2250 4219 1831 4219 
Q 1534 4219 1204 4116 
Q 875 4013 500 3803 
L 500 4441 
Q 881 4594 1212 4672 
Q 1544 4750 1819 4750 
Q 2544 4750 2975 4387 
Q 3406 4025 3406 3419 
Q 3406 3131 3298 2873 
Q 3191 2616 2906 2266 
Q 2828 2175 2409 1742 
Q 1991 1309 1228 531 
z
" transform="scale(0.015625)"/>
       </defs>
       <use xlink:href="#DejaVuSans-2212"/>
       <use xlink:href="#DejaVuSans-31" x="83.789062"/>
       <use xlink:href="#DejaVuSans-32" x="147.412109"/>
       <use xlink:href="#DejaVuSans-30" x="211.035156"/>
      </g>
     </g>
    </g>
    <g id="ytick_4">
     <g id="line2d_44">
      <g>
       <use xlink:href="#m40f910a636" x="57.6" y="207.792" style="stroke: #000000; stroke-width: 0.8"/>
      </g>
     </g>
     <g id="text_10">
      <!-- −110 -->
      <g transform="translate(23.132812 211.591219)scale(0.1 -0.1)">
       <use xlink:href="#DejaVuSans-2212"/>
       <use xlink:href="#DejaVuSans-31" x="83.789062"/>
       <use xlink:href="#DejaVuSans-31" x="147.412109"/>
       <use xlink:href="#DejaVuSans-30" x="211.035156"/>
      </g>
     </g>
    </g>
    <g id="ytick_5">
     <g id="line2d_45">
      <g>
       <use xlink:href="#m40f910a636" x="57.6" y="174.528" style="stroke: #000000; stroke-width: 0.8"/>
      </g>
     </g>
     <g id="text_11">
      <!-- −100 -->
      <g transform="translate(23.132812 178.327219)scale(0.1 -0.1)">
       <use xlink:href="#DejaVuSans-2212"/>
       <use xlink:href="#DejaVuSans-31" x="83.789062"/>
       <use xlink:href="#DejaVuSans-30" x="147.412109"/>
       <use xlink:href="#DejaVuSans-30" x="211.035156"/>
      </g>
     </g>
    </g>
    <g id="ytick_6">
     <g id="line2d_46">
      <g>
       <use xlink:href="#m40f910a636" x="57.6" y="141.264" style="stroke: #000000; stroke-width: 0.8"/>
      </g>
     </g>
     <g id="text_12">
      <!-- −90 -->
      <g transform="translate(29.495313 145.063219)scale(0.1 -0.1)">
       <defs>
        <path id="DejaVuSans-39" d="M 703 97 
L 703 672 
Q 941 559 1184 500 
Q 1428 441 1663 441 
Q 2288 441 2617 861 
Q 2947 1281 2994 2138 
Q 2813 1869 2534 1725 
Q 2256 1581 1919 1581 
Q 1219 1581 811 2004 
Q 403 2428 403 3163 
Q 403 3881 828 4315 
Q 1253 4750 1959 4750 
Q 2769 4750 3195 4129 
Q 3622 3509 3622 2328 
Q 3622 1225 3098 567 
Q 2575 -91 1691 -91 
Q 1453 -91 1209 -44 
Q 966 3 703 97 
z
M 1959 2075 
Q 2384 2075 2632 2365 
Q 2881 2656 2881 3163 
Q 2881 3666 2632 3958 
Q 2384 4250 1959 4250 
Q 1534 4250 1286 3958 
Q 1038 3666 1038 3163 
Q 1038 2656 1286 2365 
Q 1534 2075 1959 2075 
z
" transform="scale(0.015625)"/>
       </defs>
       <use xlink:href="#DejaVuSans-2212"/>
       <use xlink:href="#DejaVuSans-39" x="83.789062"/>
       <use xlink:href="#DejaVuSans-30" x="147.412109"/>
      </g>
     </g>
    </g>
    <g id="ytick_7">
     <g id="line2d_47">
      <g>
       <use xlink:href="#m40f910a636" x="57.6" y="108" style="stroke: #000000; stroke-width: 0.8"/>
      </g>
     </g>
     <g id="text_13">
      <!-- −80 -->
      <g transform="translate(29.495313 111.799219)scale(0.1 -0.1)">
       <defs>
        <path id="DejaVuSans-38" d="M 2034 2216 
Q 1584 2216 1326 1975 
Q 1069 1734 1069 1313 
Q 1069 891 1326 650 
Q 1584 409 2034 409 
Q 2484 409 2743 651 
Q 3003 894 3003 1313 
Q 3003 1734 2745 1975 
Q 2488 2216 2034 2216 
z
M 1403 2484 
Q 997 2584 770 2862 
Q 544 3141 544 3541 
Q 544 4100 942 4425 
Q 1341 4750 2034 4750 
Q 2731 4750 3128 4425 
Q 3525 4100 3525 3541 
Q 3525 3141 3298 2862 
Q 3072 2584 2669 2484 
Q 3125 2378 3379 2068 
Q 3634 1759 3634 1313 
Q 3634 634 3220 271 
Q 2806 -91 2034 -91 
Q 1263 -91 848 271 
Q 434 634 434 1313 
Q 434 1759 690 2068 
Q 947 2378 1403 2484 
z
M 1172 3481 
Q 1172 3119 1398 2916 
Q 1625 2713 2034 2713 
Q 2441 2713 2670 2916 
Q 2900 3119 2900 3481 
Q 2900 3844 2670 4047 
Q 2441 4250 2034 4250 
Q 1625 4250 1398 4047 
Q 1172 3844 1172 3481 
z
" transform="scale(0.015625)"/>
       </defs>
       <use xlink:href="#DejaVuSans-2212"/>
       <use xlink:href="#DejaVuSans-38" x="83.789062"/>
       <use xlink:href="#DejaVuSans-30" x="147.412109"/>
      </g>
     </g>
    </g>
    <g id="ytick_8">
     <g id="line2d_48">
      <g>
       <use xlink:href="#m40f910a636" x="57.6" y="74.736" style="stroke: #000000; stroke-width: 0.8"/>
      </g>
     </g>
     <g id="text_14">
      <!-- −70 -->
      <g transform="translate(29.495313 78.535219)scale(0.1 -0.1)">
       <use xlink:href="#DejaVuSans-2212"/>
       <use xlink:href="#DejaVuSans-37" x="83.789062"/>
       <use xlink:href="#DejaVuSans-30" x="147.412109"/>
      </g>
     </g>
    </g>
    <g id="ytick_9">
     <g id="line2d_49">
      <g>
       <use xlink:href="#m40f910a636" x="57.6" y="41.472" style="stroke: #000000; stroke-width: 0.8"/>
      </g>
     </g>
     <g id="text_15">
      <!-- −60 -->
      <g transform="translate(29.495313 45.271219)scale(0.1 -0.1)">
       <use xlink:href="#DejaVuSans-2212"/>
       <use xlink:href="#DejaVuSans-36" x="83.789062"/>
       <use xlink:href="#DejaVuSans-30" x="147.412109"/>
      </g>
     </g>
    </g>
    <g id="text_16">
     <!-- Phase noise [dBc/Hz] -->
     <g transform="translate(17.053125 227.257688)rotate(-90)scale(0.1 -0.1)">
      <defs>
       <path id="DejaVuSans-50" d="M 1259 4147 
L 1259 2394 
L 2053 2394 
Q 2494 2394 2734 2622 
Q 2975 2850 2975 3272 
Q 2975 3691 2734 3919 
Q 2494 4147 2053 4147 
L 1259 4147 
z
M 628 4666 
L 2053 4666 
Q 2838 4666 3239 4311 
Q 3641 3956 3641 3272 
Q 3641 2581 3239 2228 
Q 2838 1875 2053 1875 
L 1259 1875 
L 1259 0 
L 628 0 
L 628 4666 
z
" transform="scale(0.015625)"/>
       <path id="DejaVuSans-68" d="M 3513 2113 
L 3513 0 
L 2938 0 
L 2938 2094 
Q 2938 2591 2744 2837 
Q 2550 3084 2163 3084 
Q 1697 3084 1428 2787 
Q 1159 2491 1159 1978 
L 1159 0 
L 581 0 
L 581 4863 
L 1159 4863 
L 1159 2956 
Q 1366 3272 1645 3428 
Q 1925 3584 2291 3584 
Q 2894 3584 3203 3211 
Q 3513 2838 3513 2113 
z
" transform="scale(0.015625)"/>
       <path id="DejaVuSans-61" d="M 2194 1759 
Q 1497 1759 1228 1600 
Q 959 1441 959 1056 
Q 959 750 1161 570 
Q 1363 391 1709 391 
Q 2188 391 2477 730 
Q 2766 1069 2766 1631 
L 2766 1759 
L 2194 1759 
z
M 3341 1997 
L 3341 0 
L 2766 0 
L 2766 531 
Q 2569 213 2275 61 
Q 1981 -91 1556 -91 
Q 1019 -91 701 211 
Q 384 513 384 1019 
Q 384 1609 779 1909 
Q 1175 2209 1959 2209 
L 2766 2209 
L 2766 2266 
Q 2766 2663 2505 2880 
Q 2244 3097 1772 3097 
Q 1472 3097 1187 3025 
Q 903 2953 641 2809 
L 641 3341 
Q 956 3463 1253 3523 
Q 1550 3584 1831 3584 
Q 2591 3584 2966 3190 
Q 3341 2797 3341 1997 
z
" transform="scale(0.015625)"/>
       <path id="DejaVuSans-73" d="M 2834 3397 
L 2834 2853 
Q 2591 2978 2328 3040 
Q 2066 3103 1784 3103 
Q 1356 3103 1142 2972 
Q 928 2841 928 2578 
Q 928 2378 1081 2264 
Q 1234 2150 1697 2047 
L 1894 2003 
Q 2506 1872 2764 1633 
Q 3022 1394 3022 966 
Q 3022 478 2636 193 
Q 2250 -91 1575 -91 
Q 1294 -91 989 -36 
Q 684 19 347 128 
L 347 722 
Q 666 556 975 473 
Q 1284 391 1588 391 
Q 1994 391 2212 530 
Q 2431 669 2431 922 
Q 2431 1156 2273 1281 
Q 2116 1406 1581 1522 
L 1381 1569 
Q 847 1681 609 1914 
Q 372 2147 372 2553 
Q 372 3047 722 3315 
Q 1072 3584 1716 3584 
Q 2034 3584 2315 3537 
Q 2597 3491 2834 3397 
z
" transform="scale(0.015625)"/>
       <path id="DejaVuSans-6f" d="M 1959 3097 
Q 1497 3097 1228 2736 
Q 959 2375 959 1747 
Q 959 1119 1226 758 
Q 1494 397 1959 397 
Q 2419 397 2687 759 
Q 2956 1122 2956 1747 
Q 2956 2369 2687 2733 
Q 2419 3097 1959 3097 
z
M 1959 3584 
Q 2709 3584 3137 3096 
Q 3566 2609 3566 1747 
Q 3566 888 3137 398 
Q 2709 -91 1959 -91 
Q 1206 -91 779 398 
Q 353 888 353 1747 
Q 353 2609 779 3096 
Q 1206 3584 1959 3584 
z
" transform="scale(0.015625)"/>
       <path id="DejaVuSans-69" d="M 603 3500 
L 1178 3500 
L 1178 0 
L 603 0 
L 603 3500 
z
M 603 4863 
L 1178 4863 
L 1178 4134 
L 603 4134 
L 603 4863 
z
" transform="scale(0.015625)"/>
       <path id="DejaVuSans-64" d="M 2906 2969 
L 2906 4863 
L 3481 4863 
L 3481 0 
L 2906 0 
L 2906 525 
Q 2725 213 2448 61 
Q 2172 -91 1784 -91 
Q 1150 -91 751 415 
Q 353 922 353 1747 
Q 353 2572 751 3078 
Q 1150 3584 1784 3584 
Q 2172 3584 2448 3432 
Q 2725 3281 2906 2969 
z
M 947 1747 
Q 947 1113 1208 752 
Q 1469 391 1925 391 
Q 2381 391 2643 752 
Q 2906 1113 2906 1747 
Q 2906 2381 2643 2742 
Q 2381 3103 1925 3103 
Q 1469 3103 1208 2742 
Q 947 2381 947 1747 
z
" transform="scale(0.015625)"/>
       <path id="DejaVuSans-42" d="M 1259 2228 
L 1259 519 
L 2272 519 
Q 2781 519 3026 730 
Q 3272 941 3272 1375 
Q 3272 1813 3026 2020 
Q 2781 2228 2272 2228 
L 1259 2228 
z
M 1259 4147 
L 1259 2741 
L 2194 2741 
Q 2656 2741 2882 2914 
Q 3109 3088 3109 3444 
Q 3109 3797 2882 3972 
Q 2656 4147 2194 4147 
L 1259 4147 
z
M 628 4666 
L 2241 4666 
Q 2963 4666 3353 4366 
Q 3744 4066 3744 3513 
Q 3744 3084 3544 2831 
Q 3344 2578 2956 2516 
Q 3422 2416 3680 2098 
Q 3938 1781 3938 1306 
Q 3938 681 3513 340 
Q 3088 0 2303 0 
L 628 0 
L 628 4666 
z
" transform="scale(0.015625)"/>
       <path id="DejaVuSans-2f" d="M 1625 4666 
L 2156 4666 
L 531 -594 
L 0 -594 
L 1625 4666 
z
" transform="scale(0.015625)"/>
      </defs>
      <use xlink:href="#DejaVuSans-50"/>
      <use xlink:href="#DejaVuSans-68" x="60.302734"/>
      <use xlink:href="#DejaVuSans-61" x="123.681641"/>
      <use xlink:href="#DejaVuSans-73" x="184.960938"/>
      <use xlink:href="#DejaVuSans-65" x="237.060547"/>
      <use xlink:href="#DejaVuSans-20" x="298.583984"/>
      <use xlink:href="#DejaVuSans-6e" x="330.371094"/>
      <use xlink:href="#DejaVuSans-6f" x="393.75"/>
      <use xlink:href="#DejaVuSans-69" x="454.931641"/>
      <use xlink:href="#DejaVuSans-73" x="482.714844"/>
      <use xlink:href="#DejaVuSans-65" x="534.814453"/>
      <use xlink:href="#DejaVuSans-20" x="596.337891"/>
      <use xlink:href="#DejaVuSans-5b" x="628.125"/>
      <use xlink:href="#DejaVuSans-64" x="667.138672"/>
      <use xlink:href="#DejaVuSans-42" x="730.615234"/>
      <use xlink:href="#DejaVuSans-63" x="799.21875"/>
      <use xlink:href="#DejaVuSans-2f" x="854.199219"/>
      <use xlink:href="#DejaVuSans-48" x="887.890625"/>
      <use xlink:href="#DejaVuSans-7a" x="963.085938"/>
      <use xlink:href="#DejaVuSans-5d" x="1015.576172"/>
     </g>
    </g>
   </g>
   <g id="line2d_50">
    <path d="M 398.487273 313.705241 
L 398.133009 314.840652 
L 397.775149 314.970382 
L 397.413619 314.668788 
L 396.67924 311.484315 
L 396.306232 308.436224 
L 395.929234 308.035947 
L 395.548161 307.205456 
L 395.162923 308.809889 
L 394.773428 308.472814 
L 394.379582 311.086256 
L 393.981285 311.059644 
L 393.578435 310.660476 
L 393.170929 308.797692 
L 392.758656 308.010444 
L 392.341504 306.967064 
L 391.919356 307.134492 
L 391.492092 308.237748 
L 391.059584 310.157081 
L 390.621704 309.743499 
L 390.178315 308.329779 
L 389.729278 308.630264 
L 389.274447 309.89984 
L 388.81367 309.968585 
L 388.346791 310.340033 
L 387.873644 309.592702 
L 387.394059 308.528254 
L 386.907859 306.321742 
L 386.414859 306.209753 
L 385.914866 306.722019 
L 385.407679 307.845233 
L 384.893087 308.702336 
L 384.370871 308.167894 
L 383.840802 307.388408 
L 383.30264 306.932691 
L 382.201022 309.807809 
L 381.637027 308.076972 
L 381.063862 307.439412 
L 380.481221 305.979123 
L 379.888789 306.49028 
L 378.673188 309.251192 
L 378.049297 311.050774 
L 377.414164 308.837609 
L 376.767377 307.064638 
L 376.1085 303.770393 
L 375.437071 302.210312 
L 374.752605 301.561664 
L 374.054584 302.198115 
L 373.34246 302.447595 
L 372.615652 301.54614 
L 371.873543 301.578296 
L 370.340739 302.279057 
L 369.548595 301.706916 
L 368.73824 300.63138 
L 367.908815 299.334084 
L 367.059402 298.38606 
L 366.189015 298.724244 
L 365.296589 301.103729 
L 364.380981 301.34323 
L 363.440954 301.957505 
L 362.47517 301.510659 
L 361.482177 301.630409 
L 360.460398 299.482664 
L 359.408113 297.533393 
L 358.323446 297.511217 
L 357.204338 297.320504 
L 356.048532 296.766104 
L 354.853539 294.480867 
L 353.616608 294.627228 
L 352.334688 294.341158 
L 351.004382 295.782598 
L 349.621895 294.215864 
L 348.182963 293.192441 
L 346.682783 291.746566 
L 343.476126 289.734094 
L 341.756325 287.364588 
L 339.948292 286.439849 
L 338.042481 283.364038 
L 336.027709 281.262862 
L 333.890756 281.707491 
L 331.615843 280.769446 
L 329.183919 280.196196 
L 326.571693 277.517336 
L 323.750274 277.222395 
L 322.127275 274.189827 
L 322.034879 273.005628 
L 321.849358 270.994265 
L 321.7873 270.918867 
L 321.75623 270.951022 
L 321.694008 271.090731 
L 321.662856 270.990939 
L 321.53797 270.791355 
L 321.50668 270.845686 
L 321.286864 271.423371 
L 321.097353 272.587611 
L 321.002214 272.501124 
L 320.651158 269.54839 
L 320.586952 269.630441 
L 320.069053 270.798008 
L 319.872862 271.444438 
L 319.807221 271.43335 
L 319.27765 273.607707 
L 319.009851 275.097934 
L 318.942582 274.626694 
L 318.706124 273.16086 
L 318.638272 272.88366 
L 318.57029 272.932448 
L 318.536249 272.956841 
L 318.502176 272.868137 
L 318.365552 272.667444 
L 318.262736 273.04998 
L 318.194024 272.959059 
L 318.056198 272.663009 
L 317.709257 270.212561 
L 317.674375 270.311244 
L 317.534498 270.699324 
L 317.499442 270.617273 
L 317.394064 269.958646 
L 317.358868 270.13051 
L 317.28837 267.573617 
L 316.93375 267.967241 
L 316.575526 269.080476 
L 316.213624 269.561696 
L 315.847968 268.163499 
L 315.478479 268.287684 
L 315.105076 269.303345 
L 314.727675 269.347697 
L 314.34619 268.477289 
L 313.96053 266.893923 
L 313.570605 268.521641 
L 313.176317 271.077425 
L 312.77757 270.643884 
L 312.37426 268.779992 
L 311.553526 267.528156 
L 311.13588 265.449156 
L 310.713226 264.797182 
L 310.285442 263.315825 
L 309.852404 264.564334 
L 309.413979 262.750337 
L 308.970032 263.9301 
L 308.520422 263.282561 
L 308.065003 264.824902 
L 307.603623 264.471195 
L 307.136124 263.532041 
L 306.662341 261.681454 
L 306.182103 261.303353 
L 305.695232 262.093928 
L 305.201542 263.309172 
L 304.700838 263.223795 
L 304.19292 264.6231 
L 303.677576 263.861355 
L 303.154585 263.678403 
L 302.623718 261.968633 
L 302.084733 260.737865 
L 301.537379 261.577227 
L 300.981391 260.882009 
L 300.416492 258.961568 
L 299.258788 254.008558 
L 298.665358 252.237804 
L 298.061766 250.890612 
L 297.447657 252.2877 
L 296.82266 252.077028 
L 296.186381 253.185828 
L 295.538405 252.460673 
L 294.878293 254.475363 
L 294.205583 252.975156 
L 292.820379 250.738707 
L 292.106814 251.41951 
L 291.378504 251.68784 
L 290.634829 251.416184 
L 289.875124 248.729561 
L 289.098685 246.859016 
L 288.304757 244.631436 
L 287.492534 244.842108 
L 286.661153 244.814388 
L 285.809688 246.209259 
L 284.042455 244.040446 
L 283.124462 242.04128 
L 282.181922 241.167545 
L 281.213484 239.430056 
L 280.217686 238.137195 
L 279.192936 234.85182 
L 278.1375 233.114331 
L 277.049484 232.563257 
L 275.926812 233.425904 
L 274.767203 232.698531 
L 273.568145 232.476771 
L 272.326858 230.661665 
L 271.040258 231.053072 
L 269.704912 228.21787 
L 268.31698 229.216899 
L 266.87215 226.285232 
L 265.365556 225.72307 
L 263.791682 224.231734 
L 262.144237 223.910182 
L 260.416002 222.58184 
L 260.238426 221.38988 
L 259.880566 221.162576 
L 259.519035 220.260012 
L 258.96969 220.342064 
L 258.598645 220.947468 
L 258.034651 224.202905 
L 257.461485 221.87886 
L 257.26834 222.089532 
L 257.07413 222.115035 
L 256.878845 222.315728 
L 256.682471 221.965347 
L 256.086701 219.612473 
L 255.885852 218.70991 
L 255.683852 219.218849 
L 255.276345 220.643657 
L 255.070812 219.962854 
L 254.864072 219.739985 
L 254.446921 218.448233 
L 253.597508 213.679284 
L 253.165 213.125993 
L 252.94674 213.342209 
L 252.72712 213.176998 
L 252.506123 212.705758 
L 252.283732 211.354131 
L 252.059928 210.808601 
L 251.834695 210.581297 
L 251.608013 211.168961 
L 251.379864 211.439508 
L 250.68642 213.247961 
L 250.4287 213.667088 
L 250.216427 215.418992 
L 250.145385 214.9034 
L 250.002869 213.682611 
L 249.955235 213.94207 
L 249.907537 213.76688 
L 249.835868 212.780048 
L 249.692093 210.132233 
L 249.668073 210.166606 
L 249.644037 210.200979 
L 249.281515 213.91435 
L 249.257214 213.73916 
L 248.939764 212.128073 
L 248.890671 212.26002 
L 248.866098 212.194601 
L 248.816902 211.917401 
L 248.742979 212.033825 
L 248.221132 213.561752 
L 248.020283 212.073742 
L 247.995096 212.077068 
L 247.944668 212.024955 
L 247.410776 210.548033 
L 247.256738 209.513523 
L 247.231 209.511305 
L 246.816607 203.142358 
L 246.764463 202.858505 
L 246.686103 202.9838 
L 246.449973 203.351921 
L 245.999586 198.984358 
L 245.946219 199.265993 
L 245.54337 201.914916 
L 245.516349 201.410412 
L 245.326619 198.217068 
L 245.272223 198.259203 
L 245.081171 199.953449 
L 244.998974 201.12656 
L 244.944069 200.986851 
L 244.695933 200.44243 
L 244.612832 200.382555 
L 244.585087 200.436886 
L 244.418163 200.79392 
L 244.194359 201.86502 
L 244.110065 201.547904 
L 243.94087 200.270566 
L 243.82762 200.373684 
L 243.628554 199.519908 
L 243.428356 197.474172 
L 243.399664 197.496348 
L 243.370948 197.518524 
L 243.284659 198.087339 
L 243.227016 197.876667 
L 243.140373 197.722544 
L 242.791659 196.715753 
L 242.67465 197.66156 
L 242.586638 198.242571 
L 242.527841 198.2337 
L 242.024064 197.799051 
L 241.93441 198.412217 
L 241.874514 198.319078 
L 241.784479 198.305772 
L 241.543253 199.006534 
L 241.512984 198.998772 
L 241.391645 199.552064 
L 241.269887 201.113254 
L 241.147707 200.860448 
L 241.117095 200.827184 
L 241.055793 200.92254 
L 240.809511 201.901611 
L 240.778605 201.795166 
L 240.654707 201.521292 
L 240.623664 201.556774 
L 240.592594 201.592256 
L 240.436832 199.470012 
L 240.374334 199.4811 
L 240.280378 200.028848 
L 240.249004 199.70286 
L 240.154714 197.731414 
L 239.997 195.662393 
L 239.902032 195.331971 
L 239.870319 195.43398 
L 239.519581 196.69136 
L 239.487522 196.47847 
L 239.262288 193.43814 
L 239.197671 193.47584 
L 238.905416 191.726153 
L 238.840141 191.935716 
L 238.742 192.512292 
L 238.643585 193.495798 
L 238.577822 193.367177 
L 238.379794 192.510075 
L 238.280361 192.92144 
L 237.946878 194.939456 
L 237.913355 194.999331 
L 237.812596 193.594481 
L 237.644021 192.083187 
L 237.508578 192.171891 
L 237.474636 192.110907 
L 237.440661 192.036617 
L 237.236121 189.44646 
L 236.927069 188.470716 
L 236.788838 188.370924 
L 236.754195 188.358728 
L 236.545621 187.593656 
L 236.230427 187.361916 
L 236.124733 188.473488 
L 235.769757 188.577716 
L 235.41117 187.932394 
L 235.048897 185.530733 
L 234.682862 183.941823 
L 233.939188 184.801143 
L 233.561383 184.853256 
L 233.179485 183.448407 
L 232.793404 185.397677 
L 232.403047 183.178968 
L 232.008319 182.433855 
L 231.609121 181.21861 
L 231.20535 181.203087 
L 230.7969 181.586732 
L 230.383661 180.394772 
L 229.54236 176.317714 
L 229.114058 176.48736 
L 228.680488 179.61972 
L 228.241518 179.201703 
L 227.797012 178.498724 
L 227.346829 174.39949 
L 226.890823 175.51716 
L 226.428839 172.780642 
L 225.960721 173.829567 
L 225.486301 169.561796 
L 224.517866 166.359581 
L 224.023485 166.958333 
L 223.522071 166.705527 
L 223.013421 166.71218 
L 222.497323 167.381895 
L 221.973557 167.089172 
L 221.441891 167.946274 
L 220.902082 165.674343 
L 220.353878 166.647869 
L 219.797013 164.691946 
L 219.23121 164.169701 
L 218.656176 161.835677 
L 218.071605 160.571645 
L 217.477176 159.864231 
L 216.872551 159.498327 
L 215.631268 156.818357 
L 214.99384 155.220576 
L 214.344673 156.425842 
L 213.683325 156.258413 
L 213.009332 154.386759 
L 212.322199 149.226404 
L 211.621405 148.004506 
L 211.4065 145.318992 
L 211.262499 150.156687 
L 211.190277 149.246362 
L 211.117907 144.985244 
L 211.045388 145.693767 
L 210.8999 153.236933 
L 210.826931 152.774564 
L 210.607112 146.377896 
L 210.385914 149.052322 
L 210.237673 146.145048 
L 210.014137 149.173181 
L 209.789173 143.154615 
L 209.713866 142.805343 
L 209.486972 147.548789 
L 209.334894 146.571936 
L 209.258608 146.862442 
L 209.182157 148.715247 
L 209.105539 148.330493 
L 209.028755 148.24068 
L 208.951803 145.503053 
L 208.874683 147.969024 
L 208.797393 147.478935 
L 208.719934 148.729661 
L 208.642304 146.80922 
L 208.48653 150.702216 
L 208.408384 150.83749 
L 208.094055 141.284069 
L 208.015033 141.138816 
L 207.697161 149.665488 
L 207.617243 149.216424 
L 207.376397 144.268959 
L 207.295747 144.504024 
L 207.214913 144.421973 
L 207.133893 144.180255 
L 206.971292 145.435416 
L 206.88971 144.036111 
L 206.807938 144.774572 
L 206.47894 139.558776 
L 206.396209 139.175132 
L 206.146843 145.03514 
L 206.063327 144.321072 
L 205.979613 145.354474 
L 205.8957 145.147128 
L 205.642755 139.742837 
L 205.558035 139.74949 
L 205.387982 140.625442 
L 205.217105 140.567784 
L 205.131354 139.371389 
L 204.872844 143.079216 
L 204.786251 142.780949 
L 204.525188 146.231535 
L 204.437736 146.114002 
L 204.08574 141.139925 
L 203.99719 142.038053 
L 203.730194 147.256066 
L 203.461161 144.72024 
L 203.190059 139.042076 
L 203.099227 139.192872 
L 203.008159 140.177487 
L 202.916856 139.127453 
L 202.733537 139.748381 
L 202.549259 140.797306 
L 202.271024 134.296412 
L 201.990575 138.558639 
L 201.802362 141.205344 
L 201.613138 137.391072 
L 201.518144 134.951712 
L 201.231616 139.578735 
L 201.039295 136.597172 
L 200.748831 135.109162 
L 200.553851 136.491836 
L 200.455955 139.54658 
L 199.962353 134.81533 
L 199.66284 137.452056 
L 199.562434 139.936877 
L 199.461741 139.467855 
L 199.259489 136.724684 
L 199.157926 137.508605 
L 199.056069 136.987469 
L 198.851469 131.321501 
L 198.645674 134.262039 
L 198.542324 133.93716 
L 198.43867 131.935776 
L 198.125867 134.757672 
L 198.02098 133.766405 
L 197.704432 128.905426 
L 197.598281 128.14368 
L 197.385015 130.722749 
L 197.170451 135.043743 
L 196.954573 132.465783 
L 196.846136 133.830716 
L 196.737365 133.515816 
L 196.628257 131.972367 
L 196.51881 128.277845 
L 196.077592 134.706668 
L 195.854894 135.855384 
L 195.743016 135.21228 
L 195.518188 131.988999 
L 195.405234 131.665229 
L 195.291916 133.647764 
L 194.949762 126.411735 
L 194.834969 126.844167 
L 194.719801 127.42296 
L 194.37202 132.193018 
L 194.255327 130.88796 
L 194.138246 131.283802 
L 193.614175 127.020466 
L 193.601209 127.417416 
L 193.458264 131.952408 
L 193.549296 126.838623 
L 193.44524 131.889207 
L 193.353939 133.285186 
L 193.380049 131.59981 
L 193.340876 133.015748 
L 193.2624 129.05844 
L 193.209985 131.068695 
L 193.183749 133.4759 
L 193.091766 132.196344 
L 192.999543 128.010624 
L 192.959945 129.463152 
L 192.933522 130.705008 
L 192.880615 127.695725 
L 192.854132 127.777776 
L 192.827629 128.786784 
L 192.801106 127.016031 
L 192.787837 125.959344 
L 192.694815 126.802032 
L 192.681506 126.55477 
L 192.668192 127.304319 
L 192.521404 130.251509 
L 192.50803 130.153935 
L 192.467875 132.850536 
L 192.414265 130.424482 
L 192.32025 126.982767 
L 192.293342 128.408684 
L 192.279881 128.410901 
L 192.266414 127.70016 
L 192.239465 131.364744 
L 192.172003 133.570148 
L 192.144982 131.714016 
L 192.009565 126.98942 
L 191.995995 127.850957 
L 191.928065 129.048461 
L 191.887244 128.220188 
L 191.873626 128.31998 
L 191.696118 124.186373 
L 191.655028 123.656367 
L 191.558963 130.133976 
L 191.517712 128.889903 
L 191.435065 125.965997 
L 191.352224 126.387341 
L 191.324567 128.95754 
L 191.255329 126.968352 
L 191.227596 124.611044 
L 191.130357 125.346178 
L 191.102526 124.334952 
L 191.074672 126.242088 
L 191.060737 126.908477 
L 191.004941 124.924834 
L 190.907086 122.427816 
L 190.949057 125.086719 
L 190.865064 122.436687 
L 190.766819 119.166836 
L 190.668299 119.934125 
L 190.625992 124.473552 
L 190.527078 123.678543 
L 190.427885 118.858589 
L 190.371077 121.224768 
L 190.356861 121.224768 
L 190.257187 126.766551 
L 190.214383 124.816172 
L 190.171528 120.303356 
L 190.085659 121.408829 
L 190.05699 122.768218 
L 189.985215 120.849994 
L 189.942079 119.947431 
L 189.898891 122.197186 
L 189.812355 125.36281 
L 189.769007 124.451376 
L 189.725606 122.213818 
L 189.638643 122.86801 
L 189.609608 124.219637 
L 189.551465 122.280346 
L 189.522358 122.129549 
L 189.478652 127.366412 
L 189.405688 123.325944 
L 189.391077 122.9046 
L 189.361837 124.813954 
L 189.317931 123.753941 
L 189.28863 125.450405 
L 189.259305 123.103076 
L 189.215271 124.002312 
L 189.200581 123.519984 
L 189.171183 124.953663 
L 189.097579 126.433911 
L 189.053343 125.340634 
L 188.964703 127.694616 
L 188.9203 127.042642 
L 188.905486 126.869669 
L 188.861008 121.097256 
L 188.771883 121.568496 
L 188.742124 121.086168 
L 188.69744 121.804671 
L 188.682532 121.542994 
L 188.563044 127.99621 
L 188.518131 127.177916 
L 188.503148 127.97736 
L 188.44315 126.212151 
L 188.383049 124.727468 
L 188.20213 118.300863 
L 188.096164 122.654012 
L 188.050652 122.556437 
L 188.035469 122.578613 
L 187.928999 119.635858 
L 187.868015 119.713474 
L 187.822207 123.777226 
L 187.715091 123.156298 
L 187.699762 123.138557 
L 187.653735 120.665933 
L 187.592272 121.733708 
L 187.422695 126.340772 
L 187.376305 122.982216 
L 187.314356 124.733012 
L 187.28334 126.73994 
L 187.19013 126.437237 
L 187.112266 124.873829 
L 187.049851 120.454152 
L 186.956021 121.268012 
L 186.720347 127.877568 
L 186.704579 127.052621 
L 186.673022 129.061767 
L 186.657233 130.478813 
L 186.625634 126.946176 
L 186.514813 119.831007 
L 186.483086 120.826709 
L 186.45133 123.730656 
L 186.371815 122.603007 
L 186.339959 119.91084 
L 186.308074 124.966968 
L 186.29212 126.148949 
L 186.244217 122.458863 
L 186.196248 119.318741 
L 186.132189 121.08506 
L 186.084067 125.844029 
L 186.019803 123.696284 
L 185.987627 122.73828 
L 185.955421 124.246248 
L 185.939308 125.188728 
L 185.858628 123.667455 
L 185.826304 123.008828 
L 185.777763 123.328162 
L 185.696712 125.359484 
L 185.647992 124.368216 
L 185.55035 116.391509 
L 185.452436 120.402039 
L 185.436091 120.739114 
L 185.403377 120.02172 
L 185.370633 120.143688 
L 185.222908 116.737455 
L 185.189995 116.90821 
L 185.157053 116.751869 
L 185.124079 116.027823 
L 185.041509 116.544524 
L 184.975314 120.366557 
L 184.908994 118.86746 
L 184.892395 118.244314 
L 184.859173 120.395386 
L 184.775979 120.086031 
L 184.709283 122.931212 
L 184.441229 113.426578 
L 184.323312 118.080212 
L 184.255753 117.091162 
L 184.221925 115.543277 
L 184.137212 116.611052 
L 184.120245 116.893796 
L 184.10327 115.68853 
L 184.001247 113.530805 
L 183.984214 113.743695 
L 183.881845 118.177786 
L 183.847656 116.201904 
L 183.779179 113.958802 
L 183.710568 114.379037 
L 183.693394 113.776959 
L 183.659021 114.748268 
L 183.45208 124.378196 
L 183.43478 125.060108 
L 183.417471 123.717351 
L 183.313441 117.363927 
L 183.278696 119.371964 
L 183.261311 120.02172 
L 183.209103 118.462748 
L 183.052014 116.134268 
L 183.01701 117.336207 
L 182.806254 125.52026 
L 182.771005 123.22837 
L 182.700401 122.209383 
L 182.665046 123.312639 
L 182.576503 126.44389 
L 182.541023 124.219637 
L 182.452168 118.688943 
L 182.398747 119.909732 
L 182.166316 116.116527 
L 182.148373 116.320546 
L 182.11246 117.52692 
L 182.0045 119.497258 
L 181.986474 119.060391 
L 181.896208 115.175156 
L 181.823828 115.559909 
L 181.769446 121.630589 
L 181.733144 116.621031 
L 181.714979 115.196223 
L 181.642226 116.139812 
L 181.605793 117.790815 
L 181.532814 116.291717 
L 181.47798 114.823666 
L 181.423061 116.103221 
L 181.349702 119.784437 
L 181.276191 117.417149 
L 181.184085 111.903087 
L 181.147175 113.045151 
L 181.091737 114.5886 
L 181.036213 114.029765 
L 180.869112 108.947026 
L 180.79459 107.701844 
L 180.75727 108.663173 
L 180.588838 115.453464 
L 180.551299 115.794975 
L 180.51372 115.278274 
L 180.494916 114.934546 
L 180.476102 115.650831 
L 180.287402 121.2414 
L 180.268477 120.518463 
L 180.249541 119.795525 
L 180.211639 121.514165 
L 180.173696 120.288941 
L 180.116705 125.426012 
L 180.021515 122.47993 
L 180.002446 122.441122 
L 179.945177 127.935226 
L 179.868674 126.473828 
L 179.734392 123.060941 
L 179.792004 126.895172 
L 179.695932 124.391501 
L 179.618885 125.286303 
L 179.444911 116.942805 
L 177.62102 115.765924 
L 177.248012 113.998497 
L 177.060017 112.830931 
L 176.871014 113.620396 
L 176.680993 112.130169 
L 176.489941 111.708825 
L 176.297848 112.328644 
L 176.104703 113.747908 
L 175.715208 113.368699 
L 175.321362 114.306744 
L 175.122776 113.701339 
L 174.923065 111.041328 
L 174.722215 111.283046 
L 174.317051 109.39476 
L 174.112709 107.618462 
L 173.907175 108.277089 
L 173.700436 110.686512 
L 173.492477 111.354009 
L 173.283284 111.127814 
L 172.648151 108.790464 
L 172.433872 109.938072 
L 172.218281 110.333913 
L 172.001364 110.494689 
L 171.783104 108.528787 
L 171.563484 108.241608 
L 171.342487 108.702868 
L 171.120095 109.605432 
L 170.896292 111.257544 
L 170.671058 110.633289 
L 170.444376 109.513401 
L 170.216227 109.803907 
L 169.986592 107.345697 
L 169.75545 108.84036 
L 169.522784 106.097188 
L 169.288571 107.567457 
L 169.052791 106.005158 
L 168.815424 107.670576 
L 168.576447 108.195038 
L 168.093577 106.378824 
L 167.849639 106.165934 
L 167.604001 106.563993 
L 167.356639 105.469608 
L 167.107529 105.335443 
L 166.603965 106.067251 
L 166.349459 105.482913 
L 166.093102 105.91091 
L 165.834867 104.492755 
L 165.574726 103.884024 
L 165.312651 101.362612 
L 164.782582 101.163028 
L 164.514528 103.594627 
L 164.24442 102.594489 
L 163.972227 102.210844 
L 163.697915 101.613201 
L 163.421451 103.247572 
L 163.142802 102.814032 
L 162.861933 99.471 
L 162.578807 98.131569 
L 162.293389 97.990752 
L 161.715525 102.091094 
L 161.12803 104.78326 
L 160.228008 96.503851 
L 159.304403 100.381324 
L 158.355944 101.453534 
L 158.034034 101.229556 
L 157.709157 100.702876 
L 157.381258 99.176059 
L 156.716164 93.76955 
L 156.378851 94.495814 
L 156.038279 94.329494 
L 155.694385 95.419444 
L 155.347102 94.208635 
L 154.996364 95.448273 
L 154.6421 94.745294 
L 153.922709 95.335176 
L 153.557432 94.01903 
L 153.18833 94.336147 
L 152.815323 91.60739 
L 152.438325 94.576756 
L 152.057252 93.165254 
L 151.672014 95.011406 
L 151.282519 93.277243 
L 150.888673 94.067817 
L 150.490375 93.627624 
L 149.68002 91.953336 
L 149.267747 91.569691 
L 148.850595 90.337814 
L 148.428447 88.411828 
L 148.001182 87.703305 
L 147.568675 87.756528 
L 147.130795 88.803235 
L 146.687406 88.146825 
L 146.238369 88.043707 
L 145.783538 87.1356 
L 145.322761 86.975932 
L 144.382734 88.529361 
L 143.90315 88.399632 
L 143.41695 86.371636 
L 142.92395 85.228464 
L 142.423957 84.743918 
L 141.91677 84.684043 
L 141.402178 83.432208 
L 140.879962 84.403516 
L 140.349893 84.167342 
L 139.811731 84.108576 
L 139.265226 81.142536 
L 138.710113 79.26312 
L 138.146118 79.153348 
L 137.572952 80.136854 
L 136.990312 81.606014 
L 136.39788 83.482104 
L 135.795319 84.073094 
L 134.558388 81.407539 
L 133.923255 79.721054 
L 133.276468 79.736577 
L 131.946162 77.410315 
L 131.261696 78.683217 
L 130.563675 79.626806 
L 129.851551 81.727982 
L 129.124743 81.95196 
L 128.382633 80.728953 
L 127.624563 79.99271 
L 126.84983 78.868387 
L 126.057686 79.247596 
L 125.247331 77.646489 
L 123.568493 78.651062 
L 122.698105 79.990492 
L 121.80568 80.041497 
L 120.890072 80.748912 
L 119.950045 80.785502 
L 118.984261 78.93935 
L 117.991268 78.087792 
L 115.917204 84.209476 
L 114.832536 85.605456 
L 112.557623 83.945582 
L 111.36263 83.971084 
L 110.125699 84.499982 
L 108.843779 86.320632 
L 107.513473 88.685702 
L 106.130985 89.501779 
L 104.692054 92.923536 
L 103.191874 92.239406 
L 101.624997 89.92534 
L 99.985217 85.574409 
L 98.265416 83.785915 
L 97.553293 86.105524 
L 97.372991 86.043432 
L 97.191762 86.332828 
L 96.826485 88.054795 
L 96.271373 89.977454 
L 95.896381 91.668374 
L 95.517356 94.593388 
L 95.326305 95.151115 
L 94.941067 92.8182 
L 94.746857 92.742801 
L 94.551572 93.976896 
L 93.959139 88.320907 
L 93.558579 90.998659 
L 93.153415 90.815707 
L 92.949072 91.148347 
L 92.5368 93.32603 
L 92.328841 93.719654 
L 92.119648 93.230673 
L 91.909206 93.416952 
L 91.270235 90.314529 
L 90.837728 91.151673 
L 90.619467 91.680571 
L 90.399847 92.509953 
L 90.17885 92.556523 
L 89.732655 91.964424 
L 89.507422 92.671838 
L 89.28074 93.011131 
L 89.052591 92.685144 
L 88.822955 91.71827 
L 88.591814 91.622913 
L 87.889155 91.632892 
L 87.412811 90.687086 
L 86.929941 87.546964 
L 86.686003 87.340728 
L 86.193003 91.482096 
L 85.943893 91.812518 
L 85.440329 89.134766 
L 85.185823 88.922985 
L 84.149015 92.962344 
L 83.884977 93.527832 
L 83.618946 93.059918 
L 83.350892 92.325892 
L 83.080784 92.489995 
L 82.80859 93.015566 
L 82.534278 93.983548 
L 81.979166 93.348206 
L 81.415171 88.722292 
L 81.129753 87.613492 
L 80.842005 88.037054 
L 80.551889 88.104691 
L 80.259365 88.629153 
L 79.666932 90.481958 
L 79.064372 89.798937 
L 78.759185 89.619312 
L 78.140767 91.668374 
L 77.827441 93.061027 
L 77.511305 93.897062 
L 76.96728 94.61002 
L 76.870398 94.951531 
L 76.708334 93.497894 
L 76.512868 95.473776 
L 76.381952 95.473776 
L 76.217622 96.608078 
L 76.019408 94.84176 
L 75.886643 94.728662 
L 75.686554 92.238297 
L 75.586082 92.233862 
L 75.147363 88.461724 
L 74.737488 88.371912 
L 74.565289 90.627211 
L 74.357535 89.017233 
L 74.218348 88.990622 
L 74.043589 90.629428 
L 73.867959 92.676273 
L 73.832727 92.676273 
L 73.832727 92.676273 
" clip-path="url(#p5a8efbb017)" style="fill: none; stroke: #ff0000; stroke-width: 1.5; stroke-linecap: square"/>
   </g>
   <g id="line2d_51">
    <path d="M 398.487273 291.358486 
L 398.133009 291.905124 
L 397.775149 292.215588 
L 397.413619 290.346152 
L 397.048342 289.186347 
L 396.67924 289.541163 
L 395.929234 291.141161 
L 395.548161 291.17886 
L 395.162923 293.117043 
L 394.773428 293.241228 
L 394.379582 292.798817 
L 393.981285 291.242062 
L 393.578435 291.970544 
L 393.170929 291.421688 
L 392.758656 291.191057 
L 391.919356 290.2641 
L 391.492092 291.127856 
L 391.059584 289.013374 
L 390.621704 289.563339 
L 390.178315 287.879072 
L 389.729278 288.217256 
L 389.274447 288.994524 
L 388.81367 290.335064 
L 388.346791 291.19771 
L 387.394059 288.549896 
L 386.907859 288.141857 
L 385.914866 290.66216 
L 385.407679 291.006996 
L 384.893087 291.120094 
L 384.370871 291.605748 
L 383.840802 292.78662 
L 383.30264 292.52827 
L 382.756135 293.235684 
L 382.201022 292.559316 
L 381.637027 292.600342 
L 381.063862 291.67782 
L 380.481221 292.175672 
L 379.888789 290.007968 
L 379.286228 289.63652 
L 378.673188 289.688633 
L 378.049297 292.182324 
L 377.414164 292.305401 
L 376.767377 291.459387 
L 375.437071 290.755299 
L 374.752605 289.540054 
L 374.054584 287.925641 
L 373.34246 288.882536 
L 371.873543 291.925083 
L 371.115472 290.427094 
L 370.340739 289.318294 
L 369.548595 287.64068 
L 368.73824 288.356964 
L 367.059402 287.646224 
L 366.189015 287.646224 
L 365.296589 288.236105 
L 364.380981 289.23846 
L 363.440954 287.486556 
L 362.47517 286.506377 
L 361.482177 286.890022 
L 360.460398 287.51982 
L 359.408113 287.866875 
L 358.323446 287.247056 
L 357.204338 287.536452 
L 356.048532 287.509841 
L 354.853539 287.08628 
L 353.616608 285.407556 
L 352.334688 283.043595 
L 349.621895 281.761822 
L 348.182963 282.726478 
L 346.682783 281.830568 
L 341.756325 283.204371 
L 339.948292 281.650942 
L 338.042481 280.68296 
L 336.027709 277.590516 
L 333.890756 276.65358 
L 331.615843 274.821843 
L 329.183919 274.033486 
L 326.571693 273.598836 
L 323.750274 272.875899 
L 322.857849 271.93231 
L 322.555281 272.057604 
L 322.250094 271.746032 
L 322.034879 269.774585 
L 322.004027 270.034044 
L 321.725133 271.59967 
L 321.694008 271.612976 
L 321.444015 269.647073 
L 321.31835 270.026283 
L 321.192236 270.405492 
L 321.002214 268.835432 
L 320.970444 268.911939 
L 320.747248 269.387614 
L 320.715247 269.31776 
L 320.586952 269.14146 
L 320.425925 269.999672 
L 320.393631 269.987475 
L 320.328954 269.856636 
L 320.296571 269.919838 
L 320.16674 270.35227 
L 320.101645 270.128292 
L 319.93838 269.814502 
L 319.576512 268.611454 
L 319.443997 268.336472 
L 319.377552 268.41187 
L 319.344283 268.449569 
L 319.076991 266.184291 
L 318.976232 266.663292 
L 318.908899 266.576806 
L 318.807657 266.244166 
L 318.740001 266.275212 
L 318.536249 267.544788 
L 318.46807 267.666756 
L 318.125179 270.036262 
L 317.883155 270.362249 
L 317.813699 270.218105 
L 317.709257 269.929817 
L 317.674375 270.100572 
L 317.534498 270.896691 
L 317.464351 270.62947 
L 317.394064 270.246934 
L 317.323636 272.171811 
L 317.28837 270.521916 
L 316.93375 269.019492 
L 316.575526 268.075904 
L 316.213624 269.327739 
L 315.478479 265.127604 
L 315.105076 265.098776 
L 314.34619 267.029196 
L 313.96053 264.366968 
L 313.176317 261.8888 
L 312.77757 265.13204 
L 312.37426 266.552412 
L 311.966282 266.816307 
L 311.553526 264.542158 
L 311.13588 264.67854 
L 310.713226 265.606606 
L 310.285442 265.625456 
L 309.852404 264.209518 
L 309.413979 261.316659 
L 308.970032 259.229897 
L 308.520422 258.81188 
L 307.603623 264.41132 
L 307.136124 264.42019 
L 306.182103 261.766832 
L 305.695232 261.44528 
L 305.201542 258.526918 
L 304.19292 257.650966 
L 303.677576 258.152144 
L 303.154585 257.432532 
L 302.084733 259.619086 
L 301.537379 259.925115 
L 300.981391 259.579169 
L 300.416492 257.01008 
L 299.842393 255.232673 
L 299.258788 252.451803 
L 298.665358 253.665939 
L 298.061766 254.224774 
L 296.82266 256.57543 
L 296.186381 255.464412 
L 294.878293 250.388326 
L 293.519785 251.279801 
L 292.820379 253.575017 
L 292.106814 251.437251 
L 291.378504 249.694217 
L 290.634829 247.340235 
L 289.875124 249.801771 
L 289.098685 250.720966 
L 288.304757 249.44252 
L 287.492534 244.648068 
L 286.661153 242.485908 
L 285.809688 241.059992 
L 284.937146 241.307254 
L 284.042455 241.197483 
L 283.124462 241.464704 
L 282.181922 242.618964 
L 281.213484 242.3462 
L 280.217686 242.288542 
L 279.192936 240.05431 
L 278.1375 239.289238 
L 277.049484 235.605804 
L 275.926812 232.761732 
L 274.767203 232.997907 
L 273.568145 234.51031 
L 272.326858 235.368521 
L 271.040258 233.445862 
L 269.704912 231.181692 
L 268.31698 230.774763 
L 266.87215 228.37532 
L 265.365556 226.80415 
L 263.791682 222.087315 
L 262.144237 218.720998 
L 260.416002 215.76272 
L 260.05995 215.611923 
L 259.880566 216.111992 
L 259.33687 219.761052 
L 258.96969 218.947193 
L 258.784656 219.213305 
L 258.598645 219.675675 
L 258.411648 219.358558 
L 258.223653 219.488288 
L 257.653577 221.439776 
L 257.461485 221.365486 
L 257.26834 221.13042 
L 257.07413 221.122659 
L 256.878845 220.396395 
L 256.484998 216.576579 
L 256.086701 213.591689 
L 255.480687 212.296611 
L 255.276345 212.59266 
L 255.070812 213.104926 
L 254.864072 214.211508 
L 254.446921 214.453227 
L 254.236479 214.767017 
L 253.811788 215.823704 
L 253.597508 215.617467 
L 252.94674 216.349275 
L 252.72712 216.070966 
L 252.506123 215.456691 
L 252.283732 215.359116 
L 252.059928 215.720585 
L 251.608013 217.241859 
L 251.379864 217.043384 
L 250.452207 220.273318 
L 250.4287 220.152459 
L 250.405177 220.0316 
L 250.240076 216.867084 
L 250.216427 217.07443 
L 250.169082 217.495774 
L 250.121672 217.132088 
L 249.835868 215.126268 
L 249.692093 216.249483 
L 249.668073 216.024396 
L 249.57183 215.746088 
L 249.547729 215.769372 
L 249.499475 215.931257 
L 249.475324 216.069857 
L 249.451156 215.842553 
L 249.3058 214.077344 
L 249.232896 214.1727 
L 249.086635 213.561752 
L 248.866098 212.646992 
L 248.816902 212.67582 
L 248.693611 213.866672 
L 248.668901 213.53514 
L 248.445727 210.696612 
L 248.371021 211.023708 
L 248.221132 210.516987 
L 248.196088 210.631193 
L 248.020283 211.80763 
L 247.894168 213.783512 
L 247.818283 213.068336 
L 247.716847 210.942766 
L 247.487543 206.681648 
L 247.38515 205.572848 
L 247.308159 205.854483 
L 246.972576 207.257115 
L 246.842649 205.741385 
L 246.790545 205.97756 
L 246.659944 206.73487 
L 246.633766 206.584073 
L 246.528859 206.158294 
L 246.502583 206.341246 
L 246.21225 208.174092 
L 246.026239 206.796963 
L 245.946219 206.741523 
L 245.839242 205.885529 
L 245.731939 204.73903 
L 245.705062 204.86876 
L 245.678165 204.998489 
L 245.624309 204.777838 
L 245.54337 204.45296 
L 245.489307 204.503964 
L 245.19047 205.689272 
L 245.163177 205.711448 
L 245.081171 204.978531 
L 245.026394 205.184768 
L 244.751226 208.358153 
L 244.695933 208.041036 
L 244.194359 203.631339 
L 244.081922 203.861969 
L 243.94087 204.315468 
L 243.714006 206.535286 
L 243.657061 206.539721 
L 243.57147 205.271254 
L 243.485672 205.528496 
L 243.342208 206.967718 
L 243.284659 206.353443 
L 243.169278 205.251296 
L 243.140373 205.393222 
L 243.082493 205.683728 
L 242.995495 205.629396 
L 242.937376 205.660443 
L 242.791659 205.041732 
L 242.733203 205.137089 
L 242.67465 205.133763 
L 242.350858 203.558158 
L 242.291666 203.558158 
L 242.202691 203.893016 
L 242.172983 203.742219 
L 241.784479 197.850056 
L 241.664072 197.148185 
L 241.512984 196.07154 
L 241.422019 196.13696 
L 241.300366 196.516169 
L 241.269887 196.63592 
L 240.963639 193.835091 
L 240.902069 193.87279 
L 240.747671 194.490392 
L 240.71671 194.366206 
L 240.561497 193.289561 
L 240.374334 191.937934 
L 240.186172 191.291504 
L 240.123227 191.042024 
L 239.902032 190.412225 
L 239.838578 190.438836 
L 239.519581 191.705086 
L 239.455434 191.659625 
L 239.358993 191.603076 
L 239.197671 192.640913 
L 239.165317 192.196284 
L 238.970571 190.026363 
L 238.905416 190.054083 
L 238.774744 190.259211 
L 238.709225 190.455468 
L 238.67642 190.378961 
L 238.577822 190.302454 
L 238.544894 190.32463 
L 238.478947 190.368982 
L 238.247154 188.920889 
L 237.946878 187.595873 
L 237.812596 187.276539 
L 237.745263 187.325326 
L 237.474636 189.648262 
L 237.406654 189.145976 
L 237.236121 187.588112 
L 237.201916 187.614723 
L 237.099099 187.563718 
L 236.823446 184.74404 
L 236.684808 184.813894 
L 236.475821 185.173145 
L 236.405883 185.179798 
L 236.230427 184.208489 
L 236.195231 185.179244 
L 236.124733 191.875287 
L 235.769757 192.964128 
L 235.41117 189.123245 
L 235.048897 188.98908 
L 234.682862 186.153879 
L 234.312986 186.594072 
L 233.939188 183.437319 
L 233.561383 186.003082 
L 233.179485 184.552772 
L 232.793404 185.308973 
L 232.403047 183.263237 
L 232.008319 182.755407 
L 231.609121 183.644664 
L 230.7969 184.479591 
L 230.383661 181.439261 
L 229.965521 180.094287 
L 229.114058 178.880151 
L 228.680488 176.458532 
L 228.241518 177.511892 
L 227.797012 177.663797 
L 227.346829 176.49734 
L 226.428839 171.451191 
L 225.960721 171.851468 
L 225.486301 170.520908 
L 225.005409 170.844677 
L 224.023485 168.048284 
L 223.522071 168.417514 
L 223.013421 170.086258 
L 222.497323 169.589516 
L 221.973557 168.187992 
L 221.441891 163.615301 
L 220.902082 164.277255 
L 220.353878 163.862564 
L 219.797013 165.730892 
L 219.23121 162.112877 
L 218.656176 161.326738 
L 218.071605 159.436234 
L 217.477176 159.431799 
L 216.872551 157.697636 
L 216.257373 158.054669 
L 215.631268 154.673938 
L 214.99384 153.620578 
L 214.344673 150.762092 
L 213.683325 153.939912 
L 213.009332 154.0896 
L 212.322199 154.785927 
L 211.621405 152.871029 
L 211.334573 155.49445 
L 210.972719 148.530077 
L 210.8999 147.755026 
L 210.75381 150.787594 
L 210.680537 150.774288 
L 210.607112 150.572487 
L 210.311871 146.11622 
L 210.163318 150.413928 
L 210.014137 154.261464 
L 209.638396 146.352394 
L 209.562765 146.840266 
L 209.486972 145.098341 
L 209.334894 148.365975 
L 209.258608 148.266183 
L 209.182157 148.91594 
L 208.951803 146.223773 
L 208.874683 146.830287 
L 208.642304 143.053714 
L 208.48653 147.949066 
L 208.25157 142.383999 
L 208.172901 142.61352 
L 208.094055 141.268546 
L 207.935834 144.531744 
L 207.856456 144.436388 
L 207.697161 140.235144 
L 207.537144 141.663279 
L 207.456862 140.930362 
L 207.376397 141.210888 
L 207.295747 142.616847 
L 207.133893 140.637639 
L 206.88971 142.323015 
L 206.807938 140.696405 
L 206.725976 141.3384 
L 206.47894 146.591895 
L 206.230161 140.328284 
L 206.063327 142.942834 
L 205.979613 142.721074 
L 205.8957 142.113452 
L 205.642755 145.806864 
L 205.558035 143.958495 
L 205.387982 145.27464 
L 205.302647 148.521207 
L 205.131354 146.037495 
L 205.045395 143.604788 
L 204.959225 144.011717 
L 204.437736 140.799524 
L 204.350066 141.642212 
L 204.174069 139.901396 
L 204.08574 139.485596 
L 203.99719 140.603266 
L 203.908416 139.74949 
L 203.819418 140.072151 
L 203.730194 139.630848 
L 203.640745 141.267437 
L 203.551067 141.009087 
L 203.280659 137.08837 
L 203.190059 137.595092 
L 202.825316 143.032647 
L 202.271024 137.591765 
L 201.990575 135.518309 
L 201.896594 135.61034 
L 201.518144 141.724263 
L 201.039295 138.978874 
L 200.942739 140.532303 
L 200.357786 134.070216 
L 200.061628 137.812416 
L 199.962353 137.382202 
L 199.862798 136.964184 
L 199.66284 135.090312 
L 199.259489 137.558501 
L 199.056069 134.660098 
L 198.748721 138.220455 
L 198.542324 133.137716 
L 198.43867 132.6443 
L 198.230444 136.200221 
L 197.915779 133.828498 
L 197.704432 134.708885 
L 197.598281 134.146724 
L 197.491809 134.315261 
L 197.277896 132.690869 
L 197.062677 134.590244 
L 196.954573 134.520389 
L 196.846136 133.65109 
L 196.737365 133.998144 
L 196.298891 136.884351 
L 196.188415 136.813388 
L 195.854894 130.344648 
L 195.743016 130.581932 
L 195.630781 130.10293 
L 195.291916 134.785392 
L 195.178234 135.802162 
L 195.064183 135.529397 
L 194.719801 129.171538 
L 194.604255 128.431968 
L 194.488329 129.275765 
L 194.37202 131.06426 
L 194.255327 131.004384 
L 194.020774 126.555879 
L 193.665993 132.409234 
L 193.653046 131.439034 
L 193.640094 130.468834 
L 193.601209 133.1987 
L 193.588238 133.101125 
L 193.484297 136.301122 
L 193.471283 134.828636 
L 193.340876 130.233768 
L 193.380049 135.312072 
L 193.327809 130.298079 
L 193.157492 136.77458 
L 193.144357 135.57264 
L 192.999543 126.24098 
L 192.854132 130.964468 
L 192.840883 130.858023 
L 192.801106 130.033076 
L 192.694815 128.693645 
L 192.734712 132.371535 
L 192.681506 129.503069 
L 192.614885 131.16516 
L 192.548138 130.808127 
L 192.534774 130.55532 
L 192.521404 131.250538 
L 192.50803 132.198562 
L 192.467875 128.210208 
L 192.427675 130.665092 
L 192.266414 126.978332 
L 192.225983 129.769181 
L 192.199003 133.406045 
L 192.11794 130.800365 
L 192.077339 127.945205 
L 192.009565 129.812424 
L 191.968839 132.094335 
L 191.928065 128.73578 
L 191.887244 131.259408 
L 191.873626 130.652895 
L 191.846376 133.253031 
L 191.832742 134.805351 
L 191.764497 132.413669 
L 191.613889 127.707922 
L 191.600166 127.72788 
L 191.572703 126.7854 
L 191.531468 128.204664 
L 191.490185 127.495032 
L 191.379859 132.01561 
L 191.338398 138.876864 
L 191.269187 132.942567 
L 191.255329 131.902512 
L 191.199841 133.29073 
L 191.158167 138.342423 
L 191.102526 134.623508 
L 191.004941 130.606325 
L 190.963036 131.568764 
L 190.949057 131.639727 
L 190.921082 134.052476 
L 190.879077 131.375832 
L 190.837022 131.755042 
L 190.696476 124.327191 
L 190.654203 125.642228 
L 190.6401 125.48256 
L 190.611879 128.638205 
L 190.569504 125.263018 
L 190.527078 126.47161 
L 190.47043 123.498917 
L 190.427885 126.947285 
L 190.399492 124.935922 
L 190.385288 123.147428 
L 190.314178 127.129128 
L 190.285694 129.018524 
L 190.200104 128.3477 
L 189.942079 121.875634 
L 189.898891 123.654149 
L 189.769007 128.160312 
L 189.725606 127.295448 
L 189.682151 127.724554 
L 189.609608 121.612848 
L 189.551465 123.476741 
L 189.507795 126.938415 
L 189.464071 122.40564 
L 189.420293 120.175844 
L 189.361837 121.841261 
L 189.259305 128.443056 
L 189.200581 125.939386 
L 189.171183 124.821716 
L 189.127039 127.048186 
L 189.112312 126.770986 
L 189.068094 125.070087 
L 188.964703 121.211463 
L 188.949908 122.456645 
L 188.9203 123.710698 
L 188.890666 121.747013 
L 188.846169 122.210492 
L 188.801616 123.556575 
L 188.771883 121.997602 
L 188.622839 117.040157 
L 188.6079 118.17446 
L 188.458159 121.30682 
L 188.398084 120.879932 
L 188.368008 121.068428 
L 188.20213 126.058028 
L 188.111322 121.763645 
L 188.035469 122.427816 
L 188.005082 123.595383 
L 187.989878 124.53121 
L 187.89852 123.556575 
L 187.837483 121.501968 
L 187.791636 122.466624 
L 187.669084 126.42504 
L 187.653735 125.980412 
L 187.623017 123.66302 
L 187.561501 127.461768 
L 187.515293 131.288237 
L 187.453588 128.599397 
L 187.28334 122.57196 
L 187.236766 123.859277 
L 187.174571 123.253872 
L 187.143433 122.016452 
L 187.096673 123.992333 
L 187.03423 129.099466 
L 186.940358 126.060245 
L 186.893328 124.775146 
L 186.814805 124.881591 
L 186.79908 124.762949 
L 186.704579 127.125802 
L 186.688804 126.72996 
L 186.657233 124.374869 
L 186.578182 125.189837 
L 186.467211 128.877706 
L 186.514813 123.998986 
L 186.45133 127.928573 
L 186.308074 121.414373 
L 186.29212 121.783604 
L 186.260192 124.414786 
L 186.180244 123.667455 
L 185.987627 120.423106 
L 186.132189 124.419221 
L 185.955421 120.598296 
L 185.907058 121.602869 
L 185.84247 121.055122 
L 185.777763 118.019228 
L 185.729155 116.034476 
L 185.66424 116.562264 
L 185.452436 124.682007 
L 185.419738 123.529964 
L 185.255789 117.363927 
L 185.189995 117.4992 
L 185.10758 122.514303 
L 185.058039 119.396357 
L 185.008427 117.375015 
L 184.94217 118.449442 
L 184.80928 122.585266 
L 184.792634 121.327887 
L 184.742647 121.569605 
L 184.642461 119.875359 
L 184.508434 121.807997 
L 184.458043 121.650548 
L 184.340181 119.007168 
L 184.323312 119.866488 
L 184.289548 120.914304 
L 184.238843 119.035997 
L 184.204998 118.59913 
L 184.188064 118.228791 
L 184.137212 119.163509 
L 184.120245 118.678964 
L 184.069295 119.681319 
L 184.035287 118.789844 
L 183.881845 114.761573 
L 183.864755 115.29158 
L 183.693394 120.383189 
L 183.796311 115.031012 
L 183.624616 119.88312 
L 183.590176 118.65457 
L 183.555703 120.287832 
L 183.469372 123.993442 
L 183.45208 122.718322 
L 183.348152 116.730802 
L 183.330801 118.001487 
L 183.243917 122.219362 
L 183.209103 120.540639 
L 183.156818 119.279933 
L 183.121918 120.522898 
L 182.964439 129.191496 
L 182.929348 130.810344 
L 182.911789 129.295724 
L 182.735721 120.316661 
L 182.682728 124.208549 
L 182.665046 121.491989 
L 182.629655 116.958106 
L 182.541023 118.777647 
L 182.487737 115.13413 
L 182.398747 115.862612 
L 182.273782 123.254981 
L 182.237997 120.531768 
L 182.166316 115.507796 
L 182.09449 111.1236 
L 182.040523 112.485207 
L 181.932342 114.625191 
L 181.823828 120.252351 
L 181.80571 119.289912 
L 181.769446 116.198578 
L 181.696805 117.23198 
L 181.642226 120.459696 
L 181.587563 117.819644 
L 181.459684 113.045151 
L 181.441377 115.179591 
L 181.404736 119.900861 
L 181.349702 113.868989 
L 181.312966 113.589572 
L 181.294583 113.817984 
L 181.239377 118.410634 
L 181.184085 115.231704 
L 181.073239 111.754508 
L 181.036213 109.831848 
L 180.9806 112.402047 
L 180.943477 110.330808 
L 180.663796 114.389016 
L 180.645071 114.304748 
L 180.607592 113.772524 
L 180.457277 110.898514 
L 180.438442 111.706829 
L 180.325223 121.615066 
L 180.211639 117.59234 
L 180.192673 117.648888 
L 180.154709 118.983884 
L 180.116705 117.515832 
L 180.097688 117.579034 
L 180.059622 117.983746 
L 180.021515 119.947431 
L 179.983367 121.44542 
L 179.945177 119.350896 
L 179.906946 120.426432 
L 179.868674 120.10488 
L 179.792004 115.548821 
L 179.734392 117.668847 
L 179.695932 117.668847 
L 179.638162 118.960599 
L 179.618885 118.369608 
L 179.444911 112.732691 
L 177.62102 114.021782 
L 177.248012 115.0951 
L 177.060017 114.541809 
L 176.871014 116.935708 
L 176.680993 117.44243 
L 176.489941 116.713948 
L 176.104703 112.030377 
L 175.910494 112.654632 
L 175.715208 112.891915 
L 175.518835 113.801131 
L 175.321362 113.536128 
L 175.122776 111.773136 
L 174.923065 112.022616 
L 174.722215 110.812915 
L 174.520215 113.373134 
L 174.317051 114.354422 
L 173.907175 111.23315 
L 173.700436 111.858513 
L 173.492477 115.658371 
L 173.283284 115.136126 
L 172.861136 111.268632 
L 172.648151 110.414856 
L 172.433872 108.437865 
L 172.218281 109.0344 
L 171.783104 110.763019 
L 171.563484 111.130032 
L 171.342487 111.213192 
L 171.120095 111.111182 
L 170.671058 108.456715 
L 170.444376 107.329065 
L 170.216227 107.963299 
L 169.986592 107.873486 
L 169.522784 109.894828 
L 169.288571 109.71742 
L 169.052791 109.286097 
L 168.815424 107.468774 
L 168.576447 107.500929 
L 168.335839 107.184921 
L 168.093577 104.936275 
L 167.849639 104.540433 
L 167.604001 103.589083 
L 167.356639 104.428444 
L 167.107529 103.36067 
L 166.856646 103.653393 
L 166.349459 107.160528 
L 166.093102 105.989635 
L 165.834867 107.005296 
L 165.574726 106.277923 
L 165.312651 106.96427 
L 165.048613 105.054916 
L 164.782582 105.19019 
L 164.514528 106.259073 
L 163.972227 104.86642 
L 163.697915 103.564689 
L 163.142802 104.031494 
L 162.861933 104.836483 
L 162.578807 102.539049 
L 162.293389 102.959284 
L 162.005642 102.144316 
L 161.715525 104.858659 
L 161.12803 101.063236 
L 160.830569 98.978692 
L 160.530576 100.052011 
L 160.228008 99.671692 
L 159.614968 96.598099 
L 159.304403 98.311195 
L 158.991077 99.136142 
L 158.674941 101.711884 
L 158.034034 99.015283 
L 157.709157 97.990752 
L 157.381258 97.359844 
L 157.05028 98.429836 
L 156.716164 97.478486 
L 156.378851 99.945566 
L 156.038279 100.75499 
L 155.694385 99.253675 
L 155.347102 95.601288 
L 154.996364 93.220694 
L 154.6421 95.014732 
L 154.28424 94.468094 
L 153.922709 93.506764 
L 153.557432 91.078492 
L 153.18833 93.940305 
L 152.815323 95.758737 
L 152.438325 96.935174 
L 152.057252 94.870588 
L 151.672014 94.097755 
L 150.888673 95.948342 
L 150.490375 94.7209 
L 150.087526 93.006696 
L 149.68002 92.858116 
L 149.267747 95.10898 
L 148.850595 94.77634 
L 148.001182 91.659504 
L 147.568675 91.213766 
L 147.130795 91.785907 
L 146.687406 92.035387 
L 145.322761 87.794227 
L 144.855881 87.544747 
L 143.90315 87.774268 
L 143.41695 88.522708 
L 142.92395 88.028184 
L 142.423957 86.143224 
L 141.91677 86.753064 
L 141.402178 86.81183 
L 140.879962 86.282932 
L 139.811731 84.75168 
L 139.265226 85.593259 
L 138.710113 84.094161 
L 138.146118 83.076283 
L 137.572952 83.58744 
L 136.990312 83.671708 
L 136.39788 82.047316 
L 135.795319 81.135883 
L 135.182279 81.346555 
L 134.558388 82.576214 
L 133.276468 79.211006 
L 132.617591 78.918283 
L 131.946162 80.659099 
L 131.261696 80.746694 
L 130.563675 79.860763 
L 129.851551 77.995761 
L 129.124743 78.537964 
L 128.382633 80.661316 
L 127.624563 80.701233 
L 126.84983 79.332974 
L 126.057686 79.13339 
L 125.247331 82.020705 
L 124.417906 82.355563 
L 123.568493 81.48959 
L 122.698105 82.057296 
L 120.890072 85.103169 
L 119.950045 84.950155 
L 118.984261 85.505664 
L 117.991268 83.509824 
L 116.969489 82.944336 
L 115.917204 84.441216 
L 114.832536 86.397139 
L 113.713429 85.973577 
L 112.557623 86.066716 
L 111.36263 86.475864 
L 110.125699 89.29776 
L 108.843779 89.410857 
L 107.513473 90.550704 
L 104.692054 91.597411 
L 103.191874 93.058809 
L 101.624997 92.546544 
L 99.985217 92.4024 
L 98.08873 91.174958 
L 97.553293 89.657011 
L 97.372991 89.973019 
L 96.826485 92.317022 
L 96.457383 91.240377 
L 95.707378 88.023748 
L 95.517356 88.2067 
L 95.326305 87.928392 
L 95.134212 88.519382 
L 94.746857 90.4243 
L 94.551572 90.821251 
L 94.157725 92.767195 
L 93.959139 92.600875 
L 92.949072 87.245371 
L 92.743539 88.328668 
L 92.119648 94.667678 
L 91.909206 95.117851 
L 91.6975 94.934899 
L 91.484515 94.369411 
L 91.054645 91.86574 
L 90.837728 91.28362 
L 90.17885 86.83068 
L 89.956459 87.533659 
L 89.28074 91.951118 
L 89.052591 92.179531 
L 88.822955 91.94003 
L 88.591814 91.213766 
L 88.359147 91.787016 
L 87.651787 98.72256 
L 87.172203 98.172595 
L 86.929941 96.768854 
L 86.686003 96.312028 
L 86.440365 95.52478 
L 85.943893 94.765252 
L 85.185823 91.710508 
L 84.929466 91.69942 
L 84.671231 91.46879 
L 84.149015 91.739337 
L 83.618946 93.359294 
L 83.350892 93.461304 
L 82.80859 92.271561 
L 82.534278 92.131852 
L 81.979166 90.722568 
L 81.698296 90.732547 
L 80.842005 96.234412 
L 80.551889 96.226651 
L 80.259365 95.947233 
L 79.964393 94.917158 
L 79.064372 93.221803 
L 78.451332 91.935595 
L 78.140767 92.518824 
L 77.511305 95.22984 
L 77.096043 95.925057 
L 76.999515 95.92284 
L 76.838045 95.137809 
L 76.708334 96.74446 
L 76.643299 96.584793 
L 76.512868 96.160123 
L 76.381952 95.470449 
L 76.217622 96.129076 
L 76.052521 95.367331 
L 75.786741 96.950697 
L 75.719981 96.950697 
L 75.41799 102.708696 
L 75.181306 98.106067 
L 75.04534 97.629283 
L 74.737488 97.572734 
L 74.565289 96.917433 
L 74.392246 98.467536 
L 74.113597 96.777724 
L 74.043589 96.777724 
L 73.832727 96.415147 
L 73.832727 96.415147 
" clip-path="url(#p5a8efbb017)" style="fill: none; stroke: #008000; stroke-width: 1.5; stroke-linecap: square"/>
   </g>
   <g id="patch_3">
    <path d="M 57.6 307.584 
L 57.6 41.472 
" style="fill: none; stroke: #000000; stroke-width: 0.8; stroke-linejoin: miter; stroke-linecap: square"/>
   </g>
   <g id="patch_4">
    <path d="M 414.72 307.584 
L 414.72 41.472 
" style="fill: none; stroke: #000000; stroke-width: 0.8; stroke-linejoin: miter; stroke-linecap: square"/>
   </g>
   <g id="patch_5">
    <path d="M 57.6 307.584 
L 414.72 307.584 
" style="fill: none; stroke: #000000; stroke-width: 0.8; stroke-linejoin: miter; stroke-linecap: square"/>
   </g>
   <g id="patch_6">
    <path d="M 57.6 41.472 
L 414.72 41.472 
" style="fill: none; stroke: #000000; stroke-width: 0.8; stroke-linejoin: miter; stroke-linecap: square"/>
   </g>
   <g id="text_17">
    <!-- STuW81300 phase noise -->
    <g transform="translate(162.893438 35.472)scale(0.12 -0.12)">
     <defs>
      <path id="DejaVuSans-53" d="M 3425 4513 
L 3425 3897 
Q 3066 4069 2747 4153 
Q 2428 4238 2131 4238 
Q 1616 4238 1336 4038 
Q 1056 3838 1056 3469 
Q 1056 3159 1242 3001 
Q 1428 2844 1947 2747 
L 2328 2669 
Q 3034 2534 3370 2195 
Q 3706 1856 3706 1288 
Q 3706 609 3251 259 
Q 2797 -91 1919 -91 
Q 1588 -91 1214 -16 
Q 841 59 441 206 
L 441 856 
Q 825 641 1194 531 
Q 1563 422 1919 422 
Q 2459 422 2753 634 
Q 3047 847 3047 1241 
Q 3047 1584 2836 1778 
Q 2625 1972 2144 2069 
L 1759 2144 
Q 1053 2284 737 2584 
Q 422 2884 422 3419 
Q 422 4038 858 4394 
Q 1294 4750 2059 4750 
Q 2388 4750 2728 4690 
Q 3069 4631 3425 4513 
z
" transform="scale(0.015625)"/>
      <path id="DejaVuSans-54" d="M -19 4666 
L 3928 4666 
L 3928 4134 
L 2272 4134 
L 2272 0 
L 1638 0 
L 1638 4134 
L -19 4134 
L -19 4666 
z
" transform="scale(0.015625)"/>
      <path id="DejaVuSans-57" d="M 213 4666 
L 850 4666 
L 1831 722 
L 2809 4666 
L 3519 4666 
L 4500 722 
L 5478 4666 
L 6119 4666 
L 4947 0 
L 4153 0 
L 3169 4050 
L 2175 0 
L 1381 0 
L 213 4666 
z
" transform="scale(0.015625)"/>
      <path id="DejaVuSans-70" d="M 1159 525 
L 1159 -1331 
L 581 -1331 
L 581 3500 
L 1159 3500 
L 1159 2969 
Q 1341 3281 1617 3432 
Q 1894 3584 2278 3584 
Q 2916 3584 3314 3078 
Q 3713 2572 3713 1747 
Q 3713 922 3314 415 
Q 2916 -91 2278 -91 
Q 1894 -91 1617 61 
Q 1341 213 1159 525 
z
M 3116 1747 
Q 3116 2381 2855 2742 
Q 2594 3103 2138 3103 
Q 1681 3103 1420 2742 
Q 1159 2381 1159 1747 
Q 1159 1113 1420 752 
Q 1681 391 2138 391 
Q 2594 391 2855 752 
Q 3116 1113 3116 1747 
z
" transform="scale(0.015625)"/>
     </defs>
     <use xlink:href="#DejaVuSans-53"/>
     <use xlink:href="#DejaVuSans-54" x="63.476562"/>
     <use xlink:href="#DejaVuSans-75" x="109.435547"/>
     <use xlink:href="#DejaVuSans-57" x="172.814453"/>
     <use xlink:href="#DejaVuSans-38" x="271.691406"/>
     <use xlink:href="#DejaVuSans-31" x="335.314453"/>
     <use xlink:href="#DejaVuSans-33" x="398.9375"/>
     <use xlink:href="#DejaVuSans-30" x="462.560547"/>
     <use xlink:href="#DejaVuSans-30" x="526.183594"/>
     <use xlink:href="#DejaVuSans-20" x="589.806641"/>
     <use xlink:href="#DejaVuSans-70" x="621.59375"/>
     <use xlink:href="#DejaVuSans-68" x="685.070312"/>
     <use xlink:href="#DejaVuSans-61" x="748.449219"/>
     <use xlink:href="#DejaVuSans-73" x="809.728516"/>
     <use xlink:href="#DejaVuSans-65" x="861.828125"/>
     <use xlink:href="#DejaVuSans-20" x="923.351562"/>
     <use xlink:href="#DejaVuSans-6e" x="955.138672"/>
     <use xlink:href="#DejaVuSans-6f" x="1018.517578"/>
     <use xlink:href="#DejaVuSans-69" x="1079.699219"/>
     <use xlink:href="#DejaVuSans-73" x="1107.482422"/>
     <use xlink:href="#DejaVuSans-65" x="1159.582031"/>
    </g>
   </g>
   <g id="legend_1">
    <g id="patch_7">
     <path d="M 331.510625 78.82825 
L 407.72 78.82825 
Q 409.72 78.82825 409.72 76.82825 
L 409.72 48.472 
Q 409.72 46.472 407.72 46.472 
L 331.510625 46.472 
Q 329.510625 46.472 329.510625 48.472 
L 329.510625 76.82825 
Q 329.510625 78.82825 331.510625 78.82825 
z
" style="fill: #ffffff; opacity: 0.8; stroke: #cccccc; stroke-linejoin: miter"/>
    </g>
    <g id="line2d_52">
     <path d="M 333.510625 54.570437 
L 343.510625 54.570437 
L 353.510625 54.570437 
" style="fill: none; stroke: #ff0000; stroke-width: 1.5; stroke-linecap: square"/>
    </g>
    <g id="text_18">
     <!-- HEMT -->
     <g transform="translate(361.510625 58.070437)scale(0.1 -0.1)">
      <defs>
       <path id="DejaVuSans-45" d="M 628 4666 
L 3578 4666 
L 3578 4134 
L 1259 4134 
L 1259 2753 
L 3481 2753 
L 3481 2222 
L 1259 2222 
L 1259 531 
L 3634 531 
L 3634 0 
L 628 0 
L 628 4666 
z
" transform="scale(0.015625)"/>
       <path id="DejaVuSans-4d" d="M 628 4666 
L 1569 4666 
L 2759 1491 
L 3956 4666 
L 4897 4666 
L 4897 0 
L 4281 0 
L 4281 4097 
L 3078 897 
L 2444 897 
L 1241 4097 
L 1241 0 
L 628 0 
L 628 4666 
z
" transform="scale(0.015625)"/>
      </defs>
      <use xlink:href="#DejaVuSans-48"/>
      <use xlink:href="#DejaVuSans-45" x="75.195312"/>
      <use xlink:href="#DejaVuSans-4d" x="138.378906"/>
      <use xlink:href="#DejaVuSans-54" x="224.658203"/>
     </g>
    </g>
    <g id="line2d_53">
     <path d="M 333.510625 69.248562 
L 343.510625 69.248562 
L 353.510625 69.248562 
" style="fill: none; stroke: #008000; stroke-width: 1.5; stroke-linecap: square"/>
    </g>
    <g id="text_19">
     <!-- no HEMT -->
     <g transform="translate(361.510625 72.748562)scale(0.1 -0.1)">
      <use xlink:href="#DejaVuSans-6e"/>
      <use xlink:href="#DejaVuSans-6f" x="63.378906"/>
      <use xlink:href="#DejaVuSans-20" x="124.560547"/>
      <use xlink:href="#DejaVuSans-48" x="156.347656"/>
      <use xlink:href="#DejaVuSans-45" x="231.542969"/>
      <use xlink:href="#DejaVuSans-4d" x="294.726562"/>
      <use xlink:href="#DejaVuSans-54" x="381.005859"/>
     </g>
    </g>
   </g>
  </g>
 </g>
 <defs>
  <clipPath id="p5a8efbb017">
   <rect x="57.6" y="41.472" width="357.12" height="266.112"/>
  </clipPath>
 </defs>
</svg>
