<?xml version="1.0" encoding="utf-8" standalone="no"?>
<!DOCTYPE svg PUBLIC "-//W3C//DTD SVG 1.1//EN"
  "http://www.w3.org/Graphics/SVG/1.1/DTD/svg11.dtd">
<svg xmlns:xlink="http://www.w3.org/1999/xlink" width="460.8pt" height="345.6pt" viewBox="0 0 460.8 345.6" xmlns="http://www.w3.org/2000/svg" version="1.1">
 <metadata>
  <rdf:RDF xmlns:dc="http://purl.org/dc/elements/1.1/" xmlns:cc="http://creativecommons.org/ns#" xmlns:rdf="http://www.w3.org/1999/02/22-rdf-syntax-ns#">
   <cc:Work>
    <dc:type rdf:resource="http://purl.org/dc/dcmitype/StillImage"/>
    <dc:date>2022-11-10T15:01:44.951188</dc:date>
    <dc:format>image/svg+xml</dc:format>
    <dc:creator>
     <cc:Agent>
      <dc:title>Matplotlib v3.5.1, https://matplotlib.org/</dc:title>
     </cc:Agent>
    </dc:creator>
   </cc:Work>
  </rdf:RDF>
 </metadata>
 <defs>
  <style type="text/css">*{stroke-linejoin: round; stroke-linecap: butt}</style>
 </defs>
 <g id="figure_1">
  <g id="patch_1">
   <path d="M 0 345.6 
L 460.8 345.6 
L 460.8 0 
L 0 0 
z
" style="fill: #ffffff"/>
  </g>
  <g id="axes_1">
   <g id="patch_2">
    <path d="M 57.6 307.584 
L 414.72 307.584 
L 414.72 41.472 
L 57.6 41.472 
z
" style="fill: #ffffff"/>
   </g>
   <g id="matplotlib.axis_1">
    <g id="xtick_1">
     <g id="line2d_1">
      <defs>
       <path id="m899424c5d9" d="M 0 0 
L 0 3.5 
" style="stroke: #000000; stroke-width: 0.8"/>
      </defs>
      <g>
       <use xlink:href="#m899424c5d9" x="73.832727" y="307.584" style="stroke: #000000; stroke-width: 0.8"/>
      </g>
     </g>
     <g id="text_1">
      <!-- $\mathdefault{10^{3}}$ -->
      <g transform="translate(65.032727 322.182437)scale(0.1 -0.1)">
       <defs>
        <path id="DejaVuSans-31" d="M 794 531 
L 1825 531 
L 1825 4091 
L 703 3866 
L 703 4441 
L 1819 4666 
L 2450 4666 
L 2450 531 
L 3481 531 
L 3481 0 
L 794 0 
L 794 531 
z
" transform="scale(0.015625)"/>
        <path id="DejaVuSans-30" d="M 2034 4250 
Q 1547 4250 1301 3770 
Q 1056 3291 1056 2328 
Q 1056 1369 1301 889 
Q 1547 409 2034 409 
Q 2525 409 2770 889 
Q 3016 1369 3016 2328 
Q 3016 3291 2770 3770 
Q 2525 4250 2034 4250 
z
M 2034 4750 
Q 2819 4750 3233 4129 
Q 3647 3509 3647 2328 
Q 3647 1150 3233 529 
Q 2819 -91 2034 -91 
Q 1250 -91 836 529 
Q 422 1150 422 2328 
Q 422 3509 836 4129 
Q 1250 4750 2034 4750 
z
" transform="scale(0.015625)"/>
        <path id="DejaVuSans-33" d="M 2597 2516 
Q 3050 2419 3304 2112 
Q 3559 1806 3559 1356 
Q 3559 666 3084 287 
Q 2609 -91 1734 -91 
Q 1441 -91 1130 -33 
Q 819 25 488 141 
L 488 750 
Q 750 597 1062 519 
Q 1375 441 1716 441 
Q 2309 441 2620 675 
Q 2931 909 2931 1356 
Q 2931 1769 2642 2001 
Q 2353 2234 1838 2234 
L 1294 2234 
L 1294 2753 
L 1863 2753 
Q 2328 2753 2575 2939 
Q 2822 3125 2822 3475 
Q 2822 3834 2567 4026 
Q 2313 4219 1838 4219 
Q 1578 4219 1281 4162 
Q 984 4106 628 3988 
L 628 4550 
Q 988 4650 1302 4700 
Q 1616 4750 1894 4750 
Q 2613 4750 3031 4423 
Q 3450 4097 3450 3541 
Q 3450 3153 3228 2886 
Q 3006 2619 2597 2516 
z
" transform="scale(0.015625)"/>
       </defs>
       <use xlink:href="#DejaVuSans-31" transform="translate(0 0.765625)"/>
       <use xlink:href="#DejaVuSans-30" transform="translate(63.623047 0.765625)"/>
       <use xlink:href="#DejaVuSans-33" transform="translate(128.203125 39.046875)scale(0.7)"/>
      </g>
     </g>
    </g>
    <g id="xtick_2">
     <g id="line2d_2">
      <g>
       <use xlink:href="#m899424c5d9" x="154.996364" y="307.584" style="stroke: #000000; stroke-width: 0.8"/>
      </g>
     </g>
     <g id="text_2">
      <!-- $\mathdefault{10^{4}}$ -->
      <g transform="translate(146.196364 322.182437)scale(0.1 -0.1)">
       <defs>
        <path id="DejaVuSans-34" d="M 2419 4116 
L 825 1625 
L 2419 1625 
L 2419 4116 
z
M 2253 4666 
L 3047 4666 
L 3047 1625 
L 3713 1625 
L 3713 1100 
L 3047 1100 
L 3047 0 
L 2419 0 
L 2419 1100 
L 313 1100 
L 313 1709 
L 2253 4666 
z
" transform="scale(0.015625)"/>
       </defs>
       <use xlink:href="#DejaVuSans-31" transform="translate(0 0.684375)"/>
       <use xlink:href="#DejaVuSans-30" transform="translate(63.623047 0.684375)"/>
       <use xlink:href="#DejaVuSans-34" transform="translate(128.203125 38.965625)scale(0.7)"/>
      </g>
     </g>
    </g>
    <g id="xtick_3">
     <g id="line2d_3">
      <g>
       <use xlink:href="#m899424c5d9" x="236.16" y="307.584" style="stroke: #000000; stroke-width: 0.8"/>
      </g>
     </g>
     <g id="text_3">
      <!-- $\mathdefault{10^{5}}$ -->
      <g transform="translate(227.36 322.182437)scale(0.1 -0.1)">
       <defs>
        <path id="DejaVuSans-35" d="M 691 4666 
L 3169 4666 
L 3169 4134 
L 1269 4134 
L 1269 2991 
Q 1406 3038 1543 3061 
Q 1681 3084 1819 3084 
Q 2600 3084 3056 2656 
Q 3513 2228 3513 1497 
Q 3513 744 3044 326 
Q 2575 -91 1722 -91 
Q 1428 -91 1123 -41 
Q 819 9 494 109 
L 494 744 
Q 775 591 1075 516 
Q 1375 441 1709 441 
Q 2250 441 2565 725 
Q 2881 1009 2881 1497 
Q 2881 1984 2565 2268 
Q 2250 2553 1709 2553 
Q 1456 2553 1204 2497 
Q 953 2441 691 2322 
L 691 4666 
z
" transform="scale(0.015625)"/>
       </defs>
       <use xlink:href="#DejaVuSans-31" transform="translate(0 0.684375)"/>
       <use xlink:href="#DejaVuSans-30" transform="translate(63.623047 0.684375)"/>
       <use xlink:href="#DejaVuSans-35" transform="translate(128.203125 38.965625)scale(0.7)"/>
      </g>
     </g>
    </g>
    <g id="xtick_4">
     <g id="line2d_4">
      <g>
       <use xlink:href="#m899424c5d9" x="317.323636" y="307.584" style="stroke: #000000; stroke-width: 0.8"/>
      </g>
     </g>
     <g id="text_4">
      <!-- $\mathdefault{10^{6}}$ -->
      <g transform="translate(308.523636 322.182437)scale(0.1 -0.1)">
       <defs>
        <path id="DejaVuSans-36" d="M 2113 2584 
Q 1688 2584 1439 2293 
Q 1191 2003 1191 1497 
Q 1191 994 1439 701 
Q 1688 409 2113 409 
Q 2538 409 2786 701 
Q 3034 994 3034 1497 
Q 3034 2003 2786 2293 
Q 2538 2584 2113 2584 
z
M 3366 4563 
L 3366 3988 
Q 3128 4100 2886 4159 
Q 2644 4219 2406 4219 
Q 1781 4219 1451 3797 
Q 1122 3375 1075 2522 
Q 1259 2794 1537 2939 
Q 1816 3084 2150 3084 
Q 2853 3084 3261 2657 
Q 3669 2231 3669 1497 
Q 3669 778 3244 343 
Q 2819 -91 2113 -91 
Q 1303 -91 875 529 
Q 447 1150 447 2328 
Q 447 3434 972 4092 
Q 1497 4750 2381 4750 
Q 2619 4750 2861 4703 
Q 3103 4656 3366 4563 
z
" transform="scale(0.015625)"/>
       </defs>
       <use xlink:href="#DejaVuSans-31" transform="translate(0 0.765625)"/>
       <use xlink:href="#DejaVuSans-30" transform="translate(63.623047 0.765625)"/>
       <use xlink:href="#DejaVuSans-36" transform="translate(128.203125 39.046875)scale(0.7)"/>
      </g>
     </g>
    </g>
    <g id="xtick_5">
     <g id="line2d_5">
      <g>
       <use xlink:href="#m899424c5d9" x="398.487273" y="307.584" style="stroke: #000000; stroke-width: 0.8"/>
      </g>
     </g>
     <g id="text_5">
      <!-- $\mathdefault{10^{7}}$ -->
      <g transform="translate(389.687273 322.182437)scale(0.1 -0.1)">
       <defs>
        <path id="DejaVuSans-37" d="M 525 4666 
L 3525 4666 
L 3525 4397 
L 1831 0 
L 1172 0 
L 2766 4134 
L 525 4134 
L 525 4666 
z
" transform="scale(0.015625)"/>
       </defs>
       <use xlink:href="#DejaVuSans-31" transform="translate(0 0.684375)"/>
       <use xlink:href="#DejaVuSans-30" transform="translate(63.623047 0.684375)"/>
       <use xlink:href="#DejaVuSans-37" transform="translate(128.203125 38.965625)scale(0.7)"/>
      </g>
     </g>
    </g>
    <g id="xtick_6">
     <g id="line2d_6">
      <defs>
       <path id="m3ef4fa9767" d="M 0 0 
L 0 2 
" style="stroke: #000000; stroke-width: 0.6"/>
      </defs>
      <g>
       <use xlink:href="#m3ef4fa9767" x="61.260321" y="307.584" style="stroke: #000000; stroke-width: 0.6"/>
      </g>
     </g>
    </g>
    <g id="xtick_7">
     <g id="line2d_7">
      <g>
       <use xlink:href="#m3ef4fa9767" x="65.967158" y="307.584" style="stroke: #000000; stroke-width: 0.6"/>
      </g>
     </g>
    </g>
    <g id="xtick_8">
     <g id="line2d_8">
      <g>
       <use xlink:href="#m3ef4fa9767" x="70.118883" y="307.584" style="stroke: #000000; stroke-width: 0.6"/>
      </g>
     </g>
    </g>
    <g id="xtick_9">
     <g id="line2d_9">
      <g>
       <use xlink:href="#m3ef4fa9767" x="98.265416" y="307.584" style="stroke: #000000; stroke-width: 0.6"/>
      </g>
     </g>
    </g>
    <g id="xtick_10">
     <g id="line2d_10">
      <g>
       <use xlink:href="#m3ef4fa9767" x="112.557623" y="307.584" style="stroke: #000000; stroke-width: 0.6"/>
      </g>
     </g>
    </g>
    <g id="xtick_11">
     <g id="line2d_11">
      <g>
       <use xlink:href="#m3ef4fa9767" x="122.698105" y="307.584" style="stroke: #000000; stroke-width: 0.6"/>
      </g>
     </g>
    </g>
    <g id="xtick_12">
     <g id="line2d_12">
      <g>
       <use xlink:href="#m3ef4fa9767" x="130.563675" y="307.584" style="stroke: #000000; stroke-width: 0.6"/>
      </g>
     </g>
    </g>
    <g id="xtick_13">
     <g id="line2d_13">
      <g>
       <use xlink:href="#m3ef4fa9767" x="136.990312" y="307.584" style="stroke: #000000; stroke-width: 0.6"/>
      </g>
     </g>
    </g>
    <g id="xtick_14">
     <g id="line2d_14">
      <g>
       <use xlink:href="#m3ef4fa9767" x="142.423957" y="307.584" style="stroke: #000000; stroke-width: 0.6"/>
      </g>
     </g>
    </g>
    <g id="xtick_15">
     <g id="line2d_15">
      <g>
       <use xlink:href="#m3ef4fa9767" x="147.130795" y="307.584" style="stroke: #000000; stroke-width: 0.6"/>
      </g>
     </g>
    </g>
    <g id="xtick_16">
     <g id="line2d_16">
      <g>
       <use xlink:href="#m3ef4fa9767" x="151.282519" y="307.584" style="stroke: #000000; stroke-width: 0.6"/>
      </g>
     </g>
    </g>
    <g id="xtick_17">
     <g id="line2d_17">
      <g>
       <use xlink:href="#m3ef4fa9767" x="179.429053" y="307.584" style="stroke: #000000; stroke-width: 0.6"/>
      </g>
     </g>
    </g>
    <g id="xtick_18">
     <g id="line2d_18">
      <g>
       <use xlink:href="#m3ef4fa9767" x="193.72126" y="307.584" style="stroke: #000000; stroke-width: 0.6"/>
      </g>
     </g>
    </g>
    <g id="xtick_19">
     <g id="line2d_19">
      <g>
       <use xlink:href="#m3ef4fa9767" x="203.861742" y="307.584" style="stroke: #000000; stroke-width: 0.6"/>
      </g>
     </g>
    </g>
    <g id="xtick_20">
     <g id="line2d_20">
      <g>
       <use xlink:href="#m3ef4fa9767" x="211.727311" y="307.584" style="stroke: #000000; stroke-width: 0.6"/>
      </g>
     </g>
    </g>
    <g id="xtick_21">
     <g id="line2d_21">
      <g>
       <use xlink:href="#m3ef4fa9767" x="218.153949" y="307.584" style="stroke: #000000; stroke-width: 0.6"/>
      </g>
     </g>
    </g>
    <g id="xtick_22">
     <g id="line2d_22">
      <g>
       <use xlink:href="#m3ef4fa9767" x="223.587594" y="307.584" style="stroke: #000000; stroke-width: 0.6"/>
      </g>
     </g>
    </g>
    <g id="xtick_23">
     <g id="line2d_23">
      <g>
       <use xlink:href="#m3ef4fa9767" x="228.294431" y="307.584" style="stroke: #000000; stroke-width: 0.6"/>
      </g>
     </g>
    </g>
    <g id="xtick_24">
     <g id="line2d_24">
      <g>
       <use xlink:href="#m3ef4fa9767" x="232.446156" y="307.584" style="stroke: #000000; stroke-width: 0.6"/>
      </g>
     </g>
    </g>
    <g id="xtick_25">
     <g id="line2d_25">
      <g>
       <use xlink:href="#m3ef4fa9767" x="260.592689" y="307.584" style="stroke: #000000; stroke-width: 0.6"/>
      </g>
     </g>
    </g>
    <g id="xtick_26">
     <g id="line2d_26">
      <g>
       <use xlink:href="#m3ef4fa9767" x="274.884896" y="307.584" style="stroke: #000000; stroke-width: 0.6"/>
      </g>
     </g>
    </g>
    <g id="xtick_27">
     <g id="line2d_27">
      <g>
       <use xlink:href="#m3ef4fa9767" x="285.025378" y="307.584" style="stroke: #000000; stroke-width: 0.6"/>
      </g>
     </g>
    </g>
    <g id="xtick_28">
     <g id="line2d_28">
      <g>
       <use xlink:href="#m3ef4fa9767" x="292.890947" y="307.584" style="stroke: #000000; stroke-width: 0.6"/>
      </g>
     </g>
    </g>
    <g id="xtick_29">
     <g id="line2d_29">
      <g>
       <use xlink:href="#m3ef4fa9767" x="299.317585" y="307.584" style="stroke: #000000; stroke-width: 0.6"/>
      </g>
     </g>
    </g>
    <g id="xtick_30">
     <g id="line2d_30">
      <g>
       <use xlink:href="#m3ef4fa9767" x="304.75123" y="307.584" style="stroke: #000000; stroke-width: 0.6"/>
      </g>
     </g>
    </g>
    <g id="xtick_31">
     <g id="line2d_31">
      <g>
       <use xlink:href="#m3ef4fa9767" x="309.458067" y="307.584" style="stroke: #000000; stroke-width: 0.6"/>
      </g>
     </g>
    </g>
    <g id="xtick_32">
     <g id="line2d_32">
      <g>
       <use xlink:href="#m3ef4fa9767" x="313.609792" y="307.584" style="stroke: #000000; stroke-width: 0.6"/>
      </g>
     </g>
    </g>
    <g id="xtick_33">
     <g id="line2d_33">
      <g>
       <use xlink:href="#m3ef4fa9767" x="341.756325" y="307.584" style="stroke: #000000; stroke-width: 0.6"/>
      </g>
     </g>
    </g>
    <g id="xtick_34">
     <g id="line2d_34">
      <g>
       <use xlink:href="#m3ef4fa9767" x="356.048532" y="307.584" style="stroke: #000000; stroke-width: 0.6"/>
      </g>
     </g>
    </g>
    <g id="xtick_35">
     <g id="line2d_35">
      <g>
       <use xlink:href="#m3ef4fa9767" x="366.189015" y="307.584" style="stroke: #000000; stroke-width: 0.6"/>
      </g>
     </g>
    </g>
    <g id="xtick_36">
     <g id="line2d_36">
      <g>
       <use xlink:href="#m3ef4fa9767" x="374.054584" y="307.584" style="stroke: #000000; stroke-width: 0.6"/>
      </g>
     </g>
    </g>
    <g id="xtick_37">
     <g id="line2d_37">
      <g>
       <use xlink:href="#m3ef4fa9767" x="380.481221" y="307.584" style="stroke: #000000; stroke-width: 0.6"/>
      </g>
     </g>
    </g>
    <g id="xtick_38">
     <g id="line2d_38">
      <g>
       <use xlink:href="#m3ef4fa9767" x="385.914866" y="307.584" style="stroke: #000000; stroke-width: 0.6"/>
      </g>
     </g>
    </g>
    <g id="xtick_39">
     <g id="line2d_39">
      <g>
       <use xlink:href="#m3ef4fa9767" x="390.621704" y="307.584" style="stroke: #000000; stroke-width: 0.6"/>
      </g>
     </g>
    </g>
    <g id="xtick_40">
     <g id="line2d_40">
      <g>
       <use xlink:href="#m3ef4fa9767" x="394.773428" y="307.584" style="stroke: #000000; stroke-width: 0.6"/>
      </g>
     </g>
    </g>
    <g id="text_6">
     <!-- Frequency [Hz] -->
     <g transform="translate(198.455312 335.860562)scale(0.1 -0.1)">
      <defs>
       <path id="DejaVuSans-46" d="M 628 4666 
L 3309 4666 
L 3309 4134 
L 1259 4134 
L 1259 2759 
L 3109 2759 
L 3109 2228 
L 1259 2228 
L 1259 0 
L 628 0 
L 628 4666 
z
" transform="scale(0.015625)"/>
       <path id="DejaVuSans-72" d="M 2631 2963 
Q 2534 3019 2420 3045 
Q 2306 3072 2169 3072 
Q 1681 3072 1420 2755 
Q 1159 2438 1159 1844 
L 1159 0 
L 581 0 
L 581 3500 
L 1159 3500 
L 1159 2956 
Q 1341 3275 1631 3429 
Q 1922 3584 2338 3584 
Q 2397 3584 2469 3576 
Q 2541 3569 2628 3553 
L 2631 2963 
z
" transform="scale(0.015625)"/>
       <path id="DejaVuSans-65" d="M 3597 1894 
L 3597 1613 
L 953 1613 
Q 991 1019 1311 708 
Q 1631 397 2203 397 
Q 2534 397 2845 478 
Q 3156 559 3463 722 
L 3463 178 
Q 3153 47 2828 -22 
Q 2503 -91 2169 -91 
Q 1331 -91 842 396 
Q 353 884 353 1716 
Q 353 2575 817 3079 
Q 1281 3584 2069 3584 
Q 2775 3584 3186 3129 
Q 3597 2675 3597 1894 
z
M 3022 2063 
Q 3016 2534 2758 2815 
Q 2500 3097 2075 3097 
Q 1594 3097 1305 2825 
Q 1016 2553 972 2059 
L 3022 2063 
z
" transform="scale(0.015625)"/>
       <path id="DejaVuSans-71" d="M 947 1747 
Q 947 1113 1208 752 
Q 1469 391 1925 391 
Q 2381 391 2643 752 
Q 2906 1113 2906 1747 
Q 2906 2381 2643 2742 
Q 2381 3103 1925 3103 
Q 1469 3103 1208 2742 
Q 947 2381 947 1747 
z
M 2906 525 
Q 2725 213 2448 61 
Q 2172 -91 1784 -91 
Q 1150 -91 751 415 
Q 353 922 353 1747 
Q 353 2572 751 3078 
Q 1150 3584 1784 3584 
Q 2172 3584 2448 3432 
Q 2725 3281 2906 2969 
L 2906 3500 
L 3481 3500 
L 3481 -1331 
L 2906 -1331 
L 2906 525 
z
" transform="scale(0.015625)"/>
       <path id="DejaVuSans-75" d="M 544 1381 
L 544 3500 
L 1119 3500 
L 1119 1403 
Q 1119 906 1312 657 
Q 1506 409 1894 409 
Q 2359 409 2629 706 
Q 2900 1003 2900 1516 
L 2900 3500 
L 3475 3500 
L 3475 0 
L 2900 0 
L 2900 538 
Q 2691 219 2414 64 
Q 2138 -91 1772 -91 
Q 1169 -91 856 284 
Q 544 659 544 1381 
z
M 1991 3584 
L 1991 3584 
z
" transform="scale(0.015625)"/>
       <path id="DejaVuSans-6e" d="M 3513 2113 
L 3513 0 
L 2938 0 
L 2938 2094 
Q 2938 2591 2744 2837 
Q 2550 3084 2163 3084 
Q 1697 3084 1428 2787 
Q 1159 2491 1159 1978 
L 1159 0 
L 581 0 
L 581 3500 
L 1159 3500 
L 1159 2956 
Q 1366 3272 1645 3428 
Q 1925 3584 2291 3584 
Q 2894 3584 3203 3211 
Q 3513 2838 3513 2113 
z
" transform="scale(0.015625)"/>
       <path id="DejaVuSans-63" d="M 3122 3366 
L 3122 2828 
Q 2878 2963 2633 3030 
Q 2388 3097 2138 3097 
Q 1578 3097 1268 2742 
Q 959 2388 959 1747 
Q 959 1106 1268 751 
Q 1578 397 2138 397 
Q 2388 397 2633 464 
Q 2878 531 3122 666 
L 3122 134 
Q 2881 22 2623 -34 
Q 2366 -91 2075 -91 
Q 1284 -91 818 406 
Q 353 903 353 1747 
Q 353 2603 823 3093 
Q 1294 3584 2113 3584 
Q 2378 3584 2631 3529 
Q 2884 3475 3122 3366 
z
" transform="scale(0.015625)"/>
       <path id="DejaVuSans-79" d="M 2059 -325 
Q 1816 -950 1584 -1140 
Q 1353 -1331 966 -1331 
L 506 -1331 
L 506 -850 
L 844 -850 
Q 1081 -850 1212 -737 
Q 1344 -625 1503 -206 
L 1606 56 
L 191 3500 
L 800 3500 
L 1894 763 
L 2988 3500 
L 3597 3500 
L 2059 -325 
z
" transform="scale(0.015625)"/>
       <path id="DejaVuSans-20" transform="scale(0.015625)"/>
       <path id="DejaVuSans-5b" d="M 550 4863 
L 1875 4863 
L 1875 4416 
L 1125 4416 
L 1125 -397 
L 1875 -397 
L 1875 -844 
L 550 -844 
L 550 4863 
z
" transform="scale(0.015625)"/>
       <path id="DejaVuSans-48" d="M 628 4666 
L 1259 4666 
L 1259 2753 
L 3553 2753 
L 3553 4666 
L 4184 4666 
L 4184 0 
L 3553 0 
L 3553 2222 
L 1259 2222 
L 1259 0 
L 628 0 
L 628 4666 
z
" transform="scale(0.015625)"/>
       <path id="DejaVuSans-7a" d="M 353 3500 
L 3084 3500 
L 3084 2975 
L 922 459 
L 3084 459 
L 3084 0 
L 275 0 
L 275 525 
L 2438 3041 
L 353 3041 
L 353 3500 
z
" transform="scale(0.015625)"/>
       <path id="DejaVuSans-5d" d="M 1947 4863 
L 1947 -844 
L 622 -844 
L 622 -397 
L 1369 -397 
L 1369 4416 
L 622 4416 
L 622 4863 
L 1947 4863 
z
" transform="scale(0.015625)"/>
      </defs>
      <use xlink:href="#DejaVuSans-46"/>
      <use xlink:href="#DejaVuSans-72" x="50.269531"/>
      <use xlink:href="#DejaVuSans-65" x="89.132812"/>
      <use xlink:href="#DejaVuSans-71" x="150.65625"/>
      <use xlink:href="#DejaVuSans-75" x="214.132812"/>
      <use xlink:href="#DejaVuSans-65" x="277.511719"/>
      <use xlink:href="#DejaVuSans-6e" x="339.035156"/>
      <use xlink:href="#DejaVuSans-63" x="402.414062"/>
      <use xlink:href="#DejaVuSans-79" x="457.394531"/>
      <use xlink:href="#DejaVuSans-20" x="516.574219"/>
      <use xlink:href="#DejaVuSans-5b" x="548.361328"/>
      <use xlink:href="#DejaVuSans-48" x="587.375"/>
      <use xlink:href="#DejaVuSans-7a" x="662.570312"/>
      <use xlink:href="#DejaVuSans-5d" x="715.060547"/>
     </g>
    </g>
   </g>
   <g id="matplotlib.axis_2">
    <g id="ytick_1">
     <g id="line2d_41">
      <defs>
       <path id="m8a3cc8e72b" d="M 0 0 
L -3.5 0 
" style="stroke: #000000; stroke-width: 0.8"/>
      </defs>
      <g>
       <use xlink:href="#m8a3cc8e72b" x="57.6" y="307.584" style="stroke: #000000; stroke-width: 0.8"/>
      </g>
     </g>
     <g id="text_7">
      <!-- −140 -->
      <g transform="translate(23.132812 311.383219)scale(0.1 -0.1)">
       <defs>
        <path id="DejaVuSans-2212" d="M 678 2272 
L 4684 2272 
L 4684 1741 
L 678 1741 
L 678 2272 
z
" transform="scale(0.015625)"/>
       </defs>
       <use xlink:href="#DejaVuSans-2212"/>
       <use xlink:href="#DejaVuSans-31" x="83.789062"/>
       <use xlink:href="#DejaVuSans-34" x="147.412109"/>
       <use xlink:href="#DejaVuSans-30" x="211.035156"/>
      </g>
     </g>
    </g>
    <g id="ytick_2">
     <g id="line2d_42">
      <g>
       <use xlink:href="#m8a3cc8e72b" x="57.6" y="274.32" style="stroke: #000000; stroke-width: 0.8"/>
      </g>
     </g>
     <g id="text_8">
      <!-- −130 -->
      <g transform="translate(23.132812 278.119219)scale(0.1 -0.1)">
       <use xlink:href="#DejaVuSans-2212"/>
       <use xlink:href="#DejaVuSans-31" x="83.789062"/>
       <use xlink:href="#DejaVuSans-33" x="147.412109"/>
       <use xlink:href="#DejaVuSans-30" x="211.035156"/>
      </g>
     </g>
    </g>
    <g id="ytick_3">
     <g id="line2d_43">
      <g>
       <use xlink:href="#m8a3cc8e72b" x="57.6" y="241.056" style="stroke: #000000; stroke-width: 0.8"/>
      </g>
     </g>
     <g id="text_9">
      <!-- −120 -->
      <g transform="translate(23.132812 244.855219)scale(0.1 -0.1)">
       <defs>
        <path id="DejaVuSans-32" d="M 1228 531 
L 3431 531 
L 3431 0 
L 469 0 
L 469 531 
Q 828 903 1448 1529 
Q 2069 2156 2228 2338 
Q 2531 2678 2651 2914 
Q 2772 3150 2772 3378 
Q 2772 3750 2511 3984 
Q 2250 4219 1831 4219 
Q 1534 4219 1204 4116 
Q 875 4013 500 3803 
L 500 4441 
Q 881 4594 1212 4672 
Q 1544 4750 1819 4750 
Q 2544 4750 2975 4387 
Q 3406 4025 3406 3419 
Q 3406 3131 3298 2873 
Q 3191 2616 2906 2266 
Q 2828 2175 2409 1742 
Q 1991 1309 1228 531 
z
" transform="scale(0.015625)"/>
       </defs>
       <use xlink:href="#DejaVuSans-2212"/>
       <use xlink:href="#DejaVuSans-31" x="83.789062"/>
       <use xlink:href="#DejaVuSans-32" x="147.412109"/>
       <use xlink:href="#DejaVuSans-30" x="211.035156"/>
      </g>
     </g>
    </g>
    <g id="ytick_4">
     <g id="line2d_44">
      <g>
       <use xlink:href="#m8a3cc8e72b" x="57.6" y="207.792" style="stroke: #000000; stroke-width: 0.8"/>
      </g>
     </g>
     <g id="text_10">
      <!-- −110 -->
      <g transform="translate(23.132812 211.591219)scale(0.1 -0.1)">
       <use xlink:href="#DejaVuSans-2212"/>
       <use xlink:href="#DejaVuSans-31" x="83.789062"/>
       <use xlink:href="#DejaVuSans-31" x="147.412109"/>
       <use xlink:href="#DejaVuSans-30" x="211.035156"/>
      </g>
     </g>
    </g>
    <g id="ytick_5">
     <g id="line2d_45">
      <g>
       <use xlink:href="#m8a3cc8e72b" x="57.6" y="174.528" style="stroke: #000000; stroke-width: 0.8"/>
      </g>
     </g>
     <g id="text_11">
      <!-- −100 -->
      <g transform="translate(23.132812 178.327219)scale(0.1 -0.1)">
       <use xlink:href="#DejaVuSans-2212"/>
       <use xlink:href="#DejaVuSans-31" x="83.789062"/>
       <use xlink:href="#DejaVuSans-30" x="147.412109"/>
       <use xlink:href="#DejaVuSans-30" x="211.035156"/>
      </g>
     </g>
    </g>
    <g id="ytick_6">
     <g id="line2d_46">
      <g>
       <use xlink:href="#m8a3cc8e72b" x="57.6" y="141.264" style="stroke: #000000; stroke-width: 0.8"/>
      </g>
     </g>
     <g id="text_12">
      <!-- −90 -->
      <g transform="translate(29.495313 145.063219)scale(0.1 -0.1)">
       <defs>
        <path id="DejaVuSans-39" d="M 703 97 
L 703 672 
Q 941 559 1184 500 
Q 1428 441 1663 441 
Q 2288 441 2617 861 
Q 2947 1281 2994 2138 
Q 2813 1869 2534 1725 
Q 2256 1581 1919 1581 
Q 1219 1581 811 2004 
Q 403 2428 403 3163 
Q 403 3881 828 4315 
Q 1253 4750 1959 4750 
Q 2769 4750 3195 4129 
Q 3622 3509 3622 2328 
Q 3622 1225 3098 567 
Q 2575 -91 1691 -91 
Q 1453 -91 1209 -44 
Q 966 3 703 97 
z
M 1959 2075 
Q 2384 2075 2632 2365 
Q 2881 2656 2881 3163 
Q 2881 3666 2632 3958 
Q 2384 4250 1959 4250 
Q 1534 4250 1286 3958 
Q 1038 3666 1038 3163 
Q 1038 2656 1286 2365 
Q 1534 2075 1959 2075 
z
" transform="scale(0.015625)"/>
       </defs>
       <use xlink:href="#DejaVuSans-2212"/>
       <use xlink:href="#DejaVuSans-39" x="83.789062"/>
       <use xlink:href="#DejaVuSans-30" x="147.412109"/>
      </g>
     </g>
    </g>
    <g id="ytick_7">
     <g id="line2d_47">
      <g>
       <use xlink:href="#m8a3cc8e72b" x="57.6" y="108" style="stroke: #000000; stroke-width: 0.8"/>
      </g>
     </g>
     <g id="text_13">
      <!-- −80 -->
      <g transform="translate(29.495313 111.799219)scale(0.1 -0.1)">
       <defs>
        <path id="DejaVuSans-38" d="M 2034 2216 
Q 1584 2216 1326 1975 
Q 1069 1734 1069 1313 
Q 1069 891 1326 650 
Q 1584 409 2034 409 
Q 2484 409 2743 651 
Q 3003 894 3003 1313 
Q 3003 1734 2745 1975 
Q 2488 2216 2034 2216 
z
M 1403 2484 
Q 997 2584 770 2862 
Q 544 3141 544 3541 
Q 544 4100 942 4425 
Q 1341 4750 2034 4750 
Q 2731 4750 3128 4425 
Q 3525 4100 3525 3541 
Q 3525 3141 3298 2862 
Q 3072 2584 2669 2484 
Q 3125 2378 3379 2068 
Q 3634 1759 3634 1313 
Q 3634 634 3220 271 
Q 2806 -91 2034 -91 
Q 1263 -91 848 271 
Q 434 634 434 1313 
Q 434 1759 690 2068 
Q 947 2378 1403 2484 
z
M 1172 3481 
Q 1172 3119 1398 2916 
Q 1625 2713 2034 2713 
Q 2441 2713 2670 2916 
Q 2900 3119 2900 3481 
Q 2900 3844 2670 4047 
Q 2441 4250 2034 4250 
Q 1625 4250 1398 4047 
Q 1172 3844 1172 3481 
z
" transform="scale(0.015625)"/>
       </defs>
       <use xlink:href="#DejaVuSans-2212"/>
       <use xlink:href="#DejaVuSans-38" x="83.789062"/>
       <use xlink:href="#DejaVuSans-30" x="147.412109"/>
      </g>
     </g>
    </g>
    <g id="ytick_8">
     <g id="line2d_48">
      <g>
       <use xlink:href="#m8a3cc8e72b" x="57.6" y="74.736" style="stroke: #000000; stroke-width: 0.8"/>
      </g>
     </g>
     <g id="text_14">
      <!-- −70 -->
      <g transform="translate(29.495313 78.535219)scale(0.1 -0.1)">
       <use xlink:href="#DejaVuSans-2212"/>
       <use xlink:href="#DejaVuSans-37" x="83.789062"/>
       <use xlink:href="#DejaVuSans-30" x="147.412109"/>
      </g>
     </g>
    </g>
    <g id="ytick_9">
     <g id="line2d_49">
      <g>
       <use xlink:href="#m8a3cc8e72b" x="57.6" y="41.472" style="stroke: #000000; stroke-width: 0.8"/>
      </g>
     </g>
     <g id="text_15">
      <!-- −60 -->
      <g transform="translate(29.495313 45.271219)scale(0.1 -0.1)">
       <use xlink:href="#DejaVuSans-2212"/>
       <use xlink:href="#DejaVuSans-36" x="83.789062"/>
       <use xlink:href="#DejaVuSans-30" x="147.412109"/>
      </g>
     </g>
    </g>
    <g id="text_16">
     <!-- Phase noise [dBc/Hz] -->
     <g transform="translate(17.053125 227.257688)rotate(-90)scale(0.1 -0.1)">
      <defs>
       <path id="DejaVuSans-50" d="M 1259 4147 
L 1259 2394 
L 2053 2394 
Q 2494 2394 2734 2622 
Q 2975 2850 2975 3272 
Q 2975 3691 2734 3919 
Q 2494 4147 2053 4147 
L 1259 4147 
z
M 628 4666 
L 2053 4666 
Q 2838 4666 3239 4311 
Q 3641 3956 3641 3272 
Q 3641 2581 3239 2228 
Q 2838 1875 2053 1875 
L 1259 1875 
L 1259 0 
L 628 0 
L 628 4666 
z
" transform="scale(0.015625)"/>
       <path id="DejaVuSans-68" d="M 3513 2113 
L 3513 0 
L 2938 0 
L 2938 2094 
Q 2938 2591 2744 2837 
Q 2550 3084 2163 3084 
Q 1697 3084 1428 2787 
Q 1159 2491 1159 1978 
L 1159 0 
L 581 0 
L 581 4863 
L 1159 4863 
L 1159 2956 
Q 1366 3272 1645 3428 
Q 1925 3584 2291 3584 
Q 2894 3584 3203 3211 
Q 3513 2838 3513 2113 
z
" transform="scale(0.015625)"/>
       <path id="DejaVuSans-61" d="M 2194 1759 
Q 1497 1759 1228 1600 
Q 959 1441 959 1056 
Q 959 750 1161 570 
Q 1363 391 1709 391 
Q 2188 391 2477 730 
Q 2766 1069 2766 1631 
L 2766 1759 
L 2194 1759 
z
M 3341 1997 
L 3341 0 
L 2766 0 
L 2766 531 
Q 2569 213 2275 61 
Q 1981 -91 1556 -91 
Q 1019 -91 701 211 
Q 384 513 384 1019 
Q 384 1609 779 1909 
Q 1175 2209 1959 2209 
L 2766 2209 
L 2766 2266 
Q 2766 2663 2505 2880 
Q 2244 3097 1772 3097 
Q 1472 3097 1187 3025 
Q 903 2953 641 2809 
L 641 3341 
Q 956 3463 1253 3523 
Q 1550 3584 1831 3584 
Q 2591 3584 2966 3190 
Q 3341 2797 3341 1997 
z
" transform="scale(0.015625)"/>
       <path id="DejaVuSans-73" d="M 2834 3397 
L 2834 2853 
Q 2591 2978 2328 3040 
Q 2066 3103 1784 3103 
Q 1356 3103 1142 2972 
Q 928 2841 928 2578 
Q 928 2378 1081 2264 
Q 1234 2150 1697 2047 
L 1894 2003 
Q 2506 1872 2764 1633 
Q 3022 1394 3022 966 
Q 3022 478 2636 193 
Q 2250 -91 1575 -91 
Q 1294 -91 989 -36 
Q 684 19 347 128 
L 347 722 
Q 666 556 975 473 
Q 1284 391 1588 391 
Q 1994 391 2212 530 
Q 2431 669 2431 922 
Q 2431 1156 2273 1281 
Q 2116 1406 1581 1522 
L 1381 1569 
Q 847 1681 609 1914 
Q 372 2147 372 2553 
Q 372 3047 722 3315 
Q 1072 3584 1716 3584 
Q 2034 3584 2315 3537 
Q 2597 3491 2834 3397 
z
" transform="scale(0.015625)"/>
       <path id="DejaVuSans-6f" d="M 1959 3097 
Q 1497 3097 1228 2736 
Q 959 2375 959 1747 
Q 959 1119 1226 758 
Q 1494 397 1959 397 
Q 2419 397 2687 759 
Q 2956 1122 2956 1747 
Q 2956 2369 2687 2733 
Q 2419 3097 1959 3097 
z
M 1959 3584 
Q 2709 3584 3137 3096 
Q 3566 2609 3566 1747 
Q 3566 888 3137 398 
Q 2709 -91 1959 -91 
Q 1206 -91 779 398 
Q 353 888 353 1747 
Q 353 2609 779 3096 
Q 1206 3584 1959 3584 
z
" transform="scale(0.015625)"/>
       <path id="DejaVuSans-69" d="M 603 3500 
L 1178 3500 
L 1178 0 
L 603 0 
L 603 3500 
z
M 603 4863 
L 1178 4863 
L 1178 4134 
L 603 4134 
L 603 4863 
z
" transform="scale(0.015625)"/>
       <path id="DejaVuSans-64" d="M 2906 2969 
L 2906 4863 
L 3481 4863 
L 3481 0 
L 2906 0 
L 2906 525 
Q 2725 213 2448 61 
Q 2172 -91 1784 -91 
Q 1150 -91 751 415 
Q 353 922 353 1747 
Q 353 2572 751 3078 
Q 1150 3584 1784 3584 
Q 2172 3584 2448 3432 
Q 2725 3281 2906 2969 
z
M 947 1747 
Q 947 1113 1208 752 
Q 1469 391 1925 391 
Q 2381 391 2643 752 
Q 2906 1113 2906 1747 
Q 2906 2381 2643 2742 
Q 2381 3103 1925 3103 
Q 1469 3103 1208 2742 
Q 947 2381 947 1747 
z
" transform="scale(0.015625)"/>
       <path id="DejaVuSans-42" d="M 1259 2228 
L 1259 519 
L 2272 519 
Q 2781 519 3026 730 
Q 3272 941 3272 1375 
Q 3272 1813 3026 2020 
Q 2781 2228 2272 2228 
L 1259 2228 
z
M 1259 4147 
L 1259 2741 
L 2194 2741 
Q 2656 2741 2882 2914 
Q 3109 3088 3109 3444 
Q 3109 3797 2882 3972 
Q 2656 4147 2194 4147 
L 1259 4147 
z
M 628 4666 
L 2241 4666 
Q 2963 4666 3353 4366 
Q 3744 4066 3744 3513 
Q 3744 3084 3544 2831 
Q 3344 2578 2956 2516 
Q 3422 2416 3680 2098 
Q 3938 1781 3938 1306 
Q 3938 681 3513 340 
Q 3088 0 2303 0 
L 628 0 
L 628 4666 
z
" transform="scale(0.015625)"/>
       <path id="DejaVuSans-2f" d="M 1625 4666 
L 2156 4666 
L 531 -594 
L 0 -594 
L 1625 4666 
z
" transform="scale(0.015625)"/>
      </defs>
      <use xlink:href="#DejaVuSans-50"/>
      <use xlink:href="#DejaVuSans-68" x="60.302734"/>
      <use xlink:href="#DejaVuSans-61" x="123.681641"/>
      <use xlink:href="#DejaVuSans-73" x="184.960938"/>
      <use xlink:href="#DejaVuSans-65" x="237.060547"/>
      <use xlink:href="#DejaVuSans-20" x="298.583984"/>
      <use xlink:href="#DejaVuSans-6e" x="330.371094"/>
      <use xlink:href="#DejaVuSans-6f" x="393.75"/>
      <use xlink:href="#DejaVuSans-69" x="454.931641"/>
      <use xlink:href="#DejaVuSans-73" x="482.714844"/>
      <use xlink:href="#DejaVuSans-65" x="534.814453"/>
      <use xlink:href="#DejaVuSans-20" x="596.337891"/>
      <use xlink:href="#DejaVuSans-5b" x="628.125"/>
      <use xlink:href="#DejaVuSans-64" x="667.138672"/>
      <use xlink:href="#DejaVuSans-42" x="730.615234"/>
      <use xlink:href="#DejaVuSans-63" x="799.21875"/>
      <use xlink:href="#DejaVuSans-2f" x="854.199219"/>
      <use xlink:href="#DejaVuSans-48" x="887.890625"/>
      <use xlink:href="#DejaVuSans-7a" x="963.085938"/>
      <use xlink:href="#DejaVuSans-5d" x="1015.576172"/>
     </g>
    </g>
   </g>
   <g id="line2d_50">
    <path d="M 398.487273 311.61848 
L 398.133009 311.753753 
L 397.775149 311.629568 
L 397.413619 310.587296 
L 397.048342 310.001849 
L 396.67924 310.619451 
L 396.306232 310.01959 
L 395.929234 308.789931 
L 395.548161 306.697625 
L 394.773428 308.999494 
L 394.379582 310.522985 
L 393.981285 309.566091 
L 393.578435 309.81668 
L 393.170929 309.051608 
L 392.758656 309.421947 
L 392.341504 308.314256 
L 391.492092 308.145718 
L 391.059584 309.186881 
L 390.621704 310.681544 
L 390.178315 311.57191 
L 389.729278 311.726033 
L 389.274447 309.988544 
L 388.81367 308.844262 
L 388.346791 307.350708 
L 387.873644 306.394923 
L 387.394059 306.743086 
L 385.914866 311.755971 
L 385.407679 310.627212 
L 384.893087 309.836638 
L 384.370871 308.247728 
L 383.840802 307.304139 
L 383.30264 307.955004 
L 382.201022 308.012662 
L 381.637027 307.177736 
L 381.063862 306.722019 
L 379.888789 306.521326 
L 379.286228 305.379262 
L 378.049297 304.181758 
L 377.414164 305.800606 
L 375.437071 303.245931 
L 374.752605 304.5776 
L 374.054584 304.333664 
L 372.615652 303.130616 
L 371.873543 304.23498 
L 371.115472 304.260483 
L 370.340739 305.576628 
L 369.548595 304.480025 
L 368.73824 304.455632 
L 367.908815 302.622785 
L 367.059402 301.143646 
L 366.189015 300.77996 
L 365.296589 301.571643 
L 364.380981 302.902203 
L 362.47517 300.183425 
L 361.482177 300.4196 
L 360.460398 301.273376 
L 359.408113 301.308857 
L 358.323446 299.998256 
L 357.204338 299.951686 
L 356.048532 297.706366 
L 353.616608 291.472692 
L 352.334688 290.646636 
L 351.004382 293.115934 
L 349.621895 294.309003 
L 348.182963 294.877817 
L 346.682783 292.217806 
L 345.115906 291.380662 
L 343.476126 290.834024 
L 341.756325 289.371516 
L 339.948292 285.602705 
L 338.042481 281.949209 
L 336.027709 281.110956 
L 333.890756 279.517611 
L 331.615843 279.500979 
L 329.183919 277.324404 
L 326.571693 277.38428 
L 323.455302 275.853027 
L 322.857849 273.3549 
L 322.555281 272.646377 
L 322.15802 272.975691 
L 322.034879 273.849425 
L 321.880347 274.799667 
L 321.849358 274.869521 
L 321.7873 274.79634 
L 321.694008 274.812972 
L 321.600468 275.661204 
L 321.53797 275.545889 
L 321.192236 273.749633 
L 321.160637 273.670908 
L 321.129009 273.766265 
L 321.002214 274.393846 
L 320.874962 274.245267 
L 320.843077 274.244158 
L 320.683217 274.980401 
L 320.361307 272.05206 
L 320.101645 270.593988 
L 319.971094 270.229193 
L 319.905636 270.295721 
L 319.807221 271.400086 
L 319.708531 271.326905 
L 319.443997 272.351436 
L 319.344283 273.109856 
L 319.27765 272.823785 
L 319.110514 271.043052 
L 319.043437 271.104036 
L 319.009851 271.170564 
L 318.976232 271.012006 
L 318.740001 268.824344 
L 318.57029 267.40508 
L 318.43393 267.207713 
L 318.399758 267.21991 
L 318.365552 267.232107 
L 318.056198 266.340632 
L 318.021658 266.353937 
L 317.883155 266.513604 
L 317.778919 266.777499 
L 317.709257 266.719841 
L 317.499442 266.946036 
L 317.464351 266.882835 
L 317.394064 266.681033 
L 317.28837 272.667444 
L 316.93375 273.528982 
L 316.575526 273.662038 
L 315.847968 270.046241 
L 315.478479 269.737995 
L 314.727675 267.168905 
L 314.34619 268.243332 
L 313.96053 268.201198 
L 313.570605 268.98512 
L 313.176317 267.941739 
L 312.37426 269.749083 
L 311.553526 267.542571 
L 311.13588 263.139526 
L 310.713226 260.859833 
L 310.285442 261.171406 
L 309.413979 266.24084 
L 308.970032 266.042364 
L 308.520422 265.084361 
L 308.065003 263.494342 
L 307.603623 263.556435 
L 307.136124 262.565168 
L 306.662341 262.299056 
L 306.182103 260.693513 
L 305.695232 262.52636 
L 305.201542 262.374454 
L 304.700838 261.161427 
L 304.19292 260.479515 
L 303.677576 259.287555 
L 303.154585 258.542441 
L 302.623718 255.167254 
L 302.084733 255.890192 
L 301.537379 257.262886 
L 300.981391 259.787624 
L 300.416492 259.499336 
L 299.842393 259.708899 
L 297.447657 253.117083 
L 296.82266 252.760049 
L 296.186381 253.966424 
L 294.878293 254.990955 
L 294.205583 251.631291 
L 293.519785 250.175436 
L 292.820379 249.643212 
L 292.106814 251.443904 
L 291.378504 252.659148 
L 290.634829 250.494771 
L 289.098685 248.7218 
L 288.304757 250.855131 
L 287.492534 247.62187 
L 286.661153 244.884243 
L 285.809688 242.775305 
L 284.937146 242.482582 
L 284.042455 240.491177 
L 283.124462 238.913355 
L 282.181922 240.476763 
L 281.213484 241.410372 
L 280.217686 242.653337 
L 279.192936 240.123056 
L 278.1375 238.829086 
L 277.049484 235.274273 
L 275.926812 236.148008 
L 273.568145 236.11807 
L 271.040258 231.542052 
L 269.704912 230.0108 
L 268.31698 227.70006 
L 266.87215 226.27747 
L 265.365556 225.006785 
L 263.791682 223.134022 
L 262.144237 220.99182 
L 260.416002 218.159945 
L 260.238426 217.256273 
L 260.05995 217.092171 
L 259.700264 219.099099 
L 258.96969 224.3282 
L 258.598645 226.169916 
L 258.411648 226.600131 
L 258.223653 227.685646 
L 258.034651 228.11586 
L 257.844629 227.748848 
L 257.461485 223.140675 
L 257.07413 218.410534 
L 256.878845 216.983508 
L 256.682471 216.9447 
L 256.484998 216.600972 
L 256.286412 216.68635 
L 256.086701 216.063204 
L 255.683852 216.799448 
L 255.480687 217.397091 
L 255.276345 217.367153 
L 254.446921 212.88871 
L 254.236479 213.857801 
L 253.811788 214.879006 
L 253.597508 214.375611 
L 253.381918 214.183788 
L 253.165 214.251425 
L 252.72712 214.928902 
L 252.506123 214.418854 
L 251.834695 209.546787 
L 251.608013 209.660993 
L 251.379864 210.083446 
L 250.919087 208.627592 
L 250.68642 207.254897 
L 250.4287 206.741523 
L 250.358084 206.366748 
L 250.287327 206.455452 
L 250.216427 206.785875 
L 249.835868 209.851707 
L 249.788008 209.71976 
L 249.57183 208.69412 
L 249.3058 206.075134 
L 249.18421 206.475411 
L 248.742979 208.493427 
L 248.718304 208.485665 
L 248.693611 208.477904 
L 248.569887 209.376032 
L 248.54509 208.834937 
L 248.371021 206.090657 
L 248.321129 206.280262 
L 248.271166 206.508675 
L 248.246158 206.321288 
L 248.095735 205.303409 
L 248.045452 205.62607 
L 248.020283 205.786846 
L 247.969891 205.500776 
L 247.894168 205.297865 
L 247.843596 205.406528 
L 247.666019 206.394468 
L 247.513095 206.979915 
L 247.38515 207.889131 
L 247.308159 207.687329 
L 247.282458 207.676241 
L 247.256738 207.758292 
L 246.581352 209.898276 
L 246.528859 209.718651 
L 246.344516 209.429254 
L 246.265216 209.336115 
L 246.238743 209.421492 
L 246.132651 210.151083 
L 246.079485 209.609988 
L 245.866016 207.307011 
L 245.839242 207.31699 
L 245.812447 207.326969 
L 245.54337 203.089136 
L 245.489307 203.100224 
L 245.353786 203.592531 
L 245.299431 203.385185 
L 245.217742 203.164534 
L 245.19047 203.243259 
L 245.135863 203.725587 
L 245.026394 204.645891 
L 244.998974 204.357603 
L 244.861551 203.238824 
L 244.834002 203.24215 
L 244.806431 203.245476 
L 244.751226 203.498283 
L 244.72359 203.360792 
L 244.390265 200.952478 
L 244.306438 201.233004 
L 244.053757 203.119073 
L 244.025569 202.747625 
L 243.855967 199.556499 
L 243.742444 200.163012 
L 243.657061 200.796137 
L 243.628554 200.592118 
L 243.457026 199.684011 
L 243.370948 199.659617 
L 243.082493 200.920323 
L 243.053518 200.797246 
L 242.468945 197.954283 
L 242.380417 197.555115 
L 242.350858 197.560659 
L 242.291666 197.680409 
L 242.262033 197.549571 
L 241.994205 196.79226 
L 241.904475 196.887617 
L 241.633906 197.793507 
L 241.330818 194.798638 
L 241.20885 194.862948 
L 240.994384 195.216656 
L 240.963639 195.235505 
L 240.932867 195.152345 
L 240.809511 194.890668 
L 240.778605 194.954979 
L 240.592594 195.438416 
L 240.436832 196.429683 
L 240.405597 196.400854 
L 240.343043 196.245622 
L 240.186172 195.763294 
L 240.154714 195.792123 
L 239.965373 197.521851 
L 239.933717 197.426494 
L 239.67944 196.613744 
L 239.391169 193.816241 
L 239.294553 193.72532 
L 239.197671 194.034675 
L 239.165317 193.929339 
L 239.132934 193.824003 
L 238.938009 191.387969 
L 238.840141 191.481108 
L 238.709225 191.727262 
L 238.643585 191.589771 
L 237.980368 188.40308 
L 237.846214 187.86642 
L 237.6778 186.847433 
L 237.576365 186.606824 
L 237.508578 186.629 
L 237.406654 186.46268 
L 237.201916 185.716457 
L 236.927069 184.113132 
L 236.788838 183.909113 
L 236.754195 183.882502 
L 236.650062 183.372454 
L 236.580469 183.4035 
L 236.230427 186.008072 
L 236.124733 189.759696 
L 235.769757 190.15332 
L 235.41117 189.560112 
L 235.048897 189.612226 
L 234.682862 186.96552 
L 234.312986 188.002248 
L 233.939188 186.657274 
L 233.561383 189.28513 
L 233.179485 186.962194 
L 232.793404 187.543205 
L 232.403047 184.7202 
L 231.20535 182.793106 
L 230.7969 179.992277 
L 230.383661 178.944461 
L 229.965521 177.454234 
L 229.54236 178.091794 
L 229.114058 177.061719 
L 228.680488 175.585906 
L 228.241518 176.011685 
L 227.797012 174.570245 
L 227.346829 175.713418 
L 226.890823 171.694018 
L 226.428839 170.458815 
L 225.960721 168.003932 
L 225.486301 168.316613 
L 225.005409 166.663392 
L 224.517866 165.585639 
L 224.023485 167.06256 
L 223.522071 166.762076 
L 223.013421 167.251056 
L 222.497323 166.183282 
L 221.973557 166.137821 
L 221.441891 165.613359 
L 220.902082 164.263949 
L 219.797013 163.425696 
L 219.23121 160.287792 
L 218.656176 161.887791 
L 218.071605 161.028471 
L 217.477176 162.11953 
L 216.872551 158.785368 
L 216.257373 159.129096 
L 214.99384 156.210735 
L 214.344673 152.606026 
L 213.683325 151.192306 
L 213.009332 149.450381 
L 212.322199 150.010325 
L 211.621405 149.611157 
L 211.549916 150.188842 
L 211.478281 149.128829 
L 211.334573 150.174428 
L 211.262499 149.707623 
L 211.117907 151.758903 
L 211.045388 151.75225 
L 210.75381 146.571936 
L 210.680537 147.055373 
L 210.607112 146.565284 
L 210.533533 147.454541 
L 210.385914 150.062439 
L 210.163318 153.342269 
L 210.088806 155.698469 
L 210.014137 155.25384 
L 209.713866 149.462578 
L 209.486972 145.758077 
L 209.334894 145.669373 
L 209.258608 148.298338 
L 209.182157 147.959045 
L 208.797393 143.980671 
L 208.719934 144.159188 
L 208.48653 142.32745 
L 208.408384 142.562516 
L 208.094055 149.151005 
L 208.015033 149.052322 
L 207.856456 145.70929 
L 207.697161 147.01213 
L 207.456862 146.364591 
L 207.214913 141.62558 
L 207.052686 142.66896 
L 206.88971 147.205061 
L 206.807938 147.371381 
L 206.725976 146.121764 
L 206.561478 148.47242 
L 206.313282 138.78816 
L 206.230161 140.995781 
L 205.979613 144.994114 
L 205.811587 143.128004 
L 205.727272 143.426271 
L 205.558035 146.852463 
L 205.302647 142.989404 
L 205.131354 144.374295 
L 205.045395 142.899591 
L 204.786251 135.326487 
L 204.437736 144.934239 
L 204.350066 143.106936 
L 204.174069 139.984556 
L 203.99719 141.180951 
L 203.908416 140.292802 
L 203.819418 141.753092 
L 203.730194 141.38497 
L 203.461161 136.732445 
L 203.371026 137.258016 
L 203.280659 136.797864 
L 203.190059 137.765847 
L 203.099227 137.336741 
L 202.916856 135.022676 
L 202.641519 137.228079 
L 202.549259 136.453028 
L 202.456758 137.154898 
L 202.364013 136.212418 
L 202.271024 136.686984 
L 202.177789 136.030575 
L 202.084306 136.296687 
L 201.990575 135.090312 
L 201.896594 135.254415 
L 201.802362 134.386224 
L 201.518144 141.496959 
L 201.422893 141.675476 
L 201.327384 140.3682 
L 201.039295 133.730924 
L 200.748831 134.619072 
L 200.553851 138.044156 
L 200.455955 138.277004 
L 200.160624 130.449984 
L 200.061628 130.824759 
L 199.461741 140.555588 
L 199.36076 139.063143 
L 199.056069 132.255111 
L 198.851469 131.009928 
L 198.748721 130.540906 
L 198.542324 136.196895 
L 198.43867 136.837781 
L 198.230444 135.153514 
L 198.02098 133.867306 
L 197.915779 131.957952 
L 197.810264 133.498076 
L 197.598281 132.844992 
L 197.491809 130.446658 
L 197.277896 131.620877 
L 196.954573 138.031959 
L 195.854894 123.660802 
L 195.743016 124.776255 
L 195.630781 126.460522 
L 195.405234 131.187336 
L 195.178234 133.691007 
L 195.064183 133.873959 
L 194.949762 133.694333 
L 194.255327 127.62698 
L 194.020774 128.875488 
L 193.90291 128.398704 
L 193.665993 125.900578 
L 193.523311 122.941191 
L 193.601209 126.987202 
L 193.510311 123.356991 
L 193.432212 127.832108 
L 193.314737 126.52705 
L 193.30166 125.618943 
L 193.2624 128.120396 
L 193.223096 126.408408 
L 193.091766 130.279229 
L 193.078606 130.319146 
L 192.999543 124.770711 
L 192.933522 127.451789 
L 192.920302 128.369876 
L 192.893849 124.81728 
L 192.761284 122.060804 
L 192.708119 121.969882 
L 192.548138 126.050266 
L 192.467875 124.168632 
L 192.44108 125.663295 
L 192.427675 125.712082 
L 192.347137 123.293789 
L 192.293342 124.329408 
L 192.131464 129.941045 
L 192.11794 128.438621 
L 192.104412 127.595933 
L 192.050245 130.192743 
L 192.023131 132.397037 
L 191.98242 127.271055 
L 191.968839 127.775559 
L 191.928065 126.31416 
L 191.887244 127.584845 
L 191.682427 121.607304 
L 191.586437 123.124143 
L 191.627607 121.354498 
L 191.572703 122.006472 
L 191.558963 121.598434 
L 191.531468 122.731628 
L 191.462636 121.653874 
L 191.379859 122.964476 
L 191.227596 132.517896 
L 191.213721 131.814917 
L 191.199841 131.111938 
L 191.158167 133.093364 
L 191.102526 131.556567 
L 190.893084 127.040424 
L 191.03285 132.615471 
L 190.879077 127.730098 
L 190.851046 129.403277 
L 190.794917 126.706676 
L 190.710556 124.186373 
L 190.682391 124.886026 
L 190.668299 125.562394 
L 190.625992 124.306124 
L 190.569504 125.096698 
L 190.512924 126.205498 
L 190.4846 130.279229 
L 190.399492 128.035018 
L 190.385288 128.120396 
L 190.356861 128.033909 
L 190.257187 125.036823 
L 190.214383 125.216448 
L 190.142928 122.467733 
L 190.114305 124.519013 
L 190.099985 125.56572 
L 190.05699 123.266069 
L 190.028297 124.199679 
L 190.013942 123.665237 
L 189.985215 126.082421 
L 189.855649 129.263568 
L 189.826792 126.519288 
L 189.783462 124.132042 
L 189.711127 124.880482 
L 189.638643 123.350338 
L 189.609608 125.173205 
L 189.580548 127.059274 
L 189.522358 123.756159 
L 189.434892 120.257895 
L 189.405688 121.895592 
L 189.317931 124.776255 
L 189.28863 122.68284 
L 189.229955 120.496287 
L 189.156474 121.025184 
L 189.053343 122.407858 
L 189.038585 122.130658 
L 188.846169 118.106823 
L 188.801616 123.20065 
L 188.712341 120.888802 
L 188.69744 120.83558 
L 188.667618 122.265932 
L 188.578002 121.504186 
L 188.54808 121.016314 
L 188.503148 121.949924 
L 188.458159 124.279512 
L 188.413112 120.726917 
L 188.368008 119.734541 
L 188.307779 120.832253 
L 188.20213 123.822687 
L 188.187012 123.018807 
L 188.096164 121.670506 
L 188.141617 123.779444 
L 188.081 122.252626 
L 187.944229 130.291426 
L 187.822207 128.200229 
L 187.806925 128.463015 
L 187.791636 127.553799 
L 187.653735 124.588868 
L 187.63838 124.759623 
L 187.623017 124.379304 
L 187.546105 119.690189 
L 187.469024 122.179445 
L 187.376305 124.053317 
L 187.329853 124.033359 
L 187.28334 121.929965 
L 187.205682 123.065376 
L 187.096673 125.70432 
L 187.143433 122.675079 
L 187.081073 124.775146 
L 186.924689 119.101416 
L 186.877638 117.061224 
L 186.79908 117.797468 
L 186.751861 120.203564 
L 186.704579 116.821724 
L 186.625634 116.195252 
L 186.609823 117.118882 
L 186.483086 124.746317 
L 186.403643 123.216173 
L 186.308074 118.666767 
L 186.244217 120.435303 
L 186.196248 125.412706 
L 186.116155 124.594412 
L 186.019803 117.705437 
L 185.939308 119.140224 
L 185.907058 121.549647 
L 185.826304 120.561706 
L 185.66424 115.002183 
L 185.566643 115.637525 
L 185.53405 116.096568 
L 185.452436 120.153668 
L 185.403377 124.127607 
L 185.32146 124.088799 
L 185.272218 124.960316 
L 185.239352 121.924421 
L 185.058039 112.840023 
L 184.975314 109.317365 
L 184.892395 110.566983 
L 184.759317 118.664549 
L 184.725969 117.421584 
L 184.709283 116.38153 
L 184.659178 119.04265 
L 184.59226 123.584295 
L 184.508434 121.794692 
L 184.407579 119.621444 
L 184.441229 122.026431 
L 184.390741 120.875496 
L 184.289548 122.423381 
L 184.340181 120.027264 
L 184.272655 121.849023 
L 184.188064 118.90405 
L 184.154171 121.365586 
L 184.120245 122.848052 
L 184.069295 119.268845 
L 184.035287 118.723316 
L 184.018271 119.620335 
L 184.001247 120.517354 
L 183.967173 117.014655 
L 183.881845 115.220616 
L 183.916001 117.178757 
L 183.864755 115.931357 
L 183.693394 122.013125 
L 183.676212 120.841124 
L 183.624616 118.494903 
L 183.590176 119.045976 
L 183.538453 125.519151 
L 183.45208 123.812708 
L 183.278696 118.670093 
L 183.261311 119.317632 
L 183.191683 119.109178 
L 183.139372 121.153805 
L 183.121918 121.022967 
L 182.999495 125.728714 
L 182.981971 123.835992 
L 182.823865 118.473836 
L 182.806254 118.171133 
L 182.771005 119.312088 
L 182.753367 119.425186 
L 182.735721 118.816455 
L 182.700401 121.265794 
L 182.682728 122.794829 
L 182.629655 118.813128 
L 182.594229 117.491439 
L 182.541023 119.037106 
L 182.52327 119.139116 
L 182.363088 117.438216 
L 182.327393 117.682152 
L 182.309532 117.281876 
L 182.18425 114.320271 
L 182.11246 115.358108 
L 182.09449 115.60537 
L 181.96844 122.229341 
L 181.950396 121.432114 
L 181.932342 120.634887 
L 181.878127 122.425599 
L 181.860037 122.425599 
L 181.80571 124.53121 
L 181.769446 123.406887 
L 181.605793 115.779452 
L 181.587563 116.81618 
L 181.551073 118.623524 
L 181.514546 116.67758 
L 181.459684 113.654991 
L 181.386401 115.107519 
L 181.368056 115.090887 
L 181.276191 110.970586 
L 181.220956 112.233509 
L 181.073239 115.745079 
L 181.054731 115.29158 
L 180.9249 111.737876 
L 180.999148 115.76282 
L 180.850496 112.802324 
L 180.79459 114.305856 
L 180.663796 122.698364 
L 180.607592 121.5186 
L 180.438442 117.705437 
L 180.419598 118.517079 
L 180.344118 122.595245 
L 180.230595 127.11804 
L 180.211639 126.245415 
L 180.173696 126.583599 
L 180.116705 123.549922 
L 180.040573 120.357687 
L 179.964277 120.968636 
L 179.753606 125.774175 
L 179.734392 127.22892 
L 179.695932 125.084501 
L 179.522339 116.544524 
L 179.483646 119.318741 
L 179.444911 114.415849 
L 177.62102 112.119081 
L 177.435009 112.816516 
L 177.248012 115.28914 
L 177.060017 114.333355 
L 176.489941 118.322817 
L 176.297848 118.203067 
L 176.104703 115.772577 
L 175.910494 115.106188 
L 175.715208 113.538345 
L 175.518835 113.619288 
L 175.321362 113.961907 
L 175.122776 115.813603 
L 174.923065 115.270291 
L 174.722215 113.747908 
L 174.520215 110.690947 
L 174.317051 110.279582 
L 174.112709 110.631072 
L 173.907175 111.611251 
L 173.492477 110.321716 
L 173.283284 108.642993 
L 173.072842 108.707304 
L 172.861136 106.784644 
L 172.648151 107.576328 
L 172.218281 110.252971 
L 171.783104 111.300787 
L 171.563484 110.425944 
L 171.342487 108.032044 
L 171.120095 107.28804 
L 170.896292 107.026363 
L 170.671058 109.186305 
L 170.444376 109.681939 
L 170.216227 111.940564 
L 169.986592 111.477086 
L 169.75545 109.039944 
L 169.522784 109.15415 
L 169.288571 109.627608 
L 169.052791 109.492334 
L 168.815424 106.269052 
L 168.576447 106.445352 
L 168.335839 105.16247 
L 168.093577 106.666003 
L 167.849639 104.687904 
L 167.604001 105.757896 
L 167.356639 104.91299 
L 167.107529 106.031769 
L 166.603965 106.344451 
L 166.349459 105.85547 
L 166.093102 106.791297 
L 165.834867 107.192683 
L 165.574726 104.74667 
L 165.312651 104.624702 
L 165.048613 102.697608 
L 164.782582 104.055888 
L 164.514528 102.14099 
L 164.24442 103.488182 
L 163.972227 103.564689 
L 163.697915 105.059352 
L 163.421451 105.186864 
L 163.142802 104.744452 
L 162.578807 100.605302 
L 162.293389 100.149585 
L 162.005642 100.737249 
L 161.715525 100.478899 
L 161.423001 100.743902 
L 161.12803 99.852427 
L 160.830569 100.777166 
L 160.530576 100.182849 
L 160.228008 100.395739 
L 159.922821 98.743627 
L 159.614968 99.524222 
L 159.304403 99.108422 
L 158.991077 98.455339 
L 158.674941 96.438432 
L 158.355944 96.531571 
L 157.709157 95.704406 
L 157.381258 96.062548 
L 157.05028 97.254508 
L 156.716164 99.640646 
L 156.378851 97.609324 
L 156.038279 94.848412 
L 155.694385 93.890409 
L 155.347102 93.365947 
L 154.996364 95.028038 
L 154.6421 92.456731 
L 154.28424 93.683064 
L 153.922709 94.437048 
L 153.557432 94.830672 
L 153.18833 93.44578 
L 152.815323 92.529912 
L 152.438325 92.258256 
L 152.057252 91.632892 
L 151.672014 91.752643 
L 150.888673 88.954032 
L 150.490375 89.277801 
L 150.087526 89.889859 
L 149.68002 91.830259 
L 149.267747 90.719241 
L 148.850595 90.599491 
L 148.428447 89.146963 
L 148.001182 89.39866 
L 147.568675 90.270177 
L 147.130795 91.932268 
L 146.687406 89.64814 
L 146.238369 88.183416 
L 145.783538 85.55556 
L 145.322761 86.28515 
L 144.855881 85.881547 
L 144.382734 87.9672 
L 143.90315 86.587852 
L 143.41695 87.443846 
L 142.92395 84.300398 
L 142.423957 84.562075 
L 141.91677 84.454521 
L 141.402178 84.507744 
L 140.879962 84.949046 
L 140.349893 82.323408 
L 139.811731 81.70248 
L 139.265226 81.736852 
L 138.710113 83.268105 
L 138.146118 83.44884 
L 137.572952 81.769008 
L 136.990312 81.958612 
L 136.39788 81.460761 
L 135.795319 83.147246 
L 135.182279 82.480857 
L 134.558388 82.784668 
L 133.923255 80.40851 
L 133.276468 78.491395 
L 132.617591 77.938104 
L 131.946162 79.284187 
L 131.261696 82.051752 
L 130.563675 83.141702 
L 129.851551 80.978433 
L 129.124743 79.237617 
L 128.382633 77.890425 
L 126.84983 76.557648 
L 126.057686 77.541153 
L 125.247331 80.38079 
L 124.417906 80.182315 
L 123.568493 81.419736 
L 122.698105 81.527289 
L 121.80568 84.747244 
L 120.890072 83.498736 
L 119.950045 82.774689 
L 118.984261 80.822092 
L 117.991268 79.972752 
L 116.969489 80.877532 
L 115.917204 83.646206 
L 114.832536 85.266163 
L 113.713429 85.36152 
L 112.557623 83.516476 
L 111.36263 82.674897 
L 110.125699 83.512041 
L 108.843779 84.664084 
L 107.513473 86.934907 
L 106.130985 88.202265 
L 104.692054 88.134628 
L 103.191874 89.369832 
L 101.624997 87.894019 
L 99.985217 87.354033 
L 98.265416 85.843848 
L 97.553293 88.793256 
L 97.009597 96.126859 
L 96.642417 94.073361 
L 96.457383 94.064491 
L 95.707378 95.513692 
L 95.517356 95.585764 
L 95.326305 94.530187 
L 95.134212 94.638849 
L 94.941067 93.74183 
L 94.551572 93.606556 
L 94.355199 96.333096 
L 94.157725 96.455064 
L 93.959139 95.858529 
L 93.558579 91.698312 
L 92.949072 88.468377 
L 92.743539 88.619174 
L 92.5368 88.510512 
L 91.909206 86.14655 
L 91.270235 88.621392 
L 91.054645 90.214737 
L 90.619467 94.502467 
L 90.399847 94.83178 
L 89.956459 92.745019 
L 89.507422 94.866153 
L 89.28074 96.557073 
L 88.822955 96.188952 
L 88.591814 96.864211 
L 88.124934 99.323529 
L 87.651787 97.261161 
L 87.412811 96.038155 
L 87.172203 95.520345 
L 86.929941 94.488052 
L 86.686003 94.639958 
L 86.440365 95.064628 
L 86.193003 95.838571 
L 85.943893 96.141273 
L 85.440329 93.239544 
L 85.185823 91.917854 
L 84.41109 95.112307 
L 84.149015 95.243145 
L 83.884977 95.10011 
L 83.618946 94.341691 
L 82.80859 93.211824 
L 82.257815 90.427627 
L 81.979166 90.204758 
L 81.129753 91.803648 
L 80.842005 91.325755 
L 80.551889 91.068513 
L 80.259365 91.184937 
L 79.964393 92.981193 
L 79.666932 93.208497 
L 79.36694 92.723952 
L 79.064372 91.472116 
L 78.451332 90.513004 
L 78.140767 89.862139 
L 77.192308 85.734076 
L 76.999515 85.757361 
L 76.773249 87.240936 
L 76.545521 87.320769 
L 76.118654 90.866712 
L 76.052521 90.866712 
L 75.753377 92.616398 
L 75.719981 92.616398 
L 75.518941 93.49235 
L 75.282936 93.780638 
L 75.249092 93.780638 
L 75.011267 95.433859 
L 74.908849 95.600179 
L 74.565289 94.692072 
L 74.530748 94.847304 
L 74.392246 95.157768 
L 74.218348 94.549036 
L 73.903155 95.320761 
L 73.832727 95.320761 
L 73.832727 95.320761 
" clip-path="url(#p60425e076b)" style="fill: none; stroke: #ff0000; stroke-width: 1.5; stroke-linecap: square"/>
   </g>
   <g id="patch_3">
    <path d="M 57.6 307.584 
L 57.6 41.472 
" style="fill: none; stroke: #000000; stroke-width: 0.8; stroke-linejoin: miter; stroke-linecap: square"/>
   </g>
   <g id="patch_4">
    <path d="M 414.72 307.584 
L 414.72 41.472 
" style="fill: none; stroke: #000000; stroke-width: 0.8; stroke-linejoin: miter; stroke-linecap: square"/>
   </g>
   <g id="patch_5">
    <path d="M 57.6 307.584 
L 414.72 307.584 
" style="fill: none; stroke: #000000; stroke-width: 0.8; stroke-linejoin: miter; stroke-linecap: square"/>
   </g>
   <g id="patch_6">
    <path d="M 57.6 41.472 
L 414.72 41.472 
" style="fill: none; stroke: #000000; stroke-width: 0.8; stroke-linejoin: miter; stroke-linecap: square"/>
   </g>
   <g id="text_17">
    <!-- StuW81300 + HEMT -->
    <g transform="translate(175.189687 35.472)scale(0.12 -0.12)">
     <defs>
      <path id="DejaVuSans-53" d="M 3425 4513 
L 3425 3897 
Q 3066 4069 2747 4153 
Q 2428 4238 2131 4238 
Q 1616 4238 1336 4038 
Q 1056 3838 1056 3469 
Q 1056 3159 1242 3001 
Q 1428 2844 1947 2747 
L 2328 2669 
Q 3034 2534 3370 2195 
Q 3706 1856 3706 1288 
Q 3706 609 3251 259 
Q 2797 -91 1919 -91 
Q 1588 -91 1214 -16 
Q 841 59 441 206 
L 441 856 
Q 825 641 1194 531 
Q 1563 422 1919 422 
Q 2459 422 2753 634 
Q 3047 847 3047 1241 
Q 3047 1584 2836 1778 
Q 2625 1972 2144 2069 
L 1759 2144 
Q 1053 2284 737 2584 
Q 422 2884 422 3419 
Q 422 4038 858 4394 
Q 1294 4750 2059 4750 
Q 2388 4750 2728 4690 
Q 3069 4631 3425 4513 
z
" transform="scale(0.015625)"/>
      <path id="DejaVuSans-74" d="M 1172 4494 
L 1172 3500 
L 2356 3500 
L 2356 3053 
L 1172 3053 
L 1172 1153 
Q 1172 725 1289 603 
Q 1406 481 1766 481 
L 2356 481 
L 2356 0 
L 1766 0 
Q 1100 0 847 248 
Q 594 497 594 1153 
L 594 3053 
L 172 3053 
L 172 3500 
L 594 3500 
L 594 4494 
L 1172 4494 
z
" transform="scale(0.015625)"/>
      <path id="DejaVuSans-57" d="M 213 4666 
L 850 4666 
L 1831 722 
L 2809 4666 
L 3519 4666 
L 4500 722 
L 5478 4666 
L 6119 4666 
L 4947 0 
L 4153 0 
L 3169 4050 
L 2175 0 
L 1381 0 
L 213 4666 
z
" transform="scale(0.015625)"/>
      <path id="DejaVuSans-2b" d="M 2944 4013 
L 2944 2272 
L 4684 2272 
L 4684 1741 
L 2944 1741 
L 2944 0 
L 2419 0 
L 2419 1741 
L 678 1741 
L 678 2272 
L 2419 2272 
L 2419 4013 
L 2944 4013 
z
" transform="scale(0.015625)"/>
      <path id="DejaVuSans-45" d="M 628 4666 
L 3578 4666 
L 3578 4134 
L 1259 4134 
L 1259 2753 
L 3481 2753 
L 3481 2222 
L 1259 2222 
L 1259 531 
L 3634 531 
L 3634 0 
L 628 0 
L 628 4666 
z
" transform="scale(0.015625)"/>
      <path id="DejaVuSans-4d" d="M 628 4666 
L 1569 4666 
L 2759 1491 
L 3956 4666 
L 4897 4666 
L 4897 0 
L 4281 0 
L 4281 4097 
L 3078 897 
L 2444 897 
L 1241 4097 
L 1241 0 
L 628 0 
L 628 4666 
z
" transform="scale(0.015625)"/>
      <path id="DejaVuSans-54" d="M -19 4666 
L 3928 4666 
L 3928 4134 
L 2272 4134 
L 2272 0 
L 1638 0 
L 1638 4134 
L -19 4134 
L -19 4666 
z
" transform="scale(0.015625)"/>
     </defs>
     <use xlink:href="#DejaVuSans-53"/>
     <use xlink:href="#DejaVuSans-74" x="63.476562"/>
     <use xlink:href="#DejaVuSans-75" x="102.685547"/>
     <use xlink:href="#DejaVuSans-57" x="166.064453"/>
     <use xlink:href="#DejaVuSans-38" x="264.941406"/>
     <use xlink:href="#DejaVuSans-31" x="328.564453"/>
     <use xlink:href="#DejaVuSans-33" x="392.1875"/>
     <use xlink:href="#DejaVuSans-30" x="455.810547"/>
     <use xlink:href="#DejaVuSans-30" x="519.433594"/>
     <use xlink:href="#DejaVuSans-20" x="583.056641"/>
     <use xlink:href="#DejaVuSans-2b" x="614.84375"/>
     <use xlink:href="#DejaVuSans-20" x="698.632812"/>
     <use xlink:href="#DejaVuSans-48" x="730.419922"/>
     <use xlink:href="#DejaVuSans-45" x="805.615234"/>
     <use xlink:href="#DejaVuSans-4d" x="868.798828"/>
     <use xlink:href="#DejaVuSans-54" x="955.078125"/>
    </g>
   </g>
   <g id="legend_1">
    <g id="patch_7">
     <path d="M 345.662188 64.150125 
L 407.72 64.150125 
Q 409.72 64.150125 409.72 62.150125 
L 409.72 48.472 
Q 409.72 46.472 407.72 46.472 
L 345.662188 46.472 
Q 343.662188 46.472 343.662188 48.472 
L 343.662188 62.150125 
Q 343.662188 64.150125 345.662188 64.150125 
z
" style="fill: #ffffff; opacity: 0.8; stroke: #cccccc; stroke-linejoin: miter"/>
    </g>
    <g id="line2d_51">
     <path d="M 347.662188 54.570438 
L 357.662188 54.570438 
L 367.662188 54.570438 
" style="fill: none; stroke: #ff0000; stroke-width: 1.5; stroke-linecap: square"/>
    </g>
    <g id="text_18">
     <!-- 5 GHz -->
     <g transform="translate(375.662188 58.070438)scale(0.1 -0.1)">
      <defs>
       <path id="DejaVuSans-47" d="M 3809 666 
L 3809 1919 
L 2778 1919 
L 2778 2438 
L 4434 2438 
L 4434 434 
Q 4069 175 3628 42 
Q 3188 -91 2688 -91 
Q 1594 -91 976 548 
Q 359 1188 359 2328 
Q 359 3472 976 4111 
Q 1594 4750 2688 4750 
Q 3144 4750 3555 4637 
Q 3966 4525 4313 4306 
L 4313 3634 
Q 3963 3931 3569 4081 
Q 3175 4231 2741 4231 
Q 1884 4231 1454 3753 
Q 1025 3275 1025 2328 
Q 1025 1384 1454 906 
Q 1884 428 2741 428 
Q 3075 428 3337 486 
Q 3600 544 3809 666 
z
" transform="scale(0.015625)"/>
      </defs>
      <use xlink:href="#DejaVuSans-35"/>
      <use xlink:href="#DejaVuSans-20" x="63.623047"/>
      <use xlink:href="#DejaVuSans-47" x="95.410156"/>
      <use xlink:href="#DejaVuSans-48" x="172.900391"/>
      <use xlink:href="#DejaVuSans-7a" x="248.095703"/>
     </g>
    </g>
   </g>
  </g>
 </g>
 <defs>
  <clipPath id="p60425e076b">
   <rect x="57.6" y="41.472" width="357.12" height="266.112"/>
  </clipPath>
 </defs>
</svg>
