<svg width="1963" height="1857" xmlns="http://www.w3.org/2000/svg" xmlns:xlink="http://www.w3.org/1999/xlink" xml:space="preserve" overflow="hidden"><defs><clipPath id="clip0"><rect x="2723" y="205" width="1963" height="1857"/></clipPath><clipPath id="clip1"><rect x="2723" y="204" width="1963" height="1858"/></clipPath><clipPath id="clip2"><rect x="2723" y="204" width="1963" height="1858"/></clipPath><clipPath id="clip3"><rect x="2723" y="204" width="1963" height="1858"/></clipPath><clipPath id="clip4"><rect x="2723" y="204" width="1963" height="1858"/></clipPath><clipPath id="clip5"><rect x="2723" y="204" width="1963" height="1858"/></clipPath><clipPath id="clip6"><rect x="2865" y="397" width="1774" height="1526"/></clipPath><clipPath id="clip7"><rect x="2723" y="204" width="1963" height="1858"/></clipPath><clipPath id="clip8"><rect x="2723" y="204" width="1963" height="1858"/></clipPath><clipPath id="clip9"><rect x="2723" y="204" width="1963" height="1858"/></clipPath><clipPath id="clip10"><rect x="2723" y="204" width="1963" height="1858"/></clipPath></defs><g clip-path="url(#clip0)" transform="translate(-2723 -205)"><rect x="2723" y="205" width="1963" height="1857" fill="#FFFFFF"/><g clip-path="url(#clip1)"><path d="M2865.5 1843.56 4635.5 1843.56M2865.5 1767.56 4635.5 1767.56M2865.5 1691.56 4635.5 1691.56M2865.5 1615.55 4635.5 1615.55M2865.5 1463.55 4635.5 1463.55M2865.5 1386.55 4635.5 1386.55M2865.5 1310.54 4635.5 1310.54M2865.5 1234.54 4635.5 1234.54M2865.5 1082.54 4635.5 1082.54M2865.5 1006.53 4635.5 1006.53M2865.5 930.531 4635.5 930.531M2865.5 853.528 4635.5 853.528M2865.5 701.523 4635.5 701.523M2865.5 625.521 4635.5 625.521M2865.5 549.518 4635.5 549.518M2865.5 473.516 4635.5 473.516" stroke="#F2F2F2" stroke-width="3.4375" stroke-linejoin="round" stroke-miterlimit="10" fill="none"/></g><g clip-path="url(#clip2)"><path d="M2865.5 1920.5 4635.5 1920.5M2865.5 1539.55 4635.5 1539.55M2865.5 1158.54 4635.5 1158.54M2865.5 777.526 4635.5 777.526M2865.5 397.5 4635.5 397.5" stroke="#D9D9D9" stroke-width="3.4375" stroke-linejoin="round" stroke-miterlimit="10" fill="none"/></g><g clip-path="url(#clip3)"><path d="M2953.6 397.5 2953.6 1920.5M3042.6 397.5 3042.6 1920.5M3130.6 397.5 3130.6 1920.5M3219.61 397.5 3219.61 1920.5M3396.61 397.5 3396.61 1920.5M3484.61 397.5 3484.61 1920.5M3573.62 397.5 3573.62 1920.5M3661.62 397.5 3661.62 1920.5M3838.63 397.5 3838.63 1920.5M3927.63 397.5 3927.63 1920.5M4015.63 397.5 4015.63 1920.5M4104.63 397.5 4104.63 1920.5M4281.64 397.5 4281.64 1920.5M4370.64 397.5 4370.64 1920.5M4458.65 397.5 4458.65 1920.5M4547.65 397.5 4547.65 1920.5" stroke="#F2F2F2" stroke-width="3.4375" stroke-linejoin="round" stroke-miterlimit="10" fill="none"/></g><g clip-path="url(#clip4)"><path d="M2865.5 397.5 2865.5 1920.5M3307.61 397.5 3307.61 1920.5M3750.62 397.5 3750.62 1920.5M4193.64 397.5 4193.64 1920.5M4635.5 397.5 4635.5 1920.5" stroke="#D9D9D9" stroke-width="3.4375" stroke-linejoin="round" stroke-miterlimit="10" fill="none"/></g><g clip-path="url(#clip5)"><rect x="2865.5" y="397.5" width="1770" height="1523" stroke="#000000" stroke-width="3.4375" stroke-linejoin="round" stroke-miterlimit="10" fill="none"/></g><g clip-path="url(#clip6)"><path d="M4476.26 1052.2C4467.41 1047.12 4454.14 1042.05 4449.72 1036.97 4445.96 1032.66 4455.99 1026.07 4449.72 1021.75 4442.35 1016.68 4412.86 1009.06 4405.49 1006.53 4405.49 1006.53 4405.49 1006.53 4405.49 1006.53 4402.54 1001.45 4390.74 981.154 4387.79 976.08 4387.79 976.08 4387.79 976.08 4387.79 976.08 4383.37 972.273 4367.15 957.05 4361.25 953.244 4357.53 950.846 4355.19 956.442 4352.4 953.244 4347.98 948.17 4337.66 927.872 4334.71 922.798 4334.71 922.798 4334.71 922.798 4334.71 922.798 4327.34 920.26 4297.85 911.38 4290.47 907.574 4287.09 905.828 4292.5 902.872 4290.47 899.963 4286.05 893.619 4268.36 874.59 4263.93 869.516 4263.93 869.516 4263.93 869.516 4263.93 869.516 4260.98 864.441 4250.66 844.143 4246.24 839.069 4243.73 836.19 4241.57 840.508 4237.39 839.069 4230.02 836.532 4207.9 827.651 4202 823.845 4199.1 821.972 4204.18 819.355 4202 816.234 4197.58 809.891 4179.89 790.861 4175.46 785.787 4175.46 785.787 4175.46 785.787 4175.46 785.787 4169.56 783.25 4145.97 774.369 4140.07 770.564 4136.88 768.5 4141.67 765.703 4140.07 762.952 4137.13 757.877 4129.75 743.923 4122.38 740.117 4115.01 736.311 4101.74 746.46 4095.84 740.117 4089.94 733.774 4089.94 708.401 4086.99 702.058 4085.13 698.047 4081.88 703.663 4078.15 702.058 4072.25 699.521 4056.03 689.372 4051.6 686.835 4051.6 686.835 4051.6 686.835 4051.6 686.835 4047.18 681.76 4029.49 661.462 4025.06 656.388 4025.06 656.388 4025.06 656.388 4025.06 656.388 4017.69 652.582 3988.2 637.359 3980.83 633.553 3980.83 633.553 3980.83 633.553 3980.83 633.553 3977.88 628.479 3966.08 608.181 3963.13 603.106 3963.13 603.106 3963.13 603.106 3963.13 603.106 3957.24 600.569 3933.64 590.42 3927.75 587.883 3927.75 587.883 3927.75 587.883 3927.75 587.883 3924.8 582.808 3913 562.511 3910.05 557.436 3910.05 557.436 3910.05 557.436 3910.05 557.436 3902.68 553.63 3873.19 540.944 3865.82 534.601 3860.05 529.637 3869.28 523.349 3865.82 519.378 3861.39 514.303 3845.17 506.691 3839.28 504.154 3835.4 502.487 3833.34 507.489 3830.43 504.154 3826.01 499.08 3815.68 478.782 3812.74 473.708 3812.74 473.708 3812.74 473.708 3812.74 473.708 3808.9 468.633 3797.11 448.335 3789.73 443.261 3782.36 438.186 3775.58 445.798 3768.5 443.261 3761.42 440.724 3750.81 430.574 3747.27 428.037 3747.27 428.037 3747.27 428.037 3747.27 428.037 3741.96 428.037 3720.73 428.037 3715.42 428.037 3715.42 428.037 3715.42 428.037 3715.42 428.037 3710.11 433.112 3688.88 450.872 3683.57 458.484 3679.21 464.727 3687.92 468.505 3683.57 473.708 3678.26 480.051 3657.03 492.737 3651.72 496.543 3651.72 496.543 3651.72 496.543 3651.72 496.543 3646.41 499.08 3625.18 507.96 3619.87 511.766 3617.12 513.738 3622.62 516.748 3619.87 519.378 3614.56 524.452 3593.33 538.407 3588.02 542.213 3588.02 542.213 3588.02 542.213 3588.02 542.213 3582.71 548.556 3561.48 573.928 3556.17 580.271 3556.17 580.271 3556.17 580.271 3556.17 580.271 3550.86 582.808 3529.63 592.957 3524.32 595.495 3524.32 595.495 3524.32 595.495 3524.32 595.495 3520.78 600.569 3506.63 620.867 3503.09 625.941 3503.09 625.941 3503.09 625.941 3503.09 625.941 3497.78 629.747 3476.55 643.702 3471.24 648.777 3468.92 650.994 3474.33 654.171 3471.24 656.388 3464.16 661.462 3435.85 675.417 3428.78 679.223 3428.78 679.223 3428.78 679.223 3428.78 679.223 3425.24 683.029 3412.85 698.252 3407.54 702.058 3403.7 704.809 3400.76 698.39 3396.93 702.058 3391.62 707.133 3379.23 727.431 3375.69 732.505 3375.69 732.505 3375.69 732.505 3375.69 732.505 3368.62 737.579 3340.31 757.877 3333.23 762.952 3333.23 762.952 3333.23 762.952 3333.23 762.952 3329.69 765.489 3315.53 775.638 3311.99 778.176 3311.99 778.176 3311.99 778.176 3311.99 778.176 3306.69 784.518 3285.45 809.891 3280.15 816.234 3280.15 816.234 3280.15 816.234 3280.15 816.234 3276.61 818.771 3265.99 827.651 3258.91 831.457 3251.83 835.263 3244.76 833.994 3237.68 839.069 3230.6 844.143 3219.99 858.098 3216.45 861.904 3216.45 861.904 3216.45 861.904 3216.45 861.904 3212.91 868.247 3200.52 893.619 3195.21 899.963 3191.81 904.033 3188 898.334 3184.6 899.963 3179.29 902.5 3166.9 911.38 3163.36 915.186 3161.82 916.849 3166.46 920.58 3163.36 922.798 3156.29 927.872 3127.98 941.827 3120.9 945.633 3120.9 945.633 3120.9 945.633 3120.9 945.633 3115.59 948.17 3094.36 955.781 3089.05 960.856 3083.74 965.93 3092.59 969.736 3089.05 976.08 3085.51 982.423 3071.36 995.109 3067.82 998.915 3067.82 998.915 3067.82 998.915 3067.82 998.915 3064.28 1001.45 3051.89 1010.33 3046.58 1014.14 3042.6 1016.99 3041.28 1017.94 3035.97 1021.75 3028.89 1026.82 3009.43 1040.78 3004.12 1044.58 3004.12 1044.58 3004.12 1044.58 3004.12 1044.58 3000.58 1050.93 2988.19 1076.3 2982.89 1082.64 2979.48 1086.71 2972.27 1081.01 2972.27 1082.64 2972.27 1085.18 2982.89 1094.06 2982.89 1097.87 2982.89 1101.67 2972.27 1100.91 2972.27 1105.48 2972.27 1110.05 2981.12 1121.97 2982.89 1125.27 2982.89 1125.27 2982.89 1125.27 2982.89 1125.27 2982.89 1131.36 2982.89 1155.72 2982.89 1161.8 2982.89 1161.8 2982.89 1161.8 2982.89 1161.8 2981.12 1164.85 2972.27 1177.03 2972.27 1180.07 2972.27 1183.12 2982.89 1177.03 2982.89 1180.07 2982.89 1183.12 2974.04 1193.77 2972.27 1198.34 2970.99 1201.63 2970.99 1203.09 2972.27 1207.47 2974.04 1213.56 2981.12 1228.79 2982.89 1234.88 2984.16 1239.26 2980.34 1240.72 2982.89 1244.01 2986.42 1248.58 3000.58 1259.23 3004.12 1262.28 3004.12 1262.28 3004.12 1262.28 3004.12 1262.28 3011.2 1265.32 3039.51 1275.98 3046.58 1280.55 3050.42 1283.02 3044.67 1286.38 3046.58 1289.68 3050.12 1295.77 3064.28 1312.52 3067.82 1317.08 3067.82 1317.08 3067.82 1317.08 3067.82 1317.08 3073.13 1321.65 3094.36 1339.92 3099.67 1344.49 3099.67 1344.49 3099.67 1344.49 3099.67 1344.49 3103.2 1347.53 3113.82 1358.19 3120.9 1362.75 3127.98 1367.32 3135.05 1365.8 3142.13 1371.89 3149.21 1377.98 3159.83 1394.72 3163.36 1399.29 3163.36 1399.29 3163.36 1399.29 3163.36 1399.29 3166.9 1403.86 3181.06 1422.12 3184.6 1426.69 3184.6 1426.69 3184.6 1426.69 3184.6 1426.69 3189.91 1429.74 3211.14 1441.92 3216.45 1444.96 3216.45 1444.96 3216.45 1444.96 3216.45 1444.96 3223.52 1449.53 3251.83 1467.79 3258.91 1472.36 3258.91 1472.36 3258.91 1472.36 3258.91 1472.36 3262.45 1476.93 3276.61 1495.2 3280.15 1499.76 3280.15 1499.76 3280.15 1499.76 3280.15 1499.76 3285.45 1504.33 3306.69 1522.6 3311.99 1527.17 3311.99 1527.17 3311.99 1527.17 3311.99 1527.17 3315.53 1531.73 3329.69 1550 3333.23 1554.57 3333.23 1554.57 3333.23 1554.57 3333.23 1554.57 3340.31 1559.14 3368.62 1577.4 3375.69 1581.97 3375.69 1581.97 3375.69 1581.97 3375.69 1581.97 3379.23 1585.02 3391.62 1595.67 3396.93 1600.24 3402.23 1604.81 3402.23 1604.81 3407.54 1609.37 3412.85 1613.94 3425.24 1623.07 3428.78 1627.64 3431.07 1630.6 3426.48 1632.83 3428.78 1636.77 3432.31 1642.86 3442.93 1659.61 3450.01 1664.18 3457.09 1668.74 3464.16 1661.13 3471.24 1664.18 3478.32 1667.22 3488.93 1677.88 3492.47 1682.44 3494.78 1685.42 3489.01 1688.6 3492.47 1691.58 3497.78 1696.15 3519.01 1706.8 3524.32 1709.85 3524.32 1709.85 3524.32 1709.85 3524.32 1709.85 3527.86 1715.94 3540.25 1740.29 3545.56 1746.38 3549.04 1750.38 3551.52 1744.38 3556.17 1746.38 3563.25 1749.43 3582.71 1761.61 3588.02 1764.65 3588.02 1764.65 3588.02 1764.65 3588.02 1764.65 3593.33 1769.22 3614.56 1787.49 3619.87 1792.05 3619.87 1792.05 3619.87 1792.05 3619.87 1792.05 3623.41 1796.62 3637.56 1814.89 3641.1 1819.46 3641.1 1819.46 3641.1 1819.46 3641.1 1819.46 3648.18 1819.46 3676.49 1819.46 3683.57 1819.46 3683.57 1819.46 3683.57 1819.46 3683.57 1819.46 3688.88 1819.46 3710.11 1819.46 3715.42 1819.46 3715.42 1819.46 3715.42 1819.46 3715.42 1819.46 3718.96 1819.46 3733.11 1819.46 3736.65 1819.46 3736.65 1819.46 3736.65 1819.46 3736.65 1819.46 3741.96 1819.46 3763.19 1819.46 3768.5 1819.46 3768.5 1819.46 3768.5 1819.46 3768.5 1819.46 3773.81 1819.46 3795.04 1819.46 3800.35 1819.46 3800.35 1819.46 3800.35 1819.46 3800.35 1819.46 3805.36 1819.46 3825.42 1819.46 3830.43 1819.46 3830.43 1819.46 3830.43 1819.46 3830.43 1819.46 3836.33 1816.41 3859.92 1804.23 3865.82 1801.19 3865.82 1801.19 3865.82 1801.19 3865.82 1801.19 3870.24 1796.62 3887.94 1778.35 3892.36 1773.79 3892.36 1773.79 3892.36 1773.79 3892.36 1773.79 3898.26 1770.74 3921.85 1760.08 3927.75 1755.52 3931.36 1752.72 3925.94 1750.11 3927.75 1746.38 3930.7 1740.29 3942.49 1723.55 3945.44 1718.98 3945.44 1718.98 3945.44 1718.98 3945.44 1718.98 3951.34 1715.94 3974.93 1703.76 3980.83 1700.71 3980.83 1700.71 3980.83 1700.71 3980.83 1700.71 3988.2 1696.15 4017.69 1677.88 4025.06 1673.31 4025.06 1673.31 4025.06 1673.31 4025.06 1673.31 4028.01 1670.27 4038.33 1661.13 4042.76 1655.04 4047.18 1648.95 4045.71 1642.86 4051.6 1636.77 4057.5 1630.69 4073.72 1621.55 4078.15 1618.51 4078.15 1618.51 4078.15 1618.51 4078.15 1618.51 4081.09 1613.94 4088.47 1595.67 4095.84 1591.1 4103.21 1586.54 4115.01 1594.15 4122.38 1591.1 4129.75 1588.06 4137.13 1575.88 4140.07 1572.84 4140.07 1572.84 4140.07 1572.84 4140.07 1572.84 4145.97 1566.75 4169.56 1542.39 4175.46 1536.3 4175.46 1536.3 4175.46 1536.3 4175.46 1536.3 4178.41 1533.26 4190.21 1522.6 4193.16 1518.03 4194.71 1515.63 4189.27 1511.3 4193.16 1508.9 4200.53 1504.33 4230.02 1493.67 4237.39 1490.63 4237.39 1490.63 4237.39 1490.63 4237.39 1490.63 4241.82 1486.06 4259.51 1469.32 4263.93 1463.23 4266.62 1459.53 4261.25 1456.86 4263.93 1454.09 4268.36 1449.53 4286.05 1440.39 4290.47 1435.83 4292.8 1433.42 4286.59 1429.1 4290.47 1426.69 4297.85 1422.12 4327.34 1411.47 4334.71 1408.42 4334.71 1408.42 4334.71 1408.42 4334.71 1408.42 4339.13 1402.33 4356.83 1377.98 4361.25 1371.89 4361.25 1371.89 4361.25 1371.89 4361.25 1371.89 4365.67 1368.84 4383.37 1358.19 4387.79 1353.62 4390.97 1350.34 4385.67 1347.77 4387.79 1344.49 4390.74 1339.92 4401.06 1329.26 4405.49 1326.22 4407.74 1324.66 4410.57 1328.55 4414.33 1326.22 4421.7 1321.65 4443.82 1304.9 4449.72 1298.82 4452.9 1295.54 4447.34 1292.14 4449.72 1289.68 4454.14 1285.11 4471.84 1274.46 4476.26 1271.41 4476.26 1271.41 4476.26 1271.41 4476.26 1271.41 4480.68 1266.85 4498.38 1248.58 4502.8 1244.01 4502.8 1244.01 4502.8 1244.01 4502.8 1244.01 4510.17 1239.44 4539.66 1222.7 4547.04 1216.61 4550.56 1213.7 4544.92 1209.66 4547.04 1207.47 4551.46 1202.91 4569.16 1192.25 4573.58 1189.21 4573.58 1189.21 4573.58 1189.21 4573.58 1189.21 4575.05 1186.16 4580.95 1173.98 4582.43 1170.94 4582.43 1170.94 4582.43 1170.94 4582.43 1170.94 4580.95 1164.85 4575.05 1140.49 4573.58 1134.4 4573.58 1134.4 4573.58 1134.4 4573.58 1134.4 4569.16 1129.58 4551.46 1110.3 4547.04 1105.48 4547.04 1105.48 4547.04 1105.48 4547.04 1105.48 4539.66 1102.94 4510.17 1092.79 4502.8 1090.25 4502.8 1090.25 4502.8 1090.25 4502.8 1090.25 4498.38 1083.91 4480.68 1058.54 4476.26 1052.2 4476.26 1052.2 4476.26 1052.2 4476.26 1052.2 4471.84 1049.66 4454.14 1042.05 4449.72 1036.97 4445.96 1032.66 4455.99 1026.07 4449.72 1021.75 4442.35 1016.68 4412.86 1009.06 4405.49 1006.53 4405.49 1006.53 4405.49 1006.53 4405.49 1006.53 4402.54 1003.99 4390.74 996.377 4387.79 991.303 4384.89 986.308 4392.14 982.323 4387.79 976.08 4383.37 969.736 4367.15 957.05 4361.25 953.244 4357.53 950.846 4355.19 956.442 4352.4 953.244 4347.98 948.17 4337.66 927.872 4334.71 922.798 4334.71 922.798 4334.71 922.798 4334.71 922.798 4327.34 920.26 4297.85 911.38 4290.47 907.574 4287.09 905.828 4292.5 902.872 4290.47 899.963 4286.05 893.619 4269.83 874.59 4263.93 869.516 4260.58 866.63 4256.76 870.958 4255.09 869.516 4252.14 866.978 4249.19 859.366 4246.24 854.292 4243.34 849.301 4244.64 844.06 4237.39 839.069 4230.02 833.994 4207.9 826.382 4202 823.845 4202 823.845 4202 823.845 4202 823.845 4197.58 817.502 4179.89 792.13 4175.46 785.787 4175.46 785.787 4175.46 785.787 4175.46 785.787 4169.56 783.25 4145.97 773.101 4140.07 770.564 4140.07 770.564 4140.07 770.564 4140.07 770.564 4137.13 765.489 4125.33 745.191 4122.38 740.117 4122.38 740.117 4122.38 740.117 4122.38 740.117 4116.48 736.311 4094.37 721.088 4086.99 717.282 4083.06 715.253 4081.29 719.987 4078.15 717.282 4072.25 712.207 4057.5 691.909 4051.6 686.835 4048.25 683.949 4045.27 688.277 4042.76 686.835 4038.33 684.298 4028.01 674.149 4025.06 671.612 4025.06 671.612 4025.06 671.612 4025.06 671.612 4017.69 665.269 3988.2 639.896 3980.83 633.553 3980.83 633.553 3980.83 633.553 3980.83 633.553 3977.88 629.747 3966.08 615.792 3963.13 610.718 3961.54 607.967 3966.33 605.17 3963.13 603.106 3957.24 599.3 3933.64 590.42 3927.75 587.883 3927.75 587.883 3927.75 587.883 3927.75 587.883 3924.8 582.808 3913 562.511 3910.05 557.436 3910.05 557.436 3910.05 557.436 3910.05 557.436 3902.68 553.63 3873.19 538.407 3865.82 534.601 3865.82 534.601 3865.82 534.601 3865.82 534.601 3861.39 529.527 3845.17 509.229 3839.28 504.154 3835.92 501.269 3832.94 505.597 3830.43 504.154 3826.01 501.617 3815.68 494.005 3812.74 488.931 3810.62 485.286 3818.03 479.175 3812.74 473.708 3805.36 466.096 3775.87 448.335 3768.5 443.261 3768.5 443.261 3768.5 443.261 3768.5 443.261 3764.96 440.724 3750.81 428.037 3747.27 428.037 3743.73 428.037 3752.58 443.261 3747.27 443.261 3741.96 443.261 3720.73 430.574 3715.42 428.037 3715.42 428.037 3715.42 428.037 3715.42 428.037 3710.11 433.112 3688.88 453.409 3683.57 458.484 3683.57 458.484 3683.57 458.484 3683.57 458.484 3678.26 464.827 3657.03 490.2 3651.72 496.543 3651.72 496.543 3651.72 496.543 3651.72 496.543 3648.18 499.08 3635.8 509.229 3630.49 511.766 3626.65 513.6 3623.71 508.098 3619.87 511.766 3614.56 516.84 3602.18 537.138 3598.64 542.213 3598.64 542.213 3598.64 542.213 3598.64 542.213 3591.56 546.019 3563.25 558.705 3556.17 565.048 3550.5 570.128 3560.42 576.207 3556.17 580.271 3550.86 585.346 3529.63 592.957 3524.32 595.495 3524.32 595.495 3524.32 595.495 3524.32 595.495 3520.78 600.569 3508.4 620.867 3503.09 625.941 3499.25 629.609 3495.03 623.19 3492.47 625.941 3488.93 629.747 3485.4 644.97 3481.86 648.777 3479.7 651.096 3475.55 645.683 3471.24 648.777 3464.16 653.851 3446.47 674.149 3439.39 679.223 3435.08 682.316 3432.01 677.677 3428.78 679.223 3423.47 681.76 3411.08 691.91 3407.54 694.447 3407.54 694.447 3407.54 694.447 3407.54 694.447 3402.23 700.79 3381 726.162 3375.69 732.505 3375.69 732.505 3375.69 732.505 3375.69 732.505 3370.38 735.042 3350.92 742.654 3343.84 747.729 3336.77 752.803 3338.54 757.877 3333.23 762.952 3327.92 768.026 3315.53 775.638 3311.99 778.176 3311.99 778.176 3311.99 778.176 3311.99 778.176 3308.46 780.712 3296.07 787.056 3290.76 793.399 3285.45 799.741 3285.45 809.891 3280.15 816.234 3274.84 822.577 3262.45 828.92 3258.91 831.457 3258.91 831.457 3258.91 831.457 3258.91 831.457 3251.83 836.532 3223.52 856.83 3216.45 861.904 3216.45 861.904 3216.45 861.904 3216.45 861.904 3212.91 868.247 3198.75 893.619 3195.21 899.963 3195.21 899.963 3195.21 899.963 3195.21 899.963 3189.91 902.5 3168.67 912.649 3163.36 915.186 3163.36 915.186 3163.36 915.186 3163.36 915.186 3156.29 917.723 3127.98 925.335 3120.9 930.409 3114.71 934.844 3123.99 941.197 3120.9 945.633 3117.36 950.707 3103.2 958.319 3099.67 960.856 3099.67 960.856 3099.67 960.856 3099.67 960.856 3094.36 967.199 3073.13 992.572 3067.82 998.915 3067.82 998.915 3067.82 998.915 3067.82 998.915 3064.28 1001.45 3051.89 1010.33 3046.58 1014.14 3042.6 1016.99 3041.28 1017.94 3035.97 1021.75 3028.89 1026.82 3009.43 1040.78 3004.12 1044.58 3004.12 1044.58 3004.12 1044.58 3004.12 1044.58 3000.58 1050.93 2986.42 1076.3 2982.89 1082.64 2982.89 1082.64 2982.89 1082.64 2982.89 1082.64 2981.12 1085.18 2972.27 1095.33 2972.27 1097.87 2972.27 1100.4 2982.89 1093.3 2982.89 1097.87 2982.89 1102.43 2972.27 1120.7 2972.27 1125.27 2972.27 1129.84 2981.12 1120.7 2982.89 1125.27 2984.66 1129.84 2982.89 1146.58 2982.89 1152.67 2982.89 1157.24 2984.21 1158.38 2982.89 1161.8 2981.12 1166.37 2974.04 1177.03 2972.27 1180.07 2972.27 1180.07 2972.27 1180.07 2972.27 1180.07 2972.27 1184.64 2972.27 1202.91 2972.27 1207.47 2972.27 1207.47 2972.27 1207.47 2972.27 1207.47 2974.04 1212.04 2981.12 1228.79 2982.89 1234.88 2984.16 1239.26 2980.34 1240.72 2982.89 1244.01 2986.42 1248.58 3000.58 1259.23 3004.12 1262.28 3004.12 1262.28 3004.12 1262.28 3004.12 1262.28 3009.43 1266.85 3028.89 1285.11 3035.97 1289.68 3040.43 1292.56 3044.35 1286.8 3046.58 1289.68 3050.12 1294.25 3053.66 1312.52 3057.2 1317.08 3059.88 1320.55 3063.79 1313.62 3067.82 1317.08 3073.13 1321.65 3083.74 1339.92 3089.05 1344.49 3093.07 1347.95 3095.64 1342.18 3099.67 1344.49 3104.97 1347.53 3113.82 1359.71 3120.9 1362.75 3127.98 1365.8 3135.05 1356.66 3142.13 1362.75 3149.21 1368.84 3159.83 1393.2 3163.36 1399.29 3163.36 1399.29 3163.36 1399.29 3163.36 1399.29 3166.9 1403.86 3181.06 1422.12 3184.6 1426.69 3184.6 1426.69 3184.6 1426.69 3184.6 1426.69 3188.14 1429.74 3200.52 1441.92 3205.83 1444.96 3210.43 1447.6 3211.84 1442.32 3216.45 1444.96 3221.75 1448 3230.6 1458.66 3237.68 1463.23 3244.76 1467.79 3251.83 1466.27 3258.91 1472.36 3265.99 1478.45 3276.61 1493.67 3280.15 1499.76 3282.44 1503.71 3277.85 1505.94 3280.15 1508.9 3283.68 1513.47 3296.07 1524.12 3301.38 1527.17 3305.98 1529.81 3307.39 1524.53 3311.99 1527.17 3317.3 1530.21 3329.69 1542.39 3333.23 1545.43 3333.23 1545.43 3333.23 1545.43 3333.23 1545.43 3338.54 1551.52 3358 1575.88 3365.08 1581.97 3369.1 1585.43 3372.68 1580.24 3375.69 1581.97 3381 1585.02 3393.39 1595.67 3396.93 1600.24 3399.23 1603.22 3393.46 1606.39 3396.93 1609.37 3402.23 1613.94 3423.47 1624.6 3428.78 1627.64 3428.78 1627.64 3428.78 1627.64 3428.78 1627.64 3432.31 1633.73 3442.93 1658.09 3450.01 1664.18 3457.09 1670.27 3464.16 1661.13 3471.24 1664.18 3478.32 1667.22 3488.93 1679.4 3492.47 1682.44 3492.47 1682.44 3492.47 1682.44 3492.47 1682.44 3497.78 1687.01 3519.01 1705.28 3524.32 1709.85 3524.32 1709.85 3524.32 1709.85 3524.32 1709.85 3527.86 1714.41 3540.25 1731.16 3545.56 1737.25 3549.97 1742.31 3550.29 1742.59 3556.17 1746.38 3563.25 1750.95 3582.71 1761.61 3588.02 1764.65 3588.02 1764.65 3588.02 1764.65 3588.02 1764.65 3593.33 1767.7 3614.56 1778.35 3619.87 1782.92 3623.33 1785.9 3617.56 1790.07 3619.87 1792.05 3623.41 1795.1 3637.56 1799.66 3641.1 1801.19 3641.1 1801.19 3641.1 1801.19 3641.1 1801.19 3648.18 1804.23 3676.49 1816.41 3683.57 1819.46 3683.57 1819.46 3683.57 1819.46 3683.57 1819.46 3688.88 1819.46 3710.11 1819.46 3715.42 1819.46 3715.42 1819.46 3715.42 1819.46 3715.42 1819.46 3718.96 1819.46 3733.11 1819.46 3736.65 1819.46 3736.65 1819.46 3736.65 1819.46 3736.65 1819.46 3741.96 1819.46 3763.19 1819.46 3768.5 1819.46 3768.5 1819.46 3768.5 1819.46 3768.5 1819.46 3773.81 1819.46 3795.04 1822.5 3800.35 1819.46 3805.66 1816.41 3795.34 1801.19 3800.35 1801.19 3805.36 1801.19 3825.42 1816.41 3830.43 1819.46 3830.43 1819.46 3830.43 1819.46 3830.43 1819.46 3834.85 1816.41 3851.07 1804.23 3856.97 1801.19 3860.9 1799.16 3861.89 1803.22 3865.82 1801.19 3871.72 1798.14 3884.99 1787.49 3892.36 1782.92 3899.73 1778.35 3904.15 1778.35 3910.05 1773.79 3915.95 1769.22 3924.8 1758.56 3927.75 1755.52 3927.75 1755.52 3927.75 1755.52 3927.75 1755.52 3930.7 1749.43 3942.49 1725.07 3945.44 1718.98 3945.44 1718.98 3945.44 1718.98 3945.44 1718.98 3951.34 1715.94 3974.93 1703.76 3980.83 1700.71 3980.83 1700.71 3980.83 1700.71 3980.83 1700.71 3988.2 1696.15 4017.69 1677.88 4025.06 1673.31 4025.06 1673.31 4025.06 1673.31 4025.06 1673.31 4028.01 1667.22 4039.81 1642.86 4042.76 1636.77 4042.76 1636.77 4042.76 1636.77 4042.76 1636.77 4048.66 1633.73 4072.25 1621.55 4078.15 1618.51 4078.15 1618.51 4078.15 1618.51 4078.15 1618.51 4081.09 1613.94 4092.89 1595.67 4095.84 1591.1 4095.84 1591.1 4095.84 1591.1 4095.84 1591.1 4103.21 1588.06 4132.7 1575.88 4140.07 1572.84 4140.07 1572.84 4140.07 1572.84 4140.07 1572.84 4145.97 1566.75 4169.56 1542.39 4175.46 1536.3 4175.46 1536.3 4175.46 1536.3 4175.46 1536.3 4178.41 1533.26 4188.73 1522.6 4193.16 1518.03 4196.4 1514.68 4196.6 1512.25 4202 1508.9 4209.38 1504.33 4231.49 1493.67 4237.39 1490.63 4237.39 1490.63 4237.39 1490.63 4237.39 1490.63 4240.34 1484.54 4250.66 1460.18 4255.09 1454.09 4257.69 1450.51 4260.47 1455.88 4263.93 1454.09 4269.83 1451.05 4286.05 1438.87 4290.47 1435.83 4290.47 1435.83 4290.47 1435.83 4290.47 1435.83 4297.85 1431.26 4327.34 1412.99 4334.71 1408.42 4334.71 1408.42 4334.71 1408.42 4334.71 1408.42 4337.66 1403.86 4349.45 1387.11 4352.4 1381.02 4354.21 1377.29 4348.79 1374.68 4352.4 1371.89 4358.3 1367.32 4381.89 1356.66 4387.79 1353.62 4387.79 1353.62 4387.79 1353.62 4387.79 1353.62 4390.74 1350.57 4402.54 1339.92 4405.49 1335.35 4406.89 1333.17 4401.96 1329.13 4405.49 1326.22 4412.86 1320.13 4442.35 1303.38 4449.72 1298.82 4449.72 1298.82 4449.72 1298.82 4449.72 1298.82 4454.14 1294.25 4471.84 1275.98 4476.26 1271.41 4476.26 1271.41 4476.26 1271.41 4476.26 1271.41 4480.68 1268.37 4498.38 1256.19 4502.8 1253.15 4502.8 1253.15 4502.8 1253.15 4502.8 1253.15 4505.75 1247.06 4513.12 1222.7 4520.5 1216.61 4527.87 1210.52 4538.19 1219.65 4547.04 1216.61 4555.88 1213.56 4569.16 1202.91 4573.58 1198.34 4576.76 1195.06 4572.52 1192.49 4573.58 1189.21 4575.05 1184.64 4580.95 1175.51 4582.43 1170.94 4583.5 1167.61 4583.5 1166.24 4582.43 1161.8 4580.95 1155.72 4575.05 1138.97 4573.58 1134.4 4573.58 1134.4 4573.58 1134.4 4573.58 1134.4 4569.16 1129.58 4551.46 1110.3 4547.04 1105.48 4547.04 1105.48 4547.04 1105.48 4547.04 1105.48 4539.66 1102.94 4510.17 1092.79 4502.8 1090.25 4502.8 1090.25 4502.8 1090.25 4502.8 1090.25 4498.38 1083.91 4480.68 1058.54 4476.26 1052.2 4476.26 1052.2 4476.26 1052.2 4476.26 1052.2 4471.84 1049.66 4454.14 1039.51 4449.72 1036.97 4449.72 1036.97 4449.72 1036.97 4449.72 1036.97 4443.82 1031.9 4420.23 1011.6 4414.33 1006.53 4414.33 1006.53 4414.33 1006.53 4414.33 1006.53 4409.91 1003.99 4392.21 996.377 4387.79 991.303 4383.44 986.308 4392.14 982.323 4387.79 976.08 4383.37 969.736 4367.15 957.05 4361.25 953.244 4357.53 950.846 4355.19 956.442 4352.4 953.244 4347.98 948.17 4337.66 927.872 4334.71 922.798 4334.71 922.798 4334.71 922.798 4334.71 922.798 4327.34 920.26 4297.85 911.38 4290.47 907.574 4287.09 905.828 4292.5 902.872 4290.47 899.963 4286.05 893.619 4268.36 874.59 4263.93 869.516 4263.93 869.516 4263.93 869.516 4263.93 869.516 4260.98 866.978 4250.66 859.366 4246.24 854.292 4241.89 849.301 4244.64 844.06 4237.39 839.069 4230.02 833.994 4207.9 826.382 4202 823.845 4202 823.845 4202 823.845 4202 823.845 4197.58 817.502 4179.89 792.13 4175.46 785.787 4175.46 785.787 4175.46 785.787 4175.46 785.787 4171.04 783.25 4153.34 773.101 4148.92 770.564 4148.92 770.564 4148.92 770.564 4148.92 770.564 4144.5 765.489 4126.8 745.191 4122.38 740.117 4122.38 740.117 4122.38 740.117 4122.38 740.117 4116.48 736.311 4094.37 723.625 4086.99 717.282 4080.32 711.54 4083.48 706.652 4078.15 702.058 4072.25 696.984 4056.03 689.372 4051.6 686.835 4051.6 686.835 4051.6 686.835 4051.6 686.835 4048.66 684.298 4038.33 676.686 4033.91 671.612 4029.91 667.018 4031.74 662.13 4025.06 656.388 4017.69 650.045 3997.05 637.359 3989.68 633.553 3985.74 631.524 3983.19 635.582 3980.83 633.553 3976.41 629.747 3966.08 615.792 3963.13 610.718 3961.22 607.428 3966 605.574 3963.13 603.106 3958.71 599.3 3942.49 590.42 3936.59 587.883 3932.72 586.216 3930.65 591.217 3927.75 587.883 3923.32 582.808 3913 562.511 3910.05 557.436 3910.05 557.436 3910.05 557.436 3910.05 557.436 3902.68 553.63 3873.19 538.407 3865.82 534.601 3865.82 534.601 3865.82 534.601 3865.82 534.601 3861.39 530.795 3845.17 516.84 3839.28 511.766 3834.85 507.96 3833.75 507.009 3830.43 504.154 3826.01 500.348 3815.68 494.005 3812.74 488.931 3810.1 484.399 3816.16 480.505 3812.74 473.708 3808.9 466.096 3797.11 448.335 3789.73 443.261 3782.36 438.186 3775.58 445.798 3768.5 443.261 3761.42 440.724 3750.81 428.037 3747.27 428.037 3743.73 428.037 3752.58 443.261 3747.27 443.261 3741.96 443.261 3720.73 430.574 3715.42 428.037 3715.42 428.037 3715.42 428.037 3715.42 428.037 3710.11 433.112 3688.88 453.409 3683.57 458.484 3683.57 458.484 3683.57 458.484 3683.57 458.484 3678.26 464.827 3657.03 490.2 3651.72 496.543 3651.72 496.543 3651.72 496.543 3651.72 496.543 3646.41 499.08 3625.18 509.229 3619.87 511.766 3619.87 511.766 3619.87 511.766 3619.87 511.766 3616.33 516.84 3602.18 537.138 3598.64 542.213 3598.64 542.213 3598.64 542.213 3598.64 542.213 3591.56 546.019 3563.25 558.705 3556.17 565.048 3550.5 570.128 3560.42 576.207 3556.17 580.271 3550.86 585.346 3529.63 592.957 3524.32 595.495 3524.32 595.495 3524.32 595.495 3524.32 595.495 3520.78 600.569 3506.63 620.867 3503.09 625.941 3503.09 625.941 3503.09 625.941 3503.09 625.941 3499.55 629.747 3487.17 644.97 3481.86 648.777 3478.35 651.29 3475.92 646.262 3471.24 648.777 3464.16 652.582 3444.7 666.537 3439.39 671.612 3436.64 674.241 3442.14 677.251 3439.39 679.223 3434.08 683.029 3412.85 690.641 3407.54 694.447 3405.1 696.198 3409.98 699.14 3407.54 702.058 3402.23 708.401 3381 727.431 3375.69 732.505 3375.69 732.505 3375.69 732.505 3375.69 732.505 3370.38 735.042 3349.15 742.654 3343.84 747.729 3338.54 752.803 3349.15 757.877 3343.84 762.952 3338.54 768.026 3317.3 775.638 3311.99 778.176 3311.99 778.176 3311.99 778.176 3311.99 778.176 3308.46 780.712 3296.07 790.861 3290.76 793.399 3287.35 795.027 3283.55 789.328 3280.15 793.399 3274.84 799.742 3262.45 825.114 3258.91 831.457 3258.91 831.457 3258.91 831.457 3258.91 831.457 3251.83 836.532 3223.52 856.83 3216.45 861.904 3216.45 861.904 3216.45 861.904 3216.45 861.904 3212.91 868.247 3200.52 893.619 3195.21 899.963 3191.81 904.033 3188 898.334 3184.6 899.963 3179.29 902.5 3166.9 912.649 3163.36 915.186 3163.36 915.186 3163.36 915.186 3163.36 915.186 3156.29 920.26 3127.98 940.558 3120.9 945.633 3120.9 945.633 3120.9 945.633 3120.9 945.633 3117.36 948.17 3104.97 958.319 3099.67 960.856 3096.26 962.484 3092.46 956.785 3089.05 960.856 3083.74 967.199 3071.36 992.572 3067.82 998.915 3067.82 998.915 3067.82 998.915 3067.82 998.915 3064.28 1001.45 3051.89 1010.33 3046.58 1014.14 3042.6 1016.99 3041.28 1017.94 3035.97 1021.75 3028.89 1026.82 3009.43 1040.78 3004.12 1044.58 3004.12 1044.58 3004.12 1044.58 3004.12 1044.58 3000.58 1048.39 2986.42 1061.08 2982.89 1067.42 2979.35 1073.76 2984.66 1077.57 2982.89 1082.64 2981.12 1087.72 2974.04 1095.33 2972.27 1097.87 2972.27 1097.87 2972.27 1097.87 2972.27 1097.87 2974.04 1102.43 2981.12 1120.7 2982.89 1125.27 2982.89 1125.27 2982.89 1125.27 2982.89 1125.27 2981.12 1129.84 2974.04 1146.58 2972.27 1152.67 2970.99 1157.06 2970.99 1158.52 2972.27 1161.8 2974.04 1166.37 2982.89 1177.03 2982.89 1180.07 2982.89 1183.12 2974.04 1177.03 2972.27 1180.07 2970.5 1183.12 2972.27 1195.3 2972.27 1198.34 2972.27 1198.34 2972.27 1198.34 2972.27 1198.34 2972.27 1204.43 2970.5 1227.27 2972.27 1234.88 2973.85 1241.7 2978.13 1239.92 2982.89 1244.01 2988.19 1248.58 3000.58 1259.23 3004.12 1262.28 3004.12 1262.28 3004.12 1262.28 3004.12 1262.28 3009.43 1265.32 3030.66 1275.98 3035.97 1280.55 3038.97 1283.13 3032.97 1286.24 3035.97 1289.68 3041.28 1295.77 3062.51 1312.52 3067.82 1317.08 3067.82 1317.08 3067.82 1317.08 3067.82 1317.08 3071.36 1320.13 3083.74 1330.78 3089.05 1335.35 3094.36 1339.92 3094.36 1339.92 3099.67 1344.49 3104.97 1349.05 3117.36 1359.71 3120.9 1362.75 3120.9 1362.75 3120.9 1362.75 3120.9 1362.75 3126.21 1368.84 3145.67 1393.2 3152.75 1399.29 3156.77 1402.75 3160.35 1397.56 3163.36 1399.29 3168.67 1402.33 3181.06 1414.51 3184.6 1417.56 3184.6 1417.56 3184.6 1417.56 3184.6 1417.56 3189.91 1422.12 3211.14 1440.39 3216.45 1444.96 3216.45 1444.96 3216.45 1444.96 3216.45 1444.96 3219.99 1449.53 3234.14 1467.79 3237.68 1472.36 3237.68 1472.36 3237.68 1472.36 3237.68 1472.36 3244.76 1476.93 3273.07 1495.2 3280.15 1499.76 3280.15 1499.76 3280.15 1499.76 3280.15 1499.76 3285.45 1504.33 3306.69 1522.6 3311.99 1527.17 3311.99 1527.17 3311.99 1527.17 3311.99 1527.17 3315.53 1530.21 3329.69 1542.39 3333.23 1545.43 3333.23 1545.43 3333.23 1545.43 3333.23 1545.43 3338.54 1551.52 3358 1575.88 3365.08 1581.97 3369.1 1585.43 3372.68 1580.24 3375.69 1581.97 3381 1585.02 3393.39 1595.67 3396.93 1600.24 3399.23 1603.22 3393.46 1606.39 3396.93 1609.37 3402.23 1613.94 3423.47 1624.6 3428.78 1627.64 3428.78 1627.64 3428.78 1627.64 3428.78 1627.64 3432.31 1633.73 3442.93 1658.09 3450.01 1664.18 3457.09 1670.27 3464.16 1661.13 3471.24 1664.18 3478.32 1667.22 3488.93 1679.4 3492.47 1682.44 3492.47 1682.44 3492.47 1682.44 3492.47 1682.44 3496.01 1687.01 3510.17 1705.28 3513.71 1709.85 3513.71 1709.85 3513.71 1709.85 3513.71 1709.85 3519.01 1714.41 3540.25 1732.68 3545.56 1737.25 3545.56 1737.25 3545.56 1737.25 3545.56 1737.25 3552.63 1741.82 3580.94 1760.08 3588.02 1764.65 3588.02 1764.65 3588.02 1764.65 3588.02 1764.65 3591.56 1767.7 3605.72 1779.87 3609.25 1782.92 3609.25 1782.92 3609.25 1782.92 3609.25 1782.92 3614.56 1789.01 3635.79 1813.37 3641.1 1819.46 3641.1 1819.46 3641.1 1819.46 3641.1 1819.46 3644.64 1819.46 3655.26 1819.46 3662.34 1819.46 3669.41 1819.46 3676.49 1819.46 3683.57 1819.46 3690.65 1819.46 3701.26 1819.46 3704.8 1819.46 3704.8 1819.46 3704.8 1819.46 3704.8 1819.46 3710.11 1819.46 3731.34 1819.46 3736.65 1819.46 3736.65 1819.46 3736.65 1819.46 3736.65 1819.46 3740.19 1819.46 3752.58 1819.46 3757.88 1819.46 3761.54 1819.46 3763.62 1821.55 3768.5 1819.46 3775.58 1816.41 3795.04 1801.19 3800.35 1801.19 3805.66 1801.19 3795.34 1816.41 3800.35 1819.46 3805.36 1822.5 3825.42 1819.46 3830.43 1819.46 3830.43 1819.46 3830.43 1819.46 3830.43 1819.46 3834.85 1816.41 3851.07 1804.23 3856.97 1801.19 3860.9 1799.16 3861.89 1803.22 3865.82 1801.19 3871.72 1798.14 3887.94 1785.96 3892.36 1782.92 3892.36 1782.92 3892.36 1782.92 3892.36 1782.92 3896.78 1778.35 3913 1760.08 3918.9 1755.52 3922.37 1752.83 3925.15 1759.1 3927.75 1755.52 3932.17 1749.43 3942.49 1725.07 3945.44 1718.98 3945.44 1718.98 3945.44 1718.98 3945.44 1718.98 3951.34 1715.94 3974.93 1703.76 3980.83 1700.71 3980.83 1700.71 3980.83 1700.71 3980.83 1700.71 3986.73 1696.15 4008.84 1677.88 4016.22 1673.31 4019.98 1670.98 4022.81 1674.86 4025.06 1673.31 4029.49 1670.27 4039.81 1661.13 4042.76 1655.04 4045.71 1648.95 4038.33 1642.86 4042.76 1636.77 4047.18 1630.69 4063.4 1621.55 4069.3 1618.51 4073.23 1616.48 4075.2 1620.54 4078.15 1618.51 4082.57 1615.46 4092.89 1604.81 4095.84 1600.24 4097.39 1597.83 4091.96 1593.51 4095.84 1591.1 4103.21 1586.54 4132.7 1575.88 4140.07 1572.84 4140.07 1572.84 4140.07 1572.84 4140.07 1572.84 4145.97 1566.75 4169.56 1542.39 4175.46 1536.3 4175.46 1536.3 4175.46 1536.3 4175.46 1536.3 4178.41 1531.73 4190.21 1513.47 4193.16 1508.9 4193.16 1508.9 4193.16 1508.9 4193.16 1508.9 4200.53 1505.85 4230.02 1493.67 4237.39 1490.63 4237.39 1490.63 4237.39 1490.63 4237.39 1490.63 4240.34 1484.54 4250.66 1460.18 4255.09 1454.09 4257.69 1450.51 4260.47 1455.88 4263.93 1454.09 4269.83 1451.05 4286.05 1438.87 4290.47 1435.83 4290.47 1435.83 4290.47 1435.83 4290.47 1435.83 4293.42 1431.26 4300.8 1412.99 4308.17 1408.42 4315.54 1403.86 4327.34 1412.99 4334.71 1408.42 4342.08 1403.86 4347.98 1385.59 4352.4 1381.02 4355.48 1377.84 4359.2 1384.2 4361.25 1381.02 4364.2 1376.45 4365.67 1358.19 4370.1 1353.62 4374.52 1349.05 4381.89 1358.19 4387.79 1353.62 4393.69 1349.05 4401.06 1330.78 4405.49 1326.22 4407.74 1323.89 4410.57 1328.55 4414.33 1326.22 4421.7 1321.65 4443.82 1303.38 4449.72 1298.82 4449.72 1298.82 4449.72 1298.82 4449.72 1298.82 4454.14 1294.25 4471.84 1275.98 4476.26 1271.41 4476.26 1271.41 4476.26 1271.41 4476.26 1271.41 4480.68 1266.85 4498.38 1248.58 4502.8 1244.01 4502.8 1244.01 4502.8 1244.01 4502.8 1244.01 4510.17 1239.44 4539.66 1221.18 4547.04 1216.61 4547.04 1216.61 4547.04 1216.61 4547.04 1216.61 4551.46 1213.56 4567.68 1202.91 4573.58 1198.34 4578.61 1194.45 4582.43 1193.1 4582.43 1189.21 4582.43 1184.64 4573.58 1173.98 4573.58 1170.94 4573.58 1168.73 4582.43 1175.36 4582.43 1170.94 4582.43 1164.85 4575.05 1140.49 4573.58 1134.4 4573.58 1134.4 4573.58 1134.4 4573.58 1134.4 4570.63 1131.36 4560.31 1120.96 4555.88 1116.13 4552.3 1112.23 4553.01 1108.98 4547.04 1105.48 4539.66 1101.17 4517.55 1092.79 4511.65 1090.25 4511.65 1090.25 4511.65 1090.25 4511.65 1090.25 4505.75 1083.91 4482.16 1058.54 4476.26 1052.2 4476.26 1052.2 4476.26 1052.2 4476.26 1052.2 4471.84 1049.66 4454.14 1039.51 4449.72 1036.97 4449.72 1036.97 4449.72 1036.97 4449.72 1036.97 4443.82 1031.9 4421.7 1011.6 4414.33 1006.53 4410.69 1004.02 4407.67 1007.78 4405.49 1006.53 4401.06 1003.99 4390.74 993.84 4387.79 991.303 4387.79 991.303 4387.79 991.303 4387.79 991.303 4383.37 984.96 4365.67 959.587 4361.25 953.244 4361.25 953.244 4361.25 953.244 4361.25 953.244 4356.83 949.438 4339.13 935.484 4334.71 930.409 4332.68 928.082 4338.09 924.543 4334.71 922.798 4327.34 918.991 4297.85 910.111 4290.47 907.574 4290.47 907.574 4290.47 907.574 4290.47 907.574 4286.05 901.231 4268.36 875.859 4263.93 869.516 4263.93 869.516 4263.93 869.516 4263.93 869.516 4260.98 866.978 4250.66 856.829 4246.24 854.292 4244.05 853.038 4241.04 856.8 4237.39 854.292 4230.02 849.218 4207.9 828.92 4202 823.845 4202 823.845 4202 823.845 4202 823.845 4197.58 818.771 4179.89 799.741 4175.46 793.399 4173.29 790.277 4177.64 787.66 4175.46 785.787 4171.04 781.981 4154.82 773.101 4148.92 770.564 4144.86 768.815 4143.12 773.185 4140.07 770.564 4135.65 766.758 4125.33 752.803 4122.38 747.729 4121.13 745.571 4125.52 742.275 4122.38 740.117 4115.01 735.042 4085.52 721.088 4078.15 717.282 4078.15 717.282 4078.15 717.282 4078.15 717.282 4073.72 712.207 4056.03 691.909 4051.6 686.835 4051.6 686.835 4051.6 686.835 4051.6 686.835 4048.66 684.298 4038.33 674.149 4033.91 671.612 4031.9 670.458 4028.42 674.496 4025.06 671.612 4017.69 665.269 3997.05 639.896 3989.68 633.553 3986.32 630.668 3982.84 635.284 3980.83 633.553 3976.41 629.747 3966.08 615.792 3963.13 610.718 3961.22 607.428 3966 605.574 3963.13 603.106 3958.71 599.3 3941.02 590.42 3936.59 587.883 3936.59 587.883 3936.59 587.883 3936.59 587.883 3932.17 584.077 3914.48 570.122 3910.05 565.048 3908.17 562.89 3913.19 559.594 3910.05 557.436 3902.68 552.362 3873.19 538.407 3865.82 534.601 3865.82 534.601 3865.82 534.601 3865.82 534.601 3861.39 529.527 3845.17 509.229 3839.28 504.154 3835.92 501.269 3832.94 505.597 3830.43 504.154 3826.01 501.617 3815.68 491.468 3812.74 488.931 3812.74 488.931 3812.74 488.931 3812.74 488.931 3808.9 482.588 3797.11 458.484 3789.73 450.873 3782.36 443.261 3775.58 447.067 3768.5 443.261 3761.42 439.455 3750.81 430.574 3747.27 428.037 3747.27 428.037 3747.27 428.037 3747.27 428.037 3743.73 430.574 3729.57 443.261 3726.03 443.261 3722.5 443.261 3731.34 425.5 3726.03 428.037 3720.73 430.574 3701.26 453.409 3694.19 458.484 3689.87 461.577 3687.88 455.391 3683.57 458.484 3676.49 463.558 3657.03 482.588 3651.72 488.931 3649.28 491.85 3653.35 494.791 3651.72 496.543 3648.18 500.349 3635.8 509.229 3630.49 511.766 3626.17 513.828 3624.18 508.673 3619.87 511.766 3614.56 515.572 3602.18 529.527 3598.64 534.601 3597.09 536.818 3601.73 539.995 3598.64 542.213 3591.56 547.287 3563.25 561.242 3556.17 565.048 3556.17 565.048 3556.17 565.048 3556.17 565.048 3552.63 570.122 3540.25 590.42 3534.94 595.495 3531.1 599.163 3528.16 593.661 3524.32 595.495 3519.01 598.032 3508.4 605.644 3503.09 610.718 3497.78 615.792 3496.01 619.598 3492.47 625.941 3488.93 632.284 3485.4 644.97 3481.86 648.777 3479.52 651.29 3475.92 646.262 3471.24 648.777 3464.16 652.582 3444.7 666.537 3439.39 671.612 3436.64 674.241 3442.14 677.251 3439.39 679.223 3434.08 683.029 3412.85 691.91 3407.54 694.447 3407.54 694.447 3407.54 694.447 3407.54 694.447 3404 700.79 3391.62 726.162 3386.31 732.505 3382.9 736.576 3380.24 730.877 3375.69 732.505 3368.62 735.042 3349.15 742.654 3343.84 747.729 3338.54 752.803 3349.15 757.877 3343.84 762.952 3338.54 768.026 3317.3 775.638 3311.99 778.176 3311.99 778.176 3311.99 778.176 3311.99 778.176 3308.46 780.712 3294.3 790.861 3290.76 793.399 3290.76 793.399 3290.76 793.399 3290.76 793.399 3285.45 799.742 3264.22 825.114 3258.91 831.457 3258.91 831.457 3258.91 831.457 3258.91 831.457 3251.83 836.532 3223.52 856.83 3216.45 861.904 3216.45 861.904 3216.45 861.904 3216.45 861.904 3212.91 864.441 3200.52 874.59 3195.21 877.127 3191.38 878.961 3188.43 873.459 3184.6 877.127 3179.29 882.202 3166.9 901.231 3163.36 907.574 3161.51 910.898 3165.22 913.192 3163.36 915.186 3159.83 918.992 3145.67 927.872 3142.13 930.409 3142.13 930.409 3142.13 930.409 3142.13 930.409 3135.05 935.484 3108.51 955.781 3099.67 960.856 3095.06 963.497 3091.81 957.555 3089.05 960.856 3083.74 967.199 3071.36 992.572 3067.82 998.915 3067.82 998.915 3067.82 998.915 3067.82 998.915 3064.28 1001.45 3050.12 1010.33 3046.58 1014.14 3044.75 1016.11 3049.33 1019.12 3046.58 1021.75 3041.28 1026.82 3021.81 1040.78 3014.73 1044.58 3010.19 1047.03 3007.53 1040.51 3004.12 1044.58 2998.81 1050.93 2986.42 1076.3 2982.89 1082.64 2982.89 1082.64 2982.89 1082.64 2982.89 1082.64 2981.12 1085.18 2974.04 1094.06 2972.27 1097.87 2970.89 1100.82 2970.89 1101.93 2972.27 1105.48 2974.04 1110.05 2981.12 1121.97 2982.89 1125.27 2982.89 1125.27 2982.89 1125.27 2982.89 1125.27 2982.89 1129.84 2984.66 1146.58 2982.89 1152.67 2981.12 1158.76 2972.27 1157.24 2972.27 1161.8 2972.27 1166.37 2981.12 1177.03 2982.89 1180.07 2982.89 1180.07 2982.89 1180.07 2982.89 1180.07 2981.12 1184.64 2974.04 1202.91 2972.27 1207.47 2972.27 1207.47 2972.27 1207.47 2972.27 1207.47 2974.04 1212.04 2981.12 1230.31 2982.89 1234.88 2982.89 1234.88 2982.89 1234.88 2982.89 1234.88 2986.42 1239.44 3000.58 1257.71 3004.12 1262.28 3004.12 1262.28 3004.12 1262.28 3004.12 1262.28 3009.43 1266.85 3030.66 1285.11 3035.97 1289.68 3035.97 1289.68 3035.97 1289.68 3035.97 1289.68 3041.28 1294.25 3062.51 1312.52 3067.82 1317.08 3067.82 1317.08 3067.82 1317.08 3067.82 1317.08 3071.36 1321.65 3085.51 1339.92 3089.05 1344.49 3089.05 1344.49 3089.05 1344.49 3089.05 1344.49 3094.36 1347.53 3115.59 1359.71 3120.9 1362.75 3120.9 1362.75 3120.9 1362.75 3120.9 1362.75 3126.21 1368.84 3147.44 1393.2 3152.75 1399.29 3152.75 1399.29 3152.75 1399.29 3152.75 1399.29 3158.06 1402.33 3179.29 1414.51 3184.6 1417.56 3184.6 1417.56 3184.6 1417.56 3184.6 1417.56 3188.14 1422.12 3200.52 1440.39 3205.83 1444.96 3209.85 1448.42 3212.42 1442.65 3216.45 1444.96 3221.75 1448 3230.6 1458.66 3237.68 1463.23 3244.76 1467.79 3251.83 1466.27 3258.91 1472.36 3265.99 1478.45 3276.61 1495.2 3280.15 1499.76 3280.15 1499.76 3280.15 1499.76 3280.15 1499.76 3283.68 1504.33 3296.07 1522.6 3301.38 1527.17 3305.4 1530.63 3307.97 1524.86 3311.99 1527.17 3317.3 1530.21 3329.69 1542.39 3333.23 1545.43 3333.23 1545.43 3333.23 1545.43 3333.23 1545.43 3338.54 1550 3358 1566.75 3365.08 1572.84 3370.38 1577.4 3371.71 1578.55 3375.69 1581.97 3381 1586.54 3393.39 1597.19 3396.93 1600.24 3396.93 1600.24 3396.93 1600.24 3396.93 1600.24 3402.23 1604.81 3423.47 1623.07 3428.78 1627.64 3428.78 1627.64 3428.78 1627.64 3428.78 1627.64 3432.31 1632.21 3446.47 1648.95 3450.01 1655.04 3451.93 1658.34 3446.17 1661.7 3450.01 1664.18 3457.09 1668.74 3485.4 1679.4 3492.47 1682.44 3492.47 1682.44 3492.47 1682.44 3492.47 1682.44 3496.01 1685.49 3508.4 1696.15 3513.71 1700.71 3518.31 1704.67 3519.72 1704.57 3524.32 1709.85 3529.63 1715.94 3542.02 1732.68 3545.56 1737.25 3545.56 1737.25 3545.56 1737.25 3545.56 1737.25 3552.63 1741.82 3580.94 1760.08 3588.02 1764.65 3588.02 1764.65 3588.02 1764.65 3588.02 1764.65 3593.33 1767.7 3614.56 1779.87 3619.87 1782.92 3619.87 1782.92 3619.87 1782.92 3619.87 1782.92 3623.41 1789.01 3637.56 1813.37 3641.1 1819.46 3641.1 1819.46 3641.1 1819.46 3641.1 1819.46 3644.64 1819.46 3655.26 1819.46 3662.34 1819.46 3669.41 1819.46 3676.49 1819.46 3683.57 1819.46 3690.65 1819.46 3699.49 1819.46 3704.8 1819.46 3709.41 1819.46 3710.81 1822.1 3715.42 1819.46 3720.73 1816.41 3733.11 1801.19 3736.65 1801.19 3740.19 1801.19 3733.11 1816.41 3736.65 1819.46 3740.19 1822.5 3752.58 1819.46 3757.88 1819.46 3761.54 1819.46 3763.62 1821.55 3768.5 1819.46 3775.58 1816.41 3795.04 1801.19 3800.35 1801.19 3805.66 1801.19 3796.81 1816.41 3800.35 1819.46 3803.89 1822.5 3816.57 1819.46 3821.58 1819.46 3824.92 1819.46 3826.5 1821.48 3830.43 1819.46 3836.33 1816.41 3851.07 1804.23 3856.97 1801.19 3860.9 1799.16 3861.89 1803.22 3865.82 1801.19 3871.72 1798.14 3887.94 1787.49 3892.36 1782.92 3895.54 1779.64 3889.18 1777.07 3892.36 1773.79 3896.78 1769.22 3913 1758.56 3918.9 1755.52 3922.83 1753.49 3924.8 1757.55 3927.75 1755.52 3932.17 1752.47 3942.49 1743.34 3945.44 1737.25 3948.39 1731.16 3939.54 1725.07 3945.44 1718.98 3951.34 1712.89 3974.93 1703.76 3980.83 1700.71 3980.83 1700.71 3980.83 1700.71 3980.83 1700.71 3986.73 1696.15 4010.32 1677.88 4016.22 1673.31 4016.22 1673.31 4016.22 1673.31 4016.22 1673.31 4020.64 1670.27 4038.33 1661.13 4042.76 1655.04 4047.18 1648.95 4038.33 1642.86 4042.76 1636.77 4047.18 1630.69 4063.4 1621.55 4069.3 1618.51 4073.23 1616.48 4075.2 1620.54 4078.15 1618.51 4082.57 1615.46 4092.89 1604.81 4095.84 1600.24 4097.39 1597.83 4091.96 1593.51 4095.84 1591.1 4103.21 1586.54 4132.7 1575.88 4140.07 1572.84 4140.07 1572.84 4140.07 1572.84 4140.07 1572.84 4143.02 1566.75 4151.87 1542.39 4157.77 1536.3 4163.67 1530.21 4169.56 1539.34 4175.46 1536.3 4181.36 1533.26 4190.21 1521.08 4193.16 1518.03 4193.16 1518.03 4193.16 1518.03 4193.16 1518.03 4199.05 1514.99 4221.17 1504.33 4228.54 1499.76 4233.95 1496.42 4234.15 1495.09 4237.39 1490.63 4241.82 1484.54 4252.14 1467.79 4255.09 1463.23 4255.09 1463.23 4255.09 1463.23 4255.09 1463.23 4260.98 1458.66 4284.58 1440.39 4290.47 1435.83 4290.47 1435.83 4290.47 1435.83 4290.47 1435.83 4293.42 1431.26 4305.22 1412.99 4308.17 1408.42 4308.17 1408.42 4308.17 1408.42 4308.17 1408.42 4315.54 1403.86 4345.03 1385.59 4352.4 1381.02 4352.4 1381.02 4352.4 1381.02 4352.4 1381.02 4355.35 1376.45 4364.2 1358.19 4370.1 1353.62 4376 1349.05 4381.89 1356.66 4387.79 1353.62 4393.69 1350.57 4402.54 1338.4 4405.49 1335.35 4405.49 1335.35 4405.49 1335.35 4405.49 1335.35 4412.86 1329.26 4442.35 1304.9 4449.72 1298.82 4449.72 1298.82 4449.72 1298.82 4449.72 1298.82 4454.14 1294.25 4471.84 1275.98 4476.26 1271.41 4476.26 1271.41 4476.26 1271.41 4476.26 1271.41 4480.68 1268.37 4498.38 1257.71 4502.8 1253.15 4504.92 1250.96 4499.28 1246.92 4502.8 1244.01 4510.17 1237.92 4539.66 1221.18 4547.04 1216.61 4547.04 1216.61 4547.04 1216.61 4547.04 1216.61 4551.46 1213.56 4569.16 1202.91 4573.58 1198.34 4576.76 1195.06 4572.52 1192.49 4573.58 1189.21 4575.05 1184.64 4580.95 1173.98 4582.43 1170.94 4582.43 1170.94 4582.43 1170.94 4582.43 1170.94 4580.95 1164.85 4575.05 1140.49 4573.58 1134.4 4573.58 1134.4 4573.58 1134.4 4573.58 1134.4 4569.16 1131.36 4551.46 1120.96 4547.04 1116.13 4543.81 1112.62 4551.34 1108.62 4547.04 1105.48 4541.14 1101.17 4519.02 1092.79 4511.65 1090.25 4507.47 1088.82 4506.15 1092.41 4502.8 1090.25 4496.9 1086.45 4480.68 1071.23 4476.26 1067.42 4476.26 1067.42 4476.26 1067.42 4476.26 1067.42 4471.84 1062.35 4454.14 1042.05 4449.72 1036.97 4449.72 1036.97 4449.72 1036.97 4449.72 1036.97 4443.82 1031.9 4420.23 1011.6 4414.33 1006.53 4414.33 1006.53 4414.33 1006.53 4414.33 1006.53 4409.91 1003.99 4392.21 993.84 4387.79 991.303 4387.79 991.303 4387.79 991.303 4387.79 991.303 4383.37 984.96 4365.67 959.587 4361.25 953.244 4361.25 953.244 4361.25 953.244 4361.25 953.244 4356.83 949.438 4339.13 935.484 4334.71 930.409 4332.31 927.658 4337.91 924.861 4334.71 922.798 4328.81 918.991 4305.22 910.111 4299.32 907.574 4299.32 907.574 4299.32 907.574 4299.32 907.574 4293.42 901.231 4269.83 875.859 4263.93 869.516 4263.93 869.516 4263.93 869.516 4263.93 869.516 4260.98 866.978 4249.19 859.366 4246.24 854.292 4243.73 849.977 4252.51 843.384 4246.24 839.069 4238.87 833.994 4209.38 826.382 4202 823.845 4202 823.845 4202 823.845 4202 823.845 4199.05 818.771 4188.73 799.741 4184.31 793.399 4180.97 788.612 4179.91 788.659 4175.46 785.787 4169.56 781.981 4153.34 773.101 4148.92 770.564 4148.92 770.564 4148.92 770.564 4148.92 770.564 4144.5 765.489 4126.8 745.191 4122.38 740.117 4122.38 740.117 4122.38 740.117 4122.38 740.117 4116.48 736.311 4092.89 723.625 4086.99 717.282 4081.81 711.708 4092.18 706.518 4086.99 702.058 4081.09 696.984 4057.5 689.372 4051.6 686.835 4051.6 686.835 4051.6 686.835 4051.6 686.835 4048.66 684.298 4038.33 674.149 4033.91 671.612 4031.9 670.458 4028.42 674.496 4025.06 671.612 4017.69 665.269 3995.57 639.896 3989.68 633.553 3989.68 633.553 3989.68 633.553 3989.68 633.553 3985.25 629.747 3967.56 614.524 3963.13 610.718 3963.13 610.718 3963.13 610.718 3963.13 610.718 3958.71 606.912 3941.02 591.689 3936.59 587.883 3936.59 587.883 3936.59 587.883 3936.59 587.883 3932.17 584.077 3914.48 570.122 3910.05 565.048 3908.17 562.89 3913.19 559.594 3910.05 557.436 3902.68 552.362 3873.19 538.407 3865.82 534.601 3865.82 534.601 3865.82 534.601 3865.82 534.601 3861.39 530.795 3845.17 515.572 3839.28 511.766 3835.56 509.367 3833.22 514.164 3830.43 511.766 3826.01 507.96 3815.68 492.737 3812.74 488.931 3812.74 488.931 3812.74 488.931 3812.74 488.931 3808.9 482.588 3793.57 457.215 3789.73 450.873 3789.73 450.873 3789.73 450.873 3789.73 450.873 3782.66 447.066 3754.34 429.306 3747.27 428.037 3740.19 426.769 3750.81 443.261 3747.27 443.261 3743.73 443.261 3729.57 430.574 3726.03 428.037 3726.03 428.037 3726.03 428.037 3726.03 428.037 3720.73 431.843 3701.26 445.798 3694.19 450.873 3689.74 454.061 3688.02 453.701 3683.57 458.484 3676.49 466.096 3657.03 490.2 3651.72 496.543 3651.72 496.543 3651.72 496.543 3651.72 496.543 3648.18 499.08 3635.8 509.229 3630.49 511.766 3626.17 513.828 3624.18 508.673 3619.87 511.766 3614.56 515.572 3602.18 529.527 3598.64 534.601 3597.09 536.818 3601.73 539.995 3598.64 542.213 3591.56 547.287 3563.25 558.705 3556.17 565.048 3550.5 570.128 3560.42 576.207 3556.17 580.271 3550.86 585.346 3529.63 592.957 3524.32 595.495 3524.32 595.495 3524.32 595.495 3524.32 595.495 3520.78 598.032 3506.63 605.644 3503.09 610.718 3499.83 615.388 3507.97 620.104 3503.09 625.941 3497.78 632.284 3476.55 644.97 3471.24 648.777 3471.24 648.777 3471.24 648.777 3471.24 648.777 3465.93 652.582 3444.7 666.537 3439.39 671.612 3436.64 674.241 3442.14 677.251 3439.39 679.223 3434.08 683.029 3412.85 691.91 3407.54 694.447 3407.54 694.447 3407.54 694.447 3407.54 694.447 3404 700.79 3391.62 726.162 3386.31 732.505 3382.9 736.576 3380.24 730.877 3375.69 732.505 3368.62 735.042 3350.92 745.191 3343.84 747.729 3338.85 749.52 3336.98 744.146 3333.23 747.729 3327.92 752.803 3315.53 773.101 3311.99 778.176 3311.99 778.176 3311.99 778.176 3311.99 778.176 3308.46 780.712 3296.07 790.861 3290.76 793.399 3287.35 795.027 3283.55 789.328 3280.15 793.399 3274.84 799.742 3262.45 825.114 3258.91 831.457 3258.91 831.457 3258.91 831.457 3258.91 831.457 3251.83 836.532 3223.52 856.83 3216.45 861.904 3216.45 861.904 3216.45 861.904 3216.45 861.904 3212.91 864.441 3198.75 870.784 3195.21 877.127 3191.68 883.47 3198.75 893.619 3195.21 899.963 3191.68 906.306 3179.29 912.649 3173.98 915.186 3169.19 917.475 3168.15 912.897 3163.36 915.186 3158.06 917.723 3145.67 925.335 3142.13 930.409 3139.04 934.844 3148.32 941.197 3142.13 945.633 3135.05 950.707 3106.74 958.319 3099.67 960.856 3099.67 960.856 3099.67 960.856 3099.67 960.856 3094.36 967.199 3073.13 992.572 3067.82 998.915 3067.82 998.915 3067.82 998.915 3067.82 998.915 3064.28 1001.45 3050.12 1011.6 3046.58 1014.14 3046.58 1014.14 3046.58 1014.14 3046.58 1014.14 3039.51 1019.21 3011.2 1039.51 3004.12 1044.58 3004.12 1044.58 3004.12 1044.58 3004.12 1044.58 3000.58 1048.39 2986.42 1063.61 2982.89 1067.42 2982.89 1067.42 2982.89 1067.42 2982.89 1067.42 2981.12 1072.49 2974.04 1092.79 2972.27 1097.87 2972.27 1097.87 2972.27 1097.87 2972.27 1097.87 2974.04 1102.43 2981.12 1120.7 2982.89 1125.27 2982.89 1125.27 2982.89 1125.27 2982.89 1125.27 2981.12 1129.84 2972.27 1148.1 2972.27 1152.67 2972.27 1157.24 2982.89 1148.1 2982.89 1152.67 2982.89 1157.24 2974.04 1175.51 2972.27 1180.07 2972.27 1180.07 2972.27 1180.07 2972.27 1180.07 2972.27 1183.12 2972.27 1195.3 2972.27 1198.34 2972.27 1198.34 2972.27 1198.34 2972.27 1198.34 2972.27 1204.43 2970.5 1228.79 2972.27 1234.88 2973.75 1239.97 2978.44 1232.33 2982.89 1234.88 2988.19 1237.92 3000.58 1248.58 3004.12 1253.15 3006.43 1256.12 3000.66 1259.3 3004.12 1262.28 3009.43 1266.85 3030.66 1275.98 3035.97 1280.55 3039.41 1283.51 3033.67 1285.73 3035.97 1289.68 3039.51 1295.77 3051.89 1312.52 3057.2 1317.08 3061.22 1320.55 3063.79 1314.78 3067.82 1317.08 3073.13 1320.13 3085.51 1330.78 3089.05 1335.35 3091.36 1338.33 3085.59 1341.51 3089.05 1344.49 3094.36 1349.05 3115.59 1359.71 3120.9 1362.75 3120.9 1362.75 3120.9 1362.75 3120.9 1362.75 3126.21 1368.84 3145.67 1393.2 3152.75 1399.29 3156.77 1402.75 3160.35 1397.56 3163.36 1399.29 3168.67 1402.33 3181.06 1414.51 3184.6 1417.56 3184.6 1417.56 3184.6 1417.56 3184.6 1417.56 3188.14 1422.12 3202.29 1440.39 3205.83 1444.96 3205.83 1444.96 3205.83 1444.96 3205.83 1444.96 3211.14 1448 3232.37 1458.66 3237.68 1463.23 3240.28 1465.46 3234.22 1469.38 3237.68 1472.36 3244.76 1478.45 3273.07 1495.2 3280.15 1499.76 3280.15 1499.76 3280.15 1499.76 3280.15 1499.76 3283.68 1504.33 3296.07 1522.6 3301.38 1527.17 3305.4 1530.63 3309.31 1524.86 3311.99 1527.17 3315.53 1530.21 3319.07 1542.39 3322.61 1545.43 3324.62 1547.17 3329.2 1541.97 3333.23 1545.43 3340.31 1551.52 3358 1575.88 3365.08 1581.97 3369.1 1585.43 3372.68 1580.24 3375.69 1581.97 3381 1585.02 3393.39 1595.67 3396.93 1600.24 3399.23 1603.22 3393.46 1606.39 3396.93 1609.37 3402.23 1613.94 3423.47 1624.6 3428.78 1627.64 3428.78 1627.64 3428.78 1627.64 3428.78 1627.64 3432.31 1632.21 3446.47 1648.95 3450.01 1655.04 3452.3 1658.99 3446.57 1661.22 3450.01 1664.18 3455.32 1668.74 3474.78 1679.4 3481.86 1682.44 3486.73 1684.54 3488.82 1680.35 3492.47 1682.44 3497.78 1685.49 3510.17 1696.15 3513.71 1700.71 3515.71 1703.29 3510.71 1706.4 3513.71 1709.85 3519.01 1715.94 3540.25 1732.68 3545.56 1737.25 3545.56 1737.25 3545.56 1737.25 3545.56 1737.25 3550.86 1741.82 3570.33 1760.08 3577.4 1764.65 3581.87 1767.53 3584.68 1762.73 3588.02 1764.65 3593.33 1767.7 3605.72 1779.87 3609.25 1782.92 3609.25 1782.92 3609.25 1782.92 3609.25 1782.92 3614.56 1789.01 3635.79 1813.37 3641.1 1819.46 3641.1 1819.46 3641.1 1819.46 3641.1 1819.46 3644.64 1819.46 3658.8 1819.46 3662.34 1819.46 3662.34 1819.46 3662.34 1819.46 3662.34 1819.46 3669.41 1819.46 3697.72 1819.46 3704.8 1819.46 3704.8 1819.46 3704.8 1819.46 3704.8 1819.46 3710.11 1819.46 3731.34 1819.46 3736.65 1819.46 3736.65 1819.46 3736.65 1819.46 3736.65 1819.46 3740.19 1819.46 3754.34 1819.46 3757.88 1819.46 3757.88 1819.46 3757.88 1819.46 3757.88 1819.46 3764.96 1819.46 3795.04 1819.46 3800.35 1819.46 3805.66 1819.46 3786.19 1819.46 3789.73 1819.46 3793.27 1819.46 3814.8 1819.46 3821.58 1819.46 3826.01 1819.46 3826.58 1821.44 3830.43 1819.46 3836.33 1816.41 3852.55 1804.23 3856.97 1801.19 3856.97 1801.19 3856.97 1801.19 3856.97 1801.19 3862.87 1798.14 3886.46 1785.96 3892.36 1782.92 3892.36 1782.92 3892.36 1782.92 3892.36 1782.92 3896.78 1778.35 3914.48 1760.08 3918.9 1755.52 3918.9 1755.52 3918.9 1755.52 3918.9 1755.52 3923.32 1752.47 3941.02 1740.29 3945.44 1737.25 3945.44 1737.25 3945.44 1737.25 3945.44 1737.25 3949.86 1731.16 3966.08 1706.8 3971.98 1700.71 3974.99 1697.61 3977.07 1703.04 3980.83 1700.71 3988.2 1696.15 4008.84 1677.88 4016.22 1673.31 4019.98 1670.98 4022.81 1674.86 4025.06 1673.31 4029.49 1670.27 4039.81 1658.09 4042.76 1655.04 4042.76 1655.04 4042.76 1655.04 4042.76 1655.04 4047.18 1650.48 4063.4 1633.73 4069.3 1627.64 4073.72 1623.07 4074.83 1621.93 4078.15 1618.51 4082.57 1613.94 4092.89 1604.81 4095.84 1600.24 4097.39 1597.83 4091.96 1593.51 4095.84 1591.1 4103.21 1586.54 4132.7 1575.88 4140.07 1572.84 4140.07 1572.84 4140.07 1572.84 4140.07 1572.84 4143.02 1566.75 4151.87 1542.39 4157.77 1536.3 4163.67 1530.21 4169.56 1539.34 4175.46 1536.3 4181.36 1533.26 4190.21 1521.08 4193.16 1518.03 4193.16 1518.03 4193.16 1518.03 4193.16 1518.03 4199.05 1513.47 4221.17 1495.2 4228.54 1490.63 4232.31 1488.3 4235.14 1492.96 4237.39 1490.63 4241.82 1486.06 4252.14 1469.32 4255.09 1463.23 4256.89 1459.5 4251.48 1456.89 4255.09 1454.09 4260.98 1449.53 4284.58 1438.87 4290.47 1435.83 4290.47 1435.83 4290.47 1435.83 4290.47 1435.83 4293.42 1432.78 4300.8 1422.12 4308.17 1417.56 4315.54 1412.99 4327.34 1414.51 4334.71 1408.42 4342.08 1402.33 4349.45 1385.59 4352.4 1381.02 4352.4 1381.02 4352.4 1381.02 4352.4 1381.02 4355.35 1376.45 4367.15 1358.19 4370.1 1353.62 4370.1 1353.62 4370.1 1353.62 4370.1 1353.62 4376 1350.57 4399.59 1339.92 4405.49 1335.35 4408.66 1332.89 4402.31 1329.5 4405.49 1326.22 4411.38 1320.13 4433.5 1303.38 4440.87 1298.82 4444.63 1296.49 4447.46 1300.37 4449.72 1298.82 4454.14 1295.77 4462.99 1285.11 4467.41 1280.55 4471.18 1276.65 4471.23 1275.31 4476.26 1271.41 4482.16 1266.85 4498.38 1257.71 4502.8 1253.15 4505.79 1250.06 4500.81 1248.12 4502.8 1244.01 4505.75 1237.92 4513.12 1221.18 4520.5 1216.61 4527.87 1212.04 4538.19 1219.65 4547.04 1216.61 4555.88 1213.56 4569.16 1202.91 4573.58 1198.34 4576.76 1195.06 4572.52 1192.49 4573.58 1189.21 4575.05 1184.64 4580.95 1173.98 4582.43 1170.94 4582.43 1170.94 4582.43 1170.94 4582.43 1170.94 4580.95 1164.85 4575.05 1140.49 4573.58 1134.4 4573.58 1134.4 4573.58 1134.4 4573.58 1134.4 4570.63 1131.36 4560.31 1119.18 4555.88 1116.13 4553.59 1114.56 4550.85 1118.37 4547.04 1116.13 4539.66 1111.82 4517.55 1094.57 4511.65 1090.25 4511.65 1090.25 4511.65 1090.25 4511.65 1090.25 4505.75 1086.45 4482.16 1073.76 4476.26 1067.42 4471.08 1061.85 4478.85 1056.66 4476.26 1052.2 4473.31 1047.12 4462.99 1039.51 4458.57 1036.97 4456.38 1035.72 4453.36 1039.48 4449.72 1036.97 4442.35 1031.9 4420.23 1011.6 4414.33 1006.53 4414.33 1006.53 4414.33 1006.53 4414.33 1006.53 4409.91 1003.99 4392.21 993.84 4387.79 991.303 4387.79 991.303 4387.79 991.303 4387.79 991.303 4383.37 984.96 4365.67 959.587 4361.25 953.244 4361.25 953.244 4361.25 953.244 4361.25 953.244 4356.83 949.438 4339.13 935.484 4334.71 930.409 4332.31 927.658 4337.91 924.861 4334.71 922.798 4328.81 918.991 4306.69 910.111 4299.32 907.574 4295.56 906.278 4293.49 910.813 4290.47 907.574 4284.58 901.231 4268.36 875.859 4263.93 869.516 4263.93 869.516 4263.93 869.516 4263.93 869.516 4260.98 866.978 4249.19 856.829 4246.24 854.292 4246.24 854.292 4246.24 854.292 4246.24 854.292 4238.87 849.218 4209.38 828.92 4202 823.845 4202 823.845 4202 823.845 4202 823.845 4199.05 818.771 4188.73 798.473 4184.31 793.399 4181.52 790.2 4179.18 795.797 4175.46 793.399 4169.56 789.593 4154.82 774.369 4148.92 770.564 4145.2 768.165 4142.86 772.962 4140.07 770.564 4135.65 766.758 4125.33 752.803 4122.38 747.729 4120.94 745.246 4125.27 742.599 4122.38 740.117 4116.48 735.042 4092.89 721.088 4086.99 717.282 4086.99 717.282 4086.99 717.282 4086.99 717.282 4084.04 713.476 4075.2 699.521 4069.3 694.447 4063.4 689.372 4057.5 690.641 4051.6 686.835 4045.71 683.029 4036.86 674.149 4033.91 671.612 4033.91 671.612 4033.91 671.612 4033.91 671.612 4026.54 665.269 3997.05 639.896 3989.68 633.553 3989.68 633.553 3989.68 633.553 3989.68 633.553 3985.25 629.747 3967.56 615.792 3963.13 610.718 3960.63 607.849 3965.64 605.258 3963.13 603.106 3958.71 599.3 3941.02 590.42 3936.59 587.883 3936.59 587.883 3936.59 587.883 3936.59 587.883 3932.17 584.077 3914.48 568.854 3910.05 565.048 3910.05 565.048 3910.05 565.048 3910.05 565.048 3904.15 559.973 3882.04 539.675 3874.66 534.601 3871.02 532.093 3868.73 536.482 3865.82 534.601 3859.92 530.795 3843.7 515.572 3839.28 511.766 3839.28 511.766 3839.28 511.766 3839.28 511.766 3834.85 507.96 3817.16 492.737 3812.74 488.931 3812.74 488.931 3812.74 488.931 3812.74 488.931 3808.9 482.588 3793.57 458.484 3789.73 450.873 3788.02 447.473 3792.89 444.96 3789.73 443.261 3782.66 439.455 3754.34 430.574 3747.27 428.037 3747.27 428.037 3747.27 428.037 3747.27 428.037 3743.73 430.574 3731.34 443.261 3726.03 443.261 3720.73 443.261 3720.73 425.5 3715.42 428.037 3710.11 430.574 3697.72 453.409 3694.19 458.484 3694.19 458.484 3694.19 458.484 3694.19 458.484 3687.11 463.558 3658.8 482.588 3651.72 488.931 3648.89 491.471 3653.14 495.019 3651.72 496.543 3648.18 500.349 3634.03 509.229 3630.49 511.766 3630.49 511.766 3630.49 511.766 3630.49 511.766 3625.18 516.84 3603.95 537.138 3598.64 542.213 3598.64 542.213 3598.64 542.213 3598.64 542.213 3595.1 546.019 3584.48 561.242 3577.4 565.048 3570.33 568.854 3563.25 561.242 3556.17 565.048 3549.09 568.854 3538.48 582.808 3534.94 587.883 3532.88 590.84 3538.03 593.277 3534.94 595.495 3529.63 599.3 3508.4 605.644 3503.09 610.718 3497.78 615.792 3506.63 619.598 3503.09 625.941 3499.55 632.284 3485.4 644.97 3481.86 648.777 3481.86 648.777 3481.86 648.777 3481.86 648.777 3474.78 652.582 3446.47 666.537 3439.39 671.612 3436.3 673.829 3440.94 677.56 3439.39 679.223 3435.85 683.029 3423.47 691.91 3418.16 694.447 3414.75 696.075 3410.95 690.376 3407.54 694.447 3402.23 700.79 3391.62 726.162 3386.31 732.505 3382.9 736.576 3380.24 730.877 3375.69 732.505 3368.62 735.042 3349.15 745.191 3343.84 747.729 3343.84 747.729 3343.84 747.729 3343.84 747.729 3340.3 751.535 3326.15 765.489 3322.61 770.564 3320.55 773.52 3325.7 775.958 3322.61 778.176 3317.3 781.981 3296.07 790.861 3290.76 793.399 3290.76 793.399 3290.76 793.399 3290.76 793.399 3285.45 799.742 3269.53 818.771 3258.91 831.457" stroke="#4472C4" stroke-width="6.875" stroke-linecap="round" stroke-linejoin="round" stroke-miterlimit="10" fill="none"/></g><g clip-path="url(#clip7)"><text fill="#595959" font-family="Calibri,Calibri_MSFontService,sans-serif" font-weight="400" font-size="64" transform="matrix(6.12323e-17 -1 1 6.12323e-17 2809.29 1382)">Napetost Y os [V]</text></g><g clip-path="url(#clip8)"><text fill="#595959" font-family="Calibri,Calibri_MSFontService,sans-serif" font-weight="400" font-size="64" transform="matrix(1 0 0 1 3525.83 2020)">Napetost X os [V]</text></g><g clip-path="url(#clip9)"><text fill="#595959" font-family="Calibri,Calibri_MSFontService,sans-serif" font-weight="400" font-size="83" transform="matrix(1 0 0 1 3307.32 335)">XY prikaz: </text></g><g clip-path="url(#clip10)"><text fill="#595959" font-family="Calibri,Calibri_MSFontService,sans-serif" font-weight="400" font-size="83" transform="matrix(1 0 0 1 3648.94 335)">Kvadratura</text></g></g></svg>