<svg width="1719" height="1298" xmlns="http://www.w3.org/2000/svg" xmlns:xlink="http://www.w3.org/1999/xlink" xml:space="preserve" overflow="hidden"><defs><clipPath id="clip0"><rect x="2578" y="62" width="1719" height="1298"/></clipPath><clipPath id="clip1"><rect x="2829" y="237" width="1395" height="894"/></clipPath></defs><g clip-path="url(#clip0)" transform="translate(-2578 -62)"><rect x="2578" y="61.9999" width="1719" height="1298" fill="#FFFFFF"/><g><path d="M2829.5 1102.54 4220.5 1102.54M2829.5 1076.54 4220.5 1076.54M2829.5 1051.53 4220.5 1051.53M2829.5 1025.53 4220.5 1025.53M2829.5 975.532 4220.5 975.532M2829.5 949.531 4220.5 949.531M2829.5 924.531 4220.5 924.531M2829.5 898.53 4220.5 898.53M2829.5 847.528 4220.5 847.528M2829.5 822.527 4220.5 822.527M2829.5 796.526 4220.5 796.526M2829.5 771.526 4220.5 771.526M2829.5 720.524 4220.5 720.524M2829.5 695.523 4220.5 695.523M2829.5 669.522 4220.5 669.522M2829.5 644.521 4220.5 644.521M2829.5 593.52 4220.5 593.52M2829.5 567.519 4220.5 567.519M2829.5 542.518 4220.5 542.518M2829.5 516.517 4220.5 516.517M2829.5 466.516 4220.5 466.516M2829.5 440.515 4220.5 440.515M2829.5 415.514 4220.5 415.514M2829.5 389.513 4220.5 389.513M2829.5 338.511 4220.5 338.511M2829.5 313.51 4220.5 313.51M2829.5 287.51 4220.5 287.51M2829.5 262.509 4220.5 262.509" stroke="#F2F2F2" stroke-width="3.4375" stroke-linejoin="round" stroke-miterlimit="10" fill="none"/></g><g><path d="M2829.5 1127.5 4220.5 1127.5M2829.5 1000.53 4220.5 1000.53M2829.5 873.529 4220.5 873.529M2829.5 746.525 4220.5 746.525M2829.5 618.521 4220.5 618.521M2829.5 491.516 4220.5 491.516M2829.5 364.512 4220.5 364.512" stroke="#D9D9D9" stroke-width="3.4375" stroke-linejoin="round" stroke-miterlimit="10" fill="none"/></g><g><path d="M2864.59 237.5 2864.59 1127.5M2899.6 237.5 2899.6 1127.5M2933.6 237.5 2933.6 1127.5M2968.6 237.5 2968.6 1127.5M3038.6 237.5 3038.6 1127.5M3073.6 237.5 3073.6 1127.5M3107.6 237.5 3107.6 1127.5M3142.6 237.5 3142.6 1127.5M3212.61 237.5 3212.61 1127.5M3246.61 237.5 3246.61 1127.5M3281.61 237.5 3281.61 1127.5M3316.61 237.5 3316.61 1127.5M3386.61 237.5 3386.61 1127.5M3420.61 237.5 3420.61 1127.5M3455.61 237.5 3455.61 1127.5M3490.61 237.5 3490.61 1127.5M3559.62 237.5 3559.62 1127.5M3594.62 237.5 3594.62 1127.5M3629.62 237.5 3629.62 1127.5M3664.62 237.5 3664.62 1127.5M3733.62 237.5 3733.62 1127.5M3768.62 237.5 3768.62 1127.5M3803.62 237.5 3803.62 1127.5M3838.63 237.5 3838.63 1127.5M3907.63 237.5 3907.63 1127.5M3942.63 237.5 3942.63 1127.5M3977.63 237.5 3977.63 1127.5M4012.63 237.5 4012.63 1127.5M4081.63 237.5 4081.63 1127.5M4116.64 237.5 4116.64 1127.5M4151.64 237.5 4151.64 1127.5M4185.64 237.5 4185.64 1127.5" stroke="#F2F2F2" stroke-width="3.4375" stroke-linejoin="round" stroke-miterlimit="10" fill="none"/></g><g><path d="M3003.6 237.5 3003.6 1127.5M3177.6 237.5 3177.6 1127.5M3351.61 237.5 3351.61 1127.5M3525.62 237.5 3525.62 1127.5M3699.62 237.5 3699.62 1127.5M3872.63 237.5 3872.63 1127.5M4046.63 237.5 4046.63 1127.5M4220.5 237.5 4220.5 1127.5" stroke="#D9D9D9" stroke-width="3.4375" stroke-linejoin="round" stroke-miterlimit="10" fill="none"/></g><g><rect x="2829.5" y="237.5" width="1391" height="890" stroke="#BFBFBF" stroke-width="3.4375" stroke-linejoin="round" stroke-miterlimit="10" fill="none"/></g><g><path d="M0 0 0.000360892 890" stroke="#BFBFBF" stroke-width="3.4375" stroke-linejoin="round" stroke-miterlimit="10" fill="none" fill-rule="evenodd" transform="matrix(1 0 0 -1 2829.5 1127.5)"/></g><g><path d="M2829.5 237.5 4220.5 237.5" stroke="#BFBFBF" stroke-width="3.4375" stroke-linejoin="round" stroke-miterlimit="10" fill="none" fill-rule="evenodd"/></g><g clip-path="url(#clip1)"><path d="M2654.91 1055.81C2654.91 1057.93 2654.91 1060.33 2654.91 1062.17 2654.91 1063.79 2654.5 1064.56 2654.91 1066.88 2655.37 1069.53 2657.22 1075.43 2657.69 1078.08 2658.09 1080.39 2657.49 1083.82 2657.69 1082.78 2657.92 1081.6 2658.62 1073.86 2659.08 1070.95 2659.54 1068.1 2659.51 1065.35 2660.47 1065.35 2661.46 1065.35 2663.66 1070.95 2664.99 1070.95 2666.33 1070.95 2667.78 1067.88 2668.47 1065.35 2669.17 1062.83 2669.05 1054.22 2669.17 1055.81 2669.28 1057.4 2669.17 1070.65 2669.17 1074.9 2669.17 1078.08 2669.17 1079.87 2669.17 1081.26 2669.17 1083.1 2668.65 1084.37 2669.17 1085.96 2669.69 1087.55 2671.78 1088.93 2672.3 1090.8 2672.82 1092.66 2672.3 1095.04 2672.3 1097.16 2672.3 1099.28 2672.3 1101.4 2672.3 1103.52 2672.3 1105.64 2672.3 1107.76 2672.3 1109.88 2672.3 1110.68 2672.13 1119.42 2672.3 1116.24 2672.76 1107.76 2674.62 1067.47 2675.08 1058.99 2675.26 1055.82 2675 1064.46 2675.08 1065.35 2675.31 1067.73 2676.24 1070.87 2676.47 1073.24 2676.71 1075.62 2676.47 1077.61 2676.47 1079.6 2676.47 1081.6 2675.72 1087.58 2676.47 1085.2 2677.23 1082.83 2680.24 1067.6 2681 1065.35 2681.75 1063.11 2681 1069.59 2681 1071.71 2681 1073.83 2681 1075.96 2681 1078.08 2681 1080.2 2681 1082.32 2681 1084.44 2681 1085.28 2680.81 1093.97 2681 1090.8 2681.46 1082.85 2683.32 1044.68 2683.78 1036.73 2683.97 1033.55 2683.78 1042.24 2683.78 1043.09 2683.78 1045.21 2683.78 1047.33 2683.78 1049.45 2683.78 1051.57 2683.78 1053.97 2683.78 1055.81 2683.78 1057.66 2683.32 1058.93 2683.78 1060.52 2684.24 1062.11 2686.1 1063.49 2686.56 1065.35 2687.03 1067.22 2686.56 1069.59 2686.56 1071.71 2686.56 1073.83 2686.27 1075.96 2686.56 1078.08 2686.85 1080.2 2687.32 1082.32 2688.3 1084.44 2689.29 1086.56 2691.78 1088.68 2692.48 1090.8 2693.17 1092.92 2692.01 1094.23 2692.48 1097.16 2692.94 1100.09 2694.51 1107.55 2695.26 1108.36 2696.01 1109.16 2696.48 1104.39 2697 1101.99 2697.52 1099.6 2697.7 1096.38 2698.39 1093.98 2699.09 1091.58 2700.25 1087.62 2701.17 1087.62 2702.1 1087.62 2702.97 1095.04 2703.96 1093.98 2704.94 1092.92 2706.57 1082.32 2707.09 1081.26 2707.61 1080.2 2706.62 1088.42 2707.09 1087.62 2707.55 1086.81 2709.18 1079.35 2709.87 1076.42 2710.57 1073.5 2710.28 1071.91 2711.26 1070.06 2712.25 1068.22 2715.03 1065.08 2715.78 1065.35 2716.54 1065.63 2715.32 1069.59 2715.78 1071.71 2716.25 1073.83 2717.87 1075.7 2718.57 1078.08 2719.26 1080.45 2718.97 1084.9 2719.96 1085.96 2720.95 1087.02 2723.73 1083.91 2724.48 1084.44 2725.21 1084.95 2724.03 1086.83 2724.48 1089.14 2724.95 1091.54 2726.57 1098.14 2727.27 1098.81 2727.66 1099.2 2728.39 1096.09 2728.66 1093.22 2729.12 1088.17 2729.82 1071.59 2730.05 1068.53 2730.28 1065.48 2730.05 1072.77 2730.05 1074.9 2730.05 1077.02 2730.05 1079.14 2730.05 1081.26 2730.05 1082.31 2729.79 1090.79 2730.05 1087.62 2730.57 1081.26 2732.66 1049.45 2733.18 1043.09 2733.44 1039.92 2733.06 1048.39 2733.18 1049.45 2733.41 1051.57 2734.34 1053.69 2734.57 1055.81 2734.8 1057.93 2734.34 1060.33 2734.57 1062.17 2734.8 1064.02 2735.27 1065.29 2735.96 1066.88 2736.66 1068.47 2738.28 1069.85 2738.75 1071.71 2739.21 1073.58 2738.75 1075.96 2738.75 1078.08 2738.75 1080.2 2738.75 1082.32 2738.75 1084.44 2738.75 1086.56 2738.75 1088.68 2738.75 1090.8 2738.75 1092.92 2738.75 1095.04 2738.75 1097.16 2738.75 1098.74 2738.36 1100.36 2738.75 1103.52 2739.27 1107.76 2741.35 1118.36 2741.88 1122.61 2742.26 1125.76 2741.88 1127.39 2741.88 1128.97 2741.88 1131.08 2741.64 1138.5 2741.88 1135.33 2742.11 1132.15 2743.04 1113.19 2743.27 1109.88 2743.46 1107.09 2743.07 1117.27 2743.27 1115.48 2743.5 1113.36 2744.43 1099.15 2744.66 1097.16 2744.89 1095.17 2743.91 1104.45 2744.66 1103.52 2745.41 1102.59 2748.2 1092.62 2749.18 1091.56 2750.17 1090.5 2750.34 1095.42 2750.57 1097.16 2750.8 1098.9 2749.88 1100.4 2750.57 1101.99 2751.27 1103.58 2754.05 1104.98 2754.75 1106.7 2755.21 1107.83 2754.59 1115.09 2754.75 1112.3 2754.98 1108.06 2755.91 1085.37 2756.14 1081.26 2756.32 1078.08 2756.14 1085.98 2756.14 1087.62 2756.14 1089.74 2756.14 1091.86 2756.14 1093.98 2756.14 1094.83 2755.93 1103.51 2756.14 1100.34 2756.66 1092.39 2758.75 1054.22 2759.27 1046.27 2759.48 1043.1 2759.18 1051.78 2759.27 1052.63 2759.5 1054.75 2760.43 1056.87 2760.66 1058.99 2760.89 1061.11 2760.66 1063.23 2760.66 1065.35 2760.66 1067.47 2760.66 1069.87 2760.66 1071.71 2760.66 1073.56 2759.97 1075.36 2760.66 1076.42 2761.36 1077.48 2764.14 1076.74 2764.84 1078.08 2765.53 1079.41 2764.84 1082.59 2764.84 1084.44 2764.84 1085.78 2764.46 1091.47 2764.84 1089.14 2765.36 1085.96 2767.45 1068.26 2767.97 1065.35 2768.49 1062.45 2767.5 1069.59 2767.97 1071.71 2768.43 1073.83 2770.29 1075.96 2770.75 1078.08 2771.21 1080.2 2770.75 1082.32 2770.75 1084.44 2770.75 1086.56 2770.75 1088.93 2770.75 1090.8 2770.75 1092.65 2770.29 1093.26 2770.75 1095.63 2771.21 1098.03 2772.72 1104.48 2773.53 1105.18 2774.34 1105.87 2775.1 1102.23 2775.62 1099.83 2776.14 1097.44 2776.03 1088.59 2776.66 1090.8 2777.3 1093 2778.98 1108.55 2779.45 1113.06 2779.69 1115.47 2779.32 1118.32 2779.45 1117.9 2779.68 1117.11 2779.85 1112.34 2780.84 1108.36 2781.82 1104.37 2784.61 1095.32 2785.36 1093.98 2786.12 1092.64 2785.36 1098.47 2785.36 1100.34 2785.36 1102.21 2785.13 1107.3 2785.36 1105.18 2785.59 1103.05 2786.29 1093.72 2786.75 1087.62 2787.22 1081.51 2787.91 1070.65 2788.14 1068.53 2788.38 1066.41 2788.14 1072.77 2788.14 1074.9 2788.14 1076.48 2787.8 1078.09 2788.14 1081.26 2788.61 1085.5 2790.46 1096.1 2790.93 1100.34 2791.27 1103.5 2790.93 1105.12 2790.93 1106.7 2790.93 1108.82 2790.7 1115.46 2790.93 1113.06 2791.16 1110.67 2791.8 1098.16 2792.32 1092.33 2792.84 1086.49 2793.77 1079.39 2794.06 1078.08 2794.35 1076.76 2793.77 1085.58 2794.06 1084.44 2794.35 1083.29 2794.87 1072.27 2795.8 1071.21 2796.73 1070.15 2798.99 1076.15 2799.62 1078.08 2800.26 1080.01 2798.87 1083.31 2799.62 1082.78 2800.38 1082.25 2803.34 1077.27 2804.15 1074.9 2804.96 1072.52 2803.8 1066.41 2804.49 1068.53 2805.19 1070.65 2807.34 1085.58 2808.32 1087.62 2809.31 1089.65 2809.19 1083.14 2810.41 1080.75 2811.63 1078.35 2813.77 1073.16 2815.63 1073.24 2817.48 1073.33 2820.32 1082.04 2821.54 1081.26 2822.76 1080.47 2822.7 1069.59 2822.93 1068.53 2823.16 1067.47 2822.93 1071.99 2822.93 1074.9 2822.93 1077.8 2822.24 1088.89 2822.93 1085.96 2823.63 1083.04 2826.41 1061.18 2827.11 1057.34 2827.61 1054.58 2827.02 1063.88 2827.11 1062.94 2827.22 1061.62 2827.05 1048.52 2827.8 1049.45 2828.56 1050.38 2830.99 1064.29 2831.63 1068.53 2832.1 1071.68 2831.63 1073.32 2831.63 1074.9 2831.63 1077.02 2831.63 1079.14 2831.63 1081.26 2831.63 1083.38 2831.63 1085.5 2831.63 1087.62 2831.63 1089.74 2831.63 1091.86 2831.63 1093.98 2831.63 1096.1 2831.17 1098.22 2831.63 1100.34 2832.09 1102.46 2833.95 1104.58 2834.41 1106.7 2834.88 1108.82 2834.41 1110.94 2834.41 1113.06 2834.41 1115.18 2834.41 1117.56 2834.41 1119.42 2834.41 1120.36 2834.15 1126.66 2834.41 1124.26 2834.93 1119.49 2837.02 1095.32 2837.54 1090.8 2837.91 1087.64 2837.54 1095.85 2837.54 1097.16 2837.54 1099.03 2837.31 1103.86 2837.54 1101.99 2837.78 1100.13 2838.01 1087.3 2838.93 1085.96 2839.86 1084.63 2842.41 1091.58 2843.11 1093.98 2843.81 1096.38 2842.88 1098.35 2843.11 1100.34 2843.34 1102.33 2843.98 1103.82 2844.5 1105.94 2845.02 1108.06 2845.95 1111.07 2846.24 1113.06 2846.46 1114.56 2845.89 1120.29 2846.24 1117.9 2846.7 1114.72 2848.56 1096.91 2849.02 1093.98 2849.49 1091.05 2848.79 1102.46 2849.02 1100.34 2849.26 1098.22 2850.18 1083.38 2850.42 1081.26 2850.65 1079.14 2850.18 1089.74 2850.42 1087.62 2850.65 1085.5 2851.57 1070.65 2851.81 1068.53 2851.98 1066.96 2851.42 1071.74 2851.81 1074.9 2852.33 1079.14 2854.42 1089.74 2854.94 1093.98 2855.33 1097.14 2854.94 1098.76 2854.94 1100.34 2854.94 1102.46 2854.94 1104.84 2854.94 1106.7 2854.94 1107.47 2854.75 1113.95 2854.94 1111.54 2855.4 1105.71 2857.26 1075.45 2857.72 1071.71 2858.18 1067.98 2857.49 1088.08 2857.72 1089.14 2857.95 1090.2 2858.88 1078.99 2859.11 1078.08 2859.34 1077.16 2858.36 1085.26 2859.11 1083.67 2859.87 1082.08 2862.88 1070.27 2863.63 1068.53 2864.39 1066.8 2862.94 1071.4 2863.63 1073.24 2864.33 1075.09 2867.11 1077.74 2867.81 1079.6 2868.5 1081.47 2867.06 1085.75 2867.81 1084.44 2868.56 1083.12 2871.58 1072.77 2872.33 1071.71 2873.09 1070.65 2872.33 1075.96 2872.33 1078.08 2872.33 1080.2 2871.87 1082.32 2872.33 1084.44 2872.8 1086.56 2874.65 1088.68 2875.11 1090.8 2875.58 1092.92 2875.11 1095.04 2875.11 1097.16 2875.11 1099.28 2875.11 1101.66 2875.11 1103.52 2875.11 1105.39 2874.42 1106.77 2875.11 1108.36 2875.81 1109.95 2878.3 1113.34 2879.29 1113.06 2880.27 1112.79 2880.74 1105.9 2881.03 1106.7 2881.32 1107.51 2880.56 1120.02 2881.03 1117.9 2881.49 1115.78 2883.35 1096.91 2883.81 1093.98 2884.28 1091.05 2883.58 1101.68 2883.81 1100.34 2884.04 1099 2884.22 1087.83 2885.2 1085.96 2886.19 1084.1 2888.51 1089.4 2889.73 1089.14 2890.94 1088.89 2891.58 1086.28 2892.51 1084.44 2893.44 1082.59 2894.07 1078.35 2895.29 1078.08 2896.51 1077.8 2898.02 1081.19 2899.81 1082.78 2901.61 1084.37 2904.92 1085.22 2906.08 1087.62 2907.24 1090.01 2906.13 1093.45 2906.77 1097.16 2907.41 1100.87 2909.38 1106.96 2909.9 1109.88 2910.33 1112.26 2909.67 1115.65 2909.9 1114.72 2910.19 1113.57 2911.18 1106.47 2911.64 1103.01 2912.11 1099.56 2912.05 1096.54 2912.69 1093.98 2913.32 1091.41 2914.71 1090.8 2915.47 1087.62 2916.22 1084.44 2916.92 1076.08 2917.21 1074.9 2917.5 1073.71 2916.98 1082.61 2917.21 1080.49 2917.44 1078.37 2918.37 1064.17 2918.6 1062.17 2918.8 1060.48 2918.21 1065.38 2918.6 1068.53 2919.06 1072.24 2920.92 1080.73 2921.38 1084.44 2921.78 1087.59 2921.38 1088.31 2921.38 1090.8 2921.38 1093.72 2921.15 1100.93 2921.38 1101.99 2921.61 1103.05 2921.56 1098.62 2922.77 1097.16 2923.99 1095.7 2927.47 1095.87 2928.69 1093.22 2929.91 1090.57 2929.85 1082.19 2930.08 1081.26 2930.31 1080.33 2929.62 1090.77 2930.08 1087.62 2930.54 1084.44 2932.11 1065.35 2932.86 1062.17 2933.62 1058.99 2934.31 1066.41 2934.6 1068.53 2934.89 1070.65 2934.37 1072.77 2934.6 1074.9 2934.83 1077.02 2935.76 1079.41 2935.99 1081.26 2936.23 1083.1 2935.3 1084.12 2935.99 1085.96 2936.69 1087.81 2939.47 1090.18 2940.17 1092.33 2940.86 1094.47 2940.17 1096.82 2940.17 1098.81 2940.17 1100.62 2939.49 1106.93 2940.17 1104.28 2940.92 1101.36 2943.94 1084.03 2944.69 1081.26 2945.44 1078.48 2944.4 1088.68 2944.69 1087.62 2944.98 1086.56 2945.97 1078.61 2946.43 1074.9 2946.89 1071.18 2946.84 1062.7 2947.47 1065.35 2948.11 1068 2949.79 1085.75 2950.26 1090.8 2950.48 1093.21 2950.09 1096.18 2950.26 1095.63 2950.6 1094.49 2951.36 1087.13 2952.34 1083.93 2953.33 1080.73 2955.19 1078.54 2956.17 1076.42 2957.16 1074.3 2957.04 1070.93 2958.26 1071.21 2959.48 1071.48 2962.61 1076.15 2963.48 1078.08 2964.35 1080.01 2963.24 1083.84 2963.48 1082.78 2963.71 1081.72 2964.17 1075.68 2964.87 1071.71 2965.56 1067.75 2966.9 1059.8 2967.65 1058.99 2968.4 1058.19 2968.87 1064.23 2969.39 1066.88 2969.91 1069.53 2970.55 1072.77 2970.78 1074.9 2971.01 1077.02 2970.09 1077.76 2970.78 1079.6 2971.48 1081.45 2973.51 1085.69 2974.96 1085.96 2976.41 1086.24 2978.49 1083.1 2979.48 1081.26 2980.46 1079.41 2980.41 1077.02 2980.87 1074.9 2981.33 1072.77 2981.57 1068 2982.26 1068.53 2982.96 1069.06 2984.58 1075.43 2985.05 1078.08 2985.51 1080.73 2985.05 1082.59 2985.05 1084.44 2985.05 1085.78 2984.66 1091.47 2985.05 1089.14 2985.57 1085.96 2987.65 1068.26 2988.18 1065.35 2988.7 1062.45 2987.71 1069.59 2988.18 1071.71 2988.64 1073.83 2990.5 1075.96 2990.96 1078.08 2991.42 1080.2 2990.15 1082.49 2990.96 1084.44 2991.77 1086.39 2994.38 1088.19 2995.83 1089.78 2997.28 1091.37 2999.02 1092.47 2999.66 1093.98 3000.29 1095.48 2998.9 1100.15 2999.66 1098.81 3000.41 1097.48 3002.73 1089.42 3004.18 1085.96 3005.63 1082.51 3007.66 1078.33 3008.35 1078.08 3009.05 1077.82 3007.89 1082.32 3008.35 1084.44 3008.82 1086.56 3010.67 1087.87 3011.14 1090.8 3011.6 1093.72 3010.85 1100.66 3011.14 1101.99 3011.43 1103.33 3012.35 1098.03 3012.88 1098.81 3013.39 1099.59 3013.58 1110.65 3014.27 1106.7 3014.96 1102.72 3016.59 1079.14 3017.05 1074.9 3017.4 1071.73 3017.05 1079.68 3017.05 1081.26 3017.05 1083.38 3017.05 1085.5 3017.05 1087.62 3017.05 1088.77 3016.67 1097.14 3017.05 1093.98 3017.75 1088.15 3020.53 1058.46 3021.22 1052.63 3021.6 1049.47 3021.22 1057.84 3021.22 1058.99 3021.22 1061.11 3021.22 1063.36 3021.22 1065.35 3021.22 1067.1 3020.97 1073.74 3021.22 1070.95 3021.51 1067.77 3022.67 1045.36 3022.96 1046.27 3023.25 1047.18 3022.5 1067.41 3022.96 1076.42 3023.43 1085.43 3025.28 1095.29 3025.75 1100.34 3026.04 1103.51 3025.75 1105.53 3025.75 1106.7 3025.75 1107.83 3025.61 1113.95 3025.75 1111.54 3025.98 1107.55 3026.91 1086.52 3027.14 1082.78 3027.34 1079.61 3027.14 1087.45 3027.14 1089.14 3027.14 1091.14 3026.38 1094.47 3027.14 1094.74 3027.89 1095.02 3030.68 1090.12 3031.66 1090.8 3032.65 1091.48 3032.59 1096.16 3033.05 1098.81 3033.52 1101.46 3033.75 1108.57 3034.44 1106.7 3035.14 1104.84 3036.76 1089.74 3037.23 1087.62 3037.69 1085.5 3036.42 1095.04 3037.23 1093.98 3038.04 1092.92 3040.65 1082.85 3042.1 1081.26 3043.55 1079.67 3045.29 1082.85 3045.92 1084.44 3046.56 1086.03 3045.92 1088.93 3045.92 1090.8 3045.92 1092.59 3045.2 1097.94 3045.92 1095.63 3046.68 1093.24 3049.69 1078.82 3050.45 1076.42 3051.17 1074.12 3050.39 1082.52 3050.45 1081.26 3050.5 1079.94 3050.1 1064.55 3050.79 1068.53 3051.49 1072.52 3053.75 1100.66 3054.62 1105.18 3055.49 1109.69 3055.78 1096.31 3056.01 1095.63 3056.24 1094.95 3055.9 1102.44 3056.01 1101.1 3056.13 1099.77 3055.95 1093.58 3056.71 1087.62 3057.46 1081.66 3059.9 1068 3060.54 1065.35 3061.17 1062.7 3060.54 1069.59 3060.54 1071.71 3060.54 1073.83 3060.3 1076.08 3060.54 1078.08 3060.77 1080.07 3061.46 1081.55 3061.93 1083.67 3062.39 1085.79 3063.09 1088.55 3063.32 1090.8 3063.55 1093.05 3063.32 1095.29 3063.32 1097.16 3063.32 1098.01 3063.08 1104.4 3063.32 1101.99 3063.84 1096.69 3065.93 1070.4 3066.45 1065.35 3066.78 1062.19 3066.45 1070.39 3066.45 1071.71 3066.45 1073.83 3065.99 1075.96 3066.45 1078.08 3066.91 1080.2 3068.77 1081.51 3069.23 1084.44 3069.7 1087.36 3069 1094.7 3069.23 1095.63 3069.46 1096.57 3069.35 1090.31 3070.62 1090.04 3071.9 1089.76 3075.67 1094.91 3076.89 1093.98 3078.1 1093.05 3077.76 1083.1 3077.93 1084.44 3078.1 1085.77 3077.47 1105.71 3077.93 1101.99 3078.39 1098.28 3080.25 1067.75 3080.71 1062.17 3080.98 1059 3080.71 1066.88 3080.71 1068.53 3080.71 1071.44 3080.48 1078.29 3080.71 1079.6 3080.94 1080.92 3081.58 1075.62 3082.1 1076.42 3082.63 1077.23 3083.55 1082.04 3083.84 1084.44 3084.13 1086.83 3083.38 1088.68 3083.84 1090.8 3084.31 1092.92 3086.16 1095.29 3086.63 1097.16 3087.09 1099.03 3086.16 1104.11 3086.63 1101.99 3087.09 1099.87 3088.95 1086.3 3089.41 1084.44 3089.87 1082.57 3088.66 1092.39 3089.41 1090.8 3090.16 1089.21 3093.18 1076.61 3093.93 1074.9 3094.69 1073.18 3093.7 1082.61 3093.93 1080.49 3094.16 1078.37 3095.09 1064.17 3095.32 1062.17 3095.51 1060.57 3095.32 1065.35 3095.32 1068.53 3095.32 1072.5 3094.86 1091.8 3095.32 1085.96 3095.79 1080.13 3097.64 1041.22 3098.11 1033.55 3098.3 1030.37 3098.11 1039.03 3098.11 1039.91 3098.11 1042.03 3097.87 1044.15 3098.11 1046.27 3098.34 1048.39 3099.27 1050.66 3099.5 1052.63 3099.73 1054.6 3098.98 1056.11 3099.5 1058.1 3100.02 1060.09 3101.88 1064.44 3102.63 1064.59 3103.38 1064.74 3103.79 1058.08 3104.02 1058.99 3104.25 1059.9 3103.56 1066.35 3104.02 1070.06 3104.48 1073.77 3106.34 1078.61 3106.8 1081.26 3107.21 1083.58 3106.6 1086.67 3106.8 1085.96 3107.04 1085.16 3107.21 1078.27 3108.2 1076.42 3109.18 1074.58 3111.27 1074.09 3112.72 1074.9 3114.17 1075.7 3116.2 1079.14 3116.89 1081.26 3117.59 1083.38 3116.89 1085.62 3116.89 1087.62 3116.89 1089.61 3116.6 1091.1 3116.89 1093.22 3117.18 1095.34 3118.34 1098.35 3118.63 1100.34 3118.72 1100.95 3118.49 1107.59 3118.63 1105.18 3119.1 1097.22 3120.95 1060.33 3121.41 1052.63 3121.61 1049.46 3121.41 1058.12 3121.41 1058.99 3121.41 1061.11 3121.41 1062.45 3121.41 1065.35 3121.41 1068.26 3121.18 1075.11 3121.41 1076.42 3121.65 1077.74 3122.34 1072.44 3122.81 1073.24 3123.27 1074.05 3123.97 1078.86 3124.2 1081.26 3124.37 1083.04 3123.81 1090.77 3124.2 1087.62 3124.72 1083.38 3126.81 1060.05 3127.33 1055.81 3127.72 1052.65 3127.33 1060.59 3127.33 1062.17 3127.33 1064.29 3127.33 1066.69 3127.33 1068.53 3127.33 1069.89 3127.11 1075.59 3127.33 1073.24 3127.62 1070.06 3128.6 1056.07 3129.07 1049.45 3129.53 1042.83 3129.94 1035.14 3130.11 1033.55 3130.24 1032.36 3129.77 1036.75 3130.11 1039.91 3130.58 1044.15 3132.43 1052.63 3132.89 1058.99 3133.36 1065.35 3132.66 1077.02 3132.89 1078.08 3133.13 1079.14 3134.05 1066.41 3134.29 1065.35 3134.52 1064.29 3133.53 1073.3 3134.29 1071.71 3135.04 1070.12 3137.82 1057.53 3138.81 1055.81 3139.79 1054.09 3139.27 1059.29 3140.2 1061.41 3141.13 1063.53 3142.93 1066.29 3144.37 1068.53 3145.82 1070.78 3147.91 1073.05 3148.9 1074.9 3149.88 1076.74 3149.59 1080.41 3150.29 1079.6 3150.98 1078.8 3152.26 1072.52 3153.07 1070.06 3153.88 1067.6 3154.41 1067.22 3155.16 1064.84 3155.91 1062.47 3156.96 1059.44 3157.59 1055.81 3158.23 1052.19 3158.75 1044.15 3158.99 1043.09 3159.22 1042.03 3158.99 1046.27 3158.99 1049.45 3158.99 1052.63 3158.99 1059.27 3158.99 1062.17 3158.99 1064 3158.69 1064.54 3158.99 1066.88 3159.45 1070.59 3161.3 1080.45 3161.77 1084.44 3162.14 1087.6 3161.54 1091.54 3161.77 1090.8 3162.06 1089.87 3163.16 1082.02 3163.51 1078.84 3163.86 1075.66 3163.16 1074.49 3163.86 1071.71 3164.55 1068.94 3167.04 1062.98 3167.68 1062.17 3168.32 1061.37 3167.22 1065.29 3167.68 1066.88 3168.15 1068.47 3170 1070.12 3170.47 1071.71 3170.93 1073.3 3169.94 1077.23 3170.47 1076.42 3170.99 1075.62 3172.78 1069.34 3173.6 1066.88 3174.41 1064.42 3174.41 1060.6 3175.34 1061.66 3176.26 1062.72 3178.24 1072.37 3179.16 1073.24 3180.09 1074.11 3180.15 1069.4 3180.9 1066.88 3181.66 1064.36 3182.99 1061.54 3183.69 1058.1 3184.38 1054.67 3184.84 1047.18 3185.08 1046.27 3185.27 1045.49 3184.68 1049.47 3185.08 1052.63 3185.54 1056.34 3187.11 1066.94 3187.86 1068.53 3188.61 1070.12 3188.61 1064.82 3189.6 1062.17 3190.58 1059.52 3193.08 1053.16 3193.77 1052.63 3194.47 1052.1 3193.77 1056.87 3193.77 1058.99 3193.77 1061.11 3193.77 1063.51 3193.77 1065.35 3193.77 1066.17 3193.57 1072.41 3193.77 1070.06 3194.24 1064.76 3196.09 1038.57 3196.56 1033.55 3196.85 1030.38 3196.37 1038.41 3196.56 1039.91 3196.85 1042.28 3197.77 1045.15 3198.3 1047.8 3198.82 1050.45 3199.46 1053.42 3199.69 1055.81 3199.86 1057.6 3199.34 1065.33 3199.69 1062.17 3200.15 1057.93 3201.78 1034.35 3202.47 1030.37 3203.16 1026.42 3203.63 1035.9 3203.86 1038.25 3204.09 1040.63 3203.34 1042.37 3203.86 1044.62 3204.38 1046.86 3206.24 1051.46 3206.99 1051.74 3207.75 1052.02 3208.15 1045.34 3208.39 1046.27 3208.62 1047.2 3207.92 1061.07 3208.39 1057.34 3208.85 1053.61 3210.7 1028.37 3211.17 1023.88 3211.5 1020.65 3211.17 1028.83 3211.17 1030.37 3211.17 1032.51 3211.17 1034.88 3211.17 1036.73 3211.17 1037.88 3210.88 1043.77 3211.17 1041.43 3211.63 1037.7 3213.49 1018.05 3213.95 1014.34 3214.25 1011.94 3213.61 1017.62 3213.95 1019.17 3214.47 1021.57 3216.33 1027.93 3217.08 1028.71 3217.84 1029.5 3218.01 1025.74 3218.47 1023.88 3218.94 1022.01 3219.17 1016.96 3219.86 1017.52 3220.56 1018.07 3222.18 1024.51 3222.65 1027.19 3223.11 1029.86 3221.89 1034.88 3222.65 1033.55 3223.4 1032.21 3226.42 1020.78 3227.17 1019.17 3227.92 1017.56 3226.47 1022.54 3227.17 1023.88 3227.87 1025.21 3230.65 1025.85 3231.34 1027.19 3232.04 1028.52 3230.82 1032.97 3231.34 1031.89 3231.87 1030.81 3233.72 1023.75 3234.48 1020.7 3235.23 1017.64 3235.17 1015.69 3235.87 1013.57 3236.56 1011.45 3237.95 1007.85 3238.65 1007.97 3239.35 1008.1 3239.81 1012.21 3240.04 1014.34 3240.24 1016.14 3239.6 1023.85 3240.04 1020.7 3240.56 1016.99 3242.65 995.782 3243.17 992.071 3243.62 988.921 3243.17 996.848 3243.17 998.432 3243.17 1000.3 3242.94 1005.64 3243.17 1003.27 3243.4 1000.89 3243.64 986.579 3244.56 984.183 3245.49 981.786 3248.04 987.3 3248.74 988.89 3249.35 990.285 3248.08 991.399 3248.74 993.725 3249.49 996.375 3252.45 1004.01 3253.26 1004.79 3253.86 1005.38 3253.09 1001.58 3253.61 998.432 3254.3 994.191 3256.8 981.469 3257.44 979.348 3258.07 977.228 3257.44 983.844 3257.44 985.71 3257.44 987.576 3257.09 992.749 3257.44 990.544 3257.78 988.339 3259 976.995 3259.52 972.478 3260.04 967.962 3259.93 962.3 3260.57 963.445 3261.21 964.59 3262.89 975.638 3263.35 979.348 3263.74 982.504 3262.96 987.062 3263.35 985.71 3263.81 984.119 3265.67 971.651 3266.13 969.806 3266.6 967.961 3265.61 976.231 3266.13 974.641 3266.65 973.05 3268.74 961.855 3269.26 960.264 3269.79 958.674 3268.57 965.905 3269.26 965.099 3269.96 964.293 3271.99 957.826 3273.44 955.43 3274.89 953.033 3276.51 952.567 3277.96 950.722 3279.41 948.877 3280.69 946.481 3282.14 944.361 3283.58 942.24 3285.9 938 3286.66 938 3287.41 938 3286.19 945.167 3286.66 944.361 3287.12 943.555 3288.75 935.815 3289.44 933.165 3290.06 930.791 3290.42 930.109 3290.83 928.458 3291.3 926.613 3291.24 924.492 3292.22 922.096 3293.21 919.7 3295.99 914.611 3296.75 914.081 3297.5 913.551 3296.05 920.23 3296.75 918.916 3297.44 917.601 3300.23 907.529 3300.92 906.193 3301.62 904.857 3300.4 911.96 3300.92 910.9 3301.44 909.84 3303.07 902.737 3304.05 899.832 3305.04 896.927 3305.91 896.142 3306.83 893.47 3307.76 890.799 3309.15 884.607 3309.62 883.801 3310.08 882.995 3308.81 889.781 3309.62 888.636 3310.43 887.49 3313.04 880.917 3314.49 876.931 3315.94 872.945 3317.68 865.947 3318.32 864.717 3318.95 863.487 3317.79 870.612 3318.32 869.552 3318.84 868.491 3320.46 861.282 3321.45 858.356 3322.43 855.43 3323.3 854.115 3324.23 851.995 3325.16 849.874 3326.03 848.814 3327.01 845.633 3328 842.453 3329.62 833.971 3330.14 832.911 3330.67 831.85 3329.68 840.862 3330.14 839.272 3330.61 837.681 3332.46 825.213 3332.93 823.369 3333.39 821.524 3332.46 829.263 3332.93 828.203 3333.39 827.143 3334.72 819.933 3335.71 817.007 3336.69 814.081 3337.85 812.766 3338.84 810.646 3339.83 808.525 3340.7 806.405 3341.62 804.284 3342.55 802.164 3343.42 800.574 3344.41 797.923 3345.39 795.273 3347.02 789.187 3347.54 788.381 3348.06 787.575 3347.07 794.679 3347.54 793.089 3348 791.498 3349.86 780.43 3350.32 778.839 3350.78 777.249 3349.86 785.137 3350.32 783.547 3350.78 781.956 3352.64 770.887 3353.1 769.297 3353.57 767.707 3352.58 775.595 3353.1 774.005 3353.62 772.414 3355.71 761.346 3356.23 759.755 3356.76 758.165 3355.77 766.074 3356.23 764.463 3356.7 762.851 3358.55 751.676 3359.02 750.086 3359.48 748.495 3358.55 756.511 3359.02 754.921 3359.48 753.33 3361.34 742.134 3361.8 740.544 3362.26 738.954 3361.28 747.499 3361.8 745.379 3362.32 743.258 3364.41 729.687 3364.93 727.821 3365.45 725.955 3364.47 735.773 3364.93 734.183 3365.4 732.592 3367.25 720.124 3367.71 718.28 3368.18 716.435 3367.25 724.704 3367.71 723.114 3368.18 721.523 3370.03 710.328 3370.5 708.737 3370.96 707.147 3369.98 715.692 3370.5 713.572 3371.02 711.452 3373.11 697.881 3373.63 696.015 3374.15 694.149 3373.16 703.966 3373.63 702.376 3374.09 700.786 3375.95 688.317 3376.41 686.473 3376.88 684.628 3375.95 693.428 3376.41 691.307 3376.88 689.187 3378.73 675.616 3379.19 673.75 3379.66 671.884 3378.73 682.232 3379.19 680.112 3379.66 677.991 3381.51 663.148 3381.98 661.028 3382.44 658.907 3381.46 668.979 3381.98 667.389 3382.5 665.798 3384.59 653.351 3385.11 651.486 3385.63 649.619 3384.64 658.313 3385.11 656.193 3385.57 654.072 3387.43 640.608 3387.89 638.763 3388.36 636.918 3387.43 647.244 3387.89 645.124 3388.36 643.004 3390.21 628.16 3390.67 626.04 3391.14 623.92 3390.15 634.543 3390.67 632.402 3391.2 630.26 3393.28 615.332 3393.81 613.19 3394.33 611.048 3393.34 621.672 3393.81 619.552 3394.27 617.431 3396.12 602.588 3396.59 600.468 3397.05 598.347 3396.12 609.48 3396.59 606.829 3397.05 604.179 3398.91 587.215 3399.37 584.565 3399.84 581.914 3399.37 589.059 3399.37 590.926 3399.37 592.325 3398.98 598.146 3399.37 595.76 3399.89 592.58 3401.98 574.768 3402.5 571.842 3403.02 568.915 3402.04 580.323 3402.5 578.203 3402.97 576.083 3404.82 561.239 3405.29 559.119 3405.75 556.999 3404.82 567.601 3405.29 565.481 3405.75 563.36 3407.6 548.517 3408.07 546.396 3408.53 544.276 3407.55 555.408 3408.07 552.758 3408.59 550.107 3410.68 533.143 3411.2 530.493 3411.72 527.842 3411.2 535.01 3411.2 536.855 3411.2 538.205 3410.86 543.891 3411.2 541.562 3411.66 538.381 3413.52 520.676 3413.98 517.771 3414.45 514.866 3413.52 526.252 3413.98 524.132 3414.45 522.011 3416.3 507.168 3416.77 505.048 3417.23 502.927 3416.24 514.081 3416.77 511.409 3417.29 508.737 3419.37 491.668 3419.9 489.018 3420.42 486.367 3419.9 493.64 3419.9 495.506 3419.9 497.125 3419.49 502.532 3419.9 500.213 3420.36 497.541 3422.22 482.126 3422.68 479.475 3423.1 477.094 3422.26 486.215 3422.68 484.31 3423.14 482.19 3425 468.619 3425.46 466.753 3425.93 464.887 3424.94 474.704 3425.46 473.114 3425.98 471.523 3428.07 459.055 3428.59 457.211 3429.12 455.366 3428.13 463.106 3428.59 462.045 3429.06 460.985 3430.45 453.775 3431.38 450.849 3432.3 447.923 3433.17 446.608 3434.16 444.488 3435.15 442.368 3436.07 440.247 3437.29 438.127 3438.51 436.006 3439.78 433.886 3441.47 431.765 3443.15 429.645 3445.41 427.525 3447.38 425.404 3449.35 423.284 3451.38 420.633 3453.29 419.043 3455.21 417.452 3456.95 417.452 3458.86 415.862 3460.77 414.272 3462.8 411.621 3464.77 409.501 3466.74 407.38 3468.77 405.26 3470.69 403.14 3472.6 401.019 3474.34 398.898 3476.25 396.778 3478.17 394.658 3480.49 392.283 3482.17 390.417 3483.85 388.551 3485.12 387.173 3486.34 385.582 3487.56 383.992 3488.25 382.72 3489.47 380.875 3490.69 379.03 3491.97 376.379 3493.65 374.514 3495.33 372.647 3497.65 371.269 3499.56 369.679 3501.47 368.088 3503.21 366.562 3505.13 364.971 3507.04 363.381 3509.07 361.473 3511.04 360.137 3513.01 358.801 3515.04 357.762 3516.96 356.956 3518.87 356.15 3520.61 355.832 3522.52 355.302 3524.43 354.772 3526.46 353.5 3528.44 353.776 3530.41 354.051 3532.44 356.426 3534.35 356.956 3536.26 357.486 3538 356.426 3539.92 356.956 3541.83 357.486 3543.86 358.801 3545.83 360.137 3547.8 361.473 3549.83 363.105 3551.74 364.971 3553.66 366.837 3555.4 369.488 3557.31 371.333 3559.22 373.177 3561.25 374.45 3563.22 376.04 3565.2 377.63 3567.22 379.009 3569.14 380.875 3571.05 382.741 3572.79 385.115 3574.7 387.236 3576.62 389.356 3578.65 391.753 3580.62 393.597 3582.59 395.442 3584.62 396.714 3586.53 398.305 3588.44 399.895 3590.18 401.803 3592.1 403.14 3594.01 404.475 3596.04 405.005 3598.01 406.32 3599.98 407.634 3602.01 409.437 3603.93 411.027 3605.84 412.618 3607.81 414.802 3609.49 415.862 3611.17 416.922 3612.8 416.328 3614.01 417.389 3615.23 418.449 3615.81 420.612 3616.8 422.224 3617.78 423.835 3618.94 425.467 3619.93 427.058 3620.91 428.648 3621.78 429.92 3622.71 431.765 3623.64 433.61 3624.57 436.006 3625.49 438.127 3626.42 440.247 3627.29 442.368 3628.28 444.488 3629.26 446.608 3630.42 448.729 3631.41 450.849 3632.39 452.97 3633.73 455.345 3634.19 457.211 3634.66 459.077 3633.73 460.455 3634.19 462.045 3634.66 463.636 3636.51 465.162 3636.97 466.753 3637.44 468.343 3636.45 469.997 3636.97 471.587 3637.5 473.177 3639.58 474.704 3640.11 476.295 3640.63 477.885 3639.64 479.539 3640.11 481.129 3640.57 482.72 3642.42 483.971 3642.89 485.837 3643.35 487.703 3642.42 490.183 3642.89 492.325 3643.35 494.467 3645.21 496.842 3645.67 498.687 3646.14 500.531 3645.15 501.804 3645.67 503.394 3646.19 504.984 3648.28 506.362 3648.8 508.228 3649.32 510.094 3648.34 512.469 3648.8 514.59 3649.27 516.71 3651.12 519.106 3651.59 520.951 3652.05 522.796 3651.12 524.068 3651.59 525.659 3652.05 527.249 3653.9 528.627 3654.37 530.493 3654.83 532.359 3653.85 534.734 3654.37 536.855 3654.89 538.975 3656.98 541.371 3657.5 543.216 3658.02 545.061 3657.04 546.333 3657.5 547.923 3657.96 549.514 3659.82 550.892 3660.28 552.758 3660.75 554.624 3659.82 556.999 3660.28 559.119 3660.75 561.239 3662.6 563.614 3663.07 565.481 3663.53 567.346 3662.54 568.725 3663.07 570.315 3663.59 571.905 3665.67 573.177 3666.2 575.022 3666.72 576.867 3665.73 579.263 3666.2 581.384 3666.66 583.504 3668.52 585.879 3668.98 587.745 3669.44 589.611 3668.52 590.989 3668.98 592.58 3669.44 594.17 3671.3 595.697 3671.76 597.287 3672.23 598.877 3671.24 600.531 3671.76 602.122 3672.28 603.712 3674.37 605.239 3674.89 606.829 3675.42 608.419 3674.43 610.073 3674.89 611.664 3675.36 613.254 3677.21 614.526 3677.68 616.371 3678.14 618.216 3677.21 620.591 3677.68 622.732 3678.14 624.874 3680 627.355 3680.46 629.221 3680.92 631.087 3679.94 632.338 3680.46 633.928 3680.98 635.518 3683.07 637.172 3683.59 638.763 3684.11 640.353 3683.13 641.88 3683.59 643.47 3684.05 645.061 3685.91 646.714 3686.37 648.305 3686.84 649.895 3685.91 651.422 3686.37 653.012 3686.84 654.602 3688.69 656.256 3689.16 657.847 3689.62 659.437 3688.63 660.964 3689.16 662.554 3689.68 664.145 3691.77 665.798 3692.29 667.389 3692.81 668.979 3691.82 670.506 3692.29 672.096 3692.75 673.686 3694.14 675.065 3695.07 676.931 3696 678.797 3697.39 681.447 3697.85 683.292 3698.32 685.137 3697.33 686.409 3697.85 688 3698.38 689.59 3700.46 691.222 3700.98 692.834 3701.51 694.446 3700.52 696.078 3700.98 697.669 3701.45 699.259 3702.84 700.531 3703.77 702.376 3704.7 704.221 3706.09 706.871 3706.55 708.737 3707.01 710.603 3706.03 711.982 3706.55 713.572 3707.07 715.162 3709.16 716.689 3709.68 718.28 3710.2 719.87 3709.22 721.523 3709.68 723.114 3710.15 724.704 3711.54 725.976 3712.46 727.821 3713.39 729.666 3714.78 732.317 3715.25 734.183 3715.71 736.049 3714.73 737.427 3715.25 739.018 3715.77 740.608 3717.39 741.88 3718.38 743.725 3719.36 745.569 3720.23 747.965 3721.16 750.086 3722.09 752.206 3723.48 754.581 3723.94 756.447 3724.41 758.313 3723.42 759.67 3723.94 761.282 3724.47 762.894 3726.09 764.25 3727.08 766.117 3728.06 767.982 3728.93 770.357 3729.86 772.478 3730.79 774.598 3731.66 776.719 3732.64 778.839 3733.63 780.96 3735.25 783.356 3735.77 785.201 3736.29 787.045 3735.31 788.317 3735.77 789.908 3736.24 791.498 3737.86 792.876 3738.56 794.743 3739.25 796.609 3738.96 799.514 3739.95 801.104 3740.93 802.694 3743.02 802.44 3744.47 804.284 3745.92 806.129 3747.72 809.798 3748.64 812.173 3749.57 814.547 3749.28 816.668 3750.04 818.534 3750.79 820.4 3752.41 821.503 3753.17 823.369 3753.92 825.235 3753.63 827.609 3754.56 829.73 3755.49 831.85 3757.52 833.971 3758.73 836.091 3759.95 838.212 3760.53 840.502 3761.86 842.453 3763.2 844.403 3765.28 845.676 3766.73 847.796 3768.18 849.917 3769.92 852.885 3770.56 855.175 3771.2 857.465 3769.75 859.501 3770.56 861.537 3771.37 863.572 3773.98 865.268 3775.43 867.389 3776.88 869.509 3778.39 872.054 3779.26 874.259 3780.13 876.464 3779.72 878.5 3780.65 880.621 3781.58 882.741 3783.61 884.84 3784.82 886.982 3786.04 889.124 3786.74 891.329 3787.95 893.47 3789.17 895.612 3790.39 897.902 3792.13 899.832 3793.87 901.761 3796.48 902.673 3798.39 905.048 3800.3 907.423 3801.99 911.24 3803.61 914.081 3805.23 916.922 3807.38 919.976 3808.13 922.096 3808.89 924.217 3807.44 925.34 3808.13 926.804 3808.83 928.266 3810.86 930.599 3812.31 930.875 3813.76 931.151 3816.07 928.076 3816.83 928.458 3817.58 928.839 3816.37 931.574 3816.83 933.165 3817.29 934.755 3819.15 936.409 3819.61 938 3820.08 939.59 3818.86 941.117 3819.61 942.707 3820.37 944.297 3823.15 945.951 3824.13 947.542 3825.12 949.132 3824.6 950.658 3825.53 952.249 3826.45 953.839 3828.25 956.808 3829.7 957.084 3831.15 957.359 3833.01 953.373 3834.22 953.903 3835.44 954.433 3836.54 958.398 3837.01 960.264 3837.46 962.104 3836.49 962.737 3837.01 965.099 3837.53 967.495 3839.33 973.941 3840.14 974.641 3840.95 975.341 3840.95 968.237 3841.88 969.297 3842.8 970.358 3844.83 979.984 3845.7 981.002 3846.57 982.02 3846.11 976.74 3847.09 975.404 3848.08 974.068 3850.4 972.329 3851.62 972.987 3852.83 973.644 3853.94 977.228 3854.4 979.348 3854.86 981.469 3854.4 983.844 3854.4 985.71 3854.4 987.379 3853.93 988.172 3854.4 990.544 3854.92 993.195 3856.78 1001.08 3857.53 1001.61 3858.29 1002.14 3858 995.315 3858.92 993.725 3859.85 992.134 3861.65 991.54 3863.1 992.071 3864.55 992.601 3866.4 996.906 3867.62 996.906 3868.84 996.906 3869.71 993.937 3870.4 992.071 3871.1 990.205 3871.56 984.904 3871.79 985.71 3872.03 986.516 3871.33 993.195 3871.79 996.906 3872.26 1000.62 3873.82 1007.19 3874.58 1007.97 3875.33 1008.76 3875.1 1003.86 3876.32 1001.61 3877.53 999.365 3880.72 996.608 3881.88 994.488 3883.04 992.367 3882.52 988.233 3883.27 988.89 3884.03 989.547 3885.65 995.909 3886.41 998.432 3887.16 1000.96 3886.87 1001.91 3887.8 1004.03 3888.72 1006.15 3890.75 1008.91 3891.97 1011.15 3893.19 1013.4 3894.35 1015.4 3895.1 1017.52 3895.86 1019.64 3895.28 1021.88 3896.49 1023.88 3897.71 1025.87 3901.19 1030.54 3902.41 1029.48 3903.63 1028.42 3903.57 1018.45 3903.8 1017.52 3904.03 1016.58 3903.33 1026.53 3903.8 1023.88 3904.26 1021.23 3906.12 1003.46 3906.58 1001.61 3907.05 999.768 3906.35 1011.47 3906.58 1012.81 3906.81 1014.14 3907.51 1008.84 3907.97 1009.63 3908.41 1010.36 3908.66 1013.57 3909.37 1017.52 3910.12 1021.76 3911.74 1033.74 3912.5 1035.07 3913.25 1036.41 3913.66 1026.06 3913.89 1025.53 3914.12 1025 3913.66 1029.5 3913.89 1031.89 3914.12 1034.29 3914.58 1042.83 3915.28 1039.91 3915.98 1036.98 3917.6 1017.54 3918.06 1014.34 3918.52 1011.19 3917.78 1021.74 3918.06 1020.7 3918.35 1019.64 3919.28 1011.15 3919.8 1007.97 3920.32 1004.79 3920.5 1000.55 3921.19 1001.61 3921.89 1002.67 3923.51 1011.15 3923.98 1014.34 3924.44 1017.48 3923.98 1018.85 3923.98 1020.7 3923.98 1022.56 3923.22 1023.67 3923.98 1025.53 3924.73 1027.4 3927.75 1029.77 3928.5 1031.89 3929.25 1034.01 3928.27 1036.13 3928.5 1038.25 3928.71 1040.21 3929.25 1047.81 3929.89 1044.62 3930.59 1041.16 3932.21 1020.97 3932.67 1017.52 3933.1 1014.36 3932.67 1021.92 3932.67 1023.88 3932.67 1026.02 3932.67 1028.5 3932.67 1030.37 3932.67 1031.54 3932.38 1032.74 3932.67 1035.07 3933.14 1038.78 3934.99 1048.92 3935.46 1052.63 3935.75 1054.97 3935.27 1058.67 3935.46 1057.34 3935.75 1055.22 3936.91 1041.9 3937.2 1039.91 3937.49 1037.92 3936.96 1046.44 3937.2 1045.38 3937.43 1044.32 3937.89 1037.13 3938.59 1033.55 3939.28 1029.96 3940.67 1024.56 3941.37 1023.88 3942.07 1023.2 3942.3 1027.33 3942.76 1029.48 3943.23 1031.62 3943.63 1034.61 3944.15 1036.73 3944.68 1038.85 3945.08 1040.16 3945.89 1042.2 3946.7 1044.23 3948.33 1050.38 3949.02 1048.94 3949.72 1047.5 3949.89 1035.05 3950.07 1033.55 3950.22 1032.27 3949.67 1036.75 3950.07 1039.91 3950.53 1043.62 3952.39 1052.1 3952.85 1055.81 3953.24 1058.97 3952.85 1060.37 3952.85 1062.17 3952.85 1063.97 3952.41 1071.68 3952.85 1068.53 3953.37 1064.82 3955.46 1043.62 3955.98 1039.91 3956.42 1036.76 3955.98 1044.7 3955.98 1046.27 3955.98 1047.88 3955.58 1048.66 3955.98 1050.98 3956.45 1053.63 3957.95 1061.45 3958.76 1062.17 3959.58 1062.89 3959.87 1057.17 3960.85 1055.3 3961.84 1053.44 3963.75 1052.48 3964.68 1050.98 3965.61 1049.47 3965.95 1045.46 3966.42 1046.27 3966.88 1047.08 3967.29 1053.44 3967.46 1055.81 3967.54 1056.86 3967.26 1062.86 3967.46 1060.52 3967.93 1055.2 3969.78 1028.9 3970.24 1023.88 3970.54 1020.65 3970.24 1028.99 3970.24 1030.37 3970.24 1032.51 3970.24 1034.88 3970.24 1036.73 3970.24 1038.57 3969.72 1039.84 3970.24 1041.43 3970.77 1043.03 3972.85 1044.4 3973.38 1046.27 3973.9 1048.14 3973.38 1049.73 3973.38 1052.63 3973.38 1055.54 3973.14 1062.38 3973.38 1063.7 3973.61 1065.01 3974.07 1059.71 3974.77 1060.52 3975.46 1061.32 3976.85 1066.14 3977.55 1068.53 3978.25 1070.93 3978.71 1072.77 3978.94 1074.9 3979.14 1076.7 3978.5 1084.41 3978.94 1081.26 3979.46 1077.55 3981.55 1056.34 3982.07 1052.63 3982.52 1049.48 3982.07 1057.43 3982.07 1058.99 3982.07 1060.84 3981.61 1062.11 3982.07 1063.7 3982.54 1065.29 3984.16 1066.67 3984.86 1068.53 3985.55 1070.4 3985.78 1072.77 3986.25 1074.9 3986.71 1077.02 3986.88 1079.14 3987.64 1081.26 3988.39 1083.38 3990.25 1085.77 3990.77 1087.62 3991.29 1089.46 3990.31 1093.92 3990.77 1092.33 3991.23 1090.73 3993.09 1079.67 3993.55 1078.08 3993.84 1077.08 3993.26 1085.12 3993.55 1082.78 3994.02 1079.07 3995.87 1059.25 3996.34 1055.81 3996.76 1052.66 3996.34 1060.23 3996.34 1062.17 3996.34 1064.29 3996.34 1066.69 3996.34 1068.53 3996.34 1069.28 3996.13 1075.59 3996.34 1073.24 3996.86 1067.41 3998.94 1039.1 3999.47 1033.55 3999.76 1030.38 3999.47 1038.7 3999.47 1039.91 3999.47 1042.03 3999.23 1044.3 3999.47 1046.27 3999.7 1048.24 4000.39 1049.62 4000.86 1051.74 4001.32 1053.86 4002.02 1056.72 4002.25 1058.99 4002.48 1061.26 4002.25 1063.23 4002.25 1065.35 4002.25 1067.47 4002.25 1069.59 4002.25 1071.71 4002.25 1073.81 4001.79 1074.93 4002.25 1078.08 4002.71 1081.26 4004.22 1089.82 4005.03 1090.8 4005.84 1091.77 4006.13 1086.32 4007.12 1083.93 4008.11 1081.53 4009.96 1078.54 4010.95 1076.42 4011.93 1074.3 4012.05 1071.99 4013.03 1071.21 4014.02 1070.42 4016.22 1070.57 4016.86 1071.71 4017.5 1072.86 4016.4 1079.14 4016.86 1078.08 4017.32 1077.02 4018.95 1069.59 4019.64 1065.35 4020.34 1061.11 4020.8 1053.69 4021.04 1052.63 4021.27 1051.57 4020.8 1061.11 4021.04 1058.99 4021.27 1056.87 4022.19 1042.03 4022.43 1039.91 4022.54 1038.85 4022.17 1043.1 4022.43 1046.27 4022.95 1052.63 4025.04 1071.71 4025.56 1078.08 4025.82 1081.25 4025.44 1085.49 4025.56 1084.44 4025.79 1082.32 4026.72 1067.6 4026.95 1065.35 4027.18 1063.11 4026.37 1072.01 4026.95 1070.95 4027.53 1069.89 4029.73 1059.67 4030.43 1058.99 4031.12 1058.31 4030.49 1063.7 4031.12 1066.88 4031.76 1070.06 4033.5 1077.27 4034.25 1078.08 4035.01 1078.88 4034.72 1072.77 4035.65 1071.71 4036.57 1070.65 4039.12 1070.65 4039.82 1071.71 4040.52 1072.77 4039.3 1080.2 4039.82 1078.08 4040.34 1075.96 4042.43 1061.11 4042.95 1058.99 4043.47 1056.87 4042.49 1066.16 4042.95 1065.35 4043.42 1064.55 4044.98 1056.81 4045.73 1054.16 4046.42 1051.74 4047.05 1051.61 4047.47 1049.45 4047.94 1047.08 4047.82 1038.32 4048.52 1039.91 4049.21 1041.5 4051.13 1054.75 4051.65 1058.99 4052.04 1062.15 4051.48 1063.68 4051.65 1065.35 4051.88 1067.6 4051.88 1071.16 4053.04 1072.48 4054.2 1073.79 4056.92 1073.9 4058.61 1073.24 4060.29 1072.58 4062.38 1068.26 4063.13 1068.53 4063.88 1068.81 4063.13 1072.77 4063.13 1074.9 4063.13 1077.02 4062.9 1079.26 4063.13 1081.26 4063.36 1083.25 4064.06 1084.73 4064.52 1086.85 4064.98 1088.98 4065.68 1091.73 4065.91 1093.98 4066.14 1096.23 4065.91 1098.47 4065.91 1100.34 4065.91 1101.86 4065.49 1107.55 4065.91 1105.18 4066.43 1102.25 4068.29 1088.11 4069.04 1082.78 4069.72 1078.01 4070.23 1073.72 4070.43 1073.24 4070.67 1072.71 4070.38 1080.92 4070.43 1079.6 4070.49 1078.29 4070.09 1060.84 4070.78 1065.35 4071.48 1069.87 4073.74 1102.74 4074.61 1106.7 4075.48 1110.67 4075.77 1090.99 4076 1089.14 4076.23 1087.3 4076 1093.49 4076 1095.63 4076 1097.56 4075.32 1105.1 4076 1101.99 4076.75 1098.54 4079.77 1078.35 4080.52 1074.9 4081.2 1071.79 4080.31 1079.46 4080.52 1081.26 4080.75 1083.25 4081.45 1084.73 4081.91 1086.85 4082.38 1088.98 4082.55 1094.91 4083.31 1093.98 4084.06 1093.05 4085.68 1082.44 4086.44 1081.26 4087.19 1080.07 4086.9 1086.85 4087.83 1086.85 4088.76 1086.85 4091.31 1081.41 4092 1081.26 4092.67 1081.11 4091.5 1083.66 4092 1085.96 4092.52 1088.36 4094.38 1095.1 4095.13 1095.63 4095.89 1096.16 4095.83 1091.82 4096.53 1089.14 4097.22 1086.47 4098.61 1082.51 4099.31 1079.6 4100 1076.7 4099.95 1069.85 4100.7 1071.71 4101.45 1073.58 4103.08 1088.81 4103.83 1090.8 4104.58 1092.79 4104.76 1085.79 4105.22 1083.67 4105.69 1081.55 4106.15 1080.07 4106.61 1078.08 4107.08 1076.08 4107.54 1074.9 4108.01 1071.71 4108.47 1068.53 4109.17 1060.05 4109.4 1058.99 4109.57 1058.2 4109.05 1062.19 4109.4 1065.35 4109.86 1069.59 4111.72 1080.2 4112.18 1084.44 4112.53 1087.6 4111.96 1091.4 4112.18 1090.8 4112.47 1089.99 4112.93 1080.13 4113.92 1079.6 4114.91 1079.07 4116.64 1086.81 4118.09 1087.62 4119.54 1088.42 4120.94 1084.44 4122.62 1084.44 4124.3 1084.44 4127.14 1088.15 4128.18 1087.62 4129.23 1087.09 4128.65 1083.91 4128.88 1081.26 4129.11 1078.61 4128.94 1070.12 4129.57 1071.71 4130.21 1073.3 4132.18 1086.56 4132.71 1090.8 4133.09 1093.96 4132.71 1095.58 4132.71 1097.16 4132.71 1099.28 4132.71 1101.4 4132.71 1103.52 4132.71 1104.67 4132.45 1113.05 4132.71 1109.88 4133.17 1104.05 4135.02 1074.36 4135.49 1068.53 4135.74 1065.36 4135.36 1073.74 4135.49 1074.9 4135.72 1077.02 4136.65 1079.26 4136.88 1081.26 4137.11 1083.25 4136.65 1084.73 4136.88 1086.85 4137.11 1088.98 4137.75 1091.46 4138.27 1093.98 4138.79 1096.5 4139.49 1099.34 4140.01 1101.99 4140.53 1104.64 4141.17 1107.76 4141.4 1109.88 4141.63 1112 4140.94 1116.56 4141.4 1114.72 4141.87 1112.87 4143.49 1103.08 4144.19 1098.81 4144.88 1094.55 4145.34 1089.67 4145.58 1089.14 4145.81 1088.61 4145.34 1093.24 4145.58 1095.63 4145.76 1097.51 4146.38 1107.48 4146.97 1103.52 4147.72 1098.47 4149.58 1070.65 4150.1 1065.35 4150.41 1062.19 4150.1 1070.45 4150.1 1071.71 4150.1 1073.83 4150.1 1075.96 4150.1 1078.08 4150.1 1080.1 4149.88 1087.61 4150.1 1084.44 4150.33 1081.11 4151.03 1064.46 4151.49 1058.1 4151.92 1052.16 4152.67 1047.12 4152.88 1046.27 4153.05 1045.63 4152.56 1049.47 4152.88 1052.63 4153.35 1057.13 4154.91 1070.46 4155.67 1073.24 4156.23 1075.32 4157.14 1070.68 4157.4 1069.3 4157.75 1067.45 4157.06 1061.24 4157.75 1062.17 4158.45 1063.11 4160.71 1071.46 4161.58 1074.9 4162.45 1078.33 4162.74 1080.66 4162.97 1082.78 4163.2 1084.9 4161.93 1088.4 4162.97 1087.62 4164.01 1086.83 4167.55 1077.29 4169.23 1078.08 4170.91 1078.86 4172.13 1090.86 4173.06 1092.33 4173.99 1093.79 4174.04 1088.7 4174.8 1086.85 4175.55 1085.01 4176.89 1083.25 4177.58 1081.26 4178.28 1079.26 4177.99 1073.58 4178.97 1074.9 4179.96 1076.21 4182.74 1085.96 4183.5 1089.14 4184.05 1091.5 4182.98 1093.38 4183.5 1093.98 4184.19 1094.79 4186.97 1092.92 4187.67 1093.98 4188.13 1094.68 4187.36 1103.51 4187.67 1100.34 4188.13 1095.57 4189.99 1070.12 4190.45 1065.35 4190.76 1062.19 4190.45 1070.31 4190.45 1071.71 4190.45 1073.83 4190.45 1075.96 4190.45 1078.08 4190.45 1080.2 4190.45 1082.59 4190.45 1084.44 4190.45 1085.07 4190.28 1091.49 4190.45 1089.14 4190.98 1082.25 4193.06 1049.7 4193.58 1043.09 4193.83 1039.92 4193.47 1048.43 4193.58 1049.45 4193.82 1051.57 4194.74 1053.82 4194.98 1055.81 4195.21 1057.8 4194.74 1059.29 4194.98 1061.41 4195.21 1063.53 4196.14 1066.29 4196.37 1068.53 4196.6 1070.78 4196.37 1072.77 4196.37 1074.9 4196.37 1077.02 4196.37 1079.41 4196.37 1081.26 4196.37 1082.21 4196.13 1083.62 4196.37 1085.96 4196.83 1090.48 4198.4 1106.21 4199.15 1108.36 4199.9 1110.5 4200.6 1099.49 4200.89 1098.81 4201.18 1098.14 4200.83 1105.62 4200.89 1104.28 4200.95 1102.95 4200.77 1094.76 4201.24 1090.8 4201.66 1087.22 4203.1 1085.76 4203.67 1080.49 4204.31 1074.66 4204.83 1058.86 4205.06 1055.81 4205.3 1052.76 4205.06 1060.05 4205.06 1062.17 4205.06 1064.29 4205.06 1066.41 4205.06 1068.53 4205.06 1070.65 4204.6 1072.24 4205.06 1074.9 4205.53 1077.55 4207.38 1081.79 4207.85 1084.44 4208.31 1087.09 4207.85 1088.68 4207.85 1090.8 4207.85 1092.92 4207.85 1095.04 4207.85 1097.16 4207.85 1098.31 4207.56 1106.69 4207.85 1103.52 4208.37 1097.69 4210.46 1068 4210.98 1062.17 4211.26 1059 4210.98 1067.38 4210.98 1068.53 4210.98 1070.65 4210.98 1073.05 4210.98 1074.9 4210.98 1076.06 4210.69 1077.27 4210.98 1079.6 4211.44 1083.31 4213.3 1093.43 4213.76 1097.16 4214.06 1099.56 4213.61 1103.36 4213.76 1101.99 4213.99 1099.87 4214.92 1086.43 4215.15 1084.44 4215.38 1082.44 4214.4 1089.51 4215.15 1090.04 4215.91 1090.57 4218.69 1086.96 4219.68 1087.62 4220.66 1088.27 4220.6 1091.86 4221.07 1093.98 4221.53 1096.1 4222.23 1098.47 4222.46 1100.34 4222.63 1101.74 4222.11 1107.57 4222.46 1105.18 4222.92 1101.99 4224.78 1084.18 4225.24 1081.26 4225.71 1078.33 4224.89 1088.68 4225.24 1087.62 4225.59 1086.56 4226.34 1074.64 4227.33 1074.9 4228.31 1075.15 4230.29 1087.68 4231.16 1089.14 4232.03 1090.61 4231.33 1084.46 4232.55 1083.67 4233.76 1082.89 4237.48 1083.38 4238.46 1084.44 4239.45 1085.5 4238.23 1087.91 4238.46 1090.04 4238.66 1091.88 4239.25 1100.74 4239.85 1097.16 4240.55 1093.05 4242.17 1069.59 4242.64 1065.35 4242.98 1062.19 4242.64 1070.13 4242.64 1071.71 4242.64 1073.81 4242.12 1074.94 4242.64 1078.08 4243.16 1081.26 4245.24 1087.62 4245.77 1090.8 4246.28 1093.94 4245.54 1098.33 4245.77 1097.16 4246 1095.97 4246.69 1087.91 4247.16 1083.67 4247.62 1079.43 4248.32 1072.65 4248.55 1071.71 4248.78 1070.78 4248.09 1075.96 4248.55 1078.08 4249.01 1080.2 4250.87 1082.32 4251.33 1084.44 4251.8 1086.56 4251.33 1088.93 4251.33 1090.8 4251.33 1092 4251 1098.03 4251.33 1095.63 4251.85 1091.92 4253.94 1071.21 4254.46 1068.53 4254.99 1065.86 4254.23 1078.29 4254.46 1079.6 4254.7 1080.92 4255.16 1075.36 4255.85 1076.42 4256.55 1077.48 4258.17 1083.31 4258.64 1085.96 4259.1 1088.61 4258.41 1089.93 4258.64 1092.33 4258.87 1094.72 4259.8 1098.2 4260.03 1100.34 4260.13 1101.22 4259.81 1107.58 4260.03 1105.18 4260.55 1099.34 4262.64 1070.93 4263.16 1065.35 4263.46 1062.19 4263.16 1070.06 4263.16 1071.71 4263.16 1074.62 4262.93 1081.47 4263.16 1082.78 4263.39 1084.1 4264.09 1078.8 4264.55 1079.6 4265.02 1080.41 4265.71 1085.5 4265.94 1087.62 4266.18 1089.74 4265.48 1093.66 4265.94 1092.33 4266.41 1090.99 4268.03 1082.38 4268.73 1079.6 4269.23 1077.57 4269.4 1075.46 4270.12 1075.66 4271.1 1075.93 4273.08 1079.35 4274.64 1081.26 4276.21 1083.17 4278.53 1087.64 4279.51 1087.11 4280.5 1086.58 4279.68 1081.45 4280.55 1078.08 4281.42 1074.7 4284.03 1067.81 4284.73 1066.88 4285.42 1065.95 4283.98 1073.79 4284.73 1072.48 4285.48 1071.16 4288.27 1060.31 4289.25 1058.99 4290.24 1057.68 4290.18 1062.47 4290.64 1064.59 4291.11 1066.71 4291.8 1069.47 4292.03 1071.71 4292.27 1073.96 4292.03 1076.23 4292.03 1078.08 4292.03 1079.24 4291.74 1080.45 4292.03 1082.78 4292.5 1086.49 4294.35 1096.61 4294.82 1100.34 4295.12 1102.74 4294.67 1106.54 4294.82 1105.18 4295.05 1103.05 4295.98 1089.61 4296.21 1087.62 4296.44 1085.62 4295.92 1094.28 4296.21 1093.22 4296.5 1092.16 4297.19 1084.84 4297.95 1081.26 4298.7 1077.67 4300.27 1072.52 4300.73 1071.71 4301.2 1070.91 4300.27 1074.83 4300.73 1076.42 4301.2 1078.01 4302.53 1079.39 4303.51 1081.26 4304.5 1083.12 4306.12 1085.5 4306.65 1087.62 4307.12 1089.53 4306.02 1090.86 4306.65 1093.98 4307.34 1097.44 4310.07 1107.3 4310.82 1108.36 4311.57 1109.42 4310.41 1103.8 4311.17 1100.34 4311.92 1096.88 4314.65 1088.95 4315.34 1087.62 4316.04 1086.28 4315.11 1093.39 4315.34 1092.33 4315.57 1091.26 4315.81 1084.69 4316.73 1081.26 4317.66 1077.82 4320.21 1072.24 4320.91 1071.71 4321.6 1071.18 4320.91 1075.96 4320.91 1078.08 4320.91 1080.2 4320.91 1082.59 4320.91 1084.44 4320.91 1085.25 4320.68 1091.49 4320.91 1089.14 4321.43 1083.84 4323.52 1056.6 4324.04 1052.63 4324.56 1048.67 4323.81 1064.04 4324.04 1065.35 4324.27 1066.67 4324.5 1062.11 4325.43 1060.52 4326.36 1058.93 4328.91 1055.54 4329.61 1055.81 4330.3 1056.09 4329.61 1060.05 4329.61 1062.17 4329.61 1063.75 4329.22 1065.38 4329.61 1068.53 4330.13 1072.77 4331.98 1086.56 4332.74 1087.62 4333.49 1088.68 4333.9 1075.96 4334.13 1074.9 4334.35 1073.86 4333.45 1078.15 4334.13 1081.26 4334.82 1084.44 4337.26 1092.92 4338.3 1093.98 4339.35 1095.04 4339.4 1090.8 4340.39 1087.62 4341.38 1084.44 4343.58 1075.96 4344.22 1074.9 4344.85 1073.83 4343.98 1079.14 4344.22 1081.26 4344.45 1083.38 4345.14 1085.5 4345.61 1087.62 4346.07 1089.74 4346.77 1091.86 4347 1093.98 4347.23 1096.1 4347 1098.47 4347 1100.34 4347 1101.11 4346.78 1107.58 4347 1105.18 4347.52 1099.34 4349.61 1070.93 4350.13 1065.35 4350.43 1062.19 4350.13 1070.51 4350.13 1071.71 4350.13 1073.83 4350.13 1076.23 4350.13 1078.08 4350.13 1079.24 4349.84 1080.45 4350.13 1082.78 4350.59 1086.49 4352.22 1099.28 4352.91 1100.34 4353.61 1101.4 4354.07 1089.93 4354.31 1089.14 4354.54 1088.36 4353.61 1096.16 4354.31 1095.63 4355 1095.1 4357.49 1088.64 4358.48 1085.96 4359.47 1083.29 4359 1079.98 4360.22 1079.6 4361.44 1079.22 4364.63 1081.81 4365.79 1083.67 4366.94 1085.54 4366.42 1087.49 4367.18 1090.8 4367.93 1094.11 4369.55 1102.72 4370.31 1103.52 4371.06 1104.33 4370.48 1097.22 4371.7 1095.63 4372.92 1094.04 4376.63 1093.19 4377.61 1093.98 4378.6 1094.76 4377.61 1098.35 4377.61 1100.34 4377.61 1102.33 4377.38 1103.82 4377.61 1105.94 4377.85 1108.06 4378.77 1111.07 4379 1113.06 4379.08 1113.71 4378.85 1120.31 4379 1117.9 4379.47 1110.48 4381.32 1075.7 4381.79 1068.53 4381.99 1065.36 4381.79 1073.96 4381.79 1074.9 4381.79 1077.02 4381.79 1079.14 4381.79 1081.26 4381.79 1083.38 4381.03 1085.5 4381.79 1087.62 4382.54 1089.74 4385.56 1091.86 4386.31 1093.98 4387.06 1096.1 4386.31 1098.22 4386.31 1100.34 4386.31 1102.46 4386.31 1104.58 4386.31 1106.7 4386.31 1107.61 4386.01 1116.23 4386.31 1113.06 4387.01 1105.64 4389.79 1069.59 4390.49 1062.17 4390.78 1059.01 4390.49 1067.63 4390.49 1068.53 4390.49 1070.65 4390.49 1071.99 4390.49 1074.9 4390.49 1077.8 4390.25 1084.65 4390.49 1085.96 4390.72 1087.28 4391.41 1081.98 4391.88 1082.78 4392.34 1083.59 4393.04 1088.13 4393.27 1090.8 4393.5 1093.47 4393.27 1096.14 4393.27 1098.81" stroke="#4472C4" stroke-width="6.875" stroke-linecap="round" stroke-linejoin="round" stroke-miterlimit="10" fill="none"/></g><g><text fill="#595959" font-family="Calibri,Calibri_MSFontService,sans-serif" font-weight="400" font-size="50" transform="matrix(1 0 0 1 2716.31 1142)">-70</text></g><g><text fill="#595959" font-family="Calibri,Calibri_MSFontService,sans-serif" font-weight="400" font-size="50" transform="matrix(1 0 0 1 2716.31 1015)">-60</text></g><g><text fill="#595959" font-family="Calibri,Calibri_MSFontService,sans-serif" font-weight="400" font-size="50" transform="matrix(1 0 0 1 2716.31 888)">-50</text></g><g><text fill="#595959" font-family="Calibri,Calibri_MSFontService,sans-serif" font-weight="400" font-size="50" transform="matrix(1 0 0 1 2716.31 760)">-40</text></g><g><text fill="#595959" font-family="Calibri,Calibri_MSFontService,sans-serif" font-weight="400" font-size="50" transform="matrix(1 0 0 1 2716.31 633)">-30</text></g><g><text fill="#595959" font-family="Calibri,Calibri_MSFontService,sans-serif" font-weight="400" font-size="50" transform="matrix(1 0 0 1 2716.31 506)">-20</text></g><g><text fill="#595959" font-family="Calibri,Calibri_MSFontService,sans-serif" font-weight="400" font-size="50" transform="matrix(1 0 0 1 2716.31 379)">-10</text></g><g><text fill="#595959" font-family="Calibri,Calibri_MSFontService,sans-serif" font-weight="400" font-size="50" transform="matrix(1 0 0 1 2757.31 251)">0</text></g><g><text fill="#595959" font-family="Calibri,Calibri_MSFontService,sans-serif" font-weight="400" font-size="50" transform="matrix(1 0 0 1 2804.09 1208)">50</text></g><g><text fill="#595959" font-family="Calibri,Calibri_MSFontService,sans-serif" font-weight="400" font-size="50" transform="matrix(1 0 0 1 2978 1208)">55</text></g><g><text fill="#595959" font-family="Calibri,Calibri_MSFontService,sans-serif" font-weight="400" font-size="50" transform="matrix(1 0 0 1 3151.91 1208)">60</text></g><g><text fill="#595959" font-family="Calibri,Calibri_MSFontService,sans-serif" font-weight="400" font-size="50" transform="matrix(1 0 0 1 3325.81 1208)">65</text></g><g><text fill="#595959" font-family="Calibri,Calibri_MSFontService,sans-serif" font-weight="400" font-size="50" transform="matrix(1 0 0 1 3499.72 1208)">70</text></g><g><text fill="#595959" font-family="Calibri,Calibri_MSFontService,sans-serif" font-weight="400" font-size="50" transform="matrix(1 0 0 1 3673.63 1208)">75</text></g><g><text fill="#595959" font-family="Calibri,Calibri_MSFontService,sans-serif" font-weight="400" font-size="50" transform="matrix(1 0 0 1 3847.54 1208)">80</text></g><g><text fill="#595959" font-family="Calibri,Calibri_MSFontService,sans-serif" font-weight="400" font-size="50" transform="matrix(1 0 0 1 4021.45 1208)">85</text></g><g><text fill="#595959" font-family="Calibri,Calibri_MSFontService,sans-serif" font-weight="400" font-size="50" transform="matrix(1 0 0 1 4195.35 1208)">90</text></g><g><text fill="#595959" font-family="Calibri,Calibri_MSFontService,sans-serif" font-weight="400" font-size="55" transform="matrix(6.12323e-17 -1 1 6.12323e-17 2669.08 890)">Insertion loss [dB]</text></g><g><text fill="#595959" font-family="Calibri,Calibri_MSFontService,sans-serif" font-weight="400" font-size="55" transform="matrix(1 0 0 1 3332.58 1301)">Frequency [MHz]</text></g><g><path d="M3269.5 136.5 3357.5 136.5" stroke="#4472C4" stroke-width="6.875" stroke-linecap="round" stroke-linejoin="round" stroke-miterlimit="10" fill="none" fill-rule="evenodd"/></g><g><text fill="#595959" font-family="Calibri,Calibri_MSFontService,sans-serif" font-weight="400" font-size="55" transform="matrix(1 0 0 1 3366.82 152)">BPF 70MHz</text></g></g></svg>