<svg width="1718" height="1298" xmlns="http://www.w3.org/2000/svg" xmlns:xlink="http://www.w3.org/1999/xlink" xml:space="preserve" overflow="hidden"><defs><clipPath id="clip0"><rect x="2582" y="1461" width="1718" height="1298"/></clipPath></defs><g clip-path="url(#clip0)" transform="translate(-2582 -1461)"><rect x="2582" y="1461" width="1718" height="1298" fill="#FFFFFF"/><g><path d="M2833.5 2501.58 4224.5 2501.58M2833.5 2475.58 4224.5 2475.58M2833.5 2450.58 4224.5 2450.58M2833.5 2424.58 4224.5 2424.58M2833.5 2374.58 4224.5 2374.58M2833.5 2348.58 4224.5 2348.58M2833.5 2323.58 4224.5 2323.58M2833.5 2297.58 4224.5 2297.58M2833.5 2246.57 4224.5 2246.57M2833.5 2221.57 4224.5 2221.57M2833.5 2195.57 4224.5 2195.57M2833.5 2170.57 4224.5 2170.57M2833.5 2119.57 4224.5 2119.57M2833.5 2094.57 4224.5 2094.57M2833.5 2068.57 4224.5 2068.57M2833.5 2043.57 4224.5 2043.57M2833.5 1992.57 4224.5 1992.57M2833.5 1966.56 4224.5 1966.56M2833.5 1941.56 4224.5 1941.56M2833.5 1915.56 4224.5 1915.56M2833.5 1865.56 4224.5 1865.56M2833.5 1839.56 4224.5 1839.56M2833.5 1814.56 4224.5 1814.56M2833.5 1788.56 4224.5 1788.56M2833.5 1737.56 4224.5 1737.56M2833.5 1712.56 4224.5 1712.56M2833.5 1686.56 4224.5 1686.56M2833.5 1661.55 4224.5 1661.55" stroke="#F2F2F2" stroke-width="3.4375" stroke-linejoin="round" stroke-miterlimit="10" fill="none"/></g><g><path d="M2833.5 2526.5 4224.5 2526.5M2833.5 2399.58 4224.5 2399.58M2833.5 2272.57 4224.5 2272.57M2833.5 2145.57 4224.5 2145.57M2833.5 2017.57 4224.5 2017.57M2833.5 1890.56 4224.5 1890.56M2833.5 1763.56 4224.5 1763.56" stroke="#D9D9D9" stroke-width="3.4375" stroke-linejoin="round" stroke-miterlimit="10" fill="none"/></g><g><path d="M2867.59 1636.5 2867.59 2526.5M2902.6 1636.5 2902.6 2526.5M2937.6 1636.5 2937.6 2526.5M2972.6 1636.5 2972.6 2526.5M3041.6 1636.5 3041.6 2526.5M3076.6 1636.5 3076.6 2526.5M3111.6 1636.5 3111.6 2526.5M3146.6 1636.5 3146.6 2526.5M3215.61 1636.5 3215.61 2526.5M3250.61 1636.5 3250.61 2526.5M3285.61 1636.5 3285.61 2526.5M3319.61 1636.5 3319.61 2526.5M3389.61 1636.5 3389.61 2526.5M3424.61 1636.5 3424.61 2526.5M3459.61 1636.5 3459.61 2526.5M3493.61 1636.5 3493.61 2526.5M3563.62 1636.5 3563.62 2526.5M3598.62 1636.5 3598.62 2526.5M3632.62 1636.5 3632.62 2526.5M3667.62 1636.5 3667.62 2526.5M3737.62 1636.5 3737.62 2526.5M3772.62 1636.5 3772.62 2526.5M3806.62 1636.5 3806.62 2526.5M3841.63 1636.5 3841.63 2526.5M3911.63 1636.5 3911.63 2526.5M3945.63 1636.5 3945.63 2526.5M3980.63 1636.5 3980.63 2526.5M4015.63 1636.5 4015.63 2526.5M4085.63 1636.5 4085.63 2526.5M4119.64 1636.5 4119.64 2526.5M4154.64 1636.5 4154.64 2526.5M4189.64 1636.5 4189.64 2526.5" stroke="#F2F2F2" stroke-width="3.4375" stroke-linejoin="round" stroke-miterlimit="10" fill="none"/></g><g><path d="M3006.6 1636.5 3006.6 2526.5M3180.6 1636.5 3180.6 2526.5M3354.61 1636.5 3354.61 2526.5M3528.62 1636.5 3528.62 2526.5M3702.62 1636.5 3702.62 2526.5M3876.63 1636.5 3876.63 2526.5M4050.63 1636.5 4050.63 2526.5M4224.5 1636.5 4224.5 2526.5" stroke="#D9D9D9" stroke-width="3.4375" stroke-linejoin="round" stroke-miterlimit="10" fill="none"/></g><g><rect x="2833.5" y="1636.5" width="1391" height="890" stroke="#BFBFBF" stroke-width="3.4375" stroke-linejoin="round" stroke-miterlimit="10" fill="none"/></g><g><path d="M0 0 0.000360892 890" stroke="#BFBFBF" stroke-width="3.4375" stroke-linejoin="round" stroke-miterlimit="10" fill="none" fill-rule="evenodd" transform="matrix(1 0 0 -1 2833.5 2526.5)"/></g><g><path d="M2833.5 1636.5 4224.5 1636.5" stroke="#BFBFBF" stroke-width="3.4375" stroke-linejoin="round" stroke-miterlimit="10" fill="none" fill-rule="evenodd"/></g><g><path d="M2833.5 2444.88C2834.74 2445.39 2835.9 2446.41 2837.21 2446.41 2838.52 2446.41 2839.99 2444.07 2841.38 2444.88 2842.77 2445.69 2844.16 2449.4 2845.55 2451.24 2846.94 2453.09 2848.33 2454.36 2849.72 2455.95 2851.12 2457.54 2852.51 2458.92 2853.9 2460.79 2855.29 2462.65 2856.68 2468.21 2858.07 2467.15 2859.46 2466.09 2860.85 2457.35 2862.24 2454.42 2863.61 2451.54 2865.04 2449.59 2866.41 2449.59 2867.8 2449.59 2869.19 2454.42 2870.59 2454.42 2871.98 2454.42 2873.37 2449.59 2874.76 2449.59 2876.15 2449.59 2877.58 2455.21 2878.93 2454.42 2880.28 2453.64 2881.4 2446.22 2882.87 2444.88 2884.34 2443.54 2886.35 2446.41 2887.74 2446.41 2889.13 2446.41 2890.63 2444.07 2891.21 2444.88 2891.79 2445.69 2891.21 2449.4 2891.21 2451.24 2891.21 2453.09 2890.87 2454.36 2891.21 2455.95 2891.56 2457.54 2892.95 2458.92 2893.3 2460.79 2893.65 2462.65 2892.95 2468.21 2893.3 2467.15 2893.65 2466.09 2894.81 2457.35 2895.39 2454.42 2895.87 2451.96 2896.09 2449.59 2896.78 2449.59 2897.59 2449.59 2899.33 2454.42 2900.25 2454.42 2901.18 2454.42 2901.53 2449.59 2902.34 2449.59 2903.15 2449.59 2904.08 2452.68 2905.12 2454.42 2906.16 2456.16 2907.44 2459.49 2908.6 2460.02 2909.76 2460.55 2911.49 2457.22 2912.07 2457.6 2912.65 2457.99 2911.49 2463.25 2912.07 2462.31 2912.65 2461.38 2914.28 2454.25 2915.55 2452.01 2916.83 2449.76 2918.22 2450.01 2919.72 2448.83 2921.23 2447.64 2923.2 2445.01 2924.59 2444.88 2925.98 2444.75 2927.49 2446.75 2928.07 2448.06 2928.65 2449.38 2927.49 2451.45 2928.07 2452.77 2928.65 2454.08 2930.39 2456.21 2931.54 2455.95 2932.7 2455.7 2934.44 2451.24 2935.02 2451.24 2935.6 2451.24 2934.67 2454.36 2935.02 2455.95 2935.37 2457.54 2936.06 2459.11 2937.11 2460.79 2938.15 2462.46 2940.47 2466.53 2941.28 2466 2942.09 2465.47 2941.51 2461.13 2941.97 2457.6 2942.44 2454.08 2943.48 2445.69 2944.06 2444.88 2944.64 2444.07 2944.99 2450.12 2945.45 2452.77 2945.91 2455.42 2946.49 2458.52 2946.84 2460.79 2947.19 2463.05 2947.19 2464.54 2947.54 2466.38 2947.88 2468.23 2948.12 2472.92 2948.93 2471.86 2949.74 2470.8 2951.01 2461.87 2952.4 2460.02 2953.8 2458.18 2956.34 2461.72 2957.27 2460.79 2958.2 2459.85 2957.39 2452.3 2957.97 2454.42 2958.55 2456.54 2960.17 2471.39 2960.75 2473.51 2961.33 2475.63 2961.1 2469.27 2961.44 2467.15 2961.79 2465.03 2962.26 2462.91 2962.83 2460.79 2963.41 2458.66 2964.11 2454.42 2964.92 2454.42 2965.73 2454.42 2966.89 2460.53 2967.7 2460.79 2968.51 2461.04 2969.21 2457.63 2969.79 2455.95 2970.37 2454.28 2970.83 2453.11 2971.18 2450.73 2971.53 2448.36 2971.29 2439.49 2971.87 2441.7 2972.45 2443.9 2974.08 2461.32 2974.66 2463.97 2975.24 2466.62 2974.66 2459.2 2975.35 2457.6 2976.05 2456.01 2978.02 2454.02 2978.83 2454.42 2979.64 2454.83 2979.75 2458.18 2980.22 2460.02 2980.68 2461.87 2980.8 2466.43 2981.61 2465.49 2982.42 2464.56 2983.93 2456.8 2985.09 2454.42 2986.12 2452.31 2988.05 2450.77 2988.56 2451.24 2989.14 2451.77 2988.56 2455.76 2988.56 2457.6 2988.56 2459.23 2988.26 2459.98 2988.56 2462.31 2988.91 2464.96 2990.07 2472.7 2990.65 2473.51 2991.23 2474.32 2991.11 2468.34 2992.04 2467.15 2992.97 2465.96 2994.94 2467.44 2996.21 2466.38 2997.49 2465.32 2998.53 2461.06 2999.69 2460.79 3000.85 2460.51 3002.01 2464.73 3003.17 2464.73 3004.32 2464.73 3006.06 2460.66 3006.64 2460.79 3007.21 2460.91 3006.19 2463.18 3006.64 2465.49 3007.1 2467.87 3008.84 2474.1 3009.42 2475.04 3010 2475.97 3009.42 2472.41 3010.12 2471.09 3010.81 2469.78 3012.44 2468.46 3013.6 2467.15 3014.75 2465.83 3015.68 2464.26 3017.07 2463.2 3018.46 2462.14 3020.55 2461.19 3021.94 2460.79 3023.33 2460.38 3024.14 2461.93 3025.42 2460.79 3026.69 2459.64 3028.2 2454.04 3029.59 2453.91 3030.98 2453.79 3032.49 2458.62 3033.76 2460.02 3035.03 2461.42 3036.54 2462.86 3037.24 2462.31 3037.93 2461.76 3037.58 2458.56 3037.93 2456.71 3038.28 2454.87 3038.74 2450.56 3039.32 2451.24 3039.9 2451.92 3040.83 2458.41 3041.41 2460.79 3041.99 2463.16 3041.76 2464.03 3042.8 2465.49 3043.84 2466.96 3046.28 2469.29 3047.67 2469.57 3049.06 2469.84 3049.98 2467.02 3051.14 2467.15 3052.3 2467.27 3053.93 2471.92 3054.62 2470.33 3055.32 2468.74 3055.2 2458.67 3055.32 2457.6 3055.43 2456.54 3054.85 2466.09 3055.32 2463.97 3055.78 2461.85 3057.63 2447 3058.1 2444.88 3058.56 2442.76 3057.75 2449.12 3058.1 2451.24 3058.44 2453.36 3059.84 2455.48 3060.18 2457.6 3060.53 2459.73 3059.95 2461.97 3060.18 2463.97 3060.41 2465.96 3061.23 2467.72 3061.57 2469.57 3061.92 2471.41 3061.69 2476.5 3062.27 2475.04 3062.85 2473.57 3064.59 2462.38 3065.05 2460.79 3065.51 2459.19 3064.47 2466.17 3065.05 2465.49 3065.63 2464.81 3067.6 2457.1 3068.53 2456.71 3069.45 2456.33 3070.03 2461.21 3070.61 2463.2 3071.19 2465.2 3071.42 2469.35 3072 2468.67 3072.58 2468 3073.51 2461.51 3074.09 2459.13 3074.67 2456.76 3075.13 2456.27 3075.48 2454.42 3075.83 2452.58 3075.6 2447 3076.18 2448.06 3076.76 2449.12 3078.49 2457.6 3078.96 2460.79 3079.42 2463.93 3078.61 2468.72 3078.96 2467.15 3079.31 2465.56 3080.46 2452.98 3081.04 2451.24 3081.62 2449.5 3081.62 2456.71 3082.43 2456.71 3083.25 2456.71 3084.75 2451.24 3085.91 2451.24 3087.07 2451.24 3088.23 2455.65 3089.39 2456.71 3090.55 2457.77 3092.28 2456.67 3092.86 2457.6 3093.44 2458.54 3092.52 2464.43 3092.86 2462.31 3093.21 2460.19 3094.6 2446.73 3094.95 2444.88 3095.3 2443.04 3094.37 2452.05 3094.95 2451.24 3095.53 2450.44 3097.04 2441.91 3098.43 2440.05 3099.82 2438.18 3101.79 2440.3 3103.29 2440.05 3104.8 2439.79 3106.54 2437.99 3107.47 2438.52 3108.39 2439.05 3108.28 2444.82 3108.86 2443.23 3109.44 2441.64 3110.6 2430.57 3110.94 2428.98 3111.29 2427.38 3110.36 2434.49 3110.94 2433.68 3111.52 2432.88 3113.61 2426.54 3114.42 2424.14 3115.23 2421.76 3115 2421.16 3115.81 2419.31 3116.62 2417.44 3118.48 2412.94 3119.29 2412.94 3120.1 2412.94 3119.87 2420.62 3120.68 2419.31 3121.49 2417.99 3123.58 2406.64 3124.16 2405.05 3124.73 2403.46 3123.46 2410.57 3124.16 2409.76 3124.85 2408.96 3126.82 2403.12 3128.33 2400.22 3129.83 2397.31 3131.8 2395.51 3133.19 2392.33 3134.59 2389.15 3136.09 2382.19 3136.67 2381.13 3137.25 2380.07 3136.09 2386.9 3136.67 2385.97 3137.25 2385.03 3138.76 2377.93 3140.15 2375.53 3141.54 2373.14 3144.09 2373.31 3145.02 2371.59 3145.94 2369.87 3145.13 2367.35 3145.71 2365.23 3146.29 2363.11 3147.45 2360.58 3148.49 2358.87 3149.54 2357.15 3150.81 2356.51 3151.97 2354.92 3153.13 2353.33 3154.52 2351.32 3155.45 2349.32 3156.37 2347.33 3156.6 2344.83 3157.53 2342.96 3158.46 2341.09 3159.85 2339.72 3161.01 2338.13 3162.17 2336.53 3163.56 2335.79 3164.49 2333.42 3165.41 2331.04 3166.22 2324.68 3166.57 2323.87 3166.92 2323.07 3166.11 2330.17 3166.57 2328.58 3167.04 2326.99 3168.89 2315.92 3169.35 2314.33 3169.82 2312.74 3168.77 2320.1 3169.35 2319.04 3169.93 2317.98 3171.67 2310.62 3172.83 2307.97 3173.99 2305.32 3175.38 2304.72 3176.31 2303.13 3177.23 2301.54 3177.7 2300.02 3178.39 2298.43 3179.09 2296.84 3179.67 2295.2 3180.48 2293.59 3181.29 2291.98 3182.45 2291.15 3183.26 2288.76 3184.07 2286.36 3185 2280 3185.35 2279.21 3185.69 2278.43 3184.77 2285.36 3185.35 2284.05 3185.93 2282.73 3187.43 2275.03 3188.82 2271.32 3190.21 2267.61 3192.3 2264.71 3193.69 2261.78 3195.08 2258.85 3196.01 2256.16 3197.17 2253.76 3198.33 2251.37 3199.48 2249.52 3200.64 2247.4 3201.8 2245.28 3203.19 2243.16 3204.12 2241.04 3205.05 2238.92 3205.51 2236.8 3206.21 2234.68 3206.9 2232.56 3207.48 2230.44 3208.29 2228.32 3209.1 2226.19 3210.26 2224.07 3211.07 2221.95 3211.89 2219.83 3212.46 2217.71 3213.16 2215.59 3213.85 2213.47 3214.43 2211.1 3215.25 2209.23 3216.06 2207.36 3217.22 2205.98 3218.03 2204.39 3218.84 2202.8 3219.42 2201.28 3220.11 2199.69 3220.81 2198.1 3221.39 2196.44 3222.2 2194.85 3223.01 2193.26 3224.17 2191.99 3224.98 2190.14 3225.79 2188.3 3226.37 2185.9 3227.07 2183.78 3227.76 2181.66 3228.34 2179.54 3229.15 2177.42 3229.96 2175.3 3231.12 2173.18 3231.93 2171.06 3232.75 2168.94 3233.32 2166.82 3234.02 2164.7 3234.72 2162.57 3235.3 2160.2 3236.11 2158.33 3236.92 2156.47 3238.08 2155.11 3238.89 2153.5 3239.7 2151.89 3240.28 2150.53 3240.97 2148.66 3241.67 2146.8 3242.13 2144.42 3243.06 2142.3 3243.99 2140.18 3245.38 2138.59 3246.54 2135.94 3247.7 2133.29 3249.43 2127.18 3250.01 2126.4 3250.59 2125.61 3249.55 2132.82 3250.01 2131.23 3250.48 2129.64 3252.33 2118.44 3252.79 2116.85 3253.26 2115.26 3252.45 2122.47 3252.79 2121.69 3253.14 2120.9 3254.19 2114.54 3254.88 2112.14 3255.58 2109.75 3256.16 2108.9 3256.97 2107.31 3257.78 2105.72 3258.94 2104.19 3259.75 2102.6 3260.56 2101.01 3261.14 2099.63 3261.83 2097.77 3262.53 2095.9 3263.11 2093.52 3263.92 2091.4 3264.73 2089.28 3265.66 2087.16 3266.7 2085.04 3267.74 2082.92 3269.48 2080.8 3270.18 2078.68 3270.87 2076.56 3270.29 2074.44 3270.87 2072.32 3271.45 2070.2 3272.84 2068.08 3273.66 2065.96 3274.47 2063.83 3275.05 2061.71 3275.74 2059.59 3276.44 2057.47 3277.02 2055.35 3277.83 2053.23 3278.64 2051.11 3279.8 2048.74 3280.61 2046.87 3281.42 2045 3282 2043.62 3282.69 2042.03 3283.39 2040.44 3283.97 2039.17 3284.78 2037.33 3285.59 2035.48 3286.75 2033.08 3287.56 2030.96 3288.37 2028.84 3288.95 2026.47 3289.65 2024.6 3290.34 2022.74 3290.92 2021.38 3291.73 2019.77 3292.54 2018.16 3293.7 2017.33 3294.52 2014.93 3295.33 2012.54 3296.25 2006.17 3296.6 2005.39 3296.95 2004.6 3296.25 2011.28 3296.6 2010.22 3296.95 2009.16 3297.88 2001.95 3298.69 1999.03 3299.5 1996.1 3300.66 1994.51 3301.47 1992.66 3302.28 1990.82 3302.86 1989.55 3303.55 1987.96 3304.25 1986.37 3304.83 1984.99 3305.64 1983.12 3306.45 1981.26 3307.38 1979.13 3308.42 1976.76 3309.47 1974.38 3310.74 1972.05 3311.9 1968.87 3313.06 1965.69 3314.8 1958.73 3315.38 1957.67 3315.96 1956.61 3315.03 1963.57 3315.38 1962.51 3315.72 1961.45 3316.77 1954.24 3317.46 1951.31 3318.16 1948.38 3318.74 1946.82 3319.55 1944.95 3320.36 1943.08 3321.52 1941.7 3322.33 1940.11 3323.14 1938.52 3323.72 1937.25 3324.42 1935.41 3325.11 1933.56 3325.69 1930.91 3326.5 1929.04 3327.31 1927.18 3328.47 1925.8 3329.28 1924.21 3330.09 1922.62 3330.67 1921.88 3331.37 1919.5 3332.06 1917.13 3333.11 1910.76 3333.46 1909.96 3333.8 1909.15 3332.99 1915.47 3333.46 1914.67 3333.92 1913.86 3335.43 1907.5 3336.24 1905.12 3337.05 1902.75 3337.63 1902.01 3338.32 1900.41 3339.02 1898.82 3339.6 1897.17 3340.41 1895.58 3341.22 1893.99 3342.15 1892.74 3343.19 1890.87 3344.23 1889.01 3345.51 1886.25 3346.67 1884.38 3347.83 1882.52 3349.22 1881.26 3350.14 1879.67 3351.07 1878.08 3351.3 1876.56 3352.23 1874.84 3353.16 1873.12 3354.32 1871.49 3355.71 1869.37 3357.1 1867.25 3359.07 1864.38 3360.57 1862.12 3362.08 1859.85 3363.24 1857.34 3364.75 1855.75 3366.25 1854.16 3368.11 1853.89 3369.61 1852.57 3371.12 1851.26 3372.28 1849.18 3373.79 1847.86 3375.29 1846.55 3377.03 1845.74 3378.65 1844.68 3380.28 1843.62 3382.01 1842.31 3383.52 1841.5 3385.03 1840.7 3386.19 1840.38 3387.69 1839.85 3389.2 1839.32 3390.94 1838.85 3392.56 1838.32 3394.18 1837.79 3395.92 1837.2 3397.43 1836.67 3398.93 1836.14 3400.09 1835.67 3401.6 1835.14 3403.11 1834.61 3404.84 1834.02 3406.47 1833.49 3408.09 1832.96 3409.83 1832.49 3411.33 1831.96 3412.84 1831.43 3414 1830.83 3415.51 1830.3 3417.01 1829.77 3418.75 1829.56 3420.37 1828.78 3422 1827.99 3423.73 1826.13 3425.24 1825.6 3426.75 1825.07 3427.91 1826.13 3429.41 1825.6 3430.92 1825.07 3432.66 1823.22 3434.28 1822.42 3435.9 1821.61 3437.64 1821.84 3439.15 1820.76 3440.65 1819.68 3441.81 1816.99 3443.32 1815.93 3444.83 1814.87 3446.56 1815.46 3448.19 1814.4 3449.81 1813.34 3451.55 1810.62 3453.06 1809.56 3454.56 1808.5 3455.72 1808.82 3457.23 1808.04 3458.73 1807.25 3460.47 1806.45 3462.09 1804.86 3463.72 1803.27 3465.46 1799.83 3466.96 1798.49 3468.47 1797.16 3469.63 1797.65 3471.13 1796.84 3472.64 1796.03 3474.38 1794.72 3476 1793.66 3477.62 1792.6 3479.36 1791.79 3480.87 1790.48 3482.38 1789.16 3483.53 1786.83 3485.04 1785.77 3486.55 1784.71 3488.29 1785.18 3489.91 1784.12 3491.53 1783.06 3493.27 1780.47 3494.78 1779.41 3496.28 1778.35 3497.44 1778.56 3498.95 1777.75 3500.45 1776.95 3502.19 1775.63 3503.82 1774.57 3505.44 1773.51 3507.18 1772.18 3508.68 1771.39 3510.19 1770.61 3511.35 1770.4 3512.85 1769.87 3514.36 1769.33 3516.1 1769.02 3517.72 1768.21 3519.34 1767.41 3521.08 1765.56 3522.59 1765.03 3524.1 1764.5 3525.25 1765.03 3526.76 1765.03 3528.27 1765.03 3530.01 1765.03 3531.63 1765.03 3533.25 1765.03 3534.99 1765.03 3536.5 1765.03 3538 1765.03 3539.16 1765.03 3540.67 1765.03 3542.18 1765.03 3543.91 1765.03 3545.54 1765.03 3547.16 1765.03 3548.9 1765.03 3550.4 1765.03 3551.91 1765.03 3553.07 1764.75 3554.58 1765.03 3556.08 1765.31 3557.82 1766.15 3559.44 1766.68 3561.07 1767.21 3562.8 1767.96 3564.31 1768.21 3565.82 1768.47 3566.98 1767.68 3568.48 1768.21 3569.99 1768.74 3571.73 1770.59 3573.35 1771.39 3574.97 1772.2 3576.71 1772.24 3578.22 1773.05 3579.72 1773.85 3580.88 1775.44 3582.39 1776.23 3583.9 1777.01 3585.63 1776.69 3587.26 1777.75 3588.88 1778.81 3590.62 1781.53 3592.12 1782.59 3593.63 1783.65 3594.79 1783.33 3596.3 1784.12 3597.8 1784.9 3599.54 1786.24 3601.16 1787.3 3602.79 1788.36 3604.52 1789.67 3606.03 1790.48 3607.54 1791.28 3608.7 1791.07 3610.2 1792.13 3611.71 1793.19 3613.45 1795.53 3615.07 1796.84 3616.69 1798.15 3618.43 1798.69 3619.94 1800.02 3621.44 1801.36 3622.6 1803.8 3624.11 1804.86 3625.62 1805.92 3627.36 1805.32 3628.98 1806.38 3630.6 1807.44 3632.34 1809.63 3633.85 1811.22 3635.35 1812.81 3636.51 1814.87 3638.02 1815.93 3639.52 1816.99 3641.26 1816.77 3642.89 1817.58 3644.51 1818.39 3646.25 1819.7 3647.75 1820.76 3649.26 1821.82 3650.42 1822.61 3651.92 1823.94 3653.43 1825.28 3655.17 1827.44 3656.79 1828.78 3658.41 1830.11 3660.15 1830.9 3661.66 1831.96 3663.17 1833.02 3664.32 1834.08 3665.83 1835.14 3667.34 1836.2 3669.08 1837.01 3670.7 1838.32 3672.32 1839.64 3674.06 1841.97 3675.57 1843.03 3677.07 1844.09 3678.23 1843.88 3679.74 1844.68 3681.24 1845.49 3682.98 1846.8 3684.61 1847.86 3686.23 1848.92 3687.97 1849.73 3689.47 1851.05 3690.98 1852.36 3692.14 1854.16 3693.65 1855.75 3695.15 1857.34 3696.89 1859.53 3698.51 1860.59 3700.13 1861.65 3701.87 1861.33 3703.38 1862.12 3704.89 1862.9 3706.05 1863.96 3707.55 1865.3 3709.06 1866.63 3710.8 1868.54 3712.42 1870.13 3714.04 1871.72 3715.78 1872.99 3717.29 1874.84 3718.79 1876.68 3719.95 1879.08 3721.46 1881.2 3722.97 1883.32 3724.7 1885.7 3726.33 1887.56 3727.95 1889.43 3729.8 1891.06 3731.19 1892.4 3732.58 1893.73 3733.74 1894.24 3734.67 1895.58 3735.6 1896.92 3736.06 1898.55 3736.76 1900.41 3737.45 1902.28 3738.03 1904.93 3738.84 1906.78 3739.65 1908.62 3740.81 1909.89 3741.62 1911.48 3742.44 1913.08 3743.01 1914.73 3743.71 1916.32 3744.41 1917.91 3744.98 1919.44 3745.8 1921.03 3746.61 1922.62 3747.53 1924 3748.58 1925.86 3749.62 1927.73 3750.9 1930.1 3752.05 1932.23 3753.21 1934.35 3754.6 1936.47 3755.53 1938.59 3756.46 1940.71 3756.92 1942.83 3757.62 1944.95 3758.31 1947.07 3758.89 1949.19 3759.7 1951.31 3760.51 1953.43 3761.67 1955.55 3762.48 1957.67 3763.3 1959.79 3763.88 1961.91 3764.57 1964.04 3765.27 1966.16 3765.85 1968.53 3766.66 1970.4 3767.47 1972.26 3768.63 1973.64 3769.44 1975.23 3770.25 1976.82 3770.83 1978.1 3771.52 1979.94 3772.22 1981.79 3772.8 1984.18 3773.61 1986.3 3774.42 1988.42 3775.58 1990.54 3776.39 1992.66 3777.2 1994.79 3777.78 1996.91 3778.48 1999.03 3779.17 2001.15 3779.75 2003.27 3780.56 2005.39 3781.37 2007.51 3782.88 2009.88 3783.35 2011.75 3783.81 2013.62 3783 2015 3783.35 2016.59 3783.69 2018.18 3784.74 2019.43 3785.43 2021.29 3786.13 2023.16 3786.71 2025.64 3787.52 2027.78 3788.33 2029.93 3789.49 2032.02 3790.3 2034.15 3791.11 2036.27 3791.69 2038.39 3792.38 2040.51 3793.08 2042.63 3793.66 2045.02 3794.47 2046.87 3795.28 2048.71 3796.44 2049.99 3797.25 2051.58 3798.06 2053.17 3798.64 2054.55 3799.34 2056.41 3800.03 2058.28 3801.08 2060.93 3801.42 2062.77 3801.77 2064.62 3800.96 2065.89 3801.42 2067.48 3801.89 2069.07 3803.63 2070.45 3804.21 2072.32 3804.78 2074.18 3804.21 2076.56 3804.9 2078.68 3805.6 2080.8 3807.33 2082.92 3808.38 2085.04 3809.42 2087.16 3810.35 2089.28 3811.16 2091.4 3811.97 2093.52 3812.55 2095.9 3813.25 2097.77 3813.94 2099.63 3814.52 2101.01 3815.33 2102.6 3816.14 2104.19 3817.3 2105.46 3818.11 2107.31 3818.92 2109.15 3819.5 2111.55 3820.2 2113.67 3820.89 2115.79 3821.94 2118.17 3822.28 2120.03 3822.63 2121.9 3821.82 2123.28 3822.28 2124.87 3822.75 2126.46 3824.25 2127.73 3825.07 2129.58 3825.88 2131.42 3826.46 2133.82 3827.15 2135.94 3827.85 2138.06 3828.43 2140.43 3829.24 2142.3 3830.05 2144.17 3831.21 2145.54 3832.02 2147.14 3832.83 2148.73 3833.41 2149.98 3834.11 2151.84 3834.8 2153.71 3835.38 2156.19 3836.19 2158.33 3837 2160.48 3838.16 2162.85 3838.97 2164.7 3839.78 2166.54 3840.36 2167.81 3841.06 2169.4 3841.75 2170.99 3842.8 2172.65 3843.15 2174.24 3843.49 2175.83 3842.68 2177.36 3843.15 2178.95 3843.61 2180.54 3845.12 2181.91 3845.93 2183.78 3846.74 2185.65 3847.32 2188.3 3848.01 2190.14 3848.71 2191.99 3849.4 2193.26 3850.1 2194.85 3850.79 2196.44 3851.37 2197.82 3852.18 2199.69 3853 2201.55 3854.15 2203.93 3854.97 2206.05 3855.78 2208.17 3856.36 2210.57 3857.05 2212.41 3857.75 2214.26 3858.33 2215.53 3859.14 2217.12 3859.95 2218.71 3861.11 2220.09 3861.92 2221.95 3862.73 2223.82 3863.31 2226.19 3864.01 2228.32 3864.7 2230.44 3865.28 2232.56 3866.09 2234.68 3866.9 2236.8 3867.83 2238.92 3868.87 2241.04 3869.92 2243.16 3871.19 2245.54 3872.35 2247.4 3873.51 2249.27 3874.9 2250.65 3875.83 2252.24 3876.75 2253.83 3877.22 2255.35 3877.91 2256.95 3878.61 2258.54 3879.19 2260.19 3880 2261.78 3880.81 2263.37 3881.97 2264.64 3882.78 2266.49 3883.59 2268.33 3884.29 2270.73 3884.87 2272.85 3885.45 2274.97 3885.45 2277.09 3886.26 2279.21 3887.07 2281.33 3888.57 2283.43 3889.73 2285.57 3890.89 2287.72 3892.05 2289.92 3893.21 2292.06 3894.37 2294.21 3895.76 2296.31 3896.69 2298.43 3897.61 2300.55 3897.85 2302.67 3898.77 2304.79 3899.7 2306.91 3901.09 2309.03 3902.25 2311.15 3903.41 2313.27 3904.57 2315.54 3905.73 2317.51 3906.89 2319.48 3907.81 2321.27 3909.2 2322.98 3910.59 2324.7 3912.68 2327.67 3914.07 2327.82 3915.46 2327.97 3916.39 2324 3917.55 2323.87 3918.71 2323.75 3919.75 2326.8 3921.02 2327.06 3922.3 2327.31 3923.69 2325.15 3925.2 2325.4 3926.7 2325.66 3928.44 2327.52 3930.06 2328.58 3931.69 2329.64 3933.42 2331.23 3934.93 2331.76 3936.44 2332.29 3937.6 2331.76 3939.1 2331.76 3940.61 2331.76 3942.58 2332.02 3943.97 2331.76 3945.36 2331.51 3946.29 2329.56 3947.45 2330.24 3948.61 2330.91 3949.76 2334.77 3950.92 2335.83 3952.08 2336.9 3953.24 2337 3954.4 2336.6 3955.56 2336.2 3956.72 2333.95 3957.88 2333.42 3959.04 2332.89 3960.2 2332.36 3961.35 2333.42 3962.51 2334.48 3963.67 2338.72 3964.83 2339.78 3965.99 2340.84 3967.15 2339.25 3968.31 2339.78 3969.47 2340.31 3970.39 2342.18 3971.78 2342.96 3973.18 2343.74 3975.15 2344.08 3976.65 2344.49 3978.16 2344.89 3979.32 2344.44 3980.82 2345.38 3982.33 2346.31 3984.3 2348.9 3985.69 2350.09 3987.08 2351.27 3988.01 2353.03 3989.17 2352.5 3990.33 2351.97 3991.25 2346.9 3992.65 2346.9 3994.04 2346.9 3996.01 2351.32 3997.51 2352.5 3999.02 2353.69 4000.41 2353.5 4001.68 2354.03 4002.96 2354.56 4004.12 2354.6 4005.16 2355.68 4006.2 2356.77 4006.9 2360.8 4007.94 2360.52 4008.99 2360.24 4010.14 2354.18 4011.42 2354.03 4012.69 2353.88 4014.08 2358.29 4015.59 2359.63 4017.1 2360.96 4018.84 2362.17 4020.46 2362.05 4022.08 2361.92 4023.82 2358.87 4025.33 2358.87 4026.83 2358.87 4027.99 2360.99 4029.5 2362.05 4031 2363.11 4032.74 2364.57 4034.37 2365.23 4035.99 2365.88 4037.73 2366.52 4039.23 2365.99 4040.74 2365.46 4042.13 2362.17 4043.41 2362.05 4044.68 2361.92 4045.84 2363.64 4046.88 2365.23 4047.92 2366.82 4048.62 2371.59 4049.66 2371.59 4050.71 2371.59 4051.87 2364.95 4053.14 2365.23 4054.41 2365.5 4056.04 2372.71 4057.31 2373.24 4058.59 2373.77 4059.75 2370 4060.79 2368.41 4061.83 2366.82 4062.76 2363.7 4063.57 2363.7 4064.38 2363.7 4064.73 2367.09 4065.66 2368.41 4066.58 2369.72 4067.74 2371.46 4069.13 2371.59 4070.52 2371.72 4072.49 2368.77 4074 2369.17 4075.51 2369.57 4076.67 2373.48 4078.17 2374.01 4079.68 2374.54 4081.42 2373.82 4083.04 2372.35 4084.66 2370.89 4086.4 2365.23 4087.91 2365.23 4089.41 2365.23 4090.57 2370.76 4092.08 2372.35 4093.59 2373.94 4095.9 2373.56 4096.95 2374.77 4097.99 2375.98 4097.53 2380.75 4098.34 2379.61 4099.15 2378.46 4100.66 2367.9 4101.81 2367.9 4102.97 2367.9 4104.6 2378.46 4105.29 2379.61 4105.99 2380.75 4105.06 2375.05 4105.99 2374.77 4106.91 2374.5 4109.23 2377.95 4110.85 2377.95 4112.48 2377.95 4114.21 2375.83 4115.72 2374.77 4117.23 2373.71 4118.39 2371.59 4119.89 2371.59 4121.4 2371.59 4123.14 2373.96 4124.76 2374.77 4126.38 2375.58 4128.12 2375.62 4129.63 2376.43 4131.13 2377.23 4132.53 2379.88 4133.8 2379.61 4135.08 2379.33 4136 2374.69 4137.28 2374.77 4138.55 2374.86 4140.29 2380.65 4141.45 2380.11 4142.61 2379.58 4143.77 2372.2 4144.23 2371.59 4144.69 2370.97 4143.65 2374.96 4144.23 2376.43 4144.81 2377.89 4146.32 2380.11 4147.71 2380.37 4149.1 2380.62 4150.95 2378.23 4152.57 2377.95 4154.2 2377.68 4155.94 2377.53 4157.44 2378.72 4158.95 2379.9 4160.11 2384.14 4161.61 2385.08 4163.12 2386.01 4164.86 2385.5 4166.48 2384.31 4168.1 2383.13 4169.84 2379.01 4171.35 2377.95 4172.86 2376.89 4174.59 2377.15 4175.52 2377.95 4176.45 2378.76 4176.33 2384.38 4176.91 2382.79 4177.49 2381.2 4178.65 2369.74 4179 2368.41 4179.35 2367.07 4178.53 2372.65 4179 2374.77 4179.46 2376.89 4181.2 2379.01 4181.78 2381.13 4182.36 2383.25 4181.78 2386.96 4182.47 2387.49 4183.17 2388.02 4184.79 2383.91 4185.95 2384.31 4187.11 2384.72 4188.27 2389.38 4189.43 2389.91 4190.59 2390.44 4191.75 2386.96 4192.9 2387.49 4194.06 2388.02 4195.22 2392.03 4196.38 2393.09 4197.54 2394.15 4198.7 2392.8 4199.86 2393.86 4201.02 2394.92 4201.94 2399.46 4203.33 2399.46 4204.73 2399.46 4206.81 2394.26 4208.2 2393.86 4209.59 2393.45 4210.52 2397.04 4211.68 2397.04 4212.84 2397.04 4214 2394.92 4215.16 2393.86 4216.31 2392.8 4218.05 2390.15 4218.63 2390.68 4219.21 2391.21 4218.29 2398.63 4218.63 2397.04 4218.98 2395.45 4219.91 2381.92 4220.72 2381.13 4221.53 2380.35 4222.57 2388.6 4223.5 2392.33" stroke="#4472C4" stroke-width="6.875" stroke-linecap="round" stroke-linejoin="round" stroke-miterlimit="10" fill="none"/></g><g><text fill="#595959" font-family="Calibri,Calibri_MSFontService,sans-serif" font-weight="400" font-size="50" transform="matrix(1 0 0 1 2719.75 2541)">-70</text></g><g><text fill="#595959" font-family="Calibri,Calibri_MSFontService,sans-serif" font-weight="400" font-size="50" transform="matrix(1 0 0 1 2719.75 2414)">-60</text></g><g><text fill="#595959" font-family="Calibri,Calibri_MSFontService,sans-serif" font-weight="400" font-size="50" transform="matrix(1 0 0 1 2719.75 2287)">-50</text></g><g><text fill="#595959" font-family="Calibri,Calibri_MSFontService,sans-serif" font-weight="400" font-size="50" transform="matrix(1 0 0 1 2719.75 2160)">-40</text></g><g><text fill="#595959" font-family="Calibri,Calibri_MSFontService,sans-serif" font-weight="400" font-size="50" transform="matrix(1 0 0 1 2719.75 2032)">-30</text></g><g><text fill="#595959" font-family="Calibri,Calibri_MSFontService,sans-serif" font-weight="400" font-size="50" transform="matrix(1 0 0 1 2719.75 1905)">-20</text></g><g><text fill="#595959" font-family="Calibri,Calibri_MSFontService,sans-serif" font-weight="400" font-size="50" transform="matrix(1 0 0 1 2719.75 1778)">-10</text></g><g><text fill="#595959" font-family="Calibri,Calibri_MSFontService,sans-serif" font-weight="400" font-size="50" transform="matrix(1 0 0 1 2760.75 1651)">0</text></g><g><text fill="#595959" font-family="Calibri,Calibri_MSFontService,sans-serif" font-weight="400" font-size="50" transform="matrix(1 0 0 1 2820.3 2607)">0</text></g><g><text fill="#595959" font-family="Calibri,Calibri_MSFontService,sans-serif" font-weight="400" font-size="50" transform="matrix(1 0 0 1 2975.08 2607)">2.5</text></g><g><text fill="#595959" font-family="Calibri,Calibri_MSFontService,sans-serif" font-weight="400" font-size="50" transform="matrix(1 0 0 1 3168.12 2607)">5</text></g><g><text fill="#595959" font-family="Calibri,Calibri_MSFontService,sans-serif" font-weight="400" font-size="50" transform="matrix(1 0 0 1 3322.89 2607)">7.5</text></g><g><text fill="#595959" font-family="Calibri,Calibri_MSFontService,sans-serif" font-weight="400" font-size="50" transform="matrix(1 0 0 1 3503.16 2607)">10</text></g><g><text fill="#595959" font-family="Calibri,Calibri_MSFontService,sans-serif" font-weight="400" font-size="50" transform="matrix(1 0 0 1 3657.93 2607)">12.5</text></g><g><text fill="#595959" font-family="Calibri,Calibri_MSFontService,sans-serif" font-weight="400" font-size="50" transform="matrix(1 0 0 1 3850.98 2607)">15</text></g><g><text fill="#595959" font-family="Calibri,Calibri_MSFontService,sans-serif" font-weight="400" font-size="50" transform="matrix(1 0 0 1 4005.75 2607)">17.5</text></g><g><text fill="#595959" font-family="Calibri,Calibri_MSFontService,sans-serif" font-weight="400" font-size="50" transform="matrix(1 0 0 1 4198.79 2607)">20</text></g><g><text fill="#595959" font-family="Calibri,Calibri_MSFontService,sans-serif" font-weight="400" font-size="55" transform="matrix(6.12323e-17 -1 1 6.12323e-17 2672.52 2316)">Insertion loss [dB]</text></g><g><text fill="#595959" font-family="Calibri,Calibri_MSFontService,sans-serif" font-weight="400" font-size="55" transform="matrix(1 0 0 1 3358.93 2704)">Frequency [MHz]</text></g><g><path d="M3187.5 1535.5 3275.5 1535.5" stroke="#4472C4" stroke-width="6.875" stroke-linecap="round" stroke-linejoin="round" stroke-miterlimit="10" fill="none" fill-rule="evenodd"/></g><g><text fill="#595959" font-family="Calibri,Calibri_MSFontService,sans-serif" font-weight="400" font-size="55" transform="matrix(1 0 0 1 3284.67 1551)">MIX BW @ 10 MHz</text></g></g></svg>