<svg width="1719" height="1297" xmlns="http://www.w3.org/2000/svg" xmlns:xlink="http://www.w3.org/1999/xlink" xml:space="preserve" overflow="hidden"><defs><clipPath id="clip0"><rect x="3142" y="1530" width="1719" height="1297"/></clipPath><clipPath id="clip1"><rect x="3141" y="1529" width="1719" height="1298"/></clipPath><clipPath id="clip2"><rect x="3141" y="1529" width="1719" height="1298"/></clipPath><clipPath id="clip3"><rect x="3141" y="1529" width="1719" height="1298"/></clipPath><clipPath id="clip4"><rect x="3141" y="1529" width="1719" height="1298"/></clipPath><clipPath id="clip5"><rect x="3141" y="1529" width="1719" height="1298"/></clipPath><clipPath id="clip6"><rect x="3141" y="1529" width="1719" height="1298"/></clipPath><clipPath id="clip7"><rect x="3141" y="1529" width="1719" height="1298"/></clipPath><clipPath id="clip8"><rect x="3377" y="1704" width="1423" height="895"/></clipPath><clipPath id="clip9"><rect x="3377" y="1704" width="1423" height="895"/></clipPath><clipPath id="clip10"><rect x="3141" y="1529" width="1719" height="1298"/></clipPath><clipPath id="clip11"><rect x="3141" y="1529" width="1719" height="1298"/></clipPath><clipPath id="clip12"><rect x="3141" y="1529" width="1719" height="1298"/></clipPath><clipPath id="clip13"><rect x="3141" y="1529" width="1719" height="1298"/></clipPath><clipPath id="clip14"><rect x="3141" y="1529" width="1719" height="1298"/></clipPath><clipPath id="clip15"><rect x="3141" y="1529" width="1719" height="1298"/></clipPath><clipPath id="clip16"><rect x="3141" y="1529" width="1719" height="1298"/></clipPath><clipPath id="clip17"><rect x="3141" y="1529" width="1719" height="1298"/></clipPath><clipPath id="clip18"><rect x="3141" y="1529" width="1719" height="1298"/></clipPath><clipPath id="clip19"><rect x="3141" y="1529" width="1719" height="1298"/></clipPath><clipPath id="clip20"><rect x="3141" y="1529" width="1719" height="1298"/></clipPath><clipPath id="clip21"><rect x="3141" y="1529" width="1719" height="1298"/></clipPath><clipPath id="clip22"><rect x="3141" y="1529" width="1719" height="1298"/></clipPath><clipPath id="clip23"><rect x="3141" y="1529" width="1719" height="1298"/></clipPath><clipPath id="clip24"><rect x="3141" y="1529" width="1719" height="1298"/></clipPath><clipPath id="clip25"><rect x="3141" y="1529" width="1719" height="1298"/></clipPath><clipPath id="clip26"><rect x="3141" y="1529" width="1719" height="1298"/></clipPath><clipPath id="clip27"><rect x="3141" y="1529" width="1719" height="1298"/></clipPath><clipPath id="clip28"><rect x="3141" y="1529" width="1719" height="1298"/></clipPath><clipPath id="clip29"><rect x="3141" y="1529" width="1719" height="1298"/></clipPath></defs><g clip-path="url(#clip0)" transform="translate(-3142 -1530)"><rect x="3142" y="1530" width="1719" height="1297" fill="#FFFFFF"/><g clip-path="url(#clip1)"><path d="M3377.5 2550.58 4797.5 2550.58M3377.5 2506.58 4797.5 2506.58M3377.5 2461.58 4797.5 2461.58M3377.5 2417.58 4797.5 2417.58M3377.5 2328.58 4797.5 2328.58M3377.5 2283.58 4797.5 2283.58M3377.5 2239.57 4797.5 2239.57M3377.5 2194.57 4797.5 2194.57M3377.5 2105.57 4797.5 2105.57M3377.5 2061.57 4797.5 2061.57M3377.5 2016.57 4797.5 2016.57M3377.5 1972.56 4797.5 1972.56M3377.5 1882.56 4797.5 1882.56M3377.5 1838.56 4797.5 1838.56M3377.5 1793.56 4797.5 1793.56M3377.5 1749.56 4797.5 1749.56" stroke="#F2F2F2" stroke-width="3.4375" stroke-linejoin="round" stroke-miterlimit="10" fill="none"/></g><g clip-path="url(#clip2)"><path d="M3377.5 2595.5 4797.5 2595.5M3377.5 2150.57 4797.5 2150.57M3377.5 1927.56 4797.5 1927.56M3377.5 1704.5 4797.5 1704.5" stroke="#D9D9D9" stroke-width="3.4375" stroke-linejoin="round" stroke-miterlimit="10" fill="none"/></g><g clip-path="url(#clip3)"><path d="M3413.61 1704.5 3413.61 2595.5M3448.61 1704.5 3448.61 2595.5M3484.61 1704.5 3484.61 2595.5M3519.62 1704.5 3519.62 2595.5M3590.62 1704.5 3590.62 2595.5M3626.62 1704.5 3626.62 2595.5M3661.62 1704.5 3661.62 2595.5M3697.62 1704.5 3697.62 2595.5M3768.62 1704.5 3768.62 2595.5M3803.62 1704.5 3803.62 2595.5M3839.63 1704.5 3839.63 2595.5M3874.63 1704.5 3874.63 2595.5M3945.63 1704.5 3945.63 2595.5M3981.63 1704.5 3981.63 2595.5M4016.63 1704.5 4016.63 2595.5M4052.63 1704.5 4052.63 2595.5M4123.64 1704.5 4123.64 2595.5M4158.64 1704.5 4158.64 2595.5M4194.64 1704.5 4194.64 2595.5M4229.64 1704.5 4229.64 2595.5M4300.64 1704.5 4300.64 2595.5M4335.64 1704.5 4335.64 2595.5M4371.64 1704.5 4371.64 2595.5M4406.64 1704.5 4406.64 2595.5M4477.65 1704.5 4477.65 2595.5M4513.65 1704.5 4513.65 2595.5M4548.65 1704.5 4548.65 2595.5M4584.65 1704.5 4584.65 2595.5M4655.65 1704.5 4655.65 2595.5M4690.65 1704.5 4690.65 2595.5M4726.66 1704.5 4726.66 2595.5M4761.66 1704.5 4761.66 2595.5" stroke="#F2F2F2" stroke-width="3.4375" stroke-linejoin="round" stroke-miterlimit="10" fill="none"/></g><g clip-path="url(#clip4)"><path d="M3555.62 1704.5 3555.62 2595.5M3732.62 1704.5 3732.62 2595.5M3910.63 1704.5 3910.63 2595.5M4087.63 1704.5 4087.63 2595.5M4264.64 1704.5 4264.64 2595.5M4442.65 1704.5 4442.65 2595.5M4619.65 1704.5 4619.65 2595.5M4797.5 1704.5 4797.5 2595.5" stroke="#D9D9D9" stroke-width="3.4375" stroke-linejoin="round" stroke-miterlimit="10" fill="none"/></g><g clip-path="url(#clip5)"><rect x="3377.5" y="1704.5" width="1420" height="891" stroke="#BFBFBF" stroke-width="3.4375" stroke-linejoin="round" stroke-miterlimit="10" fill="none"/></g><g clip-path="url(#clip6)"><path d="M0 0 0.000360892 891" stroke="#BFBFBF" stroke-width="3.4375" stroke-linejoin="round" stroke-miterlimit="10" fill="none" fill-rule="evenodd" transform="matrix(1 0 0 -1 3377.5 2595.5)"/></g><g clip-path="url(#clip7)"><path d="M3377.5 2372.5 4797.5 2372.5" stroke="#BFBFBF" stroke-width="3.4375" stroke-linejoin="round" stroke-miterlimit="10" fill="none" fill-rule="evenodd"/></g><g clip-path="url(#clip8)"><path d="M3379.5 2268.41C3399.47 2265.74 3423.97 2261.88 3439.42 2260.4 3454.86 2258.91 3460.83 2257.5 3472.17 2259.5 3483.51 2261.51 3496.51 2269.9 3507.46 2272.42 3518.41 2274.94 3526.51 2272.12 3537.89 2274.65 3549.26 2277.17 3563.03 2286.67 3575.71 2287.56 3588.39 2288.45 3600.85 2279.77 3613.95 2279.99 3627.05 2280.21 3642.16 2288.45 3654.31 2288.9 3666.46 2289.34 3675.51 2283.55 3686.85 2282.66 3698.19 2281.77 3710.59 2281.1 3722.35 2283.55 3734.11 2286 3745.21 2296.32 3757.43 2297.36 3769.65 2298.4 3785.11 2289.94 3795.67 2289.79 3806.24 2289.64 3809.79 2295.87 3820.82 2296.47 3831.84 2297.06 3849.94 2292.53 3861.81 2293.35 3873.68 2294.17 3879.84 2298.55 3892.02 2301.37 3904.21 2304.19 3922.73 2306.71 3934.92 2310.27 3947.1 2313.84 3954.6 2320.29 3965.13 2322.74 3975.66 2325.19 3987.18 2323.04 3998.1 2324.97 4009.01 2326.9 4018.42 2331.72 4030.64 2334.32 4042.86 2336.92 4060.47 2338.03 4071.42 2340.56 4082.37 2343.08 4087.62 2347.98 4096.35 2349.46 4105.09 2350.95 4113.79 2345.83 4123.82 2349.46 4133.86 2353.1 4144.88 2365.05 4156.58 2371.28 4168.27 2377.52 4183.55 2382.27 4193.98 2386.87 4204.4 2391.47 4211.16 2394.89 4219.12 2398.9 4227.08 2402.9 4233.39 2405.2 4241.73 2410.92 4250.08 2416.63 4259.59 2427.4 4269.2 2433.19 4278.82 2438.98 4289.81 2439.79 4299.42 2445.66 4309.04 2451.52 4318.09 2464.29 4326.89 2468.37 4335.7 2472.45 4342.56 2467.77 4352.25 2470.15 4361.93 2472.52 4373.59 2480.32 4385 2482.62 4396.41 2484.92 4410.53 2484.18 4420.71 2483.96 4430.88 2483.73 4436.34 2481.28 4446.06 2481.28 4455.78 2481.28 4467.58 2483.36 4479.03 2483.96 4490.47 2484.55 4504.2 2483.14 4514.73 2484.85 4525.26 2486.55 4531.75 2491.82 4542.21 2494.2 4552.66 2496.57 4566.5 2498.43 4577.49 2499.1 4588.48 2499.76 4596.26 2498.8 4608.13 2498.21 4620 2497.61 4634.68 2497.83 4648.7 2495.53 4662.71 2493.23 4677.75 2485.96 4692.22 2484.4 4706.7 2482.84 4722.4 2486.78 4735.54 2486.18 4748.67 2485.59 4760.47 2480.84 4771.04 2480.84 4781.6 2480.84 4787.45 2486.7 4798.93 2486.18 4810.41 2485.66 4827.66 2477.57 4839.92 2477.72 4852.17 2477.87 4861.97 2485.14 4872.46 2487.07 4882.96 2489 4894.5 2485.22 4902.89 2489.3 4911.27 2493.38 4916.48 2507.63 4922.75 2511.57 4929.02 2515.5 4934.58 2512.46 4940.5 2512.9" stroke="#A5A5A5" stroke-width="6.875" stroke-linecap="round" stroke-linejoin="round" stroke-miterlimit="10" fill="none"/></g><g clip-path="url(#clip9)"><path d="M3378.5 1954.01C3393.12 1953.86 3410.49 1952.24 3422.36 1953.57 3434.23 1954.89 3439.44 1960.41 3449.71 1961.95 3459.98 1963.5 3472.19 1962.91 3483.99 1962.84 3495.78 1962.76 3510.58 1962.1 3520.47 1961.51 3530.36 1960.92 3534.17 1959.82 3543.33 1959.31 3552.48 1958.79 3564.33 1958.86 3575.4 1958.42 3586.47 1957.98 3596 1959.82 3609.75 1956.66 3623.5 1953.49 3645.3 1942.16 3657.9 1939.44 3670.49 1936.72 3675.06 1940.99 3685.32 1940.32 3695.58 1939.66 3709.19 1935.39 3719.45 1935.47 3729.7 1935.54 3739.25 1940.25 3746.87 1940.76 3754.49 1941.28 3759.04 1939.73 3765.15 1938.56 3771.05 1937.42 3774.26 1935.83 3783.51 1933.7 3793.08 1931.49 3811.48 1926.49 3822.59 1925.31 3833.7 1924.14 3841.01 1927 3850.17 1926.64 3859.32 1926.27 3868.4 1922.96 3877.51 1923.11 3886.63 1923.25 3894.63 1925.97 3904.86 1927.52 3915.09 1929.07 3929.81 1931.79 3938.91 1932.38 3948.01 1932.96 3951.83 1931.64 3959.48 1931.05 3967.12 1930.46 3977.09 1931.2 3984.77 1928.84 3992.45 1926.49 3997.5 1918.62 4005.57 1916.93 4013.63 1915.23 4022.82 1918.18 4033.14 1918.69 4043.47 1919.21 4057.23 1919.43 4067.5 1920.02 4077.77 1920.6 4085.3 1921.56 4094.77 1922.22 4104.24 1922.88 4113.29 1925.09 4124.32 1923.99 4135.36 1922.88 4151.05 1916.92 4160.97 1915.6 4170.88 1914.28 4174.28 1916.63 4183.82 1916.04 4193.35 1915.45 4206.71 1913.47 4218.17 1912.07 4229.64 1910.67 4242.68 1908.24 4252.61 1907.65 4262.54 1907.07 4267.47 1909.64 4277.75 1908.54 4288.02 1907.43 4302.83 1902.06 4314.23 1901.03 4325.63 1900 4337.39 1903.61 4346.15 1902.36 4354.91 1901.11 4359.52 1896.1 4366.79 1893.53 4374.07 1890.95 4381.78 1888.3 4389.8 1886.9 4397.82 1885.51 4403.88 1886.83 4414.94 1885.14 4426 1883.45 4444.33 1878 4456.15 1876.75 4467.97 1875.5 4473.7 1877.19 4485.86 1877.63 4498.02 1878.08 4515.81 1878.22 4529.13 1879.4 4542.44 1880.58 4556.61 1884.11 4565.77 1884.7 4574.51 1885.26 4574.95 1884.2 4584.05 1882.93 4593.57 1881.61 4609.97 1876.31 4622.9 1876.75 4635.82 1877.19 4651.69 1883.67 4661.59 1885.58 4671.5 1887.49 4672.37 1888.52 4682.32 1888.23 4692.26 1887.93 4709.41 1885.21 4721.24 1883.81 4733.08 1882.42 4743.42 1879.84 4753.31 1879.84 4763.2 1879.84 4769.9 1883.74 4780.58 1883.81 4791.26 1883.89 4805.91 1880.65 4817.38 1880.28 4828.84 1879.91 4841.02 1880.43 4849.37 1881.61 4857.73 1882.78 4861.46 1885.43 4867.5 1887.35" stroke="#FFC000" stroke-width="6.875" stroke-linecap="round" stroke-linejoin="round" stroke-miterlimit="10" fill="none"/></g><g clip-path="url(#clip10)"><text fill="#595959" font-family="Calibri,Calibri_MSFontService,sans-serif" font-weight="400" font-size="50" transform="matrix(1 0 0 1 3290.17 2610)">-5</text></g><g clip-path="url(#clip11)"><text fill="#595959" font-family="Calibri,Calibri_MSFontService,sans-serif" font-weight="400" font-size="50" transform="matrix(1 0 0 1 3305.61 2387)">0</text></g><g clip-path="url(#clip12)"><text fill="#595959" font-family="Calibri,Calibri_MSFontService,sans-serif" font-weight="400" font-size="50" transform="matrix(1 0 0 1 3305.61 2165)">5</text></g><g clip-path="url(#clip13)"><text fill="#595959" font-family="Calibri,Calibri_MSFontService,sans-serif" font-weight="400" font-size="50" transform="matrix(1 0 0 1 3280.06 1942)">10</text></g><g clip-path="url(#clip14)"><text fill="#595959" font-family="Calibri,Calibri_MSFontService,sans-serif" font-weight="400" font-size="50" transform="matrix(1 0 0 1 3280.06 1719)">15</text></g><g clip-path="url(#clip15)"><text fill="#595959" font-family="Calibri,Calibri_MSFontService,sans-serif" font-weight="400" font-size="50" transform="matrix(1 0 0 1 3365.17 2676)">4</text></g><g clip-path="url(#clip16)"><text fill="#595959" font-family="Calibri,Calibri_MSFontService,sans-serif" font-weight="400" font-size="50" transform="matrix(1 0 0 1 3523.47 2676)">4.5</text></g><g clip-path="url(#clip17)"><text fill="#595959" font-family="Calibri,Calibri_MSFontService,sans-serif" font-weight="400" font-size="50" transform="matrix(1 0 0 1 3720.04 2676)">5</text></g><g clip-path="url(#clip18)"><text fill="#595959" font-family="Calibri,Calibri_MSFontService,sans-serif" font-weight="400" font-size="50" transform="matrix(1 0 0 1 3878.34 2676)">5.5</text></g><g clip-path="url(#clip19)"><text fill="#595959" font-family="Calibri,Calibri_MSFontService,sans-serif" font-weight="400" font-size="50" transform="matrix(1 0 0 1 4074.91 2676)">6</text></g><g clip-path="url(#clip20)"><text fill="#595959" font-family="Calibri,Calibri_MSFontService,sans-serif" font-weight="400" font-size="50" transform="matrix(1 0 0 1 4233.21 2676)">6.5</text></g><g clip-path="url(#clip21)"><text fill="#595959" font-family="Calibri,Calibri_MSFontService,sans-serif" font-weight="400" font-size="50" transform="matrix(1 0 0 1 4429.79 2676)">7</text></g><g clip-path="url(#clip22)"><text fill="#595959" font-family="Calibri,Calibri_MSFontService,sans-serif" font-weight="400" font-size="50" transform="matrix(1 0 0 1 4588.08 2676)">7.5</text></g><g clip-path="url(#clip23)"><text fill="#595959" font-family="Calibri,Calibri_MSFontService,sans-serif" font-weight="400" font-size="50" transform="matrix(1 0 0 1 4784.66 2676)">8</text></g><g clip-path="url(#clip24)"><text fill="#595959" font-family="Calibri,Calibri_MSFontService,sans-serif" font-weight="400" font-size="55" transform="matrix(6.12323e-17 -1 1 6.12323e-17 3223.66 2386)">Izhodna moč [dBm]</text></g><g clip-path="url(#clip25)"><text fill="#595959" font-family="Calibri,Calibri_MSFontService,sans-serif" font-weight="400" font-size="55" transform="matrix(1 0 0 1 3827.58 2782)">Frekvenca [GHz]</text></g><g clip-path="url(#clip26)"><path d="M3499.5 1604.5 3587.5 1604.5" stroke="#A5A5A5" stroke-width="6.875" stroke-linecap="round" stroke-linejoin="round" stroke-miterlimit="10" fill="none" fill-rule="evenodd"/></g><g clip-path="url(#clip27)"><text fill="#595959" font-family="Calibri,Calibri_MSFontService,sans-serif" font-weight="400" font-size="55" transform="matrix(1 0 0 1 3597.18 1620)">Brez ojačevalnika</text></g><g clip-path="url(#clip28)"><path d="M4060.5 1604.5 4148.5 1604.5" stroke="#FFC000" stroke-width="6.875" stroke-linecap="round" stroke-linejoin="round" stroke-miterlimit="10" fill="none" fill-rule="evenodd"/></g><g clip-path="url(#clip29)"><text fill="#595959" font-family="Calibri,Calibri_MSFontService,sans-serif" font-weight="400" font-size="55" transform="matrix(1 0 0 1 4158.12 1620)">Z ojačevalnikom</text></g></g></svg>