<svg width="1718" height="1297" xmlns="http://www.w3.org/2000/svg" xmlns:xlink="http://www.w3.org/1999/xlink" xml:space="preserve" overflow="hidden"><defs><clipPath id="clip0"><rect x="3108" y="138" width="1718" height="1297"/></clipPath><clipPath id="clip1"><rect x="3107" y="137" width="1719" height="1298"/></clipPath><clipPath id="clip2"><rect x="3107" y="137" width="1719" height="1298"/></clipPath><clipPath id="clip3"><rect x="3107" y="137" width="1719" height="1298"/></clipPath><clipPath id="clip4"><rect x="3107" y="137" width="1719" height="1298"/></clipPath><clipPath id="clip5"><rect x="3107" y="137" width="1719" height="1298"/></clipPath><clipPath id="clip6"><rect x="3107" y="137" width="1719" height="1298"/></clipPath><clipPath id="clip7"><rect x="3107" y="137" width="1719" height="1298"/></clipPath><clipPath id="clip8"><rect x="3359" y="312" width="1407" height="894"/></clipPath><clipPath id="clip9"><rect x="3359" y="312" width="1407" height="894"/></clipPath><clipPath id="clip10"><rect x="3107" y="137" width="1719" height="1298"/></clipPath><clipPath id="clip11"><rect x="3107" y="137" width="1719" height="1298"/></clipPath><clipPath id="clip12"><rect x="3107" y="137" width="1719" height="1298"/></clipPath><clipPath id="clip13"><rect x="3107" y="137" width="1719" height="1298"/></clipPath><clipPath id="clip14"><rect x="3107" y="137" width="1719" height="1298"/></clipPath><clipPath id="clip15"><rect x="3107" y="137" width="1719" height="1298"/></clipPath><clipPath id="clip16"><rect x="3107" y="137" width="1719" height="1298"/></clipPath><clipPath id="clip17"><rect x="3107" y="137" width="1719" height="1298"/></clipPath><clipPath id="clip18"><rect x="3107" y="137" width="1719" height="1298"/></clipPath><clipPath id="clip19"><rect x="3107" y="137" width="1719" height="1298"/></clipPath><clipPath id="clip20"><rect x="3107" y="137" width="1719" height="1298"/></clipPath><clipPath id="clip21"><rect x="3107" y="137" width="1719" height="1298"/></clipPath><clipPath id="clip22"><rect x="3107" y="137" width="1719" height="1298"/></clipPath><clipPath id="clip23"><rect x="3107" y="137" width="1719" height="1298"/></clipPath><clipPath id="clip24"><rect x="3107" y="137" width="1719" height="1298"/></clipPath><clipPath id="clip25"><rect x="3107" y="137" width="1719" height="1298"/></clipPath><clipPath id="clip26"><rect x="3107" y="137" width="1719" height="1298"/></clipPath><clipPath id="clip27"><rect x="3107" y="137" width="1719" height="1298"/></clipPath><clipPath id="clip28"><rect x="3107" y="137" width="1719" height="1298"/></clipPath><clipPath id="clip29"><rect x="3107" y="137" width="1719" height="1298"/></clipPath><clipPath id="clip30"><rect x="3107" y="137" width="1719" height="1298"/></clipPath><clipPath id="clip31"><rect x="3107" y="137" width="1719" height="1298"/></clipPath><clipPath id="clip32"><rect x="3107" y="137" width="1719" height="1298"/></clipPath><clipPath id="clip33"><rect x="3107" y="137" width="1719" height="1298"/></clipPath><clipPath id="clip34"><rect x="3107" y="137" width="1719" height="1298"/></clipPath><clipPath id="clip35"><rect x="3107" y="137" width="1719" height="1298"/></clipPath></defs><g clip-path="url(#clip0)" transform="translate(-3108 -138)"><rect x="3108" y="138" width="1718" height="1297" fill="#FFFFFF"/><g clip-path="url(#clip1)"><path d="M3359.5 1185.54 4763.5 1185.54M3359.5 1167.54 4763.5 1167.54M3359.5 1149.54 4763.5 1149.54M3359.5 1132.54 4763.5 1132.54M3359.5 1096.54 4763.5 1096.54M3359.5 1078.54 4763.5 1078.54M3359.5 1060.54 4763.5 1060.54M3359.5 1043.53 4763.5 1043.53M3359.5 1007.53 4763.5 1007.53M3359.5 989.533 4763.5 989.533M3359.5 971.532 4763.5 971.532M3359.5 953.531 4763.5 953.531M3359.5 918.53 4763.5 918.53M3359.5 900.53 4763.5 900.53M3359.5 882.529 4763.5 882.529M3359.5 864.529 4763.5 864.529M3359.5 829.527 4763.5 829.527M3359.5 811.527 4763.5 811.527M3359.5 793.526 4763.5 793.526M3359.5 775.526 4763.5 775.526M3359.5 740.524 4763.5 740.524M3359.5 722.524 4763.5 722.524M3359.5 704.523 4763.5 704.523M3359.5 686.523 4763.5 686.523M3359.5 651.522 4763.5 651.522M3359.5 633.521 4763.5 633.521M3359.5 615.52 4763.5 615.52M3359.5 597.52 4763.5 597.52M3359.5 562.519 4763.5 562.519M3359.5 544.518 4763.5 544.518M3359.5 526.517 4763.5 526.517M3359.5 508.517 4763.5 508.517M3359.5 472.516 4763.5 472.516M3359.5 455.515 4763.5 455.515M3359.5 437.515 4763.5 437.515M3359.5 419.514 4763.5 419.514M3359.5 383.513 4763.5 383.513M3359.5 366.512 4763.5 366.512M3359.5 348.512 4763.5 348.512M3359.5 330.511 4763.5 330.511" stroke="#F2F2F2" stroke-width="3.4375" stroke-linejoin="round" stroke-miterlimit="10" fill="none"/></g><g clip-path="url(#clip2)"><path d="M3359.5 1203.5 4763.5 1203.5M3359.5 1114.54 4763.5 1114.54M3359.5 1025.53 4763.5 1025.53M3359.5 936.531 4763.5 936.531M3359.5 847.528 4763.5 847.528M3359.5 668.522 4763.5 668.522M3359.5 579.519 4763.5 579.519M3359.5 490.516 4763.5 490.516M3359.5 401.513 4763.5 401.513M3359.5 312.5 4763.5 312.5" stroke="#D9D9D9" stroke-width="3.4375" stroke-linejoin="round" stroke-miterlimit="10" fill="none"/></g><g clip-path="url(#clip3)"><path d="M3394.61 312.5 3394.61 1203.5M3429.61 312.5 3429.61 1203.5M3464.61 312.5 3464.61 1203.5M3499.61 312.5 3499.61 1203.5M3569.62 312.5 3569.62 1203.5M3604.62 312.5 3604.62 1203.5M3639.62 312.5 3639.62 1203.5M3674.62 312.5 3674.62 1203.5M3745.62 312.5 3745.62 1203.5M3780.62 312.5 3780.62 1203.5M3815.63 312.5 3815.63 1203.5M3850.63 312.5 3850.63 1203.5M3920.63 312.5 3920.63 1203.5M3955.63 312.5 3955.63 1203.5M3990.63 312.5 3990.63 1203.5M4025.63 312.5 4025.63 1203.5M4096.63 312.5 4096.63 1203.5M4131.64 312.5 4131.64 1203.5M4166.64 312.5 4166.64 1203.5M4201.64 312.5 4201.64 1203.5M4271.64 312.5 4271.64 1203.5M4306.64 312.5 4306.64 1203.5M4341.64 312.5 4341.64 1203.5M4376.64 312.5 4376.64 1203.5M4447.65 312.5 4447.65 1203.5M4482.65 312.5 4482.65 1203.5M4517.65 312.5 4517.65 1203.5M4552.65 312.5 4552.65 1203.5M4622.65 312.5 4622.65 1203.5M4657.65 312.5 4657.65 1203.5M4692.65 312.5 4692.65 1203.5M4727.66 312.5 4727.66 1203.5" stroke="#F2F2F2" stroke-width="3.4375" stroke-linejoin="round" stroke-miterlimit="10" fill="none"/></g><g clip-path="url(#clip4)"><path d="M3534.62 312.5 3534.62 1203.5M3709.62 312.5 3709.62 1203.5M3885.63 312.5 3885.63 1203.5M4060.63 312.5 4060.63 1203.5M4236.64 312.5 4236.64 1203.5M4411.65 312.5 4411.65 1203.5M4587.65 312.5 4587.65 1203.5M4763.5 312.5 4763.5 1203.5" stroke="#D9D9D9" stroke-width="3.4375" stroke-linejoin="round" stroke-miterlimit="10" fill="none"/></g><g clip-path="url(#clip5)"><rect x="3359.5" y="312.5" width="1404" height="891" stroke="#BFBFBF" stroke-width="3.4375" stroke-linejoin="round" stroke-miterlimit="10" fill="none"/></g><g clip-path="url(#clip6)"><path d="M0 0 0.000360892 891" stroke="#BFBFBF" stroke-width="3.4375" stroke-linejoin="round" stroke-miterlimit="10" fill="none" fill-rule="evenodd" transform="matrix(1 0 0 -1 3359.5 1203.5)"/></g><g clip-path="url(#clip7)"><path d="M3359.5 758.5 4763.5 758.501" stroke="#BFBFBF" stroke-width="3.4375" stroke-linejoin="round" stroke-miterlimit="10" fill="none" fill-rule="evenodd"/></g><g clip-path="url(#clip8)"><path d="M3323.5 480.5C3337.76 481.684 3351.09 483.016 3366.28 484.052 3381.47 485.088 3397.28 485.458 3414.65 486.717 3432.01 487.975 3451.54 490.195 3470.45 491.601 3489.36 493.007 3509.82 494.192 3528.11 495.154 3546.4 496.116 3561.59 496.634 3580.19 497.374 3598.8 498.114 3622.36 499.002 3639.72 499.594 3657.08 500.186 3667 500.26 3684.36 500.926 3701.72 501.592 3723.73 502.999 3743.88 503.591 3764.03 504.183 3785.43 504.331 3805.27 504.479 3825.11 504.627 3843.09 504.257 3862.93 504.479 3882.77 504.701 3903.85 505.219 3924.31 505.811 3944.77 506.403 3967.41 507.661 3985.7 508.032 4003.99 508.401 4016.39 507.588 4034.06 508.032 4051.73 508.476 4074.67 509.881 4091.72 510.696 4108.77 511.51 4121.48 511.954 4136.37 512.916 4151.25 513.878 4166.75 515.284 4181.01 516.468 4195.27 517.652 4207.05 518.393 4221.93 520.021 4236.81 521.649 4255.72 524.239 4270.29 526.238 4284.86 528.236 4296.95 530.012 4309.35 532.01 4321.76 534.009 4332.61 536.377 4344.7 538.227 4356.79 540.078 4368.26 540.522 4381.9 543.112 4395.54 545.702 4411.97 550.809 4426.54 553.769 4441.11 556.73 4455.68 558.284 4469.32 560.874 4482.96 563.464 4495.05 566.499 4508.39 569.311 4521.72 572.123 4535.67 574.788 4549.31 577.748 4562.95 580.709 4575.97 583.891 4590.23 587.074 4604.49 590.256 4618.44 594.03 4634.87 596.843 4651.3 599.655 4673.94 602.393 4688.82 603.948 4703.7 605.502 4712.38 605.576 4724.16 606.168 4735.94 606.76 4747.72 607.056 4759.5 607.5" stroke="#ED7D31" stroke-width="6.875" stroke-linecap="round" stroke-linejoin="round" stroke-miterlimit="10" stroke-dasharray="13.75 13.75" fill="none"/></g><g clip-path="url(#clip9)"><path d="M3360.5 653.411C3380.26 650.739 3404.49 646.879 3419.77 645.395 3435.04 643.91 3440.94 642.5 3452.16 644.504 3463.38 646.508 3476.23 654.895 3487.06 657.419 3497.9 659.943 3505.91 657.122 3517.16 659.646 3528.41 662.169 3542.03 671.67 3554.57 672.561 3567.11 673.451 3579.44 664.767 3592.4 664.99 3605.36 665.212 3620.3 673.451 3632.32 673.896 3644.34 674.342 3653.29 668.552 3664.51 667.662 3675.72 666.771 3687.98 666.103 3699.62 668.552 3711.25 671.002 3722.23 681.319 3734.31 682.358 3746.4 683.397 3761.69 674.935 3772.14 674.787 3782.59 674.638 3786.11 680.873 3797.01 681.467 3807.91 682.061 3825.82 677.533 3837.55 678.35 3849.29 679.166 3855.39 683.545 3867.44 686.366 3879.49 689.186 3897.82 691.71 3909.87 695.273 3921.92 698.835 3929.34 705.293 3939.76 707.742 3950.17 710.191 3961.56 708.039 3972.36 709.969 3983.16 711.898 3992.46 716.723 4004.55 719.321 4016.63 721.919 4034.05 723.032 4044.88 725.556 4055.72 728.079 4060.91 732.978 4069.55 734.463 4078.19 735.947 4086.79 730.826 4096.72 734.463 4106.65 738.1 4117.55 750.05 4129.11 756.284 4140.68 762.519 4155.8 767.269 4166.11 771.871 4176.42 776.473 4183.11 779.887 4190.98 783.895 4198.85 787.903 4205.09 790.204 4213.34 795.92 4221.6 801.635 4231.01 812.397 4240.52 818.187 4250.03 823.976 4260.89 824.792 4270.4 830.656 4279.91 836.519 4288.87 849.286 4297.57 853.368 4306.28 857.45 4313.07 852.774 4322.65 855.15 4332.23 857.524 4343.76 865.318 4355.05 867.619 4366.33 869.92 4380.3 869.178 4390.37 868.955 4400.43 868.733 4405.83 866.283 4415.45 866.283 4425.06 866.283 4436.73 868.361 4448.05 868.955 4459.37 869.549 4472.96 868.139 4483.37 869.846 4493.79 871.553 4500.2 876.823 4510.54 879.198 4520.89 881.573 4534.58 883.428 4545.45 884.096 4556.31 884.764 4564.01 883.799 4575.75 883.206 4587.49 882.612 4602.01 882.835 4615.88 880.534 4629.74 878.233 4644.61 870.959 4658.93 869.401 4673.24 867.842 4688.78 871.775 4701.77 871.182 4714.76 870.588 4726.43 865.838 4736.88 865.838 4747.33 865.838 4753.12 871.701 4764.47 871.182 4775.83 870.662 4792.89 862.572 4805.01 862.721 4817.14 862.869 4826.82 870.142 4837.2 872.072 4847.58 874.002 4859.01 870.217 4867.3 874.299 4875.59 878.381 4880.74 892.632 4886.94 896.566 4893.14 900.5 4898.65 897.457 4904.5 897.902" stroke="#4472C4" stroke-width="6.875" stroke-linecap="round" stroke-linejoin="round" stroke-miterlimit="10" fill="none"/></g><g clip-path="url(#clip10)"><text fill="#595959" font-family="Calibri,Calibri_MSFontService,sans-serif" font-weight="400" font-size="50" transform="matrix(1 0 0 1 3245.69 1218)">-10</text></g><g clip-path="url(#clip11)"><text fill="#595959" font-family="Calibri,Calibri_MSFontService,sans-serif" font-weight="400" font-size="50" transform="matrix(1 0 0 1 3271.24 1129)">-8</text></g><g clip-path="url(#clip12)"><text fill="#595959" font-family="Calibri,Calibri_MSFontService,sans-serif" font-weight="400" font-size="50" transform="matrix(1 0 0 1 3271.24 1040)">-6</text></g><g clip-path="url(#clip13)"><text fill="#595959" font-family="Calibri,Calibri_MSFontService,sans-serif" font-weight="400" font-size="50" transform="matrix(1 0 0 1 3271.24 951)">-4</text></g><g clip-path="url(#clip14)"><text fill="#595959" font-family="Calibri,Calibri_MSFontService,sans-serif" font-weight="400" font-size="50" transform="matrix(1 0 0 1 3271.24 862)">-2</text></g><g clip-path="url(#clip15)"><text fill="#595959" font-family="Calibri,Calibri_MSFontService,sans-serif" font-weight="400" font-size="50" transform="matrix(1 0 0 1 3286.69 772)">0</text></g><g clip-path="url(#clip16)"><text fill="#595959" font-family="Calibri,Calibri_MSFontService,sans-serif" font-weight="400" font-size="50" transform="matrix(1 0 0 1 3286.69 683)">2</text></g><g clip-path="url(#clip17)"><text fill="#595959" font-family="Calibri,Calibri_MSFontService,sans-serif" font-weight="400" font-size="50" transform="matrix(1 0 0 1 3286.69 594)">4</text></g><g clip-path="url(#clip18)"><text fill="#595959" font-family="Calibri,Calibri_MSFontService,sans-serif" font-weight="400" font-size="50" transform="matrix(1 0 0 1 3286.69 505)">6</text></g><g clip-path="url(#clip19)"><text fill="#595959" font-family="Calibri,Calibri_MSFontService,sans-serif" font-weight="400" font-size="50" transform="matrix(1 0 0 1 3286.69 416)">8</text></g><g clip-path="url(#clip20)"><text fill="#595959" font-family="Calibri,Calibri_MSFontService,sans-serif" font-weight="400" font-size="50" transform="matrix(1 0 0 1 3261.13 327)">10</text></g><g clip-path="url(#clip21)"><text fill="#595959" font-family="Calibri,Calibri_MSFontService,sans-serif" font-weight="400" font-size="50" transform="matrix(1 0 0 1 3346.24 1283)">4</text></g><g clip-path="url(#clip22)"><text fill="#595959" font-family="Calibri,Calibri_MSFontService,sans-serif" font-weight="400" font-size="50" transform="matrix(1 0 0 1 3502.61 1283)">4.5</text></g><g clip-path="url(#clip23)"><text fill="#595959" font-family="Calibri,Calibri_MSFontService,sans-serif" font-weight="400" font-size="50" transform="matrix(1 0 0 1 3697.25 1283)">5</text></g><g clip-path="url(#clip24)"><text fill="#595959" font-family="Calibri,Calibri_MSFontService,sans-serif" font-weight="400" font-size="50" transform="matrix(1 0 0 1 3853.62 1283)">5.5</text></g><g clip-path="url(#clip25)"><text fill="#595959" font-family="Calibri,Calibri_MSFontService,sans-serif" font-weight="400" font-size="50" transform="matrix(1 0 0 1 4048.26 1283)">6</text></g><g clip-path="url(#clip26)"><text fill="#595959" font-family="Calibri,Calibri_MSFontService,sans-serif" font-weight="400" font-size="50" transform="matrix(1 0 0 1 4204.63 1283)">6.5</text></g><g clip-path="url(#clip27)"><text fill="#595959" font-family="Calibri,Calibri_MSFontService,sans-serif" font-weight="400" font-size="50" transform="matrix(1 0 0 1 4399.27 1283)">7</text></g><g clip-path="url(#clip28)"><text fill="#595959" font-family="Calibri,Calibri_MSFontService,sans-serif" font-weight="400" font-size="50" transform="matrix(1 0 0 1 4555.64 1283)">7.5</text></g><g clip-path="url(#clip29)"><text fill="#595959" font-family="Calibri,Calibri_MSFontService,sans-serif" font-weight="400" font-size="50" transform="matrix(1 0 0 1 4750.28 1283)">8</text></g><g clip-path="url(#clip30)"><text fill="#595959" font-family="Calibri,Calibri_MSFontService,sans-serif" font-weight="400" font-size="55" transform="matrix(6.12323e-17 -1 1 6.12323e-17 3189.29 994)">Izhodna moč [dBm]</text></g><g clip-path="url(#clip31)"><text fill="#595959" font-family="Calibri,Calibri_MSFontService,sans-serif" font-weight="400" font-size="55" transform="matrix(1 0 0 1 3793.2 1390)">Frekvenca [GHz]</text></g><g clip-path="url(#clip32)"><path d="M3422.5 211.5 3538.5 211.5" stroke="#ED7D31" stroke-width="6.875" stroke-linecap="round" stroke-linejoin="round" stroke-miterlimit="10" stroke-dasharray="13.75 13.75" fill="none" fill-rule="evenodd"/></g><g clip-path="url(#clip33)"><text fill="#595959" font-family="Calibri,Calibri_MSFontService,sans-serif" font-weight="400" font-size="55" transform="matrix(1 0 0 1 3550.73 227)">Podatkovni list</text></g><g clip-path="url(#clip34)"><path d="M3966.5 211.5 4081.5 211.5" stroke="#4472C4" stroke-width="6.875" stroke-linecap="round" stroke-linejoin="round" stroke-miterlimit="10" fill="none" fill-rule="evenodd"/></g><g clip-path="url(#clip35)"><text fill="#595959" font-family="Calibri,Calibri_MSFontService,sans-serif" font-weight="400" font-size="55" transform="matrix(1 0 0 1 4094.52 227)">Meritev -  no HEMT</text></g></g></svg>