%FSLAX34Y34*%
%MOMM*%
%LNCOPPER_TOP*%
G71*
G01*
%ADD10R,0.800X1.100*%
%ADD11C,0.800*%
%ADD12R,7.300X2.100*%
%ADD13C,2.500*%
%ADD14C,0.930*%
%ADD15C,0.010*%
%ADD16C,1.200*%
%ADD17C,0.222*%
%LPD*%
X457770Y912450D02*
G54D10*
D03*
X457770Y953250D02*
G54D10*
D03*
X470470Y912450D02*
G54D10*
D03*
G36*
X466470Y958750D02*
X474470Y958750D01*
X474470Y947750D01*
X466470Y947750D01*
X466470Y958750D01*
G37*
X483170Y912450D02*
G54D10*
D03*
G36*
X479170Y958750D02*
X487170Y958750D01*
X487170Y947750D01*
X479170Y947750D01*
X479170Y958750D01*
G37*
X495870Y912450D02*
G54D10*
D03*
X495870Y953250D02*
G54D10*
D03*
G54D11*
X457770Y912450D02*
X457770Y930450D01*
G54D11*
X483170Y912450D02*
X483170Y930050D01*
X482770Y930450D01*
G54D11*
X470470Y953250D02*
X470500Y940700D01*
X467870Y936150D01*
X467270Y935450D01*
G54D11*
X483170Y953250D02*
X483170Y934850D01*
X482770Y934450D01*
G54D11*
X495870Y953250D02*
X495870Y935550D01*
X494770Y934450D01*
X463470Y932450D02*
G54D12*
D03*
X431770Y932450D02*
G54D13*
D03*
X483170Y982850D02*
G54D13*
D03*
G54D11*
X470470Y953250D02*
X470470Y975150D01*
X479770Y986450D01*
G54D11*
X495870Y953250D02*
X495870Y980350D01*
X490770Y985450D01*
G54D11*
X483170Y953250D02*
X483170Y982850D01*
G54D11*
X470770Y967450D02*
X494770Y967450D01*
X480770Y967450D01*
X474770Y973450D01*
G36*
X470470Y975150D02*
X470470Y982150D01*
X475770Y987450D01*
X490014Y987426D01*
X495870Y980350D01*
X495870Y968550D01*
X494770Y967450D01*
X470470Y975150D01*
G37*
G54D11*
X470470Y975150D02*
X470470Y982150D01*
X475770Y987450D01*
X490014Y987426D01*
X495870Y980350D01*
X495870Y968550D01*
X494770Y967450D01*
X470470Y975150D01*
G54D14*
X470445Y913400D02*
X470437Y901531D01*
G36*
X475095Y913397D02*
X465795Y913403D01*
X465798Y918053D01*
X475098Y918047D01*
X475095Y913397D01*
G37*
G36*
X465787Y901534D02*
X475087Y901528D01*
X475084Y896878D01*
X465784Y896884D01*
X465787Y901534D01*
G37*
G36*
X465799Y887688D02*
X475034Y896883D01*
X465832Y896874D01*
X465799Y887688D01*
G37*
G54D15*
X465799Y887688D02*
X475034Y896883D01*
X465832Y896874D01*
X465799Y887688D01*
G54D11*
X483170Y912450D02*
X483170Y871850D01*
X483270Y871750D01*
X483170Y871850D02*
G54D13*
D03*
G54D14*
X457770Y952250D02*
X457770Y960250D01*
G36*
X453120Y952250D02*
X462420Y952250D01*
X462420Y947600D01*
X453120Y947600D01*
X453120Y952250D01*
G37*
G36*
X462420Y960250D02*
X453120Y960250D01*
X453120Y964900D01*
X462420Y964900D01*
X462420Y960250D01*
G37*
G54D14*
X475270Y871750D02*
X475270Y878250D01*
X483020Y886000D01*
G54D14*
X491112Y871750D02*
X491112Y878250D01*
X483362Y886000D01*
G54D14*
X495870Y913400D02*
X495878Y900031D01*
G36*
X500520Y913403D02*
X491220Y913397D01*
X491217Y918047D01*
X500517Y918053D01*
X500520Y913403D01*
G37*
G36*
X491228Y900029D02*
X500528Y900034D01*
X500531Y895384D01*
X491231Y895379D01*
X491228Y900029D01*
G37*
G36*
X499328Y887478D02*
X491281Y895383D01*
X499233Y895374D01*
X499328Y887478D01*
G37*
G54D15*
X499328Y887478D02*
X491281Y895383D01*
X499233Y895374D01*
X499328Y887478D01*
G36*
X453169Y964899D02*
X444071Y978001D01*
X455974Y977982D01*
X462370Y964899D01*
X453169Y964899D01*
G37*
G54D15*
X453169Y964899D02*
X444071Y978001D01*
X455974Y977982D01*
X462370Y964899D01*
X453169Y964899D01*
G54D16*
X450020Y984000D02*
X450020Y994000D01*
G36*
X444020Y984000D02*
X456020Y984000D01*
X456020Y978000D01*
X444020Y978000D01*
X444020Y984000D01*
G37*
G36*
X456020Y994000D02*
X444020Y994000D01*
X444020Y1000000D01*
X456020Y1000000D01*
X456020Y994000D01*
G37*
G54D17*
X607087Y807087D02*
X607087Y824865D01*
X613754Y813754D01*
X620420Y824865D01*
X620420Y807087D01*
G54D17*
X625309Y807087D02*
X625309Y824865D01*
G54D17*
X630198Y824865D02*
X643531Y807087D01*
G54D17*
X630198Y807087D02*
X643531Y824865D01*
G54D17*
X648420Y818198D02*
X655087Y824865D01*
X655087Y807087D01*
G54D17*
X665132Y817087D02*
X670465Y807087D01*
X675799Y817087D01*
G54D17*
X680688Y821531D02*
X682021Y823754D01*
X684688Y824865D01*
X687355Y824865D01*
X690021Y823754D01*
X691355Y821531D01*
X691355Y819309D01*
X690021Y817087D01*
X687355Y815976D01*
X690021Y814865D01*
X691355Y812643D01*
X691355Y810420D01*
X690021Y808198D01*
X687355Y807087D01*
X684688Y807087D01*
X682021Y808198D01*
X680688Y810420D01*
G36*
X796Y893793D02*
X25599Y893793D01*
X25599Y904995D01*
X796Y904995D01*
X796Y893793D01*
G37*
G36*
X25599Y898189D02*
X58468Y898189D01*
X58468Y900599D01*
X25599Y900599D01*
X25599Y898189D01*
G37*
G36*
X58468Y898189D02*
X58468Y900599D01*
X44040Y925224D01*
X47456Y927010D01*
X51028Y928460D01*
X54723Y929559D01*
X58507Y930297D01*
X62344Y930668D01*
X66199Y930668D01*
X70036Y930297D01*
X73819Y929559D01*
X77514Y928460D01*
X81086Y927010D01*
X84502Y925224D01*
X70074Y900599D01*
X70074Y898189D01*
X84502Y873564D01*
X81086Y871778D01*
X77514Y870329D01*
X73819Y869230D01*
X70036Y868491D01*
X66199Y868120D01*
X62344Y868120D01*
X58507Y868491D01*
X54723Y869230D01*
X51028Y870329D01*
X47456Y871778D01*
X44040Y873564D01*
X58468Y898189D01*
G37*
G36*
X70074Y898189D02*
X88115Y898189D01*
X89819Y899893D01*
X89819Y910093D01*
X92229Y910093D01*
X92229Y899893D01*
X93934Y898189D01*
X115372Y898189D01*
X115372Y900599D01*
X94640Y900599D01*
X94640Y910799D01*
X92935Y912503D01*
X89113Y912503D01*
X87409Y910799D01*
X87409Y900599D01*
X70074Y900599D01*
X70074Y898189D01*
G37*
G36*
X115372Y898189D02*
X115372Y900599D01*
X100212Y926473D01*
X103752Y928324D01*
X107453Y929826D01*
X111281Y930964D01*
X115202Y931730D01*
X119178Y932114D01*
X123172Y932114D01*
X127148Y931730D01*
X131068Y930964D01*
X134897Y929826D01*
X138598Y928324D01*
X142137Y926473D01*
X126978Y900599D01*
X126978Y898189D01*
X142137Y872315D01*
X138598Y870464D01*
X134897Y868962D01*
X131068Y867824D01*
X127148Y867059D01*
X123172Y866674D01*
X119178Y866674D01*
X115202Y867059D01*
X111281Y867824D01*
X107453Y868962D01*
X103752Y870464D01*
X100212Y872315D01*
X115372Y898189D01*
G37*
G36*
X126978Y898189D02*
X140137Y898189D01*
X141842Y899893D01*
X141842Y907764D01*
X144900Y907764D01*
X144900Y891754D01*
X146605Y890050D01*
X151075Y890050D01*
X152780Y891754D01*
X152780Y896625D01*
X171614Y896625D01*
X171614Y899035D01*
X152074Y899035D01*
X150369Y897331D01*
X150369Y892460D01*
X147311Y892460D01*
X147311Y908470D01*
X145606Y910174D01*
X141136Y910174D01*
X139431Y908470D01*
X139431Y900599D01*
X126978Y900599D01*
X126978Y898189D01*
G37*
G36*
X171614Y896625D02*
X171614Y899035D01*
X156873Y924194D01*
X160342Y926007D01*
X163969Y927479D01*
X167721Y928595D01*
X171563Y929345D01*
X175459Y929722D01*
X179374Y929722D01*
X183270Y929345D01*
X187112Y928595D01*
X190864Y927479D01*
X194491Y926007D01*
X197960Y924194D01*
X183219Y899035D01*
X183219Y896625D01*
X197960Y871467D01*
X194491Y869653D01*
X190864Y868181D01*
X187112Y867065D01*
X183270Y866315D01*
X179374Y865939D01*
X175459Y865939D01*
X171563Y866315D01*
X167721Y867065D01*
X163969Y868181D01*
X160342Y869653D01*
X156873Y871467D01*
X171614Y896625D01*
G37*
G36*
X183219Y896625D02*
X201395Y896625D01*
X203100Y898329D01*
X203100Y904578D01*
X206158Y904578D01*
X206158Y888812D01*
X207863Y887108D01*
X212333Y887108D01*
X214038Y888812D01*
X214038Y895061D01*
X233376Y895061D01*
X233376Y897471D01*
X213332Y897471D01*
X211627Y895767D01*
X211627Y889518D01*
X208569Y889518D01*
X208569Y905284D01*
X206864Y906988D01*
X202394Y906988D01*
X200689Y905284D01*
X200689Y899035D01*
X183219Y899035D01*
X183219Y896625D01*
G37*
G36*
X233376Y895061D02*
X233376Y897471D01*
X219028Y921960D01*
X222430Y923740D01*
X225988Y925184D01*
X229669Y926278D01*
X233437Y927014D01*
X237259Y927383D01*
X241099Y927383D01*
X244921Y927014D01*
X248690Y926278D01*
X252370Y925184D01*
X255928Y923740D01*
X259331Y921960D01*
X244982Y897471D01*
X244982Y895061D01*
X259331Y870572D01*
X255928Y868792D01*
X252370Y867349D01*
X248690Y866254D01*
X244921Y865519D01*
X241099Y865149D01*
X237259Y865149D01*
X233437Y865519D01*
X229669Y866254D01*
X225988Y867349D01*
X222430Y868792D01*
X219028Y870572D01*
X233376Y895061D01*
G37*
G36*
X244982Y895061D02*
X263158Y895061D01*
X264862Y896765D01*
X264862Y902899D01*
X267921Y902899D01*
X267921Y887363D01*
X269625Y885659D01*
X274096Y885659D01*
X275800Y887363D01*
X275800Y893497D01*
X295668Y893497D01*
X295668Y895907D01*
X275094Y895907D01*
X273390Y894203D01*
X273390Y888069D01*
X270331Y888069D01*
X270331Y903605D01*
X268627Y905309D01*
X264156Y905309D01*
X262452Y903605D01*
X262452Y897471D01*
X244982Y897471D01*
X244982Y895061D01*
G37*
G36*
X295668Y893497D02*
X295668Y895907D01*
X281111Y920752D01*
X284549Y922550D01*
X288144Y924009D01*
X291862Y925115D01*
X295670Y925858D01*
X299532Y926231D01*
X303411Y926231D01*
X307273Y925858D01*
X311080Y925115D01*
X314799Y924009D01*
X318394Y922550D01*
X321831Y920752D01*
X307274Y895907D01*
X307274Y893497D01*
X321831Y868652D01*
X318394Y866854D01*
X314799Y865395D01*
X311080Y864289D01*
X307273Y863546D01*
X303411Y863173D01*
X299532Y863173D01*
X295670Y863546D01*
X291862Y864289D01*
X288144Y865395D01*
X284549Y866854D01*
X281111Y868652D01*
X295668Y893497D01*
G37*
G36*
X307274Y893497D02*
X325396Y893497D01*
X327100Y895201D01*
X327100Y900553D01*
X330159Y900553D01*
X330159Y886582D01*
X331863Y884878D01*
X336334Y884878D01*
X338038Y886582D01*
X338038Y891934D01*
X354713Y891934D01*
X354713Y894344D01*
X337332Y894344D01*
X335628Y892640D01*
X335628Y887288D01*
X332569Y887288D01*
X332569Y901259D01*
X330865Y902963D01*
X326394Y902963D01*
X324690Y901259D01*
X324690Y895907D01*
X307274Y895907D01*
X307274Y893497D01*
G37*
G36*
X354713Y891934D02*
X354713Y894344D01*
X340721Y918225D01*
X344064Y919972D01*
X347559Y921390D01*
X351174Y922466D01*
X354876Y923188D01*
X358630Y923551D01*
X362402Y923551D01*
X366156Y923188D01*
X369858Y922466D01*
X373474Y921390D01*
X376969Y919972D01*
X380311Y918225D01*
X366319Y894344D01*
X366319Y891934D01*
X380311Y868054D01*
X376969Y866306D01*
X373474Y864888D01*
X369858Y863812D01*
X366156Y863090D01*
X362402Y862727D01*
X358630Y862727D01*
X354876Y863090D01*
X351174Y863812D01*
X347559Y864888D01*
X344064Y866306D01*
X340721Y868054D01*
X354713Y891934D01*
G37*
G36*
X366319Y891934D02*
X384169Y891934D01*
X385873Y893638D01*
X385873Y902978D01*
X388283Y902978D01*
X388283Y893638D01*
X389988Y891934D01*
X407518Y891934D01*
X407518Y894344D01*
X390694Y894344D01*
X390694Y903684D01*
X388989Y905388D01*
X385167Y905388D01*
X383463Y903684D01*
X383463Y894344D01*
X366319Y894344D01*
X366319Y891934D01*
G37*
G36*
X407518Y891934D02*
X407518Y894344D01*
X399342Y908297D01*
X401702Y909532D01*
X404170Y910533D01*
X406724Y911292D01*
X409338Y911802D01*
X411989Y912059D01*
X414652Y912059D01*
X417303Y911802D01*
X419918Y911292D01*
X422470Y910533D01*
X424938Y909532D01*
X427299Y908297D01*
X419123Y894344D01*
X419123Y891934D01*
X427299Y877981D01*
X424938Y876747D01*
X422470Y875745D01*
X419918Y874986D01*
X417303Y874476D01*
X414652Y874219D01*
X411989Y874219D01*
X409338Y874476D01*
X406724Y874986D01*
X404170Y875745D01*
X401702Y876747D01*
X399342Y877981D01*
X407518Y891934D01*
G37*
G36*
X439055Y887538D02*
X439055Y898740D01*
X419123Y894344D01*
X419123Y891934D01*
X439055Y887538D01*
G37*
G36*
X439055Y887538D02*
X465758Y887538D01*
X465858Y898740D01*
X439055Y898740D01*
X439055Y887538D01*
G37*
G36*
X699916Y902759D02*
X671014Y901750D01*
X671322Y892924D01*
X700224Y893934D01*
X699916Y902759D01*
G37*
G36*
X671133Y898337D02*
X650605Y897620D01*
X650674Y895621D01*
X671202Y896337D01*
X671133Y898337D01*
G37*
G36*
X650605Y897620D02*
X650674Y895621D01*
X664651Y875177D01*
X661940Y873505D01*
X659082Y872095D01*
X656106Y870959D01*
X653035Y870109D01*
X649899Y869551D01*
X646723Y869290D01*
X643537Y869328D01*
X640370Y869667D01*
X637247Y870301D01*
X634198Y871226D01*
X631250Y872433D01*
X628428Y873912D01*
X640945Y895281D01*
X640875Y897280D01*
X626898Y917723D01*
X629610Y919396D01*
X632467Y920806D01*
X635444Y921941D01*
X638514Y922792D01*
X641651Y923350D01*
X644826Y923611D01*
X648012Y923572D01*
X651180Y923234D01*
X654302Y922600D01*
X657351Y921675D01*
X660299Y920467D01*
X663121Y918988D01*
X650605Y897620D01*
G37*
G36*
X640875Y897280D02*
X589976Y895502D01*
X590045Y893503D01*
X640945Y895281D01*
X640875Y897280D01*
G37*
G36*
X589976Y895502D02*
X590045Y893503D01*
X605383Y871070D01*
X602478Y869278D01*
X599418Y867768D01*
X596229Y866552D01*
X592940Y865641D01*
X589580Y865043D01*
X586178Y864763D01*
X582766Y864805D01*
X579372Y865167D01*
X576028Y865846D01*
X572762Y866837D01*
X569604Y868130D01*
X566581Y869715D01*
X580316Y893164D01*
X580246Y895163D01*
X564909Y917596D01*
X567814Y919388D01*
X570874Y920898D01*
X574063Y922114D01*
X577352Y923026D01*
X580712Y923623D01*
X584113Y923903D01*
X587526Y923861D01*
X590919Y923499D01*
X594264Y922820D01*
X597530Y921829D01*
X600688Y920536D01*
X603711Y918951D01*
X589976Y895502D01*
G37*
G36*
X580246Y895163D02*
X534102Y893551D01*
X534172Y891552D01*
X580316Y893164D01*
X580246Y895163D01*
G37*
G36*
X534102Y893551D02*
X534172Y891552D01*
X547140Y872585D01*
X544571Y871001D01*
X541865Y869666D01*
X539046Y868590D01*
X536137Y867785D01*
X533166Y867256D01*
X530159Y867009D01*
X527141Y867046D01*
X524141Y867366D01*
X521183Y867966D01*
X518295Y868842D01*
X515503Y869986D01*
X512830Y871387D01*
X524443Y891212D01*
X524373Y893212D01*
X511406Y912178D01*
X513974Y913763D01*
X516680Y915098D01*
X519500Y916174D01*
X522408Y916979D01*
X525379Y917508D01*
X528387Y917755D01*
X531404Y917718D01*
X534405Y917398D01*
X537362Y916797D01*
X540250Y915921D01*
X543042Y914778D01*
X545715Y913377D01*
X534102Y893551D01*
G37*
G36*
X511016Y896162D02*
X511324Y887337D01*
X524443Y891212D01*
X524373Y893212D01*
X511016Y896162D01*
G37*
G36*
X511016Y896162D02*
X499114Y896153D01*
X499322Y887428D01*
X511324Y887337D01*
X511016Y896162D01*
G37*
M02*
