%FSLAX34Y34*%
%MOMM*%
%LNCOPPER_TOP*%
G71*
G01*
%ADD10R,0.800X1.100*%
%ADD11C,0.800*%
%ADD12R,8.500X2.100*%
%ADD13C,2.500*%
%ADD14C,0.930*%
%ADD15C,0.010*%
%ADD16C,1.200*%
%ADD17C,0.222*%
%LPD*%
X283520Y912450D02*
G54D10*
D03*
X283520Y953250D02*
G54D10*
D03*
X296220Y912450D02*
G54D10*
D03*
G36*
X292220Y958750D02*
X300220Y958750D01*
X300220Y947750D01*
X292220Y947750D01*
X292220Y958750D01*
G37*
X308920Y912450D02*
G54D10*
D03*
G36*
X304920Y958750D02*
X312920Y958750D01*
X312920Y947750D01*
X304920Y947750D01*
X304920Y958750D01*
G37*
X321620Y912450D02*
G54D10*
D03*
X321620Y953250D02*
G54D10*
D03*
G54D11*
X283520Y912450D02*
X283520Y930450D01*
G54D11*
X308920Y912450D02*
X308920Y930050D01*
X308520Y930450D01*
G54D11*
X296220Y953250D02*
X296220Y936150D01*
X295520Y935450D01*
G54D11*
X308920Y953250D02*
X308920Y934850D01*
X308520Y934450D01*
G54D11*
X321620Y953250D02*
X321620Y935550D01*
X320520Y934450D01*
X302520Y932450D02*
G54D12*
D03*
X257520Y932450D02*
G54D13*
D03*
X348520Y932450D02*
G54D13*
D03*
X308920Y982850D02*
G54D13*
D03*
G54D11*
X296220Y953250D02*
X296220Y975150D01*
X305520Y986450D01*
G54D11*
X321620Y953250D02*
X321620Y980350D01*
X316520Y985450D01*
G54D11*
X308920Y953250D02*
X308920Y982850D01*
G54D11*
X296520Y967450D02*
X320520Y967450D01*
X306520Y967450D01*
X300520Y973450D01*
G36*
X296220Y975150D02*
X296220Y982150D01*
X301520Y987450D01*
X315764Y987426D01*
X321620Y980350D01*
X321620Y968550D01*
X320520Y967450D01*
X296220Y975150D01*
G37*
G54D11*
X296220Y975150D02*
X296220Y982150D01*
X301520Y987450D01*
X315764Y987426D01*
X321620Y980350D01*
X321620Y968550D01*
X320520Y967450D01*
X296220Y975150D01*
G54D14*
X296195Y913400D02*
X296187Y899499D01*
G36*
X300845Y913397D02*
X291545Y913402D01*
X291548Y918052D01*
X300848Y918047D01*
X300845Y913397D01*
G37*
G36*
X291537Y899502D02*
X300837Y899496D01*
X300834Y894846D01*
X291534Y894852D01*
X291537Y899502D01*
G37*
G36*
X293093Y887648D02*
X300800Y894844D01*
X292997Y897226D01*
X293093Y887648D01*
G37*
G54D15*
X293093Y887648D02*
X300800Y894844D01*
X292997Y897226D01*
X293093Y887648D01*
G54D11*
X308920Y912450D02*
X308920Y871850D01*
X309020Y871750D01*
X308920Y871850D02*
G54D13*
D03*
G54D14*
X283520Y952250D02*
X283520Y960250D01*
G36*
X278870Y952250D02*
X288170Y952250D01*
X288170Y947600D01*
X278870Y947600D01*
X278870Y952250D01*
G37*
G36*
X288170Y960250D02*
X278870Y960250D01*
X278870Y964900D01*
X288170Y964900D01*
X288170Y960250D01*
G37*
G54D14*
X301020Y871750D02*
X301020Y878250D01*
X308770Y886000D01*
G54D14*
X316862Y871750D02*
X316862Y878250D01*
X309112Y886000D01*
G54D14*
X321620Y913400D02*
X321628Y898781D01*
G36*
X326270Y913403D02*
X316970Y913397D01*
X316968Y918047D01*
X326268Y918053D01*
X326270Y913403D01*
G37*
G36*
X316978Y898779D02*
X326278Y898784D01*
X326281Y894134D01*
X316981Y894129D01*
X316978Y898779D01*
G37*
G36*
X325299Y886159D02*
X317031Y894133D01*
X324983Y895374D01*
X325299Y886159D01*
G37*
G54D15*
X325299Y886159D02*
X317031Y894133D01*
X324983Y895374D01*
X325299Y886159D01*
G54D16*
X249970Y984000D02*
X249970Y994000D01*
G36*
X243970Y984000D02*
X255970Y984000D01*
X255970Y978000D01*
X243970Y978000D01*
X243970Y984000D01*
G37*
G36*
X255970Y994000D02*
X243970Y994000D01*
X243970Y1000000D01*
X255970Y1000000D01*
X255970Y994000D01*
G37*
G54D17*
X604879Y807273D02*
X604879Y825051D01*
X611546Y813940D01*
X618212Y825051D01*
X618212Y807273D01*
G54D17*
X623101Y807273D02*
X623101Y825051D01*
G54D17*
X627990Y825051D02*
X641323Y807273D01*
G54D17*
X627990Y807273D02*
X641323Y825051D01*
G54D17*
X656879Y807273D02*
X646212Y807273D01*
X646212Y808384D01*
X647545Y810606D01*
X655545Y817273D01*
X656879Y819495D01*
X656879Y821717D01*
X655545Y823940D01*
X652879Y825051D01*
X650212Y825051D01*
X647545Y823940D01*
X646212Y821717D01*
G54D17*
X666924Y817273D02*
X672257Y807273D01*
X677591Y817273D01*
G54D17*
X690480Y807273D02*
X690480Y825051D01*
X682480Y813940D01*
X682480Y811717D01*
X693147Y811717D01*
G36*
X34863Y898794D02*
X104852Y897573D01*
X104887Y899572D01*
X34882Y900796D01*
X34863Y898794D01*
G37*
G36*
X104852Y897573D02*
X104887Y899572D01*
X75801Y941111D01*
X80294Y943944D01*
X85038Y946329D01*
X89991Y948246D01*
X95106Y949675D01*
X100335Y950604D01*
X105629Y951025D01*
X110940Y950932D01*
X116216Y950327D01*
X121409Y949216D01*
X126471Y947609D01*
X131354Y945521D01*
X136013Y942971D01*
X140404Y939983D01*
X109886Y899485D01*
X109851Y897485D01*
X138937Y855947D01*
X134444Y853114D01*
X129699Y850728D01*
X124746Y848812D01*
X119632Y847382D01*
X114403Y846453D01*
X109108Y846033D01*
X103798Y846126D01*
X98522Y846730D01*
X93329Y847842D01*
X88267Y849449D01*
X83384Y851537D01*
X78725Y854087D01*
X74334Y857074D01*
X104852Y897573D01*
G37*
G36*
X109851Y897485D02*
X143432Y896899D01*
X144870Y898288D01*
X145055Y908873D01*
X152054Y908750D01*
X151625Y884168D01*
X153014Y882730D01*
X161185Y882587D01*
X162623Y883976D01*
X162819Y895160D01*
X193814Y894619D01*
X193849Y896619D01*
X162268Y897170D01*
X160829Y895781D01*
X160634Y884597D01*
X153635Y884719D01*
X154064Y909301D01*
X152675Y910740D01*
X144504Y910883D01*
X143066Y909493D01*
X142881Y898909D01*
X109886Y899485D01*
X109851Y897485D01*
G37*
G36*
X193814Y894619D02*
X193849Y896619D01*
X164763Y938158D01*
X169256Y940990D01*
X174000Y943376D01*
X178953Y945292D01*
X184068Y946722D01*
X189297Y947651D01*
X194591Y948071D01*
X199902Y947979D01*
X205178Y947374D01*
X210371Y946263D01*
X215433Y944656D01*
X220316Y942567D01*
X224975Y940018D01*
X229366Y937030D01*
X198848Y896532D01*
X198813Y894532D01*
X227899Y852993D01*
X223406Y850161D01*
X218662Y847775D01*
X213709Y845859D01*
X208594Y844429D01*
X203365Y843500D01*
X198071Y843080D01*
X192760Y843172D01*
X187484Y843777D01*
X182291Y844888D01*
X177229Y846495D01*
X172346Y848584D01*
X167687Y851133D01*
X163296Y854121D01*
X193814Y894619D01*
G37*
G36*
X198813Y894532D02*
X268803Y893310D01*
X268837Y895310D01*
X198848Y896532D01*
X198813Y894532D01*
G37*
G36*
X268704Y887689D02*
X293093Y887648D01*
X293326Y900843D01*
X268936Y900932D01*
X268704Y887689D01*
G37*
G36*
X485Y893316D02*
X34885Y893316D01*
X34885Y906561D01*
X485Y906561D01*
X485Y893316D01*
G37*
G36*
X244000Y978000D02*
X244000Y960000D01*
X254000Y950000D01*
X270000Y950000D01*
X270000Y962000D01*
X256000Y962000D01*
X256000Y978000D01*
X244000Y978000D01*
G37*
G36*
X270000Y962000D02*
X278873Y964899D01*
X278875Y947607D01*
X270000Y950000D01*
X270000Y962000D01*
G37*
G36*
X699926Y906002D02*
X669855Y906012D01*
X669861Y894502D01*
X699946Y894508D01*
X699926Y906002D01*
G37*
G36*
X669973Y901527D02*
X651098Y901033D01*
X651165Y898474D01*
X670040Y898968D01*
X669973Y901527D01*
G37*
G36*
X651098Y901033D02*
X651165Y898474D01*
X665706Y871283D01*
X662801Y869899D01*
X659780Y868790D01*
X656669Y867967D01*
X653495Y867437D01*
X650286Y867203D01*
X647068Y867269D01*
X643871Y867632D01*
X640722Y868291D01*
X637646Y869240D01*
X634673Y870470D01*
X647771Y898385D01*
X647704Y900944D01*
X633163Y928135D01*
X636068Y929519D01*
X639089Y930628D01*
X642200Y931451D01*
X645374Y931981D01*
X648583Y932215D01*
X651801Y932150D01*
X654998Y931786D01*
X658148Y931127D01*
X661223Y930178D01*
X664196Y928948D01*
X651098Y901033D01*
G37*
G36*
X647704Y900944D02*
X598438Y899654D01*
X598505Y897095D01*
X647771Y898385D01*
X647704Y900944D01*
G37*
G36*
X598438Y899654D02*
X598505Y897095D01*
X614734Y866748D01*
X611529Y865220D01*
X608196Y863998D01*
X604763Y863089D01*
X601261Y862504D01*
X597720Y862246D01*
X594170Y862318D01*
X590642Y862720D01*
X587166Y863447D01*
X583774Y864494D01*
X580493Y865851D01*
X595111Y897006D01*
X595044Y899565D01*
X578815Y929913D01*
X582021Y931440D01*
X585354Y932663D01*
X588786Y933571D01*
X592289Y934156D01*
X595830Y934414D01*
X599380Y934342D01*
X602908Y933941D01*
X606383Y933214D01*
X609776Y932167D01*
X613057Y930810D01*
X598438Y899654D01*
G37*
G36*
X595044Y899565D02*
X543058Y898204D01*
X543125Y895645D01*
X595111Y897006D01*
X595044Y899565D01*
G37*
G36*
X543058Y898204D02*
X543125Y895645D01*
X559530Y864968D01*
X556293Y863426D01*
X552927Y862191D01*
X549461Y861274D01*
X545925Y860682D01*
X542349Y860422D01*
X538764Y860495D01*
X535202Y860900D01*
X531692Y861635D01*
X528266Y862692D01*
X524953Y864062D01*
X539730Y895556D01*
X539664Y898115D01*
X523258Y928792D01*
X526495Y930334D01*
X529861Y931569D01*
X533327Y932486D01*
X536863Y933078D01*
X540439Y933338D01*
X544024Y933265D01*
X547586Y932860D01*
X551096Y932125D01*
X554522Y931068D01*
X557835Y929698D01*
X543058Y898204D01*
G37*
G36*
X539664Y898115D02*
X486670Y896727D01*
X486737Y894168D01*
X539730Y895556D01*
X539664Y898115D01*
G37*
G36*
X486670Y896727D02*
X486737Y894168D01*
X503132Y863511D01*
X499897Y861969D01*
X496533Y860735D01*
X493069Y859819D01*
X489534Y859228D01*
X485961Y858968D01*
X482378Y859041D01*
X478818Y859446D01*
X475310Y860180D01*
X471886Y861236D01*
X468575Y862606D01*
X483343Y894080D01*
X483276Y896638D01*
X466881Y927296D01*
X470116Y928837D01*
X473480Y930072D01*
X476944Y930988D01*
X480478Y931579D01*
X484052Y931839D01*
X487635Y931766D01*
X491195Y931361D01*
X494703Y930627D01*
X498127Y929571D01*
X501438Y928201D01*
X486670Y896727D01*
G37*
G36*
X483276Y896638D02*
X430936Y895268D01*
X431003Y892709D01*
X483343Y894080D01*
X483276Y896638D01*
G37*
G36*
X430936Y895268D02*
X431003Y892709D01*
X446893Y862995D01*
X443748Y861497D01*
X440477Y860297D01*
X437109Y859406D01*
X433673Y858832D01*
X430199Y858579D01*
X426715Y858649D01*
X423254Y859043D01*
X419844Y859757D01*
X416515Y860784D01*
X413296Y862116D01*
X427609Y892620D01*
X427542Y895179D01*
X411652Y924893D01*
X414797Y926391D01*
X418068Y927591D01*
X421436Y928482D01*
X424872Y929056D01*
X428346Y929309D01*
X431830Y929239D01*
X435291Y928845D01*
X438701Y928131D01*
X442030Y927104D01*
X445249Y925772D01*
X430936Y895268D01*
G37*
G36*
X427542Y895179D02*
X383437Y894024D01*
X383504Y891465D01*
X427609Y892620D01*
X427542Y895179D01*
G37*
G36*
X383437Y894024D02*
X383504Y891465D01*
X395353Y869309D01*
X392927Y868153D01*
X390404Y867227D01*
X387806Y866540D01*
X385155Y866097D01*
X382475Y865902D01*
X379788Y865956D01*
X377118Y866260D01*
X374488Y866811D01*
X371920Y867603D01*
X369437Y868630D01*
X380110Y891376D01*
X380043Y893935D01*
X368194Y916092D01*
X370620Y917247D01*
X373143Y918173D01*
X375741Y918860D01*
X378391Y919303D01*
X381072Y919498D01*
X383758Y919444D01*
X386428Y919140D01*
X389059Y918590D01*
X391627Y917797D01*
X394110Y916770D01*
X383437Y894024D01*
G37*
G36*
X371096Y898189D02*
X371398Y886660D01*
X380110Y891376D01*
X380043Y893935D01*
X371096Y898189D01*
G37*
G36*
X371096Y898189D02*
X324900Y897184D01*
X325300Y886108D01*
X371398Y886660D01*
X371096Y898189D01*
G37*
M02*
