%FSLAX34Y34*%
%MOMM*%
%LNCOPPER_TOP*%
G71*
G01*
%ADD10C,3.800*%
%ADD11C,2.300*%
%ADD12C,4.000*%
%ADD13C,2.200*%
%ADD14R,1.600X2.200*%
%ADD15C,3.000*%
%ADD16C,3.800*%
%ADD17C,2.600*%
%ADD18C,2.800*%
%ADD19C,3.800*%
%ADD20R,2.200X1.900*%
%ADD21R,1.700X2.000*%
%ADD22C,1.600*%
%ADD23C,1.700*%
%ADD24R,1.900X2.200*%
%ADD25C,1.900*%
%ADD26C,1.800*%
%ADD27R,3.100X2.200*%
%ADD28R,2.100X2.400*%
%ADD29R,2.400X2.100*%
%ADD30R,2.000X1.700*%
%ADD31C,2.000*%
%ADD32C,2.900*%
%ADD33C,0.100*%
%ADD34C,0.600*%
%ADD35C,1.500*%
%ADD36R,1.200X0.900*%
%ADD37R,0.800X0.900*%
%ADD38C,3.200*%
%ADD39C,1.400*%
%ADD40R,0.800X1.400*%
%ADD41C,2.200*%
%ADD42C,3.000*%
%ADD43C,1.800*%
%ADD44C,1.200*%
%ADD45C,0.700*%
%ADD46C,2.000*%
%ADD47C,3.000*%
%ADD48R,1.400X1.100*%
%ADD49R,1.100X1.400*%
%ADD50C,0.800*%
%ADD51C,1.100*%
%ADD52C,1.000*%
%ADD53R,2.300X1.400*%
%ADD54R,1.400X0.800*%
%ADD55C,2.100*%
%LPD*%
G36*
X0Y1000000D02*
X1000000Y1000000D01*
X1000000Y700000D01*
X0Y700000D01*
X0Y1000000D01*
G37*
%LPC*%
X51320Y947220D02*
G54D10*
D03*
X51320Y896420D02*
G54D10*
D03*
X152920Y921820D02*
G54D10*
D03*
G54D11*
X51320Y947220D02*
X61971Y957870D01*
X146599Y957826D01*
G54D11*
X177374Y957827D02*
X388000Y957870D01*
X780604Y957504D01*
X50000Y850250D02*
G54D12*
D03*
G54D11*
X83046Y849873D02*
X59395Y849842D01*
X47000Y852120D01*
X47000Y852250D01*
G36*
X83060Y838373D02*
X83031Y861373D01*
X94531Y861388D01*
X94560Y838388D01*
X83060Y838373D01*
G37*
G54D11*
X61000Y811000D02*
X97000Y811000D01*
X115250Y829886D01*
X115250Y856000D01*
X120250Y861000D01*
X128370Y861000D01*
G36*
X128371Y849500D02*
X128370Y872500D01*
X139870Y872501D01*
X139871Y849501D01*
X128371Y849500D01*
G37*
G54D11*
X154920Y921820D02*
X155527Y921212D01*
X155527Y861058D01*
G36*
X144027Y861058D02*
X167027Y861058D01*
X167027Y849558D01*
X144027Y849558D01*
X144027Y861058D01*
G37*
G54D13*
X188505Y861147D02*
X188550Y930204D01*
G36*
X177505Y861154D02*
X199505Y861140D01*
X199498Y850140D01*
X177498Y850154D01*
X177505Y861154D01*
G37*
G36*
X199550Y930197D02*
X177550Y930211D01*
X177557Y941211D01*
X199557Y941197D01*
X199550Y930197D01*
G37*
G54D13*
X188505Y840547D02*
X188453Y815999D01*
G36*
X199505Y840523D02*
X177505Y840570D01*
X177529Y851570D01*
X199529Y851523D01*
X199505Y840523D01*
G37*
X879720Y855680D02*
G54D10*
D03*
X879720Y906480D02*
G54D10*
D03*
X778120Y881080D02*
G54D10*
D03*
X518857Y786300D02*
G54D14*
D03*
X498257Y786300D02*
G54D14*
D03*
X755924Y743296D02*
G54D15*
D03*
X827766Y815138D02*
G54D15*
D03*
X868126Y815175D02*
G54D15*
D03*
X796284Y743333D02*
G54D15*
D03*
X820534Y743333D02*
G54D15*
D03*
X922134Y743333D02*
G54D15*
D03*
G54D13*
X749962Y777289D02*
X743634Y777313D01*
G36*
X749920Y766289D02*
X750003Y788289D01*
X761003Y788248D01*
X760920Y766248D01*
X749920Y766289D01*
G37*
G36*
X743675Y788313D02*
X743592Y766313D01*
X732592Y766355D01*
X732675Y788355D01*
X743675Y788313D01*
G37*
X962825Y841216D02*
G54D15*
D03*
X890983Y769374D02*
G54D15*
D03*
X950250Y791250D02*
G54D16*
D03*
X954500Y939000D02*
G54D16*
D03*
X962250Y886500D02*
G54D17*
D03*
X922250Y886500D02*
G54D17*
D03*
X61000Y811000D02*
G54D18*
D03*
X188453Y885999D02*
G54D18*
D03*
X188453Y815999D02*
G54D18*
D03*
X302000Y816000D02*
G54D18*
D03*
X372000Y816000D02*
G54D18*
D03*
X416453Y815999D02*
G54D18*
D03*
X486453Y815999D02*
G54D18*
D03*
X530453Y815999D02*
G54D18*
D03*
X600453Y815999D02*
G54D18*
D03*
X714453Y815999D02*
G54D18*
D03*
G54D11*
X744766Y810674D02*
X744724Y805510D01*
X744649Y799315D01*
G36*
X756265Y810581D02*
X733266Y810767D01*
X733359Y822266D01*
X756358Y822081D01*
X756265Y810581D01*
G37*
G36*
X733150Y799455D02*
X756148Y799175D01*
X756008Y787676D01*
X733010Y787955D01*
X733150Y799455D01*
G37*
X745473Y919274D02*
G54D12*
D03*
X933004Y957504D02*
G54D19*
D03*
X780604Y957504D02*
G54D19*
D03*
X188505Y861147D02*
G54D20*
D03*
X188505Y840547D02*
G54D20*
D03*
X152205Y816083D02*
G54D21*
D03*
X172805Y816083D02*
G54D21*
D03*
G54D22*
X152000Y838000D02*
X151992Y822935D01*
X152205Y816083D01*
X152205Y815583D01*
G36*
X160000Y837996D02*
X144000Y838004D01*
X144004Y846004D01*
X160004Y845996D01*
X160000Y837996D01*
G37*
G54D23*
X172805Y816083D02*
X188037Y816083D01*
X188453Y816499D01*
X207000Y861100D02*
G54D24*
D03*
G54D25*
X207000Y861100D02*
X188652Y861100D01*
X188505Y861247D01*
X188550Y950804D02*
G54D20*
D03*
X188550Y930204D02*
G54D20*
D03*
X382000Y786000D02*
G54D20*
D03*
X406453Y785999D02*
G54D20*
D03*
G54D26*
X372000Y816000D02*
X382000Y786000D01*
G54D26*
X382000Y786000D02*
X406453Y785999D01*
X416453Y815999D01*
X486453Y785999D02*
G54D20*
D03*
X530453Y785999D02*
G54D20*
D03*
G54D26*
X486453Y815999D02*
X486453Y785999D01*
G54D26*
X530453Y815999D02*
X530453Y785999D01*
G54D26*
X529952Y786000D02*
X521500Y786000D01*
G54D26*
X486054Y786000D02*
X488600Y786000D01*
X490857Y786300D02*
G54D27*
D03*
X526357Y786300D02*
G54D27*
D03*
X302000Y786000D02*
G54D20*
D03*
X273852Y773000D02*
G54D28*
D03*
X253252Y773000D02*
G54D28*
D03*
X223500Y773000D02*
G54D20*
D03*
G54D25*
X223500Y773000D02*
X203000Y773000D01*
X188000Y788000D01*
X188000Y815546D01*
X188453Y815999D01*
G54D26*
X223500Y773000D02*
X253252Y773000D01*
G54D26*
X273852Y780700D02*
X279152Y786000D01*
X302000Y786000D01*
G54D26*
X302000Y786000D02*
X302000Y816000D01*
G54D26*
X273852Y780700D02*
X273852Y773000D01*
X600453Y785999D02*
G54D20*
D03*
X621453Y785999D02*
G54D20*
D03*
X689852Y771000D02*
G54D28*
D03*
X669252Y771000D02*
G54D28*
D03*
X714453Y834999D02*
G54D20*
D03*
G54D25*
X600453Y815999D02*
X600453Y785999D01*
G54D25*
X600453Y785999D02*
X621453Y785999D01*
X638001Y785999D01*
X653000Y771000D01*
X669252Y771000D01*
G54D25*
X714453Y815999D02*
X714453Y834999D01*
G54D26*
X689852Y771000D02*
X690000Y771000D01*
X714453Y795453D01*
X714453Y815999D01*
G54D26*
X720102Y798592D02*
X720102Y812898D01*
X718000Y815000D01*
G54D26*
X720114Y791946D02*
X706000Y787000D01*
G54D11*
X777580Y772059D02*
X777580Y763670D01*
X777560Y792756D01*
G36*
X789080Y772059D02*
X766080Y772059D01*
X766080Y783559D01*
X789080Y783559D01*
X789080Y772059D01*
G37*
G36*
X789060Y792764D02*
X766060Y792749D01*
X766053Y804249D01*
X789053Y804264D01*
X789060Y792764D01*
G37*
X776852Y777300D02*
G54D28*
D03*
X756252Y777300D02*
G54D28*
D03*
X765616Y852774D02*
G54D28*
D03*
X745016Y852774D02*
G54D28*
D03*
X744766Y811674D02*
G54D29*
D03*
X744766Y832274D02*
G54D29*
D03*
G54D11*
X744766Y833274D02*
X744766Y917566D01*
X750223Y923024D01*
G36*
X733266Y833274D02*
X756266Y833274D01*
X756266Y821774D01*
X733266Y821774D01*
X733266Y833274D01*
G37*
G36*
X788120Y892080D02*
X807120Y892080D01*
X807120Y870080D01*
X788120Y870080D01*
X788120Y892080D01*
G37*
G36*
X768102Y844150D02*
X787102Y844150D01*
X787102Y822150D01*
X768102Y822150D01*
X768102Y844150D01*
G37*
X777602Y794800D02*
G54D20*
D03*
X777602Y815400D02*
G54D20*
D03*
G54D13*
X777602Y833150D02*
X777602Y815400D01*
G36*
X788602Y833150D02*
X766602Y833150D01*
X766602Y844150D01*
X788602Y844150D01*
X788602Y833150D01*
G37*
G36*
X766602Y815400D02*
X788602Y815400D01*
X788602Y804400D01*
X766602Y804400D01*
X766602Y815400D01*
G37*
X742373Y743320D02*
G54D24*
D03*
X153544Y889500D02*
G54D24*
D03*
X149599Y957826D02*
G54D21*
D03*
X170199Y957826D02*
G54D21*
D03*
X83046Y847873D02*
G54D30*
D03*
X83046Y827273D02*
G54D30*
D03*
G54D31*
X83046Y824773D02*
X83046Y811023D01*
X83046Y809273D02*
G54D20*
D03*
G54D13*
X797620Y881080D02*
X778120Y881080D01*
G36*
X797620Y870080D02*
X797620Y892080D01*
X808620Y892080D01*
X808620Y870080D01*
X797620Y870080D01*
G37*
X866977Y936900D02*
G54D30*
D03*
X866977Y957500D02*
G54D30*
D03*
G54D11*
X755924Y743296D02*
X757205Y743296D01*
X777580Y763670D01*
G54D11*
X827766Y815138D02*
X868089Y815138D01*
X868126Y815175D01*
G54D11*
X796284Y743333D02*
X821034Y743333D01*
G54D11*
X890983Y769374D02*
X922134Y743333D01*
X949634Y743333D02*
G54D30*
D03*
X949634Y763933D02*
G54D30*
D03*
G54D25*
X949923Y768334D02*
X950250Y791250D01*
G54D23*
X949384Y743333D02*
X922134Y743333D01*
X922500Y848900D02*
G54D30*
D03*
X922500Y869500D02*
G54D30*
D03*
X922464Y831046D02*
G54D24*
D03*
G54D25*
X765616Y852774D02*
X778120Y881080D01*
G54D32*
X933004Y957504D02*
X954500Y939000D01*
G54D25*
X780604Y957504D02*
X876496Y957504D01*
X922500Y911500D01*
X922500Y886750D01*
X922250Y886500D01*
G54D25*
X922372Y872572D02*
X922250Y886500D01*
G54D31*
X879720Y906480D02*
X866977Y919222D01*
X866977Y934150D01*
G54D25*
X922464Y831046D02*
X922500Y831082D01*
X922500Y846635D01*
G54D25*
X962825Y841216D02*
X962825Y841250D01*
X924750Y841250D01*
G36*
X741750Y841000D02*
X788180Y841000D01*
X788180Y777580D01*
X741750Y777580D01*
X741750Y841000D01*
G37*
G54D33*
X741750Y841000D02*
X788180Y841000D01*
X788180Y777580D01*
X741750Y777580D01*
X741750Y841000D01*
G36*
X886750Y915750D02*
X857500Y915750D01*
X857500Y953750D01*
X886750Y953750D01*
X886750Y915750D01*
G37*
G54D33*
X886750Y915750D02*
X857500Y915750D01*
X857500Y953750D01*
X886750Y953750D01*
X886750Y915750D01*
G36*
X880500Y937750D02*
X900500Y937750D01*
X900500Y910000D01*
X880500Y910000D01*
X880500Y937750D01*
G37*
G54D33*
X880500Y937750D02*
X900500Y937750D01*
X900500Y910000D01*
X880500Y910000D01*
X880500Y937750D01*
G36*
X885000Y926500D02*
X917500Y926500D01*
X917500Y907750D01*
X885000Y907750D01*
X885000Y926500D01*
G37*
G54D33*
X885000Y926500D02*
X917500Y926500D01*
X917500Y907750D01*
X885000Y907750D01*
X885000Y926500D01*
G36*
X180500Y943000D02*
X196500Y943000D01*
X196500Y934250D01*
X180500Y934250D01*
X180500Y943000D01*
G37*
G54D34*
X180500Y943000D02*
X196500Y943000D01*
X196500Y934250D01*
X180500Y934250D01*
X180500Y943000D01*
%LPD*%
X51320Y947220D02*
G54D15*
D03*
X51320Y896420D02*
G54D15*
D03*
X152920Y921820D02*
G54D15*
D03*
G54D35*
X51320Y947220D02*
X61971Y957870D01*
X146599Y957826D01*
G54D35*
X177374Y957827D02*
X388000Y957870D01*
X780604Y957504D01*
X134000Y838000D02*
G54D36*
D03*
X152000Y838000D02*
G54D37*
D03*
X152000Y858000D02*
G54D37*
D03*
X132000Y858000D02*
G54D37*
D03*
X50000Y850250D02*
G54D38*
D03*
G54D35*
X83046Y849873D02*
X59395Y849842D01*
X47000Y852120D01*
X47000Y852250D01*
G36*
X83055Y842373D02*
X83036Y857373D01*
X90536Y857383D01*
X90555Y842383D01*
X83055Y842373D01*
G37*
G54D35*
X61000Y811000D02*
X97000Y811000D01*
X115250Y829886D01*
X115250Y856000D01*
X120250Y861000D01*
X128370Y861000D01*
G36*
X128371Y853500D02*
X128370Y868500D01*
X135870Y868500D01*
X135871Y853500D01*
X128371Y853500D01*
G37*
G54D35*
X154920Y921820D02*
X155527Y921212D01*
X155527Y861058D01*
G36*
X148027Y861058D02*
X163027Y861058D01*
X163027Y853558D01*
X148027Y853558D01*
X148027Y861058D01*
G37*
G54D39*
X188505Y861147D02*
X188550Y930204D01*
G36*
X181505Y861151D02*
X195505Y861142D01*
X195501Y854142D01*
X181501Y854151D01*
X181505Y861151D01*
G37*
G36*
X195550Y930199D02*
X181550Y930208D01*
X181554Y937208D01*
X195554Y937199D01*
X195550Y930199D01*
G37*
G54D39*
X188505Y840547D02*
X188453Y815999D01*
G36*
X195505Y840532D02*
X181505Y840562D01*
X181520Y847562D01*
X195520Y847532D01*
X195505Y840532D01*
G37*
X879720Y855680D02*
G54D15*
D03*
X879720Y906480D02*
G54D15*
D03*
X778120Y881080D02*
G54D15*
D03*
X518857Y786300D02*
G54D40*
D03*
X498257Y786300D02*
G54D40*
D03*
X723112Y776321D02*
G54D36*
D03*
X741112Y776321D02*
G54D37*
D03*
G36*
X737112Y800821D02*
X745112Y800821D01*
X745112Y791821D01*
X737112Y791821D01*
X737112Y800821D01*
G37*
X721112Y796321D02*
G54D37*
D03*
X755924Y743296D02*
G54D41*
D03*
X827766Y815138D02*
G54D41*
D03*
X868126Y815175D02*
G54D41*
D03*
X796284Y743333D02*
G54D41*
D03*
X820534Y743333D02*
G54D41*
D03*
X922134Y743333D02*
G54D41*
D03*
G54D39*
X749962Y777289D02*
X743634Y777313D01*
G36*
X749935Y770289D02*
X749988Y784289D01*
X756988Y784263D01*
X756935Y770263D01*
X749935Y770289D01*
G37*
G36*
X743660Y784313D02*
X743607Y770313D01*
X736607Y770340D01*
X736660Y784340D01*
X743660Y784313D01*
G37*
X962825Y841216D02*
G54D41*
D03*
X890983Y769374D02*
G54D41*
D03*
X950250Y791250D02*
G54D42*
D03*
X954500Y939000D02*
G54D42*
D03*
X962250Y886500D02*
G54D43*
D03*
X922250Y886500D02*
G54D43*
D03*
G54D44*
X51320Y896420D02*
X21000Y896420D01*
X21000Y897000D01*
G54D44*
X51320Y896420D02*
X51000Y896420D01*
X51000Y919750D01*
G54D44*
X51320Y896420D02*
X82580Y896420D01*
X83000Y896000D01*
G54D44*
X879500Y856000D02*
X836500Y856000D01*
X835500Y855000D01*
G54D44*
X879500Y880000D02*
X879500Y834750D01*
G54D45*
X962250Y907500D02*
X962250Y861500D01*
G54D45*
X962250Y886500D02*
X981250Y886500D01*
X146000Y776000D02*
G54D15*
D03*
X46000Y776000D02*
G54D15*
D03*
X131000Y741000D02*
G54D46*
D03*
X131000Y811000D02*
G54D46*
D03*
X96000Y741000D02*
G54D46*
D03*
X61000Y811000D02*
G54D46*
D03*
X61000Y741000D02*
G54D46*
D03*
X61000Y811000D02*
G54D46*
D03*
X223453Y900999D02*
G54D15*
D03*
X223453Y800999D02*
G54D15*
D03*
X258453Y885999D02*
G54D46*
D03*
X188453Y885999D02*
G54D46*
D03*
X258453Y850999D02*
G54D46*
D03*
X188453Y815999D02*
G54D46*
D03*
X258453Y815999D02*
G54D46*
D03*
X188453Y885999D02*
G54D46*
D03*
X188453Y815999D02*
G54D46*
D03*
X287000Y851000D02*
G54D15*
D03*
X387000Y851000D02*
G54D15*
D03*
X302000Y886000D02*
G54D46*
D03*
X302000Y816000D02*
G54D46*
D03*
X337000Y886000D02*
G54D46*
D03*
X372000Y816000D02*
G54D46*
D03*
X372000Y886000D02*
G54D46*
D03*
X401453Y850999D02*
G54D15*
D03*
X501453Y850999D02*
G54D15*
D03*
X416453Y885999D02*
G54D46*
D03*
X416453Y815999D02*
G54D46*
D03*
X451454Y885999D02*
G54D46*
D03*
X486453Y815999D02*
G54D46*
D03*
X486453Y885999D02*
G54D46*
D03*
X515453Y850999D02*
G54D15*
D03*
X615453Y850999D02*
G54D15*
D03*
X530453Y885999D02*
G54D46*
D03*
X530453Y815999D02*
G54D46*
D03*
X565453Y885999D02*
G54D46*
D03*
X600453Y815999D02*
G54D46*
D03*
X600453Y885999D02*
G54D46*
D03*
X302000Y816000D02*
G54D46*
D03*
X372000Y816000D02*
G54D46*
D03*
X416453Y815999D02*
G54D46*
D03*
X486453Y815999D02*
G54D46*
D03*
X530453Y815999D02*
G54D46*
D03*
X600453Y815999D02*
G54D46*
D03*
X679453Y800999D02*
G54D15*
D03*
X679454Y900999D02*
G54D15*
D03*
X644453Y815999D02*
G54D46*
D03*
X714453Y815999D02*
G54D46*
D03*
X644453Y850999D02*
G54D46*
D03*
X714453Y885999D02*
G54D46*
D03*
X644453Y885999D02*
G54D46*
D03*
X714453Y815999D02*
G54D46*
D03*
G54D35*
X744766Y810674D02*
X744724Y805510D01*
X744649Y799315D01*
G36*
X752265Y810613D02*
X737266Y810734D01*
X737326Y818234D01*
X752326Y818113D01*
X752265Y810613D01*
G37*
G36*
X737149Y799406D02*
X752148Y799224D01*
X752057Y791724D01*
X737058Y791907D01*
X737149Y799406D01*
G37*
X745473Y919274D02*
G54D38*
D03*
X933004Y957504D02*
G54D47*
D03*
X780604Y957504D02*
G54D47*
D03*
X188505Y861147D02*
G54D48*
D03*
X188505Y840547D02*
G54D48*
D03*
X152205Y816083D02*
G54D49*
D03*
X172805Y816083D02*
G54D49*
D03*
G54D50*
X152000Y838000D02*
X151992Y822935D01*
X152205Y816083D01*
X152205Y815583D01*
G36*
X156000Y837998D02*
X148000Y838002D01*
X148002Y842002D01*
X156002Y841998D01*
X156000Y837998D01*
G37*
G54D51*
X172805Y816083D02*
X188037Y816083D01*
X188453Y816499D01*
X207000Y861100D02*
G54D49*
D03*
X227600Y861100D02*
G54D49*
D03*
G54D51*
X207000Y861100D02*
X188652Y861100D01*
X188505Y861247D01*
X188550Y950804D02*
G54D48*
D03*
X188550Y930204D02*
G54D48*
D03*
X382000Y786000D02*
G54D48*
D03*
X382000Y765400D02*
G54D48*
D03*
X406453Y785999D02*
G54D48*
D03*
X406453Y765399D02*
G54D48*
D03*
G54D52*
X372000Y816000D02*
X382000Y786000D01*
G54D52*
X382000Y786000D02*
X406453Y785999D01*
X416453Y815999D01*
X486453Y785999D02*
G54D48*
D03*
X486453Y765399D02*
G54D48*
D03*
X530453Y785999D02*
G54D48*
D03*
X530453Y765399D02*
G54D48*
D03*
G54D52*
X486453Y815999D02*
X486453Y785999D01*
G54D52*
X530453Y815999D02*
X530453Y785999D01*
G54D52*
X529952Y786000D02*
X521500Y786000D01*
G54D52*
X486054Y786000D02*
X488600Y786000D01*
X490857Y786300D02*
G54D53*
D03*
X526357Y786300D02*
G54D53*
D03*
X302000Y786000D02*
G54D48*
D03*
X302000Y765400D02*
G54D48*
D03*
X273852Y773000D02*
G54D49*
D03*
X253252Y773000D02*
G54D49*
D03*
X223500Y773000D02*
G54D48*
D03*
X223500Y752400D02*
G54D48*
D03*
G54D51*
X223500Y773000D02*
X203000Y773000D01*
X188000Y788000D01*
X188000Y815546D01*
X188453Y815999D01*
G54D52*
X223500Y773000D02*
X253252Y773000D01*
G54D52*
X273852Y780700D02*
X279152Y786000D01*
X302000Y786000D01*
G54D52*
X302000Y786000D02*
X302000Y816000D01*
G54D52*
X273852Y780700D02*
X273852Y773000D01*
X600453Y785999D02*
G54D48*
D03*
X600453Y765399D02*
G54D48*
D03*
X621453Y785999D02*
G54D48*
D03*
X621453Y765399D02*
G54D48*
D03*
X689852Y771000D02*
G54D49*
D03*
X669252Y771000D02*
G54D49*
D03*
X714453Y834999D02*
G54D48*
D03*
X714453Y855599D02*
G54D48*
D03*
G54D51*
X600453Y815999D02*
X600453Y785999D01*
G54D51*
X600453Y785999D02*
X621453Y785999D01*
X638001Y785999D01*
X653000Y771000D01*
X669252Y771000D01*
G54D51*
X714453Y815999D02*
X714453Y834999D01*
G54D52*
X689852Y771000D02*
X690000Y771000D01*
X714453Y795453D01*
X714453Y815999D01*
G54D52*
X720102Y798592D02*
X720102Y812898D01*
X718000Y815000D01*
G54D52*
X720114Y791946D02*
X706000Y787000D01*
G54D35*
X777580Y772059D02*
X777580Y763670D01*
X777560Y792756D01*
G36*
X785080Y772059D02*
X770080Y772059D01*
X770080Y779559D01*
X785080Y779559D01*
X785080Y772059D01*
G37*
G36*
X785060Y792761D02*
X770060Y792751D01*
X770055Y800251D01*
X785055Y800261D01*
X785060Y792761D01*
G37*
X776852Y777300D02*
G54D49*
D03*
X756252Y777300D02*
G54D49*
D03*
X765616Y852774D02*
G54D49*
D03*
X745016Y852774D02*
G54D49*
D03*
X744766Y811674D02*
G54D48*
D03*
X744766Y832274D02*
G54D48*
D03*
G54D35*
X744766Y833274D02*
X744766Y917566D01*
X750223Y923024D01*
G36*
X737266Y833274D02*
X752266Y833274D01*
X752266Y825774D01*
X737266Y825774D01*
X737266Y833274D01*
G37*
G36*
X792120Y888080D02*
X803120Y888080D01*
X803120Y874080D01*
X792120Y874080D01*
X792120Y888080D01*
G37*
G36*
X812720Y888080D02*
X823720Y888080D01*
X823720Y874080D01*
X812720Y874080D01*
X812720Y888080D01*
G37*
G36*
X772102Y840150D02*
X783102Y840150D01*
X783102Y826150D01*
X772102Y826150D01*
X772102Y840150D01*
G37*
G36*
X792702Y840150D02*
X803702Y840150D01*
X803702Y826150D01*
X792702Y826150D01*
X792702Y840150D01*
G37*
X777602Y794800D02*
G54D48*
D03*
X777602Y815400D02*
G54D48*
D03*
G54D39*
X777602Y833150D02*
X777602Y815400D01*
G36*
X784602Y833150D02*
X770602Y833150D01*
X770602Y840150D01*
X784602Y840150D01*
X784602Y833150D01*
G37*
G36*
X770602Y815400D02*
X784602Y815400D01*
X784602Y808400D01*
X770602Y808400D01*
X770602Y815400D01*
G37*
X742373Y743320D02*
G54D49*
D03*
X721772Y743319D02*
G54D49*
D03*
X153544Y889500D02*
G54D49*
D03*
X132944Y889500D02*
G54D49*
D03*
X149599Y957826D02*
G54D49*
D03*
X170199Y957826D02*
G54D49*
D03*
X83046Y847873D02*
G54D48*
D03*
X83046Y827273D02*
G54D48*
D03*
G54D39*
X83046Y824773D02*
X83046Y811023D01*
X83046Y809273D02*
G54D48*
D03*
X83046Y788673D02*
G54D48*
D03*
G54D39*
X797620Y881080D02*
X778120Y881080D01*
G36*
X797620Y874080D02*
X797620Y888080D01*
X804620Y888080D01*
X804620Y874080D01*
X797620Y874080D01*
G37*
X866977Y936900D02*
G54D48*
D03*
X866977Y957500D02*
G54D48*
D03*
G54D35*
X755924Y743296D02*
X757205Y743296D01*
X777580Y763670D01*
G54D35*
X827766Y815138D02*
X868089Y815138D01*
X868126Y815175D01*
G54D35*
X796284Y743333D02*
X821034Y743333D01*
G54D35*
X890983Y769374D02*
X922134Y743333D01*
X949634Y743333D02*
G54D48*
D03*
X949634Y763933D02*
G54D48*
D03*
G54D51*
X949923Y768334D02*
X950250Y791250D01*
G54D51*
X949384Y743333D02*
X922134Y743333D01*
X922500Y848900D02*
G54D48*
D03*
X922500Y869500D02*
G54D48*
D03*
X922464Y831046D02*
G54D49*
D03*
X901864Y831046D02*
G54D49*
D03*
G54D51*
X765616Y852774D02*
X778120Y881080D01*
X847837Y811664D02*
G54D54*
D03*
X847837Y791064D02*
G54D54*
D03*
X847837Y818314D02*
G54D54*
D03*
X847837Y838914D02*
G54D54*
D03*
X808587Y747064D02*
G54D54*
D03*
X808587Y767664D02*
G54D54*
D03*
G36*
X913649Y753777D02*
X907992Y748120D01*
X898093Y758020D01*
X903750Y763676D01*
X913649Y753777D01*
G37*
G36*
X899083Y739210D02*
X893426Y733553D01*
X883526Y743453D01*
X889184Y749110D01*
X899083Y739210D01*
G37*
G54D55*
X933004Y957504D02*
X954500Y939000D01*
G54D51*
X780604Y957504D02*
X876496Y957504D01*
X922500Y911500D01*
X922500Y886750D01*
X922250Y886500D01*
G54D51*
X922372Y872572D02*
X922250Y886500D01*
G54D44*
X879720Y906480D02*
X866977Y919222D01*
X866977Y934150D01*
G54D51*
X922464Y831046D02*
X922500Y831082D01*
X922500Y846635D01*
G54D51*
X962825Y841216D02*
X962825Y841250D01*
X924750Y841250D01*
M02*
