<?xml version="1.0" encoding="utf-8" standalone="no"?>
<!DOCTYPE svg PUBLIC "-//W3C//DTD SVG 1.1//EN"
  "http://www.w3.org/Graphics/SVG/1.1/DTD/svg11.dtd">
<svg xmlns:xlink="http://www.w3.org/1999/xlink" width="460.8pt" height="345.6pt" viewBox="0 0 460.8 345.6" xmlns="http://www.w3.org/2000/svg" version="1.1">
 <metadata>
  <rdf:RDF xmlns:dc="http://purl.org/dc/elements/1.1/" xmlns:cc="http://creativecommons.org/ns#" xmlns:rdf="http://www.w3.org/1999/02/22-rdf-syntax-ns#">
   <cc:Work>
    <dc:type rdf:resource="http://purl.org/dc/dcmitype/StillImage"/>
    <dc:date>2022-09-16T15:03:19.045666</dc:date>
    <dc:format>image/svg+xml</dc:format>
    <dc:creator>
     <cc:Agent>
      <dc:title>Matplotlib v3.5.1, https://matplotlib.org/</dc:title>
     </cc:Agent>
    </dc:creator>
   </cc:Work>
  </rdf:RDF>
 </metadata>
 <defs>
  <style type="text/css">*{stroke-linejoin: round; stroke-linecap: butt}</style>
 </defs>
 <g id="figure_1">
  <g id="patch_1">
   <path d="M 0 345.6 
L 460.8 345.6 
L 460.8 0 
L 0 0 
z
" style="fill: #ffffff"/>
  </g>
  <g id="axes_1">
   <g id="patch_2">
    <path d="M 57.6 307.584 
L 414.72 307.584 
L 414.72 41.472 
L 57.6 41.472 
z
" style="fill: #ffffff"/>
   </g>
   <g id="matplotlib.axis_1">
    <g id="xtick_1">
     <g id="line2d_1">
      <defs>
       <path id="m24d9dde2e4" d="M 0 0 
L 0 3.5 
" style="stroke: #000000; stroke-width: 0.8"/>
      </defs>
      <g>
       <use xlink:href="#m24d9dde2e4" x="73.832727" y="307.584" style="stroke: #000000; stroke-width: 0.8"/>
      </g>
     </g>
     <g id="text_1">
      <!-- $\mathdefault{10^{3}}$ -->
      <g transform="translate(65.032727 322.182437)scale(0.1 -0.1)">
       <defs>
        <path id="DejaVuSans-31" d="M 794 531 
L 1825 531 
L 1825 4091 
L 703 3866 
L 703 4441 
L 1819 4666 
L 2450 4666 
L 2450 531 
L 3481 531 
L 3481 0 
L 794 0 
L 794 531 
z
" transform="scale(0.015625)"/>
        <path id="DejaVuSans-30" d="M 2034 4250 
Q 1547 4250 1301 3770 
Q 1056 3291 1056 2328 
Q 1056 1369 1301 889 
Q 1547 409 2034 409 
Q 2525 409 2770 889 
Q 3016 1369 3016 2328 
Q 3016 3291 2770 3770 
Q 2525 4250 2034 4250 
z
M 2034 4750 
Q 2819 4750 3233 4129 
Q 3647 3509 3647 2328 
Q 3647 1150 3233 529 
Q 2819 -91 2034 -91 
Q 1250 -91 836 529 
Q 422 1150 422 2328 
Q 422 3509 836 4129 
Q 1250 4750 2034 4750 
z
" transform="scale(0.015625)"/>
        <path id="DejaVuSans-33" d="M 2597 2516 
Q 3050 2419 3304 2112 
Q 3559 1806 3559 1356 
Q 3559 666 3084 287 
Q 2609 -91 1734 -91 
Q 1441 -91 1130 -33 
Q 819 25 488 141 
L 488 750 
Q 750 597 1062 519 
Q 1375 441 1716 441 
Q 2309 441 2620 675 
Q 2931 909 2931 1356 
Q 2931 1769 2642 2001 
Q 2353 2234 1838 2234 
L 1294 2234 
L 1294 2753 
L 1863 2753 
Q 2328 2753 2575 2939 
Q 2822 3125 2822 3475 
Q 2822 3834 2567 4026 
Q 2313 4219 1838 4219 
Q 1578 4219 1281 4162 
Q 984 4106 628 3988 
L 628 4550 
Q 988 4650 1302 4700 
Q 1616 4750 1894 4750 
Q 2613 4750 3031 4423 
Q 3450 4097 3450 3541 
Q 3450 3153 3228 2886 
Q 3006 2619 2597 2516 
z
" transform="scale(0.015625)"/>
       </defs>
       <use xlink:href="#DejaVuSans-31" transform="translate(0 0.765625)"/>
       <use xlink:href="#DejaVuSans-30" transform="translate(63.623047 0.765625)"/>
       <use xlink:href="#DejaVuSans-33" transform="translate(128.203125 39.046875)scale(0.7)"/>
      </g>
     </g>
    </g>
    <g id="xtick_2">
     <g id="line2d_2">
      <g>
       <use xlink:href="#m24d9dde2e4" x="154.996364" y="307.584" style="stroke: #000000; stroke-width: 0.8"/>
      </g>
     </g>
     <g id="text_2">
      <!-- $\mathdefault{10^{4}}$ -->
      <g transform="translate(146.196364 322.182437)scale(0.1 -0.1)">
       <defs>
        <path id="DejaVuSans-34" d="M 2419 4116 
L 825 1625 
L 2419 1625 
L 2419 4116 
z
M 2253 4666 
L 3047 4666 
L 3047 1625 
L 3713 1625 
L 3713 1100 
L 3047 1100 
L 3047 0 
L 2419 0 
L 2419 1100 
L 313 1100 
L 313 1709 
L 2253 4666 
z
" transform="scale(0.015625)"/>
       </defs>
       <use xlink:href="#DejaVuSans-31" transform="translate(0 0.684375)"/>
       <use xlink:href="#DejaVuSans-30" transform="translate(63.623047 0.684375)"/>
       <use xlink:href="#DejaVuSans-34" transform="translate(128.203125 38.965625)scale(0.7)"/>
      </g>
     </g>
    </g>
    <g id="xtick_3">
     <g id="line2d_3">
      <g>
       <use xlink:href="#m24d9dde2e4" x="236.16" y="307.584" style="stroke: #000000; stroke-width: 0.8"/>
      </g>
     </g>
     <g id="text_3">
      <!-- $\mathdefault{10^{5}}$ -->
      <g transform="translate(227.36 322.182437)scale(0.1 -0.1)">
       <defs>
        <path id="DejaVuSans-35" d="M 691 4666 
L 3169 4666 
L 3169 4134 
L 1269 4134 
L 1269 2991 
Q 1406 3038 1543 3061 
Q 1681 3084 1819 3084 
Q 2600 3084 3056 2656 
Q 3513 2228 3513 1497 
Q 3513 744 3044 326 
Q 2575 -91 1722 -91 
Q 1428 -91 1123 -41 
Q 819 9 494 109 
L 494 744 
Q 775 591 1075 516 
Q 1375 441 1709 441 
Q 2250 441 2565 725 
Q 2881 1009 2881 1497 
Q 2881 1984 2565 2268 
Q 2250 2553 1709 2553 
Q 1456 2553 1204 2497 
Q 953 2441 691 2322 
L 691 4666 
z
" transform="scale(0.015625)"/>
       </defs>
       <use xlink:href="#DejaVuSans-31" transform="translate(0 0.684375)"/>
       <use xlink:href="#DejaVuSans-30" transform="translate(63.623047 0.684375)"/>
       <use xlink:href="#DejaVuSans-35" transform="translate(128.203125 38.965625)scale(0.7)"/>
      </g>
     </g>
    </g>
    <g id="xtick_4">
     <g id="line2d_4">
      <g>
       <use xlink:href="#m24d9dde2e4" x="317.323636" y="307.584" style="stroke: #000000; stroke-width: 0.8"/>
      </g>
     </g>
     <g id="text_4">
      <!-- $\mathdefault{10^{6}}$ -->
      <g transform="translate(308.523636 322.182437)scale(0.1 -0.1)">
       <defs>
        <path id="DejaVuSans-36" d="M 2113 2584 
Q 1688 2584 1439 2293 
Q 1191 2003 1191 1497 
Q 1191 994 1439 701 
Q 1688 409 2113 409 
Q 2538 409 2786 701 
Q 3034 994 3034 1497 
Q 3034 2003 2786 2293 
Q 2538 2584 2113 2584 
z
M 3366 4563 
L 3366 3988 
Q 3128 4100 2886 4159 
Q 2644 4219 2406 4219 
Q 1781 4219 1451 3797 
Q 1122 3375 1075 2522 
Q 1259 2794 1537 2939 
Q 1816 3084 2150 3084 
Q 2853 3084 3261 2657 
Q 3669 2231 3669 1497 
Q 3669 778 3244 343 
Q 2819 -91 2113 -91 
Q 1303 -91 875 529 
Q 447 1150 447 2328 
Q 447 3434 972 4092 
Q 1497 4750 2381 4750 
Q 2619 4750 2861 4703 
Q 3103 4656 3366 4563 
z
" transform="scale(0.015625)"/>
       </defs>
       <use xlink:href="#DejaVuSans-31" transform="translate(0 0.765625)"/>
       <use xlink:href="#DejaVuSans-30" transform="translate(63.623047 0.765625)"/>
       <use xlink:href="#DejaVuSans-36" transform="translate(128.203125 39.046875)scale(0.7)"/>
      </g>
     </g>
    </g>
    <g id="xtick_5">
     <g id="line2d_5">
      <g>
       <use xlink:href="#m24d9dde2e4" x="398.487273" y="307.584" style="stroke: #000000; stroke-width: 0.8"/>
      </g>
     </g>
     <g id="text_5">
      <!-- $\mathdefault{10^{7}}$ -->
      <g transform="translate(389.687273 322.182437)scale(0.1 -0.1)">
       <defs>
        <path id="DejaVuSans-37" d="M 525 4666 
L 3525 4666 
L 3525 4397 
L 1831 0 
L 1172 0 
L 2766 4134 
L 525 4134 
L 525 4666 
z
" transform="scale(0.015625)"/>
       </defs>
       <use xlink:href="#DejaVuSans-31" transform="translate(0 0.684375)"/>
       <use xlink:href="#DejaVuSans-30" transform="translate(63.623047 0.684375)"/>
       <use xlink:href="#DejaVuSans-37" transform="translate(128.203125 38.965625)scale(0.7)"/>
      </g>
     </g>
    </g>
    <g id="xtick_6">
     <g id="line2d_6">
      <defs>
       <path id="m946cdf9d17" d="M 0 0 
L 0 2 
" style="stroke: #000000; stroke-width: 0.6"/>
      </defs>
      <g>
       <use xlink:href="#m946cdf9d17" x="61.260321" y="307.584" style="stroke: #000000; stroke-width: 0.6"/>
      </g>
     </g>
    </g>
    <g id="xtick_7">
     <g id="line2d_7">
      <g>
       <use xlink:href="#m946cdf9d17" x="65.967158" y="307.584" style="stroke: #000000; stroke-width: 0.6"/>
      </g>
     </g>
    </g>
    <g id="xtick_8">
     <g id="line2d_8">
      <g>
       <use xlink:href="#m946cdf9d17" x="70.118883" y="307.584" style="stroke: #000000; stroke-width: 0.6"/>
      </g>
     </g>
    </g>
    <g id="xtick_9">
     <g id="line2d_9">
      <g>
       <use xlink:href="#m946cdf9d17" x="98.265416" y="307.584" style="stroke: #000000; stroke-width: 0.6"/>
      </g>
     </g>
    </g>
    <g id="xtick_10">
     <g id="line2d_10">
      <g>
       <use xlink:href="#m946cdf9d17" x="112.557623" y="307.584" style="stroke: #000000; stroke-width: 0.6"/>
      </g>
     </g>
    </g>
    <g id="xtick_11">
     <g id="line2d_11">
      <g>
       <use xlink:href="#m946cdf9d17" x="122.698105" y="307.584" style="stroke: #000000; stroke-width: 0.6"/>
      </g>
     </g>
    </g>
    <g id="xtick_12">
     <g id="line2d_12">
      <g>
       <use xlink:href="#m946cdf9d17" x="130.563675" y="307.584" style="stroke: #000000; stroke-width: 0.6"/>
      </g>
     </g>
    </g>
    <g id="xtick_13">
     <g id="line2d_13">
      <g>
       <use xlink:href="#m946cdf9d17" x="136.990312" y="307.584" style="stroke: #000000; stroke-width: 0.6"/>
      </g>
     </g>
    </g>
    <g id="xtick_14">
     <g id="line2d_14">
      <g>
       <use xlink:href="#m946cdf9d17" x="142.423957" y="307.584" style="stroke: #000000; stroke-width: 0.6"/>
      </g>
     </g>
    </g>
    <g id="xtick_15">
     <g id="line2d_15">
      <g>
       <use xlink:href="#m946cdf9d17" x="147.130795" y="307.584" style="stroke: #000000; stroke-width: 0.6"/>
      </g>
     </g>
    </g>
    <g id="xtick_16">
     <g id="line2d_16">
      <g>
       <use xlink:href="#m946cdf9d17" x="151.282519" y="307.584" style="stroke: #000000; stroke-width: 0.6"/>
      </g>
     </g>
    </g>
    <g id="xtick_17">
     <g id="line2d_17">
      <g>
       <use xlink:href="#m946cdf9d17" x="179.429053" y="307.584" style="stroke: #000000; stroke-width: 0.6"/>
      </g>
     </g>
    </g>
    <g id="xtick_18">
     <g id="line2d_18">
      <g>
       <use xlink:href="#m946cdf9d17" x="193.72126" y="307.584" style="stroke: #000000; stroke-width: 0.6"/>
      </g>
     </g>
    </g>
    <g id="xtick_19">
     <g id="line2d_19">
      <g>
       <use xlink:href="#m946cdf9d17" x="203.861742" y="307.584" style="stroke: #000000; stroke-width: 0.6"/>
      </g>
     </g>
    </g>
    <g id="xtick_20">
     <g id="line2d_20">
      <g>
       <use xlink:href="#m946cdf9d17" x="211.727311" y="307.584" style="stroke: #000000; stroke-width: 0.6"/>
      </g>
     </g>
    </g>
    <g id="xtick_21">
     <g id="line2d_21">
      <g>
       <use xlink:href="#m946cdf9d17" x="218.153949" y="307.584" style="stroke: #000000; stroke-width: 0.6"/>
      </g>
     </g>
    </g>
    <g id="xtick_22">
     <g id="line2d_22">
      <g>
       <use xlink:href="#m946cdf9d17" x="223.587594" y="307.584" style="stroke: #000000; stroke-width: 0.6"/>
      </g>
     </g>
    </g>
    <g id="xtick_23">
     <g id="line2d_23">
      <g>
       <use xlink:href="#m946cdf9d17" x="228.294431" y="307.584" style="stroke: #000000; stroke-width: 0.6"/>
      </g>
     </g>
    </g>
    <g id="xtick_24">
     <g id="line2d_24">
      <g>
       <use xlink:href="#m946cdf9d17" x="232.446156" y="307.584" style="stroke: #000000; stroke-width: 0.6"/>
      </g>
     </g>
    </g>
    <g id="xtick_25">
     <g id="line2d_25">
      <g>
       <use xlink:href="#m946cdf9d17" x="260.592689" y="307.584" style="stroke: #000000; stroke-width: 0.6"/>
      </g>
     </g>
    </g>
    <g id="xtick_26">
     <g id="line2d_26">
      <g>
       <use xlink:href="#m946cdf9d17" x="274.884896" y="307.584" style="stroke: #000000; stroke-width: 0.6"/>
      </g>
     </g>
    </g>
    <g id="xtick_27">
     <g id="line2d_27">
      <g>
       <use xlink:href="#m946cdf9d17" x="285.025378" y="307.584" style="stroke: #000000; stroke-width: 0.6"/>
      </g>
     </g>
    </g>
    <g id="xtick_28">
     <g id="line2d_28">
      <g>
       <use xlink:href="#m946cdf9d17" x="292.890947" y="307.584" style="stroke: #000000; stroke-width: 0.6"/>
      </g>
     </g>
    </g>
    <g id="xtick_29">
     <g id="line2d_29">
      <g>
       <use xlink:href="#m946cdf9d17" x="299.317585" y="307.584" style="stroke: #000000; stroke-width: 0.6"/>
      </g>
     </g>
    </g>
    <g id="xtick_30">
     <g id="line2d_30">
      <g>
       <use xlink:href="#m946cdf9d17" x="304.75123" y="307.584" style="stroke: #000000; stroke-width: 0.6"/>
      </g>
     </g>
    </g>
    <g id="xtick_31">
     <g id="line2d_31">
      <g>
       <use xlink:href="#m946cdf9d17" x="309.458067" y="307.584" style="stroke: #000000; stroke-width: 0.6"/>
      </g>
     </g>
    </g>
    <g id="xtick_32">
     <g id="line2d_32">
      <g>
       <use xlink:href="#m946cdf9d17" x="313.609792" y="307.584" style="stroke: #000000; stroke-width: 0.6"/>
      </g>
     </g>
    </g>
    <g id="xtick_33">
     <g id="line2d_33">
      <g>
       <use xlink:href="#m946cdf9d17" x="341.756325" y="307.584" style="stroke: #000000; stroke-width: 0.6"/>
      </g>
     </g>
    </g>
    <g id="xtick_34">
     <g id="line2d_34">
      <g>
       <use xlink:href="#m946cdf9d17" x="356.048532" y="307.584" style="stroke: #000000; stroke-width: 0.6"/>
      </g>
     </g>
    </g>
    <g id="xtick_35">
     <g id="line2d_35">
      <g>
       <use xlink:href="#m946cdf9d17" x="366.189015" y="307.584" style="stroke: #000000; stroke-width: 0.6"/>
      </g>
     </g>
    </g>
    <g id="xtick_36">
     <g id="line2d_36">
      <g>
       <use xlink:href="#m946cdf9d17" x="374.054584" y="307.584" style="stroke: #000000; stroke-width: 0.6"/>
      </g>
     </g>
    </g>
    <g id="xtick_37">
     <g id="line2d_37">
      <g>
       <use xlink:href="#m946cdf9d17" x="380.481221" y="307.584" style="stroke: #000000; stroke-width: 0.6"/>
      </g>
     </g>
    </g>
    <g id="xtick_38">
     <g id="line2d_38">
      <g>
       <use xlink:href="#m946cdf9d17" x="385.914866" y="307.584" style="stroke: #000000; stroke-width: 0.6"/>
      </g>
     </g>
    </g>
    <g id="xtick_39">
     <g id="line2d_39">
      <g>
       <use xlink:href="#m946cdf9d17" x="390.621704" y="307.584" style="stroke: #000000; stroke-width: 0.6"/>
      </g>
     </g>
    </g>
    <g id="xtick_40">
     <g id="line2d_40">
      <g>
       <use xlink:href="#m946cdf9d17" x="394.773428" y="307.584" style="stroke: #000000; stroke-width: 0.6"/>
      </g>
     </g>
    </g>
    <g id="text_6">
     <!-- Frequency [Hz] -->
     <g transform="translate(198.455312 335.860562)scale(0.1 -0.1)">
      <defs>
       <path id="DejaVuSans-46" d="M 628 4666 
L 3309 4666 
L 3309 4134 
L 1259 4134 
L 1259 2759 
L 3109 2759 
L 3109 2228 
L 1259 2228 
L 1259 0 
L 628 0 
L 628 4666 
z
" transform="scale(0.015625)"/>
       <path id="DejaVuSans-72" d="M 2631 2963 
Q 2534 3019 2420 3045 
Q 2306 3072 2169 3072 
Q 1681 3072 1420 2755 
Q 1159 2438 1159 1844 
L 1159 0 
L 581 0 
L 581 3500 
L 1159 3500 
L 1159 2956 
Q 1341 3275 1631 3429 
Q 1922 3584 2338 3584 
Q 2397 3584 2469 3576 
Q 2541 3569 2628 3553 
L 2631 2963 
z
" transform="scale(0.015625)"/>
       <path id="DejaVuSans-65" d="M 3597 1894 
L 3597 1613 
L 953 1613 
Q 991 1019 1311 708 
Q 1631 397 2203 397 
Q 2534 397 2845 478 
Q 3156 559 3463 722 
L 3463 178 
Q 3153 47 2828 -22 
Q 2503 -91 2169 -91 
Q 1331 -91 842 396 
Q 353 884 353 1716 
Q 353 2575 817 3079 
Q 1281 3584 2069 3584 
Q 2775 3584 3186 3129 
Q 3597 2675 3597 1894 
z
M 3022 2063 
Q 3016 2534 2758 2815 
Q 2500 3097 2075 3097 
Q 1594 3097 1305 2825 
Q 1016 2553 972 2059 
L 3022 2063 
z
" transform="scale(0.015625)"/>
       <path id="DejaVuSans-71" d="M 947 1747 
Q 947 1113 1208 752 
Q 1469 391 1925 391 
Q 2381 391 2643 752 
Q 2906 1113 2906 1747 
Q 2906 2381 2643 2742 
Q 2381 3103 1925 3103 
Q 1469 3103 1208 2742 
Q 947 2381 947 1747 
z
M 2906 525 
Q 2725 213 2448 61 
Q 2172 -91 1784 -91 
Q 1150 -91 751 415 
Q 353 922 353 1747 
Q 353 2572 751 3078 
Q 1150 3584 1784 3584 
Q 2172 3584 2448 3432 
Q 2725 3281 2906 2969 
L 2906 3500 
L 3481 3500 
L 3481 -1331 
L 2906 -1331 
L 2906 525 
z
" transform="scale(0.015625)"/>
       <path id="DejaVuSans-75" d="M 544 1381 
L 544 3500 
L 1119 3500 
L 1119 1403 
Q 1119 906 1312 657 
Q 1506 409 1894 409 
Q 2359 409 2629 706 
Q 2900 1003 2900 1516 
L 2900 3500 
L 3475 3500 
L 3475 0 
L 2900 0 
L 2900 538 
Q 2691 219 2414 64 
Q 2138 -91 1772 -91 
Q 1169 -91 856 284 
Q 544 659 544 1381 
z
M 1991 3584 
L 1991 3584 
z
" transform="scale(0.015625)"/>
       <path id="DejaVuSans-6e" d="M 3513 2113 
L 3513 0 
L 2938 0 
L 2938 2094 
Q 2938 2591 2744 2837 
Q 2550 3084 2163 3084 
Q 1697 3084 1428 2787 
Q 1159 2491 1159 1978 
L 1159 0 
L 581 0 
L 581 3500 
L 1159 3500 
L 1159 2956 
Q 1366 3272 1645 3428 
Q 1925 3584 2291 3584 
Q 2894 3584 3203 3211 
Q 3513 2838 3513 2113 
z
" transform="scale(0.015625)"/>
       <path id="DejaVuSans-63" d="M 3122 3366 
L 3122 2828 
Q 2878 2963 2633 3030 
Q 2388 3097 2138 3097 
Q 1578 3097 1268 2742 
Q 959 2388 959 1747 
Q 959 1106 1268 751 
Q 1578 397 2138 397 
Q 2388 397 2633 464 
Q 2878 531 3122 666 
L 3122 134 
Q 2881 22 2623 -34 
Q 2366 -91 2075 -91 
Q 1284 -91 818 406 
Q 353 903 353 1747 
Q 353 2603 823 3093 
Q 1294 3584 2113 3584 
Q 2378 3584 2631 3529 
Q 2884 3475 3122 3366 
z
" transform="scale(0.015625)"/>
       <path id="DejaVuSans-79" d="M 2059 -325 
Q 1816 -950 1584 -1140 
Q 1353 -1331 966 -1331 
L 506 -1331 
L 506 -850 
L 844 -850 
Q 1081 -850 1212 -737 
Q 1344 -625 1503 -206 
L 1606 56 
L 191 3500 
L 800 3500 
L 1894 763 
L 2988 3500 
L 3597 3500 
L 2059 -325 
z
" transform="scale(0.015625)"/>
       <path id="DejaVuSans-20" transform="scale(0.015625)"/>
       <path id="DejaVuSans-5b" d="M 550 4863 
L 1875 4863 
L 1875 4416 
L 1125 4416 
L 1125 -397 
L 1875 -397 
L 1875 -844 
L 550 -844 
L 550 4863 
z
" transform="scale(0.015625)"/>
       <path id="DejaVuSans-48" d="M 628 4666 
L 1259 4666 
L 1259 2753 
L 3553 2753 
L 3553 4666 
L 4184 4666 
L 4184 0 
L 3553 0 
L 3553 2222 
L 1259 2222 
L 1259 0 
L 628 0 
L 628 4666 
z
" transform="scale(0.015625)"/>
       <path id="DejaVuSans-7a" d="M 353 3500 
L 3084 3500 
L 3084 2975 
L 922 459 
L 3084 459 
L 3084 0 
L 275 0 
L 275 525 
L 2438 3041 
L 353 3041 
L 353 3500 
z
" transform="scale(0.015625)"/>
       <path id="DejaVuSans-5d" d="M 1947 4863 
L 1947 -844 
L 622 -844 
L 622 -397 
L 1369 -397 
L 1369 4416 
L 622 4416 
L 622 4863 
L 1947 4863 
z
" transform="scale(0.015625)"/>
      </defs>
      <use xlink:href="#DejaVuSans-46"/>
      <use xlink:href="#DejaVuSans-72" x="50.269531"/>
      <use xlink:href="#DejaVuSans-65" x="89.132812"/>
      <use xlink:href="#DejaVuSans-71" x="150.65625"/>
      <use xlink:href="#DejaVuSans-75" x="214.132812"/>
      <use xlink:href="#DejaVuSans-65" x="277.511719"/>
      <use xlink:href="#DejaVuSans-6e" x="339.035156"/>
      <use xlink:href="#DejaVuSans-63" x="402.414062"/>
      <use xlink:href="#DejaVuSans-79" x="457.394531"/>
      <use xlink:href="#DejaVuSans-20" x="516.574219"/>
      <use xlink:href="#DejaVuSans-5b" x="548.361328"/>
      <use xlink:href="#DejaVuSans-48" x="587.375"/>
      <use xlink:href="#DejaVuSans-7a" x="662.570312"/>
      <use xlink:href="#DejaVuSans-5d" x="715.060547"/>
     </g>
    </g>
   </g>
   <g id="matplotlib.axis_2">
    <g id="ytick_1">
     <g id="line2d_41">
      <defs>
       <path id="mfe4755ff4b" d="M 0 0 
L -3.5 0 
" style="stroke: #000000; stroke-width: 0.8"/>
      </defs>
      <g>
       <use xlink:href="#mfe4755ff4b" x="57.6" y="307.584" style="stroke: #000000; stroke-width: 0.8"/>
      </g>
     </g>
     <g id="text_7">
      <!-- −140 -->
      <g transform="translate(23.132812 311.383219)scale(0.1 -0.1)">
       <defs>
        <path id="DejaVuSans-2212" d="M 678 2272 
L 4684 2272 
L 4684 1741 
L 678 1741 
L 678 2272 
z
" transform="scale(0.015625)"/>
       </defs>
       <use xlink:href="#DejaVuSans-2212"/>
       <use xlink:href="#DejaVuSans-31" x="83.789062"/>
       <use xlink:href="#DejaVuSans-34" x="147.412109"/>
       <use xlink:href="#DejaVuSans-30" x="211.035156"/>
      </g>
     </g>
    </g>
    <g id="ytick_2">
     <g id="line2d_42">
      <g>
       <use xlink:href="#mfe4755ff4b" x="57.6" y="254.3616" style="stroke: #000000; stroke-width: 0.8"/>
      </g>
     </g>
     <g id="text_8">
      <!-- −120 -->
      <g transform="translate(23.132812 258.160819)scale(0.1 -0.1)">
       <defs>
        <path id="DejaVuSans-32" d="M 1228 531 
L 3431 531 
L 3431 0 
L 469 0 
L 469 531 
Q 828 903 1448 1529 
Q 2069 2156 2228 2338 
Q 2531 2678 2651 2914 
Q 2772 3150 2772 3378 
Q 2772 3750 2511 3984 
Q 2250 4219 1831 4219 
Q 1534 4219 1204 4116 
Q 875 4013 500 3803 
L 500 4441 
Q 881 4594 1212 4672 
Q 1544 4750 1819 4750 
Q 2544 4750 2975 4387 
Q 3406 4025 3406 3419 
Q 3406 3131 3298 2873 
Q 3191 2616 2906 2266 
Q 2828 2175 2409 1742 
Q 1991 1309 1228 531 
z
" transform="scale(0.015625)"/>
       </defs>
       <use xlink:href="#DejaVuSans-2212"/>
       <use xlink:href="#DejaVuSans-31" x="83.789062"/>
       <use xlink:href="#DejaVuSans-32" x="147.412109"/>
       <use xlink:href="#DejaVuSans-30" x="211.035156"/>
      </g>
     </g>
    </g>
    <g id="ytick_3">
     <g id="line2d_43">
      <g>
       <use xlink:href="#mfe4755ff4b" x="57.6" y="201.1392" style="stroke: #000000; stroke-width: 0.8"/>
      </g>
     </g>
     <g id="text_9">
      <!-- −100 -->
      <g transform="translate(23.132812 204.938419)scale(0.1 -0.1)">
       <use xlink:href="#DejaVuSans-2212"/>
       <use xlink:href="#DejaVuSans-31" x="83.789062"/>
       <use xlink:href="#DejaVuSans-30" x="147.412109"/>
       <use xlink:href="#DejaVuSans-30" x="211.035156"/>
      </g>
     </g>
    </g>
    <g id="ytick_4">
     <g id="line2d_44">
      <g>
       <use xlink:href="#mfe4755ff4b" x="57.6" y="147.9168" style="stroke: #000000; stroke-width: 0.8"/>
      </g>
     </g>
     <g id="text_10">
      <!-- −80 -->
      <g transform="translate(29.495313 151.716019)scale(0.1 -0.1)">
       <defs>
        <path id="DejaVuSans-38" d="M 2034 2216 
Q 1584 2216 1326 1975 
Q 1069 1734 1069 1313 
Q 1069 891 1326 650 
Q 1584 409 2034 409 
Q 2484 409 2743 651 
Q 3003 894 3003 1313 
Q 3003 1734 2745 1975 
Q 2488 2216 2034 2216 
z
M 1403 2484 
Q 997 2584 770 2862 
Q 544 3141 544 3541 
Q 544 4100 942 4425 
Q 1341 4750 2034 4750 
Q 2731 4750 3128 4425 
Q 3525 4100 3525 3541 
Q 3525 3141 3298 2862 
Q 3072 2584 2669 2484 
Q 3125 2378 3379 2068 
Q 3634 1759 3634 1313 
Q 3634 634 3220 271 
Q 2806 -91 2034 -91 
Q 1263 -91 848 271 
Q 434 634 434 1313 
Q 434 1759 690 2068 
Q 947 2378 1403 2484 
z
M 1172 3481 
Q 1172 3119 1398 2916 
Q 1625 2713 2034 2713 
Q 2441 2713 2670 2916 
Q 2900 3119 2900 3481 
Q 2900 3844 2670 4047 
Q 2441 4250 2034 4250 
Q 1625 4250 1398 4047 
Q 1172 3844 1172 3481 
z
" transform="scale(0.015625)"/>
       </defs>
       <use xlink:href="#DejaVuSans-2212"/>
       <use xlink:href="#DejaVuSans-38" x="83.789062"/>
       <use xlink:href="#DejaVuSans-30" x="147.412109"/>
      </g>
     </g>
    </g>
    <g id="ytick_5">
     <g id="line2d_45">
      <g>
       <use xlink:href="#mfe4755ff4b" x="57.6" y="94.6944" style="stroke: #000000; stroke-width: 0.8"/>
      </g>
     </g>
     <g id="text_11">
      <!-- −60 -->
      <g transform="translate(29.495313 98.493619)scale(0.1 -0.1)">
       <use xlink:href="#DejaVuSans-2212"/>
       <use xlink:href="#DejaVuSans-36" x="83.789062"/>
       <use xlink:href="#DejaVuSans-30" x="147.412109"/>
      </g>
     </g>
    </g>
    <g id="ytick_6">
     <g id="line2d_46">
      <g>
       <use xlink:href="#mfe4755ff4b" x="57.6" y="41.472" style="stroke: #000000; stroke-width: 0.8"/>
      </g>
     </g>
     <g id="text_12">
      <!-- −40 -->
      <g transform="translate(29.495313 45.271219)scale(0.1 -0.1)">
       <use xlink:href="#DejaVuSans-2212"/>
       <use xlink:href="#DejaVuSans-34" x="83.789062"/>
       <use xlink:href="#DejaVuSans-30" x="147.412109"/>
      </g>
     </g>
    </g>
    <g id="text_13">
     <!-- Phase noise [dBc/Hz] -->
     <g transform="translate(17.053125 227.257688)rotate(-90)scale(0.1 -0.1)">
      <defs>
       <path id="DejaVuSans-50" d="M 1259 4147 
L 1259 2394 
L 2053 2394 
Q 2494 2394 2734 2622 
Q 2975 2850 2975 3272 
Q 2975 3691 2734 3919 
Q 2494 4147 2053 4147 
L 1259 4147 
z
M 628 4666 
L 2053 4666 
Q 2838 4666 3239 4311 
Q 3641 3956 3641 3272 
Q 3641 2581 3239 2228 
Q 2838 1875 2053 1875 
L 1259 1875 
L 1259 0 
L 628 0 
L 628 4666 
z
" transform="scale(0.015625)"/>
       <path id="DejaVuSans-68" d="M 3513 2113 
L 3513 0 
L 2938 0 
L 2938 2094 
Q 2938 2591 2744 2837 
Q 2550 3084 2163 3084 
Q 1697 3084 1428 2787 
Q 1159 2491 1159 1978 
L 1159 0 
L 581 0 
L 581 4863 
L 1159 4863 
L 1159 2956 
Q 1366 3272 1645 3428 
Q 1925 3584 2291 3584 
Q 2894 3584 3203 3211 
Q 3513 2838 3513 2113 
z
" transform="scale(0.015625)"/>
       <path id="DejaVuSans-61" d="M 2194 1759 
Q 1497 1759 1228 1600 
Q 959 1441 959 1056 
Q 959 750 1161 570 
Q 1363 391 1709 391 
Q 2188 391 2477 730 
Q 2766 1069 2766 1631 
L 2766 1759 
L 2194 1759 
z
M 3341 1997 
L 3341 0 
L 2766 0 
L 2766 531 
Q 2569 213 2275 61 
Q 1981 -91 1556 -91 
Q 1019 -91 701 211 
Q 384 513 384 1019 
Q 384 1609 779 1909 
Q 1175 2209 1959 2209 
L 2766 2209 
L 2766 2266 
Q 2766 2663 2505 2880 
Q 2244 3097 1772 3097 
Q 1472 3097 1187 3025 
Q 903 2953 641 2809 
L 641 3341 
Q 956 3463 1253 3523 
Q 1550 3584 1831 3584 
Q 2591 3584 2966 3190 
Q 3341 2797 3341 1997 
z
" transform="scale(0.015625)"/>
       <path id="DejaVuSans-73" d="M 2834 3397 
L 2834 2853 
Q 2591 2978 2328 3040 
Q 2066 3103 1784 3103 
Q 1356 3103 1142 2972 
Q 928 2841 928 2578 
Q 928 2378 1081 2264 
Q 1234 2150 1697 2047 
L 1894 2003 
Q 2506 1872 2764 1633 
Q 3022 1394 3022 966 
Q 3022 478 2636 193 
Q 2250 -91 1575 -91 
Q 1294 -91 989 -36 
Q 684 19 347 128 
L 347 722 
Q 666 556 975 473 
Q 1284 391 1588 391 
Q 1994 391 2212 530 
Q 2431 669 2431 922 
Q 2431 1156 2273 1281 
Q 2116 1406 1581 1522 
L 1381 1569 
Q 847 1681 609 1914 
Q 372 2147 372 2553 
Q 372 3047 722 3315 
Q 1072 3584 1716 3584 
Q 2034 3584 2315 3537 
Q 2597 3491 2834 3397 
z
" transform="scale(0.015625)"/>
       <path id="DejaVuSans-6f" d="M 1959 3097 
Q 1497 3097 1228 2736 
Q 959 2375 959 1747 
Q 959 1119 1226 758 
Q 1494 397 1959 397 
Q 2419 397 2687 759 
Q 2956 1122 2956 1747 
Q 2956 2369 2687 2733 
Q 2419 3097 1959 3097 
z
M 1959 3584 
Q 2709 3584 3137 3096 
Q 3566 2609 3566 1747 
Q 3566 888 3137 398 
Q 2709 -91 1959 -91 
Q 1206 -91 779 398 
Q 353 888 353 1747 
Q 353 2609 779 3096 
Q 1206 3584 1959 3584 
z
" transform="scale(0.015625)"/>
       <path id="DejaVuSans-69" d="M 603 3500 
L 1178 3500 
L 1178 0 
L 603 0 
L 603 3500 
z
M 603 4863 
L 1178 4863 
L 1178 4134 
L 603 4134 
L 603 4863 
z
" transform="scale(0.015625)"/>
       <path id="DejaVuSans-64" d="M 2906 2969 
L 2906 4863 
L 3481 4863 
L 3481 0 
L 2906 0 
L 2906 525 
Q 2725 213 2448 61 
Q 2172 -91 1784 -91 
Q 1150 -91 751 415 
Q 353 922 353 1747 
Q 353 2572 751 3078 
Q 1150 3584 1784 3584 
Q 2172 3584 2448 3432 
Q 2725 3281 2906 2969 
z
M 947 1747 
Q 947 1113 1208 752 
Q 1469 391 1925 391 
Q 2381 391 2643 752 
Q 2906 1113 2906 1747 
Q 2906 2381 2643 2742 
Q 2381 3103 1925 3103 
Q 1469 3103 1208 2742 
Q 947 2381 947 1747 
z
" transform="scale(0.015625)"/>
       <path id="DejaVuSans-42" d="M 1259 2228 
L 1259 519 
L 2272 519 
Q 2781 519 3026 730 
Q 3272 941 3272 1375 
Q 3272 1813 3026 2020 
Q 2781 2228 2272 2228 
L 1259 2228 
z
M 1259 4147 
L 1259 2741 
L 2194 2741 
Q 2656 2741 2882 2914 
Q 3109 3088 3109 3444 
Q 3109 3797 2882 3972 
Q 2656 4147 2194 4147 
L 1259 4147 
z
M 628 4666 
L 2241 4666 
Q 2963 4666 3353 4366 
Q 3744 4066 3744 3513 
Q 3744 3084 3544 2831 
Q 3344 2578 2956 2516 
Q 3422 2416 3680 2098 
Q 3938 1781 3938 1306 
Q 3938 681 3513 340 
Q 3088 0 2303 0 
L 628 0 
L 628 4666 
z
" transform="scale(0.015625)"/>
       <path id="DejaVuSans-2f" d="M 1625 4666 
L 2156 4666 
L 531 -594 
L 0 -594 
L 1625 4666 
z
" transform="scale(0.015625)"/>
      </defs>
      <use xlink:href="#DejaVuSans-50"/>
      <use xlink:href="#DejaVuSans-68" x="60.302734"/>
      <use xlink:href="#DejaVuSans-61" x="123.681641"/>
      <use xlink:href="#DejaVuSans-73" x="184.960938"/>
      <use xlink:href="#DejaVuSans-65" x="237.060547"/>
      <use xlink:href="#DejaVuSans-20" x="298.583984"/>
      <use xlink:href="#DejaVuSans-6e" x="330.371094"/>
      <use xlink:href="#DejaVuSans-6f" x="393.75"/>
      <use xlink:href="#DejaVuSans-69" x="454.931641"/>
      <use xlink:href="#DejaVuSans-73" x="482.714844"/>
      <use xlink:href="#DejaVuSans-65" x="534.814453"/>
      <use xlink:href="#DejaVuSans-20" x="596.337891"/>
      <use xlink:href="#DejaVuSans-5b" x="628.125"/>
      <use xlink:href="#DejaVuSans-64" x="667.138672"/>
      <use xlink:href="#DejaVuSans-42" x="730.615234"/>
      <use xlink:href="#DejaVuSans-63" x="799.21875"/>
      <use xlink:href="#DejaVuSans-2f" x="854.199219"/>
      <use xlink:href="#DejaVuSans-48" x="887.890625"/>
      <use xlink:href="#DejaVuSans-7a" x="963.085938"/>
      <use xlink:href="#DejaVuSans-5d" x="1015.576172"/>
     </g>
    </g>
   </g>
   <g id="line2d_47">
    <path d="M 398.487273 284.85768 
L 397.775149 293.550672 
L 397.413619 294.372071 
L 397.048342 293.762675 
L 396.67924 293.721871 
L 395.929234 296.263241 
L 395.548161 296.790142 
L 395.162923 296.082285 
L 394.379582 296.432665 
L 393.981285 296.421134 
L 393.578435 296.712083 
L 393.170929 296.538223 
L 392.758656 296.785707 
L 392.341504 296.219776 
L 391.919356 295.455147 
L 391.492092 295.780691 
L 391.059584 295.458695 
L 390.621704 295.566914 
L 390.178315 294.443922 
L 388.81367 294.935342 
L 388.346791 294.172487 
L 387.873644 293.618974 
L 387.394059 293.84517 
L 386.907859 293.528496 
L 386.414859 295.162424 
L 385.914866 295.503047 
L 385.407679 296.543545 
L 384.893087 295.857863 
L 384.370871 296.226872 
L 383.840802 295.048883 
L 383.30264 295.355799 
L 382.756135 294.62133 
L 382.201022 295.521675 
L 381.637027 294.1716 
L 381.063862 294.545931 
L 380.481221 294.605363 
L 379.888789 296.644668 
L 379.286228 297.118347 
L 378.673188 298.111832 
L 378.049297 296.759096 
L 377.414164 296.398071 
L 376.767377 295.614814 
L 376.1085 296.369686 
L 375.437071 295.714163 
L 374.752605 295.77803 
L 374.054584 295.307012 
L 373.34246 295.75408 
L 372.615652 295.142909 
L 371.115472 293.500111 
L 370.340739 292.951033 
L 369.548595 292.709758 
L 368.73824 293.158601 
L 367.059402 293.628732 
L 366.189015 293.124893 
L 365.296589 292.761207 
L 364.380981 292.553639 
L 363.440954 293.878877 
L 362.47517 294.328606 
L 361.482177 294.388925 
L 360.460398 293.884199 
L 359.408113 293.644699 
L 358.323446 293.542689 
L 357.204338 292.409939 
L 356.048532 292.22987 
L 354.853539 291.735789 
L 353.616608 292.945711 
L 351.004382 294.144102 
L 349.621895 293.630506 
L 348.182963 292.907568 
L 345.115906 289.49069 
L 343.476126 288.630262 
L 341.756325 288.659534 
L 339.948292 289.239658 
L 338.042481 288.440435 
L 336.027709 287.985383 
L 333.890756 286.873035 
L 331.615843 285.994866 
L 329.183919 282.86805 
L 326.571693 280.068551 
L 323.750274 278.667915 
L 323.455302 279.43964 
L 322.857849 279.790908 
L 322.555281 279.864532 
L 321.942241 280.675287 
L 321.694008 279.025392 
L 321.600468 279.04402 
L 321.255349 280.952043 
L 321.223807 280.914788 
L 321.160637 280.670852 
L 320.747248 278.232379 
L 320.61907 278.368096 
L 320.425925 278.062954 
L 320.264158 277.841194 
L 320.101645 277.803051 
L 320.003777 277.738297 
L 319.872862 277.544923 
L 319.807221 277.612338 
L 319.708531 277.811922 
L 319.642583 277.698381 
L 319.609563 277.64161 
L 319.310982 275.165881 
L 319.244286 275.051453 
L 319.110514 274.40214 
L 319.076991 274.174171 
L 319.009851 274.197234 
L 318.740001 274.996457 
L 318.706124 274.942347 
L 318.638272 274.466894 
L 318.57029 274.52189 
L 318.536249 274.549389 
L 318.262736 275.427558 
L 318.090705 275.724717 
L 318.056198 275.643109 
L 317.813699 274.984925 
L 317.709257 275.706976 
L 317.639458 275.442638 
L 317.464351 274.384399 
L 317.394064 274.058855 
L 317.28837 281.969478 
L 316.213624 277.807486 
L 315.847968 277.905061 
L 315.478479 276.914237 
L 315.105076 276.723524 
L 314.727675 278.462122 
L 314.34619 277.995539 
L 313.96053 276.73949 
L 313.570605 274.310775 
L 313.176317 274.112078 
L 312.77757 274.703734 
L 312.37426 275.551744 
L 311.966282 276.859241 
L 311.553526 274.558259 
L 311.13588 273.492037 
L 310.713226 273.106174 
L 310.285442 273.987005 
L 309.852404 274.310775 
L 309.413979 273.381157 
L 308.970032 273.963055 
L 308.520422 274.256665 
L 308.065003 273.629528 
L 307.603623 271.587562 
L 307.136124 270.041451 
L 306.662341 268.878542 
L 306.182103 269.211182 
L 305.695232 269.99089 
L 305.201542 270.012179 
L 304.700838 270.153218 
L 304.19292 269.65825 
L 303.677576 269.393025 
L 303.154585 268.937974 
L 302.623718 266.533208 
L 302.084733 267.199375 
L 301.537379 265.832446 
L 300.981391 267.363478 
L 300.416492 265.309093 
L 299.842393 265.930021 
L 299.258788 265.334817 
L 298.665358 265.643507 
L 298.061766 264.198519 
L 297.447657 261.520545 
L 296.82266 261.019367 
L 296.186381 260.727531 
L 295.538405 260.178454 
L 294.878293 256.61344 
L 294.205583 254.97419 
L 293.519785 254.575909 
L 292.820379 256.089199 
L 292.106814 257.125262 
L 291.378504 257.565234 
L 290.634829 256.625858 
L 289.875124 254.441966 
L 289.098685 252.593374 
L 286.661153 248.444688 
L 285.809688 248.633628 
L 284.937146 247.638369 
L 284.042455 246.070082 
L 283.124462 243.804582 
L 282.181922 241.793662 
L 281.213484 241.681008 
L 280.217686 239.880317 
L 279.192936 238.553305 
L 278.1375 235.42028 
L 277.049484 234.707987 
L 275.926812 234.759435 
L 274.767203 235.07877 
L 273.568145 234.117218 
L 272.326858 229.907326 
L 269.704912 222.551104 
L 265.365556 219.611453 
L 262.144237 213.112998 
L 260.416002 211.135786 
L 260.238426 211.516326 
L 260.05995 211.466652 
L 259.880566 210.885641 
L 259.519035 208.668928 
L 259.153758 208.096787 
L 258.96969 207.97615 
L 258.784656 208.275969 
L 258.411648 209.327111 
L 258.223653 209.407832 
L 258.034651 209.91788 
L 257.653577 207.653267 
L 257.461485 205.762098 
L 257.26834 205.568723 
L 256.878845 206.283677 
L 256.682471 206.207392 
L 256.286412 203.973825 
L 256.086701 202.729308 
L 255.885852 202.363847 
L 255.683852 202.689391 
L 255.480687 203.30411 
L 254.864072 205.977648 
L 254.446921 207.172491 
L 254.236479 207.235471 
L 254.024773 206.401654 
L 253.597508 205.676942 
L 253.381918 205.807337 
L 252.506123 204.625799 
L 251.834695 200.698873 
L 251.608013 200.505499 
L 251.150228 198.89286 
L 250.919087 198.168148 
L 250.452207 198.752708 
L 250.240076 199.792318 
L 249.883664 198.526512 
L 249.811947 198.363297 
L 249.716096 197.639472 
L 249.644037 197.132086 
L 249.595916 197.297075 
L 249.354318 199.271626 
L 249.232896 199.70805 
L 249.18421 199.583864 
L 249.062199 199.124377 
L 248.915226 198.067026 
L 248.890671 198.070574 
L 248.693611 199.673455 
L 248.569887 199.340815 
L 248.495444 199.626442 
L 248.445727 199.436615 
L 248.346084 198.935438 
L 248.296156 199.086235 
L 248.221132 199.416214 
L 248.196088 199.207759 
L 247.969891 197.653665 
L 247.868891 197.974774 
L 247.792951 198.310075 
L 247.716847 198.276367 
L 247.58964 199.255659 
L 247.461973 200.195035 
L 247.38515 199.830461 
L 247.359505 199.8278 
L 247.153671 201.03861 
L 247.076173 200.901118 
L 247.024412 200.902893 
L 246.946629 201.26924 
L 246.894677 201.203599 
L 246.764463 199.276948 
L 246.659944 199.521771 
L 246.633766 199.559914 
L 246.607569 199.478306 
L 246.449973 199.32751 
L 246.397284 199.329284 
L 246.079485 201.785497 
L 246.052872 201.496322 
L 245.892771 200.204792 
L 245.812447 199.786109 
L 245.731939 199.141231 
L 245.678165 199.146553 
L 245.54337 200.117862 
L 245.489307 199.922713 
L 245.217742 196.895246 
L 245.135863 197.108135 
L 245.108528 196.963548 
L 244.944069 196.16876 
L 244.889078 196.335524 
L 244.806431 196.623812 
L 244.778839 196.541317 
L 244.695933 195.966515 
L 244.612832 195.711934 
L 244.585087 195.783785 
L 244.501724 196.473902 
L 244.473892 196.722273 
L 244.418163 196.245046 
L 244.222412 194.912711 
L 244.166283 194.734416 
L 243.94087 193.146615 
L 243.770859 191.845327 
L 243.685545 191.920726 
L 243.657061 191.999672 
L 243.628554 191.928709 
L 243.428356 191.232382 
L 243.399664 191.298023 
L 243.342208 191.412452 
L 243.284659 191.360116 
L 243.227016 191.322861 
L 243.198159 191.376083 
L 243.169278 191.429305 
L 243.140373 191.270525 
L 242.937376 189.484027 
L 242.820851 189.573618 
L 242.703939 189.366937 
L 242.439461 187.964527 
L 242.380417 188.046135 
L 242.350858 187.981381 
L 242.202691 187.630113 
L 242.172983 187.657611 
L 241.904475 188.264347 
L 241.844528 188.337971 
L 241.814516 188.280313 
L 241.784479 188.222656 
L 241.633906 187.198125 
L 241.603715 187.225623 
L 241.512984 187.456253 
L 241.422019 187.879371 
L 241.391645 187.760508 
L 241.117095 186.934674 
L 241.086457 187.005637 
L 240.994384 187.465124 
L 240.963639 187.623904 
L 240.932867 187.309892 
L 240.592594 184.8111 
L 240.499219 184.904239 
L 240.217602 185.786844 
L 239.902032 188.491429 
L 239.743181 188.741574 
L 239.583612 187.916627 
L 239.294553 188.906564 
L 238.938009 187.643419 
L 238.840141 187.835019 
L 238.742 188.238622 
L 238.67642 188.006218 
L 238.643585 187.807521 
L 238.577822 187.841229 
L 238.313536 189.233881 
L 238.180647 189.176224 
L 237.980368 188.102905 
L 237.913355 188.140161 
L 237.745263 189.071553 
L 237.6778 188.92253 
L 237.576365 188.863986 
L 237.440661 189.580714 
L 237.372613 189.368711 
L 237.304433 188.671498 
L 237.133405 187.354244 
L 237.030388 187.137806 
L 236.927069 186.796295 
L 236.615283 184.984073 
L 236.405883 184.83505 
L 236.300714 185.362839 
L 236.230427 185.306068 
L 236.124733 188.169877 
L 235.769757 185.344654 
L 235.41117 184.043367 
L 235.048897 184.062882 
L 234.682862 184.503741 
L 233.939188 184.223436 
L 233.179485 182.908843 
L 232.793404 180.495207 
L 232.403047 182.30122 
L 232.008319 182.542495 
L 231.609121 182.435163 
L 231.20535 179.796219 
L 230.7969 178.020365 
L 230.383661 177.499673 
L 229.965521 178.481626 
L 229.54236 180.063218 
L 229.114058 179.371327 
L 228.680488 177.85715 
L 228.241518 175.772606 
L 227.797012 176.13097 
L 227.346829 176.339424 
L 226.428839 174.061506 
L 225.960721 172.349518 
L 225.486301 172.881742 
L 225.005409 173.144306 
L 224.517866 172.66087 
L 224.023485 171.448286 
L 223.013421 170.698737 
L 222.497323 170.783893 
L 221.973557 168.868774 
L 221.441891 168.670077 
L 220.902082 167.312018 
L 220.353878 167.726266 
L 219.797013 167.453945 
L 219.23121 167.477008 
L 218.656176 165.511327 
L 218.071605 164.705008 
L 217.477176 164.508972 
L 216.872551 165.924688 
L 216.257373 166.185478 
L 215.631268 165.74728 
L 214.99384 164.181654 
L 214.344673 161.86027 
L 213.683325 160.126107 
L 213.009332 159.655976 
L 212.322199 160.117237 
L 211.621405 160.928878 
L 211.549916 161.884221 
L 211.478281 161.838982 
L 211.4065 161.265067 
L 211.045388 155.1986 
L 210.972719 154.980388 
L 210.8999 157.508452 
L 210.826931 157.495147 
L 210.75381 157.94665 
L 210.459801 154.32043 
L 210.163318 161.897526 
L 209.939308 156.254178 
L 209.713866 160.645026 
L 209.638396 160.052483 
L 209.334894 153.336703 
L 209.258608 154.096009 
L 209.182157 154.421553 
L 209.105539 155.725502 
L 209.028755 155.543659 
L 208.951803 155.218115 
L 208.719934 157.123477 
L 208.48653 153.577978 
L 208.25157 161.871802 
L 208.172901 161.524969 
L 208.094055 161.64472 
L 207.935834 158.893122 
L 207.776898 156.207165 
L 207.617243 155.780498 
L 207.456862 157.584738 
L 207.376397 156.778418 
L 207.214913 154.255677 
L 206.88971 157.573206 
L 206.807938 159.342851 
L 206.561478 153.87691 
L 206.396209 155.745904 
L 206.313282 155.42923 
L 206.230161 155.966777 
L 206.146843 154.988372 
L 205.811587 157.238792 
L 205.558035 153.373072 
L 205.473111 154.670811 
L 205.387982 154.414457 
L 205.217105 151.570606 
L 205.045395 154.153667 
L 204.872844 156.834302 
L 204.786251 156.443117 
L 204.699445 154.888136 
L 204.612424 155.382217 
L 204.08574 150.45471 
L 203.99719 151.046366 
L 203.819418 148.649584 
L 203.730194 148.316057 
L 203.371026 151.928971 
L 203.280659 152.422165 
L 203.190059 153.562011 
L 202.916856 148.62386 
L 202.825316 149.738869 
L 202.733537 152.145408 
L 202.456758 150.012964 
L 202.364013 151.016206 
L 202.271024 150.346491 
L 202.177789 150.52656 
L 201.896594 154.218421 
L 201.802362 153.44847 
L 201.518144 147.560299 
L 201.422893 149.204871 
L 201.231616 147.698677 
L 201.039295 150.303026 
L 200.942739 149.638633 
L 200.651476 145.435838 
L 200.455955 147.897374 
L 200.160624 144.0627 
L 199.962353 146.083377 
L 199.862798 147.018317 
L 199.762961 146.760189 
L 199.562434 145.406566 
L 199.259489 150.075944 
L 199.157926 149.461225 
L 198.953917 145.545831 
L 198.851469 145.360439 
L 198.748721 146.876391 
L 198.43867 144.509768 
L 198.230444 147.009447 
L 198.125867 147.401518 
L 198.02098 145.24335 
L 197.915779 145.280606 
L 197.810264 144.778541 
L 197.598281 147.558525 
L 197.277896 142.387968 
L 196.737365 148.732966 
L 196.628257 148.469515 
L 196.409022 145.535186 
L 196.188415 148.596361 
L 196.077592 148.316944 
L 195.743016 142.916644 
L 195.405234 141.072488 
L 195.291916 141.161192 
L 195.064183 143.733608 
L 194.949762 143.670628 
L 194.834969 140.671546 
L 194.604255 141.672127 
L 194.37202 145.116503 
L 193.665993 138.350162 
L 193.458264 143.660871 
L 193.588238 137.533198 
L 193.432212 141.984365 
L 193.393097 141.293361 
L 193.366996 142.214996 
L 193.340876 143.549991 
L 193.2624 142.937046 
L 193.025917 136.662125 
L 192.999543 136.603581 
L 192.880615 134.813534 
L 192.867376 135.06634 
L 192.801106 137.823261 
L 192.761284 141.393597 
L 192.694815 139.026974 
L 192.668192 138.239282 
L 192.601546 139.06423 
L 192.588202 138.996814 
L 192.561498 138.920529 
L 192.521404 141.41666 
L 192.45448 138.676593 
L 192.414265 136.794294 
L 192.374003 138.410481 
L 192.225983 145.071264 
L 192.077339 137.236927 
L 192.023131 138.004217 
L 191.98242 140.932336 
L 191.873626 140.777991 
L 191.860004 140.796619 
L 191.778156 139.510411 
L 191.764497 140.401886 
L 191.737161 141.784781 
L 191.655028 140.327374 
L 191.600166 138.28186 
L 191.558963 140.877339 
L 191.517712 138.335083 
L 191.503951 139.193737 
L 191.462636 136.524634 
L 191.421272 137.484411 
L 191.407473 137.346033 
L 191.324567 141.477865 
L 191.269187 140.10384 
L 191.241465 140.644935 
L 191.213721 139.901595 
L 191.199841 140.027555 
L 191.046796 136.084662 
L 190.879077 141.531088 
L 190.837022 140.679529 
L 190.682391 132.079677 
L 190.625992 134.401947 
L 190.569504 142.505945 
L 190.442072 139.637257 
L 190.399492 137.458687 
L 190.342639 139.875871 
L 190.328412 140.252863 
L 190.299939 138.185173 
L 190.285694 136.962832 
L 190.242925 138.25791 
L 190.214383 138.144369 
L 190.157231 140.411643 
L 190.12862 139.506862 
L 190.042647 133.594741 
L 189.999581 136.135223 
L 189.970842 136.135223 
L 189.870069 134.432107 
L 189.855649 135.141739 
L 189.797911 142.50151 
L 189.667655 139.233654 
L 189.580548 133.77481 
L 189.507795 134.908447 
L 189.420293 136.24699 
L 189.405688 135.595903 
L 189.317931 132.346676 
L 189.259305 133.200008 
L 189.229955 134.606854 
L 189.171183 132.630528 
L 189.127039 132.178138 
L 189.112312 132.670445 
L 188.890666 140.385919 
L 188.846169 137.983815 
L 188.801616 136.653255 
L 188.771883 138.652643 
L 188.742124 139.770313 
L 188.667618 138.753766 
L 188.533109 132.798179 
L 188.44315 133.889238 
L 188.398084 134.543874 
L 188.35296 133.361449 
L 188.322846 133.612482 
L 188.307779 133.412898 
L 188.20213 131.109255 
L 188.187012 131.786953 
L 188.096164 132.888657 
L 188.065829 132.450459 
L 187.928999 134.205911 
L 187.913763 133.82271 
L 187.669084 126.624381 
L 187.592272 127.714553 
L 187.345344 134.956347 
L 187.329853 134.34429 
L 187.314356 133.732232 
L 187.267822 136.153851 
L 187.252298 135.954267 
L 187.236766 136.434156 
L 187.205682 137.501265 
L 187.159005 136.283359 
L 186.924689 129.383075 
L 186.909012 129.541855 
L 186.86194 133.686993 
L 186.783347 131.34432 
L 186.625634 128.409105 
L 186.594006 128.105737 
L 186.546512 128.708038 
L 186.371815 134.554518 
L 186.355891 132.766246 
L 186.228235 129.461134 
L 186.164233 129.035355 
L 186.132189 129.438958 
L 186.084067 132.83987 
L 186.003719 132.199427 
L 185.971528 131.637931 
L 185.907058 129.280178 
L 185.874779 131.153607 
L 185.729155 133.317097 
L 185.615475 128.512889 
L 185.53405 130.494536 
L 185.501427 132.669558 
L 185.436091 129.549838 
L 185.337859 130.710087 
L 185.28864 133.332177 
L 185.222908 132.773342 
L 185.041509 129.111641 
L 185.024972 129.238487 
L 184.975314 130.325998 
L 184.908994 130.039485 
L 184.825919 128.502244 
L 184.80928 130.069644 
L 184.709283 134.347838 
L 184.675888 133.383625 
L 184.59226 131.563419 
L 184.558754 132.957846 
L 184.541989 132.855837 
L 184.357043 126.008775 
L 184.306434 126.819529 
L 184.10327 131.116351 
L 184.069295 130.435104 
L 183.881845 127.266598 
L 183.796311 129.303241 
L 183.762038 127.682619 
L 183.6074 124.861832 
L 183.572944 125.349704 
L 183.555703 124.751839 
L 183.486655 124.866267 
L 183.382829 122.161682 
L 183.296073 126.273113 
L 183.278696 127.654234 
L 183.226514 124.38904 
L 183.209103 124.389927 
L 183.191683 124.390814 
L 183.156818 124.141556 
L 183.139372 124.581527 
L 182.946898 128.839319 
L 183.069503 123.926005 
L 182.929348 128.691184 
L 182.753367 120.933132 
L 182.735721 121.423665 
L 182.718065 121.914198 
L 182.665046 120.520658 
L 182.647355 120.46034 
L 182.594229 122.997274 
L 182.558768 124.88933 
L 182.487737 124.126476 
L 182.43437 123.212825 
L 182.380922 124.005838 
L 182.345245 124.534514 
L 182.327393 124.96739 
L 182.291662 123.642152 
L 182.273782 123.432811 
L 182.255894 124.102526 
L 182.07651 126.321013 
L 182.040523 125.789676 
L 182.0045 126.81332 
L 181.96844 125.821609 
L 181.91428 128.286694 
L 181.841937 127.731406 
L 181.80571 126.597769 
L 181.769446 127.926555 
L 181.733144 128.590948 
L 181.696805 127.682619 
L 181.642226 120.958856 
L 181.551073 122.656651 
L 181.496268 124.514112 
L 181.423061 123.966809 
L 181.386401 124.178811 
L 181.349702 123.933988 
L 181.331339 123.758354 
L 181.184085 128.897864 
L 181.165635 128.480955 
L 181.128705 129.172846 
L 181.110226 128.718682 
L 180.943477 124.980695 
L 180.887718 123.353864 
L 180.738595 118.271125 
L 180.701215 118.324347 
L 180.607592 125.698311 
L 180.532515 123.643926 
L 180.476102 122.709873 
L 180.419598 122.771966 
L 180.363003 124.406781 
L 180.268477 124.221389 
L 180.249541 123.705132 
L 180.211639 124.927473 
L 180.192673 125.714278 
L 180.116705 125.538644 
L 180.059622 123.120573 
L 180.002446 124.197439 
L 179.868674 125.068512 
L 179.849522 125.00642 
L 179.657429 119.341782 
L 179.580298 120.705163 
L 179.541669 121.661392 
L 179.502998 123.251854 
L 179.464284 121.381619 
L 179.444911 120.55543 
L 177.435009 119.723032 
L 177.060017 118.181356 
L 176.871014 120.068978 
L 176.680993 119.677793 
L 176.489941 120.021077 
L 176.297848 117.979111 
L 176.104703 119.159762 
L 175.715208 118.014593 
L 175.321362 118.349007 
L 175.122776 118.82446 
L 174.722215 114.684645 
L 174.520215 113.988318 
L 174.112709 116.779833 
L 173.907175 117.283672 
L 173.492477 114.992448 
L 173.283284 114.333377 
L 173.072842 112.655984 
L 172.861136 113.755914 
L 172.648151 112.652436 
L 172.433872 114.190563 
L 172.218281 113.961707 
L 172.001364 115.04567 
L 171.783104 115.087361 
L 171.120095 111.40171 
L 170.896292 111.532992 
L 170.444376 112.966448 
L 170.216227 113.260946 
L 169.052791 107.951124 
L 168.815424 107.583002 
L 168.093577 112.365035 
L 167.849639 112.962013 
L 167.604001 110.862389 
L 167.107529 109.26483 
L 166.856646 110.834891 
L 166.603965 111.48864 
L 166.093102 110.323069 
L 165.834867 108.596889 
L 165.574726 108.253605 
L 164.782582 105.514425 
L 164.514528 105.463864 
L 164.24442 107.004652 
L 163.697915 106.353565 
L 163.142802 107.808311 
L 162.861933 107.187383 
L 162.578807 108.285538 
L 162.293389 109.925675 
L 162.005642 110.629098 
L 161.715525 106.573551 
L 161.423001 104.928092 
L 161.12803 104.261038 
L 160.830569 104.318695 
L 160.530576 103.947026 
L 160.228008 102.910076 
L 159.304403 104.470379 
L 158.674941 102.321968 
L 158.355944 101.878448 
L 158.034034 102.897657 
L 157.381258 103.163769 
L 156.716164 102.962411 
L 156.378851 102.110853 
L 156.038279 101.761359 
L 155.694385 100.2117 
L 154.996364 101.582177 
L 154.6421 101.947637 
L 154.28424 100.303065 
L 153.922709 100.591353 
L 153.557432 99.572144 
L 153.18833 99.619157 
L 152.815323 97.751938 
L 152.438325 99.358368 
L 152.057252 99.809871 
L 151.672014 101.723216 
L 151.282519 101.118255 
L 150.888673 101.032212 
L 150.490375 99.08782 
L 150.087526 97.908057 
L 148.850595 96.559756 
L 148.428447 97.241003 
L 148.001182 98.9592 
L 147.568675 98.667363 
L 147.130795 97.875237 
L 146.687406 96.288322 
L 145.783538 98.156428 
L 145.322761 98.392381 
L 144.382734 96.245744 
L 143.90315 97.513324 
L 143.41695 98.049984 
L 142.92395 98.300129 
L 142.423957 97.762583 
L 141.91677 98.21586 
L 141.402178 97.938217 
L 140.879962 97.405106 
L 140.349893 97.767905 
L 139.811731 97.690732 
L 139.265226 97.149638 
L 138.710113 95.104124 
L 138.146118 94.125719 
L 137.572952 94.38917 
L 136.990312 96.005356 
L 136.39788 96.57661 
L 135.795319 96.895058 
L 135.182279 96.270581 
L 134.558388 96.882639 
L 133.923255 95.278871 
L 133.276468 94.361671 
L 132.617591 94.22418 
L 131.261696 97.61356 
L 130.563675 96.905702 
L 129.124743 93.054174 
L 128.382633 93.725664 
L 126.84983 95.80045 
L 126.057686 94.334173 
L 125.247331 94.489405 
L 124.417906 93.363751 
L 123.568493 93.651152 
L 122.698105 92.744597 
L 121.80568 92.461632 
L 120.890072 92.865235 
L 119.950045 91.740468 
L 118.984261 92.576947 
L 117.991268 91.426456 
L 116.969489 90.775369 
L 115.917204 88.958711 
L 114.832536 91.376782 
L 112.557623 92.793385 
L 111.36263 91.282755 
L 110.125699 90.898667 
L 108.843779 91.618057 
L 107.513473 90.745209 
L 104.692054 92.485582 
L 103.191874 92.614202 
L 101.624997 92.961922 
L 99.985217 92.487356 
L 98.265416 92.606219 
L 97.911153 91.905458 
L 97.732677 92.487356 
L 97.372991 92.149394 
L 97.191762 90.903102 
L 97.009597 91.644668 
L 96.826485 91.353719 
L 96.457383 93.262629 
L 96.271373 94.290708 
L 96.084375 94.429973 
L 95.896381 94.834464 
L 95.707378 94.362558 
L 95.326305 92.066899 
L 95.134212 92.035852 
L 94.941067 92.216809 
L 94.746857 91.813205 
L 94.551572 91.779498 
L 94.157725 91.169214 
L 93.959139 91.108009 
L 93.759428 91.642007 
L 93.356579 94.276515 
L 93.153415 94.441505 
L 92.949072 93.534063 
L 92.5368 91.092042 
L 92.328841 90.325639 
L 92.119648 90.332736 
L 91.909206 90.790448 
L 91.6975 90.982049 
L 91.484515 91.351945 
L 91.270235 91.305818 
L 91.054645 90.832139 
L 90.619467 91.353719 
L 90.399847 92.034965 
L 90.17885 92.138749 
L 89.956459 92.11746 
L 89.28074 90.929714 
L 89.052591 91.222437 
L 88.822955 90.888023 
L 88.591814 91.45218 
L 88.359147 91.227759 
L 88.124934 91.3892 
L 87.889155 91.303157 
L 87.651787 91.335091 
L 87.412811 91.879733 
L 87.172203 91.765305 
L 86.929941 91.35638 
L 86.686003 89.741967 
L 86.440365 89.451905 
L 85.943893 92.482034 
L 85.69301 92.757016 
L 85.185823 91.656199 
L 84.929466 90.859637 
L 84.671231 90.658279 
L 84.41109 91.209131 
L 84.149015 92.034965 
L 83.884977 91.787481 
L 83.618946 90.95189 
L 83.350892 90.890684 
L 82.80859 91.459276 
L 82.534278 91.489436 
L 82.257815 91.35638 
L 81.698296 90.624572 
L 81.415171 90.832139 
L 81.129753 91.563947 
L 80.842005 91.728937 
L 80.551889 91.170988 
L 79.666932 93.825012 
L 79.36694 93.04353 
L 79.064372 92.759677 
L 78.759185 92.642588 
L 78.451332 93.309642 
L 78.140767 93.651152 
L 77.827441 93.602365 
L 77.511305 93.092317 
L 76.708334 92.457196 
L 76.447471 93.239566 
L 76.381952 93.239566 
L 75.919881 90.84988 
L 75.886643 90.84988 
L 75.753377 91.698777 
L 75.552528 90.422327 
L 75.41799 90.424101 
L 74.908849 92.731292 
L 74.737488 90.386845 
L 74.565289 92.092623 
L 74.530748 91.992387 
L 74.392246 91.449519 
L 74.218348 90.749644 
L 74.07861 90.719485 
L 73.867959 91.472582 
L 73.832727 91.472582 
L 73.832727 91.472582 
" clip-path="url(#pd6e62f9884)" style="fill: none; stroke: #ff0000; stroke-width: 1.5; stroke-linecap: square"/>
   </g>
   <g id="patch_3">
    <path d="M 57.6 307.584 
L 57.6 41.472 
" style="fill: none; stroke: #000000; stroke-width: 0.8; stroke-linejoin: miter; stroke-linecap: square"/>
   </g>
   <g id="patch_4">
    <path d="M 414.72 307.584 
L 414.72 41.472 
" style="fill: none; stroke: #000000; stroke-width: 0.8; stroke-linejoin: miter; stroke-linecap: square"/>
   </g>
   <g id="patch_5">
    <path d="M 57.6 307.584 
L 414.72 307.584 
" style="fill: none; stroke: #000000; stroke-width: 0.8; stroke-linejoin: miter; stroke-linecap: square"/>
   </g>
   <g id="patch_6">
    <path d="M 57.6 41.472 
L 414.72 41.472 
" style="fill: none; stroke: #000000; stroke-width: 0.8; stroke-linejoin: miter; stroke-linecap: square"/>
   </g>
   <g id="text_14">
    <!-- MAX2870 PLL2 -->
    <g transform="translate(191.470313 35.472)scale(0.12 -0.12)">
     <defs>
      <path id="DejaVuSans-4d" d="M 628 4666 
L 1569 4666 
L 2759 1491 
L 3956 4666 
L 4897 4666 
L 4897 0 
L 4281 0 
L 4281 4097 
L 3078 897 
L 2444 897 
L 1241 4097 
L 1241 0 
L 628 0 
L 628 4666 
z
" transform="scale(0.015625)"/>
      <path id="DejaVuSans-41" d="M 2188 4044 
L 1331 1722 
L 3047 1722 
L 2188 4044 
z
M 1831 4666 
L 2547 4666 
L 4325 0 
L 3669 0 
L 3244 1197 
L 1141 1197 
L 716 0 
L 50 0 
L 1831 4666 
z
" transform="scale(0.015625)"/>
      <path id="DejaVuSans-58" d="M 403 4666 
L 1081 4666 
L 2241 2931 
L 3406 4666 
L 4084 4666 
L 2584 2425 
L 4184 0 
L 3506 0 
L 2194 1984 
L 872 0 
L 191 0 
L 1856 2491 
L 403 4666 
z
" transform="scale(0.015625)"/>
      <path id="DejaVuSans-4c" d="M 628 4666 
L 1259 4666 
L 1259 531 
L 3531 531 
L 3531 0 
L 628 0 
L 628 4666 
z
" transform="scale(0.015625)"/>
     </defs>
     <use xlink:href="#DejaVuSans-4d"/>
     <use xlink:href="#DejaVuSans-41" x="86.279297"/>
     <use xlink:href="#DejaVuSans-58" x="154.6875"/>
     <use xlink:href="#DejaVuSans-32" x="223.193359"/>
     <use xlink:href="#DejaVuSans-38" x="286.816406"/>
     <use xlink:href="#DejaVuSans-37" x="350.439453"/>
     <use xlink:href="#DejaVuSans-30" x="414.0625"/>
     <use xlink:href="#DejaVuSans-20" x="477.685547"/>
     <use xlink:href="#DejaVuSans-50" x="509.472656"/>
     <use xlink:href="#DejaVuSans-4c" x="569.775391"/>
     <use xlink:href="#DejaVuSans-4c" x="625.488281"/>
     <use xlink:href="#DejaVuSans-32" x="681.201172"/>
    </g>
   </g>
   <g id="legend_1">
    <g id="patch_7">
     <path d="M 325.695 64.150125 
L 407.72 64.150125 
Q 409.72 64.150125 409.72 62.150125 
L 409.72 48.472 
Q 409.72 46.472 407.72 46.472 
L 325.695 46.472 
Q 323.695 46.472 323.695 48.472 
L 323.695 62.150125 
Q 323.695 64.150125 325.695 64.150125 
z
" style="fill: #ffffff; opacity: 0.8; stroke: #cccccc; stroke-linejoin: miter"/>
    </g>
    <g id="line2d_48">
     <path d="M 327.695 54.570438 
L 337.695 54.570438 
L 347.695 54.570438 
" style="fill: none; stroke: #ff0000; stroke-width: 1.5; stroke-linecap: square"/>
    </g>
    <g id="text_15">
     <!-- 4230 MHz -->
     <g transform="translate(355.695 58.070438)scale(0.1 -0.1)">
      <use xlink:href="#DejaVuSans-34"/>
      <use xlink:href="#DejaVuSans-32" x="63.623047"/>
      <use xlink:href="#DejaVuSans-33" x="127.246094"/>
      <use xlink:href="#DejaVuSans-30" x="190.869141"/>
      <use xlink:href="#DejaVuSans-20" x="254.492188"/>
      <use xlink:href="#DejaVuSans-4d" x="286.279297"/>
      <use xlink:href="#DejaVuSans-48" x="372.558594"/>
      <use xlink:href="#DejaVuSans-7a" x="447.753906"/>
     </g>
    </g>
   </g>
  </g>
 </g>
 <defs>
  <clipPath id="pd6e62f9884">
   <rect x="57.6" y="41.472" width="357.12" height="266.112"/>
  </clipPath>
 </defs>
</svg>
