<?xml version="1.0" encoding="utf-8" standalone="no"?>
<!DOCTYPE svg PUBLIC "-//W3C//DTD SVG 1.1//EN"
  "http://www.w3.org/Graphics/SVG/1.1/DTD/svg11.dtd">
<svg xmlns:xlink="http://www.w3.org/1999/xlink" width="460.8pt" height="345.6pt" viewBox="0 0 460.8 345.6" xmlns="http://www.w3.org/2000/svg" version="1.1">
 <metadata>
  <rdf:RDF xmlns:dc="http://purl.org/dc/elements/1.1/" xmlns:cc="http://creativecommons.org/ns#" xmlns:rdf="http://www.w3.org/1999/02/22-rdf-syntax-ns#">
   <cc:Work>
    <dc:type rdf:resource="http://purl.org/dc/dcmitype/StillImage"/>
    <dc:date>2022-09-16T17:49:07.233326</dc:date>
    <dc:format>image/svg+xml</dc:format>
    <dc:creator>
     <cc:Agent>
      <dc:title>Matplotlib v3.5.1, https://matplotlib.org/</dc:title>
     </cc:Agent>
    </dc:creator>
   </cc:Work>
  </rdf:RDF>
 </metadata>
 <defs>
  <style type="text/css">*{stroke-linejoin: round; stroke-linecap: butt}</style>
 </defs>
 <g id="figure_1">
  <g id="patch_1">
   <path d="M 0 345.6 
L 460.8 345.6 
L 460.8 0 
L 0 0 
z
" style="fill: #ffffff"/>
  </g>
  <g id="axes_1">
   <g id="patch_2">
    <path d="M 57.6 307.584 
L 414.72 307.584 
L 414.72 41.472 
L 57.6 41.472 
z
" style="fill: #ffffff"/>
   </g>
   <g id="matplotlib.axis_1">
    <g id="xtick_1">
     <g id="line2d_1">
      <defs>
       <path id="m9e16a62451" d="M 0 0 
L 0 3.5 
" style="stroke: #000000; stroke-width: 0.8"/>
      </defs>
      <g>
       <use xlink:href="#m9e16a62451" x="73.832727" y="307.584" style="stroke: #000000; stroke-width: 0.8"/>
      </g>
     </g>
     <g id="text_1">
      <!-- $\mathdefault{10^{3}}$ -->
      <g transform="translate(65.032727 322.182437)scale(0.1 -0.1)">
       <defs>
        <path id="DejaVuSans-31" d="M 794 531 
L 1825 531 
L 1825 4091 
L 703 3866 
L 703 4441 
L 1819 4666 
L 2450 4666 
L 2450 531 
L 3481 531 
L 3481 0 
L 794 0 
L 794 531 
z
" transform="scale(0.015625)"/>
        <path id="DejaVuSans-30" d="M 2034 4250 
Q 1547 4250 1301 3770 
Q 1056 3291 1056 2328 
Q 1056 1369 1301 889 
Q 1547 409 2034 409 
Q 2525 409 2770 889 
Q 3016 1369 3016 2328 
Q 3016 3291 2770 3770 
Q 2525 4250 2034 4250 
z
M 2034 4750 
Q 2819 4750 3233 4129 
Q 3647 3509 3647 2328 
Q 3647 1150 3233 529 
Q 2819 -91 2034 -91 
Q 1250 -91 836 529 
Q 422 1150 422 2328 
Q 422 3509 836 4129 
Q 1250 4750 2034 4750 
z
" transform="scale(0.015625)"/>
        <path id="DejaVuSans-33" d="M 2597 2516 
Q 3050 2419 3304 2112 
Q 3559 1806 3559 1356 
Q 3559 666 3084 287 
Q 2609 -91 1734 -91 
Q 1441 -91 1130 -33 
Q 819 25 488 141 
L 488 750 
Q 750 597 1062 519 
Q 1375 441 1716 441 
Q 2309 441 2620 675 
Q 2931 909 2931 1356 
Q 2931 1769 2642 2001 
Q 2353 2234 1838 2234 
L 1294 2234 
L 1294 2753 
L 1863 2753 
Q 2328 2753 2575 2939 
Q 2822 3125 2822 3475 
Q 2822 3834 2567 4026 
Q 2313 4219 1838 4219 
Q 1578 4219 1281 4162 
Q 984 4106 628 3988 
L 628 4550 
Q 988 4650 1302 4700 
Q 1616 4750 1894 4750 
Q 2613 4750 3031 4423 
Q 3450 4097 3450 3541 
Q 3450 3153 3228 2886 
Q 3006 2619 2597 2516 
z
" transform="scale(0.015625)"/>
       </defs>
       <use xlink:href="#DejaVuSans-31" transform="translate(0 0.765625)"/>
       <use xlink:href="#DejaVuSans-30" transform="translate(63.623047 0.765625)"/>
       <use xlink:href="#DejaVuSans-33" transform="translate(128.203125 39.046875)scale(0.7)"/>
      </g>
     </g>
    </g>
    <g id="xtick_2">
     <g id="line2d_2">
      <g>
       <use xlink:href="#m9e16a62451" x="154.996364" y="307.584" style="stroke: #000000; stroke-width: 0.8"/>
      </g>
     </g>
     <g id="text_2">
      <!-- $\mathdefault{10^{4}}$ -->
      <g transform="translate(146.196364 322.182437)scale(0.1 -0.1)">
       <defs>
        <path id="DejaVuSans-34" d="M 2419 4116 
L 825 1625 
L 2419 1625 
L 2419 4116 
z
M 2253 4666 
L 3047 4666 
L 3047 1625 
L 3713 1625 
L 3713 1100 
L 3047 1100 
L 3047 0 
L 2419 0 
L 2419 1100 
L 313 1100 
L 313 1709 
L 2253 4666 
z
" transform="scale(0.015625)"/>
       </defs>
       <use xlink:href="#DejaVuSans-31" transform="translate(0 0.684375)"/>
       <use xlink:href="#DejaVuSans-30" transform="translate(63.623047 0.684375)"/>
       <use xlink:href="#DejaVuSans-34" transform="translate(128.203125 38.965625)scale(0.7)"/>
      </g>
     </g>
    </g>
    <g id="xtick_3">
     <g id="line2d_3">
      <g>
       <use xlink:href="#m9e16a62451" x="236.16" y="307.584" style="stroke: #000000; stroke-width: 0.8"/>
      </g>
     </g>
     <g id="text_3">
      <!-- $\mathdefault{10^{5}}$ -->
      <g transform="translate(227.36 322.182437)scale(0.1 -0.1)">
       <defs>
        <path id="DejaVuSans-35" d="M 691 4666 
L 3169 4666 
L 3169 4134 
L 1269 4134 
L 1269 2991 
Q 1406 3038 1543 3061 
Q 1681 3084 1819 3084 
Q 2600 3084 3056 2656 
Q 3513 2228 3513 1497 
Q 3513 744 3044 326 
Q 2575 -91 1722 -91 
Q 1428 -91 1123 -41 
Q 819 9 494 109 
L 494 744 
Q 775 591 1075 516 
Q 1375 441 1709 441 
Q 2250 441 2565 725 
Q 2881 1009 2881 1497 
Q 2881 1984 2565 2268 
Q 2250 2553 1709 2553 
Q 1456 2553 1204 2497 
Q 953 2441 691 2322 
L 691 4666 
z
" transform="scale(0.015625)"/>
       </defs>
       <use xlink:href="#DejaVuSans-31" transform="translate(0 0.684375)"/>
       <use xlink:href="#DejaVuSans-30" transform="translate(63.623047 0.684375)"/>
       <use xlink:href="#DejaVuSans-35" transform="translate(128.203125 38.965625)scale(0.7)"/>
      </g>
     </g>
    </g>
    <g id="xtick_4">
     <g id="line2d_4">
      <g>
       <use xlink:href="#m9e16a62451" x="317.323636" y="307.584" style="stroke: #000000; stroke-width: 0.8"/>
      </g>
     </g>
     <g id="text_4">
      <!-- $\mathdefault{10^{6}}$ -->
      <g transform="translate(308.523636 322.182437)scale(0.1 -0.1)">
       <defs>
        <path id="DejaVuSans-36" d="M 2113 2584 
Q 1688 2584 1439 2293 
Q 1191 2003 1191 1497 
Q 1191 994 1439 701 
Q 1688 409 2113 409 
Q 2538 409 2786 701 
Q 3034 994 3034 1497 
Q 3034 2003 2786 2293 
Q 2538 2584 2113 2584 
z
M 3366 4563 
L 3366 3988 
Q 3128 4100 2886 4159 
Q 2644 4219 2406 4219 
Q 1781 4219 1451 3797 
Q 1122 3375 1075 2522 
Q 1259 2794 1537 2939 
Q 1816 3084 2150 3084 
Q 2853 3084 3261 2657 
Q 3669 2231 3669 1497 
Q 3669 778 3244 343 
Q 2819 -91 2113 -91 
Q 1303 -91 875 529 
Q 447 1150 447 2328 
Q 447 3434 972 4092 
Q 1497 4750 2381 4750 
Q 2619 4750 2861 4703 
Q 3103 4656 3366 4563 
z
" transform="scale(0.015625)"/>
       </defs>
       <use xlink:href="#DejaVuSans-31" transform="translate(0 0.765625)"/>
       <use xlink:href="#DejaVuSans-30" transform="translate(63.623047 0.765625)"/>
       <use xlink:href="#DejaVuSans-36" transform="translate(128.203125 39.046875)scale(0.7)"/>
      </g>
     </g>
    </g>
    <g id="xtick_5">
     <g id="line2d_5">
      <g>
       <use xlink:href="#m9e16a62451" x="398.487273" y="307.584" style="stroke: #000000; stroke-width: 0.8"/>
      </g>
     </g>
     <g id="text_5">
      <!-- $\mathdefault{10^{7}}$ -->
      <g transform="translate(389.687273 322.182437)scale(0.1 -0.1)">
       <defs>
        <path id="DejaVuSans-37" d="M 525 4666 
L 3525 4666 
L 3525 4397 
L 1831 0 
L 1172 0 
L 2766 4134 
L 525 4134 
L 525 4666 
z
" transform="scale(0.015625)"/>
       </defs>
       <use xlink:href="#DejaVuSans-31" transform="translate(0 0.684375)"/>
       <use xlink:href="#DejaVuSans-30" transform="translate(63.623047 0.684375)"/>
       <use xlink:href="#DejaVuSans-37" transform="translate(128.203125 38.965625)scale(0.7)"/>
      </g>
     </g>
    </g>
    <g id="xtick_6">
     <g id="line2d_6">
      <defs>
       <path id="ma38dab0268" d="M 0 0 
L 0 2 
" style="stroke: #000000; stroke-width: 0.6"/>
      </defs>
      <g>
       <use xlink:href="#ma38dab0268" x="61.260321" y="307.584" style="stroke: #000000; stroke-width: 0.6"/>
      </g>
     </g>
    </g>
    <g id="xtick_7">
     <g id="line2d_7">
      <g>
       <use xlink:href="#ma38dab0268" x="65.967158" y="307.584" style="stroke: #000000; stroke-width: 0.6"/>
      </g>
     </g>
    </g>
    <g id="xtick_8">
     <g id="line2d_8">
      <g>
       <use xlink:href="#ma38dab0268" x="70.118883" y="307.584" style="stroke: #000000; stroke-width: 0.6"/>
      </g>
     </g>
    </g>
    <g id="xtick_9">
     <g id="line2d_9">
      <g>
       <use xlink:href="#ma38dab0268" x="98.265416" y="307.584" style="stroke: #000000; stroke-width: 0.6"/>
      </g>
     </g>
    </g>
    <g id="xtick_10">
     <g id="line2d_10">
      <g>
       <use xlink:href="#ma38dab0268" x="112.557623" y="307.584" style="stroke: #000000; stroke-width: 0.6"/>
      </g>
     </g>
    </g>
    <g id="xtick_11">
     <g id="line2d_11">
      <g>
       <use xlink:href="#ma38dab0268" x="122.698105" y="307.584" style="stroke: #000000; stroke-width: 0.6"/>
      </g>
     </g>
    </g>
    <g id="xtick_12">
     <g id="line2d_12">
      <g>
       <use xlink:href="#ma38dab0268" x="130.563675" y="307.584" style="stroke: #000000; stroke-width: 0.6"/>
      </g>
     </g>
    </g>
    <g id="xtick_13">
     <g id="line2d_13">
      <g>
       <use xlink:href="#ma38dab0268" x="136.990312" y="307.584" style="stroke: #000000; stroke-width: 0.6"/>
      </g>
     </g>
    </g>
    <g id="xtick_14">
     <g id="line2d_14">
      <g>
       <use xlink:href="#ma38dab0268" x="142.423957" y="307.584" style="stroke: #000000; stroke-width: 0.6"/>
      </g>
     </g>
    </g>
    <g id="xtick_15">
     <g id="line2d_15">
      <g>
       <use xlink:href="#ma38dab0268" x="147.130795" y="307.584" style="stroke: #000000; stroke-width: 0.6"/>
      </g>
     </g>
    </g>
    <g id="xtick_16">
     <g id="line2d_16">
      <g>
       <use xlink:href="#ma38dab0268" x="151.282519" y="307.584" style="stroke: #000000; stroke-width: 0.6"/>
      </g>
     </g>
    </g>
    <g id="xtick_17">
     <g id="line2d_17">
      <g>
       <use xlink:href="#ma38dab0268" x="179.429053" y="307.584" style="stroke: #000000; stroke-width: 0.6"/>
      </g>
     </g>
    </g>
    <g id="xtick_18">
     <g id="line2d_18">
      <g>
       <use xlink:href="#ma38dab0268" x="193.72126" y="307.584" style="stroke: #000000; stroke-width: 0.6"/>
      </g>
     </g>
    </g>
    <g id="xtick_19">
     <g id="line2d_19">
      <g>
       <use xlink:href="#ma38dab0268" x="203.861742" y="307.584" style="stroke: #000000; stroke-width: 0.6"/>
      </g>
     </g>
    </g>
    <g id="xtick_20">
     <g id="line2d_20">
      <g>
       <use xlink:href="#ma38dab0268" x="211.727311" y="307.584" style="stroke: #000000; stroke-width: 0.6"/>
      </g>
     </g>
    </g>
    <g id="xtick_21">
     <g id="line2d_21">
      <g>
       <use xlink:href="#ma38dab0268" x="218.153949" y="307.584" style="stroke: #000000; stroke-width: 0.6"/>
      </g>
     </g>
    </g>
    <g id="xtick_22">
     <g id="line2d_22">
      <g>
       <use xlink:href="#ma38dab0268" x="223.587594" y="307.584" style="stroke: #000000; stroke-width: 0.6"/>
      </g>
     </g>
    </g>
    <g id="xtick_23">
     <g id="line2d_23">
      <g>
       <use xlink:href="#ma38dab0268" x="228.294431" y="307.584" style="stroke: #000000; stroke-width: 0.6"/>
      </g>
     </g>
    </g>
    <g id="xtick_24">
     <g id="line2d_24">
      <g>
       <use xlink:href="#ma38dab0268" x="232.446156" y="307.584" style="stroke: #000000; stroke-width: 0.6"/>
      </g>
     </g>
    </g>
    <g id="xtick_25">
     <g id="line2d_25">
      <g>
       <use xlink:href="#ma38dab0268" x="260.592689" y="307.584" style="stroke: #000000; stroke-width: 0.6"/>
      </g>
     </g>
    </g>
    <g id="xtick_26">
     <g id="line2d_26">
      <g>
       <use xlink:href="#ma38dab0268" x="274.884896" y="307.584" style="stroke: #000000; stroke-width: 0.6"/>
      </g>
     </g>
    </g>
    <g id="xtick_27">
     <g id="line2d_27">
      <g>
       <use xlink:href="#ma38dab0268" x="285.025378" y="307.584" style="stroke: #000000; stroke-width: 0.6"/>
      </g>
     </g>
    </g>
    <g id="xtick_28">
     <g id="line2d_28">
      <g>
       <use xlink:href="#ma38dab0268" x="292.890947" y="307.584" style="stroke: #000000; stroke-width: 0.6"/>
      </g>
     </g>
    </g>
    <g id="xtick_29">
     <g id="line2d_29">
      <g>
       <use xlink:href="#ma38dab0268" x="299.317585" y="307.584" style="stroke: #000000; stroke-width: 0.6"/>
      </g>
     </g>
    </g>
    <g id="xtick_30">
     <g id="line2d_30">
      <g>
       <use xlink:href="#ma38dab0268" x="304.75123" y="307.584" style="stroke: #000000; stroke-width: 0.6"/>
      </g>
     </g>
    </g>
    <g id="xtick_31">
     <g id="line2d_31">
      <g>
       <use xlink:href="#ma38dab0268" x="309.458067" y="307.584" style="stroke: #000000; stroke-width: 0.6"/>
      </g>
     </g>
    </g>
    <g id="xtick_32">
     <g id="line2d_32">
      <g>
       <use xlink:href="#ma38dab0268" x="313.609792" y="307.584" style="stroke: #000000; stroke-width: 0.6"/>
      </g>
     </g>
    </g>
    <g id="xtick_33">
     <g id="line2d_33">
      <g>
       <use xlink:href="#ma38dab0268" x="341.756325" y="307.584" style="stroke: #000000; stroke-width: 0.6"/>
      </g>
     </g>
    </g>
    <g id="xtick_34">
     <g id="line2d_34">
      <g>
       <use xlink:href="#ma38dab0268" x="356.048532" y="307.584" style="stroke: #000000; stroke-width: 0.6"/>
      </g>
     </g>
    </g>
    <g id="xtick_35">
     <g id="line2d_35">
      <g>
       <use xlink:href="#ma38dab0268" x="366.189015" y="307.584" style="stroke: #000000; stroke-width: 0.6"/>
      </g>
     </g>
    </g>
    <g id="xtick_36">
     <g id="line2d_36">
      <g>
       <use xlink:href="#ma38dab0268" x="374.054584" y="307.584" style="stroke: #000000; stroke-width: 0.6"/>
      </g>
     </g>
    </g>
    <g id="xtick_37">
     <g id="line2d_37">
      <g>
       <use xlink:href="#ma38dab0268" x="380.481221" y="307.584" style="stroke: #000000; stroke-width: 0.6"/>
      </g>
     </g>
    </g>
    <g id="xtick_38">
     <g id="line2d_38">
      <g>
       <use xlink:href="#ma38dab0268" x="385.914866" y="307.584" style="stroke: #000000; stroke-width: 0.6"/>
      </g>
     </g>
    </g>
    <g id="xtick_39">
     <g id="line2d_39">
      <g>
       <use xlink:href="#ma38dab0268" x="390.621704" y="307.584" style="stroke: #000000; stroke-width: 0.6"/>
      </g>
     </g>
    </g>
    <g id="xtick_40">
     <g id="line2d_40">
      <g>
       <use xlink:href="#ma38dab0268" x="394.773428" y="307.584" style="stroke: #000000; stroke-width: 0.6"/>
      </g>
     </g>
    </g>
    <g id="text_6">
     <!-- Frequency [Hz] -->
     <g transform="translate(198.455312 335.860562)scale(0.1 -0.1)">
      <defs>
       <path id="DejaVuSans-46" d="M 628 4666 
L 3309 4666 
L 3309 4134 
L 1259 4134 
L 1259 2759 
L 3109 2759 
L 3109 2228 
L 1259 2228 
L 1259 0 
L 628 0 
L 628 4666 
z
" transform="scale(0.015625)"/>
       <path id="DejaVuSans-72" d="M 2631 2963 
Q 2534 3019 2420 3045 
Q 2306 3072 2169 3072 
Q 1681 3072 1420 2755 
Q 1159 2438 1159 1844 
L 1159 0 
L 581 0 
L 581 3500 
L 1159 3500 
L 1159 2956 
Q 1341 3275 1631 3429 
Q 1922 3584 2338 3584 
Q 2397 3584 2469 3576 
Q 2541 3569 2628 3553 
L 2631 2963 
z
" transform="scale(0.015625)"/>
       <path id="DejaVuSans-65" d="M 3597 1894 
L 3597 1613 
L 953 1613 
Q 991 1019 1311 708 
Q 1631 397 2203 397 
Q 2534 397 2845 478 
Q 3156 559 3463 722 
L 3463 178 
Q 3153 47 2828 -22 
Q 2503 -91 2169 -91 
Q 1331 -91 842 396 
Q 353 884 353 1716 
Q 353 2575 817 3079 
Q 1281 3584 2069 3584 
Q 2775 3584 3186 3129 
Q 3597 2675 3597 1894 
z
M 3022 2063 
Q 3016 2534 2758 2815 
Q 2500 3097 2075 3097 
Q 1594 3097 1305 2825 
Q 1016 2553 972 2059 
L 3022 2063 
z
" transform="scale(0.015625)"/>
       <path id="DejaVuSans-71" d="M 947 1747 
Q 947 1113 1208 752 
Q 1469 391 1925 391 
Q 2381 391 2643 752 
Q 2906 1113 2906 1747 
Q 2906 2381 2643 2742 
Q 2381 3103 1925 3103 
Q 1469 3103 1208 2742 
Q 947 2381 947 1747 
z
M 2906 525 
Q 2725 213 2448 61 
Q 2172 -91 1784 -91 
Q 1150 -91 751 415 
Q 353 922 353 1747 
Q 353 2572 751 3078 
Q 1150 3584 1784 3584 
Q 2172 3584 2448 3432 
Q 2725 3281 2906 2969 
L 2906 3500 
L 3481 3500 
L 3481 -1331 
L 2906 -1331 
L 2906 525 
z
" transform="scale(0.015625)"/>
       <path id="DejaVuSans-75" d="M 544 1381 
L 544 3500 
L 1119 3500 
L 1119 1403 
Q 1119 906 1312 657 
Q 1506 409 1894 409 
Q 2359 409 2629 706 
Q 2900 1003 2900 1516 
L 2900 3500 
L 3475 3500 
L 3475 0 
L 2900 0 
L 2900 538 
Q 2691 219 2414 64 
Q 2138 -91 1772 -91 
Q 1169 -91 856 284 
Q 544 659 544 1381 
z
M 1991 3584 
L 1991 3584 
z
" transform="scale(0.015625)"/>
       <path id="DejaVuSans-6e" d="M 3513 2113 
L 3513 0 
L 2938 0 
L 2938 2094 
Q 2938 2591 2744 2837 
Q 2550 3084 2163 3084 
Q 1697 3084 1428 2787 
Q 1159 2491 1159 1978 
L 1159 0 
L 581 0 
L 581 3500 
L 1159 3500 
L 1159 2956 
Q 1366 3272 1645 3428 
Q 1925 3584 2291 3584 
Q 2894 3584 3203 3211 
Q 3513 2838 3513 2113 
z
" transform="scale(0.015625)"/>
       <path id="DejaVuSans-63" d="M 3122 3366 
L 3122 2828 
Q 2878 2963 2633 3030 
Q 2388 3097 2138 3097 
Q 1578 3097 1268 2742 
Q 959 2388 959 1747 
Q 959 1106 1268 751 
Q 1578 397 2138 397 
Q 2388 397 2633 464 
Q 2878 531 3122 666 
L 3122 134 
Q 2881 22 2623 -34 
Q 2366 -91 2075 -91 
Q 1284 -91 818 406 
Q 353 903 353 1747 
Q 353 2603 823 3093 
Q 1294 3584 2113 3584 
Q 2378 3584 2631 3529 
Q 2884 3475 3122 3366 
z
" transform="scale(0.015625)"/>
       <path id="DejaVuSans-79" d="M 2059 -325 
Q 1816 -950 1584 -1140 
Q 1353 -1331 966 -1331 
L 506 -1331 
L 506 -850 
L 844 -850 
Q 1081 -850 1212 -737 
Q 1344 -625 1503 -206 
L 1606 56 
L 191 3500 
L 800 3500 
L 1894 763 
L 2988 3500 
L 3597 3500 
L 2059 -325 
z
" transform="scale(0.015625)"/>
       <path id="DejaVuSans-20" transform="scale(0.015625)"/>
       <path id="DejaVuSans-5b" d="M 550 4863 
L 1875 4863 
L 1875 4416 
L 1125 4416 
L 1125 -397 
L 1875 -397 
L 1875 -844 
L 550 -844 
L 550 4863 
z
" transform="scale(0.015625)"/>
       <path id="DejaVuSans-48" d="M 628 4666 
L 1259 4666 
L 1259 2753 
L 3553 2753 
L 3553 4666 
L 4184 4666 
L 4184 0 
L 3553 0 
L 3553 2222 
L 1259 2222 
L 1259 0 
L 628 0 
L 628 4666 
z
" transform="scale(0.015625)"/>
       <path id="DejaVuSans-7a" d="M 353 3500 
L 3084 3500 
L 3084 2975 
L 922 459 
L 3084 459 
L 3084 0 
L 275 0 
L 275 525 
L 2438 3041 
L 353 3041 
L 353 3500 
z
" transform="scale(0.015625)"/>
       <path id="DejaVuSans-5d" d="M 1947 4863 
L 1947 -844 
L 622 -844 
L 622 -397 
L 1369 -397 
L 1369 4416 
L 622 4416 
L 622 4863 
L 1947 4863 
z
" transform="scale(0.015625)"/>
      </defs>
      <use xlink:href="#DejaVuSans-46"/>
      <use xlink:href="#DejaVuSans-72" x="50.269531"/>
      <use xlink:href="#DejaVuSans-65" x="89.132812"/>
      <use xlink:href="#DejaVuSans-71" x="150.65625"/>
      <use xlink:href="#DejaVuSans-75" x="214.132812"/>
      <use xlink:href="#DejaVuSans-65" x="277.511719"/>
      <use xlink:href="#DejaVuSans-6e" x="339.035156"/>
      <use xlink:href="#DejaVuSans-63" x="402.414062"/>
      <use xlink:href="#DejaVuSans-79" x="457.394531"/>
      <use xlink:href="#DejaVuSans-20" x="516.574219"/>
      <use xlink:href="#DejaVuSans-5b" x="548.361328"/>
      <use xlink:href="#DejaVuSans-48" x="587.375"/>
      <use xlink:href="#DejaVuSans-7a" x="662.570312"/>
      <use xlink:href="#DejaVuSans-5d" x="715.060547"/>
     </g>
    </g>
   </g>
   <g id="matplotlib.axis_2">
    <g id="ytick_1">
     <g id="line2d_41">
      <defs>
       <path id="mc442b00eba" d="M 0 0 
L -3.5 0 
" style="stroke: #000000; stroke-width: 0.8"/>
      </defs>
      <g>
       <use xlink:href="#mc442b00eba" x="57.6" y="307.584" style="stroke: #000000; stroke-width: 0.8"/>
      </g>
     </g>
     <g id="text_7">
      <!-- −140 -->
      <g transform="translate(23.132812 311.383219)scale(0.1 -0.1)">
       <defs>
        <path id="DejaVuSans-2212" d="M 678 2272 
L 4684 2272 
L 4684 1741 
L 678 1741 
L 678 2272 
z
" transform="scale(0.015625)"/>
       </defs>
       <use xlink:href="#DejaVuSans-2212"/>
       <use xlink:href="#DejaVuSans-31" x="83.789062"/>
       <use xlink:href="#DejaVuSans-34" x="147.412109"/>
       <use xlink:href="#DejaVuSans-30" x="211.035156"/>
      </g>
     </g>
    </g>
    <g id="ytick_2">
     <g id="line2d_42">
      <g>
       <use xlink:href="#mc442b00eba" x="57.6" y="254.3616" style="stroke: #000000; stroke-width: 0.8"/>
      </g>
     </g>
     <g id="text_8">
      <!-- −120 -->
      <g transform="translate(23.132812 258.160819)scale(0.1 -0.1)">
       <defs>
        <path id="DejaVuSans-32" d="M 1228 531 
L 3431 531 
L 3431 0 
L 469 0 
L 469 531 
Q 828 903 1448 1529 
Q 2069 2156 2228 2338 
Q 2531 2678 2651 2914 
Q 2772 3150 2772 3378 
Q 2772 3750 2511 3984 
Q 2250 4219 1831 4219 
Q 1534 4219 1204 4116 
Q 875 4013 500 3803 
L 500 4441 
Q 881 4594 1212 4672 
Q 1544 4750 1819 4750 
Q 2544 4750 2975 4387 
Q 3406 4025 3406 3419 
Q 3406 3131 3298 2873 
Q 3191 2616 2906 2266 
Q 2828 2175 2409 1742 
Q 1991 1309 1228 531 
z
" transform="scale(0.015625)"/>
       </defs>
       <use xlink:href="#DejaVuSans-2212"/>
       <use xlink:href="#DejaVuSans-31" x="83.789062"/>
       <use xlink:href="#DejaVuSans-32" x="147.412109"/>
       <use xlink:href="#DejaVuSans-30" x="211.035156"/>
      </g>
     </g>
    </g>
    <g id="ytick_3">
     <g id="line2d_43">
      <g>
       <use xlink:href="#mc442b00eba" x="57.6" y="201.1392" style="stroke: #000000; stroke-width: 0.8"/>
      </g>
     </g>
     <g id="text_9">
      <!-- −100 -->
      <g transform="translate(23.132812 204.938419)scale(0.1 -0.1)">
       <use xlink:href="#DejaVuSans-2212"/>
       <use xlink:href="#DejaVuSans-31" x="83.789062"/>
       <use xlink:href="#DejaVuSans-30" x="147.412109"/>
       <use xlink:href="#DejaVuSans-30" x="211.035156"/>
      </g>
     </g>
    </g>
    <g id="ytick_4">
     <g id="line2d_44">
      <g>
       <use xlink:href="#mc442b00eba" x="57.6" y="147.9168" style="stroke: #000000; stroke-width: 0.8"/>
      </g>
     </g>
     <g id="text_10">
      <!-- −80 -->
      <g transform="translate(29.495313 151.716019)scale(0.1 -0.1)">
       <defs>
        <path id="DejaVuSans-38" d="M 2034 2216 
Q 1584 2216 1326 1975 
Q 1069 1734 1069 1313 
Q 1069 891 1326 650 
Q 1584 409 2034 409 
Q 2484 409 2743 651 
Q 3003 894 3003 1313 
Q 3003 1734 2745 1975 
Q 2488 2216 2034 2216 
z
M 1403 2484 
Q 997 2584 770 2862 
Q 544 3141 544 3541 
Q 544 4100 942 4425 
Q 1341 4750 2034 4750 
Q 2731 4750 3128 4425 
Q 3525 4100 3525 3541 
Q 3525 3141 3298 2862 
Q 3072 2584 2669 2484 
Q 3125 2378 3379 2068 
Q 3634 1759 3634 1313 
Q 3634 634 3220 271 
Q 2806 -91 2034 -91 
Q 1263 -91 848 271 
Q 434 634 434 1313 
Q 434 1759 690 2068 
Q 947 2378 1403 2484 
z
M 1172 3481 
Q 1172 3119 1398 2916 
Q 1625 2713 2034 2713 
Q 2441 2713 2670 2916 
Q 2900 3119 2900 3481 
Q 2900 3844 2670 4047 
Q 2441 4250 2034 4250 
Q 1625 4250 1398 4047 
Q 1172 3844 1172 3481 
z
" transform="scale(0.015625)"/>
       </defs>
       <use xlink:href="#DejaVuSans-2212"/>
       <use xlink:href="#DejaVuSans-38" x="83.789062"/>
       <use xlink:href="#DejaVuSans-30" x="147.412109"/>
      </g>
     </g>
    </g>
    <g id="ytick_5">
     <g id="line2d_45">
      <g>
       <use xlink:href="#mc442b00eba" x="57.6" y="94.6944" style="stroke: #000000; stroke-width: 0.8"/>
      </g>
     </g>
     <g id="text_11">
      <!-- −60 -->
      <g transform="translate(29.495313 98.493619)scale(0.1 -0.1)">
       <use xlink:href="#DejaVuSans-2212"/>
       <use xlink:href="#DejaVuSans-36" x="83.789062"/>
       <use xlink:href="#DejaVuSans-30" x="147.412109"/>
      </g>
     </g>
    </g>
    <g id="ytick_6">
     <g id="line2d_46">
      <g>
       <use xlink:href="#mc442b00eba" x="57.6" y="41.472" style="stroke: #000000; stroke-width: 0.8"/>
      </g>
     </g>
     <g id="text_12">
      <!-- −40 -->
      <g transform="translate(29.495313 45.271219)scale(0.1 -0.1)">
       <use xlink:href="#DejaVuSans-2212"/>
       <use xlink:href="#DejaVuSans-34" x="83.789062"/>
       <use xlink:href="#DejaVuSans-30" x="147.412109"/>
      </g>
     </g>
    </g>
    <g id="text_13">
     <!-- Phase noise [dBc/Hz] -->
     <g transform="translate(17.053125 227.257688)rotate(-90)scale(0.1 -0.1)">
      <defs>
       <path id="DejaVuSans-50" d="M 1259 4147 
L 1259 2394 
L 2053 2394 
Q 2494 2394 2734 2622 
Q 2975 2850 2975 3272 
Q 2975 3691 2734 3919 
Q 2494 4147 2053 4147 
L 1259 4147 
z
M 628 4666 
L 2053 4666 
Q 2838 4666 3239 4311 
Q 3641 3956 3641 3272 
Q 3641 2581 3239 2228 
Q 2838 1875 2053 1875 
L 1259 1875 
L 1259 0 
L 628 0 
L 628 4666 
z
" transform="scale(0.015625)"/>
       <path id="DejaVuSans-68" d="M 3513 2113 
L 3513 0 
L 2938 0 
L 2938 2094 
Q 2938 2591 2744 2837 
Q 2550 3084 2163 3084 
Q 1697 3084 1428 2787 
Q 1159 2491 1159 1978 
L 1159 0 
L 581 0 
L 581 4863 
L 1159 4863 
L 1159 2956 
Q 1366 3272 1645 3428 
Q 1925 3584 2291 3584 
Q 2894 3584 3203 3211 
Q 3513 2838 3513 2113 
z
" transform="scale(0.015625)"/>
       <path id="DejaVuSans-61" d="M 2194 1759 
Q 1497 1759 1228 1600 
Q 959 1441 959 1056 
Q 959 750 1161 570 
Q 1363 391 1709 391 
Q 2188 391 2477 730 
Q 2766 1069 2766 1631 
L 2766 1759 
L 2194 1759 
z
M 3341 1997 
L 3341 0 
L 2766 0 
L 2766 531 
Q 2569 213 2275 61 
Q 1981 -91 1556 -91 
Q 1019 -91 701 211 
Q 384 513 384 1019 
Q 384 1609 779 1909 
Q 1175 2209 1959 2209 
L 2766 2209 
L 2766 2266 
Q 2766 2663 2505 2880 
Q 2244 3097 1772 3097 
Q 1472 3097 1187 3025 
Q 903 2953 641 2809 
L 641 3341 
Q 956 3463 1253 3523 
Q 1550 3584 1831 3584 
Q 2591 3584 2966 3190 
Q 3341 2797 3341 1997 
z
" transform="scale(0.015625)"/>
       <path id="DejaVuSans-73" d="M 2834 3397 
L 2834 2853 
Q 2591 2978 2328 3040 
Q 2066 3103 1784 3103 
Q 1356 3103 1142 2972 
Q 928 2841 928 2578 
Q 928 2378 1081 2264 
Q 1234 2150 1697 2047 
L 1894 2003 
Q 2506 1872 2764 1633 
Q 3022 1394 3022 966 
Q 3022 478 2636 193 
Q 2250 -91 1575 -91 
Q 1294 -91 989 -36 
Q 684 19 347 128 
L 347 722 
Q 666 556 975 473 
Q 1284 391 1588 391 
Q 1994 391 2212 530 
Q 2431 669 2431 922 
Q 2431 1156 2273 1281 
Q 2116 1406 1581 1522 
L 1381 1569 
Q 847 1681 609 1914 
Q 372 2147 372 2553 
Q 372 3047 722 3315 
Q 1072 3584 1716 3584 
Q 2034 3584 2315 3537 
Q 2597 3491 2834 3397 
z
" transform="scale(0.015625)"/>
       <path id="DejaVuSans-6f" d="M 1959 3097 
Q 1497 3097 1228 2736 
Q 959 2375 959 1747 
Q 959 1119 1226 758 
Q 1494 397 1959 397 
Q 2419 397 2687 759 
Q 2956 1122 2956 1747 
Q 2956 2369 2687 2733 
Q 2419 3097 1959 3097 
z
M 1959 3584 
Q 2709 3584 3137 3096 
Q 3566 2609 3566 1747 
Q 3566 888 3137 398 
Q 2709 -91 1959 -91 
Q 1206 -91 779 398 
Q 353 888 353 1747 
Q 353 2609 779 3096 
Q 1206 3584 1959 3584 
z
" transform="scale(0.015625)"/>
       <path id="DejaVuSans-69" d="M 603 3500 
L 1178 3500 
L 1178 0 
L 603 0 
L 603 3500 
z
M 603 4863 
L 1178 4863 
L 1178 4134 
L 603 4134 
L 603 4863 
z
" transform="scale(0.015625)"/>
       <path id="DejaVuSans-64" d="M 2906 2969 
L 2906 4863 
L 3481 4863 
L 3481 0 
L 2906 0 
L 2906 525 
Q 2725 213 2448 61 
Q 2172 -91 1784 -91 
Q 1150 -91 751 415 
Q 353 922 353 1747 
Q 353 2572 751 3078 
Q 1150 3584 1784 3584 
Q 2172 3584 2448 3432 
Q 2725 3281 2906 2969 
z
M 947 1747 
Q 947 1113 1208 752 
Q 1469 391 1925 391 
Q 2381 391 2643 752 
Q 2906 1113 2906 1747 
Q 2906 2381 2643 2742 
Q 2381 3103 1925 3103 
Q 1469 3103 1208 2742 
Q 947 2381 947 1747 
z
" transform="scale(0.015625)"/>
       <path id="DejaVuSans-42" d="M 1259 2228 
L 1259 519 
L 2272 519 
Q 2781 519 3026 730 
Q 3272 941 3272 1375 
Q 3272 1813 3026 2020 
Q 2781 2228 2272 2228 
L 1259 2228 
z
M 1259 4147 
L 1259 2741 
L 2194 2741 
Q 2656 2741 2882 2914 
Q 3109 3088 3109 3444 
Q 3109 3797 2882 3972 
Q 2656 4147 2194 4147 
L 1259 4147 
z
M 628 4666 
L 2241 4666 
Q 2963 4666 3353 4366 
Q 3744 4066 3744 3513 
Q 3744 3084 3544 2831 
Q 3344 2578 2956 2516 
Q 3422 2416 3680 2098 
Q 3938 1781 3938 1306 
Q 3938 681 3513 340 
Q 3088 0 2303 0 
L 628 0 
L 628 4666 
z
" transform="scale(0.015625)"/>
       <path id="DejaVuSans-2f" d="M 1625 4666 
L 2156 4666 
L 531 -594 
L 0 -594 
L 1625 4666 
z
" transform="scale(0.015625)"/>
      </defs>
      <use xlink:href="#DejaVuSans-50"/>
      <use xlink:href="#DejaVuSans-68" x="60.302734"/>
      <use xlink:href="#DejaVuSans-61" x="123.681641"/>
      <use xlink:href="#DejaVuSans-73" x="184.960938"/>
      <use xlink:href="#DejaVuSans-65" x="237.060547"/>
      <use xlink:href="#DejaVuSans-20" x="298.583984"/>
      <use xlink:href="#DejaVuSans-6e" x="330.371094"/>
      <use xlink:href="#DejaVuSans-6f" x="393.75"/>
      <use xlink:href="#DejaVuSans-69" x="454.931641"/>
      <use xlink:href="#DejaVuSans-73" x="482.714844"/>
      <use xlink:href="#DejaVuSans-65" x="534.814453"/>
      <use xlink:href="#DejaVuSans-20" x="596.337891"/>
      <use xlink:href="#DejaVuSans-5b" x="628.125"/>
      <use xlink:href="#DejaVuSans-64" x="667.138672"/>
      <use xlink:href="#DejaVuSans-42" x="730.615234"/>
      <use xlink:href="#DejaVuSans-63" x="799.21875"/>
      <use xlink:href="#DejaVuSans-2f" x="854.199219"/>
      <use xlink:href="#DejaVuSans-48" x="887.890625"/>
      <use xlink:href="#DejaVuSans-7a" x="963.085938"/>
      <use xlink:href="#DejaVuSans-5d" x="1015.576172"/>
     </g>
    </g>
   </g>
   <g id="line2d_47">
    <path d="M 398.487273 291.872393 
L 398.133009 294.421746 
L 397.775149 297.945069 
L 397.413619 298.285692 
L 397.048342 297.542352 
L 396.67924 297.439456 
L 395.548161 298.512774 
L 395.162923 298.224486 
L 394.773428 298.66091 
L 394.379582 297.890959 
L 393.578435 296.090268 
L 393.170929 296.210905 
L 392.758656 297.423489 
L 391.492092 296.019305 
L 391.059584 296.941826 
L 390.621704 297.003919 
L 390.178315 297.36317 
L 389.729278 298.029337 
L 389.274447 298.185456 
L 388.81367 298.702601 
L 388.346791 297.930876 
L 387.873644 298.096752 
L 387.394059 296.992388 
L 386.907859 297.612429 
L 386.414859 297.358735 
L 385.914866 297.924667 
L 385.407679 297.963696 
L 384.893087 298.581963 
L 384.370871 298.871138 
L 383.840802 297.895394 
L 382.756135 296.885056 
L 382.201022 297.921118 
L 381.637027 298.117154 
L 381.063862 299.169184 
L 380.481221 299.307562 
L 379.888789 298.84364 
L 379.286228 297.916683 
L 378.673188 298.090543 
L 378.049297 298.979357 
L 377.414164 298.597043 
L 376.767377 297.666538 
L 376.1085 297.207051 
L 375.437071 298.539385 
L 374.752605 297.776531 
L 374.054584 298.311416 
L 373.34246 296.011321 
L 372.615652 296.724502 
L 371.873543 296.2934 
L 371.115472 297.772983 
L 370.340739 298.155297 
L 369.548595 297.449213 
L 368.73824 297.106816 
L 367.908815 298.070141 
L 367.059402 297.969906 
L 366.189015 297.235437 
L 365.296589 295.385071 
L 364.380981 295.840123 
L 363.440954 297.359622 
L 361.482177 295.02582 
L 360.460398 293.169245 
L 359.408113 294.89099 
L 358.323446 295.320317 
L 357.204338 296.172763 
L 356.048532 294.744628 
L 354.853539 294.394247 
L 353.616608 293.540028 
L 352.334688 293.146182 
L 349.621895 293.288996 
L 348.182963 294.689632 
L 346.682783 294.39336 
L 345.115906 293.867346 
L 343.476126 291.57967 
L 341.756325 289.887197 
L 339.948292 288.278107 
L 338.042481 287.309459 
L 333.890756 287.106327 
L 331.615843 284.954368 
L 329.183919 282.383726 
L 326.571693 280.760443 
L 323.750274 281.065584 
L 323.455302 281.828439 
L 323.157841 281.940206 
L 322.857849 282.334939 
L 322.219429 281.748605 
L 322.065705 281.232348 
L 321.880347 281.349437 
L 321.849358 281.409756 
L 321.818343 281.306859 
L 321.694008 280.877532 
L 321.600468 280.925432 
L 321.349808 282.083019 
L 321.286864 281.941093 
L 321.160637 281.615549 
L 321.097353 281.771668 
L 321.002214 282.016491 
L 320.970444 281.845293 
L 320.906818 281.108162 
L 320.61907 278.812503 
L 320.586952 278.807181 
L 320.361307 279.67648 
L 320.16674 280.435786 
L 320.069053 280.792376 
L 320.03643 280.786167 
L 319.872862 280.762217 
L 319.609563 279.789134 
L 319.576512 279.800665 
L 319.54343 279.812197 
L 319.443997 280.528925 
L 319.344283 280.496992 
L 319.244286 280.646014 
L 319.177463 280.576825 
L 318.908899 280.709881 
L 318.875184 280.57239 
L 318.57029 279.712848 
L 318.46807 279.633902 
L 318.228397 280.054359 
L 318.159618 280.068551 
L 317.917832 278.792101 
L 317.778919 278.368096 
L 317.604506 277.591049 
L 317.394064 278.486959 
L 317.28837 280.114678 
L 316.575526 281.499347 
L 316.213624 281.64216 
L 315.847968 281.139209 
L 315.478479 281.592486 
L 315.105076 280.465058 
L 314.727675 278.499378 
L 314.34619 277.449122 
L 313.96053 277.410093 
L 313.570605 278.67856 
L 313.176317 277.766683 
L 312.77757 276.50886 
L 312.37426 275.942928 
L 311.553526 275.764633 
L 311.13588 276.166462 
L 310.713226 275.951799 
L 310.285442 276.450315 
L 309.413979 274.246908 
L 308.970032 273.26939 
L 308.520422 273.621545 
L 308.065003 273.075128 
L 307.136124 270.035242 
L 306.662341 270.594077 
L 306.182103 271.670057 
L 305.695232 271.379995 
L 304.700838 269.267065 
L 304.19292 270.49739 
L 303.154585 271.133398 
L 302.623718 270.182491 
L 301.537379 268.903379 
L 300.981391 268.357849 
L 300.416492 268.894509 
L 299.842393 269.599705 
L 299.258788 268.299305 
L 298.061766 263.817092 
L 297.447657 264.920569 
L 296.82266 266.450713 
L 296.186381 265.922925 
L 295.538405 264.525837 
L 294.878293 262.336622 
L 294.205583 262.344605 
L 293.519785 260.980338 
L 292.820379 260.589153 
L 292.106814 259.976208 
L 290.634829 257.954644 
L 289.875124 256.527397 
L 289.098685 256.035977 
L 288.304757 256.104279 
L 287.492534 255.565846 
L 286.661153 256.12202 
L 284.937146 252.398226 
L 284.042455 251.020653 
L 283.124462 252.912709 
L 282.181922 253.768702 
L 281.213484 252.652806 
L 280.217686 250.845906 
L 279.192936 249.512685 
L 278.1375 246.683914 
L 277.049484 245.106757 
L 275.926812 244.241893 
L 274.767203 245.522779 
L 273.568145 246.67327 
L 272.326858 245.664705 
L 271.040258 243.756682 
L 269.704912 239.93354 
L 268.31698 238.532016 
L 266.87215 238.218891 
L 265.365556 236.993002 
L 263.791682 233.381862 
L 262.144237 230.07409 
L 260.416002 227.759803 
L 260.238426 228.382505 
L 259.880566 228.549268 
L 259.700264 228.80651 
L 259.33687 230.120216 
L 258.411648 232.153312 
L 257.653577 229.484208 
L 257.26834 227.965596 
L 257.07413 227.890198 
L 256.682471 226.787607 
L 256.484998 226.081523 
L 256.286412 226.329894 
L 255.683852 228.613135 
L 254.864072 224.977158 
L 254.656114 224.747415 
L 254.024773 222.58215 
L 253.811788 222.665532 
L 252.94674 224.880471 
L 252.72712 224.89555 
L 252.283732 224.108746 
L 252.059928 224.440499 
L 251.834695 224.989577 
L 251.379864 226.870989 
L 251.150228 227.16726 
L 250.68642 225.561718 
L 250.405177 225.068523 
L 250.169082 225.781703 
L 250.050438 225.457047 
L 250.026661 225.614053 
L 249.955235 226.016769 
L 249.931394 225.739126 
L 249.764054 224.496382 
L 249.740083 224.547831 
L 249.716096 224.599279 
L 249.692093 224.454692 
L 249.426972 223.192434 
L 249.3058 223.099294 
L 249.281515 223.123245 
L 249.208561 223.468303 
L 249.159841 223.860375 
L 249.086635 223.59515 
L 249.013276 223.674983 
L 248.939764 223.980125 
L 248.890671 223.799169 
L 248.742979 222.95382 
L 248.693611 222.950272 
L 248.495444 222.214029 
L 248.445727 222.269025 
L 248.221132 224.075038 
L 248.196088 223.785863 
L 247.944668 219.696609 
L 247.919427 219.721446 
L 247.894168 219.746283 
L 247.513095 222.054361 
L 247.333841 222.61231 
L 247.282458 222.452642 
L 247.050302 220.766379 
L 246.920663 218.949721 
L 246.764463 217.895031 
L 246.712243 217.880838 
L 246.581352 219.176804 
L 246.502583 218.426368 
L 246.344516 217.267006 
L 246.291669 217.087824 
L 246.238743 216.821712 
L 246.185737 216.982267 
L 245.999586 218.173561 
L 245.946219 218.05115 
L 245.812447 216.85542 
L 245.785631 216.861629 
L 245.731939 216.952107 
L 245.54337 216.204333 
L 245.489307 216.261103 
L 245.326619 217.019522 
L 245.299431 216.985815 
L 245.272223 216.952107 
L 245.244993 217.067422 
L 245.026394 217.533118 
L 244.889078 216.375531 
L 244.362345 210.025212 
L 244.334403 210.014567 
L 244.306438 210.120125 
L 244.222412 210.856368 
L 244.081922 211.143769 
L 243.997359 211.210297 
L 243.657061 212.598515 
L 243.600024 212.563033 
L 243.57147 212.53997 
L 243.428356 211.688412 
L 243.399664 211.713249 
L 243.342208 211.878238 
L 243.313445 211.993554 
L 243.255849 211.844531 
L 243.082493 210.855481 
L 242.995495 210.99386 
L 242.879162 211.26352 
L 242.850018 211.198766 
L 242.67465 210.980554 
L 242.527841 212.07871 
L 242.439461 213.277101 
L 242.380417 212.987926 
L 242.291666 212.859305 
L 242.262033 212.953331 
L 242.232374 213.047357 
L 242.202691 212.792777 
L 242.083707 212.005085 
L 242.053898 212.060082 
L 241.994205 212.142576 
L 241.93441 212.08758 
L 241.784479 211.110949 
L 241.754416 211.157962 
L 241.724327 211.204975 
L 241.694212 211.170381 
L 241.573497 211.008939 
L 241.512984 211.203201 
L 241.482688 211.079902 
L 241.361245 210.643479 
L 241.330818 210.679847 
L 241.20885 210.85903 
L 240.778605 212.941799 
L 240.71671 212.84866 
L 240.561497 212.053872 
L 240.436832 211.699056 
L 240.217602 213.116546 
L 240.028599 214.009796 
L 239.838578 214.602338 
L 239.647526 215.679205 
L 239.583612 215.618886 
L 239.551611 215.709364 
L 239.455434 216.161755 
L 239.423316 216.048214 
L 239.197671 214.128659 
L 239.132934 214.307841 
L 239.035606 215.12924 
L 238.970571 215.12037 
L 238.610719 211.578419 
L 238.577822 211.577532 
L 238.412876 212.132819 
L 238.379794 212.119513 
L 238.247154 211.610352 
L 238.147346 211.184573 
L 238.114014 211.223603 
L 238.08065 211.262633 
L 238.047254 211.158849 
L 237.913355 210.96991 
L 237.846214 211.03555 
L 237.812596 210.988537 
L 237.610209 210.743714 
L 237.542488 210.681622 
L 237.440661 210.548566 
L 237.406654 210.579612 
L 237.270294 210.700249 
L 236.754195 208.932379 
L 236.545621 206.986213 
L 236.230427 204.687005 
L 236.124733 208.427209 
L 235.769757 207.103746 
L 235.41117 206.739172 
L 235.048897 204.585439 
L 234.682862 204.737123 
L 234.312986 205.112341 
L 233.939188 206.25751 
L 233.561383 204.432868 
L 233.179485 205.827295 
L 232.793404 205.311038 
L 232.403047 206.167031 
L 232.008319 203.506798 
L 231.609121 201.919884 
L 231.20535 201.41161 
L 230.7969 202.705801 
L 230.383661 203.58131 
L 229.965521 203.820811 
L 229.54236 201.538457 
L 229.114058 202.31373 
L 228.241518 201.519829 
L 227.797012 197.516617 
L 227.346829 196.270326 
L 226.890823 195.58287 
L 226.428839 197.843048 
L 225.960721 197.034068 
L 225.486301 198.166818 
L 225.005409 197.538793 
L 224.517866 198.243103 
L 224.023485 197.442993 
L 223.522071 198.162382 
L 223.013421 196.747554 
L 222.497323 196.32621 
L 221.973557 193.908139 
L 221.441891 194.360529 
L 220.353878 192.552742 
L 219.797013 190.847851 
L 219.23121 188.695892 
L 218.656176 187.270418 
L 217.477176 190.127574 
L 216.872551 190.852286 
L 216.257373 189.507533 
L 215.631268 187.47976 
L 214.99384 186.438375 
L 214.344673 184.737919 
L 213.683325 184.332542 
L 213.009332 182.34912 
L 211.621405 184.680262 
L 211.549916 186.314189 
L 211.478281 185.708341 
L 211.4065 185.815673 
L 211.334573 185.573511 
L 211.117907 181.520625 
L 210.8999 183.642425 
L 210.680537 180.240626 
L 210.607112 180.965338 
L 210.311871 184.595106 
L 210.088806 183.056978 
L 209.939308 182.655149 
L 209.713866 186.73642 
L 209.562765 183.216646 
L 209.486972 183.332848 
L 209.411015 183.906763 
L 209.334894 183.684116 
L 209.258608 181.595136 
L 209.182157 181.957049 
L 209.028755 183.533319 
L 208.951803 181.146294 
L 208.874683 181.84883 
L 208.797393 180.402955 
L 208.719934 180.602539 
L 208.642304 180.87486 
L 208.48653 184.418585 
L 208.330064 182.848524 
L 208.25157 183.622023 
L 208.094055 185.54069 
L 207.935834 183.079154 
L 207.856456 183.323977 
L 207.776898 183.587428 
L 207.537144 180.834943 
L 207.456862 182.517658 
L 207.376397 181.839072 
L 207.133893 184.03627 
L 206.971292 184.87541 
L 206.561478 178.745964 
L 206.47894 179.452935 
L 206.230161 183.795883 
L 206.146843 184.402618 
L 206.063327 184.332542 
L 205.811587 185.361508 
L 205.558035 178.156082 
L 205.473111 179.082152 
L 205.302647 182.439598 
L 205.217105 181.977451 
L 205.131354 182.280818 
L 205.045395 183.257449 
L 204.872844 186.174037 
L 204.699445 183.105766 
L 204.437736 175.113535 
L 204.262178 177.910372 
L 204.174069 177.931661 
L 203.730194 175.280299 
L 203.461161 181.454984 
L 203.371026 180.226434 
L 203.190059 175.227076 
L 203.099227 175.052329 
L 202.825316 178.202208 
L 202.641519 176.739479 
L 202.456758 175.834699 
L 202.177789 179.902664 
L 202.084306 177.197192 
L 201.990575 177.409195 
L 201.802362 180.770189 
L 201.327384 177.11381 
L 201.231616 177.69216 
L 201.135586 177.510317 
L 201.039295 177.985771 
L 200.942739 177.852715 
L 200.845919 178.616456 
L 200.651476 177.101392 
L 200.553851 176.560297 
L 200.357786 174.081908 
L 200.259343 174.234478 
L 199.762961 177.309846 
L 199.562434 176.546105 
L 199.36076 174.520992 
L 199.157926 177.613214 
L 199.056069 177.486367 
L 198.953917 177.131551 
L 198.645674 174.360438 
L 198.542324 175.050555 
L 198.334711 178.887003 
L 198.230444 177.870455 
L 198.02098 174.559135 
L 197.810264 176.236528 
L 197.598281 172.94827 
L 197.491809 172.524265 
L 197.277896 174.473979 
L 197.170451 174.534298 
L 196.954573 173.5896 
L 196.846136 174.127147 
L 196.628257 176.916887 
L 196.51881 176.933741 
L 196.077592 175.542862 
L 195.854894 176.908017 
L 195.743016 175.573909 
L 195.518188 170.423755 
L 195.405234 170.013942 
L 195.178234 172.398306 
L 194.949762 171.804876 
L 194.604255 168.71709 
L 194.138246 175.344166 
L 194.020774 174.599939 
L 193.784651 171.380871 
L 193.665993 171.515701 
L 193.575262 174.196336 
L 193.523311 174.153758 
L 193.510311 174.12626 
L 193.380049 168.676286 
L 193.30166 169.896853 
L 193.223096 173.816683 
L 193.170623 171.842132 
L 193.091766 168.978766 
L 193.039097 169.761136 
L 193.025917 169.22359 
L 192.986349 170.426416 
L 192.973149 170.426416 
L 192.827629 175.761074 
L 192.907078 170.051198 
L 192.81437 175.062974 
L 192.787837 172.542893 
L 192.694815 173.535491 
L 192.641548 174.420757 
L 192.548138 171.282409 
L 192.49465 170.735106 
L 192.414265 173.049393 
L 192.400849 173.0352 
L 192.252942 167.102677 
L 192.199003 167.228637 
L 192.050245 170.643741 
L 192.03669 170.618016 
L 191.955253 167.956896 
L 191.995995 170.95864 
L 191.941661 169.946527 
L 191.928065 171.936158 
L 191.887244 168.745475 
L 191.832742 169.846292 
L 191.791811 168.545004 
L 191.750832 170.689867 
L 191.613889 176.525703 
L 191.600166 175.698094 
L 191.462636 169.910158 
L 191.448853 170.31731 
L 191.407473 168.843049 
L 191.379859 169.087872 
L 191.31073 173.42195 
L 191.185955 172.675949 
L 191.102526 169.03465 
L 191.046796 170.413997 
L 190.935072 176.130083 
L 190.879077 175.253687 
L 190.851046 174.38084 
L 190.837022 176.2179 
L 190.766819 179.20279 
L 190.738699 176.108794 
L 190.72463 174.21319 
L 190.625992 174.693965 
L 190.541225 173.209947 
L 190.498765 174.044652 
L 190.314178 168.839501 
L 190.285694 167.028166 
L 190.185819 167.115982 
L 190.142928 168.079308 
L 190.12862 168.776521 
L 190.085659 166.801083 
L 190.05699 167.150577 
L 190.028297 164.823871 
L 189.942079 166.668027 
L 189.870069 172.856018 
L 189.812355 170.49117 
L 189.769007 169.459542 
L 189.711127 169.62808 
L 189.653152 171.807537 
L 189.580548 170.644628 
L 189.551465 171.451834 
L 189.522358 169.78686 
L 189.478652 171.222091 
L 189.37646 168.018989 
L 189.347208 168.643465 
L 189.332572 168.207042 
L 189.273971 169.575744 
L 189.038585 174.510348 
L 189.023821 174.030459 
L 188.994274 172.451528 
L 188.9203 173.414854 
L 188.831325 174.234478 
L 188.861008 173.242768 
L 188.816474 173.257847 
L 188.727236 166.892448 
L 188.637772 167.869079 
L 188.503148 170.840663 
L 188.488158 170.013055 
L 188.398084 167.58434 
L 188.368008 168.771199 
L 188.35296 168.762329 
L 188.26254 165.794293 
L 188.20213 166.101209 
L 188.035469 172.206705 
L 188.005082 169.87379 
L 187.928999 167.100016 
L 187.974668 170.960414 
L 187.761038 167.27565 
L 187.623017 171.76762 
L 187.57689 170.465446 
L 187.530702 167.504506 
L 187.438145 167.931172 
L 187.422695 168.890062 
L 187.376305 167.696994 
L 187.345344 168.403965 
L 187.174571 164.247295 
L 187.267822 168.832405 
L 187.159005 164.693476 
L 187.081073 169.024006 
L 187.002967 174.378179 
L 186.940358 173.673869 
L 186.924689 173.704029 
L 186.909012 173.673869 
L 186.86194 176.932854 
L 186.814805 173.227688 
L 186.767608 172.17211 
L 186.736107 173.635726 
L 186.657233 175.7593 
L 186.594006 175.297152 
L 186.403643 165.596483 
L 186.371815 166.213863 
L 186.339959 165.211508 
L 186.29212 166.871159 
L 186.27616 166.871159 
L 186.164233 167.745781 
L 186.148214 167.613612 
L 186.05195 166.362886 
L 186.03588 167.26057 
L 186.019803 168.158254 
L 185.971528 165.021681 
L 185.907058 163.206797 
L 185.890922 164.506311 
L 185.729155 170.10442 
L 185.615475 167.845129 
L 185.599205 167.954235 
L 185.55035 168.309938 
L 185.501427 170.648176 
L 185.452436 167.426446 
L 185.403377 164.888625 
L 185.32146 165.607127 
L 185.206455 171.266443 
L 185.14057 169.0586 
L 185.024972 167.784811 
L 185.07456 169.974025 
L 185.008427 167.897465 
L 184.958746 165.973475 
L 184.892395 167.048567 
L 184.84255 170.247234 
L 184.792634 167.795455 
L 184.775979 167.484991 
L 184.725969 168.310825 
L 184.692589 169.316729 
L 184.642461 167.26057 
L 184.525215 164.784841 
L 184.508434 165.494473 
L 184.458043 167.27565 
L 184.390741 166.709718 
L 184.373896 166.415221 
L 184.340181 167.559502 
L 184.306434 168.325018 
L 184.255753 167.355483 
L 184.238843 167.52136 
L 184.221925 167.687236 
L 184.10327 170.636644 
L 184.086286 169.602356 
L 184.069295 168.568067 
L 184.018271 171.337406 
L 183.984214 170.108855 
L 183.967173 170.837115 
L 183.916001 168.332114 
L 183.881845 169.593485 
L 183.847656 167.011312 
L 183.830549 165.781874 
L 183.74489 167.10179 
L 183.727733 167.667721 
L 183.676212 166.362886 
L 183.641823 166.126046 
L 183.624616 166.155318 
L 183.572944 168.337437 
L 183.538453 166.275956 
L 183.503929 165.243441 
L 183.45208 167.747555 
L 183.417471 169.133111 
L 183.382829 166.910189 
L 183.226514 161.519647 
L 183.330801 167.462815 
L 183.139372 162.364109 
L 182.946898 169.996201 
L 182.894222 168.227444 
L 182.823865 165.2257 
L 182.771005 166.061292 
L 182.718065 169.774441 
L 182.629655 167.970202 
L 182.594229 166.711492 
L 182.541023 168.751684 
L 182.52327 168.752571 
L 182.487737 169.185447 
L 182.469957 168.359613 
L 182.363088 165.843967 
L 182.345245 166.775359 
L 182.273782 165.788971 
L 182.166316 171.45893 
L 181.896208 164.972894 
L 181.841937 165.49536 
L 181.823828 165.130787 
L 181.642226 161.014034 
L 181.569323 161.985343 
L 181.441377 164.212701 
L 181.404736 163.609513 
L 181.184085 159.413814 
L 181.165635 159.450183 
L 181.036213 163.02318 
L 181.017685 163.010761 
L 180.999148 162.537969 
L 180.962043 163.156236 
L 180.850496 168.661206 
L 180.775935 168.233653 
L 180.75727 167.757312 
L 180.71991 169.436479 
L 180.701215 170.514233 
L 180.626337 169.943866 
L 180.570074 166.860515 
L 180.494916 167.335968 
L 180.476102 167.314679 
L 180.457277 167.699655 
L 180.400743 167.111547 
L 180.363003 167.422011 
L 180.325223 167.113321 
L 180.268477 169.472848 
L 180.211639 168.435011 
L 180.059622 166.105644 
L 179.945177 168.781844 
L 179.906946 167.98883 
L 179.868674 168.89095 
L 179.849522 168.155593 
L 179.734392 163.654752 
L 179.715167 164.230441 
L 179.618885 166.648512 
L 179.599597 166.181929 
L 179.483646 161.640285 
L 179.464284 163.179831 
L 179.444911 165.084838 
L 177.62102 165.022391 
L 177.435009 164.750956 
L 177.248012 163.950846 
L 177.060017 165.46325 
L 176.871014 164.3784 
L 176.680993 164.760714 
L 176.297848 166.361821 
L 176.104703 168.403787 
L 175.910494 168.315083 
L 175.715208 168.090662 
L 175.518835 164.382835 
L 175.321362 163.984554 
L 175.122776 163.20662 
L 174.923065 165.087145 
L 174.520215 162.916558 
L 174.317051 162.870432 
L 173.907175 165.398496 
L 173.492477 164.020035 
L 173.283284 163.370722 
L 173.072842 163.723764 
L 172.861136 165.144802 
L 172.648151 164.706604 
L 172.433872 165.507602 
L 172.218281 164.871594 
L 172.001364 166.35029 
L 171.783104 165.224636 
L 171.342487 161.081272 
L 171.120095 161.019179 
L 170.896292 160.804515 
L 170.444376 164.488393 
L 170.216227 165.522681 
L 169.986592 163.715781 
L 169.75545 164.515004 
L 169.288571 164.562904 
L 169.052791 162.10669 
L 168.815424 162.079192 
L 168.093577 161.399719 
L 167.849639 160.761938 
L 167.604001 161.362464 
L 167.356639 161.614383 
L 167.107529 163.470071 
L 166.856646 163.273148 
L 166.603965 163.444346 
L 166.349459 162.475699 
L 166.093102 163.02389 
L 165.834867 163.259842 
L 165.574726 164.464442 
L 165.312651 162.385221 
L 165.048613 162.583031 
L 164.782582 161.728811 
L 164.514528 162.399413 
L 164.24442 161.32166 
L 163.972227 161.93283 
L 163.697915 161.022727 
L 163.421451 162.671735 
L 163.142802 163.619093 
L 162.861933 165.318662 
L 162.293389 162.686814 
L 162.005642 162.030405 
L 161.715525 162.094272 
L 161.423001 160.920718 
L 161.12803 160.312208 
L 160.530576 161.573579 
L 160.228008 161.803322 
L 159.922821 160.577433 
L 159.614968 160.87193 
L 159.304403 160.891445 
L 158.674941 163.54813 
L 158.355944 164.409446 
L 158.034034 164.837886 
L 157.709157 163.615545 
L 157.381258 164.072371 
L 157.05028 161.714618 
L 156.716164 160.87814 
L 156.378851 161.191265 
L 156.038279 163.156058 
L 155.694385 164.124706 
L 155.347102 163.588934 
L 154.996364 161.523018 
L 154.6421 160.415992 
L 154.28424 160.448812 
L 153.922709 161.991375 
L 153.557432 164.169058 
L 153.18833 163.03276 
L 152.815323 163.062919 
L 152.438325 161.382866 
L 151.672014 162.152816 
L 151.282519 162.365706 
L 150.888673 162.292969 
L 150.490375 162.639801 
L 150.087526 163.35653 
L 149.68002 163.721103 
L 149.267747 162.45441 
L 148.428447 161.41746 
L 148.001182 159.782645 
L 147.130795 161.822837 
L 146.687406 164.041324 
L 146.238369 161.560274 
L 145.783538 163.547243 
L 145.322761 164.765149 
L 144.855881 167.07234 
L 144.382734 164.679993 
L 143.90315 164.834338 
L 143.41695 164.231151 
L 142.92395 164.501698 
L 142.423957 162.46949 
L 141.91677 163.676751 
L 141.402178 163.565871 
L 140.879962 165.434864 
L 140.349893 163.042517 
L 139.811731 161.853884 
L 139.265226 161.413025 
L 138.710113 163.258955 
L 138.146118 164.195669 
L 137.572952 163.003488 
L 136.990312 162.998165 
L 136.39788 163.941976 
L 135.182279 163.668768 
L 134.558388 163.427493 
L 133.923255 162.899704 
L 133.276468 161.540759 
L 132.617591 161.088368 
L 131.261696 163.244762 
L 130.563675 163.888754 
L 129.851551 165.892577 
L 129.124743 166.191509 
L 128.382633 167.632062 
L 127.624563 166.94638 
L 126.84983 167.385465 
L 126.057686 166.501086 
L 125.247331 165.883706 
L 124.417906 165.513811 
L 123.568493 164.714588 
L 122.698105 165.333742 
L 121.80568 165.762182 
L 120.890072 167.324259 
L 119.950045 167.573518 
L 117.991268 167.090081 
L 116.969489 167.854709 
L 115.917204 169.572906 
L 114.832536 168.883676 
L 113.713429 169.466461 
L 112.557623 168.496926 
L 111.36263 168.825131 
L 110.125699 167.556664 
L 108.843779 167.817454 
L 107.513473 168.348791 
L 106.130985 168.527973 
L 104.692054 169.215429 
L 103.191874 170.063439 
L 101.624997 170.331325 
L 99.985217 169.517909 
L 98.265416 168.062277 
L 97.732677 165.792341 
L 97.553293 165.689445 
L 97.372991 166.228765 
L 97.009597 168.458784 
L 96.826485 168.52886 
L 96.457383 167.067018 
L 96.271373 167.041294 
L 95.707378 165.240602 
L 95.326305 166.238522 
L 95.134212 166.618176 
L 94.941067 166.73083 
L 94.551572 167.369498 
L 93.959139 171.095954 
L 93.558579 168.739088 
L 93.356579 167.514973 
L 92.949072 168.057842 
L 92.743539 168.39403 
L 92.5368 167.917689 
L 92.328841 168.152755 
L 91.909206 167.553116 
L 91.6975 167.59392 
L 91.270235 169.228734 
L 91.054645 168.936898 
L 90.619467 170.575261 
L 90.399847 172.45756 
L 90.17885 171.873001 
L 89.956459 171.920901 
L 89.732655 170.909675 
L 89.28074 171.314165 
L 89.052591 171.935093 
L 88.822955 171.965253 
L 88.124934 170.951366 
L 87.412811 169.551617 
L 86.929941 172.427401 
L 86.686003 174.016089 
L 86.440365 174.632582 
L 86.193003 174.15979 
L 85.69301 171.499557 
L 85.440329 170.660417 
L 85.185823 170.939834 
L 84.929466 170.472364 
L 84.671231 170.377451 
L 83.884977 169.690882 
L 83.618946 169.587098 
L 83.080784 168.524425 
L 82.80859 168.800294 
L 82.534278 170.286086 
L 82.257815 170.996605 
L 81.979166 169.996911 
L 81.698296 168.066712 
L 81.129753 167.396997 
L 80.842005 167.708348 
L 80.551889 168.410883 
L 80.259365 169.768055 
L 79.964393 170.297618 
L 79.666932 169.508152 
L 79.36694 168.216622 
L 79.064372 168.786988 
L 78.759185 168.905852 
L 78.451332 169.713945 
L 78.140767 169.549843 
L 77.511305 169.758297 
L 76.999515 169.629676 
L 76.773249 168.376289 
L 76.708334 168.376289 
L 76.545521 170.720736 
L 76.512868 170.561955 
L 76.349147 170.244395 
L 76.184663 170.165449 
L 76.052521 170.007555 
L 75.853374 167.504329 
L 75.552528 166.713089 
L 75.282936 168.014377 
L 75.249092 168.014377 
L 74.874643 170.106017 
L 74.668709 170.024409 
L 74.530748 169.766281 
L 74.392246 169.331631 
L 74.218348 169.815955 
L 74.07861 169.555165 
L 73.867959 169.988928 
L 73.832727 169.988928 
L 73.832727 169.988928 
" clip-path="url(#p16b8c329ef)" style="fill: none; stroke: #ff0000; stroke-width: 1.5; stroke-linecap: square"/>
   </g>
   <g id="patch_3">
    <path d="M 57.6 307.584 
L 57.6 41.472 
" style="fill: none; stroke: #000000; stroke-width: 0.8; stroke-linejoin: miter; stroke-linecap: square"/>
   </g>
   <g id="patch_4">
    <path d="M 414.72 307.584 
L 414.72 41.472 
" style="fill: none; stroke: #000000; stroke-width: 0.8; stroke-linejoin: miter; stroke-linecap: square"/>
   </g>
   <g id="patch_5">
    <path d="M 57.6 307.584 
L 414.72 307.584 
" style="fill: none; stroke: #000000; stroke-width: 0.8; stroke-linejoin: miter; stroke-linecap: square"/>
   </g>
   <g id="patch_6">
    <path d="M 57.6 41.472 
L 414.72 41.472 
" style="fill: none; stroke: #000000; stroke-width: 0.8; stroke-linejoin: miter; stroke-linecap: square"/>
   </g>
   <g id="text_14">
    <!-- MAX2870 PLL2 Xtal -->
    <g transform="translate(177.7575 35.472)scale(0.12 -0.12)">
     <defs>
      <path id="DejaVuSans-4d" d="M 628 4666 
L 1569 4666 
L 2759 1491 
L 3956 4666 
L 4897 4666 
L 4897 0 
L 4281 0 
L 4281 4097 
L 3078 897 
L 2444 897 
L 1241 4097 
L 1241 0 
L 628 0 
L 628 4666 
z
" transform="scale(0.015625)"/>
      <path id="DejaVuSans-41" d="M 2188 4044 
L 1331 1722 
L 3047 1722 
L 2188 4044 
z
M 1831 4666 
L 2547 4666 
L 4325 0 
L 3669 0 
L 3244 1197 
L 1141 1197 
L 716 0 
L 50 0 
L 1831 4666 
z
" transform="scale(0.015625)"/>
      <path id="DejaVuSans-58" d="M 403 4666 
L 1081 4666 
L 2241 2931 
L 3406 4666 
L 4084 4666 
L 2584 2425 
L 4184 0 
L 3506 0 
L 2194 1984 
L 872 0 
L 191 0 
L 1856 2491 
L 403 4666 
z
" transform="scale(0.015625)"/>
      <path id="DejaVuSans-4c" d="M 628 4666 
L 1259 4666 
L 1259 531 
L 3531 531 
L 3531 0 
L 628 0 
L 628 4666 
z
" transform="scale(0.015625)"/>
      <path id="DejaVuSans-74" d="M 1172 4494 
L 1172 3500 
L 2356 3500 
L 2356 3053 
L 1172 3053 
L 1172 1153 
Q 1172 725 1289 603 
Q 1406 481 1766 481 
L 2356 481 
L 2356 0 
L 1766 0 
Q 1100 0 847 248 
Q 594 497 594 1153 
L 594 3053 
L 172 3053 
L 172 3500 
L 594 3500 
L 594 4494 
L 1172 4494 
z
" transform="scale(0.015625)"/>
      <path id="DejaVuSans-6c" d="M 603 4863 
L 1178 4863 
L 1178 0 
L 603 0 
L 603 4863 
z
" transform="scale(0.015625)"/>
     </defs>
     <use xlink:href="#DejaVuSans-4d"/>
     <use xlink:href="#DejaVuSans-41" x="86.279297"/>
     <use xlink:href="#DejaVuSans-58" x="154.6875"/>
     <use xlink:href="#DejaVuSans-32" x="223.193359"/>
     <use xlink:href="#DejaVuSans-38" x="286.816406"/>
     <use xlink:href="#DejaVuSans-37" x="350.439453"/>
     <use xlink:href="#DejaVuSans-30" x="414.0625"/>
     <use xlink:href="#DejaVuSans-20" x="477.685547"/>
     <use xlink:href="#DejaVuSans-50" x="509.472656"/>
     <use xlink:href="#DejaVuSans-4c" x="569.775391"/>
     <use xlink:href="#DejaVuSans-4c" x="625.488281"/>
     <use xlink:href="#DejaVuSans-32" x="681.201172"/>
     <use xlink:href="#DejaVuSans-20" x="744.824219"/>
     <use xlink:href="#DejaVuSans-58" x="776.611328"/>
     <use xlink:href="#DejaVuSans-74" x="845.117188"/>
     <use xlink:href="#DejaVuSans-61" x="884.326172"/>
     <use xlink:href="#DejaVuSans-6c" x="945.605469"/>
    </g>
   </g>
   <g id="legend_1">
    <g id="patch_7">
     <path d="M 325.695 64.150125 
L 407.72 64.150125 
Q 409.72 64.150125 409.72 62.150125 
L 409.72 48.472 
Q 409.72 46.472 407.72 46.472 
L 325.695 46.472 
Q 323.695 46.472 323.695 48.472 
L 323.695 62.150125 
Q 323.695 64.150125 325.695 64.150125 
z
" style="fill: #ffffff; opacity: 0.8; stroke: #cccccc; stroke-linejoin: miter"/>
    </g>
    <g id="line2d_48">
     <path d="M 327.695 54.570438 
L 337.695 54.570438 
L 347.695 54.570438 
" style="fill: none; stroke: #ff0000; stroke-width: 1.5; stroke-linecap: square"/>
    </g>
    <g id="text_15">
     <!-- 4230 MHz -->
     <g transform="translate(355.695 58.070438)scale(0.1 -0.1)">
      <use xlink:href="#DejaVuSans-34"/>
      <use xlink:href="#DejaVuSans-32" x="63.623047"/>
      <use xlink:href="#DejaVuSans-33" x="127.246094"/>
      <use xlink:href="#DejaVuSans-30" x="190.869141"/>
      <use xlink:href="#DejaVuSans-20" x="254.492188"/>
      <use xlink:href="#DejaVuSans-4d" x="286.279297"/>
      <use xlink:href="#DejaVuSans-48" x="372.558594"/>
      <use xlink:href="#DejaVuSans-7a" x="447.753906"/>
     </g>
    </g>
   </g>
  </g>
 </g>
 <defs>
  <clipPath id="p16b8c329ef">
   <rect x="57.6" y="41.472" width="357.12" height="266.112"/>
  </clipPath>
 </defs>
</svg>
