<?xml version="1.0" encoding="utf-8" standalone="no"?>
<!DOCTYPE svg PUBLIC "-//W3C//DTD SVG 1.1//EN"
  "http://www.w3.org/Graphics/SVG/1.1/DTD/svg11.dtd">
<svg xmlns:xlink="http://www.w3.org/1999/xlink" width="460.8pt" height="345.6pt" viewBox="0 0 460.8 345.6" xmlns="http://www.w3.org/2000/svg" version="1.1">
 <metadata>
  <rdf:RDF xmlns:dc="http://purl.org/dc/elements/1.1/" xmlns:cc="http://creativecommons.org/ns#" xmlns:rdf="http://www.w3.org/1999/02/22-rdf-syntax-ns#">
   <cc:Work>
    <dc:type rdf:resource="http://purl.org/dc/dcmitype/StillImage"/>
    <dc:date>2022-10-14T15:03:12.653687</dc:date>
    <dc:format>image/svg+xml</dc:format>
    <dc:creator>
     <cc:Agent>
      <dc:title>Matplotlib v3.5.1, https://matplotlib.org/</dc:title>
     </cc:Agent>
    </dc:creator>
   </cc:Work>
  </rdf:RDF>
 </metadata>
 <defs>
  <style type="text/css">*{stroke-linejoin: round; stroke-linecap: butt}</style>
 </defs>
 <g id="figure_1">
  <g id="patch_1">
   <path d="M 0 345.6 
L 460.8 345.6 
L 460.8 0 
L 0 0 
z
" style="fill: #ffffff"/>
  </g>
  <g id="axes_1">
   <g id="patch_2">
    <path d="M 57.6 307.584 
L 414.72 307.584 
L 414.72 41.472 
L 57.6 41.472 
z
" style="fill: #ffffff"/>
   </g>
   <g id="matplotlib.axis_1">
    <g id="xtick_1">
     <g id="line2d_1">
      <defs>
       <path id="m1747b7a716" d="M 0 0 
L 0 3.5 
" style="stroke: #000000; stroke-width: 0.8"/>
      </defs>
      <g>
       <use xlink:href="#m1747b7a716" x="73.832727" y="307.584" style="stroke: #000000; stroke-width: 0.8"/>
      </g>
     </g>
     <g id="text_1">
      <!-- $\mathdefault{10^{3}}$ -->
      <g transform="translate(65.032727 322.182437)scale(0.1 -0.1)">
       <defs>
        <path id="DejaVuSans-31" d="M 794 531 
L 1825 531 
L 1825 4091 
L 703 3866 
L 703 4441 
L 1819 4666 
L 2450 4666 
L 2450 531 
L 3481 531 
L 3481 0 
L 794 0 
L 794 531 
z
" transform="scale(0.015625)"/>
        <path id="DejaVuSans-30" d="M 2034 4250 
Q 1547 4250 1301 3770 
Q 1056 3291 1056 2328 
Q 1056 1369 1301 889 
Q 1547 409 2034 409 
Q 2525 409 2770 889 
Q 3016 1369 3016 2328 
Q 3016 3291 2770 3770 
Q 2525 4250 2034 4250 
z
M 2034 4750 
Q 2819 4750 3233 4129 
Q 3647 3509 3647 2328 
Q 3647 1150 3233 529 
Q 2819 -91 2034 -91 
Q 1250 -91 836 529 
Q 422 1150 422 2328 
Q 422 3509 836 4129 
Q 1250 4750 2034 4750 
z
" transform="scale(0.015625)"/>
        <path id="DejaVuSans-33" d="M 2597 2516 
Q 3050 2419 3304 2112 
Q 3559 1806 3559 1356 
Q 3559 666 3084 287 
Q 2609 -91 1734 -91 
Q 1441 -91 1130 -33 
Q 819 25 488 141 
L 488 750 
Q 750 597 1062 519 
Q 1375 441 1716 441 
Q 2309 441 2620 675 
Q 2931 909 2931 1356 
Q 2931 1769 2642 2001 
Q 2353 2234 1838 2234 
L 1294 2234 
L 1294 2753 
L 1863 2753 
Q 2328 2753 2575 2939 
Q 2822 3125 2822 3475 
Q 2822 3834 2567 4026 
Q 2313 4219 1838 4219 
Q 1578 4219 1281 4162 
Q 984 4106 628 3988 
L 628 4550 
Q 988 4650 1302 4700 
Q 1616 4750 1894 4750 
Q 2613 4750 3031 4423 
Q 3450 4097 3450 3541 
Q 3450 3153 3228 2886 
Q 3006 2619 2597 2516 
z
" transform="scale(0.015625)"/>
       </defs>
       <use xlink:href="#DejaVuSans-31" transform="translate(0 0.765625)"/>
       <use xlink:href="#DejaVuSans-30" transform="translate(63.623047 0.765625)"/>
       <use xlink:href="#DejaVuSans-33" transform="translate(128.203125 39.046875)scale(0.7)"/>
      </g>
     </g>
    </g>
    <g id="xtick_2">
     <g id="line2d_2">
      <g>
       <use xlink:href="#m1747b7a716" x="154.996364" y="307.584" style="stroke: #000000; stroke-width: 0.8"/>
      </g>
     </g>
     <g id="text_2">
      <!-- $\mathdefault{10^{4}}$ -->
      <g transform="translate(146.196364 322.182437)scale(0.1 -0.1)">
       <defs>
        <path id="DejaVuSans-34" d="M 2419 4116 
L 825 1625 
L 2419 1625 
L 2419 4116 
z
M 2253 4666 
L 3047 4666 
L 3047 1625 
L 3713 1625 
L 3713 1100 
L 3047 1100 
L 3047 0 
L 2419 0 
L 2419 1100 
L 313 1100 
L 313 1709 
L 2253 4666 
z
" transform="scale(0.015625)"/>
       </defs>
       <use xlink:href="#DejaVuSans-31" transform="translate(0 0.684375)"/>
       <use xlink:href="#DejaVuSans-30" transform="translate(63.623047 0.684375)"/>
       <use xlink:href="#DejaVuSans-34" transform="translate(128.203125 38.965625)scale(0.7)"/>
      </g>
     </g>
    </g>
    <g id="xtick_3">
     <g id="line2d_3">
      <g>
       <use xlink:href="#m1747b7a716" x="236.16" y="307.584" style="stroke: #000000; stroke-width: 0.8"/>
      </g>
     </g>
     <g id="text_3">
      <!-- $\mathdefault{10^{5}}$ -->
      <g transform="translate(227.36 322.182437)scale(0.1 -0.1)">
       <defs>
        <path id="DejaVuSans-35" d="M 691 4666 
L 3169 4666 
L 3169 4134 
L 1269 4134 
L 1269 2991 
Q 1406 3038 1543 3061 
Q 1681 3084 1819 3084 
Q 2600 3084 3056 2656 
Q 3513 2228 3513 1497 
Q 3513 744 3044 326 
Q 2575 -91 1722 -91 
Q 1428 -91 1123 -41 
Q 819 9 494 109 
L 494 744 
Q 775 591 1075 516 
Q 1375 441 1709 441 
Q 2250 441 2565 725 
Q 2881 1009 2881 1497 
Q 2881 1984 2565 2268 
Q 2250 2553 1709 2553 
Q 1456 2553 1204 2497 
Q 953 2441 691 2322 
L 691 4666 
z
" transform="scale(0.015625)"/>
       </defs>
       <use xlink:href="#DejaVuSans-31" transform="translate(0 0.684375)"/>
       <use xlink:href="#DejaVuSans-30" transform="translate(63.623047 0.684375)"/>
       <use xlink:href="#DejaVuSans-35" transform="translate(128.203125 38.965625)scale(0.7)"/>
      </g>
     </g>
    </g>
    <g id="xtick_4">
     <g id="line2d_4">
      <g>
       <use xlink:href="#m1747b7a716" x="317.323636" y="307.584" style="stroke: #000000; stroke-width: 0.8"/>
      </g>
     </g>
     <g id="text_4">
      <!-- $\mathdefault{10^{6}}$ -->
      <g transform="translate(308.523636 322.182437)scale(0.1 -0.1)">
       <defs>
        <path id="DejaVuSans-36" d="M 2113 2584 
Q 1688 2584 1439 2293 
Q 1191 2003 1191 1497 
Q 1191 994 1439 701 
Q 1688 409 2113 409 
Q 2538 409 2786 701 
Q 3034 994 3034 1497 
Q 3034 2003 2786 2293 
Q 2538 2584 2113 2584 
z
M 3366 4563 
L 3366 3988 
Q 3128 4100 2886 4159 
Q 2644 4219 2406 4219 
Q 1781 4219 1451 3797 
Q 1122 3375 1075 2522 
Q 1259 2794 1537 2939 
Q 1816 3084 2150 3084 
Q 2853 3084 3261 2657 
Q 3669 2231 3669 1497 
Q 3669 778 3244 343 
Q 2819 -91 2113 -91 
Q 1303 -91 875 529 
Q 447 1150 447 2328 
Q 447 3434 972 4092 
Q 1497 4750 2381 4750 
Q 2619 4750 2861 4703 
Q 3103 4656 3366 4563 
z
" transform="scale(0.015625)"/>
       </defs>
       <use xlink:href="#DejaVuSans-31" transform="translate(0 0.765625)"/>
       <use xlink:href="#DejaVuSans-30" transform="translate(63.623047 0.765625)"/>
       <use xlink:href="#DejaVuSans-36" transform="translate(128.203125 39.046875)scale(0.7)"/>
      </g>
     </g>
    </g>
    <g id="xtick_5">
     <g id="line2d_5">
      <g>
       <use xlink:href="#m1747b7a716" x="398.487273" y="307.584" style="stroke: #000000; stroke-width: 0.8"/>
      </g>
     </g>
     <g id="text_5">
      <!-- $\mathdefault{10^{7}}$ -->
      <g transform="translate(389.687273 322.182437)scale(0.1 -0.1)">
       <defs>
        <path id="DejaVuSans-37" d="M 525 4666 
L 3525 4666 
L 3525 4397 
L 1831 0 
L 1172 0 
L 2766 4134 
L 525 4134 
L 525 4666 
z
" transform="scale(0.015625)"/>
       </defs>
       <use xlink:href="#DejaVuSans-31" transform="translate(0 0.684375)"/>
       <use xlink:href="#DejaVuSans-30" transform="translate(63.623047 0.684375)"/>
       <use xlink:href="#DejaVuSans-37" transform="translate(128.203125 38.965625)scale(0.7)"/>
      </g>
     </g>
    </g>
    <g id="xtick_6">
     <g id="line2d_6">
      <defs>
       <path id="m511baeae6e" d="M 0 0 
L 0 2 
" style="stroke: #000000; stroke-width: 0.6"/>
      </defs>
      <g>
       <use xlink:href="#m511baeae6e" x="61.260321" y="307.584" style="stroke: #000000; stroke-width: 0.6"/>
      </g>
     </g>
    </g>
    <g id="xtick_7">
     <g id="line2d_7">
      <g>
       <use xlink:href="#m511baeae6e" x="65.967158" y="307.584" style="stroke: #000000; stroke-width: 0.6"/>
      </g>
     </g>
    </g>
    <g id="xtick_8">
     <g id="line2d_8">
      <g>
       <use xlink:href="#m511baeae6e" x="70.118883" y="307.584" style="stroke: #000000; stroke-width: 0.6"/>
      </g>
     </g>
    </g>
    <g id="xtick_9">
     <g id="line2d_9">
      <g>
       <use xlink:href="#m511baeae6e" x="98.265416" y="307.584" style="stroke: #000000; stroke-width: 0.6"/>
      </g>
     </g>
    </g>
    <g id="xtick_10">
     <g id="line2d_10">
      <g>
       <use xlink:href="#m511baeae6e" x="112.557623" y="307.584" style="stroke: #000000; stroke-width: 0.6"/>
      </g>
     </g>
    </g>
    <g id="xtick_11">
     <g id="line2d_11">
      <g>
       <use xlink:href="#m511baeae6e" x="122.698105" y="307.584" style="stroke: #000000; stroke-width: 0.6"/>
      </g>
     </g>
    </g>
    <g id="xtick_12">
     <g id="line2d_12">
      <g>
       <use xlink:href="#m511baeae6e" x="130.563675" y="307.584" style="stroke: #000000; stroke-width: 0.6"/>
      </g>
     </g>
    </g>
    <g id="xtick_13">
     <g id="line2d_13">
      <g>
       <use xlink:href="#m511baeae6e" x="136.990312" y="307.584" style="stroke: #000000; stroke-width: 0.6"/>
      </g>
     </g>
    </g>
    <g id="xtick_14">
     <g id="line2d_14">
      <g>
       <use xlink:href="#m511baeae6e" x="142.423957" y="307.584" style="stroke: #000000; stroke-width: 0.6"/>
      </g>
     </g>
    </g>
    <g id="xtick_15">
     <g id="line2d_15">
      <g>
       <use xlink:href="#m511baeae6e" x="147.130795" y="307.584" style="stroke: #000000; stroke-width: 0.6"/>
      </g>
     </g>
    </g>
    <g id="xtick_16">
     <g id="line2d_16">
      <g>
       <use xlink:href="#m511baeae6e" x="151.282519" y="307.584" style="stroke: #000000; stroke-width: 0.6"/>
      </g>
     </g>
    </g>
    <g id="xtick_17">
     <g id="line2d_17">
      <g>
       <use xlink:href="#m511baeae6e" x="179.429053" y="307.584" style="stroke: #000000; stroke-width: 0.6"/>
      </g>
     </g>
    </g>
    <g id="xtick_18">
     <g id="line2d_18">
      <g>
       <use xlink:href="#m511baeae6e" x="193.72126" y="307.584" style="stroke: #000000; stroke-width: 0.6"/>
      </g>
     </g>
    </g>
    <g id="xtick_19">
     <g id="line2d_19">
      <g>
       <use xlink:href="#m511baeae6e" x="203.861742" y="307.584" style="stroke: #000000; stroke-width: 0.6"/>
      </g>
     </g>
    </g>
    <g id="xtick_20">
     <g id="line2d_20">
      <g>
       <use xlink:href="#m511baeae6e" x="211.727311" y="307.584" style="stroke: #000000; stroke-width: 0.6"/>
      </g>
     </g>
    </g>
    <g id="xtick_21">
     <g id="line2d_21">
      <g>
       <use xlink:href="#m511baeae6e" x="218.153949" y="307.584" style="stroke: #000000; stroke-width: 0.6"/>
      </g>
     </g>
    </g>
    <g id="xtick_22">
     <g id="line2d_22">
      <g>
       <use xlink:href="#m511baeae6e" x="223.587594" y="307.584" style="stroke: #000000; stroke-width: 0.6"/>
      </g>
     </g>
    </g>
    <g id="xtick_23">
     <g id="line2d_23">
      <g>
       <use xlink:href="#m511baeae6e" x="228.294431" y="307.584" style="stroke: #000000; stroke-width: 0.6"/>
      </g>
     </g>
    </g>
    <g id="xtick_24">
     <g id="line2d_24">
      <g>
       <use xlink:href="#m511baeae6e" x="232.446156" y="307.584" style="stroke: #000000; stroke-width: 0.6"/>
      </g>
     </g>
    </g>
    <g id="xtick_25">
     <g id="line2d_25">
      <g>
       <use xlink:href="#m511baeae6e" x="260.592689" y="307.584" style="stroke: #000000; stroke-width: 0.6"/>
      </g>
     </g>
    </g>
    <g id="xtick_26">
     <g id="line2d_26">
      <g>
       <use xlink:href="#m511baeae6e" x="274.884896" y="307.584" style="stroke: #000000; stroke-width: 0.6"/>
      </g>
     </g>
    </g>
    <g id="xtick_27">
     <g id="line2d_27">
      <g>
       <use xlink:href="#m511baeae6e" x="285.025378" y="307.584" style="stroke: #000000; stroke-width: 0.6"/>
      </g>
     </g>
    </g>
    <g id="xtick_28">
     <g id="line2d_28">
      <g>
       <use xlink:href="#m511baeae6e" x="292.890947" y="307.584" style="stroke: #000000; stroke-width: 0.6"/>
      </g>
     </g>
    </g>
    <g id="xtick_29">
     <g id="line2d_29">
      <g>
       <use xlink:href="#m511baeae6e" x="299.317585" y="307.584" style="stroke: #000000; stroke-width: 0.6"/>
      </g>
     </g>
    </g>
    <g id="xtick_30">
     <g id="line2d_30">
      <g>
       <use xlink:href="#m511baeae6e" x="304.75123" y="307.584" style="stroke: #000000; stroke-width: 0.6"/>
      </g>
     </g>
    </g>
    <g id="xtick_31">
     <g id="line2d_31">
      <g>
       <use xlink:href="#m511baeae6e" x="309.458067" y="307.584" style="stroke: #000000; stroke-width: 0.6"/>
      </g>
     </g>
    </g>
    <g id="xtick_32">
     <g id="line2d_32">
      <g>
       <use xlink:href="#m511baeae6e" x="313.609792" y="307.584" style="stroke: #000000; stroke-width: 0.6"/>
      </g>
     </g>
    </g>
    <g id="xtick_33">
     <g id="line2d_33">
      <g>
       <use xlink:href="#m511baeae6e" x="341.756325" y="307.584" style="stroke: #000000; stroke-width: 0.6"/>
      </g>
     </g>
    </g>
    <g id="xtick_34">
     <g id="line2d_34">
      <g>
       <use xlink:href="#m511baeae6e" x="356.048532" y="307.584" style="stroke: #000000; stroke-width: 0.6"/>
      </g>
     </g>
    </g>
    <g id="xtick_35">
     <g id="line2d_35">
      <g>
       <use xlink:href="#m511baeae6e" x="366.189015" y="307.584" style="stroke: #000000; stroke-width: 0.6"/>
      </g>
     </g>
    </g>
    <g id="xtick_36">
     <g id="line2d_36">
      <g>
       <use xlink:href="#m511baeae6e" x="374.054584" y="307.584" style="stroke: #000000; stroke-width: 0.6"/>
      </g>
     </g>
    </g>
    <g id="xtick_37">
     <g id="line2d_37">
      <g>
       <use xlink:href="#m511baeae6e" x="380.481221" y="307.584" style="stroke: #000000; stroke-width: 0.6"/>
      </g>
     </g>
    </g>
    <g id="xtick_38">
     <g id="line2d_38">
      <g>
       <use xlink:href="#m511baeae6e" x="385.914866" y="307.584" style="stroke: #000000; stroke-width: 0.6"/>
      </g>
     </g>
    </g>
    <g id="xtick_39">
     <g id="line2d_39">
      <g>
       <use xlink:href="#m511baeae6e" x="390.621704" y="307.584" style="stroke: #000000; stroke-width: 0.6"/>
      </g>
     </g>
    </g>
    <g id="xtick_40">
     <g id="line2d_40">
      <g>
       <use xlink:href="#m511baeae6e" x="394.773428" y="307.584" style="stroke: #000000; stroke-width: 0.6"/>
      </g>
     </g>
    </g>
    <g id="text_6">
     <!-- Frequency [Hz] -->
     <g transform="translate(198.455312 335.860562)scale(0.1 -0.1)">
      <defs>
       <path id="DejaVuSans-46" d="M 628 4666 
L 3309 4666 
L 3309 4134 
L 1259 4134 
L 1259 2759 
L 3109 2759 
L 3109 2228 
L 1259 2228 
L 1259 0 
L 628 0 
L 628 4666 
z
" transform="scale(0.015625)"/>
       <path id="DejaVuSans-72" d="M 2631 2963 
Q 2534 3019 2420 3045 
Q 2306 3072 2169 3072 
Q 1681 3072 1420 2755 
Q 1159 2438 1159 1844 
L 1159 0 
L 581 0 
L 581 3500 
L 1159 3500 
L 1159 2956 
Q 1341 3275 1631 3429 
Q 1922 3584 2338 3584 
Q 2397 3584 2469 3576 
Q 2541 3569 2628 3553 
L 2631 2963 
z
" transform="scale(0.015625)"/>
       <path id="DejaVuSans-65" d="M 3597 1894 
L 3597 1613 
L 953 1613 
Q 991 1019 1311 708 
Q 1631 397 2203 397 
Q 2534 397 2845 478 
Q 3156 559 3463 722 
L 3463 178 
Q 3153 47 2828 -22 
Q 2503 -91 2169 -91 
Q 1331 -91 842 396 
Q 353 884 353 1716 
Q 353 2575 817 3079 
Q 1281 3584 2069 3584 
Q 2775 3584 3186 3129 
Q 3597 2675 3597 1894 
z
M 3022 2063 
Q 3016 2534 2758 2815 
Q 2500 3097 2075 3097 
Q 1594 3097 1305 2825 
Q 1016 2553 972 2059 
L 3022 2063 
z
" transform="scale(0.015625)"/>
       <path id="DejaVuSans-71" d="M 947 1747 
Q 947 1113 1208 752 
Q 1469 391 1925 391 
Q 2381 391 2643 752 
Q 2906 1113 2906 1747 
Q 2906 2381 2643 2742 
Q 2381 3103 1925 3103 
Q 1469 3103 1208 2742 
Q 947 2381 947 1747 
z
M 2906 525 
Q 2725 213 2448 61 
Q 2172 -91 1784 -91 
Q 1150 -91 751 415 
Q 353 922 353 1747 
Q 353 2572 751 3078 
Q 1150 3584 1784 3584 
Q 2172 3584 2448 3432 
Q 2725 3281 2906 2969 
L 2906 3500 
L 3481 3500 
L 3481 -1331 
L 2906 -1331 
L 2906 525 
z
" transform="scale(0.015625)"/>
       <path id="DejaVuSans-75" d="M 544 1381 
L 544 3500 
L 1119 3500 
L 1119 1403 
Q 1119 906 1312 657 
Q 1506 409 1894 409 
Q 2359 409 2629 706 
Q 2900 1003 2900 1516 
L 2900 3500 
L 3475 3500 
L 3475 0 
L 2900 0 
L 2900 538 
Q 2691 219 2414 64 
Q 2138 -91 1772 -91 
Q 1169 -91 856 284 
Q 544 659 544 1381 
z
M 1991 3584 
L 1991 3584 
z
" transform="scale(0.015625)"/>
       <path id="DejaVuSans-6e" d="M 3513 2113 
L 3513 0 
L 2938 0 
L 2938 2094 
Q 2938 2591 2744 2837 
Q 2550 3084 2163 3084 
Q 1697 3084 1428 2787 
Q 1159 2491 1159 1978 
L 1159 0 
L 581 0 
L 581 3500 
L 1159 3500 
L 1159 2956 
Q 1366 3272 1645 3428 
Q 1925 3584 2291 3584 
Q 2894 3584 3203 3211 
Q 3513 2838 3513 2113 
z
" transform="scale(0.015625)"/>
       <path id="DejaVuSans-63" d="M 3122 3366 
L 3122 2828 
Q 2878 2963 2633 3030 
Q 2388 3097 2138 3097 
Q 1578 3097 1268 2742 
Q 959 2388 959 1747 
Q 959 1106 1268 751 
Q 1578 397 2138 397 
Q 2388 397 2633 464 
Q 2878 531 3122 666 
L 3122 134 
Q 2881 22 2623 -34 
Q 2366 -91 2075 -91 
Q 1284 -91 818 406 
Q 353 903 353 1747 
Q 353 2603 823 3093 
Q 1294 3584 2113 3584 
Q 2378 3584 2631 3529 
Q 2884 3475 3122 3366 
z
" transform="scale(0.015625)"/>
       <path id="DejaVuSans-79" d="M 2059 -325 
Q 1816 -950 1584 -1140 
Q 1353 -1331 966 -1331 
L 506 -1331 
L 506 -850 
L 844 -850 
Q 1081 -850 1212 -737 
Q 1344 -625 1503 -206 
L 1606 56 
L 191 3500 
L 800 3500 
L 1894 763 
L 2988 3500 
L 3597 3500 
L 2059 -325 
z
" transform="scale(0.015625)"/>
       <path id="DejaVuSans-20" transform="scale(0.015625)"/>
       <path id="DejaVuSans-5b" d="M 550 4863 
L 1875 4863 
L 1875 4416 
L 1125 4416 
L 1125 -397 
L 1875 -397 
L 1875 -844 
L 550 -844 
L 550 4863 
z
" transform="scale(0.015625)"/>
       <path id="DejaVuSans-48" d="M 628 4666 
L 1259 4666 
L 1259 2753 
L 3553 2753 
L 3553 4666 
L 4184 4666 
L 4184 0 
L 3553 0 
L 3553 2222 
L 1259 2222 
L 1259 0 
L 628 0 
L 628 4666 
z
" transform="scale(0.015625)"/>
       <path id="DejaVuSans-7a" d="M 353 3500 
L 3084 3500 
L 3084 2975 
L 922 459 
L 3084 459 
L 3084 0 
L 275 0 
L 275 525 
L 2438 3041 
L 353 3041 
L 353 3500 
z
" transform="scale(0.015625)"/>
       <path id="DejaVuSans-5d" d="M 1947 4863 
L 1947 -844 
L 622 -844 
L 622 -397 
L 1369 -397 
L 1369 4416 
L 622 4416 
L 622 4863 
L 1947 4863 
z
" transform="scale(0.015625)"/>
      </defs>
      <use xlink:href="#DejaVuSans-46"/>
      <use xlink:href="#DejaVuSans-72" x="50.269531"/>
      <use xlink:href="#DejaVuSans-65" x="89.132812"/>
      <use xlink:href="#DejaVuSans-71" x="150.65625"/>
      <use xlink:href="#DejaVuSans-75" x="214.132812"/>
      <use xlink:href="#DejaVuSans-65" x="277.511719"/>
      <use xlink:href="#DejaVuSans-6e" x="339.035156"/>
      <use xlink:href="#DejaVuSans-63" x="402.414062"/>
      <use xlink:href="#DejaVuSans-79" x="457.394531"/>
      <use xlink:href="#DejaVuSans-20" x="516.574219"/>
      <use xlink:href="#DejaVuSans-5b" x="548.361328"/>
      <use xlink:href="#DejaVuSans-48" x="587.375"/>
      <use xlink:href="#DejaVuSans-7a" x="662.570312"/>
      <use xlink:href="#DejaVuSans-5d" x="715.060547"/>
     </g>
    </g>
   </g>
   <g id="matplotlib.axis_2">
    <g id="ytick_1">
     <g id="line2d_41">
      <defs>
       <path id="m4cc84f49c0" d="M 0 0 
L -3.5 0 
" style="stroke: #000000; stroke-width: 0.8"/>
      </defs>
      <g>
       <use xlink:href="#m4cc84f49c0" x="57.6" y="307.584" style="stroke: #000000; stroke-width: 0.8"/>
      </g>
     </g>
     <g id="text_7">
      <!-- −140 -->
      <g transform="translate(23.132812 311.383219)scale(0.1 -0.1)">
       <defs>
        <path id="DejaVuSans-2212" d="M 678 2272 
L 4684 2272 
L 4684 1741 
L 678 1741 
L 678 2272 
z
" transform="scale(0.015625)"/>
       </defs>
       <use xlink:href="#DejaVuSans-2212"/>
       <use xlink:href="#DejaVuSans-31" x="83.789062"/>
       <use xlink:href="#DejaVuSans-34" x="147.412109"/>
       <use xlink:href="#DejaVuSans-30" x="211.035156"/>
      </g>
     </g>
    </g>
    <g id="ytick_2">
     <g id="line2d_42">
      <g>
       <use xlink:href="#m4cc84f49c0" x="57.6" y="274.32" style="stroke: #000000; stroke-width: 0.8"/>
      </g>
     </g>
     <g id="text_8">
      <!-- −130 -->
      <g transform="translate(23.132812 278.119219)scale(0.1 -0.1)">
       <use xlink:href="#DejaVuSans-2212"/>
       <use xlink:href="#DejaVuSans-31" x="83.789062"/>
       <use xlink:href="#DejaVuSans-33" x="147.412109"/>
       <use xlink:href="#DejaVuSans-30" x="211.035156"/>
      </g>
     </g>
    </g>
    <g id="ytick_3">
     <g id="line2d_43">
      <g>
       <use xlink:href="#m4cc84f49c0" x="57.6" y="241.056" style="stroke: #000000; stroke-width: 0.8"/>
      </g>
     </g>
     <g id="text_9">
      <!-- −120 -->
      <g transform="translate(23.132812 244.855219)scale(0.1 -0.1)">
       <defs>
        <path id="DejaVuSans-32" d="M 1228 531 
L 3431 531 
L 3431 0 
L 469 0 
L 469 531 
Q 828 903 1448 1529 
Q 2069 2156 2228 2338 
Q 2531 2678 2651 2914 
Q 2772 3150 2772 3378 
Q 2772 3750 2511 3984 
Q 2250 4219 1831 4219 
Q 1534 4219 1204 4116 
Q 875 4013 500 3803 
L 500 4441 
Q 881 4594 1212 4672 
Q 1544 4750 1819 4750 
Q 2544 4750 2975 4387 
Q 3406 4025 3406 3419 
Q 3406 3131 3298 2873 
Q 3191 2616 2906 2266 
Q 2828 2175 2409 1742 
Q 1991 1309 1228 531 
z
" transform="scale(0.015625)"/>
       </defs>
       <use xlink:href="#DejaVuSans-2212"/>
       <use xlink:href="#DejaVuSans-31" x="83.789062"/>
       <use xlink:href="#DejaVuSans-32" x="147.412109"/>
       <use xlink:href="#DejaVuSans-30" x="211.035156"/>
      </g>
     </g>
    </g>
    <g id="ytick_4">
     <g id="line2d_44">
      <g>
       <use xlink:href="#m4cc84f49c0" x="57.6" y="207.792" style="stroke: #000000; stroke-width: 0.8"/>
      </g>
     </g>
     <g id="text_10">
      <!-- −110 -->
      <g transform="translate(23.132812 211.591219)scale(0.1 -0.1)">
       <use xlink:href="#DejaVuSans-2212"/>
       <use xlink:href="#DejaVuSans-31" x="83.789062"/>
       <use xlink:href="#DejaVuSans-31" x="147.412109"/>
       <use xlink:href="#DejaVuSans-30" x="211.035156"/>
      </g>
     </g>
    </g>
    <g id="ytick_5">
     <g id="line2d_45">
      <g>
       <use xlink:href="#m4cc84f49c0" x="57.6" y="174.528" style="stroke: #000000; stroke-width: 0.8"/>
      </g>
     </g>
     <g id="text_11">
      <!-- −100 -->
      <g transform="translate(23.132812 178.327219)scale(0.1 -0.1)">
       <use xlink:href="#DejaVuSans-2212"/>
       <use xlink:href="#DejaVuSans-31" x="83.789062"/>
       <use xlink:href="#DejaVuSans-30" x="147.412109"/>
       <use xlink:href="#DejaVuSans-30" x="211.035156"/>
      </g>
     </g>
    </g>
    <g id="ytick_6">
     <g id="line2d_46">
      <g>
       <use xlink:href="#m4cc84f49c0" x="57.6" y="141.264" style="stroke: #000000; stroke-width: 0.8"/>
      </g>
     </g>
     <g id="text_12">
      <!-- −90 -->
      <g transform="translate(29.495313 145.063219)scale(0.1 -0.1)">
       <defs>
        <path id="DejaVuSans-39" d="M 703 97 
L 703 672 
Q 941 559 1184 500 
Q 1428 441 1663 441 
Q 2288 441 2617 861 
Q 2947 1281 2994 2138 
Q 2813 1869 2534 1725 
Q 2256 1581 1919 1581 
Q 1219 1581 811 2004 
Q 403 2428 403 3163 
Q 403 3881 828 4315 
Q 1253 4750 1959 4750 
Q 2769 4750 3195 4129 
Q 3622 3509 3622 2328 
Q 3622 1225 3098 567 
Q 2575 -91 1691 -91 
Q 1453 -91 1209 -44 
Q 966 3 703 97 
z
M 1959 2075 
Q 2384 2075 2632 2365 
Q 2881 2656 2881 3163 
Q 2881 3666 2632 3958 
Q 2384 4250 1959 4250 
Q 1534 4250 1286 3958 
Q 1038 3666 1038 3163 
Q 1038 2656 1286 2365 
Q 1534 2075 1959 2075 
z
" transform="scale(0.015625)"/>
       </defs>
       <use xlink:href="#DejaVuSans-2212"/>
       <use xlink:href="#DejaVuSans-39" x="83.789062"/>
       <use xlink:href="#DejaVuSans-30" x="147.412109"/>
      </g>
     </g>
    </g>
    <g id="ytick_7">
     <g id="line2d_47">
      <g>
       <use xlink:href="#m4cc84f49c0" x="57.6" y="108" style="stroke: #000000; stroke-width: 0.8"/>
      </g>
     </g>
     <g id="text_13">
      <!-- −80 -->
      <g transform="translate(29.495313 111.799219)scale(0.1 -0.1)">
       <defs>
        <path id="DejaVuSans-38" d="M 2034 2216 
Q 1584 2216 1326 1975 
Q 1069 1734 1069 1313 
Q 1069 891 1326 650 
Q 1584 409 2034 409 
Q 2484 409 2743 651 
Q 3003 894 3003 1313 
Q 3003 1734 2745 1975 
Q 2488 2216 2034 2216 
z
M 1403 2484 
Q 997 2584 770 2862 
Q 544 3141 544 3541 
Q 544 4100 942 4425 
Q 1341 4750 2034 4750 
Q 2731 4750 3128 4425 
Q 3525 4100 3525 3541 
Q 3525 3141 3298 2862 
Q 3072 2584 2669 2484 
Q 3125 2378 3379 2068 
Q 3634 1759 3634 1313 
Q 3634 634 3220 271 
Q 2806 -91 2034 -91 
Q 1263 -91 848 271 
Q 434 634 434 1313 
Q 434 1759 690 2068 
Q 947 2378 1403 2484 
z
M 1172 3481 
Q 1172 3119 1398 2916 
Q 1625 2713 2034 2713 
Q 2441 2713 2670 2916 
Q 2900 3119 2900 3481 
Q 2900 3844 2670 4047 
Q 2441 4250 2034 4250 
Q 1625 4250 1398 4047 
Q 1172 3844 1172 3481 
z
" transform="scale(0.015625)"/>
       </defs>
       <use xlink:href="#DejaVuSans-2212"/>
       <use xlink:href="#DejaVuSans-38" x="83.789062"/>
       <use xlink:href="#DejaVuSans-30" x="147.412109"/>
      </g>
     </g>
    </g>
    <g id="ytick_8">
     <g id="line2d_48">
      <g>
       <use xlink:href="#m4cc84f49c0" x="57.6" y="74.736" style="stroke: #000000; stroke-width: 0.8"/>
      </g>
     </g>
     <g id="text_14">
      <!-- −70 -->
      <g transform="translate(29.495313 78.535219)scale(0.1 -0.1)">
       <use xlink:href="#DejaVuSans-2212"/>
       <use xlink:href="#DejaVuSans-37" x="83.789062"/>
       <use xlink:href="#DejaVuSans-30" x="147.412109"/>
      </g>
     </g>
    </g>
    <g id="ytick_9">
     <g id="line2d_49">
      <g>
       <use xlink:href="#m4cc84f49c0" x="57.6" y="41.472" style="stroke: #000000; stroke-width: 0.8"/>
      </g>
     </g>
     <g id="text_15">
      <!-- −60 -->
      <g transform="translate(29.495313 45.271219)scale(0.1 -0.1)">
       <use xlink:href="#DejaVuSans-2212"/>
       <use xlink:href="#DejaVuSans-36" x="83.789062"/>
       <use xlink:href="#DejaVuSans-30" x="147.412109"/>
      </g>
     </g>
    </g>
    <g id="text_16">
     <!-- Phase noise [dBc/Hz] -->
     <g transform="translate(17.053125 227.257688)rotate(-90)scale(0.1 -0.1)">
      <defs>
       <path id="DejaVuSans-50" d="M 1259 4147 
L 1259 2394 
L 2053 2394 
Q 2494 2394 2734 2622 
Q 2975 2850 2975 3272 
Q 2975 3691 2734 3919 
Q 2494 4147 2053 4147 
L 1259 4147 
z
M 628 4666 
L 2053 4666 
Q 2838 4666 3239 4311 
Q 3641 3956 3641 3272 
Q 3641 2581 3239 2228 
Q 2838 1875 2053 1875 
L 1259 1875 
L 1259 0 
L 628 0 
L 628 4666 
z
" transform="scale(0.015625)"/>
       <path id="DejaVuSans-68" d="M 3513 2113 
L 3513 0 
L 2938 0 
L 2938 2094 
Q 2938 2591 2744 2837 
Q 2550 3084 2163 3084 
Q 1697 3084 1428 2787 
Q 1159 2491 1159 1978 
L 1159 0 
L 581 0 
L 581 4863 
L 1159 4863 
L 1159 2956 
Q 1366 3272 1645 3428 
Q 1925 3584 2291 3584 
Q 2894 3584 3203 3211 
Q 3513 2838 3513 2113 
z
" transform="scale(0.015625)"/>
       <path id="DejaVuSans-61" d="M 2194 1759 
Q 1497 1759 1228 1600 
Q 959 1441 959 1056 
Q 959 750 1161 570 
Q 1363 391 1709 391 
Q 2188 391 2477 730 
Q 2766 1069 2766 1631 
L 2766 1759 
L 2194 1759 
z
M 3341 1997 
L 3341 0 
L 2766 0 
L 2766 531 
Q 2569 213 2275 61 
Q 1981 -91 1556 -91 
Q 1019 -91 701 211 
Q 384 513 384 1019 
Q 384 1609 779 1909 
Q 1175 2209 1959 2209 
L 2766 2209 
L 2766 2266 
Q 2766 2663 2505 2880 
Q 2244 3097 1772 3097 
Q 1472 3097 1187 3025 
Q 903 2953 641 2809 
L 641 3341 
Q 956 3463 1253 3523 
Q 1550 3584 1831 3584 
Q 2591 3584 2966 3190 
Q 3341 2797 3341 1997 
z
" transform="scale(0.015625)"/>
       <path id="DejaVuSans-73" d="M 2834 3397 
L 2834 2853 
Q 2591 2978 2328 3040 
Q 2066 3103 1784 3103 
Q 1356 3103 1142 2972 
Q 928 2841 928 2578 
Q 928 2378 1081 2264 
Q 1234 2150 1697 2047 
L 1894 2003 
Q 2506 1872 2764 1633 
Q 3022 1394 3022 966 
Q 3022 478 2636 193 
Q 2250 -91 1575 -91 
Q 1294 -91 989 -36 
Q 684 19 347 128 
L 347 722 
Q 666 556 975 473 
Q 1284 391 1588 391 
Q 1994 391 2212 530 
Q 2431 669 2431 922 
Q 2431 1156 2273 1281 
Q 2116 1406 1581 1522 
L 1381 1569 
Q 847 1681 609 1914 
Q 372 2147 372 2553 
Q 372 3047 722 3315 
Q 1072 3584 1716 3584 
Q 2034 3584 2315 3537 
Q 2597 3491 2834 3397 
z
" transform="scale(0.015625)"/>
       <path id="DejaVuSans-6f" d="M 1959 3097 
Q 1497 3097 1228 2736 
Q 959 2375 959 1747 
Q 959 1119 1226 758 
Q 1494 397 1959 397 
Q 2419 397 2687 759 
Q 2956 1122 2956 1747 
Q 2956 2369 2687 2733 
Q 2419 3097 1959 3097 
z
M 1959 3584 
Q 2709 3584 3137 3096 
Q 3566 2609 3566 1747 
Q 3566 888 3137 398 
Q 2709 -91 1959 -91 
Q 1206 -91 779 398 
Q 353 888 353 1747 
Q 353 2609 779 3096 
Q 1206 3584 1959 3584 
z
" transform="scale(0.015625)"/>
       <path id="DejaVuSans-69" d="M 603 3500 
L 1178 3500 
L 1178 0 
L 603 0 
L 603 3500 
z
M 603 4863 
L 1178 4863 
L 1178 4134 
L 603 4134 
L 603 4863 
z
" transform="scale(0.015625)"/>
       <path id="DejaVuSans-64" d="M 2906 2969 
L 2906 4863 
L 3481 4863 
L 3481 0 
L 2906 0 
L 2906 525 
Q 2725 213 2448 61 
Q 2172 -91 1784 -91 
Q 1150 -91 751 415 
Q 353 922 353 1747 
Q 353 2572 751 3078 
Q 1150 3584 1784 3584 
Q 2172 3584 2448 3432 
Q 2725 3281 2906 2969 
z
M 947 1747 
Q 947 1113 1208 752 
Q 1469 391 1925 391 
Q 2381 391 2643 752 
Q 2906 1113 2906 1747 
Q 2906 2381 2643 2742 
Q 2381 3103 1925 3103 
Q 1469 3103 1208 2742 
Q 947 2381 947 1747 
z
" transform="scale(0.015625)"/>
       <path id="DejaVuSans-42" d="M 1259 2228 
L 1259 519 
L 2272 519 
Q 2781 519 3026 730 
Q 3272 941 3272 1375 
Q 3272 1813 3026 2020 
Q 2781 2228 2272 2228 
L 1259 2228 
z
M 1259 4147 
L 1259 2741 
L 2194 2741 
Q 2656 2741 2882 2914 
Q 3109 3088 3109 3444 
Q 3109 3797 2882 3972 
Q 2656 4147 2194 4147 
L 1259 4147 
z
M 628 4666 
L 2241 4666 
Q 2963 4666 3353 4366 
Q 3744 4066 3744 3513 
Q 3744 3084 3544 2831 
Q 3344 2578 2956 2516 
Q 3422 2416 3680 2098 
Q 3938 1781 3938 1306 
Q 3938 681 3513 340 
Q 3088 0 2303 0 
L 628 0 
L 628 4666 
z
" transform="scale(0.015625)"/>
       <path id="DejaVuSans-2f" d="M 1625 4666 
L 2156 4666 
L 531 -594 
L 0 -594 
L 1625 4666 
z
" transform="scale(0.015625)"/>
      </defs>
      <use xlink:href="#DejaVuSans-50"/>
      <use xlink:href="#DejaVuSans-68" x="60.302734"/>
      <use xlink:href="#DejaVuSans-61" x="123.681641"/>
      <use xlink:href="#DejaVuSans-73" x="184.960938"/>
      <use xlink:href="#DejaVuSans-65" x="237.060547"/>
      <use xlink:href="#DejaVuSans-20" x="298.583984"/>
      <use xlink:href="#DejaVuSans-6e" x="330.371094"/>
      <use xlink:href="#DejaVuSans-6f" x="393.75"/>
      <use xlink:href="#DejaVuSans-69" x="454.931641"/>
      <use xlink:href="#DejaVuSans-73" x="482.714844"/>
      <use xlink:href="#DejaVuSans-65" x="534.814453"/>
      <use xlink:href="#DejaVuSans-20" x="596.337891"/>
      <use xlink:href="#DejaVuSans-5b" x="628.125"/>
      <use xlink:href="#DejaVuSans-64" x="667.138672"/>
      <use xlink:href="#DejaVuSans-42" x="730.615234"/>
      <use xlink:href="#DejaVuSans-63" x="799.21875"/>
      <use xlink:href="#DejaVuSans-2f" x="854.199219"/>
      <use xlink:href="#DejaVuSans-48" x="887.890625"/>
      <use xlink:href="#DejaVuSans-7a" x="963.085938"/>
      <use xlink:href="#DejaVuSans-5d" x="1015.576172"/>
     </g>
    </g>
   </g>
   <g id="line2d_50">
    <path d="M 398.487273 299.507057 
L 398.133009 305.20518 
L 397.413619 308.742252 
L 397.048342 308.132412 
L 396.67924 307.81086 
L 396.306232 307.889585 
L 395.548161 309.528392 
L 395.162923 310.362209 
L 394.773428 309.59492 
L 393.981285 306.738651 
L 393.578435 307.02583 
L 393.170929 310.643844 
L 392.758656 312.592006 
L 392.341504 313.224022 
L 391.919356 310.405452 
L 391.492092 309.683624 
L 391.059584 309.225689 
L 390.621704 311.326865 
L 390.178315 311.353476 
L 389.729278 310.120491 
L 389.274447 308.302059 
L 388.81367 307.46048 
L 388.346791 307.991595 
L 386.907859 308.775516 
L 385.914866 312.557633 
L 385.407679 314.043425 
L 384.893087 312.149595 
L 383.840802 306.745304 
L 383.30264 306.095547 
L 382.756135 306.496932 
L 382.201022 307.120078 
L 381.637027 308.61474 
L 381.063862 309.792286 
L 380.481221 309.186881 
L 379.888789 306.801852 
L 379.286228 305.506774 
L 378.673188 306.771915 
L 378.049297 307.586883 
L 377.414164 307.568033 
L 376.767377 306.032345 
L 376.1085 305.836088 
L 375.437071 306.700952 
L 374.752605 308.524928 
L 374.054584 309.027214 
L 372.615652 305.69527 
L 371.873543 304.560968 
L 371.115472 305.70414 
L 368.73824 304.962353 
L 367.908815 305.420288 
L 367.059402 305.673094 
L 366.189015 305.333801 
L 365.296589 304.666304 
L 364.380981 304.470046 
L 363.440954 302.719251 
L 361.482177 301.950852 
L 360.460398 301.849952 
L 359.408113 301.523964 
L 358.323446 300.784395 
L 356.048532 304.441217 
L 354.853539 305.588825 
L 353.616608 304.753899 
L 351.004382 300.754457 
L 349.621895 299.999364 
L 348.182963 297.707475 
L 346.682783 296.364718 
L 345.115906 294.124942 
L 343.476126 294.170403 
L 341.756325 292.608104 
L 339.948292 290.470337 
L 338.042481 287.382329 
L 336.027709 286.51303 
L 333.890756 284.665769 
L 331.615843 283.172216 
L 329.183919 280.990097 
L 326.571693 281.630984 
L 323.750274 281.872702 
L 323.455302 282.392729 
L 322.857849 282.450387 
L 322.555281 282.168752 
L 322.250094 281.358219 
L 321.694008 275.42503 
L 321.160637 277.084904 
L 321.129009 277.074924 
L 321.033956 277.155867 
L 320.843077 277.33771 
L 320.554806 276.615881 
L 320.490424 276.615881 
L 320.231715 274.949355 
L 320.16674 275.07354 
L 319.971094 275.8874 
L 319.807221 275.448315 
L 319.774355 275.524822 
L 319.609563 276.153512 
L 319.443997 276.83875 
L 319.27765 275.900705 
L 319.110514 274.162107 
L 319.076991 274.071185 
L 319.043437 274.154345 
L 318.976232 274.566819 
L 318.908899 275.059126 
L 318.841437 274.835148 
L 318.638272 274.29738 
L 318.604298 274.391628 
L 318.262736 275.029188 
L 318.090705 274.207568 
L 317.917832 272.582067 
L 317.883155 272.580958 
L 317.604506 270.528569 
L 317.499442 270.741459 
L 317.394064 271.179435 
L 317.28837 276.763352 
L 316.93375 274.388302 
L 316.575526 274.597865 
L 316.213624 274.367235 
L 315.847968 273.317201 
L 315.478479 270.668278 
L 315.105076 270.709304 
L 314.727675 271.031964 
L 314.34619 271.67396 
L 313.96053 271.790384 
L 313.570605 271.670633 
L 313.176317 273.086571 
L 312.77757 269.939796 
L 312.37426 270.858992 
L 311.966282 268.508336 
L 311.553526 268.560449 
L 311.13588 267.973894 
L 310.713226 268.620324 
L 310.285442 268.79108 
L 309.413979 265.318318 
L 308.970032 264.708478 
L 308.520422 265.040009 
L 307.603623 266.345067 
L 307.136124 265.843889 
L 306.662341 264.783876 
L 306.182103 264.109726 
L 305.695232 263.650683 
L 305.201542 264.507785 
L 304.700838 263.946732 
L 304.19292 261.129272 
L 303.677576 259.583604 
L 303.154585 258.716523 
L 302.623718 261.396492 
L 302.084733 262.140497 
L 301.537379 263.138417 
L 300.981391 262.575147 
L 300.416492 263.044169 
L 299.842393 261.471891 
L 298.665358 256.141889 
L 298.061766 254.426576 
L 297.447657 255.316942 
L 296.82266 254.530803 
L 295.538405 250.788603 
L 294.878293 252.368643 
L 294.205583 254.835723 
L 293.519785 254.450969 
L 292.820379 252.848753 
L 292.106814 250.65222 
L 291.378504 248.999 
L 290.634829 247.799278 
L 289.875124 248.098654 
L 289.098685 248.71182 
L 288.304757 246.518614 
L 287.492534 242.723192 
L 286.661153 240.9602 
L 285.809688 243.773225 
L 284.937146 245.751324 
L 284.042455 243.975027 
L 283.124462 236.870945 
L 282.181922 232.54219 
L 281.213484 230.87899 
L 280.217686 234.264156 
L 279.192936 234.683283 
L 278.1375 232.898115 
L 277.049484 227.919603 
L 275.926812 226.168808 
L 274.767203 227.249888 
L 273.568145 229.805672 
L 272.326858 228.917523 
L 271.040258 225.274006 
L 269.704912 220.471793 
L 268.31698 217.274014 
L 266.87215 216.158561 
L 265.365556 215.618576 
L 263.791682 213.491897 
L 262.144237 210.83743 
L 260.416002 209.339441 
L 260.05995 210.562448 
L 259.700264 209.522393 
L 259.33687 206.720456 
L 259.153758 206.047414 
L 258.96969 206.497587 
L 258.784656 206.381163 
L 258.411648 206.625099 
L 258.034651 207.923504 
L 257.844629 207.801536 
L 257.653577 207.405694 
L 257.461485 207.377974 
L 257.26834 207.48331 
L 256.286412 210.725441 
L 255.885852 209.539025 
L 255.683852 209.388228 
L 255.480687 210.590168 
L 254.864072 211.610264 
L 254.656114 212.468475 
L 254.446921 212.268891 
L 254.024773 210.908393 
L 253.811788 212.011649 
L 253.597508 212.52835 
L 253.381918 212.41747 
L 252.94674 208.596545 
L 252.283732 205.344435 
L 252.059928 204.194609 
L 251.834695 204.416369 
L 251.608013 203.857534 
L 251.379864 203.849772 
L 251.150228 203.287611 
L 250.919087 203.937368 
L 250.68642 204.174651 
L 250.334514 205.093846 
L 250.287327 205.577283 
L 250.216427 205.45088 
L 250.145385 205.001816 
L 250.097943 204.409716 
L 250.026661 204.573819 
L 250.002869 204.604865 
L 249.788008 203.15012 
L 249.764054 203.1224 
L 249.716096 203.228844 
L 249.52361 204.818864 
L 249.475324 204.512835 
L 249.135456 199.871398 
L 249.111054 199.862528 
L 249.037746 200.445756 
L 248.964285 200.269457 
L 248.939764 200.164121 
L 248.718304 197.205843 
L 248.520276 196.710209 
L 248.445727 196.745691 
L 248.321129 197.591705 
L 248.246158 197.285676 
L 248.196088 197.336681 
L 248.145947 197.447561 
L 248.095735 197.330028 
L 247.894168 195.894132 
L 247.868891 195.897459 
L 247.843596 195.900785 
L 247.666019 198.050748 
L 247.513095 199.514364 
L 247.461973 199.543193 
L 247.410776 199.829264 
L 247.38515 199.560934 
L 247.231 197.733632 
L 247.179466 198.018593 
L 246.659944 200.518937 
L 246.37091 196.036059 
L 246.318102 196.073758 
L 246.185737 198.042987 
L 246.132651 198.595169 
L 246.106078 198.168281 
L 245.999586 197.1249 
L 245.946219 197.297873 
L 245.866016 197.929889 
L 245.812447 197.918801 
L 245.54337 192.198502 
L 245.435161 192.500096 
L 245.299431 193.633289 
L 245.163177 194.199886 
L 245.135863 194.200995 
L 245.053793 194.652276 
L 245.026394 194.484848 
L 244.944069 194.30744 
L 244.916584 194.331833 
L 244.861551 194.521438 
L 244.72359 195.106884 
L 244.668254 194.982699 
L 244.473892 193.961494 
L 244.446038 194.004737 
L 244.390265 194.291916 
L 244.334403 194.693302 
L 244.278452 194.511459 
L 244.110065 192.716312 
L 244.081922 192.721856 
L 244.025569 192.652001 
L 243.94087 192.204046 
L 243.685545 189.962052 
L 243.628554 189.719225 
L 243.57147 189.756924 
L 243.428356 190.801414 
L 243.370948 190.568566 
L 243.313445 190.45436 
L 243.284659 190.670576 
L 243.140373 192.036617 
L 243.082493 191.892473 
L 242.937376 190.571892 
L 242.879162 190.653944 
L 242.703939 191.954566 
L 242.645337 191.699542 
L 242.498405 191.420124 
L 242.439461 191.486652 
L 242.350858 190.596286 
L 242.262033 190.788108 
L 242.083707 191.489979 
L 241.93441 190.033016 
L 241.904475 190.048539 
L 241.784479 190.14944 
L 241.573497 188.510633 
L 241.512984 188.589358 
L 241.482688 188.447432 
L 241.361245 187.451729 
L 241.20885 185.68652 
L 241.117095 186.018051 
L 241.055793 185.84286 
L 240.932867 185.384926 
L 240.592594 181.813481 
L 240.561497 181.835657 
L 240.530372 181.857833 
L 240.374334 182.519787 
L 240.217602 181.864486 
L 240.186172 181.936558 
L 240.123227 182.645081 
L 239.965373 184.592134 
L 239.902032 184.414726 
L 239.806808 184.342654 
L 239.775009 184.377027 
L 239.743181 184.4114 
L 239.711325 184.326022 
L 239.647526 183.945704 
L 239.423316 182.597403 
L 239.358993 182.615144 
L 239.100522 184.950276 
L 238.970571 184.526715 
L 238.905416 184.667532 
L 238.709225 185.978134 
L 238.67642 185.868363 
L 238.544894 185.698716 
L 238.478947 185.77855 
L 238.445927 185.69539 
L 238.379794 185.246326 
L 238.247154 183.698441 
L 238.08065 181.28791 
L 237.913355 181.028451 
L 237.778945 181.860051 
L 237.745263 182.099552 
L 237.6778 182.030806 
L 237.508578 181.425401 
L 237.304433 181.6394 
L 237.236121 181.642726 
L 237.099099 181.534064 
L 236.927069 182.21154 
L 236.892562 182.140577 
L 236.719518 181.819025 
L 236.510738 181.612788 
L 236.300714 179.302049 
L 236.230427 179.315355 
L 236.16 180.299969 
L 236.124733 179.569824 
L 235.769757 179.405722 
L 235.41117 179.430116 
L 235.048897 179.291516 
L 234.312986 176.895399 
L 233.939188 177.704823 
L 233.561383 178.098447 
L 232.793404 177.253541 
L 232.403047 176.337672 
L 232.008319 176.805586 
L 231.609121 175.673501 
L 231.20535 175.886391 
L 230.7969 173.83622 
L 229.965521 173.175375 
L 229.54236 173.855069 
L 229.114058 174.023607 
L 228.680488 172.762901 
L 228.241518 172.89374 
L 227.797012 170.561933 
L 227.346829 170.421116 
L 226.890823 168.973023 
L 226.428839 168.814464 
L 225.960721 167.569282 
L 225.486301 167.483904 
L 225.005409 168.299981 
L 224.517866 166.396172 
L 224.023485 165.703172 
L 223.013421 166.865194 
L 222.497323 165.435951 
L 221.973557 162.731588 
L 221.441891 161.890008 
L 220.902082 160.053836 
L 220.353878 159.395208 
L 219.797013 158.304149 
L 219.23121 157.669916 
L 218.071605 161.432074 
L 217.477176 164.709687 
L 216.872551 161.554042 
L 216.257373 157.590082 
L 215.631268 154.30249 
L 214.99384 155.505538 
L 214.344673 155.119676 
L 213.683325 154.44109 
L 213.009332 151.115799 
L 212.322199 151.508314 
L 211.621405 150.503741 
L 211.549916 151.023768 
L 211.478281 150.655647 
L 211.4065 151.411848 
L 211.262499 148.954748 
L 210.972719 153.591749 
L 210.8999 153.445388 
L 210.75381 151.867565 
L 210.680537 153.322311 
L 210.459801 147.304853 
L 210.385914 148.849412 
L 210.163318 153.16597 
L 210.088806 151.450656 
L 210.014137 151.923005 
L 209.939308 151.595909 
L 209.864321 153.511916 
L 209.789173 152.803392 
L 209.638396 151.446221 
L 209.411015 144.836664 
L 209.105539 152.134786 
L 208.719934 143.387463 
L 208.564503 147.756135 
L 208.330064 155.165136 
L 207.856456 146.813655 
L 207.697161 148.372628 
L 207.537144 152.028341 
L 207.295747 144.89654 
L 207.133893 147.394666 
L 207.052686 146.695013 
L 206.971292 147.665213 
L 206.807938 146.789261 
L 206.725976 146.936732 
L 206.643823 146.487668 
L 206.561478 146.783717 
L 206.47894 145.391064 
L 206.396209 146.831396 
L 206.313282 144.842208 
L 206.230161 145.248029 
L 206.146843 144.379839 
L 206.063327 145.804647 
L 205.8957 143.987324 
L 205.811587 142.644567 
L 205.727272 143.012688 
L 205.558035 148.252877 
L 205.473111 148.015594 
L 205.302647 144.438605 
L 205.217105 145.628348 
L 205.131354 144.915389 
L 205.045395 145.063968 
L 204.786251 139.925789 
L 204.437736 145.945464 
L 204.350066 145.356692 
L 204.262178 145.988708 
L 204.174069 149.073389 
L 204.08574 148.399239 
L 203.908416 141.914976 
L 203.819418 142.80756 
L 203.730194 142.853021 
L 203.551067 138.530919 
L 203.461161 139.726205 
L 203.190059 137.813525 
L 203.008159 140.41477 
L 202.916856 140.167508 
L 202.733537 139.75836 
L 202.364013 138.530919 
L 202.271024 138.861341 
L 202.177789 138.485458 
L 201.990575 139.58317 
L 201.896594 139.212831 
L 201.802362 137.617268 
L 201.707877 137.650532 
L 201.613138 137.43986 
L 201.135586 141.493632 
L 201.039295 141.270764 
L 200.942739 140.6831 
L 200.845919 136.828911 
L 200.651476 138.628493 
L 200.455955 139.588714 
L 200.160624 141.070071 
L 200.061628 143.844288 
L 199.862798 141.561269 
L 199.762961 139.132997 
L 199.66284 139.937986 
L 199.461741 138.403407 
L 199.259489 139.577626 
L 199.056069 136.808952 
L 198.953917 137.648314 
L 198.748721 137.256908 
L 198.645674 136.526208 
L 198.334711 143.109154 
L 198.125867 140.480189 
L 197.915779 135.830991 
L 197.704432 134.128983 
L 197.598281 134.15005 
L 197.491809 133.918311 
L 197.277896 131.670773 
L 197.170451 132.372644 
L 196.737365 139.034314 
L 196.628257 140.081021 
L 196.409022 138.05857 
L 196.188415 134.71332 
L 195.966419 137.386637 
L 195.854894 137.396616 
L 195.630781 135.163493 
L 195.518188 135.567096 
L 195.178234 131.444578 
L 195.064183 132.169733 
L 194.949762 131.981237 
L 194.604255 134.601332 
L 194.488329 134.441664 
L 194.255327 132.258437 
L 194.020774 133.809648 
L 193.784651 131.991216 
L 193.665993 130.780407 
L 193.601209 136.790103 
L 193.536306 133.692116 
L 193.510311 132.952546 
L 193.44524 134.034735 
L 193.432212 134.84305 
L 193.366996 133.09669 
L 193.288578 128.932037 
L 193.2624 131.431272 
L 193.249304 132.647626 
L 193.170623 130.891287 
L 193.144357 132.217412 
L 193.118071 131.867031 
L 193.091766 133.54908 
L 192.907078 140.697514 
L 192.734712 129.907781 
L 192.721418 130.059687 
L 192.694815 131.909165 
L 192.561498 135.560444 
L 192.400849 128.724692 
L 192.374003 130.332452 
L 192.333696 128.19912 
L 192.306798 128.80896 
L 192.293342 128.150333 
L 192.252942 129.62282 
L 192.199003 128.877706 
L 192.172003 128.981933 
L 192.158495 128.711386 
L 192.131464 128.270084 
L 192.104412 128.629335 
L 192.063795 131.366962 
L 192.009565 127.66357 
L 191.98242 125.562394 
L 191.928065 127.376391 
L 191.778156 133.735359 
L 191.723486 134.651228 
L 191.709805 133.26301 
L 191.682427 128.433077 
L 191.586437 129.734808 
L 191.517712 128.151442 
L 191.490185 129.003 
L 191.476413 129.852341 
L 191.421272 126.948394 
L 191.379859 126.706676 
L 191.366044 127.21118 
L 191.28304 128.812287 
L 191.269187 127.614783 
L 191.255329 126.417279 
L 191.213721 130.775972 
L 191.199841 130.218245 
L 191.172064 132.849428 
L 191.144265 129.425453 
L 191.130357 126.916239 
L 191.046796 130.196069 
L 190.963036 131.281584 
L 191.004941 129.813533 
L 190.907086 130.988861 
L 190.893084 130.630719 
L 190.865064 131.982346 
L 190.851046 132.837231 
L 190.822993 129.184844 
L 190.808958 128.25456 
L 190.738699 130.505424 
L 190.72463 131.619768 
L 190.654203 128.516237 
L 190.527078 130.641807 
L 190.442072 130.039728 
L 190.385288 127.901962 
L 190.299939 128.759064 
L 190.285694 129.02185 
L 190.242925 128.265648 
L 190.228657 128.267866 
L 190.157231 126.530376 
L 190.099985 127.491706 
L 189.999581 132.285048 
L 189.956463 128.703624 
L 189.942079 127.999536 
L 189.913293 130.118453 
L 189.841224 133.350605 
L 189.812355 131.981237 
L 189.754546 127.226703 
L 189.682151 129.031829 
L 189.580548 126.889628 
L 189.536915 128.059412 
L 189.493227 130.294752 
L 189.449484 134.464949 
L 189.37646 131.543261 
L 189.361837 130.974447 
L 189.317931 132.877148 
L 189.303284 132.877148 
L 189.28863 132.877148 
L 189.171183 131.835984 
L 189.127039 134.520389 
L 189.053343 133.142151 
L 188.846169 125.789698 
L 188.771883 123.960178 
L 188.757007 125.414924 
L 188.727236 128.43973 
L 188.637772 127.22892 
L 188.533109 133.359476 
L 188.503148 130.128432 
L 188.488158 129.677151 
L 188.458159 131.189554 
L 188.383049 129.732591 
L 188.368008 129.478676 
L 188.337906 130.575279 
L 188.050652 142.452744 
L 188.035469 140.342698 
L 187.974668 133.026836 
L 187.89852 134.042496 
L 187.883271 134.01145 
L 187.852752 135.190104 
L 187.822207 133.23529 
L 187.77634 133.862871 
L 187.761038 133.774167 
L 187.669084 137.727039 
L 187.63838 135.319834 
L 187.484454 128.469668 
L 187.453588 130.733837 
L 187.391775 127.210071 
L 187.360828 126.412844 
L 187.314356 127.541602 
L 187.298851 127.476183 
L 187.28334 127.410764 
L 187.174571 132.84721 
L 187.112266 129.864538 
L 187.002967 126.27757 
L 187.049851 129.99205 
L 186.987326 127.614783 
L 186.971677 128.951996 
L 186.924689 127.012704 
L 186.893328 127.900853 
L 186.79908 126.195519 
L 186.767608 126.880757 
L 186.673022 130.116236 
L 186.625634 128.211317 
L 186.435441 125.860661 
L 186.387732 126.191084 
L 186.371815 126.137861 
L 186.32402 130.346866 
L 186.244217 127.702378 
L 186.164233 125.646663 
L 186.132189 126.191084 
L 186.05195 134.084631 
L 185.955421 132.032242 
L 185.907058 134.377354 
L 185.826304 133.296274 
L 185.712938 127.768906 
L 185.66424 129.059549 
L 185.615475 134.104589 
L 185.55035 129.826839 
L 185.403377 122.218253 
L 185.370633 120.904325 
L 185.337859 122.922341 
L 185.305054 124.102104 
L 185.239352 123.176256 
L 185.222908 123.065376 
L 185.10758 127.248879 
L 185.091074 125.877293 
L 185.058039 123.975701 
L 184.991875 125.645554 
L 184.958746 127.652482 
L 184.875788 126.603557 
L 184.859173 126.410626 
L 184.84255 126.968352 
L 184.725969 131.17514 
L 184.642461 131.10085 
L 184.59226 130.93453 
L 184.541989 127.918594 
L 184.474848 128.556154 
L 184.373896 131.726213 
L 184.357043 131.04541 
L 184.289548 128.133701 
L 184.238843 129.375557 
L 184.204998 130.944509 
L 184.120245 130.165023 
L 184.10327 129.460935 
L 184.052295 131.34146 
L 184.035287 131.113047 
L 183.830549 137.475341 
L 183.813434 136.471877 
L 183.710568 130.798148 
L 183.641823 131.573199 
L 183.572944 134.503757 
L 183.538453 133.776384 
L 183.417471 126.131208 
L 183.365495 128.429751 
L 183.348152 127.541602 
L 183.313441 129.547421 
L 183.278696 130.994405 
L 183.226514 129.500852 
L 183.104455 119.234472 
L 183.034516 119.387487 
L 182.753367 127.789973 
L 182.718065 126.650127 
L 182.665046 128.326632 
L 182.629655 127.054839 
L 182.558768 129.071746 
L 182.52327 131.43349 
L 182.452168 128.959757 
L 182.309532 123.771682 
L 182.202175 125.167661 
L 182.18425 125.045693 
L 182.130421 124.764058 
L 182.11246 125.004668 
L 182.058521 127.945205 
L 181.96844 130.876872 
L 181.950396 129.490872 
L 181.841937 125.788589 
L 181.823828 126.866343 
L 181.714979 132.5057 
L 181.678622 129.843471 
L 181.605793 127.528296 
L 181.551073 128.912079 
L 181.532814 128.912079 
L 181.404736 123.345903 
L 181.349702 125.277432 
L 181.220956 132.20965 
L 181.147175 129.846797 
L 181.073239 126.909586 
L 181.036213 127.574866 
L 180.9806 131.033213 
L 180.906314 129.846797 
L 180.869112 129.372231 
L 180.79459 129.403277 
L 180.701215 132.008957 
L 180.663796 131.574308 
L 180.51372 126.42504 
L 180.457277 125.766413 
L 180.438442 126.427258 
L 180.363003 125.877293 
L 180.325223 127.697943 
L 180.230595 123.26496 
L 180.154709 123.712916 
L 180.07866 127.67244 
L 179.964277 126.581381 
L 179.868674 122.36905 
L 179.83036 124.658722 
L 179.77281 124.038903 
L 179.676686 126.303072 
L 179.657429 126.494895 
L 179.638162 125.90834 
L 179.502998 123.322618 
L 179.560989 126.784292 
L 179.483646 123.81049 
L 179.444911 125.724501 
L 177.62102 127.42163 
L 177.435009 126.382684 
L 177.248012 126.140966 
L 177.060017 123.682756 
L 176.489941 127.553577 
L 176.297848 127.417195 
L 175.910494 130.243526 
L 175.518835 129.063763 
L 174.923065 125.833828 
L 174.722215 126.060024 
L 174.317051 127.44048 
L 174.112709 126.413731 
L 173.907175 127.361755 
L 173.700436 126.982545 
L 173.492477 128.959536 
L 173.283284 129.090374 
L 173.072842 129.66695 
L 172.861136 128.193355 
L 172.648151 128.279841 
L 172.433872 128.763278 
L 172.218281 129.844358 
L 172.001364 129.617054 
L 171.563484 124.839235 
L 171.342487 125.202921 
L 171.120095 126.037848 
L 170.896292 128.316432 
L 170.671058 127.548033 
L 170.444376 128.855308 
L 170.216227 128.265427 
L 169.986592 130.661544 
L 169.288571 126.560092 
L 169.052791 127.597929 
L 168.815424 127.484832 
L 168.576447 126.957043 
L 168.335839 127.423848 
L 167.849639 130.964246 
L 167.604001 130.799035 
L 167.356639 130.393214 
L 166.856646 131.069582 
L 166.093102 127.011374 
L 165.834867 128.177832 
L 165.574726 126.561201 
L 165.312651 127.616779 
L 165.048613 127.377278 
L 164.782582 130.715875 
L 164.514528 131.710468 
L 164.24442 131.897856 
L 163.972227 131.462097 
L 163.697915 129.358704 
L 163.421451 131.259187 
L 163.142802 131.547475 
L 162.861933 132.463344 
L 162.578807 131.28358 
L 162.293389 132.278174 
L 161.715525 135.327374 
L 161.423001 135.596812 
L 161.12803 134.043384 
L 160.830569 133.687459 
L 160.530576 132.677342 
L 160.228008 133.147473 
L 159.922821 130.150387 
L 159.614968 129.58379 
L 159.304403 128.639092 
L 158.991077 130.69259 
L 158.674941 130.684828 
L 157.709157 135.542481 
L 157.381258 135.730977 
L 156.716164 132.476649 
L 156.378851 132.36466 
L 155.694385 137.050449 
L 155.347102 136.353014 
L 154.996364 136.288704 
L 154.28424 134.35163 
L 153.922709 132.122942 
L 153.557432 132.619684 
L 152.815323 136.611364 
L 152.438325 134.825088 
L 152.057252 134.09328 
L 151.282519 137.731252 
L 150.888673 138.846705 
L 150.490375 137.513928 
L 150.087526 137.878723 
L 148.850595 133.68635 
L 148.428447 135.342897 
L 148.001182 137.692444 
L 147.568675 137.313235 
L 147.130795 136.346361 
L 146.687406 134.149828 
L 146.238369 135.544699 
L 145.783538 135.785308 
L 145.322761 136.952875 
L 144.855881 139.140537 
L 144.382734 138.811224 
L 143.90315 137.824392 
L 143.41695 135.341788 
L 142.92395 135.889536 
L 142.423957 137.006097 
L 141.402178 139.992096 
L 140.879962 139.918915 
L 140.349893 138.857793 
L 139.811731 139.490918 
L 139.265226 139.760356 
L 138.710113 138.441993 
L 138.146118 138.164793 
L 137.572952 137.692444 
L 136.990312 140.570889 
L 135.795319 140.454465 
L 135.182279 140.288145 
L 134.558388 138.744696 
L 133.923255 141.367008 
L 133.276468 140.289254 
L 132.617591 141.28163 
L 131.946162 139.887868 
L 131.261696 140.825913 
L 130.563675 142.216348 
L 129.851551 143.89618 
L 129.124743 144.707822 
L 128.382633 143.372827 
L 127.624563 143.101171 
L 126.84983 142.617734 
L 124.417906 141.892579 
L 123.568493 144.051412 
L 122.698105 145.688001 
L 121.80568 148.965614 
L 120.890072 148.264852 
L 119.950045 146.685921 
L 118.984261 144.123484 
L 117.991268 144.714475 
L 116.969489 144.156748 
L 115.917204 143.960491 
L 114.832536 144.982804 
L 112.557623 148.200542 
L 111.36263 147.514195 
L 110.125699 146.938728 
L 108.843779 146.8722 
L 107.513473 145.722374 
L 106.130985 143.60124 
L 104.692054 141.612052 
L 103.191874 142.308379 
L 101.624997 143.719881 
L 99.985217 143.827435 
L 98.265416 142.788489 
L 97.911153 141.923625 
L 97.732677 142.174214 
L 97.372991 144.181142 
L 97.191762 144.492715 
L 97.009597 144.41399 
L 96.642417 143.585716 
L 96.457383 142.191955 
L 96.271373 141.906993 
L 96.084375 142.089945 
L 95.517356 140.022033 
L 95.326305 141.461256 
L 95.134212 141.610944 
L 94.941067 142.261809 
L 94.746857 142.133188 
L 94.157725 144.486062 
L 93.959139 144.481627 
L 93.356579 141.824942 
L 93.153415 142.702003 
L 92.743539 146.762428 
L 92.5368 147.252518 
L 92.328841 147.001929 
L 91.6975 140.277057 
L 91.484515 140.182809 
L 91.270235 141.690777 
L 91.054645 141.975739 
L 90.837728 141.991262 
L 90.619467 141.751761 
L 90.17885 142.450305 
L 89.507422 138.650448 
L 89.052591 140.649614 
L 88.822955 141.191817 
L 88.591814 140.85696 
L 88.359147 140.728339 
L 88.124934 140.945664 
L 87.889155 140.554257 
L 87.412811 138.429796 
L 87.172203 137.960774 
L 86.929941 138.110462 
L 86.686003 138.446428 
L 86.193003 136.824254 
L 85.943893 136.738876 
L 85.69301 139.280246 
L 85.185823 146.785713 
L 84.929466 146.998603 
L 84.41109 144.333048 
L 84.149015 144.174489 
L 83.884977 143.73984 
L 83.618946 142.328337 
L 83.080784 142.970332 
L 82.80859 143.775321 
L 82.534278 142.348296 
L 82.257815 140.177265 
L 81.698296 134.904921 
L 81.129753 132.65184 
L 80.842005 131.944425 
L 80.551889 132.109636 
L 79.964393 134.744145 
L 79.666932 135.463756 
L 79.36694 135.418296 
L 79.064372 136.346361 
L 78.759185 136.859736 
L 78.451332 136.702286 
L 78.140767 135.542481 
L 77.827441 135.175468 
L 77.511305 135.245323 
L 77.160249 135.570201 
L 76.935016 137.385307 
L 76.740806 138.111571 
L 76.675831 138.111571 
L 76.349147 136.069161 
L 76.151674 136.093555 
L 76.052521 136.115731 
L 75.719981 132.390163 
L 75.552528 131.834654 
L 75.384275 133.707417 
L 75.350528 133.615387 
L 75.249092 133.431326 
L 74.908849 128.025926 
L 74.806132 128.049211 
L 74.530748 128.145676 
L 74.32279 129.567158 
L 74.218348 130.118232 
L 74.043589 129.652536 
L 73.832727 130.613865 
L 73.832727 130.613865 
" clip-path="url(#p338f9f5545)" style="fill: none; stroke: #ff0000; stroke-width: 1.5; stroke-linecap: square"/>
   </g>
   <g id="patch_3">
    <path d="M 57.6 307.584 
L 57.6 41.472 
" style="fill: none; stroke: #000000; stroke-width: 0.8; stroke-linejoin: miter; stroke-linecap: square"/>
   </g>
   <g id="patch_4">
    <path d="M 414.72 307.584 
L 414.72 41.472 
" style="fill: none; stroke: #000000; stroke-width: 0.8; stroke-linejoin: miter; stroke-linecap: square"/>
   </g>
   <g id="patch_5">
    <path d="M 57.6 307.584 
L 414.72 307.584 
" style="fill: none; stroke: #000000; stroke-width: 0.8; stroke-linejoin: miter; stroke-linecap: square"/>
   </g>
   <g id="patch_6">
    <path d="M 57.6 41.472 
L 414.72 41.472 
" style="fill: none; stroke: #000000; stroke-width: 0.8; stroke-linejoin: miter; stroke-linecap: square"/>
   </g>
   <g id="text_17">
    <!-- PLL VCO2 -->
    <g transform="translate(207.114375 35.472)scale(0.12 -0.12)">
     <defs>
      <path id="DejaVuSans-4c" d="M 628 4666 
L 1259 4666 
L 1259 531 
L 3531 531 
L 3531 0 
L 628 0 
L 628 4666 
z
" transform="scale(0.015625)"/>
      <path id="DejaVuSans-56" d="M 1831 0 
L 50 4666 
L 709 4666 
L 2188 738 
L 3669 4666 
L 4325 4666 
L 2547 0 
L 1831 0 
z
" transform="scale(0.015625)"/>
      <path id="DejaVuSans-43" d="M 4122 4306 
L 4122 3641 
Q 3803 3938 3442 4084 
Q 3081 4231 2675 4231 
Q 1875 4231 1450 3742 
Q 1025 3253 1025 2328 
Q 1025 1406 1450 917 
Q 1875 428 2675 428 
Q 3081 428 3442 575 
Q 3803 722 4122 1019 
L 4122 359 
Q 3791 134 3420 21 
Q 3050 -91 2638 -91 
Q 1578 -91 968 557 
Q 359 1206 359 2328 
Q 359 3453 968 4101 
Q 1578 4750 2638 4750 
Q 3056 4750 3426 4639 
Q 3797 4528 4122 4306 
z
" transform="scale(0.015625)"/>
      <path id="DejaVuSans-4f" d="M 2522 4238 
Q 1834 4238 1429 3725 
Q 1025 3213 1025 2328 
Q 1025 1447 1429 934 
Q 1834 422 2522 422 
Q 3209 422 3611 934 
Q 4013 1447 4013 2328 
Q 4013 3213 3611 3725 
Q 3209 4238 2522 4238 
z
M 2522 4750 
Q 3503 4750 4090 4092 
Q 4678 3434 4678 2328 
Q 4678 1225 4090 567 
Q 3503 -91 2522 -91 
Q 1538 -91 948 565 
Q 359 1222 359 2328 
Q 359 3434 948 4092 
Q 1538 4750 2522 4750 
z
" transform="scale(0.015625)"/>
     </defs>
     <use xlink:href="#DejaVuSans-50"/>
     <use xlink:href="#DejaVuSans-4c" x="60.302734"/>
     <use xlink:href="#DejaVuSans-4c" x="116.015625"/>
     <use xlink:href="#DejaVuSans-20" x="171.728516"/>
     <use xlink:href="#DejaVuSans-56" x="203.515625"/>
     <use xlink:href="#DejaVuSans-43" x="271.923828"/>
     <use xlink:href="#DejaVuSans-4f" x="341.748047"/>
     <use xlink:href="#DejaVuSans-32" x="420.458984"/>
    </g>
   </g>
   <g id="legend_1">
    <g id="patch_7">
     <path d="M 329.759063 64.150125 
L 407.72 64.150125 
Q 409.72 64.150125 409.72 62.150125 
L 409.72 48.472 
Q 409.72 46.472 407.72 46.472 
L 329.759063 46.472 
Q 327.759063 46.472 327.759063 48.472 
L 327.759063 62.150125 
Q 327.759063 64.150125 329.759063 64.150125 
z
" style="fill: #ffffff; opacity: 0.8; stroke: #cccccc; stroke-linejoin: miter"/>
    </g>
    <g id="line2d_51">
     <path d="M 331.759063 54.570438 
L 341.759063 54.570438 
L 351.759063 54.570438 
" style="fill: none; stroke: #ff0000; stroke-width: 1.5; stroke-linecap: square"/>
    </g>
    <g id="text_18">
     <!-- 4.23 GHz -->
     <g transform="translate(359.759063 58.070438)scale(0.1 -0.1)">
      <defs>
       <path id="DejaVuSans-2e" d="M 684 794 
L 1344 794 
L 1344 0 
L 684 0 
L 684 794 
z
" transform="scale(0.015625)"/>
       <path id="DejaVuSans-47" d="M 3809 666 
L 3809 1919 
L 2778 1919 
L 2778 2438 
L 4434 2438 
L 4434 434 
Q 4069 175 3628 42 
Q 3188 -91 2688 -91 
Q 1594 -91 976 548 
Q 359 1188 359 2328 
Q 359 3472 976 4111 
Q 1594 4750 2688 4750 
Q 3144 4750 3555 4637 
Q 3966 4525 4313 4306 
L 4313 3634 
Q 3963 3931 3569 4081 
Q 3175 4231 2741 4231 
Q 1884 4231 1454 3753 
Q 1025 3275 1025 2328 
Q 1025 1384 1454 906 
Q 1884 428 2741 428 
Q 3075 428 3337 486 
Q 3600 544 3809 666 
z
" transform="scale(0.015625)"/>
      </defs>
      <use xlink:href="#DejaVuSans-34"/>
      <use xlink:href="#DejaVuSans-2e" x="63.623047"/>
      <use xlink:href="#DejaVuSans-32" x="95.410156"/>
      <use xlink:href="#DejaVuSans-33" x="159.033203"/>
      <use xlink:href="#DejaVuSans-20" x="222.65625"/>
      <use xlink:href="#DejaVuSans-47" x="254.443359"/>
      <use xlink:href="#DejaVuSans-48" x="331.933594"/>
      <use xlink:href="#DejaVuSans-7a" x="407.128906"/>
     </g>
    </g>
   </g>
  </g>
 </g>
 <defs>
  <clipPath id="p338f9f5545">
   <rect x="57.6" y="41.472" width="357.12" height="266.112"/>
  </clipPath>
 </defs>
</svg>
