<?xml version="1.0" encoding="utf-8"?>
<!-- Created with "sPlan" (http://www.abacom-online.de) -->
<svg version="1.1" baseProfile="full"
xmlns="http://www.w3.org/2000/svg"
width="146mm" height="34mm"
viewBox="0 0 1462 341">
<title>blokovna_shema_LO1</title>
<defs>
<style type="text/css">
<![CDATA[
polyline {stroke-linecap:round; stroke-linejoin:round}
polygon {stroke-linecap:round; stroke-linejoin:round}
path {stroke-linecap:round; stroke-linejoin:round}
circle {stroke-linecap:round; stroke-linejoin:round}
]]>
</style>
</defs>
<path fill="rgb(214,214,214)" stroke="none" stroke-width="2" d=" M 891 91 L 1131 91 1131 211 891 211 891 91 Z" />
<circle cx="1071.12" cy="151.00" r="50.12" fill="none" stroke="rgb(0,0,0)" stroke-width="2" />
<path fill="none" stroke="rgb(0,0,0)" stroke-width="2" d=" M 1035 153 C 1048 126 1057 126 1070 153 C 1083 181 1092 181 1105 153" />
<path fill="none" stroke="rgb(0,0,0)" stroke-width="2" d=" M 901 101 L 1001 101 1001 201 901 201 901 101 Z" />
<path fill="rgb(0,0,0)" stroke="rgb(0,0,0)" stroke-width="0" d=" M 922.71 163.36 L 922.73 137.76 932.22 137.76 933.18 137.77 934.04 137.80 934.80 137.85 935.47 137.92 936.05 138.01 936.77 138.16 937.44 138.35 938.06 138.59 938.63 138.87 939.16 139.20 939.64 139.59 940.08 140.02 940.48 140.52 940.85 141.07 941.17 141.68 941.44 142.33 941.66 143.00 941.81 143.70 941.90 144.42 941.93 145.17 941.85 146.44 941.60 147.62 941.19 148.73 940.61 149.76 939.87 150.70 938.91 151.52 937.69 152.15 936.20 152.60 934.45 152.87 932.43 152.96 925.92 152.96 925.91 163.36 Z M 925.92 149.76 L 932.62 149.76 933.87 149.72 934.96 149.58 935.91 149.34 936.70 149.01 937.33 148.59 937.83 148.08 938.23 147.50 938.51 146.83 938.67 146.10 938.73 145.28 938.70 144.68 938.60 144.11 938.43 143.58 938.20 143.09 937.91 142.63 937.56 142.22 937.17 141.87 936.74 141.58 936.27 141.35 935.75 141.18 935.35 141.10 934.82 141.04 934.18 141.00 933.43 140.97 932.55 140.96 925.93 140.96 Z M 946.31 163.36 L 946.33 137.76 949.53 137.76 949.52 160.16 962.32 160.16 962.31 163.36 Z M 965.91 163.36 L 965.93 137.76 969.13 137.76 969.12 160.16 981.92 160.16 981.91 163.36 Z" />
<polyline points="1001.00 151.00 1021.00 151.00" fill="none" stroke="rgb(0,0,0)" stroke-width="2" />
<circle cx="521.12" cy="151.00" r="50.12" fill="none" stroke="rgb(0,0,0)" stroke-width="2" />
<path fill="none" stroke="rgb(0,0,0)" stroke-width="2" d=" M 485 153 C 498 126 507 126 520 153 C 533 181 542 181 555 153" />
<path fill="none" stroke="rgb(0,0,0)" stroke-width="2" d=" M 211 101 L 311 101 311 201 211 201 211 101 Z" />
<path fill="rgb(0,0,0)" stroke="rgb(0,0,0)" stroke-width="0" d=" M 232.71 163.36 L 232.73 137.76 242.22 137.76 243.18 137.77 244.04 137.80 244.80 137.85 245.47 137.92 246.05 138.01 246.77 138.16 247.44 138.35 248.06 138.59 248.63 138.87 249.16 139.20 249.64 139.59 250.08 140.02 250.48 140.52 250.85 141.07 251.17 141.68 251.44 142.33 251.66 143.00 251.81 143.70 251.90 144.42 251.93 145.17 251.85 146.44 251.60 147.62 251.19 148.73 250.61 149.76 249.87 150.70 248.91 151.52 247.69 152.15 246.20 152.60 244.45 152.87 242.43 152.96 235.92 152.96 235.91 163.36 Z M 235.92 149.76 L 242.62 149.76 243.87 149.72 244.96 149.58 245.91 149.34 246.70 149.01 247.33 148.59 247.83 148.08 248.23 147.50 248.51 146.83 248.67 146.10 248.73 145.28 248.70 144.68 248.60 144.11 248.43 143.58 248.20 143.09 247.91 142.63 247.56 142.22 247.17 141.87 246.74 141.58 246.27 141.35 245.75 141.18 245.35 141.10 244.82 141.04 244.18 141.00 243.43 140.97 242.55 140.96 235.93 140.96 Z M 256.31 163.36 L 256.33 137.76 259.53 137.76 259.52 160.16 272.32 160.16 272.31 163.36 Z M 275.91 163.36 L 275.93 137.76 279.13 137.76 279.12 160.16 291.92 160.16 291.91 163.36 Z" />
<path fill="rgb(0,0,0)" stroke="rgb(0,0,0)" stroke-width="0" d=" M 942.20 78.40 L 944.60 78.40 944.69 78.96 944.81 79.49 944.96 79.97 945.15 80.41 945.38 80.80 945.65 81.16 945.97 81.50 946.35 81.80 946.78 82.08 947.26 82.32 947.79 82.53 948.34 82.69 948.91 82.81 949.51 82.88 950.14 82.90 950.70 82.88 951.22 82.83 951.73 82.74 952.20 82.62 952.65 82.46 953.06 82.27 953.43 82.06 953.76 81.82 954.04 81.55 954.27 81.26 954.46 80.95 954.61 80.63 954.72 80.31 954.78 79.98 954.80 79.65 954.79 79.31 954.74 79.00 954.66 78.70 954.55 78.41 954.41 78.15 954.22 77.90 953.96 77.67 953.63 77.45 953.24 77.25 952.78 77.06 952.39 76.93 951.84 76.77 951.14 76.59 950.29 76.38 949.29 76.14 948.27 75.90 947.38 75.66 946.63 75.42 946.01 75.19 945.52 74.96 945.00 74.66 944.54 74.33 944.13 73.97 943.78 73.59 943.48 73.17 943.24 72.74 943.06 72.28 942.92 71.80 942.84 71.31 942.81 70.79 942.85 70.21 942.95 69.66 943.12 69.11 943.35 68.58 943.65 68.07 944.01 67.59 944.44 67.16 944.93 66.77 945.47 66.44 946.08 66.15 946.74 65.92 947.42 65.74 948.13 65.60 948.87 65.53 949.64 65.50 950.48 65.53 951.28 65.61 952.04 65.75 952.76 65.94 953.44 66.18 954.06 66.48 954.63 66.83 955.14 67.24 955.58 67.69 955.96 68.20 956.29 68.74 956.54 69.31 956.73 69.91 956.86 70.54 956.91 71.20 954.51 71.20 954.40 70.58 954.20 70.02 953.93 69.53 953.58 69.10 953.16 68.73 952.65 68.43 952.05 68.20 951.37 68.03 950.60 67.93 949.73 67.90 948.84 67.93 948.05 68.03 947.36 68.20 946.78 68.43 946.29 68.72 945.91 69.07 945.60 69.44 945.39 69.84 945.26 70.26 945.21 70.72 945.24 71.11 945.34 71.47 945.49 71.80 945.70 72.11 945.98 72.38 946.37 72.64 946.96 72.91 947.75 73.18 948.72 73.45 949.89 73.72 951.08 73.99 952.09 74.24 952.94 74.48 953.62 74.71 954.14 74.93 954.74 75.25 955.27 75.61 955.73 76.00 956.13 76.42 956.46 76.87 956.73 77.36 956.94 77.87 957.09 78.41 957.18 78.99 957.20 79.59 957.17 80.19 957.07 80.78 956.89 81.35 956.65 81.91 956.34 82.46 955.97 82.97 955.53 83.44 955.04 83.86 954.48 84.23 953.86 84.55 953.20 84.82 952.51 85.03 951.78 85.18 951.02 85.27 950.23 85.30 949.24 85.27 948.32 85.17 947.46 85.01 946.67 84.78 945.95 84.49 945.29 84.14 944.68 83.72 944.14 83.23 943.66 82.68 943.24 82.07 942.88 81.40 942.60 80.70 942.39 79.97 942.26 79.20 942.20 78.40 Z M 965.60 85.00 L 965.62 68.20 959.32 68.20 959.32 65.80 974.32 65.80 974.32 68.20 968.02 68.20 968.00 85.00 Z M 985.70 85.00 L 985.70 82.58 985.02 83.56 984.24 84.32 983.38 84.86 982.42 85.19 981.37 85.30 980.89 85.28 980.43 85.22 979.98 85.13 979.54 84.99 979.11 84.82 978.71 84.62 978.36 84.40 978.05 84.16 977.78 83.90 977.56 83.62 977.36 83.32 977.20 82.99 977.06 82.64 976.94 82.26 976.85 81.85 976.79 81.54 976.76 81.16 976.73 80.71 976.71 80.20 976.70 79.62 976.71 70.90 979.11 70.90 979.10 78.49 979.11 79.17 979.13 79.76 979.16 80.25 979.20 80.64 979.25 80.94 979.36 81.29 979.51 81.61 979.70 81.90 979.93 82.15 980.20 82.38 980.50 82.57 980.83 82.71 981.19 82.82 981.57 82.88 981.98 82.90 982.41 82.88 982.82 82.81 983.22 82.71 983.61 82.56 983.99 82.37 984.34 82.14 984.65 81.88 984.92 81.59 985.14 81.26 985.32 80.91 985.46 80.51 985.57 80.04 985.64 79.51 985.69 78.90 985.71 78.24 985.71 70.90 988.11 70.90 988.10 85.00 Z M 995.14 85.00 L 989.92 65.80 992.39 65.80 995.42 78.42 995.61 79.20 995.79 79.98 995.98 80.76 996.17 81.54 996.35 82.31 996.67 81.22 996.93 80.33 997.13 79.64 997.27 79.16 997.36 78.87 1001.18 65.80 1004.75 65.80 1007.50 75.27 1008.01 76.68 1008.47 78.09 1008.88 79.49 1009.24 80.90 1009.55 82.31 1009.70 81.70 1009.86 81.02 1010.05 80.26 1010.25 79.43 1010.46 78.53 1013.54 65.80 1016.02 65.80 1010.76 85.00 1008.20 85.00 1003.61 70.19 1003.40 69.53 1003.24 68.99 1003.11 68.57 1003.02 68.29 1002.97 68.12 1002.79 68.72 1002.63 69.27 1002.49 69.77 1002.36 70.21 1002.24 70.61 998.03 85.00 Z M 1019.51 74.43 L 1018.95 74.20 1018.45 73.94 1018.01 73.64 1017.64 73.30 1017.32 72.93 1017.07 72.53 1016.87 72.10 1016.73 71.63 1016.64 71.14 1016.61 70.61 1016.68 69.82 1016.86 69.09 1017.17 68.40 1017.61 67.77 1018.17 67.19 1018.83 66.69 1019.57 66.30 1020.39 66.02 1021.30 65.86 1022.29 65.80 1023.28 65.86 1024.19 66.03 1025.02 66.31 1025.77 66.71 1026.44 67.22 1027.01 67.81 1027.45 68.46 1027.76 69.15 1027.95 69.89 1028.01 70.68 1027.99 71.19 1027.90 71.66 1027.76 72.12 1027.56 72.54 1027.31 72.94 1027.00 73.31 1026.63 73.64 1026.21 73.94 1025.72 74.20 1025.18 74.43 1025.82 74.69 1026.40 75.01 1026.91 75.38 1027.35 75.82 1027.73 76.31 1028.05 76.85 1028.29 77.43 1028.47 78.05 1028.57 78.71 1028.60 79.41 1028.54 80.38 1028.33 81.28 1027.98 82.12 1027.49 82.89 1026.87 83.60 1026.13 84.21 1025.30 84.69 1024.39 85.03 1023.39 85.23 1022.30 85.30 1021.21 85.23 1020.21 85.03 1019.30 84.69 1018.47 84.21 1017.74 83.60 1017.11 82.88 1016.63 82.10 1016.28 81.25 1016.07 80.33 1016.00 79.35 1016.04 78.61 1016.15 77.93 1016.34 77.29 1016.59 76.71 1016.92 76.17 1017.31 75.69 1017.77 75.28 1018.29 74.93 1018.87 74.64 1019.51 74.43 Z M 1019.01 70.68 L 1019.05 71.13 1019.15 71.54 1019.32 71.92 1019.56 72.26 1019.86 72.57 1020.24 72.83 1020.67 73.04 1021.16 73.18 1021.72 73.27 1022.34 73.30 1022.95 73.27 1023.49 73.18 1023.98 73.04 1024.40 72.83 1024.77 72.57 1025.07 72.27 1025.31 71.94 1025.48 71.58 1025.58 71.20 1025.61 70.79 1025.58 70.37 1025.47 69.97 1025.30 69.60 1025.06 69.26 1024.74 68.95 1024.37 68.68 1023.94 68.47 1023.45 68.32 1022.91 68.23 1022.32 68.20 1021.72 68.23 1021.17 68.32 1020.69 68.46 1020.26 68.67 1019.88 68.93 1019.57 69.24 1019.33 69.56 1019.15 69.91 1019.05 70.29 1019.01 70.68 Z M 1018.40 79.26 L 1018.42 79.63 1018.47 80.00 1018.55 80.36 1018.66 80.72 1018.81 81.07 1018.99 81.40 1019.22 81.71 1019.51 81.98 1019.84 82.21 1020.22 82.42 1020.63 82.59 1021.04 82.73 1021.46 82.82 1021.89 82.88 1022.32 82.90 1023.02 82.86 1023.66 82.74 1024.23 82.54 1024.74 82.26 1025.18 81.89 1025.55 81.47 1025.84 81.00 1026.04 80.49 1026.16 79.94 1026.20 79.34 1026.16 78.73 1026.04 78.16 1025.83 77.64 1025.53 77.17 1025.15 76.73 1024.70 76.36 1024.18 76.07 1023.60 75.86 1022.96 75.74 1022.25 75.70 1021.56 75.74 1020.93 75.86 1020.36 76.07 1019.86 76.35 1019.42 76.72 1019.06 77.14 1018.77 77.61 1018.57 78.12 1018.45 78.67 1018.40 79.26 Z M 1039.70 85.00 L 1037.30 85.00 1037.31 70.04 1036.95 70.36 1036.53 70.69 1036.08 71.01 1035.58 71.33 1035.04 71.66 1034.49 71.96 1033.96 72.24 1033.46 72.48 1032.97 72.69 1032.51 72.87 1032.51 70.60 1033.30 70.21 1034.04 69.80 1034.75 69.35 1035.41 68.87 1036.03 68.35 1036.60 67.83 1037.10 67.31 1037.53 66.80 1037.89 66.30 1038.17 65.80 1039.72 65.80 Z M 1045.40 79.90 L 1047.80 79.60 1047.99 80.26 1048.21 80.85 1048.48 81.35 1048.78 81.78 1049.13 82.13 1049.52 82.40 1049.96 82.62 1050.45 82.78 1051.00 82.87 1051.60 82.90 1052.30 82.86 1052.95 82.73 1053.53 82.52 1054.06 82.22 1054.52 81.84 1054.91 81.39 1055.21 80.90 1055.43 80.38 1055.56 79.81 1055.60 79.20 1055.56 78.62 1055.44 78.08 1055.22 77.59 1054.92 77.13 1054.54 76.72 1054.08 76.37 1053.58 76.09 1053.04 75.89 1052.45 75.78 1051.81 75.74 1051.52 75.75 1051.21 75.78 1050.88 75.83 1050.51 75.91 1050.12 76.00 1050.40 73.60 1050.49 73.61 1050.57 73.62 1050.65 73.62 1050.72 73.63 1050.78 73.63 1051.37 73.60 1051.94 73.52 1052.49 73.38 1053.01 73.19 1053.50 72.94 1053.94 72.63 1054.28 72.27 1054.52 71.85 1054.67 71.36 1054.71 70.82 1054.68 70.38 1054.57 69.98 1054.40 69.60 1054.15 69.26 1053.84 68.94 1053.47 68.68 1053.06 68.47 1052.61 68.32 1052.12 68.23 1051.58 68.20 1051.05 68.23 1050.56 68.32 1050.10 68.47 1049.68 68.68 1049.29 68.95 1048.95 69.28 1048.66 69.67 1048.43 70.12 1048.25 70.63 1048.11 71.20 1045.71 70.90 1045.93 69.97 1046.24 69.13 1046.63 68.38 1047.11 67.71 1047.68 67.14 1048.33 66.65 1049.03 66.28 1049.79 66.01 1050.62 65.85 1051.50 65.80 1052.12 65.83 1052.72 65.91 1053.29 66.04 1053.85 66.22 1054.39 66.46 1054.90 66.74 1055.35 67.06 1055.76 67.42 1056.11 67.82 1056.42 68.26 1056.67 68.72 1056.87 69.19 1057.00 69.68 1057.09 70.17 1057.11 70.68 1057.09 71.16 1057.01 71.62 1056.87 72.06 1056.69 72.48 1056.45 72.89 1056.15 73.28 1055.81 73.63 1055.42 73.94 1054.97 74.23 1054.47 74.48 1055.12 74.67 1055.71 74.93 1056.23 75.26 1056.69 75.66 1057.09 76.12 1057.42 76.65 1057.68 77.22 1057.86 77.84 1057.97 78.52 1058.00 79.24 1057.93 80.23 1057.71 81.15 1057.34 82.00 1056.83 82.80 1056.16 83.54 1055.39 84.17 1054.54 84.67 1053.61 85.02 1052.60 85.23 1051.52 85.30 1050.54 85.24 1049.63 85.06 1048.79 84.76 1048.01 84.34 1047.31 83.80 1046.70 83.16 1046.20 82.45 1045.82 81.67 1045.56 80.82 1045.40 79.90 Z M 1060.11 75.55 L 1060.14 74.25 1060.23 73.05 1060.37 71.94 1060.57 70.94 1060.82 70.03 1061.13 69.22 1061.50 68.49 1061.92 67.86 1062.39 67.31 1062.92 66.85 1063.50 66.47 1064.15 66.18 1064.85 65.97 1065.60 65.84 1066.42 65.80 1067.03 65.82 1067.61 65.90 1068.17 66.02 1068.71 66.20 1069.22 66.42 1069.70 66.69 1070.13 67.00 1070.52 67.36 1070.86 67.76 1071.16 68.20 1071.42 68.69 1071.67 69.22 1071.89 69.78 1072.10 70.39 1072.28 71.04 1072.44 71.76 1072.56 72.57 1072.64 73.47 1072.69 74.47 1072.71 75.55 1072.68 76.85 1072.59 78.05 1072.45 79.15 1072.26 80.15 1072.00 81.06 1071.70 81.87 1071.33 82.59 1070.91 83.23 1070.44 83.78 1069.91 84.25 1069.33 84.63 1068.68 84.92 1067.98 85.13 1067.22 85.26 1066.40 85.30 1065.33 85.23 1064.36 85.01 1063.48 84.64 1062.70 84.13 1062.01 83.47 1061.33 82.34 1060.79 80.99 1060.41 79.40 1060.18 77.59 1060.11 75.55 Z M 1062.51 75.55 L 1062.55 77.25 1062.69 78.70 1062.91 79.89 1063.22 80.83 1063.63 81.51 1064.10 82.01 1064.61 82.40 1065.16 82.68 1065.76 82.84 1066.40 82.90 1067.04 82.84 1067.64 82.68 1068.19 82.40 1068.71 82.01 1069.18 81.51 1069.58 80.82 1069.90 79.88 1070.13 78.69 1070.26 77.25 1070.31 75.55 1070.27 73.90 1070.14 72.48 1069.92 71.30 1069.62 70.36 1069.23 69.66 1068.77 69.13 1068.25 68.72 1067.69 68.43 1067.06 68.26 1066.39 68.20 1065.75 68.25 1065.16 68.41 1064.62 68.66 1064.13 69.02 1063.68 69.48 1063.26 70.25 1062.93 71.24 1062.70 72.46 1062.56 73.89 1062.51 75.55 Z M 1074.81 75.55 L 1074.84 74.25 1074.93 73.05 1075.07 71.94 1075.27 70.94 1075.52 70.03 1075.83 69.22 1076.20 68.49 1076.62 67.86 1077.09 67.31 1077.62 66.85 1078.20 66.47 1078.85 66.18 1079.55 65.97 1080.30 65.84 1081.12 65.80 1081.73 65.82 1082.31 65.90 1082.87 66.02 1083.41 66.20 1083.92 66.42 1084.40 66.69 1084.83 67.00 1085.22 67.36 1085.56 67.76 1085.86 68.20 1086.12 68.69 1086.37 69.22 1086.59 69.78 1086.80 70.39 1086.98 71.04 1087.14 71.76 1087.26 72.57 1087.34 73.47 1087.39 74.47 1087.41 75.55 1087.38 76.85 1087.29 78.05 1087.15 79.15 1086.96 80.15 1086.70 81.06 1086.40 81.87 1086.03 82.59 1085.61 83.23 1085.14 83.78 1084.61 84.25 1084.03 84.63 1083.38 84.92 1082.68 85.13 1081.92 85.26 1081.10 85.30 1080.03 85.23 1079.06 85.01 1078.18 84.64 1077.40 84.13 1076.71 83.47 1076.03 82.34 1075.49 80.99 1075.11 79.40 1074.88 77.59 1074.81 75.55 Z M 1077.21 75.55 L 1077.25 77.25 1077.39 78.70 1077.61 79.89 1077.92 80.83 1078.33 81.51 1078.80 82.01 1079.31 82.40 1079.86 82.68 1080.46 82.84 1081.10 82.90 1081.74 82.84 1082.34 82.68 1082.89 82.40 1083.41 82.01 1083.88 81.51 1084.28 80.82 1084.60 79.88 1084.83 78.69 1084.96 77.25 1085.01 75.55 1084.97 73.90 1084.84 72.48 1084.62 71.30 1084.32 70.36 1083.93 69.66 1083.47 69.13 1082.95 68.72 1082.39 68.43 1081.76 68.26 1081.09 68.20 1080.45 68.25 1079.86 68.41 1079.32 68.66 1078.83 69.02 1078.38 69.48 1077.96 70.25 1077.63 71.24 1077.40 72.46 1077.26 73.89 1077.21 75.55 Z" />
<path fill="rgb(0,0,0)" stroke="rgb(0,0,0)" stroke-width="0" d=" M 206.70 92.00 L 206.72 72.80 209.12 72.80 209.10 89.60 218.70 89.60 218.70 92.00 Z M 221.40 92.00 L 221.42 72.80 225.55 72.80 229.46 86.33 229.67 87.05 229.85 87.69 230.01 88.26 230.14 88.75 230.25 89.16 230.38 88.70 230.52 88.17 230.70 87.56 230.89 86.87 231.11 86.10 234.99 72.80 239.12 72.80 239.10 92.00 236.70 92.00 236.72 75.20 231.88 92.00 228.62 92.00 223.82 75.20 223.80 92.00 Z M 241.50 92.00 L 248.91 81.54 242.72 72.80 245.60 72.80 249.08 77.72 249.48 78.28 249.79 78.76 250.03 79.14 250.18 79.43 250.26 79.63 250.49 79.31 250.75 78.95 251.02 78.56 251.32 78.14 251.64 77.68 255.10 72.80 258.02 72.80 251.81 81.57 259.20 92.00 256.32 92.00 251.40 85.04 251.23 84.80 251.04 84.53 250.83 84.25 250.61 83.93 250.37 83.60 250.06 84.05 249.79 84.43 249.56 84.74 249.38 85.00 249.24 85.18 244.42 92.00 Z M 272.70 89.60 L 272.70 92.00 260.10 92.00 260.10 91.66 260.13 91.32 260.18 90.99 260.26 90.67 260.36 90.35 260.56 89.82 260.81 89.31 261.10 88.80 261.44 88.29 261.82 87.80 262.26 87.29 262.78 86.76 263.39 86.20 264.07 85.62 264.83 85.02 265.99 84.02 266.98 83.13 267.81 82.33 268.48 81.62 268.98 81.02 269.35 80.46 269.64 79.91 269.85 79.37 269.97 78.83 270.01 78.30 269.97 77.79 269.86 77.32 269.66 76.88 269.39 76.47 269.04 76.10 268.62 75.77 268.16 75.52 267.65 75.34 267.09 75.24 266.49 75.20 265.85 75.24 265.26 75.34 264.73 75.52 264.25 75.76 263.83 76.08 263.47 76.45 263.19 76.89 262.98 77.37 262.86 77.91 262.81 78.50 260.41 78.20 260.57 77.20 260.83 76.29 261.20 75.49 261.67 74.79 262.26 74.18 262.94 73.68 263.71 73.30 264.57 73.02 265.51 72.86 266.54 72.80 267.58 72.86 268.53 73.05 269.39 73.35 270.16 73.78 270.84 74.34 271.41 74.98 271.85 75.69 272.16 76.45 272.35 77.27 272.41 78.15 272.40 78.61 272.35 79.07 272.26 79.53 272.14 79.98 271.98 80.43 271.79 80.88 271.55 81.34 271.27 81.81 270.94 82.29 270.56 82.78 270.11 83.31 269.54 83.90 268.85 84.56 268.04 85.28 267.12 86.07 266.34 86.71 265.67 87.26 265.12 87.72 264.68 88.09 264.36 88.38 264.11 88.62 263.87 88.87 263.66 89.11 263.46 89.35 263.28 89.60 Z M 282.90 92.00 L 282.90 87.50 274.20 87.50 274.21 85.10 283.52 73.10 285.32 73.10 285.31 85.10 287.71 85.10 287.70 87.50 285.30 87.50 285.30 92.00 Z M 282.91 85.10 L 282.91 77.68 277.16 85.10 Z M 290.10 87.20 L 292.50 86.90 292.64 87.50 292.81 88.02 293.03 88.48 293.28 88.87 293.58 89.19 293.92 89.45 294.29 89.64 294.70 89.79 295.14 89.87 295.62 89.90 296.04 89.88 296.44 89.83 296.83 89.74 297.21 89.61 297.57 89.44 297.90 89.25 298.20 89.03 298.47 88.78 298.69 88.52 298.89 88.22 299.06 87.89 299.22 87.52 299.38 87.10 299.53 86.64 299.67 86.14 299.80 85.60 299.90 85.06 299.97 84.50 300.01 83.93 300.02 83.35 300.02 83.28 300.02 83.20 300.02 83.11 300.01 83.00 300.01 82.88 299.71 83.31 299.36 83.71 298.98 84.08 298.55 84.41 298.09 84.70 297.59 84.95 297.08 85.15 296.55 85.29 296.01 85.37 295.45 85.40 294.53 85.33 293.67 85.13 292.87 84.79 292.13 84.31 291.45 83.69 290.86 82.97 290.40 82.16 290.07 81.26 289.88 80.27 289.81 79.20 289.88 78.09 290.09 77.07 290.44 76.14 290.92 75.31 291.54 74.56 292.26 73.93 293.05 73.43 293.91 73.08 294.84 72.87 295.84 72.80 296.58 72.84 297.29 72.96 297.97 73.16 298.63 73.44 299.26 73.80 299.85 74.24 300.38 74.74 300.85 75.31 301.26 75.95 301.61 76.66 301.90 77.47 302.12 78.41 302.28 79.49 302.38 80.69 302.41 82.03 302.38 83.44 302.28 84.72 302.12 85.89 301.89 86.94 301.60 87.86 301.25 88.69 300.83 89.43 300.36 90.09 299.82 90.67 299.21 91.17 298.56 91.57 297.86 91.89 297.12 92.12 296.34 92.25 295.51 92.30 294.64 92.25 293.83 92.09 293.10 91.82 292.43 91.44 291.82 90.96 291.30 90.38 290.86 89.72 290.52 88.97 290.27 88.13 290.10 87.20 Z M 300.01 79.14 L 299.97 78.45 299.85 77.81 299.64 77.24 299.35 76.72 298.98 76.26 298.54 75.88 298.04 75.58 297.49 75.37 296.89 75.24 296.23 75.20 295.55 75.25 294.92 75.38 294.34 75.61 293.82 75.93 293.34 76.35 292.94 76.83 292.62 77.37 292.39 77.97 292.26 78.61 292.21 79.32 292.25 79.95 292.38 80.53 292.59 81.06 292.89 81.54 293.27 81.98 293.73 82.34 294.25 82.63 294.82 82.84 295.46 82.96 296.16 83.00 296.81 82.96 297.41 82.84 297.96 82.63 298.47 82.34 298.92 81.98 299.32 81.53 299.62 81.03 299.84 80.46 299.97 79.83 300.01 79.14 Z M 313.50 92.00 L 311.10 92.00 311.11 77.04 310.75 77.36 310.33 77.69 309.88 78.01 309.38 78.33 308.84 78.66 308.29 78.96 307.76 79.24 307.26 79.48 306.77 79.69 306.31 79.87 306.31 77.60 307.10 77.21 307.84 76.80 308.55 76.35 309.21 75.87 309.83 75.35 310.40 74.83 310.90 74.31 311.33 73.80 311.69 73.30 311.97 72.80 313.52 72.80 Z" />
<path fill="rgb(0,0,0)" stroke="rgb(0,0,0)" stroke-width="0" d=" M 468.72 91.34 L 468.74 72.14 472.87 72.14 476.78 85.67 476.99 86.39 477.17 87.03 477.33 87.60 477.46 88.09 477.57 88.50 477.70 88.04 477.84 87.51 478.01 86.90 478.21 86.21 478.43 85.44 482.31 72.14 486.44 72.14 486.42 91.34 484.02 91.34 484.04 74.54 479.19 91.34 475.94 91.34 471.14 74.54 471.12 91.34 Z M 488.68 91.34 L 496.37 72.14 498.41 72.14 506.05 91.34 503.52 91.34 501.32 85.34 493.42 85.34 491.22 91.34 Z M 494.30 82.94 L 500.45 82.94 498.73 78.22 498.39 77.30 498.09 76.47 497.82 75.73 497.59 75.09 497.39 74.54 497.17 75.14 496.94 75.76 496.70 76.41 496.45 77.10 496.19 77.81 Z M 506.52 91.34 L 513.93 80.88 507.74 72.14 510.62 72.14 514.10 77.06 514.49 77.63 514.81 78.10 515.04 78.48 515.20 78.78 515.28 78.98 515.51 78.65 515.77 78.29 516.04 77.90 516.34 77.48 516.66 77.03 520.12 72.14 523.04 72.14 516.83 80.91 524.22 91.34 521.34 91.34 516.42 84.38 516.25 84.14 516.06 83.87 515.85 83.59 515.63 83.27 515.39 82.94 515.07 83.39 514.80 83.77 514.58 84.08 514.40 84.34 514.26 84.53 509.44 91.34 Z M 537.72 88.94 L 537.72 91.34 525.12 91.34 525.12 91.00 525.15 90.66 525.20 90.33 525.28 90.01 525.38 89.69 525.58 89.16 525.83 88.65 526.12 88.14 526.46 87.64 526.84 87.14 527.28 86.63 527.80 86.10 528.40 85.54 529.09 84.96 529.85 84.36 531.01 83.36 532.00 82.47 532.83 81.67 533.50 80.96 533.99 80.36 534.37 79.80 534.66 79.25 534.87 78.71 534.99 78.17 535.03 77.64 534.99 77.13 534.88 76.66 534.68 76.22 534.41 75.81 534.06 75.44 533.64 75.12 533.18 74.86 532.67 74.68 532.11 74.58 531.51 74.54 530.87 74.58 530.28 74.68 529.75 74.86 529.27 75.10 528.84 75.42 528.48 75.79 528.20 76.23 528.00 76.71 527.88 77.25 527.83 77.84 525.43 77.54 525.59 76.54 525.85 75.63 526.22 74.83 526.69 74.13 527.28 73.52 527.96 73.03 528.73 72.64 529.58 72.36 530.53 72.20 531.56 72.14 532.60 72.20 533.55 72.39 534.41 72.69 535.18 73.12 535.85 73.68 536.42 74.32 536.87 75.03 537.18 75.79 537.37 76.61 537.43 77.49 537.42 77.96 537.36 78.41 537.28 78.87 537.16 79.32 537.00 79.77 536.81 80.22 536.57 80.68 536.29 81.15 535.96 81.63 535.58 82.12 535.13 82.65 534.56 83.24 533.87 83.90 533.06 84.62 532.14 85.41 531.36 86.05 530.69 86.60 530.14 87.06 529.70 87.43 529.38 87.72 529.13 87.96 528.89 88.21 528.67 88.45 528.48 88.70 528.30 88.94 Z M 552.43 77.24 L 550.03 77.54 549.89 77.02 549.73 76.56 549.55 76.16 549.35 75.82 549.13 75.54 548.72 75.18 548.27 74.90 547.79 74.70 547.28 74.58 546.72 74.54 546.27 74.56 545.83 74.63 545.39 74.75 544.97 74.91 544.56 75.12 544.18 75.45 543.82 75.83 543.49 76.27 543.19 76.76 542.91 77.30 542.68 77.93 542.49 78.68 542.35 79.53 542.27 80.50 542.23 81.58 542.59 81.09 542.98 80.66 543.41 80.27 543.86 79.94 544.35 79.67 544.85 79.44 545.37 79.27 545.89 79.14 546.43 79.07 546.97 79.04 547.90 79.11 548.77 79.31 549.59 79.66 550.35 80.14 551.05 80.75 551.65 81.48 552.12 82.28 552.46 83.16 552.66 84.13 552.72 85.17 552.69 85.87 552.60 86.56 552.44 87.22 552.21 87.86 551.93 88.48 551.59 89.07 551.20 89.59 550.76 90.06 550.28 90.47 549.75 90.83 549.18 91.12 548.58 91.35 547.95 91.51 547.29 91.61 546.60 91.64 545.45 91.55 544.38 91.30 543.40 90.86 542.51 90.26 541.71 89.48 541.03 88.51 540.50 87.31 540.13 85.89 539.90 84.25 539.83 82.38 539.91 80.28 540.17 78.43 540.59 76.82 541.18 75.46 541.94 74.33 542.72 73.54 543.61 72.93 544.59 72.49 545.68 72.23 546.87 72.14 547.77 72.19 548.59 72.36 549.35 72.63 550.04 73.01 550.67 73.50 551.21 74.08 551.66 74.74 552.01 75.49 552.27 76.33 552.43 77.24 Z M 542.22 85.13 L 542.25 85.57 542.31 85.99 542.42 86.40 542.58 86.81 542.78 87.21 543.02 87.59 543.28 87.93 543.58 88.23 543.90 88.50 544.25 88.72 544.63 88.91 545.04 89.05 545.47 89.16 545.93 89.22 546.41 89.24 547.09 89.20 547.71 89.07 548.27 88.85 548.79 88.55 549.24 88.17 549.63 87.71 549.93 87.19 550.15 86.60 550.28 85.96 550.32 85.25 550.28 84.57 550.16 83.95 549.94 83.40 549.65 82.90 549.27 82.46 548.81 82.09 548.29 81.81 547.70 81.60 547.04 81.48 546.32 81.44 545.66 81.48 545.04 81.60 544.46 81.81 543.92 82.09 543.42 82.46 542.99 82.89 542.66 83.38 542.42 83.91 542.27 84.50 542.22 85.13 Z M 554.83 81.90 L 554.86 80.59 554.94 79.39 555.09 78.28 555.29 77.28 555.54 76.37 555.85 75.56 556.22 74.83 556.63 74.20 557.11 73.65 557.64 73.19 558.22 72.81 558.86 72.52 559.56 72.31 560.32 72.18 561.14 72.14 561.75 72.17 562.33 72.24 562.89 72.36 563.43 72.54 563.94 72.76 564.42 73.03 564.85 73.34 565.24 73.70 565.58 74.10 565.88 74.54 566.14 75.03 566.39 75.56 566.61 76.12 566.82 76.73 567.00 77.38 567.15 78.10 567.28 78.91 567.36 79.81 567.41 80.81 567.43 81.90 567.40 83.19 567.31 84.39 567.17 85.49 566.97 86.49 566.72 87.40 566.41 88.21 566.05 88.93 565.63 89.57 565.16 90.12 564.63 90.59 564.05 90.97 563.40 91.26 562.70 91.47 561.94 91.60 561.12 91.64 560.05 91.57 559.08 91.35 558.20 90.98 557.42 90.47 556.73 89.81 556.04 88.68 555.51 87.33 555.13 85.75 554.90 83.93 554.83 81.90 Z M 557.23 81.89 L 557.27 83.59 557.40 85.04 557.63 86.23 557.94 87.17 558.35 87.85 558.82 88.35 559.33 88.74 559.88 89.02 560.48 89.19 561.12 89.24 561.76 89.18 562.35 89.02 562.91 88.74 563.42 88.35 563.90 87.85 564.30 87.16 564.62 86.22 564.84 85.03 564.98 83.59 565.03 81.89 564.99 80.24 564.86 78.82 564.64 77.64 564.34 76.70 563.95 76.00 563.49 75.47 562.97 75.07 562.40 74.77 561.78 74.60 561.11 74.54 560.47 74.59 559.88 74.75 559.34 75.00 558.84 75.36 558.39 75.83 557.98 76.59 557.65 77.59 557.42 78.80 557.28 80.23 557.23 81.89 Z M 569.82 86.54 L 572.22 86.24 572.36 86.84 572.53 87.37 572.75 87.82 573.00 88.21 573.30 88.53 573.63 88.79 574.01 88.99 574.41 89.13 574.86 89.21 575.34 89.24 575.76 89.22 576.16 89.17 576.55 89.08 576.93 88.95 577.29 88.78 577.62 88.59 577.92 88.37 578.18 88.12 578.41 87.86 578.60 87.56 578.78 87.23 578.94 86.86 579.10 86.44 579.25 85.98 579.39 85.48 579.52 84.94 579.62 84.40 579.69 83.84 579.73 83.27 579.74 82.69 579.74 82.62 579.74 82.54 579.74 82.45 579.73 82.34 579.73 82.22 579.43 82.65 579.08 83.05 578.70 83.42 578.27 83.75 577.81 84.04 577.31 84.29 576.80 84.49 576.27 84.63 575.73 84.71 575.17 84.74 574.25 84.67 573.39 84.47 572.59 84.13 571.85 83.65 571.16 83.03 570.57 82.31 570.12 81.50 569.79 80.60 569.60 79.61 569.53 78.54 569.60 77.43 569.81 76.41 570.15 75.48 570.64 74.65 571.25 73.90 571.98 73.27 572.77 72.77 573.63 72.42 574.56 72.21 575.56 72.14 576.30 72.18 577.01 72.30 577.69 72.50 578.35 72.78 578.98 73.14 579.57 73.58 580.10 74.08 580.57 74.65 580.98 75.29 581.33 76.00 581.62 76.81 581.84 77.75 582.00 78.83 582.10 80.04 582.13 81.38 582.09 82.78 582.00 84.06 581.83 85.23 581.61 86.28 581.32 87.20 580.97 88.03 580.55 88.77 580.07 89.43 579.53 90.01 578.93 90.51 578.28 90.91 577.58 91.23 576.84 91.46 576.06 91.60 575.23 91.64 574.36 91.59 573.55 91.43 572.82 91.16 572.15 90.78 571.54 90.30 571.02 89.72 570.58 89.06 570.24 88.31 569.98 87.47 569.82 86.54 Z M 579.73 78.48 L 579.69 77.79 579.57 77.15 579.36 76.58 579.07 76.06 578.70 75.60 578.26 75.22 577.76 74.92 577.21 74.71 576.61 74.58 575.95 74.54 575.27 74.59 574.64 74.72 574.06 74.95 573.54 75.27 573.06 75.69 572.65 76.17 572.34 76.71 572.11 77.31 571.98 77.95 571.93 78.66 571.97 79.29 572.10 79.87 572.31 80.40 572.61 80.88 572.99 81.32 573.45 81.69 573.96 81.97 574.54 82.18 575.18 82.30 575.87 82.34 576.52 82.30 577.13 82.18 577.68 81.97 578.18 81.69 578.64 81.32 579.03 80.88 579.34 80.37 579.56 79.80 579.69 79.18 579.73 78.48 Z" />
<path fill="rgb(255,0,0)" stroke="rgb(255,0,0)" stroke-width="0" d=" M 707.70 127.62 L 705.30 127.92 705.16 127.40 705.00 126.94 704.82 126.54 704.62 126.20 704.39 125.92 703.98 125.56 703.54 125.28 703.06 125.08 702.54 124.96 701.99 124.92 701.53 124.95 701.09 125.02 700.66 125.13 700.23 125.30 699.82 125.51 699.44 125.83 699.08 126.21 698.76 126.65 698.45 127.14 698.18 127.69 697.94 128.32 697.76 129.06 697.62 129.92 697.53 130.89 697.49 131.97 697.85 131.48 698.25 131.04 698.67 130.66 699.13 130.33 699.61 130.05 700.12 129.82 700.63 129.65 701.16 129.52 701.69 129.45 702.24 129.42 703.17 129.49 704.04 129.70 704.85 130.04 705.61 130.52 706.31 131.14 706.92 131.86 707.39 132.66 707.72 133.55 707.92 134.51 707.99 135.56 707.96 136.26 707.86 136.94 707.70 137.60 707.48 138.25 707.19 138.87 706.85 139.45 706.46 139.98 706.03 140.45 705.54 140.86 705.01 141.21 704.44 141.50 703.84 141.73 703.21 141.89 702.55 141.99 701.87 142.02 700.71 141.94 699.64 141.68 698.67 141.25 697.78 140.64 696.98 139.87 696.30 138.89 695.77 137.70 695.39 136.27 695.17 134.63 695.09 132.76 695.18 130.67 695.43 128.82 695.85 127.21 696.44 125.84 697.20 124.71 697.99 123.93 698.87 123.31 699.86 122.87 700.95 122.61 702.14 122.52 703.03 122.58 703.86 122.74 704.61 123.01 705.31 123.39 705.93 123.88 706.47 124.46 706.92 125.13 707.27 125.88 707.53 126.71 707.70 127.62 Z M 697.49 135.52 L 697.51 135.95 697.58 136.37 697.69 136.79 697.84 137.20 698.04 137.60 698.28 137.97 698.55 138.31 698.84 138.62 699.16 138.88 699.52 139.11 699.90 139.29 700.30 139.44 700.74 139.54 701.19 139.60 701.68 139.62 702.35 139.58 702.97 139.45 703.54 139.24 704.05 138.94 704.51 138.55 704.90 138.09 705.20 137.57 705.42 136.99 705.54 136.34 705.59 135.64 705.55 134.96 705.42 134.34 705.21 133.78 704.91 133.28 704.53 132.84 704.07 132.48 703.55 132.19 702.96 131.99 702.31 131.87 701.59 131.82 700.93 131.87 700.30 131.99 699.72 132.19 699.18 132.48 698.69 132.84 698.26 133.28 697.92 133.76 697.68 134.30 697.54 134.88 697.49 135.52 Z M 710.09 136.62 L 712.49 136.32 712.67 136.99 712.90 137.57 713.16 138.08 713.47 138.50 713.81 138.85 714.20 139.13 714.64 139.35 715.14 139.50 715.68 139.59 716.28 139.62 716.99 139.58 717.63 139.45 718.21 139.24 718.74 138.94 719.20 138.56 719.59 138.11 719.90 137.63 720.11 137.10 720.24 136.53 720.29 135.93 720.25 135.35 720.12 134.81 719.90 134.31 719.60 133.86 719.22 133.44 718.77 133.09 718.27 132.82 717.72 132.62 717.13 132.50 716.49 132.46 716.21 132.47 715.90 132.50 715.56 132.56 715.20 132.63 714.81 132.72 715.08 130.32 715.17 130.33 715.26 130.34 715.33 130.35 715.40 130.35 715.46 130.35 716.06 130.33 716.63 130.24 717.17 130.10 717.69 129.91 718.19 129.66 718.62 129.36 718.96 128.99 719.20 128.57 719.35 128.09 719.40 127.54 719.36 127.11 719.26 126.70 719.08 126.32 718.84 125.98 718.52 125.67 718.15 125.40 717.74 125.19 717.29 125.04 716.80 124.95 716.27 124.92 715.73 124.95 715.24 125.04 714.78 125.19 714.36 125.40 713.98 125.67 713.64 126.00 713.35 126.39 713.11 126.84 712.93 127.35 712.80 127.92 710.40 127.62 710.62 126.70 710.92 125.86 711.31 125.10 711.80 124.44 712.37 123.86 713.01 123.38 713.71 123.01 714.47 122.74 715.30 122.58 716.18 122.52 716.80 122.55 717.40 122.63 717.98 122.76 718.54 122.95 719.08 123.18 719.58 123.47 720.04 123.79 720.44 124.15 720.80 124.55 721.10 124.98 721.35 125.45 721.55 125.92 721.69 126.40 721.77 126.90 721.80 127.40 721.77 127.88 721.69 128.34 721.56 128.78 721.37 129.21 721.13 129.62 720.84 130.00 720.49 130.35 720.10 130.67 719.65 130.95 719.16 131.21 719.81 131.40 720.39 131.66 720.91 131.99 721.37 132.38 721.77 132.85 722.10 133.37 722.36 133.94 722.54 134.57 722.65 135.24 722.69 135.97 722.61 136.95 722.39 137.87 722.03 138.73 721.51 139.53 720.85 140.26 720.07 140.90 719.22 141.39 718.29 141.74 717.28 141.95 716.20 142.02 715.22 141.96 714.31 141.78 713.47 141.48 712.70 141.06 711.99 140.52 711.38 139.88 710.89 139.17 710.50 138.40 710.24 137.55 710.09 136.62 Z M 724.79 136.62 L 727.19 136.32 727.32 136.95 727.51 137.51 727.75 138.00 728.05 138.43 728.39 138.80 728.79 139.09 729.24 139.33 729.74 139.49 730.30 139.59 730.90 139.62 731.64 139.58 732.31 139.44 732.91 139.21 733.45 138.89 733.91 138.47 734.30 137.98 734.60 137.43 734.82 136.82 734.94 136.15 734.99 135.42 734.95 134.73 734.83 134.10 734.63 133.53 734.35 133.02 733.99 132.57 733.54 132.19 733.02 131.90 732.41 131.69 731.72 131.57 730.95 131.52 730.45 131.54 730.00 131.59 729.58 131.67 729.19 131.79 728.84 131.94 728.52 132.12 728.22 132.32 727.96 132.53 727.71 132.77 727.49 133.02 725.09 132.72 727.20 122.82 736.50 122.82 736.50 125.22 729.14 125.22 728.11 130.51 728.79 130.01 729.48 129.62 730.18 129.35 730.89 129.18 731.62 129.12 732.56 129.19 733.45 129.40 734.27 129.74 735.03 130.23 735.72 130.84 736.32 131.57 736.79 132.38 737.12 133.26 737.32 134.23 737.39 135.27 737.33 136.27 737.15 137.22 736.84 138.11 736.42 138.94 735.88 139.72 735.09 140.55 734.20 141.20 733.21 141.66 732.10 141.93 730.89 142.02 729.89 141.97 728.97 141.79 728.12 141.49 727.35 141.08 726.66 140.55 726.06 139.92 725.57 139.21 725.20 138.42 724.94 137.56 724.79 136.62 Z M 746.39 136.02 L 746.39 133.62 753.89 133.62 753.89 136.02 Z M 775.80 127.62 L 773.40 127.92 773.26 127.40 773.10 126.94 772.92 126.54 772.72 126.20 772.49 125.92 772.08 125.56 771.64 125.28 771.16 125.08 770.64 124.96 770.09 124.92 769.63 124.95 769.19 125.02 768.76 125.13 768.33 125.30 767.92 125.51 767.54 125.83 767.18 126.21 766.86 126.65 766.55 127.14 766.28 127.69 766.04 128.32 765.85 129.06 765.72 129.92 765.63 130.89 765.59 131.97 765.95 131.48 766.35 131.04 766.77 130.66 767.23 130.33 767.71 130.05 768.22 129.82 768.73 129.65 769.26 129.52 769.79 129.45 770.34 129.42 771.27 129.49 772.14 129.70 772.95 130.04 773.71 130.52 774.41 131.14 775.02 131.86 775.49 132.66 775.82 133.55 776.02 134.51 776.09 135.56 776.06 136.26 775.96 136.94 775.80 137.60 775.58 138.25 775.29 138.87 774.95 139.45 774.56 139.98 774.13 140.45 773.64 140.86 773.11 141.21 772.54 141.50 771.94 141.73 771.31 141.89 770.65 141.99 769.97 142.02 768.81 141.94 767.74 141.68 766.77 141.25 765.88 140.64 765.08 139.87 764.40 138.89 763.87 137.70 763.49 136.27 763.27 134.63 763.19 132.76 763.28 130.67 763.53 128.82 763.95 127.21 764.54 125.84 765.30 124.71 766.09 123.93 766.97 123.31 767.96 122.87 769.05 122.61 770.24 122.52 771.13 122.58 771.96 122.74 772.71 123.01 773.41 123.39 774.03 123.88 774.57 124.46 775.02 125.13 775.37 125.88 775.63 126.71 775.80 127.62 Z M 765.59 135.52 L 765.61 135.95 765.68 136.37 765.79 136.79 765.94 137.20 766.14 137.60 766.38 137.97 766.65 138.31 766.94 138.62 767.26 138.88 767.62 139.11 768.00 139.29 768.40 139.44 768.84 139.54 769.29 139.60 769.78 139.62 770.45 139.58 771.07 139.45 771.64 139.24 772.15 138.94 772.61 138.55 773.00 138.09 773.30 137.57 773.51 136.99 773.64 136.34 773.69 135.64 773.65 134.96 773.52 134.34 773.31 133.78 773.01 133.28 772.63 132.84 772.17 132.48 771.65 132.19 771.06 131.99 770.41 131.87 769.69 131.82 769.03 131.87 768.40 131.99 767.82 132.19 767.28 132.48 766.78 132.84 766.36 133.28 766.02 133.76 765.78 134.30 765.64 134.88 765.59 135.52 Z M 778.19 136.62 L 780.59 136.32 780.72 136.95 780.91 137.51 781.15 138.00 781.45 138.43 781.79 138.80 782.19 139.09 782.64 139.33 783.14 139.49 783.70 139.59 784.30 139.62 785.04 139.58 785.71 139.44 786.31 139.21 786.85 138.89 787.31 138.47 787.70 137.98 788.00 137.43 788.22 136.82 788.34 136.15 788.39 135.42 788.35 134.73 788.23 134.10 788.03 133.53 787.75 133.02 787.39 132.57 786.94 132.19 786.42 131.90 785.81 131.69 785.12 131.57 784.35 131.52 783.85 131.54 783.40 131.59 782.98 131.67 782.59 131.79 782.24 131.94 781.92 132.12 781.62 132.32 781.36 132.53 781.11 132.77 780.89 133.02 778.49 132.72 780.60 122.82 789.90 122.82 789.90 125.22 782.54 125.22 781.51 130.51 782.19 130.01 782.88 129.62 783.58 129.35 784.29 129.18 785.02 129.12 785.96 129.19 786.85 129.40 787.67 129.74 788.43 130.23 789.12 130.84 789.72 131.57 790.19 132.38 790.52 133.26 790.72 134.23 790.79 135.27 790.73 136.27 790.55 137.22 790.24 138.11 789.82 138.94 789.28 139.72 788.49 140.55 787.60 141.20 786.60 141.66 785.50 141.93 784.29 142.02 783.29 141.97 782.37 141.79 781.52 141.49 780.75 141.08 780.06 140.55 779.46 139.92 778.97 139.21 778.60 138.42 778.34 137.56 778.19 136.62 Z M 792.89 136.62 L 795.29 136.32 795.42 136.95 795.61 137.51 795.85 138.00 796.15 138.43 796.49 138.80 796.89 139.09 797.34 139.33 797.84 139.49 798.40 139.59 799.00 139.62 799.74 139.58 800.41 139.44 801.01 139.21 801.55 138.89 802.01 138.47 802.40 137.98 802.70 137.43 802.92 136.82 803.04 136.15 803.09 135.42 803.05 134.73 802.93 134.10 802.73 133.53 802.45 133.02 802.09 132.57 801.64 132.19 801.12 131.90 800.51 131.69 799.82 131.57 799.05 131.52 798.55 131.54 798.10 131.59 797.68 131.67 797.29 131.79 796.94 131.94 796.62 132.12 796.32 132.32 796.06 132.53 795.81 132.77 795.59 133.02 793.19 132.72 795.30 122.82 804.60 122.82 804.60 125.22 797.24 125.22 796.21 130.51 796.89 130.01 797.58 129.62 798.28 129.35 798.99 129.18 799.72 129.12 800.66 129.19 801.55 129.40 802.37 129.74 803.13 130.23 803.82 130.84 804.42 131.57 804.89 132.38 805.22 133.26 805.42 134.23 805.49 135.27 805.43 136.27 805.25 137.22 804.94 138.11 804.52 138.94 803.98 139.72 803.19 140.55 802.30 141.20 801.30 141.66 800.20 141.93 798.99 142.02 797.99 141.97 797.07 141.79 796.22 141.49 795.45 141.08 794.76 140.55 794.16 139.92 793.67 139.21 793.30 138.42 793.04 137.56 792.89 136.62 Z M 815.98 141.72 L 816.00 122.52 820.13 122.52 824.04 136.06 824.25 136.77 824.43 137.42 824.59 137.98 824.73 138.47 824.84 138.88 824.96 138.43 825.11 137.89 825.28 137.28 825.47 136.59 825.69 135.82 829.57 122.52 833.70 122.52 833.68 141.72 831.28 141.72 831.30 124.92 826.46 141.72 823.21 141.72 818.40 124.92 818.38 141.72 Z M 838.18 141.72 L 838.20 122.52 840.60 122.52 840.60 130.32 850.80 130.32 850.80 122.52 853.20 122.52 853.18 141.72 850.78 141.72 850.79 132.72 840.59 132.72 840.58 141.72 Z M 855.58 141.72 L 855.59 139.47 863.88 130.02 863.34 130.02 862.82 130.02 862.33 130.02 861.87 130.02 861.43 130.02 856.20 130.02 856.20 127.62 867.30 127.62 867.30 129.66 859.94 138.04 858.82 139.32 859.40 139.32 859.97 139.32 860.52 139.32 861.07 139.32 861.59 139.32 867.59 139.32 867.58 141.72 Z" />
<polyline points="1121.00 141.00 1191.00 141.00 1191.00 141.00" fill="none" stroke="rgb(0,0,0)" stroke-width="2" />
<polyline points="1121.00 161.00 1191.00 161.00" fill="none" stroke="rgb(0,0,0)" stroke-width="2" />
<polyline points="1191.00 141.00 1244.00 91.00 1394.00 91.00" fill="none" stroke="rgb(0,0,0)" stroke-width="2" />
<polygon points="1373.60 96.40 1394.00 91.00 1373.60 85.60" fill="rgb(0,0,0)" stroke="rgb(0,0,0)" stroke-width="2" />
<polyline points="1191.00 161.00 1244.00 211.00 1394.00 211.00" fill="none" stroke="rgb(0,0,0)" stroke-width="2" />
<polygon points="1373.60 216.40 1394.00 211.00 1373.60 205.60" fill="rgb(0,0,0)" stroke="rgb(0,0,0)" stroke-width="2" />
<path fill="rgb(0,0,0)" stroke="rgb(0,0,0)" stroke-width="0" d=" M 1256.80 78.00 L 1256.82 52.40 1260.03 52.40 1260.01 74.80 1272.81 74.80 1272.80 78.00 Z M 1275.21 65.54 L 1275.35 63.11 1275.76 60.90 1276.45 58.91 1277.40 57.14 1278.63 55.59 1280.08 54.30 1281.68 53.29 1283.45 52.58 1285.37 52.14 1287.44 52.00 1288.83 52.07 1290.16 52.27 1291.43 52.61 1292.65 53.08 1293.81 53.69 1294.89 54.42 1295.87 55.25 1296.73 56.19 1297.49 57.24 1298.13 58.39 1298.67 59.63 1299.08 60.94 1299.38 62.31 1299.56 63.74 1299.61 65.24 1299.55 66.76 1299.36 68.22 1299.04 69.61 1298.60 70.93 1298.04 72.19 1297.36 73.35 1296.57 74.40 1295.69 75.33 1294.69 76.14 1293.60 76.82 1292.43 77.39 1291.23 77.83 1289.99 78.15 1288.71 78.34 1287.40 78.40 1285.99 78.33 1284.64 78.12 1283.36 77.77 1282.13 77.29 1280.97 76.66 1279.89 75.91 1278.92 75.06 1278.06 74.11 1277.31 73.06 1276.67 71.91 1276.15 70.69 1275.74 69.45 1275.45 68.17 1275.27 66.87 1275.21 65.54 Z M 1278.41 65.57 L 1278.51 67.29 1278.82 68.85 1279.33 70.26 1280.04 71.52 1280.96 72.62 1282.04 73.55 1283.22 74.27 1284.50 74.79 1285.89 75.10 1287.38 75.20 1288.90 75.10 1290.31 74.78 1291.60 74.26 1292.79 73.54 1293.86 72.60 1294.78 71.47 1295.49 70.17 1296.00 68.69 1296.31 67.04 1296.41 65.22 1296.37 64.04 1296.24 62.92 1296.03 61.87 1295.72 60.87 1295.33 59.94 1294.86 59.08 1294.30 58.29 1293.67 57.60 1292.95 56.98 1292.16 56.44 1291.30 55.99 1290.40 55.65 1289.46 55.40 1288.48 55.25 1287.46 55.20 1286.02 55.30 1284.67 55.58 1283.39 56.06 1282.20 56.73 1281.09 57.59 1280.13 58.67 1279.38 60.01 1278.84 61.61 1278.52 63.46 1278.41 65.57 Z M 1324.80 78.00 L 1321.60 78.00 1321.62 58.05 1321.13 58.48 1320.58 58.91 1319.97 59.35 1319.31 59.78 1318.59 60.21 1317.85 60.62 1317.15 60.99 1316.47 61.31 1315.83 61.59 1315.22 61.82 1315.22 58.80 1316.26 58.28 1317.26 57.73 1318.20 57.13 1319.08 56.49 1319.91 55.81 1320.67 55.11 1321.33 54.42 1321.90 53.74 1322.38 53.06 1322.76 52.40 1324.82 52.40 Z M 1340.62 78.00 L 1350.86 52.40 1353.59 52.40 1363.78 78.00 1360.40 78.00 1357.47 70.00 1346.93 70.00 1344.00 78.00 Z M 1348.11 66.80 L 1356.31 66.80 1354.01 60.51 1353.56 59.28 1353.16 58.17 1352.80 57.19 1352.49 56.33 1352.22 55.60 1351.93 56.39 1351.63 57.23 1351.31 58.10 1350.97 59.01 1350.62 59.96 Z" />
<path fill="rgb(0,0,0)" stroke="rgb(0,0,0)" stroke-width="0" d=" M 1256.80 248.00 L 1256.82 222.40 1260.03 222.40 1260.01 244.80 1272.81 244.80 1272.80 248.00 Z M 1275.21 235.54 L 1275.35 233.11 1275.76 230.90 1276.45 228.91 1277.40 227.14 1278.63 225.59 1280.08 224.30 1281.68 223.29 1283.45 222.57 1285.37 222.14 1287.44 222.00 1288.83 222.07 1290.16 222.27 1291.43 222.61 1292.65 223.08 1293.81 223.69 1294.89 224.42 1295.87 225.25 1296.73 226.19 1297.49 227.24 1298.13 228.39 1298.67 229.63 1299.08 230.94 1299.38 232.31 1299.56 233.74 1299.61 235.24 1299.55 236.76 1299.36 238.22 1299.04 239.61 1298.60 240.93 1298.04 242.19 1297.36 243.35 1296.57 244.40 1295.69 245.33 1294.69 246.14 1293.60 246.82 1292.43 247.39 1291.23 247.83 1289.99 248.15 1288.71 248.34 1287.40 248.40 1285.99 248.33 1284.64 248.12 1283.36 247.77 1282.13 247.29 1280.97 246.66 1279.89 245.91 1278.92 245.06 1278.06 244.11 1277.31 243.06 1276.67 241.91 1276.15 240.69 1275.74 239.45 1275.45 238.17 1275.27 236.87 1275.21 235.54 Z M 1278.41 235.57 L 1278.51 237.29 1278.82 238.85 1279.33 240.26 1280.04 241.52 1280.96 242.62 1282.04 243.55 1283.22 244.27 1284.50 244.79 1285.89 245.10 1287.38 245.20 1288.90 245.10 1290.31 244.78 1291.60 244.26 1292.79 243.54 1293.86 242.60 1294.78 241.47 1295.49 240.17 1296.00 238.69 1296.31 237.04 1296.41 235.22 1296.37 234.04 1296.24 232.92 1296.03 231.87 1295.72 230.87 1295.33 229.94 1294.86 229.08 1294.30 228.29 1293.67 227.60 1292.95 226.98 1292.16 226.44 1291.30 225.99 1290.40 225.65 1289.46 225.40 1288.48 225.25 1287.46 225.20 1286.02 225.30 1284.67 225.58 1283.39 226.06 1282.20 226.73 1281.09 227.59 1280.13 228.67 1279.38 230.01 1278.84 231.61 1278.52 233.46 1278.41 235.57 Z M 1324.80 248.00 L 1321.60 248.00 1321.62 228.05 1321.13 228.48 1320.58 228.91 1319.97 229.35 1319.31 229.78 1318.59 230.21 1317.85 230.62 1317.15 230.99 1316.47 231.31 1315.83 231.59 1315.22 231.82 1315.22 228.80 1316.26 228.28 1317.26 227.73 1318.20 227.13 1319.08 226.49 1319.91 225.81 1320.67 225.11 1321.33 224.42 1321.90 223.74 1322.38 223.06 1322.76 222.40 1324.82 222.40 Z M 1343.60 248.00 L 1343.62 222.40 1353.39 222.40 1354.54 222.43 1355.59 222.52 1356.55 222.67 1357.41 222.88 1358.18 223.15 1358.87 223.49 1359.50 223.89 1360.06 224.35 1360.56 224.88 1361.00 225.47 1361.37 226.10 1361.66 226.74 1361.86 227.40 1361.98 228.06 1362.02 228.74 1361.98 229.37 1361.88 229.98 1361.71 230.58 1361.47 231.17 1361.16 231.73 1360.78 232.27 1360.33 232.77 1359.81 233.22 1359.22 233.63 1358.56 234.00 1359.34 234.32 1360.04 234.72 1360.68 235.20 1361.23 235.75 1361.71 236.39 1362.11 237.09 1362.41 237.83 1362.63 238.63 1362.76 239.48 1362.81 240.37 1362.78 241.10 1362.69 241.81 1362.53 242.50 1362.32 243.16 1362.05 243.81 1361.73 244.42 1361.39 244.96 1361.01 245.45 1360.61 245.89 1360.18 246.26 1359.71 246.59 1359.20 246.88 1358.64 247.14 1358.04 247.37 1357.40 247.56 1356.70 247.72 1355.94 247.84 1355.12 247.93 1354.24 247.98 1353.29 248.00 Z M 1346.82 232.80 L 1352.66 232.80 1353.56 232.79 1354.35 232.76 1355.03 232.70 1355.61 232.62 1356.08 232.52 1356.59 232.36 1357.06 232.16 1357.47 231.93 1357.83 231.65 1358.13 231.34 1358.38 230.99 1358.57 230.61 1358.71 230.19 1358.79 229.74 1358.82 229.26 1358.79 228.79 1358.72 228.35 1358.59 227.93 1358.41 227.54 1358.18 227.17 1357.90 226.83 1357.58 226.54 1357.21 226.29 1356.80 226.09 1356.34 225.93 1355.79 225.81 1355.10 225.72 1354.28 225.65 1353.32 225.61 1352.22 225.60 1346.83 225.60 Z M 1346.81 244.80 L 1353.37 244.80 1354.00 244.79 1354.56 244.78 1355.03 244.76 1355.43 244.72 1355.74 244.68 1356.21 244.58 1356.64 244.46 1357.04 244.33 1357.41 244.16 1357.75 243.98 1358.07 243.76 1358.35 243.52 1358.62 243.23 1358.86 242.91 1359.08 242.56 1359.27 242.17 1359.42 241.76 1359.52 241.33 1359.59 240.88 1359.61 240.40 1359.58 239.84 1359.51 239.32 1359.39 238.82 1359.22 238.35 1359.00 237.91 1358.72 237.52 1358.39 237.17 1357.99 236.87 1357.53 236.62 1357.02 236.43 1356.42 236.27 1355.72 236.15 1354.93 236.07 1354.05 236.02 1353.06 236.00 1346.81 236.00 Z" />
<path fill="rgb(255,0,0)" stroke="rgb(255,0,0)" stroke-width="0" d=" M 1234.00 161.00 L 1234.00 156.50 1225.30 156.50 1225.31 154.10 1234.62 142.10 1236.42 142.10 1236.41 154.10 1238.81 154.10 1238.80 156.50 1236.40 156.50 1236.40 161.00 Z M 1234.01 154.10 L 1234.01 146.68 1228.26 154.10 Z M 1242.10 161.00 L 1242.10 158.60 1244.50 158.60 1244.50 161.00 Z M 1260.70 158.60 L 1260.70 161.00 1248.10 161.00 1248.10 160.66 1248.13 160.32 1248.18 159.99 1248.26 159.66 1248.36 159.35 1248.56 158.82 1248.81 158.31 1249.10 157.80 1249.44 157.29 1249.82 156.80 1250.26 156.29 1250.78 155.76 1251.39 155.20 1252.07 154.62 1252.83 154.02 1253.99 153.02 1254.98 152.13 1255.81 151.33 1256.48 150.62 1256.98 150.02 1257.35 149.46 1257.64 148.91 1257.85 148.37 1257.97 147.83 1258.01 147.30 1257.98 146.79 1257.86 146.32 1257.66 145.88 1257.39 145.47 1257.04 145.10 1256.62 144.77 1256.16 144.52 1255.65 144.34 1255.10 144.24 1254.49 144.20 1253.85 144.24 1253.26 144.34 1252.73 144.52 1252.25 144.76 1251.83 145.08 1251.47 145.45 1251.19 145.89 1250.98 146.37 1250.86 146.91 1250.81 147.50 1248.41 147.20 1248.57 146.20 1248.83 145.29 1249.20 144.49 1249.67 143.79 1250.26 143.18 1250.94 142.68 1251.71 142.30 1252.57 142.02 1253.51 141.86 1254.54 141.80 1255.58 141.86 1256.53 142.05 1257.39 142.35 1258.16 142.78 1258.84 143.34 1259.41 143.98 1259.85 144.69 1260.16 145.45 1260.35 146.27 1260.41 147.15 1260.40 147.61 1260.35 148.07 1260.26 148.53 1260.14 148.98 1259.99 149.43 1259.79 149.88 1259.55 150.34 1259.27 150.81 1258.94 151.29 1258.56 151.78 1258.11 152.31 1257.54 152.90 1256.85 153.56 1256.04 154.28 1255.12 155.07 1254.34 155.71 1253.67 156.26 1253.12 156.72 1252.68 157.09 1252.36 157.38 1252.11 157.62 1251.87 157.87 1251.66 158.11 1251.46 158.35 1251.28 158.60 Z M 1270.00 155.30 L 1270.01 152.90 1277.51 152.90 1277.50 155.30 Z M 1290.61 150.43 L 1290.05 150.20 1289.55 149.94 1289.11 149.64 1288.74 149.30 1288.42 148.93 1288.17 148.53 1287.97 148.10 1287.83 147.63 1287.74 147.14 1287.71 146.61 1287.78 145.82 1287.96 145.09 1288.27 144.40 1288.71 143.77 1289.27 143.19 1289.93 142.69 1290.67 142.30 1291.49 142.02 1292.40 141.86 1293.39 141.80 1294.38 141.86 1295.29 142.03 1296.12 142.31 1296.87 142.71 1297.54 143.22 1298.11 143.81 1298.55 144.46 1298.86 145.15 1299.05 145.89 1299.11 146.68 1299.09 147.19 1299.00 147.66 1298.86 148.12 1298.66 148.54 1298.41 148.94 1298.10 149.31 1297.73 149.64 1297.31 149.94 1296.82 150.20 1296.28 150.43 1296.92 150.69 1297.50 151.01 1298.01 151.38 1298.45 151.82 1298.84 152.31 1299.15 152.85 1299.39 153.43 1299.57 154.05 1299.67 154.71 1299.70 155.41 1299.64 156.38 1299.43 157.28 1299.08 158.12 1298.59 158.89 1297.97 159.60 1297.23 160.21 1296.40 160.69 1295.49 161.03 1294.49 161.23 1293.40 161.30 1292.31 161.23 1291.31 161.03 1290.40 160.69 1289.57 160.21 1288.84 159.60 1288.21 158.88 1287.73 158.10 1287.38 157.25 1287.17 156.33 1287.10 155.35 1287.14 154.61 1287.25 153.93 1287.44 153.29 1287.69 152.71 1288.02 152.17 1288.41 151.69 1288.87 151.28 1289.39 150.93 1289.97 150.64 1290.61 150.43 Z M 1290.11 146.68 L 1290.15 147.13 1290.25 147.54 1290.42 147.92 1290.66 148.26 1290.96 148.57 1291.34 148.83 1291.77 149.04 1292.27 149.18 1292.82 149.27 1293.44 149.30 1294.05 149.27 1294.59 149.18 1295.08 149.04 1295.50 148.84 1295.87 148.57 1296.17 148.27 1296.41 147.94 1296.58 147.58 1296.68 147.20 1296.71 146.79 1296.68 146.37 1296.57 145.97 1296.40 145.60 1296.16 145.26 1295.84 144.95 1295.47 144.68 1295.04 144.47 1294.55 144.32 1294.01 144.23 1293.42 144.20 1292.82 144.23 1292.28 144.32 1291.79 144.46 1291.36 144.67 1290.98 144.93 1290.67 145.24 1290.43 145.56 1290.25 145.91 1290.15 146.29 1290.11 146.68 Z M 1289.50 155.26 L 1289.52 155.63 1289.57 156.00 1289.65 156.36 1289.76 156.72 1289.91 157.07 1290.09 157.40 1290.32 157.71 1290.61 157.98 1290.94 158.21 1291.32 158.42 1291.73 158.59 1292.14 158.73 1292.56 158.82 1292.99 158.88 1293.42 158.90 1294.12 158.86 1294.76 158.74 1295.33 158.54 1295.84 158.26 1296.28 157.89 1296.65 157.47 1296.94 157.00 1297.14 156.49 1297.26 155.94 1297.30 155.34 1297.26 154.73 1297.14 154.16 1296.93 153.64 1296.63 153.17 1296.25 152.73 1295.80 152.36 1295.28 152.07 1294.70 151.87 1294.06 151.74 1293.35 151.70 1292.66 151.74 1292.03 151.86 1291.46 152.07 1290.96 152.35 1290.52 152.72 1290.16 153.14 1289.87 153.61 1289.67 154.12 1289.55 154.67 1289.50 155.26 Z M 1303.00 161.00 L 1303.00 158.60 1305.40 158.60 1305.40 161.00 Z M 1309.30 155.90 L 1311.70 155.60 1311.89 156.26 1312.11 156.85 1312.38 157.35 1312.68 157.78 1313.03 158.13 1313.42 158.40 1313.86 158.62 1314.35 158.78 1314.90 158.87 1315.50 158.90 1316.20 158.86 1316.85 158.73 1317.43 158.52 1317.96 158.22 1318.42 157.84 1318.81 157.39 1319.11 156.90 1319.33 156.38 1319.46 155.81 1319.50 155.20 1319.46 154.62 1319.34 154.08 1319.12 153.59 1318.82 153.13 1318.44 152.72 1317.98 152.37 1317.48 152.09 1316.94 151.89 1316.35 151.78 1315.71 151.74 1315.42 151.75 1315.11 151.78 1314.78 151.83 1314.41 151.91 1314.03 152.00 1314.30 149.60 1314.39 149.61 1314.47 149.62 1314.55 149.62 1314.62 149.63 1314.68 149.63 1315.27 149.60 1315.84 149.52 1316.39 149.38 1316.91 149.19 1317.40 148.94 1317.84 148.63 1318.18 148.27 1318.42 147.85 1318.57 147.36 1318.61 146.82 1318.58 146.38 1318.47 145.98 1318.30 145.60 1318.05 145.26 1317.74 144.94 1317.37 144.68 1316.96 144.47 1316.51 144.32 1316.02 144.23 1315.48 144.20 1314.95 144.23 1314.46 144.32 1314.00 144.47 1313.58 144.68 1313.19 144.95 1312.85 145.28 1312.56 145.67 1312.33 146.12 1312.15 146.63 1312.01 147.20 1309.61 146.90 1309.83 145.97 1310.14 145.13 1310.53 144.38 1311.01 143.71 1311.58 143.14 1312.23 142.65 1312.93 142.28 1313.69 142.01 1314.52 141.85 1315.40 141.80 1316.02 141.83 1316.62 141.91 1317.19 142.04 1317.75 142.22 1318.29 142.46 1318.80 142.74 1319.25 143.06 1319.66 143.42 1320.01 143.82 1320.32 144.26 1320.57 144.72 1320.77 145.19 1320.90 145.68 1320.99 146.17 1321.01 146.68 1320.99 147.16 1320.91 147.62 1320.77 148.06 1320.59 148.48 1320.35 148.89 1320.05 149.28 1319.71 149.63 1319.32 149.94 1318.87 150.23 1318.38 150.48 1319.02 150.67 1319.61 150.93 1320.13 151.26 1320.59 151.66 1320.99 152.12 1321.32 152.65 1321.58 153.22 1321.76 153.84 1321.87 154.52 1321.90 155.24 1321.83 156.23 1321.61 157.15 1321.24 158.00 1320.73 158.80 1320.06 159.54 1319.29 160.17 1318.44 160.67 1317.51 161.02 1316.50 161.23 1315.42 161.30 1314.44 161.24 1313.53 161.06 1312.69 160.76 1311.91 160.34 1311.21 159.80 1310.60 159.16 1310.10 158.45 1309.72 157.67 1309.46 156.82 1309.30 155.90 Z M 1341.41 153.50 L 1341.41 151.10 1349.21 151.10 1349.20 158.28 1348.45 158.85 1347.69 159.36 1346.92 159.81 1346.14 160.21 1345.35 160.54 1344.55 160.81 1343.74 161.03 1342.93 161.18 1342.11 161.27 1341.28 161.30 1340.17 161.25 1339.10 161.11 1338.08 160.87 1337.09 160.53 1336.15 160.09 1335.28 159.57 1334.49 158.95 1333.80 158.26 1333.19 157.47 1332.68 156.60 1332.26 155.66 1331.93 154.68 1331.70 153.66 1331.56 152.60 1331.51 151.49 1331.56 150.39 1331.70 149.32 1331.94 148.27 1332.26 147.26 1332.69 146.27 1333.20 145.36 1333.79 144.54 1334.46 143.82 1335.21 143.20 1336.05 142.68 1336.96 142.25 1337.91 141.92 1338.92 141.69 1339.99 141.55 1341.10 141.50 1341.92 141.53 1342.70 141.61 1343.45 141.75 1344.17 141.94 1344.86 142.18 1345.50 142.48 1346.09 142.81 1346.61 143.19 1347.08 143.62 1347.49 144.08 1347.85 144.60 1348.18 145.17 1348.47 145.81 1348.72 146.50 1348.94 147.26 1346.72 147.88 1346.54 147.34 1346.34 146.84 1346.12 146.40 1345.89 146.00 1345.63 145.66 1345.35 145.35 1345.02 145.07 1344.65 144.82 1344.23 144.59 1343.76 144.38 1343.27 144.21 1342.75 144.07 1342.21 143.98 1341.65 143.92 1341.07 143.90 1340.38 143.92 1339.72 143.98 1339.11 144.09 1338.53 144.23 1337.99 144.42 1337.50 144.64 1337.04 144.88 1336.62 145.16 1336.24 145.45 1335.90 145.78 1335.60 146.12 1335.32 146.48 1335.07 146.85 1334.85 147.23 1334.66 147.63 1334.39 148.33 1334.18 149.06 1334.03 149.82 1333.94 150.60 1333.91 151.40 1333.95 152.36 1334.05 153.26 1334.23 154.10 1334.49 154.87 1334.81 155.58 1335.20 156.22 1335.66 156.79 1336.18 157.29 1336.77 157.72 1337.43 158.08 1338.13 158.38 1338.84 158.61 1339.57 158.77 1340.32 158.87 1341.09 158.90 1341.76 158.88 1342.42 158.80 1343.08 158.68 1343.73 158.51 1344.37 158.28 1344.98 158.03 1345.53 157.78 1346.02 157.51 1346.44 157.24 1346.80 156.97 1346.81 153.50 Z M 1353.10 161.00 L 1353.12 141.80 1355.52 141.80 1355.51 149.60 1365.71 149.60 1365.72 141.80 1368.12 141.80 1368.10 161.00 1365.70 161.00 1365.71 152.00 1355.51 152.00 1355.50 161.00 Z M 1370.50 161.00 L 1370.50 158.74 1378.80 149.30 1378.25 149.30 1377.74 149.30 1377.25 149.30 1376.78 149.30 1376.35 149.30 1371.11 149.30 1371.11 146.90 1382.21 146.90 1382.21 148.94 1374.86 157.32 1373.73 158.60 1374.32 158.60 1374.89 158.60 1375.44 158.60 1375.98 158.60 1376.51 158.60 1382.50 158.60 1382.50 161.00 Z" />
<polygon points="601 101 601 201 691 151 601 101" fill="none" stroke="rgb(0,0,0)" stroke-width="2" />
<polygon points="441 201 441 101 351 151 441 201" fill="none" stroke="rgb(0,0,0)" stroke-width="2" />
<polyline points="471.00 151.00 441.00 151.00" fill="none" stroke="rgb(0,0,0)" stroke-width="2" />
<polyline points="351.00 151.00 311.00 151.00" fill="none" stroke="rgb(0,0,0)" stroke-width="2" />
<polygon points="331.40 145.60 311.00 151.00 331.40 156.40" fill="rgb(0,0,0)" stroke="rgb(0,0,0)" stroke-width="2" />
<polyline points="571.00 151.00 601.00 151.00" fill="none" stroke="rgb(0,0,0)" stroke-width="2" />
<polyline points="261.00 201.00 261.00 241.00 521.00 241.00 521.00 201.00" fill="none" stroke="rgb(0,0,0)" stroke-width="2" />
<polygon points="526.40 221.40 521.00 201.00 515.60 221.40" fill="rgb(0,0,0)" stroke="rgb(0,0,0)" stroke-width="2" />
<polyline points="691.00 151.00 900.19 151.00" fill="none" stroke="rgb(0,0,0)" stroke-width="2" />
<polygon points="879.79 156.40 900.19 151.00 879.79 145.60" fill="rgb(0,0,0)" stroke="rgb(0,0,0)" stroke-width="2" />
<path fill="rgb(0,0,0)" stroke="rgb(0,0,0)" stroke-width="0" d=" M 346.73 218.84 L 346.73 216.44 354.53 216.44 354.52 223.62 353.77 224.19 353.01 224.70 352.24 225.15 351.46 225.55 350.67 225.88 349.87 226.15 349.06 226.37 348.25 226.52 347.43 226.61 346.60 226.64 345.49 226.59 344.42 226.45 343.40 226.21 342.41 225.87 341.47 225.43 340.59 224.91 339.81 224.30 339.11 223.60 338.51 222.81 338.00 221.94 337.58 221.00 337.25 220.02 337.01 219.00 336.87 217.94 336.83 216.83 336.88 215.73 337.02 214.66 337.25 213.61 337.58 212.60 338.00 211.61 338.51 210.70 339.11 209.88 339.78 209.16 340.53 208.54 341.37 208.02 342.27 207.59 343.23 207.26 344.24 207.03 345.31 206.89 346.42 206.84 347.24 206.87 348.02 206.95 348.77 207.09 349.49 207.28 350.18 207.52 350.82 207.82 351.40 208.15 351.93 208.53 352.40 208.96 352.81 209.42 353.17 209.94 353.50 210.51 353.79 211.15 354.04 211.84 354.26 212.60 352.04 213.22 351.86 212.68 351.66 212.18 351.44 211.74 351.20 211.35 350.95 211.00 350.67 210.69 350.34 210.41 349.97 210.16 349.55 209.93 349.08 209.72 348.59 209.55 348.07 209.41 347.53 209.32 346.97 209.26 346.39 209.24 345.69 209.26 345.04 209.32 344.43 209.43 343.85 209.57 343.31 209.76 342.81 209.98 342.36 210.22 341.94 210.50 341.56 210.79 341.22 211.12 340.92 211.46 340.64 211.82 340.39 212.19 340.17 212.57 339.98 212.97 339.71 213.67 339.50 214.41 339.35 215.16 339.26 215.94 339.23 216.74 339.26 217.70 339.37 218.60 339.55 219.44 339.80 220.21 340.13 220.92 340.52 221.56 340.98 222.13 341.50 222.63 342.09 223.06 342.75 223.42 343.44 223.72 344.16 223.95 344.89 224.11 345.64 224.21 346.40 224.24 347.07 224.22 347.74 224.14 348.39 224.02 349.05 223.85 349.69 223.62 350.30 223.37 350.85 223.12 351.34 222.86 351.76 222.59 352.12 222.31 352.13 218.84 Z M 364.09 226.34 L 356.47 207.14 359.04 207.14 364.14 220.97 364.38 221.63 364.60 222.27 364.81 222.89 365.00 223.50 365.17 224.09 365.35 223.47 365.55 222.84 365.75 222.22 365.97 221.60 366.19 220.97 371.34 207.14 373.91 207.14 366.57 226.34 Z M 373.88 226.34 L 381.57 207.14 383.61 207.14 391.25 226.34 388.72 226.34 386.52 220.34 378.62 220.34 376.42 226.34 Z M 379.50 217.94 L 385.65 217.94 383.93 213.22 383.59 212.30 383.29 211.47 383.02 210.73 382.79 210.09 382.59 209.54 382.37 210.14 382.14 210.76 381.90 211.41 381.65 212.10 381.39 212.81 Z M 392.32 220.64 L 392.33 218.24 399.83 218.24 399.82 220.64 Z M 414.23 212.24 L 411.83 212.54 411.69 212.02 411.53 211.56 411.35 211.16 411.15 210.82 410.93 210.54 410.52 210.18 410.07 209.90 409.59 209.70 409.08 209.58 408.52 209.54 408.07 209.56 407.63 209.63 407.19 209.75 406.77 209.91 406.36 210.12 405.98 210.45 405.62 210.83 405.29 211.27 404.99 211.76 404.71 212.30 404.48 212.93 404.29 213.68 404.15 214.53 404.07 215.50 404.03 216.58 404.39 216.09 404.78 215.66 405.21 215.27 405.66 214.94 406.15 214.67 406.65 214.44 407.17 214.27 407.69 214.14 408.23 214.07 408.77 214.04 409.70 214.11 410.57 214.31 411.39 214.66 412.15 215.14 412.85 215.75 413.45 216.48 413.92 217.28 414.26 218.16 414.46 219.13 414.52 220.17 414.49 220.87 414.40 221.56 414.24 222.22 414.01 222.86 413.73 223.48 413.39 224.07 413.00 224.59 412.56 225.06 412.08 225.47 411.55 225.83 410.98 226.12 410.38 226.35 409.75 226.51 409.09 226.61 408.40 226.64 407.25 226.55 406.18 226.30 405.20 225.86 404.31 225.26 403.51 224.48 402.83 223.51 402.30 222.31 401.93 220.89 401.70 219.25 401.63 217.38 401.71 215.28 401.97 213.43 402.39 211.82 402.98 210.46 403.74 209.33 404.52 208.54 405.41 207.93 406.39 207.49 407.48 207.23 408.67 207.14 409.57 207.19 410.39 207.36 411.15 207.63 411.84 208.01 412.47 208.50 413.01 209.08 413.46 209.74 413.81 210.49 414.07 211.33 414.23 212.24 Z M 404.02 220.13 L 404.05 220.57 404.11 220.99 404.22 221.40 404.38 221.81 404.58 222.21 404.82 222.59 405.08 222.93 405.38 223.23 405.70 223.50 406.05 223.72 406.43 223.91 406.84 224.05 407.27 224.16 407.73 224.22 408.21 224.24 408.89 224.20 409.51 224.07 410.07 223.85 410.59 223.55 411.04 223.17 411.43 222.71 411.73 222.19 411.95 221.60 412.08 220.96 412.12 220.25 412.08 219.57 411.96 218.95 411.74 218.40 411.45 217.90 411.07 217.46 410.61 217.09 410.09 216.81 409.50 216.60 408.84 216.48 408.12 216.44 407.46 216.48 406.84 216.60 406.26 216.81 405.72 217.09 405.22 217.46 404.79 217.89 404.46 218.38 404.22 218.91 404.07 219.50 404.02 220.13 Z M 428.92 223.94 L 428.92 226.34 416.32 226.34 416.32 226.00 416.35 225.66 416.40 225.33 416.48 225.01 416.58 224.69 416.78 224.16 417.03 223.65 417.32 223.14 417.66 222.64 418.04 222.14 418.48 221.63 419.00 221.10 419.60 220.54 420.29 219.96 421.05 219.36 422.21 218.36 423.20 217.47 424.03 216.67 424.70 215.96 425.19 215.36 425.57 214.80 425.86 214.25 426.07 213.71 426.19 213.17 426.23 212.64 426.19 212.13 426.08 211.66 425.88 211.22 425.61 210.81 425.26 210.44 424.84 210.12 424.38 209.86 423.87 209.68 423.31 209.58 422.71 209.54 422.07 209.58 421.48 209.68 420.95 209.86 420.47 210.10 420.04 210.42 419.68 210.79 419.40 211.23 419.20 211.71 419.08 212.25 419.03 212.84 416.63 212.54 416.79 211.54 417.05 210.63 417.42 209.83 417.89 209.13 418.48 208.52 419.16 208.03 419.93 207.64 420.78 207.36 421.73 207.20 422.76 207.14 423.80 207.20 424.75 207.39 425.61 207.69 426.38 208.12 427.05 208.68 427.62 209.32 428.07 210.03 428.38 210.79 428.57 211.61 428.63 212.49 428.62 212.96 428.56 213.41 428.48 213.87 428.36 214.32 428.20 214.77 428.01 215.22 427.77 215.68 427.49 216.15 427.16 216.63 426.78 217.12 426.33 217.65 425.76 218.24 425.07 218.90 424.26 219.62 423.34 220.41 422.56 221.05 421.89 221.60 421.34 222.06 420.90 222.43 420.58 222.72 420.33 222.96 420.09 223.21 419.87 223.45 419.68 223.70 419.50 223.94 Z M 436.72 223.34 L 436.73 218.24 431.63 218.24 431.63 215.84 436.73 215.84 436.74 210.74 439.14 210.74 439.13 215.84 444.23 215.84 444.23 218.24 439.13 218.24 439.12 223.34 Z" />
<path fill="rgb(0,0,0)" stroke="rgb(0,0,0)" stroke-width="0" d=" M 607.73 218.84 L 607.73 216.44 615.53 216.44 615.52 223.62 614.77 224.19 614.01 224.70 613.24 225.15 612.46 225.55 611.67 225.88 610.87 226.15 610.06 226.37 609.25 226.52 608.43 226.61 607.60 226.64 606.49 226.59 605.42 226.45 604.40 226.21 603.41 225.87 602.47 225.43 601.59 224.91 600.81 224.30 600.11 223.60 599.51 222.81 599.00 221.94 598.58 221.00 598.25 220.02 598.01 219.00 597.87 217.94 597.83 216.83 597.88 215.73 598.02 214.66 598.25 213.61 598.58 212.60 599.00 211.61 599.51 210.70 600.11 209.88 600.78 209.16 601.53 208.54 602.37 208.02 603.27 207.59 604.23 207.26 605.24 207.03 606.31 206.89 607.42 206.84 608.24 206.87 609.02 206.95 609.77 207.09 610.49 207.28 611.18 207.52 611.82 207.82 612.40 208.15 612.93 208.53 613.40 208.96 613.81 209.42 614.17 209.94 614.50 210.51 614.79 211.15 615.04 211.84 615.26 212.60 613.04 213.22 612.86 212.68 612.66 212.18 612.44 211.74 612.20 211.35 611.95 211.00 611.67 210.69 611.34 210.41 610.97 210.16 610.55 209.93 610.08 209.72 609.59 209.55 609.07 209.41 608.53 209.32 607.97 209.26 607.39 209.24 606.69 209.26 606.04 209.32 605.43 209.43 604.85 209.57 604.31 209.76 603.81 209.98 603.36 210.22 602.94 210.50 602.56 210.79 602.22 211.12 601.92 211.46 601.64 211.82 601.39 212.19 601.17 212.57 600.98 212.97 600.71 213.67 600.50 214.41 600.35 215.16 600.26 215.94 600.23 216.74 600.26 217.70 600.37 218.60 600.55 219.44 600.80 220.21 601.13 220.92 601.52 221.56 601.98 222.13 602.50 222.63 603.09 223.06 603.75 223.42 604.44 223.72 605.16 223.95 605.89 224.11 606.64 224.21 607.40 224.24 608.07 224.22 608.74 224.14 609.39 224.02 610.05 223.85 610.69 223.62 611.30 223.37 611.85 223.12 612.34 222.86 612.76 222.59 613.12 222.31 613.13 218.84 Z M 625.09 226.34 L 617.47 207.14 620.04 207.14 625.14 220.97 625.38 221.63 625.60 222.27 625.81 222.89 626.00 223.50 626.17 224.09 626.35 223.47 626.55 222.84 626.75 222.22 626.97 221.60 627.19 220.97 632.34 207.14 634.91 207.14 627.57 226.34 Z M 634.88 226.34 L 642.57 207.14 644.61 207.14 652.25 226.34 649.72 226.34 647.52 220.34 639.62 220.34 637.42 226.34 Z M 640.50 217.94 L 646.65 217.94 644.93 213.22 644.59 212.30 644.29 211.47 644.02 210.73 643.79 210.09 643.59 209.54 643.37 210.14 643.14 210.76 642.90 211.41 642.65 212.10 642.39 212.81 Z M 653.32 220.64 L 653.33 218.24 660.83 218.24 660.82 220.64 Z M 675.23 212.24 L 672.83 212.54 672.69 212.02 672.53 211.56 672.35 211.16 672.15 210.82 671.93 210.54 671.52 210.18 671.07 209.90 670.59 209.70 670.08 209.58 669.52 209.54 669.07 209.56 668.63 209.63 668.19 209.75 667.77 209.91 667.36 210.12 666.98 210.45 666.62 210.83 666.29 211.27 665.99 211.76 665.71 212.30 665.48 212.93 665.29 213.68 665.15 214.53 665.07 215.50 665.03 216.58 665.39 216.09 665.78 215.66 666.21 215.27 666.66 214.94 667.15 214.67 667.65 214.44 668.17 214.27 668.69 214.14 669.23 214.07 669.77 214.04 670.70 214.11 671.57 214.31 672.39 214.66 673.15 215.14 673.85 215.75 674.45 216.48 674.92 217.28 675.26 218.16 675.46 219.13 675.52 220.17 675.49 220.87 675.40 221.56 675.24 222.22 675.01 222.86 674.73 223.48 674.39 224.07 674.00 224.59 673.56 225.06 673.08 225.47 672.55 225.83 671.98 226.12 671.38 226.35 670.75 226.51 670.09 226.61 669.40 226.64 668.25 226.55 667.18 226.30 666.20 225.86 665.31 225.26 664.51 224.48 663.83 223.51 663.30 222.31 662.93 220.89 662.70 219.25 662.63 217.38 662.71 215.28 662.97 213.43 663.39 211.82 663.98 210.46 664.74 209.33 665.52 208.54 666.41 207.93 667.39 207.49 668.48 207.23 669.67 207.14 670.57 207.19 671.39 207.36 672.15 207.63 672.84 208.01 673.47 208.50 674.01 209.08 674.46 209.74 674.81 210.49 675.07 211.33 675.23 212.24 Z M 665.02 220.13 L 665.05 220.57 665.11 220.99 665.22 221.40 665.38 221.81 665.58 222.21 665.82 222.59 666.08 222.93 666.38 223.23 666.70 223.50 667.05 223.72 667.43 223.91 667.84 224.05 668.27 224.16 668.73 224.22 669.21 224.24 669.89 224.20 670.51 224.07 671.07 223.85 671.59 223.55 672.04 223.17 672.43 222.71 672.73 222.19 672.95 221.60 673.08 220.96 673.12 220.25 673.08 219.57 672.96 218.95 672.74 218.40 672.45 217.90 672.07 217.46 671.61 217.09 671.09 216.81 670.50 216.60 669.84 216.48 669.12 216.44 668.46 216.48 667.84 216.60 667.26 216.81 666.72 217.09 666.22 217.46 665.79 217.89 665.46 218.38 665.22 218.91 665.07 219.50 665.02 220.13 Z M 689.92 223.94 L 689.92 226.34 677.32 226.34 677.32 226.00 677.35 225.66 677.40 225.33 677.48 225.01 677.58 224.69 677.78 224.16 678.03 223.65 678.32 223.14 678.66 222.64 679.04 222.14 679.48 221.63 680.00 221.10 680.60 220.54 681.29 219.96 682.05 219.36 683.21 218.36 684.20 217.47 685.03 216.67 685.70 215.96 686.19 215.36 686.57 214.80 686.86 214.25 687.07 213.71 687.19 213.17 687.23 212.64 687.19 212.13 687.08 211.66 686.88 211.22 686.61 210.81 686.26 210.44 685.84 210.12 685.38 209.86 684.87 209.68 684.31 209.58 683.71 209.54 683.07 209.58 682.48 209.68 681.95 209.86 681.47 210.10 681.04 210.42 680.68 210.79 680.40 211.23 680.20 211.71 680.08 212.25 680.03 212.84 677.63 212.54 677.79 211.54 678.05 210.63 678.42 209.83 678.89 209.13 679.48 208.52 680.16 208.03 680.93 207.64 681.78 207.36 682.73 207.20 683.76 207.14 684.80 207.20 685.75 207.39 686.61 207.69 687.38 208.12 688.05 208.68 688.62 209.32 689.07 210.03 689.38 210.79 689.57 211.61 689.63 212.49 689.62 212.96 689.56 213.41 689.48 213.87 689.36 214.32 689.20 214.77 689.01 215.22 688.77 215.68 688.49 216.15 688.16 216.63 687.78 217.12 687.33 217.65 686.76 218.24 686.07 218.90 685.26 219.62 684.34 220.41 683.56 221.05 682.89 221.60 682.34 222.06 681.90 222.43 681.58 222.72 681.33 222.96 681.09 223.21 680.87 223.45 680.68 223.70 680.50 223.94 Z M 697.72 223.34 L 697.73 218.24 692.63 218.24 692.63 215.84 697.73 215.84 697.74 210.74 700.14 210.74 700.13 215.84 705.23 215.84 705.23 218.24 700.13 218.24 700.12 223.34 Z" />
<polyline points="81.00 151.00 210.19 151.00" fill="none" stroke="rgb(0,0,0)" stroke-width="2" />
<polygon points="189.79 156.40 210.19 151.00 189.79 145.60" fill="rgb(0,0,0)" stroke="rgb(0,0,0)" stroke-width="2" />
<path fill="rgb(255,0,0)" stroke="rgb(255,0,0)" stroke-width="0" d=" M 99.18 141.72 L 99.19 137.22 90.49 137.22 90.49 134.82 99.80 122.82 101.60 122.82 101.59 134.82 103.99 134.82 103.99 137.22 101.59 137.22 101.58 141.72 Z M 99.19 134.82 L 99.20 127.41 93.45 134.82 Z M 106.09 132.28 L 106.12 130.98 106.21 129.77 106.35 128.67 106.55 127.66 106.80 126.75 107.12 125.94 107.48 125.22 107.90 124.58 108.37 124.03 108.90 123.57 109.49 123.19 110.13 122.90 110.83 122.69 111.59 122.57 112.40 122.52 113.01 122.55 113.60 122.62 114.16 122.75 114.69 122.92 115.20 123.14 115.68 123.41 116.11 123.73 116.50 124.08 116.84 124.48 117.14 124.93 117.41 125.41 117.65 125.94 117.88 126.51 118.08 127.12 118.26 127.77 118.42 128.48 118.54 129.29 118.63 130.20 118.68 131.19 118.69 132.28 118.66 133.57 118.58 134.77 118.44 135.87 118.24 136.88 117.99 137.78 117.68 138.59 117.32 139.32 116.90 139.96 116.42 140.51 115.90 140.97 115.31 141.35 114.67 141.65 113.96 141.86 113.20 141.98 112.38 142.02 111.31 141.95 110.34 141.73 109.46 141.37 108.68 140.85 108.00 140.20 107.31 139.07 106.78 137.71 106.39 136.13 106.17 134.32 106.09 132.28 Z M 108.49 132.27 L 108.54 133.98 108.67 135.42 108.89 136.61 109.21 137.55 109.61 138.23 110.08 138.73 110.59 139.12 111.15 139.40 111.74 139.57 112.38 139.62 113.02 139.57 113.62 139.40 114.17 139.12 114.69 138.73 115.16 138.23 115.57 137.55 115.88 136.61 116.11 135.42 116.25 133.97 116.29 132.27 116.25 130.62 116.12 129.20 115.91 128.02 115.60 127.08 115.21 126.38 114.75 125.86 114.24 125.45 113.67 125.16 113.05 124.98 112.37 124.92 111.74 124.98 111.15 125.13 110.60 125.39 110.11 125.75 109.66 126.21 109.24 126.98 108.91 127.97 108.68 129.18 108.54 130.62 108.49 132.27 Z M 129.18 141.72 L 129.20 122.52 133.33 122.52 137.25 136.06 137.45 136.77 137.63 137.42 137.79 137.98 137.93 138.47 138.04 138.88 138.16 138.43 138.31 137.89 138.48 137.28 138.67 136.59 138.90 135.82 142.77 122.52 146.90 122.52 146.88 141.72 144.48 141.72 144.50 124.92 139.66 141.72 136.41 141.72 131.60 124.92 131.58 141.72 Z M 151.38 141.72 L 151.40 122.52 153.80 122.52 153.80 130.32 164.00 130.32 164.00 122.52 166.40 122.52 166.38 141.72 163.98 141.72 163.99 132.72 153.79 132.72 153.78 141.72 Z M 168.78 141.72 L 168.79 139.47 177.08 130.02 176.54 130.02 176.02 130.02 175.53 130.02 175.07 130.02 174.63 130.02 169.40 130.02 169.40 127.62 180.50 127.62 180.50 129.66 173.14 138.04 172.02 139.32 172.60 139.32 173.17 139.32 173.72 139.32 174.27 139.32 174.79 139.32 180.79 139.32 180.78 141.72 Z" />
<path fill="rgb(0,0,0)" stroke="rgb(0,0,0)" stroke-width="0" d=" M 90.18 177.72 L 97.59 167.26 91.40 158.52 94.28 158.52 97.77 163.44 98.16 164.01 98.47 164.48 98.71 164.87 98.87 165.16 98.94 165.36 99.18 165.03 99.43 164.67 99.71 164.28 100.00 163.86 100.32 163.41 103.78 158.52 106.70 158.52 100.49 167.29 107.88 177.72 105.00 177.72 100.08 170.77 99.91 170.52 99.72 170.26 99.52 169.97 99.29 169.66 99.06 169.32 98.74 169.77 98.47 170.15 98.24 170.47 98.06 170.72 97.93 170.91 93.10 177.72 Z M 114.78 175.72 L 115.08 177.79 114.69 177.88 114.31 177.94 113.96 177.99 113.61 178.02 113.29 178.02 112.79 178.01 112.34 177.96 111.94 177.88 111.59 177.77 111.28 177.63 111.01 177.46 110.77 177.27 110.57 177.06 110.41 176.83 110.27 176.58 110.17 176.26 110.09 175.83 110.03 175.29 110.00 174.63 109.99 173.86 110.00 166.02 108.20 166.02 108.20 163.62 110.00 163.62 110.00 160.20 112.40 158.79 112.40 163.62 114.80 163.62 114.80 166.02 112.40 166.02 112.39 173.79 112.39 174.14 112.41 174.45 112.43 174.69 112.47 174.89 112.51 175.02 112.57 175.13 112.64 175.23 112.72 175.32 112.82 175.39 112.92 175.46 113.04 175.52 113.19 175.57 113.35 175.60 113.53 175.62 113.74 175.62 113.91 175.63 114.09 175.64 114.30 175.66 114.53 175.69 114.78 175.72 Z M 126.18 175.92 L 125.73 176.36 125.27 176.74 124.80 177.06 124.33 177.33 123.86 177.55 123.37 177.72 122.87 177.85 122.36 177.95 121.83 178.01 121.28 178.02 120.42 177.98 119.64 177.84 118.94 177.61 118.33 177.30 117.80 176.89 117.36 176.40 117.02 175.87 116.78 175.29 116.63 174.66 116.59 173.97 116.61 173.57 116.66 173.17 116.75 172.79 116.88 172.43 117.05 172.08 117.24 171.75 117.46 171.44 117.70 171.17 117.97 170.92 118.26 170.70 118.56 170.50 118.89 170.32 119.22 170.16 119.57 170.03 119.94 169.91 120.24 169.84 120.60 169.76 121.02 169.69 121.49 169.62 122.02 169.55 123.09 169.41 124.04 169.25 124.87 169.09 125.58 168.91 126.18 168.72 126.18 168.57 126.19 168.44 126.19 168.33 126.19 168.25 126.19 168.19 126.17 167.72 126.09 167.30 125.96 166.95 125.77 166.65 125.54 166.42 125.14 166.17 124.68 165.97 124.15 165.84 123.55 165.75 122.88 165.72 122.26 165.74 121.70 165.80 121.22 165.89 120.80 166.02 120.45 166.19 120.15 166.40 119.89 166.67 119.66 167.00 119.46 167.38 119.29 167.82 116.89 167.52 117.04 166.97 117.21 166.45 117.42 165.98 117.66 165.56 117.94 165.18 118.25 164.84 118.62 164.53 119.04 164.26 119.50 164.02 120.03 163.81 120.59 163.63 121.19 163.50 121.82 163.40 122.49 163.34 123.19 163.32 123.88 163.34 124.52 163.39 125.10 163.48 125.63 163.60 126.10 163.75 126.52 163.93 126.90 164.13 127.23 164.34 127.51 164.57 127.74 164.82 127.94 165.09 128.11 165.39 128.26 165.72 128.38 166.07 128.48 166.45 128.52 166.73 128.55 167.08 128.57 167.50 128.59 167.99 128.59 168.55 128.59 171.54 128.59 172.70 128.61 173.70 128.63 174.53 128.66 175.20 128.71 175.71 128.76 176.12 128.84 176.53 128.94 176.94 129.05 177.33 129.18 177.72 126.78 177.72 126.61 177.41 126.46 177.07 126.34 176.71 126.25 176.33 126.18 175.92 Z M 126.19 171.12 L 125.62 171.29 124.95 171.45 124.17 171.60 123.30 171.73 122.32 171.86 121.77 171.93 121.29 172.01 120.87 172.08 120.53 172.16 120.25 172.25 120.02 172.34 119.81 172.45 119.62 172.58 119.46 172.72 119.32 172.88 119.20 173.05 119.11 173.23 119.04 173.41 119.00 173.61 118.99 173.81 119.02 174.11 119.10 174.39 119.24 174.65 119.44 174.89 119.70 175.10 120.01 175.29 120.38 175.44 120.80 175.54 121.27 175.60 121.80 175.62 122.33 175.60 122.84 175.53 123.33 175.42 123.79 175.26 124.23 175.05 124.63 174.81 124.99 174.55 125.30 174.27 125.57 173.98 125.79 173.66 125.93 173.39 126.04 173.06 126.11 172.69 126.16 172.27 126.17 171.80 Z M 131.88 177.72 L 131.90 158.52 134.30 158.52 134.28 177.72 Z M 145.38 177.72 L 145.40 163.62 147.50 163.62 147.50 165.71 147.81 165.17 148.12 164.70 148.42 164.32 148.71 164.01 148.99 163.79 149.27 163.62 149.56 163.49 149.86 163.40 150.17 163.34 150.49 163.32 150.96 163.35 151.44 163.44 151.92 163.59 152.41 163.80 152.90 164.07 152.10 166.22 151.76 166.04 151.42 165.90 151.08 165.80 150.75 165.74 150.41 165.72 150.11 165.74 149.83 165.80 149.56 165.89 149.30 166.03 149.05 166.20 148.82 166.40 148.62 166.64 148.45 166.90 148.30 167.19 148.18 167.51 148.04 168.03 147.93 168.57 147.85 169.13 147.81 169.71 147.79 170.31 147.78 177.72 Z M 164.26 173.52 L 166.61 173.82 166.33 174.59 165.97 175.28 165.53 175.90 165.01 176.45 164.41 176.92 163.73 177.32 162.98 177.63 162.16 177.85 161.27 177.98 160.31 178.02 159.10 177.95 158.00 177.72 157.01 177.34 156.12 176.81 155.33 176.12 154.67 175.30 154.15 174.36 153.78 173.29 153.56 172.10 153.49 170.79 153.57 169.44 153.79 168.21 154.16 167.11 154.68 166.13 155.36 165.28 156.14 164.58 157.02 164.03 157.99 163.64 159.04 163.40 160.19 163.32 161.29 163.40 162.31 163.64 163.25 164.03 164.10 164.58 164.87 165.28 165.53 166.12 166.04 167.10 166.40 168.20 166.62 169.42 166.69 170.78 166.69 170.87 166.69 170.98 166.69 171.11 166.68 171.26 166.67 171.42 155.89 171.42 155.99 172.20 156.18 172.90 156.45 173.52 156.81 174.07 157.27 174.54 157.79 174.93 158.35 175.23 158.97 175.45 159.64 175.58 160.35 175.62 160.89 175.60 161.39 175.54 161.86 175.44 162.30 175.30 162.71 175.12 163.08 174.90 163.43 174.63 163.74 174.31 164.01 173.94 164.26 173.52 Z M 155.89 169.02 L 164.29 169.02 164.20 168.47 164.06 167.98 163.87 167.55 163.62 167.17 163.33 166.85 162.82 166.44 162.24 166.13 161.61 165.90 160.92 165.77 160.18 165.72 159.50 165.76 158.86 165.87 158.27 166.05 157.72 166.30 157.22 166.62 156.78 167.01 156.43 167.44 156.17 167.92 155.99 168.45 155.89 169.02 Z M 169.68 177.72 L 169.70 166.02 167.60 166.02 167.60 163.62 169.70 163.62 169.70 162.20 169.71 161.69 169.74 161.24 169.79 160.84 169.86 160.49 169.95 160.20 170.12 159.86 170.32 159.55 170.57 159.26 170.85 159.01 171.18 158.77 171.56 158.58 171.99 158.42 172.47 158.31 173.01 158.25 173.60 158.22 174.01 158.23 174.43 158.27 174.86 158.32 175.32 158.39 175.79 158.49 175.44 160.74 175.15 160.70 174.87 160.66 174.59 160.64 174.32 160.63 174.06 160.62 173.65 160.64 173.30 160.69 173.00 160.77 172.75 160.88 172.54 161.02 172.38 161.21 172.26 161.45 172.17 161.75 172.12 162.10 172.10 162.51 172.10 163.62 174.80 163.62 174.80 166.02 172.10 166.02 172.08 177.72 Z M 177.18 177.72 L 177.19 175.32 179.59 175.32 179.58 177.72 Z" />
<path fill="none" stroke="rgb(128,128,128)" stroke-width="2" stroke-dasharray="4,8" d=" M 41 41 L 751 41 751 261 41 261 41 41 Z" />
<path fill="none" stroke="rgb(128,128,128)" stroke-width="2" stroke-dasharray="4,8" d=" M 751 41 L 1421 41 1421 261 751 261 751 41 Z" />
<path fill="rgb(0,0,0)" stroke="rgb(0,0,0)" stroke-width="0" d=" M 43.80 293.00 L 43.83 267.40 53.31 267.40 54.27 267.41 55.13 267.44 55.89 267.49 56.56 267.56 57.14 267.64 57.86 267.79 58.53 267.99 59.15 268.22 59.72 268.51 60.25 268.84 60.73 269.22 61.17 269.66 61.57 270.16 61.94 270.71 62.26 271.32 62.53 271.96 62.75 272.64 62.90 273.34 62.99 274.06 63.02 274.81 62.94 276.07 62.69 277.26 62.28 278.37 61.70 279.39 60.96 280.34 60.00 281.15 58.78 281.79 57.29 282.24 55.54 282.51 53.52 282.60 47.01 282.60 47.00 293.00 Z M 47.01 279.40 L 53.71 279.40 54.96 279.35 56.05 279.21 57.00 278.98 57.79 278.65 58.42 278.23 58.92 277.72 59.32 277.13 59.60 276.47 59.76 275.73 59.82 274.92 59.79 274.32 59.69 273.75 59.52 273.22 59.29 272.73 59.00 272.27 58.65 271.86 58.26 271.51 57.83 271.22 57.36 270.99 56.84 270.82 56.44 270.74 55.91 270.68 55.27 270.64 54.52 270.61 53.64 270.60 47.03 270.60 Z M 67.40 293.00 L 67.43 267.40 70.62 267.40 70.61 289.80 83.41 289.80 83.40 293.00 Z M 87.00 293.00 L 87.03 267.40 90.22 267.40 90.21 289.80 103.01 289.80 103.00 293.00 Z M 117.40 293.00 L 114.20 293.00 114.22 273.05 113.73 273.48 113.18 273.91 112.57 274.35 111.91 274.78 111.19 275.21 110.45 275.62 109.75 275.99 109.07 276.31 108.43 276.59 107.82 276.83 107.82 273.80 108.86 273.28 109.86 272.73 110.80 272.13 111.68 271.49 112.51 270.81 113.27 270.11 113.93 269.42 114.50 268.74 114.98 268.06 115.36 267.40 117.43 267.40 Z M 124.21 285.40 L 124.21 282.20 134.21 282.20 134.21 285.40 Z M 149.00 293.00 L 145.80 293.00 145.82 273.05 145.33 273.48 144.78 273.91 144.17 274.35 143.51 274.78 142.79 275.21 142.05 275.62 141.35 275.99 140.67 276.31 140.03 276.59 139.42 276.83 139.42 273.80 140.46 273.28 141.46 272.73 142.40 272.13 143.28 271.49 144.11 270.81 144.87 270.11 145.53 269.42 146.10 268.74 146.58 268.06 146.96 267.40 149.02 267.40 Z" />
<path fill="rgb(0,0,0)" stroke="rgb(0,0,0)" stroke-width="0" d=" M 753.80 293.00 L 753.83 267.40 763.31 267.40 764.27 267.41 765.13 267.44 765.89 267.49 766.56 267.56 767.14 267.64 767.86 267.79 768.53 267.99 769.15 268.22 769.72 268.51 770.25 268.84 770.73 269.22 771.17 269.66 771.57 270.16 771.94 270.71 772.26 271.32 772.53 271.96 772.75 272.64 772.90 273.34 772.99 274.06 773.02 274.81 772.94 276.07 772.69 277.26 772.28 278.37 771.70 279.39 770.96 280.34 770.00 281.15 768.78 281.79 767.29 282.24 765.54 282.51 763.52 282.60 757.01 282.60 757.00 293.00 Z M 757.01 279.40 L 763.71 279.40 764.96 279.35 766.05 279.21 767.00 278.98 767.79 278.65 768.42 278.23 768.92 277.72 769.32 277.13 769.60 276.47 769.76 275.73 769.82 274.92 769.79 274.32 769.69 273.75 769.52 273.22 769.29 272.73 769.00 272.27 768.65 271.86 768.26 271.51 767.83 271.22 767.36 270.99 766.84 270.82 766.44 270.74 765.91 270.68 765.27 270.64 764.52 270.61 763.64 270.60 757.03 270.60 Z M 777.40 293.00 L 777.42 267.40 780.62 267.40 780.61 289.80 793.41 289.80 793.40 293.00 Z M 797.00 293.00 L 797.03 267.40 800.22 267.40 800.21 289.80 813.01 289.80 813.00 293.00 Z M 827.40 293.00 L 824.20 293.00 824.22 273.05 823.73 273.48 823.18 273.91 822.57 274.35 821.91 274.78 821.19 275.21 820.45 275.62 819.75 275.99 819.07 276.31 818.43 276.59 817.82 276.83 817.82 273.80 818.86 273.28 819.86 272.73 820.80 272.13 821.68 271.49 822.51 270.81 823.27 270.11 823.93 269.42 824.50 268.74 824.98 268.06 825.36 267.40 827.42 267.40 Z M 834.21 285.40 L 834.21 282.20 844.21 282.20 844.21 285.40 Z M 863.41 289.80 L 863.40 293.00 846.60 293.00 846.60 292.54 846.64 292.10 846.71 291.65 846.81 291.22 846.94 290.79 847.22 290.10 847.55 289.41 847.94 288.73 848.39 288.06 848.89 287.40 849.48 286.72 850.18 286.01 850.98 285.27 851.89 284.50 852.91 283.69 854.45 282.36 855.78 281.17 856.89 280.10 857.77 279.17 858.43 278.36 858.93 277.62 859.32 276.88 859.60 276.16 859.76 275.44 859.82 274.73 859.77 274.06 859.61 273.43 859.35 272.84 858.99 272.30 858.52 271.80 857.97 271.37 857.35 271.03 856.67 270.79 855.93 270.65 855.12 270.60 854.27 270.65 853.49 270.79 852.78 271.02 852.14 271.35 851.57 271.77 851.09 272.27 850.71 272.85 850.44 273.49 850.28 274.21 850.22 275.00 847.02 274.60 847.22 273.26 847.57 272.06 848.06 270.99 848.70 270.05 849.48 269.24 850.39 268.58 851.41 268.06 852.55 267.70 853.81 267.47 855.19 267.40 856.57 267.48 857.84 267.73 858.99 268.14 860.01 268.71 860.92 269.45 861.67 270.31 862.26 271.25 862.69 272.27 862.94 273.36 863.02 274.54 863.00 275.15 862.93 275.76 862.81 276.37 862.65 276.97 862.45 277.57 862.19 278.17 861.87 278.79 861.49 279.42 861.05 280.06 860.55 280.71 859.95 281.41 859.18 282.20 858.27 283.08 857.19 284.04 855.96 285.09 854.92 285.94 854.03 286.68 853.29 287.29 852.71 287.79 852.28 288.17 851.94 288.50 851.63 288.82 851.34 289.15 851.08 289.47 850.84 289.80 Z" />
<polyline points="921.00 201.00 921.00 231.00 861.00 231.00" fill="none" stroke="rgb(0,0,0)" stroke-width="2" />
<polygon points="881.40 225.60 861.00 231.00 881.40 236.40" fill="rgb(255,255,255)" stroke="rgb(0,0,0)" stroke-width="2" />
<path fill="rgb(0,0,0)" stroke="rgb(0,0,0)" stroke-width="0" d=" M 812.85 234.41 L 815.25 234.41 815.34 234.98 815.46 235.50 815.61 235.98 815.80 236.42 816.03 236.82 816.30 237.18 816.62 237.51 817.00 237.81 817.43 238.09 817.91 238.34 818.44 238.54 818.99 238.71 819.56 238.82 820.16 238.89 820.79 238.91 821.34 238.90 821.87 238.84 822.38 238.76 822.85 238.63 823.30 238.48 823.71 238.29 824.08 238.07 824.41 237.83 824.69 237.57 824.92 237.27 825.11 236.96 825.26 236.65 825.37 236.32 825.43 236.00 825.45 235.66 825.44 235.33 825.39 235.01 825.31 234.71 825.20 234.43 825.06 234.16 824.87 233.92 824.61 233.68 824.28 233.46 823.89 233.26 823.43 233.07 823.04 232.94 822.49 232.79 821.79 232.60 820.94 232.39 819.93 232.16 818.92 231.91 818.03 231.67 817.28 231.43 816.66 231.20 816.17 230.97 815.65 230.67 815.19 230.34 814.78 229.98 814.43 229.60 814.13 229.19 813.89 228.75 813.70 228.30 813.57 227.82 813.49 227.32 813.46 226.80 813.50 226.23 813.60 225.67 813.77 225.13 814.00 224.60 814.30 224.09 814.66 223.60 815.09 223.17 815.57 222.79 816.12 222.45 816.73 222.17 817.38 221.93 818.07 221.75 818.78 221.62 819.52 221.54 820.29 221.51 821.13 221.54 821.93 221.62 822.69 221.76 823.41 221.95 824.09 222.20 824.71 222.50 825.28 222.85 825.79 223.25 826.23 223.71 826.61 224.21 826.93 224.75 827.19 225.33 827.38 225.93 827.50 226.56 827.56 227.21 825.16 227.21 825.04 226.59 824.85 226.04 824.58 225.54 824.23 225.11 823.81 224.75 823.30 224.45 822.70 224.22 822.02 224.05 821.24 223.95 820.38 223.91 819.49 223.95 818.70 224.05 818.01 224.21 817.43 224.44 816.94 224.74 816.55 225.08 816.25 225.45 816.04 225.85 815.91 226.28 815.86 226.73 815.89 227.12 815.99 227.48 816.14 227.82 816.35 228.12 816.63 228.40 817.02 228.66 817.61 228.93 818.40 229.19 819.37 229.46 820.54 229.74 821.73 230.00 822.74 230.26 823.59 230.50 824.27 230.73 824.79 230.94 825.39 231.27 825.92 231.62 826.38 232.01 826.78 232.43 827.11 232.89 827.38 233.37 827.59 233.89 827.74 234.43 827.83 235.00 827.85 235.60 827.82 236.20 827.72 236.79 827.54 237.37 827.30 237.93 826.99 238.47 826.62 238.99 826.18 239.45 825.69 239.87 825.13 240.24 824.51 240.57 823.85 240.84 823.16 241.05 822.43 241.20 821.67 241.28 820.88 241.31 819.89 241.28 818.97 241.19 818.11 241.02 817.32 240.80 816.60 240.51 815.94 240.15 815.33 239.73 814.79 239.25 814.31 238.70 813.89 238.08 813.53 237.41 813.25 236.72 813.04 235.98 812.91 235.22 812.85 234.41 Z M 831.45 241.01 L 831.47 221.81 838.58 221.81 839.30 221.82 839.94 221.84 840.52 221.88 841.02 221.93 841.45 222.00 841.99 222.11 842.49 222.25 842.96 222.43 843.39 222.65 843.78 222.90 844.15 223.18 844.48 223.51 844.78 223.88 845.05 224.30 845.29 224.75 845.50 225.24 845.66 225.74 845.77 226.27 845.84 226.81 845.86 227.37 845.80 228.32 845.62 229.21 845.31 230.04 844.87 230.81 844.32 231.52 843.60 232.13 842.68 232.60 841.57 232.94 840.25 233.15 838.74 233.21 833.86 233.21 833.85 241.01 Z M 833.86 230.81 L 838.88 230.81 839.82 230.78 840.64 230.67 841.35 230.50 841.94 230.25 842.42 229.93 842.79 229.55 843.09 229.11 843.30 228.62 843.42 228.06 843.46 227.45 843.44 227.00 843.37 226.58 843.24 226.18 843.07 225.81 842.85 225.47 842.59 225.16 842.30 224.90 841.97 224.68 841.62 224.51 841.23 224.38 840.93 224.32 840.54 224.27 840.06 224.24 839.49 224.22 838.83 224.21 833.87 224.21 Z M 849.45 241.01 L 849.47 221.81 851.87 221.81 851.85 241.01 Z" />
<polyline points="231.00 201.00 231.00 231.00 171.00 231.00" fill="none" stroke="rgb(0,0,0)" stroke-width="2" />
<polygon points="191.40 225.60 171.00 231.00 191.40 236.40" fill="rgb(255,255,255)" stroke="rgb(0,0,0)" stroke-width="2" />
<path fill="rgb(0,0,0)" stroke="rgb(0,0,0)" stroke-width="0" d=" M 122.85 234.41 L 125.25 234.41 125.34 234.98 125.46 235.50 125.61 235.98 125.80 236.42 126.03 236.82 126.30 237.18 126.62 237.51 127.00 237.81 127.43 238.09 127.91 238.34 128.44 238.54 128.99 238.71 129.56 238.82 130.16 238.89 130.79 238.91 131.34 238.90 131.87 238.84 132.38 238.76 132.85 238.63 133.30 238.48 133.71 238.29 134.08 238.07 134.41 237.83 134.69 237.57 134.92 237.27 135.11 236.96 135.26 236.65 135.37 236.32 135.43 236.00 135.45 235.66 135.44 235.33 135.39 235.01 135.31 234.71 135.20 234.43 135.06 234.16 134.87 233.92 134.61 233.68 134.28 233.46 133.89 233.26 133.43 233.07 133.04 232.94 132.49 232.79 131.79 232.60 130.94 232.39 129.93 232.16 128.92 231.91 128.03 231.67 127.28 231.43 126.66 231.20 126.17 230.97 125.65 230.67 125.19 230.34 124.78 229.98 124.43 229.60 124.13 229.19 123.89 228.75 123.70 228.30 123.57 227.82 123.49 227.32 123.46 226.80 123.50 226.23 123.60 225.67 123.77 225.13 124.00 224.60 124.30 224.09 124.66 223.60 125.09 223.17 125.57 222.79 126.12 222.45 126.73 222.17 127.38 221.93 128.07 221.75 128.78 221.62 129.52 221.54 130.29 221.51 131.13 221.54 131.93 221.62 132.69 221.76 133.41 221.95 134.09 222.20 134.71 222.50 135.28 222.85 135.79 223.25 136.23 223.71 136.61 224.21 136.93 224.75 137.19 225.33 137.38 225.93 137.50 226.56 137.56 227.21 135.16 227.21 135.04 226.59 134.85 226.04 134.58 225.54 134.23 225.11 133.81 224.75 133.30 224.45 132.70 224.22 132.02 224.05 131.24 223.95 130.38 223.91 129.49 223.95 128.70 224.05 128.01 224.21 127.43 224.44 126.94 224.74 126.55 225.08 126.25 225.45 126.04 225.85 125.91 226.28 125.86 226.73 125.89 227.12 125.99 227.48 126.14 227.82 126.35 228.12 126.63 228.40 127.02 228.66 127.61 228.93 128.40 229.19 129.37 229.46 130.54 229.74 131.73 230.00 132.74 230.26 133.59 230.50 134.27 230.73 134.79 230.94 135.39 231.27 135.92 231.62 136.38 232.01 136.78 232.43 137.11 232.89 137.38 233.37 137.59 233.89 137.74 234.43 137.83 235.00 137.85 235.60 137.82 236.20 137.72 236.79 137.54 237.37 137.30 237.93 136.99 238.47 136.62 238.99 136.18 239.45 135.69 239.87 135.13 240.24 134.51 240.57 133.85 240.84 133.16 241.05 132.43 241.20 131.67 241.28 130.88 241.31 129.89 241.28 128.97 241.19 128.11 241.02 127.32 240.80 126.60 240.51 125.94 240.15 125.33 239.73 124.79 239.25 124.31 238.70 123.89 238.08 123.53 237.41 123.25 236.72 123.04 235.98 122.91 235.22 122.85 234.41 Z M 141.45 241.01 L 141.47 221.81 148.58 221.81 149.30 221.82 149.94 221.84 150.52 221.88 151.02 221.93 151.45 222.00 151.99 222.11 152.49 222.25 152.96 222.43 153.39 222.65 153.78 222.90 154.15 223.18 154.48 223.51 154.78 223.88 155.05 224.30 155.29 224.75 155.50 225.24 155.66 225.74 155.77 226.27 155.84 226.81 155.86 227.37 155.80 228.32 155.62 229.21 155.31 230.04 154.87 230.81 154.32 231.52 153.60 232.13 152.68 232.60 151.57 232.94 150.25 233.15 148.74 233.21 143.86 233.21 143.85 241.01 Z M 143.86 230.81 L 148.88 230.81 149.82 230.78 150.64 230.67 151.35 230.50 151.94 230.25 152.42 229.93 152.79 229.55 153.09 229.11 153.30 228.62 153.42 228.06 153.46 227.45 153.44 227.00 153.37 226.58 153.24 226.18 153.07 225.81 152.85 225.47 152.59 225.16 152.30 224.90 151.97 224.68 151.62 224.51 151.23 224.38 150.93 224.32 150.54 224.27 150.06 224.24 149.49 224.22 148.83 224.21 143.87 224.21 Z M 159.45 241.01 L 159.47 221.81 161.87 221.81 161.85 241.01 Z" />
</svg>
