%FSLAX34Y34*%
%MOMM*%
%LNCOPPER_INNER2*%
G71*
G01*
%ADD10C,1.600*%
%ADD11C,1.400*%
%ADD12C,1.100*%
%ADD13C,1.300*%
%ADD14C,0.600*%
%ADD15C,0.800*%
%ADD16C,0.500*%
%LPD*%
G36*
X0Y1000000D02*
X602000Y1000000D01*
X602000Y798000D01*
X0Y798000D01*
X0Y1000000D01*
G37*
%LPC*%
X468500Y899300D02*
G54D10*
D03*
X454300Y974800D02*
G54D10*
D03*
X408100Y827300D02*
G54D11*
D03*
X413900Y847700D02*
G54D11*
D03*
X413800Y837900D02*
G54D11*
D03*
X420000Y827600D02*
G54D11*
D03*
X344830Y883298D02*
G54D10*
D03*
X440600Y863200D02*
G54D10*
D03*
X371975Y871329D02*
G54D10*
D03*
X389000Y954900D02*
G54D10*
D03*
X336200Y906000D02*
G54D10*
D03*
X345300Y974000D02*
G54D10*
D03*
X262256Y931891D02*
G54D10*
D03*
X381400Y929600D02*
G54D10*
D03*
X448400Y925300D02*
G54D10*
D03*
G54D12*
X454300Y974800D02*
X447000Y967500D01*
X447000Y956000D01*
X468500Y934500D01*
X468500Y899300D01*
G54D12*
X344830Y883298D02*
X366178Y904683D01*
X384000Y917000D01*
X395000Y924000D01*
X436000Y951000D01*
X447000Y956000D01*
G54D13*
X336200Y906000D02*
X385100Y954900D01*
X389000Y954900D01*
%LPD*%
X394019Y912595D02*
G54D14*
D03*
X400019Y912595D02*
G54D14*
D03*
X406019Y912595D02*
G54D14*
D03*
X412019Y912595D02*
G54D14*
D03*
X394019Y906595D02*
G54D14*
D03*
X400019Y906595D02*
G54D14*
D03*
X406019Y906595D02*
G54D14*
D03*
X412019Y906595D02*
G54D14*
D03*
X394019Y900595D02*
G54D14*
D03*
X400019Y900595D02*
G54D14*
D03*
X406019Y900595D02*
G54D14*
D03*
X412019Y900595D02*
G54D14*
D03*
X394019Y894595D02*
G54D14*
D03*
X400019Y894595D02*
G54D14*
D03*
X406019Y894595D02*
G54D14*
D03*
X412019Y894595D02*
G54D14*
D03*
X418019Y912595D02*
G54D14*
D03*
X424019Y912595D02*
G54D14*
D03*
X418019Y906595D02*
G54D14*
D03*
X424019Y906595D02*
G54D14*
D03*
X418019Y900595D02*
G54D14*
D03*
X424019Y900595D02*
G54D14*
D03*
X418019Y894595D02*
G54D14*
D03*
X424019Y894595D02*
G54D14*
D03*
X394019Y888595D02*
G54D14*
D03*
X400019Y888595D02*
G54D14*
D03*
X406019Y888595D02*
G54D14*
D03*
X412019Y888595D02*
G54D14*
D03*
X394019Y882595D02*
G54D14*
D03*
X400019Y882595D02*
G54D14*
D03*
X406019Y882595D02*
G54D14*
D03*
X412019Y882595D02*
G54D14*
D03*
X418019Y888595D02*
G54D14*
D03*
X424019Y888595D02*
G54D14*
D03*
X418019Y882595D02*
G54D14*
D03*
X424019Y882595D02*
G54D14*
D03*
X452364Y914113D02*
G54D14*
D03*
X485864Y915113D02*
G54D14*
D03*
X485864Y921113D02*
G54D14*
D03*
X485864Y927113D02*
G54D14*
D03*
X495357Y932076D02*
G54D14*
D03*
X495396Y938314D02*
G54D14*
D03*
X491774Y926878D02*
G54D14*
D03*
X468500Y899300D02*
G54D15*
D03*
X454300Y974800D02*
G54D15*
D03*
X408100Y827300D02*
G54D14*
D03*
X413900Y847700D02*
G54D14*
D03*
X413800Y837900D02*
G54D14*
D03*
X420000Y827600D02*
G54D14*
D03*
X344830Y883298D02*
G54D15*
D03*
X493084Y881954D02*
G54D14*
D03*
X498814Y884192D02*
G54D14*
D03*
X504176Y887167D02*
G54D14*
D03*
X509079Y890862D02*
G54D14*
D03*
X513331Y895238D02*
G54D14*
D03*
X516906Y900134D02*
G54D14*
D03*
X519682Y905619D02*
G54D14*
D03*
X521925Y911318D02*
G54D14*
D03*
X524574Y916790D02*
G54D14*
D03*
X527901Y921917D02*
G54D14*
D03*
X531720Y926693D02*
G54D14*
D03*
X536093Y930911D02*
G54D14*
D03*
X540948Y934548D02*
G54D14*
D03*
X546146Y937618D02*
G54D14*
D03*
X551718Y940056D02*
G54D14*
D03*
X557516Y941841D02*
G54D14*
D03*
X563530Y942901D02*
G54D14*
D03*
X574514Y939183D02*
G54D14*
D03*
X580836Y939216D02*
G54D14*
D03*
X586961Y939348D02*
G54D14*
D03*
X593255Y939269D02*
G54D14*
D03*
X593322Y927339D02*
G54D14*
D03*
X573542Y960664D02*
G54D14*
D03*
X579631Y960656D02*
G54D14*
D03*
X585776Y960716D02*
G54D14*
D03*
X591966Y960751D02*
G54D14*
D03*
X595437Y965817D02*
G54D14*
D03*
X576584Y966053D02*
G54D14*
D03*
X582920Y966438D02*
G54D14*
D03*
X502401Y879253D02*
G54D14*
D03*
X513022Y873567D02*
G54D14*
D03*
X571905Y860641D02*
G54D14*
D03*
X577969Y860618D02*
G54D14*
D03*
X584001Y860624D02*
G54D14*
D03*
X590039Y860630D02*
G54D14*
D03*
X596080Y860618D02*
G54D14*
D03*
X594379Y866464D02*
G54D14*
D03*
X593873Y872464D02*
G54D14*
D03*
X593873Y879164D02*
G54D14*
D03*
X593873Y885264D02*
G54D14*
D03*
X593873Y892264D02*
G54D14*
D03*
X593873Y899264D02*
G54D14*
D03*
X593873Y906264D02*
G54D14*
D03*
X593873Y913264D02*
G54D14*
D03*
X593873Y920264D02*
G54D14*
D03*
X507867Y876704D02*
G54D14*
D03*
X576094Y866337D02*
G54D14*
D03*
X582104Y866352D02*
G54D14*
D03*
X588311Y866381D02*
G54D14*
D03*
X485640Y865805D02*
G54D14*
D03*
X491022Y868743D02*
G54D14*
D03*
X493272Y850445D02*
G54D14*
D03*
X570833Y839566D02*
G54D14*
D03*
X576854Y839341D02*
G54D14*
D03*
X582913Y839312D02*
G54D14*
D03*
X589016Y839337D02*
G54D14*
D03*
X595117Y839384D02*
G54D14*
D03*
X573597Y834213D02*
G54D14*
D03*
X579844Y834102D02*
G54D14*
D03*
X585989Y834006D02*
G54D14*
D03*
X592020Y834168D02*
G54D14*
D03*
X467610Y865896D02*
G54D14*
D03*
X479616Y865896D02*
G54D14*
D03*
X473587Y865871D02*
G54D14*
D03*
X579873Y921264D02*
G54D14*
D03*
X567873Y921264D02*
G54D14*
D03*
X554873Y921264D02*
G54D14*
D03*
X554873Y908264D02*
G54D14*
D03*
X567873Y908264D02*
G54D14*
D03*
X579873Y908264D02*
G54D14*
D03*
X554873Y895264D02*
G54D14*
D03*
X567873Y895264D02*
G54D14*
D03*
X579873Y895264D02*
G54D14*
D03*
X579873Y881264D02*
G54D14*
D03*
X567628Y881609D02*
G54D14*
D03*
X554873Y881264D02*
G54D14*
D03*
X540873Y881264D02*
G54D14*
D03*
X540873Y895264D02*
G54D14*
D03*
X541873Y908264D02*
G54D14*
D03*
X547873Y874264D02*
G54D14*
D03*
X561873Y873264D02*
G54D14*
D03*
X573873Y872264D02*
G54D14*
D03*
X584873Y872264D02*
G54D14*
D03*
X466373Y972264D02*
G54D14*
D03*
X499373Y965264D02*
G54D14*
D03*
X511373Y959264D02*
G54D14*
D03*
X525873Y968264D02*
G54D14*
D03*
X547873Y976264D02*
G54D14*
D03*
X570873Y977264D02*
G54D14*
D03*
X582438Y977273D02*
G54D14*
D03*
X521873Y980264D02*
G54D14*
D03*
X501873Y978264D02*
G54D14*
D03*
X467873Y979264D02*
G54D14*
D03*
X483873Y979264D02*
G54D14*
D03*
X474373Y979264D02*
G54D14*
D03*
X475087Y972058D02*
G54D14*
D03*
X492373Y972264D02*
G54D14*
D03*
X486690Y964926D02*
G54D14*
D03*
X513310Y969628D02*
G54D14*
D03*
X535873Y979264D02*
G54D14*
D03*
X440600Y863200D02*
G54D15*
D03*
X498995Y852679D02*
G54D14*
D03*
X512761Y836608D02*
G54D14*
D03*
X368605Y806050D02*
G54D14*
D03*
X361046Y806502D02*
G54D14*
D03*
X371975Y871329D02*
G54D15*
D03*
X404542Y817820D02*
G54D14*
D03*
X404619Y805042D02*
G54D14*
D03*
X416729Y806012D02*
G54D14*
D03*
X426729Y806512D02*
G54D14*
D03*
X436729Y806512D02*
G54D14*
D03*
X446729Y806512D02*
G54D14*
D03*
X456729Y806512D02*
G54D14*
D03*
X466729Y806512D02*
G54D14*
D03*
X476729Y806512D02*
G54D14*
D03*
X486729Y806512D02*
G54D14*
D03*
X496729Y806512D02*
G54D14*
D03*
X506729Y806512D02*
G54D14*
D03*
X516729Y806512D02*
G54D14*
D03*
X526729Y806512D02*
G54D14*
D03*
X536729Y806512D02*
G54D14*
D03*
X546729Y806512D02*
G54D14*
D03*
X556729Y806512D02*
G54D14*
D03*
X566729Y806512D02*
G54D14*
D03*
X576729Y806512D02*
G54D14*
D03*
X586729Y806512D02*
G54D14*
D03*
X593600Y827000D02*
G54D14*
D03*
X593600Y817000D02*
G54D14*
D03*
X593600Y807000D02*
G54D14*
D03*
X536729Y991512D02*
G54D14*
D03*
X546729Y991512D02*
G54D14*
D03*
X556729Y991512D02*
G54D14*
D03*
X566729Y991512D02*
G54D14*
D03*
X576729Y991512D02*
G54D14*
D03*
X586729Y991512D02*
G54D14*
D03*
X593601Y991622D02*
G54D14*
D03*
X593601Y981622D02*
G54D14*
D03*
X593601Y971623D02*
G54D14*
D03*
X476729Y991512D02*
G54D14*
D03*
X486729Y991512D02*
G54D14*
D03*
X496729Y991512D02*
G54D14*
D03*
X506729Y991512D02*
G54D14*
D03*
X516729Y991512D02*
G54D14*
D03*
X526729Y991512D02*
G54D14*
D03*
X416729Y991512D02*
G54D14*
D03*
X426729Y991512D02*
G54D14*
D03*
X436729Y991512D02*
G54D14*
D03*
X446729Y991512D02*
G54D14*
D03*
X456729Y991512D02*
G54D14*
D03*
X466729Y991512D02*
G54D14*
D03*
X356729Y991512D02*
G54D14*
D03*
X366729Y991512D02*
G54D14*
D03*
X376729Y991512D02*
G54D14*
D03*
X386729Y991512D02*
G54D14*
D03*
X396729Y991512D02*
G54D14*
D03*
X406729Y991512D02*
G54D14*
D03*
X296729Y991512D02*
G54D14*
D03*
X306729Y991512D02*
G54D14*
D03*
X316729Y991512D02*
G54D14*
D03*
X326729Y991512D02*
G54D14*
D03*
X336729Y991512D02*
G54D14*
D03*
X346729Y991512D02*
G54D14*
D03*
X236729Y991512D02*
G54D14*
D03*
X246729Y991512D02*
G54D14*
D03*
X256729Y991512D02*
G54D14*
D03*
X266729Y991512D02*
G54D14*
D03*
X276729Y991512D02*
G54D14*
D03*
X286729Y991512D02*
G54D14*
D03*
X176729Y991512D02*
G54D14*
D03*
X186729Y991512D02*
G54D14*
D03*
X196729Y991512D02*
G54D14*
D03*
X206729Y991512D02*
G54D14*
D03*
X216729Y991512D02*
G54D14*
D03*
X226729Y991512D02*
G54D14*
D03*
X301729Y806512D02*
G54D14*
D03*
X311729Y806512D02*
G54D14*
D03*
X321729Y806512D02*
G54D14*
D03*
X331729Y806512D02*
G54D14*
D03*
X341729Y806512D02*
G54D14*
D03*
X351729Y806512D02*
G54D14*
D03*
X241729Y806512D02*
G54D14*
D03*
X251729Y806512D02*
G54D14*
D03*
X261729Y806512D02*
G54D14*
D03*
X271729Y806512D02*
G54D14*
D03*
X281729Y806512D02*
G54D14*
D03*
X291729Y806512D02*
G54D14*
D03*
X181729Y806512D02*
G54D14*
D03*
X191729Y806512D02*
G54D14*
D03*
X201729Y806512D02*
G54D14*
D03*
X211729Y806512D02*
G54D14*
D03*
X221729Y806512D02*
G54D14*
D03*
X231729Y806512D02*
G54D14*
D03*
X389000Y954900D02*
G54D15*
D03*
X336200Y906000D02*
G54D15*
D03*
X345300Y974000D02*
G54D15*
D03*
X241788Y941977D02*
G54D14*
D03*
X241788Y918877D02*
G54D14*
D03*
X241788Y895777D02*
G54D14*
D03*
X241823Y874578D02*
G54D14*
D03*
X241751Y853579D02*
G54D14*
D03*
X241752Y832079D02*
G54D14*
D03*
X241756Y843191D02*
G54D14*
D03*
X241756Y864091D02*
G54D14*
D03*
X241756Y884991D02*
G54D14*
D03*
X241756Y905891D02*
G54D14*
D03*
X241756Y931891D02*
G54D14*
D03*
X235288Y918877D02*
G54D14*
D03*
X229288Y918877D02*
G54D14*
D03*
X223288Y918877D02*
G54D14*
D03*
X248288Y918877D02*
G54D14*
D03*
X209438Y918877D02*
G54D14*
D03*
X216150Y918950D02*
G54D14*
D03*
X262256Y931891D02*
G54D15*
D03*
X121729Y806512D02*
G54D14*
D03*
X131729Y806512D02*
G54D14*
D03*
X141729Y806512D02*
G54D14*
D03*
X151729Y806512D02*
G54D14*
D03*
X161729Y806512D02*
G54D14*
D03*
X171729Y806512D02*
G54D14*
D03*
X61729Y806512D02*
G54D14*
D03*
X71729Y806512D02*
G54D14*
D03*
X81729Y806512D02*
G54D14*
D03*
X91729Y806512D02*
G54D14*
D03*
X101729Y806512D02*
G54D14*
D03*
X111729Y806512D02*
G54D14*
D03*
X8229Y981512D02*
G54D14*
D03*
X8229Y971512D02*
G54D14*
D03*
X8229Y961512D02*
G54D14*
D03*
X8229Y951512D02*
G54D14*
D03*
X8229Y941512D02*
G54D14*
D03*
X8229Y931512D02*
G54D14*
D03*
X116729Y991512D02*
G54D14*
D03*
X126729Y991512D02*
G54D14*
D03*
X136729Y991512D02*
G54D14*
D03*
X146729Y991512D02*
G54D14*
D03*
X156729Y991512D02*
G54D14*
D03*
X166729Y991512D02*
G54D14*
D03*
X56729Y991512D02*
G54D14*
D03*
X66729Y991512D02*
G54D14*
D03*
X76729Y991512D02*
G54D14*
D03*
X86729Y991512D02*
G54D14*
D03*
X96729Y991512D02*
G54D14*
D03*
X106729Y991512D02*
G54D14*
D03*
X8229Y990012D02*
G54D14*
D03*
X16729Y991512D02*
G54D14*
D03*
X26729Y991512D02*
G54D14*
D03*
X36729Y991512D02*
G54D14*
D03*
X46729Y991512D02*
G54D14*
D03*
X11729Y806512D02*
G54D14*
D03*
X21729Y806512D02*
G54D14*
D03*
X31729Y806512D02*
G54D14*
D03*
X41729Y806512D02*
G54D14*
D03*
X51729Y806512D02*
G54D14*
D03*
X8229Y921512D02*
G54D14*
D03*
X8229Y911512D02*
G54D14*
D03*
X8229Y901512D02*
G54D14*
D03*
X8229Y891512D02*
G54D14*
D03*
X8229Y881512D02*
G54D14*
D03*
X8229Y871512D02*
G54D14*
D03*
X8229Y861512D02*
G54D14*
D03*
X8229Y851512D02*
G54D14*
D03*
X8229Y841512D02*
G54D14*
D03*
X8229Y831512D02*
G54D14*
D03*
X8229Y821512D02*
G54D14*
D03*
X8229Y813012D02*
G54D14*
D03*
X178288Y853150D02*
G54D14*
D03*
X187812Y853150D02*
G54D14*
D03*
X197338Y853150D02*
G54D14*
D03*
X203688Y827388D02*
G54D14*
D03*
X210038Y821038D02*
G54D14*
D03*
X216388Y816275D02*
G54D14*
D03*
X176700Y816275D02*
G54D14*
D03*
X187812Y816275D02*
G54D14*
D03*
X197338Y816275D02*
G54D14*
D03*
X205275Y816275D02*
G54D14*
D03*
X168762Y840088D02*
G54D14*
D03*
X168762Y856788D02*
G54D14*
D03*
X168762Y867075D02*
G54D14*
D03*
X168762Y878188D02*
G54D14*
D03*
X168762Y889300D02*
G54D14*
D03*
X168762Y897238D02*
G54D14*
D03*
X168762Y903588D02*
G54D14*
D03*
X165300Y918700D02*
G54D14*
D03*
X168762Y913112D02*
G54D14*
D03*
X168762Y924225D02*
G54D14*
D03*
X168762Y933750D02*
G54D14*
D03*
X168762Y944862D02*
G54D14*
D03*
X179875Y946500D02*
G54D14*
D03*
X189988Y946500D02*
G54D14*
D03*
X200512Y946500D02*
G54D14*
D03*
X206862Y971850D02*
G54D14*
D03*
X215212Y981200D02*
G54D14*
D03*
X202100Y979788D02*
G54D14*
D03*
X192575Y979788D02*
G54D14*
D03*
X181462Y979788D02*
G54D14*
D03*
X168762Y979788D02*
G54D14*
D03*
X22712Y978200D02*
G54D14*
D03*
X56050Y978200D02*
G54D14*
D03*
X89388Y978200D02*
G54D14*
D03*
X122725Y978200D02*
G54D14*
D03*
X149712Y978200D02*
G54D14*
D03*
X25888Y821038D02*
G54D14*
D03*
X56050Y821038D02*
G54D14*
D03*
X89388Y821038D02*
G54D14*
D03*
X122725Y821038D02*
G54D14*
D03*
X149712Y821038D02*
G54D14*
D03*
X38588Y949625D02*
G54D14*
D03*
X125900Y941688D02*
G54D14*
D03*
X81450Y914700D02*
G54D14*
D03*
X76688Y949625D02*
G54D14*
D03*
X138600Y871838D02*
G54D14*
D03*
X105262Y898825D02*
G54D14*
D03*
X119550Y843262D02*
G54D14*
D03*
X86212Y848025D02*
G54D14*
D03*
X37000Y900412D02*
G54D14*
D03*
X62400Y881362D02*
G54D14*
D03*
X44938Y846438D02*
G54D14*
D03*
X103675Y870250D02*
G54D14*
D03*
X30650Y873425D02*
G54D14*
D03*
X419148Y966714D02*
G54D14*
D03*
X411897Y966714D02*
G54D14*
D03*
X381400Y929600D02*
G54D15*
D03*
X448400Y925300D02*
G54D15*
D03*
X457972Y919283D02*
G54D14*
D03*
X480520Y964799D02*
G54D14*
D03*
X493373Y950264D02*
G54D14*
D03*
X493373Y956264D02*
G54D14*
D03*
X492373Y962264D02*
G54D14*
D03*
X474520Y964799D02*
G54D14*
D03*
X468520Y964799D02*
G54D14*
D03*
X462520Y964799D02*
G54D14*
D03*
X456520Y963799D02*
G54D14*
D03*
X497577Y924380D02*
G54D14*
D03*
X495336Y944570D02*
G54D14*
D03*
X501903Y929244D02*
G54D14*
D03*
X492207Y895768D02*
G54D14*
D03*
X497461Y898745D02*
G54D14*
D03*
X502014Y902715D02*
G54D14*
D03*
X505658Y907566D02*
G54D14*
D03*
X508172Y913044D02*
G54D14*
D03*
X410552Y817579D02*
G54D14*
D03*
X416608Y818148D02*
G54D14*
D03*
X422621Y817914D02*
G54D14*
D03*
X427700Y821190D02*
G54D14*
D03*
X404570Y811411D02*
G54D14*
D03*
X432808Y824460D02*
G54D14*
D03*
X438996Y824869D02*
G54D14*
D03*
X445067Y824781D02*
G54D14*
D03*
X410602Y811532D02*
G54D14*
D03*
X416580Y812130D02*
G54D14*
D03*
X410740Y805427D02*
G54D14*
D03*
X422694Y811803D02*
G54D14*
D03*
X431084Y811066D02*
G54D14*
D03*
X433508Y818360D02*
G54D14*
D03*
X439580Y818797D02*
G54D14*
D03*
X445239Y815649D02*
G54D14*
D03*
X332543Y844013D02*
G54D14*
D03*
X325425Y844062D02*
G54D14*
D03*
X318975Y844047D02*
G54D14*
D03*
X333924Y850121D02*
G54D14*
D03*
X325247Y850886D02*
G54D14*
D03*
X317689Y850856D02*
G54D14*
D03*
X335097Y925105D02*
G54D14*
D03*
X335264Y931150D02*
G54D14*
D03*
X374149Y847806D02*
G54D14*
D03*
X375231Y825280D02*
G54D14*
D03*
X375231Y819280D02*
G54D14*
D03*
X375231Y813280D02*
G54D14*
D03*
G54D16*
X454300Y974800D02*
X447000Y967500D01*
X447000Y956000D01*
X468500Y934500D01*
X468500Y899300D01*
G54D16*
X344830Y883298D02*
X366178Y904683D01*
X384000Y917000D01*
X395000Y924000D01*
X436000Y951000D01*
X447000Y956000D01*
G54D16*
X336200Y906000D02*
X385100Y954900D01*
X389000Y954900D01*
X254288Y918877D02*
G54D14*
D03*
X260288Y918877D02*
G54D14*
D03*
X375231Y807280D02*
G54D14*
D03*
X277907Y850904D02*
G54D14*
D03*
X285907Y850904D02*
G54D14*
D03*
X293907Y850904D02*
G54D14*
D03*
X301907Y850904D02*
G54D14*
D03*
X309907Y850904D02*
G54D14*
D03*
X284907Y843904D02*
G54D14*
D03*
X290907Y838904D02*
G54D14*
D03*
X296641Y836240D02*
G54D14*
D03*
X302972Y836176D02*
G54D14*
D03*
X308010Y840375D02*
G54D14*
D03*
X314138Y840356D02*
G54D14*
D03*
X297416Y843540D02*
G54D14*
D03*
X369384Y814861D02*
G54D14*
D03*
X363072Y814813D02*
G54D14*
D03*
X356660Y814663D02*
G54D14*
D03*
X350149Y814764D02*
G54D14*
D03*
X343787Y814762D02*
G54D14*
D03*
X336850Y811736D02*
G54D14*
D03*
X326567Y811736D02*
G54D14*
D03*
X316319Y811849D02*
G54D14*
D03*
X306710Y811829D02*
G54D14*
D03*
X296620Y811730D02*
G54D14*
D03*
X286431Y811332D02*
G54D14*
D03*
X280521Y812930D02*
G54D14*
D03*
X275987Y817380D02*
G54D14*
D03*
X271595Y821616D02*
G54D14*
D03*
X267351Y825962D02*
G54D14*
D03*
X263076Y830468D02*
G54D14*
D03*
X255821Y830016D02*
G54D14*
D03*
X248234Y830033D02*
G54D14*
D03*
X235271Y829845D02*
G54D14*
D03*
X228295Y829845D02*
G54D14*
D03*
X230168Y819380D02*
G54D14*
D03*
X251421Y819186D02*
G54D14*
D03*
X486907Y826904D02*
G54D14*
D03*
X492907Y826904D02*
G54D14*
D03*
X498410Y829622D02*
G54D14*
D03*
X504473Y830567D02*
G54D14*
D03*
X510636Y830467D02*
G54D14*
D03*
X479347Y859872D02*
G54D14*
D03*
X488562Y860365D02*
G54D14*
D03*
X493271Y856413D02*
G54D14*
D03*
X496705Y866602D02*
G54D14*
D03*
X502390Y864212D02*
G54D14*
D03*
X507817Y860853D02*
G54D14*
D03*
X513372Y857816D02*
G54D14*
D03*
X518798Y854845D02*
G54D14*
D03*
X524419Y852584D02*
G54D14*
D03*
X529974Y850517D02*
G54D14*
D03*
X535788Y848514D02*
G54D14*
D03*
X541731Y846899D02*
G54D14*
D03*
X547633Y845692D02*
G54D14*
D03*
X553572Y844575D02*
G54D14*
D03*
X559630Y843811D02*
G54D14*
D03*
X565246Y841723D02*
G54D14*
D03*
X566216Y835711D02*
G54D14*
D03*
X560519Y837811D02*
G54D14*
D03*
X554533Y838594D02*
G54D14*
D03*
X548588Y839740D02*
G54D14*
D03*
X542712Y840958D02*
G54D14*
D03*
X536847Y842502D02*
G54D14*
D03*
X531102Y844470D02*
G54D14*
D03*
X525352Y846546D02*
G54D14*
D03*
X519662Y848808D02*
G54D14*
D03*
X513468Y851696D02*
G54D14*
D03*
X508056Y854776D02*
G54D14*
D03*
X502689Y857470D02*
G54D14*
D03*
X497557Y860620D02*
G54D14*
D03*
X499901Y846571D02*
G54D14*
D03*
X507406Y846571D02*
G54D14*
D03*
X513072Y843191D02*
G54D14*
D03*
X451510Y813700D02*
G54D14*
D03*
X470906Y813669D02*
G54D14*
D03*
X494724Y817746D02*
G54D14*
D03*
X507434Y817506D02*
G54D14*
D03*
X517746Y824221D02*
G54D14*
D03*
X522302Y832134D02*
G54D14*
D03*
X521264Y838286D02*
G54D14*
D03*
X534053Y833813D02*
G54D14*
D03*
X523022Y817266D02*
G54D14*
D03*
X536451Y817986D02*
G54D14*
D03*
X545564Y829017D02*
G54D14*
D03*
X550120Y818705D02*
G54D14*
D03*
X560671Y827338D02*
G54D14*
D03*
X564748Y818225D02*
G54D14*
D03*
X575300Y826139D02*
G54D14*
D03*
X579856Y818225D02*
G54D14*
D03*
X518231Y870482D02*
G54D14*
D03*
X523582Y867700D02*
G54D14*
D03*
X529076Y865251D02*
G54D14*
D03*
X534786Y863112D02*
G54D14*
D03*
X540508Y861180D02*
G54D14*
D03*
X546320Y859666D02*
G54D14*
D03*
X552286Y858449D02*
G54D14*
D03*
X558350Y857754D02*
G54D14*
D03*
X564414Y857406D02*
G54D14*
D03*
X566252Y863221D02*
G54D14*
D03*
X560189Y863668D02*
G54D14*
D03*
X554076Y864264D02*
G54D14*
D03*
X548012Y865507D02*
G54D14*
D03*
X541998Y867048D02*
G54D14*
D03*
X536133Y869036D02*
G54D14*
D03*
X530428Y871177D02*
G54D14*
D03*
X524885Y873662D02*
G54D14*
D03*
X519572Y876376D02*
G54D14*
D03*
X514322Y879400D02*
G54D14*
D03*
X508505Y882764D02*
G54D14*
D03*
X513272Y886512D02*
G54D14*
D03*
X517553Y890839D02*
G54D14*
D03*
X521089Y895806D02*
G54D14*
D03*
X523891Y901218D02*
G54D14*
D03*
X525994Y906881D02*
G54D14*
D03*
X528670Y912271D02*
G54D14*
D03*
X532020Y917495D02*
G54D14*
D03*
X535842Y922170D02*
G54D14*
D03*
X540253Y926492D02*
G54D14*
D03*
X545134Y930050D02*
G54D14*
D03*
X550426Y933255D02*
G54D14*
D03*
X555962Y935661D02*
G54D14*
D03*
X561896Y937128D02*
G54D14*
D03*
X568491Y939471D02*
G54D14*
D03*
X566840Y933635D02*
G54D14*
D03*
X572857Y933364D02*
G54D14*
D03*
X578876Y933531D02*
G54D14*
D03*
X584984Y933618D02*
G54D14*
D03*
X524907Y883904D02*
G54D14*
D03*
X532288Y891697D02*
G54D14*
D03*
X545941Y919557D02*
G54D14*
D03*
X412423Y983372D02*
G54D14*
D03*
X419572Y983486D02*
G54D14*
D03*
X510438Y918612D02*
G54D14*
D03*
X513173Y924052D02*
G54D14*
D03*
X516495Y929197D02*
G54D14*
D03*
X520288Y933961D02*
G54D14*
D03*
X524552Y938400D02*
G54D14*
D03*
X529109Y942399D02*
G54D14*
D03*
X534078Y945986D02*
G54D14*
D03*
X539341Y949044D02*
G54D14*
D03*
X544810Y951720D02*
G54D14*
D03*
X550554Y953811D02*
G54D14*
D03*
X556472Y955321D02*
G54D14*
D03*
X562428Y956231D02*
G54D14*
D03*
X567488Y959657D02*
G54D14*
D03*
X504358Y917928D02*
G54D14*
D03*
X506919Y923853D02*
G54D14*
D03*
X510208Y929434D02*
G54D14*
D03*
X514144Y934862D02*
G54D14*
D03*
X518659Y939794D02*
G54D14*
D03*
X523342Y944337D02*
G54D14*
D03*
X528449Y948404D02*
G54D14*
D03*
X534012Y952028D02*
G54D14*
D03*
X539703Y955086D02*
G54D14*
D03*
X545780Y957717D02*
G54D14*
D03*
X552162Y959657D02*
G54D14*
D03*
X558600Y961009D02*
G54D14*
D03*
X563673Y964375D02*
G54D14*
D03*
X569690Y965325D02*
G54D14*
D03*
X588974Y966098D02*
G54D14*
D03*
X502695Y938298D02*
G54D14*
D03*
X501702Y949504D02*
G54D14*
D03*
X501702Y957021D02*
G54D14*
D03*
X511064Y946383D02*
G54D14*
D03*
X523830Y958014D02*
G54D14*
D03*
X540567Y966525D02*
G54D14*
D03*
X555461Y968369D02*
G54D14*
D03*
X560709Y978723D02*
G54D14*
D03*
X355907Y980904D02*
G54D14*
D03*
X363056Y980940D02*
G54D14*
D03*
X360907Y974904D02*
G54D14*
D03*
X364907Y962904D02*
G54D14*
D03*
X364907Y956904D02*
G54D14*
D03*
X363907Y968904D02*
G54D14*
D03*
X341907Y961904D02*
G54D14*
D03*
X341963Y952618D02*
G54D14*
D03*
X338783Y938104D02*
G54D14*
D03*
X332024Y938046D02*
G54D14*
D03*
X331907Y944904D02*
G54D14*
D03*
X338907Y944904D02*
G54D14*
D03*
X322907Y953904D02*
G54D14*
D03*
X321907Y961904D02*
G54D14*
D03*
X313907Y961904D02*
G54D14*
D03*
X313907Y954904D02*
G54D14*
D03*
X315907Y948904D02*
G54D14*
D03*
X310907Y944904D02*
G54D14*
D03*
X308907Y937904D02*
G54D14*
D03*
X314907Y937904D02*
G54D14*
D03*
X292907Y944904D02*
G54D14*
D03*
X292907Y938904D02*
G54D14*
D03*
X294913Y933255D02*
G54D14*
D03*
X287907Y933904D02*
G54D14*
D03*
X281907Y932904D02*
G54D14*
D03*
X281907Y926904D02*
G54D14*
D03*
X281907Y919904D02*
G54D14*
D03*
X287907Y916904D02*
G54D14*
D03*
X293907Y916904D02*
G54D14*
D03*
X284907Y944904D02*
G54D14*
D03*
X276907Y944904D02*
G54D14*
D03*
X273907Y938904D02*
G54D14*
D03*
X273907Y931904D02*
G54D14*
D03*
X272907Y925860D02*
G54D14*
D03*
X268394Y921392D02*
G54D14*
D03*
X266152Y909882D02*
G54D14*
D03*
X265599Y915974D02*
G54D14*
D03*
X271174Y906372D02*
G54D14*
D03*
X271999Y900366D02*
G54D14*
D03*
X272222Y894251D02*
G54D14*
D03*
X278712Y898908D02*
G54D14*
D03*
X285808Y898799D02*
G54D14*
D03*
X293231Y898799D02*
G54D14*
D03*
X294105Y904804D02*
G54D14*
D03*
X294084Y910858D02*
G54D14*
D03*
X287729Y906231D02*
G54D14*
D03*
X279320Y908830D02*
G54D14*
D03*
X275344Y916820D02*
G54D14*
D03*
X204907Y848904D02*
G54D14*
D03*
X210907Y842904D02*
G54D14*
D03*
X215907Y836904D02*
G54D14*
D03*
X219907Y829904D02*
G54D14*
D03*
X209907Y944904D02*
G54D14*
D03*
X217212Y943409D02*
G54D14*
D03*
X224907Y946904D02*
G54D14*
D03*
X232907Y946904D02*
G54D14*
D03*
X215186Y974926D02*
G54D14*
D03*
X214869Y968429D02*
G54D14*
D03*
X215054Y961616D02*
G54D14*
D03*
X218671Y949603D02*
G54D14*
D03*
X215067Y955241D02*
G54D14*
D03*
X206907Y951904D02*
G54D14*
D03*
X206907Y962904D02*
G54D14*
D03*
X188907Y965904D02*
G54D14*
D03*
X168907Y962904D02*
G54D14*
D03*
X137907Y918904D02*
G54D14*
D03*
X146907Y890904D02*
G54D14*
D03*
X145907Y842904D02*
G54D14*
D03*
X148907Y952904D02*
G54D14*
D03*
X303662Y844911D02*
G54D14*
D03*
X290907Y873904D02*
G54D14*
D03*
X281828Y873802D02*
G54D14*
D03*
X457903Y813867D02*
G54D14*
D03*
X464510Y813700D02*
G54D14*
D03*
X591224Y933398D02*
G54D14*
D03*
M02*
