%FSLAX34Y34*%
%MOMM*%
%LNSOLDERMASK_TOP*%
G71*
G01*
%ADD10R,0.800X0.800*%
%ADD11R,1.100X1.100*%
%ADD12R,1.700X2.800*%
%ADD13C,1.200*%
%ADD14C,1.700*%
%ADD15C,0.900*%
%ADD16R,1.700X3.200*%
%ADD17R,1.400X0.500*%
%ADD18R,1.450X0.500*%
%ADD19R,0.500X1.400*%
%ADD20R,0.500X1.450*%
%ADD21R,4.300X4.300*%
%LPD*%
X466635Y926219D02*
G54D10*
D03*
X466634Y915119D02*
G54D10*
D03*
X476730Y926229D02*
G54D10*
D03*
X476730Y915129D02*
G54D10*
D03*
X480500Y876000D02*
G54D10*
D03*
X469400Y876000D02*
G54D10*
D03*
X480500Y887000D02*
G54D10*
D03*
X469400Y887000D02*
G54D10*
D03*
G36*
X463200Y858100D02*
X474200Y858100D01*
X474200Y847100D01*
X463200Y847100D01*
X463200Y858100D01*
G37*
X485400Y852500D02*
G54D11*
D03*
X415180Y975204D02*
G54D11*
D03*
X431880Y975104D02*
G54D11*
D03*
X486581Y838604D02*
G54D11*
D03*
X503281Y838503D02*
G54D11*
D03*
G36*
X300680Y917904D02*
X311680Y917904D01*
X311680Y906904D01*
X300680Y906904D01*
X300680Y917904D01*
G37*
X322880Y912304D02*
G54D11*
D03*
X306079Y899404D02*
G54D11*
D03*
X322780Y899304D02*
G54D11*
D03*
X323080Y942304D02*
G54D11*
D03*
X322980Y925604D02*
G54D11*
D03*
G36*
X284280Y931304D02*
X295280Y931304D01*
X295280Y920304D01*
X284280Y920304D01*
X284280Y931304D01*
G37*
G36*
X300980Y931204D02*
X311980Y931204D01*
X311980Y920204D01*
X300980Y920204D01*
X300980Y931204D01*
G37*
G36*
X295080Y891904D02*
X306080Y891905D01*
X306080Y880905D01*
X295080Y880904D01*
X295080Y891904D01*
G37*
G36*
X311780Y891804D02*
X322780Y891805D01*
X322780Y880805D01*
X311780Y880804D01*
X311780Y891804D01*
G37*
G36*
X264379Y892004D02*
X275379Y892005D01*
X275380Y881005D01*
X264380Y881004D01*
X264379Y892004D01*
G37*
X286580Y886405D02*
G54D11*
D03*
G36*
X295080Y878904D02*
X306080Y878905D01*
X306080Y867905D01*
X295080Y867904D01*
X295080Y878904D01*
G37*
X317280Y873305D02*
G54D11*
D03*
X327226Y832457D02*
G54D11*
D03*
X310526Y832557D02*
G54D11*
D03*
G36*
X367527Y833690D02*
X373185Y839346D01*
X378841Y833688D01*
X373183Y828032D01*
X367527Y833690D01*
G37*
G36*
X375376Y841538D02*
X381034Y847194D01*
X386690Y841537D01*
X381032Y835881D01*
X375376Y841538D01*
G37*
X394180Y835858D02*
G54D10*
D03*
X394180Y846958D02*
G54D10*
D03*
G36*
X219500Y978100D02*
X230500Y978100D01*
X230500Y967100D01*
X219500Y967100D01*
X219500Y978100D01*
G37*
X241700Y972500D02*
G54D11*
D03*
G36*
X475945Y902209D02*
X483725Y909985D01*
X491502Y902205D01*
X483721Y894429D01*
X475945Y902209D01*
G37*
G36*
X487825Y913945D02*
X495603Y921723D01*
X503381Y913945D01*
X495603Y906167D01*
X487825Y913945D01*
G37*
X260000Y965500D02*
G54D12*
D03*
X283000Y965500D02*
G54D12*
D03*
X302000Y974000D02*
G54D11*
D03*
X318700Y973900D02*
G54D11*
D03*
X394019Y912595D02*
G54D13*
D03*
X400019Y912595D02*
G54D13*
D03*
X406019Y912595D02*
G54D13*
D03*
X412019Y912595D02*
G54D13*
D03*
X394019Y906595D02*
G54D13*
D03*
X400019Y906595D02*
G54D13*
D03*
X406019Y906595D02*
G54D13*
D03*
X412019Y906595D02*
G54D13*
D03*
X394019Y900595D02*
G54D13*
D03*
X400019Y900595D02*
G54D13*
D03*
X406019Y900595D02*
G54D13*
D03*
X412019Y900595D02*
G54D13*
D03*
X394019Y894595D02*
G54D13*
D03*
X400019Y894595D02*
G54D13*
D03*
X406019Y894595D02*
G54D13*
D03*
X412019Y894595D02*
G54D13*
D03*
X418019Y912595D02*
G54D13*
D03*
X424019Y912595D02*
G54D13*
D03*
X418019Y906595D02*
G54D13*
D03*
X424019Y906595D02*
G54D13*
D03*
X418019Y900595D02*
G54D13*
D03*
X424019Y900595D02*
G54D13*
D03*
X418019Y894595D02*
G54D13*
D03*
X424019Y894595D02*
G54D13*
D03*
X394019Y888595D02*
G54D13*
D03*
X400019Y888595D02*
G54D13*
D03*
X406019Y888595D02*
G54D13*
D03*
X412019Y888595D02*
G54D13*
D03*
X394019Y882595D02*
G54D13*
D03*
X400019Y882595D02*
G54D13*
D03*
X406019Y882595D02*
G54D13*
D03*
X412019Y882595D02*
G54D13*
D03*
X418019Y888595D02*
G54D13*
D03*
X424019Y888595D02*
G54D13*
D03*
X418019Y882595D02*
G54D13*
D03*
X424019Y882595D02*
G54D13*
D03*
X371080Y975104D02*
G54D11*
D03*
X387780Y975004D02*
G54D11*
D03*
G54D14*
X8000Y991900D02*
X593601Y992123D01*
G36*
X7997Y1000400D02*
X8003Y983400D01*
X-497Y983397D01*
X-503Y1000397D01*
X7997Y1000400D01*
G37*
G36*
X593604Y983623D02*
X593598Y1000623D01*
X602098Y1000626D01*
X602104Y983626D01*
X593604Y983623D01*
G37*
G54D14*
X410002Y805897D02*
X593605Y805900D01*
G36*
X410002Y814397D02*
X410002Y797397D01*
X401502Y797397D01*
X401502Y814397D01*
X410002Y814397D01*
G37*
G36*
X593605Y797400D02*
X593605Y814400D01*
X602105Y814400D01*
X602105Y797400D01*
X593605Y797400D01*
G37*
G54D15*
X572000Y950000D02*
X595000Y950000D01*
G36*
X595000Y945500D02*
X595000Y954500D01*
X599500Y954500D01*
X599500Y945500D01*
X595000Y945500D01*
G37*
G54D14*
X593700Y969000D02*
X593700Y983000D01*
G36*
X585200Y969000D02*
X602200Y969000D01*
X602200Y960500D01*
X585200Y960500D01*
X585200Y969000D01*
G37*
G36*
X602200Y983000D02*
X585200Y983000D01*
X585200Y991500D01*
X602200Y991500D01*
X602200Y983000D01*
G37*
G54D14*
X593750Y869000D02*
X593750Y931000D01*
G36*
X585250Y869000D02*
X602250Y869000D01*
X602250Y860500D01*
X585250Y860500D01*
X585250Y869000D01*
G37*
G36*
X602250Y931000D02*
X585250Y931000D01*
X585250Y939500D01*
X602250Y939500D01*
X602250Y931000D01*
G37*
G54D14*
X593850Y817000D02*
X593850Y831000D01*
G36*
X585350Y817000D02*
X602350Y817000D01*
X602350Y808500D01*
X585350Y808500D01*
X585350Y817000D01*
G37*
G36*
X602350Y831000D02*
X585350Y831000D01*
X585350Y839500D01*
X602350Y839500D01*
X602350Y831000D01*
G37*
X390000Y816000D02*
G54D16*
D03*
G54D14*
X7900Y806050D02*
X370005Y806050D01*
G36*
X7900Y814550D02*
X7900Y797550D01*
X-600Y797550D01*
X-600Y814550D01*
X7900Y814550D01*
G37*
G36*
X370005Y797550D02*
X370005Y814550D01*
X378505Y814550D01*
X378505Y797550D01*
X370005Y797550D01*
G37*
X347480Y942304D02*
G54D11*
D03*
X347380Y925604D02*
G54D11*
D03*
G54D14*
X8000Y991900D02*
X8000Y806050D01*
X7900Y806050D01*
X360480Y942304D02*
G54D11*
D03*
X360380Y925604D02*
G54D11*
D03*
X379730Y917504D02*
G54D17*
D03*
X438230Y917504D02*
G54D17*
D03*
X379980Y912504D02*
G54D18*
D03*
X437980Y912504D02*
G54D18*
D03*
X379980Y907504D02*
G54D18*
D03*
X437980Y907504D02*
G54D18*
D03*
X379980Y902504D02*
G54D18*
D03*
X437980Y902504D02*
G54D18*
D03*
X379980Y897504D02*
G54D18*
D03*
X437980Y897504D02*
G54D18*
D03*
X379980Y892504D02*
G54D18*
D03*
X437980Y892504D02*
G54D18*
D03*
X379980Y887504D02*
G54D18*
D03*
X437980Y887504D02*
G54D18*
D03*
X379980Y882504D02*
G54D18*
D03*
X437980Y882504D02*
G54D18*
D03*
X379730Y877504D02*
G54D17*
D03*
X438230Y877504D02*
G54D17*
D03*
X388980Y926754D02*
G54D19*
D03*
X388980Y868254D02*
G54D19*
D03*
X393980Y926504D02*
G54D20*
D03*
X393980Y868504D02*
G54D20*
D03*
X398980Y926504D02*
G54D20*
D03*
X398980Y868504D02*
G54D20*
D03*
X403980Y926504D02*
G54D20*
D03*
X403980Y868504D02*
G54D20*
D03*
X408980Y926504D02*
G54D20*
D03*
X408980Y868504D02*
G54D20*
D03*
X413980Y926504D02*
G54D20*
D03*
X413980Y868504D02*
G54D20*
D03*
X418980Y926504D02*
G54D20*
D03*
X418980Y868504D02*
G54D20*
D03*
X423980Y926504D02*
G54D20*
D03*
X423980Y868504D02*
G54D20*
D03*
X428980Y926754D02*
G54D19*
D03*
X428980Y868254D02*
G54D19*
D03*
X408980Y897504D02*
G54D21*
D03*
X425380Y944604D02*
G54D11*
D03*
X442080Y944504D02*
G54D11*
D03*
X415180Y957504D02*
G54D11*
D03*
X431880Y957404D02*
G54D11*
D03*
X444700Y957700D02*
G54D11*
D03*
X444800Y974400D02*
G54D11*
D03*
X388380Y944704D02*
G54D11*
D03*
X405080Y944604D02*
G54D11*
D03*
X399980Y975004D02*
G54D11*
D03*
X399880Y958304D02*
G54D11*
D03*
X344480Y906204D02*
G54D11*
D03*
X361180Y906104D02*
G54D11*
D03*
X374880Y961804D02*
G54D11*
D03*
X374780Y945104D02*
G54D11*
D03*
X471390Y955225D02*
G54D11*
D03*
X471290Y938525D02*
G54D11*
D03*
X483890Y955225D02*
G54D11*
D03*
X483790Y938525D02*
G54D11*
D03*
X457790Y955225D02*
G54D11*
D03*
X457690Y938525D02*
G54D11*
D03*
X455700Y852700D02*
G54D11*
D03*
X455800Y869400D02*
G54D11*
D03*
X473400Y838600D02*
G54D11*
D03*
X456700Y838700D02*
G54D11*
D03*
X430380Y833204D02*
G54D11*
D03*
X430480Y849904D02*
G54D11*
D03*
X443080Y833204D02*
G54D11*
D03*
X443180Y849904D02*
G54D11*
D03*
G54D15*
X572000Y850000D02*
X595000Y850000D01*
G36*
X595000Y845500D02*
X595000Y854500D01*
X599500Y854500D01*
X599500Y845500D01*
X595000Y845500D01*
G37*
X345080Y871254D02*
G54D11*
D03*
X361780Y871154D02*
G54D11*
D03*
X345080Y858504D02*
G54D11*
D03*
X361780Y858404D02*
G54D11*
D03*
X345080Y845754D02*
G54D11*
D03*
X361780Y845654D02*
G54D11*
D03*
X357400Y832350D02*
G54D11*
D03*
X340700Y832450D02*
G54D11*
D03*
X331926Y874507D02*
G54D11*
D03*
X331826Y857807D02*
G54D11*
D03*
G36*
X219500Y964100D02*
X230500Y964100D01*
X230500Y953100D01*
X219500Y953100D01*
X219500Y964100D01*
G37*
X241700Y958500D02*
G54D11*
D03*
X301300Y943300D02*
G54D11*
D03*
X301400Y960000D02*
G54D11*
D03*
X331600Y957200D02*
G54D11*
D03*
X331700Y973900D02*
G54D11*
D03*
X456581Y825604D02*
G54D11*
D03*
X473281Y825503D02*
G54D11*
D03*
M02*
