<svg width="2486" height="1418" xmlns="http://www.w3.org/2000/svg" xmlns:xlink="http://www.w3.org/1999/xlink" xml:space="preserve" overflow="hidden"><defs><clipPath id="clip0"><rect x="4791" y="1588" width="2486" height="1418"/></clipPath><clipPath id="clip1"><rect x="4791" y="1588" width="2486" height="1418"/></clipPath><clipPath id="clip2"><rect x="4791" y="1588" width="2486" height="1418"/></clipPath><clipPath id="clip3"><rect x="4791" y="1588" width="2486" height="1418"/></clipPath><clipPath id="clip4"><rect x="4791" y="1588" width="2486" height="1418"/></clipPath><clipPath id="clip5"><rect x="4791" y="1588" width="2486" height="1418"/></clipPath><clipPath id="clip6"><rect x="4791" y="1588" width="2486" height="1418"/></clipPath><clipPath id="clip7"><rect x="4791" y="1588" width="2486" height="1418"/></clipPath><clipPath id="clip8"><rect x="5031" y="1738" width="2153" height="1075"/></clipPath><clipPath id="clip9"><rect x="5031" y="1738" width="2153" height="1075"/></clipPath><clipPath id="clip10"><rect x="4791" y="1588" width="2486" height="1418"/></clipPath><clipPath id="clip11"><rect x="4791" y="1588" width="2486" height="1418"/></clipPath><clipPath id="clip12"><rect x="4791" y="1588" width="2486" height="1418"/></clipPath><clipPath id="clip13"><rect x="4791" y="1588" width="2486" height="1418"/></clipPath><clipPath id="clip14"><rect x="4791" y="1588" width="2486" height="1418"/></clipPath><clipPath id="clip15"><rect x="4791" y="1588" width="2486" height="1418"/></clipPath><clipPath id="clip16"><rect x="4791" y="1588" width="2486" height="1418"/></clipPath><clipPath id="clip17"><rect x="4791" y="1588" width="2486" height="1418"/></clipPath><clipPath id="clip18"><rect x="4791" y="1588" width="2486" height="1418"/></clipPath><clipPath id="clip19"><rect x="4791" y="1588" width="2486" height="1418"/></clipPath><clipPath id="clip20"><rect x="4791" y="1588" width="2486" height="1418"/></clipPath><clipPath id="clip21"><rect x="4791" y="1588" width="2486" height="1418"/></clipPath><clipPath id="clip22"><rect x="4791" y="1588" width="2486" height="1418"/></clipPath><clipPath id="clip23"><rect x="4791" y="1588" width="2486" height="1418"/></clipPath><clipPath id="clip24"><rect x="4791" y="1588" width="2486" height="1418"/></clipPath><clipPath id="clip25"><rect x="4791" y="1588" width="2486" height="1418"/></clipPath><clipPath id="clip26"><rect x="4791" y="1588" width="2486" height="1418"/></clipPath><clipPath id="clip27"><rect x="4791" y="1588" width="2486" height="1418"/></clipPath><clipPath id="clip28"><rect x="4791" y="1588" width="2486" height="1418"/></clipPath><clipPath id="clip29"><rect x="4791" y="1588" width="2486" height="1418"/></clipPath><clipPath id="clip30"><rect x="4791" y="1588" width="2486" height="1418"/></clipPath><clipPath id="clip31"><rect x="4791" y="1588" width="2486" height="1418"/></clipPath><clipPath id="clip32"><rect x="4791" y="1588" width="2486" height="1418"/></clipPath><clipPath id="clip33"><rect x="4791" y="1588" width="2486" height="1418"/></clipPath><clipPath id="clip34"><rect x="4791" y="1588" width="2486" height="1418"/></clipPath><clipPath id="clip35"><rect x="4791" y="1588" width="2486" height="1418"/></clipPath><clipPath id="clip36"><rect x="4791" y="1588" width="2486" height="1418"/></clipPath></defs><g clip-path="url(#clip0)" transform="translate(-4791 -1588)"><rect x="4792" y="1588" width="2485" height="1418" fill="#FFFFFF"/><g clip-path="url(#clip1)"><path d="M5031.5 2785.59 7180.5 2785.59M5031.5 2761.59 7180.5 2761.59M5031.5 2738.59 7180.5 2738.59M5031.5 2714.59 7180.5 2714.59M5031.5 2666.59 7180.5 2666.59M5031.5 2642.59 7180.5 2642.59M5031.5 2619.59 7180.5 2619.59M5031.5 2595.59 7180.5 2595.59M5031.5 2547.58 7180.5 2547.58M5031.5 2523.58 7180.5 2523.58M5031.5 2500.58 7180.5 2500.58M5031.5 2476.58 7180.5 2476.58M5031.5 2428.58 7180.5 2428.58M5031.5 2404.58 7180.5 2404.58M5031.5 2381.58 7180.5 2381.58M5031.5 2357.58 7180.5 2357.58M5031.5 2309.58 7180.5 2309.58M5031.5 2285.58 7180.5 2285.58M5031.5 2262.57 7180.5 2262.57M5031.5 2238.57 7180.5 2238.57M5031.5 2190.57 7180.5 2190.57M5031.5 2166.57 7180.5 2166.57M5031.5 2143.57 7180.5 2143.57M5031.5 2119.57 7180.5 2119.57M5031.5 2071.57 7180.5 2071.57M5031.5 2047.57 7180.5 2047.57M5031.5 2024.57 7180.5 2024.57M5031.5 2000.57 7180.5 2000.57M5031.5 1952.56 7180.5 1952.56M5031.5 1928.56 7180.5 1928.56M5031.5 1905.56 7180.5 1905.56M5031.5 1881.56 7180.5 1881.56M5031.5 1833.56 7180.5 1833.56M5031.5 1809.56 7180.5 1809.56M5031.5 1786.56 7180.5 1786.56M5031.5 1762.56 7180.5 1762.56" stroke="#D9D9D9" stroke-width="3.4375" stroke-linejoin="round" stroke-miterlimit="10" fill="none"/></g><g clip-path="url(#clip2)"><path d="M5031.5 2809.5 7180.5 2809.5M5031.5 2690.59 7180.5 2690.59M5031.5 2571.58 7180.5 2571.58M5031.5 2452.58 7180.5 2452.58M5031.5 2333.58 7180.5 2333.58M5031.5 2214.57 7180.5 2214.57M5031.5 2095.57 7180.5 2095.57M5031.5 1976.57 7180.5 1976.57M5031.5 1738.5 7180.5 1738.5" stroke="#A6A6A6" stroke-width="3.4375" stroke-linejoin="round" stroke-miterlimit="10" fill="none"/></g><g clip-path="url(#clip3)"><path d="M5074.67 1738.5 5074.67 2809.5M5117.67 1738.5 5117.67 2809.5M5160.67 1738.5 5160.67 2809.5M5203.67 1738.5 5203.67 2809.5M5289.67 1738.5 5289.67 2809.5M5332.68 1738.5 5332.68 2809.5M5375.68 1738.5 5375.68 2809.5M5418.68 1738.5 5418.68 2809.5M5504.68 1738.5 5504.68 2809.5M5547.68 1738.5 5547.68 2809.5M5590.68 1738.5 5590.68 2809.5M5633.69 1738.5 5633.69 2809.5M5719.69 1738.5 5719.69 2809.5M5762.69 1738.5 5762.69 2809.5M5805.69 1738.5 5805.69 2809.5M5848.69 1738.5 5848.69 2809.5M5934.69 1738.5 5934.69 2809.5M5977.7 1738.5 5977.7 2809.5M6020.7 1738.5 6020.7 2809.5M6063.7 1738.5 6063.7 2809.5M6149.7 1738.5 6149.7 2809.5M6191.7 1738.5 6191.7 2809.5M6234.7 1738.5 6234.7 2809.5M6277.71 1738.5 6277.71 2809.5M6363.71 1738.5 6363.71 2809.5M6406.71 1738.5 6406.71 2809.5M6449.71 1738.5 6449.71 2809.5M6492.71 1738.5 6492.71 2809.5M6578.72 1738.5 6578.72 2809.5M6621.72 1738.5 6621.72 2809.5M6664.72 1738.5 6664.72 2809.5M6707.72 1738.5 6707.72 2809.5M6793.72 1738.5 6793.72 2809.5M6836.72 1738.5 6836.72 2809.5M6879.73 1738.5 6879.73 2809.5M6922.73 1738.5 6922.73 2809.5M7008.73 1738.5 7008.73 2809.5M7051.73 1738.5 7051.73 2809.5M7094.73 1738.5 7094.73 2809.5M7137.73 1738.5 7137.73 2809.5" stroke="#D9D9D9" stroke-width="3.4375" stroke-linejoin="round" stroke-miterlimit="10" fill="none"/></g><g clip-path="url(#clip4)"><path d="M5246.67 1738.5 5246.67 2809.5M5461.68 1738.5 5461.68 2809.5M5676.69 1738.5 5676.69 2809.5M5891.69 1738.5 5891.69 2809.5M6106.7 1738.5 6106.7 2809.5M6320.71 1738.5 6320.71 2809.5M6535.71 1738.5 6535.71 2809.5M6750.72 1738.5 6750.72 2809.5M6965.73 1738.5 6965.73 2809.5M7180.5 1738.5 7180.5 2809.5" stroke="#A6A6A6" stroke-width="3.4375" stroke-linejoin="round" stroke-miterlimit="10" fill="none"/></g><g clip-path="url(#clip5)"><rect x="5031.5" y="1738.5" width="2149" height="1071" stroke="#000000" stroke-width="3.4375" stroke-linejoin="round" stroke-miterlimit="10" fill="none"/></g><g clip-path="url(#clip6)"><path d="M0 0 0.000360892 1071" stroke="#000000" stroke-width="3.4375" stroke-linejoin="round" stroke-miterlimit="10" fill="none" fill-rule="evenodd" transform="matrix(1 0 0 -1 5031.5 2809.5)"/></g><g clip-path="url(#clip7)"><path d="M5031.5 1857.5 7180.5 1857.5" stroke="#0D0D0D" stroke-width="3.4375" stroke-linejoin="round" stroke-miterlimit="10" fill="none" fill-rule="evenodd"/></g><g clip-path="url(#clip8)"><path d="M5031.5 2652.77C5033.14 2652.11 5035.23 2652.99 5036.87 2650.6 5038.66 2647.99 5040.45 2638.15 5042.25 2637.1 5044.04 2636.04 5045.83 2642.01 5047.62 2644.28 5049.41 2646.54 5051.2 2651.74 5052.99 2650.68 5054.78 2649.62 5056.57 2639.2 5058.36 2637.92 5060.15 2636.63 5061.94 2641.3 5063.73 2642.96 5065.53 2644.63 5067.32 2647.47 5069.11 2647.9 5070.9 2648.32 5072.69 2645.52 5074.48 2645.53 5076.27 2645.54 5078.06 2647.86 5079.85 2647.97 5081.64 2648.08 5083.43 2647.37 5085.23 2646.18 5087.02 2644.99 5088.81 2641.75 5090.6 2640.82 5092.39 2639.89 5094.18 2642.14 5095.97 2640.59 5097.76 2639.04 5099.55 2631.78 5101.34 2631.52 5103.13 2631.25 5104.92 2636.98 5106.72 2638.99 5108.51 2641.01 5110.3 2643.29 5112.09 2643.59 5113.88 2643.9 5115.67 2642.69 5117.46 2640.82 5119.25 2638.96 5121.04 2633.28 5122.83 2632.39 5124.62 2631.51 5126.41 2637.2 5128.21 2635.51 5130 2633.83 5131.79 2623.25 5133.58 2622.29 5135.37 2621.33 5137.16 2628.41 5138.95 2629.75 5140.74 2631.09 5142.53 2630.8 5144.32 2630.33 5146.11 2629.85 5147.9 2628.11 5149.69 2626.91 5151.49 2625.71 5153.28 2623.04 5155.07 2623.15 5156.86 2623.26 5158.65 2628.05 5160.44 2627.55 5162.23 2627.04 5164.02 2620.81 5165.81 2620.12 5167.6 2619.43 5169.39 2623.57 5171.19 2623.41 5172.98 2623.24 5174.77 2618.88 5176.56 2619.15 5178.35 2619.42 5180.14 2623.26 5181.93 2625.01 5183.72 2626.77 5185.51 2631.29 5187.3 2629.67 5189.09 2628.04 5190.88 2615.97 5192.67 2615.26 5194.47 2614.55 5196.26 2624.75 5198.05 2625.4 5199.84 2626.06 5201.63 2619.39 5203.42 2619.18 5205.21 2618.97 5207 2625.55 5208.79 2624.16 5210.58 2622.77 5212.37 2614.36 5214.17 2610.84 5215.96 2607.32 5217.75 2601.93 5219.54 2603.03 5221.33 2604.14 5223.12 2616.65 5224.91 2617.45 5226.7 2618.25 5228.49 2611.16 5230.28 2607.86 5232.07 2604.55 5233.86 2598.52 5235.66 2597.65 5237.45 2596.77 5239.24 2603.23 5241.03 2602.62 5242.82 2602.01 5244.61 2594.48 5246.4 2593.98 5248.19 2593.47 5249.98 2597.83 5251.77 2599.58 5253.56 2601.33 5255.35 2604.02 5257.15 2604.47 5258.58 2604.83 5261.08 2604.81 5262.52 2602.29 5264.31 2599.13 5266.1 2587.09 5267.89 2585.56 5269.68 2584.03 5271.47 2592.68 5273.26 2593.12 5275.05 2593.57 5276.84 2588.84 5278.64 2588.24 5280.43 2587.65 5282.22 2589.8 5284.01 2589.55 5285.8 2589.31 5287.59 2587.47 5289.38 2586.77 5291.17 2586.07 5292.96 2586.4 5294.75 2585.36 5296.54 2584.33 5298.33 2582.27 5300.12 2580.55 5301.92 2578.83 5303.71 2576.11 5305.5 2575.06 5307.29 2574.01 5309.08 2574.93 5310.87 2574.24 5312.66 2573.54 5314.45 2571.13 5316.24 2570.87 5318.03 2570.61 5319.82 2573.24 5321.61 2572.67 5323.41 2572.1 5325.2 2568.79 5326.99 2567.43 5328.78 2566.08 5330.57 2565.51 5332.36 2564.55 5334.15 2563.59 5335.94 2561.51 5337.73 2561.66 5339.52 2561.82 5341.31 2566.48 5343.1 2565.48 5344.9 2564.49 5346.69 2556.51 5348.48 2555.69 5350.27 2554.88 5352.06 2561.18 5353.85 2560.6 5355.64 2560.02 5357.43 2553.98 5359.22 2552.22 5361.01 2550.45 5362.8 2550.56 5364.6 2550 5366.39 2549.44 5368.18 2549.59 5369.97 2548.85 5371.76 2548.11 5373.55 2546.86 5375.34 2545.57 5377.13 2544.28 5378.92 2542.12 5380.71 2541.1 5382.5 2540.09 5384.29 2539.81 5386.08 2539.49 5387.88 2539.16 5389.67 2540.48 5391.46 2539.16 5393.25 2537.84 5395.04 2532.72 5396.83 2531.58 5398.62 2530.44 5400.41 2532.77 5402.2 2532.33 5403.99 2531.9 5405.78 2530.35 5407.58 2528.99 5409.37 2527.64 5411.16 2525.06 5412.95 2524.19 5414.74 2523.32 5416.53 2524.1 5418.32 2523.76 5420.11 2523.41 5421.9 2522.98 5423.69 2522.13 5425.48 2521.28 5427.27 2520.36 5429.07 2518.64 5430.86 2516.91 5432.65 2512.93 5434.44 2511.79 5436.23 2510.64 5438.02 2512.46 5439.81 2511.78 5441.6 2511.09 5443.39 2509.04 5445.18 2507.69 5446.97 2506.34 5448.76 2504.94 5450.55 2503.67 5452.35 2502.4 5454.14 2500.86 5455.93 2500.08 5457.72 2499.29 5459.51 2499.57 5461.3 2498.95 5463.09 2498.33 5464.88 2497.53 5466.67 2496.37 5468.46 2495.2 5470.25 2493.19 5472.04 2491.96 5473.84 2490.73 5475.63 2489.97 5477.42 2488.99 5479.21 2488.01 5481 2487.11 5482.79 2486.07 5484.58 2485.03 5486.37 2484.02 5488.16 2482.77 5489.95 2481.52 5491.74 2480.03 5493.54 2478.54 5495.33 2477.05 5497.12 2475.28 5498.91 2473.82 5500.7 2472.36 5502.49 2470.51 5504.28 2469.79 5506.07 2469.08 5507.86 2470.52 5509.65 2469.53 5511.44 2468.55 5513.23 2465.18 5515.02 2463.89 5516.82 2462.6 5518.61 2462.71 5520.4 2461.77 5522.19 2460.82 5523.98 2459.54 5525.77 2458.24 5527.56 2456.93 5529.35 2455.17 5531.14 2453.92 5532.93 2452.68 5534.72 2451.94 5536.52 2450.77 5538.31 2449.59 5540.1 2448.36 5541.89 2446.87 5543.68 2445.38 5545.47 2443.1 5547.26 2441.83 5549.05 2440.57 5550.84 2440.56 5552.63 2439.28 5554.42 2437.99 5556.21 2435.5 5558 2434.13 5559.8 2432.76 5561.59 2432.2 5563.38 2431.07 5565.17 2429.94 5566.96 2428.71 5568.75 2427.33 5570.54 2425.96 5572.33 2424 5574.12 2422.84 5575.91 2421.67 5577.7 2421.57 5579.5 2420.35 5581.29 2419.13 5583.08 2416.83 5584.87 2415.52 5586.66 2414.21 5588.45 2413.88 5590.24 2412.49 5592.03 2411.1 5593.82 2408.57 5595.61 2407.16 5597.4 2405.74 5599.19 2405.58 5600.99 2404 5602.78 2402.42 5604.57 2399.19 5606.36 2397.68 5608.15 2396.16 5609.94 2396.05 5611.73 2394.91 5613.52 2393.77 5615.31 2392.09 5617.1 2390.85 5618.89 2389.61 5620.68 2388.95 5622.47 2387.46 5624.27 2385.98 5626.06 2383.59 5627.85 2381.93 5629.64 2380.27 5631.43 2378.78 5633.22 2377.5 5635.01 2376.22 5636.8 2375.77 5638.59 2374.27 5640.38 2372.76 5642.17 2370.16 5643.96 2368.45 5645.76 2366.75 5647.55 2365.56 5649.34 2364.03 5651.13 2362.5 5652.92 2360.71 5654.71 2359.3 5656.5 2357.88 5658.29 2356.88 5660.08 2355.52 5661.87 2354.16 5663.66 2352.57 5665.46 2351.14 5667.25 2349.7 5669.04 2348.56 5670.83 2346.88 5672.62 2345.21 5674.41 2342.79 5676.2 2341.08 5677.99 2339.37 5679.78 2338.16 5681.57 2336.63 5683.36 2335.1 5685.15 2333.46 5686.95 2331.88 5688.74 2330.31 5690.53 2328.84 5692.32 2327.18 5694.11 2325.52 5695.9 2323.63 5697.69 2321.92 5699.48 2320.21 5701.27 2318.55 5703.06 2316.91 5704.85 2315.27 5706.64 2313.71 5708.44 2312.07 5710.23 2310.43 5712.02 2308.84 5713.81 2307.07 5715.6 2305.3 5717.39 2303.35 5719.18 2301.46 5720.97 2299.58 5722.76 2297.49 5724.55 2295.77 5726.34 2294.06 5728.13 2292.83 5729.93 2291.16 5731.72 2289.49 5733.51 2287.48 5735.3 2285.75 5737.09 2284.02 5738.88 2282.56 5740.67 2280.76 5742.46 2278.95 5744.25 2276.84 5746.04 2274.92 5747.83 2273 5749.62 2271.07 5751.42 2269.24 5753.21 2267.42 5755 2265.79 5756.79 2263.98 5758.58 2262.18 5760.37 2260.37 5762.16 2258.41 5763.95 2256.45 5765.74 2254.21 5767.53 2252.23 5769.32 2250.24 5771.11 2248.36 5772.91 2246.51 5774.7 2244.65 5776.49 2242.95 5778.28 2241.08 5780.07 2239.2 5781.86 2237.3 5783.65 2235.26 5785.44 2233.21 5787.23 2230.77 5789.02 2228.8 5790.81 2226.83 5792.6 2225.42 5794.4 2223.41 5796.19 2221.41 5797.98 2218.86 5799.77 2216.76 5801.56 2214.66 5803.35 2212.88 5805.14 2210.79 5806.93 2208.71 5808.72 2206.42 5810.51 2204.24 5812.3 2202.05 5814.09 2199.8 5815.88 2197.69 5817.68 2195.58 5819.47 2193.66 5821.26 2191.58 5823.05 2189.49 5824.84 2187.33 5826.63 2185.18 5828.42 2183.04 5830.21 2180.9 5832 2178.71 5833.79 2176.51 5835.58 2174.26 5837.38 2171.99 5839.17 2169.72 5840.96 2167.4 5842.75 2165.08 5844.54 2162.77 5846.33 2160.42 5848.12 2158.12 5849.91 2155.83 5851.7 2153.65 5853.49 2151.32 5855.28 2148.99 5857.07 2146.46 5858.87 2144.15 5860.66 2141.83 5862.45 2139.78 5864.24 2137.41 5866.03 2135.04 5867.82 2132.33 5869.61 2129.91 5871.4 2127.49 5873.19 2125.3 5874.98 2122.89 5876.77 2120.48 5878.56 2117.89 5880.35 2115.44 5882.15 2113 5883.94 2110.67 5885.73 2108.21 5887.52 2105.75 5889.31 2103.18 5891.1 2100.69 5892.89 2098.2 5894.68 2095.8 5896.47 2093.28 5898.26 2090.77 5900.05 2088.15 5901.85 2085.6 5903.64 2083.05 5905.43 2080.6 5907.22 2078 5909.01 2075.4 5910.8 2072.61 5912.59 2069.98 5914.38 2067.36 5916.17 2064.85 5917.96 2062.25 5919.75 2059.64 5921.54 2056.99 5923.33 2054.36 5925.13 2051.72 5926.92 2049.09 5928.71 2046.44 5930.5 2043.78 5932.29 2041.16 5934.08 2038.42 5935.87 2035.68 5937.66 2032.72 5939.45 2030.02 5941.24 2027.32 5943.03 2024.93 5944.82 2022.23 5946.62 2019.52 5948.41 2016.57 5950.2 2013.81 5951.99 2011.04 5953.78 2008.31 5955.57 2005.64 5957.36 2002.97 5959.15 2000.44 5960.94 1997.78 5962.73 1995.12 5964.52 1992.37 5966.31 1989.68 5968.11 1986.99 5969.9 1984.33 5971.69 1981.63 5973.48 1978.92 5975.27 1976.15 5977.06 1973.45 5978.85 1970.76 5980.64 1968.07 5982.43 1965.43 5984.22 1962.79 5986.01 1960.25 5987.81 1957.62 5989.6 1955 5991.39 1952.27 5993.18 1949.68 5994.97 1947.1 5996.76 1944.61 5998.55 1942.09 6000.34 1939.57 6002.13 1937 6003.92 1934.54 6005.71 1932.09 6007.5 1929.73 6009.29 1927.36 6011.09 1924.99 6012.88 1922.58 6014.67 1920.32 6016.46 1918.06 6018.25 1915.87 6020.04 1913.79 6021.83 1911.71 6023.62 1909.63 6025.41 1907.83 6027.2 1906.03 6028.99 1904.79 6030.79 1902.98 6032.58 1901.17 6034.37 1898.91 6036.16 1896.97 6037.95 1895.03 6039.74 1893.14 6041.53 1891.34 6043.32 1889.54 6045.11 1887.64 6046.9 1886.19 6048.69 1884.74 6050.48 1883.53 6052.27 1882.62 6054.07 1881.71 6055.86 1881.76 6057.65 1880.71 6059.44 1879.66 6061.23 1877.73 6063.02 1876.32 6064.81 1874.91 6066.6 1873.53 6068.39 1872.25 6070.18 1870.97 6071.97 1869.78 6073.77 1868.65 6075.56 1867.52 6077.35 1866.44 6079.14 1865.48 6080.93 1864.52 6082.72 1863.66 6084.51 1862.9 6086.3 1862.14 6088.09 1861.5 6089.88 1860.92 6091.67 1860.33 6093.46 1859.79 6095.26 1859.4 6097.05 1859.02 6098.84 1858.67 6100.63 1858.58 6102.42 1858.5 6104.21 1858.79 6106 1858.9 6107.79 1859.01 6109.58 1859.01 6111.37 1859.26 6113.16 1859.51 6114.95 1859.92 6116.75 1860.38 6118.54 1860.84 6120.33 1861.38 6122.12 1862.03 6123.91 1862.68 6125.7 1863.41 6127.49 1864.26 6129.28 1865.1 6131.07 1866.06 6132.86 1867.11 6134.65 1868.15 6136.44 1869.29 6138.23 1870.53 6140.03 1871.76 6141.82 1873.09 6143.61 1874.5 6145.4 1875.91 6147.19 1877.42 6148.98 1878.99 6150.77 1880.56 6152.56 1882.18 6154.35 1883.92 6156.14 1885.66 6157.93 1887.53 6159.73 1889.43 6161.52 1891.33 6163.31 1893.5 6165.1 1895.33 6166.89 1897.16 6168.68 1898.53 6170.47 1900.39 6172.26 1902.24 6174.05 1904.44 6175.84 1906.48 6177.63 1908.51 6179.42 1910.5 6181.21 1912.61 6183.01 1914.72 6184.8 1916.92 6186.59 1919.13 6188.38 1921.35 6190.17 1923.62 6191.96 1925.92 6193.75 1928.22 6195.54 1930.55 6197.33 1932.92 6199.12 1935.28 6200.91 1937.65 6202.71 1940.1 6204.5 1942.56 6206.29 1945.11 6208.08 1947.63 6209.87 1950.16 6211.66 1952.69 6213.45 1955.25 6215.24 1957.81 6217.03 1960.4 6218.82 1962.99 6220.61 1965.57 6222.4 1968.17 6224.2 1970.76 6225.99 1973.36 6227.78 1975.95 6229.57 1978.56 6231.36 1981.18 6233.15 1983.82 6234.94 1986.45 6236.73 1989.08 6238.52 1991.72 6240.31 1994.34 6242.1 1996.97 6243.89 1999.55 6245.69 2002.19 6247.48 2004.82 6249.27 2007.49 6251.06 2010.15 6252.85 2012.82 6254.64 2015.55 6256.43 2018.18 6258.22 2020.81 6260.01 2023.35 6261.8 2025.95 6263.59 2028.55 6265.38 2031.12 6267.18 2033.77 6268.97 2036.43 6270.76 2039.28 6272.55 2041.89 6274.34 2044.51 6276.13 2046.9 6277.92 2049.47 6279.71 2052.04 6281.5 2054.75 6283.29 2057.33 6285.08 2059.91 6286.87 2062.42 6288.67 2064.96 6290.46 2067.5 6292.25 2070.03 6294.04 2072.57 6295.83 2075.11 6297.62 2077.66 6299.41 2080.17 6301.2 2082.69 6302.99 2085.2 6304.78 2087.67 6306.57 2090.13 6308.36 2092.49 6310.16 2094.98 6311.95 2097.47 6313.74 2100.1 6315.53 2102.59 6317.32 2105.09 6319.11 2107.54 6320.9 2109.93 6322.69 2112.32 6324.48 2114.61 6326.27 2116.94 6328.06 2119.28 6329.85 2121.55 6331.65 2123.93 6333.44 2126.3 6335.23 2128.89 6337.02 2131.2 6338.81 2133.51 6340.6 2135.5 6342.39 2137.79 6344.18 2140.08 6345.97 2142.58 6347.76 2144.94 6349.55 2147.3 6351.34 2149.65 6353.14 2151.95 6354.93 2154.25 6356.72 2156.55 6358.51 2158.75 6360.3 2160.95 6362.09 2162.93 6363.88 2165.16 6365.67 2167.38 6367.46 2169.89 6369.25 2172.12 6371.04 2174.34 6372.83 2176.41 6374.62 2178.52 6376.42 2180.62 6378.21 2182.55 6380 2184.77 6381.79 2186.98 6383.58 2189.61 6385.37 2191.81 6387.16 2194 6388.95 2195.88 6390.74 2197.93 6392.53 2199.98 6394.32 2202 6396.12 2204.11 6397.91 2206.22 6399.7 2208.46 6401.49 2210.58 6403.28 2212.7 6405.07 2214.81 6406.86 2216.83 6408.65 2218.85 6410.44 2220.69 6412.23 2222.69 6414.02 2224.69 6415.81 2226.84 6417.61 2228.84 6419.4 2230.84 6421.19 2232.77 6422.98 2234.68 6424.77 2236.59 6426.56 2238.44 6428.35 2240.31 6430.14 2242.18 6431.93 2243.95 6433.72 2245.89 6435.51 2247.84 6437.3 2250.07 6439.09 2252 6440.89 2253.93 6442.68 2255.6 6444.47 2257.47 6446.26 2259.35 6448.05 2261.37 6449.84 2263.24 6451.63 2265.1 6453.42 2266.84 6455.21 2268.65 6457 2270.45 6458.79 2272.21 6460.58 2274.06 6462.38 2275.92 6464.17 2278.08 6465.96 2279.8 6467.75 2281.52 6469.54 2282.64 6471.33 2284.4 6473.12 2286.16 6474.91 2288.55 6476.7 2290.37 6478.49 2292.19 6480.28 2293.6 6482.08 2295.3 6483.87 2296.99 6485.66 2298.75 6487.45 2300.54 6489.24 2302.33 6491.03 2304.24 6492.82 2306.03 6494.61 2307.82 6496.4 2309.69 6498.19 2311.28 6499.98 2312.86 6501.77 2313.94 6503.56 2315.56 6505.36 2317.18 6507.15 2319.27 6508.94 2321 6510.73 2322.72 6512.52 2324.26 6514.31 2325.88 6516.1 2327.51 6517.89 2329.07 6519.68 2330.73 6521.47 2332.39 6523.26 2334.25 6525.06 2335.85 6526.85 2337.46 6528.64 2338.76 6530.43 2340.34 6532.22 2341.93 6534.01 2343.71 6535.8 2345.34 6537.59 2346.98 6539.38 2348.6 6541.17 2350.15 6542.96 2351.71 6544.75 2353.25 6546.54 2354.7 6548.34 2356.14 6550.13 2357.15 6551.92 2358.82 6553.71 2360.48 6555.5 2363.16 6557.29 2364.68 6559.08 2366.2 6560.87 2366.45 6562.66 2367.93 6564.45 2369.4 6566.24 2371.94 6568.04 2373.54 6569.83 2375.13 6571.62 2376.04 6573.41 2377.49 6575.2 2378.94 6576.99 2380.83 6578.78 2382.23 6580.57 2383.64 6582.36 2384.5 6584.15 2385.9 6585.94 2387.31 6587.73 2389.32 6589.53 2390.66 6591.32 2391.99 6593.11 2392.38 6594.9 2393.93 6596.69 2395.47 6598.48 2398.24 6600.27 2399.91 6602.06 2401.59 6603.85 2402.81 6605.64 2403.99 6607.43 2405.17 6609.22 2405.67 6611.02 2406.98 6612.81 2408.29 6614.6 2410.21 6616.39 2411.87 6618.18 2413.53 6619.97 2415.44 6621.76 2416.93 6623.55 2418.42 6625.34 2419.61 6627.13 2420.82 6628.92 2422.03 6630.71 2422.87 6632.5 2424.19 6634.3 2425.51 6636.09 2427.31 6637.88 2428.74 6639.67 2430.18 6641.46 2431.57 6643.25 2432.79 6645.04 2434.01 6646.83 2434.83 6648.62 2436.06 6650.41 2437.3 6652.2 2438.97 6654 2440.21 6655.79 2441.44 6657.58 2442.18 6659.37 2443.48 6661.16 2444.78 6662.95 2446.73 6664.74 2448.02 6666.53 2449.31 6668.32 2449.84 6670.11 2451.2 6671.9 2452.57 6673.69 2454.81 6675.48 2456.2 6677.28 2457.59 6679.07 2458.3 6680.86 2459.53 6682.65 2460.76 6684.44 2462.31 6686.23 2463.59 6688.02 2464.87 6689.81 2465.97 6691.6 2467.22 6693.39 2468.48 6695.18 2469.66 6696.98 2471.13 6698.77 2472.59 6700.56 2474.58 6702.35 2476.02 6704.14 2477.45 6705.93 2478.97 6707.72 2479.73 6709.51 2480.5 6711.3 2479.54 6713.09 2480.61 6714.88 2481.68 6716.67 2484.54 6718.46 2486.17 6720.26 2487.8 6722.05 2488.97 6723.84 2490.39 6725.63 2491.81 6727.42 2493.98 6729.21 2494.68 6731 2495.38 6732.79 2493.41 6734.58 2494.6 6736.37 2495.78 6738.16 2500.4 6739.96 2501.82 6741.75 2503.23 6743.54 2502.44 6745.33 2503.1 6747.12 2503.75 6748.91 2504.15 6750.7 2505.75 6752.49 2507.35 6754.28 2511.67 6756.07 2512.69 6757.86 2513.72 6759.65 2511.26 6761.45 2511.91 6763.24 2512.56 6765.03 2515.06 6766.82 2516.6 6768.61 2518.15 6770.4 2519.7 6772.19 2521.2 6773.98 2522.7 6775.77 2524.89 6777.56 2525.59 6779.35 2526.3 6781.14 2524.61 6782.94 2525.43 6784.73 2526.26 6786.52 2529.21 6788.31 2530.54 6790.1 2531.88 6791.89 2532.8 6793.68 2533.44 6795.47 2534.07 6797.26 2533.24 6799.05 2534.34 6800.84 2535.44 6802.63 2538.85 6804.42 2540.05 6806.22 2541.25 6808.01 2540.29 6809.8 2541.54 6811.59 2542.78 6813.38 2546.5 6815.17 2547.52 6816.96 2548.55 6818.75 2546.37 6820.54 2547.67 6822.33 2548.97 6824.12 2553.95 6825.92 2555.32 6827.71 2556.7 6829.5 2555.64 6831.29 2555.91 6833.08 2556.18 6834.87 2555.7 6836.66 2556.94 6838.45 2558.18 6840.24 2561.31 6842.03 2563.35 6843.82 2565.39 6845.61 2568.66 6847.41 2569.16 6849.2 2569.66 6850.99 2566.71 6852.78 2566.35 6854.57 2565.99 6856.36 2565.6 6858.15 2567 6859.94 2568.39 6861.73 2572.51 6863.52 2574.71 6865.31 2576.92 6867.1 2578.93 6868.9 2580.22 6870.69 2581.52 6872.48 2582.23 6874.27 2582.47 6876.06 2582.7 6877.85 2580.93 6879.64 2581.63 6881.43 2582.33 6883.22 2584.83 6885.01 2586.68 6886.8 2588.52 6888.59 2591.36 6890.39 2592.7 6892.18 2594.03 6893.97 2594.07 6895.76 2594.67 6897.55 2595.27 6899.34 2594.83 6901.13 2596.28 6902.92 2597.73 6904.71 2603.52 6906.5 2603.36 6908.29 2603.19 6910.08 2595.73 6911.88 2595.29 6913.67 2594.84 6915.46 2599.69 6917.25 2600.7 6918.83 2601.59 6921.04 2599.15 6922.62 2601.34 6924.41 2603.82 6926.2 2614.55 6927.99 2615.59 6929.78 2616.62 6931.57 2608.04 6933.37 2607.56 6935.16 2607.08 6936.95 2611.74 6938.74 2612.71 6940.53 2613.67 6942.32 2611.9 6944.11 2613.36 6945.9 2614.82 6947.69 2620.13 6949.48 2621.47 6951.27 2622.82 6953.06 2621.46 6954.85 2621.44 6956.65 2621.41 6958.44 2621.77 6960.23 2621.35 6962.02 2620.92 6963.81 2617.39 6965.6 2618.87 6967.39 2620.34 6969.18 2629.12 6970.97 2630.2 6972.76 2631.28 6974.55 2624.48 6976.35 2625.34 6978.14 2626.2 6979.93 2633.39 6981.72 2635.34 6983.51 2637.28 6985.3 2637.41 6987.09 2636.99 6988.88 2636.58 6990.67 2632.58 6992.46 2632.85 6994.25 2633.12 6996.04 2636.78 6997.83 2638.62 6999.63 2640.46 7001.42 2642.38 7003.21 2643.88 7005 2645.37 7006.79 2648.53 7008.58 2647.58 7010.37 2646.64 7012.16 2638.85 7013.95 2638.22 7015.74 2637.59 7017.53 2643.48 7019.33 2643.78 7021.12 2644.09 7022.91 2640 7024.7 2640.05 7026.49 2640.11 7028.28 2641.49 7030.07 2644.12 7031.86 2646.75 7033.65 2654.05 7035.44 2655.84 7037.23 2657.63 7039.02 2654.97 7040.81 2654.86 7042.61 2654.75 7044.4 2655 7046.19 2655.16 7047.98 2655.32 7049.77 2654.84 7051.56 2655.82 7053.35 2656.8 7055.14 2660.37 7056.93 2661.03 7058.72 2661.69 7060.51 2660.65 7062.31 2659.79 7064.1 2658.93 7065.89 2654.56 7067.68 2655.88 7069.47 2657.19 7071.26 2666.78 7073.05 2667.7 7074.84 2668.62 7076.63 2661.26 7078.42 2661.4 7080.21 2661.54 7082 2666.23 7083.79 2668.54 7085.59 2670.85 7087.38 2674.01 7089.17 2675.26 7090.96 2676.51 7092.75 2677.98 7094.54 2676.05 7096.33 2674.11 7098.12 2665.84 7099.91 2663.66 7101.63 2661.56 7103.57 2662.3 7105.29 2662.92 7107.08 2663.56 7108.87 2664.48 7110.66 2667.53 7112.45 2670.57 7114.24 2680.2 7116.03 2681.21 7117.82 2682.22 7119.61 2676 7121.4 2673.57 7123.19 2671.14 7124.98 2666.14 7126.77 2666.62 7128.57 2667.1 7130.36 2674.88 7132.15 2676.45 7133.94 2678.01 7135.73 2677.2 7137.52 2676.02 7139.31 2674.84 7141.1 2668.75 7142.89 2669.37 7144.68 2669.98 7146.47 2678.21 7148.27 2679.73 7150.06 2681.25 7151.85 2677.91 7153.64 2678.51 7155.43 2679.1 7157.22 2685.5 7159.01 2683.29 7160.8 2681.08 7162.59 2665.55 7164.38 2665.25 7166.17 2664.95 7167.96 2680.41 7169.75 2681.48 7171.55 2682.56 7173.34 2672.7 7175.13 2671.7 7176.92 2670.7 7178.71 2674.21 7180.5 2675.47" stroke="#4472C4" stroke-width="6.875" stroke-linecap="round" stroke-linejoin="round" stroke-miterlimit="10" fill="none"/></g><g clip-path="url(#clip9)"><path d="M5031.5 2790.59C5033.29 2783.34 5035.08 2776.05 5036.87 2768.83 5038.66 2761.6 5040.45 2750.37 5042.25 2747.23 5043.74 2744.61 5046.13 2749.79 5047.62 2749.95 5048.31 2750.03 5052.3 2745.66 5052.99 2748.38 5054.78 2755.38 5056.57 2791.09 5058.36 2791.96 5060.15 2792.83 5061.94 2760.05 5063.73 2753.59 5064.45 2751 5068.39 2752.58 5069.11 2753.23 5070.9 2754.84 5072.69 2766.14 5074.48 2763.29 5076.27 2760.44 5078.06 2736.22 5079.85 2736.11 5081.64 2735.99 5083.43 2763.38 5085.23 2762.6 5087.02 2761.82 5088.81 2733.37 5090.6 2731.42 5092.39 2729.48 5094.18 2747.28 5095.97 2750.94 5097.27 2753.58 5100.05 2752.06 5101.34 2753.36 5103.13 2755.16 5104.92 2758.59 5106.72 2761.73 5108.51 2764.86 5110.3 2775.47 5112.09 2772.19 5113.88 2768.9 5115.67 2743.56 5117.46 2742.01 5119.25 2740.47 5121.04 2763.27 5122.83 2762.92 5124.62 2762.57 5126.41 2738.45 5128.21 2739.93 5130 2741.42 5131.79 2773.35 5133.58 2771.84 5135.37 2770.33 5137.16 2734.72 5138.95 2730.86 5140.74 2727 5142.53 2742.84 5144.32 2748.67 5146.11 2754.5 5147.9 2763.98 5149.69 2765.86 5151.49 2767.74 5153.28 2756.5 5155.07 2759.95 5156.86 2763.39 5158.65 2785.31 5160.44 2786.54 5162.15 2787.72 5164.1 2777.17 5165.81 2767.36 5167.6 2757.07 5169.39 2728.01 5171.19 2724.84 5172.98 2721.67 5174.77 2747.62 5176.56 2748.33 5178.35 2749.04 5180.14 2724.51 5181.93 2729.11 5183.72 2733.72 5185.51 2774.05 5187.3 2775.95 5189.09 2777.86 5190.88 2744.88 5192.67 2740.54 5194.17 2736.91 5196.55 2744.73 5198.05 2749.92 5199.84 2756.12 5201.63 2771.21 5203.42 2777.78 5205.09 2783.93 5207.12 2794.4 5208.79 2789.33 5210.58 2783.92 5212.37 2749.75 5214.17 2745.29 5215.96 2740.82 5217.75 2761.38 5219.54 2762.55 5221.33 2763.71 5223.12 2752.21 5224.91 2752.26 5226.7 2752.32 5228.49 2760.38 5230.28 2762.88 5231.43 2764.49 5234.5 2770.53 5235.66 2767.26 5237.45 2762.18 5239.24 2736.34 5241.03 2732.4 5242.82 2728.46 5244.61 2738.61 5246.4 2743.62 5248.19 2748.62 5249.98 2761.71 5251.77 2762.43 5253.56 2763.16 5255.35 2748.88 5257.15 2747.96 5258.94 2747.04 5260.73 2756.2 5262.52 2756.9 5264.31 2757.6 5266.1 2754.39 5267.89 2752.16 5269.68 2749.94 5271.47 2743.8 5273.26 2743.55 5275.05 2743.29 5276.84 2749.23 5278.64 2750.63 5280.43 2752.03 5282.22 2750.91 5284.01 2751.95 5285.39 2752.75 5288 2760.27 5289.38 2756.89 5291.17 2752.51 5292.96 2731.34 5294.75 2725.67 5295.67 2722.77 5299.21 2722.25 5300.12 2722.84 5301.57 2723.79 5304.05 2727.28 5305.5 2732.7 5307.29 2739.43 5309.08 2764.7 5310.87 2763.2 5312.66 2761.7 5314.45 2726.97 5316.24 2723.7 5318.03 2720.43 5319.82 2744.21 5321.61 2743.58 5323.41 2742.94 5325.2 2711.28 5326.99 2719.88 5328.78 2728.48 5330.57 2793.05 5332.36 2795.18 5334.15 2797.32 5335.94 2737.78 5337.73 2732.67 5339.52 2727.57 5341.31 2763.12 5343.1 2764.56 5344.9 2765.99 5346.69 2740.27 5348.48 2741.27 5350.27 2742.27 5352.06 2772.66 5353.85 2770.56 5355.64 2768.45 5357.43 2729.87 5359.22 2728.64 5361.01 2727.41 5362.8 2757.65 5364.6 2763.19 5365.44 2765.82 5369.12 2763.76 5369.97 2761.89 5371.76 2757.94 5373.55 2737.87 5375.34 2739.52 5377.13 2741.17 5378.92 2770.76 5380.71 2771.77 5382.5 2772.78 5384.29 2746.94 5386.08 2745.56 5387.88 2744.18 5389.67 2759.97 5391.46 2763.48 5392.22 2764.97 5396.07 2769.59 5396.83 2766.58 5398.62 2759.52 5400.41 2722.44 5402.2 2721.1 5403.99 2719.75 5405.78 2753.27 5407.58 2758.49 5408.89 2762.32 5411.63 2750.29 5412.95 2752.41 5414.74 2755.3 5416.53 2774.9 5418.32 2775.83 5420.11 2776.75 5421.9 2763.86 5423.69 2757.98 5425.48 2752.1 5427.27 2742.43 5429.07 2740.55 5430.86 2738.66 5432.65 2743.56 5434.44 2746.65 5436.23 2749.75 5438.02 2758.97 5439.81 2759.11 5441.6 2759.26 5443.39 2749.02 5445.18 2747.53 5446.97 2746.05 5448.76 2749.69 5450.55 2750.2 5452.11 2750.65 5454.38 2752.84 5455.93 2750.64 5457.72 2748.09 5459.51 2737.14 5461.3 2734.95 5462.98 2732.9 5464.99 2735.04 5466.67 2737.49 5468.46 2740.11 5470.25 2747.2 5472.04 2750.63 5473.84 2754.06 5475.63 2761.08 5477.42 2758.08 5479.21 2755.07 5481 2730.88 5482.79 2732.6 5484.58 2734.33 5486.37 2767.08 5488.16 2768.43 5489.95 2769.78 5491.74 2742.76 5493.54 2740.71 5495.33 2738.66 5497.12 2761.52 5498.91 2756.12 5500.7 2750.72 5502.49 2710.47 5504.28 2708.31 5506.07 2706.15 5507.86 2740.5 5509.65 2743.16 5511.44 2745.82 5513.23 2726.61 5515.02 2724.25 5516.82 2721.89 5518.61 2729.61 5520.4 2728.98 5522.19 2728.35 5523.98 2716.62 5525.77 2720.49 5527.56 2724.36 5529.35 2749.21 5531.14 2752.21 5532.93 2755.21 5534.72 2743.91 5536.52 2738.51 5538.31 2733.11 5540.1 2724.95 5541.89 2719.79 5543.68 2714.63 5545.47 2709.13 5547.26 2707.55 5548.44 2706.51 5551.45 2707.54 5552.63 2710.33 5554.42 2714.56 5556.21 2728.03 5558 2732.94 5559.5 2737.03 5561.89 2743.18 5563.38 2739.78 5565.17 2735.7 5566.96 2701.32 5568.75 2708.46 5570.54 2715.6 5572.33 2780.7 5574.12 2782.6 5575.91 2784.49 5577.7 2728.38 5579.5 2719.84 5580.79 2713.63 5583.57 2730.24 5584.87 2731.32 5586.08 2732.32 5589.03 2731.43 5590.24 2728.71 5592.03 2724.68 5593.82 2705.47 5595.61 2707.17 5597.4 2708.86 5599.19 2738.04 5600.99 2738.88 5602.78 2739.73 5604.57 2712.35 5606.36 2712.25 5608.15 2712.15 5609.94 2732.37 5611.73 2738.28 5613.31 2743.49 5615.53 2752.51 5617.1 2747.75 5618.89 2742.33 5620.68 2710.51 5622.47 2705.8 5624.27 2701.1 5626.06 2720.36 5627.85 2719.5 5629.64 2718.65 5631.43 2703.4 5633.22 2700.68 5634.85 2698.21 5636.96 2702.64 5638.59 2703.17 5640.38 2703.76 5642.17 2705.98 5643.96 2704.2 5645.76 2702.42 5647.55 2694 5649.34 2692.48 5651.13 2690.95 5652.92 2693.58 5654.71 2695.06 5656.5 2696.53 5658.29 2700.35 5660.08 2701.32 5661.53 2702.1 5664.01 2703.15 5665.46 2700.87 5667.25 2698.06 5669.04 2687.7 5670.83 2684.43 5672.33 2681.69 5674.7 2681.62 5676.2 2681.24 5677.99 2680.79 5679.78 2680.69 5681.57 2681.71 5683.36 2682.73 5685.15 2687.2 5686.95 2687.35 5688.33 2687.46 5690.93 2685.9 5692.32 2682.59 5694.11 2678.33 5695.9 2663.04 5697.69 2661.77 5699.48 2660.5 5701.27 2676.54 5703.06 2674.96 5704.85 2673.39 5706.64 2653.62 5708.44 2652.33 5710.23 2651.05 5712.02 2663.57 5713.81 2667.23 5715.6 2670.9 5717.39 2675.39 5719.18 2674.34 5720.97 2673.3 5722.76 2667.93 5724.55 2660.95 5726.34 2653.96 5728.13 2635.81 5729.93 2632.44 5731.72 2629.07 5733.51 2639.76 5735.3 2640.72 5737.09 2641.67 5738.88 2639.58 5740.67 2638.18 5742.46 2636.78 5744.25 2631.87 5746.04 2632.3 5747.83 2632.73 5749.62 2641.53 5751.42 2640.78 5753.21 2640.02 5755 2631.92 5756.79 2627.77 5758.58 2623.63 5760.37 2620.2 5762.16 2615.91 5763.95 2611.61 5765.74 2603.63 5767.53 2602.01 5769.32 2600.38 5771.11 2606.3 5772.91 2606.18 5774.7 2606.06 5776.49 2603.3 5778.28 2601.29 5780.07 2599.28 5781.86 2596.96 5783.65 2594.13 5785.44 2591.31 5787.23 2587.19 5789.02 2584.35 5790.81 2581.51 5792.6 2578.3 5794.4 2577.09 5796.15 2575.9 5798.01 2579.14 5799.77 2577.12 5801.56 2575.05 5803.35 2566.68 5805.14 2564.7 5806.7 2562.97 5808.95 2567.45 5810.51 2565.25 5812.3 2562.73 5814.09 2552.75 5815.88 2549.57 5817.45 2546.8 5819.7 2548.21 5821.26 2546.17 5823.05 2543.82 5824.84 2537.12 5826.63 2535.48 5828.25 2533.99 5830.39 2538.46 5832 2536.27 5833.79 2533.85 5835.58 2523.83 5837.38 2520.95 5838.89 2518.52 5841.24 2521.09 5842.75 2518.97 5844.54 2516.45 5846.33 2509.51 5848.12 2505.85 5849.91 2502.18 5851.7 2499.44 5853.49 2496.97 5855.28 2494.51 5857.07 2493.55 5858.87 2491.07 5860.66 2488.59 5862.45 2485.25 5864.24 2482.08 5866.03 2478.9 5867.82 2474.63 5869.61 2472 5871.4 2469.36 5873.19 2468.78 5874.98 2466.25 5876.77 2463.72 5878.56 2460.3 5880.35 2456.81 5882.15 2453.33 5883.94 2448.75 5885.73 2445.36 5887.52 2441.98 5889.31 2439.34 5891.1 2436.5 5892.89 2433.65 5894.68 2432.04 5896.47 2428.29 5898.26 2424.55 5900.05 2417.89 5901.85 2414.03 5903.64 2410.18 5905.43 2408.02 5907.22 2405.15 5909.01 2402.28 5910.8 2400.47 5912.59 2396.84 5914.38 2393.2 5916.17 2387.02 5917.96 2383.34 5919.75 2379.65 5921.54 2378.65 5923.33 2374.73 5925.13 2370.82 5926.92 2364.1 5928.71 2359.83 5930.5 2355.56 5932.29 2352.94 5934.08 2349.09 5935.87 2345.25 5937.66 2340.82 5939.45 2336.78 5941.24 2332.73 5943.03 2329.03 5944.82 2324.8 5946.62 2320.57 5948.41 2315.89 5950.2 2311.39 5951.99 2306.89 5953.78 2302.31 5955.57 2297.81 5957.36 2293.31 5959.15 2289.06 5960.94 2284.37 5962.73 2279.68 5964.52 2274.5 5966.31 2269.66 5968.11 2264.83 5969.9 2260.38 5971.69 2255.37 5973.48 2250.35 5975.27 2244.81 5977.06 2239.59 5978.85 2234.37 5980.64 2229.33 5982.43 2224.05 5984.22 2218.77 5986.01 2213.24 5987.81 2207.91 5989.6 2202.58 5991.39 2197.62 5993.18 2192.06 5994.97 2186.5 5996.76 2180.4 5998.55 2174.56 6000.34 2168.72 6002.13 2162.95 6003.92 2157.03 6005.71 2151.1 6007.5 2145.1 6009.29 2138.99 6011.09 2132.88 6012.88 2126.66 6014.67 2120.39 6016.46 2114.11 6018.25 2107.7 6020.04 2101.36 6021.83 2095.02 6023.62 2088.18 6025.41 2082.36 6027.2 2076.54 6028.99 2072.08 6030.79 2066.44 6032.58 2060.81 6034.37 2053.2 6036.16 2048.55 6037.95 2043.89 6039.74 2043.21 6041.53 2038.51 6043.32 2033.82 6045.11 2026.57 6046.9 2020.36 6048.69 2014.15 6050.48 2007.7 6052.27 2001.25 6054.07 1994.81 6055.86 1988.16 6057.65 1981.67 6059.44 1975.18 6061.23 1968.67 6063.02 1962.31 6064.81 1955.94 6066.6 1949.66 6068.39 1943.48 6070.18 1937.3 6071.97 1931.19 6073.77 1925.24 6075.56 1919.29 6077.35 1913.36 6079.14 1907.79 6080.93 1902.22 6082.72 1896.76 6084.51 1891.81 6086.3 1886.86 6088.09 1882.15 6089.88 1878.09 6091.67 1874.04 6093.46 1870.38 6095.26 1867.49 6097.05 1864.6 6098.84 1862.25 6100.63 1860.76 6102.42 1859.26 6104.21 1858.5 6106 1858.51 6107.79 1858.53 6109.58 1859.32 6111.37 1860.84 6113.16 1862.36 6114.95 1864.67 6116.75 1867.61 6118.54 1870.55 6120.33 1874.26 6122.12 1878.48 6123.91 1882.7 6125.7 1887.62 6127.49 1892.92 6129.28 1898.22 6131.07 1904.12 6132.86 1910.28 6134.65 1916.44 6136.44 1923.1 6138.23 1929.86 6140.03 1936.63 6141.82 1943.72 6143.61 1950.86 6145.4 1958 6147.19 1965.34 6148.98 1972.7 6150.77 1980.06 6152.56 1987.54 6154.35 1995.02 6156.14 2002.5 6157.93 2010.06 6159.73 2017.58 6161.52 2025.09 6163.31 2032.59 6165.1 2040.11 6166.89 2047.63 6168.68 2055.1 6170.47 2062.69 6172.26 2070.28 6174.05 2078.05 6175.84 2085.63 6177.63 2093.22 6179.42 2101.25 6181.21 2108.18 6183.01 2115.12 6184.8 2121.17 6186.59 2127.26 6188.38 2133.35 6190.17 2138.9 6191.96 2144.72 6193.75 2150.53 6195.54 2156.37 6197.33 2162.15 6199.12 2167.92 6200.91 2173.75 6202.71 2179.38 6204.5 2185.01 6206.29 2190.46 6208.08 2195.94 6209.87 2201.43 6211.66 2206.94 6213.45 2212.3 6215.24 2217.65 6217.03 2222.87 6218.82 2228.06 6220.61 2233.26 6222.4 2238.41 6224.2 2243.48 6225.99 2248.54 6227.78 2253.58 6229.57 2258.45 6231.36 2263.32 6233.15 2267.95 6234.94 2272.68 6236.73 2277.41 6238.52 2282.34 6240.31 2286.84 6242.1 2291.34 6243.89 2295.22 6245.69 2299.68 6247.48 2304.15 6249.27 2309.28 6251.06 2313.63 6252.85 2317.98 6254.64 2321.39 6256.43 2325.78 6258.22 2330.17 6260.01 2335.72 6261.8 2339.95 6263.59 2344.19 6265.38 2347.06 6267.18 2351.19 6268.97 2355.32 6270.76 2360.42 6272.55 2364.74 6274.34 2369.05 6276.13 2373.39 6277.92 2377.07 6279.71 2380.76 6281.5 2383.23 6283.29 2386.86 6285.08 2390.49 6286.87 2395.24 6288.67 2398.85 6290.46 2402.46 6292.25 2405.25 6294.04 2408.52 6295.83 2411.8 6297.62 2414.87 6299.41 2418.49 6301.2 2422.11 6302.99 2426.35 6304.78 2430.24 6306.57 2434.12 6308.36 2438.39 6310.16 2441.79 6311.95 2445.2 6313.74 2447.3 6315.53 2450.67 6317.32 2454.03 6319.11 2458.62 6320.9 2461.98 6322.69 2465.34 6324.48 2467.65 6326.27 2470.83 6328.06 2474.01 6329.85 2478.1 6331.65 2481.07 6333.44 2484.05 6335.23 2485.51 6337.02 2488.7 6338.81 2491.9 6340.6 2496.58 6342.39 2500.24 6344.18 2503.9 6345.97 2508.22 6347.76 2510.66 6349.55 2513.1 6351.34 2512.91 6353.14 2514.86 6354.93 2516.81 6356.72 2519.24 6358.51 2522.35 6360.3 2525.46 6362.09 2530.65 6363.88 2533.51 6365.67 2536.37 6367.46 2537.49 6369.25 2539.52 6371.04 2541.54 6372.83 2542.11 6374.62 2545.64 6376.42 2549.18 6378.21 2556.87 6380 2560.72 6381.79 2564.58 6383.58 2566.23 6385.37 2568.78 6387.16 2571.32 6388.95 2574.98 6390.74 2576.01 6392.52 2577.02 6394.34 2572.83 6396.12 2574.92 6397.91 2577.02 6399.7 2585.06 6401.49 2588.6 6403.28 2592.15 6405.07 2592.81 6406.86 2596.19 6408.65 2599.58 6410.44 2606.58 6412.23 2608.92 6413.91 2611.11 6415.92 2610.36 6417.61 2610.2 6419.4 2610.03 6421.19 2606.7 6422.98 2607.89 6424.77 2609.09 6426.56 2612.91 6428.35 2617.38 6430.14 2621.85 6431.93 2633.45 6433.72 2634.72 6435.51 2635.98 6437.3 2624.17 6439.09 2624.99 6440.89 2625.8 6442.68 2638.24 6444.47 2639.62 6446.26 2641 6448.05 2630.56 6449.84 2633.26 6451.63 2635.96 6453.42 2650.94 6455.21 2655.82 6456.69 2659.86 6459.1 2660.98 6460.58 2662.54 6462.38 2664.43 6464.17 2666.29 6465.96 2667.16 6467.75 2668.04 6469.54 2666.57 6471.33 2667.79 6473.12 2669 6474.91 2674.59 6476.7 2674.45 6478.49 2674.31 6480.28 2665.51 6482.08 2666.94 6483.87 2668.38 6485.66 2680.02 6487.45 2683.06 6488.91 2685.55 6491.35 2685.29 6492.82 2685.19 6494.61 2685.07 6496.4 2682.11 6498.19 2682.33 6499.82 2682.54 6501.93 2683.53 6503.56 2686.52 6505.36 2689.8 6507.15 2697.65 6508.94 2702.03 6510.73 2706.42 6512.52 2711.9 6514.31 2712.84 6516.1 2713.78 6517.89 2708.43 6519.68 2707.68 6520.78 2707.23 6523.96 2705.91 6525.06 2708.38 6526.85 2712.45 6528.64 2729.76 6530.43 2732.06 6532.22 2734.36 6534.01 2722.1 6535.8 2722.19 6537.59 2722.27 6539.38 2730.68 6541.17 2732.57 6542.38 2733.84 6545.34 2735.93 6546.54 2733.49 6548.34 2729.87 6550.13 2712.36 6551.92 2710.86 6553.71 2709.36 6555.5 2721.07 6557.29 2724.49 6559.08 2727.91 6560.87 2727.6 6562.66 2731.38 6564.45 2735.16 6566.24 2747.35 6568.04 2747.19 6569.83 2747.02 6571.62 2728.11 6573.41 2730.38 6575.2 2732.65 6576.99 2759.01 6578.78 2760.81 6580.57 2762.62 6582.36 2744.27 6584.15 2741.21 6585.55 2738.83 6588.13 2741.35 6589.53 2742.49 6591.32 2743.94 6593.11 2747.38 6594.9 2749.94 6596.69 2752.5 6598.48 2759.71 6600.27 2757.84 6602.06 2755.97 6603.85 2739.33 6605.64 2738.74 6607.43 2738.16 6609.22 2755.26 6611.02 2754.34 6612.81 2753.42 6614.6 2732.93 6616.39 2733.23 6618.18 2733.53 6619.97 2750.62 6621.76 2756.14 6623.54 2761.62 6625.35 2764.77 6627.13 2766.34 6628.92 2767.92 6630.71 2767.59 6632.5 2765.59 6634.3 2763.6 6636.09 2755.33 6637.88 2754.37 6639.67 2753.41 6641.46 2762.71 6643.25 2759.81 6645.04 2756.91 6646.83 2738.87 6648.62 2736.98 6650.41 2735.09 6652.2 2749.48 6654 2748.45 6655.79 2747.41 6657.58 2727.28 6659.37 2730.79 6661.16 2734.28 6662.95 2766.97 6664.74 2769.45 6666.53 2771.92 6668.32 2741.27 6670.11 2745.66 6671.9 2750.05 6673.69 2795.73 6675.48 2795.78 6677.28 2795.84 6679.07 2758.07 6680.86 2745.99 6682.57 2734.47 6684.52 2720.1 6686.23 2723.31 6688.02 2726.68 6689.81 2755.27 6691.6 2766.16 6693.39 2777.06 6695.18 2793.7 6696.98 2788.66 6698.77 2783.62 6700.56 2742.42 6702.35 2735.91 6704.14 2729.41 6705.93 2744.23 6707.72 2749.63 6709.51 2755.02 6711.3 2764.33 6713.09 2768.26 6714.61 2771.58 6716.95 2774.79 6718.46 2773.2 6720.26 2771.31 6722.05 2762.26 6723.84 2756.94 6725.63 2751.62 6727.42 2744.79 6729.21 2741.28 6730.94 2737.89 6732.85 2733.36 6734.58 2735.88 6736.37 2738.49 6738.16 2749.31 6739.96 2756.92 6741.75 2764.53 6743.54 2777.85 6745.33 2781.54 6746.62 2784.2 6749.41 2780.59 6750.7 2779.07 6752.24 2777.26 6754.54 2774.43 6756.07 2768.88 6757.86 2762.4 6759.65 2741.3 6761.45 2740.2 6763.24 2739.09 6765.03 2762.1 6766.82 2762.24 6768.61 2762.38 6770.4 2741.56 6772.19 2741.04 6773.98 2740.53 6775.77 2757.45 6777.56 2759.15 6779.35 2760.85 6781.14 2749.46 6782.94 2751.25 6784.73 2753.04 6786.52 2769.59 6788.31 2769.87 6790.1 2770.15 6791.89 2754.44 6793.68 2752.94 6794.86 2751.94 6797.87 2756.21 6799.05 2760.83 6800.84 2767.83 6802.63 2794.5 6804.42 2794.95 6806.22 2795.39 6808.01 2770 6809.8 2763.5 6811.03 2759.03 6813.94 2753.11 6815.17 2755.93 6816.96 2760.04 6818.75 2783 6820.54 2788.13 6821.46 2790.75 6825 2787.17 6825.92 2786.7 6826.83 2786.22 6830.38 2785.83 6831.29 2782.56 6833.08 2776.15 6834.87 2748.77 6836.66 2748.2 6838.45 2747.62 6840.24 2777.2 6842.03 2779.13 6843.82 2781.05 6845.61 2763.15 6847.41 2759.76 6848.68 2757.35 6851.5 2760.35 6852.78 2758.8 6854.57 2756.63 6856.36 2746.35 6858.15 2746.71 6859.94 2747.06 6861.73 2754.72 6863.52 2760.91 6865.31 2767.11 6867.1 2784.06 6868.9 2783.85 6870.69 2783.65 6872.48 2765.01 6874.27 2759.7 6875.76 2755.27 6878.14 2754.88 6879.64 2752.04 6881.43 2748.65 6883.22 2734.92 6885.01 2739.32 6886.8 2743.72 6888.59 2776.88 6890.39 2778.45 6892.18 2780.02 6893.97 2748.33 6895.76 2748.76 6897.55 2749.2 6899.34 2779.6 6901.13 2781.06 6902.92 2782.52 6904.71 2764.47 6906.5 2757.52 6908.29 2750.57 6910.08 2740.58 6911.88 2739.37 6913.67 2738.15 6915.46 2748.49 6917.25 2750.21 6919.04 2751.94 6920.83 2749.27 6922.62 2749.74 6924.27 2750.18 6926.34 2750.38 6927.99 2753.07 6929.78 2755.98 6931.57 2765.06 6933.37 2767.23 6934.61 2768.74 6937.5 2768.56 6938.74 2766.11 6940.53 2762.58 6942.32 2747.5 6944.11 2746.06 6945.9 2744.63 6947.69 2756.4 6949.48 2757.51 6951.27 2758.62 6953.06 2754.55 6954.85 2752.71 6956.65 2750.88 6958.44 2747.56 6960.23 2746.51 6962.02 2745.46 6963.81 2747.51 6965.6 2746.39 6967.39 2745.28 6969.18 2739.36 6970.97 2739.82 6972.76 2740.28 6974.55 2747.08 6976.35 2749.15 6978.14 2751.22 6979.93 2752.21 6981.72 2752.26 6983.42 2752.31 6985.39 2751.97 6987.09 2749.47 6988.88 2746.83 6990.67 2734.91 6992.46 2736.44 6994.25 2737.96 6996.04 2754.32 6997.83 2758.62 6999.08 2761.61 7001.96 2763.5 7003.21 2762.23 7005 2760.4 7006.79 2751.83 7008.58 2747.63 7010.37 2743.43 7012.16 2732.43 7013.95 2737.02 7015.74 2741.61 7017.53 2769.94 7019.33 2775.18 7020.71 2779.25 7023.31 2769.41 7024.7 2768.49 7026.41 2767.36 7028.36 2770.17 7030.07 2768.08 7031.86 2765.9 7033.65 2760.3 7035.44 2755.38 7037.23 2750.47 7039.02 2741.02 7040.81 2738.59 7042.04 2736.93 7044.96 2738.17 7046.19 2740.8 7047.98 2744.64 7049.77 2761.39 7051.56 2761.64 7053.35 2761.89 7055.14 2747.3 7056.93 2742.29 7058.2 2738.76 7061.04 2725.76 7062.31 2731.61 7064.1 2739.89 7065.89 2786.45 7067.68 2791.97 7069.47 2797.5 7071.26 2773.5 7073.05 2764.77 7074.84 2756.04 7076.63 2740.46 7078.42 2739.6 7080.21 2738.73 7082 2756.02 7083.79 2759.58 7085.04 2762.05 7087.92 2762.24 7089.17 2760.94 7090.96 2759.06 7092.75 2749.31 7094.54 2748.34 7096.33 2747.37 7098.12 2753.82 7099.91 2755.11 7101.7 2756.41 7103.49 2756.5 7105.29 2756.08 7107.08 2755.67 7108.87 2752.7 7110.66 2752.64 7111.99 2752.6 7114.7 2758.53 7116.03 2755.73 7117.82 2751.96 7119.61 2731.03 7121.4 2730.01 7123.19 2729 7124.98 2746.65 7126.77 2749.66 7128.1 2751.89 7130.82 2745.63 7132.15 2748.1 7133.94 2751.42 7135.73 2768.62 7137.52 2769.61 7139.31 2770.59 7141.1 2752.73 7142.89 2753.98 7144.68 2755.23 7146.47 2780.03 7148.27 2777.08 7150.06 2774.13 7151.85 2741.21 7153.64 2736.3 7155.43 2731.39 7157.22 2743.53 7159.01 2747.62 7160.8 2751.71 7162.59 2758.81 7164.38 2760.83 7165.31 2761.87 7168.83 2762.28 7169.75 2759.69 7171.55 2754.69 7173.34 2731.73 7175.13 2730.83 7176.92 2729.92 7178.71 2746.45 7180.5 2754.25" stroke="#C00000" stroke-width="6.875" stroke-linecap="round" stroke-linejoin="round" stroke-miterlimit="10" fill="none"/></g><g clip-path="url(#clip10)"><text fill="#595959" font-family="Calibri,Calibri_MSFontService,sans-serif" font-weight="400" font-size="55" transform="matrix(1 0 0 1 4908.07 2825)">-80</text></g><g clip-path="url(#clip11)"><text fill="#595959" font-family="Calibri,Calibri_MSFontService,sans-serif" font-weight="400" font-size="55" transform="matrix(1 0 0 1 4908.07 2706)">-70</text></g><g clip-path="url(#clip12)"><text fill="#595959" font-family="Calibri,Calibri_MSFontService,sans-serif" font-weight="400" font-size="55" transform="matrix(1 0 0 1 4908.07 2587)">-60</text></g><g clip-path="url(#clip13)"><text fill="#595959" font-family="Calibri,Calibri_MSFontService,sans-serif" font-weight="400" font-size="55" transform="matrix(1 0 0 1 4908.07 2468)">-50</text></g><g clip-path="url(#clip14)"><text fill="#595959" font-family="Calibri,Calibri_MSFontService,sans-serif" font-weight="400" font-size="55" transform="matrix(1 0 0 1 4908.07 2349)">-40</text></g><g clip-path="url(#clip15)"><text fill="#595959" font-family="Calibri,Calibri_MSFontService,sans-serif" font-weight="400" font-size="55" transform="matrix(1 0 0 1 4908.07 2230)">-30</text></g><g clip-path="url(#clip16)"><text fill="#595959" font-family="Calibri,Calibri_MSFontService,sans-serif" font-weight="400" font-size="55" transform="matrix(1 0 0 1 4908.07 2111)">-20</text></g><g clip-path="url(#clip17)"><text fill="#595959" font-family="Calibri,Calibri_MSFontService,sans-serif" font-weight="400" font-size="55" transform="matrix(1 0 0 1 4908.07 1992)">-10</text></g><g clip-path="url(#clip18)"><text fill="#595959" font-family="Calibri,Calibri_MSFontService,sans-serif" font-weight="400" font-size="55" transform="matrix(1 0 0 1 4952.78 1873)">0</text></g><g clip-path="url(#clip19)"><text fill="#595959" font-family="Calibri,Calibri_MSFontService,sans-serif" font-weight="400" font-size="55" transform="matrix(1 0 0 1 4924.92 1754)">10</text></g><g clip-path="url(#clip20)"><text fill="#595959" font-family="Calibri,Calibri_MSFontService,sans-serif" font-weight="400" font-size="55" transform="matrix(1 0 0 1 4976.71 2897)"> 9.98</text></g><g clip-path="url(#clip21)"><text fill="#595959" font-family="Calibri,Calibri_MSFontService,sans-serif" font-weight="400" font-size="55" transform="matrix(1 0 0 1 5191.62 2897)"> 9.98</text></g><g clip-path="url(#clip22)"><text fill="#595959" font-family="Calibri,Calibri_MSFontService,sans-serif" font-weight="400" font-size="55" transform="matrix(1 0 0 1 5406.53 2897)"> 9.99</text></g><g clip-path="url(#clip23)"><text fill="#595959" font-family="Calibri,Calibri_MSFontService,sans-serif" font-weight="400" font-size="55" transform="matrix(1 0 0 1 5621.45 2897)"> 9.99</text></g><g clip-path="url(#clip24)"><text fill="#595959" font-family="Calibri,Calibri_MSFontService,sans-serif" font-weight="400" font-size="55" transform="matrix(1 0 0 1 5822.42 2897)"> 10.00</text></g><g clip-path="url(#clip25)"><text fill="#595959" font-family="Calibri,Calibri_MSFontService,sans-serif" font-weight="400" font-size="55" transform="matrix(1 0 0 1 6037.33 2897)"> 10.00</text></g><g clip-path="url(#clip26)"><text fill="#595959" font-family="Calibri,Calibri_MSFontService,sans-serif" font-weight="400" font-size="55" transform="matrix(1 0 0 1 6252.25 2897)"> 10.01</text></g><g clip-path="url(#clip27)"><text fill="#595959" font-family="Calibri,Calibri_MSFontService,sans-serif" font-weight="400" font-size="55" transform="matrix(1 0 0 1 6467.16 2897)"> 10.01</text></g><g clip-path="url(#clip28)"><text fill="#595959" font-family="Calibri,Calibri_MSFontService,sans-serif" font-weight="400" font-size="55" transform="matrix(1 0 0 1 6682.07 2897)"> 10.02</text></g><g clip-path="url(#clip29)"><text fill="#595959" font-family="Calibri,Calibri_MSFontService,sans-serif" font-weight="400" font-size="55" transform="matrix(1 0 0 1 6896.98 2897)"> 10.02</text></g><g clip-path="url(#clip30)"><text fill="#595959" font-family="Calibri,Calibri_MSFontService,sans-serif" font-weight="400" font-size="55" transform="matrix(1 0 0 1 7111.89 2897)"> 10.03</text></g><g clip-path="url(#clip31)"><text fill="#595959" font-family="Calibri,Calibri_MSFontService,sans-serif" font-weight="400" font-size="64" transform="matrix(6.12323e-17 -1 1 6.12323e-17 4868.92 2404)">|S21| [dB]</text></g><g clip-path="url(#clip32)"><text fill="#595959" font-family="Calibri,Calibri_MSFontService,sans-serif" font-weight="400" font-size="64" transform="matrix(1 0 0 1 5902.54 2968)">Frekvenca [MHz]</text></g><g clip-path="url(#clip33)"><path d="M5780.5 1668.5 5868.5 1668.5" stroke="#4472C4" stroke-width="6.875" stroke-linecap="round" stroke-linejoin="round" stroke-miterlimit="10" fill="none" fill-rule="evenodd"/></g><g clip-path="url(#clip34)"><text fill="#595959" font-family="Calibri,Calibri_MSFontService,sans-serif" font-weight="400" font-size="64" transform="matrix(1 0 0 1 5877.95 1686)">3 kHz</text></g><g clip-path="url(#clip35)"><path d="M6065.5 1668.5 6153.5 1668.5" stroke="#C00000" stroke-width="6.875" stroke-linecap="round" stroke-linejoin="round" stroke-miterlimit="10" fill="none" fill-rule="evenodd"/></g><g clip-path="url(#clip36)"><text fill="#595959" font-family="Calibri,Calibri_MSFontService,sans-serif" font-weight="400" font-size="64" transform="matrix(1 0 0 1 6163.02 1686)">1 kHz</text></g></g></svg>