<svg width="2486" height="1418" xmlns="http://www.w3.org/2000/svg" xmlns:xlink="http://www.w3.org/1999/xlink" xml:space="preserve" overflow="hidden"><defs><clipPath id="clip0"><rect x="4709" y="60" width="2486" height="1418"/></clipPath><clipPath id="clip1"><rect x="4709" y="60" width="2485" height="1418"/></clipPath><clipPath id="clip2"><rect x="4709" y="60" width="2485" height="1418"/></clipPath><clipPath id="clip3"><rect x="4709" y="60" width="2485" height="1418"/></clipPath><clipPath id="clip4"><rect x="4709" y="60" width="2485" height="1418"/></clipPath><clipPath id="clip5"><rect x="4709" y="60" width="2485" height="1418"/></clipPath><clipPath id="clip6"><rect x="4709" y="60" width="2485" height="1418"/></clipPath><clipPath id="clip7"><rect x="4709" y="60" width="2485" height="1418"/></clipPath><clipPath id="clip8"><rect x="4949" y="210" width="2152" height="1075"/></clipPath><clipPath id="clip9"><rect x="4949" y="210" width="2152" height="1075"/></clipPath><clipPath id="clip10"><rect x="4949" y="210" width="2152" height="1075"/></clipPath><clipPath id="clip11"><rect x="4709" y="60" width="2485" height="1418"/></clipPath><clipPath id="clip12"><rect x="4709" y="60" width="2485" height="1418"/></clipPath><clipPath id="clip13"><rect x="4709" y="60" width="2485" height="1418"/></clipPath><clipPath id="clip14"><rect x="4709" y="60" width="2485" height="1418"/></clipPath><clipPath id="clip15"><rect x="4709" y="60" width="2485" height="1418"/></clipPath><clipPath id="clip16"><rect x="4709" y="60" width="2485" height="1418"/></clipPath><clipPath id="clip17"><rect x="4709" y="60" width="2485" height="1418"/></clipPath><clipPath id="clip18"><rect x="4709" y="60" width="2485" height="1418"/></clipPath><clipPath id="clip19"><rect x="4709" y="60" width="2485" height="1418"/></clipPath><clipPath id="clip20"><rect x="4709" y="60" width="2485" height="1418"/></clipPath><clipPath id="clip21"><rect x="4709" y="60" width="2485" height="1418"/></clipPath><clipPath id="clip22"><rect x="4709" y="60" width="2485" height="1418"/></clipPath><clipPath id="clip23"><rect x="4709" y="60" width="2485" height="1418"/></clipPath><clipPath id="clip24"><rect x="4709" y="60" width="2485" height="1418"/></clipPath><clipPath id="clip25"><rect x="4709" y="60" width="2485" height="1418"/></clipPath><clipPath id="clip26"><rect x="4709" y="60" width="2485" height="1418"/></clipPath><clipPath id="clip27"><rect x="4709" y="60" width="2485" height="1418"/></clipPath><clipPath id="clip28"><rect x="4709" y="60" width="2485" height="1418"/></clipPath><clipPath id="clip29"><rect x="4709" y="60" width="2485" height="1418"/></clipPath><clipPath id="clip30"><rect x="4709" y="60" width="2485" height="1418"/></clipPath><clipPath id="clip31"><rect x="4709" y="60" width="2485" height="1418"/></clipPath><clipPath id="clip32"><rect x="4709" y="60" width="2485" height="1418"/></clipPath><clipPath id="clip33"><rect x="4709" y="60" width="2485" height="1418"/></clipPath><clipPath id="clip34"><rect x="4709" y="60" width="2485" height="1418"/></clipPath><clipPath id="clip35"><rect x="4709" y="60" width="2485" height="1418"/></clipPath><clipPath id="clip36"><rect x="4709" y="60" width="2485" height="1418"/></clipPath><clipPath id="clip37"><rect x="4709" y="60" width="2485" height="1418"/></clipPath><clipPath id="clip38"><rect x="4709" y="60" width="2485" height="1418"/></clipPath><clipPath id="clip39"><rect x="4709" y="60" width="2485" height="1418"/></clipPath></defs><g clip-path="url(#clip0)" transform="translate(-4709 -60)"><rect x="4709" y="60.0002" width="2486" height="1418" fill="#FFFFFF"/><g clip-path="url(#clip1)"><path d="M4949.5 1257.54 7098.5 1257.54M4949.5 1234.54 7098.5 1234.54M4949.5 1210.54 7098.5 1210.54M4949.5 1186.54 7098.5 1186.54M4949.5 1138.54 7098.5 1138.54M4949.5 1115.54 7098.5 1115.54M4949.5 1091.54 7098.5 1091.54M4949.5 1067.54 7098.5 1067.54M4949.5 1019.53 7098.5 1019.53M4949.5 996.533 7098.5 996.533M4949.5 972.532 7098.5 972.532M4949.5 948.531 7098.5 948.531M4949.5 900.53 7098.5 900.53M4949.5 877.529 7098.5 877.529M4949.5 853.528 7098.5 853.528M4949.5 829.527 7098.5 829.527M4949.5 781.526 7098.5 781.526M4949.5 758.525 7098.5 758.525M4949.5 734.524 7098.5 734.524M4949.5 710.523 7098.5 710.523M4949.5 662.522 7098.5 662.522M4949.5 639.521 7098.5 639.521M4949.5 615.52 7098.5 615.52M4949.5 591.52 7098.5 591.52M4949.5 543.518 7098.5 543.518M4949.5 520.517 7098.5 520.517M4949.5 496.516 7098.5 496.516M4949.5 472.516 7098.5 472.516M4949.5 424.514 7098.5 424.514M4949.5 401.513 7098.5 401.513M4949.5 377.513 7098.5 377.513M4949.5 353.512 7098.5 353.512M4949.5 305.51 7098.5 305.51M4949.5 282.509 7098.5 282.509M4949.5 258.509 7098.5 258.509M4949.5 234.508 7098.5 234.508" stroke="#D9D9D9" stroke-width="3.4375" stroke-linejoin="round" stroke-miterlimit="10" fill="none"/></g><g clip-path="url(#clip2)"><path d="M4949.5 1281.5 7098.5 1281.5M4949.5 1162.54 7098.5 1162.54M4949.5 1043.53 7098.5 1043.53M4949.5 924.531 7098.5 924.531M4949.5 805.527 7098.5 805.527M4949.5 686.523 7098.5 686.523M4949.5 567.519 7098.5 567.519M4949.5 448.515 7098.5 448.515M4949.5 210.5 7098.5 210.5" stroke="#A6A6A6" stroke-width="3.4375" stroke-linejoin="round" stroke-miterlimit="10" fill="none"/></g><g clip-path="url(#clip3)"><path d="M4991.66 210.5 4991.66 1281.5M5034.67 210.5 5034.67 1281.5M5077.67 210.5 5077.67 1281.5M5120.67 210.5 5120.67 1281.5M5206.67 210.5 5206.67 1281.5M5249.67 210.5 5249.67 1281.5M5292.67 210.5 5292.67 1281.5M5335.68 210.5 5335.68 1281.5M5421.68 210.5 5421.68 1281.5M5464.68 210.5 5464.68 1281.5M5507.68 210.5 5507.68 1281.5M5550.68 210.5 5550.68 1281.5M5636.69 210.5 5636.69 1281.5M5679.69 210.5 5679.69 1281.5M5722.69 210.5 5722.69 1281.5M5765.69 210.5 5765.69 1281.5M5851.69 210.5 5851.69 1281.5M5894.69 210.5 5894.69 1281.5M5937.69 210.5 5937.69 1281.5M5980.7 210.5 5980.7 1281.5M6066.7 210.5 6066.7 1281.5M6109.7 210.5 6109.7 1281.5M6152.7 210.5 6152.7 1281.5M6195.7 210.5 6195.7 1281.5M6281.71 210.5 6281.71 1281.5M6324.71 210.5 6324.71 1281.5M6367.71 210.5 6367.71 1281.5M6410.71 210.5 6410.71 1281.5M6496.71 210.5 6496.71 1281.5M6539.71 210.5 6539.71 1281.5M6582.72 210.5 6582.72 1281.5M6625.72 210.5 6625.72 1281.5M6711.72 210.5 6711.72 1281.5M6754.72 210.5 6754.72 1281.5M6797.72 210.5 6797.72 1281.5M6840.72 210.5 6840.72 1281.5M6926.73 210.5 6926.73 1281.5M6969.73 210.5 6969.73 1281.5M7012.73 210.5 7012.73 1281.5M7055.73 210.5 7055.73 1281.5" stroke="#D9D9D9" stroke-width="3.4375" stroke-linejoin="round" stroke-miterlimit="10" fill="none"/></g><g clip-path="url(#clip4)"><path d="M5163.67 210.5 5163.67 1281.5M5378.68 210.5 5378.68 1281.5M5593.68 210.5 5593.68 1281.5M5808.69 210.5 5808.69 1281.5M6023.7 210.5 6023.7 1281.5M6238.7 210.5 6238.7 1281.5M6453.71 210.5 6453.71 1281.5M6668.72 210.5 6668.72 1281.5M6883.73 210.5 6883.73 1281.5M7098.5 210.5 7098.5 1281.5" stroke="#A6A6A6" stroke-width="3.4375" stroke-linejoin="round" stroke-miterlimit="10" fill="none"/></g><g clip-path="url(#clip5)"><rect x="4949.5" y="210.5" width="2149" height="1071" stroke="#000000" stroke-width="3.4375" stroke-linejoin="round" stroke-miterlimit="10" fill="none"/></g><g clip-path="url(#clip6)"><path d="M0 0 0.000360892 1071" stroke="#000000" stroke-width="3.4375" stroke-linejoin="round" stroke-miterlimit="10" fill="none" fill-rule="evenodd" transform="matrix(1 0 0 -1 4949.5 1281.5)"/></g><g clip-path="url(#clip7)"><path d="M4949.5 329.5 7098.5 329.501" stroke="#0D0D0D" stroke-width="3.4375" stroke-linejoin="round" stroke-miterlimit="10" fill="none" fill-rule="evenodd"/></g><g clip-path="url(#clip8)"><path d="M4949.5 1031.82C4951.29 1032.19 4953.08 1033.26 4954.87 1032.92 4956.66 1032.58 4958.45 1030.67 4960.25 1029.77 4962.04 1028.88 4963.83 1028.55 4965.62 1027.55 4967.41 1026.54 4969.2 1024.85 4970.99 1023.73 4972.78 1022.62 4974.57 1021.4 4976.36 1020.87 4978.15 1020.35 4979.94 1020.7 4981.73 1020.58 4983.53 1020.46 4985.32 1019.88 4987.11 1020.17 4988.9 1020.45 4990.69 1023.15 4992.48 1022.29 4994.27 1021.43 4996.06 1015.85 4997.85 1015.03 4999.64 1014.21 5001.43 1018.12 5003.23 1017.38 5005.02 1016.65 5006.81 1012.92 5008.6 1010.62 5010.39 1008.31 5012.18 1003.18 5013.97 1003.58 5015.76 1003.98 5017.55 1012.19 5019.34 1013.01 5021.13 1013.82 5022.92 1008.69 5024.72 1008.47 5026.51 1008.25 5028.3 1012.54 5030.09 1011.69 5031.88 1010.84 5033.67 1005.35 5035.46 1003.37 5037.25 1001.38 5039.04 1000.32 5040.83 999.81 5042.62 999.297 5044.41 1000.07 5046.21 1000.29 5048 1000.51 5049.79 1001.2 5051.58 1001.15 5053.37 1001.09 5055.16 1001.37 5056.95 999.976 5058.74 998.58 5060.53 994.114 5062.32 992.773 5064.11 991.432 5065.9 993.13 5067.69 991.929 5069.49 990.728 5071.28 985.898 5073.07 985.569 5074.86 985.24 5076.65 989.969 5078.44 989.952 5080.23 989.935 5082.02 986.995 5083.81 985.469 5085.6 983.943 5087.39 981.853 5089.19 980.793 5090.98 979.733 5092.77 979.162 5094.56 979.109 5096.35 979.056 5098.14 981.396 5099.93 980.475 5101.72 979.554 5103.51 974.799 5105.3 973.582 5107.09 972.365 5108.88 973.097 5110.67 973.174 5112.47 973.25 5114.26 974.849 5116.05 974.04 5117.84 973.231 5119.63 969.348 5121.42 968.32 5123.21 967.292 5125 968.374 5126.79 967.874 5128.58 967.373 5130.37 966.569 5132.17 965.317 5133.96 964.065 5135.75 961.757 5137.54 960.362 5139.33 958.968 5141.12 957.815 5142.91 956.948 5144.7 956.081 5146.49 955.878 5148.28 955.161 5150.07 954.445 5151.86 953.444 5153.66 952.65 5155.45 951.855 5157.24 951.563 5159.03 950.395 5160.82 949.227 5162.61 946.618 5164.4 945.641 5166.19 944.664 5167.98 945.132 5169.77 944.533 5171.56 943.933 5173.35 942.605 5175.15 942.042 5176.94 941.479 5178.73 942.635 5180.52 941.153 5182.31 939.67 5184.1 934.043 5185.89 933.147 5187.68 932.251 5189.47 936.584 5191.26 935.777 5193.05 934.97 5194.84 929.45 5196.64 928.307 5198.43 927.164 5200.22 929.501 5202.01 928.918 5203.8 928.334 5205.59 925.728 5207.38 924.805 5209.17 923.882 5210.96 924.279 5212.75 923.38 5214.54 922.481 5216.33 920.317 5218.12 919.412 5219.92 918.507 5221.71 919.026 5223.5 917.952 5225.29 916.878 5227.08 914.263 5228.87 912.969 5230.66 911.674 5232.45 911.01 5234.24 910.186 5236.03 909.361 5237.82 908.695 5239.61 908.023 5241.41 907.351 5243.2 906.956 5244.99 906.154 5246.78 905.352 5248.57 904.158 5250.36 903.211 5252.15 902.264 5253.94 901.419 5255.73 900.471 5257.52 899.522 5259.31 898.646 5261.1 897.52 5262.9 896.393 5264.69 894.909 5266.48 893.713 5268.27 892.516 5270.06 891.404 5271.85 890.341 5273.64 889.277 5275.43 888.35 5277.22 887.33 5279.01 886.31 5280.8 885.085 5282.59 884.219 5284.39 883.353 5286.18 883.044 5287.97 882.133 5289.76 881.221 5291.55 879.899 5293.34 878.751 5295.13 877.602 5296.92 876.333 5298.71 875.239 5300.5 874.145 5302.29 873.235 5304.08 872.189 5305.88 871.144 5307.67 870.217 5309.46 868.964 5311.25 867.711 5313.04 865.697 5314.83 864.672 5316.62 863.646 5318.41 863.69 5320.2 862.812 5321.99 861.935 5323.78 860.4 5325.58 859.406 5327.37 858.412 5329.16 857.784 5330.95 856.849 5332.74 855.913 5334.53 855.145 5336.32 853.791 5338.11 852.436 5339.9 850.081 5341.69 848.723 5343.48 847.365 5345.27 846.632 5347.06 845.642 5348.86 844.653 5350.65 843.883 5352.44 842.786 5354.23 841.689 5356.02 840.227 5357.81 839.062 5359.6 837.896 5361.39 836.954 5363.18 835.792 5364.97 834.629 5366.76 833.283 5368.55 832.089 5370.35 830.893 5372.14 829.736 5373.93 828.622 5375.72 827.508 5377.51 826.41 5379.3 825.406 5381.09 824.403 5382.88 823.663 5384.67 822.598 5386.46 821.534 5388.25 820.27 5390.04 819.021 5391.84 817.772 5393.63 816.266 5395.42 815.106 5397.21 813.946 5399 813.115 5400.79 812.062 5402.58 811.009 5404.37 810.072 5406.16 808.79 5407.95 807.508 5409.74 805.628 5411.53 804.37 5413.33 803.111 5415.12 802.274 5416.91 801.238 5418.7 800.201 5420.49 799.38 5422.28 798.148 5424.07 796.915 5425.86 795.064 5427.65 793.843 5429.44 792.622 5431.23 792.011 5433.02 790.823 5434.82 789.635 5436.61 787.983 5438.4 786.716 5440.19 785.45 5441.98 784.389 5443.77 783.224 5445.56 782.058 5447.35 780.916 5449.14 779.721 5450.93 778.526 5452.72 777.291 5454.52 776.053 5456.31 774.815 5458.1 773.585 5459.89 772.294 5461.68 771.003 5463.47 769.586 5465.26 768.306 5467.05 767.025 5468.84 765.804 5470.63 764.612 5472.42 763.42 5474.21 762.412 5476 761.154 5477.8 759.895 5479.59 758.352 5481.38 757.061 5483.17 755.77 5484.96 754.693 5486.75 753.406 5488.54 752.12 5490.33 750.672 5492.12 749.34 5493.91 748.008 5495.7 746.721 5497.5 745.416 5499.29 744.111 5501.08 742.804 5502.87 741.509 5504.66 740.215 5506.45 739.027 5508.24 737.652 5510.03 736.276 5511.82 734.6 5513.61 733.256 5515.4 731.913 5517.19 730.865 5518.99 729.588 5520.78 728.31 5522.57 726.946 5524.36 725.591 5526.15 724.236 5527.94 722.817 5529.73 721.461 5531.52 720.104 5533.31 718.84 5535.1 717.453 5536.89 716.066 5538.68 714.545 5540.47 713.138 5542.27 711.73 5544.06 710.406 5545.85 709.006 5547.64 707.605 5549.43 706.146 5551.22 704.736 5553.01 703.324 5554.8 701.907 5556.59 700.539 5558.38 699.172 5560.17 697.927 5561.96 696.529 5563.76 695.13 5565.55 693.636 5567.34 692.147 5569.13 690.658 5570.92 689.078 5572.71 687.593 5574.5 686.107 5576.29 684.673 5578.08 683.236 5579.87 681.799 5581.66 680.41 5583.46 678.972 5585.25 677.533 5587.04 676.067 5588.83 674.605 5590.62 673.143 5592.41 671.706 5594.2 670.201 5595.99 668.695 5597.78 667.105 5599.57 665.573 5601.36 664.04 5603.15 662.498 5604.94 661.005 5606.74 659.512 5608.53 658.137 5610.32 656.614 5612.11 655.09 5613.9 653.414 5615.69 651.864 5617.48 650.313 5619.27 648.87 5621.06 647.31 5622.85 645.749 5624.64 644.085 5626.44 642.501 5628.23 640.918 5630.02 639.376 5631.81 637.809 5633.6 636.241 5635.39 634.671 5637.18 633.096 5638.97 631.521 5640.76 629.986 5642.55 628.361 5644.34 626.735 5646.13 624.96 5647.92 623.343 5649.72 621.726 5651.51 620.25 5653.3 618.658 5655.09 617.065 5656.88 615.448 5658.67 613.789 5660.46 612.129 5662.25 610.386 5664.04 608.7 5665.83 607.013 5667.62 605.326 5669.42 603.672 5671.21 602.018 5673 600.446 5674.79 598.776 5676.58 597.105 5678.37 595.346 5680.16 593.646 5681.95 591.946 5683.74 590.275 5685.53 588.576 5687.32 586.877 5689.11 585.178 5690.91 583.454 5692.7 581.73 5694.49 579.944 5696.28 578.232 5698.07 576.519 5699.86 574.912 5701.65 573.177 5703.44 571.442 5705.23 569.596 5707.02 567.819 5708.81 566.043 5710.6 564.278 5712.39 562.52 5714.19 560.761 5715.98 559.041 5717.77 557.267 5719.56 555.493 5721.35 553.674 5723.14 551.876 5724.93 550.078 5726.72 548.292 5728.51 546.479 5730.3 544.665 5732.09 542.812 5733.88 540.996 5735.68 539.18 5737.47 537.401 5739.26 535.582 5741.05 533.763 5742.84 531.92 5744.63 530.084 5746.42 528.247 5748.21 526.417 5750 524.565 5751.79 522.713 5753.58 520.841 5755.38 518.972 5757.17 517.104 5758.96 515.222 5760.75 513.355 5762.54 511.487 5764.33 509.637 5766.12 507.768 5767.91 505.899 5769.7 504.016 5771.49 502.141 5773.28 500.266 5775.07 498.4 5776.86 496.519 5778.66 494.638 5780.45 492.735 5782.24 490.853 5784.03 488.97 5785.82 487.144 5787.61 485.222 5789.4 483.3 5791.19 481.243 5792.98 479.32 5794.77 477.397 5796.56 475.539 5798.35 473.684 5800.15 471.828 5801.94 470.05 5803.73 468.186 5805.52 466.322 5807.31 464.385 5809.1 462.502 5810.89 460.619 5812.68 458.758 5814.47 456.889 5816.26 455.02 5818.05 453.159 5819.85 451.287 5821.64 449.415 5823.43 447.535 5825.22 445.66 5827.01 443.784 5828.8 441.893 5830.59 440.031 5832.38 438.169 5834.17 436.306 5835.96 434.487 5837.75 432.667 5839.54 430.91 5841.33 429.114 5843.13 427.317 5844.92 425.492 5846.71 423.708 5848.5 421.924 5850.29 420.173 5852.08 418.41 5853.87 416.646 5855.66 414.842 5857.45 413.128 5859.24 411.413 5861.03 409.814 5862.82 408.123 5864.62 406.432 5866.41 404.645 5868.2 402.979 5869.99 401.313 5871.78 399.735 5873.57 398.128 5875.36 396.52 5877.15 394.92 5878.94 393.333 5880.73 391.747 5882.52 390.149 5884.31 388.609 5886.11 387.067 5887.9 385.573 5889.69 384.088 5891.48 382.603 5893.27 381.131 5895.06 379.699 5896.85 378.267 5898.64 376.865 5900.43 375.496 5902.22 374.128 5904.01 372.809 5905.8 371.488 5907.6 370.166 5909.39 368.844 5911.18 367.568 5912.97 366.292 5914.76 365.041 5916.55 363.831 5918.34 362.621 5920.13 361.449 5921.92 360.307 5923.71 359.164 5925.5 358.06 5927.29 356.977 5929.09 355.894 5930.88 354.827 5932.67 353.81 5934.46 352.792 5936.25 351.826 5938.04 350.872 5939.83 349.919 5941.62 348.984 5943.41 348.088 5945.2 347.191 5946.99 346.324 5948.79 345.496 5950.58 344.668 5952.37 343.888 5954.16 343.119 5955.95 342.35 5957.74 341.595 5959.53 340.884 5961.32 340.173 5963.11 339.488 5964.9 338.852 5966.69 338.216 5968.48 337.649 5970.27 337.07 5972.07 336.491 5973.86 335.904 5975.65 335.378 5977.44 334.851 5979.23 334.366 5981.02 333.911 5982.81 333.456 5984.6 333.049 5986.39 332.65 5988.18 332.251 5989.97 331.863 5991.77 331.517 5993.56 331.171 5995.35 330.856 5997.14 330.574 5998.93 330.292 6000.72 330.038 6002.51 329.824 6004.3 329.611 6006.09 329.46 6007.88 329.293 6009.67 329.126 6011.46 328.942 6013.25 328.824 6015.05 328.704 6016.84 328.5 6018.63 328.58 6020.42 328.66 6022.21 329.173 6024 329.304 6025.79 329.436 6027.58 329.302 6029.37 329.369 6031.16 329.436 6032.95 329.585 6034.74 329.707 6036.54 329.828 6038.33 329.935 6040.12 330.097 6041.91 330.258 6043.7 330.448 6045.49 330.676 6047.28 330.903 6049.07 331.176 6050.86 331.463 6052.65 331.749 6054.44 332.061 6056.23 332.395 6058.03 332.728 6059.82 333.081 6061.61 333.464 6063.4 333.848 6065.19 334.256 6066.98 334.696 6068.77 335.135 6070.56 335.598 6072.35 336.103 6074.14 336.608 6075.93 337.172 6077.72 337.727 6079.52 338.281 6081.31 338.821 6083.1 339.43 6084.89 340.039 6086.68 340.707 6088.47 341.379 6090.26 342.051 6092.05 342.74 6093.84 343.461 6095.63 344.181 6097.42 344.92 6099.21 345.702 6101.01 346.484 6102.8 347.318 6104.59 348.152 6106.38 348.985 6108.17 349.826 6109.96 350.702 6111.75 351.578 6113.54 352.461 6115.33 353.406 6117.12 354.351 6118.91 355.373 6120.71 356.372 6122.5 357.37 6124.29 358.362 6126.08 359.399 6127.87 360.435 6129.66 361.499 6131.45 362.592 6133.24 363.685 6135.03 364.809 6136.82 365.955 6138.61 367.102 6140.4 368.273 6142.19 369.469 6143.99 370.666 6145.78 371.898 6147.57 373.135 6149.36 374.371 6151.15 375.607 6152.94 376.889 6154.73 378.17 6156.52 379.493 6158.31 380.824 6160.1 382.155 6161.89 383.493 6163.69 384.876 6165.48 386.259 6167.27 387.702 6169.06 389.123 6170.85 390.544 6172.64 391.946 6174.43 393.403 6176.22 394.859 6178.01 396.386 6179.8 397.861 6181.59 399.336 6183.38 400.745 6185.17 402.254 6186.97 403.763 6188.76 405.359 6190.55 406.916 6192.34 408.473 6194.13 410.017 6195.92 411.595 6197.71 413.173 6199.5 414.791 6201.29 416.382 6203.08 417.973 6204.87 419.53 6206.67 421.142 6208.46 422.755 6210.25 424.403 6212.04 426.057 6213.83 427.712 6215.62 429.398 6217.41 431.069 6219.2 432.739 6220.99 434.405 6222.78 436.078 6224.57 437.75 6226.36 439.413 6228.15 441.103 6229.95 442.792 6231.74 444.518 6233.53 446.214 6235.32 447.908 6237.11 449.571 6238.9 451.272 6240.69 452.973 6242.48 454.708 6244.27 456.422 6246.06 458.134 6247.85 459.829 6249.64 461.55 6251.44 463.271 6253.23 465.005 6255.02 466.747 6256.81 468.489 6258.6 470.252 6260.39 472.003 6262.18 473.754 6263.97 475.487 6265.76 477.252 6267.55 479.018 6269.34 480.861 6271.13 482.596 6272.93 484.33 6274.72 485.927 6276.51 487.659 6278.3 489.39 6280.09 491.247 6281.88 492.985 6283.67 494.723 6285.46 496.347 6287.25 498.087 6289.04 499.826 6290.83 501.671 6292.62 503.422 6294.42 505.173 6296.21 506.86 6298 508.59 6299.79 510.319 6301.58 512.088 6303.37 513.799 6305.16 515.509 6306.95 517.146 6308.74 518.853 6310.53 520.56 6312.32 522.307 6314.12 524.041 6315.91 525.775 6317.7 527.541 6319.49 529.26 6321.28 530.979 6323.07 532.67 6324.86 534.355 6326.65 536.039 6328.44 537.665 6330.23 539.365 6332.02 541.065 6333.81 542.84 6335.6 544.556 6337.4 546.272 6339.19 547.968 6340.98 549.663 6342.77 551.358 6344.56 553.087 6346.35 554.729 6348.14 556.37 6349.93 557.875 6351.72 559.51 6353.51 561.146 6355.3 562.914 6357.09 564.541 6358.89 566.168 6360.68 567.631 6362.47 569.27 6364.26 570.909 6366.05 572.712 6367.84 574.375 6369.63 576.038 6371.42 577.626 6373.21 579.248 6375 580.87 6376.79 582.492 6378.58 584.105 6380.38 585.718 6382.17 587.289 6383.96 588.925 6385.75 590.561 6387.54 592.324 6389.33 593.922 6391.12 595.521 6392.91 597.014 6394.7 598.516 6396.49 600.017 6398.28 601.361 6400.07 602.931 6401.87 604.501 6403.66 606.377 6405.45 607.935 6407.24 609.492 6409.03 610.772 6410.82 612.277 6412.61 613.783 6414.4 615.376 6416.19 616.969 6417.98 618.561 6419.77 620.235 6421.56 621.833 6423.36 623.43 6425.15 625.054 6426.94 626.554 6428.73 628.053 6430.52 629.334 6432.31 630.829 6434.1 632.325 6435.89 634.006 6437.68 635.527 6439.47 637.047 6441.26 638.45 6443.05 639.953 6444.85 641.455 6446.64 643.145 6448.43 644.541 6450.22 645.936 6452.01 646.978 6453.8 648.327 6455.59 649.676 6457.38 651.126 6459.17 652.636 6460.96 654.147 6462.75 655.832 6464.54 657.39 6466.34 658.948 6468.13 660.486 6469.92 661.982 6471.71 663.478 6473.5 664.915 6475.29 666.364 6477.08 667.813 6478.87 669.247 6480.66 670.675 6482.45 672.102 6484.24 673.543 6486.04 674.93 6487.83 676.317 6489.62 677.594 6491.41 678.994 6493.2 680.394 6494.99 681.932 6496.78 683.329 6498.57 684.725 6500.36 685.996 6502.15 687.375 6503.94 688.753 6505.73 690.2 6507.52 691.6 6509.32 692.999 6511.11 694.418 6512.9 695.771 6514.69 697.123 6516.48 698.391 6518.27 699.717 6520.06 701.042 6521.85 702.382 6523.64 703.725 6525.43 705.067 6527.22 706.451 6529.01 707.77 6530.81 709.089 6532.6 710.293 6534.39 711.638 6536.18 712.982 6537.97 714.502 6539.76 715.839 6541.55 717.174 6543.34 718.357 6545.13 719.654 6546.92 720.95 6548.71 722.273 6550.5 723.618 6552.3 724.962 6554.09 726.435 6555.88 727.724 6557.67 729.012 6559.46 730.087 6561.25 731.352 6563.04 732.617 6564.83 734.017 6566.62 735.313 6568.41 736.61 6570.2 737.857 6571.99 739.131 6573.79 740.406 6575.58 741.703 6577.37 742.959 6579.16 744.216 6580.95 745.401 6582.74 746.672 6584.53 747.943 6586.32 749.355 6588.11 750.588 6589.9 751.82 6591.69 752.806 6593.48 754.066 6595.28 755.326 6597.07 756.901 6598.86 758.149 6600.65 759.397 6602.44 760.338 6604.23 761.554 6606.02 762.769 6607.81 764.177 6609.6 765.443 6611.39 766.708 6613.18 767.893 6614.97 769.146 6616.77 770.398 6618.56 771.755 6620.35 772.958 6622.14 774.16 6623.93 775.217 6625.72 776.362 6627.51 777.506 6629.3 778.632 6631.09 779.825 6632.88 781.018 6634.67 782.295 6636.46 783.52 6638.26 784.745 6640.05 785.957 6641.84 787.176 6643.63 788.395 6645.42 789.734 6647.21 790.834 6649 791.933 6650.79 792.672 6652.58 793.769 6654.37 794.866 6656.16 796.1 6657.96 797.418 6659.75 798.735 6661.54 800.541 6663.33 801.675 6665.12 802.809 6666.91 803.09 6668.7 804.221 6670.49 805.352 6672.28 807.295 6674.07 808.461 6675.86 809.626 6677.65 810.088 6679.45 811.214 6681.24 812.339 6683.03 813.964 6684.82 815.216 6686.61 816.467 6688.4 817.677 6690.19 818.724 6691.98 819.77 6693.77 820.386 6695.56 821.495 6697.35 822.604 6699.14 824.191 6700.93 825.379 6702.73 826.566 6704.52 827.513 6706.31 828.619 6708.1 829.726 6709.89 830.901 6711.68 832.018 6713.47 833.135 6715.26 834.19 6717.05 835.321 6718.84 836.452 6720.63 837.645 6722.42 838.806 6724.22 839.966 6726.01 841.246 6727.8 842.284 6729.59 843.322 6731.38 843.976 6733.17 845.036 6734.96 846.096 6736.75 847.555 6738.54 848.644 6740.33 849.734 6742.12 850.529 6743.91 851.575 6745.71 852.621 6747.5 853.727 6749.29 854.92 6751.08 856.113 6752.87 857.664 6754.66 858.735 6756.45 859.806 6758.24 860.193 6760.03 861.346 6761.82 862.498 6763.61 864.464 6765.4 865.649 6767.2 866.834 6768.99 867.47 6770.78 868.455 6772.57 869.44 6774.36 870.512 6776.15 871.562 6777.94 872.612 6779.73 873.63 6781.52 874.752 6783.31 875.874 6785.1 877.189 6786.89 878.296 6788.69 879.403 6790.48 880.391 6792.27 881.394 6794.06 882.395 6795.85 883.36 6797.64 884.307 6799.43 885.254 6801.22 886.133 6803.01 887.075 6804.8 888.017 6806.59 888.747 6808.38 889.958 6810.18 891.17 6811.97 893.306 6813.76 894.345 6815.55 895.384 6817.34 895.053 6819.13 896.192 6820.92 897.33 6822.71 899.943 6824.5 901.176 6826.29 902.408 6828.08 902.824 6829.88 903.585 6831.67 904.346 6833.46 904.748 6835.25 905.741 6837.04 906.733 6838.83 908.407 6840.62 909.538 6842.41 910.669 6844.2 911.686 6845.99 912.528 6847.78 913.371 6849.57 913.43 6851.36 914.593 6853.16 915.755 6854.95 918.279 6856.74 919.504 6858.53 920.729 6860.32 920.938 6862.11 921.943 6863.9 922.948 6865.69 924.347 6867.48 925.536 6869.27 926.724 6871.06 928.253 6872.85 929.074 6874.65 929.895 6876.44 929.449 6878.23 930.463 6880.02 931.476 6881.81 933.855 6883.6 935.154 6885.39 936.453 6887.18 937.33 6888.97 938.258 6890.76 939.186 6892.55 939.636 6894.34 940.723 6896.14 941.81 6897.93 943.405 6899.72 944.781 6901.51 946.157 6903.3 948.18 6905.09 948.978 6906.88 949.777 6908.67 948.756 6910.46 949.574 6912.25 950.391 6914.04 952.575 6915.83 953.881 6917.63 955.186 6919.42 956.407 6921.21 957.408 6923 958.408 6924.79 958.712 6926.58 959.884 6928.37 961.055 6930.16 963.77 6931.95 964.435 6933.74 965.099 6935.53 962.82 6937.32 963.872 6939.12 964.923 6940.91 969.404 6942.7 970.744 6944.49 972.083 6946.28 971.112 6948.07 971.909 6949.86 972.706 6951.65 973.893 6953.44 975.526 6955.23 977.158 6957.02 980.848 6958.81 981.703 6960.61 982.557 6962.4 979.777 6964.19 980.653 6965.98 981.529 6967.77 985.188 6969.56 986.958 6971.31 988.693 6973.18 988.307 6974.93 991.271 6976.72 994.295 6978.51 1004.75 6980.3 1005.11 6982.1 1005.46 6983.89 995.274 6985.68 993.414 6987.47 991.554 6989.26 994.187 6991.05 993.946 6992.84 993.704 6994.63 991.445 6996.42 991.966 6998.21 992.487 7000 995.907 7001.79 997.072 7003.59 998.237 7005.38 997.723 7007.17 998.954 7008.96 1000.18 7010.75 1003.29 7012.54 1004.46 7014.33 1005.62 7016.12 1004.75 7017.91 1005.95 7019.7 1007.14 7021.49 1010.28 7023.28 1011.61 7025.08 1012.94 7026.87 1013.44 7028.66 1013.93 7030.45 1014.41 7032.24 1013.79 7034.03 1014.51 7035.82 1015.23 7037.61 1016.81 7039.4 1018.27 7041.19 1019.72 7042.98 1021.38 7044.77 1023.22 7046.57 1025.07 7048.36 1028.29 7050.15 1029.33 7051.94 1030.36 7053.73 1029.06 7055.52 1029.42 7057.31 1029.78 7059.1 1030.97 7060.89 1031.49 7062.68 1032.01 7064.47 1031.72 7066.26 1032.53 7068.06 1033.33 7069.85 1035.02 7071.64 1036.32 7073.43 1037.62 7075.22 1038.51 7077.01 1040.32 7078.8 1042.13 7080.59 1044.05 7082.38 1047.16 7084.17 1050.28 7085.96 1055.21 7087.75 1059.01 7088.84 1061.3 7092.04 1063.95 7093.13 1069.95 7094.92 1079.86 7096.71 1102.32 7098.5 1118.5" stroke="#ED7D31" stroke-width="6.875" stroke-linecap="round" stroke-linejoin="round" stroke-miterlimit="10" fill="none"/></g><g clip-path="url(#clip9)"><path d="M4949.5 1148.14C4951.21 1148.1 4953.17 1150.07 4954.87 1148 4956.66 1145.82 4958.45 1136.02 4960.25 1135.07 4962.04 1134.11 4963.83 1140.77 4965.62 1142.27 4967.41 1143.76 4969.2 1145.98 4970.99 1144.05 4972.78 1142.13 4974.57 1131.25 4976.36 1130.72 4977.59 1130.35 4980.51 1135.26 4981.73 1140.86 4983.53 1149.04 4985.32 1177.1 4987.11 1179.8 4988.9 1182.5 4990.69 1163.74 4992.48 1157.05 4994.27 1150.36 4996.06 1139.68 4997.85 1139.67 4999.64 1139.67 5001.43 1156.58 5003.23 1157.03 5005.02 1157.47 5006.81 1144.93 5008.6 1142.35 5010.15 1140.11 5012.42 1141.68 5013.97 1141.52 5015.68 1141.35 5017.64 1139.19 5019.34 1141.27 5021.13 1143.45 5022.92 1155.33 5024.72 1154.61 5026.51 1153.89 5028.3 1138.09 5030.09 1136.96 5031.88 1135.84 5033.67 1144.17 5035.46 1147.88 5037.25 1151.58 5039.04 1161.65 5040.83 1159.2 5042.62 1156.75 5044.41 1135.41 5046.21 1133.19 5048 1130.96 5049.79 1144.21 5051.58 1145.84 5053.37 1147.47 5055.16 1142.75 5056.95 1142.97 5058.74 1143.2 5060.53 1146.97 5062.32 1147.2 5064.11 1147.43 5065.9 1143.9 5067.69 1144.34 5069.49 1144.77 5071.28 1146.82 5073.07 1149.8 5074.86 1152.78 5076.65 1163.05 5078.44 1162.22 5080.23 1161.39 5082.02 1145.94 5083.81 1144.8 5085.6 1143.67 5087.39 1156.03 5089.19 1155.39 5090.98 1154.74 5092.77 1142.53 5094.56 1140.93 5096.35 1139.33 5098.14 1143.24 5099.93 1145.78 5101.72 1148.31 5103.51 1157.41 5105.3 1156.15 5107.09 1154.89 5108.88 1140.8 5110.67 1138.22 5112.36 1135.8 5114.36 1138.37 5116.05 1140.69 5117.84 1143.16 5119.63 1152.22 5121.42 1153.02 5123.21 1153.81 5125 1149.15 5126.79 1145.46 5128.58 1141.76 5130.37 1129.81 5132.17 1130.83 5133.96 1131.84 5135.75 1147.63 5137.54 1151.55 5138.79 1154.29 5141.65 1154.52 5142.91 1154.32 5144.49 1154.07 5146.7 1152.95 5148.28 1149.83 5150.07 1146.28 5151.86 1132.86 5153.66 1133.07 5155.45 1133.27 5157.24 1147.05 5159.03 1151.07 5160.68 1154.78 5162.74 1158.99 5164.4 1157.17 5166.19 1155.19 5167.98 1142.69 5169.77 1139.21 5171.17 1136.48 5173.75 1136.65 5175.15 1136.26 5176.94 1135.77 5178.73 1135.35 5180.52 1136.22 5182.31 1137.09 5184.1 1139.95 5185.89 1141.48 5187.68 1143.01 5189.47 1144.56 5191.26 1145.38 5193.05 1146.19 5194.84 1147.02 5196.64 1146.36 5198.43 1145.7 5200.22 1139.62 5202.01 1141.42 5203.8 1143.23 5205.59 1157.32 5207.38 1157.2 5209.17 1157.08 5210.96 1144.1 5212.75 1140.69 5214.3 1137.75 5216.58 1136.25 5218.12 1136.75 5219.92 1137.33 5221.71 1142.2 5223.5 1144.16 5225.29 1146.13 5227.08 1150.11 5228.87 1148.54 5230.66 1146.97 5232.45 1135.12 5234.24 1134.73 5236.03 1134.34 5237.82 1145.31 5239.61 1146.22 5241.41 1147.13 5243.2 1139.91 5244.99 1140.19 5246.78 1140.46 5248.57 1146.74 5250.36 1147.84 5252.15 1148.94 5253.94 1147.97 5255.73 1146.8 5257.52 1145.64 5259.31 1141.54 5261.1 1140.86 5262.9 1140.19 5264.69 1142.08 5266.48 1142.76 5267.61 1143.2 5270.71 1142.3 5271.85 1144.97 5273.64 1149.19 5275.43 1167.99 5277.22 1168.08 5279.01 1168.18 5280.8 1148.03 5282.59 1145.54 5284.39 1143.05 5286.18 1152.31 5287.97 1153.17 5289.32 1153.82 5291.98 1153.32 5293.34 1150.69 5295.13 1147.22 5296.92 1135.27 5298.71 1132.37 5300.14 1130.05 5302.65 1131.61 5304.08 1133.29 5305.88 1135.39 5307.67 1142.89 5309.46 1144.96 5311.23 1147.02 5313.06 1145.05 5314.83 1145.73 5316.62 1146.43 5318.41 1149.6 5320.2 1149.11 5321.99 1148.61 5323.78 1143.18 5325.58 1142.76 5326.85 1142.47 5329.67 1143.56 5330.95 1146.61 5332.74 1150.89 5334.53 1168.08 5336.32 1168.45 5338.11 1168.82 5339.9 1154.02 5341.69 1148.85 5343.48 1143.67 5345.27 1138.11 5347.06 1137.41 5348.86 1136.71 5350.65 1142.13 5352.44 1144.65 5354.23 1147.16 5356.02 1152.6 5357.81 1152.51 5359.6 1152.42 5361.39 1143.87 5363.18 1144.11 5364.97 1144.34 5366.76 1156.05 5368.55 1153.95 5370.35 1151.84 5372.14 1132.24 5373.93 1131.49 5375.72 1130.75 5377.51 1147.89 5379.3 1149.48 5381.01 1151.01 5382.96 1145.76 5384.67 1141.07 5386.46 1136.17 5388.25 1118.35 5390.04 1120.07 5391.84 1121.79 5393.63 1147.57 5395.42 1151.38 5397.21 1155.18 5399 1145.16 5400.79 1142.92 5402.58 1140.68 5404.37 1138.22 5406.16 1137.92 5407.95 1137.63 5409.75 1138.57 5411.53 1141.14 5413.33 1143.72 5415.12 1153.9 5416.91 1153.4 5418.7 1152.89 5420.49 1140.87 5422.28 1138.13 5423.78 1135.83 5426.15 1137.99 5427.65 1136.96 5429.44 1135.73 5431.23 1131.31 5433.02 1130.75 5434.82 1130.2 5436.61 1135 5438.4 1133.64 5440.19 1132.27 5441.98 1122.25 5443.77 1122.56 5445.56 1122.87 5447.35 1133.42 5449.14 1135.49 5450.91 1137.52 5452.74 1136.05 5454.52 1134.93 5456.31 1133.8 5458.1 1130.34 5459.89 1128.69 5461.68 1127.04 5463.47 1126.4 5465.26 1125.04 5467.05 1123.68 5468.84 1121.1 5470.63 1120.52 5472.42 1119.93 5474.21 1122.21 5476 1121.53 5477.8 1120.86 5479.59 1116.46 5481.38 1116.47 5483.17 1116.49 5484.96 1122.27 5486.75 1121.63 5488.54 1121 5490.33 1112.57 5492.12 1112.68 5493.91 1112.8 5495.7 1119.85 5497.5 1122.32 5499.29 1124.79 5501.08 1127.05 5502.87 1127.51 5504.66 1127.97 5506.45 1124.73 5508.24 1125.08 5510.03 1125.42 5511.82 1130.1 5513.61 1129.59 5515.4 1129.08 5517.19 1123.53 5518.99 1122 5520.7 1120.54 5522.64 1122.65 5524.36 1120.44 5526.15 1118.13 5527.94 1110.39 5529.73 1108.15 5531.45 1106.01 5533.39 1107.61 5535.1 1107.03 5536.89 1106.44 5538.68 1106.03 5540.47 1104.58 5542.27 1103.12 5544.06 1099.35 5545.85 1098.32 5547.64 1097.28 5549.43 1099.24 5551.22 1098.38 5553.01 1097.53 5554.8 1093.76 5556.59 1093.17 5558.38 1092.58 5560.17 1095.72 5561.96 1094.85 5563.76 1093.99 5565.55 1090.09 5567.34 1087.99 5569.13 1085.89 5570.92 1083.15 5572.71 1082.26 5574.5 1081.38 5576.29 1083.42 5578.08 1082.67 5579.87 1081.91 5581.66 1078.39 5583.46 1077.75 5585.25 1077.1 5587.04 1079.65 5588.83 1078.79 5590.62 1077.94 5592.41 1073.98 5594.2 1072.61 5595.99 1071.24 5597.78 1072.09 5599.57 1070.58 5601.36 1069.08 5603.15 1064.32 5604.94 1063.59 5606.74 1062.86 5608.53 1067.63 5610.32 1066.2 5612.11 1064.77 5613.9 1056.37 5615.69 1055 5617.48 1053.63 5619.27 1059.45 5621.06 1057.98 5622.85 1056.51 5624.64 1048.08 5626.44 1046.18 5628.23 1044.27 5630.02 1047.67 5631.81 1046.56 5633.6 1045.46 5635.39 1041.38 5637.18 1039.55 5638.84 1037.85 5640.89 1038.47 5642.55 1035.57 5644.34 1032.44 5646.13 1022.86 5647.92 1020.81 5649.72 1018.76 5651.51 1023.29 5653.3 1023.28 5655.09 1023.26 5656.88 1022.37 5658.67 1020.72 5660.46 1019.06 5662.25 1015.2 5664.04 1013.33 5665.83 1011.45 5667.62 1011.2 5669.42 1009.48 5671.21 1007.75 5673 1005.76 5674.79 1002.98 5676.58 1000.2 5678.37 995.266 5680.16 992.783 5681.95 990.299 5683.74 989.35 5685.53 988.079 5687.32 986.806 5689.11 986.618 5690.91 985.15 5692.7 983.682 5694.49 981.875 5696.28 979.271 5698.07 976.667 5699.86 971.989 5701.65 969.526 5703.44 967.062 5705.23 966.419 5707.02 964.488 5708.81 962.557 5710.6 960.387 5712.39 957.94 5714.19 955.494 5715.98 951.858 5717.77 949.808 5719.56 947.758 5721.35 947.963 5723.14 945.64 5724.93 943.316 5726.72 938.455 5728.51 935.868 5730.3 933.281 5732.09 932.18 5733.88 930.119 5735.68 928.057 5737.47 926.123 5739.26 923.5 5741.05 920.876 5742.84 917.232 5744.63 914.38 5746.42 911.527 5748.21 908.891 5750 906.383 5751.79 903.873 5753.58 901.736 5755.38 899.327 5757.17 896.918 5758.96 894.555 5760.75 891.93 5762.54 889.305 5764.33 886.507 5766.12 883.577 5767.91 880.647 5769.7 877.204 5771.49 874.35 5773.28 871.496 5775.07 868.934 5776.86 866.455 5778.66 863.975 5780.45 862.448 5782.24 859.473 5784.03 856.497 5785.82 851.814 5787.61 848.603 5789.4 845.393 5791.19 842.935 5792.98 840.209 5794.77 837.484 5796.56 835.008 5798.35 832.248 5800.15 829.488 5801.94 826.753 5803.73 823.652 5805.52 820.55 5807.31 816.915 5809.1 813.637 5810.89 810.359 5812.68 807.297 5814.47 803.983 5816.26 800.669 5818.05 797.067 5819.85 793.754 5821.64 790.44 5823.43 787.469 5825.22 784.105 5827.01 780.739 5828.8 777.004 5830.59 773.563 5832.38 770.121 5834.17 766.996 5835.96 763.456 5837.75 759.917 5839.54 756.007 5841.33 752.327 5843.13 748.647 5844.92 745.077 5846.71 741.377 5848.5 737.676 5850.29 733.83 5852.08 730.124 5853.87 726.419 5855.66 722.977 5857.45 719.145 5859.24 715.312 5861.03 711.123 5862.82 707.129 5864.62 703.135 5866.41 699.272 5868.2 695.18 5869.99 691.089 5871.78 686.746 5873.57 682.58 5875.36 678.413 5877.15 674.398 5878.94 670.181 5880.73 665.964 5882.52 661.603 5884.31 657.28 5886.11 652.956 5887.9 648.75 5889.69 644.24 5891.48 639.731 5893.27 634.832 5895.06 630.223 5896.85 625.614 5898.64 621.248 5900.43 616.588 5902.22 611.928 5904.01 607.037 5905.8 602.262 5907.6 597.488 5909.39 592.806 5911.18 587.94 5912.97 583.075 5914.76 578.088 5916.55 573.07 5918.34 568.052 5920.13 562.931 5921.92 557.829 5923.71 552.728 5925.5 547.627 5927.29 542.463 5929.09 537.298 5930.88 532.161 5932.67 526.842 5934.46 521.522 5936.25 515.932 5938.04 510.545 5939.83 505.158 5941.62 499.932 5943.41 494.522 5945.2 489.111 5946.99 483.521 5948.79 478.084 5950.58 472.647 5952.37 467.291 5954.16 461.901 5955.95 456.511 5957.74 451.119 5959.53 445.744 5961.32 440.37 5963.11 434.901 5964.9 429.654 5966.69 424.406 5968.48 419.315 5970.27 414.262 5972.07 409.209 5973.86 404.143 5975.65 399.337 5977.44 394.53 5979.23 389.799 5981.02 385.425 5982.81 381.051 5984.6 376.79 5986.39 373.091 5988.18 369.392 5989.97 366.544 5991.77 363.232 5993.56 359.92 5995.35 355.686 5997.14 353.222 5998.93 350.757 6000.72 350.463 6002.51 348.445 6004.3 346.426 6006.09 343.256 6007.88 341.109 6009.67 338.963 6011.46 337.057 6013.25 335.564 6015.05 334.071 6016.84 332.803 6018.63 332.153 6020.42 331.503 6022.21 331.5 6024 331.665 6025.79 331.83 6027.58 332.24 6029.37 333.144 6031.16 334.047 6032.95 335.384 6034.74 337.085 6036.54 338.785 6038.33 340.897 6040.12 343.348 6041.91 345.798 6043.7 348.629 6045.49 351.788 6047.28 354.945 6049.07 358.825 6050.86 362.296 6052.65 365.766 6054.44 368.904 6056.23 372.608 6058.03 376.312 6059.82 380.298 6061.61 384.521 6063.4 388.744 6065.19 393.301 6066.98 397.948 6068.77 402.596 6070.56 407.498 6072.35 412.405 6074.14 417.313 6075.93 422.306 6077.72 427.395 6079.52 432.482 6081.31 437.729 6083.1 442.933 6084.89 448.137 6086.68 453.358 6088.47 458.619 6090.26 463.879 6092.05 469.219 6093.84 474.497 6095.63 479.774 6097.42 485.047 6099.21 490.283 6101.01 495.519 6102.8 500.689 6104.59 505.91 6106.38 511.132 6108.17 516.362 6109.96 521.612 6111.75 526.862 6113.54 532.276 6115.33 537.411 6117.12 542.546 6118.91 547.483 6120.71 552.424 6122.5 557.365 6124.29 562.191 6126.08 567.059 6127.87 571.927 6129.66 576.776 6131.45 581.634 6133.24 586.492 6135.03 591.358 6136.82 596.206 6138.61 601.054 6140.4 606.067 6142.19 610.721 6143.99 615.375 6145.78 619.648 6147.57 624.13 6149.36 628.612 6151.15 633.228 6152.94 637.615 6154.73 642.001 6156.52 646.019 6158.31 650.449 6160.1 654.879 6161.89 659.85 6163.69 664.194 6165.48 668.538 6167.27 672.384 6169.06 676.512 6170.85 680.64 6172.64 684.908 6174.43 688.963 6176.22 693.017 6178.01 696.94 6179.8 700.839 6181.59 704.738 6183.38 708.528 6185.17 712.358 6186.97 716.188 6188.76 719.961 6190.55 723.818 6192.34 727.676 6194.13 731.818 6195.92 735.502 6197.71 739.187 6199.5 742.303 6201.29 745.924 6203.08 749.546 6204.87 753.626 6206.67 757.231 6208.46 760.836 6210.25 764.168 6212.04 767.554 6213.83 770.94 6215.62 774.056 6217.41 777.545 6219.2 781.034 6220.99 785.022 6222.78 788.49 6224.57 791.958 6226.36 795.166 6228.15 798.353 6229.95 801.539 6231.74 804.406 6233.53 807.608 6235.32 810.81 6237.11 814.243 6238.9 817.563 6240.69 820.884 6242.48 824.479 6244.27 827.531 6246.06 830.582 6247.85 832.828 6249.64 835.87 6251.44 838.912 6253.23 842.682 6255.02 845.785 6256.81 848.887 6258.6 851.675 6260.39 854.487 6262.18 857.299 6263.97 859.754 6265.76 862.659 6267.55 865.563 6269.34 869.137 6271.13 871.913 6272.93 874.69 6274.72 876.513 6276.51 879.318 6278.3 882.122 6280.09 885.773 6281.88 888.741 6283.67 891.709 6285.46 894.252 6287.25 897.125 6289.04 899.997 6290.83 903.386 6292.62 905.977 6294.42 908.568 6296.21 910.497 6298 912.67 6299.79 914.842 6301.58 916.463 6303.37 919.011 6305.16 921.559 6306.95 925.17 6308.74 927.958 6310.53 930.745 6312.32 933.082 6314.12 935.733 6315.91 938.384 6317.7 941.396 6319.49 943.863 6321.28 946.331 6323.07 948.497 6324.86 950.541 6326.65 952.584 6328.44 954.036 6330.23 956.123 6332.02 958.21 6333.81 959.944 6335.6 963.066 6337.4 966.187 6339.19 972.305 6340.98 974.852 6342.77 977.399 6344.56 976.24 6346.35 978.349 6348.14 980.458 6349.93 985.61 6351.72 987.506 6353.51 989.402 6355.3 987.521 6357.09 989.727 6358.89 991.934 6360.68 997.948 6362.47 1000.75 6364.26 1003.54 6366.05 1004.48 6367.84 1006.51 6369.63 1008.54 6371.42 1010.71 6373.21 1012.93 6375 1015.16 6376.79 1017.87 6378.58 1019.87 6380.38 1021.88 6382.17 1022.7 6383.96 1024.97 6385.75 1027.25 6387.54 1031.83 6389.33 1033.51 6391.12 1035.19 6392.91 1033.46 6394.7 1035.05 6396.49 1036.64 6398.28 1040 6400.07 1043.07 6401.87 1046.14 6403.66 1051.91 6405.45 1053.49 6407.08 1054.94 6409.18 1050.39 6410.82 1052.57 6412.61 1054.96 6414.4 1065.38 6416.19 1067.82 6417.79 1070 6419.96 1065.35 6421.56 1067.18 6423.36 1069.22 6425.15 1078.62 6426.94 1080.07 6428.73 1081.52 6430.52 1075.31 6432.31 1075.86 6434.1 1076.42 6435.89 1079.92 6437.68 1083.4 6439.47 1086.89 6441.26 1093.79 6443.05 1096.79 6444.85 1099.78 6446.64 1101.5 6448.43 1101.39 6450.22 1101.28 6452.01 1097.35 6453.8 1096.12 6455.59 1094.9 6457.38 1092.27 6459.17 1094.01 6460.96 1095.75 6462.75 1102.98 6464.54 1106.56 6466.34 1110.13 6468.13 1113.21 6469.92 1115.45 6471.71 1117.69 6473.5 1119.77 6475.29 1120.02 6477.08 1120.26 6478.87 1116.55 6480.66 1116.91 6482.45 1117.27 6484.24 1120.17 6486.04 1122.18 6487.83 1124.19 6489.62 1127.8 6491.41 1128.99 6493.2 1130.17 6494.99 1129.33 6496.78 1129.29 6498.57 1129.25 6500.36 1127.78 6502.15 1128.75 6503.94 1129.71 6505.73 1134.08 6507.52 1135.1 6508.93 1135.9 6511.49 1132.56 6512.9 1134.86 6514.69 1137.78 6516.48 1151.45 6518.27 1152.63 6520.06 1153.81 6521.85 1142.85 6523.64 1141.94 6525.43 1141.03 6527.22 1147.11 6529.01 1147.16 6530.81 1147.21 6532.6 1143.1 6534.39 1142.23 6536.18 1141.36 6537.97 1142.29 6539.76 1141.93 6541.55 1141.56 6543.34 1138.85 6545.13 1140.05 6546.92 1141.24 6548.71 1148.27 6550.5 1149.1 6552.3 1149.93 6554.09 1143.85 6555.88 1145.01 6557.67 1146.16 6559.46 1155.06 6561.25 1156.02 6563.04 1156.99 6564.83 1151.19 6566.62 1150.8 6568.41 1150.41 6570.2 1152.59 6571.99 1153.69 6573.79 1154.8 6575.58 1157.29 6577.37 1157.43 6579.16 1157.58 6580.95 1152.66 6582.74 1154.54 6584.53 1156.41 6586.32 1168.05 6588.11 1168.69 6589.9 1169.34 6591.69 1161.7 6593.48 1158.41 6595.28 1155.12 6597.07 1147.19 6598.86 1148.95 6600.65 1150.7 6602.44 1167.66 6604.23 1168.96 6606.02 1170.26 6607.81 1159.43 6609.6 1156.76 6611.39 1154.09 6613.18 1152.96 6614.97 1152.92 6616.44 1152.88 6618.88 1153.61 6620.35 1156.49 6622.14 1160.01 6623.93 1174.15 6625.72 1174.03 6627.51 1173.91 6629.3 1155.63 6631.09 1155.77 6632.88 1155.91 6634.67 1172.72 6636.46 1174.89 6638.14 1176.9 6640.17 1172.47 6641.84 1168.75 6643.63 1164.76 6645.42 1152.93 6647.21 1150.96 6649 1148.99 6650.79 1155.7 6652.58 1156.93 6654.37 1158.16 6656.16 1159.35 6657.96 1158.35 6659.75 1157.35 6661.54 1151.98 6663.33 1150.95 6665.12 1149.92 6666.91 1150.89 6668.7 1152.17 6670.49 1153.45 6672.28 1157.42 6674.07 1158.64 6675.86 1159.85 6677.65 1161.42 6679.45 1159.47 6681.24 1157.52 6683.03 1147.58 6684.82 1146.93 6686.61 1146.29 6688.4 1153.76 6690.19 1155.62 6691.98 1157.47 6693.77 1158.91 6695.56 1158.06 6697.35 1157.21 6699.14 1151.49 6700.93 1150.54 6702.73 1149.58 6704.52 1151.5 6706.31 1152.33 6708.1 1153.17 6709.89 1154.53 6711.68 1155.56 6713.47 1156.59 6715.26 1160.41 6717.05 1158.49 6718.84 1156.58 6720.63 1144.83 6722.42 1144.05 6724.22 1143.26 6726.01 1150.1 6727.8 1153.8 6729.59 1157.51 6731.38 1165.92 6733.17 1166.25 6734.96 1166.59 6736.75 1156.18 6738.54 1155.81 6740.33 1155.44 6742.12 1163.32 6743.91 1164.06 6745.71 1164.79 6747.5 1162.09 6749.29 1160.24 6751.08 1158.38 6752.87 1154.88 6754.66 1152.92 6756.45 1150.96 6758.24 1146.09 6760.03 1148.49 6761.82 1150.89 6763.61 1167.63 6765.4 1167.33 6767.2 1167.02 6768.99 1148.75 6770.78 1146.67 6772.57 1144.6 6774.36 1153.28 6776.15 1154.89 6777.94 1156.5 6779.73 1156.57 6781.52 1156.34 6783.31 1156.1 6785.1 1152.34 6786.89 1153.49 6788.69 1154.63 6790.48 1165.34 6792.27 1163.2 6794.06 1161.07 6795.85 1143.65 6797.64 1140.69 6798.95 1138.51 6801.7 1142.09 6803.01 1145.42 6804.8 1149.96 6806.59 1164.17 6808.38 1167.91 6809.55 1170.33 6812.6 1169.26 6813.76 1167.82 6815.55 1165.59 6817.34 1156.75 6819.13 1154.55 6820.82 1152.46 6822.81 1154.48 6824.5 1154.6 6826.29 1154.72 6828.08 1155.96 6829.88 1155.28 6831.67 1154.59 6833.46 1150.49 6835.25 1150.48 6837.04 1150.46 6838.83 1155.32 6840.62 1155.18 6842.41 1155.03 6844.2 1149.26 6845.99 1149.59 6847.78 1149.93 6849.57 1156.44 6851.36 1157.18 6853.07 1157.88 6855.03 1156.64 6856.74 1154.03 6858.53 1151.29 6860.32 1138.64 6862.11 1140.75 6863.9 1142.86 6865.69 1164.69 6867.48 1166.68 6869.27 1168.68 6871.06 1155.18 6872.85 1152.71 6874.45 1150.52 6876.63 1153.05 6878.23 1151.91 6880.02 1150.63 6881.81 1144.29 6883.6 1145.03 6885.39 1145.77 6887.18 1156.06 6888.97 1156.33 6890.76 1156.6 6892.55 1146.11 6894.34 1146.68 6896.14 1147.24 6897.93 1158.6 6899.72 1159.72 6901.51 1160.83 6903.3 1155.61 6905.09 1153.38 6906.88 1151.15 6908.67 1145.49 6910.46 1146.34 6912.25 1147.2 6914.04 1154.64 6915.83 1158.52 6917.63 1162.4 6919.42 1170.13 6921.21 1169.61 6923 1169.09 6924.79 1159.59 6926.58 1155.41 6928.37 1151.23 6930.16 1143.77 6931.95 1144.53 6933.74 1145.29 6935.53 1159.51 6937.32 1159.98 6939.12 1160.44 6940.91 1148.27 6942.7 1147.31 6944.49 1146.34 6946.28 1154.26 6948.07 1154.19 6949.86 1154.13 6951.65 1147.77 6953.44 1146.94 6955.23 1146.1 6957.02 1150.76 6958.81 1149.21 6960.61 1147.66 6962.4 1136.91 6964.19 1137.63 6965.98 1138.35 6967.77 1149.98 6969.56 1153.53 6971.28 1156.93 6973.22 1158.78 6974.93 1158.93 6976.72 1159.08 6978.51 1155.86 6980.3 1154.43 6982.1 1152.99 6983.89 1152.11 6985.68 1150.3 6987.47 1148.49 6989.26 1145.59 6991.05 1143.57 6992.84 1141.55 6994.63 1137.96 6996.42 1138.19 6998.21 1138.41 7000 1141.2 7001.79 1144.94 7003.59 1148.67 7005.38 1161.4 7007.17 1160.58 7008.96 1159.76 7010.75 1139.84 7012.54 1139.99 7014.33 1140.14 7016.12 1159.06 7017.91 1161.48 7019.7 1163.89 7021.49 1155.77 7023.28 1154.49 7025.08 1153.22 7026.87 1152.66 7028.66 1153.85 7030.45 1155.04 7032.24 1163.09 7034.03 1161.64 7035.82 1160.19 7037.61 1148.42 7039.4 1145.15 7040.89 1142.43 7043.28 1140.56 7044.77 1142.04 7046.57 1143.81 7048.36 1155.46 7050.15 1155.77 7051.94 1156.08 7053.73 1146.38 7055.52 1143.92 7057.31 1141.45 7059.1 1139 7060.89 1141 7062.68 1142.99 7064.47 1153.48 7066.26 1155.88 7067.88 1158.04 7070.02 1155.87 7071.64 1155.38 7073.43 1154.84 7075.22 1154.39 7077.01 1152.64 7078.8 1150.89 7080.59 1147.6 7082.38 1144.9 7084.17 1142.2 7085.96 1137.22 7087.75 1136.43 7089.55 1135.63 7091.34 1137.44 7093.13 1140.15 7094.92 1142.85 7096.71 1148.5 7098.5 1152.68" stroke="#4472C4" stroke-width="6.875" stroke-linecap="round" stroke-linejoin="round" stroke-miterlimit="10" fill="none"/></g><g clip-path="url(#clip10)"><path d="M4949.5 1246.33C4951.29 1235.24 4953.08 1217.15 4954.87 1213.06 4956.66 1208.96 4958.45 1220.12 4960.25 1221.76 4962.04 1223.41 4963.83 1223.68 4965.62 1222.92 4967.01 1222.32 4969.6 1220.85 4970.99 1217.18 4972.78 1212.45 4974.57 1193.6 4976.36 1194.59 4978.15 1195.57 4979.94 1216.65 4981.73 1223.09 4983.27 1228.6 4985.57 1229.73 4987.11 1233.18 4988.9 1237.21 4990.69 1248.03 4992.48 1247.26 4994.27 1246.49 4996.06 1230.11 4997.85 1228.58 4999.64 1227.05 5001.43 1237.39 5003.23 1238.08 5005.02 1238.76 5006.81 1235.03 5008.6 1232.7 5010.39 1230.37 5012.18 1225.39 5013.97 1224.1 5015.75 1222.83 5017.56 1227.07 5019.34 1225.01 5021.13 1222.93 5022.92 1211.03 5024.72 1211.65 5026.51 1212.26 5028.3 1229.33 5030.09 1228.72 5031.88 1228.11 5033.67 1206.86 5035.46 1207.97 5037.25 1209.08 5039.04 1229.95 5040.83 1235.38 5042 1238.92 5045.04 1243.6 5046.21 1240.56 5048 1235.89 5049.79 1212.08 5051.58 1207.39 5052.34 1205.4 5056.19 1208.81 5056.95 1212.4 5058.74 1220.87 5060.53 1260.31 5062.32 1258.22 5064.11 1256.12 5065.9 1205.51 5067.69 1199.82 5069.49 1194.13 5071.28 1223.93 5073.07 1224.06 5074.86 1224.2 5076.65 1199.42 5078.44 1200.64 5080.23 1201.86 5082.02 1226.68 5083.81 1231.4 5084.5 1233.21 5088.5 1231.83 5089.19 1228.97 5090.98 1221.5 5092.77 1186.81 5094.56 1186.57 5096.35 1186.34 5098.14 1221.42 5099.93 1227.55 5100.89 1230.83 5104.35 1225.9 5105.3 1223.34 5107.09 1218.56 5108.88 1198.6 5110.67 1198.84 5112.47 1199.09 5114.26 1224.2 5116.05 1224.81 5117.84 1225.42 5119.63 1201.54 5121.42 1202.53 5123.21 1203.52 5125 1227.66 5126.79 1230.75 5128.58 1233.85 5130.37 1217.85 5132.17 1221.09 5133.96 1224.34 5135.75 1248.77 5137.54 1250.23 5139.33 1251.69 5141.12 1227.75 5142.91 1229.86 5144.7 1231.98 5146.49 1257.48 5148.28 1262.92 5149.12 1265.48 5152.81 1264.04 5153.66 1262.53 5155.45 1259.3 5157.24 1252.61 5159.03 1243.54 5160.82 1234.46 5162.61 1208.36 5164.4 1208.08 5166.19 1207.79 5167.98 1242.64 5169.77 1241.83 5171.56 1241.02 5173.35 1205.21 5175.15 1203.2 5176.94 1201.18 5178.73 1226.17 5180.52 1229.73 5182.2 1233.06 5184.21 1225.45 5185.89 1224.53 5186.65 1224.12 5190.5 1221.23 5191.26 1223.83 5193.05 1229.97 5194.84 1262.6 5196.64 1261.38 5198.43 1260.16 5200.22 1224.73 5202.01 1216.52 5202.75 1213.13 5206.64 1211.14 5207.38 1212.11 5209.17 1214.46 5210.96 1232.6 5212.75 1230.61 5214.54 1228.62 5216.33 1205.5 5218.12 1200.18 5219.01 1197.55 5222.61 1197.87 5223.5 1198.73 5225.23 1200.41 5227.14 1204.34 5228.87 1210.64 5230.66 1217.16 5232.45 1234.94 5234.24 1237.87 5236.03 1240.8 5237.82 1230.99 5239.61 1228.21 5241.41 1225.43 5243.2 1224.66 5244.99 1221.21 5246.78 1217.75 5248.57 1205.67 5250.36 1207.49 5252.15 1209.32 5253.94 1224.25 5255.73 1232.14 5257.52 1240.03 5259.31 1253.05 5261.1 1254.81 5262.78 1256.46 5264.8 1249.12 5266.48 1242.71 5268.27 1235.86 5270.06 1209.66 5271.85 1213.7 5273.64 1217.74 5275.43 1265.74 5277.22 1266.96 5279.01 1268.18 5280.8 1224.68 5282.59 1221.01 5284.39 1217.35 5286.18 1242.88 5287.97 1244.94 5289.76 1247 5291.55 1237.61 5293.34 1233.4 5295.13 1229.18 5296.92 1222.46 5298.71 1219.65 5300.11 1217.45 5302.69 1219.3 5304.08 1216.53 5305.88 1212.97 5307.67 1199.66 5309.46 1198.34 5310.59 1197.51 5313.7 1202.93 5314.83 1208.62 5316.62 1217.59 5318.41 1247.86 5320.2 1252.17 5321.99 1256.47 5323.78 1242.14 5325.58 1234.43 5327.37 1226.73 5329.16 1204.9 5330.95 1205.94 5332.74 1206.97 5334.53 1229.32 5336.32 1240.66 5338.11 1252 5339.9 1279.96 5341.69 1273.99 5343.48 1268.02 5345.27 1218.08 5347.06 1204.82 5347.85 1199.03 5351.66 1193.2 5352.44 1194.44 5354.23 1197.28 5356.02 1209.86 5357.81 1221.84 5359.6 1233.82 5361.39 1265.2 5363.18 1266.34 5364.97 1267.48 5366.76 1237.61 5368.55 1228.66 5370.21 1220.37 5372.27 1211.03 5373.93 1212.64 5375.72 1214.38 5377.51 1241.44 5379.3 1239.09 5381.09 1236.74 5382.88 1200.49 5384.67 1198.52 5386.46 1196.56 5388.25 1222.18 5390.04 1227.31 5390.99 1230.01 5394.47 1229.84 5395.42 1229.28 5397.21 1228.23 5399 1223.91 5400.79 1220.95 5402.58 1217.99 5404.37 1213.85 5406.16 1211.51 5407.95 1209.17 5409.74 1207.25 5411.53 1206.92 5412.69 1206.71 5415.75 1206.79 5416.91 1209.54 5418.7 1213.8 5420.49 1230.02 5422.28 1232.47 5424.07 1234.92 5425.86 1227.11 5427.65 1224.26 5429.44 1221.41 5431.23 1215.31 5433.02 1215.39 5434.82 1215.47 5436.61 1225.85 5438.4 1224.74 5440.19 1223.63 5441.98 1208.1 5443.77 1208.73 5445.56 1209.36 5447.35 1223.19 5449.14 1228.5 5450.93 1233.81 5452.72 1243.61 5454.52 1240.59 5456.31 1237.56 5458.1 1217.44 5459.89 1210.37 5461.52 1203.91 5463.62 1198.34 5465.26 1198.17 5466.73 1198.02 5469.17 1203.28 5470.63 1209.26 5472.42 1216.57 5474.21 1235.24 5476 1242.01 5477.22 1246.6 5480.16 1251.64 5481.38 1249.85 5483.17 1247.21 5484.96 1230.55 5486.75 1226.17 5487.88 1223.42 5491 1222.47 5492.12 1223.62 5493.91 1225.44 5495.7 1238.84 5497.5 1237.14 5499.29 1235.43 5501.08 1206.75 5502.87 1213.4 5504.66 1220.05 5506.45 1272.55 5508.24 1277.04 5510.03 1281.53 5511.82 1249.71 5513.61 1240.35 5515.4 1230.99 5517.19 1221.4 5518.99 1220.87 5520.78 1220.34 5522.57 1236.66 5524.36 1237.16 5526.15 1237.66 5527.94 1226.51 5529.73 1223.88 5531.4 1221.45 5533.44 1221.86 5535.1 1221.42 5535.96 1221.2 5539.62 1218.51 5540.47 1221.07 5542.27 1226.4 5544.06 1253.86 5545.85 1253.45 5547.64 1253.04 5549.43 1223.93 5551.22 1218.6 5552.19 1215.72 5555.63 1219.98 5556.59 1221.45 5558.38 1224.16 5560.17 1228.05 5561.96 1234.87 5563.76 1241.68 5565.55 1254.32 5567.34 1262.36 5569.13 1270.39 5570.92 1291.5 5572.71 1283.09 5574.5 1274.67 5576.29 1220.78 5578.08 1211.87 5579.87 1202.96 5581.66 1225.98 5583.46 1229.61 5584.94 1232.61 5587.34 1233.09 5588.83 1233.62 5589.93 1234.02 5593.1 1235.91 5594.2 1233.47 5595.99 1229.49 5597.78 1212.51 5599.57 1209.75 5600.51 1208.3 5604.01 1212.52 5604.94 1216.88 5606.74 1225.25 5608.53 1256.49 5610.32 1259.96 5612.11 1263.43 5613.9 1245.11 5615.69 1237.7 5617.48 1230.28 5619.27 1216.76 5621.06 1215.47 5622.85 1214.18 5624.64 1224.88 5626.44 1229.97 5628.23 1235.05 5630.02 1248.53 5631.81 1245.99 5633.6 1243.46 5635.39 1219.65 5637.18 1214.76 5638.16 1212.09 5641.57 1214.46 5642.55 1216.65 5644.34 1220.64 5646.13 1231.97 5647.92 1238.75 5649.72 1245.53 5651.51 1262.41 5653.3 1257.34 5655.09 1252.26 5656.88 1209.13 5658.67 1208.3 5660.46 1207.47 5662.25 1250 5664.04 1252.35 5665.83 1254.7 5667.62 1224.94 5669.42 1222.4 5671.21 1219.86 5673 1236.55 5674.79 1237.09 5676.58 1237.63 5678.37 1231.18 5680.16 1225.63 5681.95 1220.08 5683.74 1209.32 5685.53 1203.78 5687.32 1198.25 5689.11 1191.75 5690.91 1192.44 5692.7 1193.12 5694.49 1206.28 5696.28 1207.91 5698.07 1209.55 5699.86 1199.22 5701.65 1202.26 5703.44 1205.31 5705.23 1226.61 5707.02 1226.19 5708.81 1225.78 5710.6 1202.71 5712.39 1199.77 5714.19 1196.83 5715.98 1206.08 5717.77 1208.55 5719.56 1211.02 5721.35 1211.24 5723.14 1214.57 5724.93 1217.9 5726.72 1230.71 5728.51 1228.53 5730.3 1226.34 5732.09 1210.09 5733.88 1201.46 5735.68 1192.83 5737.47 1181.63 5739.26 1176.73 5740.48 1173.38 5743.41 1171.35 5744.63 1172.04 5746.31 1172.97 5748.32 1176.98 5750 1182.72 5751.79 1188.82 5753.58 1204.34 5755.38 1208.64 5756.21 1210.64 5759.92 1211.09 5760.75 1208.53 5762.54 1203.03 5764.33 1178.02 5766.12 1175.66 5767.91 1173.29 5769.7 1192.39 5771.49 1194.33 5773.28 1196.27 5775.07 1187.3 5776.86 1187.3 5778.66 1187.3 5780.45 1192.91 5782.24 1194.33 5784.03 1195.75 5785.82 1196.92 5787.61 1195.82 5789.07 1194.92 5791.52 1192.36 5792.98 1187.73 5794.77 1182.04 5796.56 1166.35 5798.35 1161.69 5799.38 1159.03 5802.7 1159.24 5803.73 1159.78 5805.52 1160.74 5807.31 1166.18 5809.1 1167.43 5810.54 1168.44 5813.03 1169.54 5814.47 1167.27 5816.26 1164.46 5818.05 1155.66 5819.85 1150.58 5821.64 1145.49 5823.43 1141.39 5825.22 1136.78 5827.01 1132.17 5828.8 1126.45 5830.59 1122.93 5832.38 1119.42 5834.17 1116.26 5835.96 1115.68 5837.4 1115.22 5839.9 1122.42 5841.33 1119.47 5843.13 1115.77 5844.92 1098.75 5846.71 1093.52 5847.94 1089.92 5850.84 1090.03 5852.08 1088.11 5853.87 1085.32 5855.66 1080.76 5857.45 1076.78 5859.24 1072.79 5861.03 1069.79 5862.82 1064.2 5864.62 1058.61 5866.41 1047.04 5868.2 1043.24 5869.41 1040.68 5872.36 1043.54 5873.57 1041.41 5875.36 1038.27 5877.15 1029.18 5878.94 1024.36 5880.73 1019.53 5882.52 1017.25 5884.31 1012.48 5886.11 1007.7 5887.9 1001.27 5889.69 995.695 5891.48 990.123 5893.27 984.505 5895.06 979.042 5896.85 973.579 5898.64 968.356 5900.43 962.918 5902.22 957.48 5904.01 952.224 5905.8 946.416 5907.6 940.607 5909.39 934.205 5911.18 928.065 5912.97 921.925 5914.76 916.254 5916.55 909.575 5918.34 902.896 5920.13 895.007 5921.92 887.993 5923.71 880.979 5925.5 874.557 5927.29 867.49 5929.09 860.422 5930.88 853.397 5932.67 845.587 5934.46 837.776 5936.25 828.922 5938.04 820.627 5939.83 812.332 5941.62 804.244 5943.41 795.816 5945.2 787.388 5946.99 779.119 5948.79 770.057 5950.58 760.996 5952.37 751.02 5954.16 741.447 5955.95 731.873 5957.74 722.721 5959.53 712.616 5961.32 702.511 5963.11 691.786 5964.9 680.818 5966.69 669.85 5968.48 658.423 5970.27 646.808 5972.07 635.193 5973.86 623.341 5975.65 611.13 5977.44 598.918 5979.23 586.03 5981.02 573.538 5982.81 561.045 5984.6 546.77 5986.39 536.173 5988.18 525.576 5989.97 520.396 5991.77 509.956 5993.56 499.516 5995.35 486.026 5997.14 473.533 5998.93 461.039 6000.72 447.557 6002.51 434.992 6004.3 422.428 6006.09 409.816 6007.88 398.147 6009.67 386.477 6011.46 374.544 6013.25 364.975 6015.05 355.406 6016.84 346.309 6018.63 340.733 6020.26 335.655 6022.37 331.536 6024 331.518 6025.58 331.5 6027.8 335.572 6029.37 340.611 6031.16 346.337 6032.95 355.481 6034.74 365.872 6036.54 376.262 6038.33 389.625 6040.12 402.954 6041.91 416.282 6043.7 431.142 6045.49 445.841 6047.28 460.54 6049.07 475.94 6050.86 491.149 6052.65 506.357 6054.44 522.125 6056.23 537.091 6058.03 552.057 6059.82 567.59 6061.61 580.945 6063.4 594.3 6065.19 605.444 6066.98 617.221 6068.77 628.998 6070.56 640.344 6072.35 651.609 6074.14 662.875 6075.93 674.2 6077.72 684.813 6079.52 695.426 6081.31 705.309 6083.1 715.285 6084.89 725.261 6086.68 735.094 6088.47 744.67 6090.26 754.246 6092.05 763.859 6093.84 772.743 6095.63 781.627 6097.42 789.689 6099.21 797.975 6101.01 806.26 6102.8 814.339 6104.59 822.455 6106.38 830.571 6108.17 838.44 6109.96 846.671 6111.75 854.903 6113.54 864.368 6115.33 871.846 6117.12 879.324 6118.91 884.677 6120.71 891.541 6122.5 898.404 6124.29 906.064 6126.08 913.028 6127.87 919.991 6129.66 926.851 6131.45 933.324 6133.24 939.796 6135.03 946.24 6136.82 951.861 6138.61 957.482 6140.4 960.351 6142.19 967.052 6143.99 973.753 6145.78 986.229 6147.57 992.067 6149.23 997.496 6151.27 998.13 6152.94 1002.08 6154.73 1006.32 6156.52 1012.08 6158.31 1017.51 6160.1 1022.95 6161.89 1028.72 6163.69 1034.71 6165.48 1040.69 6167.27 1046.98 6169.06 1053.42 6170.85 1059.85 6172.64 1070.18 6174.43 1073.33 6175.41 1075.05 6178.82 1069.74 6179.8 1072.29 6181.59 1076.93 6183.38 1096.66 6185.17 1101.17 6186.22 1103.8 6189.5 1097.43 6190.55 1099.31 6192.34 1102.53 6194.13 1114.55 6195.92 1120.45 6197.71 1126.36 6199.5 1129.52 6201.29 1134.73 6203.08 1139.93 6204.87 1149.94 6206.67 1151.69 6208.46 1153.44 6210.25 1141.93 6212.04 1145.21 6213.83 1148.48 6215.62 1164.5 6217.41 1171.36 6219.2 1178.22 6220.99 1184.87 6222.78 1186.35 6224.57 1187.84 6226.36 1179.74 6228.15 1180.25 6229.95 1180.77 6231.74 1188.5 6233.53 1189.45 6235.32 1190.41 6237.11 1184.55 6238.9 1185.99 6240.69 1187.43 6242.48 1196.67 6244.27 1198.09 6245.69 1199.23 6248.23 1191.67 6249.64 1194.56 6251.44 1198.2 6253.23 1211.42 6255.02 1219.95 6256.81 1228.47 6258.6 1249.18 6260.39 1245.72 6262.18 1242.26 6263.97 1201.78 6265.76 1199.19 6267.55 1196.6 6269.34 1227.83 6271.13 1230.17 6272.93 1232.51 6274.72 1216.07 6276.51 1213.21 6277.93 1210.94 6280.45 1212.21 6281.88 1213.04 6283.67 1214.07 6285.46 1217.23 6287.25 1219.42 6289.04 1221.62 6290.83 1223.58 6292.62 1226.19 6294.42 1228.8 6296.21 1236.02 6298 1235.1 6299.79 1234.18 6301.58 1219.88 6303.37 1220.66 6305.16 1221.44 6306.95 1235.84 6308.74 1239.79 6310.2 1243 6312.66 1246.92 6314.12 1244.34 6315.91 1241.16 6317.7 1226.4 6319.49 1220.74 6321.25 1215.17 6323.1 1208.34 6324.86 1210.38 6326.65 1212.44 6328.44 1231.77 6330.23 1233.14 6332.02 1234.51 6333.81 1221.38 6335.6 1218.61 6336.35 1217.46 6340.23 1213.79 6340.98 1216.56 6342.77 1223.2 6344.56 1257.78 6346.35 1258.46 6348.14 1259.15 6349.93 1227.77 6351.72 1220.67 6352.6 1217.19 6356.22 1215.43 6357.09 1215.91 6358.89 1216.88 6360.68 1224.63 6362.47 1226.5 6364.19 1228.31 6366.11 1229.23 6367.84 1227.15 6369.63 1224.99 6371.42 1214.92 6373.21 1213.55 6375 1212.19 6376.79 1216.21 6378.58 1218.98 6380.38 1221.74 6382.17 1229.03 6383.96 1230.16 6385.75 1231.29 6387.54 1226.77 6389.33 1225.76 6391.12 1224.75 6392.91 1222.02 6394.7 1224.13 6396.49 1226.23 6398.28 1236.14 6400.07 1238.4 6401.76 1240.53 6403.77 1236.92 6405.45 1237.7 6406.87 1238.36 6409.4 1239.74 6410.82 1243.38 6412.61 1247.98 6414.4 1266.61 6416.19 1265.29 6417.98 1263.96 6419.77 1241.79 6421.56 1235.46 6422.89 1230.75 6425.61 1230.35 6426.94 1227.29 6428.73 1223.18 6430.52 1212.45 6432.31 1210.74 6434.06 1209.07 6435.93 1213.3 6437.68 1217.05 6439.47 1220.88 6441.26 1228.63 6443.05 1233.74 6444.85 1238.86 6446.64 1249.74 6448.43 1247.74 6450.22 1245.73 6452.01 1225.34 6453.8 1221.7 6455.3 1218.64 6457.67 1223.33 6459.17 1225.89 6460.96 1228.93 6462.75 1241.16 6464.54 1239.96 6466.34 1238.77 6468.13 1222.25 6469.92 1218.73 6471.13 1216.33 6474.07 1217.82 6475.29 1218.8 6476.89 1220.07 6479.07 1222.55 6480.66 1227.34 6482.45 1232.71 6484.24 1255.64 6486.04 1251.02 6487.83 1246.41 6489.62 1202.68 6491.41 1199.65 6493.2 1196.61 6494.99 1226.91 6496.78 1232.8 6497.62 1235.58 6501.31 1234.38 6502.15 1235.02 6503.94 1236.38 6505.73 1241.33 6507.52 1240.95 6509.06 1240.62 6511.36 1237.39 6512.9 1232.73 6514.69 1227.29 6516.48 1203.02 6518.27 1208.34 6520.06 1213.65 6521.85 1263.34 6523.64 1264.61 6525.43 1265.88 6527.22 1222.9 6529.01 1215.96 6530.11 1211.69 6533.29 1219.41 6534.39 1222.94 6536.18 1228.69 6537.97 1252.66 6539.76 1250.46 6541.55 1248.25 6543.34 1214.27 6545.13 1209.71 6546.92 1205.15 6548.71 1220.44 6550.5 1223.08 6552.16 1225.52 6554.22 1223.36 6555.88 1225.54 6557.67 1227.89 6559.46 1236.85 6561.25 1237.2 6563.04 1237.55 6564.83 1229.66 6566.62 1227.63 6568.19 1225.84 6570.42 1222.46 6571.99 1225 6573.79 1227.9 6575.58 1245.35 6577.37 1245.02 6579.16 1244.69 6580.95 1226.93 6582.74 1223.01 6583.9 1220.47 6586.95 1221.43 6588.11 1221.49 6589.9 1221.6 6591.69 1223.43 6593.48 1223.64 6595.28 1223.86 6597.07 1221.89 6598.86 1222.79 6600.65 1223.68 6602.44 1228.73 6604.23 1229.04 6606.02 1229.35 6607.81 1222.91 6609.6 1224.64 6611.39 1226.36 6613.18 1238.81 6614.97 1239.37 6616.77 1239.94 6618.56 1230.86 6620.35 1228.02 6622.03 1225.36 6624.04 1218.81 6625.72 1222.34 6627.51 1226.11 6629.3 1249.69 6631.09 1250.62 6632.88 1251.56 6634.67 1235.66 6636.46 1227.95 6638.26 1220.23 6640.05 1202.16 6641.84 1204.33 6643.63 1206.5 6645.42 1233.13 6647.21 1240.99 6648.52 1246.75 6651.27 1253.92 6652.58 1251.5 6654.37 1248.2 6656.16 1223.82 6657.96 1221.2 6659.75 1218.57 6661.54 1231.83 6663.33 1235.77 6665.12 1239.71 6666.91 1248.12 6668.7 1244.86 6670.49 1241.59 6672.28 1219.93 6674.07 1216.18 6675.83 1212.49 6677.68 1219.09 6679.45 1222.35 6681.24 1225.67 6683.03 1234.52 6684.82 1236.06 6686.61 1237.6 6688.4 1230.43 6690.19 1231.58 6691.98 1232.73 6693.77 1244.58 6695.56 1242.95 6697.35 1241.32 6699.14 1225.27 6700.93 1221.82 6702.18 1219.43 6705.07 1223.47 6706.31 1222.26 6708.1 1220.52 6709.89 1213.89 6711.68 1211.37 6713.47 1208.84 6715.26 1206.37 6717.05 1207.12 6718.84 1207.87 6720.63 1215.32 6722.42 1215.87 6724.22 1216.42 6726.01 1209.79 6727.8 1210.43 6729.59 1211.06 6731.38 1216.64 6733.17 1219.66 6734.96 1222.68 6736.75 1228.84 6738.54 1228.55 6740.33 1228.26 6742.12 1218.26 6743.91 1217.93 6745.71 1217.6 6747.5 1225.53 6749.29 1226.57 6751.08 1227.6 6752.87 1224.54 6754.66 1224.14 6756.45 1223.74 6758.24 1222.8 6760.03 1224.16 6761.82 1225.52 6763.61 1229.92 6765.4 1232.3 6767.2 1234.67 6768.99 1239.53 6770.78 1238.41 6772.57 1237.28 6774.36 1226.85 6776.15 1225.56 6777.94 1224.26 6779.73 1232 6781.52 1230.65 6783.31 1229.3 6785.1 1219.5 6786.89 1217.46 6788.69 1215.42 6790.48 1217.66 6792.27 1218.43 6793.75 1219.06 6796.16 1224.94 6797.64 1222.06 6799.43 1218.57 6801.22 1195.29 6803.01 1197.51 6804.8 1199.73 6806.59 1231.81 6808.38 1235.39 6810.18 1238.97 6811.97 1222.53 6813.76 1218.97 6815.4 1215.71 6817.49 1215.38 6819.13 1214.03 6820.15 1213.19 6823.48 1207.01 6824.5 1210.16 6826.29 1215.68 6828.08 1247.22 6829.88 1247.17 6831.67 1247.11 6833.46 1210.87 6835.25 1209.83 6837.04 1208.79 6838.83 1230.22 6840.62 1240.95 6842.41 1251.67 6844.2 1278.2 6845.99 1274.19 6847.78 1270.18 6849.57 1227.6 6851.36 1216.9 6852.09 1212.57 6856.01 1208.91 6856.74 1209.96 6858.53 1212.56 6860.32 1232.02 6862.11 1232.5 6863.9 1232.97 6865.69 1217.78 6867.48 1212.8 6869.27 1207.82 6871.06 1199.81 6872.85 1202.6 6874.65 1205.39 6876.44 1229.88 6878.23 1229.53 6880.02 1229.18 6881.81 1201.38 6883.6 1200.52 6885.39 1199.66 6887.18 1220.57 6888.97 1224.36 6890.14 1226.84 6893.17 1223.76 6894.34 1223.24 6895.7 1222.65 6898.36 1216.69 6899.72 1219.63 6901.51 1223.51 6903.3 1244.49 6905.09 1246.54 6906.88 1248.59 6908.67 1237.16 6910.46 1231.94 6912.25 1226.73 6914.04 1216.01 6915.83 1215.25 6917.63 1214.48 6919.42 1224.03 6921.21 1227.38 6923 1230.73 6924.79 1234.92 6926.58 1235.35 6928.37 1235.79 6930.16 1231.22 6931.95 1230 6933.63 1228.86 6935.65 1225.73 6937.32 1228.05 6939.12 1230.52 6940.91 1242.99 6942.7 1244.83 6943.85 1246.01 6946.92 1242.83 6948.07 1239.06 6949.86 1233.21 6951.65 1212.04 6953.44 1209.72 6955.23 1207.4 6957.02 1223.42 6958.81 1225.15 6960.61 1226.88 6962.4 1220.11 6964.19 1220.08 6965.98 1220.05 6967.77 1225.3 6969.56 1224.97 6971.35 1224.64 6973.14 1217.69 6974.93 1218.1 6976.72 1218.51 6978.51 1228.09 6980.3 1227.43 6982.1 1226.77 6983.89 1218.76 6985.68 1214.15 6987.47 1209.54 6989.26 1193.7 6991.05 1199.75 6992.84 1205.79 6994.63 1245.9 6996.42 1250.41 6998.21 1254.93 7000 1229.42 7001.79 1226.85 7003.59 1224.28 7005.38 1235.82 7007.17 1234.99 7008.96 1234.17 7010.75 1221.56 7012.54 1221.92 7014.33 1222.27 7016.12 1236.84 7017.91 1237.11 7019.7 1237.37 7021.49 1225.58 7023.28 1223.52 7025.08 1221.45 7026.87 1225.54 7028.66 1224.71 7030.45 1223.87 7032.24 1217.81 7034.03 1218.5 7035.82 1219.2 7037.61 1229.89 7039.4 1228.87 7041.19 1227.84 7042.98 1213.26 7044.77 1212.36 7046.57 1211.45 7048.36 1222.52 7050.15 1223.46 7051.94 1224.39 7053.73 1217.42 7055.52 1217.98 7057.31 1218.54 7059.1 1222.61 7060.89 1226.81 7062.68 1231.01 7064.47 1242.42 7066.26 1243.16 7068.06 1243.91 7069.85 1232.24 7071.64 1231.28 7072.97 1230.56 7075.67 1233.55 7077.01 1237.4 7078.8 1242.56 7080.59 1265.35 7082.38 1262.24 7084.17 1259.13 7085.96 1223.51 7087.75 1218.75 7089.55 1213.98 7091.34 1232 7093.13 1233.64 7094.92 1235.28 7096.71 1230.27 7098.5 1228.59" stroke="#70AD47" stroke-width="6.875" stroke-linecap="round" stroke-linejoin="round" stroke-miterlimit="10" fill="none"/></g><g clip-path="url(#clip11)"><text fill="#595959" font-family="Calibri,Calibri_MSFontService,sans-serif" font-weight="400" font-size="55" transform="matrix(1 0 0 1 4825.57 1297)">-80</text></g><g clip-path="url(#clip12)"><text fill="#595959" font-family="Calibri,Calibri_MSFontService,sans-serif" font-weight="400" font-size="55" transform="matrix(1 0 0 1 4825.57 1178)">-70</text></g><g clip-path="url(#clip13)"><text fill="#595959" font-family="Calibri,Calibri_MSFontService,sans-serif" font-weight="400" font-size="55" transform="matrix(1 0 0 1 4825.57 1059)">-60</text></g><g clip-path="url(#clip14)"><text fill="#595959" font-family="Calibri,Calibri_MSFontService,sans-serif" font-weight="400" font-size="55" transform="matrix(1 0 0 1 4825.57 940)">-50</text></g><g clip-path="url(#clip15)"><text fill="#595959" font-family="Calibri,Calibri_MSFontService,sans-serif" font-weight="400" font-size="55" transform="matrix(1 0 0 1 4825.57 821)">-40</text></g><g clip-path="url(#clip16)"><text fill="#595959" font-family="Calibri,Calibri_MSFontService,sans-serif" font-weight="400" font-size="55" transform="matrix(1 0 0 1 4825.57 702)">-30</text></g><g clip-path="url(#clip17)"><text fill="#595959" font-family="Calibri,Calibri_MSFontService,sans-serif" font-weight="400" font-size="55" transform="matrix(1 0 0 1 4825.57 583)">-20</text></g><g clip-path="url(#clip18)"><text fill="#595959" font-family="Calibri,Calibri_MSFontService,sans-serif" font-weight="400" font-size="55" transform="matrix(1 0 0 1 4825.57 464)">-10</text></g><g clip-path="url(#clip19)"><text fill="#595959" font-family="Calibri,Calibri_MSFontService,sans-serif" font-weight="400" font-size="55" transform="matrix(1 0 0 1 4870.28 345)">0</text></g><g clip-path="url(#clip20)"><text fill="#595959" font-family="Calibri,Calibri_MSFontService,sans-serif" font-weight="400" font-size="55" transform="matrix(1 0 0 1 4842.42 226)">10</text></g><g clip-path="url(#clip21)"><text fill="#595959" font-family="Calibri,Calibri_MSFontService,sans-serif" font-weight="400" font-size="55" transform="matrix(1 0 0 1 4894.21 1369)"> 9.95</text></g><g clip-path="url(#clip22)"><text fill="#595959" font-family="Calibri,Calibri_MSFontService,sans-serif" font-weight="400" font-size="55" transform="matrix(1 0 0 1 5109.12 1369)"> 9.96</text></g><g clip-path="url(#clip23)"><text fill="#595959" font-family="Calibri,Calibri_MSFontService,sans-serif" font-weight="400" font-size="55" transform="matrix(1 0 0 1 5324.03 1369)"> 9.97</text></g><g clip-path="url(#clip24)"><text fill="#595959" font-family="Calibri,Calibri_MSFontService,sans-serif" font-weight="400" font-size="55" transform="matrix(1 0 0 1 5538.95 1369)"> 9.98</text></g><g clip-path="url(#clip25)"><text fill="#595959" font-family="Calibri,Calibri_MSFontService,sans-serif" font-weight="400" font-size="55" transform="matrix(1 0 0 1 5753.86 1369)"> 9.99</text></g><g clip-path="url(#clip26)"><text fill="#595959" font-family="Calibri,Calibri_MSFontService,sans-serif" font-weight="400" font-size="55" transform="matrix(1 0 0 1 5954.83 1369)"> 10.00</text></g><g clip-path="url(#clip27)"><text fill="#595959" font-family="Calibri,Calibri_MSFontService,sans-serif" font-weight="400" font-size="55" transform="matrix(1 0 0 1 6169.74 1369)"> 10.01</text></g><g clip-path="url(#clip28)"><text fill="#595959" font-family="Calibri,Calibri_MSFontService,sans-serif" font-weight="400" font-size="55" transform="matrix(1 0 0 1 6384.66 1369)"> 10.02</text></g><g clip-path="url(#clip29)"><text fill="#595959" font-family="Calibri,Calibri_MSFontService,sans-serif" font-weight="400" font-size="55" transform="matrix(1 0 0 1 6599.57 1369)"> 10.03</text></g><g clip-path="url(#clip30)"><text fill="#595959" font-family="Calibri,Calibri_MSFontService,sans-serif" font-weight="400" font-size="55" transform="matrix(1 0 0 1 6814.48 1369)"> 10.04</text></g><g clip-path="url(#clip31)"><text fill="#595959" font-family="Calibri,Calibri_MSFontService,sans-serif" font-weight="400" font-size="55" transform="matrix(1 0 0 1 7029.39 1369)"> 10.05</text></g><g clip-path="url(#clip32)"><text fill="#595959" font-family="Calibri,Calibri_MSFontService,sans-serif" font-weight="400" font-size="64" transform="matrix(6.12323e-17 -1 1 6.12323e-17 4786.42 876)">|S21| [dB]</text></g><g clip-path="url(#clip33)"><text fill="#595959" font-family="Calibri,Calibri_MSFontService,sans-serif" font-weight="400" font-size="64" transform="matrix(1 0 0 1 5820.04 1440)">Frekvenca [MHz]</text></g><g clip-path="url(#clip34)"><path d="M5533.5 140.5 5621.5 140.5" stroke="#ED7D31" stroke-width="6.875" stroke-linecap="round" stroke-linejoin="round" stroke-miterlimit="10" fill="none" fill-rule="evenodd"/></g><g clip-path="url(#clip35)"><text fill="#595959" font-family="Calibri,Calibri_MSFontService,sans-serif" font-weight="400" font-size="64" transform="matrix(1 0 0 1 5630.83 158)">10 kHz</text></g><g clip-path="url(#clip36)"><path d="M5856.5 140.5 5944.5 140.5" stroke="#4472C4" stroke-width="6.875" stroke-linecap="round" stroke-linejoin="round" stroke-miterlimit="10" fill="none" fill-rule="evenodd"/></g><g clip-path="url(#clip37)"><text fill="#595959" font-family="Calibri,Calibri_MSFontService,sans-serif" font-weight="400" font-size="64" transform="matrix(1 0 0 1 5954.24 158)">3 kHz</text></g><g clip-path="url(#clip38)"><path d="M6147.5 140.5 6235.5 140.5" stroke="#70AD47" stroke-width="6.875" stroke-linecap="round" stroke-linejoin="round" stroke-miterlimit="10" fill="none" fill-rule="evenodd"/></g><g clip-path="url(#clip39)"><text fill="#595959" font-family="Calibri,Calibri_MSFontService,sans-serif" font-weight="400" font-size="64" transform="matrix(1 0 0 1 6245.13 158)">1 kHz</text></g></g></svg>