<?xml version="1.0" encoding="utf-8" standalone="no"?>
<!DOCTYPE svg PUBLIC "-//W3C//DTD SVG 1.1//EN"
  "http://www.w3.org/Graphics/SVG/1.1/DTD/svg11.dtd">
<svg xmlns:xlink="http://www.w3.org/1999/xlink" width="460.8pt" height="345.6pt" viewBox="0 0 460.8 345.6" xmlns="http://www.w3.org/2000/svg" version="1.1">
 <metadata>
  <rdf:RDF xmlns:dc="http://purl.org/dc/elements/1.1/" xmlns:cc="http://creativecommons.org/ns#" xmlns:rdf="http://www.w3.org/1999/02/22-rdf-syntax-ns#">
   <cc:Work>
    <dc:type rdf:resource="http://purl.org/dc/dcmitype/StillImage"/>
    <dc:date>2022-09-18T19:31:13.892514</dc:date>
    <dc:format>image/svg+xml</dc:format>
    <dc:creator>
     <cc:Agent>
      <dc:title>Matplotlib v3.5.1, https://matplotlib.org/</dc:title>
     </cc:Agent>
    </dc:creator>
   </cc:Work>
  </rdf:RDF>
 </metadata>
 <defs>
  <style type="text/css">*{stroke-linejoin: round; stroke-linecap: butt}</style>
 </defs>
 <g id="figure_1">
  <g id="patch_1">
   <path d="M 0 345.6 
L 460.8 345.6 
L 460.8 0 
L 0 0 
z
" style="fill: #ffffff"/>
  </g>
  <g id="axes_1">
   <g id="patch_2">
    <path d="M 57.6 307.584 
L 414.72 307.584 
L 414.72 41.472 
L 57.6 41.472 
z
" style="fill: #ffffff"/>
   </g>
   <g id="matplotlib.axis_1">
    <g id="xtick_1">
     <g id="line2d_1">
      <defs>
       <path id="m2b093164f6" d="M 0 0 
L 0 3.5 
" style="stroke: #000000; stroke-width: 0.8"/>
      </defs>
      <g>
       <use xlink:href="#m2b093164f6" x="73.832727" y="307.584" style="stroke: #000000; stroke-width: 0.8"/>
      </g>
     </g>
     <g id="text_1">
      <!-- $\mathdefault{10^{3}}$ -->
      <g transform="translate(65.032727 322.182437)scale(0.1 -0.1)">
       <defs>
        <path id="DejaVuSans-31" d="M 794 531 
L 1825 531 
L 1825 4091 
L 703 3866 
L 703 4441 
L 1819 4666 
L 2450 4666 
L 2450 531 
L 3481 531 
L 3481 0 
L 794 0 
L 794 531 
z
" transform="scale(0.015625)"/>
        <path id="DejaVuSans-30" d="M 2034 4250 
Q 1547 4250 1301 3770 
Q 1056 3291 1056 2328 
Q 1056 1369 1301 889 
Q 1547 409 2034 409 
Q 2525 409 2770 889 
Q 3016 1369 3016 2328 
Q 3016 3291 2770 3770 
Q 2525 4250 2034 4250 
z
M 2034 4750 
Q 2819 4750 3233 4129 
Q 3647 3509 3647 2328 
Q 3647 1150 3233 529 
Q 2819 -91 2034 -91 
Q 1250 -91 836 529 
Q 422 1150 422 2328 
Q 422 3509 836 4129 
Q 1250 4750 2034 4750 
z
" transform="scale(0.015625)"/>
        <path id="DejaVuSans-33" d="M 2597 2516 
Q 3050 2419 3304 2112 
Q 3559 1806 3559 1356 
Q 3559 666 3084 287 
Q 2609 -91 1734 -91 
Q 1441 -91 1130 -33 
Q 819 25 488 141 
L 488 750 
Q 750 597 1062 519 
Q 1375 441 1716 441 
Q 2309 441 2620 675 
Q 2931 909 2931 1356 
Q 2931 1769 2642 2001 
Q 2353 2234 1838 2234 
L 1294 2234 
L 1294 2753 
L 1863 2753 
Q 2328 2753 2575 2939 
Q 2822 3125 2822 3475 
Q 2822 3834 2567 4026 
Q 2313 4219 1838 4219 
Q 1578 4219 1281 4162 
Q 984 4106 628 3988 
L 628 4550 
Q 988 4650 1302 4700 
Q 1616 4750 1894 4750 
Q 2613 4750 3031 4423 
Q 3450 4097 3450 3541 
Q 3450 3153 3228 2886 
Q 3006 2619 2597 2516 
z
" transform="scale(0.015625)"/>
       </defs>
       <use xlink:href="#DejaVuSans-31" transform="translate(0 0.765625)"/>
       <use xlink:href="#DejaVuSans-30" transform="translate(63.623047 0.765625)"/>
       <use xlink:href="#DejaVuSans-33" transform="translate(128.203125 39.046875)scale(0.7)"/>
      </g>
     </g>
    </g>
    <g id="xtick_2">
     <g id="line2d_2">
      <g>
       <use xlink:href="#m2b093164f6" x="154.996364" y="307.584" style="stroke: #000000; stroke-width: 0.8"/>
      </g>
     </g>
     <g id="text_2">
      <!-- $\mathdefault{10^{4}}$ -->
      <g transform="translate(146.196364 322.182437)scale(0.1 -0.1)">
       <defs>
        <path id="DejaVuSans-34" d="M 2419 4116 
L 825 1625 
L 2419 1625 
L 2419 4116 
z
M 2253 4666 
L 3047 4666 
L 3047 1625 
L 3713 1625 
L 3713 1100 
L 3047 1100 
L 3047 0 
L 2419 0 
L 2419 1100 
L 313 1100 
L 313 1709 
L 2253 4666 
z
" transform="scale(0.015625)"/>
       </defs>
       <use xlink:href="#DejaVuSans-31" transform="translate(0 0.684375)"/>
       <use xlink:href="#DejaVuSans-30" transform="translate(63.623047 0.684375)"/>
       <use xlink:href="#DejaVuSans-34" transform="translate(128.203125 38.965625)scale(0.7)"/>
      </g>
     </g>
    </g>
    <g id="xtick_3">
     <g id="line2d_3">
      <g>
       <use xlink:href="#m2b093164f6" x="236.16" y="307.584" style="stroke: #000000; stroke-width: 0.8"/>
      </g>
     </g>
     <g id="text_3">
      <!-- $\mathdefault{10^{5}}$ -->
      <g transform="translate(227.36 322.182437)scale(0.1 -0.1)">
       <defs>
        <path id="DejaVuSans-35" d="M 691 4666 
L 3169 4666 
L 3169 4134 
L 1269 4134 
L 1269 2991 
Q 1406 3038 1543 3061 
Q 1681 3084 1819 3084 
Q 2600 3084 3056 2656 
Q 3513 2228 3513 1497 
Q 3513 744 3044 326 
Q 2575 -91 1722 -91 
Q 1428 -91 1123 -41 
Q 819 9 494 109 
L 494 744 
Q 775 591 1075 516 
Q 1375 441 1709 441 
Q 2250 441 2565 725 
Q 2881 1009 2881 1497 
Q 2881 1984 2565 2268 
Q 2250 2553 1709 2553 
Q 1456 2553 1204 2497 
Q 953 2441 691 2322 
L 691 4666 
z
" transform="scale(0.015625)"/>
       </defs>
       <use xlink:href="#DejaVuSans-31" transform="translate(0 0.684375)"/>
       <use xlink:href="#DejaVuSans-30" transform="translate(63.623047 0.684375)"/>
       <use xlink:href="#DejaVuSans-35" transform="translate(128.203125 38.965625)scale(0.7)"/>
      </g>
     </g>
    </g>
    <g id="xtick_4">
     <g id="line2d_4">
      <g>
       <use xlink:href="#m2b093164f6" x="317.323636" y="307.584" style="stroke: #000000; stroke-width: 0.8"/>
      </g>
     </g>
     <g id="text_4">
      <!-- $\mathdefault{10^{6}}$ -->
      <g transform="translate(308.523636 322.182437)scale(0.1 -0.1)">
       <defs>
        <path id="DejaVuSans-36" d="M 2113 2584 
Q 1688 2584 1439 2293 
Q 1191 2003 1191 1497 
Q 1191 994 1439 701 
Q 1688 409 2113 409 
Q 2538 409 2786 701 
Q 3034 994 3034 1497 
Q 3034 2003 2786 2293 
Q 2538 2584 2113 2584 
z
M 3366 4563 
L 3366 3988 
Q 3128 4100 2886 4159 
Q 2644 4219 2406 4219 
Q 1781 4219 1451 3797 
Q 1122 3375 1075 2522 
Q 1259 2794 1537 2939 
Q 1816 3084 2150 3084 
Q 2853 3084 3261 2657 
Q 3669 2231 3669 1497 
Q 3669 778 3244 343 
Q 2819 -91 2113 -91 
Q 1303 -91 875 529 
Q 447 1150 447 2328 
Q 447 3434 972 4092 
Q 1497 4750 2381 4750 
Q 2619 4750 2861 4703 
Q 3103 4656 3366 4563 
z
" transform="scale(0.015625)"/>
       </defs>
       <use xlink:href="#DejaVuSans-31" transform="translate(0 0.765625)"/>
       <use xlink:href="#DejaVuSans-30" transform="translate(63.623047 0.765625)"/>
       <use xlink:href="#DejaVuSans-36" transform="translate(128.203125 39.046875)scale(0.7)"/>
      </g>
     </g>
    </g>
    <g id="xtick_5">
     <g id="line2d_5">
      <g>
       <use xlink:href="#m2b093164f6" x="398.487273" y="307.584" style="stroke: #000000; stroke-width: 0.8"/>
      </g>
     </g>
     <g id="text_5">
      <!-- $\mathdefault{10^{7}}$ -->
      <g transform="translate(389.687273 322.182437)scale(0.1 -0.1)">
       <defs>
        <path id="DejaVuSans-37" d="M 525 4666 
L 3525 4666 
L 3525 4397 
L 1831 0 
L 1172 0 
L 2766 4134 
L 525 4134 
L 525 4666 
z
" transform="scale(0.015625)"/>
       </defs>
       <use xlink:href="#DejaVuSans-31" transform="translate(0 0.684375)"/>
       <use xlink:href="#DejaVuSans-30" transform="translate(63.623047 0.684375)"/>
       <use xlink:href="#DejaVuSans-37" transform="translate(128.203125 38.965625)scale(0.7)"/>
      </g>
     </g>
    </g>
    <g id="xtick_6">
     <g id="line2d_6">
      <defs>
       <path id="m5484b5c76d" d="M 0 0 
L 0 2 
" style="stroke: #000000; stroke-width: 0.6"/>
      </defs>
      <g>
       <use xlink:href="#m5484b5c76d" x="61.260321" y="307.584" style="stroke: #000000; stroke-width: 0.6"/>
      </g>
     </g>
    </g>
    <g id="xtick_7">
     <g id="line2d_7">
      <g>
       <use xlink:href="#m5484b5c76d" x="65.967158" y="307.584" style="stroke: #000000; stroke-width: 0.6"/>
      </g>
     </g>
    </g>
    <g id="xtick_8">
     <g id="line2d_8">
      <g>
       <use xlink:href="#m5484b5c76d" x="70.118883" y="307.584" style="stroke: #000000; stroke-width: 0.6"/>
      </g>
     </g>
    </g>
    <g id="xtick_9">
     <g id="line2d_9">
      <g>
       <use xlink:href="#m5484b5c76d" x="98.265416" y="307.584" style="stroke: #000000; stroke-width: 0.6"/>
      </g>
     </g>
    </g>
    <g id="xtick_10">
     <g id="line2d_10">
      <g>
       <use xlink:href="#m5484b5c76d" x="112.557623" y="307.584" style="stroke: #000000; stroke-width: 0.6"/>
      </g>
     </g>
    </g>
    <g id="xtick_11">
     <g id="line2d_11">
      <g>
       <use xlink:href="#m5484b5c76d" x="122.698105" y="307.584" style="stroke: #000000; stroke-width: 0.6"/>
      </g>
     </g>
    </g>
    <g id="xtick_12">
     <g id="line2d_12">
      <g>
       <use xlink:href="#m5484b5c76d" x="130.563675" y="307.584" style="stroke: #000000; stroke-width: 0.6"/>
      </g>
     </g>
    </g>
    <g id="xtick_13">
     <g id="line2d_13">
      <g>
       <use xlink:href="#m5484b5c76d" x="136.990312" y="307.584" style="stroke: #000000; stroke-width: 0.6"/>
      </g>
     </g>
    </g>
    <g id="xtick_14">
     <g id="line2d_14">
      <g>
       <use xlink:href="#m5484b5c76d" x="142.423957" y="307.584" style="stroke: #000000; stroke-width: 0.6"/>
      </g>
     </g>
    </g>
    <g id="xtick_15">
     <g id="line2d_15">
      <g>
       <use xlink:href="#m5484b5c76d" x="147.130795" y="307.584" style="stroke: #000000; stroke-width: 0.6"/>
      </g>
     </g>
    </g>
    <g id="xtick_16">
     <g id="line2d_16">
      <g>
       <use xlink:href="#m5484b5c76d" x="151.282519" y="307.584" style="stroke: #000000; stroke-width: 0.6"/>
      </g>
     </g>
    </g>
    <g id="xtick_17">
     <g id="line2d_17">
      <g>
       <use xlink:href="#m5484b5c76d" x="179.429053" y="307.584" style="stroke: #000000; stroke-width: 0.6"/>
      </g>
     </g>
    </g>
    <g id="xtick_18">
     <g id="line2d_18">
      <g>
       <use xlink:href="#m5484b5c76d" x="193.72126" y="307.584" style="stroke: #000000; stroke-width: 0.6"/>
      </g>
     </g>
    </g>
    <g id="xtick_19">
     <g id="line2d_19">
      <g>
       <use xlink:href="#m5484b5c76d" x="203.861742" y="307.584" style="stroke: #000000; stroke-width: 0.6"/>
      </g>
     </g>
    </g>
    <g id="xtick_20">
     <g id="line2d_20">
      <g>
       <use xlink:href="#m5484b5c76d" x="211.727311" y="307.584" style="stroke: #000000; stroke-width: 0.6"/>
      </g>
     </g>
    </g>
    <g id="xtick_21">
     <g id="line2d_21">
      <g>
       <use xlink:href="#m5484b5c76d" x="218.153949" y="307.584" style="stroke: #000000; stroke-width: 0.6"/>
      </g>
     </g>
    </g>
    <g id="xtick_22">
     <g id="line2d_22">
      <g>
       <use xlink:href="#m5484b5c76d" x="223.587594" y="307.584" style="stroke: #000000; stroke-width: 0.6"/>
      </g>
     </g>
    </g>
    <g id="xtick_23">
     <g id="line2d_23">
      <g>
       <use xlink:href="#m5484b5c76d" x="228.294431" y="307.584" style="stroke: #000000; stroke-width: 0.6"/>
      </g>
     </g>
    </g>
    <g id="xtick_24">
     <g id="line2d_24">
      <g>
       <use xlink:href="#m5484b5c76d" x="232.446156" y="307.584" style="stroke: #000000; stroke-width: 0.6"/>
      </g>
     </g>
    </g>
    <g id="xtick_25">
     <g id="line2d_25">
      <g>
       <use xlink:href="#m5484b5c76d" x="260.592689" y="307.584" style="stroke: #000000; stroke-width: 0.6"/>
      </g>
     </g>
    </g>
    <g id="xtick_26">
     <g id="line2d_26">
      <g>
       <use xlink:href="#m5484b5c76d" x="274.884896" y="307.584" style="stroke: #000000; stroke-width: 0.6"/>
      </g>
     </g>
    </g>
    <g id="xtick_27">
     <g id="line2d_27">
      <g>
       <use xlink:href="#m5484b5c76d" x="285.025378" y="307.584" style="stroke: #000000; stroke-width: 0.6"/>
      </g>
     </g>
    </g>
    <g id="xtick_28">
     <g id="line2d_28">
      <g>
       <use xlink:href="#m5484b5c76d" x="292.890947" y="307.584" style="stroke: #000000; stroke-width: 0.6"/>
      </g>
     </g>
    </g>
    <g id="xtick_29">
     <g id="line2d_29">
      <g>
       <use xlink:href="#m5484b5c76d" x="299.317585" y="307.584" style="stroke: #000000; stroke-width: 0.6"/>
      </g>
     </g>
    </g>
    <g id="xtick_30">
     <g id="line2d_30">
      <g>
       <use xlink:href="#m5484b5c76d" x="304.75123" y="307.584" style="stroke: #000000; stroke-width: 0.6"/>
      </g>
     </g>
    </g>
    <g id="xtick_31">
     <g id="line2d_31">
      <g>
       <use xlink:href="#m5484b5c76d" x="309.458067" y="307.584" style="stroke: #000000; stroke-width: 0.6"/>
      </g>
     </g>
    </g>
    <g id="xtick_32">
     <g id="line2d_32">
      <g>
       <use xlink:href="#m5484b5c76d" x="313.609792" y="307.584" style="stroke: #000000; stroke-width: 0.6"/>
      </g>
     </g>
    </g>
    <g id="xtick_33">
     <g id="line2d_33">
      <g>
       <use xlink:href="#m5484b5c76d" x="341.756325" y="307.584" style="stroke: #000000; stroke-width: 0.6"/>
      </g>
     </g>
    </g>
    <g id="xtick_34">
     <g id="line2d_34">
      <g>
       <use xlink:href="#m5484b5c76d" x="356.048532" y="307.584" style="stroke: #000000; stroke-width: 0.6"/>
      </g>
     </g>
    </g>
    <g id="xtick_35">
     <g id="line2d_35">
      <g>
       <use xlink:href="#m5484b5c76d" x="366.189015" y="307.584" style="stroke: #000000; stroke-width: 0.6"/>
      </g>
     </g>
    </g>
    <g id="xtick_36">
     <g id="line2d_36">
      <g>
       <use xlink:href="#m5484b5c76d" x="374.054584" y="307.584" style="stroke: #000000; stroke-width: 0.6"/>
      </g>
     </g>
    </g>
    <g id="xtick_37">
     <g id="line2d_37">
      <g>
       <use xlink:href="#m5484b5c76d" x="380.481221" y="307.584" style="stroke: #000000; stroke-width: 0.6"/>
      </g>
     </g>
    </g>
    <g id="xtick_38">
     <g id="line2d_38">
      <g>
       <use xlink:href="#m5484b5c76d" x="385.914866" y="307.584" style="stroke: #000000; stroke-width: 0.6"/>
      </g>
     </g>
    </g>
    <g id="xtick_39">
     <g id="line2d_39">
      <g>
       <use xlink:href="#m5484b5c76d" x="390.621704" y="307.584" style="stroke: #000000; stroke-width: 0.6"/>
      </g>
     </g>
    </g>
    <g id="xtick_40">
     <g id="line2d_40">
      <g>
       <use xlink:href="#m5484b5c76d" x="394.773428" y="307.584" style="stroke: #000000; stroke-width: 0.6"/>
      </g>
     </g>
    </g>
    <g id="text_6">
     <!-- Frequency [Hz] -->
     <g transform="translate(198.455312 335.860562)scale(0.1 -0.1)">
      <defs>
       <path id="DejaVuSans-46" d="M 628 4666 
L 3309 4666 
L 3309 4134 
L 1259 4134 
L 1259 2759 
L 3109 2759 
L 3109 2228 
L 1259 2228 
L 1259 0 
L 628 0 
L 628 4666 
z
" transform="scale(0.015625)"/>
       <path id="DejaVuSans-72" d="M 2631 2963 
Q 2534 3019 2420 3045 
Q 2306 3072 2169 3072 
Q 1681 3072 1420 2755 
Q 1159 2438 1159 1844 
L 1159 0 
L 581 0 
L 581 3500 
L 1159 3500 
L 1159 2956 
Q 1341 3275 1631 3429 
Q 1922 3584 2338 3584 
Q 2397 3584 2469 3576 
Q 2541 3569 2628 3553 
L 2631 2963 
z
" transform="scale(0.015625)"/>
       <path id="DejaVuSans-65" d="M 3597 1894 
L 3597 1613 
L 953 1613 
Q 991 1019 1311 708 
Q 1631 397 2203 397 
Q 2534 397 2845 478 
Q 3156 559 3463 722 
L 3463 178 
Q 3153 47 2828 -22 
Q 2503 -91 2169 -91 
Q 1331 -91 842 396 
Q 353 884 353 1716 
Q 353 2575 817 3079 
Q 1281 3584 2069 3584 
Q 2775 3584 3186 3129 
Q 3597 2675 3597 1894 
z
M 3022 2063 
Q 3016 2534 2758 2815 
Q 2500 3097 2075 3097 
Q 1594 3097 1305 2825 
Q 1016 2553 972 2059 
L 3022 2063 
z
" transform="scale(0.015625)"/>
       <path id="DejaVuSans-71" d="M 947 1747 
Q 947 1113 1208 752 
Q 1469 391 1925 391 
Q 2381 391 2643 752 
Q 2906 1113 2906 1747 
Q 2906 2381 2643 2742 
Q 2381 3103 1925 3103 
Q 1469 3103 1208 2742 
Q 947 2381 947 1747 
z
M 2906 525 
Q 2725 213 2448 61 
Q 2172 -91 1784 -91 
Q 1150 -91 751 415 
Q 353 922 353 1747 
Q 353 2572 751 3078 
Q 1150 3584 1784 3584 
Q 2172 3584 2448 3432 
Q 2725 3281 2906 2969 
L 2906 3500 
L 3481 3500 
L 3481 -1331 
L 2906 -1331 
L 2906 525 
z
" transform="scale(0.015625)"/>
       <path id="DejaVuSans-75" d="M 544 1381 
L 544 3500 
L 1119 3500 
L 1119 1403 
Q 1119 906 1312 657 
Q 1506 409 1894 409 
Q 2359 409 2629 706 
Q 2900 1003 2900 1516 
L 2900 3500 
L 3475 3500 
L 3475 0 
L 2900 0 
L 2900 538 
Q 2691 219 2414 64 
Q 2138 -91 1772 -91 
Q 1169 -91 856 284 
Q 544 659 544 1381 
z
M 1991 3584 
L 1991 3584 
z
" transform="scale(0.015625)"/>
       <path id="DejaVuSans-6e" d="M 3513 2113 
L 3513 0 
L 2938 0 
L 2938 2094 
Q 2938 2591 2744 2837 
Q 2550 3084 2163 3084 
Q 1697 3084 1428 2787 
Q 1159 2491 1159 1978 
L 1159 0 
L 581 0 
L 581 3500 
L 1159 3500 
L 1159 2956 
Q 1366 3272 1645 3428 
Q 1925 3584 2291 3584 
Q 2894 3584 3203 3211 
Q 3513 2838 3513 2113 
z
" transform="scale(0.015625)"/>
       <path id="DejaVuSans-63" d="M 3122 3366 
L 3122 2828 
Q 2878 2963 2633 3030 
Q 2388 3097 2138 3097 
Q 1578 3097 1268 2742 
Q 959 2388 959 1747 
Q 959 1106 1268 751 
Q 1578 397 2138 397 
Q 2388 397 2633 464 
Q 2878 531 3122 666 
L 3122 134 
Q 2881 22 2623 -34 
Q 2366 -91 2075 -91 
Q 1284 -91 818 406 
Q 353 903 353 1747 
Q 353 2603 823 3093 
Q 1294 3584 2113 3584 
Q 2378 3584 2631 3529 
Q 2884 3475 3122 3366 
z
" transform="scale(0.015625)"/>
       <path id="DejaVuSans-79" d="M 2059 -325 
Q 1816 -950 1584 -1140 
Q 1353 -1331 966 -1331 
L 506 -1331 
L 506 -850 
L 844 -850 
Q 1081 -850 1212 -737 
Q 1344 -625 1503 -206 
L 1606 56 
L 191 3500 
L 800 3500 
L 1894 763 
L 2988 3500 
L 3597 3500 
L 2059 -325 
z
" transform="scale(0.015625)"/>
       <path id="DejaVuSans-20" transform="scale(0.015625)"/>
       <path id="DejaVuSans-5b" d="M 550 4863 
L 1875 4863 
L 1875 4416 
L 1125 4416 
L 1125 -397 
L 1875 -397 
L 1875 -844 
L 550 -844 
L 550 4863 
z
" transform="scale(0.015625)"/>
       <path id="DejaVuSans-48" d="M 628 4666 
L 1259 4666 
L 1259 2753 
L 3553 2753 
L 3553 4666 
L 4184 4666 
L 4184 0 
L 3553 0 
L 3553 2222 
L 1259 2222 
L 1259 0 
L 628 0 
L 628 4666 
z
" transform="scale(0.015625)"/>
       <path id="DejaVuSans-7a" d="M 353 3500 
L 3084 3500 
L 3084 2975 
L 922 459 
L 3084 459 
L 3084 0 
L 275 0 
L 275 525 
L 2438 3041 
L 353 3041 
L 353 3500 
z
" transform="scale(0.015625)"/>
       <path id="DejaVuSans-5d" d="M 1947 4863 
L 1947 -844 
L 622 -844 
L 622 -397 
L 1369 -397 
L 1369 4416 
L 622 4416 
L 622 4863 
L 1947 4863 
z
" transform="scale(0.015625)"/>
      </defs>
      <use xlink:href="#DejaVuSans-46"/>
      <use xlink:href="#DejaVuSans-72" x="50.269531"/>
      <use xlink:href="#DejaVuSans-65" x="89.132812"/>
      <use xlink:href="#DejaVuSans-71" x="150.65625"/>
      <use xlink:href="#DejaVuSans-75" x="214.132812"/>
      <use xlink:href="#DejaVuSans-65" x="277.511719"/>
      <use xlink:href="#DejaVuSans-6e" x="339.035156"/>
      <use xlink:href="#DejaVuSans-63" x="402.414062"/>
      <use xlink:href="#DejaVuSans-79" x="457.394531"/>
      <use xlink:href="#DejaVuSans-20" x="516.574219"/>
      <use xlink:href="#DejaVuSans-5b" x="548.361328"/>
      <use xlink:href="#DejaVuSans-48" x="587.375"/>
      <use xlink:href="#DejaVuSans-7a" x="662.570312"/>
      <use xlink:href="#DejaVuSans-5d" x="715.060547"/>
     </g>
    </g>
   </g>
   <g id="matplotlib.axis_2">
    <g id="ytick_1">
     <g id="line2d_41">
      <defs>
       <path id="m9fa802de77" d="M 0 0 
L -3.5 0 
" style="stroke: #000000; stroke-width: 0.8"/>
      </defs>
      <g>
       <use xlink:href="#m9fa802de77" x="57.6" y="307.584" style="stroke: #000000; stroke-width: 0.8"/>
      </g>
     </g>
     <g id="text_7">
      <!-- −140 -->
      <g transform="translate(23.132812 311.383219)scale(0.1 -0.1)">
       <defs>
        <path id="DejaVuSans-2212" d="M 678 2272 
L 4684 2272 
L 4684 1741 
L 678 1741 
L 678 2272 
z
" transform="scale(0.015625)"/>
       </defs>
       <use xlink:href="#DejaVuSans-2212"/>
       <use xlink:href="#DejaVuSans-31" x="83.789062"/>
       <use xlink:href="#DejaVuSans-34" x="147.412109"/>
       <use xlink:href="#DejaVuSans-30" x="211.035156"/>
      </g>
     </g>
    </g>
    <g id="ytick_2">
     <g id="line2d_42">
      <g>
       <use xlink:href="#m9fa802de77" x="57.6" y="274.32" style="stroke: #000000; stroke-width: 0.8"/>
      </g>
     </g>
     <g id="text_8">
      <!-- −130 -->
      <g transform="translate(23.132812 278.119219)scale(0.1 -0.1)">
       <use xlink:href="#DejaVuSans-2212"/>
       <use xlink:href="#DejaVuSans-31" x="83.789062"/>
       <use xlink:href="#DejaVuSans-33" x="147.412109"/>
       <use xlink:href="#DejaVuSans-30" x="211.035156"/>
      </g>
     </g>
    </g>
    <g id="ytick_3">
     <g id="line2d_43">
      <g>
       <use xlink:href="#m9fa802de77" x="57.6" y="241.056" style="stroke: #000000; stroke-width: 0.8"/>
      </g>
     </g>
     <g id="text_9">
      <!-- −120 -->
      <g transform="translate(23.132812 244.855219)scale(0.1 -0.1)">
       <defs>
        <path id="DejaVuSans-32" d="M 1228 531 
L 3431 531 
L 3431 0 
L 469 0 
L 469 531 
Q 828 903 1448 1529 
Q 2069 2156 2228 2338 
Q 2531 2678 2651 2914 
Q 2772 3150 2772 3378 
Q 2772 3750 2511 3984 
Q 2250 4219 1831 4219 
Q 1534 4219 1204 4116 
Q 875 4013 500 3803 
L 500 4441 
Q 881 4594 1212 4672 
Q 1544 4750 1819 4750 
Q 2544 4750 2975 4387 
Q 3406 4025 3406 3419 
Q 3406 3131 3298 2873 
Q 3191 2616 2906 2266 
Q 2828 2175 2409 1742 
Q 1991 1309 1228 531 
z
" transform="scale(0.015625)"/>
       </defs>
       <use xlink:href="#DejaVuSans-2212"/>
       <use xlink:href="#DejaVuSans-31" x="83.789062"/>
       <use xlink:href="#DejaVuSans-32" x="147.412109"/>
       <use xlink:href="#DejaVuSans-30" x="211.035156"/>
      </g>
     </g>
    </g>
    <g id="ytick_4">
     <g id="line2d_44">
      <g>
       <use xlink:href="#m9fa802de77" x="57.6" y="207.792" style="stroke: #000000; stroke-width: 0.8"/>
      </g>
     </g>
     <g id="text_10">
      <!-- −110 -->
      <g transform="translate(23.132812 211.591219)scale(0.1 -0.1)">
       <use xlink:href="#DejaVuSans-2212"/>
       <use xlink:href="#DejaVuSans-31" x="83.789062"/>
       <use xlink:href="#DejaVuSans-31" x="147.412109"/>
       <use xlink:href="#DejaVuSans-30" x="211.035156"/>
      </g>
     </g>
    </g>
    <g id="ytick_5">
     <g id="line2d_45">
      <g>
       <use xlink:href="#m9fa802de77" x="57.6" y="174.528" style="stroke: #000000; stroke-width: 0.8"/>
      </g>
     </g>
     <g id="text_11">
      <!-- −100 -->
      <g transform="translate(23.132812 178.327219)scale(0.1 -0.1)">
       <use xlink:href="#DejaVuSans-2212"/>
       <use xlink:href="#DejaVuSans-31" x="83.789062"/>
       <use xlink:href="#DejaVuSans-30" x="147.412109"/>
       <use xlink:href="#DejaVuSans-30" x="211.035156"/>
      </g>
     </g>
    </g>
    <g id="ytick_6">
     <g id="line2d_46">
      <g>
       <use xlink:href="#m9fa802de77" x="57.6" y="141.264" style="stroke: #000000; stroke-width: 0.8"/>
      </g>
     </g>
     <g id="text_12">
      <!-- −90 -->
      <g transform="translate(29.495313 145.063219)scale(0.1 -0.1)">
       <defs>
        <path id="DejaVuSans-39" d="M 703 97 
L 703 672 
Q 941 559 1184 500 
Q 1428 441 1663 441 
Q 2288 441 2617 861 
Q 2947 1281 2994 2138 
Q 2813 1869 2534 1725 
Q 2256 1581 1919 1581 
Q 1219 1581 811 2004 
Q 403 2428 403 3163 
Q 403 3881 828 4315 
Q 1253 4750 1959 4750 
Q 2769 4750 3195 4129 
Q 3622 3509 3622 2328 
Q 3622 1225 3098 567 
Q 2575 -91 1691 -91 
Q 1453 -91 1209 -44 
Q 966 3 703 97 
z
M 1959 2075 
Q 2384 2075 2632 2365 
Q 2881 2656 2881 3163 
Q 2881 3666 2632 3958 
Q 2384 4250 1959 4250 
Q 1534 4250 1286 3958 
Q 1038 3666 1038 3163 
Q 1038 2656 1286 2365 
Q 1534 2075 1959 2075 
z
" transform="scale(0.015625)"/>
       </defs>
       <use xlink:href="#DejaVuSans-2212"/>
       <use xlink:href="#DejaVuSans-39" x="83.789062"/>
       <use xlink:href="#DejaVuSans-30" x="147.412109"/>
      </g>
     </g>
    </g>
    <g id="ytick_7">
     <g id="line2d_47">
      <g>
       <use xlink:href="#m9fa802de77" x="57.6" y="108" style="stroke: #000000; stroke-width: 0.8"/>
      </g>
     </g>
     <g id="text_13">
      <!-- −80 -->
      <g transform="translate(29.495313 111.799219)scale(0.1 -0.1)">
       <defs>
        <path id="DejaVuSans-38" d="M 2034 2216 
Q 1584 2216 1326 1975 
Q 1069 1734 1069 1313 
Q 1069 891 1326 650 
Q 1584 409 2034 409 
Q 2484 409 2743 651 
Q 3003 894 3003 1313 
Q 3003 1734 2745 1975 
Q 2488 2216 2034 2216 
z
M 1403 2484 
Q 997 2584 770 2862 
Q 544 3141 544 3541 
Q 544 4100 942 4425 
Q 1341 4750 2034 4750 
Q 2731 4750 3128 4425 
Q 3525 4100 3525 3541 
Q 3525 3141 3298 2862 
Q 3072 2584 2669 2484 
Q 3125 2378 3379 2068 
Q 3634 1759 3634 1313 
Q 3634 634 3220 271 
Q 2806 -91 2034 -91 
Q 1263 -91 848 271 
Q 434 634 434 1313 
Q 434 1759 690 2068 
Q 947 2378 1403 2484 
z
M 1172 3481 
Q 1172 3119 1398 2916 
Q 1625 2713 2034 2713 
Q 2441 2713 2670 2916 
Q 2900 3119 2900 3481 
Q 2900 3844 2670 4047 
Q 2441 4250 2034 4250 
Q 1625 4250 1398 4047 
Q 1172 3844 1172 3481 
z
" transform="scale(0.015625)"/>
       </defs>
       <use xlink:href="#DejaVuSans-2212"/>
       <use xlink:href="#DejaVuSans-38" x="83.789062"/>
       <use xlink:href="#DejaVuSans-30" x="147.412109"/>
      </g>
     </g>
    </g>
    <g id="ytick_8">
     <g id="line2d_48">
      <g>
       <use xlink:href="#m9fa802de77" x="57.6" y="74.736" style="stroke: #000000; stroke-width: 0.8"/>
      </g>
     </g>
     <g id="text_14">
      <!-- −70 -->
      <g transform="translate(29.495313 78.535219)scale(0.1 -0.1)">
       <use xlink:href="#DejaVuSans-2212"/>
       <use xlink:href="#DejaVuSans-37" x="83.789062"/>
       <use xlink:href="#DejaVuSans-30" x="147.412109"/>
      </g>
     </g>
    </g>
    <g id="ytick_9">
     <g id="line2d_49">
      <g>
       <use xlink:href="#m9fa802de77" x="57.6" y="41.472" style="stroke: #000000; stroke-width: 0.8"/>
      </g>
     </g>
     <g id="text_15">
      <!-- −60 -->
      <g transform="translate(29.495313 45.271219)scale(0.1 -0.1)">
       <use xlink:href="#DejaVuSans-2212"/>
       <use xlink:href="#DejaVuSans-36" x="83.789062"/>
       <use xlink:href="#DejaVuSans-30" x="147.412109"/>
      </g>
     </g>
    </g>
    <g id="text_16">
     <!-- Phase noise [dBc/Hz] -->
     <g transform="translate(17.053125 227.257688)rotate(-90)scale(0.1 -0.1)">
      <defs>
       <path id="DejaVuSans-50" d="M 1259 4147 
L 1259 2394 
L 2053 2394 
Q 2494 2394 2734 2622 
Q 2975 2850 2975 3272 
Q 2975 3691 2734 3919 
Q 2494 4147 2053 4147 
L 1259 4147 
z
M 628 4666 
L 2053 4666 
Q 2838 4666 3239 4311 
Q 3641 3956 3641 3272 
Q 3641 2581 3239 2228 
Q 2838 1875 2053 1875 
L 1259 1875 
L 1259 0 
L 628 0 
L 628 4666 
z
" transform="scale(0.015625)"/>
       <path id="DejaVuSans-68" d="M 3513 2113 
L 3513 0 
L 2938 0 
L 2938 2094 
Q 2938 2591 2744 2837 
Q 2550 3084 2163 3084 
Q 1697 3084 1428 2787 
Q 1159 2491 1159 1978 
L 1159 0 
L 581 0 
L 581 4863 
L 1159 4863 
L 1159 2956 
Q 1366 3272 1645 3428 
Q 1925 3584 2291 3584 
Q 2894 3584 3203 3211 
Q 3513 2838 3513 2113 
z
" transform="scale(0.015625)"/>
       <path id="DejaVuSans-61" d="M 2194 1759 
Q 1497 1759 1228 1600 
Q 959 1441 959 1056 
Q 959 750 1161 570 
Q 1363 391 1709 391 
Q 2188 391 2477 730 
Q 2766 1069 2766 1631 
L 2766 1759 
L 2194 1759 
z
M 3341 1997 
L 3341 0 
L 2766 0 
L 2766 531 
Q 2569 213 2275 61 
Q 1981 -91 1556 -91 
Q 1019 -91 701 211 
Q 384 513 384 1019 
Q 384 1609 779 1909 
Q 1175 2209 1959 2209 
L 2766 2209 
L 2766 2266 
Q 2766 2663 2505 2880 
Q 2244 3097 1772 3097 
Q 1472 3097 1187 3025 
Q 903 2953 641 2809 
L 641 3341 
Q 956 3463 1253 3523 
Q 1550 3584 1831 3584 
Q 2591 3584 2966 3190 
Q 3341 2797 3341 1997 
z
" transform="scale(0.015625)"/>
       <path id="DejaVuSans-73" d="M 2834 3397 
L 2834 2853 
Q 2591 2978 2328 3040 
Q 2066 3103 1784 3103 
Q 1356 3103 1142 2972 
Q 928 2841 928 2578 
Q 928 2378 1081 2264 
Q 1234 2150 1697 2047 
L 1894 2003 
Q 2506 1872 2764 1633 
Q 3022 1394 3022 966 
Q 3022 478 2636 193 
Q 2250 -91 1575 -91 
Q 1294 -91 989 -36 
Q 684 19 347 128 
L 347 722 
Q 666 556 975 473 
Q 1284 391 1588 391 
Q 1994 391 2212 530 
Q 2431 669 2431 922 
Q 2431 1156 2273 1281 
Q 2116 1406 1581 1522 
L 1381 1569 
Q 847 1681 609 1914 
Q 372 2147 372 2553 
Q 372 3047 722 3315 
Q 1072 3584 1716 3584 
Q 2034 3584 2315 3537 
Q 2597 3491 2834 3397 
z
" transform="scale(0.015625)"/>
       <path id="DejaVuSans-6f" d="M 1959 3097 
Q 1497 3097 1228 2736 
Q 959 2375 959 1747 
Q 959 1119 1226 758 
Q 1494 397 1959 397 
Q 2419 397 2687 759 
Q 2956 1122 2956 1747 
Q 2956 2369 2687 2733 
Q 2419 3097 1959 3097 
z
M 1959 3584 
Q 2709 3584 3137 3096 
Q 3566 2609 3566 1747 
Q 3566 888 3137 398 
Q 2709 -91 1959 -91 
Q 1206 -91 779 398 
Q 353 888 353 1747 
Q 353 2609 779 3096 
Q 1206 3584 1959 3584 
z
" transform="scale(0.015625)"/>
       <path id="DejaVuSans-69" d="M 603 3500 
L 1178 3500 
L 1178 0 
L 603 0 
L 603 3500 
z
M 603 4863 
L 1178 4863 
L 1178 4134 
L 603 4134 
L 603 4863 
z
" transform="scale(0.015625)"/>
       <path id="DejaVuSans-64" d="M 2906 2969 
L 2906 4863 
L 3481 4863 
L 3481 0 
L 2906 0 
L 2906 525 
Q 2725 213 2448 61 
Q 2172 -91 1784 -91 
Q 1150 -91 751 415 
Q 353 922 353 1747 
Q 353 2572 751 3078 
Q 1150 3584 1784 3584 
Q 2172 3584 2448 3432 
Q 2725 3281 2906 2969 
z
M 947 1747 
Q 947 1113 1208 752 
Q 1469 391 1925 391 
Q 2381 391 2643 752 
Q 2906 1113 2906 1747 
Q 2906 2381 2643 2742 
Q 2381 3103 1925 3103 
Q 1469 3103 1208 2742 
Q 947 2381 947 1747 
z
" transform="scale(0.015625)"/>
       <path id="DejaVuSans-42" d="M 1259 2228 
L 1259 519 
L 2272 519 
Q 2781 519 3026 730 
Q 3272 941 3272 1375 
Q 3272 1813 3026 2020 
Q 2781 2228 2272 2228 
L 1259 2228 
z
M 1259 4147 
L 1259 2741 
L 2194 2741 
Q 2656 2741 2882 2914 
Q 3109 3088 3109 3444 
Q 3109 3797 2882 3972 
Q 2656 4147 2194 4147 
L 1259 4147 
z
M 628 4666 
L 2241 4666 
Q 2963 4666 3353 4366 
Q 3744 4066 3744 3513 
Q 3744 3084 3544 2831 
Q 3344 2578 2956 2516 
Q 3422 2416 3680 2098 
Q 3938 1781 3938 1306 
Q 3938 681 3513 340 
Q 3088 0 2303 0 
L 628 0 
L 628 4666 
z
" transform="scale(0.015625)"/>
       <path id="DejaVuSans-2f" d="M 1625 4666 
L 2156 4666 
L 531 -594 
L 0 -594 
L 1625 4666 
z
" transform="scale(0.015625)"/>
      </defs>
      <use xlink:href="#DejaVuSans-50"/>
      <use xlink:href="#DejaVuSans-68" x="60.302734"/>
      <use xlink:href="#DejaVuSans-61" x="123.681641"/>
      <use xlink:href="#DejaVuSans-73" x="184.960938"/>
      <use xlink:href="#DejaVuSans-65" x="237.060547"/>
      <use xlink:href="#DejaVuSans-20" x="298.583984"/>
      <use xlink:href="#DejaVuSans-6e" x="330.371094"/>
      <use xlink:href="#DejaVuSans-6f" x="393.75"/>
      <use xlink:href="#DejaVuSans-69" x="454.931641"/>
      <use xlink:href="#DejaVuSans-73" x="482.714844"/>
      <use xlink:href="#DejaVuSans-65" x="534.814453"/>
      <use xlink:href="#DejaVuSans-20" x="596.337891"/>
      <use xlink:href="#DejaVuSans-5b" x="628.125"/>
      <use xlink:href="#DejaVuSans-64" x="667.138672"/>
      <use xlink:href="#DejaVuSans-42" x="730.615234"/>
      <use xlink:href="#DejaVuSans-63" x="799.21875"/>
      <use xlink:href="#DejaVuSans-2f" x="854.199219"/>
      <use xlink:href="#DejaVuSans-48" x="887.890625"/>
      <use xlink:href="#DejaVuSans-7a" x="963.085938"/>
      <use xlink:href="#DejaVuSans-5d" x="1015.576172"/>
     </g>
    </g>
   </g>
   <g id="line2d_50">
    <path d="M 398.487273 280.155171 
L 398.133009 279.683931 
L 397.413619 279.343529 
L 397.048342 278.829046 
L 396.67924 279.963348 
L 395.929234 283.836387 
L 395.548161 283.092382 
L 395.162923 282.671038 
L 393.981285 280.168476 
L 393.578435 281.868267 
L 393.170929 282.376097 
L 392.758656 281.285038 
L 392.341504 279.506523 
L 391.919356 278.772497 
L 391.492092 278.852331 
L 391.059584 279.731609 
L 390.621704 281.117609 
L 390.178315 281.142003 
L 389.729278 280.529945 
L 389.274447 280.791622 
L 388.346791 282.939368 
L 387.873644 282.31844 
L 387.394059 282.282958 
L 386.907859 281.409224 
L 385.914866 281.231816 
L 385.407679 280.291553 
L 384.893087 279.986633 
L 384.370871 280.597582 
L 383.840802 282.657732 
L 383.30264 282.653297 
L 382.756135 281.866049 
L 382.201022 280.160715 
L 381.637027 280.261616 
L 380.481221 278.463142 
L 379.888789 277.345472 
L 379.286228 278.996475 
L 378.673188 279.548657 
L 378.049297 281.08878 
L 377.414164 280.125233 
L 376.767377 281.177484 
L 376.1085 280.594256 
L 375.437071 280.148518 
L 374.054584 277.798971 
L 373.34246 277.822256 
L 372.615652 277.541729 
L 371.873543 278.239164 
L 370.340739 283.141169 
L 369.548595 283.366256 
L 368.73824 281.007838 
L 367.908815 279.930084 
L 367.059402 280.809363 
L 366.189015 280.563209 
L 365.296589 279.209364 
L 364.380981 277.511792 
L 363.440954 277.463004 
L 362.47517 277.802297 
L 361.482177 278.470904 
L 360.460398 277.756836 
L 358.323446 277.770142 
L 357.204338 277.178043 
L 356.048532 276.944086 
L 354.853539 277.456352 
L 353.616608 278.766953 
L 352.334688 278.56626 
L 351.004382 276.578182 
L 349.621895 276.899734 
L 348.182963 276.479499 
L 346.682783 276.353096 
L 345.115906 276.030435 
L 343.476126 275.492667 
L 341.756325 275.13896 
L 339.948292 272.971256 
L 338.042481 273.130923 
L 336.027709 271.383454 
L 331.615843 268.196763 
L 329.183919 268.247768 
L 326.571693 268.723443 
L 323.750274 268.233353 
L 323.455302 268.410761 
L 322.857849 269.209097 
L 322.555281 269.244579 
L 322.065705 268.696832 
L 322.004027 268.415196 
L 321.942241 268.48616 
L 321.694008 269.111523 
L 321.662856 268.982902 
L 321.255349 266.949363 
L 321.097353 267.009238 
L 321.002214 267.002585 
L 320.843077 265.568907 
L 320.77922 265.737444 
L 320.490424 266.806328 
L 320.328954 266.659966 
L 320.231715 266.493646 
L 320.16674 266.57348 
L 320.003777 266.872856 
L 319.971094 267.002585 
L 319.93838 266.771955 
L 319.708531 265.821713 
L 319.477173 264.819358 
L 319.310982 264.02324 
L 319.27765 263.964473 
L 318.908899 265.495726 
L 318.740001 265.877153 
L 318.57029 266.161006 
L 318.125179 266.110001 
L 318.056198 265.899329 
L 317.987083 265.948116 
L 317.883155 266.520257 
L 317.848444 266.25858 
L 317.709257 265.74188 
L 317.569519 266.128851 
L 317.429225 267.188864 
L 317.358868 266.869529 
L 317.323636 265.281728 
L 317.28837 265.664264 
L 316.93375 265.476876 
L 316.575526 264.443475 
L 316.213624 265.633217 
L 315.847968 265.237376 
L 315.478479 266.709862 
L 315.105076 264.536614 
L 314.727675 264.27272 
L 314.34619 264.563225 
L 313.96053 263.231556 
L 313.570605 264.53107 
L 313.176317 263.74604 
L 312.77757 263.793718 
L 312.37426 261.434192 
L 311.966282 261.876603 
L 311.553526 263.322478 
L 311.13588 263.440011 
L 310.713226 263.241536 
L 310.285442 262.811321 
L 309.852404 262.824627 
L 308.970032 259.502662 
L 308.520422 259.212156 
L 308.065003 259.18998 
L 307.603623 258.518048 
L 307.136124 255.574184 
L 306.662341 256.287142 
L 306.182103 255.449998 
L 305.695232 256.552145 
L 305.201542 251.986107 
L 304.700838 251.861921 
L 304.19292 251.4561 
L 303.677576 253.561712 
L 302.084733 250.503641 
L 301.537379 248.349243 
L 300.981391 247.652916 
L 300.416492 247.977795 
L 299.842393 249.015632 
L 298.665358 245.868857 
L 298.061766 244.383065 
L 296.82266 245.414249 
L 296.186381 246.31016 
L 295.538405 246.702675 
L 294.878293 247.681745 
L 294.205583 245.368788 
L 293.519785 244.014944 
L 292.820379 240.074268 
L 292.106814 240.773921 
L 291.378504 242.691036 
L 290.634829 243.86082 
L 289.875124 245.9121 
L 289.098685 243.680086 
L 288.304757 245.704755 
L 287.492534 243.152297 
L 286.661153 242.083414 
L 285.809688 239.494366 
L 284.937146 238.747035 
L 284.042455 240.079812 
L 283.124462 240.597622 
L 282.181922 242.508084 
L 281.213484 241.395958 
L 280.217686 238.054035 
L 279.192936 235.266512 
L 278.1375 234.952721 
L 277.049484 236.818832 
L 275.926812 237.390972 
L 274.767203 234.98155 
L 273.568145 233.624379 
L 272.326858 231.344686 
L 271.040258 229.339976 
L 269.704912 227.941779 
L 268.31698 227.3774 
L 266.87215 226.431593 
L 265.365556 223.784888 
L 263.791682 222.103947 
L 262.144237 222.937764 
L 260.416002 223.120716 
L 260.238426 222.58184 
L 260.05995 221.376574 
L 259.880566 221.173664 
L 259.700264 220.297712 
L 259.33687 217.821761 
L 259.153758 217.673182 
L 258.96969 217.173113 
L 258.598645 214.335694 
L 258.411648 214.047406 
L 258.223653 214.530843 
L 257.461485 217.929315 
L 256.878845 222.783641 
L 256.682471 223.897985 
L 256.484998 223.885788 
L 256.086701 225.706438 
L 255.885852 225.859452 
L 255.276345 222.732636 
L 255.070812 222.84906 
L 254.656114 221.76798 
L 254.446921 220.831044 
L 253.811788 216.290508 
L 253.597508 215.610814 
L 253.381918 214.217052 
L 253.165 213.6183 
L 252.94674 213.614974 
L 252.72712 213.834516 
L 252.059928 212.274435 
L 251.834695 212.243388 
L 251.150228 213.459742 
L 250.919087 213.392105 
L 250.68642 212.822182 
L 250.452207 212.692452 
L 250.4287 212.754545 
L 250.381638 213.132646 
L 250.216427 214.679422 
L 250.145385 214.508667 
L 250.097943 214.442139 
L 250.026661 213.948723 
L 249.955235 213.219132 
L 249.907537 213.50742 
L 249.835868 214.396678 
L 249.692093 216.765075 
L 249.668073 216.636454 
L 249.3058 214.335694 
L 249.135456 212.896472 
L 248.915226 209.593356 
L 248.816902 209.928214 
L 248.693611 210.26418 
L 248.520276 211.745537 
L 248.495444 211.439508 
L 248.321129 209.38712 
L 248.246158 209.592248 
L 248.145947 210.44048 
L 248.045452 210.216502 
L 247.995096 210.406107 
L 247.792951 212.174643 
L 247.716847 211.508254 
L 247.461973 210.104513 
L 247.38515 210.326273 
L 247.205243 211.55815 
L 247.153671 211.245468 
L 247.024412 210.244222 
L 246.998503 210.383931 
L 246.920663 211.341934 
L 246.894677 211.681227 
L 246.868673 211.082475 
L 246.633766 208.00999 
L 246.555115 207.552056 
L 246.449973 206.139444 
L 246.37091 206.396686 
L 246.238743 207.472222 
L 246.185737 207.078598 
L 245.946219 205.00736 
L 245.919505 205.032862 
L 245.731939 205.264601 
L 245.489307 206.958848 
L 245.272223 204.456286 
L 245.217742 204.493985 
L 245.135863 204.912003 
L 245.081171 204.69246 
L 244.944069 204.270008 
L 244.889078 204.360929 
L 244.612832 205.33002 
L 244.418163 206.194884 
L 244.390265 206.081787 
L 244.334403 205.4409 
L 244.250443 205.588371 
L 243.94087 206.769243 
L 243.912592 206.691627 
L 243.855967 206.545265 
L 243.657061 204.765641 
L 243.57147 205.0251 
L 243.284659 201.9759 
L 243.169278 202.020252 
L 242.995495 202.911728 
L 242.966448 202.704382 
L 242.850018 202.285256 
L 242.820851 202.296344 
L 242.791659 202.307432 
L 242.733203 202.646724 
L 242.703939 202.377286 
L 242.409951 199.386852 
L 242.350858 198.683873 
L 242.202691 197.662668 
L 242.172983 197.691497 
L 241.784479 199.692881 
L 241.754416 199.597524 
L 241.664072 198.947768 
L 241.482688 197.250195 
L 241.269887 193.126568 
L 241.239381 193.134329 
L 241.20885 193.142091 
L 240.871243 194.477086 
L 240.840391 194.460454 
L 240.685722 194.439387 
L 240.499219 192.897046 
L 240.468039 192.946942 
L 240.405597 193.189769 
L 240.280378 194.493718 
L 240.028599 196.287756 
L 239.933717 196.449641 
L 239.838578 196.654769 
L 239.647526 197.692606 
L 239.583612 197.783528 
L 239.358993 194.733219 
L 239.294553 194.775353 
L 239.197671 195.218873 
L 239.165317 195.113537 
L 239.003104 194.937238 
L 238.840141 194.850752 
L 238.709225 194.714369 
L 238.34668 193.63218 
L 238.180647 193.530171 
L 238.08065 193.515756 
L 237.879801 189.92768 
L 237.745263 188.795595 
L 237.711548 188.844382 
L 237.644021 189.121582 
L 237.474636 190.344588 
L 237.406654 189.94542 
L 236.961542 187.542651 
L 236.823446 187.365243 
L 236.684808 188.366489 
L 236.545621 188.953044 
L 236.475821 189.149302 
L 236.195231 190.305226 
L 236.16 192.119777 
L 236.124733 191.595869 
L 235.769757 191.377436 
L 235.41117 190.030244 
L 235.048897 191.608066 
L 234.682862 190.933916 
L 234.312986 189.197535 
L 233.939188 186.782568 
L 233.561383 185.552909 
L 233.179485 186.667253 
L 232.793404 185.891093 
L 232.403047 186.94778 
L 232.008319 184.937525 
L 231.609121 185.923248 
L 230.7969 182.852981 
L 230.383661 182.089018 
L 229.965521 183.52824 
L 229.54236 183.68569 
L 229.114058 183.183404 
L 228.680488 181.128797 
L 228.241518 179.835936 
L 227.797012 177.673776 
L 227.346829 174.365117 
L 226.428839 170.36124 
L 225.960721 170.373437 
L 225.486301 171.783831 
L 225.005409 173.617786 
L 224.517866 173.994778 
L 224.023485 172.798383 
L 223.522071 169.76138 
L 223.013421 170.313562 
L 222.497323 169.643847 
L 221.973557 170.529778 
L 221.441891 166.622367 
L 220.902082 168.99409 
L 220.353878 167.822088 
L 219.797013 169.470874 
L 219.23121 165.930476 
L 218.656176 166.93394 
L 218.071605 164.496797 
L 217.477176 163.125212 
L 216.872551 159.398535 
L 216.257373 157.270748 
L 215.631268 155.987866 
L 214.99384 156.063264 
L 214.344673 159.451757 
L 213.683325 160.199088 
L 213.009332 156.969154 
L 212.322199 151.665764 
L 211.621405 149.077824 
L 211.262499 156.533396 
L 211.117907 150.473804 
L 211.045388 151.440677 
L 210.8999 155.197292 
L 210.826931 154.000896 
L 210.680537 153.159317 
L 210.607112 153.354466 
L 210.459801 154.951138 
L 210.385914 155.205053 
L 210.237673 151.575951 
L 210.014137 155.55876 
L 209.486972 147.91802 
L 209.182157 151.32758 
L 209.105539 150.374012 
L 209.028755 150.473804 
L 208.951803 150.345183 
L 208.874683 151.574842 
L 208.797393 151.448439 
L 208.564503 147.494458 
L 208.48653 147.548789 
L 208.330064 151.028204 
L 208.25157 150.018087 
L 208.094055 146.221556 
L 207.776898 151.396325 
L 207.617243 150.167775 
L 207.537144 148.226266 
L 207.456862 148.760708 
L 207.295747 152.784543 
L 207.214913 152.81448 
L 207.133893 151.476159 
L 207.052686 152.435271 
L 206.807938 147.40021 
L 206.643823 149.021276 
L 206.561478 148.597714 
L 206.47894 147.885864 
L 206.313282 143.375266 
L 206.230161 144.114836 
L 206.146843 145.874501 
L 206.063327 145.843455 
L 205.8957 147.03098 
L 205.727272 151.222244 
L 205.642755 151.799928 
L 205.302647 144.12925 
L 205.217105 144.277829 
L 205.045395 144.03722 
L 204.959225 143.806589 
L 204.786251 141.728698 
L 204.612424 139.501119 
L 204.525188 139.226136 
L 204.437736 139.535492 
L 204.350066 140.460231 
L 204.262178 139.621978 
L 203.99719 144.876581 
L 203.819418 143.033756 
L 203.640745 144.227933 
L 203.551067 144.543941 
L 203.371026 143.945189 
L 203.190059 141.070071 
L 202.916856 147.320376 
L 202.825316 146.788152 
L 202.641519 144.241239 
L 202.549259 144.274503 
L 202.456758 145.255791 
L 202.364013 143.135765 
L 202.271024 143.282127 
L 202.177789 145.137149 
L 202.084306 145.02516 
L 201.990575 145.162652 
L 201.896594 142.940616 
L 201.707877 146.004231 
L 201.613138 145.494183 
L 201.422893 141.858428 
L 201.327384 142.36404 
L 201.231616 142.29973 
L 200.942739 138.466608 
L 200.845919 138.928978 
L 200.651476 142.039162 
L 200.553851 141.104444 
L 200.455955 137.789132 
L 200.357786 137.865639 
L 200.160624 140.740757 
L 199.962353 137.133831 
L 199.862798 137.976519 
L 199.762961 138.600773 
L 199.461741 142.77097 
L 199.36076 142.818648 
L 199.259489 142.359605 
L 199.056069 139.922463 
L 198.953917 140.374853 
L 198.748721 142.464941 
L 198.645674 142.637914 
L 198.542324 141.42156 
L 198.230444 132.854972 
L 198.125867 133.696551 
L 197.915779 135.507221 
L 197.810264 136.629327 
L 197.704432 135.959612 
L 197.598281 136.125932 
L 197.491809 135.031546 
L 197.277896 135.115815 
L 197.062677 138.015327 
L 196.954573 137.878944 
L 196.846136 138.530919 
L 196.737365 137.529672 
L 196.628257 138.290309 
L 196.51881 136.771253 
L 196.409022 137.387746 
L 195.854894 131.833767 
L 195.743016 132.153101 
L 195.630781 133.165436 
L 195.291916 138.017544 
L 195.178234 137.826831 
L 194.834969 130.271468 
L 194.719801 129.274656 
L 194.604255 129.472023 
L 194.255327 132.365991 
L 194.020774 135.15684 
L 193.90291 135.476175 
L 193.640094 133.638893 
L 193.562282 136.563908 
L 193.588238 133.202026 
L 193.536306 134.097936 
L 193.40614 127.730098 
L 193.380049 130.522056 
L 193.340876 126.851928 
L 193.288578 129.377775 
L 193.2624 129.663845 
L 193.249304 128.742432 
L 193.223096 127.383044 
L 193.170623 129.5951 
L 193.144357 132.802858 
L 193.065441 131.089762 
L 192.893849 127.16461 
L 193.025917 132.07992 
L 192.880615 128.13481 
L 192.787837 133.182068 
L 192.734712 131.503344 
L 192.654873 131.101959 
L 192.628219 132.991354 
L 192.601546 129.370013 
L 192.588202 127.052621 
L 192.50803 130.187199 
L 192.49465 129.667172 
L 192.467875 126.733287 
L 192.387429 128.663708 
L 192.374003 128.759064 
L 192.360572 128.596071 
L 192.266414 123.7739 
L 192.225983 127.607021 
L 192.199003 131.72954 
L 192.104412 129.875626 
L 192.090878 130.656221 
L 192.050245 128.898773 
L 192.009565 130.189416 
L 191.846376 125.906122 
L 191.955253 130.39898 
L 191.832742 125.997044 
L 191.791811 128.405357 
L 191.655028 133.435983 
L 191.64132 131.690732 
L 191.503951 127.095864 
L 191.28304 136.199112 
L 191.199841 134.988303 
L 191.227596 137.30126 
L 191.185955 135.613666 
L 191.158167 137.676034 
L 191.130357 135.181234 
L 191.088602 135.465087 
L 191.03285 135.557117 
L 190.935072 132.28394 
L 190.921082 132.528984 
L 190.893084 131.79385 
L 190.865064 130.931204 
L 190.808958 132.656496 
L 190.738699 135.62808 
L 190.710556 133.643328 
L 190.569504 129.593991 
L 190.498765 130.597455 
L 190.342639 136.057186 
L 190.299939 135.458434 
L 190.228657 137.918861 
L 190.214383 135.307637 
L 190.071328 126.338554 
L 190.028297 128.312218 
L 189.942079 127.520535 
L 189.913293 126.997181 
L 189.870069 127.951858 
L 189.841224 129.15158 
L 189.769007 128.178053 
L 189.624128 125.308479 
L 189.725606 128.424207 
L 189.609608 125.743128 
L 189.507795 129.540768 
L 189.493227 128.007298 
L 189.391077 127.089212 
L 189.449484 128.317762 
L 189.37646 127.217832 
L 189.28863 128.688101 
L 189.259305 131.460101 
L 189.185885 128.555045 
L 189.156474 127.503903 
L 189.08284 128.572786 
L 189.068094 129.085052 
L 189.038585 127.157957 
L 189.023821 126.03696 
L 188.964703 129.011871 
L 188.9203 133.320668 
L 188.87584 129.830165 
L 188.742124 126.256503 
L 188.727236 126.284223 
L 188.473162 133.695442 
L 188.398084 132.399255 
L 188.277626 126.907368 
L 188.247447 127.798844 
L 188.111322 133.38276 
L 188.096164 132.971396 
L 188.035469 128.460797 
L 187.89852 117.66552 
L 187.883271 119.758935 
L 187.852752 122.130658 
L 187.791636 117.797468 
L 187.761038 116.145356 
L 187.715091 118.084647 
L 187.699762 118.084647 
L 187.669084 118.193309 
L 187.63838 117.919436 
L 187.453588 123.516658 
L 187.422695 123.379167 
L 187.376305 127.81104 
L 187.329853 124.859415 
L 187.28334 120.359904 
L 187.205682 122.347983 
L 187.096673 125.951583 
L 187.065466 124.754079 
L 186.893328 132.169733 
L 186.79908 129.466479 
L 186.783347 129.394407 
L 186.767608 129.547421 
L 186.736107 129.993159 
L 186.720347 129.310138 
L 186.609823 123.305986 
L 186.514813 123.776117 
L 186.419545 128.505149 
L 186.403643 129.657192 
L 186.308074 129.524136 
L 186.116155 117.43489 
L 186.003719 119.240016 
L 185.84247 122.974455 
L 185.826304 123.11749 
L 185.810131 121.979861 
L 185.761568 125.694341 
L 185.745365 125.626704 
L 185.696712 128.955322 
L 185.615475 127.743404 
L 185.55035 127.15574 
L 185.32146 120.489634 
L 185.305054 120.423106 
L 185.272218 120.720264 
L 185.222908 121.234748 
L 185.14057 121.095039 
L 185.124079 121.234748 
L 185.10758 120.776813 
L 185.091074 120.17917 
L 185.041509 122.329133 
L 185.008427 120.366557 
L 184.975314 121.866764 
L 184.958746 122.999957 
L 184.875788 121.217007 
L 184.859173 120.217978 
L 184.80928 121.990949 
L 184.775979 120.79788 
L 184.709283 120.762399 
L 184.59226 126.011458 
L 184.491645 118.677855 
L 184.407579 119.418533 
L 184.373896 120.489634 
L 184.289548 119.660252 
L 184.255753 118.27536 
L 184.154171 118.295319 
L 184.137212 118.201071 
L 184.120245 118.327474 
L 183.933067 126.67452 
L 183.898928 125.624487 
L 183.659021 117.004676 
L 183.6074 119.214514 
L 183.555703 116.874946 
L 183.503929 116.310567 
L 183.469372 116.717496 
L 183.296073 120.020612 
L 183.121918 116.956997 
L 183.226514 120.808968 
L 183.104455 117.876192 
L 183.069503 119.157965 
L 183.01701 117.27744 
L 182.999495 116.989152 
L 182.946898 117.7764 
L 182.911789 119.013821 
L 182.841467 124.444724 
L 182.735721 123.370296 
L 182.647355 119.376399 
L 182.611947 121.127194 
L 182.576503 120.565032 
L 182.541023 122.162813 
L 182.43437 123.9125 
L 182.416563 123.619776 
L 182.22009 126.532594 
L 182.327393 123.197324 
L 182.202175 126.317487 
L 182.022516 119.518325 
L 182.0045 119.974042 
L 181.96844 121.091712 
L 181.950396 119.866488 
L 181.91428 118.55256 
L 181.841937 118.979448 
L 181.80571 121.297949 
L 181.714979 120.04057 
L 181.696805 119.734541 
L 181.678622 120.410909 
L 181.642226 121.671615 
L 181.605793 120.263439 
L 181.569323 120.84445 
L 181.514546 122.49878 
L 181.47798 124.385957 
L 181.441377 121.71264 
L 181.331339 116.953671 
L 181.294583 118.89518 
L 181.147175 124.157544 
L 180.962043 121.1405 
L 180.9249 122.303631 
L 180.887718 120.810077 
L 180.775935 118.038077 
L 180.831871 120.923175 
L 180.738595 118.624632 
L 180.663796 116.461364 
L 180.607592 114.791511 
L 180.551299 115.964621 
L 180.494916 115.579868 
L 180.438442 113.264693 
L 180.363003 113.878968 
L 180.268477 114.530943 
L 180.192673 116.962541 
L 180.059622 125.855117 
L 180.021515 123.099749 
L 179.945177 113.769197 
L 179.868674 115.139674 
L 179.811187 117.932741 
L 179.753606 116.269541 
L 179.695932 115.64196 
L 179.676686 116.062196 
L 179.657429 116.710844 
L 179.618885 115.101975 
L 179.522339 113.514173 
L 179.502998 114.380146 
L 179.444911 117.641349 
L 177.62102 118.344993 
L 177.435009 118.296206 
L 177.248012 118.40376 
L 177.060017 119.59572 
L 176.489941 117.434668 
L 176.297848 118.760793 
L 175.715208 116.618592 
L 175.518835 117.69191 
L 175.321362 117.47902 
L 175.122776 119.237577 
L 174.923065 118.022332 
L 174.722215 117.79392 
L 174.317051 114.057264 
L 174.112709 113.543889 
L 173.907175 114.126009 
L 173.700436 115.923374 
L 173.492477 116.00099 
L 173.283284 117.028848 
L 172.648151 112.562601 
L 172.433872 112.571472 
L 172.218281 112.788796 
L 171.783104 110.000164 
L 171.563484 110.023449 
L 171.120095 111.721022 
L 170.896292 110.680968 
L 170.671058 110.763019 
L 170.216227 110.116588 
L 169.522784 115.346798 
L 169.288571 114.518524 
L 169.052791 114.601684 
L 168.576447 108.926846 
L 168.335839 108.110769 
L 168.093577 108.83038 
L 167.849639 110.517974 
L 167.356639 109.843824 
L 167.107529 109.826083 
L 166.856646 110.311737 
L 166.603965 109.88374 
L 166.349459 110.052278 
L 166.093102 108.451171 
L 165.834867 108.920193 
L 165.312651 108.28596 
L 165.048613 106.467528 
L 164.782582 107.01084 
L 164.514528 108.340291 
L 164.24442 111.100094 
L 163.972227 110.248536 
L 163.421451 104.856441 
L 163.142802 104.439532 
L 162.861933 104.720059 
L 162.578807 104.331979 
L 162.293389 104.246601 
L 162.005642 103.047988 
L 161.715525 105.117009 
L 161.423001 103.383955 
L 161.12803 103.184371 
L 160.830569 102.82512 
L 160.228008 103.667808 
L 159.922821 102.894974 
L 159.614968 104.466144 
L 159.304403 105.312158 
L 158.991077 104.934057 
L 158.674941 104.830939 
L 158.355944 105.150273 
L 158.034034 104.926296 
L 157.709157 102.6211 
L 157.381258 101.75291 
L 157.05028 101.767324 
L 156.716164 101.352633 
L 156.378851 99.598512 
L 156.038279 98.860051 
L 155.694385 97.78895 
L 155.347102 98.155963 
L 154.996364 97.617086 
L 154.6421 98.30676 
L 154.28424 97.61376 
L 153.922709 97.303296 
L 153.557432 97.934203 
L 153.18833 99.880147 
L 152.815323 97.950835 
L 152.438325 96.783268 
L 152.057252 94.666569 
L 151.672014 99.198235 
L 151.282519 100.030944 
L 150.888673 99.972177 
L 150.490375 97.212374 
L 150.087526 98.015145 
L 149.68002 97.950835 
L 149.267747 97.080427 
L 148.850595 95.707732 
L 148.428447 93.434692 
L 147.568675 91.448832 
L 146.687406 94.001289 
L 146.238369 92.560958 
L 145.783538 92.595331 
L 145.322761 91.23816 
L 144.855881 91.057425 
L 144.382734 91.791451 
L 143.90315 93.124228 
L 143.41695 93.859363 
L 142.92395 91.753752 
L 142.423957 87.887366 
L 141.91677 87.106771 
L 141.402178 87.638995 
L 140.879962 89.451883 
L 140.349893 88.598107 
L 139.811731 87.188822 
L 139.265226 87.050222 
L 138.710113 88.057012 
L 138.146118 87.092356 
L 137.572952 86.914948 
L 136.990312 87.376209 
L 136.39788 90.684868 
L 135.795319 91.401153 
L 135.182279 89.521737 
L 134.558388 86.76526 
L 133.923255 85.378152 
L 133.276468 83.342395 
L 132.617591 83.015299 
L 131.946162 82.079472 
L 131.261696 83.0785 
L 129.851551 83.860204 
L 129.124743 84.212803 
L 128.382633 83.538652 
L 127.624563 83.62403 
L 126.84983 82.233595 
L 126.057686 84.027633 
L 125.247331 83.066304 
L 124.417906 84.857016 
L 123.568493 82.954315 
L 121.80568 81.185779 
L 120.890072 81.772334 
L 118.984261 86.231928 
L 117.991268 85.542254 
L 116.969489 84.644126 
L 115.917204 84.126316 
L 114.832536 84.287092 
L 113.713429 84.692913 
L 112.557623 82.735881 
L 111.36263 82.905528 
L 110.125699 82.712596 
L 108.843779 84.045374 
L 107.513473 84.319248 
L 104.692054 87.836361 
L 103.191874 88.916332 
L 99.985217 89.333241 
L 98.08873 90.75694 
L 96.826485 85.109822 
L 96.642417 85.383696 
L 96.457383 86.015712 
L 96.271373 87.220977 
L 95.707378 93.781747 
L 95.134212 96.911889 
L 94.941067 96.817641 
L 94.746857 96.889713 
L 94.157725 92.525476 
L 93.558579 87.867408 
L 93.356579 87.962764 
L 93.153415 88.880851 
L 92.949072 90.438715 
L 92.743539 90.556248 
L 92.5368 90.325617 
L 92.328841 90.493046 
L 91.909206 91.260336 
L 91.484515 93.141969 
L 91.270235 93.034416 
L 90.837728 91.07184 
L 90.619467 90.780225 
L 90.17885 89.374267 
L 89.956459 89.521737 
L 89.052591 95.536977 
L 88.591814 93.642038 
L 88.359147 93.683064 
L 87.889155 94.802952 
L 87.412811 95.041344 
L 87.172203 95.51591 
L 86.686003 95.729908 
L 86.193003 94.551254 
L 85.943893 94.614456 
L 85.69301 94.856174 
L 85.440329 95.263104 
L 84.929466 94.948204 
L 83.884977 92.24495 
L 83.618946 92.310369 
L 83.350892 92.894707 
L 83.080784 94.979251 
L 82.80859 96.086942 
L 82.534278 95.838571 
L 81.698296 88.75223 
L 81.415171 89.015016 
L 80.842005 90.58175 
L 80.551889 89.966366 
L 80.259365 90.094987 
L 79.964393 89.94419 
L 79.666932 91.374542 
L 79.064372 93.189648 
L 78.759185 93.221803 
L 78.451332 93.370382 
L 78.140767 94.031227 
L 77.827441 94.118822 
L 77.160249 93.664214 
L 76.999515 94.605585 
L 76.805662 93.52894 
L 76.675831 93.358185 
L 76.480185 94.031227 
L 76.381952 94.026792 
L 76.217622 93.544464 
L 75.986264 94.309536 
L 75.853374 94.809604 
L 75.719981 95.623464 
L 75.552528 94.432612 
L 75.384275 96.099139 
L 75.181306 94.550145 
L 75.079381 94.326168 
L 74.874643 95.941689 
L 74.737488 97.855478 
L 74.461565 95.906208 
L 74.392246 95.906208 
L 74.218348 94.745294 
L 74.183466 94.771905 
L 74.043589 94.825128 
L 73.832727 95.889576 
L 73.832727 95.889576 
" clip-path="url(#pec4b11a21d)" style="fill: none; stroke: #ff0000; stroke-width: 1.5; stroke-linecap: square"/>
   </g>
   <g id="patch_3">
    <path d="M 57.6 307.584 
L 57.6 41.472 
" style="fill: none; stroke: #000000; stroke-width: 0.8; stroke-linejoin: miter; stroke-linecap: square"/>
   </g>
   <g id="patch_4">
    <path d="M 414.72 307.584 
L 414.72 41.472 
" style="fill: none; stroke: #000000; stroke-width: 0.8; stroke-linejoin: miter; stroke-linecap: square"/>
   </g>
   <g id="patch_5">
    <path d="M 57.6 307.584 
L 414.72 307.584 
" style="fill: none; stroke: #000000; stroke-width: 0.8; stroke-linejoin: miter; stroke-linecap: square"/>
   </g>
   <g id="patch_6">
    <path d="M 57.6 41.472 
L 414.72 41.472 
" style="fill: none; stroke: #000000; stroke-width: 0.8; stroke-linejoin: miter; stroke-linecap: square"/>
   </g>
   <g id="text_17">
    <!-- VCO1 STuW81300 -->
    <g transform="translate(182.029687 35.472)scale(0.12 -0.12)">
     <defs>
      <path id="DejaVuSans-56" d="M 1831 0 
L 50 4666 
L 709 4666 
L 2188 738 
L 3669 4666 
L 4325 4666 
L 2547 0 
L 1831 0 
z
" transform="scale(0.015625)"/>
      <path id="DejaVuSans-43" d="M 4122 4306 
L 4122 3641 
Q 3803 3938 3442 4084 
Q 3081 4231 2675 4231 
Q 1875 4231 1450 3742 
Q 1025 3253 1025 2328 
Q 1025 1406 1450 917 
Q 1875 428 2675 428 
Q 3081 428 3442 575 
Q 3803 722 4122 1019 
L 4122 359 
Q 3791 134 3420 21 
Q 3050 -91 2638 -91 
Q 1578 -91 968 557 
Q 359 1206 359 2328 
Q 359 3453 968 4101 
Q 1578 4750 2638 4750 
Q 3056 4750 3426 4639 
Q 3797 4528 4122 4306 
z
" transform="scale(0.015625)"/>
      <path id="DejaVuSans-4f" d="M 2522 4238 
Q 1834 4238 1429 3725 
Q 1025 3213 1025 2328 
Q 1025 1447 1429 934 
Q 1834 422 2522 422 
Q 3209 422 3611 934 
Q 4013 1447 4013 2328 
Q 4013 3213 3611 3725 
Q 3209 4238 2522 4238 
z
M 2522 4750 
Q 3503 4750 4090 4092 
Q 4678 3434 4678 2328 
Q 4678 1225 4090 567 
Q 3503 -91 2522 -91 
Q 1538 -91 948 565 
Q 359 1222 359 2328 
Q 359 3434 948 4092 
Q 1538 4750 2522 4750 
z
" transform="scale(0.015625)"/>
      <path id="DejaVuSans-53" d="M 3425 4513 
L 3425 3897 
Q 3066 4069 2747 4153 
Q 2428 4238 2131 4238 
Q 1616 4238 1336 4038 
Q 1056 3838 1056 3469 
Q 1056 3159 1242 3001 
Q 1428 2844 1947 2747 
L 2328 2669 
Q 3034 2534 3370 2195 
Q 3706 1856 3706 1288 
Q 3706 609 3251 259 
Q 2797 -91 1919 -91 
Q 1588 -91 1214 -16 
Q 841 59 441 206 
L 441 856 
Q 825 641 1194 531 
Q 1563 422 1919 422 
Q 2459 422 2753 634 
Q 3047 847 3047 1241 
Q 3047 1584 2836 1778 
Q 2625 1972 2144 2069 
L 1759 2144 
Q 1053 2284 737 2584 
Q 422 2884 422 3419 
Q 422 4038 858 4394 
Q 1294 4750 2059 4750 
Q 2388 4750 2728 4690 
Q 3069 4631 3425 4513 
z
" transform="scale(0.015625)"/>
      <path id="DejaVuSans-54" d="M -19 4666 
L 3928 4666 
L 3928 4134 
L 2272 4134 
L 2272 0 
L 1638 0 
L 1638 4134 
L -19 4134 
L -19 4666 
z
" transform="scale(0.015625)"/>
      <path id="DejaVuSans-57" d="M 213 4666 
L 850 4666 
L 1831 722 
L 2809 4666 
L 3519 4666 
L 4500 722 
L 5478 4666 
L 6119 4666 
L 4947 0 
L 4153 0 
L 3169 4050 
L 2175 0 
L 1381 0 
L 213 4666 
z
" transform="scale(0.015625)"/>
     </defs>
     <use xlink:href="#DejaVuSans-56"/>
     <use xlink:href="#DejaVuSans-43" x="68.408203"/>
     <use xlink:href="#DejaVuSans-4f" x="138.232422"/>
     <use xlink:href="#DejaVuSans-31" x="216.943359"/>
     <use xlink:href="#DejaVuSans-20" x="280.566406"/>
     <use xlink:href="#DejaVuSans-53" x="312.353516"/>
     <use xlink:href="#DejaVuSans-54" x="375.830078"/>
     <use xlink:href="#DejaVuSans-75" x="421.789062"/>
     <use xlink:href="#DejaVuSans-57" x="485.167969"/>
     <use xlink:href="#DejaVuSans-38" x="584.044922"/>
     <use xlink:href="#DejaVuSans-31" x="647.667969"/>
     <use xlink:href="#DejaVuSans-33" x="711.291016"/>
     <use xlink:href="#DejaVuSans-30" x="774.914062"/>
     <use xlink:href="#DejaVuSans-30" x="838.537109"/>
    </g>
   </g>
   <g id="legend_1">
    <g id="patch_7">
     <path d="M 345.662188 64.150125 
L 407.72 64.150125 
Q 409.72 64.150125 409.72 62.150125 
L 409.72 48.472 
Q 409.72 46.472 407.72 46.472 
L 345.662188 46.472 
Q 343.662188 46.472 343.662188 48.472 
L 343.662188 62.150125 
Q 343.662188 64.150125 345.662188 64.150125 
z
" style="fill: #ffffff; opacity: 0.8; stroke: #cccccc; stroke-linejoin: miter"/>
    </g>
    <g id="line2d_51">
     <path d="M 347.662188 54.570438 
L 357.662188 54.570438 
L 367.662188 54.570438 
" style="fill: none; stroke: #ff0000; stroke-width: 1.5; stroke-linecap: square"/>
    </g>
    <g id="text_18">
     <!-- 5 GHz -->
     <g transform="translate(375.662188 58.070438)scale(0.1 -0.1)">
      <defs>
       <path id="DejaVuSans-47" d="M 3809 666 
L 3809 1919 
L 2778 1919 
L 2778 2438 
L 4434 2438 
L 4434 434 
Q 4069 175 3628 42 
Q 3188 -91 2688 -91 
Q 1594 -91 976 548 
Q 359 1188 359 2328 
Q 359 3472 976 4111 
Q 1594 4750 2688 4750 
Q 3144 4750 3555 4637 
Q 3966 4525 4313 4306 
L 4313 3634 
Q 3963 3931 3569 4081 
Q 3175 4231 2741 4231 
Q 1884 4231 1454 3753 
Q 1025 3275 1025 2328 
Q 1025 1384 1454 906 
Q 1884 428 2741 428 
Q 3075 428 3337 486 
Q 3600 544 3809 666 
z
" transform="scale(0.015625)"/>
      </defs>
      <use xlink:href="#DejaVuSans-35"/>
      <use xlink:href="#DejaVuSans-20" x="63.623047"/>
      <use xlink:href="#DejaVuSans-47" x="95.410156"/>
      <use xlink:href="#DejaVuSans-48" x="172.900391"/>
      <use xlink:href="#DejaVuSans-7a" x="248.095703"/>
     </g>
    </g>
   </g>
  </g>
 </g>
 <defs>
  <clipPath id="pec4b11a21d">
   <rect x="57.6" y="41.472" width="357.12" height="266.112"/>
  </clipPath>
 </defs>
</svg>
