<?xml version="1.0" encoding="utf-8" standalone="no"?>
<!DOCTYPE svg PUBLIC "-//W3C//DTD SVG 1.1//EN"
  "http://www.w3.org/Graphics/SVG/1.1/DTD/svg11.dtd">
<svg xmlns:xlink="http://www.w3.org/1999/xlink" width="460.8pt" height="345.6pt" viewBox="0 0 460.8 345.6" xmlns="http://www.w3.org/2000/svg" version="1.1">
 <metadata>
  <rdf:RDF xmlns:dc="http://purl.org/dc/elements/1.1/" xmlns:cc="http://creativecommons.org/ns#" xmlns:rdf="http://www.w3.org/1999/02/22-rdf-syntax-ns#">
   <cc:Work>
    <dc:type rdf:resource="http://purl.org/dc/dcmitype/StillImage"/>
    <dc:date>2022-09-18T11:52:51.467131</dc:date>
    <dc:format>image/svg+xml</dc:format>
    <dc:creator>
     <cc:Agent>
      <dc:title>Matplotlib v3.5.1, https://matplotlib.org/</dc:title>
     </cc:Agent>
    </dc:creator>
   </cc:Work>
  </rdf:RDF>
 </metadata>
 <defs>
  <style type="text/css">*{stroke-linejoin: round; stroke-linecap: butt}</style>
 </defs>
 <g id="figure_1">
  <g id="patch_1">
   <path d="M 0 345.6 
L 460.8 345.6 
L 460.8 0 
L 0 0 
z
" style="fill: #ffffff"/>
  </g>
  <g id="axes_1">
   <g id="patch_2">
    <path d="M 57.6 307.584 
L 414.72 307.584 
L 414.72 41.472 
L 57.6 41.472 
z
" style="fill: #ffffff"/>
   </g>
   <g id="matplotlib.axis_1">
    <g id="xtick_1">
     <g id="line2d_1">
      <defs>
       <path id="m5c25e6bed7" d="M 0 0 
L 0 3.5 
" style="stroke: #000000; stroke-width: 0.8"/>
      </defs>
      <g>
       <use xlink:href="#m5c25e6bed7" x="73.832727" y="307.584" style="stroke: #000000; stroke-width: 0.8"/>
      </g>
     </g>
     <g id="text_1">
      <!-- $\mathdefault{10^{3}}$ -->
      <g transform="translate(65.032727 322.182437)scale(0.1 -0.1)">
       <defs>
        <path id="DejaVuSans-31" d="M 794 531 
L 1825 531 
L 1825 4091 
L 703 3866 
L 703 4441 
L 1819 4666 
L 2450 4666 
L 2450 531 
L 3481 531 
L 3481 0 
L 794 0 
L 794 531 
z
" transform="scale(0.015625)"/>
        <path id="DejaVuSans-30" d="M 2034 4250 
Q 1547 4250 1301 3770 
Q 1056 3291 1056 2328 
Q 1056 1369 1301 889 
Q 1547 409 2034 409 
Q 2525 409 2770 889 
Q 3016 1369 3016 2328 
Q 3016 3291 2770 3770 
Q 2525 4250 2034 4250 
z
M 2034 4750 
Q 2819 4750 3233 4129 
Q 3647 3509 3647 2328 
Q 3647 1150 3233 529 
Q 2819 -91 2034 -91 
Q 1250 -91 836 529 
Q 422 1150 422 2328 
Q 422 3509 836 4129 
Q 1250 4750 2034 4750 
z
" transform="scale(0.015625)"/>
        <path id="DejaVuSans-33" d="M 2597 2516 
Q 3050 2419 3304 2112 
Q 3559 1806 3559 1356 
Q 3559 666 3084 287 
Q 2609 -91 1734 -91 
Q 1441 -91 1130 -33 
Q 819 25 488 141 
L 488 750 
Q 750 597 1062 519 
Q 1375 441 1716 441 
Q 2309 441 2620 675 
Q 2931 909 2931 1356 
Q 2931 1769 2642 2001 
Q 2353 2234 1838 2234 
L 1294 2234 
L 1294 2753 
L 1863 2753 
Q 2328 2753 2575 2939 
Q 2822 3125 2822 3475 
Q 2822 3834 2567 4026 
Q 2313 4219 1838 4219 
Q 1578 4219 1281 4162 
Q 984 4106 628 3988 
L 628 4550 
Q 988 4650 1302 4700 
Q 1616 4750 1894 4750 
Q 2613 4750 3031 4423 
Q 3450 4097 3450 3541 
Q 3450 3153 3228 2886 
Q 3006 2619 2597 2516 
z
" transform="scale(0.015625)"/>
       </defs>
       <use xlink:href="#DejaVuSans-31" transform="translate(0 0.765625)"/>
       <use xlink:href="#DejaVuSans-30" transform="translate(63.623047 0.765625)"/>
       <use xlink:href="#DejaVuSans-33" transform="translate(128.203125 39.046875)scale(0.7)"/>
      </g>
     </g>
    </g>
    <g id="xtick_2">
     <g id="line2d_2">
      <g>
       <use xlink:href="#m5c25e6bed7" x="154.996364" y="307.584" style="stroke: #000000; stroke-width: 0.8"/>
      </g>
     </g>
     <g id="text_2">
      <!-- $\mathdefault{10^{4}}$ -->
      <g transform="translate(146.196364 322.182437)scale(0.1 -0.1)">
       <defs>
        <path id="DejaVuSans-34" d="M 2419 4116 
L 825 1625 
L 2419 1625 
L 2419 4116 
z
M 2253 4666 
L 3047 4666 
L 3047 1625 
L 3713 1625 
L 3713 1100 
L 3047 1100 
L 3047 0 
L 2419 0 
L 2419 1100 
L 313 1100 
L 313 1709 
L 2253 4666 
z
" transform="scale(0.015625)"/>
       </defs>
       <use xlink:href="#DejaVuSans-31" transform="translate(0 0.684375)"/>
       <use xlink:href="#DejaVuSans-30" transform="translate(63.623047 0.684375)"/>
       <use xlink:href="#DejaVuSans-34" transform="translate(128.203125 38.965625)scale(0.7)"/>
      </g>
     </g>
    </g>
    <g id="xtick_3">
     <g id="line2d_3">
      <g>
       <use xlink:href="#m5c25e6bed7" x="236.16" y="307.584" style="stroke: #000000; stroke-width: 0.8"/>
      </g>
     </g>
     <g id="text_3">
      <!-- $\mathdefault{10^{5}}$ -->
      <g transform="translate(227.36 322.182437)scale(0.1 -0.1)">
       <defs>
        <path id="DejaVuSans-35" d="M 691 4666 
L 3169 4666 
L 3169 4134 
L 1269 4134 
L 1269 2991 
Q 1406 3038 1543 3061 
Q 1681 3084 1819 3084 
Q 2600 3084 3056 2656 
Q 3513 2228 3513 1497 
Q 3513 744 3044 326 
Q 2575 -91 1722 -91 
Q 1428 -91 1123 -41 
Q 819 9 494 109 
L 494 744 
Q 775 591 1075 516 
Q 1375 441 1709 441 
Q 2250 441 2565 725 
Q 2881 1009 2881 1497 
Q 2881 1984 2565 2268 
Q 2250 2553 1709 2553 
Q 1456 2553 1204 2497 
Q 953 2441 691 2322 
L 691 4666 
z
" transform="scale(0.015625)"/>
       </defs>
       <use xlink:href="#DejaVuSans-31" transform="translate(0 0.684375)"/>
       <use xlink:href="#DejaVuSans-30" transform="translate(63.623047 0.684375)"/>
       <use xlink:href="#DejaVuSans-35" transform="translate(128.203125 38.965625)scale(0.7)"/>
      </g>
     </g>
    </g>
    <g id="xtick_4">
     <g id="line2d_4">
      <g>
       <use xlink:href="#m5c25e6bed7" x="317.323636" y="307.584" style="stroke: #000000; stroke-width: 0.8"/>
      </g>
     </g>
     <g id="text_4">
      <!-- $\mathdefault{10^{6}}$ -->
      <g transform="translate(308.523636 322.182437)scale(0.1 -0.1)">
       <defs>
        <path id="DejaVuSans-36" d="M 2113 2584 
Q 1688 2584 1439 2293 
Q 1191 2003 1191 1497 
Q 1191 994 1439 701 
Q 1688 409 2113 409 
Q 2538 409 2786 701 
Q 3034 994 3034 1497 
Q 3034 2003 2786 2293 
Q 2538 2584 2113 2584 
z
M 3366 4563 
L 3366 3988 
Q 3128 4100 2886 4159 
Q 2644 4219 2406 4219 
Q 1781 4219 1451 3797 
Q 1122 3375 1075 2522 
Q 1259 2794 1537 2939 
Q 1816 3084 2150 3084 
Q 2853 3084 3261 2657 
Q 3669 2231 3669 1497 
Q 3669 778 3244 343 
Q 2819 -91 2113 -91 
Q 1303 -91 875 529 
Q 447 1150 447 2328 
Q 447 3434 972 4092 
Q 1497 4750 2381 4750 
Q 2619 4750 2861 4703 
Q 3103 4656 3366 4563 
z
" transform="scale(0.015625)"/>
       </defs>
       <use xlink:href="#DejaVuSans-31" transform="translate(0 0.765625)"/>
       <use xlink:href="#DejaVuSans-30" transform="translate(63.623047 0.765625)"/>
       <use xlink:href="#DejaVuSans-36" transform="translate(128.203125 39.046875)scale(0.7)"/>
      </g>
     </g>
    </g>
    <g id="xtick_5">
     <g id="line2d_5">
      <g>
       <use xlink:href="#m5c25e6bed7" x="398.487273" y="307.584" style="stroke: #000000; stroke-width: 0.8"/>
      </g>
     </g>
     <g id="text_5">
      <!-- $\mathdefault{10^{7}}$ -->
      <g transform="translate(389.687273 322.182437)scale(0.1 -0.1)">
       <defs>
        <path id="DejaVuSans-37" d="M 525 4666 
L 3525 4666 
L 3525 4397 
L 1831 0 
L 1172 0 
L 2766 4134 
L 525 4134 
L 525 4666 
z
" transform="scale(0.015625)"/>
       </defs>
       <use xlink:href="#DejaVuSans-31" transform="translate(0 0.684375)"/>
       <use xlink:href="#DejaVuSans-30" transform="translate(63.623047 0.684375)"/>
       <use xlink:href="#DejaVuSans-37" transform="translate(128.203125 38.965625)scale(0.7)"/>
      </g>
     </g>
    </g>
    <g id="xtick_6">
     <g id="line2d_6">
      <defs>
       <path id="mc231b5b7dc" d="M 0 0 
L 0 2 
" style="stroke: #000000; stroke-width: 0.6"/>
      </defs>
      <g>
       <use xlink:href="#mc231b5b7dc" x="61.260321" y="307.584" style="stroke: #000000; stroke-width: 0.6"/>
      </g>
     </g>
    </g>
    <g id="xtick_7">
     <g id="line2d_7">
      <g>
       <use xlink:href="#mc231b5b7dc" x="65.967158" y="307.584" style="stroke: #000000; stroke-width: 0.6"/>
      </g>
     </g>
    </g>
    <g id="xtick_8">
     <g id="line2d_8">
      <g>
       <use xlink:href="#mc231b5b7dc" x="70.118883" y="307.584" style="stroke: #000000; stroke-width: 0.6"/>
      </g>
     </g>
    </g>
    <g id="xtick_9">
     <g id="line2d_9">
      <g>
       <use xlink:href="#mc231b5b7dc" x="98.265416" y="307.584" style="stroke: #000000; stroke-width: 0.6"/>
      </g>
     </g>
    </g>
    <g id="xtick_10">
     <g id="line2d_10">
      <g>
       <use xlink:href="#mc231b5b7dc" x="112.557623" y="307.584" style="stroke: #000000; stroke-width: 0.6"/>
      </g>
     </g>
    </g>
    <g id="xtick_11">
     <g id="line2d_11">
      <g>
       <use xlink:href="#mc231b5b7dc" x="122.698105" y="307.584" style="stroke: #000000; stroke-width: 0.6"/>
      </g>
     </g>
    </g>
    <g id="xtick_12">
     <g id="line2d_12">
      <g>
       <use xlink:href="#mc231b5b7dc" x="130.563675" y="307.584" style="stroke: #000000; stroke-width: 0.6"/>
      </g>
     </g>
    </g>
    <g id="xtick_13">
     <g id="line2d_13">
      <g>
       <use xlink:href="#mc231b5b7dc" x="136.990312" y="307.584" style="stroke: #000000; stroke-width: 0.6"/>
      </g>
     </g>
    </g>
    <g id="xtick_14">
     <g id="line2d_14">
      <g>
       <use xlink:href="#mc231b5b7dc" x="142.423957" y="307.584" style="stroke: #000000; stroke-width: 0.6"/>
      </g>
     </g>
    </g>
    <g id="xtick_15">
     <g id="line2d_15">
      <g>
       <use xlink:href="#mc231b5b7dc" x="147.130795" y="307.584" style="stroke: #000000; stroke-width: 0.6"/>
      </g>
     </g>
    </g>
    <g id="xtick_16">
     <g id="line2d_16">
      <g>
       <use xlink:href="#mc231b5b7dc" x="151.282519" y="307.584" style="stroke: #000000; stroke-width: 0.6"/>
      </g>
     </g>
    </g>
    <g id="xtick_17">
     <g id="line2d_17">
      <g>
       <use xlink:href="#mc231b5b7dc" x="179.429053" y="307.584" style="stroke: #000000; stroke-width: 0.6"/>
      </g>
     </g>
    </g>
    <g id="xtick_18">
     <g id="line2d_18">
      <g>
       <use xlink:href="#mc231b5b7dc" x="193.72126" y="307.584" style="stroke: #000000; stroke-width: 0.6"/>
      </g>
     </g>
    </g>
    <g id="xtick_19">
     <g id="line2d_19">
      <g>
       <use xlink:href="#mc231b5b7dc" x="203.861742" y="307.584" style="stroke: #000000; stroke-width: 0.6"/>
      </g>
     </g>
    </g>
    <g id="xtick_20">
     <g id="line2d_20">
      <g>
       <use xlink:href="#mc231b5b7dc" x="211.727311" y="307.584" style="stroke: #000000; stroke-width: 0.6"/>
      </g>
     </g>
    </g>
    <g id="xtick_21">
     <g id="line2d_21">
      <g>
       <use xlink:href="#mc231b5b7dc" x="218.153949" y="307.584" style="stroke: #000000; stroke-width: 0.6"/>
      </g>
     </g>
    </g>
    <g id="xtick_22">
     <g id="line2d_22">
      <g>
       <use xlink:href="#mc231b5b7dc" x="223.587594" y="307.584" style="stroke: #000000; stroke-width: 0.6"/>
      </g>
     </g>
    </g>
    <g id="xtick_23">
     <g id="line2d_23">
      <g>
       <use xlink:href="#mc231b5b7dc" x="228.294431" y="307.584" style="stroke: #000000; stroke-width: 0.6"/>
      </g>
     </g>
    </g>
    <g id="xtick_24">
     <g id="line2d_24">
      <g>
       <use xlink:href="#mc231b5b7dc" x="232.446156" y="307.584" style="stroke: #000000; stroke-width: 0.6"/>
      </g>
     </g>
    </g>
    <g id="xtick_25">
     <g id="line2d_25">
      <g>
       <use xlink:href="#mc231b5b7dc" x="260.592689" y="307.584" style="stroke: #000000; stroke-width: 0.6"/>
      </g>
     </g>
    </g>
    <g id="xtick_26">
     <g id="line2d_26">
      <g>
       <use xlink:href="#mc231b5b7dc" x="274.884896" y="307.584" style="stroke: #000000; stroke-width: 0.6"/>
      </g>
     </g>
    </g>
    <g id="xtick_27">
     <g id="line2d_27">
      <g>
       <use xlink:href="#mc231b5b7dc" x="285.025378" y="307.584" style="stroke: #000000; stroke-width: 0.6"/>
      </g>
     </g>
    </g>
    <g id="xtick_28">
     <g id="line2d_28">
      <g>
       <use xlink:href="#mc231b5b7dc" x="292.890947" y="307.584" style="stroke: #000000; stroke-width: 0.6"/>
      </g>
     </g>
    </g>
    <g id="xtick_29">
     <g id="line2d_29">
      <g>
       <use xlink:href="#mc231b5b7dc" x="299.317585" y="307.584" style="stroke: #000000; stroke-width: 0.6"/>
      </g>
     </g>
    </g>
    <g id="xtick_30">
     <g id="line2d_30">
      <g>
       <use xlink:href="#mc231b5b7dc" x="304.75123" y="307.584" style="stroke: #000000; stroke-width: 0.6"/>
      </g>
     </g>
    </g>
    <g id="xtick_31">
     <g id="line2d_31">
      <g>
       <use xlink:href="#mc231b5b7dc" x="309.458067" y="307.584" style="stroke: #000000; stroke-width: 0.6"/>
      </g>
     </g>
    </g>
    <g id="xtick_32">
     <g id="line2d_32">
      <g>
       <use xlink:href="#mc231b5b7dc" x="313.609792" y="307.584" style="stroke: #000000; stroke-width: 0.6"/>
      </g>
     </g>
    </g>
    <g id="xtick_33">
     <g id="line2d_33">
      <g>
       <use xlink:href="#mc231b5b7dc" x="341.756325" y="307.584" style="stroke: #000000; stroke-width: 0.6"/>
      </g>
     </g>
    </g>
    <g id="xtick_34">
     <g id="line2d_34">
      <g>
       <use xlink:href="#mc231b5b7dc" x="356.048532" y="307.584" style="stroke: #000000; stroke-width: 0.6"/>
      </g>
     </g>
    </g>
    <g id="xtick_35">
     <g id="line2d_35">
      <g>
       <use xlink:href="#mc231b5b7dc" x="366.189015" y="307.584" style="stroke: #000000; stroke-width: 0.6"/>
      </g>
     </g>
    </g>
    <g id="xtick_36">
     <g id="line2d_36">
      <g>
       <use xlink:href="#mc231b5b7dc" x="374.054584" y="307.584" style="stroke: #000000; stroke-width: 0.6"/>
      </g>
     </g>
    </g>
    <g id="xtick_37">
     <g id="line2d_37">
      <g>
       <use xlink:href="#mc231b5b7dc" x="380.481221" y="307.584" style="stroke: #000000; stroke-width: 0.6"/>
      </g>
     </g>
    </g>
    <g id="xtick_38">
     <g id="line2d_38">
      <g>
       <use xlink:href="#mc231b5b7dc" x="385.914866" y="307.584" style="stroke: #000000; stroke-width: 0.6"/>
      </g>
     </g>
    </g>
    <g id="xtick_39">
     <g id="line2d_39">
      <g>
       <use xlink:href="#mc231b5b7dc" x="390.621704" y="307.584" style="stroke: #000000; stroke-width: 0.6"/>
      </g>
     </g>
    </g>
    <g id="xtick_40">
     <g id="line2d_40">
      <g>
       <use xlink:href="#mc231b5b7dc" x="394.773428" y="307.584" style="stroke: #000000; stroke-width: 0.6"/>
      </g>
     </g>
    </g>
    <g id="text_6">
     <!-- Frequency [Hz] -->
     <g transform="translate(198.455312 335.860562)scale(0.1 -0.1)">
      <defs>
       <path id="DejaVuSans-46" d="M 628 4666 
L 3309 4666 
L 3309 4134 
L 1259 4134 
L 1259 2759 
L 3109 2759 
L 3109 2228 
L 1259 2228 
L 1259 0 
L 628 0 
L 628 4666 
z
" transform="scale(0.015625)"/>
       <path id="DejaVuSans-72" d="M 2631 2963 
Q 2534 3019 2420 3045 
Q 2306 3072 2169 3072 
Q 1681 3072 1420 2755 
Q 1159 2438 1159 1844 
L 1159 0 
L 581 0 
L 581 3500 
L 1159 3500 
L 1159 2956 
Q 1341 3275 1631 3429 
Q 1922 3584 2338 3584 
Q 2397 3584 2469 3576 
Q 2541 3569 2628 3553 
L 2631 2963 
z
" transform="scale(0.015625)"/>
       <path id="DejaVuSans-65" d="M 3597 1894 
L 3597 1613 
L 953 1613 
Q 991 1019 1311 708 
Q 1631 397 2203 397 
Q 2534 397 2845 478 
Q 3156 559 3463 722 
L 3463 178 
Q 3153 47 2828 -22 
Q 2503 -91 2169 -91 
Q 1331 -91 842 396 
Q 353 884 353 1716 
Q 353 2575 817 3079 
Q 1281 3584 2069 3584 
Q 2775 3584 3186 3129 
Q 3597 2675 3597 1894 
z
M 3022 2063 
Q 3016 2534 2758 2815 
Q 2500 3097 2075 3097 
Q 1594 3097 1305 2825 
Q 1016 2553 972 2059 
L 3022 2063 
z
" transform="scale(0.015625)"/>
       <path id="DejaVuSans-71" d="M 947 1747 
Q 947 1113 1208 752 
Q 1469 391 1925 391 
Q 2381 391 2643 752 
Q 2906 1113 2906 1747 
Q 2906 2381 2643 2742 
Q 2381 3103 1925 3103 
Q 1469 3103 1208 2742 
Q 947 2381 947 1747 
z
M 2906 525 
Q 2725 213 2448 61 
Q 2172 -91 1784 -91 
Q 1150 -91 751 415 
Q 353 922 353 1747 
Q 353 2572 751 3078 
Q 1150 3584 1784 3584 
Q 2172 3584 2448 3432 
Q 2725 3281 2906 2969 
L 2906 3500 
L 3481 3500 
L 3481 -1331 
L 2906 -1331 
L 2906 525 
z
" transform="scale(0.015625)"/>
       <path id="DejaVuSans-75" d="M 544 1381 
L 544 3500 
L 1119 3500 
L 1119 1403 
Q 1119 906 1312 657 
Q 1506 409 1894 409 
Q 2359 409 2629 706 
Q 2900 1003 2900 1516 
L 2900 3500 
L 3475 3500 
L 3475 0 
L 2900 0 
L 2900 538 
Q 2691 219 2414 64 
Q 2138 -91 1772 -91 
Q 1169 -91 856 284 
Q 544 659 544 1381 
z
M 1991 3584 
L 1991 3584 
z
" transform="scale(0.015625)"/>
       <path id="DejaVuSans-6e" d="M 3513 2113 
L 3513 0 
L 2938 0 
L 2938 2094 
Q 2938 2591 2744 2837 
Q 2550 3084 2163 3084 
Q 1697 3084 1428 2787 
Q 1159 2491 1159 1978 
L 1159 0 
L 581 0 
L 581 3500 
L 1159 3500 
L 1159 2956 
Q 1366 3272 1645 3428 
Q 1925 3584 2291 3584 
Q 2894 3584 3203 3211 
Q 3513 2838 3513 2113 
z
" transform="scale(0.015625)"/>
       <path id="DejaVuSans-63" d="M 3122 3366 
L 3122 2828 
Q 2878 2963 2633 3030 
Q 2388 3097 2138 3097 
Q 1578 3097 1268 2742 
Q 959 2388 959 1747 
Q 959 1106 1268 751 
Q 1578 397 2138 397 
Q 2388 397 2633 464 
Q 2878 531 3122 666 
L 3122 134 
Q 2881 22 2623 -34 
Q 2366 -91 2075 -91 
Q 1284 -91 818 406 
Q 353 903 353 1747 
Q 353 2603 823 3093 
Q 1294 3584 2113 3584 
Q 2378 3584 2631 3529 
Q 2884 3475 3122 3366 
z
" transform="scale(0.015625)"/>
       <path id="DejaVuSans-79" d="M 2059 -325 
Q 1816 -950 1584 -1140 
Q 1353 -1331 966 -1331 
L 506 -1331 
L 506 -850 
L 844 -850 
Q 1081 -850 1212 -737 
Q 1344 -625 1503 -206 
L 1606 56 
L 191 3500 
L 800 3500 
L 1894 763 
L 2988 3500 
L 3597 3500 
L 2059 -325 
z
" transform="scale(0.015625)"/>
       <path id="DejaVuSans-20" transform="scale(0.015625)"/>
       <path id="DejaVuSans-5b" d="M 550 4863 
L 1875 4863 
L 1875 4416 
L 1125 4416 
L 1125 -397 
L 1875 -397 
L 1875 -844 
L 550 -844 
L 550 4863 
z
" transform="scale(0.015625)"/>
       <path id="DejaVuSans-48" d="M 628 4666 
L 1259 4666 
L 1259 2753 
L 3553 2753 
L 3553 4666 
L 4184 4666 
L 4184 0 
L 3553 0 
L 3553 2222 
L 1259 2222 
L 1259 0 
L 628 0 
L 628 4666 
z
" transform="scale(0.015625)"/>
       <path id="DejaVuSans-7a" d="M 353 3500 
L 3084 3500 
L 3084 2975 
L 922 459 
L 3084 459 
L 3084 0 
L 275 0 
L 275 525 
L 2438 3041 
L 353 3041 
L 353 3500 
z
" transform="scale(0.015625)"/>
       <path id="DejaVuSans-5d" d="M 1947 4863 
L 1947 -844 
L 622 -844 
L 622 -397 
L 1369 -397 
L 1369 4416 
L 622 4416 
L 622 4863 
L 1947 4863 
z
" transform="scale(0.015625)"/>
      </defs>
      <use xlink:href="#DejaVuSans-46"/>
      <use xlink:href="#DejaVuSans-72" x="50.269531"/>
      <use xlink:href="#DejaVuSans-65" x="89.132812"/>
      <use xlink:href="#DejaVuSans-71" x="150.65625"/>
      <use xlink:href="#DejaVuSans-75" x="214.132812"/>
      <use xlink:href="#DejaVuSans-65" x="277.511719"/>
      <use xlink:href="#DejaVuSans-6e" x="339.035156"/>
      <use xlink:href="#DejaVuSans-63" x="402.414062"/>
      <use xlink:href="#DejaVuSans-79" x="457.394531"/>
      <use xlink:href="#DejaVuSans-20" x="516.574219"/>
      <use xlink:href="#DejaVuSans-5b" x="548.361328"/>
      <use xlink:href="#DejaVuSans-48" x="587.375"/>
      <use xlink:href="#DejaVuSans-7a" x="662.570312"/>
      <use xlink:href="#DejaVuSans-5d" x="715.060547"/>
     </g>
    </g>
   </g>
   <g id="matplotlib.axis_2">
    <g id="ytick_1">
     <g id="line2d_41">
      <defs>
       <path id="mb35465cdba" d="M 0 0 
L -3.5 0 
" style="stroke: #000000; stroke-width: 0.8"/>
      </defs>
      <g>
       <use xlink:href="#mb35465cdba" x="57.6" y="307.584" style="stroke: #000000; stroke-width: 0.8"/>
      </g>
     </g>
     <g id="text_7">
      <!-- −140 -->
      <g transform="translate(23.132812 311.383219)scale(0.1 -0.1)">
       <defs>
        <path id="DejaVuSans-2212" d="M 678 2272 
L 4684 2272 
L 4684 1741 
L 678 1741 
L 678 2272 
z
" transform="scale(0.015625)"/>
       </defs>
       <use xlink:href="#DejaVuSans-2212"/>
       <use xlink:href="#DejaVuSans-31" x="83.789062"/>
       <use xlink:href="#DejaVuSans-34" x="147.412109"/>
       <use xlink:href="#DejaVuSans-30" x="211.035156"/>
      </g>
     </g>
    </g>
    <g id="ytick_2">
     <g id="line2d_42">
      <g>
       <use xlink:href="#mb35465cdba" x="57.6" y="274.32" style="stroke: #000000; stroke-width: 0.8"/>
      </g>
     </g>
     <g id="text_8">
      <!-- −130 -->
      <g transform="translate(23.132812 278.119219)scale(0.1 -0.1)">
       <use xlink:href="#DejaVuSans-2212"/>
       <use xlink:href="#DejaVuSans-31" x="83.789062"/>
       <use xlink:href="#DejaVuSans-33" x="147.412109"/>
       <use xlink:href="#DejaVuSans-30" x="211.035156"/>
      </g>
     </g>
    </g>
    <g id="ytick_3">
     <g id="line2d_43">
      <g>
       <use xlink:href="#mb35465cdba" x="57.6" y="241.056" style="stroke: #000000; stroke-width: 0.8"/>
      </g>
     </g>
     <g id="text_9">
      <!-- −120 -->
      <g transform="translate(23.132812 244.855219)scale(0.1 -0.1)">
       <defs>
        <path id="DejaVuSans-32" d="M 1228 531 
L 3431 531 
L 3431 0 
L 469 0 
L 469 531 
Q 828 903 1448 1529 
Q 2069 2156 2228 2338 
Q 2531 2678 2651 2914 
Q 2772 3150 2772 3378 
Q 2772 3750 2511 3984 
Q 2250 4219 1831 4219 
Q 1534 4219 1204 4116 
Q 875 4013 500 3803 
L 500 4441 
Q 881 4594 1212 4672 
Q 1544 4750 1819 4750 
Q 2544 4750 2975 4387 
Q 3406 4025 3406 3419 
Q 3406 3131 3298 2873 
Q 3191 2616 2906 2266 
Q 2828 2175 2409 1742 
Q 1991 1309 1228 531 
z
" transform="scale(0.015625)"/>
       </defs>
       <use xlink:href="#DejaVuSans-2212"/>
       <use xlink:href="#DejaVuSans-31" x="83.789062"/>
       <use xlink:href="#DejaVuSans-32" x="147.412109"/>
       <use xlink:href="#DejaVuSans-30" x="211.035156"/>
      </g>
     </g>
    </g>
    <g id="ytick_4">
     <g id="line2d_44">
      <g>
       <use xlink:href="#mb35465cdba" x="57.6" y="207.792" style="stroke: #000000; stroke-width: 0.8"/>
      </g>
     </g>
     <g id="text_10">
      <!-- −110 -->
      <g transform="translate(23.132812 211.591219)scale(0.1 -0.1)">
       <use xlink:href="#DejaVuSans-2212"/>
       <use xlink:href="#DejaVuSans-31" x="83.789062"/>
       <use xlink:href="#DejaVuSans-31" x="147.412109"/>
       <use xlink:href="#DejaVuSans-30" x="211.035156"/>
      </g>
     </g>
    </g>
    <g id="ytick_5">
     <g id="line2d_45">
      <g>
       <use xlink:href="#mb35465cdba" x="57.6" y="174.528" style="stroke: #000000; stroke-width: 0.8"/>
      </g>
     </g>
     <g id="text_11">
      <!-- −100 -->
      <g transform="translate(23.132812 178.327219)scale(0.1 -0.1)">
       <use xlink:href="#DejaVuSans-2212"/>
       <use xlink:href="#DejaVuSans-31" x="83.789062"/>
       <use xlink:href="#DejaVuSans-30" x="147.412109"/>
       <use xlink:href="#DejaVuSans-30" x="211.035156"/>
      </g>
     </g>
    </g>
    <g id="ytick_6">
     <g id="line2d_46">
      <g>
       <use xlink:href="#mb35465cdba" x="57.6" y="141.264" style="stroke: #000000; stroke-width: 0.8"/>
      </g>
     </g>
     <g id="text_12">
      <!-- −90 -->
      <g transform="translate(29.495313 145.063219)scale(0.1 -0.1)">
       <defs>
        <path id="DejaVuSans-39" d="M 703 97 
L 703 672 
Q 941 559 1184 500 
Q 1428 441 1663 441 
Q 2288 441 2617 861 
Q 2947 1281 2994 2138 
Q 2813 1869 2534 1725 
Q 2256 1581 1919 1581 
Q 1219 1581 811 2004 
Q 403 2428 403 3163 
Q 403 3881 828 4315 
Q 1253 4750 1959 4750 
Q 2769 4750 3195 4129 
Q 3622 3509 3622 2328 
Q 3622 1225 3098 567 
Q 2575 -91 1691 -91 
Q 1453 -91 1209 -44 
Q 966 3 703 97 
z
M 1959 2075 
Q 2384 2075 2632 2365 
Q 2881 2656 2881 3163 
Q 2881 3666 2632 3958 
Q 2384 4250 1959 4250 
Q 1534 4250 1286 3958 
Q 1038 3666 1038 3163 
Q 1038 2656 1286 2365 
Q 1534 2075 1959 2075 
z
" transform="scale(0.015625)"/>
       </defs>
       <use xlink:href="#DejaVuSans-2212"/>
       <use xlink:href="#DejaVuSans-39" x="83.789062"/>
       <use xlink:href="#DejaVuSans-30" x="147.412109"/>
      </g>
     </g>
    </g>
    <g id="ytick_7">
     <g id="line2d_47">
      <g>
       <use xlink:href="#mb35465cdba" x="57.6" y="108" style="stroke: #000000; stroke-width: 0.8"/>
      </g>
     </g>
     <g id="text_13">
      <!-- −80 -->
      <g transform="translate(29.495313 111.799219)scale(0.1 -0.1)">
       <defs>
        <path id="DejaVuSans-38" d="M 2034 2216 
Q 1584 2216 1326 1975 
Q 1069 1734 1069 1313 
Q 1069 891 1326 650 
Q 1584 409 2034 409 
Q 2484 409 2743 651 
Q 3003 894 3003 1313 
Q 3003 1734 2745 1975 
Q 2488 2216 2034 2216 
z
M 1403 2484 
Q 997 2584 770 2862 
Q 544 3141 544 3541 
Q 544 4100 942 4425 
Q 1341 4750 2034 4750 
Q 2731 4750 3128 4425 
Q 3525 4100 3525 3541 
Q 3525 3141 3298 2862 
Q 3072 2584 2669 2484 
Q 3125 2378 3379 2068 
Q 3634 1759 3634 1313 
Q 3634 634 3220 271 
Q 2806 -91 2034 -91 
Q 1263 -91 848 271 
Q 434 634 434 1313 
Q 434 1759 690 2068 
Q 947 2378 1403 2484 
z
M 1172 3481 
Q 1172 3119 1398 2916 
Q 1625 2713 2034 2713 
Q 2441 2713 2670 2916 
Q 2900 3119 2900 3481 
Q 2900 3844 2670 4047 
Q 2441 4250 2034 4250 
Q 1625 4250 1398 4047 
Q 1172 3844 1172 3481 
z
" transform="scale(0.015625)"/>
       </defs>
       <use xlink:href="#DejaVuSans-2212"/>
       <use xlink:href="#DejaVuSans-38" x="83.789062"/>
       <use xlink:href="#DejaVuSans-30" x="147.412109"/>
      </g>
     </g>
    </g>
    <g id="ytick_8">
     <g id="line2d_48">
      <g>
       <use xlink:href="#mb35465cdba" x="57.6" y="74.736" style="stroke: #000000; stroke-width: 0.8"/>
      </g>
     </g>
     <g id="text_14">
      <!-- −70 -->
      <g transform="translate(29.495313 78.535219)scale(0.1 -0.1)">
       <use xlink:href="#DejaVuSans-2212"/>
       <use xlink:href="#DejaVuSans-37" x="83.789062"/>
       <use xlink:href="#DejaVuSans-30" x="147.412109"/>
      </g>
     </g>
    </g>
    <g id="ytick_9">
     <g id="line2d_49">
      <g>
       <use xlink:href="#mb35465cdba" x="57.6" y="41.472" style="stroke: #000000; stroke-width: 0.8"/>
      </g>
     </g>
     <g id="text_15">
      <!-- −60 -->
      <g transform="translate(29.495313 45.271219)scale(0.1 -0.1)">
       <use xlink:href="#DejaVuSans-2212"/>
       <use xlink:href="#DejaVuSans-36" x="83.789062"/>
       <use xlink:href="#DejaVuSans-30" x="147.412109"/>
      </g>
     </g>
    </g>
    <g id="text_16">
     <!-- Phase noise [dBc/Hz] -->
     <g transform="translate(17.053125 227.257688)rotate(-90)scale(0.1 -0.1)">
      <defs>
       <path id="DejaVuSans-50" d="M 1259 4147 
L 1259 2394 
L 2053 2394 
Q 2494 2394 2734 2622 
Q 2975 2850 2975 3272 
Q 2975 3691 2734 3919 
Q 2494 4147 2053 4147 
L 1259 4147 
z
M 628 4666 
L 2053 4666 
Q 2838 4666 3239 4311 
Q 3641 3956 3641 3272 
Q 3641 2581 3239 2228 
Q 2838 1875 2053 1875 
L 1259 1875 
L 1259 0 
L 628 0 
L 628 4666 
z
" transform="scale(0.015625)"/>
       <path id="DejaVuSans-68" d="M 3513 2113 
L 3513 0 
L 2938 0 
L 2938 2094 
Q 2938 2591 2744 2837 
Q 2550 3084 2163 3084 
Q 1697 3084 1428 2787 
Q 1159 2491 1159 1978 
L 1159 0 
L 581 0 
L 581 4863 
L 1159 4863 
L 1159 2956 
Q 1366 3272 1645 3428 
Q 1925 3584 2291 3584 
Q 2894 3584 3203 3211 
Q 3513 2838 3513 2113 
z
" transform="scale(0.015625)"/>
       <path id="DejaVuSans-61" d="M 2194 1759 
Q 1497 1759 1228 1600 
Q 959 1441 959 1056 
Q 959 750 1161 570 
Q 1363 391 1709 391 
Q 2188 391 2477 730 
Q 2766 1069 2766 1631 
L 2766 1759 
L 2194 1759 
z
M 3341 1997 
L 3341 0 
L 2766 0 
L 2766 531 
Q 2569 213 2275 61 
Q 1981 -91 1556 -91 
Q 1019 -91 701 211 
Q 384 513 384 1019 
Q 384 1609 779 1909 
Q 1175 2209 1959 2209 
L 2766 2209 
L 2766 2266 
Q 2766 2663 2505 2880 
Q 2244 3097 1772 3097 
Q 1472 3097 1187 3025 
Q 903 2953 641 2809 
L 641 3341 
Q 956 3463 1253 3523 
Q 1550 3584 1831 3584 
Q 2591 3584 2966 3190 
Q 3341 2797 3341 1997 
z
" transform="scale(0.015625)"/>
       <path id="DejaVuSans-73" d="M 2834 3397 
L 2834 2853 
Q 2591 2978 2328 3040 
Q 2066 3103 1784 3103 
Q 1356 3103 1142 2972 
Q 928 2841 928 2578 
Q 928 2378 1081 2264 
Q 1234 2150 1697 2047 
L 1894 2003 
Q 2506 1872 2764 1633 
Q 3022 1394 3022 966 
Q 3022 478 2636 193 
Q 2250 -91 1575 -91 
Q 1294 -91 989 -36 
Q 684 19 347 128 
L 347 722 
Q 666 556 975 473 
Q 1284 391 1588 391 
Q 1994 391 2212 530 
Q 2431 669 2431 922 
Q 2431 1156 2273 1281 
Q 2116 1406 1581 1522 
L 1381 1569 
Q 847 1681 609 1914 
Q 372 2147 372 2553 
Q 372 3047 722 3315 
Q 1072 3584 1716 3584 
Q 2034 3584 2315 3537 
Q 2597 3491 2834 3397 
z
" transform="scale(0.015625)"/>
       <path id="DejaVuSans-6f" d="M 1959 3097 
Q 1497 3097 1228 2736 
Q 959 2375 959 1747 
Q 959 1119 1226 758 
Q 1494 397 1959 397 
Q 2419 397 2687 759 
Q 2956 1122 2956 1747 
Q 2956 2369 2687 2733 
Q 2419 3097 1959 3097 
z
M 1959 3584 
Q 2709 3584 3137 3096 
Q 3566 2609 3566 1747 
Q 3566 888 3137 398 
Q 2709 -91 1959 -91 
Q 1206 -91 779 398 
Q 353 888 353 1747 
Q 353 2609 779 3096 
Q 1206 3584 1959 3584 
z
" transform="scale(0.015625)"/>
       <path id="DejaVuSans-69" d="M 603 3500 
L 1178 3500 
L 1178 0 
L 603 0 
L 603 3500 
z
M 603 4863 
L 1178 4863 
L 1178 4134 
L 603 4134 
L 603 4863 
z
" transform="scale(0.015625)"/>
       <path id="DejaVuSans-64" d="M 2906 2969 
L 2906 4863 
L 3481 4863 
L 3481 0 
L 2906 0 
L 2906 525 
Q 2725 213 2448 61 
Q 2172 -91 1784 -91 
Q 1150 -91 751 415 
Q 353 922 353 1747 
Q 353 2572 751 3078 
Q 1150 3584 1784 3584 
Q 2172 3584 2448 3432 
Q 2725 3281 2906 2969 
z
M 947 1747 
Q 947 1113 1208 752 
Q 1469 391 1925 391 
Q 2381 391 2643 752 
Q 2906 1113 2906 1747 
Q 2906 2381 2643 2742 
Q 2381 3103 1925 3103 
Q 1469 3103 1208 2742 
Q 947 2381 947 1747 
z
" transform="scale(0.015625)"/>
       <path id="DejaVuSans-42" d="M 1259 2228 
L 1259 519 
L 2272 519 
Q 2781 519 3026 730 
Q 3272 941 3272 1375 
Q 3272 1813 3026 2020 
Q 2781 2228 2272 2228 
L 1259 2228 
z
M 1259 4147 
L 1259 2741 
L 2194 2741 
Q 2656 2741 2882 2914 
Q 3109 3088 3109 3444 
Q 3109 3797 2882 3972 
Q 2656 4147 2194 4147 
L 1259 4147 
z
M 628 4666 
L 2241 4666 
Q 2963 4666 3353 4366 
Q 3744 4066 3744 3513 
Q 3744 3084 3544 2831 
Q 3344 2578 2956 2516 
Q 3422 2416 3680 2098 
Q 3938 1781 3938 1306 
Q 3938 681 3513 340 
Q 3088 0 2303 0 
L 628 0 
L 628 4666 
z
" transform="scale(0.015625)"/>
       <path id="DejaVuSans-2f" d="M 1625 4666 
L 2156 4666 
L 531 -594 
L 0 -594 
L 1625 4666 
z
" transform="scale(0.015625)"/>
      </defs>
      <use xlink:href="#DejaVuSans-50"/>
      <use xlink:href="#DejaVuSans-68" x="60.302734"/>
      <use xlink:href="#DejaVuSans-61" x="123.681641"/>
      <use xlink:href="#DejaVuSans-73" x="184.960938"/>
      <use xlink:href="#DejaVuSans-65" x="237.060547"/>
      <use xlink:href="#DejaVuSans-20" x="298.583984"/>
      <use xlink:href="#DejaVuSans-6e" x="330.371094"/>
      <use xlink:href="#DejaVuSans-6f" x="393.75"/>
      <use xlink:href="#DejaVuSans-69" x="454.931641"/>
      <use xlink:href="#DejaVuSans-73" x="482.714844"/>
      <use xlink:href="#DejaVuSans-65" x="534.814453"/>
      <use xlink:href="#DejaVuSans-20" x="596.337891"/>
      <use xlink:href="#DejaVuSans-5b" x="628.125"/>
      <use xlink:href="#DejaVuSans-64" x="667.138672"/>
      <use xlink:href="#DejaVuSans-42" x="730.615234"/>
      <use xlink:href="#DejaVuSans-63" x="799.21875"/>
      <use xlink:href="#DejaVuSans-2f" x="854.199219"/>
      <use xlink:href="#DejaVuSans-48" x="887.890625"/>
      <use xlink:href="#DejaVuSans-7a" x="963.085938"/>
      <use xlink:href="#DejaVuSans-5d" x="1015.576172"/>
     </g>
    </g>
   </g>
   <g id="line2d_50">
    <path d="M 398.487273 281.697512 
L 398.133009 281.189681 
L 397.775149 281.927033 
L 397.413619 282.177622 
L 397.048342 283.641238 
L 396.67924 283.836387 
L 395.929234 283.889609 
L 395.548161 283.257593 
L 395.162923 282.367227 
L 393.981285 280.900284 
L 393.578435 280.197305 
L 392.758656 280.981227 
L 391.919356 279.75822 
L 391.059584 280.487811 
L 390.621704 280.205067 
L 390.178315 279.402296 
L 389.729278 277.505139 
L 389.274447 277.145888 
L 388.81367 277.671459 
L 388.346791 279.077417 
L 387.873644 278.937708 
L 387.394059 278.222532 
L 386.907859 278.754756 
L 386.414859 279.863556 
L 385.914866 281.557803 
L 385.407679 282.125508 
L 384.893087 280.874782 
L 384.370871 278.783585 
L 383.840802 277.895436 
L 383.30264 278.823502 
L 382.756135 280.732856 
L 382.201022 282.015737 
L 381.637027 282.486977 
L 381.063862 281.925924 
L 380.481221 281.561129 
L 379.888789 282.021281 
L 379.286228 281.563347 
L 378.049297 279.085179 
L 377.414164 279.424472 
L 376.767377 280.547686 
L 376.1085 280.320382 
L 375.437071 279.192732 
L 374.752605 278.428769 
L 374.054584 279.394534 
L 373.34246 280.879217 
L 372.615652 281.567782 
L 371.115472 281.297235 
L 370.340739 280.098622 
L 369.548595 278.653856 
L 368.73824 278.676032 
L 367.059402 278.236947 
L 366.189015 278.733689 
L 365.296589 279.648449 
L 364.380981 281.499036 
L 363.440954 279.37014 
L 362.47517 278.279081 
L 361.482177 277.43972 
L 359.408113 278.190377 
L 358.323446 277.995228 
L 357.204338 277.212416 
L 356.048532 277.419761 
L 354.853539 276.959609 
L 353.616608 277.5129 
L 352.334688 277.125929 
L 351.004382 277.110406 
L 349.621895 276.712347 
L 348.182963 276.044849 
L 346.682783 274.494747 
L 345.115906 274.461483 
L 343.476126 274.539099 
L 341.756325 275.462729 
L 339.948292 273.993569 
L 338.042481 274.365017 
L 336.027709 274.136604 
L 333.890756 274.276313 
L 331.615843 273.125379 
L 329.183919 271.035291 
L 326.571693 270.085049 
L 323.750274 268.491704 
L 323.455302 268.543817 
L 322.219429 269.946449 
L 322.004027 271.510966 
L 321.973148 271.402304 
L 321.849358 271.207155 
L 321.75623 271.500987 
L 321.725133 271.422262 
L 321.694008 271.343537 
L 321.600468 271.390107 
L 321.50668 271.492116 
L 321.475361 271.441112 
L 321.349808 271.06412 
L 321.192236 269.147004 
L 321.160637 269.258993 
L 321.097353 269.667032 
L 321.065669 269.324412 
L 320.843077 267.897387 
L 320.683217 267.58914 
L 320.651158 267.622404 
L 320.458189 267.744372 
L 320.393631 267.83862 
L 320.328954 268.027116 
L 320.296571 267.78318 
L 320.16674 267.295308 
L 320.134208 267.328572 
L 320.03643 267.56142 
L 319.971094 267.89406 
L 319.93838 267.698912 
L 319.609563 266.131068 
L 319.510317 266.409377 
L 319.477173 266.331761 
L 319.443997 266.254145 
L 319.41079 266.324 
L 319.27765 266.581241 
L 319.076991 264.986787 
L 319.043437 265.086579 
L 318.976232 265.5933 
L 318.908899 266.207576 
L 318.841437 266.116654 
L 318.740001 265.836128 
L 318.57029 264.682976 
L 318.536249 264.680758 
L 318.331313 265.455809 
L 318.090705 265.506814 
L 317.987083 266.167659 
L 317.952474 265.978054 
L 317.883155 265.598844 
L 317.813699 265.625456 
L 317.534498 266.659966 
L 317.464351 266.338414 
L 317.394064 265.768491 
L 317.28837 267.764331 
L 316.93375 267.547006 
L 316.575526 266.768628 
L 316.213624 264.174036 
L 315.478479 260.945211 
L 314.727675 261.224628 
L 314.34619 261.062744 
L 313.96053 262.48866 
L 313.570605 261.651516 
L 312.77757 256.562124 
L 312.37426 255.112923 
L 311.966282 256.548819 
L 311.553526 258.433779 
L 310.713226 256.366976 
L 309.852404 250.725401 
L 309.413979 252.062614 
L 308.970032 252.829904 
L 308.520422 254.880075 
L 308.065003 253.565038 
L 307.136124 251.929558 
L 306.662341 251.242102 
L 305.695232 247.812584 
L 305.201542 248.772804 
L 304.700838 248.355896 
L 304.19292 248.546609 
L 303.677576 245.295608 
L 303.154585 243.388472 
L 302.623718 243.199976 
L 302.084733 241.682028 
L 301.537379 242.276345 
L 300.981391 242.436012 
L 300.416492 242.794155 
L 299.842393 239.978912 
L 298.665358 236.340939 
L 298.061766 236.230059 
L 296.82266 233.774067 
L 296.186381 233.407054 
L 295.538405 231.859169 
L 294.878293 231.773792 
L 293.519785 227.175598 
L 292.820379 224.184056 
L 292.106814 222.014134 
L 291.378504 222.357862 
L 290.634829 221.2413 
L 289.875124 219.48607 
L 288.304757 211.431747 
L 287.492534 211.263209 
L 286.661153 208.504515 
L 285.809688 207.678459 
L 284.937146 203.558158 
L 284.042455 201.672089 
L 283.124462 198.681656 
L 282.181922 196.816654 
L 281.213484 193.428161 
L 280.217686 192.028856 
L 279.192936 187.983953 
L 278.1375 184.790609 
L 277.049484 179.469478 
L 275.926812 176.3349 
L 274.767203 173.780225 
L 273.568145 170.395059 
L 272.326858 166.384529 
L 271.040258 161.317313 
L 269.704912 158.404496 
L 268.31698 155.003806 
L 266.87215 150.57415 
L 263.791682 139.452886 
L 262.144237 135.484491 
L 260.416002 132.302235 
L 260.238426 130.9118 
L 259.880566 129.961558 
L 259.519035 130.848598 
L 259.33687 130.66232 
L 259.153758 130.761003 
L 258.96969 131.869803 
L 258.784656 134.152822 
L 258.598645 134.957811 
L 258.411648 134.762662 
L 258.034651 132.31554 
L 257.07413 127.444582 
L 256.878845 126.631832 
L 256.286412 122.072446 
L 256.086701 122.178891 
L 255.885852 121.938281 
L 255.683852 121.248608 
L 255.480687 120.982496 
L 255.276345 121.060112 
L 255.070812 121.914996 
L 254.864072 121.895038 
L 254.656114 121.368358 
L 254.236479 116.565036 
L 254.024773 115.568225 
L 253.597508 116.169195 
L 253.165 114.364068 
L 252.72712 111.838222 
L 251.834695 108.712515 
L 251.608013 108.803436 
L 251.150228 108.492972 
L 250.919087 109.039611 
L 250.452207 110.681744 
L 250.381638 110.360192 
L 250.358084 110.411196 
L 250.287327 111.353676 
L 250.192762 111.227273 
L 250.169082 111.200662 
L 249.883664 105.968235 
L 249.692093 107.301012 
L 249.644037 107.252225 
L 249.451156 104.838368 
L 249.354318 104.730814 
L 249.3058 104.96588 
L 249.281515 104.811756 
L 249.037746 101.809126 
L 248.964285 102.035321 
L 248.915226 102.458883 
L 248.816902 102.418966 
L 248.693611 101.949944 
L 248.668901 102.186118 
L 248.371021 104.321667 
L 248.346084 104.215222 
L 248.070602 102.81259 
L 247.944668 101.275793 
L 247.894168 101.291316 
L 247.58964 102.864704 
L 247.513095 102.917926 
L 247.461973 103.050982 
L 247.38515 101.535252 
L 247.282458 99.870944 
L 247.231 99.952995 
L 247.024412 101.321254 
L 246.998503 100.850014 
L 246.764463 98.496032 
L 246.659944 97.868451 
L 246.607569 97.956046 
L 246.528859 98.253204 
L 246.476288 98.046968 
L 246.449973 97.888409 
L 246.397284 97.948284 
L 246.185737 100.047243 
L 246.132651 100.000673 
L 245.999586 99.481755 
L 245.972912 99.549392 
L 245.785631 100.280091 
L 245.54337 101.860131 
L 245.489307 101.527491 
L 245.081171 96.098806 
L 244.998974 96.673164 
L 244.72359 97.881756 
L 244.695933 97.848492 
L 244.668254 97.815228 
L 244.418163 94.438932 
L 244.390265 94.443368 
L 244.278452 94.447803 
L 244.138186 94.143992 
L 244.053757 94.601926 
L 243.997359 94.584185 
L 243.799251 93.194859 
L 243.714006 93.467624 
L 243.514295 92.64822 
L 243.313445 90.578091 
L 243.227016 90.27428 
L 243.198159 90.379616 
L 243.082493 90.979476 
L 242.995495 90.779892 
L 242.937376 90.733323 
L 242.791659 89.139977 
L 242.762443 89.196526 
L 242.733203 89.253075 
L 242.439461 91.990702 
L 242.409951 91.658062 
L 241.994205 85.732635 
L 241.844528 84.943169 
L 241.361245 84.575048 
L 241.117095 85.853494 
L 240.963639 86.179481 
L 240.592594 89.196526 
L 240.561497 88.976984 
L 240.436832 88.368252 
L 240.374334 88.448086 
L 240.280378 88.973657 
L 240.217602 88.876083 
L 239.997 87.121961 
L 239.902032 87.220644 
L 239.519581 84.048368 
L 239.455434 84.396531 
L 239.358993 85.623972 
L 239.294553 85.291332 
L 239.132934 84.642684 
L 239.035606 84.672622 
L 238.840141 84.943169 
L 238.774744 85.001936 
L 238.67642 85.401104 
L 238.412876 86.04199 
L 238.213916 83.979622 
L 238.147346 84.122657 
L 238.08065 84.386552 
L 238.047254 84.273454 
L 237.913355 84.07387 
L 237.6778 84.54511 
L 237.576365 84.253496 
L 237.440661 83.405264 
L 237.236121 81.749825 
L 237.167677 81.818571 
L 236.788838 83.844348 
L 236.754195 83.86098 
L 236.650062 84.450862 
L 236.615283 84.315588 
L 236.475821 83.917529 
L 236.440869 83.95412 
L 236.370862 84.12931 
L 236.195231 84.418152 
L 236.124733 81.784752 
L 235.769757 80.591684 
L 235.41117 81.069576 
L 234.682862 77.235346 
L 234.312986 77.334029 
L 233.939188 77.075679 
L 233.561383 79.102565 
L 233.179485 77.919476 
L 232.793404 78.661263 
L 232.403047 77.861818 
L 232.008319 75.117538 
L 231.609121 77.003607 
L 231.20535 76.319477 
L 230.7969 79.164658 
L 230.383661 78.080252 
L 229.965521 77.45378 
L 229.54236 75.655306 
L 229.114058 77.947196 
L 228.241518 77.29633 
L 227.797012 73.263624 
L 227.346829 73.031885 
L 226.890823 73.315738 
L 226.428839 73.021906 
L 225.960721 75.23618 
L 225.486301 74.547615 
L 225.005409 74.620796 
L 224.517866 73.480949 
L 224.023485 73.61844 
L 223.522071 72.253508 
L 223.013421 72.549557 
L 221.973557 75.909221 
L 221.441891 75.897024 
L 220.902082 74.771592 
L 220.353878 74.313658 
L 219.797013 75.194045 
L 219.23121 74.549832 
L 218.656176 75.788362 
L 218.071605 74.346922 
L 217.477176 75.086492 
L 216.257373 74.091898 
L 215.631268 72.44533 
L 214.99384 73.299106 
L 214.344673 71.916432 
L 213.683325 73.62842 
L 213.009332 72.681504 
L 212.322199 73.473188 
L 211.621405 72.244637 
L 211.262499 68.5734 
L 211.045388 71.569378 
L 210.8999 75.207351 
L 210.826931 74.841447 
L 210.75381 73.449903 
L 210.680537 73.641725 
L 210.607112 75.230636 
L 210.533533 74.63521 
L 210.385914 71.775615 
L 210.311871 72.313383 
L 210.014137 79.573805 
L 209.789173 71.384208 
L 209.713866 71.878733 
L 209.486972 78.338602 
L 209.411015 76.945949 
L 209.334894 77.566877 
L 209.258608 77.533613 
L 209.182157 77.205408 
L 209.105539 76.191965 
L 208.874683 70.827591 
L 208.797393 69.97825 
L 208.642304 71.723501 
L 208.408384 67.018863 
L 208.094055 77.334029 
L 207.935834 77.094528 
L 207.776898 80.42869 
L 207.697161 80.286764 
L 207.617243 79.410812 
L 207.376397 75.011093 
L 207.295747 74.787116 
L 207.214913 76.29841 
L 207.133893 75.000005 
L 206.971292 77.223149 
L 206.88971 77.827445 
L 206.643823 71.196821 
L 206.47894 74.009847 
L 206.396209 73.737082 
L 206.313282 73.296888 
L 206.146843 74.608599 
L 206.063327 73.894532 
L 205.811587 76.380461 
L 205.727272 75.953573 
L 205.642755 74.812618 
L 205.387982 78.227722 
L 205.131354 73.460991 
L 204.699445 78.151215 
L 204.612424 76.958146 
L 204.437736 70.76328 
L 204.350066 71.809988 
L 204.174069 76.371591 
L 204.08574 77.579074 
L 203.908416 76.283996 
L 203.730194 73.696056 
L 203.551067 78.292032 
L 203.371026 76.107696 
L 203.190059 80.236868 
L 203.099227 79.388636 
L 202.641519 72.955378 
L 202.456758 74.088572 
L 202.271024 77.161056 
L 201.990575 72.435351 
L 201.707877 78.674568 
L 201.613138 78.144562 
L 201.422893 74.955653 
L 201.327384 75.73514 
L 201.135586 80.430908 
L 200.942739 79.242274 
L 200.651476 74.647407 
L 200.553851 74.18282 
L 200.455955 72.558428 
L 200.357786 72.671525 
L 200.061628 76.865007 
L 199.862798 76.346088 
L 199.762961 77.317397 
L 199.66284 76.425922 
L 199.461741 77.959392 
L 199.36076 79.659183 
L 199.056069 74.780463 
L 198.953917 75.138605 
L 198.851469 75.222874 
L 198.542324 80.001802 
L 198.230444 74.361336 
L 197.915779 77.960501 
L 197.810264 76.771868 
L 197.704432 78.908525 
L 197.385015 71.841034 
L 197.170451 75.072077 
L 197.062677 75.532229 
L 196.846136 78.459461 
L 196.628257 82.861397 
L 196.51881 80.877754 
L 196.298891 74.807074 
L 196.188415 75.27277 
L 195.966419 77.339573 
L 195.630781 80.38212 
L 195.405234 79.686903 
L 195.291916 80.440887 
L 195.178234 79.580458 
L 194.949762 76.648791 
L 194.719801 78.086904 
L 194.604255 78.181152 
L 194.488329 78.657936 
L 194.255327 83.266109 
L 194.138246 83.806095 
L 193.90291 78.853085 
L 193.784651 78.207764 
L 193.665993 78.528207 
L 193.627137 78.364104 
L 193.614175 78.317535 
L 193.523311 75.699658 
L 193.510311 77.959392 
L 193.484297 80.81677 
L 193.432212 74.914628 
L 193.419178 74.309223 
L 193.380049 76.414834 
L 193.340876 74.885799 
L 193.314737 76.380461 
L 193.249304 74.075266 
L 193.144357 74.131815 
L 193.118071 72.419828 
L 192.973149 80.182536 
L 192.946736 78.504922 
L 192.933522 78.328623 
L 192.907078 79.285517 
L 192.880615 78.901872 
L 192.774563 84.215242 
L 192.734712 82.375743 
L 192.694815 80.3544 
L 192.628219 82.269298 
L 192.614885 82.232708 
L 192.561498 80.516285 
L 192.521404 81.90672 
L 192.50803 82.728341 
L 192.481265 78.859738 
L 192.467875 76.514626 
L 192.44108 79.987388 
L 192.374003 78.644631 
L 192.279881 76.299519 
L 192.252942 77.104508 
L 192.199003 81.860151 
L 192.063795 80.514068 
L 191.928065 72.120452 
L 191.819104 73.96993 
L 191.655028 80.339986 
L 191.503951 73.564109 
L 191.490185 74.804856 
L 191.379859 79.604852 
L 191.352224 78.305338 
L 191.31073 76.034516 
L 191.241465 77.196538 
L 191.227596 77.951631 
L 191.199841 76.153157 
L 191.144265 76.491341 
L 191.130357 75.962444 
L 191.060737 76.743039 
L 190.851046 85.337348 
L 190.837022 84.613301 
L 190.625992 75.608736 
L 190.583634 76.373808 
L 190.541225 79.618157 
L 190.47043 76.925991 
L 190.456254 76.881639 
L 190.413691 81.081773 
L 190.342639 79.32876 
L 190.257187 77.612338 
L 190.285694 79.455164 
L 190.242925 78.782122 
L 190.228657 79.951906 
L 190.171528 76.014557 
L 190.12862 75.350386 
L 190.099985 77.246434 
L 190.085659 78.012615 
L 189.985215 77.523634 
L 189.970842 77.529178 
L 189.812355 74.077484 
L 189.797911 74.849208 
L 189.754546 77.534722 
L 189.667655 76.568957 
L 189.638643 77.43493 
L 189.595081 74.680671 
L 189.551465 71.970764 
L 189.478652 73.163832 
L 189.259305 78.799863 
L 189.200581 77.772005 
L 189.097579 75.589887 
L 189.14176 78.82093 
L 189.068094 77.05572 
L 189.053343 77.243108 
L 189.038585 76.697578 
L 188.964703 74.828141 
L 188.9203 76.176442 
L 188.905486 76.130981 
L 188.771883 78.570341 
L 188.742124 78.208872 
L 188.712341 77.005824 
L 188.682532 79.747887 
L 188.667618 81.374496 
L 188.622839 78.736661 
L 188.578002 79.09813 
L 188.533109 81.446568 
L 188.458159 80.100485 
L 188.368008 76.221903 
L 188.337906 78.745532 
L 188.307779 80.007346 
L 188.26254 78.083578 
L 188.232348 75.7806 
L 188.156755 76.413725 
L 188.005082 78.674568 
L 187.989878 78.849759 
L 187.944229 78.095775 
L 187.89852 77.881776 
L 187.730413 81.873456 
L 187.715091 82.000968 
L 187.699762 81.626194 
L 187.499877 75.593213 
L 187.484454 75.598757 
L 187.453588 78.570341 
L 187.407238 74.783789 
L 187.376305 76.10437 
L 187.345344 75.936941 
L 187.314356 75.73514 
L 187.28334 75.832714 
L 187.112266 80.487456 
L 187.065466 76.098826 
L 186.987326 78.995012 
L 186.971677 79.900901 
L 186.893328 78.345255 
L 186.657233 75.05101 
L 186.625634 76.310607 
L 186.578182 74.374642 
L 186.56235 74.37686 
L 186.483086 77.765352 
L 186.419545 79.0061 
L 186.387732 77.696607 
L 186.371815 77.631188 
L 186.27616 84.536794 
L 186.196248 81.943311 
L 186.164233 80.065004 
L 186.116155 83.574356 
L 186.019803 82.402354 
L 186.05195 84.276226 
L 185.987627 82.874703 
L 185.907058 87.105884 
L 185.84247 84.74414 
L 185.599205 76.898271 
L 185.582928 77.485935 
L 185.55035 80.073874 
L 185.501427 76.018992 
L 185.468774 74.730567 
L 185.436091 73.151636 
L 185.35425 73.636181 
L 185.041509 79.704644 
L 184.975314 77.829663 
L 184.94217 77.215388 
L 184.875788 78.023703 
L 184.859173 78.02592 
L 184.59226 88.376568 
L 184.558754 85.422725 
L 184.525215 86.42508 
L 184.508434 83.760634 
L 184.424408 77.918367 
L 184.390741 81.254746 
L 184.373896 83.380316 
L 184.306434 79.179072 
L 184.171121 72.652676 
L 184.154171 72.818996 
L 183.933067 80.043936 
L 183.796311 74.881364 
L 183.762038 75.51338 
L 183.693394 74.728349 
L 183.521196 72.337776 
L 183.503929 72.182544 
L 183.486655 72.55621 
L 183.243917 77.976024 
L 183.226514 77.90617 
L 183.191683 76.371591 
L 183.139372 78.595844 
L 183.121918 77.959392 
L 183.086983 81.447677 
L 183.052014 78.201111 
L 183.034516 75.546644 
L 182.981971 79.669162 
L 182.946898 76.822872 
L 182.841467 81.826887 
L 182.788634 80.001802 
L 182.629655 76.363829 
L 182.611947 76.485797 
L 182.594229 75.88261 
L 182.52327 76.554543 
L 182.487737 74.984482 
L 182.452168 76.918229 
L 182.416563 75.15302 
L 182.380922 73.633964 
L 182.309532 75.382541 
L 182.273782 77.948304 
L 182.202175 75.323775 
L 182.130421 74.409015 
L 182.11246 75.05101 
L 181.96844 79.075954 
L 181.932342 77.621208 
L 181.860037 80.529591 
L 181.823828 78.398477 
L 181.80571 77.441583 
L 181.714979 77.544701 
L 181.696805 77.666669 
L 181.551073 81.224808 
L 181.532814 81.181565 
L 181.404736 83.503392 
L 181.459684 81.045183 
L 181.368056 82.385722 
L 181.294583 79.055996 
L 181.202525 79.330978 
L 181.184085 79.315455 
L 181.165635 80.130423 
L 181.110226 78.859738 
L 181.073239 79.939709 
L 181.036213 79.451837 
L 180.999148 82.323629 
L 180.943477 78.319752 
L 180.906314 76.981431 
L 180.775935 73.944428 
L 180.75727 74.923498 
L 180.71991 75.902568 
L 180.68251 74.521004 
L 180.663796 73.830221 
L 180.607592 75.632021 
L 180.494916 82.169506 
L 180.457277 80.58614 
L 180.363003 75.076512 
L 180.306318 76.160919 
L 180.287402 76.162028 
L 180.192673 78.779904 
L 180.116705 81.041856 
L 180.07866 80.74248 
L 180.021515 74.830359 
L 179.926067 75.308252 
L 179.906946 75.663068 
L 179.849522 74.739437 
L 179.792004 75.757316 
L 179.734392 78.813168 
L 179.676686 77.950522 
L 179.618885 76.267364 
L 179.560989 77.41608 
L 179.522339 77.283024 
L 179.483646 75.229527 
L 179.464284 78.045435 
L 179.444911 81.737296 
L 177.62102 83.599636 
L 177.248012 79.005878 
L 177.060017 80.096937 
L 176.871014 79.615718 
L 176.489941 81.107054 
L 176.297848 81.456326 
L 176.104703 80.960692 
L 175.910494 79.53034 
L 175.715208 80.94406 
L 175.518835 80.830963 
L 175.321362 81.808924 
L 175.122776 80.672404 
L 174.722215 84.230544 
L 174.520215 85.674201 
L 174.317051 84.85258 
L 174.112709 83.172748 
L 173.907175 83.609616 
L 173.700436 83.303587 
L 173.492477 82.494163 
L 173.283284 80.193403 
L 173.072842 80.296521 
L 172.433872 85.70303 
L 172.218281 85.329364 
L 172.001364 84.456739 
L 171.563484 82.092777 
L 171.342487 82.067275 
L 171.120095 82.21918 
L 170.896292 81.714676 
L 170.444376 83.9478 
L 170.216227 86.065608 
L 169.986592 86.053411 
L 169.75545 83.673926 
L 169.522784 83.158334 
L 169.288571 79.994928 
L 169.052791 81.180235 
L 168.815424 81.348772 
L 168.576447 84.090835 
L 168.335839 85.020009 
L 168.093577 85.263945 
L 167.604001 84.569836 
L 167.356639 84.850363 
L 166.603965 86.926036 
L 166.093102 85.664222 
L 165.834867 84.614188 
L 165.574726 85.086537 
L 165.048613 86.90386 
L 164.514528 87.142252 
L 164.24442 86.601158 
L 163.972227 87.32964 
L 163.697915 88.435113 
L 163.421451 87.952785 
L 162.861933 83.127288 
L 162.578807 84.721742 
L 162.293389 87.796444 
L 162.005642 88.867545 
L 161.715525 86.702059 
L 161.423001 86.335046 
L 161.12803 87.479328 
L 160.830569 90.504134 
L 159.922821 86.04454 
L 159.614968 87.776486 
L 159.304403 86.357222 
L 158.674941 85.688616 
L 158.355944 88.935182 
L 158.034034 89.068238 
L 157.709157 88.568169 
L 157.381258 88.836499 
L 157.05028 89.563872 
L 156.716164 88.804344 
L 156.038279 86.076696 
L 155.694385 87.546964 
L 155.347102 86.708712 
L 154.996364 87.091248 
L 154.6421 86.309544 
L 154.28424 85.940313 
L 153.922709 86.638857 
L 153.557432 85.670875 
L 152.815323 90.899976 
L 152.438325 93.169689 
L 152.057252 91.68168 
L 151.672014 91.109539 
L 151.282519 91.596302 
L 150.888673 94.271836 
L 150.087526 93.90815 
L 149.68002 91.46879 
L 149.267747 91.05299 
L 148.850595 89.874336 
L 148.428447 91.066296 
L 148.001182 90.759158 
L 147.568675 92.6796 
L 146.687406 93.7884 
L 146.238369 93.532267 
L 145.783538 92.797132 
L 145.322761 94.353888 
L 144.382734 92.599766 
L 143.90315 91.36678 
L 143.41695 91.457702 
L 142.92395 93.628732 
L 142.423957 92.971214 
L 141.91677 93.016675 
L 141.402178 91.347931 
L 140.879962 90.855624 
L 139.265226 93.394776 
L 138.710113 92.375788 
L 138.146118 93.912585 
L 137.572952 92.626377 
L 136.990312 95.07239 
L 136.39788 94.475856 
L 135.795319 95.731017 
L 135.182279 95.322979 
L 134.558388 94.771905 
L 133.923255 94.852848 
L 133.276468 94.563451 
L 131.946162 95.166638 
L 131.261696 94.62 
L 130.563675 93.377035 
L 129.851551 96.252153 
L 128.382633 97.628174 
L 127.624563 94.763035 
L 126.84983 95.835244 
L 126.057686 96.40295 
L 125.247331 97.445222 
L 124.417906 97.172457 
L 123.568493 98.791305 
L 122.698105 100.005441 
L 121.80568 100.182849 
L 120.890072 99.233716 
L 119.950045 98.946537 
L 118.984261 100.731705 
L 117.991268 103.395043 
L 116.969489 105.100377 
L 114.832536 99.372316 
L 113.713429 98.011819 
L 112.557623 98.826787 
L 111.36263 99.49872 
L 110.125699 99.703848 
L 108.843779 100.030944 
L 107.513473 100.710638 
L 106.130985 98.887771 
L 104.692054 100.105233 
L 103.191874 99.927825 
L 101.624997 102.081115 
L 99.985217 101.554435 
L 98.265416 101.225121 
L 97.911153 100.414588 
L 97.732677 100.547644 
L 97.553293 101.361504 
L 97.372991 100.853673 
L 97.191762 100.862544 
L 97.009597 100.463376 
L 96.826485 100.618608 
L 96.642417 101.451316 
L 96.457383 101.756236 
L 96.271373 100.919092 
L 95.707378 96.408494 
L 95.517356 96.683476 
L 95.134212 99.917846 
L 94.941067 99.898996 
L 94.551572 99.0175 
L 94.355199 99.566356 
L 93.959139 101.022211 
L 93.759428 101.3737 
L 93.558579 101.412508 
L 93.356579 102.053395 
L 93.153415 103.19435 
L 92.743539 106.766904 
L 92.5368 106.896633 
L 91.6975 101.556652 
L 91.270235 102.27072 
L 90.837728 102.035654 
L 90.399847 100.853673 
L 89.732655 105.050481 
L 89.28074 103.85963 
L 88.822955 101.848267 
L 88.591814 101.615419 
L 88.359147 101.630942 
L 88.124934 101.301628 
L 87.651787 102.566769 
L 87.412811 103.988251 
L 87.172203 104.093587 
L 86.686003 103.015833 
L 86.440365 103.217635 
L 86.193003 104.225534 
L 85.69301 102.760809 
L 85.440329 101.167464 
L 84.41109 97.785624 
L 84.149015 97.794494 
L 83.618946 99.109531 
L 83.350892 98.365526 
L 83.080784 98.111611 
L 82.80859 98.562892 
L 82.534278 99.421104 
L 82.257815 99.414451 
L 81.979166 98.813481 
L 81.698296 97.727966 
L 81.129753 97.256726 
L 80.551889 99.020827 
L 80.259365 99.884582 
L 79.964393 99.519787 
L 79.36694 99.071832 
L 78.451332 103.574668 
L 78.140767 103.77647 
L 77.827441 103.686657 
L 77.192308 103.117843 
L 77.031721 102.010152 
L 76.999515 102.014587 
L 76.870398 102.023457 
L 76.643299 103.082361 
L 76.545521 103.174392 
L 76.381952 102.99144 
L 76.217622 104.39518 
L 76.052521 103.014724 
L 75.820073 104.055888 
L 75.753377 104.055888 
L 75.586082 105.546115 
L 75.41799 103.766491 
L 75.249092 105.77231 
L 75.079381 103.992686 
L 74.874643 107.076259 
L 74.737488 107.076259 
L 74.565289 107.734886 
L 74.113597 99.728241 
L 74.043589 99.788116 
L 73.867959 99.907867 
L 73.832727 99.907867 
L 73.832727 99.907867 
" clip-path="url(#p1a35fb3e77)" style="fill: none; stroke: #ff0000; stroke-width: 1.5; stroke-linecap: square"/>
   </g>
   <g id="patch_3">
    <path d="M 57.6 307.584 
L 57.6 41.472 
" style="fill: none; stroke: #000000; stroke-width: 0.8; stroke-linejoin: miter; stroke-linecap: square"/>
   </g>
   <g id="patch_4">
    <path d="M 414.72 307.584 
L 414.72 41.472 
" style="fill: none; stroke: #000000; stroke-width: 0.8; stroke-linejoin: miter; stroke-linecap: square"/>
   </g>
   <g id="patch_5">
    <path d="M 57.6 307.584 
L 414.72 307.584 
" style="fill: none; stroke: #000000; stroke-width: 0.8; stroke-linejoin: miter; stroke-linecap: square"/>
   </g>
   <g id="patch_6">
    <path d="M 57.6 41.472 
L 414.72 41.472 
" style="fill: none; stroke: #000000; stroke-width: 0.8; stroke-linejoin: miter; stroke-linecap: square"/>
   </g>
   <g id="text_17">
    <!-- VCO1 STuW81300 -->
    <g transform="translate(182.029687 35.472)scale(0.12 -0.12)">
     <defs>
      <path id="DejaVuSans-56" d="M 1831 0 
L 50 4666 
L 709 4666 
L 2188 738 
L 3669 4666 
L 4325 4666 
L 2547 0 
L 1831 0 
z
" transform="scale(0.015625)"/>
      <path id="DejaVuSans-43" d="M 4122 4306 
L 4122 3641 
Q 3803 3938 3442 4084 
Q 3081 4231 2675 4231 
Q 1875 4231 1450 3742 
Q 1025 3253 1025 2328 
Q 1025 1406 1450 917 
Q 1875 428 2675 428 
Q 3081 428 3442 575 
Q 3803 722 4122 1019 
L 4122 359 
Q 3791 134 3420 21 
Q 3050 -91 2638 -91 
Q 1578 -91 968 557 
Q 359 1206 359 2328 
Q 359 3453 968 4101 
Q 1578 4750 2638 4750 
Q 3056 4750 3426 4639 
Q 3797 4528 4122 4306 
z
" transform="scale(0.015625)"/>
      <path id="DejaVuSans-4f" d="M 2522 4238 
Q 1834 4238 1429 3725 
Q 1025 3213 1025 2328 
Q 1025 1447 1429 934 
Q 1834 422 2522 422 
Q 3209 422 3611 934 
Q 4013 1447 4013 2328 
Q 4013 3213 3611 3725 
Q 3209 4238 2522 4238 
z
M 2522 4750 
Q 3503 4750 4090 4092 
Q 4678 3434 4678 2328 
Q 4678 1225 4090 567 
Q 3503 -91 2522 -91 
Q 1538 -91 948 565 
Q 359 1222 359 2328 
Q 359 3434 948 4092 
Q 1538 4750 2522 4750 
z
" transform="scale(0.015625)"/>
      <path id="DejaVuSans-53" d="M 3425 4513 
L 3425 3897 
Q 3066 4069 2747 4153 
Q 2428 4238 2131 4238 
Q 1616 4238 1336 4038 
Q 1056 3838 1056 3469 
Q 1056 3159 1242 3001 
Q 1428 2844 1947 2747 
L 2328 2669 
Q 3034 2534 3370 2195 
Q 3706 1856 3706 1288 
Q 3706 609 3251 259 
Q 2797 -91 1919 -91 
Q 1588 -91 1214 -16 
Q 841 59 441 206 
L 441 856 
Q 825 641 1194 531 
Q 1563 422 1919 422 
Q 2459 422 2753 634 
Q 3047 847 3047 1241 
Q 3047 1584 2836 1778 
Q 2625 1972 2144 2069 
L 1759 2144 
Q 1053 2284 737 2584 
Q 422 2884 422 3419 
Q 422 4038 858 4394 
Q 1294 4750 2059 4750 
Q 2388 4750 2728 4690 
Q 3069 4631 3425 4513 
z
" transform="scale(0.015625)"/>
      <path id="DejaVuSans-54" d="M -19 4666 
L 3928 4666 
L 3928 4134 
L 2272 4134 
L 2272 0 
L 1638 0 
L 1638 4134 
L -19 4134 
L -19 4666 
z
" transform="scale(0.015625)"/>
      <path id="DejaVuSans-57" d="M 213 4666 
L 850 4666 
L 1831 722 
L 2809 4666 
L 3519 4666 
L 4500 722 
L 5478 4666 
L 6119 4666 
L 4947 0 
L 4153 0 
L 3169 4050 
L 2175 0 
L 1381 0 
L 213 4666 
z
" transform="scale(0.015625)"/>
     </defs>
     <use xlink:href="#DejaVuSans-56"/>
     <use xlink:href="#DejaVuSans-43" x="68.408203"/>
     <use xlink:href="#DejaVuSans-4f" x="138.232422"/>
     <use xlink:href="#DejaVuSans-31" x="216.943359"/>
     <use xlink:href="#DejaVuSans-20" x="280.566406"/>
     <use xlink:href="#DejaVuSans-53" x="312.353516"/>
     <use xlink:href="#DejaVuSans-54" x="375.830078"/>
     <use xlink:href="#DejaVuSans-75" x="421.789062"/>
     <use xlink:href="#DejaVuSans-57" x="485.167969"/>
     <use xlink:href="#DejaVuSans-38" x="584.044922"/>
     <use xlink:href="#DejaVuSans-31" x="647.667969"/>
     <use xlink:href="#DejaVuSans-33" x="711.291016"/>
     <use xlink:href="#DejaVuSans-30" x="774.914062"/>
     <use xlink:href="#DejaVuSans-30" x="838.537109"/>
    </g>
   </g>
   <g id="legend_1">
    <g id="patch_7">
     <path d="M 345.662188 64.150125 
L 407.72 64.150125 
Q 409.72 64.150125 409.72 62.150125 
L 409.72 48.472 
Q 409.72 46.472 407.72 46.472 
L 345.662188 46.472 
Q 343.662188 46.472 343.662188 48.472 
L 343.662188 62.150125 
Q 343.662188 64.150125 345.662188 64.150125 
z
" style="fill: #ffffff; opacity: 0.8; stroke: #cccccc; stroke-linejoin: miter"/>
    </g>
    <g id="line2d_51">
     <path d="M 347.662188 54.570438 
L 357.662188 54.570438 
L 367.662188 54.570438 
" style="fill: none; stroke: #ff0000; stroke-width: 1.5; stroke-linecap: square"/>
    </g>
    <g id="text_18">
     <!-- 5 GHz -->
     <g transform="translate(375.662188 58.070438)scale(0.1 -0.1)">
      <defs>
       <path id="DejaVuSans-47" d="M 3809 666 
L 3809 1919 
L 2778 1919 
L 2778 2438 
L 4434 2438 
L 4434 434 
Q 4069 175 3628 42 
Q 3188 -91 2688 -91 
Q 1594 -91 976 548 
Q 359 1188 359 2328 
Q 359 3472 976 4111 
Q 1594 4750 2688 4750 
Q 3144 4750 3555 4637 
Q 3966 4525 4313 4306 
L 4313 3634 
Q 3963 3931 3569 4081 
Q 3175 4231 2741 4231 
Q 1884 4231 1454 3753 
Q 1025 3275 1025 2328 
Q 1025 1384 1454 906 
Q 1884 428 2741 428 
Q 3075 428 3337 486 
Q 3600 544 3809 666 
z
" transform="scale(0.015625)"/>
      </defs>
      <use xlink:href="#DejaVuSans-35"/>
      <use xlink:href="#DejaVuSans-20" x="63.623047"/>
      <use xlink:href="#DejaVuSans-47" x="95.410156"/>
      <use xlink:href="#DejaVuSans-48" x="172.900391"/>
      <use xlink:href="#DejaVuSans-7a" x="248.095703"/>
     </g>
    </g>
   </g>
  </g>
 </g>
 <defs>
  <clipPath id="p1a35fb3e77">
   <rect x="57.6" y="41.472" width="357.12" height="266.112"/>
  </clipPath>
 </defs>
</svg>
