; Drill file
; Format: 2.4 (00.0000)
M48
INCH
T01C0.0118
T02C0.0157
T03C0.0197
T04C0.0276
T05C0.0315
T06C0.0354
T07C0.0472
T08C0.063
%
G05
G90
T01
X000600Y-015500
X000320Y-015180
X000320Y-014430
X000320Y-013650
X000320Y-012860
X000320Y-012070
X000320Y-011280
X000320Y-010500
X000320Y-009710
X000320Y-008920
X000320Y-008490
X000870Y-008570
X001110Y-008880
X001350Y-008570
X001700Y-008720
X001940Y-008440
X002290Y-008330
X002370Y-008020
X002290Y-008720
X002290Y-009120
X001700Y-009120
X001700Y-009510
X001700Y-009910
X001700Y-010300
X001700Y-010690
X001700Y-011090
X001700Y-011480
X002090Y-011280
X002090Y-010890
X002090Y-010500
X002490Y-010500
X002490Y-010890
X002880Y-010890
X002920Y-011280
X003280Y-011280
X003280Y-010890
X003280Y-010500
X002880Y-010500
X002490Y-011280
X002090Y-012070
X003080Y-012070
X003670Y-011480
X004060Y-011480
X004060Y-012070
X004060Y-012860
X004060Y-013650
X004060Y-014430
X004060Y-015020
X004260Y-015500
X003470Y-015500
X002680Y-015500
X001900Y-015500
X001110Y-015500
X002090Y-014430
X003080Y-014430
X003080Y-013250
X002090Y-013250
X001350Y-010500
X001350Y-010100
X001350Y-009710
X001350Y-009310
X001390Y-007310
X001230Y-006990
X001500Y-006760
X001500Y-006360
X001500Y-005970
X001500Y-005570
X001580Y-004710
X002130Y-004240
X002650Y-004710
X003080Y-004590
X003080Y-004980
X003080Y-005380
X002720Y-005380
X003470Y-004590
X003870Y-004590
X003790Y-004220
X003780Y-003830
X003780Y-003410
X004060Y-003210
X004460Y-003210
X004460Y-002820
X004260Y-002430
X004260Y-002030
X004260Y-001640
X004260Y-001240
X004260Y-000850
X004260Y-000320
X003470Y-000320
X002690Y-000320
X001900Y-000320
X001900Y-001050
X001110Y-000320
X000320Y-000340
X000320Y-001050
X000320Y-001830
X000320Y-002620
X000320Y-003410
X000320Y-004200
X000320Y-004980
X000320Y-005770
X000320Y-006560
X000320Y-007230
X000910Y-007310
X001900Y-003410
X001900Y-002230
X003080Y-002230
X003080Y-001050
X005050Y-000320
X005830Y-000320
X006620Y-000320
X007410Y-000320
X008200Y-000320
X008980Y-000320
X009770Y-000320
X010560Y-000320
X011350Y-000320
X012130Y-000320
X012920Y-000320
X013710Y-000320
X014500Y-000320
X015280Y-000320
X016070Y-000320
X016860Y-000320
X017650Y-000320
X018430Y-000320
X019220Y-000320
X020010Y-000320
X020800Y-000320
X021580Y-000320
X022370Y-000320
X023160Y-000320
X023940Y-000320
X024730Y-000320
X025520Y-000320
X026310Y-000320
X027090Y-000320
X027880Y-000320
X028670Y-000320
X029460Y-000320
X030240Y-000320
X031030Y-000320
X031820Y-000320
X032610Y-000320
X033390Y-000320
X034180Y-000320
X034970Y-000320
X035760Y-000320
X036540Y-000320
X037330Y-000320
X038120Y-000320
X038910Y-000320
X039690Y-000320
X040480Y-000320
X041270Y-000320
X042060Y-000320
X042840Y-000320
X043630Y-000320
X044420Y-000320
X045200Y-000320
X045990Y-000320
X046780Y-000320
X047570Y-000320
X048350Y-000320
X049140Y-000320
X049930Y-000320
X050720Y-000320
X051500Y-000320
X052290Y-000320
X053080Y-000320
X053870Y-000320
X054650Y-000320
X054910Y-000710
X054910Y-001500
X054910Y-002290
X054910Y-003070
X054910Y-003860
X054910Y-004650
X054910Y-005440
X054910Y-006220
X054910Y-007010
X053570Y-007210
X053180Y-007210
X053350Y-006730
X053240Y-006170
X052720Y-006150
X052320Y-006210
X051810Y-006230
X051440Y-006580
X051270Y-006220
X050800Y-006200
X050810Y-006460
X050790Y-006810
X051210Y-006990
X051650Y-007110
X052090Y-007190
X052090Y-006750
X052700Y-006760
X052600Y-007190
X052510Y-008610
X052300Y-008980
X052650Y-009380
X052240Y-009520
X052850Y-008900
X053180Y-008590
X053570Y-008590
X053410Y-009040
X053080Y-009310
X054040Y-009920
X053970Y-010360
X054440Y-010160
X054910Y-010160
X054400Y-010630
X054400Y-011070
X054440Y-011500
X054080Y-011460
X053890Y-011030
X053530Y-010910
X053340Y-011140
X052900Y-011030
X052590Y-010830
X052310Y-010590
X052000Y-010750
X051510Y-010840
X050970Y-010750
X050870Y-009660
X050930Y-009210
X050940Y-008720
X050920Y-008350
X050880Y-008070
X051300Y-008290
X051940Y-008520
X054400Y-009610
X054910Y-009370
X054910Y-008590
X054910Y-010950
X054910Y-011730
X054560Y-012090
X054910Y-012520
X054560Y-012920
X054910Y-013310
X054600Y-013590
X054910Y-014100
X054600Y-014330
X054360Y-014650
X054320Y-015000
X053850Y-014960
X053410Y-014960
X052980Y-014960
X052520Y-014800
X052230Y-015510
X051600Y-015510
X051510Y-015230
X050930Y-015510
X051510Y-014340
X051510Y-013480
X051510Y-012630
X051510Y-011800
X052460Y-012210
X052460Y-013050
X052470Y-013900
X052860Y-015510
X053610Y-015510
X054320Y-015510
X054890Y-015500
X054910Y-014880
X052500Y-011350
X048500Y-012150
X048150Y-012130
X047830Y-012320
X047810Y-011830
X047720Y-011360
X047700Y-010880
X047740Y-010490
X046640Y-010540
X046390Y-010230
X046640Y-010030
X046640Y-009600
X046020Y-010400
X045460Y-010490
X045160Y-010820
X044750Y-010560
X044800Y-010100
X044290Y-010130
X044280Y-010490
X044290Y-010830
X044270Y-011130
X044090Y-011330
X044680Y-011150
X045170Y-011340
X045760Y-011280
X045600Y-011830
X046100Y-011940
X046640Y-012090
X046640Y-011680
X046640Y-011180
X046350Y-013110
X046380Y-013570
X045880Y-013540
X045580Y-013300
X045860Y-012990
X045390Y-012880
X045040Y-012980
X044230Y-012960
X043950Y-012810
X044410Y-014280
X043860Y-014440
X043070Y-014440
X042520Y-014280
X041970Y-014120
X041420Y-013960
X039860Y-013450
X039420Y-013430
X038990Y-013430
X037240Y-012120
X036860Y-012130
X036540Y-012320
X036530Y-011830
X036430Y-011360
X036420Y-010880
X036460Y-010490
X035350Y-010540
X035100Y-010230
X035350Y-010030
X035350Y-009600
X034740Y-010400
X034180Y-010490
X033870Y-010820
X033460Y-010560
X033510Y-010100
X033010Y-010130
X032990Y-010490
X033010Y-010830
X032980Y-011130
X032800Y-011330
X033390Y-011150
X033880Y-011340
X034480Y-011280
X034310Y-011830
X034820Y-011940
X035350Y-012090
X035350Y-011680
X035350Y-011180
X035060Y-013110
X035090Y-013570
X034590Y-013540
X034300Y-013300
X034570Y-012990
X034100Y-012880
X033750Y-012980
X032940Y-012960
X032670Y-012810
X033120Y-014280
X032570Y-014440
X031780Y-014440
X031230Y-014280
X030680Y-014120
X030130Y-013960
X028570Y-013450
X028130Y-013430
X027700Y-013430
X025960Y-012120
X025560Y-012130
X025250Y-012320
X025240Y-011830
X025140Y-011360
X025130Y-010880
X025170Y-010490
X024060Y-010540
X023810Y-010230
X024060Y-010030
X024060Y-009600
X023450Y-010400
X022890Y-010490
X022590Y-010820
X022170Y-010560
X022220Y-010100
X021720Y-010130
X021700Y-010490
X021720Y-010830
X021700Y-011130
X021510Y-011330
X022100Y-011150
X022600Y-011340
X023190Y-011280
X023030Y-011830
X023530Y-011940
X024060Y-012090
X024060Y-011680
X024060Y-011180
X023770Y-013110
X023810Y-013570
X023300Y-013540
X023010Y-013300
X023290Y-012990
X022810Y-012880
X022470Y-012980
X021650Y-012960
X021380Y-012810
X021830Y-014280
X021280Y-014440
X020500Y-014440
X019940Y-014280
X019390Y-014120
X018840Y-013960
X017280Y-013450
X016840Y-013430
X016410Y-013430
X014640Y-012110
X014250Y-012130
X013970Y-012320
X013950Y-011830
X013860Y-011360
X013840Y-010880
X013880Y-010490
X012770Y-010540
X012530Y-010230
X012770Y-010030
X012770Y-009600
X012160Y-010400
X011600Y-010490
X011300Y-010820
X010890Y-010560
X010930Y-010100
X010430Y-010130
X010420Y-010490
X010430Y-010830
X010410Y-011130
X010220Y-011330
X010810Y-011150
X011310Y-011340
X011900Y-011280
X011740Y-011830
X012240Y-011940
X012770Y-012090
X012770Y-011680
X012770Y-011180
X012490Y-013110
X012520Y-013570
X012010Y-013540
X011720Y-013300
X012000Y-012990
X011530Y-012880
X011180Y-012980
X010360Y-012960
X010090Y-012810
X010550Y-014280
X010000Y-014440
X009210Y-014440
X008660Y-014280
X008110Y-014120
X007550Y-013960
X006130Y-013860
X005770Y-013800
X005650Y-013360
X006110Y-013340
X006140Y-013030
X006130Y-012730
X006130Y-012430
X005130Y-013390
X005150Y-013810
X005120Y-014310
X005600Y-014330
X005830Y-015500
X005050Y-015500
X006620Y-015500
X007410Y-015500
X008200Y-015500
X008980Y-015500
X011100Y-014120
X011650Y-013960
X013110Y-013580
X013020Y-013240
X013470Y-013340
X013580Y-013570
X013860Y-013440
X010870Y-009590
X011060Y-009290
X011360Y-008780
X011860Y-008420
X012190Y-008710
X010980Y-007800
X011020Y-007470
X010740Y-007390
X010440Y-007390
X010130Y-007450
X010140Y-008100
X010160Y-008460
X010460Y-009740
X011120Y-007130
X011440Y-007080
X009920Y-006560
X009490Y-006560
X009080Y-006560
X008590Y-006560
X008120Y-006560
X007670Y-006560
X007210Y-006560
X006770Y-006560
X006370Y-006560
X005730Y-004730
X005730Y-004270
X005670Y-003830
X005490Y-003200
X005500Y-002850
X005720Y-002220
X005730Y-001630
X006410Y-001640
X006410Y-002100
X007160Y-002140
X007160Y-001640
X007800Y-001640
X007790Y-002210
X007800Y-002830
X007740Y-003950
X007310Y-003880
X008410Y-005000
X008430Y-005490
X009100Y-005480
X009090Y-004990
X009550Y-005130
X009660Y-005460
X010100Y-005220
X010680Y-005220
X011310Y-004920
X011600Y-004480
X011990Y-004620
X012130Y-004270
X012370Y-004710
X012710Y-004920
X012830Y-005350
X013180Y-005250
X013560Y-005320
X013890Y-005500
X014290Y-005500
X014290Y-005200
X014280Y-004920
X014550Y-004710
X014990Y-004700
X015390Y-004610
X015210Y-004340
X015030Y-004010
X015020Y-003620
X015200Y-003290
X015610Y-003290
X015870Y-003020
X015680Y-002620
X015680Y-002230
X015680Y-001830
X015480Y-001610
X014970Y-001610
X014740Y-001990
X015150Y-002270
X015070Y-002760
X014620Y-003130
X014440Y-002490
X013880Y-002210
X013310Y-002120
X013320Y-001700
X013820Y-001610
X014360Y-001610
X013880Y-002860
X013310Y-002620
X013280Y-003050
X012800Y-003060
X012320Y-003060
X011820Y-003070
X011440Y-003330
X011380Y-002800
X010960Y-003080
X010380Y-003060
X009840Y-002960
X009640Y-003300
X009300Y-002230
X009190Y-001640
X009590Y-001640
X009220Y-004400
X009620Y-004720
X011670Y-003920
X012070Y-003540
X012760Y-003840
X013270Y-004380
X013730Y-004910
X014000Y-004520
X013910Y-004050
X014040Y-003490
X013480Y-003560
X014540Y-004200
X015620Y-004350
X017020Y-004410
X017020Y-004080
X016930Y-003720
X016860Y-003400
X016800Y-003060
X016780Y-002730
X016990Y-002340
X016990Y-001970
X016990Y-001590
X017390Y-001580
X017660Y-001850
X017490Y-002160
X018010Y-002070
X018470Y-002230
X018740Y-002000
X018860Y-001610
X019130Y-001830
X019110Y-002250
X018800Y-002470
X019160Y-002680
X019110Y-003960
X018820Y-003950
X018540Y-003800
X019570Y-004920
X019570Y-005240
X019580Y-005540
X019940Y-005540
X020120Y-005230
X019940Y-004950
X020360Y-004950
X020430Y-004660
X020430Y-004260
X020810Y-004360
X021050Y-004880
X020730Y-005170
X020800Y-005510
X020330Y-005520
X021270Y-005500
X021390Y-005220
X021970Y-005220
X022600Y-004920
X022890Y-004480
X023280Y-004620
X023420Y-004270
X023660Y-004710
X024000Y-004920
X024120Y-005350
X024470Y-005250
X024850Y-005320
X025180Y-005500
X025580Y-005500
X025570Y-005200
X025570Y-004920
X025830Y-004710
X026280Y-004700
X026680Y-004610
X026500Y-004340
X026320Y-004010
X026310Y-003620
X026490Y-003290
X026900Y-003290
X027160Y-003020
X026960Y-002620
X026960Y-002230
X026960Y-001830
X026770Y-001610
X026260Y-001610
X026030Y-001990
X026440Y-002270
X026360Y-002760
X025910Y-003130
X025720Y-002490
X025160Y-002210
X024600Y-002120
X024610Y-001700
X025110Y-001610
X025650Y-001610
X025170Y-002860
X024600Y-002620
X024570Y-003050
X024090Y-003060
X023600Y-003060
X023110Y-003070
X023360Y-003540
X022950Y-003920
X022640Y-003400
X022350Y-003030
X022670Y-002710
X021890Y-003070
X021410Y-003050
X021030Y-003120
X020880Y-003350
X020470Y-003260
X021020Y-002790
X020810Y-002420
X020450Y-002390
X020450Y-001990
X020790Y-002010
X020830Y-001610
X020420Y-001600
X018440Y-001580
X017890Y-001590
X017020Y-004750
X017790Y-006560
X018190Y-006560
X018630Y-006560
X019080Y-006560
X019540Y-006560
X020010Y-006560
X020500Y-006560
X020900Y-006560
X021410Y-007450
X021720Y-007390
X022020Y-007390
X022310Y-007470
X022270Y-007800
X022410Y-007130
X022730Y-007080
X023150Y-008420
X023480Y-008710
X022640Y-008780
X022350Y-009290
X022160Y-009590
X021750Y-009740
X021440Y-008460
X021430Y-008100
X025020Y-004910
X025290Y-004520
X025190Y-004050
X025330Y-003490
X024760Y-003560
X024050Y-003840
X024560Y-004380
X025820Y-004200
X026910Y-004350
X028310Y-004410
X028310Y-004080
X028220Y-003720
X028150Y-003400
X028090Y-003060
X028070Y-002730
X028280Y-002340
X028280Y-001970
X028270Y-001590
X028680Y-001580
X028950Y-001850
X028780Y-002160
X029300Y-002070
X029760Y-002230
X030030Y-002000
X030150Y-001610
X030420Y-001830
X030400Y-002250
X030090Y-002470
X030450Y-002680
X030400Y-003960
X030100Y-003950
X029830Y-003800
X030860Y-004920
X030860Y-005240
X030870Y-005540
X031220Y-005540
X031410Y-005230
X031230Y-004950
X031650Y-004950
X031710Y-004660
X031720Y-004260
X032100Y-004360
X032330Y-004880
X032010Y-005170
X032090Y-005510
X031620Y-005520
X032560Y-005500
X032670Y-005220
X033260Y-005220
X033880Y-004920
X034180Y-004480
X034560Y-004620
X034700Y-004270
X034950Y-004710
X035290Y-004920
X035410Y-005350
X035760Y-005250
X036140Y-005320
X036470Y-005500
X036870Y-005500
X036860Y-005200
X036860Y-004920
X037120Y-004710
X037560Y-004700
X037970Y-004610
X037790Y-004340
X037610Y-004010
X037600Y-003620
X037780Y-003290
X038190Y-003290
X038450Y-003020
X038250Y-002620
X038250Y-002230
X038250Y-001830
X038060Y-001610
X037550Y-001610
X037320Y-001990
X037720Y-002270
X037650Y-002760
X037190Y-003130
X037010Y-002490
X036450Y-002210
X035890Y-002120
X035900Y-001700
X036400Y-001610
X036940Y-001610
X036460Y-002860
X035890Y-002620
X035860Y-003050
X035380Y-003060
X034890Y-003060
X034390Y-003070
X034010Y-003330
X033640Y-003030
X033960Y-002710
X033180Y-003070
X032690Y-003050
X032320Y-003120
X032160Y-003360
X031760Y-003270
X032310Y-002790
X032100Y-002420
X031740Y-002390
X031730Y-001990
X032070Y-002010
X032120Y-001610
X031710Y-001600
X029720Y-001580
X029180Y-001590
X028310Y-004750
X029080Y-006560
X029470Y-006560
X029920Y-006560
X030370Y-006560
X030820Y-006560
X031290Y-006560
X031780Y-006560
X032190Y-006560
X032700Y-007450
X033010Y-007390
X033310Y-007390
X033600Y-007470
X033560Y-007800
X033700Y-007130
X034020Y-007080
X034440Y-008420
X034770Y-008710
X033930Y-008780
X033640Y-009290
X033440Y-009590
X033030Y-009740
X032730Y-008460
X032720Y-008100
X034240Y-003920
X034650Y-003540
X035330Y-003840
X035850Y-004380
X036310Y-004910
X036580Y-004520
X036480Y-004050
X036620Y-003490
X036050Y-003560
X037110Y-004200
X038200Y-004350
X039590Y-004410
X039600Y-004080
X039500Y-003720
X039440Y-003400
X039370Y-003060
X039360Y-002730
X039570Y-002340
X039570Y-001970
X039560Y-001590
X039960Y-001580
X040230Y-001850
X040060Y-002160
X040590Y-002070
X041040Y-002230
X041310Y-002000
X041430Y-001610
X041710Y-001830
X041690Y-002250
X041380Y-002470
X041740Y-002680
X041690Y-003960
X041390Y-003950
X041120Y-003800
X042140Y-004920
X042140Y-005240
X042160Y-005540
X042510Y-005540
X042700Y-005230
X042510Y-004950
X042940Y-004950
X043000Y-004660
X043010Y-004260
X043390Y-004360
X043620Y-004880
X043300Y-005170
X043370Y-005510
X042910Y-005520
X043850Y-005500
X043960Y-005220
X044550Y-005220
X045170Y-004920
X045460Y-004480
X045850Y-004620
X045990Y-004270
X046420Y-004040
X046950Y-003650
X046660Y-003060
X046180Y-003060
X045680Y-003070
X045300Y-003330
X044930Y-003030
X045240Y-002710
X044470Y-003070
X043980Y-003050
X043600Y-003120
X043450Y-003360
X043050Y-003270
X043600Y-002790
X043390Y-002420
X043020Y-002390
X043020Y-001990
X043360Y-002010
X043400Y-001610
X043000Y-001600
X041010Y-001580
X040460Y-001590
X039590Y-004750
X040370Y-006560
X040760Y-006560
X041200Y-006560
X041660Y-006560
X042110Y-006560
X042580Y-006560
X043070Y-006560
X043480Y-006560
X043990Y-007450
X044300Y-007390
X044600Y-007390
X044890Y-007470
X044840Y-007800
X044990Y-007130
X045300Y-007080
X045720Y-008420
X046060Y-008710
X045220Y-008780
X044930Y-009290
X044730Y-009590
X044320Y-009740
X044020Y-008460
X044010Y-008100
X046700Y-005350
X047050Y-005250
X047420Y-005320
X047760Y-005500
X048160Y-005500
X048150Y-005200
X048140Y-004920
X048410Y-004710
X048480Y-004310
X048890Y-004010
X049070Y-004340
X049250Y-004610
X049480Y-004350
X048850Y-004700
X048480Y-003720
X048890Y-003620
X049070Y-003290
X049480Y-003290
X049740Y-003020
X049540Y-002620
X049540Y-002230
X049540Y-001830
X049340Y-001610
X048840Y-001610
X049010Y-002270
X048940Y-002760
X048520Y-002910
X047050Y-002600
X047060Y-002130
X047060Y-001690
X045930Y-003540
X045530Y-003920
X046230Y-004710
X046570Y-004920
X047130Y-004380
X047590Y-004910
X050680Y-003930
X050690Y-003500
X050610Y-003080
X050650Y-002750
X050980Y-002170
X051000Y-001790
X050990Y-001490
X051520Y-001530
X051740Y-001940
X052090Y-001570
X051330Y-002380
X052760Y-003260
X052730Y-003760
X052710Y-004270
X053190Y-004200
X053290Y-003760
X053590Y-003370
X053200Y-002920
X053600Y-002630
X053580Y-002060
X053660Y-004230
X047720Y-013440
X047440Y-013570
X047330Y-013340
X046970Y-013580
X046880Y-013240
X045510Y-013960
X044960Y-014120
X036430Y-013440
X036160Y-013570
X036040Y-013340
X035690Y-013580
X035600Y-013240
X034220Y-013960
X033670Y-014120
X025140Y-013440
X024870Y-013570
X024760Y-013340
X024400Y-013580
X024310Y-013240
X022940Y-013960
X022390Y-014120
X004050Y-010490
X004260Y-004590
X004260Y-004260
X003080Y-003410
T02
X006600Y-012080
X007350Y-012080
X008100Y-012080
X008850Y-012080
X009590Y-012080
X017890Y-012080
X018640Y-012080
X019380Y-012080
X020130Y-012080
X020880Y-012080
X029180Y-012080
X029920Y-012080
X030670Y-012080
X031420Y-012080
X032170Y-012080
X040460Y-012080
X041210Y-012080
X041960Y-012080
X042710Y-012080
X043460Y-012080
T03
X002140Y-007370
X003740Y-006890
X005820Y-008500
X007060Y-005320
X015030Y-006890
X017110Y-008500
X018350Y-005320
X026320Y-006890
X028400Y-008500
X029640Y-005320
X037610Y-006890
X039690Y-008500
X040920Y-005320
X048890Y-006890
T04
X054130Y-006500
T05
X005440Y-012640
X016870Y-012640
X028160Y-012640
X039440Y-012640
X047810Y-004180
X047810Y-003180
X047790Y-002070
X052790Y-002070
X053130Y-005180
X051570Y-009040
X051570Y-010040
X053130Y-010180
T06
X010550Y-008900
X013310Y-008900
X013310Y-007520
X013310Y-006140
X010550Y-006140
X021840Y-006140
X024590Y-006140
X024590Y-007520
X024590Y-008900
X021840Y-008900
X033130Y-008900
X035880Y-008900
X035880Y-007520
X035880Y-006140
X033130Y-006140
X044410Y-006140
X047170Y-006140
X047170Y-007520
X047170Y-008900
X044410Y-008900
T07
X010730Y-012140
X014730Y-011140
X014730Y-013140
X022010Y-012140
X026010Y-011140
X026010Y-013140
X033300Y-012140
X037300Y-011140
X037300Y-013140
X044590Y-012140
X048590Y-011140
X048590Y-013140
X044390Y-004080
X044390Y-002080
X040390Y-003080
X033100Y-004080
X033100Y-002080
X029100Y-003080
X021810Y-004080
X021810Y-002080
X017810Y-003080
X010520Y-004080
X010520Y-002080
X006520Y-003080
T08
X011930Y-009490
X011930Y-005550
X023220Y-005550
X023220Y-009490
X034500Y-009490
X034500Y-005550
X045790Y-005550
X045790Y-009490
M30
