%FSLAX34Y34*%
%MOMM*%
%LNSOLDERMASK_TOP*%
G71*
G01*
%ADD10R,1.600X1.300*%
%ADD11C,3.600*%
%ADD12C,4.100*%
%ADD13C,2.900*%
%ADD14R,1.300X1.300*%
%ADD15R,1.300X1.600*%
%ADD16R,1.100X1.250*%
%ADD17R,1.100X1.100*%
%ADD18C,3.900*%
%ADD19C,1.700*%
%ADD20C,2.700*%
%ADD21C,2.900*%
%ADD22C,0.300*%
%LPD*%
G36*
X272065Y-208749D02*
X281257Y-199557D01*
X292571Y-210870D01*
X283379Y-220063D01*
X272065Y-208749D01*
G37*
G36*
X286631Y-194183D02*
X295824Y-184990D01*
X307137Y-196304D01*
X297945Y-205496D01*
X286631Y-194183D01*
G37*
G36*
X331873Y-171721D02*
X322681Y-180914D01*
X311366Y-169601D01*
X320558Y-160408D01*
X331873Y-171721D01*
G37*
G36*
X317306Y-186289D02*
X308113Y-195481D01*
X296800Y-184166D01*
X305993Y-174974D01*
X317306Y-186289D01*
G37*
X267519Y-196479D02*
G54D10*
D03*
X267519Y-175879D02*
G54D10*
D03*
X374022Y-282830D02*
G54D11*
D03*
X374022Y-333630D02*
G54D11*
D03*
X272422Y-308230D02*
G54D11*
D03*
X302978Y-140988D02*
G54D12*
D03*
X302979Y-240988D02*
G54D12*
D03*
X337979Y-155988D02*
G54D13*
D03*
X267979Y-155988D02*
G54D13*
D03*
X337978Y-190988D02*
G54D13*
D03*
X267979Y-225988D02*
G54D13*
D03*
X337978Y-225988D02*
G54D13*
D03*
X455561Y-135173D02*
G54D14*
D03*
X436561Y-135173D02*
G54D14*
D03*
X446061Y-112973D02*
G54D14*
D03*
X434588Y-182910D02*
G54D10*
D03*
X434588Y-203510D02*
G54D10*
D03*
X428588Y-278910D02*
G54D10*
D03*
X428588Y-299510D02*
G54D10*
D03*
G36*
X441479Y-333988D02*
X415479Y-333988D01*
X415479Y-307988D01*
X441479Y-307988D01*
X441479Y-333988D01*
G37*
X502088Y-110304D02*
G54D10*
D03*
X502088Y-89704D02*
G54D10*
D03*
X522935Y-72156D02*
G54D15*
D03*
X502335Y-72156D02*
G54D15*
D03*
X502488Y-54704D02*
G54D10*
D03*
X502488Y-34104D02*
G54D10*
D03*
X482888Y-133704D02*
G54D10*
D03*
X482888Y-113104D02*
G54D10*
D03*
X392953Y-175032D02*
G54D14*
D03*
X392953Y-156032D02*
G54D14*
D03*
X415153Y-165532D02*
G54D14*
D03*
X358353Y-156032D02*
G54D15*
D03*
X378953Y-156032D02*
G54D15*
D03*
X415153Y-117438D02*
G54D10*
D03*
X415153Y-138038D02*
G54D10*
D03*
X414488Y-34103D02*
G54D10*
D03*
X414488Y-54704D02*
G54D10*
D03*
G36*
X387497Y-88213D02*
X400497Y-88213D01*
X400497Y-104213D01*
X387497Y-104213D01*
X387497Y-88213D01*
G37*
X414597Y-96213D02*
G54D15*
D03*
G36*
X368900Y-124750D02*
X381900Y-124750D01*
X381900Y-140750D01*
X368900Y-140750D01*
X368900Y-124750D01*
G37*
X396000Y-132750D02*
G54D15*
D03*
X359753Y-195532D02*
G54D14*
D03*
X359753Y-176532D02*
G54D14*
D03*
X381953Y-186032D02*
G54D14*
D03*
X380739Y-232003D02*
G54D10*
D03*
X380739Y-211403D02*
G54D10*
D03*
X415080Y-225485D02*
G54D10*
D03*
X415080Y-246085D02*
G54D10*
D03*
X363780Y-211205D02*
G54D10*
D03*
X363780Y-231805D02*
G54D10*
D03*
X377628Y-251038D02*
G54D15*
D03*
X398228Y-251038D02*
G54D15*
D03*
X363747Y-251132D02*
G54D15*
D03*
X343148Y-251132D02*
G54D15*
D03*
X414960Y-190785D02*
G54D10*
D03*
X414960Y-211385D02*
G54D10*
D03*
X397900Y-190785D02*
G54D10*
D03*
X397900Y-211385D02*
G54D10*
D03*
X454078Y-154288D02*
G54D16*
D03*
X454078Y-178988D02*
G54D16*
D03*
X530379Y-277366D02*
G54D10*
D03*
X530379Y-297966D02*
G54D10*
D03*
X454228Y-193087D02*
G54D10*
D03*
X454228Y-213687D02*
G54D10*
D03*
X454213Y-227766D02*
G54D10*
D03*
X454213Y-248366D02*
G54D10*
D03*
X511379Y-277366D02*
G54D10*
D03*
X511379Y-297966D02*
G54D10*
D03*
X492379Y-277366D02*
G54D10*
D03*
X492379Y-297966D02*
G54D10*
D03*
X473379Y-277366D02*
G54D10*
D03*
X473379Y-297966D02*
G54D10*
D03*
X454379Y-277366D02*
G54D10*
D03*
X454379Y-297966D02*
G54D10*
D03*
X473078Y-154288D02*
G54D16*
D03*
X473078Y-178988D02*
G54D16*
D03*
X473228Y-193087D02*
G54D10*
D03*
X473228Y-213687D02*
G54D10*
D03*
X473213Y-227766D02*
G54D10*
D03*
X473213Y-248366D02*
G54D10*
D03*
X492078Y-154288D02*
G54D16*
D03*
X492078Y-178988D02*
G54D16*
D03*
X492228Y-193087D02*
G54D10*
D03*
X492228Y-213687D02*
G54D10*
D03*
X492213Y-227766D02*
G54D10*
D03*
X492213Y-248366D02*
G54D10*
D03*
X511078Y-154288D02*
G54D16*
D03*
X511078Y-178988D02*
G54D16*
D03*
X511228Y-193087D02*
G54D10*
D03*
X511228Y-213687D02*
G54D10*
D03*
X511213Y-227766D02*
G54D10*
D03*
X511213Y-248366D02*
G54D10*
D03*
X530078Y-154288D02*
G54D16*
D03*
X530078Y-178988D02*
G54D16*
D03*
X530228Y-193087D02*
G54D10*
D03*
X530228Y-213687D02*
G54D10*
D03*
X530213Y-227766D02*
G54D10*
D03*
X530213Y-248366D02*
G54D10*
D03*
X537814Y-262988D02*
G54D17*
D03*
X521114Y-263088D02*
G54D17*
D03*
X509514Y-262988D02*
G54D17*
D03*
X492814Y-263088D02*
G54D17*
D03*
X481314Y-262988D02*
G54D17*
D03*
X464614Y-263088D02*
G54D17*
D03*
X453014Y-262988D02*
G54D17*
D03*
X436314Y-263088D02*
G54D17*
D03*
X434714Y-248566D02*
G54D10*
D03*
X434714Y-227966D02*
G54D10*
D03*
X554022Y-52830D02*
G54D18*
D03*
X554022Y-103630D02*
G54D18*
D03*
X452422Y-78230D02*
G54D18*
D03*
G54D19*
X202978Y-7988D02*
X1394299Y-8600D01*
G36*
X1394295Y-17100D02*
X1394304Y-100D01*
X1402804Y-104D01*
X1402795Y-17104D01*
X1394295Y-17100D01*
G37*
G54D19*
X288178Y-393588D02*
X578178Y-393588D01*
X168761Y-135173D02*
G54D14*
D03*
X149761Y-135173D02*
G54D14*
D03*
X159261Y-112973D02*
G54D14*
D03*
X147788Y-182910D02*
G54D10*
D03*
X147788Y-203510D02*
G54D10*
D03*
X141788Y-278910D02*
G54D10*
D03*
X141788Y-299510D02*
G54D10*
D03*
G36*
X151179Y-333988D02*
X125179Y-333988D01*
X125179Y-307988D01*
X151179Y-307988D01*
X151179Y-333988D01*
G37*
X215288Y-110304D02*
G54D10*
D03*
X215288Y-89704D02*
G54D10*
D03*
X236135Y-72156D02*
G54D15*
D03*
X215535Y-72156D02*
G54D15*
D03*
X215688Y-54704D02*
G54D10*
D03*
X215688Y-34104D02*
G54D10*
D03*
X196088Y-133704D02*
G54D10*
D03*
X196088Y-113104D02*
G54D10*
D03*
X106153Y-175032D02*
G54D14*
D03*
X106153Y-156032D02*
G54D14*
D03*
X128353Y-165532D02*
G54D14*
D03*
X71553Y-156032D02*
G54D15*
D03*
X92153Y-156032D02*
G54D15*
D03*
X128353Y-117438D02*
G54D10*
D03*
X128353Y-138038D02*
G54D10*
D03*
X127688Y-34103D02*
G54D10*
D03*
X127688Y-54704D02*
G54D10*
D03*
G36*
X100697Y-88213D02*
X113697Y-88213D01*
X113697Y-104213D01*
X100697Y-104213D01*
X100697Y-88213D01*
G37*
X127797Y-96213D02*
G54D15*
D03*
G36*
X82100Y-124750D02*
X95100Y-124750D01*
X95100Y-140750D01*
X82100Y-140750D01*
X82100Y-124750D01*
G37*
X109200Y-132750D02*
G54D15*
D03*
X72953Y-195532D02*
G54D14*
D03*
X72953Y-176532D02*
G54D14*
D03*
X95153Y-186032D02*
G54D14*
D03*
X93939Y-232003D02*
G54D10*
D03*
X93939Y-211403D02*
G54D10*
D03*
X128280Y-225485D02*
G54D10*
D03*
X128280Y-246085D02*
G54D10*
D03*
X76980Y-211205D02*
G54D10*
D03*
X76980Y-231805D02*
G54D10*
D03*
X90828Y-251038D02*
G54D15*
D03*
X111428Y-251038D02*
G54D15*
D03*
X76948Y-251132D02*
G54D15*
D03*
X56348Y-251132D02*
G54D15*
D03*
G36*
X89078Y-268988D02*
X102078Y-268988D01*
X102078Y-284988D01*
X89078Y-284988D01*
X89078Y-268988D01*
G37*
X116178Y-276988D02*
G54D15*
D03*
X128160Y-190785D02*
G54D10*
D03*
X128160Y-211385D02*
G54D10*
D03*
X111100Y-190785D02*
G54D10*
D03*
X111100Y-211385D02*
G54D10*
D03*
X167278Y-154288D02*
G54D16*
D03*
X167278Y-178988D02*
G54D16*
D03*
X243579Y-277366D02*
G54D10*
D03*
X243579Y-297966D02*
G54D10*
D03*
X167428Y-193087D02*
G54D10*
D03*
X167428Y-213687D02*
G54D10*
D03*
X167413Y-227766D02*
G54D10*
D03*
X167413Y-248366D02*
G54D10*
D03*
X224579Y-277366D02*
G54D10*
D03*
X224579Y-297966D02*
G54D10*
D03*
X205579Y-277366D02*
G54D10*
D03*
X205579Y-297966D02*
G54D10*
D03*
X186579Y-277366D02*
G54D10*
D03*
X186579Y-297966D02*
G54D10*
D03*
X167579Y-277366D02*
G54D10*
D03*
X167579Y-297966D02*
G54D10*
D03*
X186278Y-154288D02*
G54D16*
D03*
X186278Y-178988D02*
G54D16*
D03*
X186428Y-193087D02*
G54D10*
D03*
X186428Y-213687D02*
G54D10*
D03*
X186413Y-227766D02*
G54D10*
D03*
X186413Y-248366D02*
G54D10*
D03*
X205278Y-154288D02*
G54D16*
D03*
X205278Y-178988D02*
G54D16*
D03*
X205428Y-193087D02*
G54D10*
D03*
X205428Y-213687D02*
G54D10*
D03*
X205413Y-227766D02*
G54D10*
D03*
X205413Y-248366D02*
G54D10*
D03*
X224278Y-154288D02*
G54D16*
D03*
X224278Y-178988D02*
G54D16*
D03*
X224428Y-193087D02*
G54D10*
D03*
X224428Y-213687D02*
G54D10*
D03*
X224413Y-227766D02*
G54D10*
D03*
X224413Y-248366D02*
G54D10*
D03*
X243278Y-154288D02*
G54D16*
D03*
X243278Y-178988D02*
G54D16*
D03*
X243428Y-193087D02*
G54D10*
D03*
X243428Y-213687D02*
G54D10*
D03*
X243413Y-227766D02*
G54D10*
D03*
X243413Y-248366D02*
G54D10*
D03*
X251013Y-262988D02*
G54D17*
D03*
X234314Y-263088D02*
G54D17*
D03*
X222714Y-262988D02*
G54D17*
D03*
X206014Y-263088D02*
G54D17*
D03*
X194514Y-262988D02*
G54D17*
D03*
X177814Y-263088D02*
G54D17*
D03*
X166214Y-262988D02*
G54D17*
D03*
X149514Y-263088D02*
G54D17*
D03*
X147914Y-248566D02*
G54D10*
D03*
X147914Y-227966D02*
G54D10*
D03*
X267222Y-52830D02*
G54D18*
D03*
X267222Y-103630D02*
G54D18*
D03*
X165622Y-78230D02*
G54D18*
D03*
G54D19*
X8200Y-8600D02*
X364178Y-7988D01*
G36*
X8185Y-100D02*
X8215Y-17100D01*
X-285Y-17115D01*
X-315Y-115D01*
X8185Y-100D01*
G37*
G54D19*
X8178Y-393588D02*
X288178Y-393588D01*
G36*
X8178Y-385088D02*
X8178Y-402088D01*
X-322Y-402088D01*
X-322Y-385088D01*
X8178Y-385088D01*
G37*
X54000Y-156085D02*
G54D10*
D03*
X54000Y-176685D02*
G54D10*
D03*
G54D19*
X8178Y-393588D02*
X8200Y-8600D01*
G36*
X558765Y-208749D02*
X567957Y-199557D01*
X579271Y-210870D01*
X570079Y-220063D01*
X558765Y-208749D01*
G37*
G36*
X573331Y-194183D02*
X582524Y-184990D01*
X593837Y-196304D01*
X584645Y-205496D01*
X573331Y-194183D01*
G37*
G36*
X618573Y-171722D02*
X609380Y-180914D01*
X598066Y-169601D01*
X607258Y-160408D01*
X618573Y-171722D01*
G37*
G36*
X604006Y-186289D02*
X594814Y-195481D01*
X583500Y-184166D01*
X592693Y-174974D01*
X604006Y-186289D01*
G37*
X554219Y-196479D02*
G54D10*
D03*
X554219Y-175879D02*
G54D10*
D03*
X660722Y-282830D02*
G54D11*
D03*
X660722Y-333630D02*
G54D11*
D03*
X559122Y-308230D02*
G54D11*
D03*
X742261Y-135173D02*
G54D14*
D03*
X723261Y-135173D02*
G54D14*
D03*
X732761Y-112973D02*
G54D14*
D03*
X721288Y-182910D02*
G54D10*
D03*
X721288Y-203510D02*
G54D10*
D03*
X715288Y-278910D02*
G54D10*
D03*
X715288Y-299510D02*
G54D10*
D03*
G36*
X728179Y-333988D02*
X702179Y-333988D01*
X702179Y-307988D01*
X728179Y-307988D01*
X728179Y-333988D01*
G37*
X788788Y-110304D02*
G54D10*
D03*
X788788Y-89704D02*
G54D10*
D03*
X809635Y-72156D02*
G54D15*
D03*
X789035Y-72156D02*
G54D15*
D03*
X789188Y-54704D02*
G54D10*
D03*
X789188Y-34104D02*
G54D10*
D03*
X769588Y-133704D02*
G54D10*
D03*
X769588Y-113104D02*
G54D10*
D03*
X679653Y-175032D02*
G54D14*
D03*
X679653Y-156032D02*
G54D14*
D03*
X701853Y-165532D02*
G54D14*
D03*
X645053Y-156032D02*
G54D15*
D03*
X665653Y-156032D02*
G54D15*
D03*
X701853Y-117438D02*
G54D10*
D03*
X701853Y-138038D02*
G54D10*
D03*
X701188Y-34103D02*
G54D10*
D03*
X701188Y-54704D02*
G54D10*
D03*
G36*
X674197Y-88213D02*
X687197Y-88213D01*
X687197Y-104213D01*
X674197Y-104213D01*
X674197Y-88213D01*
G37*
X701297Y-96213D02*
G54D15*
D03*
G36*
X655600Y-124750D02*
X668600Y-124750D01*
X668600Y-140750D01*
X655600Y-140750D01*
X655600Y-124750D01*
G37*
X682700Y-132750D02*
G54D15*
D03*
X646453Y-195532D02*
G54D14*
D03*
X646453Y-176532D02*
G54D14*
D03*
X668653Y-186032D02*
G54D14*
D03*
X667439Y-232003D02*
G54D10*
D03*
X667439Y-211403D02*
G54D10*
D03*
X701780Y-225485D02*
G54D10*
D03*
X701780Y-246085D02*
G54D10*
D03*
X650480Y-211205D02*
G54D10*
D03*
X650480Y-231805D02*
G54D10*
D03*
X664328Y-251038D02*
G54D15*
D03*
X684928Y-251038D02*
G54D15*
D03*
X650447Y-251132D02*
G54D15*
D03*
X629848Y-251132D02*
G54D15*
D03*
X701660Y-190785D02*
G54D10*
D03*
X701660Y-211385D02*
G54D10*
D03*
X684600Y-190785D02*
G54D10*
D03*
X684600Y-211385D02*
G54D10*
D03*
X740778Y-154288D02*
G54D16*
D03*
X740778Y-178988D02*
G54D16*
D03*
X817079Y-277366D02*
G54D10*
D03*
X817079Y-297966D02*
G54D10*
D03*
X740928Y-193087D02*
G54D10*
D03*
X740928Y-213687D02*
G54D10*
D03*
X740913Y-227766D02*
G54D10*
D03*
X740913Y-248366D02*
G54D10*
D03*
X798079Y-277366D02*
G54D10*
D03*
X798079Y-297966D02*
G54D10*
D03*
X779079Y-277366D02*
G54D10*
D03*
X779079Y-297966D02*
G54D10*
D03*
X760079Y-277366D02*
G54D10*
D03*
X760079Y-297966D02*
G54D10*
D03*
X741079Y-277366D02*
G54D10*
D03*
X741079Y-297966D02*
G54D10*
D03*
X759778Y-154288D02*
G54D16*
D03*
X759778Y-178988D02*
G54D16*
D03*
X759928Y-193087D02*
G54D10*
D03*
X759928Y-213687D02*
G54D10*
D03*
X759913Y-227766D02*
G54D10*
D03*
X759913Y-248366D02*
G54D10*
D03*
X778778Y-154288D02*
G54D16*
D03*
X778778Y-178988D02*
G54D16*
D03*
X778928Y-193087D02*
G54D10*
D03*
X778928Y-213687D02*
G54D10*
D03*
X778913Y-227766D02*
G54D10*
D03*
X778913Y-248366D02*
G54D10*
D03*
X797778Y-154288D02*
G54D16*
D03*
X797778Y-178988D02*
G54D16*
D03*
X797928Y-193087D02*
G54D10*
D03*
X797928Y-213687D02*
G54D10*
D03*
X797913Y-227766D02*
G54D10*
D03*
X797913Y-248366D02*
G54D10*
D03*
X816778Y-154288D02*
G54D16*
D03*
X816778Y-178988D02*
G54D16*
D03*
X816928Y-193087D02*
G54D10*
D03*
X816928Y-213687D02*
G54D10*
D03*
X816913Y-227766D02*
G54D10*
D03*
X816913Y-248366D02*
G54D10*
D03*
X824513Y-262988D02*
G54D17*
D03*
X807813Y-263088D02*
G54D17*
D03*
X796213Y-262988D02*
G54D17*
D03*
X779513Y-263088D02*
G54D17*
D03*
X768013Y-262988D02*
G54D17*
D03*
X751313Y-263088D02*
G54D17*
D03*
X739713Y-262988D02*
G54D17*
D03*
X723013Y-263088D02*
G54D17*
D03*
X721413Y-248566D02*
G54D10*
D03*
X721413Y-227966D02*
G54D10*
D03*
X840722Y-52830D02*
G54D18*
D03*
X840722Y-103630D02*
G54D18*
D03*
X739122Y-78230D02*
G54D18*
D03*
G54D19*
X574878Y-393588D02*
X864878Y-393588D01*
G36*
X845465Y-208749D02*
X854657Y-199557D01*
X865971Y-210870D01*
X856778Y-220063D01*
X845465Y-208749D01*
G37*
G36*
X860031Y-194183D02*
X869223Y-184990D01*
X880537Y-196304D01*
X871344Y-205496D01*
X860031Y-194183D01*
G37*
G36*
X905272Y-171721D02*
X896081Y-180914D01*
X884766Y-169601D01*
X893958Y-160408D01*
X905272Y-171721D01*
G37*
G36*
X890706Y-186289D02*
X881513Y-195481D01*
X870200Y-184167D01*
X879393Y-174975D01*
X890706Y-186289D01*
G37*
X840919Y-196479D02*
G54D10*
D03*
X840919Y-175879D02*
G54D10*
D03*
X947422Y-282830D02*
G54D11*
D03*
X947422Y-333630D02*
G54D11*
D03*
X845822Y-308230D02*
G54D11*
D03*
X1028961Y-135173D02*
G54D14*
D03*
X1009961Y-135173D02*
G54D14*
D03*
X1019461Y-112973D02*
G54D14*
D03*
X1007988Y-182910D02*
G54D10*
D03*
X1007988Y-203510D02*
G54D10*
D03*
X1001988Y-278910D02*
G54D10*
D03*
X1001987Y-299510D02*
G54D10*
D03*
G36*
X1014878Y-333988D02*
X988878Y-333988D01*
X988878Y-307988D01*
X1014878Y-307988D01*
X1014878Y-333988D01*
G37*
X1075488Y-110304D02*
G54D10*
D03*
X1075488Y-89704D02*
G54D10*
D03*
X1096334Y-72156D02*
G54D15*
D03*
X1075734Y-72156D02*
G54D15*
D03*
X1075888Y-54704D02*
G54D10*
D03*
X1075888Y-34104D02*
G54D10*
D03*
X1056288Y-133704D02*
G54D10*
D03*
X1056288Y-113104D02*
G54D10*
D03*
X966353Y-175032D02*
G54D14*
D03*
X966353Y-156032D02*
G54D14*
D03*
X988553Y-165532D02*
G54D14*
D03*
X931753Y-156032D02*
G54D15*
D03*
X952353Y-156032D02*
G54D15*
D03*
X988553Y-117438D02*
G54D10*
D03*
X988553Y-138038D02*
G54D10*
D03*
X987888Y-34103D02*
G54D10*
D03*
X987888Y-54704D02*
G54D10*
D03*
G36*
X960897Y-88213D02*
X973897Y-88213D01*
X973897Y-104213D01*
X960897Y-104213D01*
X960897Y-88213D01*
G37*
X987997Y-96213D02*
G54D15*
D03*
G36*
X942300Y-124750D02*
X955300Y-124750D01*
X955300Y-140750D01*
X942300Y-140750D01*
X942300Y-124750D01*
G37*
X969400Y-132750D02*
G54D15*
D03*
X933153Y-195532D02*
G54D14*
D03*
X933153Y-176532D02*
G54D14*
D03*
X955353Y-186032D02*
G54D14*
D03*
X954139Y-232003D02*
G54D10*
D03*
X954138Y-211403D02*
G54D10*
D03*
X988480Y-225485D02*
G54D10*
D03*
X988480Y-246085D02*
G54D10*
D03*
X937180Y-211205D02*
G54D10*
D03*
X937180Y-231805D02*
G54D10*
D03*
X951028Y-251038D02*
G54D15*
D03*
X971628Y-251038D02*
G54D15*
D03*
X937147Y-251132D02*
G54D15*
D03*
X916547Y-251132D02*
G54D15*
D03*
X988360Y-190785D02*
G54D10*
D03*
X988360Y-211385D02*
G54D10*
D03*
X971300Y-190785D02*
G54D10*
D03*
X971300Y-211385D02*
G54D10*
D03*
X1027478Y-154288D02*
G54D16*
D03*
X1027478Y-178988D02*
G54D16*
D03*
X1103779Y-277366D02*
G54D10*
D03*
X1103779Y-297966D02*
G54D10*
D03*
X1027628Y-193087D02*
G54D10*
D03*
X1027628Y-213687D02*
G54D10*
D03*
X1027612Y-227766D02*
G54D10*
D03*
X1027612Y-248366D02*
G54D10*
D03*
X1084779Y-277366D02*
G54D10*
D03*
X1084779Y-297966D02*
G54D10*
D03*
X1065779Y-277366D02*
G54D10*
D03*
X1065779Y-297966D02*
G54D10*
D03*
X1046779Y-277366D02*
G54D10*
D03*
X1046778Y-297966D02*
G54D10*
D03*
X1027779Y-277366D02*
G54D10*
D03*
X1027778Y-297966D02*
G54D10*
D03*
X1046478Y-154288D02*
G54D16*
D03*
X1046478Y-178988D02*
G54D16*
D03*
X1046628Y-193087D02*
G54D10*
D03*
X1046628Y-213687D02*
G54D10*
D03*
X1046612Y-227766D02*
G54D10*
D03*
X1046612Y-248366D02*
G54D10*
D03*
X1065478Y-154288D02*
G54D16*
D03*
X1065478Y-178988D02*
G54D16*
D03*
X1065628Y-193087D02*
G54D10*
D03*
X1065628Y-213687D02*
G54D10*
D03*
X1065612Y-227766D02*
G54D10*
D03*
X1065612Y-248366D02*
G54D10*
D03*
X1084478Y-154288D02*
G54D16*
D03*
X1084478Y-178988D02*
G54D16*
D03*
X1084628Y-193087D02*
G54D10*
D03*
X1084628Y-213687D02*
G54D10*
D03*
X1084612Y-227766D02*
G54D10*
D03*
X1084612Y-248366D02*
G54D10*
D03*
X1103478Y-154288D02*
G54D16*
D03*
X1103478Y-178988D02*
G54D16*
D03*
X1103628Y-193087D02*
G54D10*
D03*
X1103628Y-213687D02*
G54D10*
D03*
X1103612Y-227766D02*
G54D10*
D03*
X1103612Y-248366D02*
G54D10*
D03*
X1111213Y-262988D02*
G54D17*
D03*
X1094513Y-263088D02*
G54D17*
D03*
X1082913Y-262988D02*
G54D17*
D03*
X1066213Y-263088D02*
G54D17*
D03*
X1054713Y-262988D02*
G54D17*
D03*
X1038013Y-263088D02*
G54D17*
D03*
X1026413Y-262988D02*
G54D17*
D03*
X1009713Y-263088D02*
G54D17*
D03*
X1008113Y-248566D02*
G54D10*
D03*
X1008113Y-227966D02*
G54D10*
D03*
X1127422Y-52830D02*
G54D18*
D03*
X1127422Y-103630D02*
G54D18*
D03*
X1025822Y-78230D02*
G54D18*
D03*
G54D19*
X861578Y-393588D02*
X1151578Y-393588D01*
G36*
X1132164Y-208749D02*
X1141357Y-199557D01*
X1152671Y-210870D01*
X1143478Y-220063D01*
X1132164Y-208749D01*
G37*
G36*
X1146731Y-194182D02*
X1155923Y-184990D01*
X1167237Y-196304D01*
X1158044Y-205496D01*
X1146731Y-194182D01*
G37*
G36*
X1191972Y-171721D02*
X1182781Y-180914D01*
X1171466Y-169602D01*
X1180657Y-160408D01*
X1191972Y-171721D01*
G37*
G36*
X1177406Y-186289D02*
X1168213Y-195481D01*
X1156900Y-184167D01*
X1166093Y-174975D01*
X1177406Y-186289D01*
G37*
X1127618Y-196479D02*
G54D10*
D03*
X1127618Y-175879D02*
G54D10*
D03*
X1234121Y-282830D02*
G54D11*
D03*
X1234122Y-333630D02*
G54D11*
D03*
X1132522Y-308230D02*
G54D11*
D03*
X1253053Y-175032D02*
G54D14*
D03*
X1253053Y-156032D02*
G54D14*
D03*
X1275253Y-165532D02*
G54D14*
D03*
X1218453Y-156032D02*
G54D15*
D03*
X1239053Y-156032D02*
G54D15*
D03*
X1275252Y-117438D02*
G54D10*
D03*
X1275252Y-138038D02*
G54D10*
D03*
X1274588Y-34103D02*
G54D10*
D03*
X1274588Y-54704D02*
G54D10*
D03*
G36*
X1247596Y-88213D02*
X1260596Y-88213D01*
X1260597Y-104213D01*
X1247597Y-104213D01*
X1247596Y-88213D01*
G37*
X1274696Y-96213D02*
G54D15*
D03*
G36*
X1229000Y-124750D02*
X1242000Y-124750D01*
X1242000Y-140750D01*
X1229000Y-140750D01*
X1229000Y-124750D01*
G37*
X1256100Y-132750D02*
G54D15*
D03*
X1219852Y-195532D02*
G54D14*
D03*
X1219852Y-176532D02*
G54D14*
D03*
X1242052Y-186032D02*
G54D14*
D03*
X1240838Y-232003D02*
G54D10*
D03*
X1240838Y-211403D02*
G54D10*
D03*
X1275180Y-225485D02*
G54D10*
D03*
X1275180Y-246085D02*
G54D10*
D03*
X1223880Y-211205D02*
G54D10*
D03*
X1223880Y-231805D02*
G54D10*
D03*
X1237728Y-251038D02*
G54D15*
D03*
X1258327Y-251038D02*
G54D15*
D03*
X1223847Y-251132D02*
G54D15*
D03*
X1203247Y-251132D02*
G54D15*
D03*
X1275060Y-190785D02*
G54D10*
D03*
X1275060Y-211385D02*
G54D10*
D03*
X1258000Y-190785D02*
G54D10*
D03*
X1258000Y-211385D02*
G54D10*
D03*
G54D19*
X1148278Y-393588D02*
X1394278Y-393588D01*
G36*
X1394278Y-402088D02*
X1394278Y-385088D01*
X1402778Y-385088D01*
X1402778Y-402088D01*
X1394278Y-402088D01*
G37*
G54D19*
X1394278Y-393588D02*
X1394299Y-8600D01*
X1214385Y-106295D02*
G54D20*
D03*
X1214385Y-80895D02*
G54D20*
D03*
X1340873Y-52598D02*
G54D21*
D03*
X1213873Y-52598D02*
G54D21*
D03*
X1349500Y-258500D02*
G54D21*
D03*
X1349500Y-131500D02*
G54D21*
D03*
X1310000Y-255000D02*
G54D20*
D03*
X1310000Y-229600D02*
G54D20*
D03*
X385200Y-308300D02*
G54D15*
D03*
X405800Y-308300D02*
G54D15*
D03*
X671326Y-308143D02*
G54D15*
D03*
X691926Y-308143D02*
G54D15*
D03*
X958826Y-308243D02*
G54D15*
D03*
X979426Y-308243D02*
G54D15*
D03*
X1245225Y-308343D02*
G54D15*
D03*
X1265825Y-308343D02*
G54D15*
D03*
G36*
X170167Y-346916D02*
X182167Y-346916D01*
X182167Y-357916D01*
X176167Y-351916D01*
X170167Y-357916D01*
X170167Y-346916D01*
G37*
G54D22*
X170167Y-346916D02*
X182167Y-346916D01*
X182167Y-357916D01*
X176167Y-351916D01*
X170167Y-357916D01*
X170167Y-346916D01*
G36*
X176167Y-356316D02*
X182167Y-362316D01*
X182167Y-366316D01*
X170167Y-366316D01*
X170167Y-362316D01*
X176167Y-356316D01*
G37*
G54D22*
X176167Y-356316D02*
X182167Y-362316D01*
X182167Y-366316D01*
X170167Y-366316D01*
X170167Y-362316D01*
X176167Y-356316D01*
G36*
X456867Y-346716D02*
X468867Y-346716D01*
X468867Y-357716D01*
X462867Y-351716D01*
X456867Y-357716D01*
X456867Y-346716D01*
G37*
G54D22*
X456867Y-346716D02*
X468867Y-346716D01*
X468867Y-357716D01*
X462867Y-351716D01*
X456867Y-357716D01*
X456867Y-346716D01*
G36*
X462867Y-356116D02*
X468867Y-362116D01*
X468867Y-366116D01*
X456867Y-366116D01*
X456867Y-362116D01*
X462867Y-356116D01*
G37*
G54D22*
X462867Y-356116D02*
X468867Y-362116D01*
X468867Y-366116D01*
X456867Y-366116D01*
X456867Y-362116D01*
X462867Y-356116D01*
G36*
X743567Y-346816D02*
X755567Y-346816D01*
X755567Y-357816D01*
X749567Y-351816D01*
X743567Y-357816D01*
X743567Y-346816D01*
G37*
G54D22*
X743567Y-346816D02*
X755567Y-346816D01*
X755567Y-357816D01*
X749567Y-351816D01*
X743567Y-357816D01*
X743567Y-346816D01*
G36*
X749567Y-356216D02*
X755567Y-362216D01*
X755567Y-366216D01*
X743567Y-366216D01*
X743567Y-362216D01*
X749567Y-356216D01*
G37*
G54D22*
X749567Y-356216D02*
X755567Y-362216D01*
X755567Y-366216D01*
X743567Y-366216D01*
X743567Y-362216D01*
X749567Y-356216D01*
G36*
X1030367Y-346916D02*
X1042367Y-346916D01*
X1042367Y-357916D01*
X1036367Y-351916D01*
X1030367Y-357916D01*
X1030367Y-346916D01*
G37*
G54D22*
X1030367Y-346916D02*
X1042367Y-346916D01*
X1042367Y-357916D01*
X1036367Y-351916D01*
X1030367Y-357916D01*
X1030367Y-346916D01*
G36*
X1036367Y-356316D02*
X1042367Y-362316D01*
X1042367Y-366316D01*
X1030367Y-366316D01*
X1030367Y-362316D01*
X1036367Y-356316D01*
G37*
G54D22*
X1036367Y-356316D02*
X1042367Y-362316D01*
X1042367Y-366316D01*
X1030367Y-366316D01*
X1030367Y-362316D01*
X1036367Y-356316D01*
X53840Y-140028D02*
G54D10*
D03*
X53840Y-119428D02*
G54D10*
D03*
X1362019Y-331443D02*
G54D15*
D03*
X1341419Y-331443D02*
G54D15*
D03*
X1362019Y-348443D02*
G54D15*
D03*
X1341419Y-348443D02*
G54D15*
D03*
X1362019Y-365443D02*
G54D15*
D03*
X1341419Y-365443D02*
G54D15*
D03*
X1362019Y-314443D02*
G54D15*
D03*
X1341419Y-314443D02*
G54D15*
D03*
X1362019Y-297443D02*
G54D15*
D03*
X1341419Y-297443D02*
G54D15*
D03*
X589678Y-140988D02*
G54D12*
D03*
X589679Y-240988D02*
G54D12*
D03*
X624679Y-155988D02*
G54D13*
D03*
X554679Y-155988D02*
G54D13*
D03*
X624678Y-190988D02*
G54D13*
D03*
X554679Y-225988D02*
G54D13*
D03*
X624678Y-225988D02*
G54D13*
D03*
X876378Y-140988D02*
G54D12*
D03*
X876379Y-240988D02*
G54D12*
D03*
X911378Y-155988D02*
G54D13*
D03*
X841378Y-155988D02*
G54D13*
D03*
X911378Y-190988D02*
G54D13*
D03*
X841378Y-225988D02*
G54D13*
D03*
X911378Y-225988D02*
G54D13*
D03*
X1163078Y-140988D02*
G54D12*
D03*
X1163078Y-240988D02*
G54D12*
D03*
X1198078Y-155988D02*
G54D13*
D03*
X1128078Y-155988D02*
G54D13*
D03*
X1198078Y-190988D02*
G54D13*
D03*
X1128078Y-225988D02*
G54D13*
D03*
X1198078Y-225988D02*
G54D13*
D03*
M02*
