%FSLAX34Y34*%
%MOMM*%
%LNCOPPER_TOP*%
G71*
G01*
%ADD10R,2.000X1.700*%
%ADD11C,3.800*%
%ADD12C,3.100*%
%ADD13R,1.700X1.700*%
%ADD14R,2.200X1.900*%
%ADD15R,2.400X2.100*%
%ADD16R,1.900X2.200*%
%ADD17R,1.900X1.900*%
%ADD18R,2.100X2.400*%
%ADD19C,1.800*%
%ADD20C,1.500*%
%ADD21C,2.200*%
%ADD22C,1.200*%
%ADD23C,1.400*%
%ADD24C,1.800*%
%ADD25C,1.900*%
%ADD26R,1.700X1.850*%
%ADD27C,1.700*%
%ADD28C,1.600*%
%ADD29C,1.600*%
%ADD30C,1.850*%
%ADD31C,4.100*%
%ADD32C,1.300*%
%ADD33C,0.950*%
%ADD34C,1.400*%
%ADD35C,0.500*%
%ADD36C,2.900*%
%ADD37C,3.100*%
%ADD38C,2.300*%
%ADD39C,2.300*%
%ADD40C,0.300*%
%ADD41C,0.700*%
%ADD42C,0.900*%
%ADD43R,1.400X1.100*%
%ADD44C,3.000*%
%ADD45C,3.500*%
%ADD46C,2.300*%
%ADD47R,1.100X1.100*%
%ADD48R,1.100X1.400*%
%ADD49C,1.000*%
%ADD50C,0.400*%
%ADD51C,1.000*%
%ADD52C,1.100*%
%ADD53R,0.900X1.050*%
%ADD54C,0.800*%
%ADD55R,0.900X0.900*%
%ADD56C,0.800*%
%ADD57C,1.050*%
%ADD58C,3.300*%
%ADD59C,0.150*%
%ADD60C,0.600*%
%ADD61C,2.100*%
%ADD62C,2.300*%
%ADD63C,1.500*%
%ADD64C,0.100*%
%ADD65C,0.600*%
%LPD*%
G36*
X0Y0D02*
X1402000Y0D01*
X1402000Y-402000D01*
X0Y-402000D01*
X0Y0D01*
G37*
%LPC*%
G36*
X282388Y-194183D02*
X295824Y-180748D01*
X311380Y-196304D01*
X297945Y-209739D01*
X282388Y-194183D01*
G37*
G36*
X336115Y-171721D02*
X322681Y-185157D01*
X307124Y-169601D01*
X320558Y-156166D01*
X336115Y-171721D01*
G37*
G36*
X321549Y-186289D02*
X308113Y-199723D01*
X292558Y-184166D01*
X305994Y-170732D01*
X321549Y-186289D01*
G37*
X267519Y-175879D02*
G54D10*
D03*
X374022Y-282830D02*
G54D11*
D03*
X374022Y-333630D02*
G54D11*
D03*
X272422Y-308230D02*
G54D11*
D03*
X337979Y-155988D02*
G54D12*
D03*
X267979Y-155988D02*
G54D12*
D03*
X337978Y-225988D02*
G54D12*
D03*
X455561Y-135173D02*
G54D13*
D03*
X436561Y-135173D02*
G54D13*
D03*
X446061Y-112973D02*
G54D13*
D03*
X434588Y-182910D02*
G54D14*
D03*
X434588Y-203510D02*
G54D14*
D03*
X428588Y-278910D02*
G54D14*
D03*
X428588Y-299510D02*
G54D14*
D03*
G36*
X442479Y-334988D02*
X414479Y-334988D01*
X414479Y-306988D01*
X442479Y-306988D01*
X442479Y-334988D01*
G37*
X502088Y-110304D02*
G54D15*
D03*
X502088Y-89704D02*
G54D15*
D03*
X502335Y-72156D02*
G54D16*
D03*
X502488Y-54704D02*
G54D15*
D03*
X502488Y-34104D02*
G54D15*
D03*
X482888Y-133704D02*
G54D10*
D03*
X482888Y-113104D02*
G54D10*
D03*
X392953Y-175032D02*
G54D17*
D03*
X392953Y-156032D02*
G54D17*
D03*
X415153Y-165532D02*
G54D17*
D03*
X358353Y-156032D02*
G54D18*
D03*
X378953Y-156032D02*
G54D18*
D03*
X415153Y-117438D02*
G54D15*
D03*
X415153Y-138038D02*
G54D15*
D03*
X414488Y-34103D02*
G54D15*
D03*
X414488Y-54704D02*
G54D15*
D03*
X414597Y-96213D02*
G54D16*
D03*
X396000Y-132750D02*
G54D16*
D03*
X359753Y-195532D02*
G54D17*
D03*
X359753Y-176532D02*
G54D17*
D03*
X381953Y-186032D02*
G54D17*
D03*
X380739Y-232003D02*
G54D15*
D03*
X380739Y-211403D02*
G54D15*
D03*
X415080Y-225485D02*
G54D15*
D03*
X415080Y-246085D02*
G54D15*
D03*
X363780Y-211205D02*
G54D15*
D03*
X363780Y-231805D02*
G54D15*
D03*
X377628Y-251038D02*
G54D18*
D03*
X398228Y-251038D02*
G54D18*
D03*
X363747Y-251132D02*
G54D16*
D03*
G54D19*
X321619Y-170661D02*
X317946Y-167588D01*
X288978Y-167588D01*
X267979Y-156588D01*
G54D20*
X321619Y-170661D02*
X337979Y-155988D01*
G54D19*
X321619Y-170661D02*
X337979Y-155988D01*
G54D21*
X297991Y-194117D02*
X305980Y-186365D01*
G54D19*
X301976Y-190954D02*
X301976Y-193400D01*
X332003Y-223427D01*
G54D19*
X267683Y-173942D02*
X267979Y-155988D01*
X414960Y-190785D02*
G54D15*
D03*
X414960Y-211385D02*
G54D15*
D03*
X397900Y-190785D02*
G54D15*
D03*
X397900Y-211385D02*
G54D15*
D03*
G54D22*
X359753Y-176532D02*
X364453Y-176532D01*
X370953Y-183032D01*
X370953Y-190032D01*
G54D23*
X370953Y-190032D02*
X370953Y-195032D01*
X380626Y-204704D01*
X380626Y-214376D01*
X381790Y-174886D02*
G54D24*
D03*
G54D25*
X381953Y-186032D02*
X381790Y-174886D01*
X392953Y-175032D01*
G54D25*
X397900Y-190785D02*
X415900Y-190785D01*
G54D25*
X415153Y-165532D02*
X415153Y-190038D01*
X415900Y-190785D01*
G54D19*
X359753Y-195532D02*
X360782Y-203106D01*
X363780Y-211205D01*
G54D25*
X380739Y-232003D02*
X390764Y-232003D01*
X397900Y-224866D01*
X397900Y-211385D01*
X414960Y-211385D01*
G54D25*
X363748Y-251132D02*
X363748Y-231805D01*
X363780Y-231805D01*
X454078Y-154288D02*
G54D26*
D03*
X454078Y-178988D02*
G54D26*
D03*
X530379Y-277366D02*
G54D10*
D03*
X530379Y-297966D02*
G54D10*
D03*
X454228Y-193087D02*
G54D10*
D03*
X454228Y-213687D02*
G54D10*
D03*
X454213Y-227766D02*
G54D10*
D03*
X454213Y-248366D02*
G54D10*
D03*
X511379Y-277366D02*
G54D10*
D03*
X511379Y-297966D02*
G54D10*
D03*
X492379Y-277366D02*
G54D10*
D03*
X492379Y-297966D02*
G54D10*
D03*
X473379Y-277366D02*
G54D10*
D03*
X473379Y-297966D02*
G54D10*
D03*
X454379Y-277366D02*
G54D10*
D03*
X454379Y-297966D02*
G54D10*
D03*
G54D27*
X454213Y-227766D02*
X454228Y-213687D01*
G54D27*
X454078Y-178988D02*
X454228Y-193087D01*
X530379Y-306866D02*
G54D28*
D03*
X473078Y-154288D02*
G54D26*
D03*
X473078Y-178988D02*
G54D26*
D03*
X473228Y-193087D02*
G54D10*
D03*
X473228Y-213687D02*
G54D10*
D03*
X473213Y-227766D02*
G54D10*
D03*
X473213Y-248366D02*
G54D10*
D03*
G54D27*
X473213Y-227766D02*
X473228Y-213687D01*
G54D20*
X473078Y-178988D02*
X473228Y-193087D01*
X492078Y-154288D02*
G54D26*
D03*
X492078Y-178988D02*
G54D26*
D03*
X492228Y-193087D02*
G54D10*
D03*
X492228Y-213687D02*
G54D10*
D03*
X492213Y-227766D02*
G54D10*
D03*
X492213Y-248366D02*
G54D10*
D03*
G54D27*
X492213Y-227766D02*
X492228Y-213687D01*
G54D20*
X492078Y-178988D02*
X492228Y-193087D01*
X511078Y-154288D02*
G54D26*
D03*
X511078Y-178988D02*
G54D26*
D03*
X511228Y-193087D02*
G54D10*
D03*
X511228Y-213687D02*
G54D10*
D03*
X511213Y-227766D02*
G54D10*
D03*
X511213Y-248366D02*
G54D10*
D03*
G54D27*
X511213Y-227766D02*
X511228Y-213687D01*
G54D20*
X511078Y-178988D02*
X511228Y-193087D01*
X530078Y-154288D02*
G54D26*
D03*
X530078Y-178988D02*
G54D26*
D03*
X530228Y-193087D02*
G54D10*
D03*
X530228Y-213687D02*
G54D10*
D03*
X530213Y-227766D02*
G54D10*
D03*
X530213Y-248366D02*
G54D10*
D03*
G54D27*
X530213Y-227766D02*
X530228Y-213687D01*
G54D20*
X530078Y-178988D02*
X530228Y-193087D01*
X537814Y-262988D02*
G54D13*
D03*
X521114Y-263088D02*
G54D13*
D03*
X509514Y-262988D02*
G54D13*
D03*
X492814Y-263088D02*
G54D13*
D03*
X481314Y-262988D02*
G54D13*
D03*
X464614Y-263088D02*
G54D13*
D03*
X453014Y-262988D02*
G54D13*
D03*
X436314Y-263088D02*
G54D13*
D03*
G54D29*
X464614Y-263088D02*
X473379Y-248366D01*
G54D27*
X481314Y-262988D02*
X492814Y-263088D01*
G54D27*
X464614Y-263088D02*
X453014Y-262988D01*
G54D27*
X509514Y-262988D02*
X521114Y-263088D01*
G54D27*
X436314Y-263088D02*
X436302Y-255171D01*
X434714Y-248566D01*
X454213Y-248366D01*
G54D27*
X481314Y-262988D02*
X481314Y-263088D01*
X492814Y-263088D01*
X492814Y-248366D01*
X492379Y-248366D01*
G54D27*
X521114Y-263088D02*
X521114Y-262988D01*
X509514Y-262988D01*
G54D27*
X511379Y-248366D02*
X511379Y-262988D01*
X509514Y-262988D01*
G54D27*
X537814Y-262988D02*
X537814Y-248366D01*
X530379Y-248366D01*
G54D23*
X464614Y-262966D02*
X473379Y-277688D01*
G54D20*
X436314Y-262966D02*
X436314Y-277688D01*
X454379Y-277688D01*
G54D20*
X481314Y-263066D02*
X481314Y-262966D01*
X492813Y-262966D01*
X492813Y-277688D01*
X492379Y-277688D01*
G54D20*
X511379Y-277688D02*
X511379Y-263066D01*
X509514Y-263066D01*
G54D20*
X537814Y-263066D02*
X537814Y-277688D01*
X530379Y-277688D01*
X511379Y-306866D02*
G54D28*
D03*
X492379Y-306866D02*
G54D28*
D03*
X473379Y-306866D02*
G54D28*
D03*
X454379Y-306866D02*
G54D28*
D03*
G54D27*
X530379Y-306866D02*
X530379Y-297966D01*
G54D27*
X511379Y-306866D02*
X511379Y-297966D01*
G54D27*
X492379Y-306866D02*
X492379Y-297966D01*
G54D27*
X473379Y-306866D02*
X473379Y-297966D01*
G54D27*
X454379Y-306866D02*
X454379Y-297966D01*
G54D30*
X455542Y-154288D02*
X530078Y-154288D01*
G54D30*
X530078Y-154288D02*
X553079Y-154288D01*
X554779Y-155988D01*
X434714Y-248566D02*
G54D14*
D03*
X434714Y-227966D02*
G54D14*
D03*
X434626Y-215948D02*
G54D24*
D03*
G54D19*
X434626Y-215948D02*
X434626Y-227879D01*
X434714Y-227966D01*
G54D19*
X363748Y-251132D02*
X363842Y-251038D01*
X377628Y-251038D01*
G54D19*
X398228Y-251038D02*
X403180Y-246085D01*
X415080Y-246085D01*
G54D19*
X415080Y-225485D02*
X414960Y-225365D01*
X414960Y-211385D01*
G54D19*
X434626Y-215948D02*
X434588Y-215910D01*
X434588Y-203510D01*
X554022Y-52830D02*
G54D31*
D03*
X554022Y-103630D02*
G54D31*
D03*
X452422Y-78230D02*
G54D31*
D03*
G54D29*
X434588Y-182910D02*
X436561Y-182910D01*
X436561Y-135173D01*
X466039Y-135212D02*
G54D24*
D03*
G54D19*
X455561Y-135173D02*
X466039Y-135212D01*
G54D29*
X446061Y-112973D02*
X482888Y-113104D01*
G54D29*
X482888Y-133704D02*
X482888Y-152988D01*
X483778Y-152988D01*
G54D32*
X482888Y-113104D02*
X502088Y-110304D01*
G54D25*
X502335Y-72156D02*
X502335Y-89704D01*
X502088Y-89704D01*
G54D25*
X502335Y-72156D02*
X502335Y-54704D01*
X502488Y-54704D01*
G54D19*
X1276692Y-27030D02*
X204978Y-26988D01*
G36*
X1276691Y-36030D02*
X1276692Y-18030D01*
X1285692Y-18031D01*
X1285691Y-36031D01*
X1276691Y-36030D01*
G37*
G54D25*
X415153Y-165532D02*
X415153Y-138038D01*
G54D27*
X396000Y-132750D02*
X401288Y-138038D01*
X415153Y-138038D01*
G54D32*
X414597Y-96213D02*
X414488Y-96104D01*
X414488Y-54704D01*
G54D27*
X578978Y-377588D02*
X282978Y-377588D01*
G54D19*
X414626Y-256548D02*
X414626Y-246085D01*
X415080Y-246085D01*
G54D19*
X414626Y-256548D02*
X414626Y-265340D01*
X402978Y-276988D01*
X402978Y-376988D01*
G54D19*
X428478Y-320988D02*
X428588Y-299510D01*
G54D27*
X428588Y-278910D02*
X436314Y-263088D01*
G54D25*
X337979Y-155988D02*
X358353Y-156032D01*
G54D25*
X378953Y-156032D02*
X392953Y-156032D01*
G54D19*
X415153Y-117438D02*
X414597Y-96213D01*
X168761Y-135173D02*
G54D13*
D03*
X149761Y-135173D02*
G54D13*
D03*
X159261Y-112973D02*
G54D13*
D03*
X147788Y-182910D02*
G54D14*
D03*
X147788Y-203510D02*
G54D14*
D03*
X141788Y-278910D02*
G54D14*
D03*
X141788Y-299510D02*
G54D14*
D03*
G36*
X152179Y-334988D02*
X124179Y-334988D01*
X124179Y-306988D01*
X152179Y-306988D01*
X152179Y-334988D01*
G37*
X215288Y-110304D02*
G54D15*
D03*
X215288Y-89704D02*
G54D15*
D03*
X215535Y-72156D02*
G54D16*
D03*
X215688Y-54704D02*
G54D15*
D03*
X215688Y-34104D02*
G54D15*
D03*
X196088Y-133704D02*
G54D10*
D03*
X196088Y-113104D02*
G54D10*
D03*
X106153Y-175032D02*
G54D17*
D03*
X106153Y-156032D02*
G54D17*
D03*
X128353Y-165532D02*
G54D17*
D03*
X71553Y-156032D02*
G54D18*
D03*
X92153Y-156032D02*
G54D18*
D03*
X128353Y-117438D02*
G54D15*
D03*
X128353Y-138038D02*
G54D15*
D03*
X127688Y-34103D02*
G54D15*
D03*
X127688Y-54704D02*
G54D15*
D03*
X127797Y-96213D02*
G54D16*
D03*
X109200Y-132750D02*
G54D16*
D03*
X72953Y-195532D02*
G54D17*
D03*
X72953Y-176532D02*
G54D17*
D03*
X95153Y-186032D02*
G54D17*
D03*
X93939Y-232003D02*
G54D15*
D03*
X93939Y-211403D02*
G54D15*
D03*
X128280Y-225485D02*
G54D15*
D03*
X128280Y-246085D02*
G54D15*
D03*
X76980Y-211205D02*
G54D15*
D03*
X76980Y-231805D02*
G54D15*
D03*
X90828Y-251038D02*
G54D18*
D03*
X111428Y-251038D02*
G54D18*
D03*
X76948Y-251132D02*
G54D16*
D03*
X116178Y-276988D02*
G54D16*
D03*
X128160Y-190785D02*
G54D15*
D03*
X128160Y-211385D02*
G54D15*
D03*
X111100Y-190785D02*
G54D15*
D03*
X111100Y-211385D02*
G54D15*
D03*
G54D22*
X72953Y-176532D02*
X77653Y-176532D01*
X84153Y-183032D01*
X84153Y-190032D01*
G54D23*
X84153Y-190032D02*
X84153Y-195032D01*
X93826Y-204704D01*
X93826Y-214376D01*
X94990Y-174886D02*
G54D24*
D03*
G54D25*
X95153Y-186032D02*
X94990Y-174886D01*
X106153Y-175032D01*
G54D25*
X111100Y-190785D02*
X129100Y-190785D01*
G54D25*
X128353Y-165532D02*
X128353Y-190038D01*
X129100Y-190785D01*
G54D19*
X72953Y-195532D02*
X73982Y-203106D01*
X76980Y-211205D01*
G54D25*
X93939Y-232003D02*
X103964Y-232003D01*
X111100Y-224866D01*
X111100Y-211385D01*
X128160Y-211385D01*
G54D25*
X76948Y-251132D02*
X76948Y-231805D01*
X76980Y-231805D01*
X167278Y-154288D02*
G54D26*
D03*
X167278Y-178988D02*
G54D26*
D03*
X243579Y-277366D02*
G54D10*
D03*
X243579Y-297966D02*
G54D10*
D03*
X167428Y-193087D02*
G54D10*
D03*
X167428Y-213687D02*
G54D10*
D03*
X167413Y-227766D02*
G54D10*
D03*
X167413Y-248366D02*
G54D10*
D03*
X224579Y-277366D02*
G54D10*
D03*
X224579Y-297966D02*
G54D10*
D03*
X205579Y-277366D02*
G54D10*
D03*
X205579Y-297966D02*
G54D10*
D03*
X186579Y-277366D02*
G54D10*
D03*
X186579Y-297966D02*
G54D10*
D03*
X167579Y-277366D02*
G54D10*
D03*
X167579Y-297966D02*
G54D10*
D03*
G54D27*
X167413Y-227766D02*
X167428Y-213687D01*
G54D27*
X167278Y-178988D02*
X167428Y-193087D01*
X186278Y-154288D02*
G54D26*
D03*
X186278Y-178988D02*
G54D26*
D03*
X186428Y-193087D02*
G54D10*
D03*
X186428Y-213687D02*
G54D10*
D03*
X186413Y-227766D02*
G54D10*
D03*
X186413Y-248366D02*
G54D10*
D03*
G54D27*
X186413Y-227766D02*
X186428Y-213687D01*
G54D20*
X186278Y-178988D02*
X186428Y-193087D01*
X205278Y-154288D02*
G54D26*
D03*
X205278Y-178988D02*
G54D26*
D03*
X205428Y-193087D02*
G54D10*
D03*
X205428Y-213687D02*
G54D10*
D03*
X205413Y-227766D02*
G54D10*
D03*
X205413Y-248366D02*
G54D10*
D03*
G54D27*
X205413Y-227766D02*
X205428Y-213687D01*
G54D20*
X205278Y-178988D02*
X205428Y-193087D01*
X224278Y-154288D02*
G54D26*
D03*
X224278Y-178988D02*
G54D26*
D03*
X224428Y-193087D02*
G54D10*
D03*
X224428Y-213687D02*
G54D10*
D03*
X224413Y-227766D02*
G54D10*
D03*
X224413Y-248366D02*
G54D10*
D03*
G54D27*
X224413Y-227766D02*
X224428Y-213687D01*
G54D20*
X224278Y-178988D02*
X224428Y-193087D01*
X243278Y-154288D02*
G54D26*
D03*
X243278Y-178988D02*
G54D26*
D03*
X243428Y-193087D02*
G54D10*
D03*
X243428Y-213687D02*
G54D10*
D03*
X243413Y-227766D02*
G54D10*
D03*
X243413Y-248366D02*
G54D10*
D03*
G54D27*
X243413Y-227766D02*
X243428Y-213687D01*
G54D20*
X243278Y-178988D02*
X243428Y-193087D01*
X251013Y-262988D02*
G54D13*
D03*
X234314Y-263088D02*
G54D13*
D03*
X222714Y-262988D02*
G54D13*
D03*
X206014Y-263088D02*
G54D13*
D03*
X194514Y-262988D02*
G54D13*
D03*
X177814Y-263088D02*
G54D13*
D03*
X166214Y-262988D02*
G54D13*
D03*
X149514Y-263088D02*
G54D13*
D03*
G54D29*
X177814Y-263088D02*
X186579Y-248366D01*
G54D27*
X194514Y-262988D02*
X206014Y-263088D01*
G54D27*
X177814Y-263088D02*
X166214Y-262988D01*
G54D27*
X222714Y-262988D02*
X234314Y-263088D01*
G54D27*
X149514Y-263088D02*
X149502Y-255171D01*
X147914Y-248566D01*
X167413Y-248366D01*
G54D27*
X194514Y-262988D02*
X194514Y-263088D01*
X206014Y-263088D01*
X206014Y-248366D01*
X205579Y-248366D01*
G54D27*
X234314Y-263088D02*
X234314Y-262988D01*
X222714Y-262988D01*
G54D27*
X224579Y-248366D02*
X224579Y-262988D01*
X222714Y-262988D01*
G54D27*
X251014Y-262988D02*
X251014Y-248366D01*
X243579Y-248366D01*
G54D23*
X177814Y-262966D02*
X186579Y-277688D01*
G54D20*
X149514Y-262966D02*
X149514Y-277688D01*
X167579Y-277688D01*
G54D20*
X194514Y-263066D02*
X194514Y-262966D01*
X206013Y-262966D01*
X206013Y-277688D01*
X205579Y-277688D01*
G54D20*
X224579Y-277688D02*
X224579Y-263066D01*
X222714Y-263066D01*
G54D20*
X251014Y-263066D02*
X251014Y-277688D01*
X243579Y-277688D01*
G54D30*
X168742Y-154288D02*
X243278Y-154288D01*
G54D30*
X243278Y-154288D02*
X266279Y-154288D01*
X267979Y-155988D01*
X147914Y-248566D02*
G54D14*
D03*
X147914Y-227966D02*
G54D14*
D03*
X147827Y-215948D02*
G54D24*
D03*
G54D19*
X147827Y-215948D02*
X147827Y-227879D01*
X147914Y-227966D01*
G54D19*
X76948Y-251132D02*
X77042Y-251038D01*
X90828Y-251038D01*
G54D19*
X111428Y-251038D02*
X116380Y-246085D01*
X128280Y-246085D01*
G54D19*
X128280Y-225485D02*
X128160Y-225365D01*
X128160Y-211385D01*
G54D19*
X147827Y-215948D02*
X147788Y-215910D01*
X147788Y-203510D01*
X267222Y-52830D02*
G54D31*
D03*
X267222Y-103630D02*
G54D31*
D03*
X165622Y-78230D02*
G54D31*
D03*
G54D29*
X147788Y-182910D02*
X149761Y-182910D01*
X149761Y-135173D01*
X179239Y-135212D02*
G54D24*
D03*
G54D19*
X168761Y-135173D02*
X179239Y-135212D01*
G54D29*
X159261Y-112973D02*
X196088Y-113104D01*
G54D29*
X196088Y-133704D02*
X196088Y-152988D01*
X196978Y-152988D01*
G54D32*
X196088Y-113104D02*
X215288Y-110304D01*
G54D25*
X215535Y-72156D02*
X215535Y-89704D01*
X215288Y-89704D01*
G54D25*
X215535Y-72156D02*
X215535Y-54704D01*
X215688Y-54704D01*
G54D19*
X358178Y-26988D02*
X125732Y-26877D01*
G36*
X125736Y-17877D02*
X125728Y-35877D01*
X116728Y-35873D01*
X116736Y-17873D01*
X125736Y-17877D01*
G37*
G54D25*
X128353Y-165532D02*
X128353Y-138038D01*
G54D27*
X109200Y-132750D02*
X114488Y-138038D01*
X128353Y-138038D01*
G54D32*
X127797Y-96213D02*
X127688Y-96104D01*
X127688Y-54704D01*
G54D27*
X292178Y-377588D02*
X116178Y-377588D01*
G54D19*
X127827Y-256548D02*
X127827Y-246085D01*
X128280Y-246085D01*
G54D19*
X127827Y-256548D02*
X127827Y-265340D01*
X116178Y-276988D01*
X116178Y-376988D01*
G54D19*
X138178Y-320988D02*
X141788Y-299510D01*
G54D27*
X141788Y-278910D02*
X149514Y-263088D01*
G54D25*
X54000Y-156085D02*
X71553Y-156032D01*
G54D25*
X92153Y-156032D02*
X106153Y-156032D01*
G54D19*
X128353Y-117438D02*
X127797Y-96213D01*
X54000Y-156085D02*
G54D15*
D03*
X54000Y-176685D02*
G54D15*
D03*
X54411Y-187288D02*
G54D24*
D03*
G54D33*
X54411Y-187288D02*
X54000Y-176685D01*
G54D19*
X54411Y-187288D02*
X54000Y-176685D01*
G54D32*
X520579Y-366666D02*
X540579Y-366666D01*
X492579Y-358666D02*
G54D34*
D03*
X520579Y-366666D02*
G54D34*
D03*
X540579Y-366666D02*
G54D34*
D03*
X506579Y-362666D02*
G54D34*
D03*
X554579Y-362666D02*
G54D34*
D03*
G54D32*
X506579Y-362666D02*
X511645Y-357600D01*
X549200Y-357600D01*
X554266Y-362666D01*
X554579Y-362666D01*
X568579Y-358666D02*
G54D34*
D03*
X478579Y-354666D02*
G54D34*
D03*
X582579Y-354666D02*
G54D34*
D03*
G54D32*
X492579Y-358666D02*
X502645Y-348600D01*
X559200Y-348600D01*
X568579Y-357979D01*
X568579Y-358666D01*
G54D32*
X478579Y-354666D02*
X493645Y-339600D01*
X567200Y-339600D01*
X582579Y-354666D01*
X243679Y-306866D02*
G54D28*
D03*
X224679Y-306866D02*
G54D28*
D03*
X205679Y-306866D02*
G54D28*
D03*
X186679Y-306866D02*
G54D28*
D03*
X167679Y-306866D02*
G54D28*
D03*
G54D27*
X243679Y-306866D02*
X243679Y-297966D01*
G54D27*
X224679Y-306866D02*
X224679Y-297966D01*
G54D27*
X205679Y-306866D02*
X205679Y-297966D01*
G54D27*
X186679Y-306866D02*
X186679Y-297966D01*
G54D27*
X167679Y-306866D02*
X167679Y-297966D01*
G54D32*
X233879Y-366666D02*
X253879Y-366666D01*
X205879Y-358666D02*
G54D34*
D03*
X233879Y-366666D02*
G54D34*
D03*
X253879Y-366666D02*
G54D34*
D03*
X219879Y-362666D02*
G54D34*
D03*
X267879Y-362666D02*
G54D34*
D03*
G54D32*
X219879Y-362666D02*
X224945Y-357600D01*
X262500Y-357600D01*
X267566Y-362666D01*
X267879Y-362666D01*
X281879Y-358666D02*
G54D34*
D03*
X191879Y-354666D02*
G54D34*
D03*
X295879Y-354666D02*
G54D34*
D03*
G54D32*
X205879Y-358666D02*
X215945Y-348600D01*
X272500Y-348600D01*
X281879Y-357979D01*
X281879Y-358666D01*
G54D32*
X191879Y-354666D02*
X206945Y-339600D01*
X280500Y-339600D01*
X295879Y-354666D01*
G36*
X71553Y-156032D02*
X76948Y-251132D01*
X108398Y-259352D01*
X109563Y-268842D01*
X121200Y-321600D01*
X138178Y-320988D01*
X150263Y-291551D01*
X150263Y-285960D01*
X149514Y-277688D01*
X243579Y-277366D01*
X251885Y-242511D01*
X250519Y-233676D01*
X251017Y-194702D01*
X247702Y-172259D01*
X149630Y-172283D01*
X153534Y-161157D01*
X160560Y-160960D01*
X203827Y-149852D01*
X203571Y-141700D01*
X192134Y-127736D01*
X186129Y-127714D01*
X156946Y-129238D01*
X134657Y-129180D01*
X109200Y-132750D01*
X99912Y-148166D01*
X71553Y-156032D01*
G37*
G54D35*
X71553Y-156032D02*
X76948Y-251132D01*
X108398Y-259352D01*
X109563Y-268842D01*
X121200Y-321600D01*
X138178Y-320988D01*
X150263Y-291551D01*
X150263Y-285960D01*
X149514Y-277688D01*
X243579Y-277366D01*
X251885Y-242511D01*
X250519Y-233676D01*
X251017Y-194702D01*
X247702Y-172259D01*
X149630Y-172283D01*
X153534Y-161157D01*
X160560Y-160960D01*
X203827Y-149852D01*
X203571Y-141700D01*
X192134Y-127736D01*
X186129Y-127714D01*
X156946Y-129238D01*
X134657Y-129180D01*
X109200Y-132750D01*
X99912Y-148166D01*
X71553Y-156032D01*
G36*
X259673Y-311551D02*
X174631Y-311551D01*
X174631Y-294524D01*
X259673Y-294524D01*
X259673Y-311551D01*
G37*
G54D35*
X259673Y-311551D02*
X174631Y-311551D01*
X174631Y-294524D01*
X259673Y-294524D01*
X259673Y-311551D01*
G36*
X358353Y-156032D02*
X363748Y-251132D01*
X363856Y-280206D01*
X381200Y-291600D01*
X401363Y-293842D01*
X408000Y-321600D01*
X424978Y-320988D01*
X437063Y-291551D01*
X437063Y-285960D01*
X436314Y-277688D01*
X530379Y-277366D01*
X538685Y-242511D01*
X537319Y-233676D01*
X537817Y-194702D01*
X534502Y-172259D01*
X436430Y-172283D01*
X440334Y-161157D01*
X447360Y-160960D01*
X490627Y-149852D01*
X490371Y-141700D01*
X478934Y-127736D01*
X472929Y-127714D01*
X443746Y-129238D01*
X421457Y-129180D01*
X396000Y-132750D01*
X386712Y-148166D01*
X358353Y-156032D01*
G37*
G54D35*
X358353Y-156032D02*
X363748Y-251132D01*
X363856Y-280206D01*
X381200Y-291600D01*
X401363Y-293842D01*
X408000Y-321600D01*
X424978Y-320988D01*
X437063Y-291551D01*
X437063Y-285960D01*
X436314Y-277688D01*
X530379Y-277366D01*
X538685Y-242511D01*
X537319Y-233676D01*
X537817Y-194702D01*
X534502Y-172259D01*
X436430Y-172283D01*
X440334Y-161157D01*
X447360Y-160960D01*
X490627Y-149852D01*
X490371Y-141700D01*
X478934Y-127736D01*
X472929Y-127714D01*
X443746Y-129238D01*
X421457Y-129180D01*
X396000Y-132750D01*
X386712Y-148166D01*
X358353Y-156032D01*
G36*
X356369Y-239508D02*
X336950Y-239039D01*
X337978Y-225988D01*
X296884Y-195243D01*
X297299Y-167899D01*
X328386Y-155871D01*
X337979Y-155988D01*
X358353Y-156032D01*
X361200Y-216600D01*
X356200Y-236600D01*
X356369Y-239508D01*
G37*
G54D35*
X356369Y-239508D02*
X336950Y-239039D01*
X337978Y-225988D01*
X296884Y-195243D01*
X297299Y-167899D01*
X328386Y-155871D01*
X337979Y-155988D01*
X358353Y-156032D01*
X361200Y-216600D01*
X356200Y-236600D01*
X356369Y-239508D01*
G36*
X516200Y-371600D02*
X505266Y-375236D01*
X478606Y-372712D01*
X478579Y-354666D01*
X493645Y-339600D01*
X567200Y-339600D01*
X582579Y-354666D01*
X578986Y-356411D01*
X578978Y-377588D01*
X552016Y-366067D01*
X553514Y-374114D01*
X516200Y-371600D01*
G37*
G54D35*
X516200Y-371600D02*
X505266Y-375236D01*
X478606Y-372712D01*
X478579Y-354666D01*
X493645Y-339600D01*
X567200Y-339600D01*
X582579Y-354666D01*
X578986Y-356411D01*
X578978Y-377588D01*
X552016Y-366067D01*
X553514Y-374114D01*
X516200Y-371600D01*
G36*
X229500Y-371600D02*
X218566Y-375236D01*
X191906Y-372712D01*
X191879Y-354666D01*
X206945Y-339600D01*
X280500Y-339600D01*
X295879Y-354666D01*
X292286Y-356411D01*
X292278Y-377588D01*
X265316Y-366067D01*
X266814Y-374114D01*
X229500Y-371600D01*
G37*
G54D35*
X229500Y-371600D02*
X218566Y-375236D01*
X191906Y-372712D01*
X191879Y-354666D01*
X206945Y-339600D01*
X280500Y-339600D01*
X295879Y-354666D01*
X292286Y-356411D01*
X292278Y-377588D01*
X265316Y-366067D01*
X266814Y-374114D01*
X229500Y-371600D01*
G36*
X569088Y-194183D02*
X582524Y-180748D01*
X598080Y-196304D01*
X584645Y-209739D01*
X569088Y-194183D01*
G37*
G36*
X622815Y-171722D02*
X609381Y-185157D01*
X593824Y-169601D01*
X607258Y-156166D01*
X622815Y-171722D01*
G37*
G36*
X608249Y-186289D02*
X594813Y-199723D01*
X579258Y-184166D01*
X592693Y-170732D01*
X608249Y-186289D01*
G37*
X554219Y-175879D02*
G54D10*
D03*
X660722Y-282830D02*
G54D11*
D03*
X660722Y-333630D02*
G54D11*
D03*
X559122Y-308230D02*
G54D11*
D03*
X742261Y-135173D02*
G54D13*
D03*
X723261Y-135173D02*
G54D13*
D03*
X732761Y-112973D02*
G54D13*
D03*
X721288Y-182910D02*
G54D14*
D03*
X721288Y-203510D02*
G54D14*
D03*
X715288Y-278910D02*
G54D14*
D03*
X715288Y-299510D02*
G54D14*
D03*
G36*
X729179Y-334988D02*
X701179Y-334988D01*
X701179Y-306988D01*
X729179Y-306988D01*
X729179Y-334988D01*
G37*
X788788Y-110304D02*
G54D15*
D03*
X788788Y-89704D02*
G54D15*
D03*
X789035Y-72156D02*
G54D16*
D03*
X789188Y-54704D02*
G54D15*
D03*
X789188Y-34104D02*
G54D15*
D03*
X769588Y-133704D02*
G54D10*
D03*
X769588Y-113104D02*
G54D10*
D03*
X679653Y-175032D02*
G54D17*
D03*
X679653Y-156032D02*
G54D17*
D03*
X701853Y-165532D02*
G54D17*
D03*
X645053Y-156032D02*
G54D18*
D03*
X665653Y-156032D02*
G54D18*
D03*
X701853Y-117438D02*
G54D15*
D03*
X701853Y-138038D02*
G54D15*
D03*
X701188Y-34103D02*
G54D15*
D03*
X701188Y-54704D02*
G54D15*
D03*
X701297Y-96213D02*
G54D16*
D03*
X682700Y-132750D02*
G54D16*
D03*
X646453Y-195532D02*
G54D17*
D03*
X646453Y-176532D02*
G54D17*
D03*
X668653Y-186032D02*
G54D17*
D03*
X667439Y-232003D02*
G54D15*
D03*
X667439Y-211403D02*
G54D15*
D03*
X701780Y-225485D02*
G54D15*
D03*
X701780Y-246085D02*
G54D15*
D03*
X650480Y-211205D02*
G54D15*
D03*
X650480Y-231805D02*
G54D15*
D03*
X664328Y-251038D02*
G54D18*
D03*
X684928Y-251038D02*
G54D18*
D03*
X650447Y-251132D02*
G54D16*
D03*
G54D19*
X608319Y-170661D02*
X604646Y-167588D01*
X575678Y-167588D01*
X554679Y-156588D01*
G54D20*
X608319Y-170661D02*
X624679Y-155988D01*
G54D19*
X608319Y-170661D02*
X624679Y-155988D01*
G54D21*
X584691Y-194117D02*
X592680Y-186365D01*
G54D19*
X588676Y-190954D02*
X588676Y-193400D01*
X618703Y-223427D01*
G54D19*
X554383Y-173942D02*
X554679Y-155988D01*
X701660Y-190785D02*
G54D15*
D03*
X701660Y-211385D02*
G54D15*
D03*
X684600Y-190785D02*
G54D15*
D03*
X684600Y-211385D02*
G54D15*
D03*
G54D22*
X646453Y-176532D02*
X651153Y-176532D01*
X657653Y-183032D01*
X657653Y-190032D01*
G54D23*
X657653Y-190032D02*
X657653Y-195032D01*
X667326Y-204704D01*
X667326Y-214376D01*
X668490Y-174886D02*
G54D24*
D03*
G54D25*
X668653Y-186032D02*
X668490Y-174886D01*
X679653Y-175032D01*
G54D25*
X684600Y-190785D02*
X702600Y-190785D01*
G54D25*
X701853Y-165532D02*
X701853Y-190038D01*
X702600Y-190785D01*
G54D19*
X646453Y-195532D02*
X647482Y-203106D01*
X650480Y-211205D01*
G54D25*
X667439Y-232003D02*
X677464Y-232003D01*
X684600Y-224866D01*
X684600Y-211385D01*
X701660Y-211385D01*
G54D25*
X650448Y-251132D02*
X650448Y-231805D01*
X650480Y-231805D01*
X740778Y-154288D02*
G54D26*
D03*
X740778Y-178988D02*
G54D26*
D03*
X817079Y-277366D02*
G54D10*
D03*
X817079Y-297966D02*
G54D10*
D03*
X740928Y-193087D02*
G54D10*
D03*
X740928Y-213687D02*
G54D10*
D03*
X740913Y-227766D02*
G54D10*
D03*
X740913Y-248366D02*
G54D10*
D03*
X798079Y-277366D02*
G54D10*
D03*
X798079Y-297966D02*
G54D10*
D03*
X779079Y-277366D02*
G54D10*
D03*
X779079Y-297966D02*
G54D10*
D03*
X760079Y-277366D02*
G54D10*
D03*
X760079Y-297966D02*
G54D10*
D03*
X741079Y-277366D02*
G54D10*
D03*
X741079Y-297966D02*
G54D10*
D03*
G54D27*
X740913Y-227766D02*
X740928Y-213687D01*
G54D27*
X740778Y-178988D02*
X740928Y-193087D01*
X817079Y-306866D02*
G54D28*
D03*
X759778Y-154288D02*
G54D26*
D03*
X759778Y-178988D02*
G54D26*
D03*
X759928Y-193087D02*
G54D10*
D03*
X759928Y-213687D02*
G54D10*
D03*
X759913Y-227766D02*
G54D10*
D03*
X759913Y-248366D02*
G54D10*
D03*
G54D27*
X759913Y-227766D02*
X759928Y-213687D01*
G54D20*
X759778Y-178988D02*
X759928Y-193087D01*
X778778Y-154288D02*
G54D26*
D03*
X778778Y-178988D02*
G54D26*
D03*
X778928Y-193087D02*
G54D10*
D03*
X778928Y-213687D02*
G54D10*
D03*
X778913Y-227766D02*
G54D10*
D03*
X778913Y-248366D02*
G54D10*
D03*
G54D27*
X778913Y-227766D02*
X778928Y-213687D01*
G54D20*
X778778Y-178988D02*
X778928Y-193087D01*
X797778Y-154288D02*
G54D26*
D03*
X797778Y-178988D02*
G54D26*
D03*
X797928Y-193087D02*
G54D10*
D03*
X797928Y-213687D02*
G54D10*
D03*
X797913Y-227766D02*
G54D10*
D03*
X797913Y-248366D02*
G54D10*
D03*
G54D27*
X797913Y-227766D02*
X797928Y-213687D01*
G54D20*
X797778Y-178988D02*
X797928Y-193087D01*
X816778Y-154288D02*
G54D26*
D03*
X816778Y-178988D02*
G54D26*
D03*
X816928Y-193087D02*
G54D10*
D03*
X816928Y-213687D02*
G54D10*
D03*
X816913Y-227766D02*
G54D10*
D03*
X816913Y-248366D02*
G54D10*
D03*
G54D27*
X816913Y-227766D02*
X816928Y-213687D01*
G54D20*
X816778Y-178988D02*
X816928Y-193087D01*
X824513Y-262988D02*
G54D13*
D03*
X807813Y-263088D02*
G54D13*
D03*
X796213Y-262988D02*
G54D13*
D03*
X779513Y-263088D02*
G54D13*
D03*
X768013Y-262988D02*
G54D13*
D03*
X751313Y-263088D02*
G54D13*
D03*
X739713Y-262988D02*
G54D13*
D03*
X723013Y-263088D02*
G54D13*
D03*
G54D29*
X751313Y-263088D02*
X760079Y-248366D01*
G54D27*
X768013Y-262988D02*
X779513Y-263088D01*
G54D27*
X751313Y-263088D02*
X739713Y-262988D01*
G54D27*
X796213Y-262988D02*
X807813Y-263088D01*
G54D27*
X723013Y-263088D02*
X723002Y-255171D01*
X721413Y-248566D01*
X740913Y-248366D01*
G54D27*
X768013Y-262988D02*
X768013Y-263088D01*
X779513Y-263088D01*
X779513Y-248366D01*
X779079Y-248366D01*
G54D27*
X807813Y-263088D02*
X807813Y-262988D01*
X796213Y-262988D01*
G54D27*
X798079Y-248366D02*
X798079Y-262988D01*
X796213Y-262988D01*
G54D27*
X824513Y-262988D02*
X824513Y-248366D01*
X817079Y-248366D01*
G54D23*
X751313Y-262966D02*
X760079Y-277688D01*
G54D20*
X723013Y-262966D02*
X723013Y-277688D01*
X741079Y-277688D01*
G54D20*
X768013Y-263066D02*
X768013Y-262966D01*
X779513Y-262966D01*
X779513Y-277688D01*
X779079Y-277688D01*
G54D20*
X798079Y-277688D02*
X798079Y-263066D01*
X796213Y-263066D01*
G54D20*
X824513Y-263066D02*
X824513Y-277688D01*
X817079Y-277688D01*
X798079Y-306866D02*
G54D28*
D03*
X779079Y-306866D02*
G54D28*
D03*
X760079Y-306866D02*
G54D28*
D03*
X741079Y-306866D02*
G54D28*
D03*
G54D27*
X817079Y-306866D02*
X817079Y-297966D01*
G54D27*
X798079Y-306866D02*
X798079Y-297966D01*
G54D27*
X779079Y-306866D02*
X779079Y-297966D01*
G54D27*
X760079Y-306866D02*
X760079Y-297966D01*
G54D27*
X741079Y-306866D02*
X741079Y-297966D01*
G54D30*
X742242Y-154288D02*
X816778Y-154288D01*
G54D30*
X816778Y-154288D02*
X839778Y-154288D01*
X841478Y-155988D01*
X721413Y-248566D02*
G54D14*
D03*
X721413Y-227966D02*
G54D14*
D03*
X721326Y-215948D02*
G54D24*
D03*
G54D19*
X721326Y-215948D02*
X721326Y-227879D01*
X721413Y-227966D01*
G54D19*
X650448Y-251132D02*
X650542Y-251038D01*
X664328Y-251038D01*
G54D19*
X684928Y-251038D02*
X689880Y-246085D01*
X701780Y-246085D01*
G54D19*
X701780Y-225485D02*
X701660Y-225365D01*
X701660Y-211385D01*
G54D19*
X721326Y-215948D02*
X721288Y-215910D01*
X721288Y-203510D01*
X840722Y-52830D02*
G54D31*
D03*
X840722Y-103630D02*
G54D31*
D03*
X739122Y-78230D02*
G54D31*
D03*
G54D29*
X721288Y-182910D02*
X723261Y-182910D01*
X723261Y-135173D01*
X752738Y-135212D02*
G54D24*
D03*
G54D19*
X742261Y-135173D02*
X752738Y-135212D01*
G54D29*
X732761Y-112973D02*
X769588Y-113104D01*
G54D29*
X769588Y-133704D02*
X769588Y-152988D01*
X770478Y-152988D01*
G54D32*
X769588Y-113104D02*
X788788Y-110304D01*
G54D25*
X789035Y-72156D02*
X789035Y-89704D01*
X788788Y-89704D01*
G54D25*
X789035Y-72156D02*
X789035Y-54704D01*
X789188Y-54704D01*
G54D25*
X701853Y-165532D02*
X701853Y-138038D01*
G54D27*
X682700Y-132750D02*
X687988Y-138038D01*
X701853Y-138038D01*
G54D32*
X701297Y-96213D02*
X701188Y-96104D01*
X701188Y-54704D01*
G54D27*
X865678Y-377588D02*
X569678Y-377588D01*
G54D19*
X701326Y-256548D02*
X701326Y-246085D01*
X701780Y-246085D01*
G54D19*
X701326Y-256548D02*
X701326Y-265340D01*
X689678Y-276988D01*
X689678Y-376988D01*
G54D19*
X715178Y-320988D02*
X715288Y-299510D01*
G54D27*
X715288Y-278910D02*
X723013Y-263088D01*
G54D25*
X624679Y-155988D02*
X645053Y-156032D01*
G54D25*
X665653Y-156032D02*
X679653Y-156032D01*
G54D19*
X701853Y-117438D02*
X701297Y-96213D01*
G54D32*
X807279Y-366666D02*
X827279Y-366666D01*
X779279Y-358666D02*
G54D34*
D03*
X807279Y-366666D02*
G54D34*
D03*
X827279Y-366666D02*
G54D34*
D03*
X793279Y-362666D02*
G54D34*
D03*
X841279Y-362666D02*
G54D34*
D03*
G54D32*
X793279Y-362666D02*
X798345Y-357600D01*
X835900Y-357600D01*
X840966Y-362666D01*
X841279Y-362666D01*
X855279Y-358666D02*
G54D34*
D03*
X765279Y-354666D02*
G54D34*
D03*
X869279Y-354666D02*
G54D34*
D03*
G54D32*
X779279Y-358666D02*
X789345Y-348600D01*
X845900Y-348600D01*
X855279Y-357979D01*
X855279Y-358666D01*
G54D32*
X765279Y-354666D02*
X780345Y-339600D01*
X853900Y-339600D01*
X869279Y-354666D01*
G36*
X645053Y-156032D02*
X650448Y-251132D01*
X650556Y-280206D01*
X667900Y-291600D01*
X688063Y-293842D01*
X694700Y-321600D01*
X711678Y-320988D01*
X723763Y-291551D01*
X723763Y-285960D01*
X723013Y-277688D01*
X817079Y-277366D01*
X825385Y-242511D01*
X824019Y-233676D01*
X824517Y-194702D01*
X821202Y-172259D01*
X723130Y-172283D01*
X727034Y-161157D01*
X734060Y-160960D01*
X777327Y-149852D01*
X777071Y-141700D01*
X765634Y-127736D01*
X759629Y-127714D01*
X730446Y-129238D01*
X708157Y-129180D01*
X682700Y-132750D01*
X673412Y-148166D01*
X645053Y-156032D01*
G37*
G54D35*
X645053Y-156032D02*
X650448Y-251132D01*
X650556Y-280206D01*
X667900Y-291600D01*
X688063Y-293842D01*
X694700Y-321600D01*
X711678Y-320988D01*
X723763Y-291551D01*
X723763Y-285960D01*
X723013Y-277688D01*
X817079Y-277366D01*
X825385Y-242511D01*
X824019Y-233676D01*
X824517Y-194702D01*
X821202Y-172259D01*
X723130Y-172283D01*
X727034Y-161157D01*
X734060Y-160960D01*
X777327Y-149852D01*
X777071Y-141700D01*
X765634Y-127736D01*
X759629Y-127714D01*
X730446Y-129238D01*
X708157Y-129180D01*
X682700Y-132750D01*
X673412Y-148166D01*
X645053Y-156032D01*
G36*
X643069Y-239508D02*
X623650Y-239039D01*
X624678Y-225988D01*
X583584Y-195243D01*
X583999Y-167899D01*
X615086Y-155871D01*
X624679Y-155988D01*
X645053Y-156032D01*
X647900Y-216600D01*
X642900Y-236600D01*
X643069Y-239508D01*
G37*
G54D35*
X643069Y-239508D02*
X623650Y-239039D01*
X624678Y-225988D01*
X583584Y-195243D01*
X583999Y-167899D01*
X615086Y-155871D01*
X624679Y-155988D01*
X645053Y-156032D01*
X647900Y-216600D01*
X642900Y-236600D01*
X643069Y-239508D01*
G36*
X802900Y-371600D02*
X791966Y-375236D01*
X765305Y-372712D01*
X765279Y-354666D01*
X780345Y-339600D01*
X853900Y-339600D01*
X869279Y-354666D01*
X865686Y-356411D01*
X865678Y-377588D01*
X838716Y-366067D01*
X840214Y-374114D01*
X802900Y-371600D01*
G37*
G54D35*
X802900Y-371600D02*
X791966Y-375236D01*
X765305Y-372712D01*
X765279Y-354666D01*
X780345Y-339600D01*
X853900Y-339600D01*
X869279Y-354666D01*
X865686Y-356411D01*
X865678Y-377588D01*
X838716Y-366067D01*
X840214Y-374114D01*
X802900Y-371600D01*
G36*
X516200Y-371600D02*
X505266Y-375236D01*
X478606Y-372712D01*
X478579Y-354666D01*
X493645Y-339600D01*
X567200Y-339600D01*
X582579Y-354666D01*
X578986Y-356411D01*
X578978Y-377588D01*
X552016Y-366067D01*
X553514Y-374114D01*
X516200Y-371600D01*
G37*
G54D35*
X516200Y-371600D02*
X505266Y-375236D01*
X478606Y-372712D01*
X478579Y-354666D01*
X493645Y-339600D01*
X567200Y-339600D01*
X582579Y-354666D01*
X578986Y-356411D01*
X578978Y-377588D01*
X552016Y-366067D01*
X553514Y-374114D01*
X516200Y-371600D01*
G36*
X855788Y-194183D02*
X869223Y-180748D01*
X884780Y-196304D01*
X871344Y-209739D01*
X855788Y-194183D01*
G37*
G36*
X909515Y-171721D02*
X896081Y-185157D01*
X880524Y-169602D01*
X893958Y-156166D01*
X909515Y-171721D01*
G37*
G36*
X894949Y-186290D02*
X881513Y-199724D01*
X865958Y-184166D01*
X879393Y-170732D01*
X894949Y-186290D01*
G37*
X840919Y-175879D02*
G54D10*
D03*
X947422Y-282830D02*
G54D11*
D03*
X947422Y-333630D02*
G54D11*
D03*
X845822Y-308230D02*
G54D11*
D03*
X1028961Y-135173D02*
G54D13*
D03*
X1009961Y-135173D02*
G54D13*
D03*
X1019461Y-112973D02*
G54D13*
D03*
X1007988Y-182910D02*
G54D14*
D03*
X1007988Y-203510D02*
G54D14*
D03*
X1001988Y-278910D02*
G54D14*
D03*
X1001987Y-299510D02*
G54D14*
D03*
G36*
X1015878Y-334988D02*
X987878Y-334988D01*
X987878Y-306988D01*
X1015878Y-306988D01*
X1015878Y-334988D01*
G37*
X1075488Y-110304D02*
G54D15*
D03*
X1075488Y-89704D02*
G54D15*
D03*
X1075734Y-72156D02*
G54D16*
D03*
X1075888Y-54704D02*
G54D15*
D03*
X1075888Y-34104D02*
G54D15*
D03*
X1056288Y-133704D02*
G54D10*
D03*
X1056288Y-113104D02*
G54D10*
D03*
X966353Y-175032D02*
G54D17*
D03*
X966353Y-156032D02*
G54D17*
D03*
X988553Y-165532D02*
G54D17*
D03*
X931753Y-156032D02*
G54D18*
D03*
X952353Y-156032D02*
G54D18*
D03*
X988553Y-117438D02*
G54D15*
D03*
X988553Y-138038D02*
G54D15*
D03*
X987888Y-34103D02*
G54D15*
D03*
X987888Y-54704D02*
G54D15*
D03*
X987997Y-96213D02*
G54D16*
D03*
X969400Y-132750D02*
G54D16*
D03*
X933153Y-195532D02*
G54D17*
D03*
X933153Y-176532D02*
G54D17*
D03*
X955353Y-186032D02*
G54D17*
D03*
X954139Y-232003D02*
G54D15*
D03*
X954138Y-211403D02*
G54D15*
D03*
X988480Y-225485D02*
G54D15*
D03*
X988480Y-246085D02*
G54D15*
D03*
X937180Y-211205D02*
G54D15*
D03*
X937180Y-231805D02*
G54D15*
D03*
X951028Y-251038D02*
G54D18*
D03*
X971628Y-251038D02*
G54D18*
D03*
X937147Y-251132D02*
G54D16*
D03*
G54D19*
X895019Y-170661D02*
X891346Y-167588D01*
X862378Y-167588D01*
X841378Y-156588D01*
G54D20*
X895019Y-170661D02*
X911378Y-155988D01*
G54D19*
X895019Y-170661D02*
X911378Y-155988D01*
G54D21*
X871391Y-194117D02*
X879380Y-186365D01*
G54D19*
X875375Y-190954D02*
X875375Y-193400D01*
X905403Y-223427D01*
G54D19*
X841083Y-173942D02*
X841378Y-155988D01*
X988360Y-190785D02*
G54D15*
D03*
X988360Y-211385D02*
G54D15*
D03*
X971300Y-190785D02*
G54D15*
D03*
X971300Y-211385D02*
G54D15*
D03*
G54D22*
X933153Y-176532D02*
X937853Y-176532D01*
X944353Y-183032D01*
X944353Y-190032D01*
G54D23*
X944353Y-190032D02*
X944353Y-195032D01*
X954026Y-204704D01*
X954026Y-214376D01*
X955190Y-174886D02*
G54D24*
D03*
G54D25*
X955353Y-186032D02*
X955190Y-174886D01*
X966353Y-175032D01*
G54D25*
X971300Y-190785D02*
X989300Y-190785D01*
G54D25*
X988553Y-165532D02*
X988553Y-190038D01*
X989300Y-190785D01*
G54D19*
X933153Y-195532D02*
X934182Y-203106D01*
X937180Y-211205D01*
G54D25*
X954139Y-232003D02*
X964163Y-232003D01*
X971300Y-224866D01*
X971300Y-211385D01*
X988360Y-211385D01*
G54D25*
X937147Y-251132D02*
X937147Y-231805D01*
X937180Y-231805D01*
X1027478Y-154288D02*
G54D26*
D03*
X1027478Y-178988D02*
G54D26*
D03*
X1103779Y-277366D02*
G54D10*
D03*
X1103779Y-297966D02*
G54D10*
D03*
X1027628Y-193087D02*
G54D10*
D03*
X1027628Y-213687D02*
G54D10*
D03*
X1027612Y-227766D02*
G54D10*
D03*
X1027612Y-248366D02*
G54D10*
D03*
X1084779Y-277366D02*
G54D10*
D03*
X1084779Y-297966D02*
G54D10*
D03*
X1065779Y-277366D02*
G54D10*
D03*
X1065779Y-297966D02*
G54D10*
D03*
X1046779Y-277366D02*
G54D10*
D03*
X1046778Y-297966D02*
G54D10*
D03*
X1027779Y-277366D02*
G54D10*
D03*
X1027778Y-297966D02*
G54D10*
D03*
G54D27*
X1027612Y-227766D02*
X1027628Y-213687D01*
G54D27*
X1027478Y-178988D02*
X1027628Y-193087D01*
X1103778Y-306866D02*
G54D28*
D03*
X1046478Y-154288D02*
G54D26*
D03*
X1046478Y-178988D02*
G54D26*
D03*
X1046628Y-193087D02*
G54D10*
D03*
X1046628Y-213687D02*
G54D10*
D03*
X1046612Y-227766D02*
G54D10*
D03*
X1046612Y-248366D02*
G54D10*
D03*
G54D27*
X1046612Y-227766D02*
X1046628Y-213687D01*
G54D20*
X1046478Y-178988D02*
X1046628Y-193087D01*
X1065478Y-154288D02*
G54D26*
D03*
X1065478Y-178988D02*
G54D26*
D03*
X1065628Y-193087D02*
G54D10*
D03*
X1065628Y-213687D02*
G54D10*
D03*
X1065612Y-227766D02*
G54D10*
D03*
X1065612Y-248366D02*
G54D10*
D03*
G54D27*
X1065612Y-227766D02*
X1065628Y-213687D01*
G54D20*
X1065478Y-178988D02*
X1065628Y-193087D01*
X1084478Y-154288D02*
G54D26*
D03*
X1084478Y-178988D02*
G54D26*
D03*
X1084628Y-193087D02*
G54D10*
D03*
X1084628Y-213687D02*
G54D10*
D03*
X1084612Y-227766D02*
G54D10*
D03*
X1084612Y-248366D02*
G54D10*
D03*
G54D27*
X1084612Y-227766D02*
X1084628Y-213687D01*
G54D20*
X1084478Y-178988D02*
X1084628Y-193087D01*
X1103478Y-154288D02*
G54D26*
D03*
X1103478Y-178988D02*
G54D26*
D03*
X1103628Y-193087D02*
G54D10*
D03*
X1103628Y-213687D02*
G54D10*
D03*
X1103612Y-227766D02*
G54D10*
D03*
X1103612Y-248366D02*
G54D10*
D03*
G54D27*
X1103612Y-227766D02*
X1103628Y-213687D01*
G54D20*
X1103478Y-178988D02*
X1103628Y-193087D01*
X1111213Y-262988D02*
G54D13*
D03*
X1094513Y-263088D02*
G54D13*
D03*
X1082913Y-262988D02*
G54D13*
D03*
X1066213Y-263088D02*
G54D13*
D03*
X1054713Y-262988D02*
G54D13*
D03*
X1038013Y-263088D02*
G54D13*
D03*
X1026413Y-262988D02*
G54D13*
D03*
X1009713Y-263088D02*
G54D13*
D03*
G54D29*
X1038013Y-263088D02*
X1046779Y-248366D01*
G54D27*
X1054713Y-262988D02*
X1066213Y-263088D01*
G54D27*
X1038013Y-263088D02*
X1026413Y-262988D01*
G54D27*
X1082913Y-262988D02*
X1094513Y-263088D01*
G54D27*
X1009713Y-263088D02*
X1009701Y-255171D01*
X1008113Y-248566D01*
X1027612Y-248366D01*
G54D27*
X1054713Y-262988D02*
X1054713Y-263088D01*
X1066213Y-263088D01*
X1066213Y-248366D01*
X1065779Y-248366D01*
G54D27*
X1094513Y-263088D02*
X1094513Y-262988D01*
X1082913Y-262988D01*
G54D27*
X1084779Y-248366D02*
X1084779Y-262988D01*
X1082913Y-262988D01*
G54D27*
X1111213Y-262988D02*
X1111213Y-248366D01*
X1103779Y-248366D01*
G54D23*
X1038013Y-262966D02*
X1046779Y-277688D01*
G54D20*
X1009713Y-262966D02*
X1009713Y-277688D01*
X1027779Y-277688D01*
G54D20*
X1054713Y-263066D02*
X1054713Y-262966D01*
X1066213Y-262966D01*
X1066213Y-277688D01*
X1065778Y-277688D01*
G54D20*
X1084779Y-277688D02*
X1084779Y-263066D01*
X1082913Y-263066D01*
G54D20*
X1111213Y-263066D02*
X1111213Y-277688D01*
X1103779Y-277688D01*
X1084778Y-306866D02*
G54D28*
D03*
X1065779Y-306866D02*
G54D28*
D03*
X1046778Y-306866D02*
G54D28*
D03*
X1027778Y-306866D02*
G54D28*
D03*
G54D27*
X1103778Y-306866D02*
X1103778Y-297966D01*
G54D27*
X1084778Y-306866D02*
X1084778Y-297966D01*
G54D27*
X1065779Y-306866D02*
X1065779Y-297966D01*
G54D27*
X1046778Y-306866D02*
X1046778Y-297966D01*
G54D27*
X1027778Y-306866D02*
X1027778Y-297966D01*
G54D30*
X1028942Y-154288D02*
X1103478Y-154288D01*
G54D30*
X1103478Y-154288D02*
X1126478Y-154288D01*
X1128178Y-155988D01*
X1008113Y-248566D02*
G54D14*
D03*
X1008113Y-227966D02*
G54D14*
D03*
X1008026Y-215948D02*
G54D24*
D03*
G54D19*
X1008026Y-215948D02*
X1008026Y-227879D01*
X1008113Y-227966D01*
G54D19*
X937147Y-251132D02*
X937242Y-251038D01*
X951028Y-251038D01*
G54D19*
X971628Y-251038D02*
X976580Y-246085D01*
X988480Y-246085D01*
G54D19*
X988480Y-225485D02*
X988360Y-225365D01*
X988360Y-211385D01*
G54D19*
X1008026Y-215948D02*
X1007988Y-215910D01*
X1007988Y-203510D01*
X1127422Y-52830D02*
G54D31*
D03*
X1127422Y-103630D02*
G54D31*
D03*
X1025822Y-78230D02*
G54D31*
D03*
G54D29*
X1007988Y-182910D02*
X1009961Y-182910D01*
X1009961Y-135173D01*
X1039438Y-135212D02*
G54D24*
D03*
G54D19*
X1028961Y-135173D02*
X1039438Y-135212D01*
G54D29*
X1019461Y-112973D02*
X1056288Y-113104D01*
G54D29*
X1056288Y-133704D02*
X1056288Y-152988D01*
X1057178Y-152988D01*
G54D32*
X1056288Y-113104D02*
X1075488Y-110304D01*
G54D25*
X1075734Y-72156D02*
X1075734Y-89704D01*
X1075488Y-89704D01*
G54D25*
X1075734Y-72156D02*
X1075734Y-54704D01*
X1075888Y-54704D01*
G54D25*
X988553Y-165532D02*
X988553Y-138038D01*
G54D27*
X969400Y-132750D02*
X974687Y-138038D01*
X988553Y-138038D01*
G54D32*
X987997Y-96213D02*
X987888Y-96104D01*
X987888Y-54704D01*
G54D27*
X1152378Y-377588D02*
X856378Y-377588D01*
G54D19*
X988026Y-256548D02*
X988026Y-246085D01*
X988480Y-246085D01*
G54D19*
X988026Y-256548D02*
X988026Y-265340D01*
X976378Y-276988D01*
X976378Y-376988D01*
G54D19*
X1001878Y-320988D02*
X1001988Y-299510D01*
G54D27*
X1001988Y-278910D02*
X1009713Y-263088D01*
G54D25*
X911378Y-155988D02*
X931753Y-156032D01*
G54D25*
X952353Y-156032D02*
X966353Y-156032D01*
G54D19*
X988553Y-117438D02*
X987997Y-96213D01*
G54D32*
X1093978Y-366666D02*
X1113978Y-366666D01*
X1065978Y-358666D02*
G54D34*
D03*
X1093978Y-366666D02*
G54D34*
D03*
X1113978Y-366666D02*
G54D34*
D03*
X1079978Y-362666D02*
G54D34*
D03*
X1127978Y-362666D02*
G54D34*
D03*
G54D32*
X1079978Y-362666D02*
X1085044Y-357600D01*
X1122600Y-357600D01*
X1127666Y-362666D01*
X1127978Y-362666D01*
X1141978Y-358666D02*
G54D34*
D03*
X1051978Y-354666D02*
G54D34*
D03*
X1155978Y-354666D02*
G54D34*
D03*
G54D32*
X1065978Y-358666D02*
X1076044Y-348600D01*
X1132600Y-348600D01*
X1141978Y-357979D01*
X1141978Y-358666D01*
G54D32*
X1051978Y-354666D02*
X1067044Y-339600D01*
X1140600Y-339600D01*
X1155978Y-354666D01*
G36*
X931753Y-156032D02*
X937147Y-251132D01*
X937256Y-280206D01*
X954600Y-291600D01*
X974763Y-293842D01*
X981400Y-321600D01*
X998378Y-320988D01*
X1010463Y-291551D01*
X1010463Y-285960D01*
X1009713Y-277688D01*
X1103779Y-277366D01*
X1112084Y-242511D01*
X1110719Y-233676D01*
X1111216Y-194702D01*
X1107902Y-172259D01*
X1009829Y-172283D01*
X1013734Y-161157D01*
X1020760Y-160960D01*
X1064026Y-149852D01*
X1063770Y-141700D01*
X1052334Y-127736D01*
X1046329Y-127714D01*
X1017146Y-129238D01*
X994856Y-129180D01*
X969400Y-132750D01*
X960112Y-148166D01*
X931753Y-156032D01*
G37*
G54D35*
X931753Y-156032D02*
X937147Y-251132D01*
X937256Y-280206D01*
X954600Y-291600D01*
X974763Y-293842D01*
X981400Y-321600D01*
X998378Y-320988D01*
X1010463Y-291551D01*
X1010463Y-285960D01*
X1009713Y-277688D01*
X1103779Y-277366D01*
X1112084Y-242511D01*
X1110719Y-233676D01*
X1111216Y-194702D01*
X1107902Y-172259D01*
X1009829Y-172283D01*
X1013734Y-161157D01*
X1020760Y-160960D01*
X1064026Y-149852D01*
X1063770Y-141700D01*
X1052334Y-127736D01*
X1046329Y-127714D01*
X1017146Y-129238D01*
X994856Y-129180D01*
X969400Y-132750D01*
X960112Y-148166D01*
X931753Y-156032D01*
G36*
X929769Y-239508D02*
X910350Y-239039D01*
X911378Y-225988D01*
X870284Y-195243D01*
X870698Y-167899D01*
X901786Y-155871D01*
X911378Y-155988D01*
X931753Y-156032D01*
X934600Y-216600D01*
X929600Y-236600D01*
X929769Y-239508D01*
G37*
G54D35*
X929769Y-239508D02*
X910350Y-239039D01*
X911378Y-225988D01*
X870284Y-195243D01*
X870698Y-167899D01*
X901786Y-155871D01*
X911378Y-155988D01*
X931753Y-156032D01*
X934600Y-216600D01*
X929600Y-236600D01*
X929769Y-239508D01*
G36*
X1089600Y-371600D02*
X1078665Y-375236D01*
X1052005Y-372712D01*
X1051978Y-354666D01*
X1067044Y-339600D01*
X1140600Y-339600D01*
X1155978Y-354666D01*
X1152386Y-356411D01*
X1152378Y-377588D01*
X1125415Y-366067D01*
X1126914Y-374114D01*
X1089600Y-371600D01*
G37*
G54D35*
X1089600Y-371600D02*
X1078665Y-375236D01*
X1052005Y-372712D01*
X1051978Y-354666D01*
X1067044Y-339600D01*
X1140600Y-339600D01*
X1155978Y-354666D01*
X1152386Y-356411D01*
X1152378Y-377588D01*
X1125415Y-366067D01*
X1126914Y-374114D01*
X1089600Y-371600D01*
G36*
X802900Y-371600D02*
X791966Y-375236D01*
X765305Y-372712D01*
X765279Y-354666D01*
X780345Y-339600D01*
X853900Y-339600D01*
X869279Y-354666D01*
X865686Y-356411D01*
X865678Y-377588D01*
X838716Y-366067D01*
X840214Y-374114D01*
X802900Y-371600D01*
G37*
G54D35*
X802900Y-371600D02*
X791966Y-375236D01*
X765305Y-372712D01*
X765279Y-354666D01*
X780345Y-339600D01*
X853900Y-339600D01*
X869279Y-354666D01*
X865686Y-356411D01*
X865678Y-377588D01*
X838716Y-366067D01*
X840214Y-374114D01*
X802900Y-371600D01*
G36*
X1142488Y-194182D02*
X1155924Y-180748D01*
X1171479Y-196304D01*
X1158044Y-209739D01*
X1142488Y-194182D01*
G37*
G36*
X1196215Y-171720D02*
X1182781Y-185157D01*
X1167223Y-169602D01*
X1180657Y-156166D01*
X1196215Y-171720D01*
G37*
G36*
X1181648Y-186290D02*
X1168213Y-199724D01*
X1152657Y-184166D01*
X1166093Y-170732D01*
X1181648Y-186290D01*
G37*
X1127618Y-175879D02*
G54D10*
D03*
X1234121Y-282830D02*
G54D11*
D03*
X1234122Y-333630D02*
G54D11*
D03*
X1132522Y-308230D02*
G54D11*
D03*
X1253053Y-175032D02*
G54D17*
D03*
X1253053Y-156032D02*
G54D17*
D03*
X1275253Y-165532D02*
G54D17*
D03*
X1218453Y-156032D02*
G54D18*
D03*
X1239053Y-156032D02*
G54D18*
D03*
X1275252Y-117438D02*
G54D15*
D03*
X1275252Y-138038D02*
G54D15*
D03*
X1274588Y-34103D02*
G54D15*
D03*
X1274588Y-54704D02*
G54D15*
D03*
X1274696Y-96213D02*
G54D16*
D03*
X1256100Y-132750D02*
G54D16*
D03*
X1219852Y-195532D02*
G54D17*
D03*
X1219852Y-176532D02*
G54D17*
D03*
X1242052Y-186032D02*
G54D17*
D03*
X1240838Y-232003D02*
G54D15*
D03*
X1240838Y-211403D02*
G54D15*
D03*
X1275180Y-225485D02*
G54D15*
D03*
X1275180Y-246085D02*
G54D15*
D03*
X1223880Y-211205D02*
G54D15*
D03*
X1223880Y-231805D02*
G54D15*
D03*
X1237728Y-251038D02*
G54D18*
D03*
X1258327Y-251038D02*
G54D18*
D03*
X1223847Y-251132D02*
G54D16*
D03*
G54D19*
X1181719Y-170661D02*
X1178046Y-167588D01*
X1149078Y-167588D01*
X1128078Y-156588D01*
G54D20*
X1181719Y-170661D02*
X1198078Y-155988D01*
G54D19*
X1181719Y-170661D02*
X1198078Y-155988D01*
G54D21*
X1158091Y-194117D02*
X1166079Y-186365D01*
G54D19*
X1162075Y-190954D02*
X1162075Y-193400D01*
X1192102Y-223427D01*
G54D19*
X1127782Y-173942D02*
X1128078Y-155988D01*
X1275060Y-190785D02*
G54D15*
D03*
X1275060Y-211385D02*
G54D15*
D03*
X1258000Y-190785D02*
G54D15*
D03*
X1258000Y-211385D02*
G54D15*
D03*
G54D22*
X1219852Y-176532D02*
X1224553Y-176532D01*
X1231053Y-183032D01*
X1231053Y-190032D01*
G54D23*
X1231053Y-190032D02*
X1231053Y-195032D01*
X1240725Y-204704D01*
X1240725Y-214376D01*
X1241890Y-174886D02*
G54D24*
D03*
G54D25*
X1242052Y-186032D02*
X1241890Y-174886D01*
X1253053Y-175032D01*
G54D25*
X1258000Y-190785D02*
X1276000Y-190785D01*
G54D25*
X1275252Y-165532D02*
X1275252Y-190038D01*
X1276000Y-190785D01*
G54D19*
X1219852Y-195532D02*
X1220882Y-203106D01*
X1223880Y-211205D01*
G54D25*
X1240838Y-232003D02*
X1250863Y-232003D01*
X1258000Y-224866D01*
X1258000Y-211385D01*
X1275060Y-211385D01*
G54D25*
X1223847Y-251132D02*
X1223847Y-231805D01*
X1223880Y-231805D01*
G54D19*
X1223847Y-251132D02*
X1223941Y-251038D01*
X1237728Y-251038D01*
G54D19*
X1258328Y-251038D02*
X1263280Y-246085D01*
X1275180Y-246085D01*
G54D19*
X1275180Y-225485D02*
X1275060Y-225365D01*
X1275060Y-211385D01*
G54D25*
X1275252Y-165532D02*
X1275252Y-138038D01*
G54D27*
X1256100Y-132750D02*
X1261387Y-138038D01*
X1275252Y-138038D01*
G54D32*
X1274696Y-96213D02*
X1274588Y-96104D01*
X1274588Y-54704D01*
G54D27*
X1263018Y-377511D02*
X1143078Y-377588D01*
G54D19*
X1274726Y-256548D02*
X1274726Y-246085D01*
X1275180Y-246085D01*
G54D19*
X1274726Y-256548D02*
X1274726Y-265340D01*
X1263078Y-276988D01*
X1263078Y-376988D01*
G54D25*
X1198078Y-155988D02*
X1218453Y-156032D01*
G54D25*
X1239053Y-156032D02*
X1253053Y-156032D01*
G54D19*
X1275252Y-117438D02*
X1274696Y-96213D01*
G36*
X1216468Y-239508D02*
X1197050Y-239039D01*
X1198078Y-225988D01*
X1156984Y-195243D01*
X1157398Y-167899D01*
X1188486Y-155871D01*
X1198078Y-155988D01*
X1218453Y-156032D01*
X1221300Y-216600D01*
X1216300Y-236600D01*
X1216468Y-239508D01*
G37*
G54D35*
X1216468Y-239508D02*
X1197050Y-239039D01*
X1198078Y-225988D01*
X1156984Y-195243D01*
X1157398Y-167899D01*
X1188486Y-155871D01*
X1198078Y-155988D01*
X1218453Y-156032D01*
X1221300Y-216600D01*
X1216300Y-236600D01*
X1216468Y-239508D01*
G36*
X1089600Y-371600D02*
X1078665Y-375236D01*
X1052005Y-372712D01*
X1051978Y-354666D01*
X1067044Y-339600D01*
X1140600Y-339600D01*
X1155978Y-354666D01*
X1152385Y-356411D01*
X1152378Y-377588D01*
X1125415Y-366067D01*
X1126914Y-374114D01*
X1089600Y-371600D01*
G37*
G54D35*
X1089600Y-371600D02*
X1078665Y-375236D01*
X1052005Y-372712D01*
X1051978Y-354666D01*
X1067044Y-339600D01*
X1140600Y-339600D01*
X1155978Y-354666D01*
X1152385Y-356411D01*
X1152378Y-377588D01*
X1125415Y-366067D01*
X1126914Y-374114D01*
X1089600Y-371600D01*
X1214385Y-80895D02*
G54D36*
D03*
X1340873Y-52598D02*
G54D37*
D03*
X1213873Y-52598D02*
G54D37*
D03*
X1349500Y-258500D02*
G54D37*
D03*
X1349500Y-131500D02*
G54D37*
D03*
X1310000Y-255000D02*
G54D36*
D03*
G54D38*
X1214385Y-80895D02*
X1213873Y-52598D01*
X1213884Y-29617D01*
X1213873Y-52598D01*
X1375000Y-165000D02*
G54D39*
D03*
G54D19*
X1349500Y-258500D02*
X1375000Y-233000D01*
X1375000Y-165000D01*
G54D19*
X1349500Y-258500D02*
X1310000Y-255000D01*
G54D19*
X1274726Y-265340D02*
X1310000Y-255000D01*
X1332473Y-310215D02*
G54D34*
D03*
X1332453Y-331456D02*
G54D34*
D03*
X1332721Y-353067D02*
G54D34*
D03*
X1334000Y-376000D02*
G54D34*
D03*
G36*
X1274726Y-256548D02*
X1229264Y-256548D01*
X1223847Y-251132D01*
X1223847Y-180526D01*
X1219852Y-176532D01*
X1219852Y-157432D01*
X1218453Y-156032D01*
X1243968Y-156032D01*
X1250000Y-150000D01*
X1250000Y-138850D01*
X1256100Y-132750D01*
X1269965Y-132750D01*
X1275252Y-138038D01*
X1275252Y-190592D01*
X1275060Y-190785D01*
X1275060Y-245965D01*
X1275180Y-246085D01*
X1274726Y-256548D01*
G37*
G54D40*
X1274726Y-256548D02*
X1229264Y-256548D01*
X1223847Y-251132D01*
X1223847Y-180526D01*
X1219852Y-176532D01*
X1219852Y-157432D01*
X1218453Y-156032D01*
X1243968Y-156032D01*
X1250000Y-150000D01*
X1250000Y-138850D01*
X1256100Y-132750D01*
X1269965Y-132750D01*
X1275252Y-138038D01*
X1275252Y-190592D01*
X1275060Y-190785D01*
X1275060Y-245965D01*
X1275180Y-246085D01*
X1274726Y-256548D01*
X405800Y-308300D02*
G54D16*
D03*
X691926Y-308143D02*
G54D16*
D03*
X979426Y-308243D02*
G54D16*
D03*
X1265825Y-308343D02*
G54D16*
D03*
G54D20*
X176000Y-349000D02*
X202000Y-323000D01*
X239000Y-323000D01*
X243679Y-318321D01*
X243679Y-306866D01*
G54D20*
X176000Y-363000D02*
X176000Y-377000D01*
G36*
X167579Y-297966D02*
X247000Y-297966D01*
X247000Y-373000D01*
X167579Y-373000D01*
X167579Y-297966D01*
G37*
G54D41*
X167579Y-297966D02*
X247000Y-297966D01*
X247000Y-373000D01*
X167579Y-373000D01*
X167579Y-297966D01*
G54D20*
X462700Y-349000D02*
X488700Y-323000D01*
X525700Y-323000D01*
X530379Y-318321D01*
X530379Y-306866D01*
G54D20*
X462700Y-363000D02*
X462700Y-377000D01*
G54D20*
X749400Y-349000D02*
X775400Y-323000D01*
X812400Y-323000D01*
X817079Y-318321D01*
X817079Y-306866D01*
G54D20*
X749400Y-363000D02*
X749400Y-377000D01*
G54D20*
X1036100Y-349300D02*
X1062100Y-323300D01*
X1099100Y-323300D01*
X1103779Y-318621D01*
X1103779Y-307166D01*
G54D20*
X1036100Y-363300D02*
X1036100Y-377300D01*
G36*
X454379Y-306866D02*
X533800Y-306866D01*
X533800Y-381900D01*
X454379Y-381900D01*
X454379Y-306866D01*
G37*
G54D41*
X454379Y-306866D02*
X533800Y-306866D01*
X533800Y-381900D01*
X454379Y-381900D01*
X454379Y-306866D01*
G36*
X1027778Y-306866D02*
X1107199Y-306866D01*
X1107199Y-381900D01*
X1027778Y-381900D01*
X1027778Y-306866D01*
G37*
G54D41*
X1027778Y-306866D02*
X1107199Y-306866D01*
X1107199Y-381900D01*
X1027778Y-381900D01*
X1027778Y-306866D01*
G36*
X741079Y-306866D02*
X820500Y-306866D01*
X820500Y-381900D01*
X741079Y-381900D01*
X741079Y-306866D01*
G37*
G54D41*
X741079Y-306866D02*
X820500Y-306866D01*
X820500Y-381900D01*
X741079Y-381900D01*
X741079Y-306866D01*
G36*
X170167Y-346916D02*
X182167Y-346916D01*
X182167Y-357916D01*
X176167Y-351916D01*
X170167Y-357916D01*
X170167Y-346916D01*
G37*
G54D42*
X170167Y-346916D02*
X182167Y-346916D01*
X182167Y-357916D01*
X176167Y-351916D01*
X170167Y-357916D01*
X170167Y-346916D01*
G36*
X176167Y-356316D02*
X182167Y-362316D01*
X182167Y-366316D01*
X170167Y-366316D01*
X170167Y-362316D01*
X176167Y-356316D01*
G37*
G54D42*
X176167Y-356316D02*
X182167Y-362316D01*
X182167Y-366316D01*
X170167Y-366316D01*
X170167Y-362316D01*
X176167Y-356316D01*
G36*
X456867Y-346716D02*
X468867Y-346716D01*
X468867Y-357716D01*
X462867Y-351716D01*
X456867Y-357716D01*
X456867Y-346716D01*
G37*
G54D42*
X456867Y-346716D02*
X468867Y-346716D01*
X468867Y-357716D01*
X462867Y-351716D01*
X456867Y-357716D01*
X456867Y-346716D01*
G36*
X462867Y-356116D02*
X468867Y-362116D01*
X468867Y-366116D01*
X456867Y-366116D01*
X456867Y-362116D01*
X462867Y-356116D01*
G37*
G54D42*
X462867Y-356116D02*
X468867Y-362116D01*
X468867Y-366116D01*
X456867Y-366116D01*
X456867Y-362116D01*
X462867Y-356116D01*
G36*
X743567Y-346816D02*
X755567Y-346816D01*
X755567Y-357816D01*
X749567Y-351816D01*
X743567Y-357816D01*
X743567Y-346816D01*
G37*
G54D42*
X743567Y-346816D02*
X755567Y-346816D01*
X755567Y-357816D01*
X749567Y-351816D01*
X743567Y-357816D01*
X743567Y-346816D01*
G36*
X749567Y-356216D02*
X755567Y-362216D01*
X755567Y-366216D01*
X743567Y-366216D01*
X743567Y-362216D01*
X749567Y-356216D01*
G37*
G54D42*
X749567Y-356216D02*
X755567Y-362216D01*
X755567Y-366216D01*
X743567Y-366216D01*
X743567Y-362216D01*
X749567Y-356216D01*
G36*
X1030367Y-346916D02*
X1042367Y-346916D01*
X1042367Y-357916D01*
X1036367Y-351916D01*
X1030367Y-357916D01*
X1030367Y-346916D01*
G37*
G54D42*
X1030367Y-346916D02*
X1042367Y-346916D01*
X1042367Y-357916D01*
X1036367Y-351916D01*
X1030367Y-357916D01*
X1030367Y-346916D01*
G36*
X1036367Y-356316D02*
X1042367Y-362316D01*
X1042367Y-366316D01*
X1030367Y-366316D01*
X1030367Y-362316D01*
X1036367Y-356316D01*
G37*
G54D42*
X1036367Y-356316D02*
X1042367Y-362316D01*
X1042367Y-366316D01*
X1030367Y-366316D01*
X1030367Y-362316D01*
X1036367Y-356316D01*
X53840Y-140028D02*
G54D14*
D03*
X1341419Y-331443D02*
G54D16*
D03*
X1341419Y-348443D02*
G54D16*
D03*
X1341419Y-365443D02*
G54D16*
D03*
X1341419Y-314443D02*
G54D16*
D03*
X1341419Y-297443D02*
G54D16*
D03*
X1333392Y-288392D02*
G54D34*
D03*
G54D23*
X1333392Y-288392D02*
X1341419Y-296419D01*
X1341419Y-297443D01*
G54D23*
X1332473Y-310215D02*
X1336700Y-314443D01*
X1341419Y-314443D01*
G54D23*
X1332453Y-331456D02*
X1332466Y-331443D01*
X1341419Y-331443D01*
G54D23*
X1332721Y-353067D02*
X1337345Y-348443D01*
X1341419Y-348443D01*
G54D23*
X1334000Y-376000D02*
X1341419Y-368581D01*
X1341419Y-365443D01*
X624679Y-155988D02*
G54D12*
D03*
X554679Y-155988D02*
G54D12*
D03*
X624678Y-225988D02*
G54D12*
D03*
X911378Y-155988D02*
G54D12*
D03*
X841378Y-155988D02*
G54D12*
D03*
X911378Y-225988D02*
G54D12*
D03*
X1198078Y-155988D02*
G54D12*
D03*
X1128078Y-155988D02*
G54D12*
D03*
X1198078Y-225988D02*
G54D12*
D03*
G54D25*
X54000Y-156085D02*
X54000Y-140188D01*
X53840Y-140028D01*
%LPD*%
G36*
X273479Y-208749D02*
X281257Y-200971D01*
X291157Y-210870D01*
X283379Y-218648D01*
X273479Y-208749D01*
G37*
G36*
X288045Y-194183D02*
X295824Y-186405D01*
X305723Y-196304D01*
X297945Y-204082D01*
X288045Y-194183D01*
G37*
G36*
X330458Y-171721D02*
X322681Y-179500D01*
X312781Y-169601D01*
X320558Y-161822D01*
X330458Y-171721D01*
G37*
G36*
X315892Y-186289D02*
X308113Y-194066D01*
X298215Y-184166D01*
X305993Y-176389D01*
X315892Y-186289D01*
G37*
X267519Y-196479D02*
G54D43*
D03*
X267519Y-175879D02*
G54D43*
D03*
X374022Y-282830D02*
G54D44*
D03*
X374022Y-333630D02*
G54D44*
D03*
X272422Y-308230D02*
G54D44*
D03*
X302978Y-140988D02*
G54D45*
D03*
X302979Y-240988D02*
G54D45*
D03*
X337979Y-155988D02*
G54D46*
D03*
X267979Y-155988D02*
G54D46*
D03*
X337978Y-190988D02*
G54D46*
D03*
X267979Y-225988D02*
G54D46*
D03*
X337978Y-225988D02*
G54D46*
D03*
X455561Y-135173D02*
G54D47*
D03*
X436561Y-135173D02*
G54D47*
D03*
X446061Y-112973D02*
G54D47*
D03*
X434588Y-182910D02*
G54D43*
D03*
X434588Y-203510D02*
G54D43*
D03*
X428588Y-278910D02*
G54D43*
D03*
X428588Y-299510D02*
G54D43*
D03*
G36*
X438479Y-330988D02*
X418479Y-330988D01*
X418479Y-310988D01*
X438479Y-310988D01*
X438479Y-330988D01*
G37*
X502088Y-110304D02*
G54D43*
D03*
X502088Y-89704D02*
G54D43*
D03*
X522935Y-72156D02*
G54D48*
D03*
X502335Y-72156D02*
G54D48*
D03*
X502488Y-54704D02*
G54D43*
D03*
X502488Y-34104D02*
G54D43*
D03*
X482888Y-133704D02*
G54D43*
D03*
X482888Y-113104D02*
G54D43*
D03*
X392953Y-175032D02*
G54D47*
D03*
X392953Y-156032D02*
G54D47*
D03*
X415153Y-165532D02*
G54D47*
D03*
X358353Y-156032D02*
G54D48*
D03*
X378953Y-156032D02*
G54D48*
D03*
X415153Y-117438D02*
G54D43*
D03*
X415153Y-138038D02*
G54D43*
D03*
X414488Y-34103D02*
G54D43*
D03*
X414488Y-54704D02*
G54D43*
D03*
G36*
X388497Y-89213D02*
X399497Y-89213D01*
X399497Y-103213D01*
X388497Y-103213D01*
X388497Y-89213D01*
G37*
X414597Y-96213D02*
G54D48*
D03*
G36*
X369900Y-125750D02*
X380900Y-125750D01*
X380900Y-139750D01*
X369900Y-139750D01*
X369900Y-125750D01*
G37*
X396000Y-132750D02*
G54D48*
D03*
X359753Y-195532D02*
G54D47*
D03*
X359753Y-176532D02*
G54D47*
D03*
X381953Y-186032D02*
G54D47*
D03*
X380739Y-232003D02*
G54D43*
D03*
X380739Y-211403D02*
G54D43*
D03*
X415080Y-225485D02*
G54D43*
D03*
X415080Y-246085D02*
G54D43*
D03*
X363780Y-211205D02*
G54D43*
D03*
X363780Y-231805D02*
G54D43*
D03*
X377628Y-251038D02*
G54D48*
D03*
X398228Y-251038D02*
G54D48*
D03*
X363747Y-251132D02*
G54D48*
D03*
X343148Y-251132D02*
G54D48*
D03*
G54D49*
X321619Y-170661D02*
X317946Y-167588D01*
X288978Y-167588D01*
X267979Y-156588D01*
G54D41*
X321619Y-170661D02*
X337979Y-155988D01*
G54D49*
X321619Y-170661D02*
X337979Y-155988D01*
G54D49*
X267979Y-225988D02*
X267979Y-224149D01*
X282318Y-209810D01*
G54D23*
X297991Y-194117D02*
X305980Y-186365D01*
G54D49*
X301976Y-190954D02*
X301976Y-193400D01*
X332003Y-223427D01*
G54D49*
X267683Y-173942D02*
X267979Y-155988D01*
G54D49*
X267519Y-196479D02*
X267979Y-225988D01*
X414960Y-190785D02*
G54D43*
D03*
X414960Y-211385D02*
G54D43*
D03*
X397900Y-190785D02*
G54D43*
D03*
X397900Y-211385D02*
G54D43*
D03*
G54D50*
X359753Y-176532D02*
X364453Y-176532D01*
X370953Y-183032D01*
X370953Y-190032D01*
G54D50*
X370953Y-190032D02*
X370953Y-195032D01*
X380626Y-204704D01*
X380626Y-214376D01*
X381790Y-174886D02*
G54D51*
D03*
G54D52*
X381953Y-186032D02*
X381790Y-174886D01*
X392953Y-175032D01*
G54D52*
X397900Y-190785D02*
X415900Y-190785D01*
G54D52*
X415153Y-165532D02*
X415153Y-190038D01*
X415900Y-190785D01*
G54D49*
X359753Y-195532D02*
X360782Y-203106D01*
X363780Y-211205D01*
G54D52*
X380739Y-232003D02*
X390764Y-232003D01*
X397900Y-224866D01*
X397900Y-211385D01*
X414960Y-211385D01*
G54D52*
X363748Y-251132D02*
X363748Y-231805D01*
X363780Y-231805D01*
X454078Y-154288D02*
G54D53*
D03*
X454078Y-178988D02*
G54D53*
D03*
X530379Y-277366D02*
G54D43*
D03*
X530379Y-297966D02*
G54D43*
D03*
X454228Y-193087D02*
G54D43*
D03*
X454228Y-213687D02*
G54D43*
D03*
X454213Y-227766D02*
G54D43*
D03*
X454213Y-248366D02*
G54D43*
D03*
X511379Y-277366D02*
G54D43*
D03*
X511379Y-297966D02*
G54D43*
D03*
X492379Y-277366D02*
G54D43*
D03*
X492379Y-297966D02*
G54D43*
D03*
X473379Y-277366D02*
G54D43*
D03*
X473379Y-297966D02*
G54D43*
D03*
X454379Y-277366D02*
G54D43*
D03*
X454379Y-297966D02*
G54D43*
D03*
G54D52*
X454213Y-227766D02*
X454228Y-213687D01*
G54D42*
X454078Y-178988D02*
X454228Y-193087D01*
X530379Y-306866D02*
G54D54*
D03*
X473078Y-154288D02*
G54D53*
D03*
X473078Y-178988D02*
G54D53*
D03*
X473228Y-193087D02*
G54D43*
D03*
X473228Y-213687D02*
G54D43*
D03*
X473213Y-227766D02*
G54D43*
D03*
X473213Y-248366D02*
G54D43*
D03*
G54D52*
X473213Y-227766D02*
X473228Y-213687D01*
G54D42*
X473078Y-178988D02*
X473228Y-193087D01*
X492078Y-154288D02*
G54D53*
D03*
X492078Y-178988D02*
G54D53*
D03*
X492228Y-193087D02*
G54D43*
D03*
X492228Y-213687D02*
G54D43*
D03*
X492213Y-227766D02*
G54D43*
D03*
X492213Y-248366D02*
G54D43*
D03*
G54D52*
X492213Y-227766D02*
X492228Y-213687D01*
G54D42*
X492078Y-178988D02*
X492228Y-193087D01*
X511078Y-154288D02*
G54D53*
D03*
X511078Y-178988D02*
G54D53*
D03*
X511228Y-193087D02*
G54D43*
D03*
X511228Y-213687D02*
G54D43*
D03*
X511213Y-227766D02*
G54D43*
D03*
X511213Y-248366D02*
G54D43*
D03*
G54D52*
X511213Y-227766D02*
X511228Y-213687D01*
G54D42*
X511078Y-178988D02*
X511228Y-193087D01*
X530078Y-154288D02*
G54D53*
D03*
X530078Y-178988D02*
G54D53*
D03*
X530228Y-193087D02*
G54D43*
D03*
X530228Y-213687D02*
G54D43*
D03*
X530213Y-227766D02*
G54D43*
D03*
X530213Y-248366D02*
G54D43*
D03*
G54D52*
X530213Y-227766D02*
X530228Y-213687D01*
G54D42*
X530078Y-178988D02*
X530228Y-193087D01*
X537814Y-262988D02*
G54D55*
D03*
X521114Y-263088D02*
G54D55*
D03*
X509514Y-262988D02*
G54D55*
D03*
X492814Y-263088D02*
G54D55*
D03*
X481314Y-262988D02*
G54D55*
D03*
X464614Y-263088D02*
G54D55*
D03*
X453014Y-262988D02*
G54D55*
D03*
X436314Y-263088D02*
G54D55*
D03*
G54D56*
X464614Y-263088D02*
X473379Y-248366D01*
G54D42*
X481314Y-262988D02*
X492814Y-263088D01*
G54D42*
X464614Y-263088D02*
X453014Y-262988D01*
G54D42*
X509514Y-262988D02*
X521114Y-263088D01*
G54D42*
X436314Y-263088D02*
X436302Y-255171D01*
X434714Y-248566D01*
X454213Y-248366D01*
G54D42*
X481314Y-262988D02*
X481314Y-263088D01*
X492814Y-263088D01*
X492814Y-248366D01*
X492379Y-248366D01*
G54D42*
X521114Y-263088D02*
X521114Y-262988D01*
X509514Y-262988D01*
G54D42*
X511379Y-248366D02*
X511379Y-262988D01*
X509514Y-262988D01*
G54D42*
X537814Y-262988D02*
X537814Y-248366D01*
X530379Y-248366D01*
G54D56*
X464614Y-262966D02*
X473379Y-277688D01*
G54D42*
X436314Y-262966D02*
X436314Y-277688D01*
X454379Y-277688D01*
G54D42*
X481314Y-263066D02*
X481314Y-262966D01*
X492813Y-262966D01*
X492813Y-277688D01*
X492379Y-277688D01*
G54D42*
X511379Y-277688D02*
X511379Y-263066D01*
X509514Y-263066D01*
G54D42*
X537814Y-263066D02*
X537814Y-277688D01*
X530379Y-277688D01*
X511379Y-306866D02*
G54D54*
D03*
X492379Y-306866D02*
G54D54*
D03*
X473379Y-306866D02*
G54D54*
D03*
X454379Y-306866D02*
G54D54*
D03*
G54D42*
X530379Y-306866D02*
X530379Y-297966D01*
G54D42*
X511379Y-306866D02*
X511379Y-297966D01*
G54D42*
X492379Y-306866D02*
X492379Y-297966D01*
G54D42*
X473379Y-306866D02*
X473379Y-297966D01*
G54D42*
X454379Y-306866D02*
X454379Y-297966D01*
G54D57*
X455542Y-154288D02*
X530078Y-154288D01*
G54D57*
X530078Y-154288D02*
X553079Y-154288D01*
X554779Y-155988D01*
X434714Y-248566D02*
G54D43*
D03*
X434714Y-227966D02*
G54D43*
D03*
X434626Y-215948D02*
G54D51*
D03*
G54D49*
X434626Y-215948D02*
X434626Y-227879D01*
X434714Y-227966D01*
G54D49*
X363748Y-251132D02*
X363842Y-251038D01*
X377628Y-251038D01*
G54D49*
X398228Y-251038D02*
X403180Y-246085D01*
X415080Y-246085D01*
G54D49*
X415080Y-225485D02*
X414960Y-225365D01*
X414960Y-211385D01*
G54D49*
X434626Y-215948D02*
X434588Y-215910D01*
X434588Y-203510D01*
X554022Y-52830D02*
G54D58*
D03*
X554022Y-103630D02*
G54D58*
D03*
X452422Y-78230D02*
G54D58*
D03*
G54D49*
X434588Y-182910D02*
X436561Y-182910D01*
X436561Y-135173D01*
X466039Y-135212D02*
G54D51*
D03*
G54D49*
X455561Y-135173D02*
X466039Y-135212D01*
G54D49*
X446061Y-112973D02*
X482888Y-113104D01*
G54D49*
X482888Y-133704D02*
X482888Y-152988D01*
X483778Y-152988D01*
G54D35*
X482888Y-113104D02*
X502088Y-110304D01*
G54D52*
X502335Y-72156D02*
X502335Y-89704D01*
X502088Y-89704D01*
G54D52*
X502335Y-72156D02*
X502335Y-54704D01*
X502488Y-54704D01*
G54D49*
X1276692Y-27030D02*
X204978Y-26988D01*
G36*
X1276692Y-32030D02*
X1276692Y-22030D01*
X1281692Y-22031D01*
X1281692Y-32031D01*
X1276692Y-32030D01*
G37*
G54D52*
X415153Y-165532D02*
X415153Y-138038D01*
G54D42*
X396000Y-132750D02*
X401288Y-138038D01*
X415153Y-138038D01*
G54D35*
X414597Y-96213D02*
X414488Y-96104D01*
X414488Y-54704D01*
G54D42*
X578978Y-377588D02*
X282978Y-377588D01*
G54D49*
X414626Y-256548D02*
X414626Y-246085D01*
X415080Y-246085D01*
G54D49*
X414626Y-256548D02*
X414626Y-265340D01*
X402978Y-276988D01*
X402978Y-376988D01*
G54D49*
X428478Y-320988D02*
X428588Y-299510D01*
G54D42*
X428588Y-278910D02*
X436314Y-263088D01*
G54D52*
X337979Y-155988D02*
X358353Y-156032D01*
G54D52*
X378953Y-156032D02*
X392953Y-156032D01*
G54D49*
X415153Y-117438D02*
X414597Y-96213D01*
G54D20*
X202978Y-7988D02*
X1394299Y-8600D01*
G36*
X1394295Y-16100D02*
X1394303Y-1100D01*
X1401803Y-1104D01*
X1401795Y-16104D01*
X1394295Y-16100D01*
G37*
G54D20*
X288178Y-393588D02*
X578178Y-393588D01*
X168761Y-135173D02*
G54D47*
D03*
X149761Y-135173D02*
G54D47*
D03*
X159261Y-112973D02*
G54D47*
D03*
X147788Y-182910D02*
G54D43*
D03*
X147788Y-203510D02*
G54D43*
D03*
X141788Y-278910D02*
G54D43*
D03*
X141788Y-299510D02*
G54D43*
D03*
G36*
X148179Y-330988D02*
X128179Y-330988D01*
X128179Y-310988D01*
X148179Y-310988D01*
X148179Y-330988D01*
G37*
X215288Y-110304D02*
G54D43*
D03*
X215288Y-89704D02*
G54D43*
D03*
X236135Y-72156D02*
G54D48*
D03*
X215535Y-72156D02*
G54D48*
D03*
X215688Y-54704D02*
G54D43*
D03*
X215688Y-34104D02*
G54D43*
D03*
X196088Y-133704D02*
G54D43*
D03*
X196088Y-113104D02*
G54D43*
D03*
X106153Y-175032D02*
G54D47*
D03*
X106153Y-156032D02*
G54D47*
D03*
X128353Y-165532D02*
G54D47*
D03*
X71553Y-156032D02*
G54D48*
D03*
X92153Y-156032D02*
G54D48*
D03*
X128353Y-117438D02*
G54D43*
D03*
X128353Y-138038D02*
G54D43*
D03*
X127688Y-34103D02*
G54D43*
D03*
X127688Y-54704D02*
G54D43*
D03*
G36*
X101697Y-89213D02*
X112697Y-89213D01*
X112697Y-103213D01*
X101697Y-103213D01*
X101697Y-89213D01*
G37*
X127797Y-96213D02*
G54D48*
D03*
G36*
X83100Y-125750D02*
X94100Y-125750D01*
X94100Y-139750D01*
X83100Y-139750D01*
X83100Y-125750D01*
G37*
X109200Y-132750D02*
G54D48*
D03*
X72953Y-195532D02*
G54D47*
D03*
X72953Y-176532D02*
G54D47*
D03*
X95153Y-186032D02*
G54D47*
D03*
X93939Y-232003D02*
G54D43*
D03*
X93939Y-211403D02*
G54D43*
D03*
X128280Y-225485D02*
G54D43*
D03*
X128280Y-246085D02*
G54D43*
D03*
X76980Y-211205D02*
G54D43*
D03*
X76980Y-231805D02*
G54D43*
D03*
X90828Y-251038D02*
G54D48*
D03*
X111428Y-251038D02*
G54D48*
D03*
X76948Y-251132D02*
G54D48*
D03*
X56348Y-251132D02*
G54D48*
D03*
G36*
X90078Y-269988D02*
X101078Y-269988D01*
X101078Y-283988D01*
X90078Y-283988D01*
X90078Y-269988D01*
G37*
X116178Y-276988D02*
G54D48*
D03*
X128160Y-190785D02*
G54D43*
D03*
X128160Y-211385D02*
G54D43*
D03*
X111100Y-190785D02*
G54D43*
D03*
X111100Y-211385D02*
G54D43*
D03*
G54D50*
X72953Y-176532D02*
X77653Y-176532D01*
X84153Y-183032D01*
X84153Y-190032D01*
G54D50*
X84153Y-190032D02*
X84153Y-195032D01*
X93826Y-204704D01*
X93826Y-214376D01*
X94990Y-174886D02*
G54D51*
D03*
G54D52*
X95153Y-186032D02*
X94990Y-174886D01*
X106153Y-175032D01*
G54D52*
X111100Y-190785D02*
X129100Y-190785D01*
G54D52*
X128353Y-165532D02*
X128353Y-190038D01*
X129100Y-190785D01*
G54D49*
X72953Y-195532D02*
X73982Y-203106D01*
X76980Y-211205D01*
G54D52*
X93939Y-232003D02*
X103964Y-232003D01*
X111100Y-224866D01*
X111100Y-211385D01*
X128160Y-211385D01*
G54D52*
X76948Y-251132D02*
X76948Y-231805D01*
X76980Y-231805D01*
X167278Y-154288D02*
G54D53*
D03*
X167278Y-178988D02*
G54D53*
D03*
X243579Y-277366D02*
G54D43*
D03*
X243579Y-297966D02*
G54D43*
D03*
X167428Y-193087D02*
G54D43*
D03*
X167428Y-213687D02*
G54D43*
D03*
X167413Y-227766D02*
G54D43*
D03*
X167413Y-248366D02*
G54D43*
D03*
X224579Y-277366D02*
G54D43*
D03*
X224579Y-297966D02*
G54D43*
D03*
X205579Y-277366D02*
G54D43*
D03*
X205579Y-297966D02*
G54D43*
D03*
X186579Y-277366D02*
G54D43*
D03*
X186579Y-297966D02*
G54D43*
D03*
X167579Y-277366D02*
G54D43*
D03*
X167579Y-297966D02*
G54D43*
D03*
G54D52*
X167413Y-227766D02*
X167428Y-213687D01*
G54D42*
X167278Y-178988D02*
X167428Y-193087D01*
X186278Y-154288D02*
G54D53*
D03*
X186278Y-178988D02*
G54D53*
D03*
X186428Y-193087D02*
G54D43*
D03*
X186428Y-213687D02*
G54D43*
D03*
X186413Y-227766D02*
G54D43*
D03*
X186413Y-248366D02*
G54D43*
D03*
G54D52*
X186413Y-227766D02*
X186428Y-213687D01*
G54D42*
X186278Y-178988D02*
X186428Y-193087D01*
X205278Y-154288D02*
G54D53*
D03*
X205278Y-178988D02*
G54D53*
D03*
X205428Y-193087D02*
G54D43*
D03*
X205428Y-213687D02*
G54D43*
D03*
X205413Y-227766D02*
G54D43*
D03*
X205413Y-248366D02*
G54D43*
D03*
G54D52*
X205413Y-227766D02*
X205428Y-213687D01*
G54D42*
X205278Y-178988D02*
X205428Y-193087D01*
X224278Y-154288D02*
G54D53*
D03*
X224278Y-178988D02*
G54D53*
D03*
X224428Y-193087D02*
G54D43*
D03*
X224428Y-213687D02*
G54D43*
D03*
X224413Y-227766D02*
G54D43*
D03*
X224413Y-248366D02*
G54D43*
D03*
G54D52*
X224413Y-227766D02*
X224428Y-213687D01*
G54D42*
X224278Y-178988D02*
X224428Y-193087D01*
X243278Y-154288D02*
G54D53*
D03*
X243278Y-178988D02*
G54D53*
D03*
X243428Y-193087D02*
G54D43*
D03*
X243428Y-213687D02*
G54D43*
D03*
X243413Y-227766D02*
G54D43*
D03*
X243413Y-248366D02*
G54D43*
D03*
G54D52*
X243413Y-227766D02*
X243428Y-213687D01*
G54D42*
X243278Y-178988D02*
X243428Y-193087D01*
X251013Y-262988D02*
G54D55*
D03*
X234314Y-263088D02*
G54D55*
D03*
X222714Y-262988D02*
G54D55*
D03*
X206014Y-263088D02*
G54D55*
D03*
X194514Y-262988D02*
G54D55*
D03*
X177814Y-263088D02*
G54D55*
D03*
X166214Y-262988D02*
G54D55*
D03*
X149514Y-263088D02*
G54D55*
D03*
G54D56*
X177814Y-263088D02*
X186579Y-248366D01*
G54D42*
X194514Y-262988D02*
X206014Y-263088D01*
G54D42*
X177814Y-263088D02*
X166214Y-262988D01*
G54D42*
X222714Y-262988D02*
X234314Y-263088D01*
G54D42*
X149514Y-263088D02*
X149502Y-255171D01*
X147914Y-248566D01*
X167413Y-248366D01*
G54D42*
X194514Y-262988D02*
X194514Y-263088D01*
X206014Y-263088D01*
X206014Y-248366D01*
X205579Y-248366D01*
G54D42*
X234314Y-263088D02*
X234314Y-262988D01*
X222714Y-262988D01*
G54D42*
X224579Y-248366D02*
X224579Y-262988D01*
X222714Y-262988D01*
G54D42*
X251014Y-262988D02*
X251014Y-248366D01*
X243579Y-248366D01*
G54D56*
X177814Y-262966D02*
X186579Y-277688D01*
G54D42*
X149514Y-262966D02*
X149514Y-277688D01*
X167579Y-277688D01*
G54D42*
X194514Y-263066D02*
X194514Y-262966D01*
X206013Y-262966D01*
X206013Y-277688D01*
X205579Y-277688D01*
G54D42*
X224579Y-277688D02*
X224579Y-263066D01*
X222714Y-263066D01*
G54D42*
X251014Y-263066D02*
X251014Y-277688D01*
X243579Y-277688D01*
G54D57*
X168742Y-154288D02*
X243278Y-154288D01*
G54D57*
X243278Y-154288D02*
X266279Y-154288D01*
X267979Y-155988D01*
X147914Y-248566D02*
G54D43*
D03*
X147914Y-227966D02*
G54D43*
D03*
X147827Y-215948D02*
G54D51*
D03*
G54D49*
X147827Y-215948D02*
X147827Y-227879D01*
X147914Y-227966D01*
G54D49*
X76948Y-251132D02*
X77042Y-251038D01*
X90828Y-251038D01*
G54D49*
X111428Y-251038D02*
X116380Y-246085D01*
X128280Y-246085D01*
G54D49*
X128280Y-225485D02*
X128160Y-225365D01*
X128160Y-211385D01*
G54D49*
X147827Y-215948D02*
X147788Y-215910D01*
X147788Y-203510D01*
X267222Y-52830D02*
G54D58*
D03*
X267222Y-103630D02*
G54D58*
D03*
X165622Y-78230D02*
G54D58*
D03*
G54D49*
X147788Y-182910D02*
X149761Y-182910D01*
X149761Y-135173D01*
X179239Y-135212D02*
G54D51*
D03*
G54D49*
X168761Y-135173D02*
X179239Y-135212D01*
G54D49*
X159261Y-112973D02*
X196088Y-113104D01*
G54D49*
X196088Y-133704D02*
X196088Y-152988D01*
X196978Y-152988D01*
G54D35*
X196088Y-113104D02*
X215288Y-110304D01*
G54D52*
X215535Y-72156D02*
X215535Y-89704D01*
X215288Y-89704D01*
G54D52*
X215535Y-72156D02*
X215535Y-54704D01*
X215688Y-54704D01*
G54D49*
X358178Y-26988D02*
X125732Y-26877D01*
G36*
X125734Y-21877D02*
X125730Y-31877D01*
X120730Y-31875D01*
X120734Y-21875D01*
X125734Y-21877D01*
G37*
G54D52*
X128353Y-165532D02*
X128353Y-138038D01*
G54D42*
X109200Y-132750D02*
X114488Y-138038D01*
X128353Y-138038D01*
G54D35*
X127797Y-96213D02*
X127688Y-96104D01*
X127688Y-54704D01*
G54D42*
X292178Y-377588D02*
X116178Y-377588D01*
G54D49*
X127827Y-256548D02*
X127827Y-246085D01*
X128280Y-246085D01*
G54D49*
X127827Y-256548D02*
X127827Y-265340D01*
X116178Y-276988D01*
X116178Y-376988D01*
G54D49*
X138178Y-320988D02*
X141788Y-299510D01*
G54D42*
X141788Y-278910D02*
X149514Y-263088D01*
G54D52*
X54000Y-156085D02*
X71553Y-156032D01*
G54D52*
X92153Y-156032D02*
X106153Y-156032D01*
G54D49*
X128353Y-117438D02*
X127797Y-96213D01*
G54D20*
X8200Y-8600D02*
X364178Y-7988D01*
G36*
X8187Y-1100D02*
X8213Y-16100D01*
X713Y-16113D01*
X687Y-1113D01*
X8187Y-1100D01*
G37*
G54D20*
X8178Y-393588D02*
X288178Y-393588D01*
G36*
X8178Y-386088D02*
X8178Y-401088D01*
X678Y-401088D01*
X678Y-386088D01*
X8178Y-386088D01*
G37*
X54000Y-156085D02*
G54D43*
D03*
X54000Y-176685D02*
G54D43*
D03*
X54411Y-187288D02*
G54D51*
D03*
G54D59*
X54411Y-187288D02*
X54000Y-176685D01*
G54D49*
X54411Y-187288D02*
X54000Y-176685D01*
G54D20*
X8178Y-393588D02*
X8200Y-8600D01*
G54D35*
X520579Y-366666D02*
X540579Y-366666D01*
X492579Y-358666D02*
G54D60*
D03*
X520579Y-366666D02*
G54D60*
D03*
X540579Y-366666D02*
G54D60*
D03*
X506579Y-362666D02*
G54D60*
D03*
X554579Y-362666D02*
G54D60*
D03*
G54D35*
X506579Y-362666D02*
X511645Y-357600D01*
X549200Y-357600D01*
X554266Y-362666D01*
X554579Y-362666D01*
X568579Y-358666D02*
G54D60*
D03*
X478579Y-354666D02*
G54D60*
D03*
X582579Y-354666D02*
G54D60*
D03*
G54D35*
X492579Y-358666D02*
X502645Y-348600D01*
X559200Y-348600D01*
X568579Y-357979D01*
X568579Y-358666D01*
G54D35*
X478579Y-354666D02*
X493645Y-339600D01*
X567200Y-339600D01*
X582579Y-354666D01*
X243679Y-306866D02*
G54D54*
D03*
X224679Y-306866D02*
G54D54*
D03*
X205679Y-306866D02*
G54D54*
D03*
X186679Y-306866D02*
G54D54*
D03*
X167679Y-306866D02*
G54D54*
D03*
G54D42*
X243679Y-306866D02*
X243679Y-297966D01*
G54D42*
X224679Y-306866D02*
X224679Y-297966D01*
G54D42*
X205679Y-306866D02*
X205679Y-297966D01*
G54D42*
X186679Y-306866D02*
X186679Y-297966D01*
G54D42*
X167679Y-306866D02*
X167679Y-297966D01*
G54D35*
X233879Y-366666D02*
X253879Y-366666D01*
X205879Y-358666D02*
G54D60*
D03*
X233879Y-366666D02*
G54D60*
D03*
X253879Y-366666D02*
G54D60*
D03*
X219879Y-362666D02*
G54D60*
D03*
X267879Y-362666D02*
G54D60*
D03*
G54D35*
X219879Y-362666D02*
X224945Y-357600D01*
X262500Y-357600D01*
X267566Y-362666D01*
X267879Y-362666D01*
X281879Y-358666D02*
G54D60*
D03*
X191879Y-354666D02*
G54D60*
D03*
X295879Y-354666D02*
G54D60*
D03*
G54D35*
X205879Y-358666D02*
X215945Y-348600D01*
X272500Y-348600D01*
X281879Y-357979D01*
X281879Y-358666D01*
G54D35*
X191879Y-354666D02*
X206945Y-339600D01*
X280500Y-339600D01*
X295879Y-354666D01*
X28200Y-8100D02*
G54D60*
D03*
X8200Y-26600D02*
G54D60*
D03*
X8200Y-46600D02*
G54D60*
D03*
X8200Y-66600D02*
G54D60*
D03*
X8200Y-86600D02*
G54D60*
D03*
X8200Y-106600D02*
G54D60*
D03*
X8200Y-126600D02*
G54D60*
D03*
X8200Y-146600D02*
G54D60*
D03*
X8200Y-166600D02*
G54D60*
D03*
X8200Y-183600D02*
G54D60*
D03*
X8200Y-226600D02*
G54D60*
D03*
X8200Y-246600D02*
G54D60*
D03*
X8200Y-266600D02*
G54D60*
D03*
X8200Y-286600D02*
G54D60*
D03*
X8200Y-306600D02*
G54D60*
D03*
X8200Y-326600D02*
G54D60*
D03*
X8200Y-346600D02*
G54D60*
D03*
X8200Y-366600D02*
G54D60*
D03*
X8200Y-385600D02*
G54D60*
D03*
X48200Y-8100D02*
G54D60*
D03*
X68200Y-8100D02*
G54D60*
D03*
X88200Y-8100D02*
G54D60*
D03*
X108200Y-8100D02*
G54D60*
D03*
X128200Y-8100D02*
G54D60*
D03*
X148200Y-8100D02*
G54D60*
D03*
X168200Y-8100D02*
G54D60*
D03*
X188200Y-8100D02*
G54D60*
D03*
X208200Y-8100D02*
G54D60*
D03*
X228200Y-8100D02*
G54D60*
D03*
X248200Y-8100D02*
G54D60*
D03*
X268200Y-8100D02*
G54D60*
D03*
X288200Y-8100D02*
G54D60*
D03*
X308200Y-8100D02*
G54D60*
D03*
X328200Y-8100D02*
G54D60*
D03*
X348200Y-8100D02*
G54D60*
D03*
X368200Y-8100D02*
G54D60*
D03*
X388200Y-8100D02*
G54D60*
D03*
X408200Y-8100D02*
G54D60*
D03*
X428200Y-8100D02*
G54D60*
D03*
X448200Y-8100D02*
G54D60*
D03*
X468200Y-8100D02*
G54D60*
D03*
X508200Y-8100D02*
G54D60*
D03*
X488200Y-8100D02*
G54D60*
D03*
X528200Y-8100D02*
G54D60*
D03*
X548200Y-8100D02*
G54D60*
D03*
X568200Y-8100D02*
G54D60*
D03*
X588200Y-8100D02*
G54D60*
D03*
X608200Y-8100D02*
G54D60*
D03*
X628200Y-8100D02*
G54D60*
D03*
X48178Y-393588D02*
G54D60*
D03*
X68178Y-393588D02*
G54D60*
D03*
X88178Y-393588D02*
G54D60*
D03*
X108178Y-393588D02*
G54D60*
D03*
X128178Y-393588D02*
G54D60*
D03*
X148178Y-393588D02*
G54D60*
D03*
X168178Y-393588D02*
G54D60*
D03*
X188178Y-393588D02*
G54D60*
D03*
X208178Y-393588D02*
G54D60*
D03*
X228178Y-393588D02*
G54D60*
D03*
X8200Y-215600D02*
G54D60*
D03*
X60200Y-203600D02*
G54D60*
D03*
X22200Y-217600D02*
G54D60*
D03*
X58200Y-211600D02*
G54D60*
D03*
X43200Y-221600D02*
G54D60*
D03*
X58200Y-221600D02*
G54D60*
D03*
X43200Y-231600D02*
G54D60*
D03*
X58200Y-231600D02*
G54D60*
D03*
X43200Y-241600D02*
G54D60*
D03*
X43200Y-251600D02*
G54D60*
D03*
X43200Y-261600D02*
G54D60*
D03*
X43200Y-271600D02*
G54D60*
D03*
X53200Y-266600D02*
G54D60*
D03*
X63200Y-266600D02*
G54D60*
D03*
X43200Y-281600D02*
G54D60*
D03*
X53200Y-276600D02*
G54D60*
D03*
X63200Y-276600D02*
G54D60*
D03*
X73200Y-266600D02*
G54D60*
D03*
X83200Y-266600D02*
G54D60*
D03*
X83200Y-276600D02*
G54D60*
D03*
X73200Y-276600D02*
G54D60*
D03*
X43200Y-291600D02*
G54D60*
D03*
X53200Y-286600D02*
G54D60*
D03*
X63200Y-286600D02*
G54D60*
D03*
X74127Y-286478D02*
G54D60*
D03*
X83200Y-286600D02*
G54D60*
D03*
X103200Y-291600D02*
G54D60*
D03*
X93200Y-291600D02*
G54D60*
D03*
X103200Y-381600D02*
G54D60*
D03*
X103200Y-366600D02*
G54D60*
D03*
X103200Y-346600D02*
G54D60*
D03*
X103200Y-326600D02*
G54D60*
D03*
X103200Y-306600D02*
G54D60*
D03*
X53200Y-306600D02*
G54D60*
D03*
X78200Y-306600D02*
G54D60*
D03*
X53200Y-336600D02*
G54D60*
D03*
X78200Y-336600D02*
G54D60*
D03*
X53200Y-366600D02*
G54D60*
D03*
X78200Y-366600D02*
G54D60*
D03*
X38200Y-171600D02*
G54D60*
D03*
X38200Y-161600D02*
G54D60*
D03*
X38200Y-151600D02*
G54D60*
D03*
X38200Y-141600D02*
G54D60*
D03*
X67200Y-119600D02*
G54D60*
D03*
X40200Y-119600D02*
G54D60*
D03*
X69200Y-136600D02*
G54D60*
D03*
X78200Y-136600D02*
G54D60*
D03*
X78200Y-126600D02*
G54D60*
D03*
X78200Y-116600D02*
G54D60*
D03*
X88200Y-116600D02*
G54D60*
D03*
X98200Y-116600D02*
G54D60*
D03*
X108200Y-116600D02*
G54D60*
D03*
X108200Y-108100D02*
G54D60*
D03*
X96200Y-107100D02*
G54D60*
D03*
X95907Y-97200D02*
G54D60*
D03*
X95906Y-86600D02*
G54D60*
D03*
X103200Y-81600D02*
G54D60*
D03*
X113200Y-81600D02*
G54D60*
D03*
X113200Y-71600D02*
G54D60*
D03*
X108200Y-61600D02*
G54D60*
D03*
X108200Y-51600D02*
G54D60*
D03*
X108200Y-41600D02*
G54D60*
D03*
X108200Y-31600D02*
G54D60*
D03*
X108200Y-21600D02*
G54D60*
D03*
X48200Y-26600D02*
G54D60*
D03*
X78200Y-26600D02*
G54D60*
D03*
X48200Y-56600D02*
G54D60*
D03*
X78200Y-56600D02*
G54D60*
D03*
X48200Y-86600D02*
G54D60*
D03*
X78200Y-86600D02*
G54D60*
D03*
X54200Y-107600D02*
G54D60*
D03*
X145581Y-120090D02*
G54D60*
D03*
X145581Y-108457D02*
G54D60*
D03*
X144080Y-97388D02*
G54D60*
D03*
X145299Y-56394D02*
G54D60*
D03*
X145487Y-41384D02*
G54D60*
D03*
X162748Y-41666D02*
G54D60*
D03*
X198208Y-41760D02*
G54D60*
D03*
X197832Y-56112D02*
G54D60*
D03*
X198114Y-71966D02*
G54D60*
D03*
X181885Y-41666D02*
G54D60*
D03*
X162935Y-53392D02*
G54D60*
D03*
X181979Y-54330D02*
G54D60*
D03*
X185788Y-98559D02*
G54D60*
D03*
X196509Y-100414D02*
G54D60*
D03*
X139602Y-72373D02*
G54D60*
D03*
X139396Y-81239D02*
G54D60*
D03*
X234241Y-111755D02*
G54D60*
D03*
X244344Y-120002D02*
G54D60*
D03*
X213623Y-127012D02*
G54D60*
D03*
X230942Y-126806D02*
G54D60*
D03*
X214241Y-139384D02*
G54D60*
D03*
X231148Y-139177D02*
G54D60*
D03*
X245375Y-138765D02*
G54D60*
D03*
X256509Y-132579D02*
G54D60*
D03*
X271355Y-132579D02*
G54D60*
D03*
X242695Y-130311D02*
G54D60*
D03*
X287231Y-124950D02*
G54D60*
D03*
X294653Y-113817D02*
G54D60*
D03*
X244968Y-83825D02*
G54D60*
D03*
X249852Y-75113D02*
G54D60*
D03*
X236322Y-56600D02*
G54D60*
D03*
X233395Y-41600D02*
G54D60*
D03*
X243517Y-41600D02*
G54D60*
D03*
X263639Y-77820D02*
G54D60*
D03*
X278395Y-78185D02*
G54D60*
D03*
X289005Y-71234D02*
G54D60*
D03*
X290468Y-84527D02*
G54D60*
D03*
X296322Y-99649D02*
G54D60*
D03*
X300178Y-77970D02*
G54D60*
D03*
X312842Y-77782D02*
G54D60*
D03*
X325131Y-77688D02*
G54D60*
D03*
X337326Y-77594D02*
G54D60*
D03*
X338181Y-66632D02*
G54D60*
D03*
X338181Y-53795D02*
G54D60*
D03*
X338339Y-43177D02*
G54D60*
D03*
X351078Y-40905D02*
G54D60*
D03*
X364859Y-40905D02*
G54D60*
D03*
X380346Y-40905D02*
G54D60*
D03*
X393200Y-40905D02*
G54D60*
D03*
X398200Y-46600D02*
G54D60*
D03*
X398200Y-56600D02*
G54D60*
D03*
X398200Y-66600D02*
G54D60*
D03*
X403200Y-76600D02*
G54D60*
D03*
X396613Y-83598D02*
G54D60*
D03*
X386200Y-83504D02*
G54D60*
D03*
X381603Y-91853D02*
G54D60*
D03*
X381791Y-101797D02*
G54D60*
D03*
X386388Y-110240D02*
G54D60*
D03*
X396800Y-110615D02*
G54D60*
D03*
X390962Y-117047D02*
G54D60*
D03*
X380717Y-119500D02*
G54D60*
D03*
X369461Y-119645D02*
G54D60*
D03*
X362752Y-124911D02*
G54D60*
D03*
X362897Y-132054D02*
G54D60*
D03*
X363041Y-139775D02*
G54D60*
D03*
X325956Y-135868D02*
G54D60*
D03*
X334859Y-133429D02*
G54D60*
D03*
X344493Y-135137D02*
G54D60*
D03*
X352907Y-139649D02*
G54D60*
D03*
X322901Y-124950D02*
G54D60*
D03*
X314241Y-119590D02*
G54D60*
D03*
X304550Y-117322D02*
G54D60*
D03*
X306612Y-89899D02*
G54D60*
D03*
X308056Y-108456D02*
G54D60*
D03*
X324076Y-97535D02*
G54D60*
D03*
X337072Y-111164D02*
G54D60*
D03*
X348799Y-124793D02*
G54D60*
D03*
X342301Y-90404D02*
G54D60*
D03*
X353236Y-102765D02*
G54D60*
D03*
X369243Y-106727D02*
G54D60*
D03*
X355614Y-114809D02*
G54D60*
D03*
X352444Y-56172D02*
G54D60*
D03*
X352603Y-72654D02*
G54D60*
D03*
X356723Y-88660D02*
G54D60*
D03*
X371303Y-79468D02*
G54D60*
D03*
X366707Y-63145D02*
G54D60*
D03*
X374473Y-50625D02*
G54D60*
D03*
X384774Y-57598D02*
G54D60*
D03*
X382872Y-70118D02*
G54D60*
D03*
X290637Y-179944D02*
G54D60*
D03*
X282555Y-181212D02*
G54D60*
D03*
X280019Y-189770D02*
G54D60*
D03*
X257198Y-189294D02*
G54D60*
D03*
X278910Y-198169D02*
G54D60*
D03*
X257674Y-205776D02*
G54D60*
D03*
X257991Y-214809D02*
G54D60*
D03*
X102848Y-266567D02*
G54D60*
D03*
X265656Y-247388D02*
G54D60*
D03*
X301303Y-213992D02*
G54D60*
D03*
X309746Y-221122D02*
G54D60*
D03*
X288451Y-222998D02*
G54D60*
D03*
X264963Y-257322D02*
G54D60*
D03*
X264550Y-266394D02*
G54D60*
D03*
X264963Y-275054D02*
G54D60*
D03*
X259674Y-287710D02*
G54D60*
D03*
X264391Y-282826D02*
G54D60*
D03*
X276097Y-243507D02*
G54D60*
D03*
X281045Y-235878D02*
G54D60*
D03*
X274654Y-283095D02*
G54D60*
D03*
X276509Y-268250D02*
G54D60*
D03*
X277746Y-256497D02*
G54D60*
D03*
X294654Y-266394D02*
G54D60*
D03*
X287231Y-288043D02*
G54D60*
D03*
X287025Y-274847D02*
G54D60*
D03*
X324448Y-243713D02*
G54D60*
D03*
X324447Y-254847D02*
G54D60*
D03*
X324448Y-267631D02*
G54D60*
D03*
X324448Y-283920D02*
G54D60*
D03*
X324448Y-296703D02*
G54D60*
D03*
X324447Y-307012D02*
G54D60*
D03*
X310942Y-303301D02*
G54D60*
D03*
X298159Y-300414D02*
G54D60*
D03*
X308880Y-264126D02*
G54D60*
D03*
X318159Y-259796D02*
G54D60*
D03*
X302282Y-286394D02*
G54D60*
D03*
X354737Y-312820D02*
G54D60*
D03*
X354371Y-300502D02*
G54D60*
D03*
X351932Y-288429D02*
G54D60*
D03*
X351566Y-276234D02*
G54D60*
D03*
X352616Y-266525D02*
G54D60*
D03*
X371880Y-307641D02*
G54D60*
D03*
X361850Y-308043D02*
G54D60*
D03*
X263250Y-329250D02*
G54D60*
D03*
X283932Y-329693D02*
G54D60*
D03*
X292798Y-327131D02*
G54D60*
D03*
X304757Y-330018D02*
G54D60*
D03*
X317128Y-332904D02*
G54D60*
D03*
X330736Y-336172D02*
G54D60*
D03*
X342107Y-338853D02*
G54D60*
D03*
X351973Y-341327D02*
G54D60*
D03*
X297746Y-337734D02*
G54D60*
D03*
X305169Y-343920D02*
G54D60*
D03*
X317953Y-344744D02*
G54D60*
D03*
X333004Y-344863D02*
G54D60*
D03*
X344963Y-344688D02*
G54D60*
D03*
X155712Y-315625D02*
G54D60*
D03*
X155712Y-323429D02*
G54D60*
D03*
X155834Y-330990D02*
G54D60*
D03*
X155224Y-338795D02*
G54D60*
D03*
X130224Y-340015D02*
G54D60*
D03*
X143395Y-339405D02*
G54D60*
D03*
X130834Y-350868D02*
G54D60*
D03*
X129980Y-363429D02*
G54D60*
D03*
X142176Y-364039D02*
G54D60*
D03*
X146444Y-350502D02*
G54D60*
D03*
X155590Y-352088D02*
G54D60*
D03*
X416931Y-341235D02*
G54D60*
D03*
X427785Y-341112D02*
G54D60*
D03*
X439005Y-341722D02*
G54D60*
D03*
X432298Y-120746D02*
G54D60*
D03*
X432298Y-112088D02*
G54D60*
D03*
X432420Y-103551D02*
G54D60*
D03*
X429980Y-94405D02*
G54D60*
D03*
X428273Y-86356D02*
G54D60*
D03*
X426688Y-77698D02*
G54D60*
D03*
X426322Y-69405D02*
G54D60*
D03*
X431566Y-59527D02*
G54D60*
D03*
X431444Y-40380D02*
G54D60*
D03*
X431566Y-50137D02*
G54D60*
D03*
X441688Y-40137D02*
G54D60*
D03*
X454371Y-40380D02*
G54D60*
D03*
X468273Y-40137D02*
G54D60*
D03*
X479005Y-40990D02*
G54D60*
D03*
X485956Y-46478D02*
G54D60*
D03*
X485468Y-57210D02*
G54D60*
D03*
X486688Y-68063D02*
G54D60*
D03*
X477541Y-62820D02*
G54D60*
D03*
X469127Y-56722D02*
G54D60*
D03*
X457541Y-52576D02*
G54D60*
D03*
X444249Y-54893D02*
G54D60*
D03*
X448517Y-47088D02*
G54D60*
D03*
X475956Y-50868D02*
G54D60*
D03*
X470956Y-96600D02*
G54D60*
D03*
X485468Y-100502D02*
G54D60*
D03*
X477907Y-100259D02*
G54D60*
D03*
X497082Y-124874D02*
G54D60*
D03*
X497082Y-133129D02*
G54D60*
D03*
X497457Y-140728D02*
G54D60*
D03*
X518939Y-108082D02*
G54D60*
D03*
X528695Y-110803D02*
G54D60*
D03*
X518845Y-118401D02*
G54D60*
D03*
X517251Y-125624D02*
G54D60*
D03*
X506463Y-125624D02*
G54D60*
D03*
X506369Y-140728D02*
G54D60*
D03*
X516500Y-140165D02*
G54D60*
D03*
X528320Y-140071D02*
G54D60*
D03*
X540328Y-139696D02*
G54D60*
D03*
X534605Y-124030D02*
G54D60*
D03*
X526444Y-131253D02*
G54D60*
D03*
X511059Y-132941D02*
G54D60*
D03*
X518752Y-40634D02*
G54D60*
D03*
X529071Y-40821D02*
G54D60*
D03*
X519314Y-50671D02*
G54D60*
D03*
X527945Y-50953D02*
G54D60*
D03*
X519408Y-60615D02*
G54D60*
D03*
X528695Y-61459D02*
G54D60*
D03*
X533949Y-70840D02*
G54D60*
D03*
X534136Y-79189D02*
G54D60*
D03*
X520065Y-82729D02*
G54D60*
D03*
X530290Y-85080D02*
G54D60*
D03*
X543705Y-77594D02*
G54D60*
D03*
X556087Y-77876D02*
G54D60*
D03*
X567720Y-76938D02*
G54D60*
D03*
X575787Y-68776D02*
G54D60*
D03*
X575131Y-86412D02*
G54D60*
D03*
X161872Y-166661D02*
G54D60*
D03*
X171945Y-166661D02*
G54D60*
D03*
X183151Y-166661D02*
G54D60*
D03*
X194737Y-166661D02*
G54D60*
D03*
X206200Y-166661D02*
G54D60*
D03*
X218151Y-166661D02*
G54D60*
D03*
X230590Y-166661D02*
G54D60*
D03*
X240956Y-166661D02*
G54D60*
D03*
X251929Y-166661D02*
G54D60*
D03*
X265060Y-187827D02*
G54D60*
D03*
X272708Y-187754D02*
G54D60*
D03*
X451872Y-166661D02*
G54D60*
D03*
X461945Y-166661D02*
G54D60*
D03*
X473151Y-166661D02*
G54D60*
D03*
X484737Y-166661D02*
G54D60*
D03*
X496200Y-166661D02*
G54D60*
D03*
X508151Y-166661D02*
G54D60*
D03*
X520590Y-166661D02*
G54D60*
D03*
X530956Y-166661D02*
G54D60*
D03*
X256330Y-325272D02*
G54D60*
D03*
G36*
X560179Y-208749D02*
X567957Y-200971D01*
X577857Y-210870D01*
X570079Y-218648D01*
X560179Y-208749D01*
G37*
G36*
X574745Y-194183D02*
X582524Y-186405D01*
X592423Y-196304D01*
X584645Y-204082D01*
X574745Y-194183D01*
G37*
G36*
X617158Y-171722D02*
X609380Y-179500D01*
X599481Y-169601D01*
X607259Y-161822D01*
X617158Y-171722D01*
G37*
G36*
X602592Y-186289D02*
X594814Y-194066D01*
X584915Y-184167D01*
X592693Y-176389D01*
X602592Y-186289D01*
G37*
X554219Y-196479D02*
G54D43*
D03*
X554219Y-175879D02*
G54D43*
D03*
X660722Y-282830D02*
G54D44*
D03*
X660722Y-333630D02*
G54D44*
D03*
X559122Y-308230D02*
G54D44*
D03*
X742261Y-135173D02*
G54D47*
D03*
X723261Y-135173D02*
G54D47*
D03*
X732761Y-112973D02*
G54D47*
D03*
X721288Y-182910D02*
G54D43*
D03*
X721288Y-203510D02*
G54D43*
D03*
X715288Y-278910D02*
G54D43*
D03*
X715288Y-299510D02*
G54D43*
D03*
G36*
X725179Y-330988D02*
X705179Y-330988D01*
X705179Y-310988D01*
X725179Y-310988D01*
X725179Y-330988D01*
G37*
X788788Y-110304D02*
G54D43*
D03*
X788788Y-89704D02*
G54D43*
D03*
X809635Y-72156D02*
G54D48*
D03*
X789035Y-72156D02*
G54D48*
D03*
X789188Y-54704D02*
G54D43*
D03*
X789188Y-34104D02*
G54D43*
D03*
X769588Y-133704D02*
G54D43*
D03*
X769588Y-113104D02*
G54D43*
D03*
X679653Y-175032D02*
G54D47*
D03*
X679653Y-156032D02*
G54D47*
D03*
X701853Y-165532D02*
G54D47*
D03*
X645053Y-156032D02*
G54D48*
D03*
X665653Y-156032D02*
G54D48*
D03*
X701853Y-117438D02*
G54D43*
D03*
X701853Y-138038D02*
G54D43*
D03*
X701188Y-34103D02*
G54D43*
D03*
X701188Y-54704D02*
G54D43*
D03*
G36*
X675197Y-89213D02*
X686197Y-89213D01*
X686197Y-103213D01*
X675197Y-103213D01*
X675197Y-89213D01*
G37*
X701297Y-96213D02*
G54D48*
D03*
G36*
X656600Y-125750D02*
X667600Y-125750D01*
X667600Y-139750D01*
X656600Y-139750D01*
X656600Y-125750D01*
G37*
X682700Y-132750D02*
G54D48*
D03*
X646453Y-195532D02*
G54D47*
D03*
X646453Y-176532D02*
G54D47*
D03*
X668653Y-186032D02*
G54D47*
D03*
X667439Y-232003D02*
G54D43*
D03*
X667439Y-211403D02*
G54D43*
D03*
X701780Y-225485D02*
G54D43*
D03*
X701780Y-246085D02*
G54D43*
D03*
X650480Y-211205D02*
G54D43*
D03*
X650480Y-231805D02*
G54D43*
D03*
X664328Y-251038D02*
G54D48*
D03*
X684928Y-251038D02*
G54D48*
D03*
X650447Y-251132D02*
G54D48*
D03*
X629848Y-251132D02*
G54D48*
D03*
G54D49*
X608319Y-170661D02*
X604646Y-167588D01*
X575678Y-167588D01*
X554679Y-156588D01*
G54D41*
X608319Y-170661D02*
X624679Y-155988D01*
G54D49*
X608319Y-170661D02*
X624679Y-155988D01*
G54D49*
X554679Y-225988D02*
X554679Y-224149D01*
X569018Y-209810D01*
G54D23*
X584691Y-194117D02*
X592680Y-186365D01*
G54D49*
X588676Y-190954D02*
X588676Y-193400D01*
X618703Y-223427D01*
G54D49*
X554383Y-173942D02*
X554679Y-155988D01*
G54D49*
X554219Y-196479D02*
X554679Y-225988D01*
X701660Y-190785D02*
G54D43*
D03*
X701660Y-211385D02*
G54D43*
D03*
X684600Y-190785D02*
G54D43*
D03*
X684600Y-211385D02*
G54D43*
D03*
G54D50*
X646453Y-176532D02*
X651153Y-176532D01*
X657653Y-183032D01*
X657653Y-190032D01*
G54D50*
X657653Y-190032D02*
X657653Y-195032D01*
X667326Y-204704D01*
X667326Y-214376D01*
X668490Y-174886D02*
G54D51*
D03*
G54D52*
X668653Y-186032D02*
X668490Y-174886D01*
X679653Y-175032D01*
G54D52*
X684600Y-190785D02*
X702600Y-190785D01*
G54D52*
X701853Y-165532D02*
X701853Y-190038D01*
X702600Y-190785D01*
G54D49*
X646453Y-195532D02*
X647482Y-203106D01*
X650480Y-211205D01*
G54D52*
X667439Y-232003D02*
X677464Y-232003D01*
X684600Y-224866D01*
X684600Y-211385D01*
X701660Y-211385D01*
G54D52*
X650448Y-251132D02*
X650448Y-231805D01*
X650480Y-231805D01*
X740778Y-154288D02*
G54D53*
D03*
X740778Y-178988D02*
G54D53*
D03*
X817079Y-277366D02*
G54D43*
D03*
X817079Y-297966D02*
G54D43*
D03*
X740928Y-193087D02*
G54D43*
D03*
X740928Y-213687D02*
G54D43*
D03*
X740913Y-227766D02*
G54D43*
D03*
X740913Y-248366D02*
G54D43*
D03*
X798079Y-277366D02*
G54D43*
D03*
X798079Y-297966D02*
G54D43*
D03*
X779079Y-277366D02*
G54D43*
D03*
X779079Y-297966D02*
G54D43*
D03*
X760079Y-277366D02*
G54D43*
D03*
X760079Y-297966D02*
G54D43*
D03*
X741079Y-277366D02*
G54D43*
D03*
X741079Y-297966D02*
G54D43*
D03*
G54D52*
X740913Y-227766D02*
X740928Y-213687D01*
G54D42*
X740778Y-178988D02*
X740928Y-193087D01*
X817079Y-306866D02*
G54D54*
D03*
X759778Y-154288D02*
G54D53*
D03*
X759778Y-178988D02*
G54D53*
D03*
X759928Y-193087D02*
G54D43*
D03*
X759928Y-213687D02*
G54D43*
D03*
X759913Y-227766D02*
G54D43*
D03*
X759913Y-248366D02*
G54D43*
D03*
G54D52*
X759913Y-227766D02*
X759928Y-213687D01*
G54D42*
X759778Y-178988D02*
X759928Y-193087D01*
X778778Y-154288D02*
G54D53*
D03*
X778778Y-178988D02*
G54D53*
D03*
X778928Y-193087D02*
G54D43*
D03*
X778928Y-213687D02*
G54D43*
D03*
X778913Y-227766D02*
G54D43*
D03*
X778913Y-248366D02*
G54D43*
D03*
G54D52*
X778913Y-227766D02*
X778928Y-213687D01*
G54D42*
X778778Y-178988D02*
X778928Y-193087D01*
X797778Y-154288D02*
G54D53*
D03*
X797778Y-178988D02*
G54D53*
D03*
X797928Y-193087D02*
G54D43*
D03*
X797928Y-213687D02*
G54D43*
D03*
X797913Y-227766D02*
G54D43*
D03*
X797913Y-248366D02*
G54D43*
D03*
G54D52*
X797913Y-227766D02*
X797928Y-213687D01*
G54D42*
X797778Y-178988D02*
X797928Y-193087D01*
X816778Y-154288D02*
G54D53*
D03*
X816778Y-178988D02*
G54D53*
D03*
X816928Y-193087D02*
G54D43*
D03*
X816928Y-213687D02*
G54D43*
D03*
X816913Y-227766D02*
G54D43*
D03*
X816913Y-248366D02*
G54D43*
D03*
G54D52*
X816913Y-227766D02*
X816928Y-213687D01*
G54D42*
X816778Y-178988D02*
X816928Y-193087D01*
X824513Y-262988D02*
G54D55*
D03*
X807813Y-263088D02*
G54D55*
D03*
X796213Y-262988D02*
G54D55*
D03*
X779513Y-263088D02*
G54D55*
D03*
X768013Y-262988D02*
G54D55*
D03*
X751313Y-263088D02*
G54D55*
D03*
X739713Y-262988D02*
G54D55*
D03*
X723013Y-263088D02*
G54D55*
D03*
G54D56*
X751313Y-263088D02*
X760079Y-248366D01*
G54D42*
X768013Y-262988D02*
X779513Y-263088D01*
G54D42*
X751313Y-263088D02*
X739713Y-262988D01*
G54D42*
X796213Y-262988D02*
X807813Y-263088D01*
G54D42*
X723013Y-263088D02*
X723002Y-255171D01*
X721413Y-248566D01*
X740913Y-248366D01*
G54D42*
X768013Y-262988D02*
X768013Y-263088D01*
X779513Y-263088D01*
X779513Y-248366D01*
X779079Y-248366D01*
G54D42*
X807813Y-263088D02*
X807813Y-262988D01*
X796213Y-262988D01*
G54D42*
X798079Y-248366D02*
X798079Y-262988D01*
X796213Y-262988D01*
G54D42*
X824513Y-262988D02*
X824513Y-248366D01*
X817079Y-248366D01*
G54D56*
X751313Y-262966D02*
X760079Y-277688D01*
G54D42*
X723013Y-262966D02*
X723013Y-277688D01*
X741079Y-277688D01*
G54D42*
X768013Y-263066D02*
X768013Y-262966D01*
X779513Y-262966D01*
X779513Y-277688D01*
X779079Y-277688D01*
G54D42*
X798079Y-277688D02*
X798079Y-263066D01*
X796213Y-263066D01*
G54D42*
X824513Y-263066D02*
X824513Y-277688D01*
X817079Y-277688D01*
X798079Y-306866D02*
G54D54*
D03*
X779079Y-306866D02*
G54D54*
D03*
X760079Y-306866D02*
G54D54*
D03*
X741079Y-306866D02*
G54D54*
D03*
G54D42*
X817079Y-306866D02*
X817079Y-297966D01*
G54D42*
X798079Y-306866D02*
X798079Y-297966D01*
G54D42*
X779079Y-306866D02*
X779079Y-297966D01*
G54D42*
X760079Y-306866D02*
X760079Y-297966D01*
G54D42*
X741079Y-306866D02*
X741079Y-297966D01*
G54D57*
X742242Y-154288D02*
X816778Y-154288D01*
G54D57*
X816778Y-154288D02*
X839778Y-154288D01*
X841478Y-155988D01*
X721413Y-248566D02*
G54D43*
D03*
X721413Y-227966D02*
G54D43*
D03*
X721326Y-215948D02*
G54D51*
D03*
G54D49*
X721326Y-215948D02*
X721326Y-227879D01*
X721413Y-227966D01*
G54D49*
X650448Y-251132D02*
X650542Y-251038D01*
X664328Y-251038D01*
G54D49*
X684928Y-251038D02*
X689880Y-246085D01*
X701780Y-246085D01*
G54D49*
X701780Y-225485D02*
X701660Y-225365D01*
X701660Y-211385D01*
G54D49*
X721326Y-215948D02*
X721288Y-215910D01*
X721288Y-203510D01*
X840722Y-52830D02*
G54D58*
D03*
X840722Y-103630D02*
G54D58*
D03*
X739122Y-78230D02*
G54D58*
D03*
G54D49*
X721288Y-182910D02*
X723261Y-182910D01*
X723261Y-135173D01*
X752738Y-135212D02*
G54D51*
D03*
G54D49*
X742261Y-135173D02*
X752738Y-135212D01*
G54D49*
X732761Y-112973D02*
X769588Y-113104D01*
G54D49*
X769588Y-133704D02*
X769588Y-152988D01*
X770478Y-152988D01*
G54D35*
X769588Y-113104D02*
X788788Y-110304D01*
G54D52*
X789035Y-72156D02*
X789035Y-89704D01*
X788788Y-89704D01*
G54D52*
X789035Y-72156D02*
X789035Y-54704D01*
X789188Y-54704D01*
G54D52*
X701853Y-165532D02*
X701853Y-138038D01*
G54D42*
X682700Y-132750D02*
X687988Y-138038D01*
X701853Y-138038D01*
G54D35*
X701297Y-96213D02*
X701188Y-96104D01*
X701188Y-54704D01*
G54D42*
X865678Y-377588D02*
X569678Y-377588D01*
G54D49*
X701326Y-256548D02*
X701326Y-246085D01*
X701780Y-246085D01*
G54D49*
X701326Y-256548D02*
X701326Y-265340D01*
X689678Y-276988D01*
X689678Y-376988D01*
G54D49*
X715178Y-320988D02*
X715288Y-299510D01*
G54D42*
X715288Y-278910D02*
X723013Y-263088D01*
G54D52*
X624679Y-155988D02*
X645053Y-156032D01*
G54D52*
X665653Y-156032D02*
X679653Y-156032D01*
G54D49*
X701853Y-117438D02*
X701297Y-96213D01*
G54D20*
X574878Y-393588D02*
X864878Y-393588D01*
G54D35*
X807279Y-366666D02*
X827279Y-366666D01*
X779279Y-358666D02*
G54D60*
D03*
X807279Y-366666D02*
G54D60*
D03*
X827279Y-366666D02*
G54D60*
D03*
X793279Y-362666D02*
G54D60*
D03*
X841279Y-362666D02*
G54D60*
D03*
G54D35*
X793279Y-362666D02*
X798345Y-357600D01*
X835900Y-357600D01*
X840966Y-362666D01*
X841279Y-362666D01*
X855279Y-358666D02*
G54D60*
D03*
X765279Y-354666D02*
G54D60*
D03*
X869279Y-354666D02*
G54D60*
D03*
G54D35*
X779279Y-358666D02*
X789345Y-348600D01*
X845900Y-348600D01*
X855279Y-357979D01*
X855279Y-358666D01*
G54D35*
X765279Y-354666D02*
X780345Y-339600D01*
X853900Y-339600D01*
X869279Y-354666D01*
X543209Y-132579D02*
G54D60*
D03*
X558055Y-132579D02*
G54D60*
D03*
X573931Y-124950D02*
G54D60*
D03*
X581353Y-113817D02*
G54D60*
D03*
X583022Y-99649D02*
G54D60*
D03*
X586878Y-77970D02*
G54D60*
D03*
X599542Y-77782D02*
G54D60*
D03*
X611831Y-77688D02*
G54D60*
D03*
X624026Y-77594D02*
G54D60*
D03*
X624881Y-66632D02*
G54D60*
D03*
X624881Y-53795D02*
G54D60*
D03*
X625039Y-43177D02*
G54D60*
D03*
X637778Y-40905D02*
G54D60*
D03*
X651559Y-40905D02*
G54D60*
D03*
X667046Y-40905D02*
G54D60*
D03*
X679900Y-40905D02*
G54D60*
D03*
X684900Y-46600D02*
G54D60*
D03*
X684900Y-56600D02*
G54D60*
D03*
X684900Y-66600D02*
G54D60*
D03*
X689900Y-76600D02*
G54D60*
D03*
X683313Y-83598D02*
G54D60*
D03*
X672900Y-83504D02*
G54D60*
D03*
X668303Y-91853D02*
G54D60*
D03*
X668491Y-101797D02*
G54D60*
D03*
X673088Y-110240D02*
G54D60*
D03*
X683500Y-110615D02*
G54D60*
D03*
X677662Y-117047D02*
G54D60*
D03*
X667417Y-119500D02*
G54D60*
D03*
X656161Y-119645D02*
G54D60*
D03*
X649452Y-124911D02*
G54D60*
D03*
X649597Y-132054D02*
G54D60*
D03*
X649741Y-139775D02*
G54D60*
D03*
X612656Y-135868D02*
G54D60*
D03*
X621559Y-133429D02*
G54D60*
D03*
X631193Y-135137D02*
G54D60*
D03*
X639607Y-139649D02*
G54D60*
D03*
X609601Y-124950D02*
G54D60*
D03*
X600941Y-119590D02*
G54D60*
D03*
X591250Y-117322D02*
G54D60*
D03*
X593312Y-89899D02*
G54D60*
D03*
X594756Y-108456D02*
G54D60*
D03*
X610776Y-97535D02*
G54D60*
D03*
X623772Y-111164D02*
G54D60*
D03*
X635499Y-124793D02*
G54D60*
D03*
X629001Y-90404D02*
G54D60*
D03*
X639936Y-102765D02*
G54D60*
D03*
X655943Y-106727D02*
G54D60*
D03*
X642314Y-114809D02*
G54D60*
D03*
X639144Y-56172D02*
G54D60*
D03*
X639303Y-72654D02*
G54D60*
D03*
X643423Y-88660D02*
G54D60*
D03*
X658003Y-79468D02*
G54D60*
D03*
X653407Y-63145D02*
G54D60*
D03*
X661173Y-50625D02*
G54D60*
D03*
X671474Y-57598D02*
G54D60*
D03*
X669572Y-70118D02*
G54D60*
D03*
X577337Y-179944D02*
G54D60*
D03*
X569255Y-181212D02*
G54D60*
D03*
X566719Y-189770D02*
G54D60*
D03*
X543898Y-189294D02*
G54D60*
D03*
X565610Y-198169D02*
G54D60*
D03*
X544374Y-205776D02*
G54D60*
D03*
X544691Y-214809D02*
G54D60*
D03*
X552356Y-247388D02*
G54D60*
D03*
X588003Y-213992D02*
G54D60*
D03*
X596446Y-221122D02*
G54D60*
D03*
X575151Y-222998D02*
G54D60*
D03*
X551663Y-257322D02*
G54D60*
D03*
X551250Y-266394D02*
G54D60*
D03*
X551663Y-275054D02*
G54D60*
D03*
X546374Y-287710D02*
G54D60*
D03*
X551091Y-282826D02*
G54D60*
D03*
X562797Y-243507D02*
G54D60*
D03*
X567745Y-235878D02*
G54D60*
D03*
X561354Y-283095D02*
G54D60*
D03*
X563209Y-268250D02*
G54D60*
D03*
X564446Y-256497D02*
G54D60*
D03*
X581354Y-266394D02*
G54D60*
D03*
X573931Y-288043D02*
G54D60*
D03*
X573725Y-274847D02*
G54D60*
D03*
X611148Y-243713D02*
G54D60*
D03*
X611147Y-254847D02*
G54D60*
D03*
X611148Y-267631D02*
G54D60*
D03*
X611148Y-283920D02*
G54D60*
D03*
X611148Y-296703D02*
G54D60*
D03*
X611147Y-307012D02*
G54D60*
D03*
X597642Y-303301D02*
G54D60*
D03*
X584859Y-300414D02*
G54D60*
D03*
X595580Y-264126D02*
G54D60*
D03*
X604859Y-259796D02*
G54D60*
D03*
X588982Y-286394D02*
G54D60*
D03*
X641437Y-312820D02*
G54D60*
D03*
X641071Y-300502D02*
G54D60*
D03*
X638632Y-288429D02*
G54D60*
D03*
X638266Y-276234D02*
G54D60*
D03*
X639316Y-266525D02*
G54D60*
D03*
X659303Y-307753D02*
G54D60*
D03*
X649107Y-308043D02*
G54D60*
D03*
X549950Y-329250D02*
G54D60*
D03*
X570632Y-329693D02*
G54D60*
D03*
X579498Y-327131D02*
G54D60*
D03*
X591457Y-330018D02*
G54D60*
D03*
X603828Y-332904D02*
G54D60*
D03*
X617436Y-336172D02*
G54D60*
D03*
X628807Y-338853D02*
G54D60*
D03*
X638673Y-341327D02*
G54D60*
D03*
X584446Y-337734D02*
G54D60*
D03*
X591869Y-343920D02*
G54D60*
D03*
X604653Y-344744D02*
G54D60*
D03*
X619704Y-344863D02*
G54D60*
D03*
X631663Y-344688D02*
G54D60*
D03*
X703631Y-341235D02*
G54D60*
D03*
X714485Y-341112D02*
G54D60*
D03*
X725705Y-341722D02*
G54D60*
D03*
X718998Y-120746D02*
G54D60*
D03*
X718998Y-112088D02*
G54D60*
D03*
X719119Y-103551D02*
G54D60*
D03*
X716680Y-94405D02*
G54D60*
D03*
X714973Y-86356D02*
G54D60*
D03*
X713388Y-77698D02*
G54D60*
D03*
X713022Y-69405D02*
G54D60*
D03*
X718266Y-59527D02*
G54D60*
D03*
X718144Y-40380D02*
G54D60*
D03*
X718266Y-50137D02*
G54D60*
D03*
X728388Y-40137D02*
G54D60*
D03*
X741070Y-40380D02*
G54D60*
D03*
X754973Y-40137D02*
G54D60*
D03*
X765705Y-40990D02*
G54D60*
D03*
X772656Y-46478D02*
G54D60*
D03*
X772168Y-57210D02*
G54D60*
D03*
X773388Y-68063D02*
G54D60*
D03*
X764241Y-62820D02*
G54D60*
D03*
X755827Y-56722D02*
G54D60*
D03*
X744241Y-52576D02*
G54D60*
D03*
X730948Y-54893D02*
G54D60*
D03*
X735217Y-47088D02*
G54D60*
D03*
X762656Y-50868D02*
G54D60*
D03*
X757656Y-96600D02*
G54D60*
D03*
X772168Y-100502D02*
G54D60*
D03*
X764607Y-100259D02*
G54D60*
D03*
X783782Y-124874D02*
G54D60*
D03*
X783782Y-133129D02*
G54D60*
D03*
X784157Y-140728D02*
G54D60*
D03*
X805639Y-108082D02*
G54D60*
D03*
X815395Y-110803D02*
G54D60*
D03*
X805545Y-118401D02*
G54D60*
D03*
X803950Y-125624D02*
G54D60*
D03*
X793162Y-125624D02*
G54D60*
D03*
X793069Y-140728D02*
G54D60*
D03*
X803200Y-140165D02*
G54D60*
D03*
X815020Y-140071D02*
G54D60*
D03*
X827028Y-139696D02*
G54D60*
D03*
X821305Y-124030D02*
G54D60*
D03*
X813144Y-131253D02*
G54D60*
D03*
X797759Y-132941D02*
G54D60*
D03*
X805452Y-40634D02*
G54D60*
D03*
X815770Y-40821D02*
G54D60*
D03*
X806014Y-50671D02*
G54D60*
D03*
X814645Y-50953D02*
G54D60*
D03*
X806108Y-60615D02*
G54D60*
D03*
X815395Y-61459D02*
G54D60*
D03*
X820648Y-70840D02*
G54D60*
D03*
X820836Y-79189D02*
G54D60*
D03*
X806765Y-83129D02*
G54D60*
D03*
X816990Y-85380D02*
G54D60*
D03*
X830404Y-77594D02*
G54D60*
D03*
X842787Y-77876D02*
G54D60*
D03*
X854420Y-76938D02*
G54D60*
D03*
X862487Y-68776D02*
G54D60*
D03*
X551760Y-187827D02*
G54D60*
D03*
X559408Y-187754D02*
G54D60*
D03*
X738572Y-166661D02*
G54D60*
D03*
X748644Y-166661D02*
G54D60*
D03*
X759851Y-166661D02*
G54D60*
D03*
X771436Y-166661D02*
G54D60*
D03*
X782900Y-166661D02*
G54D60*
D03*
X794851Y-166661D02*
G54D60*
D03*
X807290Y-166661D02*
G54D60*
D03*
X817656Y-166661D02*
G54D60*
D03*
X543030Y-325272D02*
G54D60*
D03*
G36*
X846879Y-208749D02*
X854657Y-200971D01*
X864557Y-210870D01*
X856778Y-218648D01*
X846879Y-208749D01*
G37*
G36*
X861445Y-194183D02*
X869223Y-186405D01*
X879123Y-196304D01*
X871345Y-204082D01*
X861445Y-194183D01*
G37*
G36*
X903858Y-171721D02*
X896080Y-179500D01*
X886180Y-169601D01*
X893958Y-161823D01*
X903858Y-171721D01*
G37*
G36*
X889292Y-186289D02*
X881513Y-194067D01*
X871614Y-184167D01*
X879393Y-176389D01*
X889292Y-186289D01*
G37*
X840919Y-196479D02*
G54D43*
D03*
X840919Y-175879D02*
G54D43*
D03*
X947422Y-282830D02*
G54D44*
D03*
X947422Y-333630D02*
G54D44*
D03*
X845822Y-308230D02*
G54D44*
D03*
X1028961Y-135173D02*
G54D47*
D03*
X1009961Y-135173D02*
G54D47*
D03*
X1019461Y-112973D02*
G54D47*
D03*
X1007988Y-182910D02*
G54D43*
D03*
X1007988Y-203510D02*
G54D43*
D03*
X1001988Y-278910D02*
G54D43*
D03*
X1001987Y-299510D02*
G54D43*
D03*
G36*
X1011878Y-330988D02*
X991878Y-330988D01*
X991878Y-310988D01*
X1011878Y-310988D01*
X1011878Y-330988D01*
G37*
X1075488Y-110304D02*
G54D43*
D03*
X1075488Y-89704D02*
G54D43*
D03*
X1096334Y-72156D02*
G54D48*
D03*
X1075734Y-72156D02*
G54D48*
D03*
X1075888Y-54704D02*
G54D43*
D03*
X1075888Y-34104D02*
G54D43*
D03*
X1056288Y-133704D02*
G54D43*
D03*
X1056288Y-113104D02*
G54D43*
D03*
X966353Y-175032D02*
G54D47*
D03*
X966353Y-156032D02*
G54D47*
D03*
X988553Y-165532D02*
G54D47*
D03*
X931753Y-156032D02*
G54D48*
D03*
X952353Y-156032D02*
G54D48*
D03*
X988553Y-117438D02*
G54D43*
D03*
X988553Y-138038D02*
G54D43*
D03*
X987888Y-34103D02*
G54D43*
D03*
X987888Y-54704D02*
G54D43*
D03*
G36*
X961897Y-89213D02*
X972897Y-89213D01*
X972897Y-103213D01*
X961897Y-103213D01*
X961897Y-89213D01*
G37*
X987997Y-96213D02*
G54D48*
D03*
G36*
X943300Y-125750D02*
X954300Y-125750D01*
X954300Y-139750D01*
X943300Y-139750D01*
X943300Y-125750D01*
G37*
X969400Y-132750D02*
G54D48*
D03*
X933153Y-195532D02*
G54D47*
D03*
X933153Y-176532D02*
G54D47*
D03*
X955353Y-186032D02*
G54D47*
D03*
X954139Y-232003D02*
G54D43*
D03*
X954138Y-211403D02*
G54D43*
D03*
X988480Y-225485D02*
G54D43*
D03*
X988480Y-246085D02*
G54D43*
D03*
X937180Y-211205D02*
G54D43*
D03*
X937180Y-231805D02*
G54D43*
D03*
X951028Y-251038D02*
G54D48*
D03*
X971628Y-251038D02*
G54D48*
D03*
X937147Y-251132D02*
G54D48*
D03*
X916547Y-251132D02*
G54D48*
D03*
G54D49*
X895019Y-170661D02*
X891346Y-167588D01*
X862378Y-167588D01*
X841378Y-156588D01*
G54D41*
X895019Y-170661D02*
X911378Y-155988D01*
G54D49*
X895019Y-170661D02*
X911378Y-155988D01*
G54D49*
X841378Y-225988D02*
X841378Y-224149D01*
X855718Y-209810D01*
G54D23*
X871391Y-194117D02*
X879380Y-186365D01*
G54D49*
X875375Y-190954D02*
X875375Y-193400D01*
X905403Y-223427D01*
G54D49*
X841083Y-173942D02*
X841378Y-155988D01*
G54D49*
X840919Y-196479D02*
X841378Y-225988D01*
X988360Y-190785D02*
G54D43*
D03*
X988360Y-211385D02*
G54D43*
D03*
X971300Y-190785D02*
G54D43*
D03*
X971300Y-211385D02*
G54D43*
D03*
G54D50*
X933153Y-176532D02*
X937853Y-176532D01*
X944353Y-183032D01*
X944353Y-190032D01*
G54D50*
X944353Y-190032D02*
X944353Y-195032D01*
X954026Y-204704D01*
X954026Y-214376D01*
X955190Y-174886D02*
G54D51*
D03*
G54D52*
X955353Y-186032D02*
X955190Y-174886D01*
X966353Y-175032D01*
G54D52*
X971300Y-190785D02*
X989300Y-190785D01*
G54D52*
X988553Y-165532D02*
X988553Y-190038D01*
X989300Y-190785D01*
G54D49*
X933153Y-195532D02*
X934182Y-203106D01*
X937180Y-211205D01*
G54D52*
X954139Y-232003D02*
X964163Y-232003D01*
X971300Y-224866D01*
X971300Y-211385D01*
X988360Y-211385D01*
G54D52*
X937147Y-251132D02*
X937147Y-231805D01*
X937180Y-231805D01*
X1027478Y-154288D02*
G54D53*
D03*
X1027478Y-178988D02*
G54D53*
D03*
X1103779Y-277366D02*
G54D43*
D03*
X1103779Y-297966D02*
G54D43*
D03*
X1027628Y-193087D02*
G54D43*
D03*
X1027628Y-213687D02*
G54D43*
D03*
X1027612Y-227766D02*
G54D43*
D03*
X1027612Y-248366D02*
G54D43*
D03*
X1084779Y-277366D02*
G54D43*
D03*
X1084779Y-297966D02*
G54D43*
D03*
X1065779Y-277366D02*
G54D43*
D03*
X1065779Y-297966D02*
G54D43*
D03*
X1046779Y-277366D02*
G54D43*
D03*
X1046778Y-297966D02*
G54D43*
D03*
X1027779Y-277366D02*
G54D43*
D03*
X1027778Y-297966D02*
G54D43*
D03*
G54D52*
X1027612Y-227766D02*
X1027628Y-213687D01*
G54D42*
X1027478Y-178988D02*
X1027628Y-193087D01*
X1103778Y-306866D02*
G54D54*
D03*
X1046478Y-154288D02*
G54D53*
D03*
X1046478Y-178988D02*
G54D53*
D03*
X1046628Y-193087D02*
G54D43*
D03*
X1046628Y-213687D02*
G54D43*
D03*
X1046612Y-227766D02*
G54D43*
D03*
X1046612Y-248366D02*
G54D43*
D03*
G54D52*
X1046612Y-227766D02*
X1046628Y-213687D01*
G54D42*
X1046478Y-178988D02*
X1046628Y-193087D01*
X1065478Y-154288D02*
G54D53*
D03*
X1065478Y-178988D02*
G54D53*
D03*
X1065628Y-193087D02*
G54D43*
D03*
X1065628Y-213687D02*
G54D43*
D03*
X1065612Y-227766D02*
G54D43*
D03*
X1065612Y-248366D02*
G54D43*
D03*
G54D52*
X1065612Y-227766D02*
X1065628Y-213687D01*
G54D42*
X1065478Y-178988D02*
X1065628Y-193087D01*
X1084478Y-154288D02*
G54D53*
D03*
X1084478Y-178988D02*
G54D53*
D03*
X1084628Y-193087D02*
G54D43*
D03*
X1084628Y-213687D02*
G54D43*
D03*
X1084612Y-227766D02*
G54D43*
D03*
X1084612Y-248366D02*
G54D43*
D03*
G54D52*
X1084612Y-227766D02*
X1084628Y-213687D01*
G54D42*
X1084478Y-178988D02*
X1084628Y-193087D01*
X1103478Y-154288D02*
G54D53*
D03*
X1103478Y-178988D02*
G54D53*
D03*
X1103628Y-193087D02*
G54D43*
D03*
X1103628Y-213687D02*
G54D43*
D03*
X1103612Y-227766D02*
G54D43*
D03*
X1103612Y-248366D02*
G54D43*
D03*
G54D52*
X1103612Y-227766D02*
X1103628Y-213687D01*
G54D42*
X1103478Y-178988D02*
X1103628Y-193087D01*
X1111213Y-262988D02*
G54D55*
D03*
X1094513Y-263088D02*
G54D55*
D03*
X1082913Y-262988D02*
G54D55*
D03*
X1066213Y-263088D02*
G54D55*
D03*
X1054713Y-262988D02*
G54D55*
D03*
X1038013Y-263088D02*
G54D55*
D03*
X1026413Y-262988D02*
G54D55*
D03*
X1009713Y-263088D02*
G54D55*
D03*
G54D56*
X1038013Y-263088D02*
X1046779Y-248366D01*
G54D42*
X1054713Y-262988D02*
X1066213Y-263088D01*
G54D42*
X1038013Y-263088D02*
X1026413Y-262988D01*
G54D42*
X1082913Y-262988D02*
X1094513Y-263088D01*
G54D42*
X1009713Y-263088D02*
X1009701Y-255171D01*
X1008113Y-248566D01*
X1027612Y-248366D01*
G54D42*
X1054713Y-262988D02*
X1054713Y-263088D01*
X1066213Y-263088D01*
X1066213Y-248366D01*
X1065779Y-248366D01*
G54D42*
X1094513Y-263088D02*
X1094513Y-262988D01*
X1082913Y-262988D01*
G54D42*
X1084779Y-248366D02*
X1084779Y-262988D01*
X1082913Y-262988D01*
G54D42*
X1111213Y-262988D02*
X1111213Y-248366D01*
X1103779Y-248366D01*
G54D56*
X1038013Y-262966D02*
X1046779Y-277688D01*
G54D42*
X1009713Y-262966D02*
X1009713Y-277688D01*
X1027779Y-277688D01*
G54D42*
X1054713Y-263066D02*
X1054713Y-262966D01*
X1066213Y-262966D01*
X1066213Y-277688D01*
X1065778Y-277688D01*
G54D42*
X1084779Y-277688D02*
X1084779Y-263066D01*
X1082913Y-263066D01*
G54D42*
X1111213Y-263066D02*
X1111213Y-277688D01*
X1103779Y-277688D01*
X1084778Y-306866D02*
G54D54*
D03*
X1065779Y-306866D02*
G54D54*
D03*
X1046778Y-306866D02*
G54D54*
D03*
X1027778Y-306866D02*
G54D54*
D03*
G54D42*
X1103778Y-306866D02*
X1103778Y-297966D01*
G54D42*
X1084778Y-306866D02*
X1084778Y-297966D01*
G54D42*
X1065779Y-306866D02*
X1065779Y-297966D01*
G54D42*
X1046778Y-306866D02*
X1046778Y-297966D01*
G54D42*
X1027778Y-306866D02*
X1027778Y-297966D01*
G54D57*
X1028942Y-154288D02*
X1103478Y-154288D01*
G54D57*
X1103478Y-154288D02*
X1126478Y-154288D01*
X1128178Y-155988D01*
X1008113Y-248566D02*
G54D43*
D03*
X1008113Y-227966D02*
G54D43*
D03*
X1008026Y-215948D02*
G54D51*
D03*
G54D49*
X1008026Y-215948D02*
X1008026Y-227879D01*
X1008113Y-227966D01*
G54D49*
X937147Y-251132D02*
X937242Y-251038D01*
X951028Y-251038D01*
G54D49*
X971628Y-251038D02*
X976580Y-246085D01*
X988480Y-246085D01*
G54D49*
X988480Y-225485D02*
X988360Y-225365D01*
X988360Y-211385D01*
G54D49*
X1008026Y-215948D02*
X1007988Y-215910D01*
X1007988Y-203510D01*
X1127422Y-52830D02*
G54D58*
D03*
X1127422Y-103630D02*
G54D58*
D03*
X1025822Y-78230D02*
G54D58*
D03*
G54D49*
X1007988Y-182910D02*
X1009961Y-182910D01*
X1009961Y-135173D01*
X1039438Y-135212D02*
G54D51*
D03*
G54D49*
X1028961Y-135173D02*
X1039438Y-135212D01*
G54D49*
X1019461Y-112973D02*
X1056288Y-113104D01*
G54D49*
X1056288Y-133704D02*
X1056288Y-152988D01*
X1057178Y-152988D01*
G54D35*
X1056288Y-113104D02*
X1075488Y-110304D01*
G54D52*
X1075734Y-72156D02*
X1075734Y-89704D01*
X1075488Y-89704D01*
G54D52*
X1075734Y-72156D02*
X1075734Y-54704D01*
X1075888Y-54704D01*
G54D52*
X988553Y-165532D02*
X988553Y-138038D01*
G54D42*
X969400Y-132750D02*
X974687Y-138038D01*
X988553Y-138038D01*
G54D35*
X987997Y-96213D02*
X987888Y-96104D01*
X987888Y-54704D01*
G54D42*
X1152378Y-377588D02*
X856378Y-377588D01*
G54D49*
X988026Y-256548D02*
X988026Y-246085D01*
X988480Y-246085D01*
G54D49*
X988026Y-256548D02*
X988026Y-265340D01*
X976378Y-276988D01*
X976378Y-376988D01*
G54D49*
X1001878Y-320988D02*
X1001988Y-299510D01*
G54D42*
X1001988Y-278910D02*
X1009713Y-263088D01*
G54D52*
X911378Y-155988D02*
X931753Y-156032D01*
G54D52*
X952353Y-156032D02*
X966353Y-156032D01*
G54D49*
X988553Y-117438D02*
X987997Y-96213D01*
G54D20*
X861578Y-393588D02*
X1151578Y-393588D01*
G54D35*
X1093978Y-366666D02*
X1113978Y-366666D01*
X1065978Y-358666D02*
G54D60*
D03*
X1093978Y-366666D02*
G54D60*
D03*
X1113978Y-366666D02*
G54D60*
D03*
X1079978Y-362666D02*
G54D60*
D03*
X1127978Y-362666D02*
G54D60*
D03*
G54D35*
X1079978Y-362666D02*
X1085044Y-357600D01*
X1122600Y-357600D01*
X1127666Y-362666D01*
X1127978Y-362666D01*
X1141978Y-358666D02*
G54D60*
D03*
X1051978Y-354666D02*
G54D60*
D03*
X1155978Y-354666D02*
G54D60*
D03*
G54D35*
X1065978Y-358666D02*
X1076044Y-348600D01*
X1132600Y-348600D01*
X1141978Y-357979D01*
X1141978Y-358666D01*
G54D35*
X1051978Y-354666D02*
X1067044Y-339600D01*
X1140600Y-339600D01*
X1155978Y-354666D01*
X829909Y-132579D02*
G54D60*
D03*
X844754Y-132579D02*
G54D60*
D03*
X860631Y-124950D02*
G54D60*
D03*
X868053Y-113817D02*
G54D60*
D03*
X863868Y-84527D02*
G54D60*
D03*
X869722Y-99649D02*
G54D60*
D03*
X873577Y-77970D02*
G54D60*
D03*
X886241Y-77782D02*
G54D60*
D03*
X898530Y-77688D02*
G54D60*
D03*
X910726Y-77594D02*
G54D60*
D03*
X911581Y-66632D02*
G54D60*
D03*
X911581Y-53795D02*
G54D60*
D03*
X911739Y-43177D02*
G54D60*
D03*
X924478Y-40905D02*
G54D60*
D03*
X938258Y-40905D02*
G54D60*
D03*
X953746Y-40905D02*
G54D60*
D03*
X966600Y-40905D02*
G54D60*
D03*
X971600Y-46600D02*
G54D60*
D03*
X971600Y-56600D02*
G54D60*
D03*
X971600Y-66600D02*
G54D60*
D03*
X976600Y-76600D02*
G54D60*
D03*
X970012Y-83598D02*
G54D60*
D03*
X959600Y-83504D02*
G54D60*
D03*
X955003Y-91853D02*
G54D60*
D03*
X955191Y-101797D02*
G54D60*
D03*
X959787Y-110240D02*
G54D60*
D03*
X970200Y-110615D02*
G54D60*
D03*
X964362Y-117047D02*
G54D60*
D03*
X954116Y-119500D02*
G54D60*
D03*
X942861Y-119645D02*
G54D60*
D03*
X936152Y-124911D02*
G54D60*
D03*
X936296Y-132054D02*
G54D60*
D03*
X936440Y-139775D02*
G54D60*
D03*
X899356Y-135868D02*
G54D60*
D03*
X908258Y-133429D02*
G54D60*
D03*
X917892Y-135137D02*
G54D60*
D03*
X926307Y-139649D02*
G54D60*
D03*
X896301Y-124950D02*
G54D60*
D03*
X887641Y-119590D02*
G54D60*
D03*
X877950Y-117322D02*
G54D60*
D03*
X880012Y-89899D02*
G54D60*
D03*
X881456Y-108456D02*
G54D60*
D03*
X897476Y-97535D02*
G54D60*
D03*
X910471Y-111164D02*
G54D60*
D03*
X922199Y-124793D02*
G54D60*
D03*
X915701Y-90404D02*
G54D60*
D03*
X926636Y-102765D02*
G54D60*
D03*
X942642Y-106727D02*
G54D60*
D03*
X929013Y-114809D02*
G54D60*
D03*
X925844Y-56172D02*
G54D60*
D03*
X926002Y-72654D02*
G54D60*
D03*
X930123Y-88660D02*
G54D60*
D03*
X944703Y-79468D02*
G54D60*
D03*
X940107Y-63145D02*
G54D60*
D03*
X947872Y-50625D02*
G54D60*
D03*
X958174Y-57598D02*
G54D60*
D03*
X956272Y-70118D02*
G54D60*
D03*
X864037Y-179944D02*
G54D60*
D03*
X855955Y-181212D02*
G54D60*
D03*
X853419Y-189770D02*
G54D60*
D03*
X830598Y-189294D02*
G54D60*
D03*
X852310Y-198169D02*
G54D60*
D03*
X831074Y-205776D02*
G54D60*
D03*
X831390Y-214809D02*
G54D60*
D03*
X839056Y-247388D02*
G54D60*
D03*
X874703Y-213992D02*
G54D60*
D03*
X883146Y-221122D02*
G54D60*
D03*
X861851Y-222998D02*
G54D60*
D03*
X838363Y-257322D02*
G54D60*
D03*
X837950Y-266394D02*
G54D60*
D03*
X838363Y-275054D02*
G54D60*
D03*
X833074Y-287710D02*
G54D60*
D03*
X837791Y-282826D02*
G54D60*
D03*
X849497Y-243507D02*
G54D60*
D03*
X854445Y-235878D02*
G54D60*
D03*
X848053Y-283095D02*
G54D60*
D03*
X849909Y-268250D02*
G54D60*
D03*
X851146Y-256497D02*
G54D60*
D03*
X868053Y-266394D02*
G54D60*
D03*
X860631Y-288043D02*
G54D60*
D03*
X860424Y-274847D02*
G54D60*
D03*
X897848Y-243713D02*
G54D60*
D03*
X897847Y-254847D02*
G54D60*
D03*
X897848Y-267631D02*
G54D60*
D03*
X897848Y-283920D02*
G54D60*
D03*
X897848Y-296703D02*
G54D60*
D03*
X897847Y-307012D02*
G54D60*
D03*
X884342Y-303301D02*
G54D60*
D03*
X871558Y-300414D02*
G54D60*
D03*
X882280Y-264126D02*
G54D60*
D03*
X891558Y-259796D02*
G54D60*
D03*
X875682Y-286394D02*
G54D60*
D03*
X928136Y-312820D02*
G54D60*
D03*
X927770Y-300502D02*
G54D60*
D03*
X925332Y-288429D02*
G54D60*
D03*
X924966Y-276234D02*
G54D60*
D03*
X926016Y-266525D02*
G54D60*
D03*
X945831Y-307931D02*
G54D60*
D03*
X936249Y-308043D02*
G54D60*
D03*
X836650Y-329250D02*
G54D60*
D03*
X857332Y-329693D02*
G54D60*
D03*
X866198Y-327131D02*
G54D60*
D03*
X878156Y-330018D02*
G54D60*
D03*
X890528Y-332904D02*
G54D60*
D03*
X904136Y-336172D02*
G54D60*
D03*
X915507Y-338853D02*
G54D60*
D03*
X925373Y-341327D02*
G54D60*
D03*
X871146Y-337734D02*
G54D60*
D03*
X878569Y-343920D02*
G54D60*
D03*
X891352Y-344744D02*
G54D60*
D03*
X906404Y-344863D02*
G54D60*
D03*
X918363Y-344688D02*
G54D60*
D03*
X990330Y-341235D02*
G54D60*
D03*
X1001185Y-341112D02*
G54D60*
D03*
X1012404Y-341722D02*
G54D60*
D03*
X1005697Y-120746D02*
G54D60*
D03*
X1005697Y-112088D02*
G54D60*
D03*
X1005819Y-103551D02*
G54D60*
D03*
X1003380Y-94405D02*
G54D60*
D03*
X1001673Y-86356D02*
G54D60*
D03*
X1000088Y-77698D02*
G54D60*
D03*
X999722Y-69405D02*
G54D60*
D03*
X1004966Y-59527D02*
G54D60*
D03*
X1004844Y-40380D02*
G54D60*
D03*
X1004966Y-50137D02*
G54D60*
D03*
X1015088Y-40137D02*
G54D60*
D03*
X1027770Y-40380D02*
G54D60*
D03*
X1041673Y-40137D02*
G54D60*
D03*
X1052404Y-40990D02*
G54D60*
D03*
X1059356Y-46478D02*
G54D60*
D03*
X1058868Y-57210D02*
G54D60*
D03*
X1060088Y-68063D02*
G54D60*
D03*
X1050941Y-62820D02*
G54D60*
D03*
X1042526Y-56722D02*
G54D60*
D03*
X1030941Y-52576D02*
G54D60*
D03*
X1017648Y-54893D02*
G54D60*
D03*
X1021917Y-47088D02*
G54D60*
D03*
X1049356Y-50868D02*
G54D60*
D03*
X1044356Y-96600D02*
G54D60*
D03*
X1058868Y-100502D02*
G54D60*
D03*
X1051307Y-100259D02*
G54D60*
D03*
X1070482Y-124874D02*
G54D60*
D03*
X1070482Y-133129D02*
G54D60*
D03*
X1070857Y-140728D02*
G54D60*
D03*
X1092339Y-108082D02*
G54D60*
D03*
X1102095Y-110803D02*
G54D60*
D03*
X1092245Y-118401D02*
G54D60*
D03*
X1090650Y-125624D02*
G54D60*
D03*
X1079862Y-125624D02*
G54D60*
D03*
X1079768Y-140728D02*
G54D60*
D03*
X1089900Y-140165D02*
G54D60*
D03*
X1101720Y-140071D02*
G54D60*
D03*
X1113727Y-139696D02*
G54D60*
D03*
X1108005Y-124030D02*
G54D60*
D03*
X1099844Y-131253D02*
G54D60*
D03*
X1084459Y-132941D02*
G54D60*
D03*
X1092151Y-40634D02*
G54D60*
D03*
X1102470Y-40821D02*
G54D60*
D03*
X1092714Y-50671D02*
G54D60*
D03*
X1101344Y-50953D02*
G54D60*
D03*
X1092808Y-60615D02*
G54D60*
D03*
X1102095Y-61459D02*
G54D60*
D03*
X1107348Y-70840D02*
G54D60*
D03*
X1107536Y-79189D02*
G54D60*
D03*
X1093464Y-83129D02*
G54D60*
D03*
X1103690Y-85380D02*
G54D60*
D03*
X1117104Y-77594D02*
G54D60*
D03*
X1129487Y-77876D02*
G54D60*
D03*
X1141119Y-76938D02*
G54D60*
D03*
X1149187Y-68776D02*
G54D60*
D03*
X838460Y-187827D02*
G54D60*
D03*
X846108Y-187754D02*
G54D60*
D03*
X1025272Y-166661D02*
G54D60*
D03*
X1035344Y-166661D02*
G54D60*
D03*
X1046551Y-166661D02*
G54D60*
D03*
X1058136Y-166661D02*
G54D60*
D03*
X1069600Y-166661D02*
G54D60*
D03*
X1081551Y-166661D02*
G54D60*
D03*
X1093990Y-166661D02*
G54D60*
D03*
X1104356Y-166661D02*
G54D60*
D03*
X829730Y-325272D02*
G54D60*
D03*
G36*
X1133579Y-208749D02*
X1141357Y-200971D01*
X1151256Y-210870D01*
X1143478Y-218648D01*
X1133579Y-208749D01*
G37*
G36*
X1148145Y-194183D02*
X1155923Y-186405D01*
X1165822Y-196304D01*
X1158044Y-204082D01*
X1148145Y-194183D01*
G37*
G36*
X1190558Y-171721D02*
X1182780Y-179500D01*
X1172880Y-169602D01*
X1180658Y-161822D01*
X1190558Y-171721D01*
G37*
G36*
X1175992Y-186289D02*
X1168213Y-194067D01*
X1158314Y-184167D01*
X1166093Y-176389D01*
X1175992Y-186289D01*
G37*
X1127618Y-196479D02*
G54D43*
D03*
X1127618Y-175879D02*
G54D43*
D03*
X1234121Y-282830D02*
G54D44*
D03*
X1234122Y-333630D02*
G54D44*
D03*
X1132522Y-308230D02*
G54D44*
D03*
X1253053Y-175032D02*
G54D47*
D03*
X1253053Y-156032D02*
G54D47*
D03*
X1275253Y-165532D02*
G54D47*
D03*
X1218453Y-156032D02*
G54D48*
D03*
X1239053Y-156032D02*
G54D48*
D03*
X1275252Y-117438D02*
G54D43*
D03*
X1275252Y-138038D02*
G54D43*
D03*
X1274588Y-34103D02*
G54D43*
D03*
X1274588Y-54704D02*
G54D43*
D03*
G36*
X1248596Y-89213D02*
X1259596Y-89213D01*
X1259597Y-103213D01*
X1248597Y-103213D01*
X1248596Y-89213D01*
G37*
X1274696Y-96213D02*
G54D48*
D03*
G36*
X1230000Y-125750D02*
X1241000Y-125750D01*
X1241000Y-139750D01*
X1230000Y-139750D01*
X1230000Y-125750D01*
G37*
X1256100Y-132750D02*
G54D48*
D03*
X1219852Y-195532D02*
G54D47*
D03*
X1219852Y-176532D02*
G54D47*
D03*
X1242052Y-186032D02*
G54D47*
D03*
X1240838Y-232003D02*
G54D43*
D03*
X1240838Y-211403D02*
G54D43*
D03*
X1275180Y-225485D02*
G54D43*
D03*
X1275180Y-246085D02*
G54D43*
D03*
X1223880Y-211205D02*
G54D43*
D03*
X1223880Y-231805D02*
G54D43*
D03*
X1237728Y-251038D02*
G54D48*
D03*
X1258327Y-251038D02*
G54D48*
D03*
X1223847Y-251132D02*
G54D48*
D03*
X1203247Y-251132D02*
G54D48*
D03*
G54D49*
X1181719Y-170661D02*
X1178046Y-167588D01*
X1149078Y-167588D01*
X1128078Y-156588D01*
G54D41*
X1181719Y-170661D02*
X1198078Y-155988D01*
G54D49*
X1181719Y-170661D02*
X1198078Y-155988D01*
G54D49*
X1128078Y-225988D02*
X1128078Y-224149D01*
X1142418Y-209810D01*
G54D23*
X1158091Y-194117D02*
X1166079Y-186365D01*
G54D49*
X1162075Y-190954D02*
X1162075Y-193400D01*
X1192102Y-223427D01*
G54D49*
X1127782Y-173942D02*
X1128078Y-155988D01*
G54D49*
X1127618Y-196479D02*
X1128078Y-225988D01*
X1275060Y-190785D02*
G54D43*
D03*
X1275060Y-211385D02*
G54D43*
D03*
X1258000Y-190785D02*
G54D43*
D03*
X1258000Y-211385D02*
G54D43*
D03*
G54D50*
X1219852Y-176532D02*
X1224553Y-176532D01*
X1231053Y-183032D01*
X1231053Y-190032D01*
G54D50*
X1231053Y-190032D02*
X1231053Y-195032D01*
X1240725Y-204704D01*
X1240725Y-214376D01*
X1241890Y-174886D02*
G54D51*
D03*
G54D52*
X1242052Y-186032D02*
X1241890Y-174886D01*
X1253053Y-175032D01*
G54D52*
X1258000Y-190785D02*
X1276000Y-190785D01*
G54D52*
X1275252Y-165532D02*
X1275252Y-190038D01*
X1276000Y-190785D01*
G54D49*
X1219852Y-195532D02*
X1220882Y-203106D01*
X1223880Y-211205D01*
G54D52*
X1240838Y-232003D02*
X1250863Y-232003D01*
X1258000Y-224866D01*
X1258000Y-211385D01*
X1275060Y-211385D01*
G54D52*
X1223847Y-251132D02*
X1223847Y-231805D01*
X1223880Y-231805D01*
G54D49*
X1223847Y-251132D02*
X1223941Y-251038D01*
X1237728Y-251038D01*
G54D49*
X1258328Y-251038D02*
X1263280Y-246085D01*
X1275180Y-246085D01*
G54D49*
X1275180Y-225485D02*
X1275060Y-225365D01*
X1275060Y-211385D01*
G54D52*
X1275252Y-165532D02*
X1275252Y-138038D01*
G54D42*
X1256100Y-132750D02*
X1261387Y-138038D01*
X1275252Y-138038D01*
G54D35*
X1274696Y-96213D02*
X1274588Y-96104D01*
X1274588Y-54704D01*
G54D42*
X1263018Y-377511D02*
X1143078Y-377588D01*
G54D49*
X1274726Y-256548D02*
X1274726Y-246085D01*
X1275180Y-246085D01*
G54D49*
X1274726Y-256548D02*
X1274726Y-265340D01*
X1263078Y-276988D01*
X1263078Y-376988D01*
G54D52*
X1198078Y-155988D02*
X1218453Y-156032D01*
G54D52*
X1239053Y-156032D02*
X1253053Y-156032D01*
G54D49*
X1275252Y-117438D02*
X1274696Y-96213D01*
G54D20*
X1148278Y-393588D02*
X1394278Y-393588D01*
G36*
X1394278Y-401088D02*
X1394278Y-386088D01*
X1401778Y-386088D01*
X1401778Y-401088D01*
X1394278Y-401088D01*
G37*
X1116609Y-132579D02*
G54D60*
D03*
X1131454Y-132579D02*
G54D60*
D03*
X1147330Y-124950D02*
G54D60*
D03*
X1154753Y-113817D02*
G54D60*
D03*
X1150567Y-84527D02*
G54D60*
D03*
X1156422Y-99649D02*
G54D60*
D03*
X1160277Y-77970D02*
G54D60*
D03*
X1172941Y-77782D02*
G54D60*
D03*
X1185230Y-77688D02*
G54D60*
D03*
X1192425Y-92594D02*
G54D60*
D03*
X1195039Y-66079D02*
G54D60*
D03*
X1195318Y-54184D02*
G54D60*
D03*
X1195299Y-42901D02*
G54D60*
D03*
X1240446Y-40905D02*
G54D60*
D03*
X1253300Y-40905D02*
G54D60*
D03*
X1258300Y-46600D02*
G54D60*
D03*
X1258300Y-56600D02*
G54D60*
D03*
X1258300Y-66600D02*
G54D60*
D03*
X1263299Y-76600D02*
G54D60*
D03*
X1256712Y-83598D02*
G54D60*
D03*
X1246300Y-83504D02*
G54D60*
D03*
X1241703Y-91853D02*
G54D60*
D03*
X1241890Y-101797D02*
G54D60*
D03*
X1246487Y-110240D02*
G54D60*
D03*
X1256900Y-110615D02*
G54D60*
D03*
X1251061Y-117047D02*
G54D60*
D03*
X1240816Y-119500D02*
G54D60*
D03*
X1229561Y-119645D02*
G54D60*
D03*
X1222852Y-124911D02*
G54D60*
D03*
X1222996Y-132054D02*
G54D60*
D03*
X1223140Y-139775D02*
G54D60*
D03*
X1186056Y-135868D02*
G54D60*
D03*
X1194958Y-133429D02*
G54D60*
D03*
X1204592Y-135137D02*
G54D60*
D03*
X1213007Y-139649D02*
G54D60*
D03*
X1183000Y-124950D02*
G54D60*
D03*
X1174341Y-119590D02*
G54D60*
D03*
X1164650Y-117322D02*
G54D60*
D03*
X1166712Y-89899D02*
G54D60*
D03*
X1168155Y-108456D02*
G54D60*
D03*
X1179176Y-102535D02*
G54D60*
D03*
X1197171Y-111164D02*
G54D60*
D03*
X1208898Y-124793D02*
G54D60*
D03*
X1232488Y-73812D02*
G54D60*
D03*
X1244873Y-57598D02*
G54D60*
D03*
X1242972Y-70118D02*
G54D60*
D03*
X1150737Y-179944D02*
G54D60*
D03*
X1142654Y-181212D02*
G54D60*
D03*
X1140119Y-189770D02*
G54D60*
D03*
X1117298Y-189294D02*
G54D60*
D03*
X1139010Y-198169D02*
G54D60*
D03*
X1117773Y-205776D02*
G54D60*
D03*
X1118090Y-214809D02*
G54D60*
D03*
X1125756Y-247388D02*
G54D60*
D03*
X1161403Y-213992D02*
G54D60*
D03*
X1169846Y-221122D02*
G54D60*
D03*
X1148551Y-222998D02*
G54D60*
D03*
X1125062Y-257322D02*
G54D60*
D03*
X1124650Y-266394D02*
G54D60*
D03*
X1125062Y-275054D02*
G54D60*
D03*
X1119774Y-287710D02*
G54D60*
D03*
X1124490Y-282826D02*
G54D60*
D03*
X1136196Y-243507D02*
G54D60*
D03*
X1141145Y-235878D02*
G54D60*
D03*
X1134753Y-283095D02*
G54D60*
D03*
X1136609Y-268250D02*
G54D60*
D03*
X1137846Y-256497D02*
G54D60*
D03*
X1154753Y-266394D02*
G54D60*
D03*
X1147330Y-288043D02*
G54D60*
D03*
X1147124Y-274847D02*
G54D60*
D03*
X1184548Y-243713D02*
G54D60*
D03*
X1184546Y-254847D02*
G54D60*
D03*
X1184548Y-267631D02*
G54D60*
D03*
X1184548Y-283920D02*
G54D60*
D03*
X1184548Y-296703D02*
G54D60*
D03*
X1184546Y-307012D02*
G54D60*
D03*
X1171042Y-303301D02*
G54D60*
D03*
X1158258Y-300414D02*
G54D60*
D03*
X1168980Y-264126D02*
G54D60*
D03*
X1178258Y-259796D02*
G54D60*
D03*
X1162382Y-286394D02*
G54D60*
D03*
X1214836Y-312820D02*
G54D60*
D03*
X1214470Y-300502D02*
G54D60*
D03*
X1212031Y-288429D02*
G54D60*
D03*
X1211665Y-276234D02*
G54D60*
D03*
X1212716Y-266525D02*
G54D60*
D03*
X1231785Y-308544D02*
G54D60*
D03*
X1222949Y-308043D02*
G54D60*
D03*
X1123349Y-329250D02*
G54D60*
D03*
X1144032Y-329693D02*
G54D60*
D03*
X1152898Y-327131D02*
G54D60*
D03*
X1164856Y-330018D02*
G54D60*
D03*
X1177227Y-332904D02*
G54D60*
D03*
X1190836Y-336172D02*
G54D60*
D03*
X1202207Y-338853D02*
G54D60*
D03*
X1212073Y-341327D02*
G54D60*
D03*
X1157846Y-337734D02*
G54D60*
D03*
X1165268Y-343920D02*
G54D60*
D03*
X1178052Y-344744D02*
G54D60*
D03*
X1193104Y-344863D02*
G54D60*
D03*
X1205062Y-344688D02*
G54D60*
D03*
X1125160Y-187827D02*
G54D60*
D03*
X1132808Y-187754D02*
G54D60*
D03*
X1116429Y-325272D02*
G54D60*
D03*
X8200Y-8600D02*
G54D60*
D03*
X28200Y-393600D02*
G54D60*
D03*
X15200Y-393600D02*
G54D60*
D03*
X34200Y-217600D02*
G54D60*
D03*
X49330Y-214477D02*
G54D60*
D03*
X35200Y-185600D02*
G54D60*
D03*
X23200Y-185600D02*
G54D60*
D03*
X31200Y-177600D02*
G54D60*
D03*
X28200Y-225600D02*
G54D60*
D03*
X34200Y-236600D02*
G54D60*
D03*
X34200Y-246600D02*
G54D60*
D03*
X34200Y-256600D02*
G54D60*
D03*
X34200Y-266600D02*
G54D60*
D03*
G54D20*
X1394278Y-393588D02*
X1394299Y-8600D01*
X648200Y-8100D02*
G54D60*
D03*
X668200Y-8100D02*
G54D60*
D03*
X708200Y-8100D02*
G54D60*
D03*
X688200Y-8100D02*
G54D60*
D03*
X728200Y-8100D02*
G54D60*
D03*
X748200Y-8100D02*
G54D60*
D03*
X768200Y-8100D02*
G54D60*
D03*
X788200Y-8100D02*
G54D60*
D03*
X808200Y-8100D02*
G54D60*
D03*
X828200Y-8100D02*
G54D60*
D03*
X848200Y-8100D02*
G54D60*
D03*
X868200Y-8100D02*
G54D60*
D03*
X908200Y-8100D02*
G54D60*
D03*
X888200Y-8100D02*
G54D60*
D03*
X928200Y-8100D02*
G54D60*
D03*
X948200Y-8100D02*
G54D60*
D03*
X968200Y-8100D02*
G54D60*
D03*
X988200Y-8100D02*
G54D60*
D03*
X1008200Y-8100D02*
G54D60*
D03*
X1028200Y-8100D02*
G54D60*
D03*
X1048200Y-8100D02*
G54D60*
D03*
X1068200Y-8100D02*
G54D60*
D03*
X1108200Y-8100D02*
G54D60*
D03*
X1088200Y-8100D02*
G54D60*
D03*
X1128200Y-8100D02*
G54D60*
D03*
X1148200Y-8100D02*
G54D60*
D03*
X1168200Y-8100D02*
G54D60*
D03*
X1188200Y-8100D02*
G54D60*
D03*
X1208200Y-8100D02*
G54D60*
D03*
X1228200Y-8100D02*
G54D60*
D03*
X1248200Y-8100D02*
G54D60*
D03*
X1268200Y-8100D02*
G54D60*
D03*
X1308200Y-8100D02*
G54D60*
D03*
X1288200Y-8100D02*
G54D60*
D03*
X1328200Y-8100D02*
G54D60*
D03*
X1348200Y-8100D02*
G54D60*
D03*
X1368200Y-8100D02*
G54D60*
D03*
X1388200Y-8100D02*
G54D60*
D03*
X1394721Y-18067D02*
G54D60*
D03*
X1394721Y-38067D02*
G54D60*
D03*
X1394721Y-58067D02*
G54D60*
D03*
X1394721Y-78067D02*
G54D60*
D03*
X1394721Y-98067D02*
G54D60*
D03*
X1394721Y-118067D02*
G54D60*
D03*
X1394721Y-138067D02*
G54D60*
D03*
X1394721Y-158067D02*
G54D60*
D03*
X1394721Y-178067D02*
G54D60*
D03*
X1394721Y-218067D02*
G54D60*
D03*
X1394721Y-238067D02*
G54D60*
D03*
X1394721Y-258067D02*
G54D60*
D03*
X1394721Y-278067D02*
G54D60*
D03*
X1394721Y-298067D02*
G54D60*
D03*
X1394721Y-318067D02*
G54D60*
D03*
X1394721Y-338067D02*
G54D60*
D03*
X1394721Y-358067D02*
G54D60*
D03*
X1394721Y-378067D02*
G54D60*
D03*
X1360721Y-183067D02*
G54D60*
D03*
X1350721Y-183067D02*
G54D60*
D03*
X1360721Y-218067D02*
G54D60*
D03*
X1350721Y-218067D02*
G54D60*
D03*
X1214385Y-106295D02*
G54D61*
D03*
X1214385Y-80895D02*
G54D61*
D03*
X1340873Y-52598D02*
G54D62*
D03*
X1213873Y-52598D02*
G54D62*
D03*
X1349500Y-258500D02*
G54D62*
D03*
X1349500Y-131500D02*
G54D62*
D03*
X1310000Y-255000D02*
G54D61*
D03*
X1310000Y-229600D02*
G54D61*
D03*
X1231402Y-94468D02*
G54D60*
D03*
X1231402Y-109468D02*
G54D60*
D03*
G54D20*
X1214385Y-80895D02*
X1213873Y-52598D01*
X1213884Y-29617D01*
X1213873Y-52598D01*
X1375000Y-165000D02*
G54D63*
D03*
G54D49*
X1349500Y-258500D02*
X1375000Y-233000D01*
X1375000Y-165000D01*
G54D49*
X1349500Y-258500D02*
X1310000Y-255000D01*
G54D49*
X1274726Y-265340D02*
X1310000Y-255000D01*
X1292076Y-245483D02*
G54D60*
D03*
X1293502Y-233914D02*
G54D60*
D03*
X1293819Y-221395D02*
G54D60*
D03*
X1293344Y-212203D02*
G54D60*
D03*
X1292234Y-204913D02*
G54D60*
D03*
X1303011Y-210460D02*
G54D60*
D03*
X1319176Y-216482D02*
G54D60*
D03*
X1326783Y-241838D02*
G54D60*
D03*
X1328526Y-228051D02*
G54D60*
D03*
X1333756Y-218700D02*
G54D60*
D03*
X1342472Y-226149D02*
G54D60*
D03*
X1337242Y-238352D02*
G54D60*
D03*
X1348336Y-236450D02*
G54D60*
D03*
X1356735Y-229636D02*
G54D60*
D03*
X1290174Y-173059D02*
G54D60*
D03*
X1300634Y-177496D02*
G54D60*
D03*
X1311886Y-180666D02*
G54D60*
D03*
X1322979Y-182726D02*
G54D60*
D03*
X1335975Y-182567D02*
G54D60*
D03*
X1290413Y-157490D02*
G54D60*
D03*
X1290650Y-164184D02*
G54D60*
D03*
X1302322Y-157996D02*
G54D60*
D03*
X1315960Y-158266D02*
G54D60*
D03*
X1328843Y-157845D02*
G54D60*
D03*
X1339144Y-156101D02*
G54D60*
D03*
X1352298Y-156735D02*
G54D60*
D03*
X1306656Y-167036D02*
G54D60*
D03*
X1322979Y-171474D02*
G54D60*
D03*
X1338669Y-171632D02*
G54D60*
D03*
X1355150Y-170840D02*
G54D60*
D03*
X1338902Y-108415D02*
G54D60*
D03*
X1351098Y-106585D02*
G54D60*
D03*
X1362927Y-107561D02*
G54D60*
D03*
X1339268Y-95488D02*
G54D60*
D03*
X1340122Y-82805D02*
G54D60*
D03*
X1351342Y-74268D02*
G54D60*
D03*
X1353537Y-95488D02*
G54D60*
D03*
X1361098Y-85610D02*
G54D60*
D03*
X1361463Y-66829D02*
G54D60*
D03*
X1360976Y-52317D02*
G54D60*
D03*
X1287381Y-99741D02*
G54D60*
D03*
X1287402Y-88876D02*
G54D60*
D03*
X1285474Y-78329D02*
G54D60*
D03*
X1286538Y-69886D02*
G54D60*
D03*
X1294845Y-55052D02*
G54D60*
D03*
X1295464Y-45567D02*
G54D60*
D03*
X1295258Y-37732D02*
G54D60*
D03*
X1308660Y-38763D02*
G54D60*
D03*
X1323093Y-39794D02*
G54D60*
D03*
X1314227Y-49278D02*
G54D60*
D03*
X1303711Y-60412D02*
G54D60*
D03*
X1308349Y-275234D02*
G54D60*
D03*
X1308443Y-299719D02*
G54D60*
D03*
X1308442Y-320924D02*
G54D60*
D03*
X1308365Y-342296D02*
G54D60*
D03*
X1308437Y-364347D02*
G54D60*
D03*
X1308451Y-386812D02*
G54D60*
D03*
X1294721Y-273067D02*
G54D60*
D03*
X1320721Y-273067D02*
G54D60*
D03*
X1328721Y-269067D02*
G54D60*
D03*
X1335721Y-275067D02*
G54D60*
D03*
X1343721Y-280067D02*
G54D60*
D03*
X1354721Y-283067D02*
G54D60*
D03*
X1359721Y-277067D02*
G54D60*
D03*
X1332473Y-310215D02*
G54D60*
D03*
X1373721Y-291067D02*
G54D60*
D03*
X1368721Y-280067D02*
G54D60*
D03*
X1370721Y-263067D02*
G54D60*
D03*
X1372721Y-252067D02*
G54D60*
D03*
X1381721Y-244067D02*
G54D60*
D03*
X1382721Y-258067D02*
G54D60*
D03*
X1381721Y-270067D02*
G54D60*
D03*
X1381721Y-281067D02*
G54D60*
D03*
X1382721Y-292067D02*
G54D60*
D03*
X1380721Y-372067D02*
G54D60*
D03*
X1332453Y-331456D02*
G54D60*
D03*
X1332721Y-353067D02*
G54D60*
D03*
X1334000Y-376000D02*
G54D60*
D03*
X1345721Y-380067D02*
G54D60*
D03*
X1356721Y-380067D02*
G54D60*
D03*
X1367721Y-380067D02*
G54D60*
D03*
X1379721Y-381067D02*
G54D60*
D03*
X1293721Y-394067D02*
G54D60*
D03*
X1310721Y-394067D02*
G54D60*
D03*
X1326721Y-394067D02*
G54D60*
D03*
X1342721Y-394067D02*
G54D60*
D03*
X1361721Y-394067D02*
G54D60*
D03*
X1379721Y-394067D02*
G54D60*
D03*
X1394278Y-393588D02*
G54D60*
D03*
X385200Y-308300D02*
G54D48*
D03*
X405800Y-308300D02*
G54D48*
D03*
X671326Y-308143D02*
G54D48*
D03*
X691926Y-308143D02*
G54D48*
D03*
X958826Y-308243D02*
G54D48*
D03*
X979426Y-308243D02*
G54D48*
D03*
X1245225Y-308343D02*
G54D48*
D03*
X1265825Y-308343D02*
G54D48*
D03*
G54D41*
X176000Y-349000D02*
X202000Y-323000D01*
X239000Y-323000D01*
X243679Y-318321D01*
X243679Y-306866D01*
G54D41*
X176000Y-363000D02*
X176000Y-377000D01*
G54D41*
X462700Y-349000D02*
X488700Y-323000D01*
X525700Y-323000D01*
X530379Y-318321D01*
X530379Y-306866D01*
G54D41*
X462700Y-363000D02*
X462700Y-377000D01*
G54D41*
X749400Y-349000D02*
X775400Y-323000D01*
X812400Y-323000D01*
X817079Y-318321D01*
X817079Y-306866D01*
G54D41*
X749400Y-363000D02*
X749400Y-377000D01*
G54D41*
X1036100Y-349300D02*
X1062100Y-323300D01*
X1099100Y-323300D01*
X1103779Y-318621D01*
X1103779Y-307166D01*
G54D41*
X1036100Y-363300D02*
X1036100Y-377300D01*
G36*
X170167Y-346916D02*
X182167Y-346916D01*
X182167Y-357916D01*
X176167Y-351916D01*
X170167Y-357916D01*
X170167Y-346916D01*
G37*
G54D64*
X170167Y-346916D02*
X182167Y-346916D01*
X182167Y-357916D01*
X176167Y-351916D01*
X170167Y-357916D01*
X170167Y-346916D01*
G36*
X176167Y-356316D02*
X182167Y-362316D01*
X182167Y-366316D01*
X170167Y-366316D01*
X170167Y-362316D01*
X176167Y-356316D01*
G37*
G54D64*
X176167Y-356316D02*
X182167Y-362316D01*
X182167Y-366316D01*
X170167Y-366316D01*
X170167Y-362316D01*
X176167Y-356316D01*
G36*
X456867Y-346716D02*
X468867Y-346716D01*
X468867Y-357716D01*
X462867Y-351716D01*
X456867Y-357716D01*
X456867Y-346716D01*
G37*
G54D64*
X456867Y-346716D02*
X468867Y-346716D01*
X468867Y-357716D01*
X462867Y-351716D01*
X456867Y-357716D01*
X456867Y-346716D01*
G36*
X462867Y-356116D02*
X468867Y-362116D01*
X468867Y-366116D01*
X456867Y-366116D01*
X456867Y-362116D01*
X462867Y-356116D01*
G37*
G54D64*
X462867Y-356116D02*
X468867Y-362116D01*
X468867Y-366116D01*
X456867Y-366116D01*
X456867Y-362116D01*
X462867Y-356116D01*
G36*
X743567Y-346816D02*
X755567Y-346816D01*
X755567Y-357816D01*
X749567Y-351816D01*
X743567Y-357816D01*
X743567Y-346816D01*
G37*
G54D64*
X743567Y-346816D02*
X755567Y-346816D01*
X755567Y-357816D01*
X749567Y-351816D01*
X743567Y-357816D01*
X743567Y-346816D01*
G36*
X749567Y-356216D02*
X755567Y-362216D01*
X755567Y-366216D01*
X743567Y-366216D01*
X743567Y-362216D01*
X749567Y-356216D01*
G37*
G54D64*
X749567Y-356216D02*
X755567Y-362216D01*
X755567Y-366216D01*
X743567Y-366216D01*
X743567Y-362216D01*
X749567Y-356216D01*
G36*
X1030367Y-346916D02*
X1042367Y-346916D01*
X1042367Y-357916D01*
X1036367Y-351916D01*
X1030367Y-357916D01*
X1030367Y-346916D01*
G37*
G54D64*
X1030367Y-346916D02*
X1042367Y-346916D01*
X1042367Y-357916D01*
X1036367Y-351916D01*
X1030367Y-357916D01*
X1030367Y-346916D01*
G36*
X1036367Y-356316D02*
X1042367Y-362316D01*
X1042367Y-366316D01*
X1030367Y-366316D01*
X1030367Y-362316D01*
X1036367Y-356316D01*
G37*
G54D64*
X1036367Y-356316D02*
X1042367Y-362316D01*
X1042367Y-366316D01*
X1030367Y-366316D01*
X1030367Y-362316D01*
X1036367Y-356316D01*
X53840Y-140028D02*
G54D43*
D03*
X53840Y-119428D02*
G54D43*
D03*
X1362019Y-331443D02*
G54D48*
D03*
X1341419Y-331443D02*
G54D48*
D03*
X1362019Y-348443D02*
G54D48*
D03*
X1341419Y-348443D02*
G54D48*
D03*
X1362019Y-365443D02*
G54D48*
D03*
X1341419Y-365443D02*
G54D48*
D03*
X1362019Y-314443D02*
G54D48*
D03*
X1341419Y-314443D02*
G54D48*
D03*
X1362019Y-297443D02*
G54D48*
D03*
X1341419Y-297443D02*
G54D48*
D03*
X1333392Y-288392D02*
G54D60*
D03*
G54D65*
X1333392Y-288392D02*
X1341419Y-296419D01*
X1341419Y-297443D01*
G54D65*
X1332473Y-310215D02*
X1336700Y-314443D01*
X1341419Y-314443D01*
G54D65*
X1332453Y-331456D02*
X1332466Y-331443D01*
X1341419Y-331443D01*
G54D65*
X1332721Y-353067D02*
X1337345Y-348443D01*
X1341419Y-348443D01*
G54D65*
X1334000Y-376000D02*
X1341419Y-368581D01*
X1341419Y-365443D01*
X1385721Y-307067D02*
G54D60*
D03*
X1385721Y-328067D02*
G54D60*
D03*
X1386721Y-345067D02*
G54D60*
D03*
X1386721Y-364067D02*
G54D60*
D03*
X589678Y-140988D02*
G54D45*
D03*
X589679Y-240988D02*
G54D45*
D03*
X624679Y-155988D02*
G54D46*
D03*
X554679Y-155988D02*
G54D46*
D03*
X624678Y-190988D02*
G54D46*
D03*
X554679Y-225988D02*
G54D46*
D03*
X624678Y-225988D02*
G54D46*
D03*
X876378Y-140988D02*
G54D45*
D03*
X876379Y-240988D02*
G54D45*
D03*
X911378Y-155988D02*
G54D46*
D03*
X841378Y-155988D02*
G54D46*
D03*
X911378Y-190988D02*
G54D46*
D03*
X841378Y-225988D02*
G54D46*
D03*
X911378Y-225988D02*
G54D46*
D03*
X1163078Y-140988D02*
G54D45*
D03*
X1163078Y-240988D02*
G54D45*
D03*
X1198078Y-155988D02*
G54D46*
D03*
X1128078Y-155988D02*
G54D46*
D03*
X1198078Y-190988D02*
G54D46*
D03*
X1128078Y-225988D02*
G54D46*
D03*
X1198078Y-225988D02*
G54D46*
D03*
G54D52*
X54000Y-156085D02*
X54000Y-140188D01*
X53840Y-140028D01*
M02*
