%FSLAX34Y34*%
%MOMM*%
%LNSOLDERMASK_BOTTOM*%
G71*
G01*
%ADD10R,1.600X1.300*%
%ADD11C,3.600*%
%ADD12C,4.100*%
%ADD13C,2.900*%
%ADD14C,3.900*%
%ADD15R,1.300X1.600*%
%ADD16R,4.200X1.600*%
%ADD17R,1.100X1.100*%
%ADD18R,3.200X3.200*%
%ADD19C,2.700*%
%ADD20C,2.900*%
%ADD21R,1.100X1.400*%
%ADD22R,0.800X2.400*%
%ADD23R,2.200X1.100*%
%ADD24C,0.300*%
%LPD*%
X381739Y-211403D02*
G54D10*
D03*
X381739Y-190803D02*
G54D10*
D03*
X374022Y-282830D02*
G54D11*
D03*
X374022Y-333630D02*
G54D11*
D03*
X272422Y-308230D02*
G54D11*
D03*
X302978Y-140988D02*
G54D12*
D03*
X302979Y-240988D02*
G54D12*
D03*
X337979Y-155988D02*
G54D13*
D03*
X267979Y-155988D02*
G54D13*
D03*
X337978Y-190988D02*
G54D13*
D03*
X267979Y-225988D02*
G54D13*
D03*
X337978Y-225988D02*
G54D13*
D03*
G36*
X441479Y-333988D02*
X415479Y-333988D01*
X415479Y-307988D01*
X441479Y-307988D01*
X441479Y-333988D01*
G37*
X530379Y-293660D02*
G54D10*
D03*
X530379Y-273060D02*
G54D10*
D03*
X511379Y-293660D02*
G54D10*
D03*
X511379Y-273060D02*
G54D10*
D03*
X492379Y-293660D02*
G54D10*
D03*
X492379Y-273060D02*
G54D10*
D03*
X473379Y-293660D02*
G54D10*
D03*
X473379Y-273060D02*
G54D10*
D03*
X454379Y-293660D02*
G54D10*
D03*
X454379Y-273060D02*
G54D10*
D03*
X554022Y-52830D02*
G54D14*
D03*
X554022Y-103630D02*
G54D14*
D03*
X452422Y-78230D02*
G54D14*
D03*
G36*
X151179Y-333988D02*
X125179Y-333988D01*
X125179Y-307988D01*
X151179Y-307988D01*
X151179Y-333988D01*
G37*
X302711Y-42845D02*
G54D15*
D03*
X323311Y-42845D02*
G54D15*
D03*
X323347Y-62093D02*
G54D15*
D03*
X302747Y-62093D02*
G54D15*
D03*
X267222Y-52830D02*
G54D14*
D03*
X267222Y-103630D02*
G54D14*
D03*
X165622Y-78230D02*
G54D14*
D03*
X22873Y-200099D02*
G54D16*
D03*
X589511Y-42846D02*
G54D15*
D03*
X610111Y-42845D02*
G54D15*
D03*
X454479Y-332066D02*
G54D17*
D03*
X454379Y-315366D02*
G54D17*
D03*
X473479Y-332066D02*
G54D17*
D03*
X473379Y-315366D02*
G54D17*
D03*
X492479Y-332066D02*
G54D17*
D03*
X492379Y-315366D02*
G54D17*
D03*
X511479Y-332066D02*
G54D17*
D03*
X511379Y-315366D02*
G54D17*
D03*
X530479Y-332066D02*
G54D17*
D03*
X530379Y-315366D02*
G54D17*
D03*
X243679Y-293660D02*
G54D10*
D03*
X243679Y-273060D02*
G54D10*
D03*
X224679Y-293660D02*
G54D10*
D03*
X224679Y-273060D02*
G54D10*
D03*
X205679Y-293660D02*
G54D10*
D03*
X205679Y-273060D02*
G54D10*
D03*
X186679Y-293660D02*
G54D10*
D03*
X186679Y-273060D02*
G54D10*
D03*
X167679Y-293660D02*
G54D10*
D03*
X167679Y-273060D02*
G54D10*
D03*
X167779Y-332066D02*
G54D17*
D03*
X167679Y-315366D02*
G54D17*
D03*
X186779Y-332066D02*
G54D17*
D03*
X186679Y-315366D02*
G54D17*
D03*
X205779Y-332066D02*
G54D17*
D03*
X205679Y-315366D02*
G54D17*
D03*
X224779Y-332066D02*
G54D17*
D03*
X224679Y-315366D02*
G54D17*
D03*
X243779Y-332066D02*
G54D17*
D03*
X243679Y-315366D02*
G54D17*
D03*
X668439Y-211403D02*
G54D10*
D03*
X668439Y-190803D02*
G54D10*
D03*
X660722Y-282830D02*
G54D11*
D03*
X660722Y-333630D02*
G54D11*
D03*
X559122Y-308230D02*
G54D11*
D03*
G36*
X728179Y-333988D02*
X702179Y-333988D01*
X702179Y-307988D01*
X728179Y-307988D01*
X728179Y-333988D01*
G37*
X817079Y-293660D02*
G54D10*
D03*
X817079Y-273060D02*
G54D10*
D03*
X798079Y-293660D02*
G54D10*
D03*
X798079Y-273060D02*
G54D10*
D03*
X779079Y-293660D02*
G54D10*
D03*
X779079Y-273060D02*
G54D10*
D03*
X760079Y-293660D02*
G54D10*
D03*
X760079Y-273060D02*
G54D10*
D03*
X741079Y-293660D02*
G54D10*
D03*
X741079Y-273060D02*
G54D10*
D03*
X840722Y-52830D02*
G54D14*
D03*
X840722Y-103630D02*
G54D14*
D03*
X739122Y-78230D02*
G54D14*
D03*
X876211Y-42846D02*
G54D15*
D03*
X896810Y-42845D02*
G54D15*
D03*
X741179Y-332066D02*
G54D17*
D03*
X741079Y-315366D02*
G54D17*
D03*
X760179Y-332066D02*
G54D17*
D03*
X760079Y-315366D02*
G54D17*
D03*
X779179Y-332066D02*
G54D17*
D03*
X779079Y-315366D02*
G54D17*
D03*
X798179Y-332066D02*
G54D17*
D03*
X798079Y-315366D02*
G54D17*
D03*
X817179Y-332066D02*
G54D17*
D03*
X817079Y-315366D02*
G54D17*
D03*
X955138Y-211403D02*
G54D10*
D03*
X955138Y-190803D02*
G54D10*
D03*
X947422Y-282830D02*
G54D11*
D03*
X947422Y-333630D02*
G54D11*
D03*
X845822Y-308230D02*
G54D11*
D03*
G36*
X1014878Y-333988D02*
X988878Y-333988D01*
X988878Y-307988D01*
X1014878Y-307988D01*
X1014878Y-333988D01*
G37*
X1103779Y-293660D02*
G54D10*
D03*
X1103779Y-273060D02*
G54D10*
D03*
X1084779Y-293660D02*
G54D10*
D03*
X1084779Y-273060D02*
G54D10*
D03*
X1065779Y-293660D02*
G54D10*
D03*
X1065779Y-273060D02*
G54D10*
D03*
X1046779Y-293660D02*
G54D10*
D03*
X1046779Y-273060D02*
G54D10*
D03*
X1027779Y-293660D02*
G54D10*
D03*
X1027779Y-273060D02*
G54D10*
D03*
X1127422Y-52830D02*
G54D14*
D03*
X1127422Y-103630D02*
G54D14*
D03*
X1025822Y-78230D02*
G54D14*
D03*
X1162911Y-42846D02*
G54D15*
D03*
X1183510Y-42845D02*
G54D15*
D03*
X1027879Y-332066D02*
G54D17*
D03*
X1027779Y-315366D02*
G54D17*
D03*
X1046879Y-332066D02*
G54D17*
D03*
X1046779Y-315366D02*
G54D17*
D03*
X1065879Y-332066D02*
G54D17*
D03*
X1065779Y-315366D02*
G54D17*
D03*
X1084879Y-332066D02*
G54D17*
D03*
X1084779Y-315366D02*
G54D17*
D03*
X1103879Y-332066D02*
G54D17*
D03*
X1103779Y-315366D02*
G54D17*
D03*
X1241838Y-211403D02*
G54D10*
D03*
X1241838Y-190803D02*
G54D10*
D03*
X1234121Y-282830D02*
G54D11*
D03*
X1234122Y-333630D02*
G54D11*
D03*
X1132522Y-308230D02*
G54D11*
D03*
X1324064Y-200119D02*
G54D15*
D03*
X1344664Y-200119D02*
G54D15*
D03*
X1377873Y-200099D02*
G54D16*
D03*
X1313000Y-89000D02*
G54D18*
D03*
X1313000Y-132500D02*
G54D18*
D03*
X1214385Y-106295D02*
G54D19*
D03*
X1214385Y-80895D02*
G54D19*
D03*
X1340873Y-52598D02*
G54D20*
D03*
X1213873Y-52598D02*
G54D20*
D03*
X1349500Y-258500D02*
G54D20*
D03*
X1349500Y-131500D02*
G54D20*
D03*
X1310000Y-255000D02*
G54D19*
D03*
X1310000Y-229600D02*
G54D19*
D03*
X1319963Y-288392D02*
G54D21*
D03*
X1296963Y-288392D02*
G54D21*
D03*
X1308463Y-288392D02*
G54D22*
D03*
X1364989Y-319100D02*
G54D23*
D03*
X1364989Y-331800D02*
G54D23*
D03*
X1364990Y-344500D02*
G54D23*
D03*
X1364989Y-357200D02*
G54D23*
D03*
X1364989Y-306400D02*
G54D23*
D03*
X1319963Y-310392D02*
G54D21*
D03*
X1296963Y-310392D02*
G54D21*
D03*
X1308463Y-310392D02*
G54D22*
D03*
X1319963Y-331392D02*
G54D21*
D03*
X1296963Y-331392D02*
G54D21*
D03*
X1308463Y-331392D02*
G54D22*
D03*
X1319963Y-353392D02*
G54D21*
D03*
X1296963Y-353392D02*
G54D21*
D03*
X1308463Y-353392D02*
G54D22*
D03*
X1319963Y-375392D02*
G54D21*
D03*
X1296963Y-375392D02*
G54D21*
D03*
X1308463Y-375392D02*
G54D22*
D03*
G36*
X237964Y-341499D02*
X249964Y-341499D01*
X249964Y-352499D01*
X243964Y-346499D01*
X237964Y-352499D01*
X237964Y-341499D01*
G37*
G54D24*
X237964Y-341499D02*
X249964Y-341499D01*
X249964Y-352499D01*
X243964Y-346499D01*
X237964Y-352499D01*
X237964Y-341499D01*
G36*
X243964Y-350899D02*
X249964Y-356899D01*
X249964Y-360899D01*
X237964Y-360899D01*
X237964Y-356899D01*
X243964Y-350899D01*
G37*
G54D24*
X243964Y-350899D02*
X249964Y-356899D01*
X249964Y-360899D01*
X237964Y-360899D01*
X237964Y-356899D01*
X243964Y-350899D01*
G36*
X524867Y-341716D02*
X536867Y-341716D01*
X536867Y-352716D01*
X530867Y-346716D01*
X524867Y-352716D01*
X524867Y-341716D01*
G37*
G54D24*
X524867Y-341716D02*
X536867Y-341716D01*
X536867Y-352716D01*
X530867Y-346716D01*
X524867Y-352716D01*
X524867Y-341716D01*
G36*
X530867Y-351116D02*
X536867Y-357116D01*
X536867Y-361116D01*
X524867Y-361116D01*
X524867Y-357116D01*
X530867Y-351116D01*
G37*
G54D24*
X530867Y-351116D02*
X536867Y-357116D01*
X536867Y-361116D01*
X524867Y-361116D01*
X524867Y-357116D01*
X530867Y-351116D01*
G36*
X811267Y-341516D02*
X823267Y-341516D01*
X823267Y-352516D01*
X817267Y-346516D01*
X811267Y-352516D01*
X811267Y-341516D01*
G37*
G54D24*
X811267Y-341516D02*
X823267Y-341516D01*
X823267Y-352516D01*
X817267Y-346516D01*
X811267Y-352516D01*
X811267Y-341516D01*
G36*
X817267Y-350916D02*
X823267Y-356916D01*
X823267Y-360916D01*
X811267Y-360916D01*
X811267Y-356916D01*
X817267Y-350916D01*
G37*
G54D24*
X817267Y-350916D02*
X823267Y-356916D01*
X823267Y-360916D01*
X811267Y-360916D01*
X811267Y-356916D01*
X817267Y-350916D01*
G36*
X1098067Y-341516D02*
X1110067Y-341516D01*
X1110067Y-352516D01*
X1104067Y-346516D01*
X1098067Y-352516D01*
X1098067Y-341516D01*
G37*
G54D24*
X1098067Y-341516D02*
X1110067Y-341516D01*
X1110067Y-352516D01*
X1104067Y-346516D01*
X1098067Y-352516D01*
X1098067Y-341516D01*
G36*
X1104067Y-350916D02*
X1110067Y-356916D01*
X1110067Y-360916D01*
X1098067Y-360916D01*
X1098067Y-356916D01*
X1104067Y-350916D01*
G37*
G54D24*
X1104067Y-350916D02*
X1110067Y-356916D01*
X1110067Y-360916D01*
X1098067Y-360916D01*
X1098067Y-356916D01*
X1104067Y-350916D01*
X610147Y-62093D02*
G54D15*
D03*
X589547Y-62093D02*
G54D15*
D03*
X896846Y-62093D02*
G54D15*
D03*
X876247Y-62093D02*
G54D15*
D03*
X1183546Y-62093D02*
G54D15*
D03*
X1162946Y-62093D02*
G54D15*
D03*
X589678Y-140988D02*
G54D12*
D03*
X589679Y-240988D02*
G54D12*
D03*
X624679Y-155988D02*
G54D13*
D03*
X554679Y-155988D02*
G54D13*
D03*
X624678Y-190988D02*
G54D13*
D03*
X554679Y-225988D02*
G54D13*
D03*
X624678Y-225988D02*
G54D13*
D03*
X876378Y-140988D02*
G54D12*
D03*
X876379Y-240988D02*
G54D12*
D03*
X911378Y-155988D02*
G54D13*
D03*
X841378Y-155988D02*
G54D13*
D03*
X911378Y-190988D02*
G54D13*
D03*
X841378Y-225988D02*
G54D13*
D03*
X911378Y-225988D02*
G54D13*
D03*
X1163078Y-140988D02*
G54D12*
D03*
X1163078Y-240988D02*
G54D12*
D03*
X1198078Y-155988D02*
G54D13*
D03*
X1128078Y-155988D02*
G54D13*
D03*
X1198078Y-190988D02*
G54D13*
D03*
X1128078Y-225988D02*
G54D13*
D03*
X1198078Y-225988D02*
G54D13*
D03*
M02*
