%FSLAX34Y34*%
%MOMM*%
%LNSILK_TOP*%
G71*
G01*
%ADD10C,0.150*%
%ADD11C,0.100*%
%ADD12C,0.222*%
%LPD*%
G54D10*
X307999Y-196264D02*
X295934Y-184199D01*
G54D10*
X283476Y-220787D02*
X271411Y-208722D01*
G54D10*
X307999Y-196264D02*
X283476Y-220787D01*
G54D10*
X295934Y-184199D02*
X271411Y-208722D01*
G54D10*
X295938Y-184207D02*
X308003Y-196272D01*
G54D10*
X320462Y-159683D02*
X332527Y-171748D01*
G54D10*
X295938Y-184207D02*
X320462Y-159683D01*
G54D10*
X308003Y-196272D02*
X332527Y-171748D01*
G54D10*
X276100Y-168741D02*
X259038Y-168741D01*
G54D10*
X276100Y-203422D02*
X259038Y-203423D01*
G54D10*
X276100Y-168741D02*
X276100Y-203422D01*
G54D10*
X259038Y-168741D02*
X259038Y-203423D01*
G54D10*
X461961Y-128092D02*
X461961Y-120154D01*
X430161Y-120154D01*
X430161Y-128092D01*
X461961Y-128092D01*
G54D10*
X426007Y-210647D02*
X443069Y-210647D01*
G54D10*
X426007Y-175966D02*
X443069Y-175966D01*
G54D10*
X426007Y-210647D02*
X426007Y-175966D01*
G54D10*
X443069Y-210647D02*
X443069Y-175966D01*
G54D10*
X420007Y-306647D02*
X437069Y-306647D01*
G54D10*
X420007Y-271966D02*
X437069Y-271966D01*
G54D10*
X420007Y-306647D02*
X420007Y-271966D01*
G54D10*
X437069Y-306647D02*
X437069Y-271966D01*
G54D10*
X510669Y-82566D02*
X493607Y-82566D01*
G54D10*
X510669Y-117247D02*
X493607Y-117247D01*
G54D10*
X510669Y-82566D02*
X510669Y-117247D01*
G54D10*
X493607Y-82566D02*
X493607Y-117247D01*
G54D10*
X495197Y-63575D02*
X495198Y-80638D01*
G54D10*
X529879Y-63575D02*
X529879Y-80638D01*
G54D10*
X495197Y-63575D02*
X529879Y-63575D01*
G54D10*
X495198Y-80638D02*
X529879Y-80638D01*
G54D10*
X511069Y-26966D02*
X494007Y-26966D01*
G54D10*
X511069Y-61647D02*
X494007Y-61647D01*
G54D10*
X511069Y-26966D02*
X511069Y-61647D01*
G54D10*
X494007Y-26966D02*
X494007Y-61647D01*
G54D10*
X491469Y-105966D02*
X474407Y-105966D01*
G54D10*
X491469Y-140647D02*
X474407Y-140647D01*
G54D10*
X491469Y-105966D02*
X491469Y-140647D01*
G54D10*
X474407Y-105966D02*
X474407Y-140647D01*
G54D10*
X400035Y-181432D02*
X407972Y-181432D01*
X407972Y-149632D01*
X400035Y-149632D01*
X400035Y-181432D01*
G54D10*
X386091Y-164613D02*
X386091Y-147551D01*
G54D10*
X351410Y-164613D02*
X351410Y-147551D01*
G54D10*
X386091Y-164613D02*
X351410Y-164613D01*
G54D10*
X386091Y-147551D02*
X351410Y-147551D01*
G54D10*
X406572Y-145176D02*
X423634Y-145176D01*
G54D10*
X406572Y-110494D02*
X423634Y-110494D01*
G54D10*
X406572Y-145176D02*
X406572Y-110494D01*
G54D10*
X423634Y-145176D02*
X423634Y-110494D01*
G54D10*
X405907Y-61841D02*
X422969Y-61841D01*
G54D10*
X405907Y-27160D02*
X422969Y-27160D01*
G54D10*
X405907Y-61841D02*
X405907Y-27160D01*
G54D10*
X422969Y-61841D02*
X422969Y-27160D01*
G54D10*
X421735Y-104794D02*
X421735Y-87731D01*
G54D10*
X387054Y-104794D02*
X387054Y-87731D01*
G54D10*
X421735Y-104794D02*
X387054Y-104794D01*
G54D10*
X421735Y-87731D02*
X387054Y-87731D01*
G54D10*
X403138Y-141332D02*
X403138Y-124269D01*
G54D10*
X368456Y-141332D02*
X368456Y-124269D01*
G54D10*
X403138Y-141332D02*
X368456Y-141332D01*
G54D10*
X403138Y-124269D02*
X368456Y-124269D01*
G54D10*
X366834Y-201932D02*
X374772Y-201932D01*
X374772Y-170132D01*
X366834Y-170132D01*
X366834Y-201932D01*
G54D10*
X389320Y-204266D02*
X372258Y-204266D01*
G54D10*
X389320Y-238947D02*
X372258Y-238947D01*
G54D10*
X389320Y-204266D02*
X389320Y-238947D01*
G54D10*
X372258Y-204266D02*
X372258Y-238947D01*
G54D10*
X406499Y-253222D02*
X423562Y-253222D01*
G54D10*
X406499Y-218541D02*
X423562Y-218541D01*
G54D10*
X406499Y-253222D02*
X406499Y-218541D01*
G54D10*
X423562Y-253222D02*
X423562Y-218541D01*
G54D10*
X355199Y-238942D02*
X372262Y-238942D01*
G54D10*
X355199Y-204261D02*
X372262Y-204261D01*
G54D10*
X355199Y-238942D02*
X355199Y-204261D01*
G54D10*
X372262Y-238942D02*
X372262Y-204261D01*
G54D10*
X405366Y-259619D02*
X405366Y-242556D01*
G54D10*
X370684Y-259619D02*
X370684Y-242556D01*
G54D10*
X405366Y-259619D02*
X370684Y-259619D01*
G54D10*
X405366Y-242556D02*
X370684Y-242556D01*
G54D10*
X336010Y-242550D02*
X336010Y-259613D01*
G54D10*
X370691Y-242551D02*
X370691Y-259613D01*
G54D10*
X336010Y-242550D02*
X370691Y-242551D01*
G54D10*
X336010Y-259613D02*
X370691Y-259613D01*
G54D10*
X406379Y-218522D02*
X423442Y-218522D01*
G54D10*
X406379Y-183841D02*
X423442Y-183841D01*
G54D10*
X406379Y-218522D02*
X406379Y-183841D01*
G54D10*
X423442Y-218522D02*
X423442Y-183841D01*
G54D10*
X389319Y-218522D02*
X406382Y-218522D01*
G54D10*
X389319Y-183841D02*
X406382Y-183841D01*
G54D10*
X389319Y-218522D02*
X389319Y-183841D01*
G54D10*
X406382Y-218522D02*
X406382Y-183841D01*
G36*
X460378Y-144000D02*
X447678Y-144000D01*
X447678Y-148013D01*
X460378Y-148013D01*
X460378Y-144000D01*
G37*
G54D11*
X460378Y-144000D02*
X447678Y-144000D01*
X447678Y-148013D01*
X460378Y-148013D01*
X460378Y-144000D01*
G54D10*
X460378Y-144000D02*
X447678Y-144000D01*
X447678Y-186100D01*
X460378Y-186100D01*
X460378Y-144000D01*
G54D10*
X538960Y-305104D02*
X521898Y-305104D01*
G54D10*
X538960Y-270422D02*
X521898Y-270422D01*
G54D10*
X538960Y-305104D02*
X538960Y-270422D01*
G54D10*
X521898Y-305104D02*
X521898Y-270422D01*
G54D10*
X445647Y-220824D02*
X462710Y-220824D01*
G54D10*
X445647Y-186143D02*
X462710Y-186143D01*
G54D10*
X445647Y-220824D02*
X445647Y-186143D01*
G54D10*
X462710Y-220824D02*
X462710Y-186143D01*
G54D10*
X445632Y-255503D02*
X462694Y-255503D01*
G54D10*
X445632Y-220822D02*
X462694Y-220822D01*
G54D10*
X445632Y-255503D02*
X445632Y-220822D01*
G54D10*
X462694Y-255503D02*
X462694Y-220822D01*
G54D10*
X519960Y-305104D02*
X502898Y-305104D01*
G54D10*
X519960Y-270422D02*
X502898Y-270422D01*
G54D10*
X519960Y-305104D02*
X519960Y-270422D01*
G54D10*
X502898Y-305104D02*
X502898Y-270422D01*
G54D10*
X500960Y-305104D02*
X483898Y-305104D01*
G54D10*
X500960Y-270422D02*
X483898Y-270422D01*
G54D10*
X500960Y-305104D02*
X500960Y-270422D01*
G54D10*
X483898Y-305104D02*
X483898Y-270422D01*
G54D10*
X481960Y-305103D02*
X464898Y-305104D01*
G54D10*
X481960Y-270422D02*
X464898Y-270422D01*
G54D10*
X481960Y-305103D02*
X481960Y-270422D01*
G54D10*
X464898Y-305104D02*
X464898Y-270422D01*
G54D10*
X462960Y-305104D02*
X445898Y-305104D01*
G54D10*
X462960Y-270422D02*
X445898Y-270422D01*
G54D10*
X462960Y-305104D02*
X462960Y-270422D01*
G54D10*
X445898Y-305104D02*
X445898Y-270422D01*
G36*
X479378Y-144000D02*
X466678Y-144000D01*
X466678Y-148013D01*
X479378Y-148013D01*
X479378Y-144000D01*
G37*
G54D11*
X479378Y-144000D02*
X466678Y-144000D01*
X466678Y-148013D01*
X479378Y-148013D01*
X479378Y-144000D01*
G54D10*
X479378Y-144000D02*
X466678Y-144000D01*
X466678Y-186100D01*
X479378Y-186100D01*
X479378Y-144000D01*
G54D10*
X464647Y-220824D02*
X481710Y-220824D01*
G54D10*
X464647Y-186143D02*
X481710Y-186143D01*
G54D10*
X464647Y-220824D02*
X464647Y-186143D01*
G54D10*
X481710Y-220824D02*
X481710Y-186143D01*
G54D10*
X464632Y-255503D02*
X481694Y-255503D01*
G54D10*
X464632Y-220822D02*
X481694Y-220822D01*
G54D10*
X464632Y-255503D02*
X464632Y-220822D01*
G54D10*
X481694Y-255503D02*
X481694Y-220822D01*
G36*
X498378Y-144000D02*
X485678Y-144000D01*
X485678Y-148013D01*
X498378Y-148013D01*
X498378Y-144000D01*
G37*
G54D11*
X498378Y-144000D02*
X485678Y-144000D01*
X485678Y-148013D01*
X498378Y-148013D01*
X498378Y-144000D01*
G54D10*
X498378Y-144000D02*
X485678Y-144000D01*
X485678Y-186100D01*
X498378Y-186100D01*
X498378Y-144000D01*
G54D10*
X483647Y-220824D02*
X500710Y-220824D01*
G54D10*
X483647Y-186143D02*
X500710Y-186143D01*
G54D10*
X483647Y-220824D02*
X483647Y-186143D01*
G54D10*
X500710Y-220824D02*
X500710Y-186143D01*
G54D10*
X483632Y-255503D02*
X500694Y-255503D01*
G54D10*
X483632Y-220822D02*
X500694Y-220822D01*
G54D10*
X483632Y-255503D02*
X483632Y-220822D01*
G54D10*
X500694Y-255503D02*
X500694Y-220822D01*
G36*
X517378Y-144000D02*
X504678Y-144000D01*
X504678Y-148013D01*
X517378Y-148013D01*
X517378Y-144000D01*
G37*
G54D11*
X517378Y-144000D02*
X504678Y-144000D01*
X504678Y-148013D01*
X517378Y-148013D01*
X517378Y-144000D01*
G54D10*
X517378Y-144000D02*
X504678Y-144000D01*
X504678Y-186100D01*
X517378Y-186100D01*
X517378Y-144000D01*
G54D10*
X502647Y-220824D02*
X519710Y-220824D01*
G54D10*
X502647Y-186143D02*
X519710Y-186143D01*
G54D10*
X502647Y-220824D02*
X502647Y-186143D01*
G54D10*
X519710Y-220824D02*
X519710Y-186143D01*
G54D10*
X502632Y-255503D02*
X519694Y-255503D01*
G54D10*
X502632Y-220822D02*
X519694Y-220822D01*
G54D10*
X502632Y-255503D02*
X502632Y-220822D01*
G54D10*
X519694Y-255503D02*
X519694Y-220822D01*
G36*
X536378Y-144000D02*
X523678Y-144000D01*
X523678Y-148013D01*
X536378Y-148013D01*
X536378Y-144000D01*
G37*
G54D11*
X536378Y-144000D02*
X523678Y-144000D01*
X523678Y-148013D01*
X536378Y-148013D01*
X536378Y-144000D01*
G54D10*
X536378Y-144000D02*
X523678Y-144000D01*
X523678Y-186100D01*
X536378Y-186100D01*
X536378Y-144000D01*
G54D10*
X521647Y-220824D02*
X538710Y-220824D01*
G54D10*
X521647Y-186143D02*
X538710Y-186143D01*
G54D10*
X521647Y-220824D02*
X521647Y-186143D01*
G54D10*
X538710Y-220824D02*
X538710Y-186143D01*
G54D10*
X521632Y-255503D02*
X538694Y-255503D01*
G54D10*
X521632Y-220822D02*
X538694Y-220822D01*
G54D10*
X521632Y-255503D02*
X521632Y-220822D01*
G54D10*
X538694Y-255503D02*
X538694Y-220822D01*
G54D10*
X543664Y-268476D02*
X543664Y-257500D01*
X515364Y-257500D01*
X515364Y-268476D01*
X543664Y-268476D01*
G54D10*
X515364Y-268476D02*
X515364Y-257500D01*
X487064Y-257500D01*
X487064Y-268476D01*
X515364Y-268476D01*
G54D10*
X487164Y-268476D02*
X487164Y-257500D01*
X458864Y-257500D01*
X458864Y-268476D01*
X487164Y-268476D01*
G54D10*
X458864Y-268476D02*
X458864Y-257500D01*
X430564Y-257500D01*
X430564Y-268476D01*
X458864Y-268476D01*
G54D10*
X443295Y-220828D02*
X426232Y-220828D01*
G54D10*
X443295Y-255510D02*
X426232Y-255510D01*
G54D10*
X443295Y-220828D02*
X443295Y-255510D01*
G54D10*
X426232Y-220828D02*
X426232Y-255510D01*
G54D10*
X175161Y-128092D02*
X175161Y-120154D01*
X143361Y-120154D01*
X143361Y-128092D01*
X175161Y-128092D01*
G54D10*
X139207Y-210647D02*
X156269Y-210647D01*
G54D10*
X139207Y-175966D02*
X156269Y-175966D01*
G54D10*
X139207Y-210647D02*
X139207Y-175966D01*
G54D10*
X156269Y-210647D02*
X156269Y-175966D01*
G54D10*
X133207Y-306647D02*
X150269Y-306647D01*
G54D10*
X133207Y-271966D02*
X150269Y-271966D01*
G54D10*
X133207Y-306647D02*
X133207Y-271966D01*
G54D10*
X150269Y-306647D02*
X150269Y-271966D01*
G54D10*
X223869Y-82566D02*
X206807Y-82566D01*
G54D10*
X223869Y-117247D02*
X206807Y-117247D01*
G54D10*
X223869Y-82566D02*
X223869Y-117247D01*
G54D10*
X206807Y-82566D02*
X206807Y-117247D01*
G54D10*
X208397Y-63575D02*
X208398Y-80638D01*
G54D10*
X243079Y-63575D02*
X243079Y-80638D01*
G54D10*
X208397Y-63575D02*
X243079Y-63575D01*
G54D10*
X208398Y-80638D02*
X243079Y-80638D01*
G54D10*
X224269Y-26966D02*
X207207Y-26966D01*
G54D10*
X224269Y-61647D02*
X207207Y-61647D01*
G54D10*
X224269Y-26966D02*
X224269Y-61647D01*
G54D10*
X207207Y-26966D02*
X207207Y-61647D01*
G54D10*
X204669Y-105966D02*
X187607Y-105966D01*
G54D10*
X204669Y-140647D02*
X187607Y-140647D01*
G54D10*
X204669Y-105966D02*
X204669Y-140647D01*
G54D10*
X187607Y-105966D02*
X187607Y-140647D01*
G54D10*
X113235Y-181432D02*
X121172Y-181432D01*
X121172Y-149632D01*
X113235Y-149632D01*
X113235Y-181432D01*
G54D10*
X99291Y-164613D02*
X99291Y-147551D01*
G54D10*
X64610Y-164613D02*
X64610Y-147551D01*
G54D10*
X99291Y-164613D02*
X64610Y-164613D01*
G54D10*
X99291Y-147551D02*
X64610Y-147551D01*
G54D10*
X119772Y-145176D02*
X136835Y-145176D01*
G54D10*
X119772Y-110494D02*
X136835Y-110494D01*
G54D10*
X119772Y-145176D02*
X119772Y-110494D01*
G54D10*
X136835Y-145176D02*
X136835Y-110494D01*
G54D10*
X119107Y-61841D02*
X136169Y-61841D01*
G54D10*
X119107Y-27160D02*
X136169Y-27160D01*
G54D10*
X119107Y-61841D02*
X119107Y-27160D01*
G54D10*
X136169Y-61841D02*
X136169Y-27160D01*
G54D10*
X134935Y-104794D02*
X134935Y-87731D01*
G54D10*
X100254Y-104794D02*
X100254Y-87731D01*
G54D10*
X134935Y-104794D02*
X100254Y-104794D01*
G54D10*
X134935Y-87731D02*
X100254Y-87731D01*
G54D10*
X116338Y-141332D02*
X116338Y-124269D01*
G54D10*
X81656Y-141332D02*
X81656Y-124269D01*
G54D10*
X116338Y-141332D02*
X81656Y-141332D01*
G54D10*
X116338Y-124269D02*
X81656Y-124269D01*
G54D10*
X80034Y-201932D02*
X87972Y-201932D01*
X87972Y-170132D01*
X80034Y-170132D01*
X80034Y-201932D01*
G54D10*
X102520Y-204266D02*
X85458Y-204266D01*
G54D10*
X102520Y-238947D02*
X85458Y-238947D01*
G54D10*
X102520Y-204266D02*
X102520Y-238947D01*
G54D10*
X85458Y-204266D02*
X85458Y-238947D01*
G54D10*
X119699Y-253222D02*
X136762Y-253222D01*
G54D10*
X119699Y-218541D02*
X136762Y-218541D01*
G54D10*
X119699Y-253222D02*
X119699Y-218541D01*
G54D10*
X136762Y-253222D02*
X136762Y-218541D01*
G54D10*
X68399Y-238942D02*
X85462Y-238942D01*
G54D10*
X68399Y-204261D02*
X85462Y-204261D01*
G54D10*
X68399Y-238942D02*
X68399Y-204261D01*
G54D10*
X85462Y-238942D02*
X85462Y-204261D01*
G54D10*
X118566Y-259619D02*
X118566Y-242556D01*
G54D10*
X83884Y-259619D02*
X83884Y-242556D01*
G54D10*
X118566Y-259619D02*
X83884Y-259619D01*
G54D10*
X118566Y-242556D02*
X83884Y-242556D01*
G54D10*
X49210Y-242550D02*
X49210Y-259613D01*
G54D10*
X83891Y-242551D02*
X83891Y-259613D01*
G54D10*
X49210Y-242550D02*
X83891Y-242551D01*
G54D10*
X49210Y-259613D02*
X83891Y-259613D01*
G54D10*
X123316Y-285569D02*
X123316Y-268507D01*
G54D10*
X88635Y-285569D02*
X88635Y-268507D01*
G54D10*
X123316Y-285569D02*
X88635Y-285569D01*
G54D10*
X123316Y-268507D02*
X88635Y-268507D01*
G54D10*
X119579Y-218522D02*
X136642Y-218522D01*
G54D10*
X119579Y-183841D02*
X136642Y-183841D01*
G54D10*
X119579Y-218522D02*
X119579Y-183841D01*
G54D10*
X136642Y-218522D02*
X136642Y-183841D01*
G54D10*
X102519Y-218522D02*
X119582Y-218522D01*
G54D10*
X102519Y-183841D02*
X119582Y-183841D01*
G54D10*
X102519Y-218522D02*
X102519Y-183841D01*
G54D10*
X119582Y-218522D02*
X119582Y-183841D01*
G36*
X173578Y-144000D02*
X160878Y-144000D01*
X160878Y-148013D01*
X173578Y-148013D01*
X173578Y-144000D01*
G37*
G54D11*
X173578Y-144000D02*
X160878Y-144000D01*
X160878Y-148013D01*
X173578Y-148013D01*
X173578Y-144000D01*
G54D10*
X173578Y-144000D02*
X160878Y-144000D01*
X160878Y-186100D01*
X173578Y-186100D01*
X173578Y-144000D01*
G54D10*
X252160Y-305104D02*
X235098Y-305104D01*
G54D10*
X252160Y-270422D02*
X235098Y-270422D01*
G54D10*
X252160Y-305104D02*
X252160Y-270422D01*
G54D10*
X235098Y-305104D02*
X235098Y-270422D01*
G54D10*
X158847Y-220824D02*
X175910Y-220824D01*
G54D10*
X158847Y-186143D02*
X175910Y-186143D01*
G54D10*
X158847Y-220824D02*
X158847Y-186143D01*
G54D10*
X175910Y-220824D02*
X175910Y-186143D01*
G54D10*
X158832Y-255503D02*
X175894Y-255503D01*
G54D10*
X158832Y-220822D02*
X175894Y-220822D01*
G54D10*
X158832Y-255503D02*
X158832Y-220822D01*
G54D10*
X175894Y-255503D02*
X175894Y-220822D01*
G54D10*
X233160Y-305104D02*
X216098Y-305104D01*
G54D10*
X233160Y-270422D02*
X216098Y-270422D01*
G54D10*
X233160Y-305104D02*
X233160Y-270422D01*
G54D10*
X216098Y-305104D02*
X216098Y-270422D01*
G54D10*
X214160Y-305104D02*
X197098Y-305104D01*
G54D10*
X214160Y-270422D02*
X197098Y-270422D01*
G54D10*
X214160Y-305104D02*
X214160Y-270422D01*
G54D10*
X197098Y-305104D02*
X197098Y-270422D01*
G54D10*
X195160Y-305103D02*
X178098Y-305104D01*
G54D10*
X195160Y-270422D02*
X178098Y-270422D01*
G54D10*
X195160Y-305103D02*
X195160Y-270422D01*
G54D10*
X178098Y-305104D02*
X178098Y-270422D01*
G54D10*
X176160Y-305104D02*
X159098Y-305104D01*
G54D10*
X176160Y-270422D02*
X159098Y-270422D01*
G54D10*
X176160Y-305104D02*
X176160Y-270422D01*
G54D10*
X159098Y-305104D02*
X159098Y-270422D01*
G36*
X192578Y-144000D02*
X179878Y-144000D01*
X179878Y-148013D01*
X192578Y-148013D01*
X192578Y-144000D01*
G37*
G54D11*
X192578Y-144000D02*
X179878Y-144000D01*
X179878Y-148013D01*
X192578Y-148013D01*
X192578Y-144000D01*
G54D10*
X192578Y-144000D02*
X179878Y-144000D01*
X179878Y-186100D01*
X192578Y-186100D01*
X192578Y-144000D01*
G54D10*
X177847Y-220824D02*
X194910Y-220824D01*
G54D10*
X177847Y-186143D02*
X194910Y-186143D01*
G54D10*
X177847Y-220824D02*
X177847Y-186143D01*
G54D10*
X194910Y-220824D02*
X194910Y-186143D01*
G54D10*
X177832Y-255503D02*
X194894Y-255503D01*
G54D10*
X177832Y-220822D02*
X194894Y-220822D01*
G54D10*
X177832Y-255503D02*
X177832Y-220822D01*
G54D10*
X194894Y-255503D02*
X194894Y-220822D01*
G36*
X211578Y-144000D02*
X198878Y-144000D01*
X198878Y-148013D01*
X211578Y-148013D01*
X211578Y-144000D01*
G37*
G54D11*
X211578Y-144000D02*
X198878Y-144000D01*
X198878Y-148013D01*
X211578Y-148013D01*
X211578Y-144000D01*
G54D10*
X211578Y-144000D02*
X198878Y-144000D01*
X198878Y-186100D01*
X211578Y-186100D01*
X211578Y-144000D01*
G54D10*
X196847Y-220824D02*
X213910Y-220824D01*
G54D10*
X196847Y-186143D02*
X213910Y-186143D01*
G54D10*
X196847Y-220824D02*
X196847Y-186143D01*
G54D10*
X213910Y-220824D02*
X213910Y-186143D01*
G54D10*
X196832Y-255503D02*
X213894Y-255503D01*
G54D10*
X196832Y-220822D02*
X213894Y-220822D01*
G54D10*
X196832Y-255503D02*
X196832Y-220822D01*
G54D10*
X213894Y-255503D02*
X213894Y-220822D01*
G36*
X230578Y-144000D02*
X217878Y-144000D01*
X217878Y-148013D01*
X230578Y-148013D01*
X230578Y-144000D01*
G37*
G54D11*
X230578Y-144000D02*
X217878Y-144000D01*
X217878Y-148013D01*
X230578Y-148013D01*
X230578Y-144000D01*
G54D10*
X230578Y-144000D02*
X217878Y-144000D01*
X217878Y-186100D01*
X230578Y-186100D01*
X230578Y-144000D01*
G54D10*
X215847Y-220824D02*
X232910Y-220824D01*
G54D10*
X215847Y-186143D02*
X232910Y-186143D01*
G54D10*
X215847Y-220824D02*
X215847Y-186143D01*
G54D10*
X232910Y-220824D02*
X232910Y-186143D01*
G54D10*
X215832Y-255503D02*
X232894Y-255503D01*
G54D10*
X215832Y-220822D02*
X232894Y-220822D01*
G54D10*
X215832Y-255503D02*
X215832Y-220822D01*
G54D10*
X232894Y-255503D02*
X232894Y-220822D01*
G36*
X249578Y-144000D02*
X236878Y-144000D01*
X236878Y-148013D01*
X249578Y-148013D01*
X249578Y-144000D01*
G37*
G54D11*
X249578Y-144000D02*
X236878Y-144000D01*
X236878Y-148013D01*
X249578Y-148013D01*
X249578Y-144000D01*
G54D10*
X249578Y-144000D02*
X236878Y-144000D01*
X236878Y-186100D01*
X249578Y-186100D01*
X249578Y-144000D01*
G54D10*
X234847Y-220824D02*
X251910Y-220824D01*
G54D10*
X234847Y-186143D02*
X251910Y-186143D01*
G54D10*
X234847Y-220824D02*
X234847Y-186143D01*
G54D10*
X251910Y-220824D02*
X251910Y-186143D01*
G54D10*
X234832Y-255503D02*
X251894Y-255503D01*
G54D10*
X234832Y-220822D02*
X251894Y-220822D01*
G54D10*
X234832Y-255503D02*
X234832Y-220822D01*
G54D10*
X251894Y-255503D02*
X251894Y-220822D01*
G54D10*
X256863Y-268476D02*
X256863Y-257500D01*
X228564Y-257500D01*
X228564Y-268476D01*
X256863Y-268476D01*
G54D10*
X228564Y-268476D02*
X228564Y-257500D01*
X200264Y-257500D01*
X200264Y-268476D01*
X228564Y-268476D01*
G54D10*
X200364Y-268476D02*
X200364Y-257500D01*
X172064Y-257500D01*
X172064Y-268476D01*
X200364Y-268476D01*
G54D10*
X172064Y-268476D02*
X172064Y-257500D01*
X143764Y-257500D01*
X143764Y-268476D01*
X172064Y-268476D01*
G54D10*
X156495Y-220828D02*
X139432Y-220828D01*
G54D10*
X156495Y-255510D02*
X139432Y-255510D01*
G54D10*
X156495Y-220828D02*
X156495Y-255510D01*
G54D10*
X139432Y-220828D02*
X139432Y-255510D01*
G54D10*
X45419Y-183823D02*
X62482Y-183823D01*
G54D10*
X45419Y-149141D02*
X62482Y-149141D01*
G54D10*
X45419Y-183823D02*
X45419Y-149141D01*
G54D10*
X62482Y-183823D02*
X62482Y-149141D01*
G54D10*
X594699Y-196264D02*
X582634Y-184199D01*
G54D10*
X570176Y-220787D02*
X558111Y-208722D01*
G54D10*
X594699Y-196264D02*
X570176Y-220787D01*
G54D10*
X582634Y-184199D02*
X558111Y-208722D01*
G54D10*
X582638Y-184207D02*
X594703Y-196272D01*
G54D10*
X607162Y-159683D02*
X619227Y-171748D01*
G54D10*
X582638Y-184207D02*
X607162Y-159683D01*
G54D10*
X594703Y-196272D02*
X619227Y-171748D01*
G54D10*
X562800Y-168741D02*
X545738Y-168741D01*
G54D10*
X562800Y-203422D02*
X545738Y-203423D01*
G54D10*
X562800Y-168741D02*
X562800Y-203422D01*
G54D10*
X545738Y-168741D02*
X545738Y-203423D01*
G54D10*
X748661Y-128092D02*
X748661Y-120154D01*
X716861Y-120154D01*
X716861Y-128092D01*
X748661Y-128092D01*
G54D10*
X712706Y-210647D02*
X729769Y-210647D01*
G54D10*
X712706Y-175966D02*
X729769Y-175966D01*
G54D10*
X712706Y-210647D02*
X712706Y-175966D01*
G54D10*
X729769Y-210647D02*
X729769Y-175966D01*
G54D10*
X706706Y-306647D02*
X723769Y-306647D01*
G54D10*
X706706Y-271966D02*
X723769Y-271966D01*
G54D10*
X706706Y-306647D02*
X706706Y-271966D01*
G54D10*
X723769Y-306647D02*
X723769Y-271966D01*
G54D10*
X797369Y-82566D02*
X780307Y-82566D01*
G54D10*
X797369Y-117247D02*
X780307Y-117247D01*
G54D10*
X797369Y-82566D02*
X797369Y-117247D01*
G54D10*
X780307Y-82566D02*
X780307Y-117247D01*
G54D10*
X781897Y-63575D02*
X781897Y-80638D01*
G54D10*
X816578Y-63575D02*
X816578Y-80638D01*
G54D10*
X781897Y-63575D02*
X816578Y-63575D01*
G54D10*
X781897Y-80638D02*
X816578Y-80638D01*
G54D10*
X797769Y-26966D02*
X780707Y-26966D01*
G54D10*
X797769Y-61647D02*
X780707Y-61647D01*
G54D10*
X797769Y-26966D02*
X797769Y-61647D01*
G54D10*
X780707Y-26966D02*
X780707Y-61647D01*
G54D10*
X778169Y-105966D02*
X761107Y-105966D01*
G54D10*
X778169Y-140647D02*
X761107Y-140647D01*
G54D10*
X778169Y-105966D02*
X778169Y-140647D01*
G54D10*
X761107Y-105966D02*
X761107Y-140647D01*
G54D10*
X686735Y-181432D02*
X694672Y-181432D01*
X694672Y-149632D01*
X686735Y-149632D01*
X686735Y-181432D01*
G54D10*
X672791Y-164613D02*
X672791Y-147551D01*
G54D10*
X638110Y-164613D02*
X638110Y-147551D01*
G54D10*
X672791Y-164613D02*
X638110Y-164613D01*
G54D10*
X672791Y-147551D02*
X638110Y-147551D01*
G54D10*
X693272Y-145176D02*
X710334Y-145176D01*
G54D10*
X693272Y-110494D02*
X710334Y-110494D01*
G54D10*
X693272Y-145176D02*
X693272Y-110494D01*
G54D10*
X710334Y-145176D02*
X710334Y-110494D01*
G54D10*
X692607Y-61841D02*
X709669Y-61841D01*
G54D10*
X692607Y-27160D02*
X709669Y-27160D01*
G54D10*
X692607Y-61841D02*
X692607Y-27160D01*
G54D10*
X709669Y-61841D02*
X709669Y-27160D01*
G54D10*
X708434Y-104794D02*
X708434Y-87731D01*
G54D10*
X673754Y-104794D02*
X673754Y-87731D01*
G54D10*
X708434Y-104794D02*
X673754Y-104794D01*
G54D10*
X708434Y-87731D02*
X673754Y-87731D01*
G54D10*
X689838Y-141332D02*
X689838Y-124269D01*
G54D10*
X655156Y-141332D02*
X655156Y-124269D01*
G54D10*
X689838Y-141332D02*
X655156Y-141332D01*
G54D10*
X689838Y-124269D02*
X655156Y-124269D01*
G54D10*
X653534Y-201932D02*
X661472Y-201932D01*
X661472Y-170132D01*
X653534Y-170132D01*
X653534Y-201932D01*
G54D10*
X676020Y-204266D02*
X658958Y-204266D01*
G54D10*
X676020Y-238947D02*
X658958Y-238947D01*
G54D10*
X676020Y-204266D02*
X676020Y-238947D01*
G54D10*
X658958Y-204266D02*
X658958Y-238947D01*
G54D10*
X693199Y-253222D02*
X710262Y-253222D01*
G54D10*
X693199Y-218541D02*
X710262Y-218541D01*
G54D10*
X693199Y-253222D02*
X693199Y-218541D01*
G54D10*
X710262Y-253222D02*
X710262Y-218541D01*
G54D10*
X641899Y-238942D02*
X658962Y-238942D01*
G54D10*
X641899Y-204261D02*
X658962Y-204261D01*
G54D10*
X641899Y-238942D02*
X641899Y-204261D01*
G54D10*
X658962Y-238942D02*
X658962Y-204261D01*
G54D10*
X692066Y-259619D02*
X692066Y-242556D01*
G54D10*
X657384Y-259619D02*
X657384Y-242556D01*
G54D10*
X692066Y-259619D02*
X657384Y-259619D01*
G54D10*
X692066Y-242556D02*
X657384Y-242556D01*
G54D10*
X622710Y-242550D02*
X622710Y-259613D01*
G54D10*
X657391Y-242551D02*
X657391Y-259613D01*
G54D10*
X622710Y-242550D02*
X657391Y-242551D01*
G54D10*
X622710Y-259613D02*
X657391Y-259613D01*
G54D10*
X693079Y-218522D02*
X710142Y-218522D01*
G54D10*
X693079Y-183841D02*
X710142Y-183841D01*
G54D10*
X693079Y-218522D02*
X693079Y-183841D01*
G54D10*
X710142Y-218522D02*
X710142Y-183841D01*
G54D10*
X676019Y-218522D02*
X693082Y-218522D01*
G54D10*
X676019Y-183841D02*
X693082Y-183841D01*
G54D10*
X676019Y-218522D02*
X676019Y-183841D01*
G54D10*
X693082Y-218522D02*
X693082Y-183841D01*
G36*
X747078Y-144000D02*
X734378Y-144000D01*
X734378Y-148013D01*
X747078Y-148013D01*
X747078Y-144000D01*
G37*
G54D11*
X747078Y-144000D02*
X734378Y-144000D01*
X734378Y-148013D01*
X747078Y-148013D01*
X747078Y-144000D01*
G54D10*
X747078Y-144000D02*
X734378Y-144000D01*
X734378Y-186100D01*
X747078Y-186100D01*
X747078Y-144000D01*
G54D10*
X825660Y-305104D02*
X808598Y-305104D01*
G54D10*
X825660Y-270422D02*
X808598Y-270422D01*
G54D10*
X825660Y-305104D02*
X825660Y-270422D01*
G54D10*
X808598Y-305104D02*
X808598Y-270422D01*
G54D10*
X732347Y-220824D02*
X749410Y-220824D01*
G54D10*
X732347Y-186143D02*
X749410Y-186143D01*
G54D10*
X732347Y-220824D02*
X732347Y-186143D01*
G54D10*
X749410Y-220824D02*
X749410Y-186143D01*
G54D10*
X732332Y-255503D02*
X749394Y-255503D01*
G54D10*
X732332Y-220822D02*
X749394Y-220822D01*
G54D10*
X732332Y-255503D02*
X732332Y-220822D01*
G54D10*
X749394Y-255503D02*
X749394Y-220822D01*
G54D10*
X806660Y-305104D02*
X789598Y-305104D01*
G54D10*
X806660Y-270422D02*
X789598Y-270422D01*
G54D10*
X806660Y-305104D02*
X806660Y-270422D01*
G54D10*
X789598Y-305104D02*
X789598Y-270422D01*
G54D10*
X787660Y-305104D02*
X770598Y-305104D01*
G54D10*
X787660Y-270422D02*
X770598Y-270422D01*
G54D10*
X787660Y-305104D02*
X787660Y-270422D01*
G54D10*
X770598Y-305104D02*
X770598Y-270422D01*
G54D10*
X768660Y-305103D02*
X751598Y-305104D01*
G54D10*
X768660Y-270422D02*
X751598Y-270422D01*
G54D10*
X768660Y-305103D02*
X768660Y-270422D01*
G54D10*
X751598Y-305104D02*
X751598Y-270422D01*
G54D10*
X749660Y-305104D02*
X732598Y-305104D01*
G54D10*
X749660Y-270422D02*
X732598Y-270422D01*
G54D10*
X749660Y-305104D02*
X749660Y-270422D01*
G54D10*
X732598Y-305104D02*
X732598Y-270422D01*
G36*
X766078Y-144000D02*
X753378Y-144000D01*
X753378Y-148013D01*
X766078Y-148013D01*
X766078Y-144000D01*
G37*
G54D11*
X766078Y-144000D02*
X753378Y-144000D01*
X753378Y-148013D01*
X766078Y-148013D01*
X766078Y-144000D01*
G54D10*
X766078Y-144000D02*
X753378Y-144000D01*
X753378Y-186100D01*
X766078Y-186100D01*
X766078Y-144000D01*
G54D10*
X751347Y-220824D02*
X768410Y-220824D01*
G54D10*
X751347Y-186143D02*
X768410Y-186143D01*
G54D10*
X751347Y-220824D02*
X751347Y-186143D01*
G54D10*
X768410Y-220824D02*
X768410Y-186143D01*
G54D10*
X751332Y-255503D02*
X768394Y-255503D01*
G54D10*
X751332Y-220822D02*
X768394Y-220822D01*
G54D10*
X751332Y-255503D02*
X751332Y-220822D01*
G54D10*
X768394Y-255503D02*
X768394Y-220822D01*
G36*
X785078Y-144000D02*
X772378Y-144000D01*
X772378Y-148013D01*
X785078Y-148013D01*
X785078Y-144000D01*
G37*
G54D11*
X785078Y-144000D02*
X772378Y-144000D01*
X772378Y-148013D01*
X785078Y-148013D01*
X785078Y-144000D01*
G54D10*
X785078Y-144000D02*
X772378Y-144000D01*
X772378Y-186100D01*
X785078Y-186100D01*
X785078Y-144000D01*
G54D10*
X770347Y-220824D02*
X787410Y-220824D01*
G54D10*
X770347Y-186143D02*
X787410Y-186143D01*
G54D10*
X770347Y-220824D02*
X770347Y-186143D01*
G54D10*
X787410Y-220824D02*
X787410Y-186143D01*
G54D10*
X770332Y-255503D02*
X787394Y-255503D01*
G54D10*
X770332Y-220822D02*
X787394Y-220822D01*
G54D10*
X770332Y-255503D02*
X770332Y-220822D01*
G54D10*
X787394Y-255503D02*
X787394Y-220822D01*
G36*
X804078Y-144000D02*
X791378Y-144000D01*
X791378Y-148013D01*
X804078Y-148013D01*
X804078Y-144000D01*
G37*
G54D11*
X804078Y-144000D02*
X791378Y-144000D01*
X791378Y-148013D01*
X804078Y-148013D01*
X804078Y-144000D01*
G54D10*
X804078Y-144000D02*
X791378Y-144000D01*
X791378Y-186100D01*
X804078Y-186100D01*
X804078Y-144000D01*
G54D10*
X789347Y-220824D02*
X806410Y-220824D01*
G54D10*
X789347Y-186143D02*
X806410Y-186143D01*
G54D10*
X789347Y-220824D02*
X789347Y-186143D01*
G54D10*
X806410Y-220824D02*
X806410Y-186143D01*
G54D10*
X789332Y-255503D02*
X806394Y-255503D01*
G54D10*
X789332Y-220822D02*
X806394Y-220822D01*
G54D10*
X789332Y-255503D02*
X789332Y-220822D01*
G54D10*
X806394Y-255503D02*
X806394Y-220822D01*
G36*
X823078Y-144000D02*
X810378Y-144000D01*
X810378Y-148013D01*
X823078Y-148013D01*
X823078Y-144000D01*
G37*
G54D11*
X823078Y-144000D02*
X810378Y-144000D01*
X810378Y-148013D01*
X823078Y-148013D01*
X823078Y-144000D01*
G54D10*
X823078Y-144000D02*
X810378Y-144000D01*
X810378Y-186100D01*
X823078Y-186100D01*
X823078Y-144000D01*
G54D10*
X808347Y-220824D02*
X825410Y-220824D01*
G54D10*
X808347Y-186143D02*
X825410Y-186143D01*
G54D10*
X808347Y-220824D02*
X808347Y-186143D01*
G54D10*
X825410Y-220824D02*
X825410Y-186143D01*
G54D10*
X808332Y-255503D02*
X825394Y-255503D01*
G54D10*
X808332Y-220822D02*
X825394Y-220822D01*
G54D10*
X808332Y-255503D02*
X808332Y-220822D01*
G54D10*
X825394Y-255503D02*
X825394Y-220822D01*
G54D10*
X830363Y-268476D02*
X830363Y-257500D01*
X802063Y-257500D01*
X802063Y-268476D01*
X830363Y-268476D01*
G54D10*
X802063Y-268476D02*
X802063Y-257500D01*
X773763Y-257500D01*
X773763Y-268476D01*
X802063Y-268476D01*
G54D10*
X773863Y-268476D02*
X773863Y-257500D01*
X745563Y-257500D01*
X745563Y-268476D01*
X773863Y-268476D01*
G54D10*
X745563Y-268476D02*
X745563Y-257500D01*
X717263Y-257500D01*
X717263Y-268476D01*
X745563Y-268476D01*
G54D10*
X729994Y-220828D02*
X712932Y-220828D01*
G54D10*
X729994Y-255510D02*
X712932Y-255510D01*
G54D10*
X729994Y-220828D02*
X729994Y-255510D01*
G54D10*
X712932Y-220828D02*
X712932Y-255510D01*
G54D10*
X881399Y-196264D02*
X869334Y-184199D01*
G54D10*
X856876Y-220787D02*
X844811Y-208722D01*
G54D10*
X881399Y-196264D02*
X856876Y-220787D01*
G54D10*
X869334Y-184199D02*
X844811Y-208722D01*
G54D10*
X869338Y-184207D02*
X881403Y-196272D01*
G54D10*
X893861Y-159683D02*
X905926Y-171748D01*
G54D10*
X869338Y-184207D02*
X893861Y-159683D01*
G54D10*
X881403Y-196272D02*
X905926Y-171748D01*
G54D10*
X849500Y-168741D02*
X832437Y-168741D01*
G54D10*
X849500Y-203422D02*
X832437Y-203423D01*
G54D10*
X849500Y-168741D02*
X849500Y-203422D01*
G54D10*
X832437Y-168741D02*
X832437Y-203423D01*
G54D10*
X1035361Y-128092D02*
X1035361Y-120154D01*
X1003561Y-120154D01*
X1003561Y-128092D01*
X1035361Y-128092D01*
G54D10*
X999406Y-210647D02*
X1016469Y-210647D01*
G54D10*
X999406Y-175966D02*
X1016469Y-175966D01*
G54D10*
X999406Y-210647D02*
X999406Y-175966D01*
G54D10*
X1016469Y-210647D02*
X1016469Y-175966D01*
G54D10*
X993406Y-306647D02*
X1010469Y-306647D01*
G54D10*
X993406Y-271966D02*
X1010469Y-271966D01*
G54D10*
X993406Y-306647D02*
X993406Y-271966D01*
G54D10*
X1010469Y-306647D02*
X1010469Y-271966D01*
G54D10*
X1084069Y-82566D02*
X1067006Y-82566D01*
G54D10*
X1084069Y-117247D02*
X1067006Y-117247D01*
G54D10*
X1084069Y-82566D02*
X1084069Y-117247D01*
G54D10*
X1067006Y-82566D02*
X1067006Y-117247D01*
G54D10*
X1068597Y-63575D02*
X1068597Y-80638D01*
G54D10*
X1103278Y-63575D02*
X1103278Y-80638D01*
G54D10*
X1068597Y-63575D02*
X1103278Y-63575D01*
G54D10*
X1068597Y-80638D02*
X1103278Y-80638D01*
G54D10*
X1084469Y-26966D02*
X1067406Y-26966D01*
G54D10*
X1084469Y-61647D02*
X1067406Y-61647D01*
G54D10*
X1084469Y-26966D02*
X1084469Y-61647D01*
G54D10*
X1067406Y-26966D02*
X1067406Y-61647D01*
G54D10*
X1064869Y-105966D02*
X1047806Y-105966D01*
G54D10*
X1064869Y-140647D02*
X1047806Y-140647D01*
G54D10*
X1064869Y-105966D02*
X1064869Y-140647D01*
G54D10*
X1047806Y-105966D02*
X1047806Y-140647D01*
G54D10*
X973434Y-181432D02*
X981372Y-181432D01*
X981372Y-149632D01*
X973434Y-149632D01*
X973434Y-181432D01*
G54D10*
X959491Y-164613D02*
X959491Y-147551D01*
G54D10*
X924809Y-164613D02*
X924809Y-147551D01*
G54D10*
X959491Y-164613D02*
X924809Y-164613D01*
G54D10*
X959491Y-147551D02*
X924809Y-147551D01*
G54D10*
X979972Y-145176D02*
X997034Y-145176D01*
G54D10*
X979972Y-110494D02*
X997034Y-110494D01*
G54D10*
X979972Y-145176D02*
X979972Y-110494D01*
G54D10*
X997034Y-145176D02*
X997034Y-110494D01*
G54D10*
X979306Y-61841D02*
X996369Y-61841D01*
G54D10*
X979306Y-27160D02*
X996369Y-27160D01*
G54D10*
X979306Y-61841D02*
X979306Y-27160D01*
G54D10*
X996369Y-61841D02*
X996369Y-27160D01*
G54D10*
X995134Y-104794D02*
X995134Y-87731D01*
G54D10*
X960453Y-104794D02*
X960453Y-87731D01*
G54D10*
X995134Y-104794D02*
X960453Y-104794D01*
G54D10*
X995134Y-87731D02*
X960453Y-87731D01*
G54D10*
X976537Y-141332D02*
X976537Y-124269D01*
G54D10*
X941856Y-141332D02*
X941856Y-124269D01*
G54D10*
X976537Y-141332D02*
X941856Y-141332D01*
G54D10*
X976537Y-124269D02*
X941856Y-124269D01*
G54D10*
X940234Y-201932D02*
X948172Y-201932D01*
X948172Y-170132D01*
X940234Y-170132D01*
X940234Y-201932D01*
G54D10*
X962720Y-204266D02*
X945657Y-204266D01*
G54D10*
X962720Y-238947D02*
X945657Y-238947D01*
G54D10*
X962720Y-204266D02*
X962720Y-238947D01*
G54D10*
X945657Y-204266D02*
X945657Y-238947D01*
G54D10*
X979899Y-253222D02*
X996961Y-253222D01*
G54D10*
X979899Y-218541D02*
X996961Y-218541D01*
G54D10*
X979899Y-253222D02*
X979899Y-218541D01*
G54D10*
X996961Y-253222D02*
X996961Y-218541D01*
G54D10*
X928599Y-238942D02*
X945661Y-238942D01*
G54D10*
X928599Y-204261D02*
X945661Y-204261D01*
G54D10*
X928599Y-238942D02*
X928599Y-204261D01*
G54D10*
X945661Y-238942D02*
X945661Y-204261D01*
G54D10*
X978765Y-259619D02*
X978765Y-242556D01*
G54D10*
X944084Y-259619D02*
X944084Y-242556D01*
G54D10*
X978765Y-259619D02*
X944084Y-259619D01*
G54D10*
X978765Y-242556D02*
X944084Y-242556D01*
G54D10*
X909410Y-242550D02*
X909410Y-259613D01*
G54D10*
X944091Y-242551D02*
X944091Y-259613D01*
G54D10*
X909410Y-242550D02*
X944091Y-242551D01*
G54D10*
X909410Y-259613D02*
X944091Y-259613D01*
G54D10*
X979779Y-218522D02*
X996841Y-218522D01*
G54D10*
X979779Y-183841D02*
X996841Y-183841D01*
G54D10*
X979779Y-218522D02*
X979779Y-183841D01*
G54D10*
X996841Y-218522D02*
X996841Y-183841D01*
G54D10*
X962719Y-218522D02*
X979781Y-218522D01*
G54D10*
X962719Y-183841D02*
X979781Y-183841D01*
G54D10*
X962719Y-218522D02*
X962719Y-183841D01*
G54D10*
X979781Y-218522D02*
X979781Y-183841D01*
G36*
X1033778Y-144000D02*
X1021078Y-144000D01*
X1021078Y-148013D01*
X1033778Y-148013D01*
X1033778Y-144000D01*
G37*
G54D11*
X1033778Y-144000D02*
X1021078Y-144000D01*
X1021078Y-148013D01*
X1033778Y-148013D01*
X1033778Y-144000D01*
G54D10*
X1033778Y-144000D02*
X1021078Y-144000D01*
X1021078Y-186100D01*
X1033778Y-186100D01*
X1033778Y-144000D01*
G54D10*
X1112360Y-305104D02*
X1095297Y-305104D01*
G54D10*
X1112360Y-270422D02*
X1095298Y-270422D01*
G54D10*
X1112360Y-305104D02*
X1112360Y-270422D01*
G54D10*
X1095297Y-305104D02*
X1095298Y-270422D01*
G54D10*
X1019047Y-220824D02*
X1036109Y-220824D01*
G54D10*
X1019047Y-186143D02*
X1036109Y-186143D01*
G54D10*
X1019047Y-220824D02*
X1019047Y-186143D01*
G54D10*
X1036109Y-220824D02*
X1036109Y-186143D01*
G54D10*
X1019031Y-255503D02*
X1036094Y-255503D01*
G54D10*
X1019031Y-220822D02*
X1036094Y-220822D01*
G54D10*
X1019031Y-255503D02*
X1019031Y-220822D01*
G54D10*
X1036094Y-255503D02*
X1036094Y-220822D01*
G54D10*
X1093360Y-305104D02*
X1076297Y-305104D01*
G54D10*
X1093360Y-270422D02*
X1076298Y-270422D01*
G54D10*
X1093360Y-305104D02*
X1093360Y-270422D01*
G54D10*
X1076297Y-305104D02*
X1076298Y-270422D01*
G54D10*
X1074360Y-305104D02*
X1057297Y-305104D01*
G54D10*
X1074360Y-270422D02*
X1057298Y-270422D01*
G54D10*
X1074360Y-305104D02*
X1074360Y-270422D01*
G54D10*
X1057297Y-305104D02*
X1057298Y-270422D01*
G54D10*
X1055360Y-305103D02*
X1038297Y-305104D01*
G54D10*
X1055360Y-270422D02*
X1038297Y-270422D01*
G54D10*
X1055360Y-305103D02*
X1055360Y-270422D01*
G54D10*
X1038297Y-305104D02*
X1038297Y-270422D01*
G54D10*
X1036360Y-305104D02*
X1019297Y-305104D01*
G54D10*
X1036360Y-270422D02*
X1019298Y-270422D01*
G54D10*
X1036360Y-305104D02*
X1036360Y-270422D01*
G54D10*
X1019297Y-305104D02*
X1019298Y-270422D01*
G36*
X1052778Y-144000D02*
X1040078Y-144000D01*
X1040078Y-148013D01*
X1052778Y-148013D01*
X1052778Y-144000D01*
G37*
G54D11*
X1052778Y-144000D02*
X1040078Y-144000D01*
X1040078Y-148013D01*
X1052778Y-148013D01*
X1052778Y-144000D01*
G54D10*
X1052778Y-144000D02*
X1040078Y-144000D01*
X1040078Y-186100D01*
X1052778Y-186100D01*
X1052778Y-144000D01*
G54D10*
X1038047Y-220824D02*
X1055109Y-220824D01*
G54D10*
X1038047Y-186143D02*
X1055109Y-186143D01*
G54D10*
X1038047Y-220824D02*
X1038047Y-186143D01*
G54D10*
X1055109Y-220824D02*
X1055109Y-186143D01*
G54D10*
X1038031Y-255503D02*
X1055094Y-255503D01*
G54D10*
X1038031Y-220822D02*
X1055094Y-220822D01*
G54D10*
X1038031Y-255503D02*
X1038031Y-220822D01*
G54D10*
X1055094Y-255503D02*
X1055094Y-220822D01*
G36*
X1071778Y-144000D02*
X1059078Y-144000D01*
X1059078Y-148013D01*
X1071778Y-148013D01*
X1071778Y-144000D01*
G37*
G54D11*
X1071778Y-144000D02*
X1059078Y-144000D01*
X1059078Y-148013D01*
X1071778Y-148013D01*
X1071778Y-144000D01*
G54D10*
X1071778Y-144000D02*
X1059078Y-144000D01*
X1059078Y-186100D01*
X1071778Y-186100D01*
X1071778Y-144000D01*
G54D10*
X1057047Y-220824D02*
X1074109Y-220824D01*
G54D10*
X1057047Y-186143D02*
X1074109Y-186143D01*
G54D10*
X1057047Y-220824D02*
X1057047Y-186143D01*
G54D10*
X1074109Y-220824D02*
X1074109Y-186143D01*
G54D10*
X1057031Y-255503D02*
X1074094Y-255503D01*
G54D10*
X1057031Y-220822D02*
X1074094Y-220822D01*
G54D10*
X1057031Y-255503D02*
X1057031Y-220822D01*
G54D10*
X1074094Y-255503D02*
X1074094Y-220822D01*
G36*
X1090778Y-144000D02*
X1078078Y-144000D01*
X1078078Y-148013D01*
X1090778Y-148013D01*
X1090778Y-144000D01*
G37*
G54D11*
X1090778Y-144000D02*
X1078078Y-144000D01*
X1078078Y-148013D01*
X1090778Y-148013D01*
X1090778Y-144000D01*
G54D10*
X1090778Y-144000D02*
X1078078Y-144000D01*
X1078078Y-186100D01*
X1090778Y-186100D01*
X1090778Y-144000D01*
G54D10*
X1076047Y-220824D02*
X1093109Y-220824D01*
G54D10*
X1076047Y-186143D02*
X1093109Y-186143D01*
G54D10*
X1076047Y-220824D02*
X1076047Y-186143D01*
G54D10*
X1093109Y-220824D02*
X1093109Y-186143D01*
G54D10*
X1076031Y-255503D02*
X1093094Y-255503D01*
G54D10*
X1076031Y-220822D02*
X1093094Y-220822D01*
G54D10*
X1076031Y-255503D02*
X1076031Y-220822D01*
G54D10*
X1093094Y-255503D02*
X1093094Y-220822D01*
G36*
X1109778Y-144000D02*
X1097078Y-144000D01*
X1097078Y-148013D01*
X1109778Y-148013D01*
X1109778Y-144000D01*
G37*
G54D11*
X1109778Y-144000D02*
X1097078Y-144000D01*
X1097078Y-148013D01*
X1109778Y-148013D01*
X1109778Y-144000D01*
G54D10*
X1109778Y-144000D02*
X1097078Y-144000D01*
X1097078Y-186100D01*
X1109778Y-186100D01*
X1109778Y-144000D01*
G54D10*
X1095047Y-220824D02*
X1112109Y-220824D01*
G54D10*
X1095047Y-186143D02*
X1112109Y-186143D01*
G54D10*
X1095047Y-220824D02*
X1095047Y-186143D01*
G54D10*
X1112109Y-220824D02*
X1112109Y-186143D01*
G54D10*
X1095031Y-255503D02*
X1112094Y-255503D01*
G54D10*
X1095031Y-220822D02*
X1112094Y-220822D01*
G54D10*
X1095031Y-255503D02*
X1095031Y-220822D01*
G54D10*
X1112094Y-255503D02*
X1112094Y-220822D01*
G54D10*
X1117063Y-268476D02*
X1117063Y-257500D01*
X1088763Y-257500D01*
X1088763Y-268476D01*
X1117063Y-268476D01*
G54D10*
X1088763Y-268476D02*
X1088763Y-257500D01*
X1060463Y-257500D01*
X1060463Y-268476D01*
X1088763Y-268476D01*
G54D10*
X1060563Y-268476D02*
X1060563Y-257500D01*
X1032263Y-257500D01*
X1032263Y-268476D01*
X1060563Y-268476D01*
G54D10*
X1032263Y-268476D02*
X1032263Y-257500D01*
X1003963Y-257500D01*
X1003963Y-268476D01*
X1032263Y-268476D01*
G54D10*
X1016694Y-220828D02*
X999632Y-220828D01*
G54D10*
X1016694Y-255510D02*
X999632Y-255510D01*
G54D10*
X1016694Y-220828D02*
X1016694Y-255510D01*
G54D10*
X999632Y-220828D02*
X999632Y-255510D01*
G54D10*
X1168099Y-196264D02*
X1156034Y-184199D01*
G54D10*
X1143576Y-220787D02*
X1131510Y-208722D01*
G54D10*
X1168099Y-196264D02*
X1143576Y-220787D01*
G54D10*
X1156034Y-184199D02*
X1131510Y-208722D01*
G54D10*
X1156038Y-184207D02*
X1168103Y-196272D01*
G54D10*
X1180561Y-159683D02*
X1192626Y-171748D01*
G54D10*
X1156038Y-184207D02*
X1180561Y-159683D01*
G54D10*
X1168103Y-196272D02*
X1192626Y-171748D01*
G54D10*
X1136200Y-168741D02*
X1119137Y-168741D01*
G54D10*
X1136200Y-203422D02*
X1119137Y-203423D01*
G54D10*
X1136200Y-168741D02*
X1136200Y-203422D01*
G54D10*
X1119137Y-168741D02*
X1119137Y-203423D01*
G54D10*
X1260134Y-181432D02*
X1268071Y-181432D01*
X1268072Y-149632D01*
X1260134Y-149632D01*
X1260134Y-181432D01*
G54D10*
X1246190Y-164613D02*
X1246190Y-147551D01*
G54D10*
X1211509Y-164613D02*
X1211509Y-147551D01*
G54D10*
X1246190Y-164613D02*
X1211509Y-164613D01*
G54D10*
X1246190Y-147551D02*
X1211509Y-147551D01*
G54D10*
X1266671Y-145176D02*
X1283734Y-145176D01*
G54D10*
X1266671Y-110494D02*
X1283734Y-110494D01*
G54D10*
X1266671Y-145176D02*
X1266671Y-110494D01*
G54D10*
X1283734Y-145176D02*
X1283734Y-110494D01*
G54D10*
X1266006Y-61841D02*
X1283069Y-61841D01*
G54D10*
X1266006Y-27160D02*
X1283069Y-27160D01*
G54D10*
X1266006Y-61841D02*
X1266006Y-27160D01*
G54D10*
X1283069Y-61841D02*
X1283069Y-27160D01*
G54D10*
X1281834Y-104794D02*
X1281834Y-87731D01*
G54D10*
X1247153Y-104794D02*
X1247153Y-87731D01*
G54D10*
X1281834Y-104794D02*
X1247153Y-104794D01*
G54D10*
X1281834Y-87731D02*
X1247153Y-87731D01*
G54D10*
X1263237Y-141332D02*
X1263237Y-124269D01*
G54D10*
X1228556Y-141332D02*
X1228556Y-124269D01*
G54D10*
X1263237Y-141332D02*
X1228556Y-141332D01*
G54D10*
X1263237Y-124269D02*
X1228556Y-124269D01*
G54D10*
X1226934Y-201932D02*
X1234871Y-201932D01*
X1234871Y-170132D01*
X1226934Y-170132D01*
X1226934Y-201932D01*
G54D10*
X1249420Y-204266D02*
X1232357Y-204266D01*
G54D10*
X1249420Y-238947D02*
X1232357Y-238947D01*
G54D10*
X1249420Y-204266D02*
X1249420Y-238947D01*
G54D10*
X1232357Y-204266D02*
X1232357Y-238947D01*
G54D10*
X1266598Y-253222D02*
X1283661Y-253222D01*
G54D10*
X1266598Y-218541D02*
X1283661Y-218541D01*
G54D10*
X1266598Y-253222D02*
X1266598Y-218541D01*
G54D10*
X1283661Y-253222D02*
X1283661Y-218541D01*
G54D10*
X1215299Y-238942D02*
X1232361Y-238942D01*
G54D10*
X1215299Y-204261D02*
X1232361Y-204261D01*
G54D10*
X1215299Y-238942D02*
X1215299Y-204261D01*
G54D10*
X1232361Y-238942D02*
X1232361Y-204261D01*
G54D10*
X1265465Y-259619D02*
X1265465Y-242556D01*
G54D10*
X1230784Y-259619D02*
X1230784Y-242556D01*
G54D10*
X1265465Y-259619D02*
X1230784Y-259619D01*
G54D10*
X1265465Y-242556D02*
X1230784Y-242556D01*
G54D10*
X1196110Y-242550D02*
X1196110Y-259613D01*
G54D10*
X1230791Y-242551D02*
X1230791Y-259613D01*
G54D10*
X1196110Y-242550D02*
X1230791Y-242551D01*
G54D10*
X1196110Y-259613D02*
X1230791Y-259613D01*
G54D10*
X1266478Y-218522D02*
X1283541Y-218522D01*
G54D10*
X1266478Y-183841D02*
X1283541Y-183841D01*
G54D10*
X1266478Y-218522D02*
X1266478Y-183841D01*
G54D10*
X1283541Y-218522D02*
X1283541Y-183841D01*
G54D10*
X1249419Y-218522D02*
X1266481Y-218522D01*
G54D10*
X1249419Y-183841D02*
X1266481Y-183841D01*
G54D10*
X1249419Y-218522D02*
X1249419Y-183841D01*
G54D10*
X1266481Y-218522D02*
X1266481Y-183841D01*
G54D10*
X1340000Y-214000D02*
X1359000Y-214000D01*
X1359000Y-176000D01*
X1340000Y-176000D01*
X1340000Y-214000D01*
G54D10*
X1349500Y-214100D02*
X1349500Y-241400D01*
G54D10*
X1349500Y-148600D02*
X1349500Y-175900D01*
G54D12*
X116459Y-363328D02*
X116459Y-345550D01*
G54D12*
X111125Y-345550D02*
X121792Y-345550D01*
G54D12*
X126681Y-363328D02*
X126681Y-345550D01*
X133348Y-345550D01*
X136015Y-346662D01*
X137348Y-348884D01*
X137348Y-351106D01*
X136015Y-353328D01*
X133348Y-354439D01*
X126681Y-354439D01*
G54D12*
X142237Y-352217D02*
X148904Y-345550D01*
X148904Y-363328D01*
G54D12*
X401392Y-362412D02*
X401392Y-344635D01*
G54D12*
X396059Y-344635D02*
X406725Y-344635D01*
G54D12*
X411615Y-362412D02*
X411615Y-344635D01*
X418281Y-344635D01*
X420948Y-345746D01*
X422281Y-347968D01*
X422281Y-350190D01*
X420948Y-352412D01*
X418281Y-353524D01*
X411615Y-353524D01*
G54D12*
X437837Y-362412D02*
X427171Y-362412D01*
X427171Y-361301D01*
X428504Y-359079D01*
X436504Y-352412D01*
X437837Y-350190D01*
X437837Y-347968D01*
X436504Y-345746D01*
X433837Y-344635D01*
X431171Y-344635D01*
X428504Y-345746D01*
X427171Y-347968D01*
G54D12*
X686856Y-363485D02*
X686856Y-345707D01*
G54D12*
X681522Y-345707D02*
X692189Y-345707D01*
G54D12*
X697078Y-363485D02*
X697078Y-345707D01*
X703745Y-345707D01*
X706412Y-346818D01*
X707745Y-349041D01*
X707745Y-351263D01*
X706412Y-353485D01*
X703745Y-354596D01*
X697078Y-354596D01*
G54D12*
X712634Y-349041D02*
X713968Y-346818D01*
X716634Y-345707D01*
X719301Y-345707D01*
X721968Y-346818D01*
X723301Y-349041D01*
X723301Y-351263D01*
X721968Y-353485D01*
X719301Y-354596D01*
X721968Y-355707D01*
X723301Y-357930D01*
X723301Y-360152D01*
X721968Y-362374D01*
X719301Y-363485D01*
X716634Y-363485D01*
X713968Y-362374D01*
X712634Y-360152D01*
G54D12*
X975176Y-361845D02*
X975176Y-344068D01*
G54D12*
X969843Y-344068D02*
X980510Y-344068D01*
G54D12*
X985399Y-361845D02*
X985399Y-344068D01*
X992066Y-344068D01*
X994732Y-345179D01*
X996066Y-347401D01*
X996066Y-349623D01*
X994732Y-351845D01*
X992066Y-352956D01*
X985399Y-352956D01*
G54D12*
X1008955Y-361845D02*
X1008955Y-344068D01*
X1000955Y-355179D01*
X1000955Y-357401D01*
X1011622Y-357401D01*
G54D10*
X412938Y-316881D02*
X412938Y-299819D01*
G54D10*
X378256Y-316881D02*
X378256Y-299819D01*
G54D10*
X412938Y-316881D02*
X378256Y-316881D01*
G54D10*
X412938Y-299819D02*
X378256Y-299819D01*
G54D10*
X699063Y-316725D02*
X699063Y-299662D01*
G54D10*
X664382Y-316725D02*
X664382Y-299662D01*
G54D10*
X699063Y-316725D02*
X664382Y-316725D01*
G54D10*
X699063Y-299662D02*
X664382Y-299662D01*
G54D10*
X986563Y-316825D02*
X986563Y-299762D01*
G54D10*
X951882Y-316825D02*
X951882Y-299762D01*
G54D10*
X986563Y-316825D02*
X951882Y-316825D01*
G54D10*
X986563Y-299762D02*
X951882Y-299762D01*
G54D10*
X1272963Y-316925D02*
X1272963Y-299862D01*
G54D10*
X1238282Y-316925D02*
X1238282Y-299862D01*
G54D10*
X1272963Y-316925D02*
X1238282Y-316925D01*
G54D10*
X1272963Y-299862D02*
X1238282Y-299862D01*
G54D12*
X201667Y-359667D02*
X200333Y-361889D01*
X197667Y-363000D01*
X195000Y-363000D01*
X192333Y-361889D01*
X191000Y-359667D01*
X191000Y-348556D01*
X192333Y-346333D01*
X195000Y-345222D01*
X197667Y-345222D01*
X200333Y-346333D01*
X201667Y-348556D01*
G54D12*
X206556Y-363000D02*
X213223Y-345222D01*
X219889Y-363000D01*
G54D12*
X209223Y-356333D02*
X217223Y-356333D01*
G54D12*
X224778Y-345222D02*
X224778Y-363000D01*
X234111Y-363000D01*
G54D12*
X488667Y-361667D02*
X487333Y-363889D01*
X484667Y-365000D01*
X482000Y-365000D01*
X479333Y-363889D01*
X478000Y-361667D01*
X478000Y-350556D01*
X479333Y-348333D01*
X482000Y-347222D01*
X484667Y-347222D01*
X487333Y-348333D01*
X488667Y-350556D01*
G54D12*
X493556Y-365000D02*
X500223Y-347222D01*
X506889Y-365000D01*
G54D12*
X496223Y-358333D02*
X504223Y-358333D01*
G54D12*
X511778Y-347222D02*
X511778Y-365000D01*
X521111Y-365000D01*
G54D12*
X775667Y-361667D02*
X774333Y-363889D01*
X771667Y-365000D01*
X769000Y-365000D01*
X766333Y-363889D01*
X765000Y-361667D01*
X765000Y-350556D01*
X766333Y-348333D01*
X769000Y-347222D01*
X771667Y-347222D01*
X774333Y-348333D01*
X775667Y-350556D01*
G54D12*
X780556Y-365000D02*
X787223Y-347222D01*
X793889Y-365000D01*
G54D12*
X783223Y-358333D02*
X791223Y-358333D01*
G54D12*
X798778Y-347222D02*
X798778Y-365000D01*
X808111Y-365000D01*
G54D12*
X1062667Y-361667D02*
X1061333Y-363889D01*
X1058667Y-365000D01*
X1056000Y-365000D01*
X1053333Y-363889D01*
X1052000Y-361667D01*
X1052000Y-350556D01*
X1053333Y-348333D01*
X1056000Y-347222D01*
X1058667Y-347222D01*
X1061333Y-348333D01*
X1062667Y-350556D01*
G54D12*
X1067556Y-365000D02*
X1074223Y-347222D01*
X1080889Y-365000D01*
G54D12*
X1070223Y-358333D02*
X1078223Y-358333D01*
G54D12*
X1085778Y-347222D02*
X1085778Y-365000D01*
X1095111Y-365000D01*
G54D10*
X168167Y-345116D02*
X184167Y-345116D01*
X184167Y-368116D01*
X168167Y-368116D01*
X168167Y-345116D01*
G54D10*
X454867Y-344916D02*
X470867Y-344916D01*
X470867Y-367916D01*
X454867Y-367916D01*
X454867Y-344916D01*
G54D10*
X741567Y-345016D02*
X757567Y-345016D01*
X757567Y-368016D01*
X741567Y-368016D01*
X741567Y-345016D01*
G54D10*
X1028367Y-345116D02*
X1044367Y-345116D01*
X1044367Y-368116D01*
X1028367Y-368116D01*
X1028367Y-345116D01*
G54D10*
X62421Y-112290D02*
X45359Y-112290D01*
G54D10*
X62421Y-146972D02*
X45359Y-146972D01*
G54D10*
X62421Y-112290D02*
X62421Y-146972D01*
G54D10*
X45359Y-112290D02*
X45359Y-146972D01*
G54D10*
X1334282Y-322862D02*
X1334282Y-339924D01*
G54D10*
X1368963Y-322862D02*
X1368963Y-339924D01*
G54D10*
X1334282Y-322862D02*
X1368963Y-322862D01*
G54D10*
X1334282Y-339924D02*
X1368963Y-339924D01*
G54D10*
X1334282Y-339862D02*
X1334282Y-356924D01*
G54D10*
X1368963Y-339862D02*
X1368963Y-356924D01*
G54D10*
X1334282Y-339862D02*
X1368963Y-339862D01*
G54D10*
X1334282Y-356924D02*
X1368963Y-356924D01*
G54D10*
X1334282Y-356862D02*
X1334282Y-373924D01*
G54D10*
X1368963Y-356862D02*
X1368963Y-373924D01*
G54D10*
X1334282Y-356862D02*
X1368963Y-356862D01*
G54D10*
X1334282Y-373924D02*
X1368963Y-373924D01*
G54D10*
X1334282Y-305862D02*
X1334282Y-322924D01*
G54D10*
X1368963Y-305862D02*
X1368963Y-322924D01*
G54D10*
X1334282Y-305862D02*
X1368963Y-305862D01*
G54D10*
X1334282Y-322924D02*
X1368963Y-322924D01*
G54D10*
X1334282Y-288862D02*
X1334282Y-305924D01*
G54D10*
X1368963Y-288862D02*
X1368963Y-305924D01*
G54D10*
X1334282Y-288862D02*
X1368963Y-288862D01*
G54D10*
X1334282Y-305924D02*
X1368963Y-305924D01*
M02*
