%FSLAX34Y34*%
%MOMM*%
%LNSILK_BOTTOM*%
G71*
G01*
%ADD10C,0.150*%
%ADD11C,0.200*%
%ADD12C,0.333*%
%ADD13C,0.222*%
%ADD14C,0.300*%
%ADD15C,0.500*%
%ADD16C,0.444*%
%LPD*%
G54D10*
X390320Y-183666D02*
X373258Y-183666D01*
G54D10*
X390320Y-218347D02*
X373258Y-218347D01*
G54D10*
X390320Y-183666D02*
X390320Y-218347D01*
G54D10*
X373258Y-183666D02*
X373258Y-218347D01*
G54D10*
G75*
G01X357698Y-268199D02*
G03X280014Y-287568I-31276J-40031D01*
G01*
G54D10*
G75*
G01X345722Y-308230D02*
G03X345722Y-308230I-19300J0D01*
G01*
G54D10*
G75*
G01X280014Y-328892D02*
G03X359750Y-346569I46408J20662D01*
G01*
G54D10*
X383522Y-298720D02*
X383522Y-317928D01*
G54D10*
X321978Y-240988D02*
X352978Y-240988D01*
X352978Y-140988D01*
X321978Y-140988D01*
G54D10*
X283978Y-140988D02*
X252978Y-140988D01*
X252978Y-240988D01*
X283978Y-240988D01*
G54D10*
X441178Y-333688D02*
X441178Y-308288D01*
X415778Y-308288D01*
X415778Y-333688D01*
X441178Y-333688D01*
G54D10*
X538960Y-265922D02*
X521898Y-265922D01*
G54D10*
X538960Y-300604D02*
X521898Y-300604D01*
G54D10*
X538960Y-265922D02*
X538960Y-300604D01*
G54D10*
X521898Y-265922D02*
X521898Y-300604D01*
G54D10*
X519960Y-265922D02*
X502898Y-265922D01*
G54D10*
X519960Y-300604D02*
X502898Y-300604D01*
G54D10*
X519960Y-265922D02*
X519960Y-300604D01*
G54D10*
X502898Y-265922D02*
X502898Y-300604D01*
G54D10*
X500960Y-265922D02*
X483898Y-265922D01*
G54D10*
X500960Y-300604D02*
X483898Y-300604D01*
G54D10*
X500960Y-265922D02*
X500960Y-300604D01*
G54D10*
X483898Y-265922D02*
X483898Y-300604D01*
G54D10*
X481960Y-265922D02*
X464898Y-265922D01*
G54D10*
X481960Y-300604D02*
X464898Y-300604D01*
G54D10*
X481960Y-265922D02*
X481960Y-300604D01*
G54D10*
X464898Y-265922D02*
X464898Y-300604D01*
G54D10*
X462960Y-265922D02*
X445898Y-265922D01*
G54D10*
X462960Y-300604D02*
X445898Y-300604D01*
G54D10*
X462960Y-265922D02*
X462960Y-300604D01*
G54D10*
X445898Y-265922D02*
X445898Y-300604D01*
G54D10*
G75*
G01X537698Y-38199D02*
G03X460014Y-57568I-31276J-40031D01*
G01*
G54D10*
G75*
G01X525722Y-78230D02*
G03X525722Y-78230I-19300J0D01*
G01*
G54D10*
G75*
G01X460014Y-98892D02*
G03X539750Y-116569I46408J20662D01*
G01*
G54D10*
X563523Y-68720D02*
X563522Y-87928D01*
G54D10*
X150878Y-333688D02*
X150878Y-308288D01*
X125478Y-308288D01*
X125478Y-333688D01*
X150878Y-333688D01*
G54D10*
X330448Y-51427D02*
X330448Y-34364D01*
G54D10*
X295767Y-51427D02*
X295767Y-34364D01*
G54D10*
X330448Y-51427D02*
X295767Y-51427D01*
G54D10*
X330448Y-34364D02*
X295767Y-34364D01*
G54D10*
X295609Y-53512D02*
X295609Y-70574D01*
G54D10*
X330291Y-53512D02*
X330291Y-70574D01*
G54D10*
X295609Y-53512D02*
X330291Y-53512D01*
G54D10*
X295609Y-70574D02*
X330291Y-70574D01*
G54D10*
G75*
G01X250898Y-38199D02*
G03X173214Y-57568I-31276J-40031D01*
G01*
G54D10*
G75*
G01X238922Y-78230D02*
G03X238922Y-78230I-19300J0D01*
G01*
G54D10*
G75*
G01X173214Y-98892D02*
G03X252950Y-116569I46408J20662D01*
G01*
G54D10*
X276723Y-68720D02*
X276722Y-87928D01*
G54D10*
X617248Y-51427D02*
X617248Y-34364D01*
G54D10*
X582567Y-51427D02*
X582567Y-34364D01*
G54D10*
X617248Y-51427D02*
X582567Y-51427D01*
G54D10*
X617248Y-34364D02*
X582567Y-34364D01*
G54D10*
X448992Y-337916D02*
X459967Y-337916D01*
X459967Y-309616D01*
X448992Y-309616D01*
X448992Y-337916D01*
G54D10*
X467992Y-337916D02*
X478967Y-337916D01*
X478967Y-309616D01*
X467992Y-309616D01*
X467992Y-337916D01*
G54D10*
X486992Y-337916D02*
X497967Y-337916D01*
X497967Y-309616D01*
X486992Y-309616D01*
X486992Y-337916D01*
G54D10*
X505992Y-337916D02*
X516967Y-337916D01*
X516967Y-309616D01*
X505992Y-309616D01*
X505992Y-337916D01*
G54D10*
X524992Y-337916D02*
X535967Y-337916D01*
X535967Y-309616D01*
X524992Y-309616D01*
X524992Y-337916D01*
G54D10*
X252260Y-265922D02*
X235198Y-265922D01*
G54D10*
X252260Y-300604D02*
X235198Y-300604D01*
G54D10*
X252260Y-265922D02*
X252260Y-300604D01*
G54D10*
X235198Y-265922D02*
X235198Y-300604D01*
G54D10*
X233260Y-265922D02*
X216198Y-265922D01*
G54D10*
X233260Y-300604D02*
X216198Y-300604D01*
G54D10*
X233260Y-265922D02*
X233260Y-300604D01*
G54D10*
X216198Y-265922D02*
X216198Y-300604D01*
G54D10*
X214260Y-265922D02*
X197198Y-265922D01*
G54D10*
X214260Y-300604D02*
X197198Y-300604D01*
G54D10*
X214260Y-265922D02*
X214260Y-300604D01*
G54D10*
X197198Y-265922D02*
X197198Y-300604D01*
G54D10*
X195260Y-265922D02*
X178198Y-265922D01*
G54D10*
X195260Y-300604D02*
X178198Y-300604D01*
G54D10*
X195260Y-265922D02*
X195260Y-300604D01*
G54D10*
X178198Y-265922D02*
X178198Y-300604D01*
G54D10*
X176260Y-265922D02*
X159198Y-265922D01*
G54D10*
X176260Y-300604D02*
X159198Y-300604D01*
G54D10*
X176260Y-265922D02*
X176260Y-300604D01*
G54D10*
X159198Y-265922D02*
X159198Y-300604D01*
G54D10*
X162292Y-337916D02*
X173266Y-337916D01*
X173266Y-309616D01*
X162292Y-309616D01*
X162292Y-337916D01*
G54D10*
X181292Y-337916D02*
X192266Y-337916D01*
X192266Y-309616D01*
X181292Y-309616D01*
X181292Y-337916D01*
G54D10*
X200292Y-337916D02*
X211266Y-337916D01*
X211266Y-309616D01*
X200292Y-309616D01*
X200292Y-337916D01*
G54D10*
X219292Y-337916D02*
X230267Y-337916D01*
X230267Y-309616D01*
X219292Y-309616D01*
X219292Y-337916D01*
G54D10*
X238292Y-337916D02*
X249267Y-337916D01*
X249267Y-309616D01*
X238292Y-309616D01*
X238292Y-337916D01*
G54D10*
X677020Y-183666D02*
X659958Y-183666D01*
G54D10*
X677020Y-218347D02*
X659958Y-218347D01*
G54D10*
X677020Y-183666D02*
X677020Y-218347D01*
G54D10*
X659958Y-183666D02*
X659958Y-218347D01*
G54D10*
G75*
G01X644398Y-268199D02*
G03X566714Y-287568I-31276J-40031D01*
G01*
G54D10*
G75*
G01X632422Y-308230D02*
G03X632422Y-308230I-19300J0D01*
G01*
G54D10*
G75*
G01X566714Y-328892D02*
G03X646450Y-346569I46408J20662D01*
G01*
G54D10*
X670222Y-298720D02*
X670222Y-317928D01*
G54D10*
X727878Y-333688D02*
X727878Y-308288D01*
X702478Y-308288D01*
X702478Y-333688D01*
X727878Y-333688D01*
G54D10*
X825660Y-265922D02*
X808598Y-265922D01*
G54D10*
X825660Y-300604D02*
X808598Y-300604D01*
G54D10*
X825660Y-265922D02*
X825660Y-300604D01*
G54D10*
X808598Y-265922D02*
X808598Y-300604D01*
G54D10*
X806660Y-265922D02*
X789598Y-265922D01*
G54D10*
X806660Y-300604D02*
X789598Y-300604D01*
G54D10*
X806660Y-265922D02*
X806660Y-300604D01*
G54D10*
X789598Y-265922D02*
X789598Y-300604D01*
G54D10*
X787660Y-265922D02*
X770598Y-265922D01*
G54D10*
X787660Y-300604D02*
X770598Y-300604D01*
G54D10*
X787660Y-265922D02*
X787660Y-300604D01*
G54D10*
X770598Y-265922D02*
X770598Y-300604D01*
G54D10*
X768660Y-265922D02*
X751598Y-265922D01*
G54D10*
X768660Y-300604D02*
X751598Y-300604D01*
G54D10*
X768660Y-265922D02*
X768660Y-300604D01*
G54D10*
X751598Y-265922D02*
X751598Y-300604D01*
G54D10*
X749660Y-265922D02*
X732598Y-265922D01*
G54D10*
X749660Y-300604D02*
X732598Y-300604D01*
G54D10*
X749660Y-265922D02*
X749660Y-300604D01*
G54D10*
X732598Y-265922D02*
X732598Y-300604D01*
G54D10*
G75*
G01X824398Y-38199D02*
G03X746714Y-57568I-31276J-40031D01*
G01*
G54D10*
G75*
G01X812422Y-78230D02*
G03X812422Y-78230I-19300J0D01*
G01*
G54D10*
G75*
G01X746714Y-98892D02*
G03X826450Y-116569I46408J20662D01*
G01*
G54D10*
X850222Y-68720D02*
X850222Y-87928D01*
G54D10*
X903948Y-51427D02*
X903948Y-34364D01*
G54D10*
X869267Y-51427D02*
X869267Y-34364D01*
G54D10*
X903948Y-51427D02*
X869267Y-51427D01*
G54D10*
X903948Y-34364D02*
X869267Y-34364D01*
G54D10*
X735692Y-337916D02*
X746666Y-337916D01*
X746666Y-309616D01*
X735692Y-309616D01*
X735692Y-337916D01*
G54D10*
X754692Y-337916D02*
X765666Y-337916D01*
X765666Y-309616D01*
X754692Y-309616D01*
X754692Y-337916D01*
G54D10*
X773692Y-337916D02*
X784666Y-337916D01*
X784666Y-309616D01*
X773692Y-309616D01*
X773692Y-337916D01*
G54D10*
X792692Y-337916D02*
X803666Y-337916D01*
X803666Y-309616D01*
X792692Y-309616D01*
X792692Y-337916D01*
G54D10*
X811692Y-337916D02*
X822666Y-337916D01*
X822666Y-309616D01*
X811692Y-309616D01*
X811692Y-337916D01*
G54D10*
X963720Y-183666D02*
X946657Y-183666D01*
G54D10*
X963720Y-218347D02*
X946657Y-218347D01*
G54D10*
X963720Y-183666D02*
X963720Y-218347D01*
G54D10*
X946657Y-183666D02*
X946657Y-218347D01*
G54D10*
G75*
G01X931098Y-268199D02*
G03X853414Y-287568I-31276J-40031D01*
G01*
G54D10*
G75*
G01X919122Y-308230D02*
G03X919122Y-308230I-19300J0D01*
G01*
G54D10*
G75*
G01X853414Y-328892D02*
G03X933150Y-346569I46408J20662D01*
G01*
G54D10*
X956922Y-298720D02*
X956922Y-317928D01*
G54D10*
X1014578Y-333688D02*
X1014578Y-308288D01*
X989178Y-308288D01*
X989178Y-333688D01*
X1014578Y-333688D01*
G54D10*
X1112360Y-265922D02*
X1095297Y-265922D01*
G54D10*
X1112360Y-300604D02*
X1095298Y-300604D01*
G54D10*
X1112360Y-265922D02*
X1112360Y-300604D01*
G54D10*
X1095297Y-265922D02*
X1095298Y-300604D01*
G54D10*
X1093360Y-265922D02*
X1076297Y-265922D01*
G54D10*
X1093360Y-300604D02*
X1076298Y-300604D01*
G54D10*
X1093360Y-265922D02*
X1093360Y-300604D01*
G54D10*
X1076297Y-265922D02*
X1076298Y-300604D01*
G54D10*
X1074360Y-265922D02*
X1057297Y-265922D01*
G54D10*
X1074360Y-300604D02*
X1057298Y-300604D01*
G54D10*
X1074360Y-265922D02*
X1074360Y-300604D01*
G54D10*
X1057297Y-265922D02*
X1057298Y-300604D01*
G54D10*
X1055360Y-265922D02*
X1038297Y-265922D01*
G54D10*
X1055360Y-300604D02*
X1038298Y-300604D01*
G54D10*
X1055360Y-265922D02*
X1055360Y-300604D01*
G54D10*
X1038297Y-265922D02*
X1038298Y-300604D01*
G54D10*
X1036360Y-265922D02*
X1019297Y-265922D01*
G54D10*
X1036360Y-300604D02*
X1019298Y-300604D01*
G54D10*
X1036360Y-265922D02*
X1036360Y-300604D01*
G54D10*
X1019297Y-265922D02*
X1019298Y-300604D01*
G54D10*
G75*
G01X1111097Y-38199D02*
G03X1033414Y-57568I-31275J-40031D01*
G01*
G54D10*
G75*
G01X1099122Y-78230D02*
G03X1099122Y-78230I-19300J0D01*
G01*
G54D10*
G75*
G01X1033414Y-98892D02*
G03X1113150Y-116569I46408J20662D01*
G01*
G54D10*
X1136922Y-68720D02*
X1136922Y-87928D01*
G54D10*
X1190648Y-51427D02*
X1190648Y-34364D01*
G54D10*
X1155967Y-51427D02*
X1155966Y-34364D01*
G54D10*
X1190648Y-51427D02*
X1155967Y-51427D01*
G54D10*
X1190648Y-34364D02*
X1155966Y-34364D01*
G54D10*
X1022391Y-337916D02*
X1033366Y-337916D01*
X1033366Y-309616D01*
X1022391Y-309616D01*
X1022391Y-337916D01*
G54D10*
X1041391Y-337916D02*
X1052366Y-337916D01*
X1052366Y-309616D01*
X1041391Y-309616D01*
X1041391Y-337916D01*
G54D10*
X1060391Y-337916D02*
X1071366Y-337916D01*
X1071366Y-309616D01*
X1060391Y-309616D01*
X1060391Y-337916D01*
G54D10*
X1079391Y-337916D02*
X1090366Y-337916D01*
X1090366Y-309616D01*
X1079391Y-309616D01*
X1079391Y-337916D01*
G54D10*
X1098391Y-337916D02*
X1109366Y-337916D01*
X1109366Y-309616D01*
X1098391Y-309616D01*
X1098391Y-337916D01*
G54D10*
X1250420Y-183666D02*
X1233357Y-183666D01*
G54D10*
X1250420Y-218347D02*
X1233357Y-218347D01*
G54D10*
X1250420Y-183666D02*
X1250420Y-218347D01*
G54D10*
X1233357Y-183666D02*
X1233357Y-218347D01*
G54D10*
G75*
G01X1217797Y-268199D02*
G03X1140114Y-287568I-31275J-40031D01*
G01*
G54D10*
G75*
G01X1205822Y-308230D02*
G03X1205822Y-308230I-19300J0D01*
G01*
G54D10*
G75*
G01X1140114Y-328892D02*
G03X1219850Y-346569I46408J20662D01*
G01*
G54D10*
X1243622Y-298720D02*
X1243621Y-317928D01*
G54D10*
X1351801Y-208700D02*
X1351801Y-191638D01*
G54D10*
X1317120Y-208700D02*
X1317120Y-191638D01*
G54D10*
X1351801Y-208700D02*
X1317120Y-208700D01*
G54D10*
X1351801Y-191638D02*
X1317120Y-191638D01*
G54D11*
X1295900Y-71350D02*
X1330825Y-71350D01*
X1330825Y-106275D01*
X1295900Y-106275D01*
X1295900Y-71350D01*
G54D11*
X1295900Y-114850D02*
X1330825Y-114850D01*
X1330825Y-149775D01*
X1295900Y-149775D01*
X1295900Y-114850D01*
G54D10*
G75*
G01X1242985Y-93595D02*
G03X1242985Y-93595I-28600J0D01*
G01*
G54D10*
X1230285Y-80895D02*
X1236585Y-80895D01*
G54D10*
X1233485Y-84095D02*
X1233485Y-77695D01*
G54D12*
X1238340Y-73295D02*
X1254340Y-73295D01*
G54D12*
X1246340Y-79961D02*
X1246340Y-66628D01*
G54D10*
X1296373Y-62098D02*
X1296373Y-43098D01*
X1258373Y-43098D01*
X1258373Y-62098D01*
X1296373Y-62098D01*
G54D10*
X1296473Y-52598D02*
X1323773Y-52598D01*
G54D10*
X1230973Y-52598D02*
X1258273Y-52598D01*
G54D10*
G75*
G01X1338600Y-242300D02*
G03X1338600Y-242300I-28600J0D01*
G01*
G54D10*
X1325900Y-229600D02*
X1332200Y-229600D01*
G54D10*
X1329100Y-232800D02*
X1329100Y-226400D01*
G54D12*
X1284407Y-205005D02*
X1300407Y-205005D01*
G54D12*
X1292407Y-211672D02*
X1292407Y-198338D01*
G54D10*
X1303713Y-279142D02*
X1293713Y-279142D01*
X1293713Y-280892D01*
G54D10*
X1303713Y-297542D02*
X1293713Y-297542D01*
X1293713Y-295792D01*
G54D10*
X1313213Y-297542D02*
X1323213Y-297542D01*
X1323213Y-295792D01*
G54D10*
X1313213Y-279142D02*
X1323213Y-279142D01*
X1323213Y-280892D01*
G54D13*
X1366166Y-113495D02*
X1366166Y-102828D01*
G54D13*
X1370611Y-108161D02*
X1361722Y-108161D01*
G54D13*
X1369500Y-97939D02*
X1376166Y-91272D01*
X1358389Y-91272D01*
G54D13*
X1358389Y-75716D02*
X1358389Y-86383D01*
X1359500Y-86383D01*
X1361722Y-85049D01*
X1368389Y-77049D01*
X1370611Y-75716D01*
X1372833Y-75716D01*
X1375055Y-77049D01*
X1376166Y-79716D01*
X1376166Y-82383D01*
X1375055Y-85049D01*
X1372833Y-86383D01*
G54D13*
X1376166Y-70827D02*
X1358389Y-64160D01*
X1376166Y-57493D01*
G54D13*
X1265418Y-167990D02*
X1265418Y-157323D01*
G54D13*
X1268751Y-152434D02*
X1275418Y-145767D01*
X1257640Y-145767D01*
G54D13*
X1257640Y-130211D02*
X1257640Y-140878D01*
X1258751Y-140878D01*
X1260973Y-139544D01*
X1267640Y-131544D01*
X1269862Y-130211D01*
X1272084Y-130211D01*
X1274306Y-131544D01*
X1275418Y-134211D01*
X1275418Y-136878D01*
X1274306Y-139544D01*
X1272084Y-140878D01*
G54D13*
X1275418Y-125322D02*
X1257640Y-118655D01*
X1275418Y-111988D01*
G54D14*
X1353283Y-87430D02*
X1336022Y-90131D01*
G54D14*
X1278932Y-129870D02*
X1292366Y-132093D01*
G54D10*
X1354870Y-296960D02*
X1379869Y-296960D01*
X1379869Y-366660D01*
X1354869Y-366660D01*
G54D10*
X1303713Y-301142D02*
X1293713Y-301142D01*
X1293713Y-302892D01*
G54D10*
X1303713Y-319542D02*
X1293713Y-319542D01*
X1293713Y-317792D01*
G54D10*
X1313213Y-319542D02*
X1323213Y-319542D01*
X1323213Y-317792D01*
G54D10*
X1313213Y-301142D02*
X1323213Y-301142D01*
X1323213Y-302892D01*
G54D10*
X1303713Y-322142D02*
X1293713Y-322142D01*
X1293713Y-323892D01*
G54D10*
X1303713Y-340542D02*
X1293713Y-340542D01*
X1293713Y-338792D01*
G54D10*
X1313213Y-340542D02*
X1323213Y-340542D01*
X1323213Y-338792D01*
G54D10*
X1313213Y-322142D02*
X1323213Y-322142D01*
X1323213Y-323892D01*
G54D10*
X1303713Y-344142D02*
X1293713Y-344142D01*
X1293713Y-345892D01*
G54D10*
X1303713Y-362542D02*
X1293713Y-362542D01*
X1293713Y-360792D01*
G54D10*
X1313213Y-362542D02*
X1323213Y-362542D01*
X1323213Y-360792D01*
G54D10*
X1313213Y-344142D02*
X1323213Y-344142D01*
X1323213Y-345892D01*
G54D10*
X1303713Y-366142D02*
X1293713Y-366142D01*
X1293713Y-367892D01*
G54D10*
X1303713Y-384542D02*
X1293713Y-384542D01*
X1293713Y-382792D01*
G54D10*
X1313213Y-384542D02*
X1323213Y-384542D01*
X1323213Y-382792D01*
G54D10*
X1313213Y-366142D02*
X1323213Y-366142D01*
X1323213Y-367892D01*
G54D15*
G75*
G01X1377721Y-283067D02*
G03X1377721Y-283067I-7000J0D01*
G01*
G36*
G75*
G01X1377721Y-283067D02*
G03X1377721Y-283067I-7000J0D01*
G01*
G37*
X1377721Y-283067D01*
G54D12*
X200150Y-354983D02*
X200150Y-381650D01*
X186150Y-381650D01*
G54D12*
X162817Y-376650D02*
X164817Y-379983D01*
X168817Y-381650D01*
X172817Y-381650D01*
X176817Y-379983D01*
X178817Y-376650D01*
X178817Y-359983D01*
X176817Y-356650D01*
X172817Y-354983D01*
X168817Y-354983D01*
X164817Y-356650D01*
X162817Y-359983D01*
G54D12*
X143751Y-381650D02*
X143751Y-356650D01*
X141751Y-354983D01*
X139751Y-355983D01*
G54D12*
X147751Y-366650D02*
X139751Y-366650D01*
G54D12*
X132418Y-381650D02*
X132418Y-366650D01*
G54D12*
X132418Y-361650D02*
X132418Y-361650D01*
G54D12*
X125085Y-381650D02*
X125085Y-354983D01*
G54D12*
X113752Y-354983D02*
X113752Y-379983D01*
X111752Y-381650D01*
X109752Y-380983D01*
G54D12*
X117752Y-366650D02*
X109752Y-366650D01*
G54D12*
X90419Y-379983D02*
X93619Y-381650D01*
X97619Y-381650D01*
X101619Y-379983D01*
X102419Y-376650D01*
X102419Y-370983D01*
X100419Y-367650D01*
X96419Y-366650D01*
X92419Y-367650D01*
X90419Y-369983D01*
X90419Y-373317D01*
X102419Y-373317D01*
G54D12*
X83086Y-381650D02*
X83086Y-366650D01*
G54D12*
X83086Y-369983D02*
X79086Y-366650D01*
X75086Y-366650D01*
G54D12*
X60020Y-366650D02*
X52020Y-381650D01*
X44020Y-366650D01*
G54D12*
X36687Y-376650D02*
X34687Y-379983D01*
X30687Y-381650D01*
X26687Y-381650D01*
X22687Y-379983D01*
X20687Y-376650D01*
X20687Y-368317D01*
X20687Y-366650D01*
X26687Y-369983D01*
X30687Y-369983D01*
X34687Y-368317D01*
X36687Y-364983D01*
X36687Y-359983D01*
X34687Y-356650D01*
X30687Y-354983D01*
X26687Y-354983D01*
X22687Y-356650D01*
X20687Y-359983D01*
X20687Y-368317D01*
G54D13*
X115266Y-38355D02*
X108600Y-20577D01*
X101933Y-38355D01*
G54D13*
X112600Y-31688D02*
X104600Y-31688D01*
G54D13*
X97044Y-38355D02*
X97044Y-20577D01*
X90378Y-20577D01*
X87711Y-21688D01*
X86378Y-23911D01*
X86378Y-26133D01*
X87711Y-28355D01*
X90378Y-29466D01*
X87711Y-30577D01*
X86378Y-32799D01*
X86378Y-35022D01*
X87711Y-37244D01*
X90378Y-38355D01*
X97044Y-38355D01*
G54D13*
X97044Y-29466D02*
X90378Y-29466D01*
G54D13*
X65666Y-38355D02*
X76332Y-38355D01*
X76332Y-37244D01*
X74999Y-35022D01*
X66999Y-28355D01*
X65666Y-26133D01*
X65666Y-23911D01*
X66999Y-21688D01*
X69666Y-20577D01*
X72332Y-20577D01*
X74999Y-21688D01*
X76332Y-23911D01*
G54D13*
X50110Y-23911D02*
X50110Y-35022D01*
X51443Y-37244D01*
X54110Y-38355D01*
X56776Y-38355D01*
X59443Y-37244D01*
X60776Y-35022D01*
X60776Y-23911D01*
X59443Y-21688D01*
X56776Y-20577D01*
X54110Y-20577D01*
X51443Y-21688D01*
X50110Y-23911D01*
G54D13*
X34554Y-38355D02*
X45220Y-38355D01*
X45220Y-37244D01*
X43887Y-35022D01*
X35887Y-28355D01*
X34554Y-26133D01*
X34554Y-23911D01*
X35887Y-21688D01*
X38554Y-20577D01*
X41220Y-20577D01*
X43887Y-21688D01*
X45220Y-23911D01*
G54D13*
X18998Y-38355D02*
X29664Y-38355D01*
X29664Y-37244D01*
X28331Y-35022D01*
X20331Y-28355D01*
X18998Y-26133D01*
X18998Y-23911D01*
X20331Y-21688D01*
X22998Y-20577D01*
X25664Y-20577D01*
X28331Y-21688D01*
X29664Y-23911D01*
G54D13*
X230333Y-152667D02*
X231667Y-154889D01*
X234333Y-156000D01*
X237000Y-156000D01*
X239667Y-154889D01*
X241000Y-152667D01*
X241000Y-141556D01*
X239667Y-139333D01*
X237000Y-138222D01*
X234333Y-138222D01*
X231667Y-139333D01*
X230333Y-141556D01*
G54D13*
X217444Y-153333D02*
X217444Y-148889D01*
X218777Y-146667D01*
X221444Y-146000D01*
X224111Y-146667D01*
X225444Y-148889D01*
X225444Y-153333D01*
X224111Y-155556D01*
X221444Y-156000D01*
X218777Y-155556D01*
X217444Y-153333D01*
G54D13*
X212555Y-156000D02*
X212555Y-146000D01*
G54D13*
X212555Y-147778D02*
X209888Y-146000D01*
X207222Y-146667D01*
X205888Y-148222D01*
X205888Y-156000D01*
G54D13*
X205888Y-147778D02*
X203222Y-146000D01*
X200555Y-146667D01*
X199222Y-148222D01*
X199222Y-156000D01*
G54D13*
X194333Y-146000D02*
X194333Y-160444D01*
G54D13*
X194333Y-152667D02*
X193000Y-155556D01*
X190333Y-156000D01*
X187666Y-155556D01*
X186333Y-153333D01*
X186333Y-148889D01*
X187666Y-146667D01*
X190333Y-146000D01*
X193000Y-146667D01*
X194333Y-149333D01*
G54D13*
X173444Y-154889D02*
X175577Y-156000D01*
X178244Y-156000D01*
X180911Y-154889D01*
X181444Y-152667D01*
X181444Y-148889D01*
X180111Y-146667D01*
X177444Y-146000D01*
X174777Y-146667D01*
X173444Y-148222D01*
X173444Y-150444D01*
X181444Y-150444D01*
G54D13*
X168555Y-156000D02*
X168555Y-146000D01*
G54D13*
X168555Y-148222D02*
X167222Y-146667D01*
X164555Y-146000D01*
X161888Y-146667D01*
X160555Y-148222D01*
X160555Y-156000D01*
G54D13*
X155666Y-156000D02*
X155666Y-156000D01*
G54D13*
X519333Y-153667D02*
X520667Y-155889D01*
X523333Y-157000D01*
X526000Y-157000D01*
X528667Y-155889D01*
X530000Y-153667D01*
X530000Y-142556D01*
X528667Y-140333D01*
X526000Y-139222D01*
X523333Y-139222D01*
X520667Y-140333D01*
X519333Y-142556D01*
G54D13*
X506444Y-154333D02*
X506444Y-149889D01*
X507777Y-147667D01*
X510444Y-147000D01*
X513111Y-147667D01*
X514444Y-149889D01*
X514444Y-154333D01*
X513111Y-156556D01*
X510444Y-157000D01*
X507777Y-156556D01*
X506444Y-154333D01*
G54D13*
X501555Y-157000D02*
X501555Y-147000D01*
G54D13*
X501555Y-148778D02*
X498888Y-147000D01*
X496222Y-147667D01*
X494888Y-149222D01*
X494888Y-157000D01*
G54D13*
X494888Y-148778D02*
X492222Y-147000D01*
X489555Y-147667D01*
X488222Y-149222D01*
X488222Y-157000D01*
G54D13*
X483333Y-147000D02*
X483333Y-161444D01*
G54D13*
X483333Y-153667D02*
X482000Y-156556D01*
X479333Y-157000D01*
X476666Y-156556D01*
X475333Y-154333D01*
X475333Y-149889D01*
X476666Y-147667D01*
X479333Y-147000D01*
X482000Y-147667D01*
X483333Y-150333D01*
G54D13*
X462444Y-155889D02*
X464577Y-157000D01*
X467244Y-157000D01*
X469911Y-155889D01*
X470444Y-153667D01*
X470444Y-149889D01*
X469111Y-147667D01*
X466444Y-147000D01*
X463777Y-147667D01*
X462444Y-149222D01*
X462444Y-151444D01*
X470444Y-151444D01*
G54D13*
X457555Y-157000D02*
X457555Y-147000D01*
G54D13*
X457555Y-149222D02*
X456222Y-147667D01*
X453555Y-147000D01*
X450888Y-147667D01*
X449555Y-149222D01*
X449555Y-157000D01*
G54D13*
X444666Y-157000D02*
X444666Y-157000D01*
G54D13*
X807333Y-153667D02*
X808667Y-155889D01*
X811333Y-157000D01*
X814000Y-157000D01*
X816667Y-155889D01*
X818000Y-153667D01*
X818000Y-142556D01*
X816667Y-140333D01*
X814000Y-139222D01*
X811333Y-139222D01*
X808667Y-140333D01*
X807333Y-142556D01*
G54D13*
X794444Y-154333D02*
X794444Y-149889D01*
X795777Y-147667D01*
X798444Y-147000D01*
X801111Y-147667D01*
X802444Y-149889D01*
X802444Y-154333D01*
X801111Y-156556D01*
X798444Y-157000D01*
X795777Y-156556D01*
X794444Y-154333D01*
G54D13*
X789555Y-157000D02*
X789555Y-147000D01*
G54D13*
X789555Y-148778D02*
X786888Y-147000D01*
X784222Y-147667D01*
X782888Y-149222D01*
X782888Y-157000D01*
G54D13*
X782888Y-148778D02*
X780222Y-147000D01*
X777555Y-147667D01*
X776222Y-149222D01*
X776222Y-157000D01*
G54D13*
X771333Y-147000D02*
X771333Y-161444D01*
G54D13*
X771333Y-153667D02*
X770000Y-156556D01*
X767333Y-157000D01*
X764666Y-156556D01*
X763333Y-154333D01*
X763333Y-149889D01*
X764666Y-147667D01*
X767333Y-147000D01*
X770000Y-147667D01*
X771333Y-150333D01*
G54D13*
X750444Y-155889D02*
X752577Y-157000D01*
X755244Y-157000D01*
X757911Y-155889D01*
X758444Y-153667D01*
X758444Y-149889D01*
X757111Y-147667D01*
X754444Y-147000D01*
X751777Y-147667D01*
X750444Y-149222D01*
X750444Y-151444D01*
X758444Y-151444D01*
G54D13*
X745555Y-157000D02*
X745555Y-147000D01*
G54D13*
X745555Y-149222D02*
X744222Y-147667D01*
X741555Y-147000D01*
X738888Y-147667D01*
X737555Y-149222D01*
X737555Y-157000D01*
G54D13*
X732666Y-157000D02*
X732666Y-157000D01*
G54D13*
X1091333Y-154667D02*
X1092667Y-156889D01*
X1095333Y-158000D01*
X1098000Y-158000D01*
X1100667Y-156889D01*
X1102000Y-154667D01*
X1102000Y-143556D01*
X1100667Y-141333D01*
X1098000Y-140222D01*
X1095333Y-140222D01*
X1092667Y-141333D01*
X1091333Y-143556D01*
G54D13*
X1078444Y-155333D02*
X1078444Y-150889D01*
X1079777Y-148667D01*
X1082444Y-148000D01*
X1085111Y-148667D01*
X1086444Y-150889D01*
X1086444Y-155333D01*
X1085111Y-157556D01*
X1082444Y-158000D01*
X1079777Y-157556D01*
X1078444Y-155333D01*
G54D13*
X1073555Y-158000D02*
X1073555Y-148000D01*
G54D13*
X1073555Y-149778D02*
X1070888Y-148000D01*
X1068222Y-148667D01*
X1066888Y-150222D01*
X1066888Y-158000D01*
G54D13*
X1066888Y-149778D02*
X1064222Y-148000D01*
X1061555Y-148667D01*
X1060222Y-150222D01*
X1060222Y-158000D01*
G54D13*
X1055333Y-148000D02*
X1055333Y-162444D01*
G54D13*
X1055333Y-154667D02*
X1054000Y-157556D01*
X1051333Y-158000D01*
X1048666Y-157556D01*
X1047333Y-155333D01*
X1047333Y-150889D01*
X1048666Y-148667D01*
X1051333Y-148000D01*
X1054000Y-148667D01*
X1055333Y-151333D01*
G54D13*
X1034444Y-156889D02*
X1036577Y-158000D01*
X1039244Y-158000D01*
X1041911Y-156889D01*
X1042444Y-154667D01*
X1042444Y-150889D01*
X1041111Y-148667D01*
X1038444Y-148000D01*
X1035777Y-148667D01*
X1034444Y-150222D01*
X1034444Y-152444D01*
X1042444Y-152444D01*
G54D13*
X1029555Y-158000D02*
X1029555Y-148000D01*
G54D13*
X1029555Y-150222D02*
X1028222Y-148667D01*
X1025555Y-148000D01*
X1022888Y-148667D01*
X1021555Y-150222D01*
X1021555Y-158000D01*
G54D13*
X1016666Y-158000D02*
X1016666Y-158000D01*
G54D13*
X341667Y-371111D02*
X336333Y-371111D01*
X336333Y-376667D01*
X337667Y-378889D01*
X340333Y-380000D01*
X343000Y-380000D01*
X345667Y-378889D01*
X347000Y-376667D01*
X347000Y-365556D01*
X345667Y-363333D01*
X343000Y-362222D01*
X340333Y-362222D01*
X337667Y-363333D01*
X336333Y-365556D01*
G54D13*
X331444Y-371111D02*
X328777Y-370000D01*
X325577Y-370000D01*
X323444Y-372222D01*
X323444Y-380000D01*
G54D13*
X323444Y-376667D02*
X324777Y-374444D01*
X327444Y-374000D01*
X330111Y-374444D01*
X331444Y-376667D01*
X330911Y-378889D01*
X328777Y-380000D01*
X327444Y-380000D01*
X326911Y-380000D01*
X324777Y-378889D01*
X323444Y-376667D01*
G54D13*
X318555Y-380000D02*
X318555Y-370000D01*
G54D13*
X318555Y-366667D02*
X318555Y-366667D01*
G54D13*
X313666Y-380000D02*
X313666Y-370000D01*
G54D13*
X313666Y-372222D02*
X312333Y-370667D01*
X309666Y-370000D01*
X306999Y-370667D01*
X305666Y-372222D01*
X305666Y-380000D01*
G54D13*
X631667Y-371111D02*
X626333Y-371111D01*
X626333Y-376667D01*
X627667Y-378889D01*
X630333Y-380000D01*
X633000Y-380000D01*
X635667Y-378889D01*
X637000Y-376667D01*
X637000Y-365556D01*
X635667Y-363333D01*
X633000Y-362222D01*
X630333Y-362222D01*
X627667Y-363333D01*
X626333Y-365556D01*
G54D13*
X621444Y-371111D02*
X618777Y-370000D01*
X615577Y-370000D01*
X613444Y-372222D01*
X613444Y-380000D01*
G54D13*
X613444Y-376667D02*
X614777Y-374444D01*
X617444Y-374000D01*
X620111Y-374444D01*
X621444Y-376667D01*
X620911Y-378889D01*
X618777Y-380000D01*
X617444Y-380000D01*
X616911Y-380000D01*
X614777Y-378889D01*
X613444Y-376667D01*
G54D13*
X608555Y-380000D02*
X608555Y-370000D01*
G54D13*
X608555Y-366667D02*
X608555Y-366667D01*
G54D13*
X603666Y-380000D02*
X603666Y-370000D01*
G54D13*
X603666Y-372222D02*
X602333Y-370667D01*
X599666Y-370000D01*
X596999Y-370667D01*
X595666Y-372222D01*
X595666Y-380000D01*
G54D13*
X916667Y-371111D02*
X911333Y-371111D01*
X911333Y-376667D01*
X912667Y-378889D01*
X915333Y-380000D01*
X918000Y-380000D01*
X920667Y-378889D01*
X922000Y-376667D01*
X922000Y-365556D01*
X920667Y-363333D01*
X918000Y-362222D01*
X915333Y-362222D01*
X912667Y-363333D01*
X911333Y-365556D01*
G54D13*
X906444Y-371111D02*
X903777Y-370000D01*
X900577Y-370000D01*
X898444Y-372222D01*
X898444Y-380000D01*
G54D13*
X898444Y-376667D02*
X899777Y-374444D01*
X902444Y-374000D01*
X905111Y-374444D01*
X906444Y-376667D01*
X905911Y-378889D01*
X903777Y-380000D01*
X902444Y-380000D01*
X901911Y-380000D01*
X899777Y-378889D01*
X898444Y-376667D01*
G54D13*
X893555Y-380000D02*
X893555Y-370000D01*
G54D13*
X893555Y-366667D02*
X893555Y-366667D01*
G54D13*
X888666Y-380000D02*
X888666Y-370000D01*
G54D13*
X888666Y-372222D02*
X887333Y-370667D01*
X884666Y-370000D01*
X881999Y-370667D01*
X880666Y-372222D01*
X880666Y-380000D01*
G54D13*
X1199667Y-371111D02*
X1194333Y-371111D01*
X1194333Y-376667D01*
X1195667Y-378889D01*
X1198333Y-380000D01*
X1201000Y-380000D01*
X1203667Y-378889D01*
X1205000Y-376667D01*
X1205000Y-365556D01*
X1203667Y-363333D01*
X1201000Y-362222D01*
X1198333Y-362222D01*
X1195667Y-363333D01*
X1194333Y-365556D01*
G54D13*
X1189444Y-371111D02*
X1186777Y-370000D01*
X1183577Y-370000D01*
X1181444Y-372222D01*
X1181444Y-380000D01*
G54D13*
X1181444Y-376667D02*
X1182777Y-374444D01*
X1185444Y-374000D01*
X1188111Y-374444D01*
X1189444Y-376667D01*
X1188911Y-378889D01*
X1186777Y-380000D01*
X1185444Y-380000D01*
X1184911Y-380000D01*
X1182777Y-378889D01*
X1181444Y-376667D01*
G54D13*
X1176555Y-380000D02*
X1176555Y-370000D01*
G54D13*
X1176555Y-366667D02*
X1176555Y-366667D01*
G54D13*
X1171666Y-380000D02*
X1171666Y-370000D01*
G54D13*
X1171666Y-372222D02*
X1170333Y-370667D01*
X1167666Y-370000D01*
X1164999Y-370667D01*
X1163666Y-372222D01*
X1163666Y-380000D01*
G54D13*
X146983Y-269043D02*
X129205Y-269043D01*
G54D13*
X129205Y-263710D02*
X129205Y-274376D01*
G54D13*
X146983Y-279266D02*
X129205Y-279266D01*
X129205Y-285932D01*
X130316Y-288599D01*
X132538Y-289932D01*
X134760Y-289932D01*
X136983Y-288599D01*
X138094Y-285932D01*
X138094Y-279266D01*
G54D13*
X135871Y-294822D02*
X129205Y-301488D01*
X146983Y-301488D01*
G54D13*
X436246Y-265809D02*
X418469Y-265809D01*
G54D13*
X418469Y-260476D02*
X418469Y-271143D01*
G54D13*
X436246Y-276032D02*
X418469Y-276032D01*
X418469Y-282699D01*
X419580Y-285365D01*
X421802Y-286699D01*
X424024Y-286699D01*
X426246Y-285365D01*
X427358Y-282699D01*
X427358Y-276032D01*
G54D13*
X436246Y-302255D02*
X436246Y-291588D01*
X435135Y-291588D01*
X432913Y-292921D01*
X426246Y-300921D01*
X424024Y-302255D01*
X421802Y-302255D01*
X419580Y-300921D01*
X418469Y-298255D01*
X418469Y-295588D01*
X419580Y-292921D01*
X421802Y-291588D01*
G54D13*
X724069Y-266695D02*
X706291Y-266695D01*
G54D13*
X706291Y-261361D02*
X706291Y-272028D01*
G54D13*
X724069Y-276917D02*
X706291Y-276917D01*
X706291Y-283584D01*
X707402Y-286251D01*
X709624Y-287584D01*
X711847Y-287584D01*
X714069Y-286251D01*
X715180Y-283584D01*
X715180Y-276917D01*
G54D13*
X709624Y-292473D02*
X707402Y-293807D01*
X706291Y-296473D01*
X706291Y-299140D01*
X707402Y-301807D01*
X709624Y-303140D01*
X711847Y-303140D01*
X714069Y-301807D01*
X715180Y-299140D01*
X716291Y-301807D01*
X718513Y-303140D01*
X720735Y-303140D01*
X722958Y-301807D01*
X724069Y-299140D01*
X724069Y-296473D01*
X722958Y-293807D01*
X720735Y-292473D01*
G54D13*
X1012055Y-267834D02*
X994277Y-267834D01*
G54D13*
X994277Y-262500D02*
X994277Y-273167D01*
G54D13*
X1012055Y-278056D02*
X994277Y-278056D01*
X994277Y-284723D01*
X995388Y-287390D01*
X997610Y-288723D01*
X999832Y-288723D01*
X1002055Y-287390D01*
X1003166Y-284723D01*
X1003166Y-278056D01*
G54D13*
X1012055Y-301612D02*
X994277Y-301612D01*
X1005388Y-293612D01*
X1007610Y-293612D01*
X1007610Y-304279D01*
G54D14*
X398000Y-20000D02*
X398000Y-30000D01*
G54D14*
X398000Y-40000D02*
X398000Y-50000D01*
G54D14*
X398000Y-60000D02*
X398000Y-70000D01*
G54D14*
X398000Y-80000D02*
X398000Y-90000D01*
G54D14*
X398000Y-100000D02*
X398000Y-110000D01*
G54D14*
X398000Y-120000D02*
X398000Y-130000D01*
G54D14*
X398000Y-140000D02*
X398000Y-150000D01*
G54D14*
X398000Y-160000D02*
X398000Y-170000D01*
G54D14*
X398000Y-180000D02*
X398000Y-190000D01*
G54D14*
X398000Y-200000D02*
X398000Y-210000D01*
G54D14*
X398000Y-220000D02*
X398000Y-230000D01*
G54D14*
X398000Y-240000D02*
X398000Y-250000D01*
G54D14*
X398000Y-260000D02*
X398000Y-270000D01*
G54D14*
X398000Y-280000D02*
X398000Y-290000D01*
G54D14*
X398000Y-300000D02*
X398000Y-310000D01*
G54D14*
X398000Y-320000D02*
X398000Y-330000D01*
G54D14*
X398000Y-340000D02*
X398000Y-350000D01*
G54D14*
X398000Y-360000D02*
X398000Y-370000D01*
G54D14*
X398000Y-380000D02*
X398000Y-390000D01*
G54D14*
X685000Y-20000D02*
X685000Y-30000D01*
G54D14*
X685000Y-40000D02*
X685000Y-50000D01*
G54D14*
X685000Y-60000D02*
X685000Y-70000D01*
G54D14*
X685000Y-80000D02*
X685000Y-90000D01*
G54D14*
X685000Y-100000D02*
X685000Y-110000D01*
G54D14*
X685000Y-120000D02*
X685000Y-130000D01*
G54D14*
X685000Y-140000D02*
X685000Y-150000D01*
G54D14*
X685000Y-160000D02*
X685000Y-170000D01*
G54D14*
X685000Y-180000D02*
X685000Y-190000D01*
G54D14*
X685000Y-200000D02*
X685000Y-210000D01*
G54D14*
X685000Y-220000D02*
X685000Y-230000D01*
G54D14*
X685000Y-240000D02*
X685000Y-250000D01*
G54D14*
X685000Y-260000D02*
X685000Y-270000D01*
G54D14*
X685000Y-280000D02*
X685000Y-290000D01*
G54D14*
X685000Y-300000D02*
X685000Y-310000D01*
G54D14*
X685000Y-320000D02*
X685000Y-330000D01*
G54D14*
X685000Y-340000D02*
X685000Y-350000D01*
G54D14*
X685000Y-360000D02*
X685000Y-370000D01*
G54D14*
X685000Y-380000D02*
X685000Y-390000D01*
G54D14*
X972000Y-20000D02*
X972000Y-30000D01*
G54D14*
X972000Y-40000D02*
X972000Y-50000D01*
G54D14*
X972000Y-60000D02*
X972000Y-70000D01*
G54D14*
X972000Y-80000D02*
X972000Y-90000D01*
G54D14*
X972000Y-100000D02*
X972000Y-110000D01*
G54D14*
X972000Y-120000D02*
X972000Y-130000D01*
G54D14*
X972000Y-140000D02*
X972000Y-150000D01*
G54D14*
X972000Y-160000D02*
X972000Y-170000D01*
G54D14*
X972000Y-180000D02*
X972000Y-190000D01*
G54D14*
X972000Y-200000D02*
X972000Y-210000D01*
G54D14*
X972000Y-220000D02*
X972000Y-230000D01*
G54D14*
X972000Y-240000D02*
X972000Y-250000D01*
G54D14*
X972000Y-260000D02*
X972000Y-270000D01*
G54D14*
X972000Y-280000D02*
X972000Y-290000D01*
G54D14*
X972000Y-300000D02*
X972000Y-310000D01*
G54D14*
X972000Y-320000D02*
X972000Y-330000D01*
G54D14*
X972000Y-340000D02*
X972000Y-350000D01*
G54D14*
X972000Y-360000D02*
X972000Y-370000D01*
G54D14*
X972000Y-380000D02*
X972000Y-390000D01*
G54D16*
X220000Y-187778D02*
X206667Y-174444D01*
X206667Y-210000D01*
G54D16*
X483667Y-210000D02*
X505000Y-210000D01*
X505000Y-207778D01*
X502333Y-203333D01*
X486333Y-190000D01*
X483667Y-185556D01*
X483667Y-181111D01*
X486333Y-176667D01*
X491667Y-174444D01*
X497000Y-174444D01*
X502333Y-176667D01*
X505000Y-181111D01*
G54D16*
X794000Y-181111D02*
X791333Y-176667D01*
X786000Y-174444D01*
X780667Y-174444D01*
X775333Y-176667D01*
X772667Y-181111D01*
X772667Y-185556D01*
X775333Y-190000D01*
X780667Y-192222D01*
X775333Y-194444D01*
X772667Y-198889D01*
X772667Y-203333D01*
X775333Y-207778D01*
X780667Y-210000D01*
X786000Y-210000D01*
X791333Y-207778D01*
X794000Y-203333D01*
G54D16*
X1064000Y-210000D02*
X1064000Y-174444D01*
X1080000Y-196667D01*
X1080000Y-201111D01*
X1058667Y-201111D01*
G54D13*
X40000Y-240000D02*
X40000Y-222222D01*
G54D13*
X35111Y-240000D02*
X35111Y-222222D01*
X24444Y-240000D01*
X24444Y-222222D01*
G54D13*
X1373742Y-221531D02*
X1373742Y-232642D01*
X1375076Y-234864D01*
X1377742Y-235975D01*
X1380409Y-235975D01*
X1383076Y-234864D01*
X1384409Y-232642D01*
X1384409Y-221531D01*
X1383076Y-219308D01*
X1380409Y-218197D01*
X1377742Y-218197D01*
X1375076Y-219308D01*
X1373742Y-221531D01*
G54D13*
X1368853Y-218197D02*
X1368853Y-232642D01*
X1367520Y-234864D01*
X1364853Y-235975D01*
X1362186Y-235975D01*
X1359520Y-234864D01*
X1358186Y-232642D01*
X1358186Y-218197D01*
G54D13*
X1347964Y-235975D02*
X1347964Y-218197D01*
G54D13*
X1353297Y-218197D02*
X1342630Y-218197D01*
G54D13*
X269000Y-379000D02*
X269000Y-369000D01*
G54D13*
X269000Y-371222D02*
X267667Y-369667D01*
X265000Y-369000D01*
X262333Y-369667D01*
X261000Y-371222D01*
X261000Y-379000D01*
G54D13*
X248111Y-376333D02*
X248111Y-371889D01*
X249444Y-369667D01*
X252111Y-369000D01*
X254778Y-369667D01*
X256111Y-371889D01*
X256111Y-376333D01*
X254778Y-378556D01*
X252111Y-379000D01*
X249444Y-378556D01*
X248111Y-376333D01*
G54D13*
X243222Y-379000D02*
X243222Y-369000D01*
G54D13*
X243222Y-371222D02*
X240555Y-369000D01*
X237889Y-369000D01*
G54D13*
X233000Y-379000D02*
X233000Y-369000D01*
G54D13*
X233000Y-370778D02*
X230333Y-369000D01*
X227667Y-369667D01*
X226333Y-371222D01*
X226333Y-379000D01*
G54D13*
X226333Y-370778D02*
X223667Y-369000D01*
X221000Y-369667D01*
X219667Y-371222D01*
X219667Y-379000D01*
G54D13*
X840000Y-377000D02*
X840000Y-367000D01*
G54D13*
X840000Y-369222D02*
X838667Y-367667D01*
X836000Y-367000D01*
X833333Y-367667D01*
X832000Y-369222D01*
X832000Y-377000D01*
G54D13*
X819111Y-374333D02*
X819111Y-369889D01*
X820444Y-367667D01*
X823111Y-367000D01*
X825778Y-367667D01*
X827111Y-369889D01*
X827111Y-374333D01*
X825778Y-376556D01*
X823111Y-377000D01*
X820444Y-376556D01*
X819111Y-374333D01*
G54D13*
X814222Y-377000D02*
X814222Y-367000D01*
G54D13*
X814222Y-369222D02*
X811555Y-367000D01*
X808889Y-367000D01*
G54D13*
X804000Y-377000D02*
X804000Y-367000D01*
G54D13*
X804000Y-368778D02*
X801333Y-367000D01*
X798667Y-367667D01*
X797333Y-369222D01*
X797333Y-377000D01*
G54D13*
X797333Y-368778D02*
X794667Y-367000D01*
X792000Y-367667D01*
X790667Y-369222D01*
X790667Y-377000D01*
G54D13*
X1127000Y-379000D02*
X1127000Y-369000D01*
G54D13*
X1127000Y-371222D02*
X1125667Y-369667D01*
X1123000Y-369000D01*
X1120333Y-369667D01*
X1119000Y-371222D01*
X1119000Y-379000D01*
G54D13*
X1106111Y-376333D02*
X1106111Y-371889D01*
X1107444Y-369667D01*
X1110111Y-369000D01*
X1112778Y-369667D01*
X1114111Y-371889D01*
X1114111Y-376333D01*
X1112778Y-378556D01*
X1110111Y-379000D01*
X1107444Y-378556D01*
X1106111Y-376333D01*
G54D13*
X1101222Y-379000D02*
X1101222Y-369000D01*
G54D13*
X1101222Y-371222D02*
X1098555Y-369000D01*
X1095889Y-369000D01*
G54D13*
X1091000Y-379000D02*
X1091000Y-369000D01*
G54D13*
X1091000Y-370778D02*
X1088333Y-369000D01*
X1085667Y-369667D01*
X1084333Y-371222D01*
X1084333Y-379000D01*
G54D13*
X1084333Y-370778D02*
X1081667Y-369000D01*
X1079000Y-369667D01*
X1077667Y-371222D01*
X1077667Y-379000D01*
G54D13*
X554000Y-379000D02*
X554000Y-369000D01*
G54D13*
X554000Y-371222D02*
X552667Y-369667D01*
X550000Y-369000D01*
X547333Y-369667D01*
X546000Y-371222D01*
X546000Y-379000D01*
G54D13*
X533111Y-376333D02*
X533111Y-371889D01*
X534444Y-369667D01*
X537111Y-369000D01*
X539778Y-369667D01*
X541111Y-371889D01*
X541111Y-376333D01*
X539778Y-378556D01*
X537111Y-379000D01*
X534444Y-378556D01*
X533111Y-376333D01*
G54D13*
X528222Y-379000D02*
X528222Y-369000D01*
G54D13*
X528222Y-371222D02*
X525555Y-369000D01*
X522889Y-369000D01*
G54D13*
X518000Y-379000D02*
X518000Y-369000D01*
G54D13*
X518000Y-370778D02*
X515333Y-369000D01*
X512667Y-369667D01*
X511333Y-371222D01*
X511333Y-379000D01*
G54D13*
X511333Y-370778D02*
X508667Y-369000D01*
X506000Y-369667D01*
X504667Y-371222D01*
X504667Y-379000D01*
G54D10*
X235964Y-339699D02*
X251964Y-339699D01*
X251964Y-362699D01*
X235964Y-362699D01*
X235964Y-339699D01*
G54D10*
X522867Y-339916D02*
X538867Y-339916D01*
X538867Y-362916D01*
X522867Y-362916D01*
X522867Y-339916D01*
G54D10*
X809267Y-339716D02*
X825267Y-339716D01*
X825267Y-362716D01*
X809267Y-362716D01*
X809267Y-339716D01*
G54D10*
X1096067Y-339716D02*
X1112067Y-339716D01*
X1112067Y-362716D01*
X1096067Y-362716D01*
X1096067Y-339716D01*
G54D10*
X582409Y-53512D02*
X582409Y-70574D01*
G54D10*
X617091Y-53512D02*
X617091Y-70574D01*
G54D10*
X582409Y-53512D02*
X617091Y-53512D01*
G54D10*
X582409Y-70574D02*
X617091Y-70574D01*
G54D10*
X869109Y-53512D02*
X869109Y-70574D01*
G54D10*
X903790Y-53512D02*
X903790Y-70574D01*
G54D10*
X869109Y-53512D02*
X903790Y-53512D01*
G54D10*
X869109Y-70574D02*
X903790Y-70574D01*
G54D10*
X1155809Y-53512D02*
X1155809Y-70574D01*
G54D10*
X1190490Y-53512D02*
X1190490Y-70574D01*
G54D10*
X1155809Y-53512D02*
X1190490Y-53512D01*
G54D10*
X1155809Y-70574D02*
X1190490Y-70574D01*
G54D10*
X608678Y-240988D02*
X639678Y-240988D01*
X639678Y-140988D01*
X608678Y-140988D01*
G54D10*
X570678Y-140988D02*
X539678Y-140988D01*
X539678Y-240988D01*
X570678Y-240988D01*
G54D10*
X895378Y-240988D02*
X926378Y-240988D01*
X926378Y-140988D01*
X895378Y-140988D01*
G54D10*
X857378Y-140988D02*
X826378Y-140988D01*
X826378Y-240988D01*
X857378Y-240988D01*
G54D10*
X1182078Y-240988D02*
X1213078Y-240988D01*
X1213078Y-140988D01*
X1182078Y-140988D01*
G54D10*
X1144078Y-140988D02*
X1113078Y-140988D01*
X1113078Y-240988D01*
X1144078Y-240988D01*
M02*
