%FSLAX34Y34*%
%MOMM*%
%LNSILK_TOP*%
G71*
G01*
%ADD10C,0.150*%
%ADD11C,0.222*%
%ADD12C,0.167*%
%ADD13C,0.400*%
%LPD*%
G54D10*
X304584Y-127422D02*
X304584Y-67622D01*
X363984Y-67622D01*
X363984Y-127422D01*
X304584Y-127422D01*
G54D10*
G75*
G01X311784Y-122422D02*
G03X311784Y-122422I-2400J0D01*
G01*
G54D10*
X259734Y-61341D02*
X242672Y-61341D01*
G54D10*
X259734Y-26660D02*
X242672Y-26660D01*
G54D10*
X259734Y-61341D02*
X259734Y-26660D01*
G54D10*
X242672Y-61341D02*
X242672Y-26660D01*
G54D10*
X262892Y-56183D02*
X273867Y-56183D01*
X273867Y-27883D01*
X262892Y-27883D01*
X262892Y-56183D01*
G54D10*
X422362Y-135150D02*
X433338Y-135150D01*
X433338Y-106850D01*
X422362Y-106850D01*
X422362Y-135150D01*
G54D10*
X422362Y-78550D02*
X433338Y-78550D01*
X433338Y-106850D01*
X422362Y-106850D01*
X422362Y-78550D01*
G54D10*
X456100Y-131431D02*
X436500Y-131431D01*
G54D10*
X456100Y-89369D02*
X436500Y-89369D01*
G54D10*
X456100Y-131431D02*
X456100Y-89369D01*
G54D10*
X436500Y-131431D02*
X436500Y-89369D01*
G54D10*
X386734Y-80991D02*
X369672Y-80991D01*
G54D10*
X386734Y-46310D02*
X369672Y-46310D01*
G54D10*
X386734Y-80991D02*
X386734Y-46310D01*
G54D10*
X369672Y-80991D02*
X369672Y-46310D01*
G54D10*
X325818Y-27984D02*
X314842Y-27984D01*
X314842Y-56284D01*
X325818Y-56284D01*
X325818Y-27984D01*
G54D10*
X282584Y-71168D02*
X282584Y-88230D01*
G54D10*
X247903Y-71168D02*
X247903Y-88230D01*
G54D10*
X282584Y-71168D02*
X247903Y-71168D01*
G54D10*
X282584Y-88230D02*
X247903Y-88230D01*
G54D10*
X258118Y-131796D02*
X258118Y-114734D01*
G54D10*
X292800Y-131796D02*
X292799Y-114734D01*
G54D10*
X258118Y-131796D02*
X292800Y-131796D01*
G54D10*
X258118Y-114734D02*
X292799Y-114734D01*
G54D10*
X408844Y-113919D02*
X408844Y-130982D01*
G54D10*
X374162Y-113919D02*
X374162Y-130982D01*
G54D10*
X408844Y-113919D02*
X374162Y-113919D01*
G54D10*
X408844Y-130982D02*
X374162Y-130982D01*
G54D10*
X344734Y-175091D02*
X327672Y-175091D01*
G54D10*
X344734Y-140410D02*
X327672Y-140410D01*
G54D10*
X344734Y-175091D02*
X344734Y-140410D01*
G54D10*
X327672Y-175091D02*
X327672Y-140410D01*
G54D10*
X420453Y-173441D02*
X420453Y-162466D01*
X392153Y-162466D01*
X392153Y-173441D01*
X420453Y-173441D01*
G54D10*
X370484Y-175191D02*
X353422Y-175191D01*
G54D10*
X370484Y-140510D02*
X353422Y-140510D01*
G54D10*
X370484Y-175191D02*
X370484Y-140510D01*
G54D10*
X353422Y-175191D02*
X353422Y-140510D01*
G54D10*
X295834Y-170391D02*
X278772Y-170391D01*
G54D10*
X295834Y-135710D02*
X278772Y-135710D01*
G54D10*
X295834Y-170391D02*
X295834Y-135710D01*
G54D10*
X278772Y-170391D02*
X278772Y-135710D01*
G54D10*
X507744Y-43635D02*
X508463Y-43641D01*
X508463Y-63479D01*
X489744Y-63479D01*
G54D10*
X458781Y-43635D02*
X458062Y-43641D01*
X458062Y-63479D01*
X476781Y-63479D01*
G54D10*
X545303Y-65259D02*
X562366Y-65259D01*
G54D10*
X545303Y-99941D02*
X562366Y-99940D01*
G54D10*
X545303Y-65259D02*
X545303Y-99941D01*
G54D10*
X562366Y-65259D02*
X562366Y-99940D01*
G54D10*
X510481Y-91551D02*
X542481Y-91551D01*
X542481Y-41551D01*
X510481Y-41551D01*
X510481Y-91551D01*
G54D10*
X570752Y-55426D02*
X570752Y-44451D01*
X542452Y-44451D01*
X542452Y-55426D01*
X570752Y-55426D01*
G54D10*
X570752Y-155426D02*
X570752Y-144451D01*
X542452Y-144451D01*
X542452Y-155426D01*
X570752Y-155426D01*
G54D10*
X507744Y-111635D02*
X508463Y-111641D01*
X508463Y-131479D01*
X489745Y-131479D01*
G54D10*
X458781Y-111635D02*
X458063Y-111642D01*
X458062Y-131479D01*
X476781Y-131479D01*
G54D10*
X510481Y-158551D02*
X542481Y-158551D01*
X542481Y-108551D01*
X510481Y-108551D01*
X510481Y-158551D01*
G54D10*
X507812Y-108582D02*
X507812Y-91519D01*
G54D10*
X542494Y-108582D02*
X542494Y-91519D01*
G54D10*
X507812Y-108582D02*
X542494Y-108582D01*
G54D10*
X507812Y-91519D02*
X542494Y-91519D01*
G54D10*
X562366Y-134616D02*
X545303Y-134616D01*
G54D10*
X562366Y-99934D02*
X545303Y-99935D01*
G54D10*
X562366Y-134616D02*
X562366Y-99934D01*
G54D10*
X545303Y-134616D02*
X545303Y-99935D01*
G54D10*
X458900Y-146438D02*
X458900Y-135462D01*
X430600Y-135462D01*
X430600Y-146438D01*
X458900Y-146438D01*
G54D10*
X458900Y-78438D02*
X458900Y-67462D01*
X430600Y-67462D01*
X430600Y-78438D01*
X458900Y-78438D01*
G54D10*
X364484Y-57741D02*
X347422Y-57741D01*
G54D10*
X364484Y-23060D02*
X347422Y-23060D01*
G54D10*
X364484Y-57741D02*
X364484Y-23060D01*
G54D10*
X347422Y-57741D02*
X347422Y-23060D01*
G54D10*
X345281Y-52638D02*
X328219Y-52637D01*
G54D10*
X345281Y-17956D02*
X328219Y-17956D01*
G54D10*
X345281Y-52638D02*
X345281Y-17956D01*
G54D10*
X328219Y-52637D02*
X328219Y-17956D01*
G54D10*
X293281Y-56238D02*
X276219Y-56237D01*
G54D10*
X293281Y-21556D02*
X276219Y-21556D01*
G54D10*
X293281Y-56238D02*
X293281Y-21556D01*
G54D10*
X276219Y-56237D02*
X276219Y-21556D01*
G54D10*
X312281Y-56238D02*
X295219Y-56237D01*
G54D10*
X312281Y-21556D02*
X295219Y-21556D01*
G54D10*
X312281Y-56238D02*
X312281Y-21556D01*
G54D10*
X295219Y-56237D02*
X295219Y-21556D01*
G54D10*
X156157Y-71286D02*
X121257Y-71286D01*
X121257Y-134786D01*
X156157Y-134786D01*
X156157Y-71286D01*
G54D10*
X103952Y-146029D02*
X103952Y-176029D01*
X185752Y-176029D01*
X185752Y-146029D01*
X103952Y-146029D01*
G54D10*
X115277Y-138804D02*
X121627Y-138804D01*
G54D10*
X118452Y-135629D02*
X118452Y-141979D01*
G54D10*
X232256Y-68209D02*
X200256Y-68209D01*
X200256Y-118209D01*
X232256Y-118209D01*
X232256Y-68209D01*
G54D10*
X181181Y-97393D02*
X198244Y-97393D01*
G54D10*
X181181Y-132075D02*
X198244Y-132075D01*
G54D10*
X181181Y-97393D02*
X181181Y-132075D01*
G54D10*
X198244Y-97393D02*
X198244Y-132075D01*
G54D10*
X159628Y-60941D02*
X176690Y-60941D01*
G54D10*
X159628Y-26259D02*
X176691Y-26260D01*
G54D10*
X159628Y-60941D02*
X159628Y-26259D01*
G54D10*
X176690Y-60941D02*
X176691Y-26260D01*
G54D10*
X179375Y-25169D02*
X179375Y-42231D01*
G54D10*
X214056Y-25169D02*
X214056Y-42231D01*
G54D10*
X179375Y-25169D02*
X214056Y-25169D01*
G54D10*
X179375Y-42231D02*
X214056Y-42231D01*
G54D10*
X203768Y-62592D02*
X213768Y-62592D01*
X213768Y-60842D01*
G54D10*
X203768Y-44192D02*
X213768Y-44192D01*
X213768Y-45942D01*
G54D10*
X194268Y-44192D02*
X184268Y-44192D01*
X184268Y-45942D01*
G54D10*
X194268Y-62592D02*
X184268Y-62592D01*
X184268Y-60842D01*
G54D11*
X47992Y-157571D02*
X30214Y-157571D01*
X30214Y-150904D01*
X31325Y-148238D01*
X33547Y-146904D01*
X35770Y-146904D01*
X37992Y-148238D01*
X39103Y-150904D01*
X39103Y-157571D01*
G54D11*
X30214Y-142015D02*
X47992Y-142015D01*
X47992Y-132682D01*
G54D11*
X30214Y-127793D02*
X47992Y-127793D01*
X47992Y-118460D01*
G54D11*
X30214Y-108415D02*
X47992Y-101748D01*
X30214Y-95082D01*
G54D11*
X44659Y-79526D02*
X46881Y-80860D01*
X47992Y-83526D01*
X47992Y-86193D01*
X46881Y-88860D01*
X44659Y-90193D01*
X33547Y-90193D01*
X31325Y-88860D01*
X30214Y-86193D01*
X30214Y-83526D01*
X31325Y-80860D01*
X33547Y-79526D01*
G54D11*
X33547Y-63970D02*
X44659Y-63970D01*
X46881Y-65304D01*
X47992Y-67970D01*
X47992Y-70637D01*
X46881Y-73304D01*
X44659Y-74637D01*
X33547Y-74637D01*
X31325Y-73304D01*
X30214Y-70637D01*
X30214Y-67970D01*
X31325Y-65304D01*
X33547Y-63970D01*
G54D11*
X47992Y-43258D02*
X47992Y-53925D01*
X46881Y-53925D01*
X44659Y-52592D01*
X37992Y-44592D01*
X35770Y-43258D01*
X33547Y-43258D01*
X31325Y-44592D01*
X30214Y-47258D01*
X30214Y-49925D01*
X31325Y-52592D01*
X33547Y-53925D01*
G54D12*
X225616Y-176762D02*
X227283Y-173762D01*
X228949Y-172762D01*
X232283Y-172762D01*
G54D12*
X232283Y-180762D02*
X218949Y-180762D01*
X218949Y-175762D01*
X219783Y-173762D01*
X221449Y-172762D01*
X223116Y-172762D01*
X224783Y-173762D01*
X225616Y-175762D01*
X225616Y-180762D01*
G54D12*
X232283Y-162095D02*
X232283Y-169095D01*
X218949Y-169095D01*
X218949Y-162095D01*
G54D12*
X225616Y-169095D02*
X225616Y-162095D01*
G54D12*
X232283Y-158428D02*
X218949Y-158428D01*
X218949Y-151428D01*
G54D12*
X225616Y-158428D02*
X225616Y-151428D01*
G54D12*
X232283Y-147761D02*
X232283Y-137761D01*
G54D12*
X232283Y-134094D02*
X224783Y-134094D01*
G54D12*
X222283Y-134094D02*
X222283Y-134094D01*
G54D12*
X232283Y-130427D02*
X224783Y-130427D01*
G54D12*
X226449Y-130427D02*
X225283Y-129427D01*
X224783Y-127427D01*
X225283Y-125427D01*
X226449Y-124427D01*
X232283Y-124427D01*
G54D10*
X139628Y-60941D02*
X156690Y-60941D01*
G54D10*
X139628Y-26259D02*
X156691Y-26260D01*
G54D10*
X139628Y-60941D02*
X139628Y-26259D01*
G54D10*
X156690Y-60941D02*
X156691Y-26260D01*
G54D10*
X258534Y-166391D02*
X241472Y-166391D01*
G54D10*
X258534Y-131710D02*
X241472Y-131710D01*
G54D10*
X258534Y-166391D02*
X258534Y-131710D01*
G54D10*
X241472Y-166391D02*
X241472Y-131710D01*
G54D10*
X373322Y-140316D02*
X390384Y-140316D01*
G54D10*
X373322Y-174997D02*
X390384Y-174997D01*
G54D10*
X373322Y-140316D02*
X373322Y-174997D01*
G54D10*
X390384Y-140316D02*
X390384Y-174997D01*
G54D13*
G75*
G01X310884Y-122422D02*
G03X310884Y-122422I-1500J0D01*
G01*
M02*
