; Drill file
; Format: 2.4 (00.0000)
M48
INCH
T01C0.0118
T02C0.0157
T03C0.0197
%
G05
G90
T01
X000310Y-007410
X000620Y-007630
X001060Y-007630
X001450Y-007630
X001840Y-007630
X002240Y-007630
X002630Y-007630
X003030Y-007630
X003420Y-007630
X003810Y-007630
X004210Y-007630
X004600Y-007630
X004990Y-007630
X005390Y-007630
X005780Y-007630
X006180Y-007630
X006570Y-007630
X006960Y-007630
X007360Y-007630
X007750Y-007630
X008140Y-007630
X008540Y-007630
X008860Y-007640
X009120Y-007600
X009350Y-007700
X009350Y-007470
X009180Y-007290
X009350Y-007120
X009340Y-006890
X009350Y-006640
X009350Y-006400
X009370Y-006160
X009260Y-005950
X009090Y-006470
X009100Y-006740
X009100Y-007020
X008830Y-007180
X008590Y-007190
X008360Y-007190
X008180Y-006950
X007940Y-007190
X007630Y-007190
X007310Y-007100
X007000Y-007100
X006680Y-007100
X006370Y-007100
X005310Y-007010
X004720Y-007010
X004060Y-007010
X003430Y-007010
X002640Y-007010
X001850Y-007010
X001020Y-007010
X001020Y-006540
X000310Y-006620
X000310Y-006980
X000310Y-006230
X000310Y-005840
X000310Y-005400
X000310Y-005050
X000310Y-004650
X000310Y-004260
X000310Y-003830
X000310Y-003470
X000310Y-003080
X000310Y-002690
X000310Y-002250
X000310Y-001900
X000310Y-001510
X000310Y-001110
X000310Y-000680
X000390Y-000310
X000830Y-000310
X001220Y-000310
X001610Y-000310
X002010Y-000310
X002440Y-000310
X002830Y-000310
X003230Y-000310
X003620Y-000310
X004060Y-000310
X004450Y-000310
X004840Y-000310
X005240Y-000310
X005630Y-000310
X006020Y-000310
X006420Y-000310
X006810Y-000310
X007200Y-000310
X007600Y-000310
X007990Y-000310
X008390Y-000310
X008780Y-000310
X009170Y-000310
X009570Y-000310
X009960Y-000310
X010350Y-000310
X010750Y-000310
X011140Y-000310
X011540Y-000310
X011930Y-000310
X012320Y-000310
X012720Y-000310
X013110Y-000310
X013500Y-000310
X013940Y-000310
X014330Y-000310
X014720Y-000310
X015120Y-000310
X015510Y-000310
X015910Y-000310
X016300Y-000310
X016690Y-000310
X017090Y-000310
X017480Y-000310
X017870Y-000310
X018270Y-000310
X018660Y-000310
X019060Y-000310
X019450Y-000310
X019840Y-000310
X020240Y-000310
X020630Y-000310
X021020Y-000310
X021420Y-000310
X021810Y-000310
X022200Y-000310
X022600Y-000310
X022990Y-000310
X023390Y-000310
X023390Y-000710
X023390Y-001100
X023420Y-001430
X023170Y-001430
X022930Y-001430
X022670Y-001430
X022420Y-001430
X022180Y-001430
X021930Y-001430
X021690Y-001430
X021430Y-001430
X021180Y-001430
X020940Y-001430
X020690Y-001430
X020450Y-001430
X020190Y-001430
X019960Y-001500
X019730Y-001610
X019930Y-001770
X019730Y-001890
X019670Y-002160
X019460Y-002290
X019370Y-001890
X019020Y-001890
X019020Y-002170
X018670Y-002290
X018420Y-002230
X018310Y-002010
X018310Y-001780
X018310Y-001540
X018050Y-001540
X017820Y-001440
X017570Y-001440
X017450Y-001230
X017320Y-001440
X017200Y-001230
X017080Y-001440
X016830Y-001300
X016510Y-001300
X016200Y-001300
X015840Y-001300
X015490Y-001300
X015130Y-001300
X014780Y-001300
X014470Y-001300
X015810Y-002420
X016050Y-002420
X016290Y-002420
X016530Y-002420
X016770Y-002440
X016980Y-002340
X017230Y-002350
X017470Y-002350
X017710Y-002350
X017950Y-002350
X018200Y-002350
X018660Y-001890
X018780Y-000750
X018540Y-000750
X018310Y-000750
X019020Y-000750
X019250Y-000750
X019490Y-000750
X019730Y-000710
X021530Y-000970
X022140Y-000960
X022770Y-000960
X022670Y-002510
X022420Y-002510
X022360Y-002730
X022360Y-002970
X022370Y-003210
X022490Y-003420
X022710Y-003560
X022830Y-003790
X022840Y-004040
X022730Y-004260
X022520Y-004420
X022360Y-004640
X022360Y-004890
X022360Y-005130
X022420Y-005370
X022670Y-005370
X022930Y-005370
X023170Y-005370
X023420Y-005370
X023390Y-005120
X023390Y-004760
X023390Y-004370
X023390Y-003980
X023390Y-003580
X023390Y-003190
X023390Y-002800
X023420Y-002510
X023170Y-002510
X022930Y-002510
X022860Y-003020
X022830Y-004870
X022930Y-006450
X023170Y-006450
X023420Y-006450
X023390Y-006730
X023390Y-007130
X023390Y-007520
X022990Y-007640
X022600Y-007640
X022200Y-007640
X021810Y-007640
X021420Y-007640
X021020Y-007640
X020630Y-007640
X020240Y-007640
X019840Y-007640
X019450Y-007640
X019060Y-007640
X018660Y-007640
X018270Y-007640
X017870Y-007640
X017480Y-007640
X017090Y-007640
X017080Y-007260
X017310Y-006790
X017510Y-006400
X017450Y-006070
X017220Y-006010
X016990Y-006010
X016750Y-005960
X016590Y-005780
X016430Y-005590
X016390Y-005360
X016310Y-005140
X016160Y-004950
X016020Y-005310
X015780Y-005310
X015540Y-005310
X016170Y-005690
X015970Y-006120
X016240Y-006260
X016520Y-006260
X016720Y-006440
X016720Y-006690
X016640Y-006950
X016370Y-006970
X016100Y-007050
X015800Y-007090
X015520Y-007120
X015680Y-007370
X015510Y-007640
X015910Y-007640
X016300Y-007640
X016690Y-007640
X016490Y-007260
X017630Y-007260
X017900Y-006830
X018180Y-007220
X018630Y-007100
X018840Y-006670
X018910Y-006310
X019140Y-006300
X019260Y-006100
X019030Y-006100
X018790Y-006100
X018410Y-006080
X018170Y-006070
X017930Y-006070
X017690Y-006070
X018220Y-006400
X019490Y-006530
X019940Y-006450
X019940Y-006210
X019750Y-006060
X019510Y-006050
X020190Y-006450
X020450Y-006450
X020690Y-006450
X020940Y-006450
X021180Y-006450
X021430Y-006450
X021690Y-006450
X021930Y-006450
X022180Y-006450
X022420Y-006450
X022670Y-006450
X022760Y-006940
X022180Y-006940
X021570Y-006960
X020940Y-006960
X020390Y-006960
X019840Y-006950
X019300Y-007120
X019440Y-005050
X019680Y-005050
X019920Y-005050
X019730Y-004570
X019730Y-004250
X019730Y-003980
X019730Y-003700
X019730Y-003430
X019490Y-003430
X019250Y-003430
X019020Y-003430
X018780Y-003430
X018540Y-003430
X018310Y-003430
X018310Y-003700
X018310Y-003980
X018310Y-004250
X018090Y-004420
X018310Y-004570
X018660Y-004570
X019020Y-004570
X019020Y-004840
X018610Y-005010
X018240Y-005010
X017820Y-004420
X017580Y-004420
X016020Y-004280
X015750Y-004280
X015500Y-004280
X015230Y-004270
X014960Y-004270
X014450Y-004860
X014190Y-004890
X014180Y-005170
X014460Y-005180
X013630Y-004310
X013630Y-004080
X013630Y-003840
X013630Y-003600
X013630Y-003370
X013400Y-003370
X013160Y-003370
X012920Y-003370
X012690Y-003370
X012690Y-003600
X012920Y-003600
X013160Y-003600
X013400Y-003600
X013400Y-003840
X013160Y-003840
X013160Y-004080
X012920Y-004080
X012920Y-003840
X012690Y-003840
X012690Y-004080
X012690Y-004310
X012920Y-004310
X013160Y-004310
X013400Y-004310
X013400Y-004080
X014730Y-003400
X014960Y-003400
X015200Y-003400
X015440Y-003400
X015670Y-003400
X015910Y-003400
X016150Y-003380
X016340Y-003250
X016390Y-003010
X016580Y-002870
X016720Y-002680
X016090Y-002690
X015800Y-002690
X015800Y-002920
X015720Y-003160
X015990Y-003120
X019370Y-004570
X015210Y-007110
X015090Y-007340
X015120Y-007640
X014720Y-007640
X014680Y-007340
X014850Y-007130
X014480Y-007070
X014320Y-007260
X014200Y-006990
X013870Y-007010
X013810Y-006750
X013650Y-006550
X013570Y-006950
X013300Y-006990
X013020Y-006990
X012830Y-006830
X012710Y-006590
X012510Y-006730
X012250Y-006840
X011990Y-006900
X011770Y-007000
X011630Y-007200
X011380Y-007200
X011120Y-007200
X010870Y-007200
X010600Y-007200
X010340Y-007270
X010340Y-007510
X010340Y-007750
X010750Y-007640
X011140Y-007640
X011540Y-007640
X011930Y-007640
X012360Y-007640
X012760Y-007640
X013150Y-007640
X013500Y-007640
X013570Y-007260
X013930Y-007260
X013940Y-007640
X014330Y-007640
X012550Y-007260
X010340Y-007040
X008180Y-006510
X008180Y-006120
X008180Y-005730
X008180Y-005330
X008180Y-004940
X009300Y-003940
X009290Y-003700
X009310Y-003460
X009350Y-003220
X009570Y-003110
X009620Y-003400
X009620Y-003700
X009610Y-003940
X009460Y-004120
X009570Y-004330
X010100Y-004440
X010100Y-004200
X010360Y-004200
X010610Y-004200
X010830Y-004310
X009170Y-002260
X008910Y-002210
X009050Y-002010
X009060Y-001770
X008950Y-001560
X008740Y-001450
X008640Y-001230
X008950Y-001230
X009270Y-001230
X009320Y-001470
X009320Y-001750
X009320Y-002020
X008790Y-002430
X007710Y-000730
X007470Y-000730
X007220Y-000730
X006960Y-000730
X006720Y-000730
X006530Y-000880
X006300Y-000880
X006060Y-000880
X005820Y-000880
X004960Y-001020
X004170Y-001020
X003390Y-001020
X002600Y-001020
X001810Y-001020
X001020Y-001020
X001020Y-001810
X001020Y-002600
X001020Y-003390
X001020Y-004170
X001020Y-004960
X001020Y-005750
X002990Y-004960
X003170Y-004760
X002990Y-004570
X003170Y-004370
X002990Y-004170
X003170Y-003980
X002990Y-003780
X003170Y-003580
X002990Y-003390
X003170Y-003190
X002990Y-002990
X003170Y-002800
X003390Y-002990
X003390Y-003390
X003390Y-003780
X003390Y-004170
X003390Y-004570
X003390Y-004960
X003170Y-005160
X003390Y-005350
X003580Y-005550
X003780Y-005350
X003980Y-005550
X004170Y-005350
X004370Y-005550
X004570Y-005350
X004760Y-005550
X004960Y-005350
X005160Y-005550
X005350Y-005350
X005350Y-002600
X005160Y-002400
X004960Y-002600
X004760Y-002400
X004570Y-002600
X004370Y-002400
X004170Y-002600
X003980Y-002400
X003780Y-002600
X003580Y-002400
X003390Y-002600
X005280Y-001810
T02
X008640Y-001870
X009460Y-002650
X010860Y-002720
X011430Y-003160
X011280Y-004320
X011710Y-004320
X011780Y-005110
X012100Y-005530
X012570Y-005660
X013630Y-006100
X013810Y-005530
X015000Y-005260
X015350Y-002910
X013190Y-002210
X017580Y-003430
T03
X022350Y-003930
M30
