<?xml version="1.0" encoding="utf-8" standalone="no"?>
<!DOCTYPE svg PUBLIC "-//W3C//DTD SVG 1.1//EN"
  "http://www.w3.org/Graphics/SVG/1.1/DTD/svg11.dtd">
<svg xmlns:xlink="http://www.w3.org/1999/xlink" width="460.8pt" height="345.6pt" viewBox="0 0 460.8 345.6" xmlns="http://www.w3.org/2000/svg" version="1.1">
 <metadata>
  <rdf:RDF xmlns:dc="http://purl.org/dc/elements/1.1/" xmlns:cc="http://creativecommons.org/ns#" xmlns:rdf="http://www.w3.org/1999/02/22-rdf-syntax-ns#">
   <cc:Work>
    <dc:type rdf:resource="http://purl.org/dc/dcmitype/StillImage"/>
    <dc:date>2022-09-26T12:29:03.480609</dc:date>
    <dc:format>image/svg+xml</dc:format>
    <dc:creator>
     <cc:Agent>
      <dc:title>Matplotlib v3.5.1, https://matplotlib.org/</dc:title>
     </cc:Agent>
    </dc:creator>
   </cc:Work>
  </rdf:RDF>
 </metadata>
 <defs>
  <style type="text/css">*{stroke-linejoin: round; stroke-linecap: butt}</style>
 </defs>
 <g id="figure_1">
  <g id="patch_1">
   <path d="M 0 345.6 
L 460.8 345.6 
L 460.8 0 
L 0 0 
z
" style="fill: #ffffff"/>
  </g>
  <g id="axes_1">
   <g id="patch_2">
    <path d="M 57.6 307.584 
L 414.72 307.584 
L 414.72 41.472 
L 57.6 41.472 
z
" style="fill: #ffffff"/>
   </g>
   <g id="matplotlib.axis_1">
    <g id="xtick_1">
     <g id="line2d_1">
      <defs>
       <path id="m6db880af3d" d="M 0 0 
L 0 3.5 
" style="stroke: #000000; stroke-width: 0.8"/>
      </defs>
      <g>
       <use xlink:href="#m6db880af3d" x="73.832727" y="307.584" style="stroke: #000000; stroke-width: 0.8"/>
      </g>
     </g>
     <g id="text_1">
      <!-- $\mathdefault{10^{3}}$ -->
      <g transform="translate(65.032727 322.182437)scale(0.1 -0.1)">
       <defs>
        <path id="DejaVuSans-31" d="M 794 531 
L 1825 531 
L 1825 4091 
L 703 3866 
L 703 4441 
L 1819 4666 
L 2450 4666 
L 2450 531 
L 3481 531 
L 3481 0 
L 794 0 
L 794 531 
z
" transform="scale(0.015625)"/>
        <path id="DejaVuSans-30" d="M 2034 4250 
Q 1547 4250 1301 3770 
Q 1056 3291 1056 2328 
Q 1056 1369 1301 889 
Q 1547 409 2034 409 
Q 2525 409 2770 889 
Q 3016 1369 3016 2328 
Q 3016 3291 2770 3770 
Q 2525 4250 2034 4250 
z
M 2034 4750 
Q 2819 4750 3233 4129 
Q 3647 3509 3647 2328 
Q 3647 1150 3233 529 
Q 2819 -91 2034 -91 
Q 1250 -91 836 529 
Q 422 1150 422 2328 
Q 422 3509 836 4129 
Q 1250 4750 2034 4750 
z
" transform="scale(0.015625)"/>
        <path id="DejaVuSans-33" d="M 2597 2516 
Q 3050 2419 3304 2112 
Q 3559 1806 3559 1356 
Q 3559 666 3084 287 
Q 2609 -91 1734 -91 
Q 1441 -91 1130 -33 
Q 819 25 488 141 
L 488 750 
Q 750 597 1062 519 
Q 1375 441 1716 441 
Q 2309 441 2620 675 
Q 2931 909 2931 1356 
Q 2931 1769 2642 2001 
Q 2353 2234 1838 2234 
L 1294 2234 
L 1294 2753 
L 1863 2753 
Q 2328 2753 2575 2939 
Q 2822 3125 2822 3475 
Q 2822 3834 2567 4026 
Q 2313 4219 1838 4219 
Q 1578 4219 1281 4162 
Q 984 4106 628 3988 
L 628 4550 
Q 988 4650 1302 4700 
Q 1616 4750 1894 4750 
Q 2613 4750 3031 4423 
Q 3450 4097 3450 3541 
Q 3450 3153 3228 2886 
Q 3006 2619 2597 2516 
z
" transform="scale(0.015625)"/>
       </defs>
       <use xlink:href="#DejaVuSans-31" transform="translate(0 0.765625)"/>
       <use xlink:href="#DejaVuSans-30" transform="translate(63.623047 0.765625)"/>
       <use xlink:href="#DejaVuSans-33" transform="translate(128.203125 39.046875)scale(0.7)"/>
      </g>
     </g>
    </g>
    <g id="xtick_2">
     <g id="line2d_2">
      <g>
       <use xlink:href="#m6db880af3d" x="154.996364" y="307.584" style="stroke: #000000; stroke-width: 0.8"/>
      </g>
     </g>
     <g id="text_2">
      <!-- $\mathdefault{10^{4}}$ -->
      <g transform="translate(146.196364 322.182437)scale(0.1 -0.1)">
       <defs>
        <path id="DejaVuSans-34" d="M 2419 4116 
L 825 1625 
L 2419 1625 
L 2419 4116 
z
M 2253 4666 
L 3047 4666 
L 3047 1625 
L 3713 1625 
L 3713 1100 
L 3047 1100 
L 3047 0 
L 2419 0 
L 2419 1100 
L 313 1100 
L 313 1709 
L 2253 4666 
z
" transform="scale(0.015625)"/>
       </defs>
       <use xlink:href="#DejaVuSans-31" transform="translate(0 0.684375)"/>
       <use xlink:href="#DejaVuSans-30" transform="translate(63.623047 0.684375)"/>
       <use xlink:href="#DejaVuSans-34" transform="translate(128.203125 38.965625)scale(0.7)"/>
      </g>
     </g>
    </g>
    <g id="xtick_3">
     <g id="line2d_3">
      <g>
       <use xlink:href="#m6db880af3d" x="236.16" y="307.584" style="stroke: #000000; stroke-width: 0.8"/>
      </g>
     </g>
     <g id="text_3">
      <!-- $\mathdefault{10^{5}}$ -->
      <g transform="translate(227.36 322.182437)scale(0.1 -0.1)">
       <defs>
        <path id="DejaVuSans-35" d="M 691 4666 
L 3169 4666 
L 3169 4134 
L 1269 4134 
L 1269 2991 
Q 1406 3038 1543 3061 
Q 1681 3084 1819 3084 
Q 2600 3084 3056 2656 
Q 3513 2228 3513 1497 
Q 3513 744 3044 326 
Q 2575 -91 1722 -91 
Q 1428 -91 1123 -41 
Q 819 9 494 109 
L 494 744 
Q 775 591 1075 516 
Q 1375 441 1709 441 
Q 2250 441 2565 725 
Q 2881 1009 2881 1497 
Q 2881 1984 2565 2268 
Q 2250 2553 1709 2553 
Q 1456 2553 1204 2497 
Q 953 2441 691 2322 
L 691 4666 
z
" transform="scale(0.015625)"/>
       </defs>
       <use xlink:href="#DejaVuSans-31" transform="translate(0 0.684375)"/>
       <use xlink:href="#DejaVuSans-30" transform="translate(63.623047 0.684375)"/>
       <use xlink:href="#DejaVuSans-35" transform="translate(128.203125 38.965625)scale(0.7)"/>
      </g>
     </g>
    </g>
    <g id="xtick_4">
     <g id="line2d_4">
      <g>
       <use xlink:href="#m6db880af3d" x="317.323636" y="307.584" style="stroke: #000000; stroke-width: 0.8"/>
      </g>
     </g>
     <g id="text_4">
      <!-- $\mathdefault{10^{6}}$ -->
      <g transform="translate(308.523636 322.182437)scale(0.1 -0.1)">
       <defs>
        <path id="DejaVuSans-36" d="M 2113 2584 
Q 1688 2584 1439 2293 
Q 1191 2003 1191 1497 
Q 1191 994 1439 701 
Q 1688 409 2113 409 
Q 2538 409 2786 701 
Q 3034 994 3034 1497 
Q 3034 2003 2786 2293 
Q 2538 2584 2113 2584 
z
M 3366 4563 
L 3366 3988 
Q 3128 4100 2886 4159 
Q 2644 4219 2406 4219 
Q 1781 4219 1451 3797 
Q 1122 3375 1075 2522 
Q 1259 2794 1537 2939 
Q 1816 3084 2150 3084 
Q 2853 3084 3261 2657 
Q 3669 2231 3669 1497 
Q 3669 778 3244 343 
Q 2819 -91 2113 -91 
Q 1303 -91 875 529 
Q 447 1150 447 2328 
Q 447 3434 972 4092 
Q 1497 4750 2381 4750 
Q 2619 4750 2861 4703 
Q 3103 4656 3366 4563 
z
" transform="scale(0.015625)"/>
       </defs>
       <use xlink:href="#DejaVuSans-31" transform="translate(0 0.765625)"/>
       <use xlink:href="#DejaVuSans-30" transform="translate(63.623047 0.765625)"/>
       <use xlink:href="#DejaVuSans-36" transform="translate(128.203125 39.046875)scale(0.7)"/>
      </g>
     </g>
    </g>
    <g id="xtick_5">
     <g id="line2d_5">
      <g>
       <use xlink:href="#m6db880af3d" x="398.487273" y="307.584" style="stroke: #000000; stroke-width: 0.8"/>
      </g>
     </g>
     <g id="text_5">
      <!-- $\mathdefault{10^{7}}$ -->
      <g transform="translate(389.687273 322.182437)scale(0.1 -0.1)">
       <defs>
        <path id="DejaVuSans-37" d="M 525 4666 
L 3525 4666 
L 3525 4397 
L 1831 0 
L 1172 0 
L 2766 4134 
L 525 4134 
L 525 4666 
z
" transform="scale(0.015625)"/>
       </defs>
       <use xlink:href="#DejaVuSans-31" transform="translate(0 0.684375)"/>
       <use xlink:href="#DejaVuSans-30" transform="translate(63.623047 0.684375)"/>
       <use xlink:href="#DejaVuSans-37" transform="translate(128.203125 38.965625)scale(0.7)"/>
      </g>
     </g>
    </g>
    <g id="xtick_6">
     <g id="line2d_6">
      <defs>
       <path id="m192089f9fa" d="M 0 0 
L 0 2 
" style="stroke: #000000; stroke-width: 0.6"/>
      </defs>
      <g>
       <use xlink:href="#m192089f9fa" x="61.260321" y="307.584" style="stroke: #000000; stroke-width: 0.6"/>
      </g>
     </g>
    </g>
    <g id="xtick_7">
     <g id="line2d_7">
      <g>
       <use xlink:href="#m192089f9fa" x="65.967158" y="307.584" style="stroke: #000000; stroke-width: 0.6"/>
      </g>
     </g>
    </g>
    <g id="xtick_8">
     <g id="line2d_8">
      <g>
       <use xlink:href="#m192089f9fa" x="70.118883" y="307.584" style="stroke: #000000; stroke-width: 0.6"/>
      </g>
     </g>
    </g>
    <g id="xtick_9">
     <g id="line2d_9">
      <g>
       <use xlink:href="#m192089f9fa" x="98.265416" y="307.584" style="stroke: #000000; stroke-width: 0.6"/>
      </g>
     </g>
    </g>
    <g id="xtick_10">
     <g id="line2d_10">
      <g>
       <use xlink:href="#m192089f9fa" x="112.557623" y="307.584" style="stroke: #000000; stroke-width: 0.6"/>
      </g>
     </g>
    </g>
    <g id="xtick_11">
     <g id="line2d_11">
      <g>
       <use xlink:href="#m192089f9fa" x="122.698105" y="307.584" style="stroke: #000000; stroke-width: 0.6"/>
      </g>
     </g>
    </g>
    <g id="xtick_12">
     <g id="line2d_12">
      <g>
       <use xlink:href="#m192089f9fa" x="130.563675" y="307.584" style="stroke: #000000; stroke-width: 0.6"/>
      </g>
     </g>
    </g>
    <g id="xtick_13">
     <g id="line2d_13">
      <g>
       <use xlink:href="#m192089f9fa" x="136.990312" y="307.584" style="stroke: #000000; stroke-width: 0.6"/>
      </g>
     </g>
    </g>
    <g id="xtick_14">
     <g id="line2d_14">
      <g>
       <use xlink:href="#m192089f9fa" x="142.423957" y="307.584" style="stroke: #000000; stroke-width: 0.6"/>
      </g>
     </g>
    </g>
    <g id="xtick_15">
     <g id="line2d_15">
      <g>
       <use xlink:href="#m192089f9fa" x="147.130795" y="307.584" style="stroke: #000000; stroke-width: 0.6"/>
      </g>
     </g>
    </g>
    <g id="xtick_16">
     <g id="line2d_16">
      <g>
       <use xlink:href="#m192089f9fa" x="151.282519" y="307.584" style="stroke: #000000; stroke-width: 0.6"/>
      </g>
     </g>
    </g>
    <g id="xtick_17">
     <g id="line2d_17">
      <g>
       <use xlink:href="#m192089f9fa" x="179.429053" y="307.584" style="stroke: #000000; stroke-width: 0.6"/>
      </g>
     </g>
    </g>
    <g id="xtick_18">
     <g id="line2d_18">
      <g>
       <use xlink:href="#m192089f9fa" x="193.72126" y="307.584" style="stroke: #000000; stroke-width: 0.6"/>
      </g>
     </g>
    </g>
    <g id="xtick_19">
     <g id="line2d_19">
      <g>
       <use xlink:href="#m192089f9fa" x="203.861742" y="307.584" style="stroke: #000000; stroke-width: 0.6"/>
      </g>
     </g>
    </g>
    <g id="xtick_20">
     <g id="line2d_20">
      <g>
       <use xlink:href="#m192089f9fa" x="211.727311" y="307.584" style="stroke: #000000; stroke-width: 0.6"/>
      </g>
     </g>
    </g>
    <g id="xtick_21">
     <g id="line2d_21">
      <g>
       <use xlink:href="#m192089f9fa" x="218.153949" y="307.584" style="stroke: #000000; stroke-width: 0.6"/>
      </g>
     </g>
    </g>
    <g id="xtick_22">
     <g id="line2d_22">
      <g>
       <use xlink:href="#m192089f9fa" x="223.587594" y="307.584" style="stroke: #000000; stroke-width: 0.6"/>
      </g>
     </g>
    </g>
    <g id="xtick_23">
     <g id="line2d_23">
      <g>
       <use xlink:href="#m192089f9fa" x="228.294431" y="307.584" style="stroke: #000000; stroke-width: 0.6"/>
      </g>
     </g>
    </g>
    <g id="xtick_24">
     <g id="line2d_24">
      <g>
       <use xlink:href="#m192089f9fa" x="232.446156" y="307.584" style="stroke: #000000; stroke-width: 0.6"/>
      </g>
     </g>
    </g>
    <g id="xtick_25">
     <g id="line2d_25">
      <g>
       <use xlink:href="#m192089f9fa" x="260.592689" y="307.584" style="stroke: #000000; stroke-width: 0.6"/>
      </g>
     </g>
    </g>
    <g id="xtick_26">
     <g id="line2d_26">
      <g>
       <use xlink:href="#m192089f9fa" x="274.884896" y="307.584" style="stroke: #000000; stroke-width: 0.6"/>
      </g>
     </g>
    </g>
    <g id="xtick_27">
     <g id="line2d_27">
      <g>
       <use xlink:href="#m192089f9fa" x="285.025378" y="307.584" style="stroke: #000000; stroke-width: 0.6"/>
      </g>
     </g>
    </g>
    <g id="xtick_28">
     <g id="line2d_28">
      <g>
       <use xlink:href="#m192089f9fa" x="292.890947" y="307.584" style="stroke: #000000; stroke-width: 0.6"/>
      </g>
     </g>
    </g>
    <g id="xtick_29">
     <g id="line2d_29">
      <g>
       <use xlink:href="#m192089f9fa" x="299.317585" y="307.584" style="stroke: #000000; stroke-width: 0.6"/>
      </g>
     </g>
    </g>
    <g id="xtick_30">
     <g id="line2d_30">
      <g>
       <use xlink:href="#m192089f9fa" x="304.75123" y="307.584" style="stroke: #000000; stroke-width: 0.6"/>
      </g>
     </g>
    </g>
    <g id="xtick_31">
     <g id="line2d_31">
      <g>
       <use xlink:href="#m192089f9fa" x="309.458067" y="307.584" style="stroke: #000000; stroke-width: 0.6"/>
      </g>
     </g>
    </g>
    <g id="xtick_32">
     <g id="line2d_32">
      <g>
       <use xlink:href="#m192089f9fa" x="313.609792" y="307.584" style="stroke: #000000; stroke-width: 0.6"/>
      </g>
     </g>
    </g>
    <g id="xtick_33">
     <g id="line2d_33">
      <g>
       <use xlink:href="#m192089f9fa" x="341.756325" y="307.584" style="stroke: #000000; stroke-width: 0.6"/>
      </g>
     </g>
    </g>
    <g id="xtick_34">
     <g id="line2d_34">
      <g>
       <use xlink:href="#m192089f9fa" x="356.048532" y="307.584" style="stroke: #000000; stroke-width: 0.6"/>
      </g>
     </g>
    </g>
    <g id="xtick_35">
     <g id="line2d_35">
      <g>
       <use xlink:href="#m192089f9fa" x="366.189015" y="307.584" style="stroke: #000000; stroke-width: 0.6"/>
      </g>
     </g>
    </g>
    <g id="xtick_36">
     <g id="line2d_36">
      <g>
       <use xlink:href="#m192089f9fa" x="374.054584" y="307.584" style="stroke: #000000; stroke-width: 0.6"/>
      </g>
     </g>
    </g>
    <g id="xtick_37">
     <g id="line2d_37">
      <g>
       <use xlink:href="#m192089f9fa" x="380.481221" y="307.584" style="stroke: #000000; stroke-width: 0.6"/>
      </g>
     </g>
    </g>
    <g id="xtick_38">
     <g id="line2d_38">
      <g>
       <use xlink:href="#m192089f9fa" x="385.914866" y="307.584" style="stroke: #000000; stroke-width: 0.6"/>
      </g>
     </g>
    </g>
    <g id="xtick_39">
     <g id="line2d_39">
      <g>
       <use xlink:href="#m192089f9fa" x="390.621704" y="307.584" style="stroke: #000000; stroke-width: 0.6"/>
      </g>
     </g>
    </g>
    <g id="xtick_40">
     <g id="line2d_40">
      <g>
       <use xlink:href="#m192089f9fa" x="394.773428" y="307.584" style="stroke: #000000; stroke-width: 0.6"/>
      </g>
     </g>
    </g>
    <g id="text_6">
     <!-- Frequency [Hz] -->
     <g transform="translate(198.455312 335.860562)scale(0.1 -0.1)">
      <defs>
       <path id="DejaVuSans-46" d="M 628 4666 
L 3309 4666 
L 3309 4134 
L 1259 4134 
L 1259 2759 
L 3109 2759 
L 3109 2228 
L 1259 2228 
L 1259 0 
L 628 0 
L 628 4666 
z
" transform="scale(0.015625)"/>
       <path id="DejaVuSans-72" d="M 2631 2963 
Q 2534 3019 2420 3045 
Q 2306 3072 2169 3072 
Q 1681 3072 1420 2755 
Q 1159 2438 1159 1844 
L 1159 0 
L 581 0 
L 581 3500 
L 1159 3500 
L 1159 2956 
Q 1341 3275 1631 3429 
Q 1922 3584 2338 3584 
Q 2397 3584 2469 3576 
Q 2541 3569 2628 3553 
L 2631 2963 
z
" transform="scale(0.015625)"/>
       <path id="DejaVuSans-65" d="M 3597 1894 
L 3597 1613 
L 953 1613 
Q 991 1019 1311 708 
Q 1631 397 2203 397 
Q 2534 397 2845 478 
Q 3156 559 3463 722 
L 3463 178 
Q 3153 47 2828 -22 
Q 2503 -91 2169 -91 
Q 1331 -91 842 396 
Q 353 884 353 1716 
Q 353 2575 817 3079 
Q 1281 3584 2069 3584 
Q 2775 3584 3186 3129 
Q 3597 2675 3597 1894 
z
M 3022 2063 
Q 3016 2534 2758 2815 
Q 2500 3097 2075 3097 
Q 1594 3097 1305 2825 
Q 1016 2553 972 2059 
L 3022 2063 
z
" transform="scale(0.015625)"/>
       <path id="DejaVuSans-71" d="M 947 1747 
Q 947 1113 1208 752 
Q 1469 391 1925 391 
Q 2381 391 2643 752 
Q 2906 1113 2906 1747 
Q 2906 2381 2643 2742 
Q 2381 3103 1925 3103 
Q 1469 3103 1208 2742 
Q 947 2381 947 1747 
z
M 2906 525 
Q 2725 213 2448 61 
Q 2172 -91 1784 -91 
Q 1150 -91 751 415 
Q 353 922 353 1747 
Q 353 2572 751 3078 
Q 1150 3584 1784 3584 
Q 2172 3584 2448 3432 
Q 2725 3281 2906 2969 
L 2906 3500 
L 3481 3500 
L 3481 -1331 
L 2906 -1331 
L 2906 525 
z
" transform="scale(0.015625)"/>
       <path id="DejaVuSans-75" d="M 544 1381 
L 544 3500 
L 1119 3500 
L 1119 1403 
Q 1119 906 1312 657 
Q 1506 409 1894 409 
Q 2359 409 2629 706 
Q 2900 1003 2900 1516 
L 2900 3500 
L 3475 3500 
L 3475 0 
L 2900 0 
L 2900 538 
Q 2691 219 2414 64 
Q 2138 -91 1772 -91 
Q 1169 -91 856 284 
Q 544 659 544 1381 
z
M 1991 3584 
L 1991 3584 
z
" transform="scale(0.015625)"/>
       <path id="DejaVuSans-6e" d="M 3513 2113 
L 3513 0 
L 2938 0 
L 2938 2094 
Q 2938 2591 2744 2837 
Q 2550 3084 2163 3084 
Q 1697 3084 1428 2787 
Q 1159 2491 1159 1978 
L 1159 0 
L 581 0 
L 581 3500 
L 1159 3500 
L 1159 2956 
Q 1366 3272 1645 3428 
Q 1925 3584 2291 3584 
Q 2894 3584 3203 3211 
Q 3513 2838 3513 2113 
z
" transform="scale(0.015625)"/>
       <path id="DejaVuSans-63" d="M 3122 3366 
L 3122 2828 
Q 2878 2963 2633 3030 
Q 2388 3097 2138 3097 
Q 1578 3097 1268 2742 
Q 959 2388 959 1747 
Q 959 1106 1268 751 
Q 1578 397 2138 397 
Q 2388 397 2633 464 
Q 2878 531 3122 666 
L 3122 134 
Q 2881 22 2623 -34 
Q 2366 -91 2075 -91 
Q 1284 -91 818 406 
Q 353 903 353 1747 
Q 353 2603 823 3093 
Q 1294 3584 2113 3584 
Q 2378 3584 2631 3529 
Q 2884 3475 3122 3366 
z
" transform="scale(0.015625)"/>
       <path id="DejaVuSans-79" d="M 2059 -325 
Q 1816 -950 1584 -1140 
Q 1353 -1331 966 -1331 
L 506 -1331 
L 506 -850 
L 844 -850 
Q 1081 -850 1212 -737 
Q 1344 -625 1503 -206 
L 1606 56 
L 191 3500 
L 800 3500 
L 1894 763 
L 2988 3500 
L 3597 3500 
L 2059 -325 
z
" transform="scale(0.015625)"/>
       <path id="DejaVuSans-20" transform="scale(0.015625)"/>
       <path id="DejaVuSans-5b" d="M 550 4863 
L 1875 4863 
L 1875 4416 
L 1125 4416 
L 1125 -397 
L 1875 -397 
L 1875 -844 
L 550 -844 
L 550 4863 
z
" transform="scale(0.015625)"/>
       <path id="DejaVuSans-48" d="M 628 4666 
L 1259 4666 
L 1259 2753 
L 3553 2753 
L 3553 4666 
L 4184 4666 
L 4184 0 
L 3553 0 
L 3553 2222 
L 1259 2222 
L 1259 0 
L 628 0 
L 628 4666 
z
" transform="scale(0.015625)"/>
       <path id="DejaVuSans-7a" d="M 353 3500 
L 3084 3500 
L 3084 2975 
L 922 459 
L 3084 459 
L 3084 0 
L 275 0 
L 275 525 
L 2438 3041 
L 353 3041 
L 353 3500 
z
" transform="scale(0.015625)"/>
       <path id="DejaVuSans-5d" d="M 1947 4863 
L 1947 -844 
L 622 -844 
L 622 -397 
L 1369 -397 
L 1369 4416 
L 622 4416 
L 622 4863 
L 1947 4863 
z
" transform="scale(0.015625)"/>
      </defs>
      <use xlink:href="#DejaVuSans-46"/>
      <use xlink:href="#DejaVuSans-72" x="50.269531"/>
      <use xlink:href="#DejaVuSans-65" x="89.132812"/>
      <use xlink:href="#DejaVuSans-71" x="150.65625"/>
      <use xlink:href="#DejaVuSans-75" x="214.132812"/>
      <use xlink:href="#DejaVuSans-65" x="277.511719"/>
      <use xlink:href="#DejaVuSans-6e" x="339.035156"/>
      <use xlink:href="#DejaVuSans-63" x="402.414062"/>
      <use xlink:href="#DejaVuSans-79" x="457.394531"/>
      <use xlink:href="#DejaVuSans-20" x="516.574219"/>
      <use xlink:href="#DejaVuSans-5b" x="548.361328"/>
      <use xlink:href="#DejaVuSans-48" x="587.375"/>
      <use xlink:href="#DejaVuSans-7a" x="662.570312"/>
      <use xlink:href="#DejaVuSans-5d" x="715.060547"/>
     </g>
    </g>
   </g>
   <g id="matplotlib.axis_2">
    <g id="ytick_1">
     <g id="line2d_41">
      <defs>
       <path id="m519769c652" d="M 0 0 
L -3.5 0 
" style="stroke: #000000; stroke-width: 0.8"/>
      </defs>
      <g>
       <use xlink:href="#m519769c652" x="57.6" y="307.584" style="stroke: #000000; stroke-width: 0.8"/>
      </g>
     </g>
     <g id="text_7">
      <!-- −140 -->
      <g transform="translate(23.132812 311.383219)scale(0.1 -0.1)">
       <defs>
        <path id="DejaVuSans-2212" d="M 678 2272 
L 4684 2272 
L 4684 1741 
L 678 1741 
L 678 2272 
z
" transform="scale(0.015625)"/>
       </defs>
       <use xlink:href="#DejaVuSans-2212"/>
       <use xlink:href="#DejaVuSans-31" x="83.789062"/>
       <use xlink:href="#DejaVuSans-34" x="147.412109"/>
       <use xlink:href="#DejaVuSans-30" x="211.035156"/>
      </g>
     </g>
    </g>
    <g id="ytick_2">
     <g id="line2d_42">
      <g>
       <use xlink:href="#m519769c652" x="57.6" y="274.32" style="stroke: #000000; stroke-width: 0.8"/>
      </g>
     </g>
     <g id="text_8">
      <!-- −130 -->
      <g transform="translate(23.132812 278.119219)scale(0.1 -0.1)">
       <use xlink:href="#DejaVuSans-2212"/>
       <use xlink:href="#DejaVuSans-31" x="83.789062"/>
       <use xlink:href="#DejaVuSans-33" x="147.412109"/>
       <use xlink:href="#DejaVuSans-30" x="211.035156"/>
      </g>
     </g>
    </g>
    <g id="ytick_3">
     <g id="line2d_43">
      <g>
       <use xlink:href="#m519769c652" x="57.6" y="241.056" style="stroke: #000000; stroke-width: 0.8"/>
      </g>
     </g>
     <g id="text_9">
      <!-- −120 -->
      <g transform="translate(23.132812 244.855219)scale(0.1 -0.1)">
       <defs>
        <path id="DejaVuSans-32" d="M 1228 531 
L 3431 531 
L 3431 0 
L 469 0 
L 469 531 
Q 828 903 1448 1529 
Q 2069 2156 2228 2338 
Q 2531 2678 2651 2914 
Q 2772 3150 2772 3378 
Q 2772 3750 2511 3984 
Q 2250 4219 1831 4219 
Q 1534 4219 1204 4116 
Q 875 4013 500 3803 
L 500 4441 
Q 881 4594 1212 4672 
Q 1544 4750 1819 4750 
Q 2544 4750 2975 4387 
Q 3406 4025 3406 3419 
Q 3406 3131 3298 2873 
Q 3191 2616 2906 2266 
Q 2828 2175 2409 1742 
Q 1991 1309 1228 531 
z
" transform="scale(0.015625)"/>
       </defs>
       <use xlink:href="#DejaVuSans-2212"/>
       <use xlink:href="#DejaVuSans-31" x="83.789062"/>
       <use xlink:href="#DejaVuSans-32" x="147.412109"/>
       <use xlink:href="#DejaVuSans-30" x="211.035156"/>
      </g>
     </g>
    </g>
    <g id="ytick_4">
     <g id="line2d_44">
      <g>
       <use xlink:href="#m519769c652" x="57.6" y="207.792" style="stroke: #000000; stroke-width: 0.8"/>
      </g>
     </g>
     <g id="text_10">
      <!-- −110 -->
      <g transform="translate(23.132812 211.591219)scale(0.1 -0.1)">
       <use xlink:href="#DejaVuSans-2212"/>
       <use xlink:href="#DejaVuSans-31" x="83.789062"/>
       <use xlink:href="#DejaVuSans-31" x="147.412109"/>
       <use xlink:href="#DejaVuSans-30" x="211.035156"/>
      </g>
     </g>
    </g>
    <g id="ytick_5">
     <g id="line2d_45">
      <g>
       <use xlink:href="#m519769c652" x="57.6" y="174.528" style="stroke: #000000; stroke-width: 0.8"/>
      </g>
     </g>
     <g id="text_11">
      <!-- −100 -->
      <g transform="translate(23.132812 178.327219)scale(0.1 -0.1)">
       <use xlink:href="#DejaVuSans-2212"/>
       <use xlink:href="#DejaVuSans-31" x="83.789062"/>
       <use xlink:href="#DejaVuSans-30" x="147.412109"/>
       <use xlink:href="#DejaVuSans-30" x="211.035156"/>
      </g>
     </g>
    </g>
    <g id="ytick_6">
     <g id="line2d_46">
      <g>
       <use xlink:href="#m519769c652" x="57.6" y="141.264" style="stroke: #000000; stroke-width: 0.8"/>
      </g>
     </g>
     <g id="text_12">
      <!-- −90 -->
      <g transform="translate(29.495313 145.063219)scale(0.1 -0.1)">
       <defs>
        <path id="DejaVuSans-39" d="M 703 97 
L 703 672 
Q 941 559 1184 500 
Q 1428 441 1663 441 
Q 2288 441 2617 861 
Q 2947 1281 2994 2138 
Q 2813 1869 2534 1725 
Q 2256 1581 1919 1581 
Q 1219 1581 811 2004 
Q 403 2428 403 3163 
Q 403 3881 828 4315 
Q 1253 4750 1959 4750 
Q 2769 4750 3195 4129 
Q 3622 3509 3622 2328 
Q 3622 1225 3098 567 
Q 2575 -91 1691 -91 
Q 1453 -91 1209 -44 
Q 966 3 703 97 
z
M 1959 2075 
Q 2384 2075 2632 2365 
Q 2881 2656 2881 3163 
Q 2881 3666 2632 3958 
Q 2384 4250 1959 4250 
Q 1534 4250 1286 3958 
Q 1038 3666 1038 3163 
Q 1038 2656 1286 2365 
Q 1534 2075 1959 2075 
z
" transform="scale(0.015625)"/>
       </defs>
       <use xlink:href="#DejaVuSans-2212"/>
       <use xlink:href="#DejaVuSans-39" x="83.789062"/>
       <use xlink:href="#DejaVuSans-30" x="147.412109"/>
      </g>
     </g>
    </g>
    <g id="ytick_7">
     <g id="line2d_47">
      <g>
       <use xlink:href="#m519769c652" x="57.6" y="108" style="stroke: #000000; stroke-width: 0.8"/>
      </g>
     </g>
     <g id="text_13">
      <!-- −80 -->
      <g transform="translate(29.495313 111.799219)scale(0.1 -0.1)">
       <defs>
        <path id="DejaVuSans-38" d="M 2034 2216 
Q 1584 2216 1326 1975 
Q 1069 1734 1069 1313 
Q 1069 891 1326 650 
Q 1584 409 2034 409 
Q 2484 409 2743 651 
Q 3003 894 3003 1313 
Q 3003 1734 2745 1975 
Q 2488 2216 2034 2216 
z
M 1403 2484 
Q 997 2584 770 2862 
Q 544 3141 544 3541 
Q 544 4100 942 4425 
Q 1341 4750 2034 4750 
Q 2731 4750 3128 4425 
Q 3525 4100 3525 3541 
Q 3525 3141 3298 2862 
Q 3072 2584 2669 2484 
Q 3125 2378 3379 2068 
Q 3634 1759 3634 1313 
Q 3634 634 3220 271 
Q 2806 -91 2034 -91 
Q 1263 -91 848 271 
Q 434 634 434 1313 
Q 434 1759 690 2068 
Q 947 2378 1403 2484 
z
M 1172 3481 
Q 1172 3119 1398 2916 
Q 1625 2713 2034 2713 
Q 2441 2713 2670 2916 
Q 2900 3119 2900 3481 
Q 2900 3844 2670 4047 
Q 2441 4250 2034 4250 
Q 1625 4250 1398 4047 
Q 1172 3844 1172 3481 
z
" transform="scale(0.015625)"/>
       </defs>
       <use xlink:href="#DejaVuSans-2212"/>
       <use xlink:href="#DejaVuSans-38" x="83.789062"/>
       <use xlink:href="#DejaVuSans-30" x="147.412109"/>
      </g>
     </g>
    </g>
    <g id="ytick_8">
     <g id="line2d_48">
      <g>
       <use xlink:href="#m519769c652" x="57.6" y="74.736" style="stroke: #000000; stroke-width: 0.8"/>
      </g>
     </g>
     <g id="text_14">
      <!-- −70 -->
      <g transform="translate(29.495313 78.535219)scale(0.1 -0.1)">
       <use xlink:href="#DejaVuSans-2212"/>
       <use xlink:href="#DejaVuSans-37" x="83.789062"/>
       <use xlink:href="#DejaVuSans-30" x="147.412109"/>
      </g>
     </g>
    </g>
    <g id="ytick_9">
     <g id="line2d_49">
      <g>
       <use xlink:href="#m519769c652" x="57.6" y="41.472" style="stroke: #000000; stroke-width: 0.8"/>
      </g>
     </g>
     <g id="text_15">
      <!-- −60 -->
      <g transform="translate(29.495313 45.271219)scale(0.1 -0.1)">
       <use xlink:href="#DejaVuSans-2212"/>
       <use xlink:href="#DejaVuSans-36" x="83.789062"/>
       <use xlink:href="#DejaVuSans-30" x="147.412109"/>
      </g>
     </g>
    </g>
    <g id="text_16">
     <!-- Phase noise [dBc/Hz] -->
     <g transform="translate(17.053125 227.257688)rotate(-90)scale(0.1 -0.1)">
      <defs>
       <path id="DejaVuSans-50" d="M 1259 4147 
L 1259 2394 
L 2053 2394 
Q 2494 2394 2734 2622 
Q 2975 2850 2975 3272 
Q 2975 3691 2734 3919 
Q 2494 4147 2053 4147 
L 1259 4147 
z
M 628 4666 
L 2053 4666 
Q 2838 4666 3239 4311 
Q 3641 3956 3641 3272 
Q 3641 2581 3239 2228 
Q 2838 1875 2053 1875 
L 1259 1875 
L 1259 0 
L 628 0 
L 628 4666 
z
" transform="scale(0.015625)"/>
       <path id="DejaVuSans-68" d="M 3513 2113 
L 3513 0 
L 2938 0 
L 2938 2094 
Q 2938 2591 2744 2837 
Q 2550 3084 2163 3084 
Q 1697 3084 1428 2787 
Q 1159 2491 1159 1978 
L 1159 0 
L 581 0 
L 581 4863 
L 1159 4863 
L 1159 2956 
Q 1366 3272 1645 3428 
Q 1925 3584 2291 3584 
Q 2894 3584 3203 3211 
Q 3513 2838 3513 2113 
z
" transform="scale(0.015625)"/>
       <path id="DejaVuSans-61" d="M 2194 1759 
Q 1497 1759 1228 1600 
Q 959 1441 959 1056 
Q 959 750 1161 570 
Q 1363 391 1709 391 
Q 2188 391 2477 730 
Q 2766 1069 2766 1631 
L 2766 1759 
L 2194 1759 
z
M 3341 1997 
L 3341 0 
L 2766 0 
L 2766 531 
Q 2569 213 2275 61 
Q 1981 -91 1556 -91 
Q 1019 -91 701 211 
Q 384 513 384 1019 
Q 384 1609 779 1909 
Q 1175 2209 1959 2209 
L 2766 2209 
L 2766 2266 
Q 2766 2663 2505 2880 
Q 2244 3097 1772 3097 
Q 1472 3097 1187 3025 
Q 903 2953 641 2809 
L 641 3341 
Q 956 3463 1253 3523 
Q 1550 3584 1831 3584 
Q 2591 3584 2966 3190 
Q 3341 2797 3341 1997 
z
" transform="scale(0.015625)"/>
       <path id="DejaVuSans-73" d="M 2834 3397 
L 2834 2853 
Q 2591 2978 2328 3040 
Q 2066 3103 1784 3103 
Q 1356 3103 1142 2972 
Q 928 2841 928 2578 
Q 928 2378 1081 2264 
Q 1234 2150 1697 2047 
L 1894 2003 
Q 2506 1872 2764 1633 
Q 3022 1394 3022 966 
Q 3022 478 2636 193 
Q 2250 -91 1575 -91 
Q 1294 -91 989 -36 
Q 684 19 347 128 
L 347 722 
Q 666 556 975 473 
Q 1284 391 1588 391 
Q 1994 391 2212 530 
Q 2431 669 2431 922 
Q 2431 1156 2273 1281 
Q 2116 1406 1581 1522 
L 1381 1569 
Q 847 1681 609 1914 
Q 372 2147 372 2553 
Q 372 3047 722 3315 
Q 1072 3584 1716 3584 
Q 2034 3584 2315 3537 
Q 2597 3491 2834 3397 
z
" transform="scale(0.015625)"/>
       <path id="DejaVuSans-6f" d="M 1959 3097 
Q 1497 3097 1228 2736 
Q 959 2375 959 1747 
Q 959 1119 1226 758 
Q 1494 397 1959 397 
Q 2419 397 2687 759 
Q 2956 1122 2956 1747 
Q 2956 2369 2687 2733 
Q 2419 3097 1959 3097 
z
M 1959 3584 
Q 2709 3584 3137 3096 
Q 3566 2609 3566 1747 
Q 3566 888 3137 398 
Q 2709 -91 1959 -91 
Q 1206 -91 779 398 
Q 353 888 353 1747 
Q 353 2609 779 3096 
Q 1206 3584 1959 3584 
z
" transform="scale(0.015625)"/>
       <path id="DejaVuSans-69" d="M 603 3500 
L 1178 3500 
L 1178 0 
L 603 0 
L 603 3500 
z
M 603 4863 
L 1178 4863 
L 1178 4134 
L 603 4134 
L 603 4863 
z
" transform="scale(0.015625)"/>
       <path id="DejaVuSans-64" d="M 2906 2969 
L 2906 4863 
L 3481 4863 
L 3481 0 
L 2906 0 
L 2906 525 
Q 2725 213 2448 61 
Q 2172 -91 1784 -91 
Q 1150 -91 751 415 
Q 353 922 353 1747 
Q 353 2572 751 3078 
Q 1150 3584 1784 3584 
Q 2172 3584 2448 3432 
Q 2725 3281 2906 2969 
z
M 947 1747 
Q 947 1113 1208 752 
Q 1469 391 1925 391 
Q 2381 391 2643 752 
Q 2906 1113 2906 1747 
Q 2906 2381 2643 2742 
Q 2381 3103 1925 3103 
Q 1469 3103 1208 2742 
Q 947 2381 947 1747 
z
" transform="scale(0.015625)"/>
       <path id="DejaVuSans-42" d="M 1259 2228 
L 1259 519 
L 2272 519 
Q 2781 519 3026 730 
Q 3272 941 3272 1375 
Q 3272 1813 3026 2020 
Q 2781 2228 2272 2228 
L 1259 2228 
z
M 1259 4147 
L 1259 2741 
L 2194 2741 
Q 2656 2741 2882 2914 
Q 3109 3088 3109 3444 
Q 3109 3797 2882 3972 
Q 2656 4147 2194 4147 
L 1259 4147 
z
M 628 4666 
L 2241 4666 
Q 2963 4666 3353 4366 
Q 3744 4066 3744 3513 
Q 3744 3084 3544 2831 
Q 3344 2578 2956 2516 
Q 3422 2416 3680 2098 
Q 3938 1781 3938 1306 
Q 3938 681 3513 340 
Q 3088 0 2303 0 
L 628 0 
L 628 4666 
z
" transform="scale(0.015625)"/>
       <path id="DejaVuSans-2f" d="M 1625 4666 
L 2156 4666 
L 531 -594 
L 0 -594 
L 1625 4666 
z
" transform="scale(0.015625)"/>
      </defs>
      <use xlink:href="#DejaVuSans-50"/>
      <use xlink:href="#DejaVuSans-68" x="60.302734"/>
      <use xlink:href="#DejaVuSans-61" x="123.681641"/>
      <use xlink:href="#DejaVuSans-73" x="184.960938"/>
      <use xlink:href="#DejaVuSans-65" x="237.060547"/>
      <use xlink:href="#DejaVuSans-20" x="298.583984"/>
      <use xlink:href="#DejaVuSans-6e" x="330.371094"/>
      <use xlink:href="#DejaVuSans-6f" x="393.75"/>
      <use xlink:href="#DejaVuSans-69" x="454.931641"/>
      <use xlink:href="#DejaVuSans-73" x="482.714844"/>
      <use xlink:href="#DejaVuSans-65" x="534.814453"/>
      <use xlink:href="#DejaVuSans-20" x="596.337891"/>
      <use xlink:href="#DejaVuSans-5b" x="628.125"/>
      <use xlink:href="#DejaVuSans-64" x="667.138672"/>
      <use xlink:href="#DejaVuSans-42" x="730.615234"/>
      <use xlink:href="#DejaVuSans-63" x="799.21875"/>
      <use xlink:href="#DejaVuSans-2f" x="854.199219"/>
      <use xlink:href="#DejaVuSans-48" x="887.890625"/>
      <use xlink:href="#DejaVuSans-7a" x="963.085938"/>
      <use xlink:href="#DejaVuSans-5d" x="1015.576172"/>
     </g>
    </g>
   </g>
   <g id="line2d_50">
    <path d="M 398.487273 290.603393 
L 398.133009 288.828204 
L 397.775149 287.983299 
L 397.413619 287.6684 
L 397.048342 288.618641 
L 396.67924 289.126472 
L 396.306232 289.365972 
L 395.929234 288.820443 
L 395.548161 289.261745 
L 395.162923 288.717324 
L 394.773428 289.482396 
L 394.379582 288.095288 
L 393.981285 289.938113 
L 393.578435 288.784961 
L 393.170929 289.812819 
L 392.758656 288.284892 
L 392.341504 288.518849 
L 391.919356 287.177201 
L 391.492092 286.966529 
L 391.059584 287.402288 
L 390.621704 288.244976 
L 390.178315 288.51774 
L 389.729278 288.38912 
L 389.274447 289.449132 
L 387.873644 285.932019 
L 387.394059 289.925916 
L 386.907859 291.371792 
L 386.414859 291.03139 
L 385.914866 289.242896 
L 385.407679 287.995496 
L 384.893087 287.543105 
L 384.370871 286.650521 
L 383.840802 287.530908 
L 383.30264 289.226264 
L 382.756135 288.904712 
L 382.201022 289.725224 
L 381.637027 287.984408 
L 381.063862 288.256064 
L 380.481221 284.910814 
L 379.286228 285.504022 
L 378.673188 288.752806 
L 378.049297 288.88808 
L 377.414164 289.400345 
L 376.767377 289.736312 
L 376.1085 290.226401 
L 374.752605 285.657036 
L 374.054584 284.947404 
L 373.34246 286.230286 
L 372.615652 286.187043 
L 371.873543 286.848996 
L 371.115472 289.000068 
L 369.548595 289.872694 
L 368.73824 288.58316 
L 367.908815 290.112195 
L 367.059402 288.109702 
L 366.189015 287.342412 
L 365.296589 285.642622 
L 364.380981 287.475468 
L 363.440954 287.148372 
L 362.47517 289.421412 
L 361.482177 288.640817 
L 360.460398 287.069648 
L 359.408113 284.23999 
L 358.323446 282.424884 
L 357.204338 284.691272 
L 356.048532 284.679075 
L 354.853539 285.842206 
L 353.616608 285.486281 
L 351.004382 282.993699 
L 349.621895 282.170969 
L 348.182963 283.368473 
L 346.682783 283.307489 
L 345.115906 282.128835 
L 343.476126 280.260507 
L 341.756325 279.941172 
L 339.948292 279.329115 
L 338.042481 279.094049 
L 336.027709 277.98414 
L 333.890756 276.486152 
L 329.183919 271.917896 
L 326.571693 270.833489 
L 323.750274 271.150606 
L 323.455302 271.465505 
L 323.157841 270.894473 
L 322.555281 269.12372 
L 322.219429 268.628086 
L 322.034879 267.043611 
L 321.849358 265.748532 
L 321.7873 265.721921 
L 321.75623 265.798428 
L 321.53797 266.605635 
L 321.349808 267.318593 
L 321.223807 267.511524 
L 321.192236 267.637928 
L 321.160637 267.554768 
L 321.002214 266.909446 
L 320.970444 266.927187 
L 320.938645 266.944928 
L 320.651158 268.445134 
L 320.586952 268.396347 
L 320.458189 268.358648 
L 320.425925 268.291011 
L 320.231715 267.361836 
L 320.134208 267.601337 
L 319.971094 268.296555 
L 319.905636 268.185675 
L 319.708531 267.218801 
L 319.609563 267.491566 
L 319.576512 267.355184 
L 319.443997 267.075766 
L 319.344283 267.298635 
L 319.310982 267.185537 
L 319.244286 266.679924 
L 319.076991 266.104457 
L 318.908899 266.304041 
L 318.875184 266.272995 
L 318.740001 266.259689 
L 318.331313 267.592467 
L 318.262736 267.707782 
L 318.090705 266.152136 
L 317.917832 264.461216 
L 317.883155 264.378056 
L 317.813699 264.440148 
L 317.604506 265.272857 
L 317.394064 265.056641 
L 317.358868 265.729683 
L 317.323636 265.0389 
L 317.28837 264.621992 
L 316.93375 263.373483 
L 316.575526 263.894619 
L 316.213624 263.352416 
L 315.847968 261.749091 
L 315.478479 261.757961 
L 315.105076 261.909867 
L 314.727675 262.601758 
L 314.34619 262.31347 
L 313.96053 263.978888 
L 313.570605 263.554217 
L 312.77757 258.747569 
L 312.37426 258.934956 
L 311.553526 261.569465 
L 311.13588 260.516105 
L 310.285442 257.612158 
L 309.852404 258.528027 
L 309.413979 258.9405 
L 308.970032 257.900446 
L 308.065003 255.114032 
L 307.603623 256.226158 
L 307.136124 257.782913 
L 306.662341 258.744243 
L 306.182103 256.638632 
L 305.695232 253.259009 
L 305.201542 250.742033 
L 304.700838 249.832817 
L 303.677576 250.664417 
L 302.623718 253.871067 
L 302.084733 254.564067 
L 299.842393 247.06747 
L 299.258788 245.924297 
L 298.665358 247.310297 
L 298.061766 250.166566 
L 297.447657 250.241964 
L 296.82266 250.44044 
L 296.186381 249.588881 
L 295.538405 253.019508 
L 294.878293 250.320689 
L 294.205583 248.251668 
L 293.519785 242.606768 
L 292.820379 243.728873 
L 292.106814 243.537051 
L 291.378504 244.888678 
L 290.634829 243.909608 
L 289.875124 245.427555 
L 289.098685 245.063868 
L 288.304757 245.499627 
L 287.492534 243.335249 
L 286.661153 242.470385 
L 285.809688 239.245995 
L 284.937146 238.509752 
L 284.042455 237.981963 
L 282.181922 239.558676 
L 280.217686 237.221326 
L 279.192936 234.875105 
L 278.1375 234.48259 
L 277.049484 233.047803 
L 275.926812 231.033113 
L 274.767203 230.265824 
L 273.568145 229.079408 
L 272.326858 230.419947 
L 271.040258 230.289108 
L 269.704912 232.539972 
L 268.31698 230.004147 
L 266.87215 227.646838 
L 265.365556 224.597638 
L 260.416002 221.725846 
L 259.880566 220.026056 
L 259.700264 220.674704 
L 259.33687 223.881353 
L 258.784656 225.325011 
L 258.598645 226.359521 
L 258.411648 225.951483 
L 257.653577 219.177824 
L 257.461485 219.183368 
L 257.26834 219.81871 
L 257.07413 219.868606 
L 256.484998 216.176302 
L 256.286412 216.110883 
L 256.086701 215.757176 
L 255.885852 215.088569 
L 255.480687 214.804716 
L 255.276345 215.096331 
L 254.864072 214.137219 
L 254.656114 212.97187 
L 254.446921 212.645883 
L 254.236479 213.13819 
L 253.811788 212.674712 
L 253.597508 212.05711 
L 253.381918 212.307699 
L 253.165 212.217886 
L 252.72712 212.335419 
L 252.283732 212.784483 
L 252.059928 212.689126 
L 251.834695 212.212342 
L 251.608013 211.1235 
L 251.379864 210.623432 
L 251.150228 210.882891 
L 250.68642 213.288987 
L 250.4287 213.937635 
L 250.240076 215.886905 
L 250.216427 215.407904 
L 249.931394 210.306315 
L 249.883664 210.4305 
L 249.811947 211.329737 
L 249.740083 211.018164 
L 249.57183 209.260716 
L 249.499475 209.299524 
L 249.451156 209.113246 
L 249.3058 207.810406 
L 249.135456 207.349145 
L 249.111054 207.310337 
L 248.693611 200.364814 
L 248.619429 200.452409 
L 248.569887 200.541113 
L 248.54509 200.406948 
L 248.445727 200.151924 
L 248.420843 200.288307 
L 248.346084 200.707433 
L 248.296156 200.408057 
L 248.221132 199.42566 
L 248.045452 196.890944 
L 248.020283 196.8854 
L 247.894168 196.413051 
L 247.868891 196.63592 
L 247.767601 197.588379 
L 247.691442 197.222475 
L 247.666019 197.22691 
L 247.513095 198.561905 
L 247.436384 198.381171 
L 247.359505 198.429958 
L 247.282458 198.665024 
L 247.231 198.569667 
L 247.102025 198.109515 
L 247.076173 198.180478 
L 246.972576 198.544164 
L 246.633766 201.67098 
L 246.449973 202.952753 
L 246.423638 202.61346 
L 246.318102 201.682068 
L 246.265216 201.755249 
L 246.132651 202.586849 
L 246.106078 202.057952 
L 245.999586 200.970219 
L 245.972912 201.108819 
L 245.54337 203.820944 
L 245.217742 207.063075 
L 245.163177 206.622881 
L 245.026394 205.111587 
L 244.834002 201.284009 
L 244.751226 201.220808 
L 244.72359 201.252963 
L 244.640554 201.472505 
L 244.529534 202.217619 
L 244.446038 202.011382 
L 244.362345 202.088998 
L 244.334403 202.127806 
L 244.025569 200.112008 
L 243.997359 200.112008 
L 243.855967 199.150678 
L 243.799251 199.192812 
L 243.370948 202.259753 
L 243.342208 201.961486 
L 243.227016 200.993504 
L 243.198159 201.05227 
L 243.169278 201.111036 
L 242.616 206.234801 
L 242.586638 206.279153 
L 242.439461 207.307011 
L 241.994205 202.842982 
L 241.93441 202.816371 
L 241.844528 203.257673 
L 241.784479 203.182275 
L 241.512984 201.36606 
L 241.330818 199.849222 
L 241.20885 199.476665 
L 241.086457 198.734878 
L 240.840391 196.123654 
L 240.685722 195.439524 
L 240.654707 195.449504 
L 240.592594 195.511596 
L 240.499219 194.655603 
L 240.436832 194.666691 
L 240.343043 195.227744 
L 240.311725 195.027051 
L 239.933717 193.197531 
L 239.806808 193.209728 
L 239.711325 193.134329 
L 239.67944 193.058931 
L 239.583612 191.982286 
L 239.519581 191.995592 
L 239.423316 192.430241 
L 239.391169 192.236201 
L 239.294553 191.121857 
L 239.197671 190.502038 
L 239.165317 190.55526 
L 239.100522 190.834678 
L 238.905416 191.820401 
L 238.840141 191.782702 
L 238.807457 191.759417 
L 238.511936 188.389774 
L 238.478947 188.389774 
L 238.412876 188.026088 
L 238.213916 185.64882 
L 238.08065 185.116596 
L 238.047254 185.254088 
L 237.913355 185.851731 
L 237.846214 185.765244 
L 237.745263 185.722001 
L 237.711548 185.767462 
L 237.508578 185.998092 
L 237.270294 184.591025 
L 237.167677 184.644248 
L 237.06476 184.987976 
L 237.030388 184.902598 
L 236.719518 184.347089 
L 236.684808 184.349307 
L 236.230427 186.536969 
L 236.124733 191.602522 
L 235.769757 191.213333 
L 235.048897 188.57328 
L 234.682862 185.514101 
L 234.312986 187.493309 
L 233.179485 180.021106 
L 232.793404 179.550975 
L 232.403047 181.389365 
L 232.008319 182.575781 
L 231.609121 184.158039 
L 230.7969 180.066567 
L 229.965521 178.74266 
L 229.114058 175.253266 
L 228.680488 174.124508 
L 228.241518 175.571492 
L 227.346829 172.211828 
L 226.890823 168.684735 
L 226.428839 169.022919 
L 225.960721 173.003511 
L 225.486301 173.9094 
L 225.005409 173.230815 
L 224.517866 168.211277 
L 224.023485 168.490695 
L 223.522071 166.505943 
L 223.013421 169.001852 
L 222.497323 166.02805 
L 221.973557 165.061176 
L 221.441891 162.671712 
L 220.902082 162.896799 
L 220.353878 161.626114 
L 219.797013 161.661596 
L 219.23121 159.838728 
L 218.656176 161.387722 
L 218.071605 160.052727 
L 217.477176 159.561528 
L 216.872551 159.491674 
L 216.257373 159.684605 
L 215.631268 159.010455 
L 214.344673 153.743655 
L 213.683325 154.045248 
L 212.322199 149.713167 
L 211.549916 145.203677 
L 211.4065 148.439156 
L 211.190277 157.792992 
L 210.826931 147.786072 
L 210.75381 148.594388 
L 210.680537 148.378172 
L 210.533533 146.640682 
L 210.459801 146.977757 
L 210.237673 152.518431 
L 210.088806 150.678932 
L 210.014137 152.092652 
L 209.789173 145.444287 
L 209.713866 146.667293 
L 209.638396 146.89238 
L 209.562765 145.772492 
L 209.486972 145.935485 
L 209.334894 148.93368 
L 209.258608 147.789399 
L 208.951803 151.200068 
L 208.874683 151.084752 
L 208.330064 144.781224 
L 208.25157 147.232781 
L 208.094055 153.639428 
L 207.856456 143.966256 
L 207.776898 144.793421 
L 207.537144 149.607831 
L 207.376397 151.425154 
L 207.295747 151.727856 
L 207.133893 145.020725 
L 207.052686 144.229042 
L 206.971292 146.763759 
L 206.88971 146.345741 
L 206.643823 150.05246 
L 206.396209 142.36404 
L 206.313282 142.137845 
L 206.230161 142.29086 
L 206.146843 141.685455 
L 205.811587 145.034031 
L 205.642755 143.561544 
L 205.387982 138.737156 
L 205.302647 138.387884 
L 205.131354 141.515808 
L 204.959225 146.110676 
L 204.872844 145.507488 
L 204.525188 139.944639 
L 204.350066 145.149346 
L 204.262178 144.07381 
L 204.174069 145.231397 
L 204.08574 144.196887 
L 203.99719 144.983026 
L 203.730194 136.874372 
L 203.640745 136.631544 
L 203.551067 135.978461 
L 203.461161 136.769036 
L 203.190059 141.62558 
L 203.099227 140.890445 
L 202.825316 134.579156 
L 202.641519 137.652749 
L 202.549259 137.409922 
L 202.364013 134.666751 
L 202.271024 134.326349 
L 202.177789 134.448317 
L 201.896594 138.514287 
L 201.802362 138.590794 
L 201.613138 139.078666 
L 201.518144 138.551986 
L 201.422893 137.317892 
L 201.135586 138.928978 
L 201.039295 138.903476 
L 200.942739 136.607151 
L 200.845919 136.747968 
L 200.748831 136.150325 
L 200.553851 138.708327 
L 200.357786 141.562378 
L 200.259343 141.291831 
L 200.160624 139.229463 
L 200.061628 139.787189 
L 199.762961 135.042634 
L 199.259489 132.715263 
L 199.056069 134.127874 
L 198.748721 138.593012 
L 198.645674 138.568618 
L 198.43867 137.265778 
L 198.02098 133.978186 
L 197.915779 133.742012 
L 197.704432 127.762253 
L 197.598281 127.868698 
L 197.277896 133.408263 
L 197.170451 132.952546 
L 197.062677 134.022538 
L 196.954573 131.942429 
L 196.737365 135.583728 
L 196.628257 136.169175 
L 196.298891 132.211868 
L 196.188415 132.390384 
L 196.077592 131.528847 
L 195.966419 132.769594 
L 195.854894 131.519976 
L 195.743016 131.883663 
L 195.630781 131.129679 
L 195.518188 131.817135 
L 195.405234 131.440143 
L 195.291916 133.65996 
L 194.949762 128.294477 
L 194.834969 129.292397 
L 194.719801 130.385674 
L 194.488329 134.564741 
L 194.37202 135.159058 
L 194.255327 135.161276 
L 194.138246 133.851783 
L 193.784651 128.445274 
L 193.665993 128.777914 
L 193.458264 123.231696 
L 193.601209 129.744788 
L 193.432212 123.911391 
L 193.314737 131.704037 
L 193.2624 127.4784 
L 193.236202 126.631277 
L 193.209985 129.026285 
L 193.144357 131.098632 
L 193.104921 129.75144 
L 193.052272 125.592332 
L 192.946736 127.365303 
L 192.907078 128.703624 
L 192.854132 126.916239 
L 192.827629 126.650127 
L 192.81437 127.451789 
L 192.801106 128.386508 
L 192.761284 125.542436 
L 192.721418 126.876322 
L 192.708119 126.327466 
L 192.681506 128.512911 
L 192.668192 129.393298 
L 192.614885 127.361976 
L 192.588202 125.292956 
L 192.50803 127.233356 
L 192.374003 129.800228 
L 192.414265 127.04486 
L 192.333696 129.219216 
L 192.199003 126.364056 
L 192.158495 127.852066 
L 192.009565 130.035293 
L 191.98242 129.204802 
L 191.941661 131.597592 
L 191.846376 135.003826 
L 191.819104 132.537855 
L 191.80546 132.14534 
L 191.791811 133.64222 
L 191.778156 135.1391 
L 191.737161 132.323856 
L 191.696118 133.315124 
L 191.503951 122.282564 
L 191.476413 122.657338 
L 191.448853 122.862466 
L 191.338398 130.967794 
L 191.296888 130.799256 
L 191.28304 130.812562 
L 191.227596 129.72372 
L 191.185955 130.840282 
L 191.172064 130.965576 
L 191.130357 125.851791 
L 191.03285 126.502656 
L 190.949057 122.882424 
L 190.907086 125.73204 
L 190.893084 125.73204 
L 190.851046 126.115685 
L 190.808958 125.677709 
L 190.766819 124.701965 
L 190.696476 124.710836 
L 190.668299 126.048048 
L 190.6401 123.390255 
L 190.611879 121.727055 
L 190.569504 125.325111 
L 190.541225 128.123722 
L 190.456254 126.051375 
L 190.427885 126.667868 
L 190.413691 127.222268 
L 190.385288 124.647634 
L 190.342639 122.148399 
L 190.299939 125.412706 
L 190.285694 126.486024 
L 190.200104 125.528021 
L 190.12862 121.929965 
L 190.085659 124.4292 
L 189.870069 130.264815 
L 189.783462 130.956706 
L 189.754546 130.349084 
L 189.493227 121.807997 
L 189.478652 122.306957 
L 189.391077 125.033496 
L 189.361837 123.733983 
L 189.303284 122.076327 
L 189.273971 123.980136 
L 189.259305 125.322893 
L 189.215271 120.29005 
L 189.200581 121.211463 
L 189.185885 121.214789 
L 189.023821 115.490055 
L 189.127039 122.756021 
L 189.009051 115.959077 
L 188.801616 128.19025 
L 188.771883 127.658026 
L 188.712341 126.706676 
L 188.69744 127.834325 
L 188.667618 130.169458 
L 188.622839 126.065789 
L 188.592954 127.62698 
L 188.563044 127.517208 
L 188.533109 127.915268 
L 188.503148 128.263431 
L 188.473162 128.161421 
L 188.368008 122.911253 
L 188.337906 124.330517 
L 188.277626 128.488517 
L 188.187012 127.104735 
L 188.171887 127.073688 
L 188.111322 122.65512 
L 188.020278 123.372514 
L 188.005082 123.198432 
L 187.989878 123.757268 
L 187.852752 129.289071 
L 187.822207 126.932871 
L 187.63838 119.083676 
L 187.607648 122.069674 
L 187.592272 123.712916 
L 187.561501 121.200375 
L 187.499877 121.840152 
L 187.422695 119.396357 
L 187.360828 119.730106 
L 187.329853 120.942024 
L 187.174571 123.925805 
L 187.065466 123.105293 
L 187.03423 123.279375 
L 187.018602 123.271613 
L 186.940358 124.418112 
L 186.893328 128.246799 
L 186.830524 125.622269 
L 186.720347 121.752557 
L 186.704579 122.503215 
L 186.688804 123.146319 
L 186.609823 122.509868 
L 186.435441 120.272309 
L 186.387732 120.682565 
L 186.27616 124.231834 
L 186.244217 122.552002 
L 186.228235 122.357962 
L 186.212245 123.31153 
L 186.196248 124.265098 
L 186.148214 120.894346 
L 186.100115 120.286724 
L 186.068012 120.584991 
L 185.987627 127.061492 
L 185.923186 123.334815 
L 185.907058 123.613124 
L 185.874779 123.160733 
L 185.729155 119.487279 
L 185.712938 119.885338 
L 185.55035 124.152 
L 185.501427 122.537588 
L 185.305054 115.381392 
L 185.28864 115.412439 
L 185.255789 117.544661 
L 185.189995 116.138703 
L 185.07456 109.661093 
L 185.041509 110.423948 
L 184.991875 111.614799 
L 184.925586 119.193447 
L 184.892395 123.899194 
L 184.80928 120.691436 
L 184.792634 120.460805 
L 184.775979 120.93648 
L 184.675888 122.685058 
L 184.659178 122.018669 
L 184.625735 119.45845 
L 184.575511 123.270504 
L 184.441229 129.748114 
L 184.407579 128.19912 
L 184.255753 122.444448 
L 184.221925 122.455536 
L 184.188064 122.366832 
L 183.967173 114.817013 
L 183.898928 115.893658 
L 183.881845 115.892549 
L 183.779179 117.533573 
L 183.710568 121.486445 
L 183.693394 123.001066 
L 183.624616 120.089357 
L 183.538453 124.065514 
L 183.417471 122.619639 
L 183.348152 119.266628 
L 183.296073 121.992058 
L 183.278696 121.415482 
L 183.261311 122.432252 
L 183.226514 124.458029 
L 183.174255 121.591781 
L 183.034516 115.164068 
L 182.964439 118.239879 
L 182.806254 116.789568 
L 182.929348 118.459421 
L 182.788634 117.282984 
L 182.682728 119.092546 
L 182.665046 118.278687 
L 182.629655 117.236415 
L 182.558768 118.429484 
L 182.452168 122.510976 
L 182.43437 121.921095 
L 182.327393 118.809802 
L 182.309532 119.84653 
L 182.273782 121.621719 
L 182.202175 119.641402 
L 182.166316 117.543552 
L 182.07651 118.378479 
L 182.058521 118.439463 
L 182.022516 117.220892 
L 181.986474 118.592477 
L 181.96844 119.598159 
L 181.91428 116.504607 
L 181.823828 117.915 
L 181.860037 116.429208 
L 181.80571 116.546741 
L 181.769446 111.781119 
L 181.678622 113.505303 
L 181.404736 122.754912 
L 181.605793 113.291304 
L 181.368056 120.790119 
L 181.276191 114.354644 
L 181.220956 115.480076 
L 181.147175 119.653599 
L 181.091737 116.974738 
L 180.887718 111.985138 
L 180.869112 111.947439 
L 180.831871 112.064972 
L 180.738595 116.013408 
L 180.68251 113.27689 
L 180.626337 110.778764 
L 180.588838 113.250279 
L 180.570074 113.992066 
L 180.532515 112.584999 
L 180.476102 113.317916 
L 180.457277 112.775712 
L 180.438442 114.381255 
L 180.400743 117.932741 
L 180.344118 115.054296 
L 180.230595 113.769197 
L 180.211639 113.781394 
L 180.154709 119.052629 
L 180.07866 116.655404 
L 180.021515 115.101975 
L 179.964277 115.904746 
L 179.906946 118.0913 
L 179.868674 115.565453 
L 179.849522 114.852495 
L 179.753606 115.365869 
L 179.676686 117.717634 
L 179.638162 119.977368 
L 179.580298 116.775154 
L 179.444911 114.00892 
L 177.62102 112.497182 
L 177.435009 113.350958 
L 177.248012 113.343196 
L 177.060017 114.127118 
L 176.871014 113.771193 
L 176.680993 113.887617 
L 176.489941 111.392817 
L 176.297848 110.366068 
L 176.104703 108.213888 
L 175.518835 109.694136 
L 175.321362 111.86184 
L 175.122776 112.728921 
L 174.923065 112.918526 
L 174.722215 112.173412 
L 174.520215 113.374243 
L 173.907175 109.143062 
L 173.700436 109.685265 
L 173.492477 109.851585 
L 173.072842 111.783115 
L 172.861136 111.594619 
L 172.648151 111.032457 
L 172.433872 111.191016 
L 172.001364 108.505502 
L 171.783104 108.371337 
L 171.563484 108.659625 
L 171.342487 109.638696 
L 171.120095 108.32255 
L 170.896292 108.515481 
L 170.444376 111.181036 
L 170.216227 109.888176 
L 169.986592 106.867804 
L 169.75545 106.004049 
L 169.522784 108.606403 
L 169.288571 109.775078 
L 168.815424 105.967459 
L 168.576447 106.212504 
L 168.335839 104.815416 
L 167.849639 103.202112 
L 167.604001 106.805712 
L 167.356639 106.570646 
L 166.856646 103.66559 
L 166.603965 102.942652 
L 166.349459 103.794211 
L 166.093102 104.231078 
L 165.834867 105.591576 
L 165.574726 105.814444 
L 165.312651 102.09442 
L 165.048613 102.379382 
L 164.782582 101.271691 
L 164.514528 102.549028 
L 164.24442 102.150969 
L 163.972227 102.214171 
L 163.697915 101.921448 
L 163.421451 101.039952 
L 163.142802 101.77176 
L 162.578807 100.731705 
L 162.293389 98.996433 
L 162.005642 98.853398 
L 161.715525 97.824432 
L 161.423001 99.167188 
L 161.12803 101.180769 
L 160.530576 99.963307 
L 160.228008 98.336697 
L 159.922821 100.281532 
L 159.614968 99.253675 
L 159.304403 99.95111 
L 158.991077 99.943348 
L 158.674941 100.08971 
L 158.355944 97.644806 
L 158.034034 97.988534 
L 157.381258 100.18174 
L 157.05028 97.266705 
L 156.716164 95.878488 
L 156.378851 96.317572 
L 156.038279 98.87003 
L 155.694385 98.446468 
L 155.347102 96.460608 
L 154.996364 92.995608 
L 154.6421 92.947929 
L 153.922709 97.874328 
L 153.18833 100.033161 
L 152.438325 98.076129 
L 152.057252 95.823048 
L 151.672014 96.587011 
L 151.282519 96.455064 
L 150.490375 93.109814 
L 150.087526 92.333654 
L 149.68002 92.931297 
L 149.267747 94.95264 
L 148.428447 93.290548 
L 148.001182 89.444121 
L 147.568675 89.904273 
L 147.130795 89.918688 
L 146.238369 92.650771 
L 145.783538 92.87364 
L 145.322761 92.554305 
L 144.855881 90.469761 
L 144.382734 89.690275 
L 143.41695 85.868241 
L 142.92395 84.79714 
L 142.423957 84.637473 
L 141.91677 84.772747 
L 141.402178 84.421257 
L 140.879962 85.279468 
L 140.349893 85.438027 
L 139.811731 84.497764 
L 139.265226 83.9478 
L 138.710113 84.251611 
L 138.146118 85.038859 
L 137.572952 84.927979 
L 136.990312 85.609891 
L 136.39788 85.99908 
L 135.795319 86.077804 
L 135.182279 84.722851 
L 134.558388 82.552929 
L 133.923255 84.43678 
L 133.276468 84.137404 
L 132.617591 85.207396 
L 131.946162 82.089451 
L 131.261696 83.10622 
L 130.563675 82.758057 
L 129.851551 83.360136 
L 129.124743 81.975244 
L 128.382633 82.743643 
L 127.624563 83.016408 
L 126.84983 84.036504 
L 126.057686 84.383558 
L 125.247331 84.94572 
L 124.417906 86.410444 
L 123.568493 86.629987 
L 122.698105 87.099009 
L 121.80568 86.157638 
L 120.890072 85.776211 
L 119.950045 86.143224 
L 118.984261 86.192011 
L 117.991268 85.846065 
L 116.969489 86.452579 
L 115.917204 87.408364 
L 114.832536 88.091385 
L 113.713429 87.49596 
L 112.557623 87.521462 
L 111.36263 89.194641 
L 110.125699 88.23442 
L 108.843779 88.931856 
L 107.513473 88.507185 
L 106.130985 90.21252 
L 104.692054 91.23816 
L 103.191874 90.3234 
L 101.624997 88.623609 
L 99.985217 85.387022 
L 98.265416 84.72396 
L 98.08873 84.188409 
L 97.553293 85.495684 
L 97.009597 84.53879 
L 96.457383 89.663664 
L 96.271373 90.660475 
L 95.517356 97.804473 
L 95.326305 97.082644 
L 94.941067 93.864907 
L 94.746857 93.231782 
L 94.157725 94.22194 
L 93.759428 92.741692 
L 93.558579 92.064216 
L 93.356579 92.269344 
L 93.153415 92.289302 
L 92.949072 91.303579 
L 92.5368 90.790204 
L 92.328841 91.512033 
L 91.909206 90.902193 
L 91.6975 90.921043 
L 91.270235 90.58175 
L 91.054645 89.905382 
L 90.837728 89.946408 
L 90.17885 91.69942 
L 89.956459 91.575235 
L 89.507422 93.323812 
L 89.28074 94.506902 
L 89.052591 94.698724 
L 88.822955 94.598932 
L 88.359147 93.598795 
L 88.124934 93.728524 
L 87.651787 94.535731 
L 87.412811 93.564422 
L 87.172203 93.153057 
L 86.929941 93.411408 
L 86.686003 94.114387 
L 86.193003 94.696507 
L 85.943893 95.677795 
L 85.69301 95.906208 
L 85.440329 94.722009 
L 84.929466 91.261444 
L 84.671231 91.213766 
L 83.618946 96.414038 
L 83.350892 97.108147 
L 83.080784 97.248964 
L 82.534278 97.798929 
L 82.257815 97.507315 
L 81.415171 95.821939 
L 80.551889 92.506627 
L 79.666932 91.04412 
L 79.064372 90.931022 
L 78.451332 92.0875 
L 78.140767 92.801568 
L 77.827441 93.027763 
L 77.511305 93.082094 
L 77.160249 92.553196 
L 76.999515 92.959017 
L 76.870398 95.909534 
L 76.838045 94.781884 
L 76.675831 92.431228 
L 76.545521 92.240515 
L 76.381952 90.078355 
L 76.349147 90.290136 
L 76.217622 90.713697 
L 76.184663 90.7015 
L 76.052521 90.677107 
L 75.886643 91.565256 
L 75.719981 91.023052 
L 75.552528 91.771492 
L 75.215215 89.670316 
L 75.079381 88.634697 
L 74.908849 90.770246 
L 74.737488 88.671288 
L 74.703115 88.721184 
L 74.392246 89.113699 
L 74.183466 88.754448 
L 73.832727 88.697899 
L 73.832727 88.697899 
" clip-path="url(#pe6acaf53db)" style="fill: none; stroke: #ff0000; stroke-width: 1.5; stroke-linecap: square"/>
   </g>
   <g id="line2d_51">
    <path d="M 398.487273 280.726203 
L 398.133009 281.510124 
L 397.775149 280.120798 
L 397.413619 280.524401 
L 397.048342 280.651913 
L 396.67924 281.63431 
L 396.306232 281.79176 
L 395.929234 280.226134 
L 395.548161 280.108601 
L 395.162923 278.447619 
L 394.773428 278.239164 
L 394.379582 277.882131 
L 393.981285 278.607286 
L 393.578435 278.913315 
L 393.170929 279.661755 
L 392.758656 278.608395 
L 392.341504 278.447619 
L 391.919356 276.842076 
L 391.059584 277.978596 
L 390.178315 275.784281 
L 389.729278 275.219902 
L 389.274447 276.936324 
L 388.81367 277.449699 
L 388.346791 276.466193 
L 387.873644 276.149076 
L 387.394059 277.423088 
L 386.907859 279.074091 
L 386.414859 278.682684 
L 385.914866 278.764736 
L 385.407679 278.707078 
L 384.893087 279.345747 
L 384.370871 278.805761 
L 383.840802 278.680467 
L 383.30264 279.059676 
L 382.201022 278.601742 
L 381.637027 278.911097 
L 380.481221 282.176513 
L 379.888789 282.478107 
L 379.286228 281.014491 
L 378.673188 278.924403 
L 378.049297 278.355588 
L 377.414164 279.895712 
L 376.767377 282.755307 
L 376.1085 281.630984 
L 375.437071 282.09668 
L 374.752605 280.789404 
L 374.054584 281.64318 
L 373.34246 280.681851 
L 372.615652 280.111928 
L 371.873543 279.369032 
L 371.115472 277.528424 
L 370.340739 277.351016 
L 369.548595 278.727036 
L 368.73824 279.517611 
L 367.908815 280.598691 
L 367.059402 279.871318 
L 365.296589 277.794536 
L 364.380981 278.037363 
L 363.440954 277.35656 
L 362.47517 277.728008 
L 361.482177 277.354342 
L 360.460398 278.690446 
L 359.408113 277.936462 
L 358.323446 276.583726 
L 357.204338 276.08144 
L 356.048532 276.208952 
L 354.853539 275.626832 
L 353.616608 276.274371 
L 352.334688 275.215467 
L 351.004382 277.264529 
L 349.621895 276.67243 
L 348.182963 277.477419 
L 346.682783 277.608257 
L 345.115906 277.191348 
L 343.476126 274.552404 
L 341.756325 271.423371 
L 339.948292 270.079505 
L 338.042481 270.432104 
L 336.027709 270.029609 
L 333.890756 270.00078 
L 331.615843 269.804523 
L 329.183919 270.617273 
L 326.571693 270.877841 
L 323.750274 270.530787 
L 323.157841 267.831968 
L 322.857849 267.456084 
L 322.555281 267.525939 
L 322.250094 267.391774 
L 322.096504 267.002585 
L 321.444015 270.615056 
L 321.223807 267.612425 
L 321.160637 267.645689 
L 320.938645 267.905148 
L 320.683217 267.861905 
L 320.586952 267.82088 
L 320.393631 266.621158 
L 320.264158 266.661075 
L 320.199243 266.892814 
L 319.971094 267.764331 
L 319.708531 266.420465 
L 319.642583 266.440424 
L 319.510317 266.455947 
L 319.344283 265.755185 
L 319.177463 265.828366 
L 319.043437 265.94479 
L 318.807657 266.836265 
L 318.773845 266.605635 
L 318.638272 266.137721 
L 318.43393 266.958233 
L 318.297041 267.148947 
L 318.262736 267.222128 
L 318.228397 267.126771 
L 318.090705 266.581241 
L 317.917832 264.251652 
L 317.674375 263.73606 
L 317.604506 263.476601 
L 317.534498 263.56974 
L 317.394064 264.574313 
L 317.358868 265.904873 
L 317.323636 265.373758 
L 317.28837 264.097529 
L 316.93375 263.217142 
L 316.575526 261.489632 
L 316.213624 261.159209 
L 315.847968 261.222411 
L 315.478479 264.78942 
L 315.105076 265.768491 
L 314.727675 261.993027 
L 314.34619 259.745489 
L 313.96053 261.094899 
L 313.570605 263.567523 
L 313.176317 263.870225 
L 312.37426 258.724284 
L 311.966282 258.46926 
L 311.553526 258.624492 
L 311.13588 259.391782 
L 310.713226 257.866073 
L 310.285442 255.659561 
L 309.852404 255.501003 
L 309.413979 252.710153 
L 308.520422 250.664417 
L 307.603623 253.366563 
L 306.182103 249.242936 
L 305.695232 250.320689 
L 305.201542 252.192344 
L 304.700838 251.304195 
L 303.677576 249.159776 
L 303.154585 249.429214 
L 302.623718 250.034619 
L 302.084733 251.215491 
L 301.537379 250.661091 
L 300.981391 249.069963 
L 300.416492 246.517505 
L 299.842393 246.396646 
L 298.061766 248.543283 
L 297.447657 247.906832 
L 296.82266 246.54079 
L 296.186381 246.80912 
L 295.538405 245.731366 
L 294.878293 245.867748 
L 294.205583 244.132476 
L 293.519785 244.996232 
L 292.820379 245.315566 
L 292.106814 243.726656 
L 291.378504 241.234073 
L 290.634829 239.255974 
L 289.875124 239.855835 
L 288.304757 242.184315 
L 287.492534 242.309609 
L 286.661153 243.326379 
L 285.809688 242.593462 
L 284.937146 243.032547 
L 284.042455 242.194294 
L 283.124462 240.99679 
L 282.181922 238.602891 
L 281.213484 235.7943 
L 280.217686 233.570048 
L 279.192936 232.230617 
L 278.1375 231.435608 
L 277.049484 232.853763 
L 275.926812 235.421744 
L 274.767203 236.073718 
L 273.568145 234.966027 
L 272.326858 231.297008 
L 271.040258 228.149124 
L 268.31698 225.52903 
L 266.87215 226.228683 
L 265.365556 223.94899 
L 263.791682 222.776988 
L 262.144237 221.062784 
L 260.416002 219.752182 
L 260.05995 217.191963 
L 259.519035 215.129595 
L 259.33687 214.622873 
L 258.96969 212.608184 
L 258.784656 212.918648 
L 258.598645 213.84006 
L 257.844629 221.988632 
L 257.461485 223.830348 
L 257.26834 223.734992 
L 257.07413 221.621619 
L 256.682471 214.864592 
L 256.484998 213.3411 
L 255.885852 213.122667 
L 255.683852 213.153713 
L 255.480687 214.017468 
L 255.070812 212.801115 
L 254.864072 211.213313 
L 254.656114 211.4007 
L 254.446921 211.172288 
L 254.024773 211.570347 
L 253.381918 215.089678 
L 253.165 214.316844 
L 252.94674 214.066256 
L 252.72712 214.26584 
L 252.506123 215.674016 
L 252.283732 215.953433 
L 252.059928 215.604161 
L 251.834695 214.443248 
L 251.608013 214.304648 
L 251.150228 212.920865 
L 250.919087 212.672494 
L 250.169082 214.601806 
L 249.907537 212.034934 
L 249.475324 209.149836 
L 249.232896 210.93944 
L 249.18421 210.376169 
L 248.939764 205.887747 
L 248.915226 205.938752 
L 248.866098 206.038544 
L 248.792279 205.997518 
L 248.767638 205.991974 
L 248.520276 207.028702 
L 248.321129 205.132654 
L 248.246158 205.37659 
L 248.095735 206.377836 
L 248.045452 206.283588 
L 247.969891 206.234801 
L 247.944668 206.264739 
L 247.792951 206.560788 
L 247.487543 207.825929 
L 247.076173 210.220937 
L 246.972576 210.074576 
L 246.894677 210.011374 
L 246.790545 209.471388 
L 246.738363 209.642144 
L 246.659944 210.072358 
L 246.528859 210.92946 
L 246.397284 210.059052 
L 246.344516 210.147756 
L 246.318102 210.197652 
L 246.21225 208.83272 
L 246.052872 205.994192 
L 245.999586 206.056284 
L 245.785631 207.600843 
L 245.758795 207.578667 
L 245.731939 207.556491 
L 245.678165 207.813732 
L 245.624309 207.647412 
L 245.299431 205.249078 
L 245.135863 202.044646 
L 245.081171 202.202096 
L 244.944069 203.448387 
L 244.889078 203.379641 
L 244.751226 203.358574 
L 244.557321 203.947347 
L 244.334403 202.892878 
L 244.278452 202.9838 
L 244.138186 203.8154 
L 244.110065 203.632448 
L 243.912592 202.258644 
L 243.82762 202.369524 
L 243.714006 202.77978 
L 243.657061 202.635636 
L 243.514295 201.952616 
L 243.485672 201.968139 
L 243.399664 202.106739 
L 243.227016 202.899531 
L 243.140373 203.744436 
L 243.082493 203.425102 
L 242.937376 202.503689 
L 242.908281 202.697729 
L 242.67465 203.562593 
L 242.409951 202.74319 
L 242.202691 201.250745 
L 242.083707 200.907017 
L 241.93441 202.028014 
L 241.874514 201.66211 
L 241.784479 200.890385 
L 241.724327 200.899256 
L 241.633906 201.123233 
L 241.603715 200.953587 
L 241.512984 199.820393 
L 241.361245 198.536403 
L 241.20885 198.46544 
L 241.117095 198.312425 
L 241.086457 198.352342 
L 241.055793 198.392259 
L 240.902069 197.325593 
L 240.871243 197.389904 
L 240.809511 197.960936 
L 240.747671 198.641739 
L 240.685722 198.357886 
L 240.499219 197.184776 
L 240.436832 197.224692 
L 240.374334 197.597249 
L 240.343043 197.399883 
L 239.997 194.497044 
L 239.902032 194.264196 
L 239.870319 194.387273 
L 239.775009 195.119081 
L 239.743181 195.361908 
L 239.647526 195.293163 
L 239.583612 195.441742 
L 239.551611 195.330862 
L 239.294553 194.240912 
L 239.197671 193.858376 
L 239.165317 193.96482 
L 239.100522 194.472651 
L 238.643585 197.743611 
L 238.379794 195.259899 
L 238.313536 195.255464 
L 238.213916 195.652414 
L 238.180647 195.537099 
L 238.08065 195.418457 
L 238.013827 195.731139 
L 237.980368 195.684569 
L 237.846214 194.533635 
L 237.6778 193.4204 
L 237.508578 192.053249 
L 237.33854 190.608483 
L 236.995982 186.773144 
L 236.927069 186.821931 
L 236.580469 189.025116 
L 236.405883 190.588524 
L 236.335805 190.382288 
L 236.230427 189.464201 
L 236.124733 193.973136 
L 235.769757 191.775495 
L 235.41117 188.558866 
L 235.048897 186.49428 
L 234.682862 186.800309 
L 234.312986 184.554989 
L 233.939188 185.973144 
L 233.561383 184.41528 
L 233.179485 186.075154 
L 232.793404 182.010293 
L 232.403047 179.83261 
L 232.008319 178.71494 
L 231.609121 179.819304 
L 230.7969 180.526719 
L 230.383661 177.943215 
L 229.965521 178.581884 
L 229.54236 176.733514 
L 229.114058 180.125333 
L 228.241518 176.729079 
L 227.346829 170.587436 
L 226.890823 171.771634 
L 226.428839 170.645093 
L 225.960721 173.591175 
L 225.486301 170.077388 
L 225.005409 170.999909 
L 224.517866 168.520632 
L 224.023485 168.417514 
L 223.522071 164.707469 
L 223.013421 164.856048 
L 221.973557 167.867549 
L 221.441891 165.458127 
L 220.353878 159.221127 
L 219.797013 159.451757 
L 219.23121 158.536997 
L 218.656176 158.724384 
L 218.071605 157.508031 
L 217.477176 158.574696 
L 216.872551 158.738799 
L 214.99384 152.425292 
L 214.344673 152.844418 
L 213.683325 151.099167 
L 213.009332 149.862855 
L 212.322199 147.780528 
L 211.621405 148.039988 
L 211.4065 150.981634 
L 211.334573 150.78205 
L 211.262499 152.317738 
L 211.045388 146.713863 
L 210.8999 148.035552 
L 210.75381 147.262719 
L 210.533533 149.019058 
L 210.459801 148.861608 
L 210.385914 151.140192 
L 210.311871 150.862992 
L 210.237673 151.283228 
L 210.163318 149.34948 
L 210.088806 151.689048 
L 210.014137 151.412957 
L 209.939308 150.602424 
L 209.789173 146.71608 
L 209.713866 145.945464 
L 209.411015 150.232085 
L 209.182157 145.017399 
L 208.951803 147.946848 
L 208.797393 145.585104 
L 208.719934 146.524258 
L 208.642304 150.423908 
L 208.564503 149.845114 
L 208.330064 142.165565 
L 208.25157 142.610194 
L 208.094055 144.574988 
L 207.856456 138.762658 
L 207.776898 138.985527 
L 207.697161 138.903476 
L 207.537144 141.519135 
L 207.295747 144.620448 
L 207.052686 146.951146 
L 206.88971 145.862304 
L 206.725976 142.074644 
L 206.643823 142.316362 
L 206.561478 141.57014 
L 206.146843 148.008941 
L 206.063327 146.65177 
L 205.979613 149.302911 
L 205.8957 149.297367 
L 205.811587 149.465904 
L 205.558035 140.634312 
L 205.387982 139.631957 
L 205.302647 139.390239 
L 205.217105 140.076586 
L 205.131354 139.295991 
L 205.045395 139.838194 
L 204.959225 139.379151 
L 204.699445 144.140338 
L 204.612424 143.726756 
L 204.08574 137.277975 
L 203.99719 137.738127 
L 203.908416 137.574024 
L 203.819418 137.967648 
L 203.640745 135.196757 
L 203.551067 134.666751 
L 203.461161 135.079224 
L 203.371026 134.356287 
L 202.916856 139.742837 
L 202.825316 140.133135 
L 202.733537 140.024472 
L 202.549259 142.538122 
L 202.084306 136.839999 
L 201.896594 138.584141 
L 201.802362 137.905556 
L 201.613138 132.809511 
L 201.327384 135.934109 
L 201.231616 135.021567 
L 201.135586 135.278808 
L 201.039295 136.732445 
L 200.942739 135.271047 
L 200.845919 135.888648 
L 200.748831 135.798836 
L 200.651476 136.288925 
L 200.357786 129.915543 
L 200.259343 130.240421 
L 199.962353 136.235703 
L 199.862798 136.097103 
L 199.762961 135.66578 
L 199.66284 133.513599 
L 199.562434 133.649981 
L 199.157926 130.863567 
L 198.953917 131.411314 
L 198.851469 130.775972 
L 198.748721 131.007711 
L 198.645674 131.712908 
L 198.542324 133.627805 
L 198.43867 133.510272 
L 198.334711 134.539239 
L 198.230444 133.29073 
L 198.125867 133.834042 
L 198.02098 132.86606 
L 197.915779 133.98373 
L 197.704432 132.07992 
L 197.491809 133.825172 
L 197.385015 133.689898 
L 197.170451 131.127461 
L 197.062677 131.157399 
L 196.846136 130.625175 
L 196.628257 131.419076 
L 196.298891 128.271192 
L 196.188415 128.803416 
L 195.966419 131.737301 
L 195.854894 132.741874 
L 195.743016 132.690869 
L 195.405234 129.218108 
L 194.949762 134.875205 
L 194.604255 125.613399 
L 194.37202 128.28228 
L 194.255327 128.859965 
L 194.138246 131.983455 
L 194.020774 131.663012 
L 193.90291 130.60189 
L 193.640094 126.560314 
L 193.549296 130.621848 
L 193.510311 128.882141 
L 193.40614 125.903904 
L 193.353939 125.974868 
L 193.314737 127.865372 
L 193.2624 125.971541 
L 193.104921 121.393306 
L 193.078606 120.877714 
L 193.039097 121.494207 
L 192.973149 125.153247 
L 192.920302 122.81257 
L 192.893849 123.211738 
L 192.734712 130.901266 
L 192.668192 130.0109 
L 192.641548 130.68505 
L 192.628219 131.217274 
L 192.561498 129.946589 
L 192.467875 125.718735 
L 192.45448 127.348671 
L 192.427675 129.9732 
L 192.360572 126.306399 
L 192.293342 125.284085 
L 192.279881 126.073551 
L 192.252942 127.513882 
L 192.199003 125.811874 
L 192.172003 125.893925 
L 192.104412 120.840015 
L 192.050245 124.940357 
L 191.955253 129.996485 
L 191.887244 128.206882 
L 191.860004 126.423932 
L 191.791811 128.618247 
L 191.778156 129.324552 
L 191.750832 126.042504 
L 191.696118 125.031279 
L 191.66873 126.534812 
L 191.572703 126.290876 
L 191.531468 129.54853 
L 191.352224 123.596492 
L 191.324567 122.696146 
L 191.28304 124.556712 
L 191.255329 123.84708 
L 191.102526 127.681311 
L 191.088602 125.790807 
L 190.990978 126.031416 
L 190.949057 119.917493 
L 190.851046 124.357128 
L 190.794917 123.510005 
L 190.766819 123.977919 
L 190.597759 137.095023 
L 190.555367 135.453999 
L 190.314178 127.2389 
L 190.4846 135.857602 
L 190.257187 127.830999 
L 190.214383 131.182901 
L 190.171528 127.013813 
L 190.042647 121.117215 
L 190.028297 121.1405 
L 189.898891 123.362535 
L 189.884483 122.050824 
L 189.870069 121.75921 
L 189.855649 122.779306 
L 189.841224 123.799402 
L 189.812355 119.171271 
L 189.797911 117.553532 
L 189.725606 120.193584 
L 189.696642 118.601348 
L 189.682151 117.372797 
L 189.638643 120.321096 
L 189.609608 120.060528 
L 189.551465 121.131629 
L 189.522358 120.2712 
L 189.478652 117.932741 
L 189.420293 119.335373 
L 189.317931 125.515824 
L 189.273971 123.770573 
L 189.244633 123.229479 
L 189.097579 120.276744 
L 189.200581 123.313748 
L 189.08284 120.935372 
L 189.053343 122.059695 
L 188.979492 120.979724 
L 188.964703 120.70585 
L 188.87584 124.786234 
L 188.846169 122.836964 
L 188.831325 121.50973 
L 188.757007 122.696146 
L 188.667618 126.07466 
L 188.622839 124.430309 
L 188.6079 124.588868 
L 188.592954 124.144239 
L 188.473162 118.700031 
L 188.44315 120.67813 
L 188.398084 124.128716 
L 188.337906 121.11278 
L 188.292706 117.885063 
L 188.217243 118.743274 
L 188.171887 117.892824 
L 188.156755 118.898506 
L 187.989878 123.870365 
L 187.959452 123.362535 
L 187.89852 123.436824 
L 187.715091 129.328988 
L 187.669084 128.242364 
L 187.515293 120.219087 
L 187.391775 117.519159 
L 187.376305 118.087973 
L 187.329853 123.031004 
L 187.19013 122.778197 
L 187.143433 119.248887 
L 187.018602 119.852074 
L 186.877638 117.491439 
L 186.971677 120.616037 
L 186.846236 118.918464 
L 186.830524 119.87425 
L 186.751861 119.49504 
L 186.594006 116.374877 
L 186.403643 123.966831 
L 186.355891 120.635996 
L 186.308074 119.349788 
L 186.260192 120.800098 
L 186.244217 120.282288 
L 186.228235 120.174735 
L 186.212245 120.584991 
L 186.164233 120.995247 
L 186.148214 120.174735 
L 186.019803 115.998994 
L 186.068012 120.651519 
L 186.003719 117.023525 
L 185.907058 118.972796 
L 185.955421 117.021308 
L 185.874779 118.573628 
L 185.810131 118.218812 
L 185.696712 120.882149 
L 185.599205 119.072588 
L 185.582928 119.410772 
L 185.468774 123.679652 
L 185.452436 123.207303 
L 185.370633 119.315415 
L 185.305054 119.732324 
L 185.189995 124.487967 
L 185.157053 122.495453 
L 185.008427 117.708764 
L 184.975314 116.999132 
L 184.94217 118.5071 
L 184.892395 122.096285 
L 184.825919 121.547429 
L 184.709283 114.655128 
L 184.642461 116.557829 
L 184.625735 116.586658 
L 184.59226 117.317357 
L 184.525215 116.425882 
L 184.407579 114.078552 
L 184.373896 114.355752 
L 184.323312 118.662332 
L 184.289548 123.355882 
L 184.204998 121.791365 
L 184.035287 116.072175 
L 184.018271 117.179866 
L 183.830549 122.639597 
L 183.796311 120.4098 
L 183.727733 122.057477 
L 183.693394 124.667592 
L 183.641823 120.42865 
L 183.624616 122.163922 
L 183.590176 119.694624 
L 183.572944 118.431701 
L 183.503929 120.89102 
L 183.469372 124.760732 
L 183.400154 122.059695 
L 183.348152 116.358245 
L 183.261311 119.858727 
L 183.226514 124.576671 
L 183.156818 121.079516 
L 182.999495 116.989152 
L 182.894222 114.079661 
L 182.859061 114.947852 
L 182.771005 118.926226 
L 182.735721 115.881461 
L 182.718065 114.753812 
L 182.682728 116.680906 
L 182.647355 116.408141 
L 182.611947 116.200796 
L 182.576503 116.369333 
L 182.541023 119.571548 
L 182.487737 115.356999 
L 182.452168 115.159632 
L 182.43437 115.675224 
L 182.237997 124.811736 
L 182.22009 127.131346 
L 182.166316 123.556575 
L 182.130421 126.304181 
L 181.91428 117.519159 
L 181.860037 119.149095 
L 181.823828 117.534682 
L 181.769446 116.388183 
L 181.733144 117.92498 
L 181.642226 119.780002 
L 181.696805 117.644453 
L 181.551073 118.905159 
L 181.532814 118.015901 
L 181.496268 121.087277 
L 181.459684 123.067594 
L 181.386401 122.212709 
L 181.202525 116.717496 
L 181.147175 121.391088 
L 181.073239 120.468567 
L 180.906314 112.647092 
L 180.850496 115.4579 
L 180.813235 118.61798 
L 180.738595 117.330663 
L 180.607592 114.892412 
L 180.588838 115.505578 
L 180.494916 116.321655 
L 180.551299 115.149653 
L 180.476102 115.75284 
L 180.419598 114.593036 
L 180.381878 115.282709 
L 180.325223 117.946047 
L 180.268477 116.315002 
L 180.249541 116.784024 
L 180.211639 115.015488 
L 180.173696 116.67758 
L 180.135712 115.269404 
L 180.116705 113.870098 
L 180.07866 117.085618 
L 179.983367 118.919573 
L 179.945177 118.690052 
L 179.906946 120.000653 
L 179.868674 118.082429 
L 179.811187 118.661223 
L 179.734392 117.602319 
L 179.695932 117.89726 
L 179.676686 117.419367 
L 179.464284 111.745194 
L 179.444911 112.729365 
L 177.62102 113.465164 
L 177.435009 115.872369 
L 177.248012 115.763707 
L 176.871014 114.630513 
L 176.297848 108.48887 
L 175.910494 112.669046 
L 175.715208 113.744582 
L 175.518835 113.10924 
L 175.321362 114.04174 
L 175.122776 113.599329 
L 174.923065 112.445068 
L 174.722215 110.159832 
L 174.520215 109.303838 
L 173.907175 111.26974 
L 173.700436 111.393926 
L 173.492477 111.825249 
L 173.283284 111.12227 
L 173.072842 108.099681 
L 172.861136 107.304672 
L 172.648151 105.55055 
L 172.433872 108.860318 
L 172.218281 108.238281 
L 172.001364 109.103145 
L 171.783104 106.8168 
L 171.342487 106.966488 
L 171.120095 106.306752 
L 170.896292 106.90883 
L 170.671058 105.639254 
L 170.444376 107.872377 
L 170.216227 106.803494 
L 169.986592 106.677091 
L 169.75545 106.763577 
L 169.288571 107.770368 
L 169.052791 105.124771 
L 168.815424 104.596982 
L 168.576447 105.971894 
L 168.335839 105.296635 
L 168.093577 105.669192 
L 167.849639 104.538216 
L 167.604001 105.882081 
L 167.356639 106.048401 
L 167.107529 107.065171 
L 166.603965 104.069193 
L 166.349459 105.13475 
L 166.093102 106.845628 
L 165.834867 107.670576 
L 165.574726 104.986171 
L 165.312651 103.661155 
L 165.048613 101.306064 
L 164.782582 100.75499 
L 164.514528 99.401145 
L 164.24442 100.74612 
L 163.972227 100.075296 
L 163.697915 101.691926 
L 163.421451 102.154296 
L 163.142802 103.337385 
L 162.861933 102.918259 
L 162.578807 101.45686 
L 162.293389 101.534476 
L 162.005642 103.154433 
L 161.715525 103.806408 
L 161.423001 102.28846 
L 161.12803 100.018747 
L 160.530576 101.620963 
L 160.228008 101.735169 
L 159.922821 99.860188 
L 159.614968 100.029835 
L 159.304403 98.760259 
L 158.991077 98.841201 
L 158.674941 97.192416 
L 158.355944 98.5008 
L 158.034034 97.839955 
L 157.709157 98.799067 
L 157.381258 95.99602 
L 157.05028 96.881952 
L 156.716164 95.838571 
L 156.378851 97.100385 
L 155.694385 93.847166 
L 155.347102 92.982302 
L 154.996364 93.182995 
L 154.6421 95.367331 
L 154.28424 95.07239 
L 153.922709 95.998238 
L 153.557432 95.14668 
L 153.18833 96.29207 
L 152.815323 95.089022 
L 152.438325 94.552363 
L 152.057252 93.130881 
L 151.672014 93.74183 
L 151.282519 92.895816 
L 150.888673 94.192003 
L 150.087526 93.271699 
L 149.267747 91.103995 
L 148.850595 91.069622 
L 148.428447 91.927833 
L 148.001182 91.700529 
L 147.568675 92.116329 
L 147.130795 90.647169 
L 146.687406 92.391312 
L 146.238369 92.140723 
L 145.783538 92.563176 
L 145.322761 92.182857 
L 144.855881 90.567336 
L 144.382734 88.287643 
L 143.90315 86.592288 
L 143.41695 87.470457 
L 142.92395 87.036916 
L 142.423957 85.307188 
L 141.91677 84.485568 
L 141.402178 84.257155 
L 140.879962 86.053411 
L 140.349893 85.909267 
L 139.811731 87.344054 
L 139.265226 87.239827 
L 138.710113 88.266576 
L 138.146118 89.723539 
L 137.572952 88.957358 
L 136.39788 84.68626 
L 135.795319 84.331444 
L 135.182279 83.820288 
L 134.558388 84.971222 
L 133.923255 85.061035 
L 133.276468 84.735048 
L 131.946162 82.489728 
L 131.261696 82.708161 
L 130.563675 81.144753 
L 129.851551 82.325625 
L 129.124743 82.168176 
L 128.382633 82.633872 
L 127.624563 82.143782 
L 126.84983 82.812388 
L 126.057686 84.130752 
L 125.247331 83.720496 
L 124.417906 83.493192 
L 123.568493 82.964294 
L 122.698105 83.306913 
L 121.80568 83.784806 
L 120.890072 85.91592 
L 119.950045 86.492496 
L 116.969489 85.140868 
L 115.917204 85.772884 
L 114.832536 84.898041 
L 113.713429 85.276142 
L 112.557623 85.057708 
L 111.36263 84.274896 
L 110.125699 86.566785 
L 108.843779 89.872118 
L 107.513473 89.836636 
L 104.692054 86.415988 
L 103.191874 88.481683 
L 101.624997 89.679187 
L 99.985217 91.504272 
L 98.265416 91.731576 
L 98.08873 92.258256 
L 97.911153 91.749316 
L 97.732677 91.784798 
L 97.372991 90.763593 
L 97.191762 90.559574 
L 97.009597 90.704827 
L 96.826485 91.049664 
L 96.084375 87.491524 
L 95.896381 87.015849 
L 95.707378 86.841768 
L 95.517356 87.616819 
L 95.134212 91.351257 
L 94.941067 91.604064 
L 94.746857 91.180502 
L 94.551572 92.335872 
L 94.355199 94.274054 
L 93.959139 95.224296 
L 93.558579 93.795052 
L 93.356579 92.28154 
L 93.153415 91.688332 
L 92.949072 91.769275 
L 92.5368 90.793531 
L 92.328841 90.181473 
L 92.119648 90.188126 
L 91.909206 90.694848 
L 91.6975 90.901084 
L 91.484515 91.600737 
L 91.054645 90.753614 
L 90.837728 90.525201 
L 90.17885 94.799625 
L 89.956459 93.796161 
L 89.507422 89.652576 
L 89.28074 89.540587 
L 89.052591 90.75694 
L 88.822955 92.631921 
L 88.591814 93.153057 
L 88.359147 92.484451 
L 87.889155 89.801155 
L 87.651787 89.553892 
L 87.412811 90.233587 
L 86.193003 97.069339 
L 85.943893 97.108147 
L 85.69301 96.555964 
L 85.440329 96.926304 
L 85.185823 98.042865 
L 84.671231 97.782297 
L 84.41109 96.278764 
L 83.884977 94.737532 
L 83.618946 94.326168 
L 82.80859 92.330328 
L 82.534278 92.978976 
L 81.698296 97.420828 
L 81.415171 98.245776 
L 81.129753 98.011819 
L 80.259365 93.545572 
L 79.964393 93.514526 
L 79.666932 93.624297 
L 79.36694 93.925891 
L 78.759185 95.789784 
L 78.451332 95.15555 
L 78.140767 94.119931 
L 77.827441 94.927137 
L 76.902722 99.359011 
L 76.838045 99.359011 
L 76.610736 97.806691 
L 76.512868 97.283337 
L 76.480185 97.331016 
L 76.381952 97.426372 
L 76.349147 97.334342 
L 76.217622 97.150281 
L 76.052521 98.527411 
L 75.853374 96.718958 
L 75.719981 96.714523 
L 75.518941 94.840651 
L 75.384275 94.838433 
L 74.943021 98.850072 
L 74.908849 98.850072 
L 74.737488 99.352358 
L 74.565289 96.840926 
L 74.392246 99.099552 
L 74.183466 96.664627 
L 74.043589 96.29207 
L 73.832727 96.840926 
L 73.832727 96.840926 
" clip-path="url(#pe6acaf53db)" style="fill: none; stroke: #008000; stroke-width: 1.5; stroke-linecap: square"/>
   </g>
   <g id="patch_3">
    <path d="M 57.6 307.584 
L 57.6 41.472 
" style="fill: none; stroke: #000000; stroke-width: 0.8; stroke-linejoin: miter; stroke-linecap: square"/>
   </g>
   <g id="patch_4">
    <path d="M 414.72 307.584 
L 414.72 41.472 
" style="fill: none; stroke: #000000; stroke-width: 0.8; stroke-linejoin: miter; stroke-linecap: square"/>
   </g>
   <g id="patch_5">
    <path d="M 57.6 307.584 
L 414.72 307.584 
" style="fill: none; stroke: #000000; stroke-width: 0.8; stroke-linejoin: miter; stroke-linecap: square"/>
   </g>
   <g id="patch_6">
    <path d="M 57.6 41.472 
L 414.72 41.472 
" style="fill: none; stroke: #000000; stroke-width: 0.8; stroke-linejoin: miter; stroke-linecap: square"/>
   </g>
   <g id="text_17">
    <!-- VCO1 HEMT AMP positive gain -->
    <g transform="translate(145.163437 35.472)scale(0.12 -0.12)">
     <defs>
      <path id="DejaVuSans-56" d="M 1831 0 
L 50 4666 
L 709 4666 
L 2188 738 
L 3669 4666 
L 4325 4666 
L 2547 0 
L 1831 0 
z
" transform="scale(0.015625)"/>
      <path id="DejaVuSans-43" d="M 4122 4306 
L 4122 3641 
Q 3803 3938 3442 4084 
Q 3081 4231 2675 4231 
Q 1875 4231 1450 3742 
Q 1025 3253 1025 2328 
Q 1025 1406 1450 917 
Q 1875 428 2675 428 
Q 3081 428 3442 575 
Q 3803 722 4122 1019 
L 4122 359 
Q 3791 134 3420 21 
Q 3050 -91 2638 -91 
Q 1578 -91 968 557 
Q 359 1206 359 2328 
Q 359 3453 968 4101 
Q 1578 4750 2638 4750 
Q 3056 4750 3426 4639 
Q 3797 4528 4122 4306 
z
" transform="scale(0.015625)"/>
      <path id="DejaVuSans-4f" d="M 2522 4238 
Q 1834 4238 1429 3725 
Q 1025 3213 1025 2328 
Q 1025 1447 1429 934 
Q 1834 422 2522 422 
Q 3209 422 3611 934 
Q 4013 1447 4013 2328 
Q 4013 3213 3611 3725 
Q 3209 4238 2522 4238 
z
M 2522 4750 
Q 3503 4750 4090 4092 
Q 4678 3434 4678 2328 
Q 4678 1225 4090 567 
Q 3503 -91 2522 -91 
Q 1538 -91 948 565 
Q 359 1222 359 2328 
Q 359 3434 948 4092 
Q 1538 4750 2522 4750 
z
" transform="scale(0.015625)"/>
      <path id="DejaVuSans-45" d="M 628 4666 
L 3578 4666 
L 3578 4134 
L 1259 4134 
L 1259 2753 
L 3481 2753 
L 3481 2222 
L 1259 2222 
L 1259 531 
L 3634 531 
L 3634 0 
L 628 0 
L 628 4666 
z
" transform="scale(0.015625)"/>
      <path id="DejaVuSans-4d" d="M 628 4666 
L 1569 4666 
L 2759 1491 
L 3956 4666 
L 4897 4666 
L 4897 0 
L 4281 0 
L 4281 4097 
L 3078 897 
L 2444 897 
L 1241 4097 
L 1241 0 
L 628 0 
L 628 4666 
z
" transform="scale(0.015625)"/>
      <path id="DejaVuSans-54" d="M -19 4666 
L 3928 4666 
L 3928 4134 
L 2272 4134 
L 2272 0 
L 1638 0 
L 1638 4134 
L -19 4134 
L -19 4666 
z
" transform="scale(0.015625)"/>
      <path id="DejaVuSans-41" d="M 2188 4044 
L 1331 1722 
L 3047 1722 
L 2188 4044 
z
M 1831 4666 
L 2547 4666 
L 4325 0 
L 3669 0 
L 3244 1197 
L 1141 1197 
L 716 0 
L 50 0 
L 1831 4666 
z
" transform="scale(0.015625)"/>
      <path id="DejaVuSans-70" d="M 1159 525 
L 1159 -1331 
L 581 -1331 
L 581 3500 
L 1159 3500 
L 1159 2969 
Q 1341 3281 1617 3432 
Q 1894 3584 2278 3584 
Q 2916 3584 3314 3078 
Q 3713 2572 3713 1747 
Q 3713 922 3314 415 
Q 2916 -91 2278 -91 
Q 1894 -91 1617 61 
Q 1341 213 1159 525 
z
M 3116 1747 
Q 3116 2381 2855 2742 
Q 2594 3103 2138 3103 
Q 1681 3103 1420 2742 
Q 1159 2381 1159 1747 
Q 1159 1113 1420 752 
Q 1681 391 2138 391 
Q 2594 391 2855 752 
Q 3116 1113 3116 1747 
z
" transform="scale(0.015625)"/>
      <path id="DejaVuSans-74" d="M 1172 4494 
L 1172 3500 
L 2356 3500 
L 2356 3053 
L 1172 3053 
L 1172 1153 
Q 1172 725 1289 603 
Q 1406 481 1766 481 
L 2356 481 
L 2356 0 
L 1766 0 
Q 1100 0 847 248 
Q 594 497 594 1153 
L 594 3053 
L 172 3053 
L 172 3500 
L 594 3500 
L 594 4494 
L 1172 4494 
z
" transform="scale(0.015625)"/>
      <path id="DejaVuSans-76" d="M 191 3500 
L 800 3500 
L 1894 563 
L 2988 3500 
L 3597 3500 
L 2284 0 
L 1503 0 
L 191 3500 
z
" transform="scale(0.015625)"/>
      <path id="DejaVuSans-67" d="M 2906 1791 
Q 2906 2416 2648 2759 
Q 2391 3103 1925 3103 
Q 1463 3103 1205 2759 
Q 947 2416 947 1791 
Q 947 1169 1205 825 
Q 1463 481 1925 481 
Q 2391 481 2648 825 
Q 2906 1169 2906 1791 
z
M 3481 434 
Q 3481 -459 3084 -895 
Q 2688 -1331 1869 -1331 
Q 1566 -1331 1297 -1286 
Q 1028 -1241 775 -1147 
L 775 -588 
Q 1028 -725 1275 -790 
Q 1522 -856 1778 -856 
Q 2344 -856 2625 -561 
Q 2906 -266 2906 331 
L 2906 616 
Q 2728 306 2450 153 
Q 2172 0 1784 0 
Q 1141 0 747 490 
Q 353 981 353 1791 
Q 353 2603 747 3093 
Q 1141 3584 1784 3584 
Q 2172 3584 2450 3431 
Q 2728 3278 2906 2969 
L 2906 3500 
L 3481 3500 
L 3481 434 
z
" transform="scale(0.015625)"/>
     </defs>
     <use xlink:href="#DejaVuSans-56"/>
     <use xlink:href="#DejaVuSans-43" x="68.408203"/>
     <use xlink:href="#DejaVuSans-4f" x="138.232422"/>
     <use xlink:href="#DejaVuSans-31" x="216.943359"/>
     <use xlink:href="#DejaVuSans-20" x="280.566406"/>
     <use xlink:href="#DejaVuSans-48" x="312.353516"/>
     <use xlink:href="#DejaVuSans-45" x="387.548828"/>
     <use xlink:href="#DejaVuSans-4d" x="450.732422"/>
     <use xlink:href="#DejaVuSans-54" x="537.011719"/>
     <use xlink:href="#DejaVuSans-20" x="598.095703"/>
     <use xlink:href="#DejaVuSans-41" x="629.882812"/>
     <use xlink:href="#DejaVuSans-4d" x="698.291016"/>
     <use xlink:href="#DejaVuSans-50" x="784.570312"/>
     <use xlink:href="#DejaVuSans-20" x="844.873047"/>
     <use xlink:href="#DejaVuSans-70" x="876.660156"/>
     <use xlink:href="#DejaVuSans-6f" x="940.136719"/>
     <use xlink:href="#DejaVuSans-73" x="1001.318359"/>
     <use xlink:href="#DejaVuSans-69" x="1053.417969"/>
     <use xlink:href="#DejaVuSans-74" x="1081.201172"/>
     <use xlink:href="#DejaVuSans-69" x="1120.410156"/>
     <use xlink:href="#DejaVuSans-76" x="1148.193359"/>
     <use xlink:href="#DejaVuSans-65" x="1207.373047"/>
     <use xlink:href="#DejaVuSans-20" x="1268.896484"/>
     <use xlink:href="#DejaVuSans-67" x="1300.683594"/>
     <use xlink:href="#DejaVuSans-61" x="1364.160156"/>
     <use xlink:href="#DejaVuSans-69" x="1425.439453"/>
     <use xlink:href="#DejaVuSans-6e" x="1453.222656"/>
    </g>
   </g>
   <g id="legend_1">
    <g id="patch_7">
     <path d="M 298.07625 78.82825 
L 407.72 78.82825 
Q 409.72 78.82825 409.72 76.82825 
L 409.72 48.472 
Q 409.72 46.472 407.72 46.472 
L 298.07625 46.472 
Q 296.07625 46.472 296.07625 48.472 
L 296.07625 76.82825 
Q 296.07625 78.82825 298.07625 78.82825 
z
" style="fill: #ffffff; opacity: 0.8; stroke: #cccccc; stroke-linejoin: miter"/>
    </g>
    <g id="line2d_52">
     <path d="M 300.07625 54.570437 
L 310.07625 54.570437 
L 320.07625 54.570437 
" style="fill: none; stroke: #ff0000; stroke-width: 1.5; stroke-linecap: square"/>
    </g>
    <g id="text_18">
     <!-- with HEMT AMP -->
     <g transform="translate(328.07625 58.070437)scale(0.1 -0.1)">
      <defs>
       <path id="DejaVuSans-77" d="M 269 3500 
L 844 3500 
L 1563 769 
L 2278 3500 
L 2956 3500 
L 3675 769 
L 4391 3500 
L 4966 3500 
L 4050 0 
L 3372 0 
L 2619 2869 
L 1863 0 
L 1184 0 
L 269 3500 
z
" transform="scale(0.015625)"/>
      </defs>
      <use xlink:href="#DejaVuSans-77"/>
      <use xlink:href="#DejaVuSans-69" x="81.787109"/>
      <use xlink:href="#DejaVuSans-74" x="109.570312"/>
      <use xlink:href="#DejaVuSans-68" x="148.779297"/>
      <use xlink:href="#DejaVuSans-20" x="212.158203"/>
      <use xlink:href="#DejaVuSans-48" x="243.945312"/>
      <use xlink:href="#DejaVuSans-45" x="319.140625"/>
      <use xlink:href="#DejaVuSans-4d" x="382.324219"/>
      <use xlink:href="#DejaVuSans-54" x="468.603516"/>
      <use xlink:href="#DejaVuSans-20" x="529.6875"/>
      <use xlink:href="#DejaVuSans-41" x="561.474609"/>
      <use xlink:href="#DejaVuSans-4d" x="629.882812"/>
      <use xlink:href="#DejaVuSans-50" x="716.162109"/>
     </g>
    </g>
    <g id="line2d_53">
     <path d="M 300.07625 69.248562 
L 310.07625 69.248562 
L 320.07625 69.248562 
" style="fill: none; stroke: #008000; stroke-width: 1.5; stroke-linecap: square"/>
    </g>
    <g id="text_19">
     <!-- no HEMT AMP -->
     <g transform="translate(328.07625 72.748562)scale(0.1 -0.1)">
      <use xlink:href="#DejaVuSans-6e"/>
      <use xlink:href="#DejaVuSans-6f" x="63.378906"/>
      <use xlink:href="#DejaVuSans-20" x="124.560547"/>
      <use xlink:href="#DejaVuSans-48" x="156.347656"/>
      <use xlink:href="#DejaVuSans-45" x="231.542969"/>
      <use xlink:href="#DejaVuSans-4d" x="294.726562"/>
      <use xlink:href="#DejaVuSans-54" x="381.005859"/>
      <use xlink:href="#DejaVuSans-20" x="442.089844"/>
      <use xlink:href="#DejaVuSans-41" x="473.876953"/>
      <use xlink:href="#DejaVuSans-4d" x="542.285156"/>
      <use xlink:href="#DejaVuSans-50" x="628.564453"/>
     </g>
    </g>
   </g>
  </g>
 </g>
 <defs>
  <clipPath id="pe6acaf53db">
   <rect x="57.6" y="41.472" width="357.12" height="266.112"/>
  </clipPath>
 </defs>
</svg>
