<?xml version="1.0" encoding="utf-8" standalone="no"?>
<!DOCTYPE svg PUBLIC "-//W3C//DTD SVG 1.1//EN"
  "http://www.w3.org/Graphics/SVG/1.1/DTD/svg11.dtd">
<svg xmlns:xlink="http://www.w3.org/1999/xlink" width="460.8pt" height="345.6pt" viewBox="0 0 460.8 345.6" xmlns="http://www.w3.org/2000/svg" version="1.1">
 <metadata>
  <rdf:RDF xmlns:dc="http://purl.org/dc/elements/1.1/" xmlns:cc="http://creativecommons.org/ns#" xmlns:rdf="http://www.w3.org/1999/02/22-rdf-syntax-ns#">
   <cc:Work>
    <dc:type rdf:resource="http://purl.org/dc/dcmitype/StillImage"/>
    <dc:date>2022-09-25T14:50:05.936166</dc:date>
    <dc:format>image/svg+xml</dc:format>
    <dc:creator>
     <cc:Agent>
      <dc:title>Matplotlib v3.5.1, https://matplotlib.org/</dc:title>
     </cc:Agent>
    </dc:creator>
   </cc:Work>
  </rdf:RDF>
 </metadata>
 <defs>
  <style type="text/css">*{stroke-linejoin: round; stroke-linecap: butt}</style>
 </defs>
 <g id="figure_1">
  <g id="patch_1">
   <path d="M 0 345.6 
L 460.8 345.6 
L 460.8 0 
L 0 0 
z
" style="fill: #ffffff"/>
  </g>
  <g id="axes_1">
   <g id="patch_2">
    <path d="M 57.6 307.584 
L 414.72 307.584 
L 414.72 41.472 
L 57.6 41.472 
z
" style="fill: #ffffff"/>
   </g>
   <g id="matplotlib.axis_1">
    <g id="xtick_1">
     <g id="line2d_1">
      <defs>
       <path id="mb77be90eec" d="M 0 0 
L 0 3.5 
" style="stroke: #000000; stroke-width: 0.8"/>
      </defs>
      <g>
       <use xlink:href="#mb77be90eec" x="73.832727" y="307.584" style="stroke: #000000; stroke-width: 0.8"/>
      </g>
     </g>
     <g id="text_1">
      <!-- $\mathdefault{10^{3}}$ -->
      <g transform="translate(65.032727 322.182437)scale(0.1 -0.1)">
       <defs>
        <path id="DejaVuSans-31" d="M 794 531 
L 1825 531 
L 1825 4091 
L 703 3866 
L 703 4441 
L 1819 4666 
L 2450 4666 
L 2450 531 
L 3481 531 
L 3481 0 
L 794 0 
L 794 531 
z
" transform="scale(0.015625)"/>
        <path id="DejaVuSans-30" d="M 2034 4250 
Q 1547 4250 1301 3770 
Q 1056 3291 1056 2328 
Q 1056 1369 1301 889 
Q 1547 409 2034 409 
Q 2525 409 2770 889 
Q 3016 1369 3016 2328 
Q 3016 3291 2770 3770 
Q 2525 4250 2034 4250 
z
M 2034 4750 
Q 2819 4750 3233 4129 
Q 3647 3509 3647 2328 
Q 3647 1150 3233 529 
Q 2819 -91 2034 -91 
Q 1250 -91 836 529 
Q 422 1150 422 2328 
Q 422 3509 836 4129 
Q 1250 4750 2034 4750 
z
" transform="scale(0.015625)"/>
        <path id="DejaVuSans-33" d="M 2597 2516 
Q 3050 2419 3304 2112 
Q 3559 1806 3559 1356 
Q 3559 666 3084 287 
Q 2609 -91 1734 -91 
Q 1441 -91 1130 -33 
Q 819 25 488 141 
L 488 750 
Q 750 597 1062 519 
Q 1375 441 1716 441 
Q 2309 441 2620 675 
Q 2931 909 2931 1356 
Q 2931 1769 2642 2001 
Q 2353 2234 1838 2234 
L 1294 2234 
L 1294 2753 
L 1863 2753 
Q 2328 2753 2575 2939 
Q 2822 3125 2822 3475 
Q 2822 3834 2567 4026 
Q 2313 4219 1838 4219 
Q 1578 4219 1281 4162 
Q 984 4106 628 3988 
L 628 4550 
Q 988 4650 1302 4700 
Q 1616 4750 1894 4750 
Q 2613 4750 3031 4423 
Q 3450 4097 3450 3541 
Q 3450 3153 3228 2886 
Q 3006 2619 2597 2516 
z
" transform="scale(0.015625)"/>
       </defs>
       <use xlink:href="#DejaVuSans-31" transform="translate(0 0.765625)"/>
       <use xlink:href="#DejaVuSans-30" transform="translate(63.623047 0.765625)"/>
       <use xlink:href="#DejaVuSans-33" transform="translate(128.203125 39.046875)scale(0.7)"/>
      </g>
     </g>
    </g>
    <g id="xtick_2">
     <g id="line2d_2">
      <g>
       <use xlink:href="#mb77be90eec" x="154.996364" y="307.584" style="stroke: #000000; stroke-width: 0.8"/>
      </g>
     </g>
     <g id="text_2">
      <!-- $\mathdefault{10^{4}}$ -->
      <g transform="translate(146.196364 322.182437)scale(0.1 -0.1)">
       <defs>
        <path id="DejaVuSans-34" d="M 2419 4116 
L 825 1625 
L 2419 1625 
L 2419 4116 
z
M 2253 4666 
L 3047 4666 
L 3047 1625 
L 3713 1625 
L 3713 1100 
L 3047 1100 
L 3047 0 
L 2419 0 
L 2419 1100 
L 313 1100 
L 313 1709 
L 2253 4666 
z
" transform="scale(0.015625)"/>
       </defs>
       <use xlink:href="#DejaVuSans-31" transform="translate(0 0.684375)"/>
       <use xlink:href="#DejaVuSans-30" transform="translate(63.623047 0.684375)"/>
       <use xlink:href="#DejaVuSans-34" transform="translate(128.203125 38.965625)scale(0.7)"/>
      </g>
     </g>
    </g>
    <g id="xtick_3">
     <g id="line2d_3">
      <g>
       <use xlink:href="#mb77be90eec" x="236.16" y="307.584" style="stroke: #000000; stroke-width: 0.8"/>
      </g>
     </g>
     <g id="text_3">
      <!-- $\mathdefault{10^{5}}$ -->
      <g transform="translate(227.36 322.182437)scale(0.1 -0.1)">
       <defs>
        <path id="DejaVuSans-35" d="M 691 4666 
L 3169 4666 
L 3169 4134 
L 1269 4134 
L 1269 2991 
Q 1406 3038 1543 3061 
Q 1681 3084 1819 3084 
Q 2600 3084 3056 2656 
Q 3513 2228 3513 1497 
Q 3513 744 3044 326 
Q 2575 -91 1722 -91 
Q 1428 -91 1123 -41 
Q 819 9 494 109 
L 494 744 
Q 775 591 1075 516 
Q 1375 441 1709 441 
Q 2250 441 2565 725 
Q 2881 1009 2881 1497 
Q 2881 1984 2565 2268 
Q 2250 2553 1709 2553 
Q 1456 2553 1204 2497 
Q 953 2441 691 2322 
L 691 4666 
z
" transform="scale(0.015625)"/>
       </defs>
       <use xlink:href="#DejaVuSans-31" transform="translate(0 0.684375)"/>
       <use xlink:href="#DejaVuSans-30" transform="translate(63.623047 0.684375)"/>
       <use xlink:href="#DejaVuSans-35" transform="translate(128.203125 38.965625)scale(0.7)"/>
      </g>
     </g>
    </g>
    <g id="xtick_4">
     <g id="line2d_4">
      <g>
       <use xlink:href="#mb77be90eec" x="317.323636" y="307.584" style="stroke: #000000; stroke-width: 0.8"/>
      </g>
     </g>
     <g id="text_4">
      <!-- $\mathdefault{10^{6}}$ -->
      <g transform="translate(308.523636 322.182437)scale(0.1 -0.1)">
       <defs>
        <path id="DejaVuSans-36" d="M 2113 2584 
Q 1688 2584 1439 2293 
Q 1191 2003 1191 1497 
Q 1191 994 1439 701 
Q 1688 409 2113 409 
Q 2538 409 2786 701 
Q 3034 994 3034 1497 
Q 3034 2003 2786 2293 
Q 2538 2584 2113 2584 
z
M 3366 4563 
L 3366 3988 
Q 3128 4100 2886 4159 
Q 2644 4219 2406 4219 
Q 1781 4219 1451 3797 
Q 1122 3375 1075 2522 
Q 1259 2794 1537 2939 
Q 1816 3084 2150 3084 
Q 2853 3084 3261 2657 
Q 3669 2231 3669 1497 
Q 3669 778 3244 343 
Q 2819 -91 2113 -91 
Q 1303 -91 875 529 
Q 447 1150 447 2328 
Q 447 3434 972 4092 
Q 1497 4750 2381 4750 
Q 2619 4750 2861 4703 
Q 3103 4656 3366 4563 
z
" transform="scale(0.015625)"/>
       </defs>
       <use xlink:href="#DejaVuSans-31" transform="translate(0 0.765625)"/>
       <use xlink:href="#DejaVuSans-30" transform="translate(63.623047 0.765625)"/>
       <use xlink:href="#DejaVuSans-36" transform="translate(128.203125 39.046875)scale(0.7)"/>
      </g>
     </g>
    </g>
    <g id="xtick_5">
     <g id="line2d_5">
      <g>
       <use xlink:href="#mb77be90eec" x="398.487273" y="307.584" style="stroke: #000000; stroke-width: 0.8"/>
      </g>
     </g>
     <g id="text_5">
      <!-- $\mathdefault{10^{7}}$ -->
      <g transform="translate(389.687273 322.182437)scale(0.1 -0.1)">
       <defs>
        <path id="DejaVuSans-37" d="M 525 4666 
L 3525 4666 
L 3525 4397 
L 1831 0 
L 1172 0 
L 2766 4134 
L 525 4134 
L 525 4666 
z
" transform="scale(0.015625)"/>
       </defs>
       <use xlink:href="#DejaVuSans-31" transform="translate(0 0.684375)"/>
       <use xlink:href="#DejaVuSans-30" transform="translate(63.623047 0.684375)"/>
       <use xlink:href="#DejaVuSans-37" transform="translate(128.203125 38.965625)scale(0.7)"/>
      </g>
     </g>
    </g>
    <g id="xtick_6">
     <g id="line2d_6">
      <defs>
       <path id="mb0acad38df" d="M 0 0 
L 0 2 
" style="stroke: #000000; stroke-width: 0.6"/>
      </defs>
      <g>
       <use xlink:href="#mb0acad38df" x="61.260321" y="307.584" style="stroke: #000000; stroke-width: 0.6"/>
      </g>
     </g>
    </g>
    <g id="xtick_7">
     <g id="line2d_7">
      <g>
       <use xlink:href="#mb0acad38df" x="65.967158" y="307.584" style="stroke: #000000; stroke-width: 0.6"/>
      </g>
     </g>
    </g>
    <g id="xtick_8">
     <g id="line2d_8">
      <g>
       <use xlink:href="#mb0acad38df" x="70.118883" y="307.584" style="stroke: #000000; stroke-width: 0.6"/>
      </g>
     </g>
    </g>
    <g id="xtick_9">
     <g id="line2d_9">
      <g>
       <use xlink:href="#mb0acad38df" x="98.265416" y="307.584" style="stroke: #000000; stroke-width: 0.6"/>
      </g>
     </g>
    </g>
    <g id="xtick_10">
     <g id="line2d_10">
      <g>
       <use xlink:href="#mb0acad38df" x="112.557623" y="307.584" style="stroke: #000000; stroke-width: 0.6"/>
      </g>
     </g>
    </g>
    <g id="xtick_11">
     <g id="line2d_11">
      <g>
       <use xlink:href="#mb0acad38df" x="122.698105" y="307.584" style="stroke: #000000; stroke-width: 0.6"/>
      </g>
     </g>
    </g>
    <g id="xtick_12">
     <g id="line2d_12">
      <g>
       <use xlink:href="#mb0acad38df" x="130.563675" y="307.584" style="stroke: #000000; stroke-width: 0.6"/>
      </g>
     </g>
    </g>
    <g id="xtick_13">
     <g id="line2d_13">
      <g>
       <use xlink:href="#mb0acad38df" x="136.990312" y="307.584" style="stroke: #000000; stroke-width: 0.6"/>
      </g>
     </g>
    </g>
    <g id="xtick_14">
     <g id="line2d_14">
      <g>
       <use xlink:href="#mb0acad38df" x="142.423957" y="307.584" style="stroke: #000000; stroke-width: 0.6"/>
      </g>
     </g>
    </g>
    <g id="xtick_15">
     <g id="line2d_15">
      <g>
       <use xlink:href="#mb0acad38df" x="147.130795" y="307.584" style="stroke: #000000; stroke-width: 0.6"/>
      </g>
     </g>
    </g>
    <g id="xtick_16">
     <g id="line2d_16">
      <g>
       <use xlink:href="#mb0acad38df" x="151.282519" y="307.584" style="stroke: #000000; stroke-width: 0.6"/>
      </g>
     </g>
    </g>
    <g id="xtick_17">
     <g id="line2d_17">
      <g>
       <use xlink:href="#mb0acad38df" x="179.429053" y="307.584" style="stroke: #000000; stroke-width: 0.6"/>
      </g>
     </g>
    </g>
    <g id="xtick_18">
     <g id="line2d_18">
      <g>
       <use xlink:href="#mb0acad38df" x="193.72126" y="307.584" style="stroke: #000000; stroke-width: 0.6"/>
      </g>
     </g>
    </g>
    <g id="xtick_19">
     <g id="line2d_19">
      <g>
       <use xlink:href="#mb0acad38df" x="203.861742" y="307.584" style="stroke: #000000; stroke-width: 0.6"/>
      </g>
     </g>
    </g>
    <g id="xtick_20">
     <g id="line2d_20">
      <g>
       <use xlink:href="#mb0acad38df" x="211.727311" y="307.584" style="stroke: #000000; stroke-width: 0.6"/>
      </g>
     </g>
    </g>
    <g id="xtick_21">
     <g id="line2d_21">
      <g>
       <use xlink:href="#mb0acad38df" x="218.153949" y="307.584" style="stroke: #000000; stroke-width: 0.6"/>
      </g>
     </g>
    </g>
    <g id="xtick_22">
     <g id="line2d_22">
      <g>
       <use xlink:href="#mb0acad38df" x="223.587594" y="307.584" style="stroke: #000000; stroke-width: 0.6"/>
      </g>
     </g>
    </g>
    <g id="xtick_23">
     <g id="line2d_23">
      <g>
       <use xlink:href="#mb0acad38df" x="228.294431" y="307.584" style="stroke: #000000; stroke-width: 0.6"/>
      </g>
     </g>
    </g>
    <g id="xtick_24">
     <g id="line2d_24">
      <g>
       <use xlink:href="#mb0acad38df" x="232.446156" y="307.584" style="stroke: #000000; stroke-width: 0.6"/>
      </g>
     </g>
    </g>
    <g id="xtick_25">
     <g id="line2d_25">
      <g>
       <use xlink:href="#mb0acad38df" x="260.592689" y="307.584" style="stroke: #000000; stroke-width: 0.6"/>
      </g>
     </g>
    </g>
    <g id="xtick_26">
     <g id="line2d_26">
      <g>
       <use xlink:href="#mb0acad38df" x="274.884896" y="307.584" style="stroke: #000000; stroke-width: 0.6"/>
      </g>
     </g>
    </g>
    <g id="xtick_27">
     <g id="line2d_27">
      <g>
       <use xlink:href="#mb0acad38df" x="285.025378" y="307.584" style="stroke: #000000; stroke-width: 0.6"/>
      </g>
     </g>
    </g>
    <g id="xtick_28">
     <g id="line2d_28">
      <g>
       <use xlink:href="#mb0acad38df" x="292.890947" y="307.584" style="stroke: #000000; stroke-width: 0.6"/>
      </g>
     </g>
    </g>
    <g id="xtick_29">
     <g id="line2d_29">
      <g>
       <use xlink:href="#mb0acad38df" x="299.317585" y="307.584" style="stroke: #000000; stroke-width: 0.6"/>
      </g>
     </g>
    </g>
    <g id="xtick_30">
     <g id="line2d_30">
      <g>
       <use xlink:href="#mb0acad38df" x="304.75123" y="307.584" style="stroke: #000000; stroke-width: 0.6"/>
      </g>
     </g>
    </g>
    <g id="xtick_31">
     <g id="line2d_31">
      <g>
       <use xlink:href="#mb0acad38df" x="309.458067" y="307.584" style="stroke: #000000; stroke-width: 0.6"/>
      </g>
     </g>
    </g>
    <g id="xtick_32">
     <g id="line2d_32">
      <g>
       <use xlink:href="#mb0acad38df" x="313.609792" y="307.584" style="stroke: #000000; stroke-width: 0.6"/>
      </g>
     </g>
    </g>
    <g id="xtick_33">
     <g id="line2d_33">
      <g>
       <use xlink:href="#mb0acad38df" x="341.756325" y="307.584" style="stroke: #000000; stroke-width: 0.6"/>
      </g>
     </g>
    </g>
    <g id="xtick_34">
     <g id="line2d_34">
      <g>
       <use xlink:href="#mb0acad38df" x="356.048532" y="307.584" style="stroke: #000000; stroke-width: 0.6"/>
      </g>
     </g>
    </g>
    <g id="xtick_35">
     <g id="line2d_35">
      <g>
       <use xlink:href="#mb0acad38df" x="366.189015" y="307.584" style="stroke: #000000; stroke-width: 0.6"/>
      </g>
     </g>
    </g>
    <g id="xtick_36">
     <g id="line2d_36">
      <g>
       <use xlink:href="#mb0acad38df" x="374.054584" y="307.584" style="stroke: #000000; stroke-width: 0.6"/>
      </g>
     </g>
    </g>
    <g id="xtick_37">
     <g id="line2d_37">
      <g>
       <use xlink:href="#mb0acad38df" x="380.481221" y="307.584" style="stroke: #000000; stroke-width: 0.6"/>
      </g>
     </g>
    </g>
    <g id="xtick_38">
     <g id="line2d_38">
      <g>
       <use xlink:href="#mb0acad38df" x="385.914866" y="307.584" style="stroke: #000000; stroke-width: 0.6"/>
      </g>
     </g>
    </g>
    <g id="xtick_39">
     <g id="line2d_39">
      <g>
       <use xlink:href="#mb0acad38df" x="390.621704" y="307.584" style="stroke: #000000; stroke-width: 0.6"/>
      </g>
     </g>
    </g>
    <g id="xtick_40">
     <g id="line2d_40">
      <g>
       <use xlink:href="#mb0acad38df" x="394.773428" y="307.584" style="stroke: #000000; stroke-width: 0.6"/>
      </g>
     </g>
    </g>
    <g id="text_6">
     <!-- Frequency [Hz] -->
     <g transform="translate(198.455312 335.860562)scale(0.1 -0.1)">
      <defs>
       <path id="DejaVuSans-46" d="M 628 4666 
L 3309 4666 
L 3309 4134 
L 1259 4134 
L 1259 2759 
L 3109 2759 
L 3109 2228 
L 1259 2228 
L 1259 0 
L 628 0 
L 628 4666 
z
" transform="scale(0.015625)"/>
       <path id="DejaVuSans-72" d="M 2631 2963 
Q 2534 3019 2420 3045 
Q 2306 3072 2169 3072 
Q 1681 3072 1420 2755 
Q 1159 2438 1159 1844 
L 1159 0 
L 581 0 
L 581 3500 
L 1159 3500 
L 1159 2956 
Q 1341 3275 1631 3429 
Q 1922 3584 2338 3584 
Q 2397 3584 2469 3576 
Q 2541 3569 2628 3553 
L 2631 2963 
z
" transform="scale(0.015625)"/>
       <path id="DejaVuSans-65" d="M 3597 1894 
L 3597 1613 
L 953 1613 
Q 991 1019 1311 708 
Q 1631 397 2203 397 
Q 2534 397 2845 478 
Q 3156 559 3463 722 
L 3463 178 
Q 3153 47 2828 -22 
Q 2503 -91 2169 -91 
Q 1331 -91 842 396 
Q 353 884 353 1716 
Q 353 2575 817 3079 
Q 1281 3584 2069 3584 
Q 2775 3584 3186 3129 
Q 3597 2675 3597 1894 
z
M 3022 2063 
Q 3016 2534 2758 2815 
Q 2500 3097 2075 3097 
Q 1594 3097 1305 2825 
Q 1016 2553 972 2059 
L 3022 2063 
z
" transform="scale(0.015625)"/>
       <path id="DejaVuSans-71" d="M 947 1747 
Q 947 1113 1208 752 
Q 1469 391 1925 391 
Q 2381 391 2643 752 
Q 2906 1113 2906 1747 
Q 2906 2381 2643 2742 
Q 2381 3103 1925 3103 
Q 1469 3103 1208 2742 
Q 947 2381 947 1747 
z
M 2906 525 
Q 2725 213 2448 61 
Q 2172 -91 1784 -91 
Q 1150 -91 751 415 
Q 353 922 353 1747 
Q 353 2572 751 3078 
Q 1150 3584 1784 3584 
Q 2172 3584 2448 3432 
Q 2725 3281 2906 2969 
L 2906 3500 
L 3481 3500 
L 3481 -1331 
L 2906 -1331 
L 2906 525 
z
" transform="scale(0.015625)"/>
       <path id="DejaVuSans-75" d="M 544 1381 
L 544 3500 
L 1119 3500 
L 1119 1403 
Q 1119 906 1312 657 
Q 1506 409 1894 409 
Q 2359 409 2629 706 
Q 2900 1003 2900 1516 
L 2900 3500 
L 3475 3500 
L 3475 0 
L 2900 0 
L 2900 538 
Q 2691 219 2414 64 
Q 2138 -91 1772 -91 
Q 1169 -91 856 284 
Q 544 659 544 1381 
z
M 1991 3584 
L 1991 3584 
z
" transform="scale(0.015625)"/>
       <path id="DejaVuSans-6e" d="M 3513 2113 
L 3513 0 
L 2938 0 
L 2938 2094 
Q 2938 2591 2744 2837 
Q 2550 3084 2163 3084 
Q 1697 3084 1428 2787 
Q 1159 2491 1159 1978 
L 1159 0 
L 581 0 
L 581 3500 
L 1159 3500 
L 1159 2956 
Q 1366 3272 1645 3428 
Q 1925 3584 2291 3584 
Q 2894 3584 3203 3211 
Q 3513 2838 3513 2113 
z
" transform="scale(0.015625)"/>
       <path id="DejaVuSans-63" d="M 3122 3366 
L 3122 2828 
Q 2878 2963 2633 3030 
Q 2388 3097 2138 3097 
Q 1578 3097 1268 2742 
Q 959 2388 959 1747 
Q 959 1106 1268 751 
Q 1578 397 2138 397 
Q 2388 397 2633 464 
Q 2878 531 3122 666 
L 3122 134 
Q 2881 22 2623 -34 
Q 2366 -91 2075 -91 
Q 1284 -91 818 406 
Q 353 903 353 1747 
Q 353 2603 823 3093 
Q 1294 3584 2113 3584 
Q 2378 3584 2631 3529 
Q 2884 3475 3122 3366 
z
" transform="scale(0.015625)"/>
       <path id="DejaVuSans-79" d="M 2059 -325 
Q 1816 -950 1584 -1140 
Q 1353 -1331 966 -1331 
L 506 -1331 
L 506 -850 
L 844 -850 
Q 1081 -850 1212 -737 
Q 1344 -625 1503 -206 
L 1606 56 
L 191 3500 
L 800 3500 
L 1894 763 
L 2988 3500 
L 3597 3500 
L 2059 -325 
z
" transform="scale(0.015625)"/>
       <path id="DejaVuSans-20" transform="scale(0.015625)"/>
       <path id="DejaVuSans-5b" d="M 550 4863 
L 1875 4863 
L 1875 4416 
L 1125 4416 
L 1125 -397 
L 1875 -397 
L 1875 -844 
L 550 -844 
L 550 4863 
z
" transform="scale(0.015625)"/>
       <path id="DejaVuSans-48" d="M 628 4666 
L 1259 4666 
L 1259 2753 
L 3553 2753 
L 3553 4666 
L 4184 4666 
L 4184 0 
L 3553 0 
L 3553 2222 
L 1259 2222 
L 1259 0 
L 628 0 
L 628 4666 
z
" transform="scale(0.015625)"/>
       <path id="DejaVuSans-7a" d="M 353 3500 
L 3084 3500 
L 3084 2975 
L 922 459 
L 3084 459 
L 3084 0 
L 275 0 
L 275 525 
L 2438 3041 
L 353 3041 
L 353 3500 
z
" transform="scale(0.015625)"/>
       <path id="DejaVuSans-5d" d="M 1947 4863 
L 1947 -844 
L 622 -844 
L 622 -397 
L 1369 -397 
L 1369 4416 
L 622 4416 
L 622 4863 
L 1947 4863 
z
" transform="scale(0.015625)"/>
      </defs>
      <use xlink:href="#DejaVuSans-46"/>
      <use xlink:href="#DejaVuSans-72" x="50.269531"/>
      <use xlink:href="#DejaVuSans-65" x="89.132812"/>
      <use xlink:href="#DejaVuSans-71" x="150.65625"/>
      <use xlink:href="#DejaVuSans-75" x="214.132812"/>
      <use xlink:href="#DejaVuSans-65" x="277.511719"/>
      <use xlink:href="#DejaVuSans-6e" x="339.035156"/>
      <use xlink:href="#DejaVuSans-63" x="402.414062"/>
      <use xlink:href="#DejaVuSans-79" x="457.394531"/>
      <use xlink:href="#DejaVuSans-20" x="516.574219"/>
      <use xlink:href="#DejaVuSans-5b" x="548.361328"/>
      <use xlink:href="#DejaVuSans-48" x="587.375"/>
      <use xlink:href="#DejaVuSans-7a" x="662.570312"/>
      <use xlink:href="#DejaVuSans-5d" x="715.060547"/>
     </g>
    </g>
   </g>
   <g id="matplotlib.axis_2">
    <g id="ytick_1">
     <g id="line2d_41">
      <defs>
       <path id="mf00b142362" d="M 0 0 
L -3.5 0 
" style="stroke: #000000; stroke-width: 0.8"/>
      </defs>
      <g>
       <use xlink:href="#mf00b142362" x="57.6" y="307.584" style="stroke: #000000; stroke-width: 0.8"/>
      </g>
     </g>
     <g id="text_7">
      <!-- −140 -->
      <g transform="translate(23.132812 311.383219)scale(0.1 -0.1)">
       <defs>
        <path id="DejaVuSans-2212" d="M 678 2272 
L 4684 2272 
L 4684 1741 
L 678 1741 
L 678 2272 
z
" transform="scale(0.015625)"/>
       </defs>
       <use xlink:href="#DejaVuSans-2212"/>
       <use xlink:href="#DejaVuSans-31" x="83.789062"/>
       <use xlink:href="#DejaVuSans-34" x="147.412109"/>
       <use xlink:href="#DejaVuSans-30" x="211.035156"/>
      </g>
     </g>
    </g>
    <g id="ytick_2">
     <g id="line2d_42">
      <g>
       <use xlink:href="#mf00b142362" x="57.6" y="274.32" style="stroke: #000000; stroke-width: 0.8"/>
      </g>
     </g>
     <g id="text_8">
      <!-- −130 -->
      <g transform="translate(23.132812 278.119219)scale(0.1 -0.1)">
       <use xlink:href="#DejaVuSans-2212"/>
       <use xlink:href="#DejaVuSans-31" x="83.789062"/>
       <use xlink:href="#DejaVuSans-33" x="147.412109"/>
       <use xlink:href="#DejaVuSans-30" x="211.035156"/>
      </g>
     </g>
    </g>
    <g id="ytick_3">
     <g id="line2d_43">
      <g>
       <use xlink:href="#mf00b142362" x="57.6" y="241.056" style="stroke: #000000; stroke-width: 0.8"/>
      </g>
     </g>
     <g id="text_9">
      <!-- −120 -->
      <g transform="translate(23.132812 244.855219)scale(0.1 -0.1)">
       <defs>
        <path id="DejaVuSans-32" d="M 1228 531 
L 3431 531 
L 3431 0 
L 469 0 
L 469 531 
Q 828 903 1448 1529 
Q 2069 2156 2228 2338 
Q 2531 2678 2651 2914 
Q 2772 3150 2772 3378 
Q 2772 3750 2511 3984 
Q 2250 4219 1831 4219 
Q 1534 4219 1204 4116 
Q 875 4013 500 3803 
L 500 4441 
Q 881 4594 1212 4672 
Q 1544 4750 1819 4750 
Q 2544 4750 2975 4387 
Q 3406 4025 3406 3419 
Q 3406 3131 3298 2873 
Q 3191 2616 2906 2266 
Q 2828 2175 2409 1742 
Q 1991 1309 1228 531 
z
" transform="scale(0.015625)"/>
       </defs>
       <use xlink:href="#DejaVuSans-2212"/>
       <use xlink:href="#DejaVuSans-31" x="83.789062"/>
       <use xlink:href="#DejaVuSans-32" x="147.412109"/>
       <use xlink:href="#DejaVuSans-30" x="211.035156"/>
      </g>
     </g>
    </g>
    <g id="ytick_4">
     <g id="line2d_44">
      <g>
       <use xlink:href="#mf00b142362" x="57.6" y="207.792" style="stroke: #000000; stroke-width: 0.8"/>
      </g>
     </g>
     <g id="text_10">
      <!-- −110 -->
      <g transform="translate(23.132812 211.591219)scale(0.1 -0.1)">
       <use xlink:href="#DejaVuSans-2212"/>
       <use xlink:href="#DejaVuSans-31" x="83.789062"/>
       <use xlink:href="#DejaVuSans-31" x="147.412109"/>
       <use xlink:href="#DejaVuSans-30" x="211.035156"/>
      </g>
     </g>
    </g>
    <g id="ytick_5">
     <g id="line2d_45">
      <g>
       <use xlink:href="#mf00b142362" x="57.6" y="174.528" style="stroke: #000000; stroke-width: 0.8"/>
      </g>
     </g>
     <g id="text_11">
      <!-- −100 -->
      <g transform="translate(23.132812 178.327219)scale(0.1 -0.1)">
       <use xlink:href="#DejaVuSans-2212"/>
       <use xlink:href="#DejaVuSans-31" x="83.789062"/>
       <use xlink:href="#DejaVuSans-30" x="147.412109"/>
       <use xlink:href="#DejaVuSans-30" x="211.035156"/>
      </g>
     </g>
    </g>
    <g id="ytick_6">
     <g id="line2d_46">
      <g>
       <use xlink:href="#mf00b142362" x="57.6" y="141.264" style="stroke: #000000; stroke-width: 0.8"/>
      </g>
     </g>
     <g id="text_12">
      <!-- −90 -->
      <g transform="translate(29.495313 145.063219)scale(0.1 -0.1)">
       <defs>
        <path id="DejaVuSans-39" d="M 703 97 
L 703 672 
Q 941 559 1184 500 
Q 1428 441 1663 441 
Q 2288 441 2617 861 
Q 2947 1281 2994 2138 
Q 2813 1869 2534 1725 
Q 2256 1581 1919 1581 
Q 1219 1581 811 2004 
Q 403 2428 403 3163 
Q 403 3881 828 4315 
Q 1253 4750 1959 4750 
Q 2769 4750 3195 4129 
Q 3622 3509 3622 2328 
Q 3622 1225 3098 567 
Q 2575 -91 1691 -91 
Q 1453 -91 1209 -44 
Q 966 3 703 97 
z
M 1959 2075 
Q 2384 2075 2632 2365 
Q 2881 2656 2881 3163 
Q 2881 3666 2632 3958 
Q 2384 4250 1959 4250 
Q 1534 4250 1286 3958 
Q 1038 3666 1038 3163 
Q 1038 2656 1286 2365 
Q 1534 2075 1959 2075 
z
" transform="scale(0.015625)"/>
       </defs>
       <use xlink:href="#DejaVuSans-2212"/>
       <use xlink:href="#DejaVuSans-39" x="83.789062"/>
       <use xlink:href="#DejaVuSans-30" x="147.412109"/>
      </g>
     </g>
    </g>
    <g id="ytick_7">
     <g id="line2d_47">
      <g>
       <use xlink:href="#mf00b142362" x="57.6" y="108" style="stroke: #000000; stroke-width: 0.8"/>
      </g>
     </g>
     <g id="text_13">
      <!-- −80 -->
      <g transform="translate(29.495313 111.799219)scale(0.1 -0.1)">
       <defs>
        <path id="DejaVuSans-38" d="M 2034 2216 
Q 1584 2216 1326 1975 
Q 1069 1734 1069 1313 
Q 1069 891 1326 650 
Q 1584 409 2034 409 
Q 2484 409 2743 651 
Q 3003 894 3003 1313 
Q 3003 1734 2745 1975 
Q 2488 2216 2034 2216 
z
M 1403 2484 
Q 997 2584 770 2862 
Q 544 3141 544 3541 
Q 544 4100 942 4425 
Q 1341 4750 2034 4750 
Q 2731 4750 3128 4425 
Q 3525 4100 3525 3541 
Q 3525 3141 3298 2862 
Q 3072 2584 2669 2484 
Q 3125 2378 3379 2068 
Q 3634 1759 3634 1313 
Q 3634 634 3220 271 
Q 2806 -91 2034 -91 
Q 1263 -91 848 271 
Q 434 634 434 1313 
Q 434 1759 690 2068 
Q 947 2378 1403 2484 
z
M 1172 3481 
Q 1172 3119 1398 2916 
Q 1625 2713 2034 2713 
Q 2441 2713 2670 2916 
Q 2900 3119 2900 3481 
Q 2900 3844 2670 4047 
Q 2441 4250 2034 4250 
Q 1625 4250 1398 4047 
Q 1172 3844 1172 3481 
z
" transform="scale(0.015625)"/>
       </defs>
       <use xlink:href="#DejaVuSans-2212"/>
       <use xlink:href="#DejaVuSans-38" x="83.789062"/>
       <use xlink:href="#DejaVuSans-30" x="147.412109"/>
      </g>
     </g>
    </g>
    <g id="ytick_8">
     <g id="line2d_48">
      <g>
       <use xlink:href="#mf00b142362" x="57.6" y="74.736" style="stroke: #000000; stroke-width: 0.8"/>
      </g>
     </g>
     <g id="text_14">
      <!-- −70 -->
      <g transform="translate(29.495313 78.535219)scale(0.1 -0.1)">
       <use xlink:href="#DejaVuSans-2212"/>
       <use xlink:href="#DejaVuSans-37" x="83.789062"/>
       <use xlink:href="#DejaVuSans-30" x="147.412109"/>
      </g>
     </g>
    </g>
    <g id="ytick_9">
     <g id="line2d_49">
      <g>
       <use xlink:href="#mf00b142362" x="57.6" y="41.472" style="stroke: #000000; stroke-width: 0.8"/>
      </g>
     </g>
     <g id="text_15">
      <!-- −60 -->
      <g transform="translate(29.495313 45.271219)scale(0.1 -0.1)">
       <use xlink:href="#DejaVuSans-2212"/>
       <use xlink:href="#DejaVuSans-36" x="83.789062"/>
       <use xlink:href="#DejaVuSans-30" x="147.412109"/>
      </g>
     </g>
    </g>
    <g id="text_16">
     <!-- Phase noise [dBc/Hz] -->
     <g transform="translate(17.053125 227.257688)rotate(-90)scale(0.1 -0.1)">
      <defs>
       <path id="DejaVuSans-50" d="M 1259 4147 
L 1259 2394 
L 2053 2394 
Q 2494 2394 2734 2622 
Q 2975 2850 2975 3272 
Q 2975 3691 2734 3919 
Q 2494 4147 2053 4147 
L 1259 4147 
z
M 628 4666 
L 2053 4666 
Q 2838 4666 3239 4311 
Q 3641 3956 3641 3272 
Q 3641 2581 3239 2228 
Q 2838 1875 2053 1875 
L 1259 1875 
L 1259 0 
L 628 0 
L 628 4666 
z
" transform="scale(0.015625)"/>
       <path id="DejaVuSans-68" d="M 3513 2113 
L 3513 0 
L 2938 0 
L 2938 2094 
Q 2938 2591 2744 2837 
Q 2550 3084 2163 3084 
Q 1697 3084 1428 2787 
Q 1159 2491 1159 1978 
L 1159 0 
L 581 0 
L 581 4863 
L 1159 4863 
L 1159 2956 
Q 1366 3272 1645 3428 
Q 1925 3584 2291 3584 
Q 2894 3584 3203 3211 
Q 3513 2838 3513 2113 
z
" transform="scale(0.015625)"/>
       <path id="DejaVuSans-61" d="M 2194 1759 
Q 1497 1759 1228 1600 
Q 959 1441 959 1056 
Q 959 750 1161 570 
Q 1363 391 1709 391 
Q 2188 391 2477 730 
Q 2766 1069 2766 1631 
L 2766 1759 
L 2194 1759 
z
M 3341 1997 
L 3341 0 
L 2766 0 
L 2766 531 
Q 2569 213 2275 61 
Q 1981 -91 1556 -91 
Q 1019 -91 701 211 
Q 384 513 384 1019 
Q 384 1609 779 1909 
Q 1175 2209 1959 2209 
L 2766 2209 
L 2766 2266 
Q 2766 2663 2505 2880 
Q 2244 3097 1772 3097 
Q 1472 3097 1187 3025 
Q 903 2953 641 2809 
L 641 3341 
Q 956 3463 1253 3523 
Q 1550 3584 1831 3584 
Q 2591 3584 2966 3190 
Q 3341 2797 3341 1997 
z
" transform="scale(0.015625)"/>
       <path id="DejaVuSans-73" d="M 2834 3397 
L 2834 2853 
Q 2591 2978 2328 3040 
Q 2066 3103 1784 3103 
Q 1356 3103 1142 2972 
Q 928 2841 928 2578 
Q 928 2378 1081 2264 
Q 1234 2150 1697 2047 
L 1894 2003 
Q 2506 1872 2764 1633 
Q 3022 1394 3022 966 
Q 3022 478 2636 193 
Q 2250 -91 1575 -91 
Q 1294 -91 989 -36 
Q 684 19 347 128 
L 347 722 
Q 666 556 975 473 
Q 1284 391 1588 391 
Q 1994 391 2212 530 
Q 2431 669 2431 922 
Q 2431 1156 2273 1281 
Q 2116 1406 1581 1522 
L 1381 1569 
Q 847 1681 609 1914 
Q 372 2147 372 2553 
Q 372 3047 722 3315 
Q 1072 3584 1716 3584 
Q 2034 3584 2315 3537 
Q 2597 3491 2834 3397 
z
" transform="scale(0.015625)"/>
       <path id="DejaVuSans-6f" d="M 1959 3097 
Q 1497 3097 1228 2736 
Q 959 2375 959 1747 
Q 959 1119 1226 758 
Q 1494 397 1959 397 
Q 2419 397 2687 759 
Q 2956 1122 2956 1747 
Q 2956 2369 2687 2733 
Q 2419 3097 1959 3097 
z
M 1959 3584 
Q 2709 3584 3137 3096 
Q 3566 2609 3566 1747 
Q 3566 888 3137 398 
Q 2709 -91 1959 -91 
Q 1206 -91 779 398 
Q 353 888 353 1747 
Q 353 2609 779 3096 
Q 1206 3584 1959 3584 
z
" transform="scale(0.015625)"/>
       <path id="DejaVuSans-69" d="M 603 3500 
L 1178 3500 
L 1178 0 
L 603 0 
L 603 3500 
z
M 603 4863 
L 1178 4863 
L 1178 4134 
L 603 4134 
L 603 4863 
z
" transform="scale(0.015625)"/>
       <path id="DejaVuSans-64" d="M 2906 2969 
L 2906 4863 
L 3481 4863 
L 3481 0 
L 2906 0 
L 2906 525 
Q 2725 213 2448 61 
Q 2172 -91 1784 -91 
Q 1150 -91 751 415 
Q 353 922 353 1747 
Q 353 2572 751 3078 
Q 1150 3584 1784 3584 
Q 2172 3584 2448 3432 
Q 2725 3281 2906 2969 
z
M 947 1747 
Q 947 1113 1208 752 
Q 1469 391 1925 391 
Q 2381 391 2643 752 
Q 2906 1113 2906 1747 
Q 2906 2381 2643 2742 
Q 2381 3103 1925 3103 
Q 1469 3103 1208 2742 
Q 947 2381 947 1747 
z
" transform="scale(0.015625)"/>
       <path id="DejaVuSans-42" d="M 1259 2228 
L 1259 519 
L 2272 519 
Q 2781 519 3026 730 
Q 3272 941 3272 1375 
Q 3272 1813 3026 2020 
Q 2781 2228 2272 2228 
L 1259 2228 
z
M 1259 4147 
L 1259 2741 
L 2194 2741 
Q 2656 2741 2882 2914 
Q 3109 3088 3109 3444 
Q 3109 3797 2882 3972 
Q 2656 4147 2194 4147 
L 1259 4147 
z
M 628 4666 
L 2241 4666 
Q 2963 4666 3353 4366 
Q 3744 4066 3744 3513 
Q 3744 3084 3544 2831 
Q 3344 2578 2956 2516 
Q 3422 2416 3680 2098 
Q 3938 1781 3938 1306 
Q 3938 681 3513 340 
Q 3088 0 2303 0 
L 628 0 
L 628 4666 
z
" transform="scale(0.015625)"/>
       <path id="DejaVuSans-2f" d="M 1625 4666 
L 2156 4666 
L 531 -594 
L 0 -594 
L 1625 4666 
z
" transform="scale(0.015625)"/>
      </defs>
      <use xlink:href="#DejaVuSans-50"/>
      <use xlink:href="#DejaVuSans-68" x="60.302734"/>
      <use xlink:href="#DejaVuSans-61" x="123.681641"/>
      <use xlink:href="#DejaVuSans-73" x="184.960938"/>
      <use xlink:href="#DejaVuSans-65" x="237.060547"/>
      <use xlink:href="#DejaVuSans-20" x="298.583984"/>
      <use xlink:href="#DejaVuSans-6e" x="330.371094"/>
      <use xlink:href="#DejaVuSans-6f" x="393.75"/>
      <use xlink:href="#DejaVuSans-69" x="454.931641"/>
      <use xlink:href="#DejaVuSans-73" x="482.714844"/>
      <use xlink:href="#DejaVuSans-65" x="534.814453"/>
      <use xlink:href="#DejaVuSans-20" x="596.337891"/>
      <use xlink:href="#DejaVuSans-5b" x="628.125"/>
      <use xlink:href="#DejaVuSans-64" x="667.138672"/>
      <use xlink:href="#DejaVuSans-42" x="730.615234"/>
      <use xlink:href="#DejaVuSans-63" x="799.21875"/>
      <use xlink:href="#DejaVuSans-2f" x="854.199219"/>
      <use xlink:href="#DejaVuSans-48" x="887.890625"/>
      <use xlink:href="#DejaVuSans-7a" x="963.085938"/>
      <use xlink:href="#DejaVuSans-5d" x="1015.576172"/>
     </g>
    </g>
   </g>
   <g id="line2d_50">
    <path d="M 398.487273 302.625003 
L 398.133009 301.229024 
L 397.775149 300.823203 
L 397.413619 300.22556 
L 396.67924 297.448016 
L 396.306232 297.043304 
L 395.162923 302.184809 
L 393.981285 297.26839 
L 393.578435 298.766379 
L 393.170929 299.451617 
L 392.758656 301.338795 
L 392.341504 301.26894 
L 391.919356 302.248011 
L 391.492092 301.983008 
L 391.059584 300.615857 
L 390.621704 298.23859 
L 390.178315 298.893891 
L 389.729278 301.715787 
L 389.274447 301.504006 
L 388.346791 295.590776 
L 387.873644 296.43679 
L 387.394059 298.970398 
L 386.907859 300.560417 
L 386.414859 301.01059 
L 385.914866 299.457161 
L 385.407679 298.678784 
L 384.893087 298.46922 
L 384.370871 298.453697 
L 383.840802 296.930206 
L 383.30264 296.371371 
L 382.756135 296.585369 
L 382.201022 298.208652 
L 381.637027 298.307336 
L 381.063862 299.423897 
L 380.481221 297.598812 
L 379.888789 296.783844 
L 379.286228 294.010736 
L 378.049297 295.341296 
L 377.414164 297.119811 
L 376.1085 299.177744 
L 375.437071 297.349332 
L 374.752605 295.081836 
L 374.054584 291.972761 
L 373.34246 290.857308 
L 372.615652 292.495006 
L 371.115472 296.503318 
L 370.340739 296.58426 
L 369.548595 295.077401 
L 367.908815 294.672689 
L 367.059402 294.046217 
L 366.189015 293.242337 
L 365.296589 290.435964 
L 364.380981 291.933953 
L 363.440954 292.185651 
L 362.47517 293.77567 
L 361.482177 292.161257 
L 360.460398 291.097918 
L 359.408113 291.107897 
L 358.323446 291.619054 
L 357.204338 291.555852 
L 356.048532 289.269507 
L 354.853539 287.976646 
L 353.616608 288.207276 
L 352.334688 288.990089 
L 351.004382 286.912198 
L 349.621895 284.476164 
L 348.182963 283.7876 
L 346.682783 284.854265 
L 345.115906 285.462996 
L 343.476126 284.513864 
L 341.756325 283.224329 
L 339.948292 281.672009 
L 338.042481 279.325788 
L 336.027709 278.592872 
L 333.890756 276.732305 
L 331.615843 275.816436 
L 329.183919 273.139793 
L 326.571693 271.289206 
L 323.750274 269.680337 
L 323.455302 269.874377 
L 322.857849 271.255942 
L 322.555281 271.139518 
L 322.250094 271.196067 
L 322.096504 272.131894 
L 322.065705 272.072019 
L 322.004027 271.730508 
L 321.75623 270.262457 
L 321.694008 270.275763 
L 321.569233 269.885465 
L 321.475361 268.48616 
L 321.349808 268.003832 
L 321.192236 268.568211 
L 321.160637 268.540491 
L 320.843077 268.050401 
L 320.811163 268.091427 
L 320.715247 268.345342 
L 320.651158 268.681308 
L 320.586952 268.665785 
L 320.393631 267.496001 
L 320.231715 266.94271 
L 320.069053 267.418385 
L 319.905636 266.400507 
L 319.872862 266.511387 
L 319.609563 267.355184 
L 319.54343 267.264262 
L 319.443997 267.075766 
L 319.41079 267.105704 
L 319.344283 267.165579 
L 319.076991 269.064953 
L 319.043437 268.572646 
L 318.976232 267.61686 
L 318.908899 267.674518 
L 318.638272 270.355596 
L 318.57029 270.266892 
L 318.536249 270.22254 
L 318.331313 267.215475 
L 318.090705 265.451374 
L 317.813699 263.871334 
L 317.709257 264.121923 
L 317.499442 264.695172 
L 317.429225 264.590945 
L 317.394064 264.544376 
L 317.28837 266.195379 
L 316.93375 267.199952 
L 316.575526 265.986924 
L 316.213624 266.756432 
L 315.847968 265.795102 
L 315.478479 267.566964 
L 315.105076 266.523584 
L 314.727675 266.679924 
L 314.34619 263.903489 
L 313.96053 264.679649 
L 313.570605 263.872443 
L 313.176317 266.478123 
L 312.77757 267.00702 
L 311.966282 266.325108 
L 311.553526 262.5441 
L 311.13588 261.594968 
L 310.713226 260.275496 
L 310.285442 260.387484 
L 309.413979 257.79511 
L 308.970032 258.110009 
L 308.520422 258.056787 
L 307.603623 255.306963 
L 307.136124 254.086174 
L 306.662341 254.212577 
L 306.182103 253.647089 
L 305.695232 254.549652 
L 305.201542 253.563929 
L 304.700838 254.766977 
L 304.19292 253.388739 
L 303.677576 253.26788 
L 303.154585 251.080217 
L 302.084733 249.133164 
L 301.537379 248.135244 
L 300.981391 249.439193 
L 300.416492 249.696435 
L 299.842393 250.258596 
L 299.258788 249.231848 
L 298.665358 250.076753 
L 298.061766 252.213411 
L 297.447657 249.788465 
L 296.186381 243.942872 
L 294.878293 243.631299 
L 294.205583 243.247654 
L 293.519785 245.328872 
L 292.820379 246.117228 
L 292.106814 246.585142 
L 291.378504 245.485212 
L 290.634829 245.282302 
L 289.875124 244.288817 
L 289.098685 243.569206 
L 288.304757 243.411756 
L 287.492534 242.857356 
L 286.661153 241.230747 
L 285.809688 239.843638 
L 284.937146 239.036432 
L 284.042455 238.49312 
L 283.124462 237.081617 
L 282.181922 235.320843 
L 281.213484 237.019524 
L 280.217686 237.7724 
L 279.192936 237.121534 
L 278.1375 233.323894 
L 277.049484 231.066377 
L 274.767203 232.807193 
L 273.568145 230.872337 
L 272.326858 229.467488 
L 271.040258 226.943859 
L 269.704912 226.835196 
L 268.31698 226.927227 
L 266.87215 227.67234 
L 265.365556 228.879824 
L 263.791682 225.727505 
L 262.144237 223.764929 
L 260.416002 220.882049 
L 259.700264 215.613032 
L 259.33687 215.708388 
L 259.153758 216.006656 
L 258.784656 218.093417 
L 258.411648 220.617046 
L 258.223653 220.620372 
L 258.034651 221.359942 
L 257.461485 225.594449 
L 257.26834 225.312814 
L 256.878845 223.229379 
L 256.682471 223.12626 
L 256.484998 224.2905 
L 256.286412 224.016627 
L 256.086701 222.815796 
L 255.885852 220.323214 
L 255.276345 218.371726 
L 254.864072 216.096468 
L 254.656114 216.513377 
L 254.446921 216.582123 
L 254.236479 217.089953 
L 254.024773 216.854888 
L 253.811788 216.924742 
L 253.597508 215.952324 
L 253.381918 215.934584 
L 253.165 216.08538 
L 252.94674 217.047819 
L 252.72712 217.433681 
L 252.506123 217.394873 
L 252.283732 217.632156 
L 252.059928 217.50908 
L 251.834695 217.944838 
L 251.379864 216.069857 
L 250.919087 211.952883 
L 250.68642 210.479288 
L 250.240076 209.596683 
L 250.192762 209.7752 
L 249.811947 211.112412 
L 249.788008 211.002641 
L 249.740083 210.315185 
L 249.52361 207.736116 
L 249.426972 208.572152 
L 249.257214 209.787396 
L 249.086635 210.59682 
L 248.988789 212.931953 
L 248.915226 211.76106 
L 248.866098 211.452814 
L 248.767638 210.96716 
L 248.742979 211.041449 
L 248.520276 211.543736 
L 248.271166 208.793912 
L 248.095735 206.080678 
L 247.919427 203.72226 
L 247.894168 203.641318 
L 247.843596 203.661276 
L 247.716847 204.629259 
L 247.691442 204.291075 
L 247.640578 203.619142 
L 247.564144 203.781027 
L 247.513095 204.044921 
L 247.436384 203.946238 
L 247.359505 203.901886 
L 247.153671 202.989344 
L 246.946629 202.297452 
L 246.894677 202.184355 
L 246.686103 200.518937 
L 246.633766 200.432451 
L 246.555115 199.996692 
L 246.449973 199.280408 
L 246.397284 199.295931 
L 245.999586 201.183108 
L 245.758795 199.211662 
L 245.624309 198.850193 
L 245.489307 198.428849 
L 245.353786 199.121849 
L 245.163177 200.742915 
L 245.135863 200.684148 
L 244.889078 199.628571 
L 244.751226 199.886921 
L 244.501724 196.994062 
L 244.473892 196.978539 
L 243.969126 199.057539 
L 243.855967 198.914504 
L 243.742444 199.944579 
L 243.628554 200.56218 
L 243.600024 200.483456 
L 243.370948 199.747212 
L 243.342208 199.960102 
L 243.227016 200.740697 
L 243.169278 200.549984 
L 243.140373 200.476803 
L 243.082493 200.521155 
L 242.791659 201.961486 
L 242.67465 200.369249 
L 242.527841 198.637304 
L 242.439461 198.748184 
L 242.380417 198.663915 
L 242.291666 197.903278 
L 242.232374 197.94763 
L 242.024064 198.799188 
L 241.994205 198.709376 
L 241.543253 193.431488 
L 241.452366 193.537932 
L 241.422019 193.572305 
L 241.086457 191.252696 
L 241.025102 191.150686 
L 240.963639 191.190603 
L 240.809511 192.010006 
L 240.747671 191.925737 
L 240.592594 191.499958 
L 240.280378 194.54694 
L 240.217602 193.70647 
L 239.965373 191.363576 
L 239.902032 191.363576 
L 239.455434 188.925324 
L 239.294553 187.966212 
L 239.197671 187.667945 
L 239.132934 187.761084 
L 238.840141 189.924353 
L 238.742 190.008622 
L 238.709225 189.905504 
L 238.643585 189.643827 
L 238.577822 189.697049 
L 238.313536 190.618462 
L 238.213916 190.683881 
L 238.08065 191.287068 
L 237.913355 192.171891 
L 237.879801 192.033291 
L 237.745263 191.699542 
L 237.711548 191.750547 
L 237.644021 191.829272 
L 237.576365 191.782702 
L 237.372613 191.048676 
L 237.33854 191.030936 
L 236.995982 188.02387 
L 236.961542 188.030523 
L 236.927069 188.037176 
L 236.684808 189.344451 
L 236.510738 188.806683 
L 236.475821 188.944174 
L 236.335805 189.715899 
L 236.124733 193.494135 
L 235.769757 188.759559 
L 235.41117 188.085408 
L 235.048897 186.142791 
L 234.682862 187.426781 
L 234.312986 185.075016 
L 233.939188 184.732397 
L 233.561383 185.177026 
L 233.179485 186.801418 
L 232.793404 187.448957 
L 232.403047 184.495114 
L 232.008319 183.74113 
L 231.609121 181.225263 
L 231.20535 182.434964 
L 230.7969 178.639541 
L 230.383661 176.7191 
L 229.965521 172.629845 
L 229.54236 174.748762 
L 229.114058 174.222082 
L 228.680488 177.153749 
L 228.241518 175.616952 
L 227.797012 178.425543 
L 227.346829 178.089576 
L 226.890823 177.957629 
L 226.428839 174.448277 
L 225.960721 171.76609 
L 225.005409 168.09818 
L 224.517866 167.667965 
L 224.023485 166.197696 
L 223.522071 165.753068 
L 223.013421 161.477535 
L 222.497323 160.969704 
L 221.973557 159.616968 
L 221.441891 160.587168 
L 220.902082 159.233324 
L 220.353878 160.996316 
L 219.797013 159.789941 
L 219.23121 158.086824 
L 218.656176 157.58232 
L 218.071605 158.269776 
L 217.477176 157.931592 
L 216.872551 155.665205 
L 216.257373 155.251623 
L 215.631268 155.8914 
L 214.99384 152.229034 
L 214.344673 151.753359 
L 213.683325 149.758628 
L 213.009332 151.612541 
L 212.322199 151.88198 
L 211.621405 154.834714 
L 211.549916 155.830416 
L 211.262499 147.383578 
L 211.190277 146.28254 
L 211.117907 146.454404 
L 211.045388 146.896815 
L 210.75381 152.506234 
L 210.680537 152.226816 
L 210.607112 151.499444 
L 210.385914 146.305824 
L 210.311871 146.475471 
L 210.237673 147.139642 
L 210.163318 146.320239 
L 209.939308 147.534375 
L 209.864321 147.441236 
L 209.789173 147.543245 
L 209.562765 149.444837 
L 209.486972 149.625572 
L 209.411015 148.833888 
L 209.258608 150.815314 
L 209.182157 151.213373 
L 208.951803 144.695847 
L 208.719934 151.520511 
L 208.642304 151.232223 
L 208.564503 151.817669 
L 207.856456 139.643045 
L 207.776898 139.994535 
L 207.456862 144.280047 
L 207.214913 149.732016 
L 206.971292 142.35517 
L 206.88971 142.55808 
L 206.807938 143.507213 
L 206.725976 142.979424 
L 206.47894 144.223498 
L 206.396209 143.605896 
L 206.146843 146.883509 
L 205.8957 145.484204 
L 205.642755 140.813938 
L 205.302647 144.125924 
L 204.959225 137.215882 
L 204.872844 136.780124 
L 204.786251 137.388855 
L 204.612424 140.127591 
L 204.525188 140.379288 
L 204.437736 138.267024 
L 204.174069 142.3086 
L 203.730194 132.879365 
L 203.640745 133.516925 
L 203.461161 137.995368 
L 203.371026 138.877973 
L 203.280659 137.931058 
L 203.099227 139.631957 
L 203.008159 138.479914 
L 202.825316 139.311514 
L 202.733537 138.71498 
L 202.641519 136.066056 
L 202.456758 138.417821 
L 202.177789 144.610469 
L 201.990575 142.967228 
L 201.613138 134.329676 
L 201.422893 136.846652 
L 201.231616 139.110821 
L 201.135586 139.816018 
L 201.039295 139.267162 
L 200.942739 140.946994 
L 200.455955 132.710828 
L 200.259343 133.569039 
L 200.160624 134.762108 
L 199.962353 133.520252 
L 199.862798 134.164464 
L 199.66284 137.968757 
L 199.461741 135.051504 
L 199.36076 134.85192 
L 199.259489 138.343532 
L 199.157926 138.182756 
L 199.056069 137.794676 
L 198.645674 131.633074 
L 198.43867 135.339792 
L 198.334711 135.167928 
L 198.230444 132.144231 
L 197.915779 134.287541 
L 197.704432 131.946864 
L 197.598281 132.553378 
L 197.385015 138.636255 
L 197.062677 127.781103 
L 196.954573 129.189279 
L 196.846136 129.845688 
L 196.628257 134.809786 
L 196.51881 134.560306 
L 196.298891 136.750186 
L 196.188415 136.781232 
L 195.854894 128.440839 
L 195.630781 130.403415 
L 195.518188 129.814642 
L 195.405234 128.540631 
L 195.291916 125.954909 
L 195.064183 128.109308 
L 194.719801 136.129258 
L 193.784651 127.59926 
L 193.640094 131.150746 
L 193.627137 129.805772 
L 193.601209 127.970708 
L 193.536306 129.49309 
L 193.523311 130.591911 
L 193.458264 126.802032 
L 193.380049 124.085472 
L 193.353939 126.504874 
L 193.236202 131.991216 
L 193.223096 131.282693 
L 193.183749 128.408684 
L 193.144357 132.53342 
L 193.118071 136.263423 
L 193.065441 129.164885 
L 193.039097 128.357679 
L 192.999543 129.840144 
L 192.959945 129.116098 
L 192.920302 126.973896 
L 192.854132 123.410213 
L 192.787837 123.781661 
L 192.774563 124.066623 
L 192.748001 122.86801 
L 192.681506 119.424077 
L 192.628219 122.171684 
L 192.534774 123.453456 
L 192.521404 123.359208 
L 192.49465 121.927748 
L 192.427675 123.812708 
L 192.279881 128.361005 
L 192.239465 128.201338 
L 192.185506 126.530376 
L 192.090878 124.617696 
L 192.077339 125.264127 
L 192.050245 126.949503 
L 192.009565 123.86593 
L 191.995995 124.404807 
L 191.887244 122.616312 
L 191.928065 125.569047 
L 191.873626 123.222826 
L 191.819104 127.683528 
L 191.750832 124.62324 
L 191.723486 124.083255 
L 191.682427 125.513607 
L 191.66873 125.365028 
L 191.627607 125.735367 
L 191.613889 124.394828 
L 191.531468 121.74036 
L 191.503951 123.077573 
L 191.462636 124.78956 
L 191.379859 128.862183 
L 191.324567 128.263431 
L 191.28304 126.560314 
L 191.213721 128.144789 
L 191.144265 130.999949 
L 191.116444 127.417416 
L 191.03285 122.598572 
L 190.990978 123.286028 
L 190.822993 128.918732 
L 190.794917 126.76766 
L 190.780871 126.769877 
L 190.738699 128.925384 
L 190.682391 127.34978 
L 190.611879 125.809656 
L 190.597759 126.938415 
L 190.583634 128.26454 
L 190.541225 124.181938 
L 190.512924 125.184293 
L 190.4846 124.986927 
L 190.413691 126.761007 
L 190.385288 128.971954 
L 190.328412 126.622407 
L 190.285694 124.018944 
L 190.214383 125.974868 
L 190.200104 126.387341 
L 190.142928 124.989144 
L 190.099985 124.258445 
L 190.042647 125.189837 
L 190.013942 126.481589 
L 189.942079 124.922616 
L 189.855649 120.971962 
L 189.783462 121.230312 
L 189.769007 121.068428 
L 189.754546 121.926639 
L 189.609608 125.032388 
L 189.56601 124.444724 
L 189.449484 120.806751 
L 189.420293 121.689356 
L 189.332572 120.415344 
L 189.303284 119.829898 
L 189.229955 120.100445 
L 189.097579 130.176111 
L 189.038585 125.668839 
L 188.964703 125.74202 
L 188.861008 122.033084 
L 188.831325 123.365861 
L 188.69744 132.31166 
L 188.622839 129.96433 
L 188.44315 118.804258 
L 188.292706 123.986789 
L 188.217243 122.357962 
L 188.20213 121.254706 
L 188.156755 122.750477 
L 188.126473 122.272584 
L 188.035469 130.013117 
L 187.974668 125.070087 
L 187.868015 120.147015 
L 187.852752 121.498642 
L 187.822207 124.288383 
L 187.745729 122.09185 
L 187.653735 119.645837 
L 187.607648 119.685754 
L 187.592272 119.225602 
L 187.57689 120.909869 
L 187.469024 124.3283 
L 187.453588 123.879236 
L 187.236766 120.691436 
L 187.221228 120.670368 
L 187.19013 121.110562 
L 187.081073 126.00037 
L 187.065466 125.689906 
L 187.03423 122.149508 
L 186.956021 123.312639 
L 186.86194 124.310559 
L 186.846236 123.580968 
L 186.767608 119.751173 
L 186.720347 122.414511 
L 186.657233 123.177365 
L 186.609823 121.301276 
L 186.514813 126.144514 
L 186.435441 124.765167 
L 186.339959 122.212709 
L 186.308074 122.636271 
L 186.27616 122.349092 
L 186.196248 117.392756 
L 186.116155 119.12581 
L 186.100115 119.20897 
L 186.068012 117.62006 
L 186.019803 119.92082 
L 186.003719 119.577092 
L 185.907058 115.266077 
L 185.793951 117.458175 
L 185.729155 125.540218 
L 185.647992 121.321234 
L 185.517742 117.858452 
L 185.501427 117.978202 
L 185.370633 120.479655 
L 185.35425 119.212296 
L 185.32146 117.017981 
L 185.255789 118.952837 
L 185.157053 124.711944 
L 185.124079 123.299333 
L 185.07456 123.329271 
L 184.991875 121.877852 
L 184.958746 122.51652 
L 184.709283 128.789002 
L 184.892395 122.319154 
L 184.692589 127.98734 
L 184.659178 127.079232 
L 184.625735 128.234602 
L 184.575511 127.520535 
L 184.525215 127.02601 
L 184.373896 114.555336 
L 184.272655 117.975984 
L 184.035287 125.090045 
L 184.018271 123.88478 
L 183.984214 122.179445 
L 183.916001 123.714024 
L 183.881845 127.129128 
L 183.813434 123.238349 
L 183.779179 121.590672 
L 183.727733 123.452348 
L 183.693394 122.192751 
L 183.590176 124.168632 
L 183.572944 122.555328 
L 183.469372 117.681044 
L 183.45208 118.291992 
L 183.43478 119.0615 
L 183.382829 116.429208 
L 183.348152 118.101279 
L 183.243917 116.431426 
L 183.209103 117.125535 
L 183.01701 119.822136 
L 182.981971 120.251242 
L 182.876646 121.376674 
L 182.859061 121.042925 
L 182.700401 116.937039 
L 182.806254 121.589564 
L 182.665046 118.761015 
L 182.611947 120.073834 
L 182.576503 118.998298 
L 182.52327 114.45998 
L 182.452168 114.488808 
L 182.345245 120.71472 
L 182.309532 118.001487 
L 182.291662 116.354919 
L 182.202175 118.010357 
L 182.18425 118.52484 
L 182.130421 117.419367 
L 182.09449 117.317357 
L 181.932342 123.400234 
L 181.91428 122.700581 
L 181.80571 120.180279 
L 181.7513 120.357687 
L 181.733144 120.481872 
L 181.696805 120.127056 
L 181.660429 117.86954 
L 181.569323 118.550343 
L 181.514546 121.372239 
L 181.441377 121.028511 
L 181.239377 114.651802 
L 181.220956 115.467879 
L 181.202525 116.283956 
L 181.147175 113.954367 
L 181.128705 113.878968 
L 181.110226 114.15506 
L 181.073239 116.633228 
L 181.036213 120.183605 
L 180.999148 115.936901 
L 180.9806 114.291442 
L 180.887718 115.083125 
L 180.831871 115.943554 
L 180.79459 115.379175 
L 180.663796 111.717917 
L 180.626337 111.915284 
L 180.551299 110.765458 
L 180.51372 111.737876 
L 180.287402 117.848472 
L 180.249541 116.597746 
L 180.07866 111.452914 
L 180.059622 112.108215 
L 179.945177 114.980007 
L 179.926067 114.549792 
L 179.906946 114.119578 
L 179.868674 115.640852 
L 179.849522 116.385965 
L 179.77281 115.232813 
L 179.560989 108.217436 
L 179.522339 108.760748 
L 179.444911 113.492219 
L 177.62102 116.415681 
L 177.435009 116.055321 
L 177.248012 115.005288 
L 176.871014 110.839526 
L 176.489941 114.432038 
L 176.297848 114.66156 
L 176.104703 112.653523 
L 175.321362 109.71742 
L 174.923065 117.25726 
L 174.722215 117.177427 
L 174.317051 113.213467 
L 174.112709 112.720051 
L 173.907175 111.836337 
L 173.700436 111.502588 
L 173.492477 111.498153 
L 173.072842 109.79171 
L 172.861136 109.948051 
L 172.648151 109.629825 
L 172.433872 111.067939 
L 172.218281 109.688592 
L 172.001364 110.215272 
L 171.342487 105.520612 
L 170.896292 108.136272 
L 170.671058 107.730451 
L 170.444376 106.406544 
L 170.216227 107.150548 
L 169.75545 105.879864 
L 169.522784 105.286656 
L 169.288571 103.666699 
L 169.052791 104.160115 
L 168.815424 104.130177 
L 168.576447 108.005433 
L 168.335839 108.379099 
L 168.093577 106.261291 
L 167.849639 106.008484 
L 167.604001 107.006404 
L 167.107529 107.573001 
L 166.856646 104.590329 
L 166.603965 105.613752 
L 166.349459 104.079172 
L 166.093102 106.055054 
L 165.834867 106.346668 
L 165.574726 107.665032 
L 165.048613 107.229273 
L 164.514528 103.46268 
L 164.24442 103.289707 
L 163.972227 102.936 
L 163.697915 103.174392 
L 163.142802 101.959147 
L 162.861933 102.154296 
L 162.578807 100.880284 
L 162.293389 101.821656 
L 162.005642 102.29844 
L 161.715525 103.901764 
L 161.12803 101.218468 
L 160.830569 97.897612 
L 160.530576 98.580633 
L 160.228008 97.497336 
L 159.922821 98.10274 
L 159.614968 97.042728 
L 159.304403 99.799204 
L 158.991077 101.343763 
L 158.674941 101.116459 
L 158.355944 98.738083 
L 158.034034 97.559428 
L 157.709157 98.660467 
L 157.381258 99.334617 
L 157.05028 100.63524 
L 156.716164 97.750142 
L 156.038279 94.145433 
L 155.694385 96.380774 
L 155.347102 97.164696 
L 154.996364 99.10066 
L 154.28424 97.802256 
L 153.922709 95.391724 
L 153.557432 94.954857 
L 153.18833 94.971489 
L 152.815323 95.395051 
L 152.438325 95.994912 
L 152.057252 95.242036 
L 151.672014 95.124504 
L 151.282519 93.749592 
L 150.888673 94.707595 
L 150.490375 93.373708 
L 150.087526 93.881539 
L 149.68002 91.49651 
L 149.267747 92.881401 
L 148.850595 93.089856 
L 148.428447 94.894982 
L 147.568675 90.841209 
L 147.130795 91.206004 
L 146.687406 92.005449 
L 146.238369 91.617369 
L 145.783538 89.143636 
L 145.322761 88.43844 
L 144.855881 88.305384 
L 144.382734 87.360686 
L 143.90315 87.038025 
L 143.41695 87.100118 
L 142.92395 86.574547 
L 142.423957 86.550153 
L 141.91677 85.862697 
L 141.402178 87.010305 
L 140.879962 86.258539 
L 140.349893 85.882656 
L 139.811731 84.322574 
L 139.265226 83.798112 
L 138.146118 86.955974 
L 137.572952 88.134628 
L 136.990312 87.327422 
L 136.39788 86.974824 
L 135.795319 86.277388 
L 135.182279 84.394646 
L 134.558388 81.749049 
L 133.923255 80.764435 
L 133.276468 84.060897 
L 132.617591 85.863806 
L 131.946162 85.935878 
L 131.261696 83.367897 
L 130.563675 82.525209 
L 129.851551 83.06963 
L 129.124743 84.356947 
L 128.382633 84.29818 
L 127.624563 83.286955 
L 126.84983 82.721467 
L 126.057686 83.668382 
L 125.247331 83.066304 
L 124.417906 83.027496 
L 122.698105 84.211694 
L 121.80568 82.850088 
L 120.890072 82.021814 
L 119.950045 82.851196 
L 118.984261 84.545443 
L 117.991268 85.748491 
L 116.969489 85.613217 
L 115.917204 84.39132 
L 114.832536 85.510099 
L 113.713429 87.361795 
L 112.557623 89.782305 
L 111.36263 88.968446 
L 110.125699 89.12146 
L 108.843779 87.962764 
L 106.130985 86.868379 
L 104.692054 88.625827 
L 103.191874 90.209193 
L 101.624997 92.248276 
L 99.985217 92.825961 
L 98.265416 92.796024 
L 97.911153 90.106075 
L 97.732677 90.056179 
L 97.553293 89.566089 
L 97.372991 89.603788 
L 96.826485 93.218476 
L 96.642417 93.102052 
L 96.457383 93.510091 
L 96.271373 94.21307 
L 96.084375 94.210852 
L 95.896381 93.660888 
L 95.707378 93.921456 
L 95.326305 96.049243 
L 95.134212 96.269894 
L 94.551572 94.902744 
L 94.157725 95.899555 
L 93.959139 96.679041 
L 93.759428 96.921868 
L 93.153415 91.125062 
L 92.743539 91.902331 
L 92.328841 91.410024 
L 91.6975 91.758187 
L 91.484515 91.568582 
L 91.270235 91.170523 
L 90.837728 89.804481 
L 90.619467 89.672534 
L 90.399847 89.843289 
L 89.956459 92.155137 
L 89.732655 92.506627 
L 89.507422 91.68168 
L 89.052591 91.113974 
L 88.822955 91.760404 
L 88.359147 94.562342 
L 88.124934 94.600041 
L 87.889155 94.791864 
L 87.651787 94.267401 
L 87.412811 94.861718 
L 87.172203 94.826236 
L 86.929941 95.047996 
L 86.440365 93.304963 
L 86.193003 93.475718 
L 85.943893 94.377172 
L 85.69301 95.840788 
L 85.440329 95.80198 
L 85.185823 95.00808 
L 84.671231 92.893598 
L 84.41109 92.480016 
L 84.149015 92.807112 
L 83.884977 94.063382 
L 83.618946 94.698724 
L 83.350892 94.483617 
L 83.080784 93.789508 
L 82.534278 95.50704 
L 82.257815 96.04259 
L 81.979166 94.622217 
L 81.415171 93.266155 
L 80.842005 93.726307 
L 80.551889 93.648691 
L 80.259365 93.68639 
L 79.964393 92.886945 
L 79.666932 92.73504 
L 79.064372 93.005587 
L 78.759185 93.211824 
L 78.451332 92.712864 
L 78.140767 93.0577 
L 77.160249 94.765252 
L 76.999515 93.980222 
L 76.838045 95.407248 
L 76.643299 92.978976 
L 76.545521 92.812656 
L 76.512868 92.865878 
L 76.381952 92.972323 
L 76.217622 95.866291 
L 76.184663 95.568024 
L 76.019408 94.958184 
L 75.886643 94.931572 
L 75.686554 93.505656 
L 75.384275 93.208497 
L 75.181306 96.49498 
L 75.04534 96.39408 
L 74.874643 95.63566 
L 74.703115 94.513555 
L 74.530748 94.559016 
L 74.32279 94.716465 
L 74.148548 94.900526 
L 74.043589 94.984795 
L 73.832727 94.788537 
L 73.832727 94.788537 
" clip-path="url(#pb3d229fc08)" style="fill: none; stroke: #ff0000; stroke-width: 1.5; stroke-linecap: square"/>
   </g>
   <g id="patch_3">
    <path d="M 57.6 307.584 
L 57.6 41.472 
" style="fill: none; stroke: #000000; stroke-width: 0.8; stroke-linejoin: miter; stroke-linecap: square"/>
   </g>
   <g id="patch_4">
    <path d="M 414.72 307.584 
L 414.72 41.472 
" style="fill: none; stroke: #000000; stroke-width: 0.8; stroke-linejoin: miter; stroke-linecap: square"/>
   </g>
   <g id="patch_5">
    <path d="M 57.6 307.584 
L 414.72 307.584 
" style="fill: none; stroke: #000000; stroke-width: 0.8; stroke-linejoin: miter; stroke-linecap: square"/>
   </g>
   <g id="patch_6">
    <path d="M 57.6 41.472 
L 414.72 41.472 
" style="fill: none; stroke: #000000; stroke-width: 0.8; stroke-linejoin: miter; stroke-linecap: square"/>
   </g>
   <g id="text_17">
    <!-- STuW81300_10kHz_loop_HEMT_AMP -->
    <g transform="translate(127.138125 35.472)scale(0.12 -0.12)">
     <defs>
      <path id="DejaVuSans-53" d="M 3425 4513 
L 3425 3897 
Q 3066 4069 2747 4153 
Q 2428 4238 2131 4238 
Q 1616 4238 1336 4038 
Q 1056 3838 1056 3469 
Q 1056 3159 1242 3001 
Q 1428 2844 1947 2747 
L 2328 2669 
Q 3034 2534 3370 2195 
Q 3706 1856 3706 1288 
Q 3706 609 3251 259 
Q 2797 -91 1919 -91 
Q 1588 -91 1214 -16 
Q 841 59 441 206 
L 441 856 
Q 825 641 1194 531 
Q 1563 422 1919 422 
Q 2459 422 2753 634 
Q 3047 847 3047 1241 
Q 3047 1584 2836 1778 
Q 2625 1972 2144 2069 
L 1759 2144 
Q 1053 2284 737 2584 
Q 422 2884 422 3419 
Q 422 4038 858 4394 
Q 1294 4750 2059 4750 
Q 2388 4750 2728 4690 
Q 3069 4631 3425 4513 
z
" transform="scale(0.015625)"/>
      <path id="DejaVuSans-54" d="M -19 4666 
L 3928 4666 
L 3928 4134 
L 2272 4134 
L 2272 0 
L 1638 0 
L 1638 4134 
L -19 4134 
L -19 4666 
z
" transform="scale(0.015625)"/>
      <path id="DejaVuSans-57" d="M 213 4666 
L 850 4666 
L 1831 722 
L 2809 4666 
L 3519 4666 
L 4500 722 
L 5478 4666 
L 6119 4666 
L 4947 0 
L 4153 0 
L 3169 4050 
L 2175 0 
L 1381 0 
L 213 4666 
z
" transform="scale(0.015625)"/>
      <path id="DejaVuSans-5f" d="M 3263 -1063 
L 3263 -1509 
L -63 -1509 
L -63 -1063 
L 3263 -1063 
z
" transform="scale(0.015625)"/>
      <path id="DejaVuSans-6b" d="M 581 4863 
L 1159 4863 
L 1159 1991 
L 2875 3500 
L 3609 3500 
L 1753 1863 
L 3688 0 
L 2938 0 
L 1159 1709 
L 1159 0 
L 581 0 
L 581 4863 
z
" transform="scale(0.015625)"/>
      <path id="DejaVuSans-6c" d="M 603 4863 
L 1178 4863 
L 1178 0 
L 603 0 
L 603 4863 
z
" transform="scale(0.015625)"/>
      <path id="DejaVuSans-70" d="M 1159 525 
L 1159 -1331 
L 581 -1331 
L 581 3500 
L 1159 3500 
L 1159 2969 
Q 1341 3281 1617 3432 
Q 1894 3584 2278 3584 
Q 2916 3584 3314 3078 
Q 3713 2572 3713 1747 
Q 3713 922 3314 415 
Q 2916 -91 2278 -91 
Q 1894 -91 1617 61 
Q 1341 213 1159 525 
z
M 3116 1747 
Q 3116 2381 2855 2742 
Q 2594 3103 2138 3103 
Q 1681 3103 1420 2742 
Q 1159 2381 1159 1747 
Q 1159 1113 1420 752 
Q 1681 391 2138 391 
Q 2594 391 2855 752 
Q 3116 1113 3116 1747 
z
" transform="scale(0.015625)"/>
      <path id="DejaVuSans-45" d="M 628 4666 
L 3578 4666 
L 3578 4134 
L 1259 4134 
L 1259 2753 
L 3481 2753 
L 3481 2222 
L 1259 2222 
L 1259 531 
L 3634 531 
L 3634 0 
L 628 0 
L 628 4666 
z
" transform="scale(0.015625)"/>
      <path id="DejaVuSans-4d" d="M 628 4666 
L 1569 4666 
L 2759 1491 
L 3956 4666 
L 4897 4666 
L 4897 0 
L 4281 0 
L 4281 4097 
L 3078 897 
L 2444 897 
L 1241 4097 
L 1241 0 
L 628 0 
L 628 4666 
z
" transform="scale(0.015625)"/>
      <path id="DejaVuSans-41" d="M 2188 4044 
L 1331 1722 
L 3047 1722 
L 2188 4044 
z
M 1831 4666 
L 2547 4666 
L 4325 0 
L 3669 0 
L 3244 1197 
L 1141 1197 
L 716 0 
L 50 0 
L 1831 4666 
z
" transform="scale(0.015625)"/>
     </defs>
     <use xlink:href="#DejaVuSans-53"/>
     <use xlink:href="#DejaVuSans-54" x="63.476562"/>
     <use xlink:href="#DejaVuSans-75" x="109.435547"/>
     <use xlink:href="#DejaVuSans-57" x="172.814453"/>
     <use xlink:href="#DejaVuSans-38" x="271.691406"/>
     <use xlink:href="#DejaVuSans-31" x="335.314453"/>
     <use xlink:href="#DejaVuSans-33" x="398.9375"/>
     <use xlink:href="#DejaVuSans-30" x="462.560547"/>
     <use xlink:href="#DejaVuSans-30" x="526.183594"/>
     <use xlink:href="#DejaVuSans-5f" x="589.806641"/>
     <use xlink:href="#DejaVuSans-31" x="639.806641"/>
     <use xlink:href="#DejaVuSans-30" x="703.429688"/>
     <use xlink:href="#DejaVuSans-6b" x="767.052734"/>
     <use xlink:href="#DejaVuSans-48" x="824.962891"/>
     <use xlink:href="#DejaVuSans-7a" x="900.158203"/>
     <use xlink:href="#DejaVuSans-5f" x="952.648438"/>
     <use xlink:href="#DejaVuSans-6c" x="1002.648438"/>
     <use xlink:href="#DejaVuSans-6f" x="1030.431641"/>
     <use xlink:href="#DejaVuSans-6f" x="1091.613281"/>
     <use xlink:href="#DejaVuSans-70" x="1152.794922"/>
     <use xlink:href="#DejaVuSans-5f" x="1216.271484"/>
     <use xlink:href="#DejaVuSans-48" x="1266.271484"/>
     <use xlink:href="#DejaVuSans-45" x="1341.466797"/>
     <use xlink:href="#DejaVuSans-4d" x="1404.650391"/>
     <use xlink:href="#DejaVuSans-54" x="1490.929688"/>
     <use xlink:href="#DejaVuSans-5f" x="1552.013672"/>
     <use xlink:href="#DejaVuSans-41" x="1602.013672"/>
     <use xlink:href="#DejaVuSans-4d" x="1670.421875"/>
     <use xlink:href="#DejaVuSans-50" x="1756.701172"/>
    </g>
   </g>
   <g id="legend_1">
    <g id="patch_7">
     <path d="M 345.662188 64.150125 
L 407.72 64.150125 
Q 409.72 64.150125 409.72 62.150125 
L 409.72 48.472 
Q 409.72 46.472 407.72 46.472 
L 345.662188 46.472 
Q 343.662188 46.472 343.662188 48.472 
L 343.662188 62.150125 
Q 343.662188 64.150125 345.662188 64.150125 
z
" style="fill: #ffffff; opacity: 0.8; stroke: #cccccc; stroke-linejoin: miter"/>
    </g>
    <g id="line2d_51">
     <path d="M 347.662188 54.570438 
L 357.662188 54.570438 
L 367.662188 54.570438 
" style="fill: none; stroke: #ff0000; stroke-width: 1.5; stroke-linecap: square"/>
    </g>
    <g id="text_18">
     <!-- 5 GHz -->
     <g transform="translate(375.662188 58.070438)scale(0.1 -0.1)">
      <defs>
       <path id="DejaVuSans-47" d="M 3809 666 
L 3809 1919 
L 2778 1919 
L 2778 2438 
L 4434 2438 
L 4434 434 
Q 4069 175 3628 42 
Q 3188 -91 2688 -91 
Q 1594 -91 976 548 
Q 359 1188 359 2328 
Q 359 3472 976 4111 
Q 1594 4750 2688 4750 
Q 3144 4750 3555 4637 
Q 3966 4525 4313 4306 
L 4313 3634 
Q 3963 3931 3569 4081 
Q 3175 4231 2741 4231 
Q 1884 4231 1454 3753 
Q 1025 3275 1025 2328 
Q 1025 1384 1454 906 
Q 1884 428 2741 428 
Q 3075 428 3337 486 
Q 3600 544 3809 666 
z
" transform="scale(0.015625)"/>
      </defs>
      <use xlink:href="#DejaVuSans-35"/>
      <use xlink:href="#DejaVuSans-20" x="63.623047"/>
      <use xlink:href="#DejaVuSans-47" x="95.410156"/>
      <use xlink:href="#DejaVuSans-48" x="172.900391"/>
      <use xlink:href="#DejaVuSans-7a" x="248.095703"/>
     </g>
    </g>
   </g>
  </g>
 </g>
 <defs>
  <clipPath id="pb3d229fc08">
   <rect x="57.6" y="41.472" width="357.12" height="266.112"/>
  </clipPath>
 </defs>
</svg>
