<?xml version="1.0" encoding="utf-8" standalone="no"?>
<!DOCTYPE svg PUBLIC "-//W3C//DTD SVG 1.1//EN"
  "http://www.w3.org/Graphics/SVG/1.1/DTD/svg11.dtd">
<svg xmlns:xlink="http://www.w3.org/1999/xlink" width="460.8pt" height="345.6pt" viewBox="0 0 460.8 345.6" xmlns="http://www.w3.org/2000/svg" version="1.1">
 <metadata>
  <rdf:RDF xmlns:dc="http://purl.org/dc/elements/1.1/" xmlns:cc="http://creativecommons.org/ns#" xmlns:rdf="http://www.w3.org/1999/02/22-rdf-syntax-ns#">
   <cc:Work>
    <dc:type rdf:resource="http://purl.org/dc/dcmitype/StillImage"/>
    <dc:date>2022-09-27T14:05:34.513541</dc:date>
    <dc:format>image/svg+xml</dc:format>
    <dc:creator>
     <cc:Agent>
      <dc:title>Matplotlib v3.5.1, https://matplotlib.org/</dc:title>
     </cc:Agent>
    </dc:creator>
   </cc:Work>
  </rdf:RDF>
 </metadata>
 <defs>
  <style type="text/css">*{stroke-linejoin: round; stroke-linecap: butt}</style>
 </defs>
 <g id="figure_1">
  <g id="patch_1">
   <path d="M 0 345.6 
L 460.8 345.6 
L 460.8 0 
L 0 0 
z
" style="fill: #ffffff"/>
  </g>
  <g id="axes_1">
   <g id="patch_2">
    <path d="M 57.6 307.584 
L 414.72 307.584 
L 414.72 41.472 
L 57.6 41.472 
z
" style="fill: #ffffff"/>
   </g>
   <g id="matplotlib.axis_1">
    <g id="xtick_1">
     <g id="line2d_1">
      <defs>
       <path id="m3e9a7625d8" d="M 0 0 
L 0 3.5 
" style="stroke: #000000; stroke-width: 0.8"/>
      </defs>
      <g>
       <use xlink:href="#m3e9a7625d8" x="73.832727" y="307.584" style="stroke: #000000; stroke-width: 0.8"/>
      </g>
     </g>
     <g id="text_1">
      <!-- $\mathdefault{10^{3}}$ -->
      <g transform="translate(65.032727 322.182437)scale(0.1 -0.1)">
       <defs>
        <path id="DejaVuSans-31" d="M 794 531 
L 1825 531 
L 1825 4091 
L 703 3866 
L 703 4441 
L 1819 4666 
L 2450 4666 
L 2450 531 
L 3481 531 
L 3481 0 
L 794 0 
L 794 531 
z
" transform="scale(0.015625)"/>
        <path id="DejaVuSans-30" d="M 2034 4250 
Q 1547 4250 1301 3770 
Q 1056 3291 1056 2328 
Q 1056 1369 1301 889 
Q 1547 409 2034 409 
Q 2525 409 2770 889 
Q 3016 1369 3016 2328 
Q 3016 3291 2770 3770 
Q 2525 4250 2034 4250 
z
M 2034 4750 
Q 2819 4750 3233 4129 
Q 3647 3509 3647 2328 
Q 3647 1150 3233 529 
Q 2819 -91 2034 -91 
Q 1250 -91 836 529 
Q 422 1150 422 2328 
Q 422 3509 836 4129 
Q 1250 4750 2034 4750 
z
" transform="scale(0.015625)"/>
        <path id="DejaVuSans-33" d="M 2597 2516 
Q 3050 2419 3304 2112 
Q 3559 1806 3559 1356 
Q 3559 666 3084 287 
Q 2609 -91 1734 -91 
Q 1441 -91 1130 -33 
Q 819 25 488 141 
L 488 750 
Q 750 597 1062 519 
Q 1375 441 1716 441 
Q 2309 441 2620 675 
Q 2931 909 2931 1356 
Q 2931 1769 2642 2001 
Q 2353 2234 1838 2234 
L 1294 2234 
L 1294 2753 
L 1863 2753 
Q 2328 2753 2575 2939 
Q 2822 3125 2822 3475 
Q 2822 3834 2567 4026 
Q 2313 4219 1838 4219 
Q 1578 4219 1281 4162 
Q 984 4106 628 3988 
L 628 4550 
Q 988 4650 1302 4700 
Q 1616 4750 1894 4750 
Q 2613 4750 3031 4423 
Q 3450 4097 3450 3541 
Q 3450 3153 3228 2886 
Q 3006 2619 2597 2516 
z
" transform="scale(0.015625)"/>
       </defs>
       <use xlink:href="#DejaVuSans-31" transform="translate(0 0.765625)"/>
       <use xlink:href="#DejaVuSans-30" transform="translate(63.623047 0.765625)"/>
       <use xlink:href="#DejaVuSans-33" transform="translate(128.203125 39.046875)scale(0.7)"/>
      </g>
     </g>
    </g>
    <g id="xtick_2">
     <g id="line2d_2">
      <g>
       <use xlink:href="#m3e9a7625d8" x="154.996364" y="307.584" style="stroke: #000000; stroke-width: 0.8"/>
      </g>
     </g>
     <g id="text_2">
      <!-- $\mathdefault{10^{4}}$ -->
      <g transform="translate(146.196364 322.182437)scale(0.1 -0.1)">
       <defs>
        <path id="DejaVuSans-34" d="M 2419 4116 
L 825 1625 
L 2419 1625 
L 2419 4116 
z
M 2253 4666 
L 3047 4666 
L 3047 1625 
L 3713 1625 
L 3713 1100 
L 3047 1100 
L 3047 0 
L 2419 0 
L 2419 1100 
L 313 1100 
L 313 1709 
L 2253 4666 
z
" transform="scale(0.015625)"/>
       </defs>
       <use xlink:href="#DejaVuSans-31" transform="translate(0 0.684375)"/>
       <use xlink:href="#DejaVuSans-30" transform="translate(63.623047 0.684375)"/>
       <use xlink:href="#DejaVuSans-34" transform="translate(128.203125 38.965625)scale(0.7)"/>
      </g>
     </g>
    </g>
    <g id="xtick_3">
     <g id="line2d_3">
      <g>
       <use xlink:href="#m3e9a7625d8" x="236.16" y="307.584" style="stroke: #000000; stroke-width: 0.8"/>
      </g>
     </g>
     <g id="text_3">
      <!-- $\mathdefault{10^{5}}$ -->
      <g transform="translate(227.36 322.182437)scale(0.1 -0.1)">
       <defs>
        <path id="DejaVuSans-35" d="M 691 4666 
L 3169 4666 
L 3169 4134 
L 1269 4134 
L 1269 2991 
Q 1406 3038 1543 3061 
Q 1681 3084 1819 3084 
Q 2600 3084 3056 2656 
Q 3513 2228 3513 1497 
Q 3513 744 3044 326 
Q 2575 -91 1722 -91 
Q 1428 -91 1123 -41 
Q 819 9 494 109 
L 494 744 
Q 775 591 1075 516 
Q 1375 441 1709 441 
Q 2250 441 2565 725 
Q 2881 1009 2881 1497 
Q 2881 1984 2565 2268 
Q 2250 2553 1709 2553 
Q 1456 2553 1204 2497 
Q 953 2441 691 2322 
L 691 4666 
z
" transform="scale(0.015625)"/>
       </defs>
       <use xlink:href="#DejaVuSans-31" transform="translate(0 0.684375)"/>
       <use xlink:href="#DejaVuSans-30" transform="translate(63.623047 0.684375)"/>
       <use xlink:href="#DejaVuSans-35" transform="translate(128.203125 38.965625)scale(0.7)"/>
      </g>
     </g>
    </g>
    <g id="xtick_4">
     <g id="line2d_4">
      <g>
       <use xlink:href="#m3e9a7625d8" x="317.323636" y="307.584" style="stroke: #000000; stroke-width: 0.8"/>
      </g>
     </g>
     <g id="text_4">
      <!-- $\mathdefault{10^{6}}$ -->
      <g transform="translate(308.523636 322.182437)scale(0.1 -0.1)">
       <defs>
        <path id="DejaVuSans-36" d="M 2113 2584 
Q 1688 2584 1439 2293 
Q 1191 2003 1191 1497 
Q 1191 994 1439 701 
Q 1688 409 2113 409 
Q 2538 409 2786 701 
Q 3034 994 3034 1497 
Q 3034 2003 2786 2293 
Q 2538 2584 2113 2584 
z
M 3366 4563 
L 3366 3988 
Q 3128 4100 2886 4159 
Q 2644 4219 2406 4219 
Q 1781 4219 1451 3797 
Q 1122 3375 1075 2522 
Q 1259 2794 1537 2939 
Q 1816 3084 2150 3084 
Q 2853 3084 3261 2657 
Q 3669 2231 3669 1497 
Q 3669 778 3244 343 
Q 2819 -91 2113 -91 
Q 1303 -91 875 529 
Q 447 1150 447 2328 
Q 447 3434 972 4092 
Q 1497 4750 2381 4750 
Q 2619 4750 2861 4703 
Q 3103 4656 3366 4563 
z
" transform="scale(0.015625)"/>
       </defs>
       <use xlink:href="#DejaVuSans-31" transform="translate(0 0.765625)"/>
       <use xlink:href="#DejaVuSans-30" transform="translate(63.623047 0.765625)"/>
       <use xlink:href="#DejaVuSans-36" transform="translate(128.203125 39.046875)scale(0.7)"/>
      </g>
     </g>
    </g>
    <g id="xtick_5">
     <g id="line2d_5">
      <g>
       <use xlink:href="#m3e9a7625d8" x="398.487273" y="307.584" style="stroke: #000000; stroke-width: 0.8"/>
      </g>
     </g>
     <g id="text_5">
      <!-- $\mathdefault{10^{7}}$ -->
      <g transform="translate(389.687273 322.182437)scale(0.1 -0.1)">
       <defs>
        <path id="DejaVuSans-37" d="M 525 4666 
L 3525 4666 
L 3525 4397 
L 1831 0 
L 1172 0 
L 2766 4134 
L 525 4134 
L 525 4666 
z
" transform="scale(0.015625)"/>
       </defs>
       <use xlink:href="#DejaVuSans-31" transform="translate(0 0.684375)"/>
       <use xlink:href="#DejaVuSans-30" transform="translate(63.623047 0.684375)"/>
       <use xlink:href="#DejaVuSans-37" transform="translate(128.203125 38.965625)scale(0.7)"/>
      </g>
     </g>
    </g>
    <g id="xtick_6">
     <g id="line2d_6">
      <defs>
       <path id="m0a8f981a3d" d="M 0 0 
L 0 2 
" style="stroke: #000000; stroke-width: 0.6"/>
      </defs>
      <g>
       <use xlink:href="#m0a8f981a3d" x="61.260321" y="307.584" style="stroke: #000000; stroke-width: 0.6"/>
      </g>
     </g>
    </g>
    <g id="xtick_7">
     <g id="line2d_7">
      <g>
       <use xlink:href="#m0a8f981a3d" x="65.967158" y="307.584" style="stroke: #000000; stroke-width: 0.6"/>
      </g>
     </g>
    </g>
    <g id="xtick_8">
     <g id="line2d_8">
      <g>
       <use xlink:href="#m0a8f981a3d" x="70.118883" y="307.584" style="stroke: #000000; stroke-width: 0.6"/>
      </g>
     </g>
    </g>
    <g id="xtick_9">
     <g id="line2d_9">
      <g>
       <use xlink:href="#m0a8f981a3d" x="98.265416" y="307.584" style="stroke: #000000; stroke-width: 0.6"/>
      </g>
     </g>
    </g>
    <g id="xtick_10">
     <g id="line2d_10">
      <g>
       <use xlink:href="#m0a8f981a3d" x="112.557623" y="307.584" style="stroke: #000000; stroke-width: 0.6"/>
      </g>
     </g>
    </g>
    <g id="xtick_11">
     <g id="line2d_11">
      <g>
       <use xlink:href="#m0a8f981a3d" x="122.698105" y="307.584" style="stroke: #000000; stroke-width: 0.6"/>
      </g>
     </g>
    </g>
    <g id="xtick_12">
     <g id="line2d_12">
      <g>
       <use xlink:href="#m0a8f981a3d" x="130.563675" y="307.584" style="stroke: #000000; stroke-width: 0.6"/>
      </g>
     </g>
    </g>
    <g id="xtick_13">
     <g id="line2d_13">
      <g>
       <use xlink:href="#m0a8f981a3d" x="136.990312" y="307.584" style="stroke: #000000; stroke-width: 0.6"/>
      </g>
     </g>
    </g>
    <g id="xtick_14">
     <g id="line2d_14">
      <g>
       <use xlink:href="#m0a8f981a3d" x="142.423957" y="307.584" style="stroke: #000000; stroke-width: 0.6"/>
      </g>
     </g>
    </g>
    <g id="xtick_15">
     <g id="line2d_15">
      <g>
       <use xlink:href="#m0a8f981a3d" x="147.130795" y="307.584" style="stroke: #000000; stroke-width: 0.6"/>
      </g>
     </g>
    </g>
    <g id="xtick_16">
     <g id="line2d_16">
      <g>
       <use xlink:href="#m0a8f981a3d" x="151.282519" y="307.584" style="stroke: #000000; stroke-width: 0.6"/>
      </g>
     </g>
    </g>
    <g id="xtick_17">
     <g id="line2d_17">
      <g>
       <use xlink:href="#m0a8f981a3d" x="179.429053" y="307.584" style="stroke: #000000; stroke-width: 0.6"/>
      </g>
     </g>
    </g>
    <g id="xtick_18">
     <g id="line2d_18">
      <g>
       <use xlink:href="#m0a8f981a3d" x="193.72126" y="307.584" style="stroke: #000000; stroke-width: 0.6"/>
      </g>
     </g>
    </g>
    <g id="xtick_19">
     <g id="line2d_19">
      <g>
       <use xlink:href="#m0a8f981a3d" x="203.861742" y="307.584" style="stroke: #000000; stroke-width: 0.6"/>
      </g>
     </g>
    </g>
    <g id="xtick_20">
     <g id="line2d_20">
      <g>
       <use xlink:href="#m0a8f981a3d" x="211.727311" y="307.584" style="stroke: #000000; stroke-width: 0.6"/>
      </g>
     </g>
    </g>
    <g id="xtick_21">
     <g id="line2d_21">
      <g>
       <use xlink:href="#m0a8f981a3d" x="218.153949" y="307.584" style="stroke: #000000; stroke-width: 0.6"/>
      </g>
     </g>
    </g>
    <g id="xtick_22">
     <g id="line2d_22">
      <g>
       <use xlink:href="#m0a8f981a3d" x="223.587594" y="307.584" style="stroke: #000000; stroke-width: 0.6"/>
      </g>
     </g>
    </g>
    <g id="xtick_23">
     <g id="line2d_23">
      <g>
       <use xlink:href="#m0a8f981a3d" x="228.294431" y="307.584" style="stroke: #000000; stroke-width: 0.6"/>
      </g>
     </g>
    </g>
    <g id="xtick_24">
     <g id="line2d_24">
      <g>
       <use xlink:href="#m0a8f981a3d" x="232.446156" y="307.584" style="stroke: #000000; stroke-width: 0.6"/>
      </g>
     </g>
    </g>
    <g id="xtick_25">
     <g id="line2d_25">
      <g>
       <use xlink:href="#m0a8f981a3d" x="260.592689" y="307.584" style="stroke: #000000; stroke-width: 0.6"/>
      </g>
     </g>
    </g>
    <g id="xtick_26">
     <g id="line2d_26">
      <g>
       <use xlink:href="#m0a8f981a3d" x="274.884896" y="307.584" style="stroke: #000000; stroke-width: 0.6"/>
      </g>
     </g>
    </g>
    <g id="xtick_27">
     <g id="line2d_27">
      <g>
       <use xlink:href="#m0a8f981a3d" x="285.025378" y="307.584" style="stroke: #000000; stroke-width: 0.6"/>
      </g>
     </g>
    </g>
    <g id="xtick_28">
     <g id="line2d_28">
      <g>
       <use xlink:href="#m0a8f981a3d" x="292.890947" y="307.584" style="stroke: #000000; stroke-width: 0.6"/>
      </g>
     </g>
    </g>
    <g id="xtick_29">
     <g id="line2d_29">
      <g>
       <use xlink:href="#m0a8f981a3d" x="299.317585" y="307.584" style="stroke: #000000; stroke-width: 0.6"/>
      </g>
     </g>
    </g>
    <g id="xtick_30">
     <g id="line2d_30">
      <g>
       <use xlink:href="#m0a8f981a3d" x="304.75123" y="307.584" style="stroke: #000000; stroke-width: 0.6"/>
      </g>
     </g>
    </g>
    <g id="xtick_31">
     <g id="line2d_31">
      <g>
       <use xlink:href="#m0a8f981a3d" x="309.458067" y="307.584" style="stroke: #000000; stroke-width: 0.6"/>
      </g>
     </g>
    </g>
    <g id="xtick_32">
     <g id="line2d_32">
      <g>
       <use xlink:href="#m0a8f981a3d" x="313.609792" y="307.584" style="stroke: #000000; stroke-width: 0.6"/>
      </g>
     </g>
    </g>
    <g id="xtick_33">
     <g id="line2d_33">
      <g>
       <use xlink:href="#m0a8f981a3d" x="341.756325" y="307.584" style="stroke: #000000; stroke-width: 0.6"/>
      </g>
     </g>
    </g>
    <g id="xtick_34">
     <g id="line2d_34">
      <g>
       <use xlink:href="#m0a8f981a3d" x="356.048532" y="307.584" style="stroke: #000000; stroke-width: 0.6"/>
      </g>
     </g>
    </g>
    <g id="xtick_35">
     <g id="line2d_35">
      <g>
       <use xlink:href="#m0a8f981a3d" x="366.189015" y="307.584" style="stroke: #000000; stroke-width: 0.6"/>
      </g>
     </g>
    </g>
    <g id="xtick_36">
     <g id="line2d_36">
      <g>
       <use xlink:href="#m0a8f981a3d" x="374.054584" y="307.584" style="stroke: #000000; stroke-width: 0.6"/>
      </g>
     </g>
    </g>
    <g id="xtick_37">
     <g id="line2d_37">
      <g>
       <use xlink:href="#m0a8f981a3d" x="380.481221" y="307.584" style="stroke: #000000; stroke-width: 0.6"/>
      </g>
     </g>
    </g>
    <g id="xtick_38">
     <g id="line2d_38">
      <g>
       <use xlink:href="#m0a8f981a3d" x="385.914866" y="307.584" style="stroke: #000000; stroke-width: 0.6"/>
      </g>
     </g>
    </g>
    <g id="xtick_39">
     <g id="line2d_39">
      <g>
       <use xlink:href="#m0a8f981a3d" x="390.621704" y="307.584" style="stroke: #000000; stroke-width: 0.6"/>
      </g>
     </g>
    </g>
    <g id="xtick_40">
     <g id="line2d_40">
      <g>
       <use xlink:href="#m0a8f981a3d" x="394.773428" y="307.584" style="stroke: #000000; stroke-width: 0.6"/>
      </g>
     </g>
    </g>
    <g id="text_6">
     <!-- Frequency [Hz] -->
     <g transform="translate(198.455312 335.860562)scale(0.1 -0.1)">
      <defs>
       <path id="DejaVuSans-46" d="M 628 4666 
L 3309 4666 
L 3309 4134 
L 1259 4134 
L 1259 2759 
L 3109 2759 
L 3109 2228 
L 1259 2228 
L 1259 0 
L 628 0 
L 628 4666 
z
" transform="scale(0.015625)"/>
       <path id="DejaVuSans-72" d="M 2631 2963 
Q 2534 3019 2420 3045 
Q 2306 3072 2169 3072 
Q 1681 3072 1420 2755 
Q 1159 2438 1159 1844 
L 1159 0 
L 581 0 
L 581 3500 
L 1159 3500 
L 1159 2956 
Q 1341 3275 1631 3429 
Q 1922 3584 2338 3584 
Q 2397 3584 2469 3576 
Q 2541 3569 2628 3553 
L 2631 2963 
z
" transform="scale(0.015625)"/>
       <path id="DejaVuSans-65" d="M 3597 1894 
L 3597 1613 
L 953 1613 
Q 991 1019 1311 708 
Q 1631 397 2203 397 
Q 2534 397 2845 478 
Q 3156 559 3463 722 
L 3463 178 
Q 3153 47 2828 -22 
Q 2503 -91 2169 -91 
Q 1331 -91 842 396 
Q 353 884 353 1716 
Q 353 2575 817 3079 
Q 1281 3584 2069 3584 
Q 2775 3584 3186 3129 
Q 3597 2675 3597 1894 
z
M 3022 2063 
Q 3016 2534 2758 2815 
Q 2500 3097 2075 3097 
Q 1594 3097 1305 2825 
Q 1016 2553 972 2059 
L 3022 2063 
z
" transform="scale(0.015625)"/>
       <path id="DejaVuSans-71" d="M 947 1747 
Q 947 1113 1208 752 
Q 1469 391 1925 391 
Q 2381 391 2643 752 
Q 2906 1113 2906 1747 
Q 2906 2381 2643 2742 
Q 2381 3103 1925 3103 
Q 1469 3103 1208 2742 
Q 947 2381 947 1747 
z
M 2906 525 
Q 2725 213 2448 61 
Q 2172 -91 1784 -91 
Q 1150 -91 751 415 
Q 353 922 353 1747 
Q 353 2572 751 3078 
Q 1150 3584 1784 3584 
Q 2172 3584 2448 3432 
Q 2725 3281 2906 2969 
L 2906 3500 
L 3481 3500 
L 3481 -1331 
L 2906 -1331 
L 2906 525 
z
" transform="scale(0.015625)"/>
       <path id="DejaVuSans-75" d="M 544 1381 
L 544 3500 
L 1119 3500 
L 1119 1403 
Q 1119 906 1312 657 
Q 1506 409 1894 409 
Q 2359 409 2629 706 
Q 2900 1003 2900 1516 
L 2900 3500 
L 3475 3500 
L 3475 0 
L 2900 0 
L 2900 538 
Q 2691 219 2414 64 
Q 2138 -91 1772 -91 
Q 1169 -91 856 284 
Q 544 659 544 1381 
z
M 1991 3584 
L 1991 3584 
z
" transform="scale(0.015625)"/>
       <path id="DejaVuSans-6e" d="M 3513 2113 
L 3513 0 
L 2938 0 
L 2938 2094 
Q 2938 2591 2744 2837 
Q 2550 3084 2163 3084 
Q 1697 3084 1428 2787 
Q 1159 2491 1159 1978 
L 1159 0 
L 581 0 
L 581 3500 
L 1159 3500 
L 1159 2956 
Q 1366 3272 1645 3428 
Q 1925 3584 2291 3584 
Q 2894 3584 3203 3211 
Q 3513 2838 3513 2113 
z
" transform="scale(0.015625)"/>
       <path id="DejaVuSans-63" d="M 3122 3366 
L 3122 2828 
Q 2878 2963 2633 3030 
Q 2388 3097 2138 3097 
Q 1578 3097 1268 2742 
Q 959 2388 959 1747 
Q 959 1106 1268 751 
Q 1578 397 2138 397 
Q 2388 397 2633 464 
Q 2878 531 3122 666 
L 3122 134 
Q 2881 22 2623 -34 
Q 2366 -91 2075 -91 
Q 1284 -91 818 406 
Q 353 903 353 1747 
Q 353 2603 823 3093 
Q 1294 3584 2113 3584 
Q 2378 3584 2631 3529 
Q 2884 3475 3122 3366 
z
" transform="scale(0.015625)"/>
       <path id="DejaVuSans-79" d="M 2059 -325 
Q 1816 -950 1584 -1140 
Q 1353 -1331 966 -1331 
L 506 -1331 
L 506 -850 
L 844 -850 
Q 1081 -850 1212 -737 
Q 1344 -625 1503 -206 
L 1606 56 
L 191 3500 
L 800 3500 
L 1894 763 
L 2988 3500 
L 3597 3500 
L 2059 -325 
z
" transform="scale(0.015625)"/>
       <path id="DejaVuSans-20" transform="scale(0.015625)"/>
       <path id="DejaVuSans-5b" d="M 550 4863 
L 1875 4863 
L 1875 4416 
L 1125 4416 
L 1125 -397 
L 1875 -397 
L 1875 -844 
L 550 -844 
L 550 4863 
z
" transform="scale(0.015625)"/>
       <path id="DejaVuSans-48" d="M 628 4666 
L 1259 4666 
L 1259 2753 
L 3553 2753 
L 3553 4666 
L 4184 4666 
L 4184 0 
L 3553 0 
L 3553 2222 
L 1259 2222 
L 1259 0 
L 628 0 
L 628 4666 
z
" transform="scale(0.015625)"/>
       <path id="DejaVuSans-7a" d="M 353 3500 
L 3084 3500 
L 3084 2975 
L 922 459 
L 3084 459 
L 3084 0 
L 275 0 
L 275 525 
L 2438 3041 
L 353 3041 
L 353 3500 
z
" transform="scale(0.015625)"/>
       <path id="DejaVuSans-5d" d="M 1947 4863 
L 1947 -844 
L 622 -844 
L 622 -397 
L 1369 -397 
L 1369 4416 
L 622 4416 
L 622 4863 
L 1947 4863 
z
" transform="scale(0.015625)"/>
      </defs>
      <use xlink:href="#DejaVuSans-46"/>
      <use xlink:href="#DejaVuSans-72" x="50.269531"/>
      <use xlink:href="#DejaVuSans-65" x="89.132812"/>
      <use xlink:href="#DejaVuSans-71" x="150.65625"/>
      <use xlink:href="#DejaVuSans-75" x="214.132812"/>
      <use xlink:href="#DejaVuSans-65" x="277.511719"/>
      <use xlink:href="#DejaVuSans-6e" x="339.035156"/>
      <use xlink:href="#DejaVuSans-63" x="402.414062"/>
      <use xlink:href="#DejaVuSans-79" x="457.394531"/>
      <use xlink:href="#DejaVuSans-20" x="516.574219"/>
      <use xlink:href="#DejaVuSans-5b" x="548.361328"/>
      <use xlink:href="#DejaVuSans-48" x="587.375"/>
      <use xlink:href="#DejaVuSans-7a" x="662.570312"/>
      <use xlink:href="#DejaVuSans-5d" x="715.060547"/>
     </g>
    </g>
   </g>
   <g id="matplotlib.axis_2">
    <g id="ytick_1">
     <g id="line2d_41">
      <defs>
       <path id="m9ac47cabc0" d="M 0 0 
L -3.5 0 
" style="stroke: #000000; stroke-width: 0.8"/>
      </defs>
      <g>
       <use xlink:href="#m9ac47cabc0" x="57.6" y="307.584" style="stroke: #000000; stroke-width: 0.8"/>
      </g>
     </g>
     <g id="text_7">
      <!-- −140 -->
      <g transform="translate(23.132812 311.383219)scale(0.1 -0.1)">
       <defs>
        <path id="DejaVuSans-2212" d="M 678 2272 
L 4684 2272 
L 4684 1741 
L 678 1741 
L 678 2272 
z
" transform="scale(0.015625)"/>
       </defs>
       <use xlink:href="#DejaVuSans-2212"/>
       <use xlink:href="#DejaVuSans-31" x="83.789062"/>
       <use xlink:href="#DejaVuSans-34" x="147.412109"/>
       <use xlink:href="#DejaVuSans-30" x="211.035156"/>
      </g>
     </g>
    </g>
    <g id="ytick_2">
     <g id="line2d_42">
      <g>
       <use xlink:href="#m9ac47cabc0" x="57.6" y="274.32" style="stroke: #000000; stroke-width: 0.8"/>
      </g>
     </g>
     <g id="text_8">
      <!-- −130 -->
      <g transform="translate(23.132812 278.119219)scale(0.1 -0.1)">
       <use xlink:href="#DejaVuSans-2212"/>
       <use xlink:href="#DejaVuSans-31" x="83.789062"/>
       <use xlink:href="#DejaVuSans-33" x="147.412109"/>
       <use xlink:href="#DejaVuSans-30" x="211.035156"/>
      </g>
     </g>
    </g>
    <g id="ytick_3">
     <g id="line2d_43">
      <g>
       <use xlink:href="#m9ac47cabc0" x="57.6" y="241.056" style="stroke: #000000; stroke-width: 0.8"/>
      </g>
     </g>
     <g id="text_9">
      <!-- −120 -->
      <g transform="translate(23.132812 244.855219)scale(0.1 -0.1)">
       <defs>
        <path id="DejaVuSans-32" d="M 1228 531 
L 3431 531 
L 3431 0 
L 469 0 
L 469 531 
Q 828 903 1448 1529 
Q 2069 2156 2228 2338 
Q 2531 2678 2651 2914 
Q 2772 3150 2772 3378 
Q 2772 3750 2511 3984 
Q 2250 4219 1831 4219 
Q 1534 4219 1204 4116 
Q 875 4013 500 3803 
L 500 4441 
Q 881 4594 1212 4672 
Q 1544 4750 1819 4750 
Q 2544 4750 2975 4387 
Q 3406 4025 3406 3419 
Q 3406 3131 3298 2873 
Q 3191 2616 2906 2266 
Q 2828 2175 2409 1742 
Q 1991 1309 1228 531 
z
" transform="scale(0.015625)"/>
       </defs>
       <use xlink:href="#DejaVuSans-2212"/>
       <use xlink:href="#DejaVuSans-31" x="83.789062"/>
       <use xlink:href="#DejaVuSans-32" x="147.412109"/>
       <use xlink:href="#DejaVuSans-30" x="211.035156"/>
      </g>
     </g>
    </g>
    <g id="ytick_4">
     <g id="line2d_44">
      <g>
       <use xlink:href="#m9ac47cabc0" x="57.6" y="207.792" style="stroke: #000000; stroke-width: 0.8"/>
      </g>
     </g>
     <g id="text_10">
      <!-- −110 -->
      <g transform="translate(23.132812 211.591219)scale(0.1 -0.1)">
       <use xlink:href="#DejaVuSans-2212"/>
       <use xlink:href="#DejaVuSans-31" x="83.789062"/>
       <use xlink:href="#DejaVuSans-31" x="147.412109"/>
       <use xlink:href="#DejaVuSans-30" x="211.035156"/>
      </g>
     </g>
    </g>
    <g id="ytick_5">
     <g id="line2d_45">
      <g>
       <use xlink:href="#m9ac47cabc0" x="57.6" y="174.528" style="stroke: #000000; stroke-width: 0.8"/>
      </g>
     </g>
     <g id="text_11">
      <!-- −100 -->
      <g transform="translate(23.132812 178.327219)scale(0.1 -0.1)">
       <use xlink:href="#DejaVuSans-2212"/>
       <use xlink:href="#DejaVuSans-31" x="83.789062"/>
       <use xlink:href="#DejaVuSans-30" x="147.412109"/>
       <use xlink:href="#DejaVuSans-30" x="211.035156"/>
      </g>
     </g>
    </g>
    <g id="ytick_6">
     <g id="line2d_46">
      <g>
       <use xlink:href="#m9ac47cabc0" x="57.6" y="141.264" style="stroke: #000000; stroke-width: 0.8"/>
      </g>
     </g>
     <g id="text_12">
      <!-- −90 -->
      <g transform="translate(29.495313 145.063219)scale(0.1 -0.1)">
       <defs>
        <path id="DejaVuSans-39" d="M 703 97 
L 703 672 
Q 941 559 1184 500 
Q 1428 441 1663 441 
Q 2288 441 2617 861 
Q 2947 1281 2994 2138 
Q 2813 1869 2534 1725 
Q 2256 1581 1919 1581 
Q 1219 1581 811 2004 
Q 403 2428 403 3163 
Q 403 3881 828 4315 
Q 1253 4750 1959 4750 
Q 2769 4750 3195 4129 
Q 3622 3509 3622 2328 
Q 3622 1225 3098 567 
Q 2575 -91 1691 -91 
Q 1453 -91 1209 -44 
Q 966 3 703 97 
z
M 1959 2075 
Q 2384 2075 2632 2365 
Q 2881 2656 2881 3163 
Q 2881 3666 2632 3958 
Q 2384 4250 1959 4250 
Q 1534 4250 1286 3958 
Q 1038 3666 1038 3163 
Q 1038 2656 1286 2365 
Q 1534 2075 1959 2075 
z
" transform="scale(0.015625)"/>
       </defs>
       <use xlink:href="#DejaVuSans-2212"/>
       <use xlink:href="#DejaVuSans-39" x="83.789062"/>
       <use xlink:href="#DejaVuSans-30" x="147.412109"/>
      </g>
     </g>
    </g>
    <g id="ytick_7">
     <g id="line2d_47">
      <g>
       <use xlink:href="#m9ac47cabc0" x="57.6" y="108" style="stroke: #000000; stroke-width: 0.8"/>
      </g>
     </g>
     <g id="text_13">
      <!-- −80 -->
      <g transform="translate(29.495313 111.799219)scale(0.1 -0.1)">
       <defs>
        <path id="DejaVuSans-38" d="M 2034 2216 
Q 1584 2216 1326 1975 
Q 1069 1734 1069 1313 
Q 1069 891 1326 650 
Q 1584 409 2034 409 
Q 2484 409 2743 651 
Q 3003 894 3003 1313 
Q 3003 1734 2745 1975 
Q 2488 2216 2034 2216 
z
M 1403 2484 
Q 997 2584 770 2862 
Q 544 3141 544 3541 
Q 544 4100 942 4425 
Q 1341 4750 2034 4750 
Q 2731 4750 3128 4425 
Q 3525 4100 3525 3541 
Q 3525 3141 3298 2862 
Q 3072 2584 2669 2484 
Q 3125 2378 3379 2068 
Q 3634 1759 3634 1313 
Q 3634 634 3220 271 
Q 2806 -91 2034 -91 
Q 1263 -91 848 271 
Q 434 634 434 1313 
Q 434 1759 690 2068 
Q 947 2378 1403 2484 
z
M 1172 3481 
Q 1172 3119 1398 2916 
Q 1625 2713 2034 2713 
Q 2441 2713 2670 2916 
Q 2900 3119 2900 3481 
Q 2900 3844 2670 4047 
Q 2441 4250 2034 4250 
Q 1625 4250 1398 4047 
Q 1172 3844 1172 3481 
z
" transform="scale(0.015625)"/>
       </defs>
       <use xlink:href="#DejaVuSans-2212"/>
       <use xlink:href="#DejaVuSans-38" x="83.789062"/>
       <use xlink:href="#DejaVuSans-30" x="147.412109"/>
      </g>
     </g>
    </g>
    <g id="ytick_8">
     <g id="line2d_48">
      <g>
       <use xlink:href="#m9ac47cabc0" x="57.6" y="74.736" style="stroke: #000000; stroke-width: 0.8"/>
      </g>
     </g>
     <g id="text_14">
      <!-- −70 -->
      <g transform="translate(29.495313 78.535219)scale(0.1 -0.1)">
       <use xlink:href="#DejaVuSans-2212"/>
       <use xlink:href="#DejaVuSans-37" x="83.789062"/>
       <use xlink:href="#DejaVuSans-30" x="147.412109"/>
      </g>
     </g>
    </g>
    <g id="ytick_9">
     <g id="line2d_49">
      <g>
       <use xlink:href="#m9ac47cabc0" x="57.6" y="41.472" style="stroke: #000000; stroke-width: 0.8"/>
      </g>
     </g>
     <g id="text_15">
      <!-- −60 -->
      <g transform="translate(29.495313 45.271219)scale(0.1 -0.1)">
       <use xlink:href="#DejaVuSans-2212"/>
       <use xlink:href="#DejaVuSans-36" x="83.789062"/>
       <use xlink:href="#DejaVuSans-30" x="147.412109"/>
      </g>
     </g>
    </g>
    <g id="text_16">
     <!-- Phase noise [dBc/Hz] -->
     <g transform="translate(17.053125 227.257688)rotate(-90)scale(0.1 -0.1)">
      <defs>
       <path id="DejaVuSans-50" d="M 1259 4147 
L 1259 2394 
L 2053 2394 
Q 2494 2394 2734 2622 
Q 2975 2850 2975 3272 
Q 2975 3691 2734 3919 
Q 2494 4147 2053 4147 
L 1259 4147 
z
M 628 4666 
L 2053 4666 
Q 2838 4666 3239 4311 
Q 3641 3956 3641 3272 
Q 3641 2581 3239 2228 
Q 2838 1875 2053 1875 
L 1259 1875 
L 1259 0 
L 628 0 
L 628 4666 
z
" transform="scale(0.015625)"/>
       <path id="DejaVuSans-68" d="M 3513 2113 
L 3513 0 
L 2938 0 
L 2938 2094 
Q 2938 2591 2744 2837 
Q 2550 3084 2163 3084 
Q 1697 3084 1428 2787 
Q 1159 2491 1159 1978 
L 1159 0 
L 581 0 
L 581 4863 
L 1159 4863 
L 1159 2956 
Q 1366 3272 1645 3428 
Q 1925 3584 2291 3584 
Q 2894 3584 3203 3211 
Q 3513 2838 3513 2113 
z
" transform="scale(0.015625)"/>
       <path id="DejaVuSans-61" d="M 2194 1759 
Q 1497 1759 1228 1600 
Q 959 1441 959 1056 
Q 959 750 1161 570 
Q 1363 391 1709 391 
Q 2188 391 2477 730 
Q 2766 1069 2766 1631 
L 2766 1759 
L 2194 1759 
z
M 3341 1997 
L 3341 0 
L 2766 0 
L 2766 531 
Q 2569 213 2275 61 
Q 1981 -91 1556 -91 
Q 1019 -91 701 211 
Q 384 513 384 1019 
Q 384 1609 779 1909 
Q 1175 2209 1959 2209 
L 2766 2209 
L 2766 2266 
Q 2766 2663 2505 2880 
Q 2244 3097 1772 3097 
Q 1472 3097 1187 3025 
Q 903 2953 641 2809 
L 641 3341 
Q 956 3463 1253 3523 
Q 1550 3584 1831 3584 
Q 2591 3584 2966 3190 
Q 3341 2797 3341 1997 
z
" transform="scale(0.015625)"/>
       <path id="DejaVuSans-73" d="M 2834 3397 
L 2834 2853 
Q 2591 2978 2328 3040 
Q 2066 3103 1784 3103 
Q 1356 3103 1142 2972 
Q 928 2841 928 2578 
Q 928 2378 1081 2264 
Q 1234 2150 1697 2047 
L 1894 2003 
Q 2506 1872 2764 1633 
Q 3022 1394 3022 966 
Q 3022 478 2636 193 
Q 2250 -91 1575 -91 
Q 1294 -91 989 -36 
Q 684 19 347 128 
L 347 722 
Q 666 556 975 473 
Q 1284 391 1588 391 
Q 1994 391 2212 530 
Q 2431 669 2431 922 
Q 2431 1156 2273 1281 
Q 2116 1406 1581 1522 
L 1381 1569 
Q 847 1681 609 1914 
Q 372 2147 372 2553 
Q 372 3047 722 3315 
Q 1072 3584 1716 3584 
Q 2034 3584 2315 3537 
Q 2597 3491 2834 3397 
z
" transform="scale(0.015625)"/>
       <path id="DejaVuSans-6f" d="M 1959 3097 
Q 1497 3097 1228 2736 
Q 959 2375 959 1747 
Q 959 1119 1226 758 
Q 1494 397 1959 397 
Q 2419 397 2687 759 
Q 2956 1122 2956 1747 
Q 2956 2369 2687 2733 
Q 2419 3097 1959 3097 
z
M 1959 3584 
Q 2709 3584 3137 3096 
Q 3566 2609 3566 1747 
Q 3566 888 3137 398 
Q 2709 -91 1959 -91 
Q 1206 -91 779 398 
Q 353 888 353 1747 
Q 353 2609 779 3096 
Q 1206 3584 1959 3584 
z
" transform="scale(0.015625)"/>
       <path id="DejaVuSans-69" d="M 603 3500 
L 1178 3500 
L 1178 0 
L 603 0 
L 603 3500 
z
M 603 4863 
L 1178 4863 
L 1178 4134 
L 603 4134 
L 603 4863 
z
" transform="scale(0.015625)"/>
       <path id="DejaVuSans-64" d="M 2906 2969 
L 2906 4863 
L 3481 4863 
L 3481 0 
L 2906 0 
L 2906 525 
Q 2725 213 2448 61 
Q 2172 -91 1784 -91 
Q 1150 -91 751 415 
Q 353 922 353 1747 
Q 353 2572 751 3078 
Q 1150 3584 1784 3584 
Q 2172 3584 2448 3432 
Q 2725 3281 2906 2969 
z
M 947 1747 
Q 947 1113 1208 752 
Q 1469 391 1925 391 
Q 2381 391 2643 752 
Q 2906 1113 2906 1747 
Q 2906 2381 2643 2742 
Q 2381 3103 1925 3103 
Q 1469 3103 1208 2742 
Q 947 2381 947 1747 
z
" transform="scale(0.015625)"/>
       <path id="DejaVuSans-42" d="M 1259 2228 
L 1259 519 
L 2272 519 
Q 2781 519 3026 730 
Q 3272 941 3272 1375 
Q 3272 1813 3026 2020 
Q 2781 2228 2272 2228 
L 1259 2228 
z
M 1259 4147 
L 1259 2741 
L 2194 2741 
Q 2656 2741 2882 2914 
Q 3109 3088 3109 3444 
Q 3109 3797 2882 3972 
Q 2656 4147 2194 4147 
L 1259 4147 
z
M 628 4666 
L 2241 4666 
Q 2963 4666 3353 4366 
Q 3744 4066 3744 3513 
Q 3744 3084 3544 2831 
Q 3344 2578 2956 2516 
Q 3422 2416 3680 2098 
Q 3938 1781 3938 1306 
Q 3938 681 3513 340 
Q 3088 0 2303 0 
L 628 0 
L 628 4666 
z
" transform="scale(0.015625)"/>
       <path id="DejaVuSans-2f" d="M 1625 4666 
L 2156 4666 
L 531 -594 
L 0 -594 
L 1625 4666 
z
" transform="scale(0.015625)"/>
      </defs>
      <use xlink:href="#DejaVuSans-50"/>
      <use xlink:href="#DejaVuSans-68" x="60.302734"/>
      <use xlink:href="#DejaVuSans-61" x="123.681641"/>
      <use xlink:href="#DejaVuSans-73" x="184.960938"/>
      <use xlink:href="#DejaVuSans-65" x="237.060547"/>
      <use xlink:href="#DejaVuSans-20" x="298.583984"/>
      <use xlink:href="#DejaVuSans-6e" x="330.371094"/>
      <use xlink:href="#DejaVuSans-6f" x="393.75"/>
      <use xlink:href="#DejaVuSans-69" x="454.931641"/>
      <use xlink:href="#DejaVuSans-73" x="482.714844"/>
      <use xlink:href="#DejaVuSans-65" x="534.814453"/>
      <use xlink:href="#DejaVuSans-20" x="596.337891"/>
      <use xlink:href="#DejaVuSans-5b" x="628.125"/>
      <use xlink:href="#DejaVuSans-64" x="667.138672"/>
      <use xlink:href="#DejaVuSans-42" x="730.615234"/>
      <use xlink:href="#DejaVuSans-63" x="799.21875"/>
      <use xlink:href="#DejaVuSans-2f" x="854.199219"/>
      <use xlink:href="#DejaVuSans-48" x="887.890625"/>
      <use xlink:href="#DejaVuSans-7a" x="963.085938"/>
      <use xlink:href="#DejaVuSans-5d" x="1015.576172"/>
     </g>
    </g>
   </g>
   <g id="line2d_50">
    <path d="M 398.487273 299.47712 
L 398.133009 299.549192 
L 397.775149 300.175664 
L 397.413619 298.930481 
L 397.048342 299.012532 
L 396.67924 300.030411 
L 396.306232 300.208928 
L 395.929234 299.460488 
L 395.548161 298.015721 
L 395.162923 298.397148 
L 394.773428 299.466032 
L 394.379582 298.947113 
L 393.578435 295.102904 
L 393.170929 297.547808 
L 392.758656 298.307336 
L 392.341504 297.722998 
L 391.919356 295.950027 
L 391.492092 295.816971 
L 391.059584 298.019048 
L 390.621704 297.008931 
L 389.729278 296.376915 
L 389.274447 297.968043 
L 388.81367 298.037897 
L 388.346791 297.183012 
L 387.873644 296.72286 
L 386.907859 297.530067 
L 386.414859 297.630968 
L 385.914866 297.307198 
L 385.407679 297.124246 
L 384.893087 297.286131 
L 384.370871 298.327294 
L 383.840802 297.851619 
L 383.30264 298.277398 
L 382.756135 296.524385 
L 382.201022 296.706228 
L 381.637027 295.537553 
L 381.063862 296.668529 
L 379.888789 296.247185 
L 379.286228 296.285993 
L 378.673188 297.127572 
L 378.049297 296.924662 
L 376.767377 294.620576 
L 376.1085 293.710251 
L 375.437071 292.469504 
L 374.752605 291.956129 
L 374.054584 292.793273 
L 373.34246 294.640534 
L 372.615652 295.432217 
L 371.873543 295.576361 
L 371.115472 294.290153 
L 370.340739 294.581768 
L 369.548595 294.037347 
L 368.73824 295.546424 
L 367.908815 296.058689 
L 367.059402 295.889043 
L 365.296589 293.342129 
L 364.380981 292.97179 
L 363.440954 292.344209 
L 362.47517 292.261049 
L 361.482177 291.849684 
L 360.460398 292.324251 
L 359.408113 292.161257 
L 358.323446 291.744348 
L 357.204338 291.152249 
L 356.048532 290.054537 
L 354.853539 291.430558 
L 353.616608 291.60464 
L 352.334688 290.667704 
L 351.004382 289.324947 
L 349.621895 288.350312 
L 348.182963 288.484476 
L 345.115906 287.259252 
L 343.476126 286.100556 
L 341.756325 282.674364 
L 339.948292 280.610888 
L 338.042481 279.528699 
L 336.027709 280.161824 
L 333.890756 278.753648 
L 331.615843 277.084904 
L 329.183919 273.895995 
L 326.571693 271.279227 
L 323.455302 269.200227 
L 323.157841 270.263566 
L 322.555281 271.34132 
L 322.219429 270.775832 
L 322.034879 269.497385 
L 321.973148 269.71471 
L 321.75623 270.661625 
L 321.694008 270.581792 
L 321.349808 269.005078 
L 321.097353 268.436264 
L 320.747248 269.48408 
L 320.683217 269.288931 
L 320.458189 268.247768 
L 320.393631 268.358648 
L 320.134208 269.387614 
L 320.069053 269.114849 
L 319.971094 268.875348 
L 319.905636 268.977358 
L 319.807221 269.064953 
L 319.609563 268.210068 
L 319.27765 269.869942 
L 319.244286 269.540628 
L 318.841437 265.986924 
L 318.536249 265.259552 
L 318.43393 265.996904 
L 318.194024 267.185537 
L 318.021658 267.341878 
L 317.952474 267.287547 
L 317.534498 266.389419 
L 317.429225 265.748532 
L 317.394064 265.88935 
L 317.358868 267.437235 
L 317.28837 266.800784 
L 316.93375 264.816032 
L 316.575526 264.356988 
L 315.847968 268.033769 
L 315.478479 268.348668 
L 314.727675 263.401203 
L 313.96053 262.404392 
L 313.570605 263.821438 
L 313.176317 265.9082 
L 312.77757 266.528019 
L 312.37426 263.950059 
L 311.553526 262.158238 
L 311.13588 263.296976 
L 310.713226 259.493792 
L 309.852404 258.431561 
L 309.413979 260.274387 
L 308.065003 252.471761 
L 307.603623 254.723734 
L 307.136124 254.923318 
L 306.662341 257.420336 
L 306.182103 255.62408 
L 305.695232 252.992897 
L 305.201542 249.459152 
L 304.700838 249.92263 
L 304.19292 251.887424 
L 303.677576 252.951872 
L 303.154585 250.346192 
L 302.623718 248.504475 
L 301.537379 249.234065 
L 300.981391 249.697544 
L 300.416492 248.064281 
L 299.842393 249.315008 
L 299.258788 250.114452 
L 298.665358 250.3473 
L 298.061766 248.674121 
L 297.447657 247.767123 
L 296.82266 247.699486 
L 296.186381 249.418126 
L 295.538405 249.949241 
L 294.878293 249.046678 
L 294.205583 249.678694 
L 293.519785 252.538289 
L 292.820379 252.874256 
L 292.106814 250.876198 
L 291.378504 247.129563 
L 290.634829 245.674817 
L 289.098685 241.332756 
L 288.304757 241.415916 
L 287.492534 242.6234 
L 286.661153 244.06484 
L 285.809688 243.745505 
L 284.042455 242.4471 
L 282.181922 239.48106 
L 281.213484 236.454036 
L 280.217686 235.816476 
L 279.192936 235.870808 
L 278.1375 234.505875 
L 277.049484 232.579889 
L 275.926812 231.668456 
L 274.767203 231.98779 
L 273.568145 233.07774 
L 272.326858 231.539835 
L 269.704912 227.430622 
L 268.31698 224.150792 
L 265.365556 219.850865 
L 263.791682 218.83964 
L 260.416002 217.872766 
L 259.880566 215.616358 
L 259.700264 215.763828 
L 259.33687 214.70936 
L 259.153758 214.527516 
L 258.411648 217.496883 
L 258.223653 218.092308 
L 258.034651 218.168816 
L 257.653577 218.0912 
L 257.461485 218.034651 
L 257.26834 217.856134 
L 257.07413 217.833958 
L 256.878845 218.26639 
L 256.682471 218.391684 
L 256.484998 217.983646 
L 256.286412 217.909356 
L 256.086701 217.576716 
L 255.683852 216.35371 
L 255.480687 216.846017 
L 255.070812 219.500484 
L 254.864072 220.274427 
L 254.656114 220.176852 
L 254.446921 219.924046 
L 254.236479 219.021483 
L 253.811788 218.409425 
L 253.597508 218.80194 
L 253.381918 219.527096 
L 253.165 219.636867 
L 252.94674 219.442827 
L 252.506123 218.325156 
L 252.283732 217.903812 
L 251.608013 213.430913 
L 251.379864 213.272355 
L 251.150228 213.344427 
L 250.919087 212.721281 
L 250.452207 212.303264 
L 250.334514 210.806384 
L 250.287327 210.813036 
L 250.240076 211.025926 
L 250.216427 210.896196 
L 250.050438 210.111166 
L 249.97906 210.622323 
L 249.883664 211.378524 
L 249.859774 211.193355 
L 249.764054 210.516987 
L 249.692093 210.591276 
L 249.426972 211.254339 
L 249.402771 211.024817 
L 249.18421 208.263905 
L 249.135456 208.636462 
L 249.037746 209.309504 
L 248.988789 208.923641 
L 248.792279 207.503268 
L 248.520276 204.995163 
L 248.495444 205.09939 
L 248.346084 206.252542 
L 248.221132 206.396686 
L 248.020283 205.82011 
L 247.969891 205.928772 
L 247.792951 207.837017 
L 247.767601 207.676241 
L 247.666019 207.228286 
L 247.615118 207.295923 
L 247.461973 207.599734 
L 247.282458 209.299524 
L 247.256738 209.181992 
L 247.205243 208.435769 
L 246.946629 205.065017 
L 246.894677 205.031753 
L 246.712243 204.060444 
L 246.659944 204.091491 
L 246.502583 205.017339 
L 246.476288 205.012904 
L 246.423638 205.083867 
L 246.397284 205.159265 
L 246.344516 205.023992 
L 246.291669 204.538337 
L 246.238743 203.781027 
L 246.185737 204.057118 
L 245.839242 206.606249 
L 245.812447 206.677212 
L 245.785631 206.455452 
L 245.678165 205.759126 
L 245.624309 205.845612 
L 245.54337 206.648384 
L 245.489307 206.579638 
L 244.889078 201.512422 
L 244.806431 201.78186 
L 244.751226 201.912699 
L 244.362345 199.216097 
L 244.278452 199.010969 
L 244.250443 199.119632 
L 244.138186 199.81374 
L 243.94087 202.587958 
L 243.57147 199.965646 
L 243.198159 201.571188 
L 243.024518 202.03134 
L 242.791659 198.495377 
L 242.733203 198.703832 
L 242.498405 201.341667 
L 242.468945 201.111036 
L 242.350858 200.396969 
L 242.291666 200.421363 
L 242.232374 200.807225 
L 242.202691 200.620947 
L 242.083707 199.709513 
L 242.053898 199.759409 
L 241.994205 200.075417 
L 241.844528 200.505632 
L 241.724327 200.871536 
L 241.482688 203.043675 
L 241.239381 203.522676 
L 241.117095 203.847555 
L 240.840391 199.151787 
L 240.778605 199.482209 
L 240.654707 200.160795 
L 240.592594 200.065438 
L 240.499219 199.576457 
L 240.374334 198.19711 
L 240.186172 195.638 
L 239.647526 193.223033 
L 239.615583 193.249644 
L 239.551611 193.41042 
L 239.455434 193.749713 
L 239.423316 193.649921 
L 239.035606 192.178544 
L 239.003104 192.252833 
L 238.905416 192.567732 
L 238.872794 192.317144 
L 238.709225 191.311462 
L 238.67642 191.315897 
L 238.643585 191.320332 
L 238.478947 192.102036 
L 238.445927 191.982286 
L 237.913355 190.062953 
L 237.846214 190.21375 
L 237.745263 190.508691 
L 237.711548 190.34348 
L 237.576365 189.776883 
L 237.542488 189.845628 
L 237.270294 190.386723 
L 237.236121 190.263646 
L 237.099099 189.562884 
L 236.892562 187.9773 
L 236.754195 188.037176 
L 236.650062 188.216801 
L 236.615283 188.180211 
L 236.545621 188.003912 
L 236.405883 187.72782 
L 236.335805 187.807654 
L 236.230427 186.307448 
L 236.124733 190.558032 
L 235.769757 190.559141 
L 235.41117 189.856162 
L 235.048897 187.038701 
L 234.682862 186.819159 
L 234.312986 185.646048 
L 233.939188 186.071828 
L 233.561383 185.844524 
L 233.179485 185.337802 
L 232.793404 184.207935 
L 231.609121 178.839125 
L 231.20535 177.695952 
L 230.7969 179.535452 
L 230.383661 180.452429 
L 229.965521 180.576615 
L 228.680488 172.905936 
L 228.241518 172.26505 
L 227.797012 172.336013 
L 227.346829 173.690967 
L 226.890823 172.836082 
L 226.428839 174.524784 
L 225.960721 172.694156 
L 225.486301 171.748349 
L 225.005409 168.57829 
L 224.517866 166.562492 
L 224.023485 165.53796 
L 223.522071 162.956674 
L 223.013421 162.463258 
L 222.497323 164.116479 
L 221.973557 166.596864 
L 221.441891 166.315229 
L 220.902082 163.212807 
L 220.353878 162.224866 
L 219.23121 160.861042 
L 218.656176 157.058967 
L 218.071605 156.793964 
L 217.477176 156.882668 
L 216.872551 158.084607 
L 216.257373 154.805885 
L 215.631268 155.454533 
L 214.99384 154.097362 
L 214.344673 154.896807 
L 213.009332 150.41282 
L 212.322199 150.281981 
L 211.621405 151.201176 
L 211.549916 152.613788 
L 211.334573 146.931188 
L 211.190277 151.111364 
L 211.045388 148.055511 
L 210.972719 149.550173 
L 210.826931 155.690708 
L 210.75381 154.998816 
L 210.385914 148.042205 
L 210.311871 149.108871 
L 210.163318 147.507764 
L 210.088806 148.318296 
L 209.864321 155.88253 
L 209.713866 153.191472 
L 209.562765 148.899308 
L 209.486972 147.929108 
L 209.411015 148.78621 
L 209.258608 145.269096 
L 209.182157 143.232231 
L 209.105539 143.363069 
L 208.951803 146.193836 
L 208.874683 147.119684 
L 208.797393 145.684896 
L 208.719934 147.761679 
L 208.642304 147.539919 
L 208.564503 148.244007 
L 208.408384 144.139229 
L 208.172901 148.588844 
L 207.935834 142.661199 
L 207.856456 142.926202 
L 207.537144 148.746293 
L 207.295747 144.780116 
L 207.214913 145.194807 
L 207.133893 145.567364 
L 206.88971 141.428213 
L 206.807938 141.980396 
L 206.725976 141.372773 
L 206.643823 141.751983 
L 206.561478 141.312898 
L 206.47894 141.566813 
L 206.230161 148.313861 
L 205.979613 140.554479 
L 205.8957 140.051084 
L 205.727272 137.712624 
L 205.473111 142.59578 
L 205.387982 140.770695 
L 205.302647 140.994672 
L 205.131354 144.168058 
L 205.045395 143.577068 
L 204.959225 142.427242 
L 204.786251 144.35101 
L 204.699445 145.595084 
L 204.612424 145.17374 
L 204.437736 147.883647 
L 204.174069 138.505416 
L 204.08574 139.286012 
L 203.908416 139.147412 
L 203.819418 140.066607 
L 203.640745 143.703471 
L 203.551067 144.204648 
L 203.371026 142.453853 
L 203.190059 143.143527 
L 202.916856 136.643741 
L 202.364013 144.029458 
L 202.084306 135.020458 
L 201.990575 138.568618 
L 201.896594 138.486567 
L 201.802362 137.575133 
L 201.613138 133.065644 
L 201.422893 138.872429 
L 201.135586 134.841941 
L 201.039295 138.370143 
L 200.942739 138.272568 
L 200.845919 139.868132 
L 200.553851 134.952821 
L 200.455955 134.393986 
L 200.357786 135.137991 
L 199.962353 130.349084 
L 199.762961 133.949357 
L 199.66284 134.008124 
L 199.562434 134.513736 
L 199.259489 137.785805 
L 199.056069 136.937573 
L 198.748721 133.411589 
L 198.542324 136.140346 
L 198.43867 135.534941 
L 198.230444 132.84721 
L 197.915779 134.222122 
L 197.810264 133.720944 
L 197.598281 132.143122 
L 197.491809 133.270772 
L 197.385015 132.490176 
L 197.170451 127.936335 
L 196.846136 133.901679 
L 196.737365 132.832796 
L 196.628257 130.617413 
L 196.51881 130.993296 
L 196.409022 132.07105 
L 196.298891 135.043743 
L 196.188415 135.029328 
L 195.966419 136.826693 
L 195.854894 137.272431 
L 195.291916 126.295311 
L 195.064183 130.586367 
L 194.604255 133.29073 
L 194.488329 132.908194 
L 194.37202 132.076594 
L 194.138246 129.658301 
L 193.90291 130.38013 
L 193.665993 127.002725 
L 193.549296 122.275911 
L 193.497307 122.783741 
L 193.30166 128.844442 
L 193.2624 124.391501 
L 193.170623 126.589143 
L 193.144357 125.887272 
L 193.091766 127.27549 
L 192.999543 132.068832 
L 192.946736 131.988999 
L 192.933522 132.02448 
L 192.867376 124.951445 
L 192.854132 122.944517 
L 192.774563 127.622544 
L 192.761284 127.639176 
L 192.681506 124.911528 
L 192.628219 126.500439 
L 192.561498 125.321784 
L 192.548138 125.821853 
L 192.467875 127.328712 
L 192.49465 125.031279 
L 192.44108 125.665512 
L 192.360572 129.749223 
L 192.306798 127.923029 
L 192.252942 124.37376 
L 192.185506 125.532456 
L 192.172003 126.260938 
L 192.131464 124.55006 
L 192.104412 124.636546 
L 192.090878 123.880344 
L 192.050245 125.455949 
L 192.009565 125.035714 
L 191.98242 126.744375 
L 191.900856 125.023517 
L 191.846376 127.761144 
L 191.750832 127.132455 
L 191.737161 127.281034 
L 191.723486 126.920674 
L 191.627607 121.449855 
L 191.600166 123.279375 
L 191.558963 132.028916 
L 191.476413 127.628088 
L 191.379859 122.542023 
L 191.352224 124.289492 
L 191.185955 134.594679 
L 191.158167 132.236261 
L 191.046796 127.888656 
L 191.018898 129.76142 
L 191.004941 130.449984 
L 190.963036 128.103764 
L 190.851046 125.645554 
L 190.822993 125.652207 
L 190.752762 130.430026 
L 190.710556 127.241117 
L 190.6401 124.714162 
L 190.611879 125.928298 
L 190.512924 132.317204 
L 190.4846 129.518592 
L 190.442072 125.485887 
L 190.385288 130.9811 
L 190.099985 122.15616 
L 190.328412 131.198424 
L 190.085659 123.828231 
L 189.927689 130.61076 
L 189.913293 130.147282 
L 189.841224 130.886852 
L 189.812355 132.840557 
L 189.769007 129.430997 
L 189.740079 130.880199 
L 189.653152 122.353527 
L 189.638643 120.822274 
L 189.56601 124.016727 
L 189.478652 126.438346 
L 189.464071 125.740911 
L 189.347208 120.568359 
L 189.317931 120.738005 
L 189.303284 120.736896 
L 189.097579 127.016031 
L 189.08284 125.333981 
L 188.994274 116.010082 
L 188.9203 118.639047 
L 188.890666 119.949648 
L 188.831325 118.170024 
L 188.801616 117.602319 
L 188.771883 118.158936 
L 188.69744 127.604804 
L 188.592954 126.346316 
L 188.578002 126.358512 
L 188.533109 120.970853 
L 188.458159 122.977781 
L 188.383049 127.529405 
L 188.35296 125.001341 
L 188.277626 119.334264 
L 188.217243 120.543965 
L 188.20213 120.223522 
L 188.141617 121.065101 
L 188.096164 121.554082 
L 188.065829 124.025597 
L 188.035469 127.505012 
L 187.944229 125.637792 
L 187.928999 125.655533 
L 187.89852 126.90626 
L 187.868015 125.801895 
L 187.730413 121.670506 
L 187.684426 124.185264 
L 187.63838 121.386653 
L 187.592272 119.312088 
L 187.546105 120.942024 
L 187.422695 128.675904 
L 187.345344 125.646663 
L 187.329853 125.112221 
L 187.28334 126.457196 
L 187.252298 125.995935 
L 187.205682 128.0705 
L 187.143433 126.937306 
L 186.956021 122.477712 
L 186.940358 122.453319 
L 186.846236 117.715416 
L 186.767608 119.316524 
L 186.657233 122.49878 
L 186.641437 121.557408 
L 186.625634 120.616037 
L 186.578182 121.882287 
L 186.530666 121.316799 
L 186.498953 120.602732 
L 186.339959 117.452631 
L 186.435441 121.086168 
L 186.32402 117.98929 
L 186.29212 118.695596 
L 186.228235 117.787488 
L 186.196248 117.246394 
L 186.180244 118.40509 
L 186.164233 119.563786 
L 186.116155 117.16656 
L 186.084067 117.87841 
L 186.068012 117.306269 
L 186.019803 119.491714 
L 185.987627 118.161154 
L 185.874779 120.83558 
L 185.858628 119.50502 
L 185.712938 116.583332 
L 185.696712 116.118744 
L 185.68048 117.55464 
L 185.517742 122.34133 
L 185.501427 122.686167 
L 185.468774 122.169466 
L 185.436091 122.232668 
L 184.958746 112.122629 
L 185.370633 123.057615 
L 184.94217 112.766842 
L 184.859173 114.202738 
L 184.825919 113.289087 
L 184.80928 113.011887 
L 184.775979 113.475365 
L 184.759317 113.466495 
L 184.424408 121.737034 
L 184.407579 121.605087 
L 184.306434 119.705712 
L 184.272655 120.80786 
L 184.154171 121.966556 
L 184.221925 120.240154 
L 184.137212 121.355607 
L 184.086286 119.377508 
L 184.052295 120.815621 
L 183.950124 122.089632 
L 184.001247 119.907514 
L 183.933067 121.37113 
L 183.916001 121.312364 
L 183.881845 122.631836 
L 183.847656 120.420888 
L 183.762038 112.77793 
L 183.710568 114.478829 
L 183.6074 118.751036 
L 183.503929 120.721373 
L 183.538453 118.297536 
L 183.486655 120.496287 
L 183.400154 117.880628 
L 183.365495 118.979448 
L 183.278696 119.894208 
L 183.261311 119.732324 
L 183.226514 118.6457 
L 183.156818 119.461776 
L 183.104455 121.167111 
L 183.052014 120.076052 
L 182.964439 118.810911 
L 182.806254 115.338149 
L 182.735721 119.741194 
L 182.718065 120.415344 
L 182.682728 118.087973 
L 182.52327 114.787076 
L 182.487737 115.184026 
L 182.43437 115.365869 
L 182.416563 115.487837 
L 182.398747 115.036556 
L 182.202175 110.789852 
L 182.166316 112.354368 
L 182.130421 109.815216 
L 182.09449 110.677863 
L 182.058521 110.501564 
L 182.040523 111.264418 
L 181.896208 113.437666 
L 181.823828 112.403156 
L 181.80571 113.548546 
L 181.769446 115.905855 
L 181.696805 114.301421 
L 181.569323 111.72457 
L 181.404736 115.809389 
L 181.368056 115.572106 
L 181.331339 115.821586 
L 181.276191 118.287557 
L 181.220956 116.64986 
L 181.202525 116.662056 
L 181.165635 117.270788 
L 181.128705 116.801765 
L 180.9806 113.900036 
L 180.869112 115.423527 
L 180.9249 112.93538 
L 180.850496 114.677304 
L 180.79459 113.096156 
L 180.75727 113.561852 
L 180.701215 119.335373 
L 180.607592 119.325394 
L 180.570074 119.766696 
L 180.532515 119.241125 
L 180.494916 118.819781 
L 180.476102 119.368637 
L 180.457277 119.917493 
L 180.438442 119.088111 
L 180.400743 117.274114 
L 180.344118 118.735512 
L 180.287402 122.695037 
L 180.249541 118.780973 
L 180.154709 114.43226 
L 180.211639 119.547154 
L 180.135712 116.907101 
L 180.116705 119.381943 
L 180.059622 112.610501 
L 180.040573 113.57294 
L 179.983367 111.417432 
L 179.964277 111.609255 
L 179.945177 110.787634 
L 179.868674 108.64765 
L 179.83036 109.943837 
L 179.676686 113.239191 
L 179.522339 117.386103 
L 179.483646 116.221863 
L 179.444911 113.494437 
L 177.62102 111.20543 
L 177.435009 112.217764 
L 177.248012 111.198777 
L 177.060017 112.455048 
L 176.871014 111.833011 
L 176.680993 111.688867 
L 176.104703 108.058656 
L 175.518835 111.229824 
L 175.321362 110.799609 
L 175.122776 109.178544 
L 174.722215 113.495102 
L 174.520215 113.078193 
L 174.317051 113.447424 
L 174.112709 110.075563 
L 173.907175 113.797804 
L 173.700436 110.201966 
L 173.492477 110.754148 
L 173.283284 108.207235 
L 173.072842 108.360249 
L 172.861136 108.077505 
L 172.648151 105.918672 
L 172.433872 105.928651 
L 172.218281 105.039393 
L 172.001364 107.83246 
L 171.783104 106.87224 
L 171.563484 106.43759 
L 171.342487 104.042582 
L 170.444376 111.729892 
L 170.216227 111.275284 
L 169.986592 111.235368 
L 169.75545 109.650892 
L 169.522784 109.932528 
L 169.052791 112.103558 
L 168.815424 112.62802 
L 168.335839 107.975496 
L 167.849639 105.124771 
L 167.604001 104.112436 
L 167.107529 101.393659 
L 166.856646 101.731843 
L 166.603965 102.358315 
L 166.349459 102.581184 
L 166.093102 101.917012 
L 165.834867 101.849376 
L 165.574726 102.329486 
L 165.312651 104.457273 
L 165.048613 104.618049 
L 164.782582 105.175776 
L 164.514528 102.957067 
L 164.24442 102.407102 
L 163.972227 102.429278 
L 163.697915 102.644385 
L 163.421451 100.822627 
L 163.142802 100.818192 
L 162.861933 102.475848 
L 162.578807 102.700934 
L 162.005642 98.836766 
L 161.423001 100.262683 
L 161.12803 100.004332 
L 160.830569 99.503155 
L 160.530576 99.403363 
L 159.614968 97.201286 
L 159.304403 97.011681 
L 158.991077 97.8078 
L 158.674941 99.121728 
L 158.355944 101.312716 
L 158.034034 101.696361 
L 157.709157 101.341545 
L 157.381258 98.501908 
L 156.716164 98.468644 
L 156.378851 98.647161 
L 156.038279 99.243696 
L 155.694385 98.616115 
L 154.6421 92.210577 
L 154.28424 92.416814 
L 153.922709 93.893736 
L 153.557432 96.09803 
L 153.18833 96.276547 
L 152.815323 94.948204 
L 152.438325 92.789371 
L 152.057252 92.079739 
L 151.672014 91.836912 
L 151.282519 93.859363 
L 150.888673 93.601012 
L 150.490375 94.233028 
L 150.087526 93.719654 
L 149.68002 94.754164 
L 149.267747 94.689854 
L 148.850595 93.589924 
L 148.428447 94.047859 
L 148.001182 91.009747 
L 147.130795 89.499561 
L 146.687406 90.48972 
L 146.238369 90.402124 
L 145.783538 89.991868 
L 145.322761 91.109539 
L 144.382734 89.950843 
L 143.90315 87.126729 
L 142.92395 84.940176 
L 141.91677 87.133382 
L 141.402178 86.81183 
L 140.879962 85.740729 
L 140.349893 85.898179 
L 139.811731 87.896236 
L 139.265226 87.982723 
L 138.710113 87.678912 
L 137.572952 85.497902 
L 136.990312 85.329364 
L 136.39788 84.886953 
L 135.795319 85.793952 
L 135.182279 86.306217 
L 134.558388 86.588961 
L 133.923255 84.413496 
L 133.276468 83.076283 
L 132.617591 80.570395 
L 131.946162 81.983006 
L 131.261696 80.615856 
L 130.563675 80.144616 
L 129.851551 79.974969 
L 129.124743 81.066028 
L 128.382633 82.409894 
L 126.057686 78.894998 
L 125.247331 80.263257 
L 124.417906 81.169147 
L 123.568493 82.881134 
L 121.80568 83.747107 
L 120.890072 86.773022 
L 119.950045 86.958192 
L 118.984261 88.791038 
L 117.991268 87.830817 
L 116.969489 87.821947 
L 114.832536 84.465609 
L 113.713429 85.071014 
L 112.557623 87.123403 
L 111.36263 88.028184 
L 110.125699 87.852993 
L 108.843779 85.190764 
L 107.513473 84.637473 
L 106.130985 85.695268 
L 104.692054 87.544747 
L 103.191874 88.381891 
L 101.624997 87.418344 
L 99.985217 87.359577 
L 98.265416 87.123403 
L 98.08873 87.268656 
L 97.732677 85.960272 
L 97.191762 85.469073 
L 96.826485 85.637611 
L 96.457383 87.637886 
L 96.271373 87.370665 
L 95.896381 84.835948 
L 95.517356 86.727561 
L 95.326305 86.159856 
L 94.941067 83.132832 
L 94.355199 85.50899 
L 94.157725 85.090972 
L 93.558579 92.137396 
L 93.153415 90.154862 
L 92.949072 91.197134 
L 92.5368 95.264212 
L 92.119648 92.66962 
L 91.909206 93.112032 
L 91.484515 96.591446 
L 90.837728 90.59062 
L 90.399847 92.84592 
L 89.956459 89.723539 
L 89.732655 89.446339 
L 89.28074 91.79256 
L 88.822955 91.34904 
L 88.359147 94.777449 
L 88.124934 95.268648 
L 87.651787 92.822635 
L 87.172203 96.137947 
L 86.929941 96.506068 
L 86.440365 93.927 
L 85.943893 96.082507 
L 85.69301 96.122424 
L 85.185823 94.04675 
L 84.671231 96.262132 
L 84.41109 95.75652 
L 84.149015 94.143216 
L 83.884977 94.299556 
L 83.350892 97.838846 
L 82.80859 95.798654 
L 82.534278 95.646748 
L 81.979166 97.383129 
L 81.415171 96.037046 
L 81.129753 94.677657 
L 80.551889 93.304963 
L 79.964393 87.647865 
L 79.666932 87.922848 
L 79.064372 94.12991 
L 78.451332 87.989376 
L 78.140767 87.369556 
L 77.511305 92.270452 
L 76.935016 92.270452 
L 76.740806 91.625131 
L 76.151674 91.625131 
L 75.953088 99.661713 
L 75.316748 99.661713 
L 75.113389 96.188952 
L 74.496174 96.188952 
L 74.28801 99.794769 
L 73.832727 99.794769 
L 73.832727 99.794769 
" clip-path="url(#pba3789767e)" style="fill: none; stroke: #ff0000; stroke-width: 1.5; stroke-linecap: square"/>
   </g>
   <g id="line2d_51">
    <path d="M 398.487273 277.795644 
L 398.133009 277.629324 
L 397.775149 279.225996 
L 397.413619 279.677278 
L 397.048342 279.569724 
L 396.67924 278.832372 
L 396.306232 279.80479 
L 395.929234 279.43556 
L 395.548161 280.585385 
L 395.162923 280.106384 
L 394.773428 281.381504 
L 394.379582 279.72163 
L 393.981285 279.330224 
L 393.578435 278.102782 
L 392.758656 282.306243 
L 392.341504 283.60243 
L 391.492092 280.721768 
L 391.059584 279.838054 
L 390.621704 280.737291 
L 390.178315 280.920243 
L 389.729278 281.832785 
L 389.274447 280.5998 
L 388.81367 280.221699 
L 388.346791 279.433342 
L 387.873644 278.412137 
L 387.394059 276.830988 
L 386.907859 274.289619 
L 386.414859 274.866195 
L 385.914866 275.984974 
L 385.407679 279.535352 
L 384.893087 280.067576 
L 384.370871 280.982336 
L 383.840802 281.646507 
L 382.756135 282.498065 
L 382.201022 280.281574 
L 381.637027 279.902364 
L 381.063862 277.570558 
L 380.481221 277.15254 
L 379.888789 275.891835 
L 379.286228 276.48726 
L 378.673188 276.78331 
L 378.049297 277.275617 
L 377.414164 278.384417 
L 376.767377 280.066467 
L 376.1085 280.323708 
L 375.437071 279.600771 
L 374.752605 276.325376 
L 374.054584 275.97056 
L 373.34246 275.294192 
L 372.615652 277.144779 
L 371.115472 279.991068 
L 369.548595 280.588712 
L 368.73824 278.436531 
L 367.908815 277.428632 
L 367.059402 276.86647 
L 366.189015 278.2436 
L 365.296589 279.26924 
L 364.380981 279.478803 
L 363.440954 279.814769 
L 362.47517 279.086288 
L 361.482177 277.02392 
L 360.460398 276.581508 
L 359.408113 276.472846 
L 358.323446 276.853164 
L 357.204338 276.686844 
L 354.853539 275.784281 
L 353.616608 276.701259 
L 352.334688 275.892944 
L 351.004382 277.081577 
L 349.621895 275.34187 
L 348.182963 275.549216 
L 346.682783 273.754068 
L 345.115906 272.773889 
L 343.476126 271.438894 
L 341.756325 270.423233 
L 339.948292 270.289068 
L 338.042481 271.432241 
L 336.027709 270.653864 
L 333.890756 270.218105 
L 331.615843 268.312078 
L 329.183919 268.001614 
L 326.571693 266.167659 
L 323.750274 264.942435 
L 323.455302 264.518873 
L 322.857849 265.837236 
L 322.555281 266.023515 
L 322.219429 265.656502 
L 322.096504 265.412566 
L 321.7873 266.567936 
L 321.725133 266.340632 
L 321.600468 266.234187 
L 321.53797 266.382766 
L 321.50668 266.274104 
L 321.286864 265.586648 
L 321.097353 264.903627 
L 321.002214 265.169739 
L 320.874962 265.179718 
L 320.77922 265.164195 
L 320.747248 265.139801 
L 320.715247 265.227396 
L 320.586952 265.502379 
L 320.554806 265.385955 
L 320.328954 264.391361 
L 320.264158 264.593163 
L 320.101645 265.323862 
L 319.807221 267.807574 
L 319.774355 267.610208 
L 319.609563 267.208822 
L 319.54343 267.104595 
L 319.510317 267.252065 
L 319.443997 267.651233 
L 319.377552 267.382904 
L 319.244286 267.09018 
L 319.210891 267.1179 
L 319.076991 267.22878 
L 318.638272 264.175145 
L 318.536249 264.461216 
L 318.46807 264.410211 
L 318.43393 264.4845 
L 318.365552 264.684084 
L 318.159618 263.107371 
L 318.056198 263.453316 
L 318.021658 263.390115 
L 317.744106 262.694897 
L 317.464351 261.582771 
L 317.394064 261.46302 
L 317.28837 263.036408 
L 316.93375 262.807995 
L 316.575526 264.118596 
L 316.213624 264.83599 
L 315.847968 264.667452 
L 315.478479 262.929963 
L 315.105076 259.97612 
L 314.727675 259.42172 
L 314.34619 259.797603 
L 313.570605 261.482979 
L 313.176317 261.308897 
L 312.77757 262.640566 
L 312.37426 262.07286 
L 311.13588 258.821859 
L 310.713226 259.123452 
L 310.285442 256.783884 
L 309.852404 256.294904 
L 309.413979 256.793864 
L 308.970032 255.80814 
L 308.520422 254.259147 
L 308.065003 251.560328 
L 307.136124 254.065107 
L 306.662341 254.157137 
L 304.700838 247.63074 
L 304.19292 246.979875 
L 303.677576 247.63074 
L 303.154585 248.757281 
L 302.623718 250.322907 
L 302.084733 249.436976 
L 301.537379 250.424916 
L 300.981391 247.840304 
L 300.416492 247.627414 
L 299.842393 247.710574 
L 299.258788 251.837528 
L 298.665358 253.281185 
L 298.061766 251.89962 
L 297.447657 248.237254 
L 296.82266 245.415358 
L 295.538405 243.627972 
L 294.878293 245.677035 
L 294.205583 246.083964 
L 293.519785 246.714872 
L 292.820379 244.684659 
L 292.106814 243.692283 
L 291.378504 242.379464 
L 290.634829 242.9006 
L 289.875124 244.928595 
L 289.098685 247.51986 
L 288.304757 245.477451 
L 287.492534 240.605384 
L 286.661153 237.909891 
L 285.809688 237.589448 
L 284.937146 239.660686 
L 284.042455 238.365608 
L 283.124462 238.615088 
L 282.181922 236.460689 
L 281.213484 235.869699 
L 280.217686 233.550089 
L 279.192936 234.8241 
L 278.1375 234.999291 
L 277.049484 234.310726 
L 275.926812 232.68966 
L 274.767203 231.882454 
L 273.568145 232.395828 
L 271.040258 227.532632 
L 269.704912 226.48038 
L 268.31698 226.835196 
L 266.87215 228.07927 
L 265.365556 225.463611 
L 263.791682 224.857097 
L 262.144237 223.389046 
L 260.416002 224.878164 
L 260.238426 224.269433 
L 259.880566 222.253635 
L 259.700264 221.631598 
L 259.519035 221.415382 
L 259.153758 221.337766 
L 258.223653 218.541372 
L 258.034651 218.632294 
L 257.653577 217.421484 
L 257.461485 217.423702 
L 257.07413 220.33652 
L 256.878845 220.926401 
L 256.682471 220.654745 
L 256.286412 219.374081 
L 256.086701 218.882883 
L 255.683852 219.092446 
L 255.276345 220.251142 
L 255.070812 220.309908 
L 254.656114 218.738739 
L 254.446921 218.295219 
L 254.024773 220.658072 
L 253.811788 221.120441 
L 253.597508 220.773387 
L 253.165 219.004851 
L 252.506123 210.713244 
L 252.283732 210.073467 
L 252.059928 210.19987 
L 251.379864 213.11934 
L 251.150228 212.821073 
L 250.68642 213.25794 
L 250.358084 214.334585 
L 250.121672 211.05919 
L 250.097943 211.125718 
L 250.002869 211.73334 
L 249.955235 212.041587 
L 249.931394 211.619134 
L 249.716096 209.311721 
L 249.692093 209.217473 
L 249.644037 209.252955 
L 249.52361 210.314076 
L 249.451156 210.162171 
L 249.402771 209.585595 
L 249.3058 208.838264 
L 249.257214 209.034521 
L 249.18421 209.868339 
L 249.111054 210.919481 
L 249.037746 210.753161 
L 248.939764 210.646716 
L 248.890671 210.554686 
L 248.841509 210.638955 
L 248.767638 210.739856 
L 248.742979 210.653369 
L 248.569887 209.535699 
L 248.470594 209.837292 
L 248.445727 209.914908 
L 248.395941 209.897168 
L 248.095735 208.369241 
L 248.020283 208.368132 
L 247.58964 204.44298 
L 247.461973 204.35982 
L 247.359505 203.592531 
L 247.308159 203.75996 
L 247.231 204.340971 
L 247.153671 204.865433 
L 247.102025 204.84104 
L 247.024412 204.832169 
L 246.998503 204.912003 
L 246.894677 205.171462 
L 246.528859 202.212075 
L 246.265216 203.198907 
L 246.132651 202.250883 
L 246.079485 202.284147 
L 245.999586 202.673336 
L 245.946219 202.509233 
L 245.866016 202.324064 
L 245.839242 202.414985 
L 245.489307 203.534873 
L 245.462244 203.461692 
L 245.326619 203.062524 
L 245.299431 203.079156 
L 245.19047 203.259891 
L 244.944069 204.968552 
L 244.916584 204.457395 
L 244.668254 201.795166 
L 244.529534 202.210966 
L 244.250443 203.636883 
L 244.194359 204.000569 
L 244.110065 203.897451 
L 243.997359 204.487332 
L 243.969126 204.348732 
L 243.685545 202.196552 
L 243.485672 201.525728 
L 243.370948 201.066684 
L 243.342208 201.122124 
L 243.313445 201.194196 
L 243.284659 200.99683 
L 243.082493 199.2039 
L 243.024518 199.230512 
L 242.937376 199.782694 
L 242.908281 199.482209 
L 242.791659 198.312425 
L 242.733203 198.343472 
L 242.645337 198.932244 
L 242.586638 198.734878 
L 242.380417 198.764816 
L 242.291666 199.29704 
L 242.262033 198.844649 
L 242.083707 197.417624 
L 242.024064 197.39323 
L 241.994205 197.47639 
L 241.874514 198.097318 
L 241.784479 198.625107 
L 241.754416 198.429958 
L 241.694212 197.425385 
L 241.482688 194.368424 
L 241.452366 194.389491 
L 241.391645 194.514785 
L 241.361245 194.619012 
L 241.330818 194.53807 
L 241.20885 194.138902 
L 241.178291 194.202104 
L 241.025102 194.817488 
L 240.932867 194.62123 
L 240.871243 194.441604 
L 240.840391 194.499262 
L 240.654707 196.254492 
L 240.623664 196.009448 
L 240.06017 192.314926 
L 239.965373 191.87695 
L 239.775009 191.149577 
L 239.67944 191.180624 
L 239.455434 189.491921 
L 239.391169 189.683744 
L 239.294553 189.815691 
L 238.905416 187.837592 
L 238.807457 187.401833 
L 238.774744 187.553739 
L 238.643585 188.150273 
L 238.610719 188.018326 
L 238.34668 187.416248 
L 238.313536 187.421792 
L 238.180647 187.948472 
L 238.013827 187.123524 
L 237.980368 187.149027 
L 237.913355 187.255472 
L 237.745263 186.15776 
L 237.711548 186.168848 
L 237.508578 186.330732 
L 237.167677 188.113683 
L 237.133405 187.937384 
L 236.995982 187.584785 
L 236.650062 189.041748 
L 236.580469 189.015137 
L 236.405883 188.289982 
L 236.230427 188.459628 
L 236.195231 188.057688 
L 236.16 190.154984 
L 236.124733 189.369399 
L 235.769757 191.243271 
L 235.41117 187.874736 
L 235.048897 187.212783 
L 234.682862 185.024012 
L 234.312986 186.68832 
L 233.939188 186.897884 
L 233.561383 185.609458 
L 233.179485 185.769125 
L 232.793404 185.345564 
L 232.403047 184.698024 
L 232.008319 181.382712 
L 231.609121 179.566498 
L 231.20535 177.117159 
L 230.7969 178.49318 
L 230.383661 177.976479 
L 229.965521 179.064212 
L 229.54236 175.503855 
L 229.114058 176.25673 
L 228.680488 174.715498 
L 228.241518 173.707599 
L 227.797012 173.08778 
L 227.346829 172.04329 
L 225.960721 173.258535 
L 224.517866 166.59132 
L 223.013421 161.856744 
L 222.497323 162.07296 
L 221.973557 162.605184 
L 220.902082 163.221677 
L 220.353878 159.23665 
L 219.797013 158.86742 
L 219.23121 156.8993 
L 218.656176 157.510248 
L 218.071605 157.496943 
L 217.477176 158.462708 
L 216.872551 158.98717 
L 216.257373 161.95321 
L 215.631268 160.159172 
L 214.99384 159.573725 
L 214.344673 152.794522 
L 213.683325 153.691541 
L 213.009332 151.487247 
L 212.322199 152.781216 
L 211.621405 150.3474 
L 211.549916 150.612404 
L 211.478281 149.652183 
L 211.262499 153.236933 
L 211.190277 151.227788 
L 211.117907 152.274495 
L 210.8999 147.021 
L 210.75381 151.847607 
L 210.607112 150.839708 
L 210.533533 149.419335 
L 210.385914 151.65024 
L 210.237673 151.625847 
L 210.088806 149.989258 
L 209.864321 145.421002 
L 209.713866 147.13188 
L 209.562765 147.294874 
L 209.486972 147.081984 
L 209.411015 147.189538 
L 209.334894 147.049829 
L 209.258608 147.349205 
L 209.028755 152.941992 
L 208.797393 145.62613 
L 208.719934 146.17166 
L 208.564503 141.467021 
L 208.48653 140.672012 
L 208.25157 147.848165 
L 208.015033 143.896402 
L 207.935834 144.325508 
L 207.697161 142.857456 
L 207.617243 142.886285 
L 207.456862 142.769861 
L 207.376397 141.442628 
L 207.214913 142.998274 
L 207.133893 142.95614 
L 206.971292 141.63445 
L 206.643823 144.9797 
L 206.561478 145.000767 
L 206.230161 142.001463 
L 206.146843 142.596888 
L 206.063327 142.644567 
L 205.811587 146.361264 
L 205.642755 144.133685 
L 205.558035 144.303332 
L 205.473111 145.680461 
L 205.217105 142.804234 
L 205.131354 141.989266 
L 205.045395 142.33632 
L 204.872844 139.410197 
L 204.786251 138.884626 
L 204.612424 142.610194 
L 204.525188 142.334103 
L 204.262178 137.293498 
L 204.174069 138.024197 
L 203.99719 141.960437 
L 203.908416 141.788573 
L 203.640745 138.176103 
L 203.461161 141.766397 
L 203.371026 141.479218 
L 203.099227 139.736184 
L 203.008159 138.856906 
L 202.825316 136.119279 
L 202.733537 134.888511 
L 202.456758 141.370556 
L 202.177789 139.172914 
L 201.990575 135.797727 
L 201.707877 139.818236 
L 201.135586 134.544783 
L 201.039295 134.952821 
L 200.942739 133.394957 
L 200.845919 134.167791 
L 200.748831 133.451506 
L 200.651476 133.58678 
L 200.553851 134.173335 
L 200.259343 139.984556 
L 200.160624 140.961408 
L 199.962353 139.165152 
L 199.862798 134.500431 
L 199.762961 134.55698 
L 199.66284 134.678948 
L 199.562434 135.012696 
L 199.36076 132.445824 
L 199.259489 133.195373 
L 199.157926 133.075623 
L 199.056069 132.618797 
L 198.851469 135.186778 
L 198.748721 135.141317 
L 198.645674 134.090175 
L 198.542324 135.216716 
L 198.43867 134.938407 
L 198.334711 135.216716 
L 198.125867 134.33522 
L 197.915779 131.287128 
L 197.810264 132.420322 
L 197.704432 131.363636 
L 197.598281 131.972367 
L 197.491809 131.044301 
L 197.385015 131.648597 
L 197.062677 125.477016 
L 196.954573 124.006748 
L 196.628257 130.375695 
L 196.51881 128.988586 
L 196.409022 129.534116 
L 196.298891 129.505287 
L 196.077592 135.062592 
L 195.854894 132.817272 
L 195.630781 129.613949 
L 195.518188 127.077015 
L 195.178234 134.905143 
L 195.064183 134.112351 
L 194.949762 134.086848 
L 194.834969 135.011588 
L 194.488329 128.203556 
L 194.255327 129.995376 
L 194.138246 130.007573 
L 193.784651 129.649431 
L 193.665993 129.698218 
L 193.640094 127.232247 
L 193.562282 130.353519 
L 193.523311 130.265924 
L 193.44524 133.352823 
L 193.327809 121.320125 
L 193.2624 122.206056 
L 193.183749 120.254568 
L 193.157492 121.401068 
L 193.039097 124.810628 
L 192.999543 123.989007 
L 192.959945 124.463573 
L 192.734712 132.747418 
L 192.721418 130.314711 
L 192.641548 126.593578 
L 192.614885 128.715821 
L 192.588202 128.715821 
L 192.50803 125.551306 
L 192.467875 121.98984 
L 192.387429 123.222826 
L 192.293342 129.773616 
L 192.252942 127.080341 
L 192.144982 121.939944 
L 192.11794 122.269258 
L 192.077339 123.456783 
L 192.009565 122.23045 
L 191.995995 122.085197 
L 191.98242 122.83142 
L 191.968839 123.722895 
L 191.928065 119.934125 
L 191.914463 120.344381 
L 191.832742 122.142855 
L 191.873626 120.32664 
L 191.791811 120.989703 
L 191.778156 120.828927 
L 191.750832 121.05734 
L 191.531468 131.10972 
L 191.517712 129.921087 
L 191.407473 123.598709 
L 191.366044 125.544653 
L 191.296888 128.377637 
L 191.269187 126.79538 
L 191.227596 125.24306 
L 191.172064 126.6468 
L 191.102526 135.661344 
L 191.060737 128.370984 
L 190.949057 120.40093 
L 190.879077 122.896839 
L 190.780871 125.258583 
L 190.752762 123.859277 
L 190.738699 123.86593 
L 190.696476 121.903354 
L 190.668299 124.593303 
L 190.597759 125.937168 
L 190.569504 124.576671 
L 190.512924 122.986652 
L 190.4846 124.756296 
L 190.442072 123.390255 
L 190.413691 126.257612 
L 190.371077 121.826847 
L 190.342639 122.553111 
L 190.299939 125.356157 
L 190.228657 123.075356 
L 190.12862 121.643895 
L 190.157231 123.446804 
L 190.099985 122.324698 
L 189.942079 125.13218 
L 189.927689 123.757268 
L 189.884483 120.754637 
L 189.797911 121.632807 
L 189.754546 123.526637 
L 189.682151 122.824767 
L 189.653152 122.671752 
L 189.551465 117.785271 
L 189.507795 119.073696 
L 189.478652 118.293101 
L 189.434892 119.690189 
L 189.391077 126.839732 
L 189.303284 124.574453 
L 189.28863 124.552277 
L 189.229955 124.516796 
L 189.127039 126.168908 
L 188.964703 123.759485 
L 188.801616 132.341597 
L 188.786753 131.260517 
L 188.712341 127.979578 
L 188.682532 131.262735 
L 188.667618 132.986919 
L 188.622839 129.646104 
L 188.592954 130.310276 
L 188.503148 124.19857 
L 188.428134 125.563503 
L 188.337906 127.385261 
L 188.368008 125.14992 
L 188.322846 126.318596 
L 188.171887 118.591368 
L 188.126473 119.573765 
L 188.096164 118.168916 
L 187.959452 116.373768 
L 187.944229 117.008002 
L 187.928999 117.084509 
L 187.89852 115.969056 
L 187.852752 118.148957 
L 187.837483 118.056927 
L 187.791636 124.026706 
L 187.715091 121.524144 
L 187.561501 118.690052 
L 187.314356 127.665788 
L 187.298851 126.685608 
L 187.28334 125.705429 
L 187.252298 128.790111 
L 187.236766 129.791357 
L 187.19013 125.688797 
L 187.143433 123.546596 
L 187.096673 127.537167 
L 187.002967 123.941328 
L 187.049851 127.60813 
L 186.956021 125.300717 
L 186.830524 121.776951 
L 186.783347 119.43073 
L 186.736107 121.215898 
L 186.704579 124.627676 
L 186.657233 119.967389 
L 186.625634 121.459834 
L 186.609823 121.564061 
L 186.467211 120.00398 
L 186.419545 119.132463 
L 186.29212 114.331359 
L 186.260192 116.257344 
L 186.100115 124.714162 
L 186.084067 124.112084 
L 185.874779 117.951591 
L 185.858628 119.327612 
L 185.761568 122.705016 
L 185.729155 121.967664 
L 185.66424 121.167111 
L 185.615475 121.788039 
L 185.599205 121.725946 
L 185.582928 122.075218 
L 185.485104 123.192888 
L 185.468774 123.171821 
L 185.452436 122.46108 
L 185.403377 124.176394 
L 185.370633 123.420192 
L 185.337859 124.07882 
L 185.255789 123.740636 
L 185.222908 122.678405 
L 185.189995 125.097807 
L 185.173528 125.826288 
L 185.091074 125.110004 
L 184.94217 120.078269 
L 184.925586 120.500722 
L 184.892395 121.873416 
L 184.859173 120.29005 
L 184.675888 113.795808 
L 184.558754 112.300037 
L 184.525215 112.943141 
L 184.458043 117.46261 
L 184.390741 114.539813 
L 184.137212 119.471756 
L 184.10327 117.722069 
L 184.035287 115.443485 
L 183.898928 115.532189 
L 183.881845 115.363652 
L 183.779179 122.228232 
L 183.74489 119.570439 
L 183.590176 113.648338 
L 183.572944 113.645012 
L 183.417471 117.261917 
L 183.382829 118.337453 
L 183.348152 116.831703 
L 183.209103 114.984442 
L 183.191683 114.941199 
L 183.086983 117.172104 
L 183.069503 117.090053 
L 183.034516 113.311263 
L 182.946898 115.164068 
L 182.894222 116.035584 
L 182.876646 115.169612 
L 182.841467 112.872178 
L 182.788634 114.879106 
L 182.682728 120.549509 
L 182.647355 118.096844 
L 182.629655 117.727613 
L 182.611947 118.584716 
L 182.541023 119.712365 
L 182.52327 119.111396 
L 182.487737 117.572381 
L 182.43437 119.580418 
L 182.416563 119.206752 
L 182.398747 119.228928 
L 182.380922 119.62477 
L 182.345245 118.59026 
L 182.327393 117.875084 
L 182.309532 119.511672 
L 182.291662 121.148261 
L 182.237997 117.950482 
L 182.202175 120.285615 
L 182.07651 111.480634 
L 182.0045 113.09172 
L 181.96844 116.923733 
L 181.878127 115.787213 
L 181.860037 115.3193 
L 181.823828 117.126644 
L 181.80571 117.31514 
L 181.787583 116.366007 
L 181.696805 112.850002 
L 181.642226 114.403431 
L 181.605793 113.048477 
L 181.569323 114.851386 
L 181.47798 118.033642 
L 181.404736 117.62893 
L 181.349702 114.540922 
L 181.276191 115.271621 
L 181.239377 115.154088 
L 181.184085 110.314176 
L 181.110226 110.8464 
L 180.999148 116.017844 
L 180.962043 113.447645 
L 180.869112 111.887564 
L 180.850496 112.63933 
L 180.738595 119.646946 
L 180.626337 118.442789 
L 180.381878 113.72928 
L 180.363003 113.900036 
L 180.211639 116.76074 
L 180.116705 116.730802 
L 180.059622 118.369608 
L 179.945177 113.91445 
L 179.868674 114.014242 
L 179.657429 120.681456 
L 179.599597 118.994972 
L 179.560989 120.689218 
L 179.483646 120.62269 
L 179.444911 119.424299 
L 177.62102 116.792673 
L 177.248012 111.687758 
L 177.060017 112.982836 
L 176.871014 112.86863 
L 176.680993 113.531692 
L 176.489941 110.739734 
L 176.297848 111.320745 
L 176.104703 112.547078 
L 175.910494 112.88748 
L 175.715208 112.927396 
L 175.518835 111.049089 
L 175.321362 111.5292 
L 175.122776 109.568841 
L 174.722215 108.709521 
L 174.520215 110.144308 
L 174.112709 111.30744 
L 173.907175 109.754011 
L 173.700436 110.227468 
L 173.492477 109.670851 
L 173.283284 110.21638 
L 173.072842 109.324905 
L 172.861136 109.201828 
L 172.218281 106.477507 
L 172.001364 107.087347 
L 171.783104 106.469745 
L 171.563484 109.45907 
L 171.342487 108.880276 
L 171.120095 110.470296 
L 170.896292 107.014166 
L 170.671058 107.839113 
L 170.444376 107.840222 
L 170.216227 108.348052 
L 169.75545 108.438974 
L 169.522784 108.319224 
L 169.052791 106.606128 
L 168.815424 107.782564 
L 168.576447 106.654915 
L 168.335839 106.610563 
L 168.093577 103.855195 
L 167.604001 105.1159 
L 167.356639 105.64258 
L 167.107529 104.861985 
L 166.856646 103.624564 
L 166.603965 106.300099 
L 166.349459 107.141678 
L 166.093102 106.632739 
L 165.574726 101.173008 
L 165.312651 101.648683 
L 164.514528 105.870993 
L 163.972227 101.416944 
L 163.697915 98.373288 
L 163.421451 98.378832 
L 163.142802 98.608353 
L 162.861933 99.223737 
L 162.578807 98.171486 
L 162.005642 102.208627 
L 161.715525 105.780072 
L 161.423001 104.942928 
L 161.12803 103.322971 
L 160.830569 100.59754 
L 160.530576 99.145012 
L 159.922821 98.791305 
L 158.991077 101.62318 
L 158.674941 101.576611 
L 158.355944 100.478899 
L 158.034034 97.966358 
L 157.709157 98.048409 
L 157.381258 98.704819 
L 157.05028 97.294425 
L 156.378851 92.181748 
L 155.694385 96.325334 
L 155.347102 97.204612 
L 154.996364 96.543768 
L 153.922709 91.621804 
L 153.18833 93.088747 
L 152.815323 94.459224 
L 152.438325 92.749454 
L 152.057252 93.54779 
L 151.672014 92.074195 
L 151.282519 92.588678 
L 150.888673 92.345851 
L 150.490375 92.553196 
L 149.267747 90.43428 
L 148.850595 92.462275 
L 148.428447 91.292491 
L 148.001182 92.498865 
L 147.568675 89.082652 
L 147.130795 88.865328 
L 146.687406 88.324233 
L 146.238369 91.076275 
L 145.783538 92.435664 
L 145.322761 92.405726 
L 144.855881 90.361099 
L 144.382734 87.788683 
L 143.41695 88.145716 
L 142.92395 89.056041 
L 142.423957 86.818483 
L 141.402178 85.658678 
L 140.879962 84.681825 
L 140.349893 87.817512 
L 139.811731 86.148768 
L 139.265226 87.693326 
L 138.710113 83.737128 
L 138.146118 84.680716 
L 137.572952 84.536572 
L 136.990312 85.660896 
L 136.39788 84.402408 
L 135.795319 83.894577 
L 135.182279 84.620841 
L 134.558388 85.839412 
L 133.923255 85.466856 
L 132.617591 85.667548 
L 131.946162 86.64551 
L 131.261696 84.263808 
L 130.563675 84.955699 
L 129.851551 82.572888 
L 129.124743 82.121606 
L 128.382633 80.70456 
L 127.624563 83.22708 
L 126.84983 84.009892 
L 126.057686 83.989934 
L 125.247331 83.392291 
L 124.417906 85.116475 
L 123.568493 86.38716 
L 122.698105 86.668795 
L 121.80568 84.761659 
L 120.890072 84.145166 
L 119.950045 84.671846 
L 118.984261 86.277388 
L 117.991268 86.846203 
L 116.969489 86.838441 
L 115.917204 86.422641 
L 114.832536 84.755006 
L 113.713429 85.874894 
L 112.557623 86.025691 
L 111.36263 90.021806 
L 110.125699 88.319798 
L 108.843779 88.896374 
L 107.513473 87.919521 
L 106.130985 89.875444 
L 104.692054 91.666156 
L 101.624997 94.00018 
L 99.985217 94.451462 
L 98.265416 95.825265 
L 98.08873 96.166776 
L 97.911153 95.620137 
L 97.372991 89.166921 
L 97.191762 89.12146 
L 96.826485 91.954444 
L 96.271373 93.838296 
L 96.084375 94.445918 
L 95.707378 93.888192 
L 95.517356 93.6121 
L 95.326305 93.687499 
L 94.941067 92.498865 
L 94.355199 94.623326 
L 93.959139 93.359294 
L 93.759428 93.105379 
L 93.356579 93.495676 
L 92.949072 93.836078 
L 92.743539 94.451462 
L 92.5368 95.462688 
L 92.328841 95.78424 
L 92.119648 95.362896 
L 91.484515 92.219448 
L 91.270235 92.101915 
L 91.054645 91.107321 
L 90.619467 87.428323 
L 90.399847 87.276417 
L 90.17885 87.753201 
L 89.732655 90.51744 
L 89.28074 93.996854 
L 89.052591 93.903715 
L 88.591814 94.195329 
L 88.124934 97.346539 
L 87.889155 97.455201 
L 87.651787 97.117017 
L 87.172203 98.649379 
L 86.929941 97.988534 
L 86.686003 96.237739 
L 86.440365 95.591308 
L 86.193003 96.072528 
L 85.943893 95.429424 
L 85.69301 96.082507 
L 85.440329 94.024574 
L 85.185823 93.870451 
L 84.929466 92.833723 
L 84.671231 94.765252 
L 84.41109 95.742105 
L 84.149015 96.141273 
L 83.884977 95.133374 
L 83.080784 90.878908 
L 82.80859 91.22818 
L 82.534278 92.251603 
L 81.979166 95.19214 
L 81.698296 95.911752 
L 81.415171 95.789784 
L 81.129753 95.169964 
L 80.842005 95.243145 
L 80.551889 95.909534 
L 80.259365 95.836353 
L 79.964393 95.383963 
L 79.666932 93.919238 
L 79.36694 93.773985 
L 79.064372 93.827208 
L 78.451332 94.71203 
L 77.511305 97.226788 
L 77.192308 97.263379 
L 76.935016 95.191032 
L 76.870398 95.191032 
L 76.643299 92.081956 
L 76.545521 91.066296 
L 76.512868 91.332408 
L 76.381952 91.864632 
L 76.217622 90.993115 
L 76.052521 93.115358 
L 75.886643 91.991035 
L 75.753377 94.359432 
L 75.719981 93.585489 
L 75.586082 92.037604 
L 75.41799 92.815982 
L 75.249092 91.116192 
L 75.079381 93.225129 
L 74.908849 91.186046 
L 74.874643 91.222636 
L 74.737488 91.295817 
L 74.530748 90.714806 
L 74.426922 90.63719 
L 74.392246 90.715915 
L 74.218348 91.215984 
L 74.043589 91.901222 
L 73.832727 91.901222 
L 73.832727 91.901222 
" clip-path="url(#pba3789767e)" style="fill: none; stroke: #008000; stroke-width: 1.5; stroke-linecap: square"/>
   </g>
   <g id="patch_3">
    <path d="M 57.6 307.584 
L 57.6 41.472 
" style="fill: none; stroke: #000000; stroke-width: 0.8; stroke-linejoin: miter; stroke-linecap: square"/>
   </g>
   <g id="patch_4">
    <path d="M 414.72 307.584 
L 414.72 41.472 
" style="fill: none; stroke: #000000; stroke-width: 0.8; stroke-linejoin: miter; stroke-linecap: square"/>
   </g>
   <g id="patch_5">
    <path d="M 57.6 307.584 
L 414.72 307.584 
" style="fill: none; stroke: #000000; stroke-width: 0.8; stroke-linejoin: miter; stroke-linecap: square"/>
   </g>
   <g id="patch_6">
    <path d="M 57.6 41.472 
L 414.72 41.472 
" style="fill: none; stroke: #000000; stroke-width: 0.8; stroke-linejoin: miter; stroke-linecap: square"/>
   </g>
   <g id="text_17">
    <!-- VCO1 AVA-183A+ AMP -->
    <g transform="translate(168.45 35.472)scale(0.12 -0.12)">
     <defs>
      <path id="DejaVuSans-56" d="M 1831 0 
L 50 4666 
L 709 4666 
L 2188 738 
L 3669 4666 
L 4325 4666 
L 2547 0 
L 1831 0 
z
" transform="scale(0.015625)"/>
      <path id="DejaVuSans-43" d="M 4122 4306 
L 4122 3641 
Q 3803 3938 3442 4084 
Q 3081 4231 2675 4231 
Q 1875 4231 1450 3742 
Q 1025 3253 1025 2328 
Q 1025 1406 1450 917 
Q 1875 428 2675 428 
Q 3081 428 3442 575 
Q 3803 722 4122 1019 
L 4122 359 
Q 3791 134 3420 21 
Q 3050 -91 2638 -91 
Q 1578 -91 968 557 
Q 359 1206 359 2328 
Q 359 3453 968 4101 
Q 1578 4750 2638 4750 
Q 3056 4750 3426 4639 
Q 3797 4528 4122 4306 
z
" transform="scale(0.015625)"/>
      <path id="DejaVuSans-4f" d="M 2522 4238 
Q 1834 4238 1429 3725 
Q 1025 3213 1025 2328 
Q 1025 1447 1429 934 
Q 1834 422 2522 422 
Q 3209 422 3611 934 
Q 4013 1447 4013 2328 
Q 4013 3213 3611 3725 
Q 3209 4238 2522 4238 
z
M 2522 4750 
Q 3503 4750 4090 4092 
Q 4678 3434 4678 2328 
Q 4678 1225 4090 567 
Q 3503 -91 2522 -91 
Q 1538 -91 948 565 
Q 359 1222 359 2328 
Q 359 3434 948 4092 
Q 1538 4750 2522 4750 
z
" transform="scale(0.015625)"/>
      <path id="DejaVuSans-41" d="M 2188 4044 
L 1331 1722 
L 3047 1722 
L 2188 4044 
z
M 1831 4666 
L 2547 4666 
L 4325 0 
L 3669 0 
L 3244 1197 
L 1141 1197 
L 716 0 
L 50 0 
L 1831 4666 
z
" transform="scale(0.015625)"/>
      <path id="DejaVuSans-2d" d="M 313 2009 
L 1997 2009 
L 1997 1497 
L 313 1497 
L 313 2009 
z
" transform="scale(0.015625)"/>
      <path id="DejaVuSans-2b" d="M 2944 4013 
L 2944 2272 
L 4684 2272 
L 4684 1741 
L 2944 1741 
L 2944 0 
L 2419 0 
L 2419 1741 
L 678 1741 
L 678 2272 
L 2419 2272 
L 2419 4013 
L 2944 4013 
z
" transform="scale(0.015625)"/>
      <path id="DejaVuSans-4d" d="M 628 4666 
L 1569 4666 
L 2759 1491 
L 3956 4666 
L 4897 4666 
L 4897 0 
L 4281 0 
L 4281 4097 
L 3078 897 
L 2444 897 
L 1241 4097 
L 1241 0 
L 628 0 
L 628 4666 
z
" transform="scale(0.015625)"/>
     </defs>
     <use xlink:href="#DejaVuSans-56"/>
     <use xlink:href="#DejaVuSans-43" x="68.408203"/>
     <use xlink:href="#DejaVuSans-4f" x="138.232422"/>
     <use xlink:href="#DejaVuSans-31" x="216.943359"/>
     <use xlink:href="#DejaVuSans-20" x="280.566406"/>
     <use xlink:href="#DejaVuSans-41" x="312.353516"/>
     <use xlink:href="#DejaVuSans-56" x="374.386719"/>
     <use xlink:href="#DejaVuSans-41" x="436.419922"/>
     <use xlink:href="#DejaVuSans-2d" x="502.578125"/>
     <use xlink:href="#DejaVuSans-31" x="538.662109"/>
     <use xlink:href="#DejaVuSans-38" x="602.285156"/>
     <use xlink:href="#DejaVuSans-33" x="665.908203"/>
     <use xlink:href="#DejaVuSans-41" x="729.53125"/>
     <use xlink:href="#DejaVuSans-2b" x="797.939453"/>
     <use xlink:href="#DejaVuSans-20" x="881.728516"/>
     <use xlink:href="#DejaVuSans-41" x="913.515625"/>
     <use xlink:href="#DejaVuSans-4d" x="981.923828"/>
     <use xlink:href="#DejaVuSans-50" x="1068.203125"/>
    </g>
   </g>
   <g id="legend_1">
    <g id="patch_7">
     <path d="M 318.7825 78.82825 
L 407.72 78.82825 
Q 409.72 78.82825 409.72 76.82825 
L 409.72 48.472 
Q 409.72 46.472 407.72 46.472 
L 318.7825 46.472 
Q 316.7825 46.472 316.7825 48.472 
L 316.7825 76.82825 
Q 316.7825 78.82825 318.7825 78.82825 
z
" style="fill: #ffffff; opacity: 0.8; stroke: #cccccc; stroke-linejoin: miter"/>
    </g>
    <g id="line2d_52">
     <path d="M 320.7825 54.570437 
L 330.7825 54.570437 
L 340.7825 54.570437 
" style="fill: none; stroke: #ff0000; stroke-width: 1.5; stroke-linecap: square"/>
    </g>
    <g id="text_18">
     <!-- AVA-183A+ -->
     <g transform="translate(348.7825 58.070437)scale(0.1 -0.1)">
      <use xlink:href="#DejaVuSans-41"/>
      <use xlink:href="#DejaVuSans-56" x="62.033203"/>
      <use xlink:href="#DejaVuSans-41" x="124.066406"/>
      <use xlink:href="#DejaVuSans-2d" x="190.224609"/>
      <use xlink:href="#DejaVuSans-31" x="226.308594"/>
      <use xlink:href="#DejaVuSans-38" x="289.931641"/>
      <use xlink:href="#DejaVuSans-33" x="353.554688"/>
      <use xlink:href="#DejaVuSans-41" x="417.177734"/>
      <use xlink:href="#DejaVuSans-2b" x="485.585938"/>
     </g>
    </g>
    <g id="line2d_53">
     <path d="M 320.7825 69.248562 
L 330.7825 69.248562 
L 340.7825 69.248562 
" style="fill: none; stroke: #008000; stroke-width: 1.5; stroke-linecap: square"/>
    </g>
    <g id="text_19">
     <!-- no AMP -->
     <g transform="translate(348.7825 72.748562)scale(0.1 -0.1)">
      <use xlink:href="#DejaVuSans-6e"/>
      <use xlink:href="#DejaVuSans-6f" x="63.378906"/>
      <use xlink:href="#DejaVuSans-20" x="124.560547"/>
      <use xlink:href="#DejaVuSans-41" x="156.347656"/>
      <use xlink:href="#DejaVuSans-4d" x="224.755859"/>
      <use xlink:href="#DejaVuSans-50" x="311.035156"/>
     </g>
    </g>
   </g>
  </g>
 </g>
 <defs>
  <clipPath id="pba3789767e">
   <rect x="57.6" y="41.472" width="357.12" height="266.112"/>
  </clipPath>
 </defs>
</svg>
