<?xml version="1.0" encoding="utf-8" standalone="no"?>
<!DOCTYPE svg PUBLIC "-//W3C//DTD SVG 1.1//EN"
  "http://www.w3.org/Graphics/SVG/1.1/DTD/svg11.dtd">
<svg xmlns:xlink="http://www.w3.org/1999/xlink" width="460.8pt" height="345.6pt" viewBox="0 0 460.8 345.6" xmlns="http://www.w3.org/2000/svg" version="1.1">
 <metadata>
  <rdf:RDF xmlns:dc="http://purl.org/dc/elements/1.1/" xmlns:cc="http://creativecommons.org/ns#" xmlns:rdf="http://www.w3.org/1999/02/22-rdf-syntax-ns#">
   <cc:Work>
    <dc:type rdf:resource="http://purl.org/dc/dcmitype/StillImage"/>
    <dc:date>2022-09-26T11:16:25.465732</dc:date>
    <dc:format>image/svg+xml</dc:format>
    <dc:creator>
     <cc:Agent>
      <dc:title>Matplotlib v3.5.1, https://matplotlib.org/</dc:title>
     </cc:Agent>
    </dc:creator>
   </cc:Work>
  </rdf:RDF>
 </metadata>
 <defs>
  <style type="text/css">*{stroke-linejoin: round; stroke-linecap: butt}</style>
 </defs>
 <g id="figure_1">
  <g id="patch_1">
   <path d="M 0 345.6 
L 460.8 345.6 
L 460.8 0 
L 0 0 
z
" style="fill: #ffffff"/>
  </g>
  <g id="axes_1">
   <g id="patch_2">
    <path d="M 57.6 307.584 
L 414.72 307.584 
L 414.72 41.472 
L 57.6 41.472 
z
" style="fill: #ffffff"/>
   </g>
   <g id="matplotlib.axis_1">
    <g id="xtick_1">
     <g id="line2d_1">
      <defs>
       <path id="m89449497de" d="M 0 0 
L 0 3.5 
" style="stroke: #000000; stroke-width: 0.8"/>
      </defs>
      <g>
       <use xlink:href="#m89449497de" x="73.832727" y="307.584" style="stroke: #000000; stroke-width: 0.8"/>
      </g>
     </g>
     <g id="text_1">
      <!-- $\mathdefault{10^{3}}$ -->
      <g transform="translate(65.032727 322.182437)scale(0.1 -0.1)">
       <defs>
        <path id="DejaVuSans-31" d="M 794 531 
L 1825 531 
L 1825 4091 
L 703 3866 
L 703 4441 
L 1819 4666 
L 2450 4666 
L 2450 531 
L 3481 531 
L 3481 0 
L 794 0 
L 794 531 
z
" transform="scale(0.015625)"/>
        <path id="DejaVuSans-30" d="M 2034 4250 
Q 1547 4250 1301 3770 
Q 1056 3291 1056 2328 
Q 1056 1369 1301 889 
Q 1547 409 2034 409 
Q 2525 409 2770 889 
Q 3016 1369 3016 2328 
Q 3016 3291 2770 3770 
Q 2525 4250 2034 4250 
z
M 2034 4750 
Q 2819 4750 3233 4129 
Q 3647 3509 3647 2328 
Q 3647 1150 3233 529 
Q 2819 -91 2034 -91 
Q 1250 -91 836 529 
Q 422 1150 422 2328 
Q 422 3509 836 4129 
Q 1250 4750 2034 4750 
z
" transform="scale(0.015625)"/>
        <path id="DejaVuSans-33" d="M 2597 2516 
Q 3050 2419 3304 2112 
Q 3559 1806 3559 1356 
Q 3559 666 3084 287 
Q 2609 -91 1734 -91 
Q 1441 -91 1130 -33 
Q 819 25 488 141 
L 488 750 
Q 750 597 1062 519 
Q 1375 441 1716 441 
Q 2309 441 2620 675 
Q 2931 909 2931 1356 
Q 2931 1769 2642 2001 
Q 2353 2234 1838 2234 
L 1294 2234 
L 1294 2753 
L 1863 2753 
Q 2328 2753 2575 2939 
Q 2822 3125 2822 3475 
Q 2822 3834 2567 4026 
Q 2313 4219 1838 4219 
Q 1578 4219 1281 4162 
Q 984 4106 628 3988 
L 628 4550 
Q 988 4650 1302 4700 
Q 1616 4750 1894 4750 
Q 2613 4750 3031 4423 
Q 3450 4097 3450 3541 
Q 3450 3153 3228 2886 
Q 3006 2619 2597 2516 
z
" transform="scale(0.015625)"/>
       </defs>
       <use xlink:href="#DejaVuSans-31" transform="translate(0 0.765625)"/>
       <use xlink:href="#DejaVuSans-30" transform="translate(63.623047 0.765625)"/>
       <use xlink:href="#DejaVuSans-33" transform="translate(128.203125 39.046875)scale(0.7)"/>
      </g>
     </g>
    </g>
    <g id="xtick_2">
     <g id="line2d_2">
      <g>
       <use xlink:href="#m89449497de" x="154.996364" y="307.584" style="stroke: #000000; stroke-width: 0.8"/>
      </g>
     </g>
     <g id="text_2">
      <!-- $\mathdefault{10^{4}}$ -->
      <g transform="translate(146.196364 322.182437)scale(0.1 -0.1)">
       <defs>
        <path id="DejaVuSans-34" d="M 2419 4116 
L 825 1625 
L 2419 1625 
L 2419 4116 
z
M 2253 4666 
L 3047 4666 
L 3047 1625 
L 3713 1625 
L 3713 1100 
L 3047 1100 
L 3047 0 
L 2419 0 
L 2419 1100 
L 313 1100 
L 313 1709 
L 2253 4666 
z
" transform="scale(0.015625)"/>
       </defs>
       <use xlink:href="#DejaVuSans-31" transform="translate(0 0.684375)"/>
       <use xlink:href="#DejaVuSans-30" transform="translate(63.623047 0.684375)"/>
       <use xlink:href="#DejaVuSans-34" transform="translate(128.203125 38.965625)scale(0.7)"/>
      </g>
     </g>
    </g>
    <g id="xtick_3">
     <g id="line2d_3">
      <g>
       <use xlink:href="#m89449497de" x="236.16" y="307.584" style="stroke: #000000; stroke-width: 0.8"/>
      </g>
     </g>
     <g id="text_3">
      <!-- $\mathdefault{10^{5}}$ -->
      <g transform="translate(227.36 322.182437)scale(0.1 -0.1)">
       <defs>
        <path id="DejaVuSans-35" d="M 691 4666 
L 3169 4666 
L 3169 4134 
L 1269 4134 
L 1269 2991 
Q 1406 3038 1543 3061 
Q 1681 3084 1819 3084 
Q 2600 3084 3056 2656 
Q 3513 2228 3513 1497 
Q 3513 744 3044 326 
Q 2575 -91 1722 -91 
Q 1428 -91 1123 -41 
Q 819 9 494 109 
L 494 744 
Q 775 591 1075 516 
Q 1375 441 1709 441 
Q 2250 441 2565 725 
Q 2881 1009 2881 1497 
Q 2881 1984 2565 2268 
Q 2250 2553 1709 2553 
Q 1456 2553 1204 2497 
Q 953 2441 691 2322 
L 691 4666 
z
" transform="scale(0.015625)"/>
       </defs>
       <use xlink:href="#DejaVuSans-31" transform="translate(0 0.684375)"/>
       <use xlink:href="#DejaVuSans-30" transform="translate(63.623047 0.684375)"/>
       <use xlink:href="#DejaVuSans-35" transform="translate(128.203125 38.965625)scale(0.7)"/>
      </g>
     </g>
    </g>
    <g id="xtick_4">
     <g id="line2d_4">
      <g>
       <use xlink:href="#m89449497de" x="317.323636" y="307.584" style="stroke: #000000; stroke-width: 0.8"/>
      </g>
     </g>
     <g id="text_4">
      <!-- $\mathdefault{10^{6}}$ -->
      <g transform="translate(308.523636 322.182437)scale(0.1 -0.1)">
       <defs>
        <path id="DejaVuSans-36" d="M 2113 2584 
Q 1688 2584 1439 2293 
Q 1191 2003 1191 1497 
Q 1191 994 1439 701 
Q 1688 409 2113 409 
Q 2538 409 2786 701 
Q 3034 994 3034 1497 
Q 3034 2003 2786 2293 
Q 2538 2584 2113 2584 
z
M 3366 4563 
L 3366 3988 
Q 3128 4100 2886 4159 
Q 2644 4219 2406 4219 
Q 1781 4219 1451 3797 
Q 1122 3375 1075 2522 
Q 1259 2794 1537 2939 
Q 1816 3084 2150 3084 
Q 2853 3084 3261 2657 
Q 3669 2231 3669 1497 
Q 3669 778 3244 343 
Q 2819 -91 2113 -91 
Q 1303 -91 875 529 
Q 447 1150 447 2328 
Q 447 3434 972 4092 
Q 1497 4750 2381 4750 
Q 2619 4750 2861 4703 
Q 3103 4656 3366 4563 
z
" transform="scale(0.015625)"/>
       </defs>
       <use xlink:href="#DejaVuSans-31" transform="translate(0 0.765625)"/>
       <use xlink:href="#DejaVuSans-30" transform="translate(63.623047 0.765625)"/>
       <use xlink:href="#DejaVuSans-36" transform="translate(128.203125 39.046875)scale(0.7)"/>
      </g>
     </g>
    </g>
    <g id="xtick_5">
     <g id="line2d_5">
      <g>
       <use xlink:href="#m89449497de" x="398.487273" y="307.584" style="stroke: #000000; stroke-width: 0.8"/>
      </g>
     </g>
     <g id="text_5">
      <!-- $\mathdefault{10^{7}}$ -->
      <g transform="translate(389.687273 322.182437)scale(0.1 -0.1)">
       <defs>
        <path id="DejaVuSans-37" d="M 525 4666 
L 3525 4666 
L 3525 4397 
L 1831 0 
L 1172 0 
L 2766 4134 
L 525 4134 
L 525 4666 
z
" transform="scale(0.015625)"/>
       </defs>
       <use xlink:href="#DejaVuSans-31" transform="translate(0 0.684375)"/>
       <use xlink:href="#DejaVuSans-30" transform="translate(63.623047 0.684375)"/>
       <use xlink:href="#DejaVuSans-37" transform="translate(128.203125 38.965625)scale(0.7)"/>
      </g>
     </g>
    </g>
    <g id="xtick_6">
     <g id="line2d_6">
      <defs>
       <path id="mb27e2cb094" d="M 0 0 
L 0 2 
" style="stroke: #000000; stroke-width: 0.6"/>
      </defs>
      <g>
       <use xlink:href="#mb27e2cb094" x="61.260321" y="307.584" style="stroke: #000000; stroke-width: 0.6"/>
      </g>
     </g>
    </g>
    <g id="xtick_7">
     <g id="line2d_7">
      <g>
       <use xlink:href="#mb27e2cb094" x="65.967158" y="307.584" style="stroke: #000000; stroke-width: 0.6"/>
      </g>
     </g>
    </g>
    <g id="xtick_8">
     <g id="line2d_8">
      <g>
       <use xlink:href="#mb27e2cb094" x="70.118883" y="307.584" style="stroke: #000000; stroke-width: 0.6"/>
      </g>
     </g>
    </g>
    <g id="xtick_9">
     <g id="line2d_9">
      <g>
       <use xlink:href="#mb27e2cb094" x="98.265416" y="307.584" style="stroke: #000000; stroke-width: 0.6"/>
      </g>
     </g>
    </g>
    <g id="xtick_10">
     <g id="line2d_10">
      <g>
       <use xlink:href="#mb27e2cb094" x="112.557623" y="307.584" style="stroke: #000000; stroke-width: 0.6"/>
      </g>
     </g>
    </g>
    <g id="xtick_11">
     <g id="line2d_11">
      <g>
       <use xlink:href="#mb27e2cb094" x="122.698105" y="307.584" style="stroke: #000000; stroke-width: 0.6"/>
      </g>
     </g>
    </g>
    <g id="xtick_12">
     <g id="line2d_12">
      <g>
       <use xlink:href="#mb27e2cb094" x="130.563675" y="307.584" style="stroke: #000000; stroke-width: 0.6"/>
      </g>
     </g>
    </g>
    <g id="xtick_13">
     <g id="line2d_13">
      <g>
       <use xlink:href="#mb27e2cb094" x="136.990312" y="307.584" style="stroke: #000000; stroke-width: 0.6"/>
      </g>
     </g>
    </g>
    <g id="xtick_14">
     <g id="line2d_14">
      <g>
       <use xlink:href="#mb27e2cb094" x="142.423957" y="307.584" style="stroke: #000000; stroke-width: 0.6"/>
      </g>
     </g>
    </g>
    <g id="xtick_15">
     <g id="line2d_15">
      <g>
       <use xlink:href="#mb27e2cb094" x="147.130795" y="307.584" style="stroke: #000000; stroke-width: 0.6"/>
      </g>
     </g>
    </g>
    <g id="xtick_16">
     <g id="line2d_16">
      <g>
       <use xlink:href="#mb27e2cb094" x="151.282519" y="307.584" style="stroke: #000000; stroke-width: 0.6"/>
      </g>
     </g>
    </g>
    <g id="xtick_17">
     <g id="line2d_17">
      <g>
       <use xlink:href="#mb27e2cb094" x="179.429053" y="307.584" style="stroke: #000000; stroke-width: 0.6"/>
      </g>
     </g>
    </g>
    <g id="xtick_18">
     <g id="line2d_18">
      <g>
       <use xlink:href="#mb27e2cb094" x="193.72126" y="307.584" style="stroke: #000000; stroke-width: 0.6"/>
      </g>
     </g>
    </g>
    <g id="xtick_19">
     <g id="line2d_19">
      <g>
       <use xlink:href="#mb27e2cb094" x="203.861742" y="307.584" style="stroke: #000000; stroke-width: 0.6"/>
      </g>
     </g>
    </g>
    <g id="xtick_20">
     <g id="line2d_20">
      <g>
       <use xlink:href="#mb27e2cb094" x="211.727311" y="307.584" style="stroke: #000000; stroke-width: 0.6"/>
      </g>
     </g>
    </g>
    <g id="xtick_21">
     <g id="line2d_21">
      <g>
       <use xlink:href="#mb27e2cb094" x="218.153949" y="307.584" style="stroke: #000000; stroke-width: 0.6"/>
      </g>
     </g>
    </g>
    <g id="xtick_22">
     <g id="line2d_22">
      <g>
       <use xlink:href="#mb27e2cb094" x="223.587594" y="307.584" style="stroke: #000000; stroke-width: 0.6"/>
      </g>
     </g>
    </g>
    <g id="xtick_23">
     <g id="line2d_23">
      <g>
       <use xlink:href="#mb27e2cb094" x="228.294431" y="307.584" style="stroke: #000000; stroke-width: 0.6"/>
      </g>
     </g>
    </g>
    <g id="xtick_24">
     <g id="line2d_24">
      <g>
       <use xlink:href="#mb27e2cb094" x="232.446156" y="307.584" style="stroke: #000000; stroke-width: 0.6"/>
      </g>
     </g>
    </g>
    <g id="xtick_25">
     <g id="line2d_25">
      <g>
       <use xlink:href="#mb27e2cb094" x="260.592689" y="307.584" style="stroke: #000000; stroke-width: 0.6"/>
      </g>
     </g>
    </g>
    <g id="xtick_26">
     <g id="line2d_26">
      <g>
       <use xlink:href="#mb27e2cb094" x="274.884896" y="307.584" style="stroke: #000000; stroke-width: 0.6"/>
      </g>
     </g>
    </g>
    <g id="xtick_27">
     <g id="line2d_27">
      <g>
       <use xlink:href="#mb27e2cb094" x="285.025378" y="307.584" style="stroke: #000000; stroke-width: 0.6"/>
      </g>
     </g>
    </g>
    <g id="xtick_28">
     <g id="line2d_28">
      <g>
       <use xlink:href="#mb27e2cb094" x="292.890947" y="307.584" style="stroke: #000000; stroke-width: 0.6"/>
      </g>
     </g>
    </g>
    <g id="xtick_29">
     <g id="line2d_29">
      <g>
       <use xlink:href="#mb27e2cb094" x="299.317585" y="307.584" style="stroke: #000000; stroke-width: 0.6"/>
      </g>
     </g>
    </g>
    <g id="xtick_30">
     <g id="line2d_30">
      <g>
       <use xlink:href="#mb27e2cb094" x="304.75123" y="307.584" style="stroke: #000000; stroke-width: 0.6"/>
      </g>
     </g>
    </g>
    <g id="xtick_31">
     <g id="line2d_31">
      <g>
       <use xlink:href="#mb27e2cb094" x="309.458067" y="307.584" style="stroke: #000000; stroke-width: 0.6"/>
      </g>
     </g>
    </g>
    <g id="xtick_32">
     <g id="line2d_32">
      <g>
       <use xlink:href="#mb27e2cb094" x="313.609792" y="307.584" style="stroke: #000000; stroke-width: 0.6"/>
      </g>
     </g>
    </g>
    <g id="xtick_33">
     <g id="line2d_33">
      <g>
       <use xlink:href="#mb27e2cb094" x="341.756325" y="307.584" style="stroke: #000000; stroke-width: 0.6"/>
      </g>
     </g>
    </g>
    <g id="xtick_34">
     <g id="line2d_34">
      <g>
       <use xlink:href="#mb27e2cb094" x="356.048532" y="307.584" style="stroke: #000000; stroke-width: 0.6"/>
      </g>
     </g>
    </g>
    <g id="xtick_35">
     <g id="line2d_35">
      <g>
       <use xlink:href="#mb27e2cb094" x="366.189015" y="307.584" style="stroke: #000000; stroke-width: 0.6"/>
      </g>
     </g>
    </g>
    <g id="xtick_36">
     <g id="line2d_36">
      <g>
       <use xlink:href="#mb27e2cb094" x="374.054584" y="307.584" style="stroke: #000000; stroke-width: 0.6"/>
      </g>
     </g>
    </g>
    <g id="xtick_37">
     <g id="line2d_37">
      <g>
       <use xlink:href="#mb27e2cb094" x="380.481221" y="307.584" style="stroke: #000000; stroke-width: 0.6"/>
      </g>
     </g>
    </g>
    <g id="xtick_38">
     <g id="line2d_38">
      <g>
       <use xlink:href="#mb27e2cb094" x="385.914866" y="307.584" style="stroke: #000000; stroke-width: 0.6"/>
      </g>
     </g>
    </g>
    <g id="xtick_39">
     <g id="line2d_39">
      <g>
       <use xlink:href="#mb27e2cb094" x="390.621704" y="307.584" style="stroke: #000000; stroke-width: 0.6"/>
      </g>
     </g>
    </g>
    <g id="xtick_40">
     <g id="line2d_40">
      <g>
       <use xlink:href="#mb27e2cb094" x="394.773428" y="307.584" style="stroke: #000000; stroke-width: 0.6"/>
      </g>
     </g>
    </g>
    <g id="text_6">
     <!-- Frequency [Hz] -->
     <g transform="translate(198.455312 335.860562)scale(0.1 -0.1)">
      <defs>
       <path id="DejaVuSans-46" d="M 628 4666 
L 3309 4666 
L 3309 4134 
L 1259 4134 
L 1259 2759 
L 3109 2759 
L 3109 2228 
L 1259 2228 
L 1259 0 
L 628 0 
L 628 4666 
z
" transform="scale(0.015625)"/>
       <path id="DejaVuSans-72" d="M 2631 2963 
Q 2534 3019 2420 3045 
Q 2306 3072 2169 3072 
Q 1681 3072 1420 2755 
Q 1159 2438 1159 1844 
L 1159 0 
L 581 0 
L 581 3500 
L 1159 3500 
L 1159 2956 
Q 1341 3275 1631 3429 
Q 1922 3584 2338 3584 
Q 2397 3584 2469 3576 
Q 2541 3569 2628 3553 
L 2631 2963 
z
" transform="scale(0.015625)"/>
       <path id="DejaVuSans-65" d="M 3597 1894 
L 3597 1613 
L 953 1613 
Q 991 1019 1311 708 
Q 1631 397 2203 397 
Q 2534 397 2845 478 
Q 3156 559 3463 722 
L 3463 178 
Q 3153 47 2828 -22 
Q 2503 -91 2169 -91 
Q 1331 -91 842 396 
Q 353 884 353 1716 
Q 353 2575 817 3079 
Q 1281 3584 2069 3584 
Q 2775 3584 3186 3129 
Q 3597 2675 3597 1894 
z
M 3022 2063 
Q 3016 2534 2758 2815 
Q 2500 3097 2075 3097 
Q 1594 3097 1305 2825 
Q 1016 2553 972 2059 
L 3022 2063 
z
" transform="scale(0.015625)"/>
       <path id="DejaVuSans-71" d="M 947 1747 
Q 947 1113 1208 752 
Q 1469 391 1925 391 
Q 2381 391 2643 752 
Q 2906 1113 2906 1747 
Q 2906 2381 2643 2742 
Q 2381 3103 1925 3103 
Q 1469 3103 1208 2742 
Q 947 2381 947 1747 
z
M 2906 525 
Q 2725 213 2448 61 
Q 2172 -91 1784 -91 
Q 1150 -91 751 415 
Q 353 922 353 1747 
Q 353 2572 751 3078 
Q 1150 3584 1784 3584 
Q 2172 3584 2448 3432 
Q 2725 3281 2906 2969 
L 2906 3500 
L 3481 3500 
L 3481 -1331 
L 2906 -1331 
L 2906 525 
z
" transform="scale(0.015625)"/>
       <path id="DejaVuSans-75" d="M 544 1381 
L 544 3500 
L 1119 3500 
L 1119 1403 
Q 1119 906 1312 657 
Q 1506 409 1894 409 
Q 2359 409 2629 706 
Q 2900 1003 2900 1516 
L 2900 3500 
L 3475 3500 
L 3475 0 
L 2900 0 
L 2900 538 
Q 2691 219 2414 64 
Q 2138 -91 1772 -91 
Q 1169 -91 856 284 
Q 544 659 544 1381 
z
M 1991 3584 
L 1991 3584 
z
" transform="scale(0.015625)"/>
       <path id="DejaVuSans-6e" d="M 3513 2113 
L 3513 0 
L 2938 0 
L 2938 2094 
Q 2938 2591 2744 2837 
Q 2550 3084 2163 3084 
Q 1697 3084 1428 2787 
Q 1159 2491 1159 1978 
L 1159 0 
L 581 0 
L 581 3500 
L 1159 3500 
L 1159 2956 
Q 1366 3272 1645 3428 
Q 1925 3584 2291 3584 
Q 2894 3584 3203 3211 
Q 3513 2838 3513 2113 
z
" transform="scale(0.015625)"/>
       <path id="DejaVuSans-63" d="M 3122 3366 
L 3122 2828 
Q 2878 2963 2633 3030 
Q 2388 3097 2138 3097 
Q 1578 3097 1268 2742 
Q 959 2388 959 1747 
Q 959 1106 1268 751 
Q 1578 397 2138 397 
Q 2388 397 2633 464 
Q 2878 531 3122 666 
L 3122 134 
Q 2881 22 2623 -34 
Q 2366 -91 2075 -91 
Q 1284 -91 818 406 
Q 353 903 353 1747 
Q 353 2603 823 3093 
Q 1294 3584 2113 3584 
Q 2378 3584 2631 3529 
Q 2884 3475 3122 3366 
z
" transform="scale(0.015625)"/>
       <path id="DejaVuSans-79" d="M 2059 -325 
Q 1816 -950 1584 -1140 
Q 1353 -1331 966 -1331 
L 506 -1331 
L 506 -850 
L 844 -850 
Q 1081 -850 1212 -737 
Q 1344 -625 1503 -206 
L 1606 56 
L 191 3500 
L 800 3500 
L 1894 763 
L 2988 3500 
L 3597 3500 
L 2059 -325 
z
" transform="scale(0.015625)"/>
       <path id="DejaVuSans-20" transform="scale(0.015625)"/>
       <path id="DejaVuSans-5b" d="M 550 4863 
L 1875 4863 
L 1875 4416 
L 1125 4416 
L 1125 -397 
L 1875 -397 
L 1875 -844 
L 550 -844 
L 550 4863 
z
" transform="scale(0.015625)"/>
       <path id="DejaVuSans-48" d="M 628 4666 
L 1259 4666 
L 1259 2753 
L 3553 2753 
L 3553 4666 
L 4184 4666 
L 4184 0 
L 3553 0 
L 3553 2222 
L 1259 2222 
L 1259 0 
L 628 0 
L 628 4666 
z
" transform="scale(0.015625)"/>
       <path id="DejaVuSans-7a" d="M 353 3500 
L 3084 3500 
L 3084 2975 
L 922 459 
L 3084 459 
L 3084 0 
L 275 0 
L 275 525 
L 2438 3041 
L 353 3041 
L 353 3500 
z
" transform="scale(0.015625)"/>
       <path id="DejaVuSans-5d" d="M 1947 4863 
L 1947 -844 
L 622 -844 
L 622 -397 
L 1369 -397 
L 1369 4416 
L 622 4416 
L 622 4863 
L 1947 4863 
z
" transform="scale(0.015625)"/>
      </defs>
      <use xlink:href="#DejaVuSans-46"/>
      <use xlink:href="#DejaVuSans-72" x="50.269531"/>
      <use xlink:href="#DejaVuSans-65" x="89.132812"/>
      <use xlink:href="#DejaVuSans-71" x="150.65625"/>
      <use xlink:href="#DejaVuSans-75" x="214.132812"/>
      <use xlink:href="#DejaVuSans-65" x="277.511719"/>
      <use xlink:href="#DejaVuSans-6e" x="339.035156"/>
      <use xlink:href="#DejaVuSans-63" x="402.414062"/>
      <use xlink:href="#DejaVuSans-79" x="457.394531"/>
      <use xlink:href="#DejaVuSans-20" x="516.574219"/>
      <use xlink:href="#DejaVuSans-5b" x="548.361328"/>
      <use xlink:href="#DejaVuSans-48" x="587.375"/>
      <use xlink:href="#DejaVuSans-7a" x="662.570312"/>
      <use xlink:href="#DejaVuSans-5d" x="715.060547"/>
     </g>
    </g>
   </g>
   <g id="matplotlib.axis_2">
    <g id="ytick_1">
     <g id="line2d_41">
      <defs>
       <path id="mae15dff153" d="M 0 0 
L -3.5 0 
" style="stroke: #000000; stroke-width: 0.8"/>
      </defs>
      <g>
       <use xlink:href="#mae15dff153" x="57.6" y="307.584" style="stroke: #000000; stroke-width: 0.8"/>
      </g>
     </g>
     <g id="text_7">
      <!-- −140 -->
      <g transform="translate(23.132812 311.383219)scale(0.1 -0.1)">
       <defs>
        <path id="DejaVuSans-2212" d="M 678 2272 
L 4684 2272 
L 4684 1741 
L 678 1741 
L 678 2272 
z
" transform="scale(0.015625)"/>
       </defs>
       <use xlink:href="#DejaVuSans-2212"/>
       <use xlink:href="#DejaVuSans-31" x="83.789062"/>
       <use xlink:href="#DejaVuSans-34" x="147.412109"/>
       <use xlink:href="#DejaVuSans-30" x="211.035156"/>
      </g>
     </g>
    </g>
    <g id="ytick_2">
     <g id="line2d_42">
      <g>
       <use xlink:href="#mae15dff153" x="57.6" y="274.32" style="stroke: #000000; stroke-width: 0.8"/>
      </g>
     </g>
     <g id="text_8">
      <!-- −130 -->
      <g transform="translate(23.132812 278.119219)scale(0.1 -0.1)">
       <use xlink:href="#DejaVuSans-2212"/>
       <use xlink:href="#DejaVuSans-31" x="83.789062"/>
       <use xlink:href="#DejaVuSans-33" x="147.412109"/>
       <use xlink:href="#DejaVuSans-30" x="211.035156"/>
      </g>
     </g>
    </g>
    <g id="ytick_3">
     <g id="line2d_43">
      <g>
       <use xlink:href="#mae15dff153" x="57.6" y="241.056" style="stroke: #000000; stroke-width: 0.8"/>
      </g>
     </g>
     <g id="text_9">
      <!-- −120 -->
      <g transform="translate(23.132812 244.855219)scale(0.1 -0.1)">
       <defs>
        <path id="DejaVuSans-32" d="M 1228 531 
L 3431 531 
L 3431 0 
L 469 0 
L 469 531 
Q 828 903 1448 1529 
Q 2069 2156 2228 2338 
Q 2531 2678 2651 2914 
Q 2772 3150 2772 3378 
Q 2772 3750 2511 3984 
Q 2250 4219 1831 4219 
Q 1534 4219 1204 4116 
Q 875 4013 500 3803 
L 500 4441 
Q 881 4594 1212 4672 
Q 1544 4750 1819 4750 
Q 2544 4750 2975 4387 
Q 3406 4025 3406 3419 
Q 3406 3131 3298 2873 
Q 3191 2616 2906 2266 
Q 2828 2175 2409 1742 
Q 1991 1309 1228 531 
z
" transform="scale(0.015625)"/>
       </defs>
       <use xlink:href="#DejaVuSans-2212"/>
       <use xlink:href="#DejaVuSans-31" x="83.789062"/>
       <use xlink:href="#DejaVuSans-32" x="147.412109"/>
       <use xlink:href="#DejaVuSans-30" x="211.035156"/>
      </g>
     </g>
    </g>
    <g id="ytick_4">
     <g id="line2d_44">
      <g>
       <use xlink:href="#mae15dff153" x="57.6" y="207.792" style="stroke: #000000; stroke-width: 0.8"/>
      </g>
     </g>
     <g id="text_10">
      <!-- −110 -->
      <g transform="translate(23.132812 211.591219)scale(0.1 -0.1)">
       <use xlink:href="#DejaVuSans-2212"/>
       <use xlink:href="#DejaVuSans-31" x="83.789062"/>
       <use xlink:href="#DejaVuSans-31" x="147.412109"/>
       <use xlink:href="#DejaVuSans-30" x="211.035156"/>
      </g>
     </g>
    </g>
    <g id="ytick_5">
     <g id="line2d_45">
      <g>
       <use xlink:href="#mae15dff153" x="57.6" y="174.528" style="stroke: #000000; stroke-width: 0.8"/>
      </g>
     </g>
     <g id="text_11">
      <!-- −100 -->
      <g transform="translate(23.132812 178.327219)scale(0.1 -0.1)">
       <use xlink:href="#DejaVuSans-2212"/>
       <use xlink:href="#DejaVuSans-31" x="83.789062"/>
       <use xlink:href="#DejaVuSans-30" x="147.412109"/>
       <use xlink:href="#DejaVuSans-30" x="211.035156"/>
      </g>
     </g>
    </g>
    <g id="ytick_6">
     <g id="line2d_46">
      <g>
       <use xlink:href="#mae15dff153" x="57.6" y="141.264" style="stroke: #000000; stroke-width: 0.8"/>
      </g>
     </g>
     <g id="text_12">
      <!-- −90 -->
      <g transform="translate(29.495313 145.063219)scale(0.1 -0.1)">
       <defs>
        <path id="DejaVuSans-39" d="M 703 97 
L 703 672 
Q 941 559 1184 500 
Q 1428 441 1663 441 
Q 2288 441 2617 861 
Q 2947 1281 2994 2138 
Q 2813 1869 2534 1725 
Q 2256 1581 1919 1581 
Q 1219 1581 811 2004 
Q 403 2428 403 3163 
Q 403 3881 828 4315 
Q 1253 4750 1959 4750 
Q 2769 4750 3195 4129 
Q 3622 3509 3622 2328 
Q 3622 1225 3098 567 
Q 2575 -91 1691 -91 
Q 1453 -91 1209 -44 
Q 966 3 703 97 
z
M 1959 2075 
Q 2384 2075 2632 2365 
Q 2881 2656 2881 3163 
Q 2881 3666 2632 3958 
Q 2384 4250 1959 4250 
Q 1534 4250 1286 3958 
Q 1038 3666 1038 3163 
Q 1038 2656 1286 2365 
Q 1534 2075 1959 2075 
z
" transform="scale(0.015625)"/>
       </defs>
       <use xlink:href="#DejaVuSans-2212"/>
       <use xlink:href="#DejaVuSans-39" x="83.789062"/>
       <use xlink:href="#DejaVuSans-30" x="147.412109"/>
      </g>
     </g>
    </g>
    <g id="ytick_7">
     <g id="line2d_47">
      <g>
       <use xlink:href="#mae15dff153" x="57.6" y="108" style="stroke: #000000; stroke-width: 0.8"/>
      </g>
     </g>
     <g id="text_13">
      <!-- −80 -->
      <g transform="translate(29.495313 111.799219)scale(0.1 -0.1)">
       <defs>
        <path id="DejaVuSans-38" d="M 2034 2216 
Q 1584 2216 1326 1975 
Q 1069 1734 1069 1313 
Q 1069 891 1326 650 
Q 1584 409 2034 409 
Q 2484 409 2743 651 
Q 3003 894 3003 1313 
Q 3003 1734 2745 1975 
Q 2488 2216 2034 2216 
z
M 1403 2484 
Q 997 2584 770 2862 
Q 544 3141 544 3541 
Q 544 4100 942 4425 
Q 1341 4750 2034 4750 
Q 2731 4750 3128 4425 
Q 3525 4100 3525 3541 
Q 3525 3141 3298 2862 
Q 3072 2584 2669 2484 
Q 3125 2378 3379 2068 
Q 3634 1759 3634 1313 
Q 3634 634 3220 271 
Q 2806 -91 2034 -91 
Q 1263 -91 848 271 
Q 434 634 434 1313 
Q 434 1759 690 2068 
Q 947 2378 1403 2484 
z
M 1172 3481 
Q 1172 3119 1398 2916 
Q 1625 2713 2034 2713 
Q 2441 2713 2670 2916 
Q 2900 3119 2900 3481 
Q 2900 3844 2670 4047 
Q 2441 4250 2034 4250 
Q 1625 4250 1398 4047 
Q 1172 3844 1172 3481 
z
" transform="scale(0.015625)"/>
       </defs>
       <use xlink:href="#DejaVuSans-2212"/>
       <use xlink:href="#DejaVuSans-38" x="83.789062"/>
       <use xlink:href="#DejaVuSans-30" x="147.412109"/>
      </g>
     </g>
    </g>
    <g id="ytick_8">
     <g id="line2d_48">
      <g>
       <use xlink:href="#mae15dff153" x="57.6" y="74.736" style="stroke: #000000; stroke-width: 0.8"/>
      </g>
     </g>
     <g id="text_14">
      <!-- −70 -->
      <g transform="translate(29.495313 78.535219)scale(0.1 -0.1)">
       <use xlink:href="#DejaVuSans-2212"/>
       <use xlink:href="#DejaVuSans-37" x="83.789062"/>
       <use xlink:href="#DejaVuSans-30" x="147.412109"/>
      </g>
     </g>
    </g>
    <g id="ytick_9">
     <g id="line2d_49">
      <g>
       <use xlink:href="#mae15dff153" x="57.6" y="41.472" style="stroke: #000000; stroke-width: 0.8"/>
      </g>
     </g>
     <g id="text_15">
      <!-- −60 -->
      <g transform="translate(29.495313 45.271219)scale(0.1 -0.1)">
       <use xlink:href="#DejaVuSans-2212"/>
       <use xlink:href="#DejaVuSans-36" x="83.789062"/>
       <use xlink:href="#DejaVuSans-30" x="147.412109"/>
      </g>
     </g>
    </g>
    <g id="text_16">
     <!-- Phase noise [dBc/Hz] -->
     <g transform="translate(17.053125 227.257688)rotate(-90)scale(0.1 -0.1)">
      <defs>
       <path id="DejaVuSans-50" d="M 1259 4147 
L 1259 2394 
L 2053 2394 
Q 2494 2394 2734 2622 
Q 2975 2850 2975 3272 
Q 2975 3691 2734 3919 
Q 2494 4147 2053 4147 
L 1259 4147 
z
M 628 4666 
L 2053 4666 
Q 2838 4666 3239 4311 
Q 3641 3956 3641 3272 
Q 3641 2581 3239 2228 
Q 2838 1875 2053 1875 
L 1259 1875 
L 1259 0 
L 628 0 
L 628 4666 
z
" transform="scale(0.015625)"/>
       <path id="DejaVuSans-68" d="M 3513 2113 
L 3513 0 
L 2938 0 
L 2938 2094 
Q 2938 2591 2744 2837 
Q 2550 3084 2163 3084 
Q 1697 3084 1428 2787 
Q 1159 2491 1159 1978 
L 1159 0 
L 581 0 
L 581 4863 
L 1159 4863 
L 1159 2956 
Q 1366 3272 1645 3428 
Q 1925 3584 2291 3584 
Q 2894 3584 3203 3211 
Q 3513 2838 3513 2113 
z
" transform="scale(0.015625)"/>
       <path id="DejaVuSans-61" d="M 2194 1759 
Q 1497 1759 1228 1600 
Q 959 1441 959 1056 
Q 959 750 1161 570 
Q 1363 391 1709 391 
Q 2188 391 2477 730 
Q 2766 1069 2766 1631 
L 2766 1759 
L 2194 1759 
z
M 3341 1997 
L 3341 0 
L 2766 0 
L 2766 531 
Q 2569 213 2275 61 
Q 1981 -91 1556 -91 
Q 1019 -91 701 211 
Q 384 513 384 1019 
Q 384 1609 779 1909 
Q 1175 2209 1959 2209 
L 2766 2209 
L 2766 2266 
Q 2766 2663 2505 2880 
Q 2244 3097 1772 3097 
Q 1472 3097 1187 3025 
Q 903 2953 641 2809 
L 641 3341 
Q 956 3463 1253 3523 
Q 1550 3584 1831 3584 
Q 2591 3584 2966 3190 
Q 3341 2797 3341 1997 
z
" transform="scale(0.015625)"/>
       <path id="DejaVuSans-73" d="M 2834 3397 
L 2834 2853 
Q 2591 2978 2328 3040 
Q 2066 3103 1784 3103 
Q 1356 3103 1142 2972 
Q 928 2841 928 2578 
Q 928 2378 1081 2264 
Q 1234 2150 1697 2047 
L 1894 2003 
Q 2506 1872 2764 1633 
Q 3022 1394 3022 966 
Q 3022 478 2636 193 
Q 2250 -91 1575 -91 
Q 1294 -91 989 -36 
Q 684 19 347 128 
L 347 722 
Q 666 556 975 473 
Q 1284 391 1588 391 
Q 1994 391 2212 530 
Q 2431 669 2431 922 
Q 2431 1156 2273 1281 
Q 2116 1406 1581 1522 
L 1381 1569 
Q 847 1681 609 1914 
Q 372 2147 372 2553 
Q 372 3047 722 3315 
Q 1072 3584 1716 3584 
Q 2034 3584 2315 3537 
Q 2597 3491 2834 3397 
z
" transform="scale(0.015625)"/>
       <path id="DejaVuSans-6f" d="M 1959 3097 
Q 1497 3097 1228 2736 
Q 959 2375 959 1747 
Q 959 1119 1226 758 
Q 1494 397 1959 397 
Q 2419 397 2687 759 
Q 2956 1122 2956 1747 
Q 2956 2369 2687 2733 
Q 2419 3097 1959 3097 
z
M 1959 3584 
Q 2709 3584 3137 3096 
Q 3566 2609 3566 1747 
Q 3566 888 3137 398 
Q 2709 -91 1959 -91 
Q 1206 -91 779 398 
Q 353 888 353 1747 
Q 353 2609 779 3096 
Q 1206 3584 1959 3584 
z
" transform="scale(0.015625)"/>
       <path id="DejaVuSans-69" d="M 603 3500 
L 1178 3500 
L 1178 0 
L 603 0 
L 603 3500 
z
M 603 4863 
L 1178 4863 
L 1178 4134 
L 603 4134 
L 603 4863 
z
" transform="scale(0.015625)"/>
       <path id="DejaVuSans-64" d="M 2906 2969 
L 2906 4863 
L 3481 4863 
L 3481 0 
L 2906 0 
L 2906 525 
Q 2725 213 2448 61 
Q 2172 -91 1784 -91 
Q 1150 -91 751 415 
Q 353 922 353 1747 
Q 353 2572 751 3078 
Q 1150 3584 1784 3584 
Q 2172 3584 2448 3432 
Q 2725 3281 2906 2969 
z
M 947 1747 
Q 947 1113 1208 752 
Q 1469 391 1925 391 
Q 2381 391 2643 752 
Q 2906 1113 2906 1747 
Q 2906 2381 2643 2742 
Q 2381 3103 1925 3103 
Q 1469 3103 1208 2742 
Q 947 2381 947 1747 
z
" transform="scale(0.015625)"/>
       <path id="DejaVuSans-42" d="M 1259 2228 
L 1259 519 
L 2272 519 
Q 2781 519 3026 730 
Q 3272 941 3272 1375 
Q 3272 1813 3026 2020 
Q 2781 2228 2272 2228 
L 1259 2228 
z
M 1259 4147 
L 1259 2741 
L 2194 2741 
Q 2656 2741 2882 2914 
Q 3109 3088 3109 3444 
Q 3109 3797 2882 3972 
Q 2656 4147 2194 4147 
L 1259 4147 
z
M 628 4666 
L 2241 4666 
Q 2963 4666 3353 4366 
Q 3744 4066 3744 3513 
Q 3744 3084 3544 2831 
Q 3344 2578 2956 2516 
Q 3422 2416 3680 2098 
Q 3938 1781 3938 1306 
Q 3938 681 3513 340 
Q 3088 0 2303 0 
L 628 0 
L 628 4666 
z
" transform="scale(0.015625)"/>
       <path id="DejaVuSans-2f" d="M 1625 4666 
L 2156 4666 
L 531 -594 
L 0 -594 
L 1625 4666 
z
" transform="scale(0.015625)"/>
      </defs>
      <use xlink:href="#DejaVuSans-50"/>
      <use xlink:href="#DejaVuSans-68" x="60.302734"/>
      <use xlink:href="#DejaVuSans-61" x="123.681641"/>
      <use xlink:href="#DejaVuSans-73" x="184.960938"/>
      <use xlink:href="#DejaVuSans-65" x="237.060547"/>
      <use xlink:href="#DejaVuSans-20" x="298.583984"/>
      <use xlink:href="#DejaVuSans-6e" x="330.371094"/>
      <use xlink:href="#DejaVuSans-6f" x="393.75"/>
      <use xlink:href="#DejaVuSans-69" x="454.931641"/>
      <use xlink:href="#DejaVuSans-73" x="482.714844"/>
      <use xlink:href="#DejaVuSans-65" x="534.814453"/>
      <use xlink:href="#DejaVuSans-20" x="596.337891"/>
      <use xlink:href="#DejaVuSans-5b" x="628.125"/>
      <use xlink:href="#DejaVuSans-64" x="667.138672"/>
      <use xlink:href="#DejaVuSans-42" x="730.615234"/>
      <use xlink:href="#DejaVuSans-63" x="799.21875"/>
      <use xlink:href="#DejaVuSans-2f" x="854.199219"/>
      <use xlink:href="#DejaVuSans-48" x="887.890625"/>
      <use xlink:href="#DejaVuSans-7a" x="963.085938"/>
      <use xlink:href="#DejaVuSans-5d" x="1015.576172"/>
     </g>
    </g>
   </g>
   <g id="line2d_50">
    <path d="M 398.487273 279.835836 
L 398.133009 278.069518 
L 397.775149 279.218235 
L 397.413619 277.99412 
L 397.048342 279.306939 
L 396.67924 278.39994 
L 396.306232 279.523155 
L 395.929234 279.910126 
L 395.162923 282.848446 
L 394.773428 281.833894 
L 393.981285 278.395505 
L 393.170929 281.039993 
L 392.758656 281.678662 
L 391.919356 279.769308 
L 391.492092 278.7603 
L 391.059584 278.840134 
L 390.621704 280.491137 
L 390.178315 283.03916 
L 389.729278 282.080048 
L 389.274447 280.420174 
L 388.81367 279.309156 
L 388.346791 279.312483 
L 387.873644 279.726065 
L 387.394059 279.543113 
L 386.907859 282.085592 
L 386.414859 282.066742 
L 385.914866 281.104304 
L 384.893087 278.556281 
L 384.370871 279.826966 
L 383.840802 279.373467 
L 383.30264 279.728283 
L 381.637027 276.915257 
L 381.063862 276.326484 
L 380.481221 276.103616 
L 379.888789 278.549628 
L 378.673188 280.375822 
L 378.049297 280.834865 
L 377.414164 280.66411 
L 376.767377 282.991481 
L 376.1085 280.986771 
L 375.437071 280.644152 
L 374.752605 279.117334 
L 374.054584 280.227243 
L 373.34246 279.585248 
L 372.615652 279.181644 
L 371.873543 277.916504 
L 371.115472 279.609641 
L 370.340739 277.547273 
L 369.548595 276.886428 
L 368.73824 275.40618 
L 367.908815 277.150323 
L 367.059402 277.325513 
L 366.189015 277.867716 
L 365.296589 276.607011 
L 364.380981 276.480608 
L 363.440954 275.767649 
L 362.47517 277.470766 
L 361.482177 278.45538 
L 360.460398 279.714977 
L 359.408113 279.371249 
L 358.323446 278.290169 
L 357.204338 276.987329 
L 354.853539 275.574718 
L 353.616608 274.580124 
L 352.334688 275.133416 
L 351.004382 277.039443 
L 349.621895 278.684902 
L 348.182963 277.101536 
L 346.682783 275.843048 
L 345.115906 275.237643 
L 343.476126 275.703339 
L 341.756325 275.236534 
L 339.948292 275.298627 
L 338.042481 275.103478 
L 336.027709 275.155592 
L 333.890756 273.422537 
L 329.183919 268.577081 
L 326.571693 266.579024 
L 323.750274 266.730929 
L 323.455302 267.093507 
L 323.157841 267.946174 
L 322.555281 268.24555 
L 322.15802 268.105841 
L 322.034879 267.961697 
L 321.818343 268.746728 
L 321.600468 268.785536 
L 321.50668 268.059272 
L 321.349808 267.318593 
L 321.192236 267.359619 
L 321.097353 267.907366 
L 321.033956 267.860796 
L 320.843077 267.761004 
L 320.61907 268.539382 
L 320.586952 268.556014 
L 320.425925 267.40508 
L 320.393631 267.525939 
L 320.328954 267.827532 
L 320.296571 267.5714 
L 320.16674 266.212011 
L 320.003777 263.910142 
L 319.93838 263.291432 
L 319.708531 261.207996 
L 319.41079 261.774593 
L 319.076991 264.527744 
L 319.009851 264.478956 
L 318.706124 262.177088 
L 318.638272 262.172652 
L 318.399758 261.520678 
L 318.365552 261.504046 
L 318.021658 262.282424 
L 317.987083 262.279097 
L 317.778919 263.202728 
L 317.709257 263.167246 
L 317.604506 263.207163 
L 317.429225 262.365584 
L 317.394064 262.408827 
L 317.28837 265.231832 
L 316.93375 263.359068 
L 316.575526 262.539665 
L 316.213624 260.738974 
L 315.847968 262.403283 
L 315.478479 262.552971 
L 315.105076 263.581937 
L 314.34619 259.670091 
L 313.96053 260.143548 
L 313.570605 262.099472 
L 313.176317 265.174174 
L 312.77757 263.890184 
L 312.37426 263.387897 
L 311.966282 261.430865 
L 311.553526 262.028508 
L 310.285442 255.196083 
L 309.852404 255.67952 
L 309.413979 255.708348 
L 308.970032 256.301556 
L 308.520422 255.740504 
L 308.065003 254.663859 
L 307.603623 254.022972 
L 307.136124 254.719299 
L 306.662341 255.794835 
L 306.182103 256.287142 
L 305.695232 255.729416 
L 305.201542 254.285758 
L 304.700838 254.011884 
L 304.19292 254.124982 
L 303.677576 252.862059 
L 303.154585 250.436004 
L 302.623718 250.111126 
L 302.084733 251.204403 
L 301.537379 251.990542 
L 300.981391 251.469406 
L 299.258788 249.093248 
L 298.665358 247.371281 
L 298.061766 248.229492 
L 297.447657 248.246124 
L 296.82266 247.690616 
L 295.538405 242.137745 
L 294.878293 243.374057 
L 294.205583 243.985006 
L 293.519785 245.592766 
L 292.820379 246.739265 
L 292.106814 246.203715 
L 291.378504 245.940929 
L 290.634829 242.864009 
L 289.875124 242.52139 
L 289.098685 242.41938 
L 288.304757 244.878699 
L 287.492534 245.394291 
L 286.661153 244.793321 
L 285.809688 244.996232 
L 284.937146 245.885489 
L 284.042455 243.559227 
L 283.124462 238.913355 
L 282.181922 236.362006 
L 281.213484 235.2399 
L 280.217686 236.832137 
L 279.192936 236.673579 
L 278.1375 237.815643 
L 277.049484 236.213427 
L 275.926812 232.557713 
L 274.767203 230.981 
L 271.040258 229.855568 
L 269.704912 228.408584 
L 268.31698 228.342056 
L 266.87215 226.781974 
L 263.791682 225.440326 
L 262.144237 225.072204 
L 260.416002 224.361464 
L 260.238426 224.042129 
L 260.05995 224.097569 
L 259.880566 224.404707 
L 259.700264 225.166452 
L 259.519035 225.27955 
L 259.33687 224.668601 
L 258.598645 219.634649 
L 258.034651 217.401526 
L 257.844629 217.469163 
L 257.653577 218.2298 
L 257.461485 218.471518 
L 257.26834 218.241996 
L 257.07413 218.446016 
L 256.878845 219.066944 
L 256.682471 220.375328 
L 256.484998 220.139153 
L 256.086701 219.258766 
L 255.885852 218.949411 
L 255.683852 218.139987 
L 255.480687 216.659739 
L 255.276345 216.352601 
L 255.070812 216.606516 
L 254.864072 216.312684 
L 254.656114 215.68843 
L 254.446921 214.392243 
L 254.236479 213.996401 
L 253.811788 214.150524 
L 253.597508 213.763553 
L 253.381918 213.084968 
L 253.165 212.914212 
L 252.94674 213.099382 
L 252.283732 214.312409 
L 251.608013 209.53459 
L 251.379864 210.24644 
L 250.919087 210.558012 
L 250.405177 209.036739 
L 250.287327 207.726137 
L 250.240076 207.746096 
L 249.97906 205.76467 
L 249.955235 205.79239 
L 249.764054 207.52988 
L 249.716096 207.476657 
L 249.475324 203.42732 
L 249.402771 203.947347 
L 249.232896 204.928635 
L 249.18421 204.995163 
L 249.135456 204.910894 
L 249.111054 204.852128 
L 249.086635 205.045059 
L 249.013276 206.375619 
L 248.866098 208.011099 
L 248.841509 207.986705 
L 248.816902 207.962312 
L 248.792279 208.070974 
L 248.742979 208.273884 
L 248.693611 208.245056 
L 248.569887 207.413456 
L 248.495444 207.605278 
L 248.445727 207.86252 
L 248.321129 206.396686 
L 248.271166 206.425515 
L 248.171027 204.784491 
L 248.020283 203.830923 
L 247.894168 203.554832 
L 247.868891 203.646862 
L 247.767601 204.408608 
L 247.538629 205.803478 
L 247.513095 205.73695 
L 247.102025 202.367307 
L 246.972576 201.402651 
L 246.842649 202.232033 
L 246.764463 203.113529 
L 246.712243 203.089136 
L 246.449973 200.87708 
L 246.423638 200.96024 
L 246.344516 201.52351 
L 246.318102 201.721985 
L 246.265216 201.398216 
L 246.106078 200.795028 
L 245.999586 200.46128 
L 245.972912 200.530025 
L 245.919505 200.955804 
L 245.866016 201.53238 
L 245.812447 201.150953 
L 245.785631 200.992395 
L 245.705062 201.08886 
L 245.624309 201.264051 
L 245.244993 204.457395 
L 245.217742 204.471809 
L 244.944069 206.502022 
L 244.889078 206.158294 
L 244.695933 203.980611 
L 244.668254 203.947347 
L 244.640554 204.034942 
L 244.557321 204.405281 
L 244.501724 204.230091 
L 244.334403 203.664603 
L 244.306438 203.738892 
L 244.194359 204.003896 
L 244.138186 203.893016 
L 243.969126 201.969248 
L 243.94087 201.986988 
L 243.799251 202.513668 
L 243.628554 203.136814 
L 243.57147 203.378532 
L 243.514295 203.145684 
L 243.255849 199.774932 
L 243.111445 199.114088 
L 243.082493 199.114088 
L 242.937376 199.483318 
L 242.908281 199.442292 
L 242.879162 199.401267 
L 242.645337 196.360937 
L 242.586638 196.383113 
L 242.083707 200.428016 
L 241.96432 200.057676 
L 241.814516 199.74943 
L 241.784479 199.679576 
L 241.543253 196.258928 
L 241.452366 197.07944 
L 241.330818 197.946521 
L 241.300366 197.916584 
L 241.20885 197.897734 
L 240.809511 193.012361 
L 240.71671 193.107718 
L 240.592594 193.339457 
L 240.561497 193.272929 
L 240.499219 192.910352 
L 240.311725 192.276118 
L 240.280378 192.271683 
L 239.902032 193.529062 
L 239.67944 191.640776 
L 239.647526 191.690672 
L 239.583612 191.825945 
L 239.100522 196.032732 
L 238.938009 195.788796 
L 238.905416 195.826496 
L 238.709225 196.258928 
L 238.643585 196.323238 
L 238.08065 190.096217 
L 237.846214 191.155121 
L 237.610209 193.269603 
L 237.508578 193.340566 
L 237.406654 192.877088 
L 237.33854 192.970227 
L 237.270294 193.070019 
L 236.995982 188.619296 
L 236.927069 188.701347 
L 236.788838 188.270024 
L 236.510738 186.346256 
L 236.300714 184.017776 
L 236.230427 183.922419 
L 236.124733 194.356781 
L 235.769757 192.855466 
L 235.41117 188.953599 
L 235.048897 189.633293 
L 234.312986 193.391016 
L 233.179485 182.148893 
L 232.793404 182.239815 
L 232.403047 180.836074 
L 232.008319 183.194492 
L 231.20535 181.525748 
L 230.7969 181.438152 
L 230.383661 180.744044 
L 229.965521 181.401562 
L 229.54236 181.30177 
L 229.114058 180.061023 
L 228.680488 177.8279 
L 228.241518 172.801709 
L 227.797012 173.101085 
L 227.346829 172.37593 
L 226.890823 174.112311 
L 225.960721 168.641492 
L 225.486301 166.928396 
L 225.005409 168.937541 
L 224.517866 169.760271 
L 224.023485 169.337818 
L 223.522071 168.444125 
L 223.013421 168.133661 
L 222.497323 168.455213 
L 221.973557 167.924098 
L 221.441891 168.572746 
L 220.902082 166.264224 
L 219.797013 160.525076 
L 219.23121 159.23665 
L 218.656176 159.704564 
L 217.477176 157.525772 
L 216.872551 154.106232 
L 214.99384 156.964719 
L 214.344673 151.497226 
L 213.009332 151.122452 
L 212.322199 154.814756 
L 211.621405 152.25121 
L 211.549916 152.333261 
L 211.478281 149.84844 
L 211.4065 151.839845 
L 211.190277 148.546709 
L 210.972719 151.564863 
L 210.75381 146.988845 
L 210.680537 146.551978 
L 210.607112 146.744909 
L 210.533533 147.784964 
L 210.459801 150.407276 
L 210.385914 150.390644 
L 210.311871 150.194386 
L 210.088806 145.358909 
L 210.014137 145.152672 
L 209.939308 144.142556 
L 209.713866 148.21296 
L 209.486972 146.170551 
L 209.258608 150.694455 
L 209.182157 149.292932 
L 209.105539 149.859528 
L 209.028755 150.626818 
L 208.951803 150.238738 
L 208.797393 145.896677 
L 208.642304 147.331464 
L 208.408384 145.024052 
L 208.015033 148.109842 
L 207.935834 148.154194 
L 207.776898 150.083506 
L 207.697161 149.217533 
L 207.537144 143.121351 
L 207.456862 143.181226 
L 207.376397 141.450389 
L 207.295747 144.04609 
L 207.214913 143.032647 
L 206.971292 148.249551 
L 206.88971 150.102356 
L 206.396209 143.947407 
L 206.313282 144.095986 
L 206.063327 142.458288 
L 205.979613 140.774021 
L 205.811587 142.208808 
L 205.473111 149.779695 
L 204.959225 137.916644 
L 204.872844 138.628493 
L 204.786251 138.118445 
L 204.699445 138.393428 
L 204.612424 136.769036 
L 204.350066 142.688919 
L 204.174069 139.023226 
L 204.08574 139.874784 
L 203.908416 137.731474 
L 203.819418 134.80646 
L 203.640745 137.382202 
L 203.461161 141.409364 
L 203.371026 141.162101 
L 203.280659 139.850391 
L 203.190059 139.953509 
L 203.099227 139.137432 
L 202.825316 140.745192 
L 202.733537 141.652191 
L 202.549259 139.650807 
L 202.271024 136.388717 
L 201.990575 134.551436 
L 201.896594 134.27978 
L 201.707877 132.822816 
L 201.613138 133.918311 
L 201.327384 140.628768 
L 200.942739 132.777356 
L 200.748831 134.114568 
L 200.651476 133.982621 
L 200.553851 132.378188 
L 200.357786 134.09461 
L 200.259343 137.470906 
L 200.160624 135.521636 
L 200.061628 135.824338 
L 199.962353 135.666888 
L 199.562434 140.970279 
L 199.461741 140.621007 
L 199.157926 128.449709 
L 198.953917 131.34146 
L 198.851469 131.195098 
L 198.645674 129.434324 
L 198.334711 138.262589 
L 198.02098 134.144506 
L 197.810264 134.464949 
L 197.704432 133.867306 
L 197.277896 128.988586 
L 197.170451 128.527325 
L 197.062677 128.821157 
L 196.737365 133.440418 
L 196.51881 135.16682 
L 196.077592 129.938828 
L 195.966419 128.99413 
L 195.854894 129.112772 
L 195.405234 137.284628 
L 195.064183 131.365853 
L 194.949762 132.983592 
L 194.834969 132.970287 
L 194.37202 127.269946 
L 194.255327 127.394132 
L 194.020774 128.888794 
L 193.614175 132.087682 
L 193.601209 131.34146 
L 193.575262 129.412148 
L 193.484297 129.791357 
L 193.419178 128.354352 
L 193.393097 129.399951 
L 193.380049 130.189416 
L 193.327809 127.819911 
L 193.30166 128.260104 
L 193.144357 135.119141 
L 193.104921 133.482552 
L 193.065441 129.572924 
L 192.986349 131.532173 
L 192.973149 131.74728 
L 192.959945 130.233768 
L 192.854132 125.382768 
L 192.827629 125.677709 
L 192.787837 130.760448 
L 192.708119 128.25456 
L 192.561498 130.095168 
L 192.548138 129.701544 
L 192.414265 125.761978 
L 192.400849 127.279925 
L 192.32025 131.55324 
L 192.293342 130.289208 
L 192.239465 125.60342 
L 192.172003 127.221159 
L 192.144982 127.632524 
L 192.11794 126.93398 
L 192.050245 123.443477 
L 191.995995 124.627676 
L 191.955253 129.208128 
L 191.873626 126.725525 
L 191.709805 129.568488 
L 191.572703 122.344656 
L 191.503951 124.571127 
L 191.407473 127.951858 
L 191.366044 127.283252 
L 191.324567 126.02809 
L 191.269187 126.387341 
L 191.227596 129.773616 
L 191.130357 128.664816 
L 191.102526 129.979853 
L 191.074672 128.474103 
L 190.949057 116.654295 
L 190.921082 120.127056 
L 190.851046 124.13426 
L 190.780871 123.950199 
L 190.766819 123.941328 
L 190.668299 130.39898 
L 190.6401 127.808823 
L 190.583634 125.34396 
L 190.541225 128.013951 
L 190.527078 127.531623 
L 190.47043 128.154768 
L 190.413691 126.84084 
L 190.385288 127.495032 
L 190.356861 126.860799 
L 190.257187 122.099612 
L 190.214383 123.877018 
L 190.200104 123.878127 
L 190.099985 127.734533 
L 190.071328 125.519151 
L 190.05699 124.42033 
L 189.970842 125.705429 
L 189.942079 125.705429 
L 189.783462 122.278128 
L 189.769007 122.11957 
L 189.740079 122.509868 
L 189.725606 122.494344 
L 189.56601 125.138832 
L 189.551465 124.601064 
L 189.522358 123.490047 
L 189.478652 125.34396 
L 189.317931 131.727322 
L 189.28863 129.649431 
L 189.171183 125.112221 
L 189.156474 125.571264 
L 189.068094 128.682557 
L 189.038585 127.399676 
L 188.935107 122.69282 
L 188.905486 123.100858 
L 188.861008 126.525941 
L 188.786753 125.098916 
L 188.727236 124.12428 
L 188.622839 120.3089 
L 188.578002 120.900999 
L 188.533109 126.101271 
L 188.44315 124.04112 
L 188.368008 119.621444 
L 188.307779 121.603978 
L 188.26254 123.964613 
L 188.217243 120.73357 
L 188.156755 119.184576 
L 188.126473 120.769052 
L 187.944229 129.296832 
L 187.913763 127.166828 
L 187.761038 118.207724 
L 187.730413 119.407445 
L 187.63838 122.804808 
L 187.592272 127.77445 
L 187.530702 123.396908 
L 187.376305 120.232392 
L 187.360828 119.885338 
L 187.329853 121.491989 
L 187.314356 121.585128 
L 187.28334 119.817701 
L 187.252298 123.583186 
L 187.236766 124.699748 
L 187.159005 122.566416 
L 187.143433 122.23932 
L 187.112266 123.492264 
L 187.065466 122.84916 
L 186.971677 125.07674 
L 186.956021 124.2906 
L 186.86194 116.088807 
L 186.783347 120.053876 
L 186.625634 125.236407 
L 186.609823 124.459138 
L 186.578182 121.8335 
L 186.498953 123.17293 
L 186.483086 123.101967 
L 186.467211 123.280484 
L 186.403643 124.400372 
L 186.371815 123.536616 
L 186.228235 119.996218 
L 186.212245 120.793445 
L 186.196248 121.590672 
L 186.116155 120.471893 
L 186.100115 119.722344 
L 186.05195 121.650548 
L 186.03588 121.650548 
L 186.019803 121.650548 
L 185.745365 116.653186 
L 185.729155 117.465936 
L 185.599205 123.396908 
L 185.566643 122.984434 
L 185.436091 120.109316 
L 185.272218 117.10225 
L 185.173528 125.03904 
L 185.124079 121.679376 
L 185.041509 121.929965 
L 184.991875 118.767668 
L 184.892395 122.828093 
L 184.859173 121.062884 
L 184.84255 120.463023 
L 184.792634 121.432114 
L 184.742647 125.154356 
L 184.675888 122.315828 
L 184.525215 117.168778 
L 184.424408 115.757276 
L 184.407579 115.806063 
L 184.373896 117.6755 
L 184.289548 116.212992 
L 184.171121 111.837668 
L 184.154171 112.339954 
L 183.933067 119.03378 
L 183.796311 115.970165 
L 183.74489 116.784024 
L 183.693394 118.29421 
L 183.659021 116.704191 
L 183.641823 116.2895 
L 183.6074 117.050136 
L 183.590176 117.050136 
L 183.538453 119.238908 
L 183.503929 116.336069 
L 183.486655 115.399133 
L 183.417471 116.983608 
L 183.243917 123.309312 
L 183.348152 116.195252 
L 183.226514 122.457754 
L 183.191683 118.683399 
L 183.086983 118.921791 
L 182.841467 125.056781 
L 182.771005 123.915826 
L 182.629655 115.590956 
L 182.558768 116.339396 
L 182.487737 120.486308 
L 182.43437 119.034888 
L 182.416563 119.213405 
L 182.291662 113.102808 
L 182.255894 114.018677 
L 182.202175 120.265656 
L 182.130421 116.541197 
L 182.040523 120.389842 
L 181.96844 118.816455 
L 181.769446 111.55825 
L 181.7513 112.834479 
L 181.642226 115.627546 
L 181.624014 115.299341 
L 181.605793 114.971136 
L 181.587563 115.792757 
L 181.569323 116.614378 
L 181.532814 114.184997 
L 181.459684 110.835312 
L 181.404736 112.243488 
L 181.368056 110.063588 
L 181.294583 110.583615 
L 181.165635 120.05942 
L 181.128705 116.713061 
L 181.036213 114.648476 
L 181.017685 115.194005 
L 180.999148 115.739535 
L 180.943477 114.503223 
L 180.9249 114.853604 
L 180.906314 114.960048 
L 180.887718 114.716112 
L 180.869112 114.472176 
L 180.850496 115.339258 
L 180.71991 121.846805 
L 180.626337 121.058448 
L 180.532515 115.622002 
L 180.438442 115.85485 
L 180.325223 117.501418 
L 180.306318 117.014655 
L 180.211639 115.207311 
L 180.192673 115.944663 
L 180.059622 119.193447 
L 180.040573 118.988319 
L 179.868674 115.879244 
L 179.811187 117.755333 
L 179.734392 117.472589 
L 179.522339 110.071349 
L 179.502998 110.857488 
L 179.444911 114.502336 
L 177.62102 113.115892 
L 177.435009 113.889835 
L 177.248012 114.191428 
L 177.060017 116.587545 
L 176.871014 114.92878 
L 176.489941 113.619288 
L 176.297848 113.645899 
L 176.104703 115.741531 
L 175.715208 116.338065 
L 175.518835 113.52504 
L 175.122776 112.400716 
L 174.722215 116.055321 
L 174.520215 116.432313 
L 174.112709 112.002657 
L 173.907175 111.20543 
L 173.492477 111.261979 
L 172.861136 105.876537 
L 172.218281 112.516032 
L 172.001364 112.93294 
L 171.783104 111.237585 
L 171.563484 111.354009 
L 171.342487 110.04119 
L 170.896292 105.958588 
L 170.671058 106.000723 
L 170.216227 108.637449 
L 169.986592 108.256022 
L 169.75545 107.224838 
L 169.522784 107.005296 
L 169.288571 105.674736 
L 169.052791 106.517424 
L 168.815424 106.832323 
L 168.576447 106.956508 
L 168.335839 107.314651 
L 168.093577 105.374251 
L 167.849639 107.255884 
L 167.356639 105.297744 
L 167.107529 103.733227 
L 166.856646 105.185755 
L 166.603965 107.805849 
L 166.093102 104.640225 
L 165.834867 103.54584 
L 165.574726 105.485131 
L 165.048613 103.703289 
L 164.782582 103.329624 
L 164.514528 104.978409 
L 164.24442 104.509387 
L 163.697915 101.911468 
L 163.421451 101.70634 
L 163.142802 103.242028 
L 162.861933 102.506894 
L 162.005642 104.15568 
L 161.715525 104.225534 
L 161.423001 101.871552 
L 161.12803 101.700796 
L 160.830569 101.762889 
L 160.228008 102.596707 
L 159.922821 102.114379 
L 159.614968 98.779108 
L 159.304403 97.446331 
L 158.991077 97.62263 
L 158.674941 100.317014 
L 158.355944 98.918817 
L 158.034034 98.483059 
L 157.709157 100.180632 
L 157.381258 100.386868 
L 157.05028 99.641755 
L 156.716164 98.11272 
L 156.038279 98.043974 
L 155.694385 96.22776 
L 155.347102 96.30094 
L 154.996364 95.439403 
L 154.6421 97.183545 
L 154.28424 97.905374 
L 153.922709 98.30676 
L 153.557432 96.000456 
L 153.18833 95.382854 
L 152.438325 98.198097 
L 152.057252 96.54155 
L 151.672014 92.111894 
L 151.282519 90.473088 
L 150.888673 91.188264 
L 150.490375 93.056592 
L 149.68002 91.870176 
L 149.267747 91.896787 
L 148.850595 92.666294 
L 148.428447 93.107596 
L 148.001182 92.03206 
L 147.568675 92.029843 
L 147.130795 91.039684 
L 146.687406 91.925616 
L 146.238369 91.194916 
L 145.783538 91.65396 
L 144.855881 88.348627 
L 144.382734 88.248835 
L 143.90315 88.343083 
L 143.41695 89.821113 
L 142.92395 88.738924 
L 142.423957 87.288614 
L 141.91677 86.345025 
L 141.402178 86.29402 
L 140.879962 86.947104 
L 140.349893 86.093328 
L 139.811731 83.693884 
L 139.265226 83.788132 
L 138.710113 84.515505 
L 138.146118 86.587852 
L 137.572952 86.424859 
L 136.990312 84.812664 
L 136.39788 86.061172 
L 135.182279 90.438715 
L 134.558388 89.844398 
L 133.923255 87.943915 
L 133.276468 86.652163 
L 131.946162 86.34946 
L 131.261696 86.478081 
L 130.563675 86.787436 
L 129.851551 85.920355 
L 129.124743 85.807257 
L 128.382633 84.0864 
L 127.624563 84.913564 
L 126.84983 82.821259 
L 126.057686 82.924377 
L 125.247331 83.173857 
L 124.417906 85.58328 
L 123.568493 84.41904 
L 122.698105 84.160689 
L 121.80568 83.057433 
L 120.890072 86.41488 
L 119.950045 87.749875 
L 118.984261 88.060339 
L 117.991268 84.225 
L 116.969489 81.549465 
L 115.917204 82.128259 
L 114.832536 85.717444 
L 113.713429 88.757774 
L 112.557623 88.140172 
L 111.36263 87.021393 
L 110.125699 87.703305 
L 108.843779 87.921739 
L 107.513473 87.702196 
L 106.130985 87.240936 
L 104.692054 88.80767 
L 99.985217 89.113699 
L 98.265416 90.232478 
L 97.732677 92.120764 
L 97.553293 92.158464 
L 97.191762 90.397689 
L 96.642417 85.202961 
L 96.457383 84.560966 
L 96.271373 84.55764 
L 96.084375 85.72188 
L 95.134212 96.147926 
L 94.941067 96.141273 
L 94.746857 96.611404 
L 93.959139 91.306905 
L 93.558579 93.027763 
L 93.153415 96.07031 
L 92.949072 95.882923 
L 92.5368 94.52686 
L 92.328841 94.735315 
L 91.6975 90.275721 
L 91.484515 90.536289 
L 91.270235 90.062832 
L 90.837728 90.94211 
L 90.619467 91.841347 
L 90.399847 91.720488 
L 90.17885 91.461028 
L 89.956459 91.851326 
L 89.732655 93.365947 
L 88.822955 101.915904 
L 88.591814 102.86171 
L 88.124934 100.470028 
L 87.651787 100.84702 
L 87.412811 100.798233 
L 87.172203 100.481116 
L 86.929941 99.670584 
L 86.440365 97.454092 
L 86.193003 97.846608 
L 85.943893 99.686107 
L 85.440329 99.690542 
L 85.185823 99.196017 
L 84.41109 100.723944 
L 84.149015 100.346952 
L 83.618946 95.233166 
L 83.350892 93.958046 
L 82.80859 94.465876 
L 82.257815 93.358185 
L 81.979166 92.511062 
L 81.698296 92.393529 
L 81.129753 93.116467 
L 80.842005 92.363592 
L 80.551889 90.612796 
L 80.259365 90.142665 
L 79.964393 90.537398 
L 79.666932 91.682788 
L 78.759185 89.811134 
L 78.451332 91.576344 
L 78.140767 92.506627 
L 77.827441 92.953473 
L 77.511305 91.823606 
L 77.192308 91.625131 
L 76.870398 96.032611 
L 76.708334 95.084587 
L 76.545521 95.58022 
L 76.381952 94.306209 
L 76.217622 95.783131 
L 76.184663 95.775369 
L 76.052521 95.759846 
L 75.919881 97.033857 
L 75.753377 95.021385 
L 75.586082 97.166913 
L 75.41799 95.633443 
L 75.384275 95.644531 
L 75.249092 95.666707 
L 75.079381 94.934899 
L 74.908849 95.826374 
L 74.737488 95.407248 
L 74.530748 96.944044 
L 74.426922 96.944044 
L 74.253197 98.813481 
L 74.07861 96.74446 
L 74.043589 96.755548 
L 73.832727 96.777724 
L 73.832727 96.777724 
" clip-path="url(#pd79dd7e4ad)" style="fill: none; stroke: #ff0000; stroke-width: 1.5; stroke-linecap: square"/>
   </g>
   <g id="line2d_51">
    <path d="M 398.487273 299.054667 
L 398.133009 298.597841 
L 397.775149 298.627779 
L 397.413619 298.9959 
L 397.048342 298.861736 
L 396.67924 297.807267 
L 396.306232 296.395764 
L 395.548161 295.869084 
L 395.162923 297.457995 
L 394.379582 298.791881 
L 393.981285 297.791744 
L 393.578435 297.112049 
L 392.758656 298.399366 
L 392.341504 299.398395 
L 391.919356 299.762081 
L 391.492092 299.64344 
L 391.059584 300.312046 
L 390.621704 300.169011 
L 390.178315 300.29874 
L 389.729278 299.182179 
L 389.274447 300.44732 
L 388.81367 300.784395 
L 388.346791 301.606016 
L 387.394059 298.214196 
L 386.907859 297.688625 
L 386.414859 298.163192 
L 385.914866 299.639004 
L 385.407679 300.396315 
L 384.893087 300.1047 
L 384.370871 298.828472 
L 383.840802 297.084329 
L 383.30264 296.516624 
L 382.756135 296.266035 
L 382.201022 297.032216 
L 381.637027 296.106368 
L 381.063862 296.48336 
L 380.481221 295.6695 
L 379.888789 296.416832 
L 379.286228 296.656332 
L 378.673188 297.744065 
L 378.049297 297.90595 
L 377.414164 298.46922 
L 376.767377 297.196318 
L 376.1085 297.829443 
L 375.437071 297.113158 
L 374.752605 297.321612 
L 374.054584 296.901377 
L 373.34246 296.152937 
L 372.615652 297.299436 
L 371.873543 297.22182 
L 371.115472 298.304009 
L 369.548595 294.872273 
L 368.73824 293.418636 
L 367.908815 294.318982 
L 367.059402 296.441225 
L 366.189015 296.943512 
L 365.296589 294.703736 
L 363.440954 294.179273 
L 362.47517 294.589529 
L 361.482177 292.839843 
L 360.460398 291.304155 
L 359.408113 291.306372 
L 358.323446 290.991473 
L 357.204338 292.72231 
L 356.048532 292.493897 
L 354.853539 290.48586 
L 353.616608 286.7991 
L 352.334688 285.540612 
L 351.004382 287.036384 
L 349.621895 288.328136 
L 348.182963 287.70499 
L 346.682783 286.45759 
L 345.115906 286.687112 
L 343.476126 285.174708 
L 339.948292 282.5402 
L 338.042481 283.049139 
L 336.027709 282.588987 
L 333.890756 280.528836 
L 331.615843 277.501812 
L 329.183919 275.537019 
L 326.571693 274.194262 
L 323.750274 274.6023 
L 323.455302 275.259819 
L 323.157841 275.300844 
L 322.857849 274.912764 
L 322.555281 273.839446 
L 322.250094 273.81727 
L 322.034879 275.233208 
L 322.004027 274.821843 
L 321.7873 272.792739 
L 321.475361 273.848316 
L 321.349808 274.696548 
L 321.129009 272.624201 
L 320.843077 271.416718 
L 320.651158 272.250536 
L 320.586952 272.281582 
L 320.328954 270.3057 
L 320.134208 270.140489 
L 320.069053 270.096137 
L 319.807221 268.359756 
L 319.741458 268.639174 
L 319.708531 268.778883 
L 319.675572 268.619216 
L 319.210891 266.886161 
L 319.177463 266.886161 
L 318.807657 264.111944 
L 318.706124 264.399123 
L 318.638272 264.787203 
L 318.57029 264.538832 
L 318.536249 264.414646 
L 318.46807 264.55879 
L 318.365552 265.292816 
L 318.297041 265.119843 
L 318.262736 265.033356 
L 318.228397 265.12206 
L 318.125179 265.636544 
L 317.952474 266.528019 
L 317.883155 266.543542 
L 317.813699 266.931622 
L 317.778919 266.88727 
L 317.709257 266.410486 
L 317.639458 266.532454 
L 317.394064 266.852897 
L 317.323636 269.691425 
L 317.28837 268.218939 
L 316.575526 261.645972 
L 315.847968 263.693926 
L 315.478479 265.803972 
L 315.105076 266.643334 
L 314.727675 267.125662 
L 314.34619 266.732038 
L 313.96053 264.823793 
L 313.570605 264.414646 
L 313.176317 262.623934 
L 312.77757 262.62726 
L 312.37426 260.802176 
L 311.966282 260.685752 
L 311.553526 259.192198 
L 311.13588 260.470644 
L 310.713226 260.103632 
L 310.285442 258.679932 
L 309.852404 254.697123 
L 309.413979 253.419785 
L 308.970032 255.627406 
L 308.520422 259.476051 
L 308.065003 261.482979 
L 307.603623 262.61839 
L 306.662341 254.919992 
L 306.182103 250.890612 
L 305.695232 251.134548 
L 305.201542 251.575851 
L 304.700838 252.427409 
L 304.19292 252.142448 
L 303.677576 253.926507 
L 303.154585 253.403153 
L 302.623718 253.897678 
L 302.084733 253.188046 
L 301.537379 252.037112 
L 300.981391 251.385137 
L 300.416492 250.321798 
L 299.842393 250.464833 
L 299.258788 249.251806 
L 298.665358 248.614246 
L 298.061766 248.69408 
L 297.447657 249.385971 
L 296.82266 247.390131 
L 296.186381 246.578489 
L 295.538405 243.997203 
L 294.878293 243.891867 
L 294.205583 244.610369 
L 293.519785 247.329147 
L 292.820379 251.652358 
L 292.106814 250.633371 
L 291.378504 248.679665 
L 290.634829 244.964076 
L 289.875124 244.405241 
L 289.098685 245.388747 
L 288.304757 245.426446 
L 287.492534 244.782233 
L 286.661153 242.775305 
L 285.809688 243.199976 
L 284.937146 241.979187 
L 284.042455 243.358534 
L 283.124462 241.511273 
L 282.181922 239.880228 
L 281.213484 235.957294 
L 280.217686 236.041563 
L 279.192936 238.022988 
L 278.1375 238.785843 
L 277.049484 237.997486 
L 275.926812 235.977252 
L 273.568145 230.459864 
L 272.326858 229.47414 
L 271.040258 230.385574 
L 269.704912 228.71683 
L 268.31698 228.165756 
L 266.87215 226.908377 
L 265.365556 227.056956 
L 263.791682 224.849336 
L 262.144237 223.284819 
L 260.416002 222.352318 
L 260.05995 220.838806 
L 259.880566 220.638113 
L 259.700264 220.78004 
L 259.519035 221.579484 
L 259.33687 221.825638 
L 259.153758 222.931112 
L 258.598645 220.044905 
L 258.223653 220.751211 
L 258.034651 221.943171 
L 257.653577 220.512819 
L 257.26834 217.433681 
L 256.682471 214.504232 
L 256.484998 214.427724 
L 256.286412 214.531952 
L 255.885852 216.766184 
L 255.683852 218.036868 
L 255.480687 218.019128 
L 254.864072 213.940961 
L 254.656114 213.659326 
L 254.446921 212.913104 
L 254.236479 212.753436 
L 254.024773 212.772286 
L 253.811788 213.565078 
L 253.597508 213.163692 
L 253.381918 213.002916 
L 253.165 212.566049 
L 252.94674 212.633686 
L 252.283732 210.27416 
L 251.834695 207.645195 
L 251.608013 207.227177 
L 251.150228 208.54554 
L 250.68642 209.02676 
L 250.452207 209.043392 
L 250.026661 210.716571 
L 250.002869 210.739856 
L 249.811947 211.78878 
L 249.764054 211.970624 
L 249.716096 211.842003 
L 249.595916 210.644499 
L 249.57183 210.746508 
L 249.52361 210.959398 
L 249.499475 210.644499 
L 249.257214 208.831611 
L 249.208561 208.929185 
L 249.18421 209.027868 
L 249.159841 208.911444 
L 249.111054 208.48123 
L 249.037746 208.660856 
L 248.767638 210.159953 
L 248.569887 207.829256 
L 248.54509 207.851432 
L 248.520276 207.873608 
L 248.495444 207.810406 
L 248.445727 207.639651 
L 248.395941 207.730572 
L 248.145947 209.855033 
L 248.020283 208.321563 
L 247.969891 208.496753 
L 247.843596 208.874854 
L 247.818283 208.735145 
L 247.461973 206.19932 
L 247.410776 206.21706 
L 247.333841 206.349008 
L 247.282458 206.255868 
L 247.231 206.240345 
L 247.153671 205.647137 
L 247.076173 205.720318 
L 247.024412 205.740276 
L 246.555115 202.81748 
L 246.318102 201.738617 
L 246.291669 201.922678 
L 246.185737 202.301888 
L 246.132651 202.2908 
L 246.052872 201.644369 
L 245.972912 201.816233 
L 245.678165 203.426211 
L 245.624309 203.282067 
L 245.54337 203.099115 
L 245.516349 203.184492 
L 245.408057 203.737784 
L 245.272223 203.62136 
L 245.19047 203.723369 
L 244.834002 205.495232 
L 244.72359 206.581856 
L 244.640554 206.28248 
L 244.585087 206.037435 
L 244.501724 206.130574 
L 244.418163 206.380054 
L 244.194359 203.521568 
L 244.110065 203.589204 
L 243.997359 203.651297 
L 243.884291 202.155526 
L 243.628554 199.061974 
L 243.57147 199.077497 
L 243.428356 200.112008 
L 243.399664 199.773824 
L 243.053518 196.7468 
L 243.024518 196.717971 
L 242.966448 196.81111 
L 242.879162 196.99628 
L 242.850018 196.837721 
L 242.645337 195.722268 
L 242.616 195.73003 
L 242.586638 195.737792 
L 242.291666 198.605148 
L 242.232374 198.385606 
L 242.083707 197.440908 
L 242.024064 197.65158 
L 241.994205 197.546244 
L 241.93441 197.1249 
L 241.874514 197.18034 
L 241.633906 198.87126 
L 241.573497 198.920048 
L 241.543253 198.866825 
L 241.300366 198.515336 
L 241.178291 198.407782 
L 241.055793 197.19919 
L 240.871243 195.51714 
L 240.747671 195.105776 
L 240.685722 195.183392 
L 240.592594 195.112428 
L 240.499219 193.989214 
L 240.280378 191.237172 
L 240.249004 191.252696 
L 240.186172 191.406819 
L 240.091713 192.138627 
L 239.902032 192.747358 
L 239.615583 193.967038 
L 239.519581 194.677779 
L 239.455434 194.45491 
L 239.197671 191.539875 
L 239.100522 191.686236 
L 239.035606 191.619708 
L 238.970571 191.499958 
L 238.709225 189.14154 
L 238.643585 189.14154 
L 238.544894 189.592822 
L 238.478947 189.424284 
L 238.379794 188.600446 
L 238.08065 185.708696 
L 238.047254 185.765244 
L 238.013827 185.821793 
L 237.980368 185.785203 
L 237.846214 185.208627 
L 237.745263 184.331566 
L 237.6778 184.349307 
L 237.508578 184.388115 
L 237.33854 185.086659 
L 237.167677 183.962336 
L 237.133405 184.043278 
L 237.030388 184.520062 
L 236.927069 184.861572 
L 236.892562 184.710776 
L 236.719518 183.876958 
L 236.684808 183.901352 
L 236.335805 185.675432 
L 236.230427 184.690817 
L 236.124733 188.632047 
L 235.769757 189.296218 
L 235.41117 186.824703 
L 235.048897 187.786032 
L 234.682862 189.991436 
L 234.312986 189.009039 
L 233.939188 188.511188 
L 233.561383 184.023874 
L 233.179485 184.376472 
L 232.793404 183.9263 
L 232.403047 181.801839 
L 232.008319 181.272941 
L 231.609121 179.242728 
L 231.20535 181.258527 
L 230.7969 180.143074 
L 230.383661 181.155408 
L 229.965521 179.077517 
L 229.54236 179.09304 
L 229.114058 176.989647 
L 228.680488 176.803368 
L 228.241518 175.930743 
L 227.797012 177.326722 
L 227.346829 177.607248 
L 226.890823 177.121594 
L 226.428839 172.86602 
L 225.960721 169.623888 
L 225.486301 168.034978 
L 225.005409 165.987024 
L 224.517866 165.75972 
L 224.023485 162.540874 
L 223.522071 164.002272 
L 223.013421 164.219597 
L 222.497323 165.056741 
L 221.973557 164.740733 
L 221.441891 163.796036 
L 220.902082 164.861592 
L 220.353878 161.627223 
L 219.797013 161.151548 
L 219.23121 159.383012 
L 218.656176 160.7424 
L 218.071605 160.073794 
L 217.477176 158.782042 
L 216.257373 155.508864 
L 215.631268 154.809212 
L 214.99384 155.108588 
L 214.344673 153.59064 
L 213.683325 152.851071 
L 213.009332 149.593416 
L 212.322199 150.695564 
L 211.621405 150.841925 
L 211.549916 152.141439 
L 211.334573 146.33798 
L 211.190277 147.549898 
L 210.972719 152.645943 
L 210.8999 152.298888 
L 210.826931 148.707485 
L 210.75381 149.067845 
L 210.680537 147.124119 
L 210.607112 148.095428 
L 210.533533 147.504437 
L 210.459801 149.139917 
L 210.385914 148.226266 
L 210.311871 149.112197 
L 210.088806 143.264386 
L 210.014137 144.09266 
L 209.939308 143.572632 
L 209.789173 145.953226 
L 209.638396 148.030008 
L 209.562765 145.505271 
L 209.486972 145.944356 
L 209.411015 145.895568 
L 209.334894 148.257312 
L 209.258608 147.884756 
L 208.951803 145.294599 
L 208.874683 145.888916 
L 208.797393 145.396608 
L 208.719934 147.202844 
L 208.642304 146.846919 
L 208.564503 145.741445 
L 208.408384 140.460231 
L 208.330064 140.464666 
L 208.094055 141.744221 
L 208.015033 140.83057 
L 207.776898 144.172493 
L 207.697161 143.065911 
L 207.617243 143.696818 
L 207.456862 148.082122 
L 207.376397 147.078658 
L 207.214913 143.420727 
L 207.052686 147.232781 
L 206.807938 140.186357 
L 206.725976 141.138816 
L 206.643823 142.131192 
L 206.396209 148.627652 
L 206.063327 142.910679 
L 205.8957 147.405754 
L 205.642755 140.837223 
L 205.558035 142.245399 
L 205.387982 140.831679 
L 205.302647 140.576655 
L 205.217105 141.410472 
L 205.131354 140.765151 
L 205.045395 141.765288 
L 204.786251 147.302636 
L 204.699445 146.61518 
L 204.437736 139.719552 
L 204.350066 140.051084 
L 204.262178 142.141172 
L 204.174069 141.356141 
L 203.99719 141.645538 
L 203.819418 143.282127 
L 203.551067 139.565429 
L 203.461161 141.148796 
L 203.371026 140.965844 
L 203.190059 137.908882 
L 203.099227 136.049424 
L 203.008159 136.337712 
L 202.825316 137.740344 
L 202.733537 137.900012 
L 202.549259 134.512628 
L 202.456758 135.266612 
L 202.271024 139.033205 
L 202.177789 138.130642 
L 201.990575 139.603128 
L 201.707877 135.92413 
L 201.613138 137.871183 
L 201.518144 137.537434 
L 201.231616 135.285461 
L 201.135586 137.527455 
L 201.039295 137.406596 
L 200.942739 137.748106 
L 200.845919 136.620456 
L 200.748831 138.80701 
L 200.651476 138.166124 
L 200.553851 138.966677 
L 200.259343 134.076869 
L 200.061628 135.89641 
L 199.962353 135.430714 
L 199.762961 133.588997 
L 199.66284 133.63224 
L 199.562434 131.467863 
L 199.461741 133.225311 
L 199.36076 131.670773 
L 199.259489 133.441527 
L 199.157926 132.668693 
L 198.953917 135.80438 
L 198.748721 134.056911 
L 198.43867 136.011725 
L 198.334711 134.130092 
L 198.230444 134.829744 
L 197.915779 132.612144 
L 197.810264 132.7829 
L 197.704432 136.96862 
L 197.598281 136.741316 
L 197.277896 130.17722 
L 197.062677 134.78761 
L 196.954573 135.732308 
L 196.628257 129.331205 
L 196.409022 127.771124 
L 196.077592 131.71956 
L 195.854894 129.905564 
L 195.743016 130.788168 
L 195.630781 129.421018 
L 195.518188 129.84458 
L 195.291916 132.227391 
L 195.064183 130.421156 
L 194.834969 132.001196 
L 194.604255 131.78498 
L 194.488329 131.967932 
L 194.138246 127.849848 
L 194.020774 129.229196 
L 193.784651 127.772232 
L 193.640094 124.847218 
L 193.614175 125.05789 
L 193.458264 134.355178 
L 193.432212 133.921637 
L 193.288578 136.974164 
L 193.2624 136.532861 
L 193.223096 137.612832 
L 193.183749 137.053997 
L 193.157492 137.554066 
L 193.144357 135.944088 
L 193.025917 124.901549 
L 192.973149 125.136615 
L 192.774563 131.429055 
L 192.761284 131.556567 
L 192.748001 130.718314 
L 192.734712 129.880061 
L 192.668192 131.970149 
L 192.654873 132.446933 
L 192.641548 130.724967 
L 192.50803 126.569184 
L 192.467875 123.15408 
L 192.387429 124.749644 
L 192.239465 129.028503 
L 192.199003 125.811874 
L 192.144982 124.04112 
L 192.131464 125.692124 
L 192.050245 130.259271 
L 192.009565 128.231276 
L 191.995995 128.322197 
L 191.98242 127.842087 
L 191.968839 127.271055 
L 191.941661 129.826839 
L 191.860004 131.598701 
L 191.900856 129.365578 
L 191.846376 130.024205 
L 191.832742 129.478676 
L 191.778156 131.64638 
L 191.737161 129.959895 
L 191.586437 121.170437 
L 191.682427 130.534253 
L 191.545218 122.363506 
L 191.503951 126.882975 
L 191.435065 124.389284 
L 191.421272 123.55214 
L 191.379859 126.912912 
L 191.338398 124.66981 
L 191.144265 133.122192 
L 191.130357 132.352685 
L 191.03285 128.658164 
L 191.004941 129.72372 
L 190.990978 129.593991 
L 190.97701 130.467725 
L 190.949057 132.474653 
L 190.865064 131.689623 
L 190.851046 131.420184 
L 190.822993 132.065506 
L 190.780871 132.027807 
L 190.766819 132.312768 
L 190.752762 130.964468 
L 190.625992 121.20481 
L 190.583634 123.799402 
L 190.541225 125.080066 
L 190.4846 123.376949 
L 190.385288 125.795242 
L 190.371077 124.831695 
L 190.299939 123.036548 
L 190.271444 125.388312 
L 190.257187 126.966135 
L 190.214383 122.39677 
L 190.200104 123.152972 
L 190.099985 118.217703 
L 190.042647 118.416178 
L 189.985215 119.891991 
L 189.740079 129.785813 
L 189.725606 128.673687 
L 189.580548 122.800373 
L 189.56601 122.839181 
L 189.522358 121.836826 
L 189.507795 123.661911 
L 189.478652 125.957127 
L 189.405688 124.502381 
L 189.259305 117.926088 
L 189.361837 124.626567 
L 189.244633 119.580418 
L 189.185885 116.840573 
L 189.097579 124.82726 
L 189.068094 124.257336 
L 189.038585 125.282976 
L 189.023821 125.923863 
L 188.964703 124.601064 
L 188.801616 120.755746 
L 188.786753 121.609522 
L 188.771883 122.463298 
L 188.727236 120.4475 
L 188.69744 121.028511 
L 188.682532 121.028511 
L 188.503148 124.035576 
L 188.488158 123.203976 
L 188.458159 122.061912 
L 188.398084 123.024351 
L 188.307779 127.251096 
L 188.277626 124.978056 
L 188.247447 125.061216 
L 188.081 120.740223 
L 188.065829 120.679239 
L 187.89852 132.155319 
L 187.883271 128.123722 
L 187.791636 120.618255 
L 187.745729 120.784575 
L 187.684426 121.894484 
L 187.623017 119.551589 
L 187.592272 119.312088 
L 187.422695 126.839732 
L 187.407238 126.440564 
L 187.329853 123.434607 
L 187.298851 125.09448 
L 187.28334 126.427258 
L 187.236766 122.50765 
L 187.221228 122.606333 
L 187.159005 124.964751 
L 187.127853 122.404532 
L 187.112266 120.665933 
L 187.081073 123.544378 
L 187.018602 121.820194 
L 186.971677 121.337866 
L 186.86194 124.249575 
L 186.720347 120.934263 
L 186.704579 120.989703 
L 186.625634 125.768631 
L 186.578182 122.958932 
L 186.483086 119.322068 
L 186.403643 121.224768 
L 186.371815 123.03433 
L 186.339959 120.971962 
L 186.29212 121.402176 
L 186.196248 119.794416 
L 186.180244 121.218116 
L 186.148214 123.975701 
L 186.100115 121.372239 
L 185.987627 117.765312 
L 185.971528 118.992754 
L 185.939308 120.828927 
L 185.874779 118.916247 
L 185.84247 118.250967 
L 185.826304 119.879794 
L 185.793951 122.523173 
L 185.712938 120.943133 
L 185.647992 122.05526 
L 185.582928 118.586933 
L 185.55035 118.147848 
L 185.53405 118.8852 
L 185.501427 120.027264 
L 185.436091 118.500447 
L 185.419738 117.885063 
L 185.370633 119.365311 
L 185.337859 118.57141 
L 185.28864 119.222276 
L 185.272218 118.763232 
L 185.173528 114.985551 
L 185.124079 116.761848 
L 185.07456 122.874663 
L 184.991875 120.871061 
L 184.958746 119.175706 
L 184.875788 120.107098 
L 184.859173 120.652628 
L 184.825919 118.643482 
L 184.775979 116.856096 
L 184.742647 118.7466 
L 184.625735 123.69074 
L 184.59226 122.819223 
L 184.424408 120.222413 
L 184.373896 115.922487 
L 184.306434 117.734266 
L 184.272655 119.24556 
L 184.238843 116.495736 
L 184.221925 114.731636 
L 184.171121 117.282984 
L 184.137212 116.036693 
L 184.10327 118.315277 
L 184.035287 116.2518 
L 184.001247 116.349375 
L 183.881845 119.894208 
L 183.847656 117.873975 
L 183.830549 116.896013 
L 183.762038 118.90405 
L 183.710568 119.502802 
L 183.676212 121.017423 
L 183.572944 123.354773 
L 183.555703 123.169604 
L 183.538453 122.984434 
L 183.521196 123.818252 
L 183.503929 124.652069 
L 183.45208 122.92345 
L 183.417471 124.157544 
L 183.296073 121.704879 
L 183.278696 122.165031 
L 183.243917 120.301138 
L 183.156818 114.826992 
L 183.121918 116.414794 
L 182.876646 122.005364 
L 183.086983 116.241821 
L 182.806254 121.996493 
L 182.700401 119.941887 
L 182.665046 120.806751 
L 182.487737 125.090045 
L 182.327393 121.800236 
L 182.255894 121.055122 
L 182.130421 112.59276 
L 182.040523 112.983058 
L 181.860037 120.015068 
L 181.678622 125.519151 
L 181.660429 124.787343 
L 181.404736 115.666354 
L 181.386401 116.941474 
L 181.294583 121.252488 
L 181.257789 119.737868 
L 181.239377 118.390676 
L 181.220956 121.147152 
L 181.128705 127.325386 
L 181.091737 124.025597 
L 180.9249 116.254018 
L 181.036213 125.801895 
L 180.850496 117.86954 
L 180.663796 115.140783 
L 180.626337 116.218536 
L 180.588838 114.797055 
L 180.570074 114.594144 
L 180.551299 115.371413 
L 180.494916 116.281738 
L 180.457277 115.039882 
L 180.325223 109.712098 
L 180.173696 112.069407 
L 180.154709 111.580426 
L 179.983367 108.931503 
L 179.887815 113.534132 
L 179.849522 116.089916 
L 179.792004 112.313343 
L 179.77281 111.369754 
L 179.695932 111.4008 
L 179.522339 116.448058 
L 179.502998 115.515557 
L 179.483646 114.583056 
L 179.444911 114.820561 
L 177.62102 114.076113 
L 177.248012 112.42511 
L 177.060017 113.286648 
L 176.871014 113.482905 
L 176.489941 117.067656 
L 176.297848 116.191704 
L 176.104703 116.08415 
L 175.910494 112.649088 
L 175.715208 112.157889 
L 175.518835 110.851723 
L 175.321362 111.582422 
L 175.122776 111.724348 
L 174.923065 112.446177 
L 174.722215 110.985888 
L 174.520215 111.309657 
L 174.317051 109.093166 
L 174.112709 108.927955 
L 173.907175 109.14528 
L 173.700436 110.264059 
L 173.492477 112.635782 
L 173.283284 112.329753 
L 172.861136 110.869464 
L 172.648151 111.987134 
L 172.433872 114.194755 
L 172.218281 113.373134 
L 172.001364 114.042849 
L 171.783104 113.413051 
L 171.563484 113.612635 
L 171.120095 106.592822 
L 170.896292 105.362054 
L 170.671058 104.991715 
L 170.216227 105.276676 
L 169.986592 105.542788 
L 169.75545 106.774665 
L 169.288571 105.775636 
L 168.815424 103.415001 
L 168.576447 103.917288 
L 168.093577 109.534468 
L 167.849639 109.276118 
L 167.356639 103.29636 
L 167.107529 103.658937 
L 166.603965 109.777296 
L 166.349459 108.764961 
L 166.093102 107.080694 
L 165.834867 104.221099 
L 165.574726 104.507169 
L 164.782582 96.104683 
L 164.24442 99.373425 
L 163.972227 101.008905 
L 163.421451 98.150419 
L 163.142802 98.318956 
L 162.861933 99.111748 
L 162.578807 102.408211 
L 162.005642 105.469608 
L 161.715525 105.30994 
L 161.423001 104.792131 
L 161.12803 103.966075 
L 160.830569 100.813756 
L 160.530576 100.709529 
L 160.228008 101.352633 
L 159.922821 101.250624 
L 159.614968 101.883748 
L 159.304403 99.989918 
L 158.991077 99.860188 
L 158.674941 97.03164 
L 158.034034 95.001427 
L 157.709157 93.323812 
L 157.381258 92.501083 
L 157.05028 92.139614 
L 156.716164 94.320624 
L 156.378851 94.233028 
L 156.038279 94.926028 
L 155.694385 93.513417 
L 155.347102 95.094566 
L 154.996364 95.350699 
L 154.6421 96.313137 
L 154.28424 96.888604 
L 153.922709 99.182712 
L 153.557432 99.199344 
L 153.18833 99.38784 
L 152.815323 96.450628 
L 152.438325 96.875299 
L 152.057252 95.138918 
L 151.672014 95.824156 
L 151.282519 95.12783 
L 150.888673 95.295259 
L 150.087526 91.319102 
L 149.68002 90.246892 
L 148.428447 88.324233 
L 148.001182 89.576068 
L 147.568675 90.149318 
L 147.130795 89.50954 
L 146.687406 88.184524 
L 146.238369 90.76692 
L 145.322761 92.875857 
L 144.855881 89.904273 
L 144.382734 89.571633 
L 143.41695 90.593947 
L 142.92395 91.241486 
L 142.423957 88.822084 
L 141.91677 90.465326 
L 141.402178 90.21252 
L 140.879962 92.1252 
L 140.349893 88.997275 
L 139.811731 87.548073 
L 139.265226 85.1575 
L 138.710113 84.26159 
L 138.146118 82.532971 
L 137.572952 83.243712 
L 136.990312 82.998667 
L 136.39788 83.872401 
L 135.795319 82.978708 
L 135.182279 84.39132 
L 134.558388 85.304971 
L 133.923255 85.198526 
L 133.276468 87.179952 
L 132.617591 86.92271 
L 131.946162 87.779812 
L 131.261696 85.319385 
L 130.563675 85.036641 
L 129.851551 85.000051 
L 129.124743 84.073094 
L 128.382633 84.247176 
L 127.624563 84.589795 
L 126.84983 85.981339 
L 126.057686 84.909129 
L 125.247331 81.87767 
L 124.417906 79.777603 
L 123.568493 79.439419 
L 122.698105 78.28294 
L 120.890072 80.141289 
L 119.950045 83.107329 
L 118.984261 82.49638 
L 117.991268 83.534217 
L 116.969489 82.489728 
L 115.917204 81.815577 
L 114.832536 79.27199 
L 113.713429 81.846624 
L 112.557623 85.607673 
L 111.36263 90.593947 
L 110.125699 90.690412 
L 108.843779 90.457564 
L 107.513473 88.67794 
L 106.130985 89.785632 
L 104.692054 90.148209 
L 103.191874 91.402262 
L 101.624997 92.916883 
L 99.985217 91.400044 
L 98.265416 88.875307 
L 98.08873 86.415988 
L 97.732677 88.258814 
L 97.372991 86.861726 
L 97.191762 87.750984 
L 96.826485 90.926587 
L 96.457383 87.489307 
L 96.271373 86.914948 
L 95.896381 89.203512 
L 95.517356 86.466993 
L 95.326305 86.15542 
L 94.941067 88.268793 
L 94.551572 83.935603 
L 94.355199 83.109547 
L 94.157725 84.450086 
L 93.959139 84.212803 
L 93.558579 81.057158 
L 93.153415 87.953894 
L 92.949072 89.501779 
L 92.5368 85.700812 
L 92.119648 88.856457 
L 91.909206 89.440795 
L 91.484515 87.453825 
L 90.837728 92.440099 
L 90.399847 91.335734 
L 89.956459 90.898867 
L 89.28074 86.958192 
L 88.591814 89.693601 
L 88.359147 89.202403 
L 87.889155 92.54987 
L 87.651787 94.469203 
L 87.172203 92.706211 
L 86.929941 93.109814 
L 86.440365 95.680012 
L 85.943893 92.371353 
L 85.69301 92.912448 
L 85.185823 97.303296 
L 84.41109 89.080435 
L 83.884977 90.836774 
L 83.350892 90.07392 
L 82.534278 93.694152 
L 81.979166 91.445505 
L 81.415171 94.084449 
L 81.129753 94.571212 
L 80.551889 92.905795 
L 79.964393 96.453955 
L 79.666932 96.194496 
L 79.064372 92.127417 
L 78.451332 94.271836 
L 78.140767 94.112169 
L 77.511305 91.648416 
L 76.935016 91.648416 
L 76.740806 96.425126 
L 76.118654 96.425126 
L 75.919881 93.930326 
L 75.316748 93.930326 
L 75.113389 97.057142 
L 74.461565 97.057142 
L 74.253197 94.336147 
L 73.832727 94.336147 
L 73.832727 94.336147 
" clip-path="url(#pd79dd7e4ad)" style="fill: none; stroke: #008000; stroke-width: 1.5; stroke-linecap: square"/>
   </g>
   <g id="patch_3">
    <path d="M 57.6 307.584 
L 57.6 41.472 
" style="fill: none; stroke: #000000; stroke-width: 0.8; stroke-linejoin: miter; stroke-linecap: square"/>
   </g>
   <g id="patch_4">
    <path d="M 414.72 307.584 
L 414.72 41.472 
" style="fill: none; stroke: #000000; stroke-width: 0.8; stroke-linejoin: miter; stroke-linecap: square"/>
   </g>
   <g id="patch_5">
    <path d="M 57.6 307.584 
L 414.72 307.584 
" style="fill: none; stroke: #000000; stroke-width: 0.8; stroke-linejoin: miter; stroke-linecap: square"/>
   </g>
   <g id="patch_6">
    <path d="M 57.6 41.472 
L 414.72 41.472 
" style="fill: none; stroke: #000000; stroke-width: 0.8; stroke-linejoin: miter; stroke-linecap: square"/>
   </g>
   <g id="text_17">
    <!-- VCO1 HEMT AMP -->
    <g transform="translate(185.4675 35.472)scale(0.12 -0.12)">
     <defs>
      <path id="DejaVuSans-56" d="M 1831 0 
L 50 4666 
L 709 4666 
L 2188 738 
L 3669 4666 
L 4325 4666 
L 2547 0 
L 1831 0 
z
" transform="scale(0.015625)"/>
      <path id="DejaVuSans-43" d="M 4122 4306 
L 4122 3641 
Q 3803 3938 3442 4084 
Q 3081 4231 2675 4231 
Q 1875 4231 1450 3742 
Q 1025 3253 1025 2328 
Q 1025 1406 1450 917 
Q 1875 428 2675 428 
Q 3081 428 3442 575 
Q 3803 722 4122 1019 
L 4122 359 
Q 3791 134 3420 21 
Q 3050 -91 2638 -91 
Q 1578 -91 968 557 
Q 359 1206 359 2328 
Q 359 3453 968 4101 
Q 1578 4750 2638 4750 
Q 3056 4750 3426 4639 
Q 3797 4528 4122 4306 
z
" transform="scale(0.015625)"/>
      <path id="DejaVuSans-4f" d="M 2522 4238 
Q 1834 4238 1429 3725 
Q 1025 3213 1025 2328 
Q 1025 1447 1429 934 
Q 1834 422 2522 422 
Q 3209 422 3611 934 
Q 4013 1447 4013 2328 
Q 4013 3213 3611 3725 
Q 3209 4238 2522 4238 
z
M 2522 4750 
Q 3503 4750 4090 4092 
Q 4678 3434 4678 2328 
Q 4678 1225 4090 567 
Q 3503 -91 2522 -91 
Q 1538 -91 948 565 
Q 359 1222 359 2328 
Q 359 3434 948 4092 
Q 1538 4750 2522 4750 
z
" transform="scale(0.015625)"/>
      <path id="DejaVuSans-45" d="M 628 4666 
L 3578 4666 
L 3578 4134 
L 1259 4134 
L 1259 2753 
L 3481 2753 
L 3481 2222 
L 1259 2222 
L 1259 531 
L 3634 531 
L 3634 0 
L 628 0 
L 628 4666 
z
" transform="scale(0.015625)"/>
      <path id="DejaVuSans-4d" d="M 628 4666 
L 1569 4666 
L 2759 1491 
L 3956 4666 
L 4897 4666 
L 4897 0 
L 4281 0 
L 4281 4097 
L 3078 897 
L 2444 897 
L 1241 4097 
L 1241 0 
L 628 0 
L 628 4666 
z
" transform="scale(0.015625)"/>
      <path id="DejaVuSans-54" d="M -19 4666 
L 3928 4666 
L 3928 4134 
L 2272 4134 
L 2272 0 
L 1638 0 
L 1638 4134 
L -19 4134 
L -19 4666 
z
" transform="scale(0.015625)"/>
      <path id="DejaVuSans-41" d="M 2188 4044 
L 1331 1722 
L 3047 1722 
L 2188 4044 
z
M 1831 4666 
L 2547 4666 
L 4325 0 
L 3669 0 
L 3244 1197 
L 1141 1197 
L 716 0 
L 50 0 
L 1831 4666 
z
" transform="scale(0.015625)"/>
     </defs>
     <use xlink:href="#DejaVuSans-56"/>
     <use xlink:href="#DejaVuSans-43" x="68.408203"/>
     <use xlink:href="#DejaVuSans-4f" x="138.232422"/>
     <use xlink:href="#DejaVuSans-31" x="216.943359"/>
     <use xlink:href="#DejaVuSans-20" x="280.566406"/>
     <use xlink:href="#DejaVuSans-48" x="312.353516"/>
     <use xlink:href="#DejaVuSans-45" x="387.548828"/>
     <use xlink:href="#DejaVuSans-4d" x="450.732422"/>
     <use xlink:href="#DejaVuSans-54" x="537.011719"/>
     <use xlink:href="#DejaVuSans-20" x="598.095703"/>
     <use xlink:href="#DejaVuSans-41" x="629.882812"/>
     <use xlink:href="#DejaVuSans-4d" x="698.291016"/>
     <use xlink:href="#DejaVuSans-50" x="784.570312"/>
    </g>
   </g>
   <g id="legend_1">
    <g id="patch_7">
     <path d="M 298.07625 78.82825 
L 407.72 78.82825 
Q 409.72 78.82825 409.72 76.82825 
L 409.72 48.472 
Q 409.72 46.472 407.72 46.472 
L 298.07625 46.472 
Q 296.07625 46.472 296.07625 48.472 
L 296.07625 76.82825 
Q 296.07625 78.82825 298.07625 78.82825 
z
" style="fill: #ffffff; opacity: 0.8; stroke: #cccccc; stroke-linejoin: miter"/>
    </g>
    <g id="line2d_52">
     <path d="M 300.07625 54.570437 
L 310.07625 54.570437 
L 320.07625 54.570437 
" style="fill: none; stroke: #ff0000; stroke-width: 1.5; stroke-linecap: square"/>
    </g>
    <g id="text_18">
     <!-- no HEMT AMP -->
     <g transform="translate(328.07625 58.070437)scale(0.1 -0.1)">
      <use xlink:href="#DejaVuSans-6e"/>
      <use xlink:href="#DejaVuSans-6f" x="63.378906"/>
      <use xlink:href="#DejaVuSans-20" x="124.560547"/>
      <use xlink:href="#DejaVuSans-48" x="156.347656"/>
      <use xlink:href="#DejaVuSans-45" x="231.542969"/>
      <use xlink:href="#DejaVuSans-4d" x="294.726562"/>
      <use xlink:href="#DejaVuSans-54" x="381.005859"/>
      <use xlink:href="#DejaVuSans-20" x="442.089844"/>
      <use xlink:href="#DejaVuSans-41" x="473.876953"/>
      <use xlink:href="#DejaVuSans-4d" x="542.285156"/>
      <use xlink:href="#DejaVuSans-50" x="628.564453"/>
     </g>
    </g>
    <g id="line2d_53">
     <path d="M 300.07625 69.248562 
L 310.07625 69.248562 
L 320.07625 69.248562 
" style="fill: none; stroke: #008000; stroke-width: 1.5; stroke-linecap: square"/>
    </g>
    <g id="text_19">
     <!-- with HEMT AMP -->
     <g transform="translate(328.07625 72.748562)scale(0.1 -0.1)">
      <defs>
       <path id="DejaVuSans-77" d="M 269 3500 
L 844 3500 
L 1563 769 
L 2278 3500 
L 2956 3500 
L 3675 769 
L 4391 3500 
L 4966 3500 
L 4050 0 
L 3372 0 
L 2619 2869 
L 1863 0 
L 1184 0 
L 269 3500 
z
" transform="scale(0.015625)"/>
       <path id="DejaVuSans-74" d="M 1172 4494 
L 1172 3500 
L 2356 3500 
L 2356 3053 
L 1172 3053 
L 1172 1153 
Q 1172 725 1289 603 
Q 1406 481 1766 481 
L 2356 481 
L 2356 0 
L 1766 0 
Q 1100 0 847 248 
Q 594 497 594 1153 
L 594 3053 
L 172 3053 
L 172 3500 
L 594 3500 
L 594 4494 
L 1172 4494 
z
" transform="scale(0.015625)"/>
      </defs>
      <use xlink:href="#DejaVuSans-77"/>
      <use xlink:href="#DejaVuSans-69" x="81.787109"/>
      <use xlink:href="#DejaVuSans-74" x="109.570312"/>
      <use xlink:href="#DejaVuSans-68" x="148.779297"/>
      <use xlink:href="#DejaVuSans-20" x="212.158203"/>
      <use xlink:href="#DejaVuSans-48" x="243.945312"/>
      <use xlink:href="#DejaVuSans-45" x="319.140625"/>
      <use xlink:href="#DejaVuSans-4d" x="382.324219"/>
      <use xlink:href="#DejaVuSans-54" x="468.603516"/>
      <use xlink:href="#DejaVuSans-20" x="529.6875"/>
      <use xlink:href="#DejaVuSans-41" x="561.474609"/>
      <use xlink:href="#DejaVuSans-4d" x="629.882812"/>
      <use xlink:href="#DejaVuSans-50" x="716.162109"/>
     </g>
    </g>
   </g>
  </g>
 </g>
 <defs>
  <clipPath id="pd79dd7e4ad">
   <rect x="57.6" y="41.472" width="357.12" height="266.112"/>
  </clipPath>
 </defs>
</svg>
