%FSLAX34Y34*%
%MOMM*%
%LNCOPPER_TOP*%
G71*
G01*
%ADD10R,1.600X1.100*%
%ADD11R,1.100X1.600*%
%ADD12R,3.950X3.950*%
%ADD13C,1.100*%
%ADD14C,1.080*%
%ADD15R,2.200X1.900*%
%ADD16R,1.700X1.700*%
%ADD17R,2.600X2.200*%
%ADD18R,1.900X2.200*%
%ADD19C,1.050*%
%ADD20R,1.800X1.920*%
%ADD21R,3.400X2.400*%
%ADD22R,3.300X2.070*%
%ADD23C,2.070*%
%ADD24C,1.800*%
%ADD25C,1.700*%
%ADD26C,1.400*%
%ADD27C,1.900*%
%ADD28C,1.900*%
%ADD29C,0.600*%
%ADD30C,2.050*%
%ADD31C,0.300*%
%ADD32C,1.600*%
%ADD33C,1.600*%
%ADD34C,0.700*%
%ADD35C,1.200*%
%ADD36C,0.800*%
%ADD37R,1.900X3.400*%
%ADD38C,1.800*%
%ADD39R,2.700X2.300*%
%ADD40R,2.900X5.000*%
%ADD41C,2.300*%
%ADD42R,1.700X2.000*%
%ADD43C,1.300*%
%ADD44C,0.400*%
%ADD45R,1.800X1.500*%
%ADD46C,1.000*%
%ADD47R,2.000X1.700*%
%ADD48R,0.800X0.300*%
%ADD49R,0.300X0.800*%
%ADD50R,3.150X3.150*%
%ADD51C,0.280*%
%ADD52R,1.400X1.100*%
%ADD53R,0.900X0.900*%
%ADD54R,1.800X1.400*%
%ADD55R,1.100X1.400*%
%ADD56C,0.250*%
%ADD57R,1.000X1.120*%
%ADD58C,0.600*%
%ADD59R,2.600X1.600*%
%ADD60C,1.500*%
%ADD61R,2.500X1.270*%
%ADD62C,1.270*%
%ADD63C,0.900*%
%ADD64C,1.100*%
%ADD65C,1.250*%
%ADD66C,0.800*%
%ADD67R,1.500X3.000*%
%ADD68C,1.000*%
%ADD69R,1.900X1.500*%
%ADD70R,2.100X4.200*%
%ADD71R,2.600X2.790*%
%ADD72R,0.900X1.200*%
%ADD73R,0.600X2.200*%
%ADD74C,0.500*%
%LPD*%
G36*
X0Y0D02*
X602000Y0D01*
X602000Y-202000D01*
X0Y-202000D01*
X0Y0D01*
G37*
%LPC*%
X358332Y-115019D02*
G54D10*
D03*
X310032Y-115019D02*
G54D10*
D03*
X358332Y-110019D02*
G54D10*
D03*
X310032Y-110019D02*
G54D10*
D03*
X358332Y-105019D02*
G54D10*
D03*
X310032Y-105019D02*
G54D10*
D03*
X358332Y-100019D02*
G54D10*
D03*
X310032Y-100019D02*
G54D10*
D03*
X358332Y-95019D02*
G54D10*
D03*
X310032Y-95019D02*
G54D10*
D03*
X358332Y-90019D02*
G54D10*
D03*
X310032Y-90019D02*
G54D10*
D03*
X358332Y-85019D02*
G54D10*
D03*
X310032Y-85019D02*
G54D10*
D03*
X358332Y-80019D02*
G54D10*
D03*
X310032Y-80019D02*
G54D10*
D03*
X351682Y-121669D02*
G54D11*
D03*
X351682Y-73369D02*
G54D11*
D03*
X346682Y-121669D02*
G54D11*
D03*
X346682Y-73369D02*
G54D11*
D03*
X341682Y-121669D02*
G54D11*
D03*
X341682Y-73369D02*
G54D11*
D03*
X336682Y-121669D02*
G54D11*
D03*
X336682Y-73369D02*
G54D11*
D03*
X331682Y-121669D02*
G54D11*
D03*
X331682Y-73369D02*
G54D11*
D03*
X326682Y-121669D02*
G54D11*
D03*
X326682Y-73369D02*
G54D11*
D03*
X321682Y-121669D02*
G54D11*
D03*
X321682Y-73369D02*
G54D11*
D03*
X316682Y-121669D02*
G54D11*
D03*
X316682Y-73369D02*
G54D11*
D03*
X334259Y-97525D02*
G54D12*
D03*
G54D13*
X316682Y-73369D02*
X316682Y-65644D01*
X315366Y-64328D01*
X298566Y-64328D01*
G54D13*
X321682Y-73369D02*
X321682Y-63244D01*
X317766Y-59328D01*
X308066Y-59328D01*
G54D13*
X326682Y-73369D02*
X326682Y-60744D01*
X320430Y-50534D01*
G54D14*
X312032Y-115019D02*
X305551Y-115019D01*
X301000Y-120500D01*
X287856Y-120215D01*
G54D13*
X310032Y-90019D02*
X324381Y-90019D01*
X324400Y-90000D01*
G54D13*
X310032Y-110019D02*
X325119Y-110019D01*
X325500Y-110400D01*
G54D13*
X358332Y-105019D02*
X347719Y-105019D01*
X347500Y-104800D01*
G54D13*
X346682Y-73369D02*
X346682Y-82418D01*
X346682Y-73369D01*
G54D13*
X331682Y-73369D02*
X331682Y-84482D01*
X331700Y-84500D01*
X251153Y-33604D02*
G54D15*
D03*
X268380Y-50334D02*
G54D16*
D03*
X268280Y-33633D02*
G54D16*
D03*
X427850Y-129300D02*
G54D16*
D03*
X427750Y-112600D02*
G54D16*
D03*
X427850Y-84400D02*
G54D16*
D03*
X427750Y-101100D02*
G54D16*
D03*
X446300Y-97400D02*
G54D17*
D03*
X378153Y-73854D02*
G54D15*
D03*
X320430Y-50534D02*
G54D16*
D03*
G54D13*
X341682Y-72969D02*
X341682Y-62918D01*
X351000Y-53600D01*
X350750Y-50850D01*
X355903Y-50204D01*
G54D13*
X336682Y-73369D02*
X336679Y-64494D01*
X335015Y-56077D01*
G54D13*
X351682Y-73369D02*
X351682Y-68318D01*
X353250Y-66750D01*
X369149Y-66750D01*
X378153Y-73854D01*
G54D13*
X358332Y-80019D02*
X367887Y-80019D01*
X378153Y-73854D01*
X275447Y-79749D02*
G54D18*
D03*
X285856Y-123215D02*
G54D18*
D03*
G36*
X371606Y-111500D02*
X390606Y-111500D01*
X390606Y-133500D01*
X371606Y-133500D01*
X371606Y-111500D01*
G37*
X336153Y-147354D02*
G54D15*
D03*
X397903Y-168054D02*
G54D16*
D03*
X361903Y-147454D02*
G54D15*
D03*
G54D13*
X331682Y-121669D02*
X331682Y-130682D01*
X335414Y-134310D01*
X335414Y-141866D01*
X333806Y-147100D01*
G54D13*
X341682Y-121669D02*
X341682Y-130318D01*
X337401Y-134145D01*
X337504Y-141672D01*
X338806Y-147100D01*
G54D19*
X346682Y-121669D02*
X346682Y-132682D01*
X355200Y-145500D01*
X287253Y-142654D02*
G54D15*
D03*
X287253Y-163254D02*
G54D15*
D03*
G54D13*
X309332Y-85019D02*
X301300Y-85000D01*
X296300Y-80000D01*
X292569Y-79989D01*
X289715Y-80377D01*
X468063Y-72960D02*
G54D20*
D03*
G36*
X489262Y-63361D02*
X507262Y-63360D01*
X507263Y-82560D01*
X489263Y-82561D01*
X489262Y-63361D01*
G37*
G36*
X474163Y-24460D02*
X492163Y-24460D01*
X492163Y-43660D01*
X474163Y-43660D01*
X474163Y-24460D01*
G37*
X553884Y-92997D02*
G54D15*
D03*
X553884Y-72397D02*
G54D15*
D03*
X526481Y-80551D02*
G54D21*
D03*
X526481Y-52551D02*
G54D21*
D03*
X587502Y-49939D02*
G54D22*
D03*
X587502Y-149939D02*
G54D22*
D03*
X564902Y-49939D02*
G54D16*
D03*
X548202Y-50039D02*
G54D16*
D03*
X564902Y-149939D02*
G54D16*
D03*
X548202Y-150039D02*
G54D16*
D03*
G54D23*
X566702Y-149939D02*
X586702Y-149939D01*
G36*
X566702Y-139589D02*
X566702Y-160289D01*
X556352Y-160289D01*
X556352Y-139589D01*
X566702Y-139589D01*
G37*
G54D23*
X566702Y-49939D02*
X586702Y-49939D01*
G36*
X566702Y-39589D02*
X566702Y-60289D01*
X556352Y-60289D01*
X556352Y-39589D01*
X566702Y-39589D01*
G37*
G36*
X459063Y-131360D02*
X477063Y-131360D01*
X477063Y-150560D01*
X459063Y-150560D01*
X459063Y-131360D01*
G37*
G36*
X489263Y-131360D02*
X507263Y-131360D01*
X507263Y-150560D01*
X489263Y-150560D01*
X489263Y-131360D01*
G37*
X483163Y-102060D02*
G54D20*
D03*
X526481Y-147551D02*
G54D21*
D03*
X526481Y-119551D02*
G54D21*
D03*
G54D24*
X498263Y-72960D02*
X521000Y-53000D01*
G54D25*
X548202Y-50039D02*
X530043Y-50039D01*
X526481Y-53601D01*
G54D24*
X498263Y-140960D02*
X526481Y-146601D01*
G54D25*
X548202Y-150039D02*
X530039Y-150039D01*
X528250Y-148250D01*
X535550Y-100001D02*
G54D18*
D03*
X553784Y-106878D02*
G54D15*
D03*
X553784Y-127478D02*
G54D15*
D03*
G54D26*
X526481Y-119551D02*
X553784Y-127478D01*
G54D26*
X526481Y-80551D02*
X553884Y-72397D01*
G54D27*
X553884Y-92997D02*
X553784Y-106878D01*
G54D27*
X535550Y-100001D02*
X553772Y-100113D01*
X567563Y-99709D02*
G54D28*
D03*
G54D27*
X553784Y-106878D02*
X567563Y-99709D01*
X553884Y-92997D01*
X553772Y-100113D01*
X567563Y-99709D01*
G36*
X515000Y-113000D02*
X561774Y-113000D01*
X561774Y-143713D01*
X515000Y-143713D01*
X515000Y-113000D01*
G37*
G54D29*
X515000Y-113000D02*
X561774Y-113000D01*
X561774Y-143713D01*
X515000Y-143713D01*
X515000Y-113000D01*
G36*
X517000Y-141000D02*
X502720Y-141000D01*
X502720Y-134390D01*
X517000Y-134390D01*
X517000Y-141000D01*
G37*
G54D29*
X517000Y-141000D02*
X502720Y-141000D01*
X502720Y-134390D01*
X517000Y-134390D01*
X517000Y-141000D01*
G36*
X520000Y-53000D02*
X561876Y-53000D01*
X561876Y-87725D01*
X520000Y-87725D01*
X520000Y-53000D01*
G37*
G54D29*
X520000Y-53000D02*
X561876Y-53000D01*
X561876Y-87725D01*
X520000Y-87725D01*
X520000Y-53000D01*
G36*
X497000Y-69950D02*
X515233Y-69950D01*
X515233Y-79552D01*
X497000Y-79552D01*
X497000Y-69950D01*
G37*
G54D29*
X497000Y-69950D02*
X515233Y-69950D01*
X515233Y-79552D01*
X497000Y-79552D01*
X497000Y-69950D01*
G54D30*
X466863Y-140960D02*
X453050Y-140950D01*
G36*
X466856Y-151210D02*
X466870Y-130710D01*
X477120Y-130717D01*
X477106Y-151217D01*
X466856Y-151210D01*
G37*
G36*
X453057Y-130700D02*
X453043Y-151200D01*
X442793Y-151193D01*
X442807Y-130693D01*
X453057Y-130700D01*
G37*
X453050Y-140950D02*
G54D16*
D03*
X436350Y-141050D02*
G54D16*
D03*
G54D30*
X466863Y-72960D02*
X453050Y-72950D01*
G36*
X466856Y-83210D02*
X466870Y-62710D01*
X477120Y-62717D01*
X477106Y-83217D01*
X466856Y-83210D01*
G37*
G36*
X453057Y-62700D02*
X453043Y-83200D01*
X442793Y-83193D01*
X442807Y-62693D01*
X453057Y-62700D01*
G37*
X453050Y-72950D02*
G54D16*
D03*
X436350Y-73050D02*
G54D16*
D03*
G54D25*
X427750Y-112600D02*
X427750Y-101100D01*
G54D30*
X430958Y-103834D02*
X446300Y-97400D01*
G54D25*
X427850Y-84400D02*
X436350Y-73050D01*
G54D25*
X427850Y-129300D02*
X427855Y-137166D01*
X436350Y-141050D01*
G36*
X436350Y-73050D02*
X457792Y-73050D01*
X457792Y-89199D01*
X436350Y-89199D01*
X436350Y-73050D01*
G37*
G54D31*
X436350Y-73050D02*
X457792Y-73050D01*
X457792Y-89199D01*
X436350Y-89199D01*
X436350Y-73050D01*
X355903Y-50604D02*
G54D15*
D03*
X336700Y-45500D02*
G54D15*
D03*
X335015Y-56077D02*
G54D32*
D03*
G54D33*
X335015Y-56077D02*
X336700Y-45500D01*
X350900Y-140500D02*
G54D32*
D03*
X389800Y-74000D02*
G54D32*
D03*
G54D33*
X389800Y-74000D02*
X378153Y-73854D01*
X284700Y-49100D02*
G54D15*
D03*
X303700Y-49100D02*
G54D15*
D03*
G54D13*
X308066Y-59328D02*
X303700Y-54962D01*
X303700Y-49100D01*
G54D13*
X284700Y-49100D02*
X284700Y-50462D01*
X298566Y-64328D01*
G54D13*
X268580Y-50534D02*
X268580Y-55580D01*
X273000Y-60000D01*
X284000Y-60000D01*
X304000Y-80000D01*
X310013Y-80000D01*
X310032Y-80019D01*
X290415Y-80377D02*
G54D32*
D03*
G54D34*
X276347Y-80049D02*
X276915Y-84677D01*
X287000Y-89000D01*
G54D34*
X310032Y-95019D02*
X304019Y-95019D01*
X297000Y-89000D01*
X287000Y-89000D01*
X275934Y-69131D02*
G54D32*
D03*
G54D33*
X275534Y-69131D02*
X275543Y-76054D01*
X276915Y-80617D01*
X275447Y-79749D01*
X297515Y-109677D02*
G54D32*
D03*
G54D13*
X310032Y-105019D02*
X303046Y-105012D01*
X297515Y-109677D01*
X286615Y-109677D02*
G54D32*
D03*
G54D35*
X286615Y-109677D02*
X285856Y-120215D01*
X299115Y-129677D02*
G54D32*
D03*
X307215Y-140477D02*
G54D32*
D03*
X319215Y-143777D02*
G54D32*
D03*
G54D13*
X299115Y-129677D02*
X312323Y-129677D01*
X316682Y-125318D01*
X316682Y-121669D01*
G54D13*
X307215Y-140477D02*
X316000Y-135000D01*
X321682Y-128318D01*
X321682Y-121669D01*
G54D13*
X319215Y-143777D02*
X326682Y-132318D01*
X326682Y-121669D01*
G54D13*
X358332Y-110019D02*
X370019Y-110019D01*
X379000Y-120000D01*
X380000Y-119994D01*
X382106Y-122100D01*
G54D33*
X350900Y-140500D02*
X361903Y-147454D01*
X381903Y-147454D01*
G54D25*
X381903Y-147454D02*
X381903Y-146521D01*
X381903Y-147454D01*
X381115Y-133677D02*
G54D32*
D03*
G54D33*
X381106Y-133677D02*
X381106Y-122500D01*
G36*
X375581Y-123108D02*
X386571Y-123108D01*
X386571Y-140728D01*
X375581Y-140728D01*
X375581Y-123108D01*
G37*
G54D36*
X375581Y-123108D02*
X386571Y-123108D01*
X386571Y-140728D01*
X375581Y-140728D01*
X375581Y-123108D01*
G36*
X350000Y-66000D02*
X365000Y-66000D01*
X365000Y-79000D01*
X350000Y-79000D01*
X350000Y-66000D01*
G37*
G54D36*
X350000Y-66000D02*
X365000Y-66000D01*
X365000Y-79000D01*
X350000Y-79000D01*
X350000Y-66000D01*
G36*
X297000Y-65000D02*
X312000Y-65000D01*
X312000Y-80000D01*
X297000Y-80000D01*
X297000Y-65000D01*
G37*
G54D36*
X297000Y-65000D02*
X312000Y-65000D01*
X312000Y-80000D01*
X297000Y-80000D01*
X297000Y-65000D01*
G36*
X305000Y-89000D02*
X279948Y-81000D01*
X275447Y-79749D01*
X270948Y-64453D01*
X305000Y-64453D01*
X305000Y-89000D01*
G37*
G54D36*
X305000Y-89000D02*
X279948Y-81000D01*
X275447Y-79749D01*
X270948Y-64453D01*
X305000Y-64453D01*
X305000Y-89000D01*
G36*
X297515Y-109677D02*
X314000Y-102000D01*
X315000Y-124000D01*
X290000Y-124000D01*
X285856Y-120215D01*
X286915Y-109677D01*
X297515Y-109677D01*
G37*
G54D36*
X297515Y-109677D02*
X314000Y-102000D01*
X315000Y-124000D01*
X290000Y-124000D01*
X285856Y-120215D01*
X286915Y-109677D01*
X297515Y-109677D01*
G36*
X317000Y-119000D02*
X346000Y-119000D01*
X346000Y-141000D01*
X317000Y-141000D01*
X317000Y-119000D01*
G37*
G54D36*
X317000Y-119000D02*
X346000Y-119000D01*
X346000Y-141000D01*
X317000Y-141000D01*
X317000Y-119000D01*
G54D13*
X358332Y-100019D02*
X407019Y-100019D01*
X409502Y-100270D01*
X411530Y-101182D01*
X413236Y-102527D01*
X414447Y-104203D01*
X415657Y-106704D01*
X416000Y-109000D01*
X415977Y-117512D01*
X416919Y-120126D01*
X417701Y-121313D01*
X418582Y-122450D01*
X421050Y-124980D01*
X423608Y-126846D01*
X426289Y-128876D01*
G54D13*
X358332Y-95019D02*
X406231Y-95019D01*
X409580Y-94859D01*
X413000Y-94000D01*
X415349Y-93140D01*
X417419Y-91721D01*
X420790Y-89001D01*
X425000Y-86000D01*
X427850Y-84400D01*
X250048Y-185488D02*
G54D37*
D03*
G54D27*
X250048Y-184688D02*
X249953Y-162254D01*
X189509Y-104184D02*
G54D38*
D03*
X167357Y-79986D02*
G54D39*
D03*
X167457Y-102986D02*
G54D39*
D03*
X167457Y-125986D02*
G54D39*
D03*
X108757Y-103086D02*
G54D40*
D03*
X216256Y-79209D02*
G54D21*
D03*
X216256Y-107209D02*
G54D21*
D03*
X189762Y-125131D02*
G54D15*
D03*
X189762Y-104531D02*
G54D15*
D03*
X168209Y-53803D02*
G54D15*
D03*
G54D41*
X167457Y-102986D02*
X108857Y-102986D01*
X108757Y-103086D01*
X186512Y-33750D02*
G54D18*
D03*
X187518Y-53342D02*
G54D42*
D03*
X210518Y-53342D02*
G54D42*
D03*
G54D25*
X187518Y-53342D02*
X187518Y-34756D01*
X186512Y-33750D01*
G54D25*
X187518Y-53342D02*
X168209Y-53803D01*
G54D27*
X167357Y-76986D02*
X168210Y-76134D01*
X168209Y-53803D01*
G54D27*
X189762Y-104531D02*
X167457Y-104531D01*
X167457Y-102986D01*
G54D27*
X189762Y-125131D02*
X167457Y-125131D01*
X167457Y-125986D01*
G36*
X134000Y-22000D02*
X134000Y-46000D01*
X154000Y-46000D01*
X154000Y-66000D01*
X150000Y-66000D01*
X150000Y-181000D01*
X22000Y-181000D01*
X22000Y-22000D01*
X134000Y-22000D01*
G37*
G54D43*
X134000Y-22000D02*
X134000Y-46000D01*
X154000Y-46000D01*
X154000Y-66000D01*
X150000Y-66000D01*
X150000Y-181000D01*
X22000Y-181000D01*
X22000Y-22000D01*
X134000Y-22000D01*
G54D27*
X189762Y-104531D02*
X196593Y-104480D01*
X204105Y-104702D01*
X205978Y-105531D01*
X216256Y-107810D01*
G54D33*
X251153Y-33604D02*
X268280Y-33633D01*
X446600Y-87000D02*
G54D32*
D03*
G54D33*
X446800Y-87000D02*
X446300Y-97400D01*
G54D24*
X285856Y-120215D02*
X285856Y-141256D01*
X287253Y-142654D01*
G54D26*
X287253Y-163254D02*
X310000Y-163000D01*
X336153Y-147354D01*
X346100Y-155000D01*
X336153Y-147354D01*
X346100Y-155000D02*
G54D32*
D03*
X240334Y-67431D02*
G54D32*
D03*
G54D25*
X240334Y-67431D02*
X216256Y-79209D01*
X219334Y-47431D02*
G54D32*
D03*
G54D33*
X210518Y-53342D02*
X213423Y-53342D01*
X219334Y-47431D01*
G36*
X316000Y-159000D02*
X278244Y-159000D01*
X278244Y-119760D01*
X316000Y-119760D01*
X316000Y-159000D01*
G37*
G54D44*
X316000Y-159000D02*
X278244Y-159000D01*
X278244Y-119760D01*
X316000Y-119760D01*
X316000Y-159000D01*
G36*
X275447Y-79749D02*
X267964Y-79749D01*
X267964Y-43014D01*
X275447Y-43014D01*
X275447Y-79749D01*
G37*
G54D44*
X275447Y-79749D02*
X267964Y-79749D01*
X267964Y-43014D01*
X275447Y-43014D01*
X275447Y-79749D01*
G36*
X157000Y-101000D02*
X198000Y-101000D01*
X198000Y-121000D01*
X157000Y-121000D01*
X157000Y-101000D01*
G37*
G54D44*
X157000Y-101000D02*
X198000Y-101000D01*
X198000Y-121000D01*
X157000Y-121000D01*
X157000Y-101000D01*
G36*
X178475Y-89026D02*
X154000Y-89026D01*
X154000Y-43000D01*
X178475Y-44000D01*
X178475Y-89026D01*
G37*
G54D44*
X178475Y-89026D02*
X154000Y-89026D01*
X154000Y-43000D01*
X178475Y-44000D01*
X178475Y-89026D01*
X148209Y-53803D02*
G54D15*
D03*
X249953Y-138654D02*
G54D45*
D03*
X249953Y-159254D02*
G54D45*
D03*
G54D46*
X249953Y-138654D02*
X250000Y-126000D01*
X249953Y-138654D01*
G54D34*
X310032Y-100019D02*
X252981Y-100019D01*
X249953Y-103047D01*
X249953Y-109953D01*
X250000Y-126000D01*
G36*
X427750Y-112600D02*
X415349Y-112600D01*
X415349Y-93140D01*
X427750Y-93140D01*
X427750Y-112600D01*
G37*
G54D31*
X427750Y-112600D02*
X415349Y-112600D01*
X415349Y-93140D01*
X427750Y-93140D01*
X427750Y-112600D01*
X381903Y-168054D02*
G54D47*
D03*
X381903Y-147454D02*
G54D47*
D03*
G54D25*
X381903Y-168054D02*
X397903Y-168054D01*
%LPD*%
X358332Y-115019D02*
G54D48*
D03*
X310032Y-115019D02*
G54D48*
D03*
X358332Y-110019D02*
G54D48*
D03*
X310032Y-110019D02*
G54D48*
D03*
X358332Y-105019D02*
G54D48*
D03*
X310032Y-105019D02*
G54D48*
D03*
X358332Y-100019D02*
G54D48*
D03*
X310032Y-100019D02*
G54D48*
D03*
X358332Y-95019D02*
G54D48*
D03*
X310032Y-95019D02*
G54D48*
D03*
X358332Y-90019D02*
G54D48*
D03*
X310032Y-90019D02*
G54D48*
D03*
X358332Y-85019D02*
G54D48*
D03*
X310032Y-85019D02*
G54D48*
D03*
X358332Y-80019D02*
G54D48*
D03*
X310032Y-80019D02*
G54D48*
D03*
X351682Y-121669D02*
G54D49*
D03*
X351682Y-73369D02*
G54D49*
D03*
X346682Y-121669D02*
G54D49*
D03*
X346682Y-73369D02*
G54D49*
D03*
X341682Y-121669D02*
G54D49*
D03*
X341682Y-73369D02*
G54D49*
D03*
X336682Y-121669D02*
G54D49*
D03*
X336682Y-73369D02*
G54D49*
D03*
X331682Y-121669D02*
G54D49*
D03*
X331682Y-73369D02*
G54D49*
D03*
X326682Y-121669D02*
G54D49*
D03*
X326682Y-73369D02*
G54D49*
D03*
X321682Y-121669D02*
G54D49*
D03*
X321682Y-73369D02*
G54D49*
D03*
X316682Y-121669D02*
G54D49*
D03*
X316682Y-73369D02*
G54D49*
D03*
X334259Y-97525D02*
G54D50*
D03*
G54D31*
X316682Y-73369D02*
X316682Y-65644D01*
X315366Y-64328D01*
X298566Y-64328D01*
G54D31*
X321682Y-73369D02*
X321682Y-63244D01*
X317766Y-59328D01*
X308066Y-59328D01*
G54D31*
X326682Y-73369D02*
X326682Y-60744D01*
X320430Y-50534D01*
G54D51*
X312032Y-115019D02*
X305551Y-115019D01*
X301000Y-120500D01*
X287856Y-120215D01*
G54D31*
X310032Y-90019D02*
X324381Y-90019D01*
X324400Y-90000D01*
G54D31*
X310032Y-110019D02*
X325119Y-110019D01*
X325500Y-110400D01*
G54D31*
X351682Y-121669D02*
X351682Y-114982D01*
X347800Y-111100D01*
G54D31*
X358332Y-115019D02*
X351719Y-115019D01*
X347800Y-111100D01*
G54D31*
X358332Y-105019D02*
X347719Y-105019D01*
X347500Y-104800D01*
G54D31*
X346682Y-73369D02*
X346682Y-82418D01*
X346682Y-73369D01*
G54D31*
X331682Y-73369D02*
X331682Y-84482D01*
X331700Y-84500D01*
X251153Y-33604D02*
G54D52*
D03*
X251153Y-54204D02*
G54D52*
D03*
X268380Y-50334D02*
G54D53*
D03*
X268280Y-33633D02*
G54D53*
D03*
X427850Y-129300D02*
G54D53*
D03*
X427750Y-112600D02*
G54D53*
D03*
X427850Y-84400D02*
G54D53*
D03*
X427750Y-101100D02*
G54D53*
D03*
X446300Y-123500D02*
G54D54*
D03*
X446300Y-97400D02*
G54D54*
D03*
X378153Y-53254D02*
G54D52*
D03*
X378153Y-73854D02*
G54D52*
D03*
X320330Y-33834D02*
G54D53*
D03*
X320430Y-50534D02*
G54D53*
D03*
G54D31*
X341682Y-72969D02*
X341682Y-62918D01*
X351000Y-53600D01*
X350750Y-50850D01*
X355903Y-50204D01*
G54D31*
X336682Y-73369D02*
X336679Y-64494D01*
X335015Y-56077D01*
G54D31*
X346682Y-73969D02*
X346682Y-65418D01*
X351000Y-61100D01*
X366000Y-61100D01*
X380750Y-61350D01*
X380750Y-61600D01*
X381500Y-61350D01*
X381057Y-61350D01*
X380903Y-60504D01*
G54D31*
X351682Y-73369D02*
X351682Y-68318D01*
X353250Y-66750D01*
X369149Y-66750D01*
X378153Y-73854D01*
G54D31*
X358332Y-80019D02*
X367887Y-80019D01*
X378153Y-73854D01*
G36*
X249347Y-72749D02*
X260347Y-72749D01*
X260347Y-86749D01*
X249347Y-86749D01*
X249347Y-72749D01*
G37*
X275447Y-79749D02*
G54D55*
D03*
X285856Y-123215D02*
G54D55*
D03*
X265256Y-123215D02*
G54D55*
D03*
G36*
X375606Y-115500D02*
X386606Y-115500D01*
X386606Y-129500D01*
X375606Y-129500D01*
X375606Y-115500D01*
G37*
G36*
X396206Y-115500D02*
X407206Y-115500D01*
X407206Y-129500D01*
X396206Y-129500D01*
X396206Y-115500D01*
G37*
X336153Y-147354D02*
G54D52*
D03*
X336153Y-167954D02*
G54D52*
D03*
X414603Y-167954D02*
G54D53*
D03*
X397903Y-168054D02*
G54D53*
D03*
X361903Y-147454D02*
G54D52*
D03*
X361903Y-168054D02*
G54D52*
D03*
G54D31*
X331682Y-121669D02*
X331682Y-130682D01*
X335414Y-134310D01*
X335414Y-141866D01*
X333806Y-147100D01*
G54D31*
X341682Y-121669D02*
X341682Y-130318D01*
X337401Y-134145D01*
X337504Y-141672D01*
X338806Y-147100D01*
G54D56*
X346682Y-121669D02*
X346682Y-132682D01*
X355200Y-145500D01*
X287253Y-142654D02*
G54D52*
D03*
X287253Y-163254D02*
G54D52*
D03*
G54D31*
X309332Y-85019D02*
X301300Y-85000D01*
X296300Y-80000D01*
X292569Y-79989D01*
X289715Y-80377D01*
X468063Y-72960D02*
G54D57*
D03*
G36*
X478163Y-67360D02*
X488163Y-67360D01*
X488163Y-78560D01*
X478163Y-78560D01*
X478163Y-67360D01*
G37*
G36*
X493262Y-67360D02*
X503262Y-67360D01*
X503263Y-78560D01*
X493263Y-78560D01*
X493262Y-67360D01*
G37*
G36*
X478163Y-28460D02*
X488163Y-28460D01*
X488163Y-39660D01*
X478163Y-39660D01*
X478163Y-28460D01*
G37*
G54D36*
X483063Y-65960D02*
X483063Y-40960D01*
G36*
X460163Y-14560D02*
X506163Y-14560D01*
X506163Y-53560D01*
X460163Y-53560D01*
X460163Y-14560D01*
G37*
G54D46*
X483163Y-72960D02*
X483163Y-34060D01*
X465036Y-19004D02*
G54D58*
D03*
X471036Y-19004D02*
G54D58*
D03*
X477036Y-19004D02*
G54D58*
D03*
X483036Y-19004D02*
G54D58*
D03*
X489036Y-19004D02*
G54D58*
D03*
X495036Y-19004D02*
G54D58*
D03*
X501035Y-18004D02*
G54D58*
D03*
X465007Y-39127D02*
G54D58*
D03*
X501036Y-41004D02*
G54D58*
D03*
X501036Y-48004D02*
G54D58*
D03*
X474036Y-48004D02*
G54D58*
D03*
X483036Y-48004D02*
G54D58*
D03*
X492036Y-48004D02*
G54D58*
D03*
X483036Y-55004D02*
G54D58*
D03*
X553884Y-92997D02*
G54D52*
D03*
X553884Y-72397D02*
G54D52*
D03*
X526481Y-80551D02*
G54D59*
D03*
X526481Y-52551D02*
G54D59*
D03*
G54D60*
X8000Y-8000D02*
X594000Y-8000D01*
G36*
X8000Y-500D02*
X8000Y-15500D01*
X500Y-15500D01*
X500Y-500D01*
X8000Y-500D01*
G37*
G36*
X594000Y-15500D02*
X594000Y-500D01*
X601500Y-500D01*
X601500Y-15500D01*
X594000Y-15500D01*
G37*
X587502Y-49939D02*
G54D61*
D03*
X587502Y-149939D02*
G54D61*
D03*
G54D60*
X594000Y-29000D02*
X594000Y-8000D01*
G36*
X586500Y-29000D02*
X601500Y-29000D01*
X601500Y-36500D01*
X586500Y-36500D01*
X586500Y-29000D01*
G37*
G54D60*
X594000Y-71000D02*
X594000Y-129000D01*
G36*
X601500Y-71000D02*
X586500Y-71000D01*
X586500Y-63500D01*
X601500Y-63500D01*
X601500Y-71000D01*
G37*
G36*
X586500Y-129000D02*
X601500Y-129000D01*
X601500Y-136500D01*
X586500Y-136500D01*
X586500Y-129000D01*
G37*
G54D60*
X594000Y-193000D02*
X594000Y-171000D01*
G36*
X586500Y-193000D02*
X601500Y-193000D01*
X601500Y-200500D01*
X586500Y-200500D01*
X586500Y-193000D01*
G37*
G36*
X601500Y-171000D02*
X586500Y-171000D01*
X586500Y-163500D01*
X601500Y-163500D01*
X601500Y-171000D01*
G37*
G54D60*
X275000Y-194000D02*
X594000Y-194000D01*
G36*
X275000Y-186500D02*
X275000Y-201500D01*
X267500Y-201500D01*
X267500Y-186500D01*
X275000Y-186500D01*
G37*
G36*
X594000Y-201500D02*
X594000Y-186500D01*
X601500Y-186500D01*
X601500Y-201500D01*
X594000Y-201500D01*
G37*
X564902Y-49939D02*
G54D53*
D03*
X548202Y-50039D02*
G54D53*
D03*
X564902Y-149939D02*
G54D53*
D03*
X548202Y-150039D02*
G54D53*
D03*
G54D62*
X566702Y-149939D02*
X586702Y-149939D01*
G36*
X566702Y-143589D02*
X566702Y-156289D01*
X560352Y-156289D01*
X560352Y-143589D01*
X566702Y-143589D01*
G37*
G54D62*
X566702Y-49939D02*
X586702Y-49939D01*
G36*
X566702Y-43589D02*
X566702Y-56289D01*
X560352Y-56289D01*
X560352Y-43589D01*
X566702Y-43589D01*
G37*
G36*
X463063Y-135360D02*
X473063Y-135360D01*
X473063Y-146560D01*
X463063Y-146560D01*
X463063Y-135360D01*
G37*
G36*
X478163Y-135360D02*
X488163Y-135360D01*
X488164Y-146560D01*
X478164Y-146560D01*
X478163Y-135360D01*
G37*
G36*
X493263Y-135360D02*
X503263Y-135360D01*
X503263Y-146560D01*
X493263Y-146560D01*
X493263Y-135360D01*
G37*
X483163Y-102060D02*
G54D57*
D03*
G54D36*
X483063Y-133960D02*
X483063Y-108960D01*
G36*
X460163Y-82560D02*
X506163Y-82560D01*
X506163Y-121560D01*
X460163Y-121560D01*
X460163Y-82560D01*
G37*
G54D46*
X483163Y-140960D02*
X483163Y-102060D01*
X465036Y-87004D02*
G54D58*
D03*
X471036Y-87004D02*
G54D58*
D03*
X477036Y-87004D02*
G54D58*
D03*
X483036Y-87004D02*
G54D58*
D03*
X489036Y-87004D02*
G54D58*
D03*
X495036Y-87004D02*
G54D58*
D03*
X501035Y-87004D02*
G54D58*
D03*
X465036Y-116004D02*
G54D58*
D03*
X465036Y-108004D02*
G54D58*
D03*
X465036Y-101004D02*
G54D58*
D03*
X465036Y-94004D02*
G54D58*
D03*
X501036Y-94004D02*
G54D58*
D03*
X501036Y-101004D02*
G54D58*
D03*
X501036Y-108004D02*
G54D58*
D03*
X501036Y-116004D02*
G54D58*
D03*
X474036Y-116004D02*
G54D58*
D03*
X483036Y-116004D02*
G54D58*
D03*
X492036Y-116004D02*
G54D58*
D03*
X483036Y-123004D02*
G54D58*
D03*
X477236Y-155004D02*
G54D58*
D03*
X483236Y-155004D02*
G54D58*
D03*
X489236Y-155004D02*
G54D58*
D03*
X480269Y-160224D02*
G54D58*
D03*
X486258Y-160124D02*
G54D58*
D03*
G54D36*
X486258Y-160124D02*
X480269Y-160224D01*
X477236Y-155004D01*
X489236Y-155004D01*
G54D46*
X483236Y-155004D02*
X483163Y-143960D01*
X526481Y-147551D02*
G54D59*
D03*
X526481Y-119551D02*
G54D59*
D03*
G54D46*
X498263Y-72960D02*
X521000Y-53000D01*
G54D63*
X548202Y-50039D02*
X530043Y-50039D01*
X526481Y-53601D01*
G54D46*
X498263Y-140960D02*
X526481Y-146601D01*
G54D63*
X548202Y-150039D02*
X530039Y-150039D01*
X528250Y-148250D01*
X535550Y-100001D02*
G54D55*
D03*
X514950Y-100001D02*
G54D55*
D03*
X553784Y-106878D02*
G54D52*
D03*
X553784Y-127478D02*
G54D52*
D03*
G54D29*
X526481Y-119551D02*
X553784Y-127478D01*
G54D29*
X526481Y-80551D02*
X553884Y-72397D01*
G54D13*
X553884Y-92997D02*
X553784Y-106878D01*
G54D13*
X535550Y-100001D02*
X553772Y-100113D01*
X567563Y-99709D02*
G54D64*
D03*
G54D13*
X553784Y-106878D02*
X567563Y-99709D01*
X553884Y-92997D01*
X553772Y-100113D01*
X567563Y-99709D01*
X569564Y-63709D02*
G54D58*
D03*
X575814Y-63709D02*
G54D58*
D03*
X582314Y-63709D02*
G54D58*
D03*
X588564Y-63709D02*
G54D58*
D03*
X568064Y-69459D02*
G54D58*
D03*
X568064Y-75459D02*
G54D58*
D03*
X568314Y-81459D02*
G54D58*
D03*
X571314Y-86959D02*
G54D58*
D03*
X594814Y-63709D02*
G54D58*
D03*
X594000Y-71000D02*
G54D58*
D03*
X594000Y-81000D02*
G54D58*
D03*
X594000Y-91000D02*
G54D58*
D03*
X594000Y-101000D02*
G54D58*
D03*
X594000Y-111000D02*
G54D58*
D03*
X594000Y-121000D02*
G54D58*
D03*
X594000Y-130000D02*
G54D58*
D03*
X569564Y-136409D02*
G54D58*
D03*
X575814Y-136409D02*
G54D58*
D03*
X582314Y-136409D02*
G54D58*
D03*
X588564Y-136409D02*
G54D58*
D03*
X594814Y-136409D02*
G54D58*
D03*
X567980Y-130387D02*
G54D58*
D03*
X568034Y-124315D02*
G54D58*
D03*
X568060Y-117828D02*
G54D58*
D03*
X571956Y-112161D02*
G54D58*
D03*
X577340Y-108220D02*
G54D58*
D03*
X580201Y-102543D02*
G54D58*
D03*
X579883Y-96140D02*
G54D58*
D03*
X576840Y-90463D02*
G54D58*
D03*
X569564Y-36209D02*
G54D58*
D03*
X575814Y-36209D02*
G54D58*
D03*
X582314Y-36209D02*
G54D58*
D03*
X588564Y-36209D02*
G54D58*
D03*
X594814Y-36209D02*
G54D58*
D03*
X569564Y-163909D02*
G54D58*
D03*
X575814Y-163909D02*
G54D58*
D03*
X582314Y-163909D02*
G54D58*
D03*
X588564Y-163909D02*
G54D58*
D03*
X594814Y-163909D02*
G54D58*
D03*
X538064Y-163909D02*
G54D58*
D03*
X544314Y-163909D02*
G54D58*
D03*
X550814Y-163909D02*
G54D58*
D03*
X557064Y-163909D02*
G54D58*
D03*
X563314Y-163909D02*
G54D58*
D03*
X506564Y-163909D02*
G54D58*
D03*
X512814Y-163909D02*
G54D58*
D03*
X519314Y-163909D02*
G54D58*
D03*
X525564Y-163909D02*
G54D58*
D03*
X531814Y-163909D02*
G54D58*
D03*
X538064Y-36209D02*
G54D58*
D03*
X544314Y-36209D02*
G54D58*
D03*
X550814Y-36209D02*
G54D58*
D03*
X557064Y-36209D02*
G54D58*
D03*
X563314Y-36209D02*
G54D58*
D03*
X512814Y-36209D02*
G54D58*
D03*
X519314Y-36209D02*
G54D58*
D03*
X525564Y-36209D02*
G54D58*
D03*
X531814Y-36209D02*
G54D58*
D03*
X506481Y-157765D02*
G54D58*
D03*
X501752Y-154030D02*
G54D58*
D03*
X495600Y-153708D02*
G54D58*
D03*
X505970Y-128244D02*
G54D58*
D03*
X499844Y-128244D02*
G54D58*
D03*
X493718Y-128244D02*
G54D58*
D03*
X472595Y-127244D02*
G54D58*
D03*
X463335Y-127245D02*
G54D58*
D03*
X494218Y-58244D02*
G54D58*
D03*
X474095Y-58244D02*
G54D58*
D03*
X467974Y-56603D02*
G54D58*
D03*
X462334Y-59682D02*
G54D58*
D03*
X499718Y-54744D02*
G54D58*
D03*
X506156Y-44935D02*
G54D58*
D03*
X594000Y-171000D02*
G54D58*
D03*
X594000Y-181000D02*
G54D58*
D03*
X594000Y-191000D02*
G54D58*
D03*
X594000Y-8000D02*
G54D58*
D03*
X594000Y-18000D02*
G54D58*
D03*
X594000Y-28000D02*
G54D58*
D03*
X584000Y-194000D02*
G54D58*
D03*
X574000Y-194000D02*
G54D58*
D03*
X564000Y-194000D02*
G54D58*
D03*
X554000Y-194000D02*
G54D58*
D03*
X544000Y-194000D02*
G54D58*
D03*
X534000Y-194000D02*
G54D58*
D03*
X524000Y-194000D02*
G54D58*
D03*
X514000Y-194000D02*
G54D58*
D03*
X504000Y-194000D02*
G54D58*
D03*
X494000Y-194000D02*
G54D58*
D03*
X484000Y-194000D02*
G54D58*
D03*
X474000Y-194000D02*
G54D58*
D03*
X464000Y-194000D02*
G54D58*
D03*
X454000Y-194000D02*
G54D58*
D03*
X444000Y-194000D02*
G54D58*
D03*
X434000Y-194000D02*
G54D58*
D03*
X424000Y-194000D02*
G54D58*
D03*
X414000Y-194000D02*
G54D58*
D03*
X404000Y-194000D02*
G54D58*
D03*
X394000Y-194000D02*
G54D58*
D03*
X384000Y-194000D02*
G54D58*
D03*
X374000Y-194000D02*
G54D58*
D03*
X364000Y-194000D02*
G54D58*
D03*
X354000Y-194000D02*
G54D58*
D03*
X343000Y-194000D02*
G54D58*
D03*
X584000Y-8000D02*
G54D58*
D03*
X574000Y-8000D02*
G54D58*
D03*
X564000Y-8000D02*
G54D58*
D03*
X554000Y-8000D02*
G54D58*
D03*
X544000Y-8000D02*
G54D58*
D03*
X534000Y-8000D02*
G54D58*
D03*
X524000Y-8000D02*
G54D58*
D03*
X514000Y-8000D02*
G54D58*
D03*
X504000Y-8000D02*
G54D58*
D03*
X494000Y-8000D02*
G54D58*
D03*
X484000Y-8000D02*
G54D58*
D03*
X474000Y-8000D02*
G54D58*
D03*
X464000Y-8000D02*
G54D58*
D03*
X454000Y-8000D02*
G54D58*
D03*
X444000Y-8000D02*
G54D58*
D03*
X434000Y-8000D02*
G54D58*
D03*
X424000Y-8000D02*
G54D58*
D03*
X414000Y-8000D02*
G54D58*
D03*
X404000Y-8000D02*
G54D58*
D03*
X394000Y-8000D02*
G54D58*
D03*
X384000Y-8000D02*
G54D58*
D03*
X374000Y-8000D02*
G54D58*
D03*
X364000Y-8000D02*
G54D58*
D03*
X354000Y-8000D02*
G54D58*
D03*
X343000Y-8000D02*
G54D58*
D03*
X577982Y-176223D02*
G54D58*
D03*
X563310Y-176223D02*
G54D58*
D03*
X547965Y-176728D02*
G54D58*
D03*
X531944Y-176897D02*
G54D58*
D03*
X517948Y-176728D02*
G54D58*
D03*
X503951Y-176560D02*
G54D58*
D03*
X495014Y-165936D02*
G54D58*
D03*
X490292Y-180776D02*
G54D58*
D03*
X478656Y-169477D02*
G54D58*
D03*
X473091Y-180438D02*
G54D58*
D03*
X579947Y-123684D02*
G54D58*
D03*
X580605Y-76754D02*
G54D58*
D03*
X578319Y-24283D02*
G54D58*
D03*
X562298Y-24452D02*
G54D58*
D03*
X546784Y-24621D02*
G54D58*
D03*
G54D65*
X466863Y-140960D02*
X453050Y-140950D01*
G36*
X466859Y-147210D02*
X466868Y-134710D01*
X473118Y-134714D01*
X473109Y-147214D01*
X466859Y-147210D01*
G37*
G36*
X453054Y-134700D02*
X453046Y-147200D01*
X446796Y-147196D01*
X446804Y-134696D01*
X453054Y-134700D01*
G37*
X453050Y-140950D02*
G54D53*
D03*
X436350Y-141050D02*
G54D53*
D03*
G54D65*
X466863Y-72960D02*
X453050Y-72950D01*
G36*
X466859Y-79210D02*
X466868Y-66710D01*
X473118Y-66714D01*
X473109Y-79214D01*
X466859Y-79210D01*
G37*
G36*
X453054Y-66700D02*
X453046Y-79200D01*
X446796Y-79196D01*
X446804Y-66696D01*
X453054Y-66700D01*
G37*
X453050Y-72950D02*
G54D53*
D03*
X436350Y-73050D02*
G54D53*
D03*
G54D63*
X427750Y-112600D02*
X427750Y-101100D01*
G54D65*
X430958Y-103834D02*
X446300Y-97400D01*
G54D63*
X427850Y-84400D02*
X436350Y-73050D01*
G54D63*
X427850Y-129300D02*
X427855Y-137166D01*
X436350Y-141050D01*
X446595Y-112244D02*
G54D58*
D03*
X452595Y-112244D02*
G54D58*
D03*
X459595Y-112244D02*
G54D58*
D03*
X322255Y-85525D02*
G54D58*
D03*
X328255Y-85525D02*
G54D58*
D03*
X334255Y-85525D02*
G54D58*
D03*
X340255Y-85525D02*
G54D58*
D03*
X346255Y-85525D02*
G54D58*
D03*
X322255Y-91525D02*
G54D58*
D03*
X328255Y-91525D02*
G54D58*
D03*
X334255Y-91525D02*
G54D58*
D03*
X340255Y-91525D02*
G54D58*
D03*
X346255Y-91525D02*
G54D58*
D03*
X322255Y-97525D02*
G54D58*
D03*
X328255Y-97525D02*
G54D58*
D03*
X340255Y-97525D02*
G54D58*
D03*
X346255Y-97525D02*
G54D58*
D03*
X322255Y-103525D02*
G54D58*
D03*
X328255Y-103525D02*
G54D58*
D03*
X334255Y-103525D02*
G54D58*
D03*
X340255Y-103525D02*
G54D58*
D03*
X346255Y-103525D02*
G54D58*
D03*
X322255Y-109525D02*
G54D58*
D03*
X328255Y-109525D02*
G54D58*
D03*
X334255Y-109525D02*
G54D58*
D03*
X340255Y-109525D02*
G54D58*
D03*
X346255Y-109525D02*
G54D58*
D03*
X334259Y-97525D02*
G54D58*
D03*
X374091Y-86438D02*
G54D58*
D03*
X380091Y-86438D02*
G54D58*
D03*
X386091Y-86438D02*
G54D58*
D03*
X392091Y-86438D02*
G54D58*
D03*
X398091Y-86438D02*
G54D58*
D03*
X355903Y-30003D02*
G54D52*
D03*
X355903Y-50604D02*
G54D52*
D03*
X336700Y-24900D02*
G54D52*
D03*
X336700Y-45500D02*
G54D52*
D03*
X335015Y-56077D02*
G54D66*
D03*
G54D36*
X335015Y-56077D02*
X336700Y-45500D01*
X350900Y-140500D02*
G54D66*
D03*
X389800Y-74000D02*
G54D66*
D03*
G54D36*
X389800Y-74000D02*
X378153Y-73854D01*
X284700Y-28500D02*
G54D52*
D03*
X284700Y-49100D02*
G54D52*
D03*
X303700Y-28500D02*
G54D52*
D03*
X303700Y-49100D02*
G54D52*
D03*
G54D31*
X308066Y-59328D02*
X303700Y-54962D01*
X303700Y-49100D01*
G54D31*
X284700Y-49100D02*
X284700Y-50462D01*
X298566Y-64328D01*
G54D31*
X268580Y-50534D02*
X268580Y-55580D01*
X273000Y-60000D01*
X284000Y-60000D01*
X304000Y-80000D01*
X310013Y-80000D01*
X310032Y-80019D01*
X290415Y-80377D02*
G54D66*
D03*
G54D31*
X276347Y-80049D02*
X276915Y-84677D01*
X287000Y-89000D01*
G54D31*
X310032Y-95019D02*
X304019Y-95019D01*
X297000Y-89000D01*
X287000Y-89000D01*
X275934Y-69131D02*
G54D66*
D03*
G54D36*
X275534Y-69131D02*
X275543Y-76054D01*
X276915Y-80617D01*
X275447Y-79749D01*
X297515Y-109677D02*
G54D66*
D03*
G54D31*
X310032Y-105019D02*
X303046Y-105012D01*
X297515Y-109677D01*
X286615Y-109677D02*
G54D66*
D03*
G54D36*
X286615Y-109677D02*
X285856Y-120215D01*
X299115Y-129677D02*
G54D66*
D03*
X307215Y-140477D02*
G54D66*
D03*
X319215Y-143777D02*
G54D66*
D03*
G54D31*
X299115Y-129677D02*
X312323Y-129677D01*
X316682Y-125318D01*
X316682Y-121669D01*
G54D31*
X307215Y-140477D02*
X316000Y-135000D01*
X321682Y-128318D01*
X321682Y-121669D01*
G54D31*
X319215Y-143777D02*
X326682Y-132318D01*
X326682Y-121669D01*
G54D31*
X351682Y-121669D02*
X351682Y-131000D01*
X357067Y-131101D01*
X360091Y-131438D01*
G54D31*
X358332Y-115019D02*
X365000Y-115019D01*
X367091Y-123438D01*
X360091Y-131438D02*
G54D58*
D03*
X367091Y-123438D02*
G54D58*
D03*
G54D31*
X358332Y-110019D02*
X370019Y-110019D01*
X379000Y-120000D01*
X380000Y-119994D01*
X382106Y-122100D01*
X380091Y-108538D02*
G54D58*
D03*
X386891Y-108538D02*
G54D58*
D03*
X393591Y-108638D02*
G54D58*
D03*
X400091Y-108638D02*
G54D58*
D03*
X406891Y-108838D02*
G54D58*
D03*
X404091Y-86438D02*
G54D58*
D03*
G54D31*
X358332Y-105019D02*
X374753Y-105019D01*
X378027Y-108293D01*
G54D36*
X350900Y-140500D02*
X361903Y-147454D01*
X381903Y-147454D01*
G54D63*
X381903Y-147454D02*
X381903Y-146521D01*
X381903Y-147454D01*
X367354Y-131503D02*
G54D58*
D03*
X394803Y-134890D02*
G54D58*
D03*
X400903Y-134890D02*
G54D58*
D03*
X407003Y-134890D02*
G54D58*
D03*
X381115Y-133677D02*
G54D66*
D03*
G54D36*
X381106Y-133677D02*
X381106Y-122500D01*
G54D31*
X358332Y-100019D02*
X407019Y-100019D01*
X409502Y-100270D01*
X411530Y-101182D01*
X413236Y-102527D01*
X414447Y-104203D01*
X415657Y-106704D01*
X416000Y-109000D01*
X415977Y-117512D01*
X416919Y-120126D01*
X417701Y-121313D01*
X418582Y-122450D01*
X421050Y-124980D01*
X423608Y-126846D01*
X426289Y-128876D01*
G54D31*
X358332Y-95019D02*
X406231Y-95019D01*
X409580Y-94859D01*
X413000Y-94000D01*
X415349Y-93140D01*
X417419Y-91721D01*
X420790Y-89001D01*
X425000Y-86000D01*
X427850Y-84400D01*
X410126Y-85869D02*
G54D58*
D03*
X415133Y-82435D02*
G54D58*
D03*
X416202Y-76483D02*
G54D58*
D03*
X421058Y-72846D02*
G54D58*
D03*
X424764Y-68040D02*
G54D58*
D03*
X425874Y-62068D02*
G54D58*
D03*
X431337Y-59417D02*
G54D58*
D03*
X437659Y-59681D02*
G54D58*
D03*
X443767Y-59682D02*
G54D58*
D03*
X449785Y-59682D02*
G54D58*
D03*
X455820Y-59682D02*
G54D58*
D03*
X410374Y-125847D02*
G54D58*
D03*
X414251Y-130492D02*
G54D58*
D03*
X416312Y-136151D02*
G54D58*
D03*
X417406Y-142092D02*
G54D58*
D03*
X421348Y-146718D02*
G54D58*
D03*
X425418Y-151271D02*
G54D58*
D03*
X431435Y-152660D02*
G54D58*
D03*
X437480Y-152660D02*
G54D58*
D03*
X443283Y-154272D02*
G54D58*
D03*
X449354Y-154279D02*
G54D58*
D03*
X455396Y-154279D02*
G54D58*
D03*
X461439Y-154279D02*
G54D58*
D03*
X467586Y-154349D02*
G54D58*
D03*
X250048Y-185488D02*
G54D67*
D03*
X262741Y-190763D02*
G54D58*
D03*
X262741Y-196763D02*
G54D58*
D03*
X237441Y-195663D02*
G54D58*
D03*
X237397Y-162647D02*
G54D58*
D03*
X262741Y-184763D02*
G54D58*
D03*
X237441Y-189662D02*
G54D58*
D03*
X237441Y-180913D02*
G54D58*
D03*
X237397Y-168735D02*
G54D58*
D03*
G54D60*
X250048Y-184688D02*
X249953Y-162254D01*
X256642Y-106652D02*
G54D58*
D03*
X269384Y-106593D02*
G54D58*
D03*
X334000Y-194000D02*
G54D58*
D03*
X324000Y-194000D02*
G54D58*
D03*
X314000Y-194000D02*
G54D58*
D03*
X303000Y-194000D02*
G54D58*
D03*
X293000Y-194000D02*
G54D58*
D03*
X283000Y-194000D02*
G54D58*
D03*
X273000Y-194000D02*
G54D58*
D03*
G54D60*
X8000Y-8000D02*
X8000Y-194000D01*
G36*
X15500Y-8000D02*
X500Y-8000D01*
X500Y-500D01*
X15500Y-500D01*
X15500Y-8000D01*
G37*
G36*
X500Y-194000D02*
X15500Y-194000D01*
X15500Y-201500D01*
X500Y-201500D01*
X500Y-194000D01*
G37*
G54D60*
X8000Y-194000D02*
X225000Y-194000D01*
G36*
X225000Y-201500D02*
X225000Y-186500D01*
X232500Y-186500D01*
X232500Y-201500D01*
X225000Y-201500D01*
G37*
X333000Y-8000D02*
G54D58*
D03*
X323000Y-8000D02*
G54D58*
D03*
X313000Y-8000D02*
G54D58*
D03*
X303000Y-8000D02*
G54D58*
D03*
X293000Y-8000D02*
G54D58*
D03*
X283000Y-8000D02*
G54D58*
D03*
X273000Y-8000D02*
G54D58*
D03*
X263000Y-8000D02*
G54D58*
D03*
X253000Y-8000D02*
G54D58*
D03*
X243000Y-8000D02*
G54D58*
D03*
X233000Y-8000D02*
G54D58*
D03*
X223000Y-8000D02*
G54D58*
D03*
X213000Y-8000D02*
G54D58*
D03*
X203000Y-8000D02*
G54D58*
D03*
X193000Y-8000D02*
G54D58*
D03*
X183000Y-8000D02*
G54D58*
D03*
X173000Y-8000D02*
G54D58*
D03*
X163000Y-8000D02*
G54D58*
D03*
X153000Y-8000D02*
G54D58*
D03*
X143000Y-8000D02*
G54D58*
D03*
X133000Y-8000D02*
G54D58*
D03*
X123000Y-8000D02*
G54D58*
D03*
X113000Y-8000D02*
G54D58*
D03*
X103000Y-8000D02*
G54D58*
D03*
X92000Y-8000D02*
G54D58*
D03*
X82000Y-8000D02*
G54D58*
D03*
X72000Y-8000D02*
G54D58*
D03*
X62000Y-8000D02*
G54D58*
D03*
X51000Y-8000D02*
G54D58*
D03*
X41000Y-8000D02*
G54D58*
D03*
X31000Y-8000D02*
G54D58*
D03*
X21000Y-8000D02*
G54D58*
D03*
X10000Y-8000D02*
G54D58*
D03*
X7862Y-48234D02*
G54D58*
D03*
X7862Y-38234D02*
G54D58*
D03*
X7862Y-28234D02*
G54D58*
D03*
X7862Y-17234D02*
G54D58*
D03*
X7862Y-88234D02*
G54D58*
D03*
X7862Y-78234D02*
G54D58*
D03*
X7862Y-68234D02*
G54D58*
D03*
X7862Y-57234D02*
G54D58*
D03*
X7862Y-128234D02*
G54D58*
D03*
X7862Y-118234D02*
G54D58*
D03*
X7862Y-108234D02*
G54D58*
D03*
X7862Y-97234D02*
G54D58*
D03*
X7862Y-168234D02*
G54D58*
D03*
X7862Y-158234D02*
G54D58*
D03*
X7862Y-148234D02*
G54D58*
D03*
X7862Y-137234D02*
G54D58*
D03*
X7862Y-188234D02*
G54D58*
D03*
X7862Y-177234D02*
G54D58*
D03*
X225000Y-194000D02*
G54D58*
D03*
X216852Y-193929D02*
G54D58*
D03*
X206852Y-193929D02*
G54D58*
D03*
X196852Y-193929D02*
G54D58*
D03*
X186852Y-193929D02*
G54D58*
D03*
X176852Y-193929D02*
G54D58*
D03*
X166852Y-193929D02*
G54D58*
D03*
X156852Y-193929D02*
G54D58*
D03*
X146852Y-193929D02*
G54D58*
D03*
X136852Y-193929D02*
G54D58*
D03*
X126852Y-193929D02*
G54D58*
D03*
X116852Y-193929D02*
G54D58*
D03*
X106852Y-193929D02*
G54D58*
D03*
X96852Y-193929D02*
G54D58*
D03*
X86852Y-193929D02*
G54D58*
D03*
X76852Y-193929D02*
G54D58*
D03*
X66852Y-193929D02*
G54D58*
D03*
X56852Y-193929D02*
G54D58*
D03*
X46852Y-193929D02*
G54D58*
D03*
X36852Y-193929D02*
G54D58*
D03*
X26852Y-193929D02*
G54D58*
D03*
X15852Y-193929D02*
G54D58*
D03*
X189509Y-104184D02*
G54D68*
D03*
X167357Y-79986D02*
G54D69*
D03*
X167457Y-102986D02*
G54D69*
D03*
X167457Y-125986D02*
G54D69*
D03*
X108757Y-103086D02*
G54D70*
D03*
X118452Y-161029D02*
G54D71*
D03*
G36*
X158252Y-147079D02*
X184252Y-147079D01*
X184252Y-174979D01*
X158252Y-174979D01*
X158252Y-147079D01*
G37*
X216256Y-79209D02*
G54D59*
D03*
X216256Y-107209D02*
G54D59*
D03*
X189762Y-125131D02*
G54D52*
D03*
X189762Y-104531D02*
G54D52*
D03*
X168209Y-33203D02*
G54D52*
D03*
X168209Y-53803D02*
G54D52*
D03*
G54D60*
X167457Y-102986D02*
X108857Y-102986D01*
X108757Y-103086D01*
X207112Y-33750D02*
G54D55*
D03*
X186512Y-33750D02*
G54D55*
D03*
X187518Y-53342D02*
G54D72*
D03*
X210518Y-53342D02*
G54D72*
D03*
X199018Y-53342D02*
G54D73*
D03*
G54D63*
X187518Y-53342D02*
X187518Y-34756D01*
X186512Y-33750D01*
G54D63*
X187518Y-53342D02*
X168209Y-53803D01*
G54D13*
X167357Y-76986D02*
X168210Y-76134D01*
X168209Y-53803D01*
G54D13*
X189762Y-104531D02*
X167457Y-104531D01*
X167457Y-102986D01*
G54D13*
X189762Y-125131D02*
X167457Y-125131D01*
X167457Y-125986D01*
G36*
X134000Y-22000D02*
X134000Y-46000D01*
X154000Y-46000D01*
X154000Y-66000D01*
X150000Y-66000D01*
X150000Y-181000D01*
X22000Y-181000D01*
X22000Y-22000D01*
X134000Y-22000D01*
G37*
G54D74*
X134000Y-22000D02*
X134000Y-46000D01*
X154000Y-46000D01*
X154000Y-66000D01*
X150000Y-66000D01*
X150000Y-181000D01*
X22000Y-181000D01*
X22000Y-22000D01*
X134000Y-22000D01*
G54D13*
X189762Y-104531D02*
X196593Y-104480D01*
X204105Y-104702D01*
X205978Y-105531D01*
X216256Y-107810D01*
G54D13*
X189762Y-125131D02*
X189760Y-144177D01*
G54D13*
X189762Y-125131D02*
X212249Y-125165D01*
G54D26*
X167457Y-125986D02*
X167457Y-145457D01*
X169000Y-147000D01*
X86000Y-86000D02*
G54D58*
D03*
X86000Y-96000D02*
G54D58*
D03*
X86000Y-106000D02*
G54D58*
D03*
X86000Y-116000D02*
G54D58*
D03*
X86000Y-126000D02*
G54D58*
D03*
X86000Y-136000D02*
G54D58*
D03*
X86000Y-76000D02*
G54D58*
D03*
X86000Y-66000D02*
G54D58*
D03*
X96000Y-66000D02*
G54D58*
D03*
X106000Y-66000D02*
G54D58*
D03*
X116000Y-66000D02*
G54D58*
D03*
X126000Y-66000D02*
G54D58*
D03*
X136000Y-66000D02*
G54D58*
D03*
X96000Y-136000D02*
G54D58*
D03*
X106000Y-136000D02*
G54D58*
D03*
X116000Y-136000D02*
G54D58*
D03*
X126000Y-136000D02*
G54D58*
D03*
X136000Y-136000D02*
G54D58*
D03*
X80572Y-71000D02*
G54D58*
D03*
X80572Y-81000D02*
G54D58*
D03*
X80498Y-90999D02*
G54D58*
D03*
X80572Y-101000D02*
G54D58*
D03*
X80572Y-111000D02*
G54D58*
D03*
X80572Y-121000D02*
G54D58*
D03*
X80572Y-131000D02*
G54D58*
D03*
X91000Y-141000D02*
G54D58*
D03*
X101000Y-141000D02*
G54D58*
D03*
X111000Y-141000D02*
G54D58*
D03*
X121000Y-141000D02*
G54D58*
D03*
X131000Y-141000D02*
G54D58*
D03*
X91000Y-61000D02*
G54D58*
D03*
X101000Y-61000D02*
G54D58*
D03*
X111000Y-61000D02*
G54D58*
D03*
X121000Y-61000D02*
G54D58*
D03*
X131000Y-61000D02*
G54D58*
D03*
X76000Y-76000D02*
G54D58*
D03*
X76000Y-86000D02*
G54D58*
D03*
X76000Y-96000D02*
G54D58*
D03*
X76000Y-106000D02*
G54D58*
D03*
X76000Y-116000D02*
G54D58*
D03*
X76000Y-126000D02*
G54D58*
D03*
X26000Y-26000D02*
G54D58*
D03*
X46000Y-26000D02*
G54D58*
D03*
X66000Y-26000D02*
G54D58*
D03*
X86000Y-26000D02*
G54D58*
D03*
X106000Y-26000D02*
G54D58*
D03*
X126000Y-26000D02*
G54D58*
D03*
X134000Y-46000D02*
G54D58*
D03*
X26000Y-46000D02*
G54D58*
D03*
X26000Y-66000D02*
G54D58*
D03*
X26000Y-86000D02*
G54D58*
D03*
X26000Y-106000D02*
G54D58*
D03*
X26000Y-126000D02*
G54D58*
D03*
X26000Y-146000D02*
G54D58*
D03*
X26000Y-166000D02*
G54D58*
D03*
X26000Y-178000D02*
G54D58*
D03*
X47000Y-178000D02*
G54D58*
D03*
X67000Y-178000D02*
G54D58*
D03*
X87000Y-178000D02*
G54D58*
D03*
X135000Y-178000D02*
G54D58*
D03*
G54D36*
X251153Y-33604D02*
X268280Y-33633D01*
X446600Y-87000D02*
G54D66*
D03*
G54D36*
X446800Y-87000D02*
X446300Y-97400D01*
X507036Y-38004D02*
G54D58*
D03*
X465007Y-45127D02*
G54D58*
D03*
X465007Y-51127D02*
G54D58*
D03*
X458434Y-39182D02*
G54D58*
D03*
X452738Y-36476D02*
G54D58*
D03*
X446367Y-36476D02*
G54D58*
D03*
X440054Y-36476D02*
G54D58*
D03*
X433833Y-36476D02*
G54D58*
D03*
G54D46*
X285856Y-120215D02*
X285856Y-141256D01*
X287253Y-142654D01*
G54D29*
X287253Y-163254D02*
X310000Y-163000D01*
X336153Y-147354D01*
X346100Y-155000D01*
X336153Y-147354D01*
X346100Y-155000D02*
G54D66*
D03*
X240334Y-67431D02*
G54D66*
D03*
G54D63*
X240334Y-67431D02*
X216256Y-79209D01*
X219334Y-47431D02*
G54D66*
D03*
G54D36*
X210518Y-53342D02*
X213423Y-53342D01*
X219334Y-47431D01*
X223224Y-61620D02*
G54D58*
D03*
X229842Y-51123D02*
G54D58*
D03*
X230110Y-44885D02*
G54D58*
D03*
X232808Y-57405D02*
G54D58*
D03*
X219368Y-31189D02*
G54D58*
D03*
X222027Y-36720D02*
G54D58*
D03*
X236391Y-87783D02*
G54D58*
D03*
X237489Y-81696D02*
G54D58*
D03*
X207763Y-125460D02*
G54D58*
D03*
X207763Y-145460D02*
G54D58*
D03*
X207763Y-135460D02*
G54D58*
D03*
X207763Y-155460D02*
G54D58*
D03*
X207763Y-165460D02*
G54D58*
D03*
X207763Y-176460D02*
G54D58*
D03*
X147763Y-22460D02*
G54D58*
D03*
X153963Y-22460D02*
G54D58*
D03*
X159963Y-22460D02*
G54D58*
D03*
X165963Y-22460D02*
G54D58*
D03*
X176763Y-18460D02*
G54D58*
D03*
X183463Y-18460D02*
G54D58*
D03*
X189663Y-18460D02*
G54D58*
D03*
X161763Y-180460D02*
G54D58*
D03*
X169763Y-180460D02*
G54D58*
D03*
X177763Y-180460D02*
G54D58*
D03*
X185763Y-180460D02*
G54D58*
D03*
X193763Y-182560D02*
G54D58*
D03*
X201763Y-182560D02*
G54D58*
D03*
X218290Y-182507D02*
G54D58*
D03*
X224300Y-182492D02*
G54D58*
D03*
X233110Y-185179D02*
G54D58*
D03*
X269263Y-182960D02*
G54D58*
D03*
X282513Y-182960D02*
G54D58*
D03*
X289013Y-182960D02*
G54D58*
D03*
X298931Y-177771D02*
G54D58*
D03*
X311198Y-173662D02*
G54D58*
D03*
X317651Y-170869D02*
G54D58*
D03*
X325763Y-173460D02*
G54D58*
D03*
X330763Y-177460D02*
G54D58*
D03*
X344763Y-176460D02*
G54D58*
D03*
X346763Y-166460D02*
G54D58*
D03*
X318763Y-184460D02*
G54D58*
D03*
X344763Y-184460D02*
G54D58*
D03*
X367763Y-179460D02*
G54D58*
D03*
X377112Y-181117D02*
G54D58*
D03*
X386331Y-180662D02*
G54D58*
D03*
X353763Y-184460D02*
G54D58*
D03*
X372763Y-186460D02*
G54D58*
D03*
X363763Y-184460D02*
G54D58*
D03*
X383194Y-186561D02*
G54D58*
D03*
X394086Y-180872D02*
G54D58*
D03*
X401364Y-180045D02*
G54D58*
D03*
X408966Y-179021D02*
G54D58*
D03*
X424763Y-163460D02*
G54D58*
D03*
X444763Y-162460D02*
G54D58*
D03*
X462763Y-162460D02*
G54D58*
D03*
X422763Y-176460D02*
G54D58*
D03*
X439763Y-172460D02*
G54D58*
D03*
X454763Y-173460D02*
G54D58*
D03*
X461763Y-183460D02*
G54D58*
D03*
X447763Y-184460D02*
G54D58*
D03*
X433763Y-184460D02*
G54D58*
D03*
X418763Y-184460D02*
G54D58*
D03*
X398317Y-187167D02*
G54D58*
D03*
X367414Y-33128D02*
G54D58*
D03*
X375414Y-33128D02*
G54D58*
D03*
X384414Y-33128D02*
G54D58*
D03*
X393414Y-33128D02*
G54D58*
D03*
X402414Y-33128D02*
G54D58*
D03*
X411414Y-33128D02*
G54D58*
D03*
X419414Y-33128D02*
G54D58*
D03*
X427414Y-33128D02*
G54D58*
D03*
X436966Y-31199D02*
G54D58*
D03*
X443279Y-31199D02*
G54D58*
D03*
X399414Y-80228D02*
G54D58*
D03*
X406119Y-79291D02*
G54D58*
D03*
X407728Y-61457D02*
G54D58*
D03*
X408615Y-68237D02*
G54D58*
D03*
X413809Y-61457D02*
G54D58*
D03*
X419830Y-61457D02*
G54D58*
D03*
X230845Y-164292D02*
G54D58*
D03*
X212225Y-182545D02*
G54D58*
D03*
X304453Y-175156D02*
G54D58*
D03*
X352333Y-177943D02*
G54D58*
D03*
X405763Y-155460D02*
G54D58*
D03*
X412583Y-159003D02*
G54D58*
D03*
X415815Y-177032D02*
G54D58*
D03*
X410763Y-144460D02*
G54D58*
D03*
X148209Y-33203D02*
G54D52*
D03*
X148209Y-53803D02*
G54D52*
D03*
X195763Y-18460D02*
G54D58*
D03*
X249953Y-138654D02*
G54D52*
D03*
X249953Y-159254D02*
G54D52*
D03*
G54D29*
X249953Y-138654D02*
X250000Y-126000D01*
X249953Y-138654D01*
G54D31*
X310032Y-100019D02*
X252981Y-100019D01*
X249953Y-103047D01*
X249953Y-109953D01*
X250000Y-126000D01*
X231522Y-193144D02*
G54D58*
D03*
X244124Y-100062D02*
G54D58*
D03*
X236068Y-93976D02*
G54D58*
D03*
X243074Y-79099D02*
G54D58*
D03*
X256585Y-112875D02*
G54D58*
D03*
X226198Y-56149D02*
G54D58*
D03*
X243136Y-109942D02*
G54D58*
D03*
X240247Y-104642D02*
G54D58*
D03*
X236306Y-100019D02*
G54D58*
D03*
X244352Y-93979D02*
G54D58*
D03*
X244263Y-86480D02*
G54D58*
D03*
X237277Y-174889D02*
G54D58*
D03*
X237887Y-156572D02*
G54D58*
D03*
X235113Y-151110D02*
G54D58*
D03*
X231095Y-171292D02*
G54D58*
D03*
X231095Y-178292D02*
G54D58*
D03*
X276013Y-182960D02*
G54D58*
D03*
X295513Y-182960D02*
G54D58*
D03*
X262741Y-178763D02*
G54D58*
D03*
X275050Y-109428D02*
G54D58*
D03*
X263148Y-106660D02*
G54D58*
D03*
X236808Y-51405D02*
G54D58*
D03*
X236808Y-44405D02*
G54D58*
D03*
X236808Y-37405D02*
G54D58*
D03*
X227368Y-31189D02*
G54D58*
D03*
X227413Y-39499D02*
G54D58*
D03*
X235368Y-31189D02*
G54D58*
D03*
X170648Y-18658D02*
G54D58*
D03*
X360429Y-124112D02*
G54D58*
D03*
X322763Y-167460D02*
G54D58*
D03*
X360763Y-177460D02*
G54D58*
D03*
X337763Y-177460D02*
G54D58*
D03*
X350763Y-171460D02*
G54D58*
D03*
X401414Y-74228D02*
G54D58*
D03*
X401414Y-68228D02*
G54D58*
D03*
X401684Y-61457D02*
G54D58*
D03*
X381903Y-168054D02*
G54D52*
D03*
X381903Y-147454D02*
G54D52*
D03*
G54D63*
X381903Y-168054D02*
X397903Y-168054D01*
X419583Y-159003D02*
G54D58*
D03*
X424583Y-170003D02*
G54D58*
D03*
X103000Y-178000D02*
G54D58*
D03*
X120000Y-178000D02*
G54D58*
D03*
M02*
