%FSLAX34Y34*%
%MOMM*%
%LNSMDMASK_TOP*%
G71*
G01*
%ADD10R,0.800X0.300*%
%ADD11R,0.300X0.800*%
%ADD12R,3.150X3.150*%
%ADD13R,1.400X1.100*%
%ADD14R,0.900X0.900*%
%ADD15R,1.800X1.400*%
%ADD16R,1.100X1.400*%
%ADD17R,1.000X1.120*%
%ADD18R,2.600X1.600*%
%ADD19R,2.500X1.270*%
%ADD20R,1.500X3.000*%
%ADD21R,1.900X1.500*%
%ADD22R,2.100X4.200*%
%ADD23R,2.600X2.790*%
%ADD24R,0.900X1.200*%
%ADD25R,0.600X2.200*%
%LPD*%
X358332Y-115019D02*
G54D10*
D03*
X310032Y-115019D02*
G54D10*
D03*
X358332Y-110019D02*
G54D10*
D03*
X310032Y-110019D02*
G54D10*
D03*
X358332Y-105019D02*
G54D10*
D03*
X310032Y-105019D02*
G54D10*
D03*
X358332Y-100019D02*
G54D10*
D03*
X310032Y-100019D02*
G54D10*
D03*
X358332Y-95019D02*
G54D10*
D03*
X310032Y-95019D02*
G54D10*
D03*
X358332Y-90019D02*
G54D10*
D03*
X310032Y-90019D02*
G54D10*
D03*
X358332Y-85019D02*
G54D10*
D03*
X310032Y-85019D02*
G54D10*
D03*
X358332Y-80019D02*
G54D10*
D03*
X310032Y-80019D02*
G54D10*
D03*
X351682Y-121669D02*
G54D11*
D03*
X351682Y-73369D02*
G54D11*
D03*
X346682Y-121669D02*
G54D11*
D03*
X346682Y-73369D02*
G54D11*
D03*
X341682Y-121669D02*
G54D11*
D03*
X341682Y-73369D02*
G54D11*
D03*
X336682Y-121669D02*
G54D11*
D03*
X336682Y-73369D02*
G54D11*
D03*
X331682Y-121669D02*
G54D11*
D03*
X331682Y-73369D02*
G54D11*
D03*
X326682Y-121669D02*
G54D11*
D03*
X326682Y-73369D02*
G54D11*
D03*
X321682Y-121669D02*
G54D11*
D03*
X321682Y-73369D02*
G54D11*
D03*
X316682Y-121669D02*
G54D11*
D03*
X316682Y-73369D02*
G54D11*
D03*
X334259Y-97525D02*
G54D12*
D03*
X251153Y-33604D02*
G54D13*
D03*
X251153Y-54204D02*
G54D13*
D03*
X268380Y-50334D02*
G54D14*
D03*
X268280Y-33633D02*
G54D14*
D03*
X427850Y-129300D02*
G54D14*
D03*
X427750Y-112600D02*
G54D14*
D03*
X427850Y-84400D02*
G54D14*
D03*
X427750Y-101100D02*
G54D14*
D03*
X446300Y-123500D02*
G54D15*
D03*
X446300Y-97400D02*
G54D15*
D03*
X378153Y-53254D02*
G54D13*
D03*
X378153Y-73854D02*
G54D13*
D03*
X320330Y-33834D02*
G54D14*
D03*
X320430Y-50534D02*
G54D14*
D03*
G36*
X249347Y-72749D02*
X260347Y-72749D01*
X260347Y-86749D01*
X249347Y-86749D01*
X249347Y-72749D01*
G37*
X275447Y-79749D02*
G54D16*
D03*
X285856Y-123215D02*
G54D16*
D03*
X265256Y-123215D02*
G54D16*
D03*
G36*
X375606Y-115500D02*
X386606Y-115500D01*
X386606Y-129500D01*
X375606Y-129500D01*
X375606Y-115500D01*
G37*
G36*
X396206Y-115500D02*
X407206Y-115500D01*
X407206Y-129500D01*
X396206Y-129500D01*
X396206Y-115500D01*
G37*
X336153Y-147354D02*
G54D13*
D03*
X336153Y-167954D02*
G54D13*
D03*
X414603Y-167954D02*
G54D14*
D03*
X397903Y-168054D02*
G54D14*
D03*
X361903Y-147454D02*
G54D13*
D03*
X361903Y-168054D02*
G54D13*
D03*
X287253Y-142654D02*
G54D13*
D03*
X287253Y-163254D02*
G54D13*
D03*
X468063Y-72960D02*
G54D17*
D03*
G36*
X478163Y-67360D02*
X488163Y-67360D01*
X488163Y-78560D01*
X478163Y-78560D01*
X478163Y-67360D01*
G37*
G36*
X493262Y-67360D02*
X503262Y-67360D01*
X503263Y-78560D01*
X493263Y-78560D01*
X493262Y-67360D01*
G37*
G36*
X478163Y-28460D02*
X488163Y-28460D01*
X488163Y-39660D01*
X478163Y-39660D01*
X478163Y-28460D01*
G37*
G36*
X460163Y-14560D02*
X506163Y-14560D01*
X506163Y-53560D01*
X460163Y-53560D01*
X460163Y-14560D01*
G37*
X553884Y-92997D02*
G54D13*
D03*
X553884Y-72397D02*
G54D13*
D03*
X526481Y-80551D02*
G54D18*
D03*
X526481Y-52551D02*
G54D18*
D03*
X587502Y-49939D02*
G54D19*
D03*
X587502Y-149939D02*
G54D19*
D03*
X564902Y-49939D02*
G54D14*
D03*
X548202Y-50039D02*
G54D14*
D03*
X564902Y-149939D02*
G54D14*
D03*
X548202Y-150039D02*
G54D14*
D03*
G36*
X463063Y-135360D02*
X473063Y-135360D01*
X473063Y-146560D01*
X463063Y-146560D01*
X463063Y-135360D01*
G37*
G36*
X478163Y-135360D02*
X488163Y-135360D01*
X488164Y-146560D01*
X478164Y-146560D01*
X478163Y-135360D01*
G37*
G36*
X493263Y-135360D02*
X503263Y-135360D01*
X503263Y-146560D01*
X493263Y-146560D01*
X493263Y-135360D01*
G37*
X483163Y-102060D02*
G54D17*
D03*
G36*
X460163Y-82560D02*
X506163Y-82560D01*
X506163Y-121560D01*
X460163Y-121560D01*
X460163Y-82560D01*
G37*
X526481Y-147551D02*
G54D18*
D03*
X526481Y-119551D02*
G54D18*
D03*
X535550Y-100001D02*
G54D16*
D03*
X514950Y-100001D02*
G54D16*
D03*
X553784Y-106878D02*
G54D13*
D03*
X553784Y-127478D02*
G54D13*
D03*
X453050Y-140950D02*
G54D14*
D03*
X436350Y-141050D02*
G54D14*
D03*
X453050Y-72950D02*
G54D14*
D03*
X436350Y-73050D02*
G54D14*
D03*
X355903Y-30003D02*
G54D13*
D03*
X355903Y-50604D02*
G54D13*
D03*
X336700Y-24900D02*
G54D13*
D03*
X336700Y-45500D02*
G54D13*
D03*
X284700Y-28500D02*
G54D13*
D03*
X284700Y-49100D02*
G54D13*
D03*
X303700Y-28500D02*
G54D13*
D03*
X303700Y-49100D02*
G54D13*
D03*
X250048Y-185488D02*
G54D20*
D03*
X167357Y-79986D02*
G54D21*
D03*
X167457Y-102986D02*
G54D21*
D03*
X167457Y-125986D02*
G54D21*
D03*
X108757Y-103086D02*
G54D22*
D03*
X118452Y-161029D02*
G54D23*
D03*
G36*
X158252Y-147079D02*
X184252Y-147079D01*
X184252Y-174979D01*
X158252Y-174979D01*
X158252Y-147079D01*
G37*
X216256Y-79209D02*
G54D18*
D03*
X216256Y-107209D02*
G54D18*
D03*
X189762Y-125131D02*
G54D13*
D03*
X189762Y-104531D02*
G54D13*
D03*
X168209Y-33203D02*
G54D13*
D03*
X168209Y-53803D02*
G54D13*
D03*
X207112Y-33750D02*
G54D16*
D03*
X186512Y-33750D02*
G54D16*
D03*
X187518Y-53342D02*
G54D24*
D03*
X210518Y-53342D02*
G54D24*
D03*
X199018Y-53342D02*
G54D25*
D03*
X148209Y-33203D02*
G54D13*
D03*
X148209Y-53803D02*
G54D13*
D03*
X249953Y-138654D02*
G54D13*
D03*
X249953Y-159254D02*
G54D13*
D03*
X381903Y-168054D02*
G54D13*
D03*
X381903Y-147454D02*
G54D13*
D03*
M02*
