%FSLAX34Y34*%
%MOMM*%
%LNSILK_BOTTOM*%
G71*
G01*
%ADD10C,0.150*%
%ADD11C,0.400*%
%ADD12C,0.178*%
%ADD13C,0.222*%
%ADD14C,0.256*%
%LPD*%
G54D10*
X295030Y-178522D02*
X295030Y-167547D01*
X266730Y-167547D01*
X266730Y-178522D01*
X295030Y-178522D01*
G54D10*
X266830Y-115646D02*
X266830Y-126622D01*
X295130Y-126622D01*
X295130Y-115646D01*
X266830Y-115646D01*
G54D10*
X266630Y-141646D02*
X266630Y-152622D01*
X294930Y-152622D01*
X294930Y-141646D01*
X266630Y-141646D01*
G54D10*
X266630Y-154646D02*
X266630Y-165622D01*
X294930Y-165622D01*
X294930Y-154646D01*
X266630Y-154646D01*
G54D10*
X266630Y-128646D02*
X266630Y-139622D01*
X294930Y-139622D01*
X294930Y-128646D01*
X266630Y-128646D01*
G54D10*
X425944Y-39519D02*
X425944Y-56582D01*
G54D10*
X391262Y-39519D02*
X391262Y-56582D01*
G54D10*
X425944Y-39519D02*
X391262Y-39519D01*
G54D10*
X425944Y-56582D02*
X391262Y-56582D01*
G54D10*
X513735Y-40922D02*
X513735Y-50922D01*
X515485Y-50922D01*
G54D10*
X532135Y-40922D02*
X532135Y-50922D01*
X530385Y-50922D01*
G54D10*
X532135Y-31422D02*
X532135Y-21422D01*
X530385Y-21422D01*
G54D10*
X513735Y-31422D02*
X513735Y-21422D01*
X515485Y-21422D01*
G54D10*
X212513Y-112710D02*
X222513Y-112710D01*
X222513Y-110960D01*
G54D10*
X212513Y-94310D02*
X222513Y-94310D01*
X222513Y-96060D01*
G54D10*
X203013Y-94310D02*
X193013Y-94310D01*
X193013Y-96060D01*
G54D10*
X203013Y-112710D02*
X193013Y-112710D01*
X193013Y-110960D01*
G54D10*
X212513Y-134710D02*
X222513Y-134710D01*
X222513Y-132960D01*
G54D10*
X212513Y-116310D02*
X222513Y-116310D01*
X222513Y-118060D01*
G54D10*
X203013Y-116310D02*
X193013Y-116310D01*
X193013Y-118060D01*
G54D10*
X203013Y-134710D02*
X193013Y-134710D01*
X193013Y-132960D01*
G54D10*
X212513Y-156710D02*
X222513Y-156710D01*
X222513Y-154960D01*
G54D10*
X212513Y-138310D02*
X222513Y-138310D01*
X222513Y-140060D01*
G54D10*
X203013Y-138310D02*
X193013Y-138310D01*
X193013Y-140060D01*
G54D10*
X203013Y-156710D02*
X193013Y-156710D01*
X193013Y-154960D01*
G54D10*
X212513Y-178710D02*
X222513Y-178710D01*
X222513Y-176960D01*
G54D10*
X212513Y-160310D02*
X222513Y-160310D01*
X222513Y-162060D01*
G54D10*
X203013Y-160310D02*
X193013Y-160310D01*
X193013Y-162060D01*
G54D10*
X203013Y-178710D02*
X193013Y-178710D01*
X193013Y-176960D01*
G54D10*
X212513Y-90710D02*
X222513Y-90710D01*
X222513Y-88960D01*
G54D10*
X212513Y-72310D02*
X222513Y-72310D01*
X222513Y-74060D01*
G54D10*
X203013Y-72310D02*
X193013Y-72310D01*
X193013Y-74060D01*
G54D10*
X203013Y-90710D02*
X193013Y-90710D01*
X193013Y-88960D01*
G54D10*
X152968Y-52192D02*
X185968Y-52192D01*
X185968Y-149192D01*
X152968Y-149192D01*
G54D11*
G75*
G01X167289Y-42454D02*
G03X167289Y-42454I-3000J0D01*
G01*
G36*
G75*
G01X167289Y-42454D02*
G03X167289Y-42454I-3000J0D01*
G01*
G37*
X167289Y-42454D01*
G54D10*
X435817Y-64433D02*
X435817Y-74433D01*
X437567Y-74433D01*
G54D10*
X454217Y-64432D02*
X454217Y-74433D01*
X452467Y-74433D01*
G54D10*
X454217Y-54933D02*
X454217Y-44933D01*
X452467Y-44933D01*
G54D10*
X435817Y-54933D02*
X435817Y-44932D01*
X437567Y-44932D01*
G54D10*
X351962Y-164582D02*
X351962Y-147519D01*
G54D10*
X386644Y-164582D02*
X386644Y-147519D01*
G54D10*
X351962Y-164582D02*
X386644Y-164582D01*
G54D10*
X351962Y-147519D02*
X386644Y-147519D01*
G54D10*
X283640Y-80631D02*
X283640Y-97694D01*
G54D10*
X248959Y-80631D02*
X248959Y-97694D01*
G54D10*
X283640Y-80631D02*
X248959Y-80631D01*
G54D10*
X283640Y-97694D02*
X248959Y-97694D01*
G54D10*
X283640Y-45631D02*
X283640Y-62694D01*
G54D10*
X248959Y-45631D02*
X248959Y-62694D01*
G54D10*
X283640Y-45631D02*
X248959Y-45631D01*
G54D10*
X283640Y-62694D02*
X248959Y-62694D01*
G54D10*
X387640Y-39431D02*
X387640Y-56494D01*
G54D10*
X352959Y-39431D02*
X352959Y-56494D01*
G54D10*
X387640Y-39431D02*
X352959Y-39431D01*
G54D10*
X387640Y-56494D02*
X352959Y-56494D01*
G54D10*
X248765Y-37794D02*
X248765Y-20731D01*
G54D10*
X283446Y-37794D02*
X283446Y-20731D01*
G54D10*
X248765Y-37794D02*
X283446Y-37794D01*
G54D10*
X248765Y-20731D02*
X283446Y-20731D01*
G54D12*
X129733Y-42889D02*
X125467Y-42889D01*
X125467Y-47333D01*
X126533Y-49111D01*
X128667Y-50000D01*
X130800Y-50000D01*
X132933Y-49111D01*
X134000Y-47333D01*
X134000Y-38444D01*
X132933Y-36667D01*
X130800Y-35778D01*
X128667Y-35778D01*
X126533Y-36667D01*
X125467Y-38444D01*
G54D12*
X121556Y-50000D02*
X121556Y-35778D01*
X113023Y-50000D01*
X113023Y-35778D01*
G54D12*
X109112Y-50000D02*
X109112Y-35778D01*
X103779Y-35778D01*
X101645Y-36667D01*
X100579Y-38444D01*
X100579Y-47333D01*
X101645Y-49111D01*
X103779Y-50000D01*
X109112Y-50000D01*
G54D12*
X134000Y-63278D02*
X125467Y-63278D01*
G54D12*
X129733Y-59722D02*
X129733Y-66833D01*
G54D12*
X113023Y-55278D02*
X121556Y-55278D01*
X121556Y-61500D01*
X120489Y-61500D01*
X118356Y-60611D01*
X116223Y-60611D01*
X114089Y-61500D01*
X113023Y-63278D01*
X113023Y-66833D01*
X114089Y-68611D01*
X116223Y-69500D01*
X118356Y-69500D01*
X120489Y-68611D01*
X121556Y-66833D01*
G54D12*
X109112Y-55278D02*
X103779Y-69500D01*
X98445Y-55278D01*
G54D12*
X134000Y-88000D02*
X134000Y-73778D01*
X128667Y-82667D01*
X123333Y-73778D01*
X123333Y-88000D01*
G54D12*
X119422Y-88000D02*
X119422Y-73778D01*
G54D12*
X115511Y-85333D02*
X114444Y-87111D01*
X112311Y-88000D01*
X110178Y-88000D01*
X108044Y-87111D01*
X106978Y-85333D01*
X106978Y-83556D01*
X108044Y-81778D01*
X110178Y-80889D01*
X112311Y-80889D01*
X114444Y-80000D01*
X115511Y-78222D01*
X115511Y-76444D01*
X114444Y-74667D01*
X112311Y-73778D01*
X110178Y-73778D01*
X108044Y-74667D01*
X106978Y-76444D01*
G54D12*
X94534Y-76444D02*
X94534Y-85333D01*
X95600Y-87111D01*
X97734Y-88000D01*
X99867Y-88000D01*
X102000Y-87111D01*
X103067Y-85333D01*
X103067Y-76444D01*
X102000Y-74667D01*
X99867Y-73778D01*
X97734Y-73778D01*
X95600Y-74667D01*
X94534Y-76444D01*
G54D12*
X126467Y-104333D02*
X127533Y-106111D01*
X129667Y-107000D01*
X131800Y-107000D01*
X133933Y-106111D01*
X135000Y-104333D01*
X135000Y-95444D01*
X133933Y-93667D01*
X131800Y-92778D01*
X129667Y-92778D01*
X127533Y-93667D01*
X126467Y-95444D01*
G54D12*
X122556Y-92778D02*
X122556Y-107000D01*
X115089Y-107000D01*
G54D12*
X111178Y-107000D02*
X111178Y-92778D01*
G54D12*
X111178Y-102556D02*
X102645Y-92778D01*
G54D12*
X107978Y-99889D02*
X102645Y-107000D01*
G54D12*
X135000Y-126000D02*
X135000Y-111778D01*
X129667Y-120667D01*
X124333Y-111778D01*
X124333Y-126000D01*
G54D12*
X111889Y-114444D02*
X111889Y-123333D01*
X112955Y-125111D01*
X115089Y-126000D01*
X117222Y-126000D01*
X119355Y-125111D01*
X120422Y-123333D01*
X120422Y-114444D01*
X119355Y-112667D01*
X117222Y-111778D01*
X115089Y-111778D01*
X112955Y-112667D01*
X111889Y-114444D01*
G54D12*
X107978Y-123333D02*
X106911Y-125111D01*
X104778Y-126000D01*
X102645Y-126000D01*
X100511Y-125111D01*
X99445Y-123333D01*
X99445Y-121556D01*
X100511Y-119778D01*
X102645Y-118889D01*
X104778Y-118889D01*
X106911Y-118000D01*
X107978Y-116222D01*
X107978Y-114444D01*
X106911Y-112667D01*
X104778Y-111778D01*
X102645Y-111778D01*
X100511Y-112667D01*
X99445Y-114444D01*
G54D12*
X95534Y-126000D02*
X95534Y-111778D01*
G54D12*
X135000Y-130778D02*
X135000Y-145000D01*
X127533Y-145000D01*
G54D12*
X116155Y-145000D02*
X123622Y-145000D01*
X123622Y-130778D01*
X116155Y-130778D01*
G54D12*
X123622Y-137889D02*
X116155Y-137889D01*
G54D12*
X130733Y-155889D02*
X127533Y-157667D01*
X126467Y-159444D01*
X126467Y-163000D01*
G54D12*
X135000Y-163000D02*
X135000Y-148778D01*
X129667Y-148778D01*
X127533Y-149667D01*
X126467Y-151444D01*
X126467Y-153222D01*
X127533Y-155000D01*
X129667Y-155889D01*
X135000Y-155889D01*
G54D12*
X122556Y-163000D02*
X122556Y-148778D01*
X115089Y-148778D01*
G54D12*
X122556Y-155889D02*
X115089Y-155889D01*
G54D12*
X100654Y-160867D02*
X100654Y-157311D01*
X101721Y-155533D01*
X103854Y-155000D01*
X105987Y-155533D01*
X107054Y-157311D01*
X107054Y-160867D01*
X105987Y-162644D01*
X103854Y-163000D01*
X101721Y-162644D01*
X100654Y-160867D01*
G54D12*
X90343Y-155000D02*
X90343Y-163000D01*
G54D12*
X90343Y-161222D02*
X91410Y-162644D01*
X93543Y-163000D01*
X95676Y-162644D01*
X96743Y-161222D01*
X96743Y-155000D01*
G54D12*
X84299Y-148778D02*
X84299Y-162111D01*
X83232Y-163000D01*
X82165Y-162644D01*
G54D12*
X86432Y-155000D02*
X82165Y-155000D01*
G54D12*
X66663Y-163000D02*
X74130Y-163000D01*
X74130Y-148778D01*
X66663Y-148778D01*
G54D12*
X74130Y-155889D02*
X66663Y-155889D01*
G54D12*
X62752Y-163000D02*
X62752Y-148778D01*
X54219Y-163000D01*
X54219Y-148778D01*
G54D13*
X50122Y-32851D02*
X44789Y-42851D01*
X39456Y-32851D01*
G54D13*
X34566Y-28406D02*
X33233Y-26184D01*
X30566Y-25073D01*
X27900Y-25073D01*
X25233Y-26184D01*
X23900Y-28406D01*
X23900Y-30628D01*
X25233Y-32851D01*
X27900Y-33962D01*
X25233Y-35073D01*
X23900Y-37295D01*
X23900Y-39517D01*
X25233Y-41740D01*
X27900Y-42851D01*
X30566Y-42851D01*
X33233Y-41740D01*
X34566Y-39517D01*
G54D14*
X542410Y-175682D02*
X534743Y-155237D01*
X527077Y-175682D01*
G54D14*
X539343Y-168015D02*
X530143Y-168015D01*
G54D14*
X521455Y-175682D02*
X521455Y-155237D01*
X513788Y-155237D01*
X510722Y-156515D01*
X509188Y-159070D01*
X509188Y-161626D01*
X510722Y-164182D01*
X513788Y-165459D01*
X510722Y-166737D01*
X509188Y-169293D01*
X509188Y-171848D01*
X510722Y-174404D01*
X513788Y-175682D01*
X521455Y-175682D01*
G54D14*
X521455Y-165459D02*
X513788Y-165459D01*
G54D14*
X485370Y-175682D02*
X497637Y-175682D01*
X497637Y-174404D01*
X496104Y-171848D01*
X486904Y-164182D01*
X485370Y-161626D01*
X485370Y-159070D01*
X486904Y-156515D01*
X489970Y-155237D01*
X493037Y-155237D01*
X496104Y-156515D01*
X497637Y-159070D01*
G54D14*
X467481Y-159070D02*
X467481Y-171848D01*
X469015Y-174404D01*
X472081Y-175682D01*
X475148Y-175682D01*
X478215Y-174404D01*
X479748Y-171848D01*
X479748Y-159070D01*
X478215Y-156515D01*
X475148Y-155237D01*
X472081Y-155237D01*
X469015Y-156515D01*
X467481Y-159070D01*
G54D14*
X449592Y-175682D02*
X461859Y-175682D01*
X461859Y-174404D01*
X460326Y-171848D01*
X451126Y-164182D01*
X449592Y-161626D01*
X449592Y-159070D01*
X451126Y-156515D01*
X454192Y-155237D01*
X457259Y-155237D01*
X460326Y-156515D01*
X461859Y-159070D01*
G54D14*
X431703Y-175682D02*
X443970Y-175682D01*
X443970Y-174404D01*
X442437Y-171848D01*
X433237Y-164182D01*
X431703Y-161626D01*
X431703Y-159070D01*
X433237Y-156515D01*
X436303Y-155237D01*
X439370Y-155237D01*
X442437Y-156515D01*
X443970Y-159070D01*
G54D10*
X334066Y-64409D02*
X326305Y-56648D01*
X306294Y-76660D01*
X314054Y-84420D01*
X334066Y-64409D01*
G54D10*
X559944Y-91519D02*
X559944Y-108582D01*
G54D10*
X525262Y-91519D02*
X525262Y-108582D01*
G54D10*
X559944Y-91519D02*
X525262Y-91519D01*
G54D10*
X559944Y-108582D02*
X525262Y-108582D01*
G54D10*
X559944Y-110519D02*
X559944Y-127582D01*
G54D10*
X525262Y-110519D02*
X525262Y-127582D01*
G54D10*
X559944Y-110519D02*
X525262Y-110519D01*
G54D10*
X559944Y-127582D02*
X525262Y-127582D01*
G54D10*
X525069Y-89682D02*
X525069Y-72619D01*
G54D10*
X559750Y-89682D02*
X559750Y-72619D01*
G54D10*
X525069Y-89682D02*
X559750Y-89682D01*
G54D10*
X525069Y-72619D02*
X559750Y-72619D01*
G54D10*
X214750Y-25619D02*
X214750Y-42682D01*
G54D10*
X180069Y-25619D02*
X180069Y-42682D01*
G54D10*
X214750Y-25619D02*
X180069Y-25619D01*
G54D10*
X214750Y-42682D02*
X180069Y-42682D01*
M02*
