<?xml version="1.0" encoding="utf-8"?>
<!-- Created with "sPlan" (http://www.abacom-online.de) -->
<svg version="1.1" baseProfile="full"
xmlns="http://www.w3.org/2000/svg"
width="145mm" height="61mm"
viewBox="0 0 1456 611">
<title>AMP HEMT schematic</title>
<defs>
<style type="text/css">
<![CDATA[
polyline {stroke-linecap:round; stroke-linejoin:round}
polygon {stroke-linecap:round; stroke-linejoin:round}
path {stroke-linecap:round; stroke-linejoin:round}
circle {stroke-linecap:round; stroke-linejoin:round}
]]>
</style>
</defs>
<polyline points="834.19 455.18 848.00 455.18" fill="none" stroke="rgb(0,0,0)" stroke-width="2" />
<polyline points="748.00 475.18 733.00 475.18" fill="none" stroke="rgb(0,0,0)" stroke-width="2" />
<path fill="rgb(0,0,0)" stroke="none" stroke-width="1" d=" M 275 455 L 285 455 285 495 275 495 275 455 Z" />
<polyline points="238.00 475.18 278.00 475.18" fill="none" stroke="rgb(0,0,0)" stroke-width="2" />
<polyline points="298.00 475.18 338.00 475.18" fill="none" stroke="rgb(0,0,0)" stroke-width="2" />
<path fill="rgb(0,0,0)" stroke="none" stroke-width="1" d=" M 291 455 L 301 455 301 495 291 495 291 455 Z" />
<path fill="rgb(0,0,0)" stroke="rgb(0,0,0)" stroke-width="0" d=" M 280.43 523.02 L 278.03 523.02 278.05 508.05 277.68 508.38 277.27 508.70 276.81 509.03 276.31 509.35 275.77 509.67 275.22 509.98 274.69 510.26 274.19 510.50 273.70 510.71 273.25 510.89 273.25 508.62 274.03 508.23 274.77 507.81 275.48 507.36 276.14 506.88 276.77 506.37 277.33 505.85 277.83 505.33 278.26 504.82 278.62 504.32 278.90 503.82 280.45 503.82 Z M 286.73 528.42 L 286.75 508.92 289.15 508.92 289.15 511.27 289.45 510.77 289.76 510.32 290.10 509.92 290.44 509.57 290.80 509.28 291.19 509.04 291.61 508.86 292.05 508.72 292.53 508.64 293.05 508.62 293.72 508.65 294.36 508.77 294.97 508.95 295.54 509.21 296.09 509.55 296.59 509.95 297.04 510.41 297.43 510.93 297.78 511.52 298.07 512.16 298.31 512.85 298.50 513.56 298.63 514.30 298.71 515.07 298.74 515.86 298.71 516.71 298.62 517.52 298.46 518.30 298.25 519.04 297.98 519.75 297.65 520.41 297.26 521.00 296.82 521.53 296.33 522.00 295.78 522.40 295.19 522.73 294.60 522.99 293.99 523.17 293.37 523.28 292.74 523.32 292.29 523.29 291.85 523.22 291.43 523.10 291.03 522.92 290.65 522.70 290.30 522.44 289.96 522.16 289.66 521.84 289.38 521.51 289.13 521.14 289.13 528.42 Z M 289.14 516.08 L 289.18 517.02 289.30 517.85 289.51 518.58 289.80 519.21 290.17 519.74 290.60 520.16 291.07 520.49 291.58 520.73 292.11 520.87 292.69 520.92 293.27 520.87 293.82 520.72 294.34 520.48 294.82 520.13 295.26 519.69 295.65 519.15 295.95 518.50 296.17 517.74 296.30 516.88 296.34 515.90 296.30 514.97 296.17 514.14 295.97 513.41 295.67 512.77 295.30 512.24 294.86 511.80 294.40 511.46 293.90 511.21 293.37 511.07 292.80 511.02 292.24 511.07 291.70 511.22 291.19 511.48 290.71 511.85 290.25 512.31 289.85 512.88 289.54 513.54 289.32 514.29 289.19 515.14 289.14 516.08 Z" />
<path fill="rgb(0,0,0)" stroke="rgb(0,0,0)" stroke-width="2" d=" M 836 560 L 876 560 876 570 836 570 836 560 Z" />
<polyline points="856.41 530.18 856.41 560.18" fill="none" stroke="rgb(0,0,0)" stroke-width="2" />
<polyline points="832.70 495.18 856.41 495.18 856.41 530.18" fill="none" stroke="rgb(0,0,0)" stroke-width="2" />
<path fill="rgb(0,0,0)" stroke="none" stroke-width="1" d=" M 620 350 L 630 350 630 390 620 390 620 350 Z" />
<polyline points="583.00 370.18 623.00 370.18" fill="none" stroke="rgb(0,0,0)" stroke-width="2" />
<polyline points="643.00 370.18 683.00 370.18" fill="none" stroke="rgb(0,0,0)" stroke-width="2" />
<path fill="rgb(0,0,0)" stroke="none" stroke-width="1" d=" M 636 350 L 646 350 646 390 636 390 636 350 Z" />
<path fill="rgb(0,0,0)" stroke="rgb(0,0,0)" stroke-width="0" d=" M 616.35 339.18 L 613.95 339.18 613.97 324.22 613.60 324.55 613.19 324.87 612.73 325.19 612.23 325.52 611.69 325.84 611.14 326.15 610.61 326.42 610.11 326.66 609.62 326.87 609.17 327.05 609.17 324.78 609.95 324.40 610.69 323.98 611.40 323.53 612.06 323.05 612.69 322.54 613.25 322.01 613.75 321.50 614.18 320.99 614.54 320.48 614.82 319.98 616.37 319.98 Z M 622.06 329.74 L 622.09 328.43 622.18 327.23 622.32 326.13 622.52 325.12 622.77 324.21 623.08 323.40 623.45 322.68 623.87 322.04 624.34 321.49 624.87 321.03 625.46 320.65 626.10 320.36 626.80 320.15 627.55 320.03 628.37 319.98 628.98 320.01 629.57 320.08 630.13 320.21 630.66 320.38 631.17 320.60 631.65 320.87 632.08 321.18 632.47 321.54 632.81 321.94 633.11 322.39 633.37 322.87 633.62 323.40 633.84 323.97 634.05 324.58 634.23 325.23 634.39 325.94 634.51 326.75 634.59 327.66 634.64 328.65 634.66 329.74 634.63 331.03 634.55 332.23 634.40 333.33 634.21 334.33 633.95 335.24 633.65 336.05 633.28 336.78 632.87 337.42 632.39 337.97 631.86 338.43 631.28 338.81 630.64 339.10 629.93 339.32 629.17 339.44 628.35 339.48 627.28 339.41 626.31 339.19 625.43 338.83 624.65 338.31 623.96 337.66 623.28 336.53 622.74 335.17 622.36 333.59 622.14 331.78 622.06 329.74 Z M 624.46 329.73 L 624.50 331.43 624.64 332.88 624.86 334.07 625.17 335.01 625.58 335.69 626.05 336.19 626.56 336.58 627.12 336.86 627.71 337.03 628.35 337.08 628.99 337.03 629.59 336.86 630.14 336.58 630.66 336.19 631.13 335.69 631.53 335.00 631.85 334.07 632.08 332.88 632.21 331.43 632.26 329.73 632.22 328.08 632.09 326.66 631.87 325.48 631.57 324.54 631.18 323.84 630.72 323.32 630.20 322.91 629.64 322.62 629.02 322.44 628.34 322.38 627.71 322.43 627.12 322.59 626.57 322.85 626.08 323.21 625.63 323.67 625.21 324.44 624.88 325.43 624.65 326.64 624.51 328.08 624.46 329.73 Z M 636.76 329.74 L 636.79 328.43 636.88 327.23 637.02 326.13 637.22 325.12 637.47 324.21 637.78 323.40 638.15 322.68 638.57 322.04 639.04 321.49 639.57 321.03 640.16 320.65 640.80 320.36 641.50 320.15 642.25 320.03 643.07 319.98 643.68 320.01 644.27 320.08 644.83 320.21 645.36 320.38 645.87 320.60 646.35 320.87 646.78 321.18 647.17 321.54 647.51 321.94 647.81 322.39 648.07 322.87 648.32 323.40 648.54 323.97 648.75 324.58 648.93 325.23 649.09 325.94 649.21 326.75 649.29 327.66 649.34 328.65 649.36 329.74 649.33 331.03 649.25 332.23 649.10 333.33 648.91 334.33 648.65 335.24 648.35 336.05 647.98 336.78 647.57 337.42 647.09 337.97 646.56 338.43 645.98 338.81 645.34 339.10 644.63 339.32 643.87 339.44 643.05 339.48 641.98 339.41 641.01 339.19 640.13 338.83 639.35 338.31 638.66 337.66 637.98 336.53 637.44 335.17 637.06 333.59 636.84 331.78 636.76 329.74 Z M 639.16 329.73 L 639.20 331.43 639.34 332.88 639.56 334.07 639.87 335.01 640.28 335.69 640.75 336.19 641.26 336.58 641.82 336.86 642.41 337.03 643.05 337.08 643.69 337.03 644.29 336.86 644.84 336.58 645.36 336.19 645.83 335.69 646.23 335.00 646.55 334.07 646.78 332.88 646.91 331.43 646.96 329.73 646.92 328.08 646.79 326.66 646.57 325.48 646.27 324.54 645.88 323.84 645.42 323.32 644.90 322.91 644.34 322.62 643.72 322.44 643.04 322.38 642.41 322.43 641.82 322.59 641.27 322.85 640.78 323.21 640.33 323.67 639.91 324.44 639.58 325.43 639.35 326.64 639.21 328.08 639.16 329.73 Z M 652.05 344.58 L 652.07 325.08 654.47 325.08 654.47 327.44 654.77 326.93 655.08 326.48 655.42 326.08 655.76 325.74 656.12 325.45 656.51 325.21 656.93 325.02 657.37 324.89 657.85 324.81 658.36 324.78 659.04 324.82 659.68 324.93 660.29 325.12 660.86 325.38 661.41 325.71 661.91 326.11 662.36 326.58 662.75 327.10 663.10 327.68 663.39 328.33 663.63 329.02 663.82 329.73 663.95 330.47 664.03 331.23 664.06 332.03 664.03 332.87 663.94 333.69 663.78 334.46 663.57 335.21 663.30 335.91 662.97 336.57 662.58 337.17 662.14 337.70 661.64 338.16 661.10 338.56 660.51 338.89 659.92 339.15 659.31 339.34 658.69 339.45 658.06 339.48 657.60 339.46 657.17 339.38 656.75 339.26 656.35 339.09 655.97 338.87 655.61 338.61 655.28 338.32 654.98 338.01 654.70 337.67 654.45 337.31 654.45 344.58 Z M 654.46 332.25 L 654.50 333.18 654.62 334.02 654.83 334.75 655.12 335.38 655.49 335.90 655.92 336.33 656.39 336.66 656.90 336.89 657.43 337.04 658.01 337.08 658.59 337.03 659.14 336.89 659.66 336.64 660.14 336.30 660.58 335.86 660.97 335.32 661.27 334.67 661.49 333.91 661.62 333.04 661.66 332.07 661.62 331.14 661.49 330.31 661.28 329.57 660.99 328.94 660.62 328.40 660.18 327.96 659.72 327.62 659.22 327.38 658.69 327.23 658.12 327.18 657.56 327.24 657.02 327.39 656.51 327.65 656.03 328.01 655.57 328.48 655.17 329.05 654.86 329.70 654.64 330.46 654.50 331.30 654.46 332.25 Z" />
<path fill="rgb(0,0,0)" stroke="none" stroke-width="1" d=" M 810 320 L 820 320 820 360 810 360 810 320 Z" />
<polyline points="773.00 340.18 813.00 340.18" fill="none" stroke="rgb(0,0,0)" stroke-width="2" />
<polyline points="833.00 340.18 873.00 340.18" fill="none" stroke="rgb(0,0,0)" stroke-width="2" />
<path fill="rgb(0,0,0)" stroke="none" stroke-width="1" d=" M 826 320 L 836 320 836 360 826 360 826 320 Z" />
<path fill="rgb(0,0,0)" stroke="rgb(0,0,0)" stroke-width="0" d=" M 817.46 384.92 L 815.06 384.92 815.07 369.96 814.71 370.28 814.29 370.61 813.84 370.93 813.34 371.26 812.80 371.58 812.25 371.89 811.72 372.16 811.22 372.40 810.73 372.61 810.27 372.79 810.27 370.52 811.06 370.14 811.80 369.72 812.51 369.27 813.17 368.79 813.79 368.28 814.36 367.75 814.86 367.24 815.29 366.73 815.65 366.22 815.93 365.72 817.48 365.72 Z M 823.76 384.92 L 823.77 370.82 826.17 370.82 826.17 372.79 826.83 371.98 827.59 371.34 828.46 370.89 829.43 370.61 830.52 370.52 831.00 370.54 831.47 370.60 831.92 370.69 832.36 370.82 832.78 370.98 833.17 371.17 833.53 371.39 833.83 371.63 834.10 371.89 834.33 372.18 834.52 372.49 834.69 372.82 834.83 373.17 834.95 373.55 835.04 373.94 835.09 374.25 835.12 374.63 835.15 375.10 835.16 375.64 835.17 376.27 835.16 384.92 832.76 384.92 832.77 376.59 832.76 376.05 832.73 375.57 832.67 375.14 832.59 374.78 832.50 374.47 832.37 374.20 832.21 373.95 832.01 373.72 831.78 373.52 831.52 373.34 831.23 373.19 830.92 373.07 830.59 372.99 830.24 372.94 829.87 372.92 829.29 372.96 828.73 373.07 828.21 373.26 827.72 373.53 827.27 373.87 826.87 374.31 826.56 374.89 826.35 375.61 826.21 376.46 826.17 377.44 826.16 384.92 Z" />
<path fill="rgb(0,0,0)" stroke="rgb(0,0,0)" stroke-width="2" d=" M 768 320 L 768 360 758 360 758 320 768 320 Z" />
<polyline points="798.00 340.18 768.00 340.18" fill="none" stroke="rgb(0,0,0)" stroke-width="2" />
<path fill="rgb(0,0,0)" stroke="rgb(0,0,0)" stroke-width="2" d=" M 688 390 L 688 350 698 350 698 390 688 390 Z" />
<polyline points="658.00 370.18 688.00 370.18" fill="none" stroke="rgb(0,0,0)" stroke-width="2" />
<path fill="rgb(0,0,0)" stroke="rgb(0,0,0)" stroke-width="2" d=" M 433 210 L 433 250 423 250 423 210 433 210 Z" />
<polyline points="463.00 230.18 433.00 230.18" fill="none" stroke="rgb(0,0,0)" stroke-width="2" />
<circle cx="588" cy="230" r="6" fill="rgb(0,0,0)" stroke="none" stroke-width="2" />
<path fill="rgb(0,0,0)" stroke="rgb(0,0,0)" stroke-width="0" d=" M 50.06 445.32 L 50.08 426.12 58.36 426.12 59.32 426.14 60.18 426.20 60.95 426.31 61.62 426.45 62.20 426.64 62.70 426.88 63.16 427.18 63.58 427.55 63.96 427.98 64.30 428.47 64.58 429.01 64.80 429.57 64.95 430.15 65.05 430.75 65.08 431.37 65.03 432.17 64.87 432.91 64.61 433.61 64.24 434.25 63.78 434.83 63.20 435.36 62.51 435.79 61.70 436.15 60.78 436.43 59.75 436.62 60.10 436.83 60.40 437.03 60.68 437.24 60.91 437.44 61.12 437.65 61.51 438.10 61.90 438.57 62.29 439.06 62.68 439.58 63.06 440.12 66.25 445.32 63.47 445.32 60.97 441.34 60.55 440.68 60.16 440.09 59.80 439.57 59.47 439.10 59.17 438.71 58.89 438.36 58.63 438.07 58.38 437.82 58.13 437.62 57.90 437.46 57.68 437.34 57.45 437.23 57.22 437.14 56.99 437.06 56.76 437.00 56.57 436.97 56.34 436.95 56.06 436.93 55.74 436.92 55.37 436.92 52.47 436.92 52.46 445.32 Z M 52.47 434.52 L 57.85 434.52 58.50 434.51 59.11 434.47 59.66 434.40 60.15 434.30 60.59 434.18 60.98 434.03 61.33 433.84 61.64 433.63 61.91 433.38 62.15 433.09 62.34 432.79 62.49 432.47 62.59 432.15 62.66 431.81 62.68 431.46 62.64 430.97 62.52 430.51 62.31 430.09 62.03 429.70 61.67 429.35 61.21 429.05 60.67 428.82 60.03 428.65 59.29 428.55 58.46 428.52 52.48 428.52 Z M 69.26 445.32 L 69.28 426.12 82.18 426.12 82.18 428.52 71.68 428.52 71.67 434.22 80.67 434.22 80.67 436.62 71.67 436.62 71.66 445.32 Z M 93.26 445.32 L 93.28 426.12 95.68 426.12 95.66 445.32 Z M 100.46 445.32 L 100.48 426.12 103.05 426.12 113.07 441.33 113.08 426.12 115.48 426.12 115.46 445.32 112.90 445.32 102.88 430.10 102.86 445.32 Z" />
<path fill="rgb(0,0,0)" stroke="rgb(0,0,0)" stroke-width="0" d=" M 1318.89 425.07 L 1318.91 405.87 1327.18 405.87 1328.14 405.89 1329.01 405.95 1329.78 406.06 1330.45 406.20 1331.02 406.39 1331.53 406.63 1331.99 406.93 1332.41 407.30 1332.78 407.73 1333.12 408.22 1333.40 408.76 1333.62 409.32 1333.78 409.90 1333.87 410.50 1333.90 411.13 1333.85 411.92 1333.69 412.66 1333.43 413.36 1333.07 414.00 1332.60 414.59 1332.02 415.11 1331.33 415.55 1330.53 415.90 1329.61 416.18 1328.58 416.37 1328.92 416.58 1329.23 416.79 1329.50 416.99 1329.74 417.19 1329.94 417.40 1330.34 417.85 1330.73 418.32 1331.11 418.81 1331.50 419.33 1331.88 419.87 1335.08 425.07 1332.29 425.07 1329.80 421.09 1329.37 420.44 1328.98 419.84 1328.62 419.32 1328.29 418.85 1327.99 418.46 1327.72 418.11 1327.45 417.82 1327.20 417.57 1326.96 417.37 1326.73 417.21 1326.50 417.09 1326.28 416.98 1326.05 416.89 1325.82 416.81 1325.59 416.76 1325.39 416.73 1325.16 416.70 1324.88 416.68 1324.56 416.67 1324.19 416.67 1321.30 416.67 1321.29 425.07 Z M 1321.30 414.27 L 1326.67 414.27 1327.33 414.26 1327.93 414.22 1328.48 414.15 1328.97 414.05 1329.41 413.93 1329.80 413.78 1330.15 413.59 1330.47 413.38 1330.74 413.13 1330.97 412.84 1331.16 412.54 1331.31 412.22 1331.42 411.90 1331.48 411.56 1331.50 411.21 1331.46 410.72 1331.34 410.26 1331.14 409.84 1330.85 409.45 1330.49 409.10 1330.04 408.80 1329.49 408.57 1328.85 408.40 1328.11 408.30 1327.28 408.27 1321.31 408.27 Z M 1338.09 425.07 L 1338.11 405.87 1351.01 405.87 1351.01 408.27 1340.51 408.27 1340.50 413.97 1349.50 413.97 1349.50 416.37 1340.50 416.37 1340.49 425.07 Z M 1360.90 415.72 L 1361.00 413.90 1361.31 412.24 1361.82 410.75 1362.54 409.43 1363.46 408.27 1364.55 407.30 1365.75 406.54 1367.07 406.00 1368.51 405.68 1370.07 405.57 1371.11 405.62 1372.11 405.77 1373.06 406.03 1373.97 406.38 1374.85 406.84 1375.66 407.38 1376.39 408.01 1377.04 408.71 1377.60 409.50 1378.09 410.37 1378.49 411.30 1378.80 412.28 1379.02 413.30 1379.15 414.38 1379.20 415.50 1379.15 416.64 1379.01 417.73 1378.77 418.78 1378.44 419.77 1378.02 420.71 1377.51 421.59 1376.92 422.37 1376.25 423.07 1375.51 423.67 1374.69 424.19 1373.81 424.62 1372.91 424.95 1371.98 425.18 1371.02 425.32 1370.04 425.37 1368.98 425.32 1367.97 425.16 1367.00 424.90 1366.09 424.54 1365.21 424.07 1364.40 423.51 1363.68 422.87 1363.03 422.16 1362.47 421.37 1361.99 420.50 1361.60 419.59 1361.29 418.66 1361.07 417.70 1360.94 416.72 1360.90 415.72 Z M 1363.30 415.75 L 1363.37 417.03 1363.60 418.21 1363.98 419.27 1364.52 420.21 1365.21 421.04 1366.02 421.74 1366.90 422.28 1367.86 422.66 1368.90 422.89 1370.02 422.97 1371.16 422.89 1372.22 422.66 1373.19 422.27 1374.08 421.72 1374.88 421.02 1375.57 420.18 1376.11 419.20 1376.49 418.09 1376.72 416.85 1376.80 415.49 1376.77 414.60 1376.67 413.76 1376.51 412.97 1376.28 412.22 1375.99 411.52 1375.63 410.88 1375.21 410.29 1374.74 409.77 1374.20 409.30 1373.60 408.90 1372.96 408.57 1372.29 408.31 1371.59 408.12 1370.85 408.01 1370.08 407.97 1369.01 408.04 1367.99 408.26 1367.03 408.62 1366.14 409.12 1365.31 409.76 1364.58 410.58 1364.02 411.58 1363.62 412.78 1363.38 414.17 1363.30 415.75 Z M 1395.11 405.87 L 1397.51 405.87 1397.50 416.95 1397.47 418.06 1397.39 419.07 1397.26 419.99 1397.07 420.81 1396.84 421.54 1396.54 422.19 1396.15 422.80 1395.68 423.35 1395.12 423.85 1394.49 424.30 1393.77 424.69 1392.96 424.99 1392.07 425.20 1391.09 425.33 1390.03 425.37 1389.00 425.33 1388.05 425.22 1387.17 425.04 1386.37 424.78 1385.65 424.44 1385.01 424.04 1384.44 423.57 1383.96 423.03 1383.55 422.43 1383.22 421.75 1382.96 421.00 1382.75 420.14 1382.61 419.18 1382.52 418.11 1382.50 416.95 1382.51 405.87 1384.91 405.87 1384.90 416.86 1384.91 417.80 1384.97 418.64 1385.06 419.37 1385.20 420.00 1385.37 420.52 1385.58 420.97 1385.85 421.38 1386.18 421.74 1386.56 422.06 1386.99 422.33 1387.47 422.56 1387.99 422.74 1388.56 422.87 1389.16 422.95 1389.81 422.97 1390.88 422.92 1391.83 422.77 1392.64 422.52 1393.32 422.16 1393.88 421.71 1394.31 421.11 1394.66 420.33 1394.90 419.36 1395.05 418.20 1395.10 416.86 Z M 1406.49 425.07 L 1406.51 408.27 1400.21 408.27 1400.21 405.87 1415.21 405.87 1415.21 408.27 1408.91 408.27 1408.89 425.07 Z" />
<polyline points="1158.00 80.18 1143.00 80.18" fill="none" stroke="rgb(0,0,0)" stroke-width="2" />
<path fill="rgb(0,0,0)" stroke="rgb(0,0,0)" stroke-width="0" d=" M 1175.36 88.73 L 1167.74 69.53 1170.31 69.53 1175.41 83.36 1175.65 84.02 1175.87 84.66 1176.08 85.29 1176.27 85.89 1176.44 86.48 1176.63 85.86 1176.82 85.23 1177.02 84.61 1177.24 83.99 1177.47 83.36 1182.61 69.53 1185.18 69.53 1177.84 88.73 Z M 1196.09 83.63 L 1198.49 83.93 1198.30 84.85 1198.01 85.68 1197.62 86.43 1197.14 87.10 1196.56 87.68 1195.92 88.17 1195.21 88.54 1194.45 88.82 1193.63 88.98 1192.76 89.03 1191.67 88.96 1190.67 88.73 1189.76 88.35 1188.94 87.82 1188.21 87.14 1187.59 86.32 1187.11 85.37 1186.77 84.29 1186.57 83.08 1186.50 81.73 1186.53 80.84 1186.62 80.00 1186.76 79.20 1186.97 78.45 1187.23 77.75 1187.56 77.10 1187.95 76.52 1188.39 76.00 1188.90 75.56 1189.47 75.18 1190.08 74.88 1190.72 74.64 1191.37 74.47 1192.04 74.37 1192.74 74.33 1193.60 74.38 1194.39 74.52 1195.12 74.75 1195.79 75.08 1196.39 75.50 1196.91 76.01 1197.36 76.60 1197.72 77.26 1198.00 78.01 1198.20 78.83 1195.80 79.13 1195.65 78.68 1195.47 78.27 1195.25 77.91 1194.99 77.60 1194.69 77.33 1194.36 77.12 1194.00 76.95 1193.61 76.83 1193.20 76.76 1192.76 76.73 1192.10 76.78 1191.49 76.92 1190.93 77.16 1190.43 77.49 1189.97 77.92 1189.59 78.45 1189.29 79.09 1189.07 79.84 1188.94 80.70 1188.90 81.67 1188.94 82.65 1189.06 83.52 1189.27 84.28 1189.56 84.92 1189.94 85.45 1190.38 85.88 1190.88 86.21 1191.43 86.44 1192.03 86.58 1192.68 86.63 1193.20 86.60 1193.69 86.51 1194.14 86.37 1194.56 86.16 1194.94 85.90 1195.28 85.57 1195.56 85.18 1195.79 84.73 1195.97 84.21 1196.09 83.63 Z M 1209.59 83.63 L 1211.99 83.93 1211.80 84.85 1211.51 85.68 1211.12 86.43 1210.64 87.10 1210.07 87.68 1209.42 88.17 1208.71 88.54 1207.95 88.82 1207.13 88.98 1206.26 89.03 1205.17 88.96 1204.17 88.73 1203.26 88.35 1202.44 87.82 1201.71 87.14 1201.09 86.32 1200.61 85.37 1200.27 84.29 1200.07 83.08 1200.00 81.73 1200.03 80.84 1200.12 80.00 1200.26 79.20 1200.47 78.45 1200.73 77.75 1201.06 77.10 1201.45 76.52 1201.89 76.00 1202.40 75.56 1202.97 75.18 1203.58 74.88 1204.22 74.64 1204.87 74.47 1205.54 74.37 1206.24 74.33 1207.10 74.38 1207.89 74.52 1208.62 74.75 1209.29 75.08 1209.89 75.50 1210.41 76.01 1210.86 76.60 1211.22 77.26 1211.50 78.01 1211.70 78.83 1209.30 79.13 1209.15 78.68 1208.97 78.27 1208.75 77.91 1208.49 77.60 1208.19 77.33 1207.86 77.12 1207.50 76.95 1207.11 76.83 1206.70 76.76 1206.26 76.73 1205.60 76.78 1204.99 76.92 1204.43 77.16 1203.93 77.49 1203.47 77.92 1203.09 78.45 1202.79 79.09 1202.57 79.84 1202.44 80.70 1202.40 81.67 1202.44 82.65 1202.56 83.52 1202.77 84.28 1203.06 84.92 1203.44 85.45 1203.88 85.88 1204.38 86.21 1204.93 86.44 1205.53 86.58 1206.18 86.63 1206.70 86.60 1207.19 86.51 1207.64 86.37 1208.06 86.16 1208.44 85.90 1208.78 85.57 1209.06 85.18 1209.29 84.73 1209.47 84.21 1209.59 83.63 Z M 1218.88 94.13 L 1218.10 93.14 1217.37 92.08 1216.69 90.95 1216.06 89.76 1215.48 88.50 1214.98 87.20 1214.59 85.88 1214.32 84.55 1214.15 83.19 1214.10 81.82 1214.14 80.61 1214.27 79.42 1214.47 78.25 1214.77 77.11 1215.14 75.98 1215.69 74.69 1216.33 73.39 1217.09 72.10 1217.94 70.82 1218.91 69.53 1220.71 69.53 1220.07 70.54 1219.53 71.42 1219.08 72.18 1218.72 72.82 1218.46 73.33 1218.13 74.05 1217.83 74.77 1217.56 75.51 1217.32 76.26 1217.11 77.02 1216.89 77.98 1216.72 78.94 1216.60 79.90 1216.52 80.87 1216.50 81.83 1216.66 84.29 1217.16 86.75 1218.00 89.21 1219.17 91.67 1220.68 94.13 Z M 1223.39 88.73 L 1223.41 69.53 1225.81 69.53 1225.80 77.33 1236.00 77.33 1236.01 69.53 1238.41 69.53 1238.39 88.73 1235.99 88.73 1236.00 79.73 1225.80 79.73 1225.79 88.73 Z M 1242.59 88.73 L 1242.61 69.53 1256.41 69.53 1256.41 71.93 1245.01 71.93 1245.00 77.63 1255.80 77.63 1255.80 80.03 1245.00 80.03 1244.99 86.33 1256.69 86.33 1256.69 88.73 Z M 1260.29 88.73 L 1260.31 69.53 1264.44 69.53 1268.35 83.06 1268.56 83.78 1268.74 84.42 1268.90 84.99 1269.03 85.48 1269.14 85.89 1269.27 85.44 1269.41 84.90 1269.59 84.29 1269.78 83.60 1270.00 82.83 1273.88 69.53 1278.01 69.53 1277.99 88.73 1275.59 88.73 1275.61 71.93 1270.77 88.73 1267.51 88.73 1262.71 71.93 1262.69 88.73 Z M 1287.29 88.73 L 1287.31 71.93 1281.01 71.93 1281.01 69.53 1296.01 69.53 1296.01 71.93 1289.71 71.93 1289.69 88.73 Z M 1298.98 94.13 L 1297.18 94.13 1298.70 91.67 1299.88 89.21 1300.72 86.75 1301.23 84.29 1301.40 81.83 1301.37 80.87 1301.30 79.91 1301.18 78.96 1301.01 78.01 1300.80 77.06 1300.59 76.30 1300.36 75.55 1300.09 74.81 1299.79 74.08 1299.46 73.37 1299.20 72.85 1298.84 72.20 1298.39 71.44 1297.85 70.54 1297.21 69.53 1299.01 69.53 1299.97 70.82 1300.83 72.10 1301.58 73.39 1302.22 74.69 1302.76 75.98 1303.14 77.11 1303.43 78.25 1303.63 79.42 1303.76 80.61 1303.80 81.82 1303.74 83.19 1303.57 84.55 1303.29 85.88 1302.90 87.20 1302.39 88.50 1301.80 89.76 1301.17 90.95 1300.49 92.08 1299.76 93.14 1298.98 94.13 Z M 1319.69 85.73 L 1319.70 80.63 1314.60 80.63 1314.60 78.23 1319.70 78.23 1319.71 73.13 1322.11 73.13 1322.10 78.23 1327.20 78.23 1327.20 80.63 1322.10 80.63 1322.09 85.73 Z M 1329.89 83.63 L 1332.29 83.33 1332.43 83.96 1332.62 84.52 1332.86 85.01 1333.16 85.44 1333.50 85.80 1333.90 86.10 1334.35 86.33 1334.85 86.50 1335.40 86.60 1336.01 86.63 1336.75 86.59 1337.42 86.45 1338.02 86.22 1338.55 85.90 1339.02 85.48 1339.41 84.99 1339.71 84.44 1339.92 83.83 1340.05 83.16 1340.09 82.43 1340.06 81.74 1339.94 81.10 1339.74 80.53 1339.46 80.03 1339.09 79.58 1338.65 79.20 1338.12 78.91 1337.52 78.70 1336.83 78.57 1336.05 78.53 1335.56 78.55 1335.10 78.60 1334.68 78.68 1334.30 78.80 1333.95 78.95 1333.63 79.13 1333.33 79.32 1333.06 79.54 1332.82 79.78 1332.60 80.03 1330.20 79.73 1332.31 69.83 1341.61 69.83 1341.61 72.23 1334.25 72.23 1333.22 77.52 1333.89 77.02 1334.58 76.63 1335.28 76.35 1336.00 76.19 1336.73 76.13 1337.67 76.20 1338.55 76.41 1339.37 76.75 1340.13 77.23 1340.83 77.85 1341.43 78.58 1341.90 79.39 1342.23 80.27 1342.43 81.23 1342.49 82.28 1342.43 83.28 1342.25 84.22 1341.95 85.12 1341.53 85.95 1340.98 86.73 1340.20 87.56 1339.31 88.20 1338.31 88.66 1337.21 88.94 1336.00 89.03 1335.00 88.97 1334.07 88.80 1333.23 88.50 1332.46 88.09 1331.76 87.55 1331.17 86.92 1330.68 86.22 1330.31 85.43 1330.04 84.57 1329.89 83.63 Z M 1351.16 88.73 L 1343.54 69.53 1346.11 69.53 1351.21 83.36 1351.45 84.02 1351.67 84.66 1351.88 85.29 1352.07 85.89 1352.24 86.48 1352.43 85.86 1352.62 85.23 1352.82 84.61 1353.04 83.99 1353.27 83.36 1358.41 69.53 1360.98 69.53 1353.64 88.73 Z" />
<path fill="rgb(255,255,255)" stroke="rgb(0,0,0)" stroke-width="1" d=" M 819 50 L 627 50 627 260 819 260 819 50 Z" />
<polyline points="767.00 105.18 767.00 230.18" fill="none" stroke="rgb(0,0,0)" stroke-width="2" />
<polyline points="745.00 146.18 731.00 156.18" fill="none" stroke="rgb(0,0,0)" stroke-width="2" />
<polyline points="733.00 150.18 731.00 156.18 737.00 156.18" fill="none" stroke="rgb(0,0,0)" stroke-width="2" />
<polyline points="751.00 156.18 737.00 166.18" fill="none" stroke="rgb(0,0,0)" stroke-width="2" />
<polyline points="739.00 160.18 737.00 166.18 743.00 166.18" fill="none" stroke="rgb(0,0,0)" stroke-width="2" />
<path fill="rgb(0,0,0)" stroke="none" stroke-width="2" d=" M 787 168 L 747 168 747 172 787 172 787 168 Z" />
<polygon points="767 168 747 138 787 138" fill="none" stroke="rgb(0,0,0)" stroke-width="2" />
<polyline points="767.00 230.18 818.00 230.18" fill="none" stroke="rgb(0,0,0)" stroke-width="2" />
<polyline points="767.00 105.18 767.00 80.18 818.00 80.18" fill="none" stroke="rgb(0,0,0)" stroke-width="2" />
<polygon points="677 130 657 100 697 100" fill="rgb(255,255,255)" stroke="rgb(0,0,0)" stroke-width="2" />
<polyline points="677.00 140.18 677.00 90.18" fill="none" stroke="rgb(0,0,0)" stroke-width="2" />
<path fill="rgb(0,0,0)" stroke="rgb(0,0,0)" stroke-width="2" d=" M 697 133 L 657 133 657 131 697 131 697 133 Z" />
<polygon points="677 210 657 180 697 180" fill="rgb(255,255,255)" stroke="rgb(0,0,0)" stroke-width="2" />
<polyline points="677.00 220.18 677.00 170.18" fill="none" stroke="rgb(0,0,0)" stroke-width="2" />
<path fill="rgb(0,0,0)" stroke="rgb(0,0,0)" stroke-width="2" d=" M 697 213 L 657 213 657 211 697 211 697 213 Z" />
<polyline points="677.00 230.18 627.00 230.18" fill="none" stroke="rgb(0,0,0)" stroke-width="2" />
<polyline points="677.00 80.18 627.00 80.18" fill="none" stroke="rgb(0,0,0)" stroke-width="2" />
<polyline points="677.00 80.18 677.00 90.18" fill="none" stroke="rgb(0,0,0)" stroke-width="2" />
<polyline points="677.00 220.18 677.00 230.18" fill="none" stroke="rgb(0,0,0)" stroke-width="2" />
<polyline points="677.00 170.18 677.00 140.18" fill="none" stroke="rgb(0,0,0)" stroke-width="2" stroke-dasharray="0,4" />
<path fill="rgb(0,0,0)" stroke="rgb(0,0,0)" stroke-width="0" d=" M 659.80 290.04 L 667.48 270.84 669.52 270.84 677.17 290.04 674.63 290.04 672.44 284.04 664.53 284.04 662.33 290.04 Z M 665.42 281.64 L 671.57 281.64 669.84 276.92 669.51 276.00 669.20 275.17 668.93 274.43 668.70 273.79 668.50 273.24 668.28 273.84 668.05 274.46 667.81 275.11 667.56 275.80 667.30 276.51 Z M 679.73 290.04 L 679.75 270.84 686.87 270.84 687.58 270.85 688.23 270.87 688.80 270.91 689.31 270.96 689.74 271.02 690.28 271.13 690.78 271.28 691.24 271.46 691.67 271.67 692.07 271.92 692.43 272.21 692.76 272.54 693.06 272.91 693.34 273.32 693.58 273.78 693.78 274.26 693.94 274.77 694.06 275.29 694.12 275.83 694.15 276.39 694.09 277.34 693.90 278.23 693.59 279.06 693.16 279.83 692.60 280.54 691.88 281.15 690.97 281.63 689.85 281.97 688.54 282.17 687.02 282.24 682.14 282.24 682.13 290.04 Z M 682.14 279.84 L 687.16 279.84 688.10 279.80 688.92 279.70 689.63 279.52 690.22 279.28 690.70 278.96 691.08 278.58 691.37 278.14 691.58 277.64 691.71 277.09 691.75 276.48 691.72 276.03 691.65 275.60 691.53 275.21 691.35 274.83 691.13 274.49 690.87 274.18 690.58 273.92 690.26 273.70 689.90 273.53 689.52 273.40 689.21 273.34 688.82 273.30 688.34 273.27 687.77 273.25 687.12 273.24 682.15 273.24 Z M 703.11 290.04 L 695.48 270.84 698.05 270.84 703.15 284.67 703.39 285.33 703.61 285.97 703.82 286.59 704.01 287.20 704.19 287.79 704.37 287.17 704.56 286.54 704.77 285.92 704.98 285.30 705.21 284.67 710.35 270.84 712.92 270.84 705.59 290.04 Z M 726.54 287.64 L 726.53 290.04 713.93 290.04 713.94 289.70 713.96 289.36 714.02 289.03 714.09 288.70 714.19 288.38 714.40 287.86 714.65 287.35 714.94 286.84 715.27 286.33 715.65 285.84 716.10 285.33 716.62 284.80 717.22 284.24 717.90 283.66 718.66 283.06 719.82 282.06 720.82 281.17 721.65 280.37 722.31 279.66 722.81 279.06 723.18 278.50 723.47 277.95 723.68 277.41 723.81 276.87 723.85 276.34 723.81 275.83 723.69 275.36 723.50 274.92 723.22 274.51 722.87 274.14 722.46 273.81 722.00 273.56 721.49 273.38 720.93 273.28 720.32 273.24 719.68 273.27 719.10 273.38 718.57 273.56 718.09 273.80 717.66 274.12 717.30 274.49 717.02 274.92 716.82 275.41 716.69 275.95 716.65 276.54 714.25 276.24 714.40 275.24 714.66 274.33 715.03 273.53 715.51 272.83 716.09 272.22 716.77 271.72 717.54 271.34 718.40 271.06 719.34 270.89 720.37 270.84 721.41 270.90 722.36 271.09 723.22 271.39 723.99 271.82 724.67 272.38 725.24 273.02 725.68 273.73 726.00 274.49 726.19 275.31 726.25 276.19 726.23 276.65 726.18 277.11 726.09 277.57 725.97 278.02 725.82 278.47 725.62 278.92 725.39 279.38 725.10 279.85 724.77 280.33 724.40 280.82 723.94 281.35 723.37 281.94 722.68 282.60 721.88 283.32 720.96 284.11 720.17 284.75 719.50 285.30 718.95 285.76 718.51 286.13 718.19 286.42 717.94 286.66 717.71 286.91 717.49 287.15 717.29 287.39 717.11 287.64 Z M 737.93 290.04 L 735.53 290.04 735.55 275.08 735.18 275.40 734.77 275.73 734.31 276.05 733.82 276.37 733.27 276.70 732.72 277.00 732.19 277.28 731.69 277.52 731.21 277.73 730.75 277.91 730.75 275.64 731.53 275.25 732.28 274.83 732.98 274.39 733.64 273.91 734.27 273.39 734.84 272.87 735.33 272.35 735.76 271.84 736.12 271.34 736.41 270.84 737.95 270.84 Z M 752.63 290.04 L 750.23 290.04 750.25 275.08 749.88 275.40 749.47 275.73 749.01 276.05 748.52 276.37 747.97 276.70 747.42 277.00 746.90 277.28 746.39 277.52 745.91 277.73 745.45 277.91 745.45 275.64 746.23 275.25 746.98 274.83 747.68 274.39 748.34 273.91 748.97 273.39 749.54 272.87 750.03 272.35 750.46 271.84 750.82 271.34 751.11 270.84 752.65 270.84 Z M 767.33 290.04 L 764.93 290.04 764.95 275.08 764.58 275.40 764.17 275.73 763.71 276.05 763.22 276.37 762.67 276.70 762.12 277.00 761.60 277.28 761.09 277.52 760.61 277.73 760.15 277.91 760.15 275.64 760.93 275.25 761.68 274.83 762.38 274.39 763.04 273.91 763.67 273.39 764.24 272.87 764.73 272.35 765.16 271.84 765.52 271.34 765.81 270.84 767.35 270.84 Z M 779.61 290.04 L 771.98 270.84 774.55 270.84 779.65 284.67 779.89 285.33 780.12 285.97 780.32 286.59 780.51 287.20 780.69 287.79 780.87 287.17 781.06 286.54 781.27 285.92 781.48 285.30 781.71 284.67 786.85 270.84 789.42 270.84 782.09 290.04 Z" />
<path fill="rgb(0,0,0)" stroke="rgb(0,0,0)" stroke-width="2" d=" M 547 60 L 547 100 537 100 537 60 547 60 Z" />
<polyline points="577.00 80.18 547.00 80.18" fill="none" stroke="rgb(0,0,0)" stroke-width="2" />
<polyline points="627.00 80.18 577.00 80.18" fill="none" stroke="rgb(0,0,0)" stroke-width="2" />
<polygon points="773 471 773 479 784 475" fill="rgb(0,0,0)" stroke="rgb(0,0,0)" stroke-width="1" />
<polyline points="785.27 451.11 785.27 439.36 797.01 439.36 797.01 443.28" fill="none" stroke="rgb(0,0,0)" stroke-width="4" />
<polyline points="785.27 494.18 785.27 507.85 773.52 507.85 773.52 504.43" fill="none" stroke="rgb(0,0,0)" stroke-width="4" />
<polyline points="785.27 451.11 785.27 494.18" fill="none" stroke="rgb(0,0,0)" stroke-width="4" />
<circle cx="793.04" cy="475.18" r="45.14" fill="none" stroke="rgb(0,0,0)" stroke-width="2" />
<polyline points="748.00 475.18 784.00 475.18" fill="none" stroke="rgb(0,0,0)" stroke-width="2" />
<polyline points="832.70 495.18 785.27 495.18" fill="none" stroke="rgb(0,0,0)" stroke-width="2" />
<polyline points="785.61 455.18 833.00 455.18" fill="none" stroke="rgb(0,0,0)" stroke-width="2" />
<path fill="rgb(0,0,0)" stroke="rgb(0,0,0)" stroke-width="0" d=" M 714.01 542.83 L 716.40 543.45 716.03 544.66 715.57 545.74 715.00 546.71 714.32 547.56 713.55 548.29 712.69 548.89 711.76 549.35 710.76 549.69 709.68 549.89 708.53 549.95 707.34 549.90 706.25 549.75 705.25 549.50 704.35 549.15 703.53 548.69 702.80 548.14 702.14 547.50 701.55 546.77 701.04 545.95 700.61 545.04 700.25 544.07 699.97 543.07 699.77 542.04 699.65 540.99 699.61 539.91 699.65 538.74 699.79 537.64 700.02 536.59 700.34 535.61 700.75 534.69 701.24 533.84 701.81 533.08 702.46 532.40 703.18 531.81 703.98 531.31 704.84 530.89 705.73 530.57 706.65 530.34 707.61 530.20 708.60 530.15 709.70 530.21 710.74 530.39 711.70 530.69 712.59 531.11 713.40 531.65 714.13 532.29 714.77 533.04 715.31 533.88 715.76 534.82 716.11 535.86 713.71 536.43 713.41 535.66 713.07 534.99 712.68 534.39 712.23 533.89 711.74 533.48 711.20 533.15 710.61 532.89 709.96 532.70 709.26 532.59 708.50 532.55 707.63 532.59 706.82 532.72 706.07 532.92 705.38 533.21 704.75 533.58 704.18 534.02 703.68 534.51 703.26 535.06 702.90 535.67 702.62 536.34 702.40 537.03 702.23 537.74 702.11 538.45 702.03 539.17 702.01 539.90 702.03 540.83 702.12 541.70 702.27 542.53 702.47 543.31 702.73 544.04 703.05 544.71 703.43 545.31 703.88 545.84 704.40 546.29 704.98 546.68 705.60 546.99 706.24 547.24 706.90 547.41 707.58 547.52 708.29 547.55 709.13 547.50 709.92 547.36 710.65 547.12 711.33 546.79 711.96 546.36 712.53 545.84 713.01 545.22 713.42 544.52 713.75 543.72 714.01 542.83 Z M 719.70 549.65 L 719.72 530.45 733.52 530.45 733.52 532.85 722.11 532.85 722.11 538.55 732.91 538.55 732.91 540.95 722.11 540.95 722.10 547.25 733.80 547.25 733.80 549.65 Z M 736.50 544.55 L 738.90 544.25 739.09 544.91 739.31 545.50 739.57 546.00 739.88 546.43 740.22 546.78 740.61 547.06 741.06 547.27 741.55 547.43 742.10 547.52 742.70 547.55 743.40 547.51 744.04 547.38 744.63 547.17 745.15 546.87 745.62 546.49 746.01 546.04 746.31 545.56 746.53 545.03 746.66 544.46 746.70 543.85 746.66 543.27 746.53 542.74 746.32 542.24 746.02 541.79 745.63 541.37 745.18 541.02 744.68 540.74 744.13 540.55 743.54 540.43 742.90 540.39 742.62 540.40 742.31 540.43 741.97 540.48 741.61 540.56 741.22 540.65 741.49 538.25 741.59 538.26 741.67 538.27 741.75 538.28 741.82 538.28 741.88 538.28 742.47 538.25 743.04 538.17 743.58 538.03 744.11 537.84 744.60 537.59 745.04 537.29 745.37 536.92 745.62 536.50 745.76 536.02 745.81 535.47 745.78 535.03 745.67 534.63 745.50 534.25 745.25 533.91 744.94 533.60 744.57 533.33 744.16 533.12 743.70 532.97 743.21 532.88 742.68 532.85 742.15 532.88 741.65 532.97 741.20 533.12 740.77 533.33 740.39 533.60 740.05 533.93 739.76 534.32 739.52 534.77 739.34 535.28 739.21 535.85 736.81 535.55 737.03 534.62 737.33 533.78 737.73 533.03 738.21 532.37 738.78 531.79 739.42 531.31 740.13 530.93 740.89 530.67 741.71 530.51 742.59 530.45 743.21 530.48 743.81 530.56 744.39 530.69 744.95 530.87 745.49 531.11 745.99 531.39 746.45 531.72 746.85 532.08 747.21 532.47 747.51 532.91 747.77 533.37 747.96 533.85 748.10 534.33 748.18 534.83 748.21 535.33 748.18 535.81 748.10 536.27 747.97 536.71 747.78 537.14 747.54 537.54 747.25 537.93 746.91 538.28 746.51 538.60 746.07 538.88 745.57 539.13 746.22 539.33 746.80 539.59 747.33 539.91 747.79 540.31 748.19 540.77 748.52 541.30 748.77 541.87 748.96 542.50 749.07 543.17 749.10 543.90 749.03 544.88 748.81 545.80 748.44 546.66 747.92 547.45 747.26 548.19 746.49 548.82 745.63 549.32 744.70 549.67 743.70 549.88 742.61 549.95 741.63 549.89 740.72 549.71 739.88 549.41 739.11 548.99 738.41 548.45 737.80 547.81 737.30 547.10 736.92 546.32 736.65 545.47 736.50 544.55 Z M 751.20 544.55 L 753.60 544.25 753.74 544.88 753.93 545.44 754.17 545.93 754.46 546.36 754.81 546.73 755.21 547.02 755.66 547.25 756.16 547.42 756.71 547.52 757.31 547.55 758.05 547.51 758.72 547.37 759.33 547.14 759.86 546.82 760.33 546.40 760.71 545.91 761.01 545.36 761.23 544.75 761.36 544.08 761.40 543.35 761.36 542.66 761.24 542.03 761.04 541.46 760.76 540.95 760.40 540.50 759.96 540.12 759.43 539.83 758.82 539.62 758.13 539.49 757.36 539.45 756.87 539.47 756.41 539.52 755.99 539.60 755.60 539.72 755.25 539.87 754.93 540.05 754.64 540.24 754.37 540.46 754.12 540.70 753.91 540.95 751.51 540.65 753.62 530.75 762.92 530.75 762.92 533.15 755.56 533.15 754.52 538.44 755.20 537.94 755.89 537.55 756.59 537.27 757.31 537.11 758.04 537.05 758.98 537.12 759.86 537.33 760.68 537.67 761.44 538.15 762.14 538.77 762.74 539.50 763.20 540.31 763.54 541.19 763.74 542.16 763.80 543.20 763.74 544.20 763.56 545.15 763.26 546.04 762.83 546.87 762.29 547.65 761.51 548.48 760.62 549.12 759.62 549.58 758.51 549.86 757.30 549.95 756.30 549.89 755.38 549.72 754.53 549.42 753.76 549.01 753.07 548.47 752.47 547.84 751.99 547.14 751.61 546.35 751.35 545.49 751.20 544.55 Z M 774.90 549.65 L 772.50 549.65 772.51 534.69 772.14 535.01 771.73 535.34 771.28 535.66 770.78 535.99 770.24 536.31 769.69 536.62 769.16 536.89 768.65 537.13 768.17 537.34 767.71 537.52 767.71 535.25 768.49 534.87 769.24 534.45 769.94 534.00 770.61 533.52 771.23 533.01 771.80 532.48 772.30 531.97 772.72 531.46 773.08 530.95 773.37 530.45 774.92 530.45 Z M 792.90 547.25 L 792.90 549.65 780.30 549.65 780.30 549.31 780.33 548.97 780.38 548.64 780.45 548.32 780.55 548.00 780.76 547.48 781.01 546.96 781.30 546.45 781.64 545.95 782.02 545.45 782.46 544.94 782.98 544.41 783.58 543.86 784.26 543.27 785.03 542.67 786.19 541.68 787.18 540.78 788.01 539.98 788.67 539.28 789.17 538.67 789.55 538.11 789.84 537.56 790.04 537.02 790.17 536.48 790.21 535.95 790.17 535.45 790.05 534.97 789.86 534.53 789.59 534.13 789.24 533.75 788.82 533.43 788.36 533.18 787.85 533.00 787.29 532.89 786.69 532.85 786.05 532.89 785.46 532.99 784.93 533.17 784.45 533.41 784.02 533.73 783.66 534.11 783.38 534.54 783.18 535.02 783.06 535.56 783.01 536.15 780.61 535.85 780.76 534.85 781.02 533.95 781.39 533.14 781.87 532.44 782.45 531.84 783.14 531.34 783.91 530.95 784.76 530.67 785.71 530.51 786.74 530.45 787.78 530.51 788.73 530.70 789.59 531.01 790.35 531.44 791.03 531.99 791.60 532.63 792.04 533.34 792.36 534.10 792.55 534.92 792.61 535.81 792.59 536.27 792.54 536.73 792.46 537.18 792.34 537.63 792.18 538.08 791.99 538.53 791.75 538.99 791.46 539.47 791.14 539.95 790.76 540.43 790.31 540.96 789.73 541.55 789.05 542.21 788.24 542.93 787.32 543.72 786.53 544.36 785.87 544.91 785.31 545.37 784.88 545.74 784.56 546.03 784.30 546.27 784.07 546.52 783.85 546.76 783.65 547.01 783.47 547.25 Z M 796.20 549.65 L 796.22 530.45 798.62 530.45 798.61 539.85 808.46 530.45 811.82 530.45 803.55 538.35 812.10 549.65 809.16 549.65 801.84 539.97 798.60 543.05 798.60 549.65 Z M 825.30 547.25 L 825.30 549.65 812.70 549.65 812.70 549.31 812.73 548.97 812.78 548.64 812.85 548.32 812.95 548.00 813.16 547.48 813.41 546.96 813.70 546.45 814.04 545.95 814.42 545.45 814.86 544.94 815.38 544.41 815.98 543.86 816.66 543.27 817.43 542.67 818.59 541.68 819.58 540.78 820.41 539.98 821.07 539.28 821.57 538.67 821.95 538.11 822.24 537.56 822.44 537.02 822.57 536.48 822.61 535.95 822.57 535.45 822.45 534.97 822.26 534.53 821.99 534.13 821.64 533.75 821.22 533.43 820.76 533.18 820.25 533.00 819.69 532.89 819.09 532.85 818.45 532.89 817.86 532.99 817.33 533.17 816.85 533.41 816.42 533.73 816.06 534.11 815.78 534.54 815.58 535.02 815.46 535.56 815.41 536.15 813.01 535.85 813.16 534.85 813.42 533.95 813.79 533.14 814.27 532.44 814.85 531.84 815.54 531.34 816.31 530.95 817.16 530.67 818.11 530.51 819.14 530.45 820.18 530.51 821.13 530.70 821.99 531.01 822.75 531.44 823.43 531.99 824.00 532.63 824.44 533.34 824.76 534.10 824.95 534.92 825.01 535.81 824.99 536.27 824.94 536.73 824.86 537.18 824.74 537.63 824.58 538.08 824.39 538.53 824.15 538.99 823.86 539.47 823.54 539.95 823.16 540.43 822.71 540.96 822.13 541.55 821.45 542.21 820.64 542.93 819.72 543.72 818.93 544.36 818.27 544.91 817.71 545.37 817.28 545.74 816.96 546.03 816.70 546.27 816.47 546.52 816.25 546.76 816.05 547.01 815.87 547.25 Z" />
<polyline points="869.00 80.18 819.00 80.18" fill="none" stroke="rgb(0,0,0)" stroke-width="2" />
<path fill="rgb(128,128,128)" stroke="none" stroke-width="2" d=" M 338 460 L 378 460 378 490 338 490 338 460 Z" />
<path fill="rgb(128,128,128)" stroke="none" stroke-width="2" d=" M 373 465 L 433 465 433 485 373 485 373 465 Z" />
<path fill="rgb(128,128,128)" stroke="none" stroke-width="2" d=" M 668 475 L 708 475 708 480 668 480 668 475 Z" />
<path fill="rgb(128,128,128)" stroke="none" stroke-width="2" d=" M 421 365 L 426 365 426 470 421 470 421 365 Z" />
<path fill="rgb(128,128,128)" stroke="none" stroke-width="2" d=" M 673 443 L 673 508 653 508 653 443 673 443 Z" />
<path fill="rgb(128,128,128)" stroke="none" stroke-width="2" d=" M 428 480 L 428 500 378 500 378 480 428 480 Z" />
<path fill="rgb(128,128,128)" stroke="none" stroke-width="2" d=" M 848 430 L 863 430 863 480 848 480 848 430 Z" />
<path fill="rgb(128,128,128)" stroke="none" stroke-width="2" d=" M 868 445 L 1008 445 1008 465 868 465 868 445 Z" />
<path fill="rgb(128,128,128)" stroke="none" stroke-width="2" d=" M 998 435 L 1018 435 1018 465 998 465 998 435 Z" />
<path fill="rgb(128,128,128)" stroke="none" stroke-width="2" d=" M 1005 435 L 1103 435 1103 475 1005 475 1005 435 Z" />
<path fill="rgb(128,128,128)" stroke="none" stroke-width="2" d=" M 1203 440 L 1288 440 1288 470 1203 470 1203 440 Z" />
<path fill="rgb(128,128,128)" stroke="none" stroke-width="2" d=" M 1003 335 L 1008 335 1008 450 1003 450 1003 335 Z" />
<polygon points="863 480 878 465 878 445 863 430" fill="rgb(128,128,128)" stroke="none" stroke-width="2" />
<polygon points="411 365 436 365 461 325 386 325" fill="rgb(128,128,128)" stroke="rgb(128,128,128)" stroke-width="2" />
<path fill="none" stroke="rgb(128,128,128)" stroke-width="2" d=" M 386 325 C 411 305 436 305 461 325" />
<polyline points="461.00 325.18 386.00 325.18" fill="none" stroke="rgb(128,128,128)" stroke-width="2" />
<polygon points="386 325 461 325 445 316 431 311 416 311 402 316" fill="rgb(128,128,128)" stroke="rgb(128,128,128)" stroke-width="2" />
<polygon points="993 335 1018 335 1043 295 968 295" fill="rgb(128,128,128)" stroke="rgb(128,128,128)" stroke-width="2" />
<path fill="none" stroke="rgb(128,128,128)" stroke-width="2" d=" M 968 295 C 993 275 1018 275 1043 295" />
<polyline points="1043.00 295.18 968.00 295.18" fill="none" stroke="rgb(128,128,128)" stroke-width="2" />
<polygon points="968 295 1043 295 1027 286 1013 281 998 281 984 286" fill="rgb(128,128,128)" stroke="rgb(128,128,128)" stroke-width="2" />
<circle cx="423" cy="370" r="6" fill="rgb(0,0,0)" stroke="none" stroke-width="2" />
<circle cx="1005" cy="340" r="6" fill="rgb(0,0,0)" stroke="none" stroke-width="2" />
<polyline points="453.00 370.18 423.00 370.18" fill="none" stroke="rgb(0,0,0)" stroke-width="2" />
<polyline points="993.00 340.18 1008.00 340.18" fill="none" stroke="rgb(0,0,0)" stroke-width="2" />
<polyline points="588.00 370.18 588.00 230.18 628.00 230.18" fill="none" stroke="rgb(0,0,0)" stroke-width="2" />
<polyline points="588.00 230.18 563.00 230.18" fill="none" stroke="rgb(0,0,0)" stroke-width="2" />
<polyline points="818.00 230.18 868.00 230.18 868.00 340.18" fill="none" stroke="rgb(0,0,0)" stroke-width="2" />
<circle cx="588" cy="370" r="6" fill="rgb(0,0,0)" stroke="none" stroke-width="2" />
<circle cx="868" cy="340" r="6" fill="rgb(0,0,0)" stroke="none" stroke-width="2" />
<path fill="rgb(0,0,0)" stroke="none" stroke-width="1" d=" M 1140 435 L 1150 435 1150 475 1140 475 1140 435 Z" />
<polyline points="1103.00 455.18 1143.00 455.18" fill="none" stroke="rgb(0,0,0)" stroke-width="2" />
<polyline points="1163.00 455.18 1203.00 455.18" fill="none" stroke="rgb(0,0,0)" stroke-width="2" />
<path fill="rgb(0,0,0)" stroke="none" stroke-width="1" d=" M 1156 435 L 1166 435 1166 475 1156 475 1156 435 Z" />
<path fill="rgb(0,0,0)" stroke="rgb(0,0,0)" stroke-width="0" d=" M 1145.43 503.02 L 1143.03 503.02 1143.05 488.05 1142.68 488.38 1142.27 488.70 1141.81 489.03 1141.31 489.35 1140.77 489.67 1140.22 489.98 1139.69 490.26 1139.19 490.50 1138.70 490.71 1138.25 490.89 1138.25 488.62 1139.03 488.23 1139.77 487.81 1140.48 487.36 1141.14 486.88 1141.77 486.37 1142.33 485.85 1142.83 485.33 1143.26 484.82 1143.62 484.32 1143.90 483.82 1145.45 483.82 Z M 1151.73 508.42 L 1151.75 488.92 1154.15 488.92 1154.15 491.27 1154.45 490.77 1154.76 490.32 1155.10 489.92 1155.44 489.57 1155.80 489.28 1156.19 489.04 1156.61 488.86 1157.05 488.72 1157.53 488.64 1158.05 488.62 1158.72 488.65 1159.36 488.77 1159.97 488.95 1160.54 489.21 1161.09 489.55 1161.59 489.95 1162.04 490.41 1162.43 490.93 1162.78 491.52 1163.07 492.16 1163.31 492.85 1163.50 493.56 1163.63 494.30 1163.71 495.07 1163.74 495.86 1163.71 496.71 1163.62 497.52 1163.46 498.30 1163.25 499.04 1162.98 499.75 1162.65 500.41 1162.26 501.00 1161.82 501.53 1161.33 502.00 1160.78 502.40 1160.19 502.73 1159.60 502.99 1158.99 503.17 1158.37 503.28 1157.74 503.32 1157.29 503.29 1156.85 503.22 1156.43 503.10 1156.03 502.92 1155.65 502.70 1155.30 502.44 1154.96 502.16 1154.66 501.84 1154.38 501.51 1154.13 501.14 1154.13 508.42 Z M 1154.14 496.08 L 1154.18 497.02 1154.30 497.85 1154.51 498.58 1154.80 499.21 1155.17 499.74 1155.60 500.16 1156.07 500.49 1156.58 500.73 1157.11 500.87 1157.69 500.92 1158.27 500.87 1158.82 500.72 1159.34 500.48 1159.82 500.13 1160.26 499.69 1160.65 499.15 1160.95 498.50 1161.17 497.74 1161.30 496.88 1161.34 495.90 1161.30 494.97 1161.17 494.14 1160.97 493.41 1160.67 492.77 1160.30 492.24 1159.86 491.80 1159.40 491.46 1158.90 491.21 1158.37 491.07 1157.80 491.02 1157.24 491.07 1156.70 491.22 1156.19 491.48 1155.71 491.85 1155.25 492.31 1154.85 492.88 1154.54 493.54 1154.32 494.29 1154.19 495.14 1154.14 496.08 Z" />
<path fill="rgb(128,128,128)" stroke="none" stroke-width="2" d=" M 428 470 L 468 470 468 480 428 480 428 470 Z" />
<path fill="rgb(255,255,255)" stroke="rgb(0,0,0)" stroke-width="2" d=" M 478 355 L 548 355 548 385 478 385 478 355 Z" />
<polyline points="448.00 370.18 478.00 370.18" fill="none" stroke="rgb(0,0,0)" stroke-width="2" />
<polyline points="548.00 370.18 578.00 370.18" fill="none" stroke="rgb(0,0,0)" stroke-width="2" />
<path fill="rgb(0,0,0)" stroke="rgb(0,0,0)" stroke-width="0" d=" M 503.87 377.78 L 501.95 377.78 501.96 365.81 501.67 366.07 501.34 366.33 500.98 366.59 500.58 366.85 500.14 367.11 499.70 367.36 499.28 367.58 498.88 367.77 498.49 367.94 498.12 368.08 498.12 366.26 498.75 365.96 499.35 365.62 499.91 365.26 500.44 364.88 500.94 364.47 501.39 364.05 501.79 363.64 502.13 363.23 502.42 362.82 502.65 362.42 503.89 362.42 Z M 508.44 370.23 L 508.46 369.19 508.53 368.22 508.65 367.34 508.81 366.53 509.01 365.81 509.26 365.16 509.55 364.58 509.89 364.07 510.26 363.63 510.69 363.26 511.16 362.96 511.67 362.73 512.23 362.56 512.84 362.46 513.49 362.42 513.98 362.44 514.44 362.50 514.89 362.60 515.32 362.74 515.73 362.92 516.11 363.14 516.46 363.39 516.77 363.67 517.04 363.99 517.28 364.35 517.49 364.74 517.69 365.16 517.87 365.61 518.03 366.10 518.18 366.62 518.30 367.19 518.40 367.84 518.47 368.56 518.51 369.36 518.52 370.23 518.50 371.27 518.43 372.22 518.31 373.10 518.16 373.91 517.96 374.63 517.71 375.28 517.42 375.86 517.08 376.37 516.71 376.81 516.28 377.18 515.81 377.49 515.30 377.72 514.74 377.89 514.13 377.99 513.47 378.02 512.62 377.97 511.84 377.79 511.14 377.50 510.51 377.09 509.96 376.56 509.41 375.66 508.99 374.58 508.68 373.31 508.50 371.86 508.44 370.23 Z M 510.36 370.22 L 510.39 371.59 510.50 372.74 510.68 373.70 510.93 374.45 511.25 374.99 511.63 375.39 512.04 375.70 512.48 375.93 512.96 376.06 513.47 376.10 513.98 376.06 514.46 375.93 514.91 375.70 515.32 375.39 515.69 374.99 516.02 374.44 516.27 373.69 516.45 372.74 516.56 371.58 516.60 370.22 516.57 368.90 516.46 367.77 516.29 366.83 516.05 366.07 515.74 365.51 515.37 365.09 514.96 364.76 514.50 364.53 514.00 364.39 513.46 364.34 512.96 364.39 512.48 364.51 512.05 364.71 511.65 365.00 511.29 365.37 510.96 365.99 510.70 366.78 510.51 367.75 510.40 368.90 510.36 370.22 Z M 520.20 370.23 L 520.22 369.19 520.29 368.22 520.41 367.34 520.57 366.53 520.77 365.81 521.02 365.16 521.31 364.58 521.65 364.07 522.02 363.63 522.45 363.26 522.92 362.96 523.43 362.73 523.99 362.56 524.59 362.46 525.25 362.42 525.73 362.44 526.20 362.50 526.65 362.60 527.08 362.74 527.49 362.92 527.87 363.14 528.22 363.39 528.53 363.67 528.80 363.99 529.04 364.35 529.25 364.74 529.45 365.16 529.63 365.61 529.79 366.10 529.94 366.62 530.06 367.19 530.16 367.84 530.23 368.56 530.27 369.36 530.28 370.23 530.26 371.27 530.19 372.22 530.07 373.10 529.92 373.91 529.71 374.63 529.47 375.28 529.18 375.86 528.84 376.37 528.47 376.81 528.04 377.18 527.57 377.49 527.06 377.72 526.50 377.89 525.89 377.99 525.23 378.02 524.38 377.97 523.60 377.79 522.90 377.50 522.27 377.09 521.72 376.56 521.17 375.66 520.75 374.58 520.44 373.31 520.26 371.86 520.20 370.23 Z M 522.12 370.22 L 522.15 371.59 522.26 372.74 522.44 373.70 522.69 374.45 523.01 374.99 523.39 375.39 523.80 375.70 524.24 375.93 524.72 376.06 525.23 376.10 525.74 376.06 526.22 375.93 526.67 375.70 527.08 375.39 527.45 374.99 527.78 374.44 528.03 373.69 528.21 372.74 528.32 371.58 528.36 370.22 528.33 368.90 528.22 367.77 528.05 366.83 527.81 366.07 527.49 365.51 527.13 365.09 526.71 364.76 526.26 364.53 525.76 364.39 525.22 364.34 524.72 364.39 524.24 364.51 523.81 364.71 523.41 365.00 523.05 365.37 522.72 365.99 522.46 366.78 522.27 367.75 522.16 368.90 522.12 370.22 Z" />
<path fill="rgb(255,255,255)" stroke="rgb(0,0,0)" stroke-width="2" d=" M 478 215 L 548 215 548 245 478 245 478 215 Z" />
<polyline points="448.00 230.18 478.00 230.18" fill="none" stroke="rgb(0,0,0)" stroke-width="2" />
<polyline points="548.00 230.18 578.00 230.18" fill="none" stroke="rgb(0,0,0)" stroke-width="2" />
<path fill="rgb(0,0,0)" stroke="rgb(0,0,0)" stroke-width="0" d=" M 507.00 235.86 L 506.99 237.78 496.91 237.78 496.91 237.51 496.94 237.24 496.98 236.98 497.04 236.72 497.12 236.46 497.28 236.04 497.48 235.63 497.72 235.22 497.98 234.82 498.29 234.42 498.64 234.02 499.06 233.59 499.54 233.15 500.09 232.68 500.70 232.20 501.62 231.40 502.42 230.69 503.08 230.05 503.61 229.48 504.01 229.00 504.31 228.55 504.54 228.11 504.71 227.68 504.81 227.25 504.84 226.82 504.81 226.42 504.72 226.04 504.56 225.69 504.34 225.36 504.06 225.06 503.73 224.80 503.36 224.60 502.95 224.46 502.51 224.37 502.02 224.34 501.51 224.37 501.04 224.46 500.62 224.60 500.23 224.79 499.89 225.05 499.61 225.35 499.38 225.69 499.22 226.08 499.12 226.51 499.08 226.98 497.16 226.74 497.29 225.94 497.50 225.22 497.79 224.58 498.17 224.01 498.64 223.53 499.18 223.13 499.80 222.82 500.49 222.60 501.24 222.47 502.06 222.42 502.90 222.47 503.66 222.62 504.34 222.87 504.96 223.21 505.50 223.65 505.96 224.17 506.31 224.73 506.56 225.34 506.71 226.00 506.76 226.71 506.75 227.08 506.71 227.44 506.64 227.81 506.54 228.17 506.42 228.53 506.27 228.89 506.07 229.26 505.85 229.64 505.58 230.02 505.28 230.41 504.92 230.83 504.46 231.31 503.91 231.83 503.27 232.41 502.53 233.04 501.90 233.55 501.37 233.99 500.93 234.36 500.58 234.66 500.32 234.89 500.12 235.08 499.93 235.28 499.76 235.47 499.60 235.67 499.45 235.86 Z M 508.92 230.23 L 508.94 229.19 509.01 228.22 509.13 227.34 509.29 226.53 509.49 225.81 509.74 225.16 510.03 224.58 510.37 224.07 510.74 223.63 511.17 223.26 511.64 222.96 512.15 222.73 512.71 222.56 513.32 222.46 513.97 222.42 514.46 222.44 514.92 222.50 515.37 222.60 515.80 222.74 516.21 222.92 516.59 223.14 516.94 223.39 517.25 223.67 517.52 223.99 517.76 224.35 517.97 224.74 518.17 225.16 518.35 225.61 518.51 226.10 518.66 226.62 518.78 227.19 518.88 227.84 518.95 228.56 518.99 229.36 519.00 230.23 518.98 231.27 518.91 232.22 518.79 233.10 518.64 233.91 518.44 234.63 518.19 235.28 517.90 235.86 517.56 236.37 517.19 236.81 516.76 237.18 516.29 237.49 515.78 237.72 515.22 237.89 514.61 237.99 513.95 238.02 513.10 237.97 512.32 237.79 511.62 237.50 510.99 237.09 510.44 236.56 509.89 235.66 509.47 234.58 509.16 233.31 508.98 231.86 508.92 230.23 Z M 510.84 230.22 L 510.87 231.59 510.98 232.74 511.16 233.70 511.41 234.45 511.73 234.99 512.11 235.39 512.52 235.70 512.96 235.93 513.44 236.06 513.95 236.10 514.46 236.06 514.94 235.93 515.39 235.70 515.80 235.39 516.17 234.99 516.50 234.44 516.75 233.69 516.93 232.74 517.04 231.58 517.08 230.22 517.05 228.90 516.94 227.77 516.77 226.83 516.53 226.07 516.22 225.51 515.85 225.09 515.44 224.76 514.98 224.53 514.48 224.39 513.94 224.34 513.44 224.39 512.96 224.51 512.53 224.71 512.13 225.00 511.77 225.37 511.44 225.99 511.18 226.78 510.99 227.75 510.88 228.90 510.84 230.22 Z M 521.15 237.78 L 521.17 222.42 523.09 222.42 523.08 230.68 527.39 226.50 530.04 226.50 525.68 230.73 530.27 237.78 528.03 237.78 524.31 232.07 523.08 233.25 523.07 237.78 Z" />
<polyline points="578.00 370.18 583.00 370.18" fill="none" stroke="rgb(0,0,0)" stroke-width="2" />
<path fill="rgb(128,128,128)" stroke="none" stroke-width="2" d=" M 463 465 L 563 465 563 485 463 485 463 465 Z" />
<path fill="rgb(128,128,128)" stroke="none" stroke-width="2" d=" M 708 468 L 708 490 703 490 703 468 708 468 Z" />
<path fill="rgb(128,128,128)" stroke="none" stroke-width="2" d=" M 706 468 L 733 468 733 483 706 483 706 468 Z" />
<path fill="rgb(255,255,255)" stroke="rgb(0,0,0)" stroke-width="2" d=" M 573 460 L 643 460 643 490 573 490 573 460 Z" />
<polyline points="563.00 475.18 573.00 475.18" fill="none" stroke="rgb(0,0,0)" stroke-width="2" />
<polyline points="643.00 475.18 653.00 475.18" fill="none" stroke="rgb(0,0,0)" stroke-width="2" />
<path fill="rgb(0,0,0)" stroke="rgb(0,0,0)" stroke-width="0" d=" M 603.79 482.78 L 603.80 479.18 596.84 479.18 596.84 477.26 604.29 467.66 605.73 467.66 605.72 477.26 607.64 477.26 607.64 479.18 605.72 479.18 605.71 482.78 Z M 603.80 477.26 L 603.80 471.33 599.20 477.26 Z M 609.32 478.70 L 611.24 478.46 611.38 478.99 611.56 479.46 611.77 479.87 612.02 480.21 612.29 480.49 612.61 480.71 612.96 480.88 613.36 481.01 613.79 481.08 614.27 481.10 614.84 481.07 615.35 480.97 615.82 480.80 616.24 480.56 616.61 480.25 616.92 479.90 617.16 479.51 617.34 479.09 617.44 478.63 617.48 478.15 617.44 477.68 617.34 477.25 617.17 476.86 616.93 476.49 616.62 476.16 616.26 475.88 615.86 475.66 615.42 475.50 614.95 475.41 614.44 475.37 614.21 475.38 613.96 475.41 613.69 475.45 613.40 475.51 613.09 475.58 613.31 473.66 613.38 473.67 613.45 473.68 613.51 473.68 613.57 473.69 613.62 473.69 614.09 473.67 614.55 473.60 614.98 473.49 615.40 473.33 615.80 473.14 616.14 472.89 616.41 472.60 616.61 472.26 616.72 471.88 616.76 471.44 616.74 471.09 616.65 470.77 616.51 470.46 616.32 470.19 616.06 469.94 615.77 469.73 615.44 469.56 615.08 469.44 614.68 469.37 614.26 469.34 613.83 469.37 613.44 469.44 613.07 469.56 612.73 469.73 612.43 469.94 612.15 470.21 611.92 470.52 611.73 470.88 611.59 471.29 611.48 471.74 609.56 471.50 609.74 470.76 609.98 470.09 610.30 469.49 610.68 468.96 611.14 468.49 611.65 468.11 612.22 467.81 612.83 467.60 613.48 467.47 614.19 467.42 614.69 467.45 615.16 467.51 615.63 467.61 616.07 467.76 616.51 467.95 616.91 468.18 617.27 468.44 617.60 468.72 617.88 469.04 618.13 469.39 618.33 469.76 618.48 470.14 618.60 470.53 618.66 470.92 618.68 471.33 618.66 471.71 618.60 472.08 618.49 472.43 618.34 472.77 618.15 473.10 617.91 473.41 617.64 473.69 617.32 473.94 616.97 474.17 616.57 474.37 617.09 474.52 617.56 474.73 617.98 474.99 618.35 475.31 618.66 475.68 618.93 476.10 619.13 476.56 619.28 477.06 619.37 477.60 619.40 478.18 619.34 478.97 619.16 479.70 618.87 480.39 618.45 481.03 617.92 481.61 617.30 482.12 616.62 482.52 615.88 482.80 615.07 482.97 614.21 483.02 613.42 482.98 612.69 482.83 612.02 482.59 611.40 482.25 610.84 481.82 610.35 481.31 609.95 480.74 609.65 480.12 609.44 479.44 609.32 478.70 Z" />
<path fill="rgb(128,128,128)" stroke="none" stroke-width="2" d=" M 403 463 L 433 463 433 483 403 483 403 463 Z" />
<path fill="rgb(255,255,255)" stroke="rgb(0,0,0)" stroke-width="2" d=" M 898 325 L 968 325 968 355 898 355 898 325 Z" />
<polyline points="868.00 340.18 898.00 340.18" fill="none" stroke="rgb(0,0,0)" stroke-width="2" />
<polyline points="968.00 340.18 998.00 340.18" fill="none" stroke="rgb(0,0,0)" stroke-width="2" />
<path fill="rgb(0,0,0)" stroke="rgb(0,0,0)" stroke-width="0" d=" M 923.87 347.78 L 921.95 347.78 921.96 335.81 921.67 336.07 921.34 336.33 920.98 336.59 920.58 336.85 920.14 337.11 919.70 337.36 919.28 337.58 918.88 337.77 918.49 337.94 918.12 338.08 918.12 336.26 918.75 335.96 919.35 335.62 919.91 335.26 920.44 334.88 920.94 334.47 921.39 334.05 921.79 333.64 922.13 333.23 922.42 332.82 922.65 332.42 923.89 332.42 Z M 928.44 343.70 L 930.36 343.46 930.50 343.99 930.68 344.46 930.89 344.87 931.14 345.21 931.41 345.49 931.73 345.71 932.08 345.88 932.48 346.01 932.91 346.08 933.39 346.10 933.96 346.07 934.47 345.97 934.94 345.80 935.36 345.56 935.73 345.25 936.04 344.90 936.28 344.51 936.46 344.09 936.56 343.63 936.60 343.15 936.56 342.68 936.46 342.25 936.29 341.86 936.05 341.49 935.74 341.16 935.38 340.88 934.98 340.66 934.54 340.50 934.07 340.41 933.56 340.37 933.33 340.38 933.08 340.41 932.81 340.45 932.52 340.51 932.21 340.58 932.43 338.66 932.50 338.67 932.57 338.68 932.63 338.68 932.69 338.69 932.74 338.69 933.21 338.67 933.67 338.60 934.10 338.49 934.52 338.33 934.92 338.14 935.26 337.89 935.53 337.60 935.73 337.26 935.84 336.88 935.88 336.44 935.86 336.09 935.77 335.77 935.63 335.46 935.44 335.19 935.18 334.94 934.89 334.73 934.56 334.56 934.20 334.44 933.80 334.37 933.38 334.34 932.95 334.37 932.56 334.44 932.19 334.56 931.85 334.73 931.55 334.94 931.27 335.21 931.04 335.52 930.86 335.88 930.71 336.29 930.60 336.74 928.68 336.50 928.86 335.76 929.10 335.09 929.42 334.49 929.80 333.96 930.26 333.49 930.77 333.11 931.34 332.81 931.95 332.60 932.60 332.47 933.31 332.42 933.81 332.45 934.28 332.51 934.75 332.61 935.19 332.76 935.63 332.95 936.03 333.18 936.39 333.44 936.72 333.72 937.00 334.04 937.25 334.39 937.45 334.76 937.60 335.14 937.72 335.53 937.78 335.92 937.80 336.33 937.78 336.71 937.72 337.08 937.61 337.43 937.46 337.77 937.27 338.10 937.03 338.41 936.76 338.69 936.44 338.94 936.09 339.17 935.69 339.37 936.21 339.52 936.68 339.73 937.10 339.99 937.47 340.31 937.78 340.68 938.05 341.10 938.25 341.56 938.40 342.06 938.49 342.60 938.52 343.18 938.46 343.97 938.28 344.70 937.99 345.39 937.57 346.03 937.04 346.61 936.42 347.12 935.74 347.52 935.00 347.80 934.19 347.97 933.33 348.02 932.54 347.98 931.81 347.83 931.14 347.59 930.52 347.25 929.96 346.82 929.47 346.31 929.07 345.74 928.77 345.12 928.56 344.44 928.44 343.70 Z M 940.20 340.23 L 940.22 339.19 940.29 338.22 940.41 337.34 940.57 336.53 940.77 335.81 941.02 335.16 941.31 334.58 941.65 334.07 942.02 333.63 942.45 333.26 942.92 332.96 943.43 332.73 943.99 332.56 944.59 332.46 945.25 332.42 945.73 332.44 946.20 332.50 946.65 332.60 947.08 332.74 947.49 332.92 947.87 333.14 948.22 333.39 948.53 333.67 948.80 333.99 949.04 334.35 949.25 334.74 949.45 335.16 949.63 335.61 949.79 336.10 949.94 336.62 950.06 337.19 950.16 337.84 950.23 338.56 950.27 339.36 950.28 340.23 950.26 341.27 950.19 342.22 950.07 343.10 949.92 343.91 949.71 344.63 949.47 345.28 949.18 345.86 948.84 346.37 948.47 346.81 948.04 347.18 947.57 347.49 947.06 347.72 946.50 347.89 945.89 347.99 945.23 348.02 944.38 347.97 943.60 347.79 942.90 347.50 942.27 347.09 941.72 346.56 941.17 345.66 940.75 344.58 940.44 343.31 940.26 341.86 940.20 340.23 Z M 942.12 340.22 L 942.15 341.59 942.26 342.74 942.44 343.70 942.69 344.45 943.01 344.99 943.39 345.39 943.80 345.70 944.24 345.93 944.72 346.06 945.23 346.10 945.74 346.06 946.22 345.93 946.67 345.70 947.08 345.39 947.45 344.99 947.78 344.44 948.03 343.69 948.21 342.74 948.32 341.58 948.36 340.22 948.33 338.90 948.22 337.77 948.05 336.83 947.81 336.07 947.49 335.51 947.13 335.09 946.71 334.76 946.26 334.53 945.76 334.39 945.22 334.34 944.72 334.39 944.24 334.51 943.81 334.71 943.41 335.00 943.05 335.37 942.72 335.99 942.46 336.78 942.27 337.75 942.16 338.90 942.12 340.22 Z" />
<polyline points="919.00 70.18 879.00 70.18" fill="none" stroke="rgb(0,0,0)" stroke-width="2" />
<polyline points="919.00 90.18 879.00 90.18" fill="none" stroke="rgb(0,0,0)" stroke-width="2" />
<path fill="rgb(0,0,0)" stroke="rgb(0,0,0)" stroke-width="2" d=" M 919 120 L 879 120 879 130 919 130 919 120 Z" />
<polyline points="899.00 90.18 899.00 120.18" fill="none" stroke="rgb(0,0,0)" stroke-width="2" />
<path fill="rgb(0,0,0)" stroke="rgb(0,0,0)" stroke-width="0" d=" M 889.37 61.74 L 887.37 61.74 887.38 49.28 887.08 49.55 886.73 49.82 886.36 50.09 885.94 50.36 885.49 50.62 885.03 50.88 884.59 51.11 884.17 51.31 883.77 51.49 883.38 51.63 883.38 49.74 884.04 49.42 884.66 49.07 885.24 48.70 885.80 48.30 886.32 47.87 886.79 47.44 887.21 47.01 887.56 46.58 887.86 46.16 888.10 45.74 889.39 45.74 Z M 894.62 61.74 L 894.63 49.99 896.63 49.99 896.63 51.63 897.18 50.95 897.81 50.42 898.54 50.05 899.35 49.82 900.25 49.74 900.66 49.76 901.05 49.81 901.42 49.88 901.79 49.99 902.14 50.12 902.47 50.29 902.76 50.47 903.02 50.67 903.24 50.89 903.43 51.12 903.59 51.38 903.73 51.66 903.85 51.95 903.95 52.26 904.03 52.60 904.06 52.85 904.09 53.17 904.11 53.56 904.13 54.01 904.13 54.53 904.12 61.74 902.12 61.74 902.13 54.80 902.12 54.35 902.09 53.95 902.05 53.59 901.98 53.29 901.90 53.03 901.80 52.80 901.66 52.60 901.50 52.41 901.31 52.24 901.09 52.09 900.85 51.97 900.59 51.87 900.31 51.80 900.02 51.76 899.72 51.74 899.23 51.78 898.77 51.87 898.33 52.03 897.92 52.25 897.54 52.53 897.22 52.90 896.96 53.38 896.78 53.98 896.67 54.69 896.63 55.51 896.62 61.74 Z M 906.38 57.49 L 908.38 57.24 908.49 57.77 908.65 58.23 908.85 58.64 909.09 59.00 909.38 59.30 909.71 59.55 910.09 59.75 910.51 59.88 910.97 59.97 911.47 59.99 912.09 59.96 912.65 59.84 913.15 59.65 913.59 59.38 913.98 59.04 914.30 58.63 914.55 58.17 914.73 57.66 914.84 57.10 914.88 56.49 914.84 55.91 914.74 55.39 914.58 54.91 914.34 54.49 914.04 54.12 913.67 53.80 913.24 53.56 912.73 53.38 912.15 53.28 911.51 53.24 911.10 53.26 910.72 53.30 910.37 53.37 910.05 53.47 909.75 53.59 909.49 53.74 909.24 53.90 909.02 54.08 908.81 54.28 908.63 54.49 906.63 54.24 908.39 45.99 916.14 45.99 916.14 47.99 910.01 47.99 909.15 52.40 909.71 51.98 910.28 51.66 910.87 51.43 911.46 51.29 912.07 51.24 912.86 51.30 913.59 51.47 914.28 51.76 914.91 52.16 915.49 52.68 915.99 53.28 916.38 53.96 916.66 54.69 916.82 55.50 916.88 56.37 916.83 57.20 916.68 57.99 916.42 58.73 916.07 59.43 915.62 60.08 914.97 60.77 914.22 61.30 913.39 61.69 912.47 61.92 911.46 61.99 910.63 61.94 909.86 61.80 909.15 61.55 908.51 61.21 907.94 60.76 907.44 60.24 907.03 59.65 906.72 58.99 906.50 58.28 906.38 57.49 Z" />
<circle cx="899" cy="90" r="6" fill="rgb(0,0,0)" stroke="none" stroke-width="2" />
<polyline points="929.00 80.18 869.00 80.18" fill="none" stroke="rgb(0,0,0)" stroke-width="2" />
<path fill="rgb(255,255,255)" stroke="rgb(0,0,0)" stroke-width="2" d=" M 953 115 L 993 115 993 125 953 125 953 115 Z" />
<polyline points="973.00 95.18 973.00 115.18" fill="none" stroke="rgb(0,0,0)" stroke-width="2" />
<polyline points="973.00 145.18 973.00 165.18" fill="none" stroke="rgb(0,0,0)" stroke-width="2" />
<path fill="rgb(0,0,0)" stroke="rgb(0,0,0)" stroke-width="2" d=" M 953 135 L 993 135 993 145 953 145 953 135 Z" />
<path fill="rgb(0,0,0)" stroke="rgb(0,0,0)" stroke-width="0" d=" M 1006.36 133.66 L 1008.28 133.42 1008.43 133.95 1008.61 134.42 1008.82 134.82 1009.06 135.16 1009.34 135.44 1009.65 135.66 1010.00 135.84 1010.40 135.96 1010.84 136.04 1011.32 136.06 1011.88 136.03 1012.39 135.92 1012.86 135.75 1013.28 135.52 1013.65 135.21 1013.96 134.85 1014.21 134.46 1014.38 134.04 1014.48 133.59 1014.52 133.10 1014.48 132.64 1014.38 132.21 1014.21 131.81 1013.97 131.45 1013.66 131.12 1013.30 130.83 1012.90 130.61 1012.46 130.46 1011.99 130.36 1011.48 130.33 1011.25 130.34 1011.01 130.36 1010.74 130.41 1010.45 130.47 1010.13 130.54 1010.35 128.62 1010.42 128.63 1010.49 128.64 1010.55 128.64 1010.61 128.64 1010.66 128.64 1011.13 128.62 1011.59 128.55 1012.02 128.44 1012.44 128.29 1012.84 128.09 1013.19 127.85 1013.46 127.56 1013.65 127.22 1013.77 126.83 1013.81 126.40 1013.78 126.05 1013.69 125.72 1013.55 125.42 1013.36 125.15 1013.11 124.90 1012.81 124.68 1012.48 124.51 1012.12 124.40 1011.73 124.32 1011.30 124.30 1010.88 124.32 1010.48 124.40 1010.11 124.52 1009.78 124.68 1009.47 124.90 1009.20 125.16 1008.97 125.48 1008.78 125.84 1008.63 126.24 1008.53 126.70 1006.61 126.46 1006.78 125.72 1007.02 125.05 1007.34 124.44 1007.72 123.91 1008.18 123.45 1008.69 123.06 1009.26 122.77 1009.87 122.55 1010.53 122.42 1011.23 122.38 1011.73 122.40 1012.21 122.46 1012.67 122.57 1013.12 122.72 1013.55 122.91 1013.95 123.13 1014.32 123.39 1014.64 123.68 1014.92 124.00 1015.17 124.35 1015.37 124.72 1015.53 125.10 1015.64 125.48 1015.70 125.88 1015.73 126.28 1015.70 126.67 1015.64 127.03 1015.53 127.39 1015.38 127.73 1015.19 128.05 1014.96 128.36 1014.68 128.64 1014.37 128.90 1014.01 129.12 1013.61 129.33 1014.13 129.48 1014.60 129.69 1015.02 129.95 1015.39 130.27 1015.71 130.64 1015.97 131.06 1016.18 131.52 1016.32 132.02 1016.41 132.56 1016.44 133.14 1016.38 133.92 1016.20 134.66 1015.91 135.34 1015.50 135.98 1014.97 136.57 1014.35 137.08 1013.66 137.47 1012.92 137.76 1012.12 137.92 1011.25 137.98 1010.46 137.93 1009.74 137.79 1009.06 137.55 1008.44 137.21 1007.88 136.78 1007.39 136.27 1007.00 135.70 1006.69 135.08 1006.48 134.40 1006.36 133.66 Z M 1018.36 133.90 L 1020.28 133.66 1020.38 134.14 1020.52 134.56 1020.70 134.93 1020.90 135.24 1021.14 135.49 1021.41 135.70 1021.70 135.86 1022.03 135.97 1022.39 136.04 1022.77 136.06 1023.11 136.05 1023.43 136.00 1023.74 135.93 1024.04 135.83 1024.33 135.70 1024.60 135.54 1024.83 135.36 1025.05 135.17 1025.23 134.95 1025.38 134.72 1025.52 134.46 1025.65 134.16 1025.78 133.82 1025.90 133.45 1026.01 133.05 1026.11 132.62 1026.19 132.19 1026.25 131.74 1026.28 131.29 1026.29 130.82 1026.29 130.77 1026.29 130.70 1026.29 130.63 1026.29 130.54 1026.28 130.45 1026.04 130.79 1025.77 131.11 1025.46 131.40 1025.12 131.66 1024.74 131.90 1024.35 132.10 1023.94 132.26 1023.52 132.37 1023.08 132.44 1022.64 132.46 1021.90 132.41 1021.21 132.24 1020.57 131.97 1019.98 131.59 1019.43 131.10 1018.96 130.51 1018.59 129.87 1018.33 129.15 1018.18 128.36 1018.13 127.50 1018.18 126.61 1018.35 125.80 1018.62 125.06 1019.01 124.39 1019.50 123.79 1020.08 123.28 1020.71 122.89 1021.40 122.61 1022.15 122.44 1022.95 122.38 1023.54 122.41 1024.10 122.51 1024.65 122.67 1025.18 122.89 1025.68 123.18 1026.16 123.53 1026.58 123.93 1026.96 124.39 1027.28 124.90 1027.56 125.47 1027.79 126.12 1027.97 126.87 1028.10 127.73 1028.18 128.70 1028.20 129.77 1028.17 130.89 1028.10 131.92 1027.97 132.85 1027.79 133.69 1027.55 134.43 1027.27 135.09 1026.94 135.69 1026.56 136.21 1026.13 136.68 1025.65 137.07 1025.12 137.40 1024.56 137.65 1023.97 137.84 1023.34 137.94 1022.68 137.98 1021.99 137.94 1021.34 137.81 1020.75 137.60 1020.22 137.30 1019.73 136.91 1019.31 136.45 1018.96 135.91 1018.69 135.31 1018.49 134.64 1018.36 133.90 Z M 1026.29 127.45 L 1026.25 126.90 1026.15 126.39 1025.99 125.93 1025.76 125.52 1025.46 125.15 1025.11 124.85 1024.71 124.61 1024.27 124.44 1023.79 124.33 1023.26 124.30 1022.72 124.34 1022.21 124.45 1021.75 124.63 1021.33 124.89 1020.95 125.22 1020.62 125.61 1020.37 126.04 1020.19 126.51 1020.08 127.03 1020.05 127.59 1020.08 128.10 1020.18 128.56 1020.35 128.99 1020.59 129.37 1020.89 129.72 1021.26 130.02 1021.67 130.25 1022.13 130.41 1022.64 130.51 1023.20 130.54 1023.72 130.51 1024.20 130.41 1024.64 130.25 1025.05 130.02 1025.41 129.72 1025.73 129.37 1025.97 128.97 1026.14 128.51 1026.25 128.01 1026.29 127.45 Z M 1039.73 126.46 L 1039.71 137.74 1037.79 137.74 1037.79 136.21 1037.58 136.56 1037.37 136.87 1037.16 137.12 1036.96 137.34 1036.75 137.50 1036.45 137.67 1036.14 137.81 1035.81 137.90 1035.46 137.96 1035.09 137.98 1034.76 137.97 1034.44 137.92 1034.14 137.84 1033.86 137.73 1033.59 137.59 1033.39 137.45 1033.19 137.27 1032.97 137.04 1032.75 136.76 1032.51 136.44 1032.51 142.06 1030.59 142.06 1030.61 126.46 1032.53 126.46 1032.52 131.14 1032.53 132.08 1032.56 132.88 1032.62 133.54 1032.69 134.06 1032.79 134.43 1032.91 134.72 1033.06 134.99 1033.24 135.22 1033.45 135.44 1033.68 135.62 1033.93 135.78 1034.20 135.90 1034.48 135.99 1034.77 136.04 1035.09 136.06 1035.42 136.04 1035.73 135.99 1036.03 135.90 1036.32 135.77 1036.59 135.60 1036.84 135.41 1037.06 135.19 1037.24 134.96 1037.40 134.70 1037.52 134.42 1037.62 134.06 1037.70 133.56 1037.76 132.90 1037.79 132.11 1037.80 131.17 1037.81 126.46 Z" />
<path fill="rgb(0,0,0)" stroke="rgb(0,0,0)" stroke-width="2" d=" M 993 180 L 953 180 953 190 993 190 993 180 Z" />
<polyline points="973.00 150.18 973.00 180.18" fill="none" stroke="rgb(0,0,0)" stroke-width="2" />
<polyline points="929.00 80.18 973.00 80.18 973.00 100.18" fill="none" stroke="rgb(0,0,0)" stroke-width="2" />
<polyline points="973.00 80.18 1053.00 80.18" fill="none" stroke="rgb(0,0,0)" stroke-width="2" />
<circle cx="973" cy="80" r="6" fill="rgb(0,0,0)" stroke="none" stroke-width="2" />
<polyline points="1103.00 70.18 1063.00 70.18" fill="none" stroke="rgb(0,0,0)" stroke-width="2" />
<polyline points="1103.00 90.18 1063.00 90.18" fill="none" stroke="rgb(0,0,0)" stroke-width="2" />
<path fill="rgb(0,0,0)" stroke="rgb(0,0,0)" stroke-width="2" d=" M 1103 120 L 1063 120 1063 130 1103 130 1103 120 Z" />
<polyline points="1083.00 90.18 1083.00 120.18" fill="none" stroke="rgb(0,0,0)" stroke-width="2" />
<path fill="rgb(0,0,0)" stroke="rgb(0,0,0)" stroke-width="0" d=" M 1074.38 58.00 L 1074.38 60.00 1063.88 60.00 1063.88 59.71 1063.90 59.43 1063.94 59.16 1064.01 58.89 1064.09 58.62 1064.26 58.19 1064.47 57.76 1064.71 57.33 1064.99 56.91 1065.31 56.50 1065.68 56.08 1066.11 55.63 1066.61 55.17 1067.18 54.68 1067.82 54.18 1068.79 53.35 1069.61 52.61 1070.31 51.94 1070.86 51.35 1071.27 50.85 1071.58 50.38 1071.83 49.93 1072.00 49.47 1072.10 49.03 1072.14 48.58 1072.11 48.16 1072.01 47.77 1071.85 47.40 1071.62 47.06 1071.33 46.75 1070.98 46.48 1070.60 46.27 1070.17 46.12 1069.71 46.03 1069.20 46.00 1068.67 46.03 1068.18 46.12 1067.74 46.26 1067.34 46.47 1066.98 46.73 1066.68 47.04 1066.45 47.40 1066.28 47.81 1066.18 48.26 1066.14 48.75 1064.14 48.50 1064.27 47.66 1064.48 46.91 1064.79 46.24 1065.19 45.65 1065.68 45.15 1066.24 44.74 1066.89 44.41 1067.60 44.18 1068.39 44.05 1069.24 44.00 1070.11 44.05 1070.90 44.21 1071.62 44.46 1072.26 44.82 1072.82 45.28 1073.30 45.82 1073.67 46.40 1073.93 47.04 1074.09 47.73 1074.14 48.46 1074.12 48.85 1074.08 49.23 1074.01 49.61 1073.91 49.98 1073.78 50.36 1073.62 50.73 1073.42 51.12 1073.18 51.51 1072.91 51.91 1072.60 52.32 1072.22 52.76 1071.74 53.25 1071.17 53.80 1070.50 54.40 1069.73 55.06 1069.08 55.59 1068.52 56.05 1068.06 56.43 1067.69 56.74 1067.43 56.98 1067.22 57.19 1067.02 57.39 1066.84 57.59 1066.68 57.80 1066.53 58.00 Z M 1076.88 60.00 L 1076.89 48.25 1078.89 48.25 1078.89 49.89 1079.43 49.21 1080.07 48.68 1080.79 48.30 1081.60 48.08 1082.51 48.00 1082.91 48.02 1083.30 48.06 1083.68 48.14 1084.04 48.24 1084.39 48.38 1084.72 48.54 1085.01 48.72 1085.27 48.92 1085.50 49.14 1085.68 49.38 1085.84 49.64 1085.98 49.91 1086.10 50.21 1086.20 50.52 1086.28 50.85 1086.32 51.11 1086.35 51.43 1086.37 51.81 1086.38 52.27 1086.38 52.79 1086.38 60.00 1084.38 60.00 1084.38 53.05 1084.38 52.61 1084.35 52.20 1084.30 51.85 1084.24 51.54 1084.16 51.29 1084.05 51.06 1083.92 50.85 1083.75 50.67 1083.56 50.50 1083.34 50.35 1083.10 50.22 1082.84 50.13 1082.57 50.06 1082.28 50.01 1081.97 50.00 1081.48 50.03 1081.02 50.13 1080.59 50.28 1080.18 50.50 1079.80 50.79 1079.47 51.16 1079.21 51.64 1079.03 52.24 1078.92 52.94 1078.88 53.77 1078.88 60.00 Z M 1098.88 58.00 L 1098.88 60.00 1088.38 60.00 1088.38 59.71 1088.40 59.43 1088.44 59.16 1088.51 58.89 1088.59 58.62 1088.76 58.19 1088.97 57.76 1089.21 57.33 1089.49 56.91 1089.81 56.50 1090.18 56.08 1090.61 55.63 1091.11 55.17 1091.68 54.68 1092.32 54.18 1093.29 53.35 1094.11 52.61 1094.81 51.94 1095.36 51.35 1095.77 50.85 1096.08 50.38 1096.33 49.93 1096.50 49.47 1096.60 49.03 1096.64 48.58 1096.61 48.16 1096.51 47.77 1096.35 47.40 1096.12 47.06 1095.83 46.75 1095.48 46.48 1095.10 46.27 1094.67 46.12 1094.21 46.03 1093.70 46.00 1093.17 46.03 1092.68 46.12 1092.24 46.26 1091.84 46.47 1091.48 46.73 1091.18 47.04 1090.95 47.40 1090.78 47.81 1090.68 48.26 1090.64 48.75 1088.64 48.50 1088.77 47.66 1088.98 46.91 1089.29 46.24 1089.69 45.65 1090.18 45.15 1090.74 44.74 1091.39 44.41 1092.10 44.18 1092.89 44.05 1093.74 44.00 1094.61 44.05 1095.40 44.21 1096.12 44.46 1096.76 44.82 1097.32 45.28 1097.80 45.82 1098.17 46.40 1098.43 47.04 1098.59 47.73 1098.64 48.46 1098.62 48.85 1098.58 49.23 1098.51 49.61 1098.41 49.98 1098.28 50.36 1098.12 50.73 1097.92 51.12 1097.68 51.51 1097.41 51.91 1097.10 52.32 1096.72 52.76 1096.24 53.25 1095.67 53.80 1095.00 54.40 1094.23 55.06 1093.58 55.59 1093.02 56.05 1092.56 56.43 1092.19 56.74 1091.93 56.98 1091.72 57.19 1091.52 57.39 1091.34 57.59 1091.18 57.80 1091.03 58.00 Z" />
<circle cx="1083" cy="90" r="6" fill="rgb(0,0,0)" stroke="none" stroke-width="2" />
<polyline points="1143.00 80.18 1053.00 80.18" fill="none" stroke="rgb(0,0,0)" stroke-width="2" />
<polyline points="51.00 475.18 154.00 475.18 48.00 475.18" fill="none" stroke="rgb(0,0,0)" stroke-width="2" />
<circle cx="112.96" cy="474.18" r="15.04" fill="none" stroke="rgb(0,0,0)" stroke-width="2" />
<polyline points="113.00 488.18 113.00 528.18" fill="none" stroke="rgb(0,0,0)" stroke-width="2" />
<path fill="rgb(0,0,0)" stroke="rgb(0,0,0)" stroke-width="2" d=" M 133 558 L 93 558 93 568 133 568 133 558 Z" />
<polyline points="113.00 528.18 113.00 558.18" fill="none" stroke="rgb(0,0,0)" stroke-width="2" />
<polyline points="51.00 475.18 41.00 465.18" fill="none" stroke="rgb(0,0,0)" stroke-width="2" />
<polyline points="51.00 475.18 41.00 485.18" fill="none" stroke="rgb(0,0,0)" stroke-width="2" />
<circle cx="113" cy="488" r="6" fill="rgb(0,0,0)" stroke="none" stroke-width="2" />
<circle cx="113" cy="509" r="6" fill="rgb(0,0,0)" stroke="none" stroke-width="2" />
<polyline points="48.00 509.18 113.00 509.18" fill="none" stroke="rgb(0,0,0)" stroke-width="2" />
<path fill="rgb(128,128,128)" stroke="none" stroke-width="2" d=" M 153 460 L 238 460 238 490 153 490 153 460 Z" />
<polyline points="1288.00 455.18 1366.00 455.18 1413.00 455.18" fill="none" stroke="rgb(0,0,0)" stroke-width="2" />
<circle cx="1347.96" cy="455.18" r="15.04" fill="none" stroke="rgb(0,0,0)" stroke-width="2" />
<polyline points="1348.00 470.18 1348.00 510.18" fill="none" stroke="rgb(0,0,0)" stroke-width="2" />
<path fill="rgb(0,0,0)" stroke="rgb(0,0,0)" stroke-width="2" d=" M 1368 540 L 1328 540 1328 550 1368 550 1368 540 Z" />
<polyline points="1348.00 510.18 1348.00 540.18" fill="none" stroke="rgb(0,0,0)" stroke-width="2" />
<polyline points="1413.00 455.18 1403.00 445.18" fill="none" stroke="rgb(0,0,0)" stroke-width="2" />
<polyline points="1413.00 455.18 1403.00 465.18" fill="none" stroke="rgb(0,0,0)" stroke-width="2" />
<circle cx="1348" cy="470" r="6" fill="rgb(0,0,0)" stroke="none" stroke-width="2" />
<circle cx="1348" cy="490" r="6" fill="rgb(0,0,0)" stroke="none" stroke-width="2" />
<polyline points="1348.00 490.18 1413.00 490.18" fill="none" stroke="rgb(0,0,0)" stroke-width="2" />
<path fill="rgb(0,0,0)" stroke="rgb(0,0,0)" stroke-width="0" d=" M 1164.00 109.68 L 1164.01 107.68 1164.50 106.96 1165.06 106.40 1165.67 106.00 1166.34 105.76 1167.07 105.68 1167.34 105.69 1167.61 105.73 1167.89 105.78 1168.17 105.85 1168.45 105.95 1168.77 106.07 1169.13 106.24 1169.54 106.44 1170.01 106.69 1170.52 106.98 1170.81 107.14 1171.07 107.28 1171.29 107.39 1171.49 107.48 1171.66 107.55 1171.81 107.60 1171.96 107.64 1172.11 107.66 1172.27 107.68 1172.42 107.68 1172.71 107.66 1173.00 107.59 1173.30 107.48 1173.60 107.32 1173.90 107.11 1174.20 106.87 1174.48 106.61 1174.76 106.32 1175.02 106.02 1175.26 105.68 1175.26 107.68 1174.98 108.08 1174.69 108.43 1174.41 108.74 1174.12 109.00 1173.83 109.21 1173.54 109.38 1173.23 109.51 1172.90 109.61 1172.56 109.66 1172.21 109.68 1171.95 109.68 1171.69 109.65 1171.44 109.61 1171.19 109.55 1170.95 109.47 1170.68 109.37 1170.36 109.21 1169.98 109.01 1169.54 108.77 1169.05 108.47 1168.55 108.19 1168.08 107.97 1167.64 107.81 1167.24 107.72 1166.88 107.68 1166.60 107.70 1166.33 107.75 1166.06 107.83 1165.81 107.94 1165.55 108.09 1165.29 108.28 1165.01 108.54 1164.70 108.86 1164.36 109.24 1164.00 109.68 Z M 1184.50 115.18 L 1182.50 115.18 1182.51 102.71 1182.20 102.99 1181.86 103.26 1181.48 103.53 1181.07 103.79 1180.62 104.06 1180.16 104.32 1179.72 104.55 1179.30 104.75 1178.89 104.93 1178.51 105.07 1178.51 103.18 1179.17 102.86 1179.79 102.51 1180.37 102.14 1180.93 101.74 1181.45 101.31 1181.92 100.88 1182.33 100.44 1182.69 100.02 1182.99 99.60 1183.23 99.18 1184.52 99.18 Z M 1189.25 110.93 L 1191.25 110.68 1191.37 111.20 1191.53 111.67 1191.73 112.08 1191.97 112.44 1192.26 112.74 1192.59 112.99 1192.97 113.19 1193.38 113.32 1193.84 113.41 1194.35 113.43 1194.96 113.40 1195.52 113.28 1196.03 113.09 1196.47 112.82 1196.86 112.47 1197.18 112.07 1197.43 111.61 1197.61 111.10 1197.72 110.54 1197.75 109.93 1197.72 109.35 1197.62 108.83 1197.46 108.35 1197.22 107.93 1196.92 107.55 1196.55 107.24 1196.11 107.00 1195.61 106.82 1195.03 106.72 1194.39 106.68 1193.98 106.70 1193.60 106.74 1193.24 106.81 1192.92 106.91 1192.63 107.03 1192.36 107.18 1192.12 107.34 1191.89 107.52 1191.69 107.72 1191.51 107.93 1189.51 107.68 1191.27 99.43 1199.02 99.43 1199.02 101.43 1192.88 101.43 1192.02 105.84 1192.59 105.42 1193.16 105.10 1193.75 104.87 1194.34 104.73 1194.95 104.68 1195.73 104.74 1196.47 104.91 1197.15 105.20 1197.79 105.60 1198.37 106.12 1198.87 106.72 1199.26 107.40 1199.53 108.13 1199.70 108.94 1199.75 109.80 1199.70 110.64 1199.55 111.43 1199.30 112.17 1198.95 112.87 1198.50 113.52 1197.84 114.21 1197.10 114.74 1196.27 115.13 1195.35 115.36 1194.34 115.43 1193.51 115.38 1192.74 115.24 1192.03 114.99 1191.39 114.64 1190.81 114.20 1190.31 113.68 1189.91 113.09 1189.60 112.43 1189.38 111.72 1189.25 110.93 Z M 1202.00 115.18 L 1202.01 103.43 1204.01 103.43 1204.01 105.37 1204.23 104.99 1204.48 104.64 1204.75 104.32 1205.06 104.04 1205.39 103.78 1205.74 103.57 1206.11 103.40 1206.50 103.28 1206.91 103.21 1207.34 103.18 1207.82 103.21 1208.25 103.28 1208.65 103.40 1209.02 103.57 1209.35 103.79 1209.64 104.06 1209.90 104.36 1210.12 104.71 1210.30 105.09 1210.45 105.51 1211.02 104.67 1211.67 104.02 1212.37 103.56 1213.14 103.28 1213.98 103.18 1214.63 103.22 1215.21 103.34 1215.74 103.53 1216.20 103.80 1216.60 104.15 1216.93 104.58 1217.18 105.09 1217.36 105.69 1217.47 106.37 1217.51 107.13 1217.50 115.18 1215.50 115.18 1215.51 107.99 1215.50 107.55 1215.48 107.16 1215.44 106.83 1215.39 106.55 1215.32 106.32 1215.24 106.12 1215.13 105.94 1215.00 105.78 1214.84 105.63 1214.65 105.50 1214.45 105.38 1214.24 105.30 1214.01 105.23 1213.77 105.20 1213.51 105.18 1213.05 105.22 1212.63 105.31 1212.24 105.47 1211.87 105.70 1211.54 105.98 1211.26 106.34 1211.04 106.78 1210.88 107.29 1210.79 107.88 1210.76 108.55 1210.75 115.18 1208.75 115.18 1208.76 107.77 1208.74 107.27 1208.68 106.83 1208.59 106.45 1208.46 106.11 1208.30 105.83 1208.09 105.60 1207.83 105.42 1207.53 105.29 1207.18 105.21 1206.78 105.18 1206.47 105.20 1206.16 105.25 1205.86 105.34 1205.58 105.46 1205.30 105.61 1205.04 105.80 1204.81 106.02 1204.62 106.27 1204.45 106.56 1204.31 106.87 1204.20 107.23 1204.12 107.65 1204.06 108.13 1204.02 108.66 1204.01 109.26 1204.00 115.18 Z M 1218.89 115.18 L 1225.29 99.18 1226.99 99.18 1233.36 115.18 1231.25 115.18 1229.42 110.18 1222.83 110.18 1221.00 115.18 Z M 1223.57 108.18 L 1228.70 108.18 1227.26 104.25 1226.98 103.48 1226.73 102.79 1226.50 102.18 1226.31 101.64 1226.14 101.18 1225.96 101.68 1225.77 102.20 1225.57 102.75 1225.36 103.31 1225.14 103.91 Z" />
</svg>
