%FSLAX34Y34*%
%MOMM*%
%LNCOPPER_BOTTOM*%
G71*
G01*
%ADD10R,1.800X1.500*%
%ADD11R,2.200X1.900*%
%ADD12C,1.600*%
%ADD13C,1.200*%
%ADD14R,2.000X1.700*%
%ADD15C,1.700*%
%ADD16C,1.600*%
%ADD17R,1.900X2.200*%
%ADD18C,1.800*%
%ADD19C,2.800*%
%ADD20C,3.300*%
%ADD21C,1.400*%
%ADD22C,0.600*%
%ADD23R,1.400X1.100*%
%ADD24C,0.800*%
%ADD25C,0.800*%
%ADD26C,0.600*%
%ADD27C,1.100*%
%ADD28R,1.100X1.400*%
%ADD29C,1.000*%
%ADD30C,2.000*%
%ADD31C,2.500*%
%ADD32C,2.000*%
%LPD*%
G36*
X0Y0D02*
X802000Y0D01*
X802000Y-302000D01*
X0Y-302000D01*
X0Y0D01*
G37*
%LPC*%
X160447Y-140653D02*
G54D10*
D03*
X160447Y-161253D02*
G54D10*
D03*
X160447Y-175303D02*
G54D11*
D03*
X149041Y-134008D02*
G54D12*
D03*
X149041Y-168508D02*
G54D12*
D03*
G54D13*
X149041Y-168508D02*
X160447Y-161253D01*
G54D13*
X149041Y-134008D02*
X160447Y-140653D01*
X192241Y-134009D02*
G54D12*
D03*
X192241Y-168509D02*
G54D12*
D03*
X160347Y-126746D02*
G54D11*
D03*
G54D13*
X160447Y-140653D02*
X160347Y-126746D01*
G54D13*
X149041Y-134008D02*
X160347Y-126746D01*
G54D13*
X149041Y-168508D02*
X160447Y-175303D01*
X160447Y-161253D01*
X203647Y-140654D02*
G54D10*
D03*
X203647Y-161254D02*
G54D10*
D03*
X203647Y-175304D02*
G54D11*
D03*
G54D13*
X192241Y-168509D02*
X203647Y-161254D01*
G54D13*
X192241Y-134009D02*
X203647Y-140654D01*
X203547Y-126747D02*
G54D11*
D03*
G54D13*
X203647Y-140654D02*
X203547Y-126747D01*
G54D13*
X192241Y-134009D02*
X203547Y-126747D01*
G54D13*
X192241Y-168509D02*
X203647Y-175304D01*
X203647Y-161254D01*
X246947Y-140653D02*
G54D10*
D03*
X246947Y-161253D02*
G54D10*
D03*
X246947Y-175303D02*
G54D11*
D03*
X235541Y-134008D02*
G54D12*
D03*
X235541Y-168508D02*
G54D12*
D03*
G54D13*
X235541Y-168508D02*
X246947Y-161253D01*
G54D13*
X235541Y-134008D02*
X246947Y-140653D01*
X278741Y-134009D02*
G54D12*
D03*
X278741Y-168509D02*
G54D12*
D03*
X246847Y-126746D02*
G54D11*
D03*
G54D13*
X246947Y-140653D02*
X246847Y-126746D01*
G54D13*
X235541Y-134008D02*
X246847Y-126746D01*
G54D13*
X235541Y-168508D02*
X246947Y-175303D01*
X246947Y-161253D01*
X290147Y-140654D02*
G54D10*
D03*
X290147Y-161254D02*
G54D10*
D03*
X290147Y-175304D02*
G54D11*
D03*
G54D13*
X278741Y-168509D02*
X290147Y-161254D01*
G54D13*
X278741Y-134009D02*
X290147Y-140654D01*
X290047Y-126747D02*
G54D11*
D03*
G54D13*
X290147Y-140654D02*
X290047Y-126747D01*
G54D13*
X278741Y-134009D02*
X290047Y-126747D01*
G54D13*
X278741Y-168509D02*
X290147Y-175304D01*
X290147Y-161254D01*
X333447Y-140653D02*
G54D10*
D03*
X333447Y-161253D02*
G54D10*
D03*
X333447Y-175303D02*
G54D11*
D03*
X322041Y-134008D02*
G54D12*
D03*
X322041Y-168508D02*
G54D12*
D03*
G54D13*
X322041Y-168508D02*
X333447Y-161253D01*
G54D13*
X322041Y-134008D02*
X333447Y-140653D01*
X365241Y-134009D02*
G54D12*
D03*
X365241Y-168509D02*
G54D12*
D03*
X333347Y-126746D02*
G54D11*
D03*
G54D13*
X330447Y-140653D02*
X330347Y-126746D01*
G54D13*
X322041Y-134008D02*
X333347Y-126746D01*
G54D13*
X322041Y-168508D02*
X333447Y-175303D01*
X333447Y-161253D01*
X376647Y-140654D02*
G54D10*
D03*
X376647Y-161254D02*
G54D10*
D03*
X376647Y-175304D02*
G54D11*
D03*
G54D13*
X365241Y-168509D02*
X376647Y-161254D01*
G54D13*
X365241Y-134009D02*
X376647Y-140654D01*
X376547Y-126747D02*
G54D11*
D03*
G54D13*
X376647Y-140654D02*
X376547Y-126747D01*
G54D13*
X365241Y-134009D02*
X376547Y-126747D01*
G54D13*
X365241Y-168509D02*
X376647Y-175304D01*
X376647Y-161254D01*
X419947Y-140653D02*
G54D10*
D03*
X419947Y-161253D02*
G54D10*
D03*
X419947Y-175303D02*
G54D11*
D03*
X408541Y-134008D02*
G54D12*
D03*
X408541Y-168508D02*
G54D12*
D03*
G54D13*
X408541Y-168508D02*
X419947Y-161253D01*
G54D13*
X408541Y-134008D02*
X419947Y-140653D01*
X451741Y-134009D02*
G54D12*
D03*
X451741Y-168509D02*
G54D12*
D03*
X419847Y-126746D02*
G54D11*
D03*
G54D13*
X419947Y-140653D02*
X419847Y-126746D01*
G54D13*
X408541Y-134008D02*
X419847Y-126746D01*
G54D13*
X408541Y-168508D02*
X419947Y-175303D01*
X419947Y-161253D01*
X463147Y-140654D02*
G54D10*
D03*
X463147Y-161254D02*
G54D10*
D03*
X463147Y-175304D02*
G54D11*
D03*
G54D13*
X451741Y-168509D02*
X463147Y-161254D01*
G54D13*
X451741Y-134009D02*
X463147Y-140654D01*
X463047Y-126747D02*
G54D11*
D03*
G54D13*
X463147Y-140654D02*
X463047Y-126747D01*
G54D13*
X451741Y-134009D02*
X463047Y-126747D01*
G54D13*
X451741Y-168509D02*
X463147Y-175304D01*
X463147Y-161254D01*
X506447Y-140654D02*
G54D10*
D03*
X506447Y-161254D02*
G54D10*
D03*
X506447Y-175304D02*
G54D11*
D03*
X495041Y-134009D02*
G54D12*
D03*
X495041Y-168509D02*
G54D12*
D03*
G54D13*
X495041Y-168509D02*
X506447Y-161254D01*
G54D13*
X495041Y-134009D02*
X506447Y-140654D01*
X538242Y-134010D02*
G54D12*
D03*
X538242Y-168510D02*
G54D12*
D03*
X506347Y-126747D02*
G54D11*
D03*
G54D13*
X506447Y-140654D02*
X506347Y-126747D01*
G54D13*
X495041Y-134009D02*
X506347Y-126747D01*
G54D13*
X495041Y-168509D02*
X506447Y-175304D01*
X506447Y-161254D01*
X549647Y-140654D02*
G54D10*
D03*
X549647Y-161254D02*
G54D10*
D03*
X549647Y-175304D02*
G54D11*
D03*
G54D13*
X538242Y-168510D02*
X549647Y-161254D01*
G54D13*
X538242Y-134010D02*
X549647Y-140654D01*
X549547Y-126748D02*
G54D11*
D03*
G54D13*
X549647Y-140654D02*
X549547Y-126748D01*
G54D13*
X538242Y-134010D02*
X549547Y-126748D01*
G54D13*
X538242Y-168510D02*
X549647Y-175304D01*
X549647Y-161254D01*
X120541Y-133508D02*
G54D12*
D03*
X135000Y-102138D02*
G54D14*
D03*
X135000Y-122738D02*
G54D14*
D03*
X135000Y-138438D02*
G54D11*
D03*
G54D15*
X135000Y-138438D02*
X135000Y-122738D01*
G54D16*
X120541Y-133508D02*
X134500Y-133500D01*
G36*
X125492Y-70495D02*
X144492Y-70495D01*
X144493Y-92495D01*
X125493Y-92495D01*
X125492Y-70495D01*
G37*
X134881Y-93270D02*
G54D12*
D03*
G54D16*
X135000Y-102138D02*
X134881Y-93270D01*
X108456Y-133717D02*
G54D17*
D03*
G54D18*
X120541Y-133508D02*
X108456Y-133717D01*
G54D18*
X120541Y-133508D02*
X134500Y-133500D01*
G54D18*
X133036Y-128059D02*
X133005Y-131867D01*
X109900Y-77500D02*
G54D19*
D03*
X581442Y-134010D02*
G54D12*
D03*
X581442Y-168510D02*
G54D12*
D03*
X592847Y-140655D02*
G54D10*
D03*
X592847Y-161255D02*
G54D10*
D03*
X592847Y-175305D02*
G54D11*
D03*
G54D13*
X581442Y-168510D02*
X592847Y-161255D01*
G54D13*
X581442Y-134010D02*
X592847Y-140655D01*
X592747Y-126748D02*
G54D11*
D03*
G54D13*
X592847Y-140655D02*
X592747Y-126748D01*
G54D13*
X581442Y-134010D02*
X592747Y-126748D01*
G54D13*
X581442Y-168510D02*
X592847Y-175305D01*
X592847Y-161255D01*
X625580Y-130717D02*
G54D12*
D03*
X626320Y-142886D02*
G54D11*
D03*
X626000Y-98138D02*
G54D14*
D03*
X626000Y-118738D02*
G54D14*
D03*
G54D16*
X626320Y-142886D02*
X626000Y-142886D01*
X625580Y-130717D01*
X626000Y-118738D01*
X636041Y-79008D02*
G54D12*
D03*
G54D16*
X626000Y-98138D02*
X636041Y-79008D01*
X674400Y-58000D02*
G54D20*
D03*
X522000Y-58000D02*
G54D20*
D03*
X641544Y-193351D02*
G54D17*
D03*
X645397Y-127304D02*
G54D10*
D03*
X645397Y-147904D02*
G54D10*
D03*
X647080Y-171217D02*
G54D12*
D03*
G54D21*
X647080Y-171217D02*
X645397Y-147904D01*
G54D21*
X645397Y-127304D02*
X645397Y-104397D01*
X639000Y-98000D01*
X626138Y-98000D01*
X626000Y-98138D01*
X652580Y-193717D02*
G54D12*
D03*
G54D16*
X652580Y-193717D02*
X641910Y-193717D01*
X641544Y-193351D01*
G36*
X650912Y-148480D02*
X618997Y-148480D01*
X618997Y-102736D01*
X650912Y-102736D01*
X650912Y-148480D01*
G37*
G54D22*
X650912Y-148480D02*
X618997Y-148480D01*
X618997Y-102736D01*
X650912Y-102736D01*
X650912Y-148480D01*
G54D15*
X134992Y-81095D02*
X135000Y-102138D01*
G36*
X141500Y-101000D02*
X128563Y-101000D01*
X128563Y-88208D01*
X141500Y-88208D01*
X141500Y-101000D01*
G37*
G54D22*
X141500Y-101000D02*
X128563Y-101000D01*
X128563Y-88208D01*
X141500Y-88208D01*
X141500Y-101000D01*
G36*
X155935Y-134802D02*
X138093Y-134802D01*
X138093Y-120213D01*
X155935Y-120213D01*
X155935Y-134802D01*
G37*
G54D22*
X155935Y-134802D02*
X138093Y-134802D01*
X138093Y-120213D01*
X155935Y-120213D01*
X155935Y-134802D01*
%LPD*%
X160447Y-140653D02*
G54D23*
D03*
X160447Y-161253D02*
G54D23*
D03*
X160447Y-175303D02*
G54D23*
D03*
X160447Y-195903D02*
G54D23*
D03*
X149041Y-134008D02*
G54D24*
D03*
X149041Y-168508D02*
G54D24*
D03*
G54D25*
X149041Y-168508D02*
X160447Y-161253D01*
G54D25*
X149041Y-134008D02*
X160447Y-140653D01*
X192241Y-134009D02*
G54D24*
D03*
X192241Y-168509D02*
G54D24*
D03*
X160347Y-126746D02*
G54D23*
D03*
X160347Y-106146D02*
G54D23*
D03*
G54D25*
X160447Y-140653D02*
X160347Y-126746D01*
G54D25*
X149041Y-134008D02*
X160347Y-126746D01*
G54D25*
X149041Y-168508D02*
X160447Y-175303D01*
X160447Y-161253D01*
X203647Y-140654D02*
G54D23*
D03*
X203647Y-161254D02*
G54D23*
D03*
X203647Y-175304D02*
G54D23*
D03*
X203647Y-195904D02*
G54D23*
D03*
G54D25*
X192241Y-168509D02*
X203647Y-161254D01*
G54D25*
X192241Y-134009D02*
X203647Y-140654D01*
X203547Y-126747D02*
G54D23*
D03*
X203547Y-106147D02*
G54D23*
D03*
G54D25*
X203647Y-140654D02*
X203547Y-126747D01*
G54D25*
X192241Y-134009D02*
X203547Y-126747D01*
G54D25*
X192241Y-168509D02*
X203647Y-175304D01*
X203647Y-161254D01*
X201600Y-89150D02*
G54D26*
D03*
X246947Y-140653D02*
G54D23*
D03*
X246947Y-161253D02*
G54D23*
D03*
X246947Y-175303D02*
G54D23*
D03*
X246947Y-195903D02*
G54D23*
D03*
X235541Y-134008D02*
G54D24*
D03*
X235541Y-168508D02*
G54D24*
D03*
G54D25*
X235541Y-168508D02*
X246947Y-161253D01*
G54D25*
X235541Y-134008D02*
X246947Y-140653D01*
X278741Y-134009D02*
G54D24*
D03*
X278741Y-168509D02*
G54D24*
D03*
X246847Y-126746D02*
G54D23*
D03*
X246847Y-106146D02*
G54D23*
D03*
G54D25*
X246947Y-140653D02*
X246847Y-126746D01*
G54D25*
X235541Y-134008D02*
X246847Y-126746D01*
G54D25*
X235541Y-168508D02*
X246947Y-175303D01*
X246947Y-161253D01*
X290147Y-140654D02*
G54D23*
D03*
X290147Y-161254D02*
G54D23*
D03*
X290147Y-175304D02*
G54D23*
D03*
X290147Y-195904D02*
G54D23*
D03*
G54D25*
X278741Y-168509D02*
X290147Y-161254D01*
G54D25*
X278741Y-134009D02*
X290147Y-140654D01*
X290047Y-126747D02*
G54D23*
D03*
X290047Y-106147D02*
G54D23*
D03*
G54D25*
X290147Y-140654D02*
X290047Y-126747D01*
G54D25*
X278741Y-134009D02*
X290047Y-126747D01*
G54D25*
X278741Y-168509D02*
X290147Y-175304D01*
X290147Y-161254D01*
X288200Y-89150D02*
G54D26*
D03*
X333447Y-140653D02*
G54D23*
D03*
X333447Y-161253D02*
G54D23*
D03*
X333447Y-175303D02*
G54D23*
D03*
X333447Y-195903D02*
G54D23*
D03*
X322041Y-134008D02*
G54D24*
D03*
X322041Y-168508D02*
G54D24*
D03*
G54D25*
X322041Y-168508D02*
X333447Y-161253D01*
G54D25*
X322041Y-134008D02*
X333447Y-140653D01*
X365241Y-134009D02*
G54D24*
D03*
X365241Y-168509D02*
G54D24*
D03*
X333347Y-126746D02*
G54D23*
D03*
X333347Y-106146D02*
G54D23*
D03*
G54D25*
X330447Y-140653D02*
X330347Y-126746D01*
G54D25*
X322041Y-134008D02*
X333347Y-126746D01*
G54D25*
X322041Y-168508D02*
X333447Y-175303D01*
X333447Y-161253D01*
X376647Y-140654D02*
G54D23*
D03*
X376647Y-161254D02*
G54D23*
D03*
X376647Y-175304D02*
G54D23*
D03*
X376647Y-195904D02*
G54D23*
D03*
G54D25*
X365241Y-168509D02*
X376647Y-161254D01*
G54D25*
X365241Y-134009D02*
X376647Y-140654D01*
X376547Y-126747D02*
G54D23*
D03*
X376547Y-106147D02*
G54D23*
D03*
G54D25*
X376647Y-140654D02*
X376547Y-126747D01*
G54D25*
X365241Y-134009D02*
X376547Y-126747D01*
G54D25*
X365241Y-168509D02*
X376647Y-175304D01*
X376647Y-161254D01*
X374800Y-89150D02*
G54D26*
D03*
X419947Y-140653D02*
G54D23*
D03*
X419947Y-161253D02*
G54D23*
D03*
X419947Y-175303D02*
G54D23*
D03*
X419947Y-195903D02*
G54D23*
D03*
X408541Y-134008D02*
G54D24*
D03*
X408541Y-168508D02*
G54D24*
D03*
G54D25*
X408541Y-168508D02*
X419947Y-161253D01*
G54D25*
X408541Y-134008D02*
X419947Y-140653D01*
X451741Y-134009D02*
G54D24*
D03*
X451741Y-168509D02*
G54D24*
D03*
X419847Y-126746D02*
G54D23*
D03*
X419847Y-106146D02*
G54D23*
D03*
G54D25*
X419947Y-140653D02*
X419847Y-126746D01*
G54D25*
X408541Y-134008D02*
X419847Y-126746D01*
G54D25*
X408541Y-168508D02*
X419947Y-175303D01*
X419947Y-161253D01*
X463147Y-140654D02*
G54D23*
D03*
X463147Y-161254D02*
G54D23*
D03*
X463147Y-175304D02*
G54D23*
D03*
X463147Y-195904D02*
G54D23*
D03*
G54D25*
X451741Y-168509D02*
X463147Y-161254D01*
G54D25*
X451741Y-134009D02*
X463147Y-140654D01*
X463047Y-126747D02*
G54D23*
D03*
X463047Y-106147D02*
G54D23*
D03*
G54D25*
X463147Y-140654D02*
X463047Y-126747D01*
G54D25*
X451741Y-134009D02*
X463047Y-126747D01*
G54D25*
X451741Y-168509D02*
X463147Y-175304D01*
X463147Y-161254D01*
X461300Y-89200D02*
G54D26*
D03*
X506447Y-140654D02*
G54D23*
D03*
X506447Y-161254D02*
G54D23*
D03*
X506447Y-175304D02*
G54D23*
D03*
X506447Y-195904D02*
G54D23*
D03*
X495041Y-134009D02*
G54D24*
D03*
X495041Y-168509D02*
G54D24*
D03*
G54D25*
X495041Y-168509D02*
X506447Y-161254D01*
G54D25*
X495041Y-134009D02*
X506447Y-140654D01*
X538242Y-134010D02*
G54D24*
D03*
X538242Y-168510D02*
G54D24*
D03*
X506347Y-126747D02*
G54D23*
D03*
X506347Y-106147D02*
G54D23*
D03*
G54D25*
X506447Y-140654D02*
X506347Y-126747D01*
G54D25*
X495041Y-134009D02*
X506347Y-126747D01*
G54D25*
X495041Y-168509D02*
X506447Y-175304D01*
X506447Y-161254D01*
X549647Y-140654D02*
G54D23*
D03*
X549647Y-161254D02*
G54D23*
D03*
X549647Y-175304D02*
G54D23*
D03*
X549647Y-195904D02*
G54D23*
D03*
G54D25*
X538242Y-168510D02*
X549647Y-161254D01*
G54D25*
X538242Y-134010D02*
X549647Y-140654D01*
X549547Y-126748D02*
G54D23*
D03*
X549547Y-106148D02*
G54D23*
D03*
G54D25*
X549647Y-140654D02*
X549547Y-126748D01*
G54D25*
X538242Y-134010D02*
X549547Y-126748D01*
G54D25*
X538242Y-168510D02*
X549647Y-175304D01*
X549647Y-161254D01*
X547800Y-89201D02*
G54D26*
D03*
X504424Y-89189D02*
G54D26*
D03*
X417883Y-89184D02*
G54D26*
D03*
X331464Y-89154D02*
G54D26*
D03*
X244950Y-89152D02*
G54D26*
D03*
X120541Y-133508D02*
G54D24*
D03*
X135000Y-102138D02*
G54D23*
D03*
X135000Y-122738D02*
G54D23*
D03*
X135000Y-138438D02*
G54D23*
D03*
X135000Y-159038D02*
G54D23*
D03*
G54D27*
X135000Y-138438D02*
X135000Y-122738D01*
G54D25*
X120541Y-133508D02*
X134500Y-133500D01*
G36*
X129492Y-74495D02*
X140492Y-74495D01*
X140493Y-88495D01*
X129493Y-88495D01*
X129492Y-74495D01*
G37*
X155592Y-81495D02*
G54D28*
D03*
X134881Y-93270D02*
G54D24*
D03*
G54D29*
X135000Y-102138D02*
X134881Y-93270D01*
X108456Y-133717D02*
G54D28*
D03*
X87856Y-133717D02*
G54D28*
D03*
G54D29*
X120541Y-133508D02*
X108456Y-133717D01*
G54D29*
X120541Y-133508D02*
X134500Y-133500D01*
G54D29*
X133036Y-128059D02*
X133005Y-131867D01*
X84500Y-77500D02*
G54D30*
D03*
X109900Y-77500D02*
G54D30*
D03*
X581442Y-134010D02*
G54D24*
D03*
X581442Y-168510D02*
G54D24*
D03*
X592847Y-140655D02*
G54D23*
D03*
X592847Y-161255D02*
G54D23*
D03*
X592847Y-175305D02*
G54D23*
D03*
X592847Y-195905D02*
G54D23*
D03*
G54D25*
X581442Y-168510D02*
X592847Y-161255D01*
G54D25*
X581442Y-134010D02*
X592847Y-140655D01*
X592747Y-126748D02*
G54D23*
D03*
X592747Y-106148D02*
G54D23*
D03*
G54D25*
X592847Y-140655D02*
X592747Y-126748D01*
G54D25*
X581442Y-134010D02*
X592747Y-126748D01*
G54D25*
X581442Y-168510D02*
X592847Y-175305D01*
X592847Y-161255D01*
X625580Y-130717D02*
G54D24*
D03*
X626320Y-142886D02*
G54D23*
D03*
X626320Y-163487D02*
G54D23*
D03*
X626000Y-98138D02*
G54D23*
D03*
X626000Y-118738D02*
G54D23*
D03*
G54D29*
X626320Y-142886D02*
X626000Y-142886D01*
X625580Y-130717D01*
X626000Y-118738D01*
X636041Y-79008D02*
G54D24*
D03*
G54D29*
X626000Y-98138D02*
X636041Y-79008D01*
X674400Y-58000D02*
G54D31*
D03*
X522000Y-58000D02*
G54D31*
D03*
X641544Y-193351D02*
G54D28*
D03*
X620944Y-193351D02*
G54D28*
D03*
X645397Y-127304D02*
G54D23*
D03*
X645397Y-147904D02*
G54D23*
D03*
X647080Y-171217D02*
G54D24*
D03*
G54D25*
X647080Y-171217D02*
X645397Y-147904D01*
G54D25*
X645397Y-127304D02*
X645397Y-104397D01*
X639000Y-98000D01*
X626138Y-98000D01*
X626000Y-98138D01*
X652580Y-193717D02*
G54D24*
D03*
G54D25*
X652580Y-193717D02*
X641910Y-193717D01*
X641544Y-193351D01*
X590843Y-89300D02*
G54D26*
D03*
G54D32*
X10000Y-10000D02*
X10000Y-292000D01*
G36*
X20000Y-10000D02*
X0Y-10000D01*
X0Y0D01*
X20000Y0D01*
X20000Y-10000D01*
G37*
G36*
X0Y-292000D02*
X20000Y-292000D01*
X20000Y-302000D01*
X0Y-302000D01*
X0Y-292000D01*
G37*
G54D32*
X792000Y-10000D02*
X792000Y-292000D01*
G36*
X802000Y-10000D02*
X782000Y-10000D01*
X782000Y0D01*
X802000Y0D01*
X802000Y-10000D01*
G37*
G36*
X782000Y-292000D02*
X802000Y-292000D01*
X802000Y-302000D01*
X782000Y-302000D01*
X782000Y-292000D01*
G37*
G54D32*
X10000Y-10000D02*
X792000Y-10000D01*
G36*
X10000Y0D02*
X10000Y-20000D01*
X0Y-20000D01*
X0Y0D01*
X10000Y0D01*
G37*
G36*
X792000Y-20000D02*
X792000Y0D01*
X802000Y0D01*
X802000Y-20000D01*
X792000Y-20000D01*
G37*
G54D32*
X10000Y-292000D02*
X792000Y-292000D01*
G36*
X10000Y-282000D02*
X10000Y-302000D01*
X0Y-302000D01*
X0Y-282000D01*
X10000Y-282000D01*
G37*
G36*
X792000Y-302000D02*
X792000Y-282000D01*
X802000Y-282000D01*
X802000Y-302000D01*
X792000Y-302000D01*
G37*
X181501Y-194044D02*
G54D26*
D03*
X224501Y-194044D02*
G54D26*
D03*
X268001Y-194044D02*
G54D26*
D03*
X311201Y-194044D02*
G54D26*
D03*
X354501Y-194044D02*
G54D26*
D03*
X397801Y-194044D02*
G54D26*
D03*
X441101Y-194044D02*
G54D26*
D03*
X484301Y-194044D02*
G54D26*
D03*
X527501Y-194044D02*
G54D26*
D03*
X10000Y-10000D02*
G54D26*
D03*
X20000Y-10000D02*
G54D26*
D03*
X30000Y-10000D02*
G54D26*
D03*
X40000Y-10000D02*
G54D26*
D03*
X50000Y-10000D02*
G54D26*
D03*
X60000Y-10000D02*
G54D26*
D03*
X70000Y-10000D02*
G54D26*
D03*
X80000Y-10000D02*
G54D26*
D03*
X90000Y-10000D02*
G54D26*
D03*
X100000Y-10000D02*
G54D26*
D03*
X110000Y-10000D02*
G54D26*
D03*
X120000Y-10000D02*
G54D26*
D03*
X130000Y-10000D02*
G54D26*
D03*
X140000Y-10000D02*
G54D26*
D03*
X150000Y-10000D02*
G54D26*
D03*
X160000Y-10000D02*
G54D26*
D03*
X170000Y-10000D02*
G54D26*
D03*
X180000Y-10000D02*
G54D26*
D03*
X190000Y-10000D02*
G54D26*
D03*
X200000Y-10000D02*
G54D26*
D03*
X210000Y-10000D02*
G54D26*
D03*
X220000Y-10000D02*
G54D26*
D03*
X230000Y-10000D02*
G54D26*
D03*
X240000Y-10000D02*
G54D26*
D03*
X250000Y-10000D02*
G54D26*
D03*
X260000Y-10000D02*
G54D26*
D03*
X270000Y-10000D02*
G54D26*
D03*
X280000Y-10000D02*
G54D26*
D03*
X290000Y-10000D02*
G54D26*
D03*
X300000Y-10000D02*
G54D26*
D03*
X310000Y-10000D02*
G54D26*
D03*
X320000Y-10000D02*
G54D26*
D03*
X330000Y-10000D02*
G54D26*
D03*
X340000Y-10000D02*
G54D26*
D03*
X350000Y-10000D02*
G54D26*
D03*
X360000Y-10000D02*
G54D26*
D03*
X370000Y-10000D02*
G54D26*
D03*
X380000Y-10000D02*
G54D26*
D03*
X390000Y-10000D02*
G54D26*
D03*
X400000Y-10000D02*
G54D26*
D03*
X410000Y-10000D02*
G54D26*
D03*
X420000Y-10000D02*
G54D26*
D03*
X430000Y-10000D02*
G54D26*
D03*
X440000Y-10000D02*
G54D26*
D03*
X450000Y-10000D02*
G54D26*
D03*
X460000Y-10000D02*
G54D26*
D03*
X470000Y-10000D02*
G54D26*
D03*
X480000Y-10000D02*
G54D26*
D03*
X490000Y-10000D02*
G54D26*
D03*
X500000Y-10000D02*
G54D26*
D03*
X510000Y-10000D02*
G54D26*
D03*
X520000Y-10000D02*
G54D26*
D03*
X530000Y-10000D02*
G54D26*
D03*
X540000Y-10000D02*
G54D26*
D03*
X550000Y-10000D02*
G54D26*
D03*
X560000Y-10000D02*
G54D26*
D03*
X570000Y-10000D02*
G54D26*
D03*
X580000Y-10000D02*
G54D26*
D03*
X590000Y-10000D02*
G54D26*
D03*
X600000Y-10000D02*
G54D26*
D03*
X610000Y-10000D02*
G54D26*
D03*
X620000Y-10000D02*
G54D26*
D03*
X630000Y-10000D02*
G54D26*
D03*
X640000Y-10000D02*
G54D26*
D03*
X650000Y-10000D02*
G54D26*
D03*
X660000Y-10000D02*
G54D26*
D03*
X670000Y-10000D02*
G54D26*
D03*
X680000Y-10000D02*
G54D26*
D03*
X690000Y-10000D02*
G54D26*
D03*
X700000Y-10000D02*
G54D26*
D03*
X710000Y-10000D02*
G54D26*
D03*
X720000Y-10000D02*
G54D26*
D03*
X730000Y-10000D02*
G54D26*
D03*
X740000Y-10000D02*
G54D26*
D03*
X750000Y-10000D02*
G54D26*
D03*
X792000Y-10000D02*
G54D26*
D03*
X760000Y-10000D02*
G54D26*
D03*
X770000Y-10000D02*
G54D26*
D03*
X780000Y-10000D02*
G54D26*
D03*
X10000Y-292000D02*
G54D26*
D03*
X20000Y-292000D02*
G54D26*
D03*
X30000Y-292000D02*
G54D26*
D03*
X40000Y-292000D02*
G54D26*
D03*
X50000Y-292000D02*
G54D26*
D03*
X60000Y-292000D02*
G54D26*
D03*
X70000Y-292000D02*
G54D26*
D03*
X80000Y-292000D02*
G54D26*
D03*
X90000Y-292000D02*
G54D26*
D03*
X100000Y-292000D02*
G54D26*
D03*
X110000Y-292000D02*
G54D26*
D03*
X120000Y-292000D02*
G54D26*
D03*
X130000Y-292000D02*
G54D26*
D03*
X140000Y-292000D02*
G54D26*
D03*
X150000Y-292000D02*
G54D26*
D03*
X160000Y-292000D02*
G54D26*
D03*
X170000Y-292000D02*
G54D26*
D03*
X180000Y-292000D02*
G54D26*
D03*
X190000Y-292000D02*
G54D26*
D03*
X200000Y-292000D02*
G54D26*
D03*
X210000Y-292000D02*
G54D26*
D03*
X220000Y-292000D02*
G54D26*
D03*
X230000Y-292000D02*
G54D26*
D03*
X240000Y-292000D02*
G54D26*
D03*
X250000Y-292000D02*
G54D26*
D03*
X260000Y-292000D02*
G54D26*
D03*
X270000Y-292000D02*
G54D26*
D03*
X280000Y-292000D02*
G54D26*
D03*
X290000Y-292000D02*
G54D26*
D03*
X300000Y-292000D02*
G54D26*
D03*
X310000Y-292000D02*
G54D26*
D03*
X320000Y-292000D02*
G54D26*
D03*
X330000Y-292000D02*
G54D26*
D03*
X340000Y-292000D02*
G54D26*
D03*
X350000Y-292000D02*
G54D26*
D03*
X360000Y-292000D02*
G54D26*
D03*
X370000Y-292000D02*
G54D26*
D03*
X380000Y-292000D02*
G54D26*
D03*
X390000Y-292000D02*
G54D26*
D03*
X400000Y-292000D02*
G54D26*
D03*
X410000Y-292000D02*
G54D26*
D03*
X420000Y-292000D02*
G54D26*
D03*
X430000Y-292000D02*
G54D26*
D03*
X440000Y-292000D02*
G54D26*
D03*
X450000Y-292000D02*
G54D26*
D03*
X460000Y-292000D02*
G54D26*
D03*
X470000Y-292000D02*
G54D26*
D03*
X480000Y-292000D02*
G54D26*
D03*
X490000Y-292000D02*
G54D26*
D03*
X500000Y-292000D02*
G54D26*
D03*
X510000Y-292000D02*
G54D26*
D03*
X520000Y-292000D02*
G54D26*
D03*
X530000Y-292000D02*
G54D26*
D03*
X540000Y-292000D02*
G54D26*
D03*
X550000Y-292000D02*
G54D26*
D03*
X560000Y-292000D02*
G54D26*
D03*
X570000Y-292000D02*
G54D26*
D03*
X580000Y-292000D02*
G54D26*
D03*
X590000Y-292000D02*
G54D26*
D03*
X600000Y-292000D02*
G54D26*
D03*
X610000Y-292000D02*
G54D26*
D03*
X620000Y-292000D02*
G54D26*
D03*
X630000Y-292000D02*
G54D26*
D03*
X640000Y-292000D02*
G54D26*
D03*
X650000Y-292000D02*
G54D26*
D03*
X660000Y-292000D02*
G54D26*
D03*
X670000Y-292000D02*
G54D26*
D03*
X680000Y-292000D02*
G54D26*
D03*
X690000Y-292000D02*
G54D26*
D03*
X700000Y-292000D02*
G54D26*
D03*
X710000Y-292000D02*
G54D26*
D03*
X720000Y-292000D02*
G54D26*
D03*
X730000Y-292000D02*
G54D26*
D03*
X740000Y-292000D02*
G54D26*
D03*
X750000Y-292000D02*
G54D26*
D03*
X792000Y-292000D02*
G54D26*
D03*
X760000Y-292000D02*
G54D26*
D03*
X770000Y-292000D02*
G54D26*
D03*
X780000Y-292000D02*
G54D26*
D03*
X10000Y-20000D02*
G54D26*
D03*
X10000Y-30000D02*
G54D26*
D03*
X10000Y-40000D02*
G54D26*
D03*
X10000Y-50000D02*
G54D26*
D03*
X10000Y-60000D02*
G54D26*
D03*
X10000Y-70000D02*
G54D26*
D03*
X10000Y-80000D02*
G54D26*
D03*
X10000Y-90000D02*
G54D26*
D03*
X10000Y-100000D02*
G54D26*
D03*
X10000Y-110000D02*
G54D26*
D03*
X10000Y-120000D02*
G54D26*
D03*
X10000Y-130000D02*
G54D26*
D03*
X10000Y-140000D02*
G54D26*
D03*
X10000Y-150000D02*
G54D26*
D03*
X10000Y-160000D02*
G54D26*
D03*
X10000Y-170000D02*
G54D26*
D03*
X10000Y-180000D02*
G54D26*
D03*
X10000Y-190000D02*
G54D26*
D03*
X10000Y-200000D02*
G54D26*
D03*
X10000Y-210000D02*
G54D26*
D03*
X10000Y-220000D02*
G54D26*
D03*
X10000Y-230000D02*
G54D26*
D03*
X10000Y-240000D02*
G54D26*
D03*
X10000Y-250000D02*
G54D26*
D03*
X10000Y-260000D02*
G54D26*
D03*
X10000Y-270000D02*
G54D26*
D03*
X10000Y-280000D02*
G54D26*
D03*
X792000Y-20000D02*
G54D26*
D03*
X792000Y-30000D02*
G54D26*
D03*
X792000Y-40000D02*
G54D26*
D03*
X792000Y-50000D02*
G54D26*
D03*
X792000Y-60000D02*
G54D26*
D03*
X792000Y-70000D02*
G54D26*
D03*
X792000Y-80000D02*
G54D26*
D03*
X792000Y-90000D02*
G54D26*
D03*
X792000Y-100000D02*
G54D26*
D03*
X792000Y-110000D02*
G54D26*
D03*
X792000Y-120000D02*
G54D26*
D03*
X792000Y-130000D02*
G54D26*
D03*
X792000Y-140000D02*
G54D26*
D03*
X792000Y-150000D02*
G54D26*
D03*
X792000Y-160000D02*
G54D26*
D03*
X792000Y-170000D02*
G54D26*
D03*
X792000Y-180000D02*
G54D26*
D03*
X792000Y-190000D02*
G54D26*
D03*
X792000Y-200000D02*
G54D26*
D03*
X792000Y-210000D02*
G54D26*
D03*
X792000Y-220000D02*
G54D26*
D03*
X792000Y-230000D02*
G54D26*
D03*
X792000Y-240000D02*
G54D26*
D03*
X792000Y-250000D02*
G54D26*
D03*
X792000Y-260000D02*
G54D26*
D03*
X792000Y-270000D02*
G54D26*
D03*
X792000Y-280000D02*
G54D26*
D03*
X394649Y-217057D02*
G54D26*
D03*
X404649Y-217057D02*
G54D26*
D03*
X414649Y-217057D02*
G54D26*
D03*
X424649Y-217057D02*
G54D26*
D03*
X434649Y-217057D02*
G54D26*
D03*
X444649Y-217057D02*
G54D26*
D03*
X454649Y-217057D02*
G54D26*
D03*
X464649Y-217057D02*
G54D26*
D03*
X474649Y-217057D02*
G54D26*
D03*
X484649Y-217057D02*
G54D26*
D03*
X494649Y-217057D02*
G54D26*
D03*
X504649Y-217057D02*
G54D26*
D03*
X514649Y-217057D02*
G54D26*
D03*
X524649Y-217057D02*
G54D26*
D03*
X534649Y-217057D02*
G54D26*
D03*
X544649Y-217057D02*
G54D26*
D03*
X554649Y-217057D02*
G54D26*
D03*
X564649Y-217057D02*
G54D26*
D03*
X214649Y-217057D02*
G54D26*
D03*
X224649Y-217057D02*
G54D26*
D03*
X234649Y-217057D02*
G54D26*
D03*
X244649Y-217057D02*
G54D26*
D03*
X254649Y-217057D02*
G54D26*
D03*
X264649Y-217057D02*
G54D26*
D03*
X274649Y-217057D02*
G54D26*
D03*
X284649Y-217057D02*
G54D26*
D03*
X294649Y-217057D02*
G54D26*
D03*
X304649Y-217057D02*
G54D26*
D03*
X314649Y-217057D02*
G54D26*
D03*
X324649Y-217057D02*
G54D26*
D03*
X334649Y-217057D02*
G54D26*
D03*
X344649Y-217057D02*
G54D26*
D03*
X354649Y-217057D02*
G54D26*
D03*
X364649Y-217057D02*
G54D26*
D03*
X374649Y-217057D02*
G54D26*
D03*
X384649Y-217057D02*
G54D26*
D03*
X124649Y-217057D02*
G54D26*
D03*
X134649Y-217057D02*
G54D26*
D03*
X144649Y-217057D02*
G54D26*
D03*
X154649Y-217057D02*
G54D26*
D03*
X164649Y-217057D02*
G54D26*
D03*
X174649Y-217057D02*
G54D26*
D03*
X184649Y-217057D02*
G54D26*
D03*
X194649Y-217057D02*
G54D26*
D03*
X204649Y-217057D02*
G54D26*
D03*
X324649Y-67057D02*
G54D26*
D03*
X334649Y-67057D02*
G54D26*
D03*
X344649Y-67057D02*
G54D26*
D03*
X354649Y-67057D02*
G54D26*
D03*
X364649Y-67057D02*
G54D26*
D03*
X374649Y-67057D02*
G54D26*
D03*
X384649Y-67057D02*
G54D26*
D03*
X394649Y-67057D02*
G54D26*
D03*
X404649Y-67057D02*
G54D26*
D03*
X414649Y-67057D02*
G54D26*
D03*
X424649Y-67057D02*
G54D26*
D03*
X434649Y-67057D02*
G54D26*
D03*
X444649Y-67057D02*
G54D26*
D03*
X454649Y-67057D02*
G54D26*
D03*
X464649Y-67057D02*
G54D26*
D03*
X474649Y-67057D02*
G54D26*
D03*
X484649Y-67057D02*
G54D26*
D03*
X494649Y-67057D02*
G54D26*
D03*
X164649Y-67057D02*
G54D26*
D03*
X174649Y-67057D02*
G54D26*
D03*
X184649Y-67057D02*
G54D26*
D03*
X194649Y-67057D02*
G54D26*
D03*
X204649Y-67057D02*
G54D26*
D03*
X214649Y-67057D02*
G54D26*
D03*
X224649Y-67057D02*
G54D26*
D03*
X234649Y-67057D02*
G54D26*
D03*
X244649Y-67057D02*
G54D26*
D03*
X254649Y-67057D02*
G54D26*
D03*
X264649Y-67057D02*
G54D26*
D03*
X274649Y-67057D02*
G54D26*
D03*
X284649Y-67057D02*
G54D26*
D03*
X294649Y-67057D02*
G54D26*
D03*
X304649Y-67057D02*
G54D26*
D03*
X314649Y-67057D02*
G54D26*
D03*
X544649Y-67057D02*
G54D26*
D03*
X554649Y-67057D02*
G54D26*
D03*
X564649Y-67057D02*
G54D26*
D03*
X574649Y-67057D02*
G54D26*
D03*
X584649Y-67057D02*
G54D26*
D03*
X594649Y-67057D02*
G54D26*
D03*
X604649Y-67057D02*
G54D26*
D03*
X614649Y-67057D02*
G54D26*
D03*
X624649Y-67057D02*
G54D26*
D03*
X634649Y-67057D02*
G54D26*
D03*
X644649Y-67057D02*
G54D26*
D03*
X654649Y-67057D02*
G54D26*
D03*
X44649Y-67057D02*
G54D26*
D03*
X54649Y-67057D02*
G54D26*
D03*
X64649Y-67057D02*
G54D26*
D03*
X84649Y-57057D02*
G54D26*
D03*
X94649Y-57057D02*
G54D26*
D03*
X104649Y-57057D02*
G54D26*
D03*
X44649Y-77057D02*
G54D26*
D03*
X54649Y-77057D02*
G54D26*
D03*
X64649Y-77057D02*
G54D26*
D03*
X44649Y-87057D02*
G54D26*
D03*
X54649Y-87057D02*
G54D26*
D03*
X64649Y-87057D02*
G54D26*
D03*
X44649Y-97057D02*
G54D26*
D03*
X54649Y-97057D02*
G54D26*
D03*
X64649Y-97057D02*
G54D26*
D03*
X54649Y-47057D02*
G54D26*
D03*
X64649Y-47057D02*
G54D26*
D03*
X74649Y-47057D02*
G54D26*
D03*
X74649Y-97057D02*
G54D26*
D03*
X94649Y-97057D02*
G54D26*
D03*
X94649Y-87057D02*
G54D26*
D03*
X44649Y-107057D02*
G54D26*
D03*
X44649Y-117057D02*
G54D26*
D03*
X44649Y-127057D02*
G54D26*
D03*
X44649Y-137057D02*
G54D26*
D03*
X44649Y-147057D02*
G54D26*
D03*
X44649Y-157057D02*
G54D26*
D03*
X44649Y-167057D02*
G54D26*
D03*
X44649Y-177057D02*
G54D26*
D03*
X51579Y-111813D02*
G54D26*
D03*
X51579Y-121813D02*
G54D26*
D03*
X51579Y-131813D02*
G54D26*
D03*
X51579Y-141813D02*
G54D26*
D03*
X51579Y-151813D02*
G54D26*
D03*
X51579Y-161813D02*
G54D26*
D03*
X53287Y-174781D02*
G54D26*
D03*
X51309Y-181004D02*
G54D26*
D03*
X115108Y-166367D02*
G54D26*
D03*
X114928Y-172842D02*
G54D26*
D03*
X122212Y-167086D02*
G54D26*
D03*
X129766Y-168615D02*
G54D26*
D03*
X136601Y-168705D02*
G54D26*
D03*
X125036Y-172688D02*
G54D26*
D03*
X133680Y-174262D02*
G54D26*
D03*
X136072Y-180296D02*
G54D26*
D03*
X135904Y-187500D02*
G54D26*
D03*
X135798Y-194840D02*
G54D26*
D03*
X133543Y-201799D02*
G54D26*
D03*
X133543Y-209263D02*
G54D26*
D03*
X107554Y-200360D02*
G54D26*
D03*
X107104Y-207554D02*
G54D26*
D03*
X99649Y-202456D02*
G54D26*
D03*
X92982Y-201871D02*
G54D26*
D03*
X87836Y-206199D02*
G54D26*
D03*
X80702Y-209123D02*
G54D26*
D03*
X73801Y-210058D02*
G54D26*
D03*
X67018Y-209006D02*
G54D26*
D03*
X60819Y-205848D02*
G54D26*
D03*
X55502Y-200837D02*
G54D26*
D03*
X52137Y-194576D02*
G54D26*
D03*
X50705Y-187819D02*
G54D26*
D03*
X57553Y-169628D02*
G54D26*
D03*
X62447Y-166064D02*
G54D26*
D03*
X329640Y-62140D02*
G54D26*
D03*
X339640Y-62140D02*
G54D26*
D03*
X349640Y-62140D02*
G54D26*
D03*
X359640Y-62140D02*
G54D26*
D03*
X369640Y-62140D02*
G54D26*
D03*
X379640Y-62140D02*
G54D26*
D03*
X389640Y-62140D02*
G54D26*
D03*
X399640Y-62140D02*
G54D26*
D03*
X409640Y-62140D02*
G54D26*
D03*
X419640Y-62140D02*
G54D26*
D03*
X429640Y-62140D02*
G54D26*
D03*
X439640Y-62140D02*
G54D26*
D03*
X449640Y-62140D02*
G54D26*
D03*
X459640Y-62140D02*
G54D26*
D03*
X469640Y-62140D02*
G54D26*
D03*
X479640Y-62140D02*
G54D26*
D03*
X489640Y-62140D02*
G54D26*
D03*
X499640Y-62140D02*
G54D26*
D03*
X159640Y-62140D02*
G54D26*
D03*
X169640Y-62140D02*
G54D26*
D03*
X179640Y-62140D02*
G54D26*
D03*
X189640Y-62140D02*
G54D26*
D03*
X199640Y-62140D02*
G54D26*
D03*
X209640Y-62140D02*
G54D26*
D03*
X219640Y-62140D02*
G54D26*
D03*
X229640Y-62140D02*
G54D26*
D03*
X239640Y-62140D02*
G54D26*
D03*
X249640Y-62140D02*
G54D26*
D03*
X259640Y-62140D02*
G54D26*
D03*
X269640Y-62140D02*
G54D26*
D03*
X279640Y-62140D02*
G54D26*
D03*
X289640Y-62140D02*
G54D26*
D03*
X299640Y-62140D02*
G54D26*
D03*
X309640Y-62140D02*
G54D26*
D03*
X319640Y-62140D02*
G54D26*
D03*
X389599Y-221508D02*
G54D26*
D03*
X399599Y-221508D02*
G54D26*
D03*
X409599Y-221508D02*
G54D26*
D03*
X419599Y-221508D02*
G54D26*
D03*
X429599Y-221508D02*
G54D26*
D03*
X439599Y-221508D02*
G54D26*
D03*
X449599Y-221508D02*
G54D26*
D03*
X459599Y-221508D02*
G54D26*
D03*
X469599Y-221508D02*
G54D26*
D03*
X479599Y-221508D02*
G54D26*
D03*
X489599Y-221508D02*
G54D26*
D03*
X499599Y-221508D02*
G54D26*
D03*
X509599Y-221508D02*
G54D26*
D03*
X519599Y-221508D02*
G54D26*
D03*
X529599Y-221508D02*
G54D26*
D03*
X539599Y-221508D02*
G54D26*
D03*
X549599Y-221508D02*
G54D26*
D03*
X559599Y-221508D02*
G54D26*
D03*
X209599Y-221508D02*
G54D26*
D03*
X219599Y-221508D02*
G54D26*
D03*
X229599Y-221508D02*
G54D26*
D03*
X239599Y-221508D02*
G54D26*
D03*
X249599Y-221508D02*
G54D26*
D03*
X259599Y-221508D02*
G54D26*
D03*
X269599Y-221508D02*
G54D26*
D03*
X279599Y-221508D02*
G54D26*
D03*
X289599Y-221508D02*
G54D26*
D03*
X299599Y-221508D02*
G54D26*
D03*
X309599Y-221508D02*
G54D26*
D03*
X319599Y-221508D02*
G54D26*
D03*
X329599Y-221508D02*
G54D26*
D03*
X339599Y-221508D02*
G54D26*
D03*
X349599Y-221508D02*
G54D26*
D03*
X359599Y-221508D02*
G54D26*
D03*
X369599Y-221508D02*
G54D26*
D03*
X379599Y-221508D02*
G54D26*
D03*
X119599Y-221508D02*
G54D26*
D03*
X129599Y-221508D02*
G54D26*
D03*
X139599Y-221508D02*
G54D26*
D03*
X149599Y-221508D02*
G54D26*
D03*
X159599Y-221508D02*
G54D26*
D03*
X169599Y-221508D02*
G54D26*
D03*
X179599Y-221508D02*
G54D26*
D03*
X189599Y-221508D02*
G54D26*
D03*
X199599Y-221508D02*
G54D26*
D03*
X549942Y-62105D02*
G54D26*
D03*
X559941Y-62105D02*
G54D26*
D03*
X569941Y-62105D02*
G54D26*
D03*
X579941Y-62105D02*
G54D26*
D03*
X589942Y-62105D02*
G54D26*
D03*
X599942Y-62105D02*
G54D26*
D03*
X609942Y-62105D02*
G54D26*
D03*
X619942Y-62105D02*
G54D26*
D03*
X629942Y-62105D02*
G54D26*
D03*
X639942Y-62105D02*
G54D26*
D03*
X649942Y-62105D02*
G54D26*
D03*
X541595Y-61463D02*
G54D26*
D03*
X502332Y-54356D02*
G54D26*
D03*
X504828Y-48259D02*
G54D26*
D03*
X508920Y-43185D02*
G54D26*
D03*
X514280Y-39413D02*
G54D26*
D03*
X520826Y-38112D02*
G54D26*
D03*
X527332Y-38930D02*
G54D26*
D03*
X533543Y-41735D02*
G54D26*
D03*
X538220Y-46411D02*
G54D26*
D03*
X541367Y-52886D02*
G54D26*
D03*
X503222Y-67443D02*
G54D26*
D03*
X647842Y-73471D02*
G54D26*
D03*
X648651Y-80845D02*
G54D26*
D03*
X645863Y-88489D02*
G54D26*
D03*
X652068Y-93435D02*
G54D26*
D03*
X656475Y-98022D02*
G54D26*
D03*
X663040Y-98022D02*
G54D26*
D03*
X669964Y-97752D02*
G54D26*
D03*
X677068Y-97662D02*
G54D26*
D03*
X683273Y-97842D02*
G54D26*
D03*
X689568Y-98022D02*
G54D26*
D03*
X695504Y-100989D02*
G54D26*
D03*
X701349Y-97482D02*
G54D26*
D03*
X708004Y-95863D02*
G54D26*
D03*
X715088Y-95556D02*
G54D26*
D03*
X721871Y-97076D02*
G54D26*
D03*
X727719Y-100351D02*
G54D26*
D03*
X732749Y-105380D02*
G54D26*
D03*
X736140Y-111579D02*
G54D26*
D03*
X738129Y-118830D02*
G54D26*
D03*
X737661Y-125731D02*
G54D26*
D03*
X735088Y-131930D02*
G54D26*
D03*
X731111Y-137310D02*
G54D26*
D03*
X725848Y-141404D02*
G54D26*
D03*
X720117Y-144094D02*
G54D26*
D03*
X713918Y-145029D02*
G54D26*
D03*
X707602Y-145146D02*
G54D26*
D03*
X701871Y-142924D02*
G54D26*
D03*
X696023Y-139181D02*
G54D26*
D03*
X694386Y-145029D02*
G54D26*
D03*
X694620Y-151345D02*
G54D26*
D03*
X659296Y-71082D02*
G54D26*
D03*
X664794Y-75995D02*
G54D26*
D03*
X671928Y-78685D02*
G54D26*
D03*
X679063Y-78451D02*
G54D26*
D03*
X685963Y-75878D02*
G54D26*
D03*
X692749Y-77310D02*
G54D26*
D03*
X698713Y-81287D02*
G54D26*
D03*
X705029Y-84561D02*
G54D26*
D03*
X713333Y-85614D02*
G54D26*
D03*
X721053Y-84211D02*
G54D26*
D03*
X727953Y-80234D02*
G54D26*
D03*
X733450Y-75672D02*
G54D26*
D03*
X736725Y-68538D02*
G54D26*
D03*
X653918Y-55322D02*
G54D26*
D03*
X657778Y-47123D02*
G54D26*
D03*
X663392Y-41041D02*
G54D26*
D03*
X671696Y-38000D02*
G54D26*
D03*
X680468Y-38468D02*
G54D26*
D03*
X687485Y-43275D02*
G54D26*
D03*
X695906Y-40936D02*
G54D26*
D03*
X704444Y-37310D02*
G54D26*
D03*
X711930Y-35205D02*
G54D26*
D03*
X720000Y-36023D02*
G54D26*
D03*
X727485Y-39766D02*
G54D26*
D03*
X732982Y-45029D02*
G54D26*
D03*
X736140Y-51228D02*
G54D26*
D03*
X737310Y-58596D02*
G54D26*
D03*
X692896Y-178237D02*
G54D26*
D03*
X697752Y-173741D02*
G54D26*
D03*
X703597Y-170234D02*
G54D26*
D03*
X710522Y-168705D02*
G54D26*
D03*
X717266Y-169245D02*
G54D26*
D03*
X724011Y-171043D02*
G54D26*
D03*
X729317Y-174910D02*
G54D26*
D03*
X733453Y-180036D02*
G54D26*
D03*
X736331Y-186151D02*
G54D26*
D03*
X737230Y-192806D02*
G54D26*
D03*
X736601Y-199820D02*
G54D26*
D03*
X733903Y-205845D02*
G54D26*
D03*
X730036Y-210971D02*
G54D26*
D03*
X725000Y-214838D02*
G54D26*
D03*
X719065Y-217446D02*
G54D26*
D03*
X712680Y-218076D02*
G54D26*
D03*
X706205Y-216906D02*
G54D26*
D03*
X700000Y-214568D02*
G54D26*
D03*
X694874Y-210612D02*
G54D26*
D03*
X688553Y-209148D02*
G54D26*
D03*
X682038Y-209288D02*
G54D26*
D03*
X675437Y-209440D02*
G54D26*
D03*
X668534Y-209474D02*
G54D26*
D03*
X661757Y-209336D02*
G54D26*
D03*
X654841Y-209336D02*
G54D26*
D03*
X648271Y-208990D02*
G54D26*
D03*
X641563Y-208852D02*
G54D26*
D03*
X634628Y-208351D02*
G54D26*
D03*
X627766Y-207979D02*
G54D26*
D03*
X621117Y-208192D02*
G54D26*
D03*
X613883Y-207926D02*
G54D26*
D03*
X608358Y-203952D02*
G54D26*
D03*
X607903Y-197112D02*
G54D26*
D03*
X608207Y-190578D02*
G54D26*
D03*
X610030Y-183891D02*
G54D26*
D03*
X610797Y-177718D02*
G54D26*
D03*
X610884Y-171645D02*
G54D26*
D03*
X572476Y-175657D02*
G54D26*
D03*
X577109Y-180290D02*
G54D26*
D03*
X573513Y-186445D02*
G54D26*
D03*
X572407Y-193430D02*
G54D26*
D03*
X578077Y-191148D02*
G54D26*
D03*
X571755Y-215585D02*
G54D26*
D03*
X657054Y-177870D02*
G54D26*
D03*
X663900Y-178147D02*
G54D26*
D03*
X670747Y-178077D02*
G54D26*
D03*
X677524Y-177939D02*
G54D26*
D03*
X684716Y-177801D02*
G54D26*
D03*
X659405Y-171646D02*
G54D26*
D03*
X658437Y-165560D02*
G54D26*
D03*
X664523Y-163416D02*
G54D26*
D03*
X670885Y-163347D02*
G54D26*
D03*
X677386Y-163416D02*
G54D26*
D03*
X684025Y-163347D02*
G54D26*
D03*
X690456Y-163347D02*
G54D26*
D03*
X694053Y-157746D02*
G54D26*
D03*
X668772Y-170643D02*
G54D26*
D03*
X678596Y-171813D02*
G54D26*
D03*
X690058Y-170292D02*
G54D26*
D03*
X696140Y-167252D02*
G54D26*
D03*
X700819Y-149006D02*
G54D26*
D03*
X700936Y-155322D02*
G54D26*
D03*
X699649Y-161404D02*
G54D26*
D03*
X691408Y-239280D02*
G54D26*
D03*
X694967Y-234124D02*
G54D26*
D03*
X699959Y-230033D02*
G54D26*
D03*
X705769Y-227537D02*
G54D26*
D03*
X712316Y-226678D02*
G54D26*
D03*
X718617Y-227332D02*
G54D26*
D03*
X724550Y-229705D02*
G54D26*
D03*
X729628Y-233351D02*
G54D26*
D03*
X733298Y-238298D02*
G54D26*
D03*
X735851Y-244096D02*
G54D26*
D03*
X736755Y-250213D02*
G54D26*
D03*
X736277Y-256489D02*
G54D26*
D03*
X733883Y-262660D02*
G54D26*
D03*
X730319Y-267713D02*
G54D26*
D03*
X725401Y-271577D02*
G54D26*
D03*
X719767Y-274252D02*
G54D26*
D03*
X713503Y-275354D02*
G54D26*
D03*
X707051Y-274756D02*
G54D26*
D03*
X700944Y-272647D02*
G54D26*
D03*
X695499Y-268870D02*
G54D26*
D03*
X691330Y-263457D02*
G54D26*
D03*
X684787Y-263032D02*
G54D26*
D03*
X677968Y-263399D02*
G54D26*
D03*
X668435Y-263489D02*
G54D26*
D03*
X660072Y-263939D02*
G54D26*
D03*
X652698Y-263309D02*
G54D26*
D03*
X644335Y-263759D02*
G54D26*
D03*
X636061Y-263759D02*
G54D26*
D03*
X627788Y-263669D02*
G54D26*
D03*
X620683Y-260072D02*
G54D26*
D03*
X615422Y-254910D02*
G54D26*
D03*
X609336Y-249032D02*
G54D26*
D03*
X604426Y-244260D02*
G54D26*
D03*
X599101Y-238935D02*
G54D26*
D03*
X594329Y-233956D02*
G54D26*
D03*
X589073Y-229876D02*
G54D26*
D03*
X584302Y-235408D02*
G54D26*
D03*
X579599Y-239972D02*
G54D26*
D03*
X571923Y-237414D02*
G54D26*
D03*
X567358Y-232711D02*
G54D26*
D03*
X563416Y-226971D02*
G54D26*
D03*
X684787Y-239096D02*
G54D26*
D03*
X676915Y-238777D02*
G54D26*
D03*
X668465Y-238451D02*
G54D26*
D03*
X660028Y-238658D02*
G54D26*
D03*
X652144Y-238658D02*
G54D26*
D03*
X645021Y-238935D02*
G54D26*
D03*
X638313Y-238935D02*
G54D26*
D03*
X632019Y-235270D02*
G54D26*
D03*
X627087Y-230401D02*
G54D26*
D03*
X622545Y-225450D02*
G54D26*
D03*
X617289Y-220678D02*
G54D26*
D03*
X612517Y-215975D02*
G54D26*
D03*
X608437Y-210996D02*
G54D26*
D03*
X631003Y-218845D02*
G54D26*
D03*
X654255Y-223404D02*
G54D26*
D03*
X681763Y-220365D02*
G54D26*
D03*
X668693Y-230091D02*
G54D26*
D03*
X688146Y-229179D02*
G54D26*
D03*
X641945Y-230395D02*
G54D26*
D03*
X659270Y-86474D02*
G54D26*
D03*
X675836Y-89058D02*
G54D26*
D03*
X692097Y-88298D02*
G54D26*
D03*
X731595Y-91463D02*
G54D26*
D03*
X741595Y-81463D02*
G54D26*
D03*
X747836Y-67602D02*
G54D26*
D03*
X747134Y-51345D02*
G54D26*
D03*
X740234Y-38713D02*
G54D26*
D03*
X730237Y-27866D02*
G54D26*
D03*
X715217Y-25692D02*
G54D26*
D03*
X699407Y-27470D02*
G54D26*
D03*
X685573Y-32806D02*
G54D26*
D03*
X668972Y-28063D02*
G54D26*
D03*
X652174Y-34387D02*
G54D26*
D03*
X641304Y-49407D02*
G54D26*
D03*
X618182Y-48024D02*
G54D26*
D03*
X597628Y-48617D02*
G54D26*
D03*
X573320Y-50790D02*
G54D26*
D03*
X558103Y-49802D02*
G54D26*
D03*
X549605Y-29447D02*
G54D26*
D03*
X565217Y-36957D02*
G54D26*
D03*
X578854Y-27470D02*
G54D26*
D03*
X587352Y-39526D02*
G54D26*
D03*
X607905Y-27470D02*
G54D26*
D03*
X609684Y-38538D02*
G54D26*
D03*
X629644Y-28261D02*
G54D26*
D03*
X633004Y-41700D02*
G54D26*
D03*
X720000Y-156956D02*
G54D26*
D03*
X753044Y-157826D02*
G54D26*
D03*
X758696Y-106087D02*
G54D26*
D03*
X764348Y-38261D02*
G54D26*
D03*
X766087Y-77826D02*
G54D26*
D03*
X771739Y-133913D02*
G54D26*
D03*
X756522Y-132609D02*
G54D26*
D03*
X763044Y-182609D02*
G54D26*
D03*
X757826Y-215217D02*
G54D26*
D03*
X759565Y-246522D02*
G54D26*
D03*
X766522Y-270870D02*
G54D26*
D03*
X748261Y-274348D02*
G54D26*
D03*
X675652Y-278696D02*
G54D26*
D03*
X647391Y-277826D02*
G54D26*
D03*
X617826Y-276087D02*
G54D26*
D03*
X593913Y-263478D02*
G54D26*
D03*
X590870Y-248261D02*
G54D26*
D03*
X576522Y-278261D02*
G54D26*
D03*
X563044Y-257826D02*
G54D26*
D03*
X549565Y-236087D02*
G54D26*
D03*
X548261Y-273913D02*
G54D26*
D03*
X518696Y-241304D02*
G54D26*
D03*
X520000Y-267391D02*
G54D26*
D03*
X533913Y-258261D02*
G54D26*
D03*
X490000Y-240435D02*
G54D26*
D03*
X497391Y-256956D02*
G54D26*
D03*
X478261Y-273044D02*
G54D26*
D03*
X464348Y-242174D02*
G54D26*
D03*
X463478Y-260000D02*
G54D26*
D03*
X440435Y-274783D02*
G54D26*
D03*
X430435Y-240000D02*
G54D26*
D03*
X440435Y-256087D02*
G54D26*
D03*
X410870Y-272609D02*
G54D26*
D03*
X400435Y-238696D02*
G54D26*
D03*
X414348Y-257826D02*
G54D26*
D03*
X371368Y-241027D02*
G54D26*
D03*
X372673Y-267114D02*
G54D26*
D03*
X386586Y-257983D02*
G54D26*
D03*
X342673Y-240157D02*
G54D26*
D03*
X350064Y-256679D02*
G54D26*
D03*
X330933Y-272766D02*
G54D26*
D03*
X317020Y-241896D02*
G54D26*
D03*
X316151Y-259722D02*
G54D26*
D03*
X293107Y-274505D02*
G54D26*
D03*
X283107Y-239722D02*
G54D26*
D03*
X293107Y-255809D02*
G54D26*
D03*
X263542Y-272331D02*
G54D26*
D03*
X253107Y-238418D02*
G54D26*
D03*
X267020Y-257548D02*
G54D26*
D03*
X225040Y-240462D02*
G54D26*
D03*
X226345Y-266549D02*
G54D26*
D03*
X240258Y-257418D02*
G54D26*
D03*
X196345Y-239592D02*
G54D26*
D03*
X203736Y-256114D02*
G54D26*
D03*
X184606Y-272201D02*
G54D26*
D03*
X170693Y-241331D02*
G54D26*
D03*
X169823Y-259157D02*
G54D26*
D03*
X146780Y-273940D02*
G54D26*
D03*
X136780Y-239157D02*
G54D26*
D03*
X146780Y-255244D02*
G54D26*
D03*
X117214Y-271766D02*
G54D26*
D03*
X106780Y-237853D02*
G54D26*
D03*
X120693Y-256984D02*
G54D26*
D03*
X93044Y-227826D02*
G54D26*
D03*
X61017Y-229944D02*
G54D26*
D03*
X35028Y-218079D02*
G54D26*
D03*
X36158Y-251412D02*
G54D26*
D03*
X51977Y-243503D02*
G54D26*
D03*
X87006Y-253672D02*
G54D26*
D03*
X76271Y-246893D02*
G54D26*
D03*
X97175Y-275141D02*
G54D26*
D03*
X66102Y-268362D02*
G54D26*
D03*
X42938Y-274576D02*
G54D26*
D03*
X32768Y-188136D02*
G54D26*
D03*
X30508Y-146328D02*
G54D26*
D03*
X30508Y-102825D02*
G54D26*
D03*
X33333Y-74011D02*
G54D26*
D03*
X32768Y-41808D02*
G54D26*
D03*
X43503Y-54237D02*
G54D26*
D03*
X54802Y-30508D02*
G54D26*
D03*
X90960Y-31638D02*
G54D26*
D03*
X104295Y-43788D02*
G54D26*
D03*
X121469Y-35593D02*
G54D26*
D03*
X140288Y-49412D02*
G54D26*
D03*
X155367Y-31638D02*
G54D26*
D03*
X174011Y-49153D02*
G54D26*
D03*
X194350Y-33898D02*
G54D26*
D03*
X203044Y-47826D02*
G54D26*
D03*
X223164Y-32203D02*
G54D26*
D03*
X236723Y-47458D02*
G54D26*
D03*
X260452Y-31638D02*
G54D26*
D03*
X273446Y-48023D02*
G54D26*
D03*
X297175Y-29944D02*
G54D26*
D03*
X309605Y-47458D02*
G54D26*
D03*
X338418Y-31638D02*
G54D26*
D03*
X348588Y-46893D02*
G54D26*
D03*
X374011Y-31638D02*
G54D26*
D03*
X388701Y-49153D02*
G54D26*
D03*
X402825Y-32768D02*
G54D26*
D03*
X427684Y-46328D02*
G54D26*
D03*
X442938Y-31073D02*
G54D26*
D03*
X463842Y-47458D02*
G54D26*
D03*
X472316Y-35593D02*
G54D26*
D03*
X490395Y-48023D02*
G54D26*
D03*
X500000Y-28814D02*
G54D26*
D03*
G54D27*
X134992Y-81095D02*
X135000Y-102138D01*
X129288Y-49412D02*
G54D26*
D03*
X118288Y-49412D02*
G54D26*
D03*
X148118Y-51187D02*
G54D26*
D03*
X153355Y-55319D02*
G54D26*
D03*
X159984Y-55646D02*
G54D26*
D03*
X117842Y-100689D02*
G54D26*
D03*
X108841Y-100584D02*
G54D26*
D03*
X100831Y-100317D02*
G54D26*
D03*
X120266Y-93883D02*
G54D26*
D03*
X113032Y-95213D02*
G54D26*
D03*
X104840Y-94840D02*
G54D26*
D03*
X98670Y-92074D02*
G54D26*
D03*
M02*
