%FSLAX34Y34*%
%MOMM*%
%LNSOLDERMASK_TOP*%
G71*
G01*
%ADD10R,1.300X1.300*%
%ADD11R,1.600X1.300*%
%ADD12R,2.300X1.200*%
%ADD13C,3.600*%
%ADD14C,2.600*%
%ADD15C,3.100*%
%ADD16R,1.300X1.600*%
%ADD17C,2.200*%
%LPD*%
X157541Y-115008D02*
G54D10*
D03*
X157541Y-134008D02*
G54D10*
D03*
X179741Y-124508D02*
G54D10*
D03*
X157541Y-149508D02*
G54D10*
D03*
X157541Y-168508D02*
G54D10*
D03*
X179741Y-159008D02*
G54D10*
D03*
X190197Y-78803D02*
G54D11*
D03*
X190197Y-99403D02*
G54D11*
D03*
X169997Y-78803D02*
G54D11*
D03*
X169997Y-99403D02*
G54D11*
D03*
X169997Y-183803D02*
G54D11*
D03*
X169997Y-204403D02*
G54D11*
D03*
X149797Y-183903D02*
G54D11*
D03*
X149797Y-204503D02*
G54D11*
D03*
X200741Y-115009D02*
G54D10*
D03*
X200741Y-134009D02*
G54D10*
D03*
X222941Y-124509D02*
G54D10*
D03*
X200741Y-149508D02*
G54D10*
D03*
X200741Y-168508D02*
G54D10*
D03*
X222941Y-159008D02*
G54D10*
D03*
X233397Y-78804D02*
G54D11*
D03*
X233397Y-99404D02*
G54D11*
D03*
X213197Y-78804D02*
G54D11*
D03*
X213197Y-99404D02*
G54D11*
D03*
X213197Y-183804D02*
G54D11*
D03*
X213197Y-204404D02*
G54D11*
D03*
X192997Y-183904D02*
G54D11*
D03*
X192997Y-204504D02*
G54D11*
D03*
X244041Y-115008D02*
G54D10*
D03*
X244041Y-134008D02*
G54D10*
D03*
X266241Y-124508D02*
G54D10*
D03*
X244041Y-149508D02*
G54D10*
D03*
X244041Y-168508D02*
G54D10*
D03*
X266241Y-159008D02*
G54D10*
D03*
X276697Y-78803D02*
G54D11*
D03*
X276697Y-99403D02*
G54D11*
D03*
X256497Y-78803D02*
G54D11*
D03*
X256497Y-99403D02*
G54D11*
D03*
X256497Y-183803D02*
G54D11*
D03*
X256497Y-204403D02*
G54D11*
D03*
X236297Y-183903D02*
G54D11*
D03*
X236297Y-204503D02*
G54D11*
D03*
X287241Y-115009D02*
G54D10*
D03*
X287241Y-134009D02*
G54D10*
D03*
X309441Y-124509D02*
G54D10*
D03*
X287241Y-149508D02*
G54D10*
D03*
X287241Y-168508D02*
G54D10*
D03*
X309441Y-159008D02*
G54D10*
D03*
X319897Y-78804D02*
G54D11*
D03*
X319897Y-99404D02*
G54D11*
D03*
X299697Y-78804D02*
G54D11*
D03*
X299697Y-99404D02*
G54D11*
D03*
X299697Y-183804D02*
G54D11*
D03*
X299697Y-204404D02*
G54D11*
D03*
X279497Y-183904D02*
G54D11*
D03*
X279497Y-204504D02*
G54D11*
D03*
X330541Y-115008D02*
G54D10*
D03*
X330541Y-134008D02*
G54D10*
D03*
X352741Y-124508D02*
G54D10*
D03*
X330541Y-149508D02*
G54D10*
D03*
X330541Y-168508D02*
G54D10*
D03*
X352741Y-159008D02*
G54D10*
D03*
X363197Y-78803D02*
G54D11*
D03*
X363197Y-99403D02*
G54D11*
D03*
X342997Y-78803D02*
G54D11*
D03*
X342997Y-99403D02*
G54D11*
D03*
X342997Y-183803D02*
G54D11*
D03*
X342997Y-204403D02*
G54D11*
D03*
X322797Y-183903D02*
G54D11*
D03*
X322797Y-204503D02*
G54D11*
D03*
X373741Y-115009D02*
G54D10*
D03*
X373741Y-134009D02*
G54D10*
D03*
X395941Y-124509D02*
G54D10*
D03*
X373741Y-149508D02*
G54D10*
D03*
X373741Y-168508D02*
G54D10*
D03*
X395941Y-159008D02*
G54D10*
D03*
X406397Y-78804D02*
G54D11*
D03*
X406397Y-99404D02*
G54D11*
D03*
X386197Y-78804D02*
G54D11*
D03*
X386197Y-99404D02*
G54D11*
D03*
X386197Y-183804D02*
G54D11*
D03*
X386197Y-204404D02*
G54D11*
D03*
X365997Y-183904D02*
G54D11*
D03*
X365997Y-204504D02*
G54D11*
D03*
X417041Y-115008D02*
G54D10*
D03*
X417041Y-134008D02*
G54D10*
D03*
X439241Y-124508D02*
G54D10*
D03*
X417041Y-149508D02*
G54D10*
D03*
X417041Y-168508D02*
G54D10*
D03*
X439241Y-159008D02*
G54D10*
D03*
X449697Y-78803D02*
G54D11*
D03*
X449697Y-99403D02*
G54D11*
D03*
X429497Y-78803D02*
G54D11*
D03*
X429497Y-99403D02*
G54D11*
D03*
X429497Y-183803D02*
G54D11*
D03*
X429497Y-204403D02*
G54D11*
D03*
X409297Y-183903D02*
G54D11*
D03*
X409297Y-204503D02*
G54D11*
D03*
X460241Y-115009D02*
G54D10*
D03*
X460241Y-134009D02*
G54D10*
D03*
X482441Y-124509D02*
G54D10*
D03*
X460241Y-149508D02*
G54D10*
D03*
X460241Y-168508D02*
G54D10*
D03*
X482441Y-159008D02*
G54D10*
D03*
X492897Y-78804D02*
G54D11*
D03*
X492897Y-99404D02*
G54D11*
D03*
X472697Y-78804D02*
G54D11*
D03*
X472697Y-99404D02*
G54D11*
D03*
X472697Y-183804D02*
G54D11*
D03*
X472697Y-204404D02*
G54D11*
D03*
X452497Y-183904D02*
G54D11*
D03*
X452497Y-204504D02*
G54D11*
D03*
X503541Y-115009D02*
G54D10*
D03*
X503541Y-134009D02*
G54D10*
D03*
X525741Y-124509D02*
G54D10*
D03*
X503541Y-149509D02*
G54D10*
D03*
X503541Y-168509D02*
G54D10*
D03*
X525741Y-159009D02*
G54D10*
D03*
X536197Y-78804D02*
G54D11*
D03*
X536197Y-99404D02*
G54D11*
D03*
X515997Y-78804D02*
G54D11*
D03*
X515997Y-99404D02*
G54D11*
D03*
X515997Y-183804D02*
G54D11*
D03*
X515997Y-204404D02*
G54D11*
D03*
X495797Y-183904D02*
G54D11*
D03*
X495797Y-204504D02*
G54D11*
D03*
X546741Y-115010D02*
G54D10*
D03*
X546741Y-134010D02*
G54D10*
D03*
X568942Y-124510D02*
G54D10*
D03*
X546741Y-149509D02*
G54D10*
D03*
X546741Y-168509D02*
G54D10*
D03*
X568941Y-159009D02*
G54D10*
D03*
X579397Y-78804D02*
G54D11*
D03*
X579397Y-99404D02*
G54D11*
D03*
X559197Y-78804D02*
G54D11*
D03*
X559197Y-99404D02*
G54D11*
D03*
X559197Y-183804D02*
G54D11*
D03*
X559197Y-204404D02*
G54D11*
D03*
X538997Y-183904D02*
G54D11*
D03*
X538997Y-204504D02*
G54D11*
D03*
X135000Y-123338D02*
G54D11*
D03*
X135000Y-143938D02*
G54D11*
D03*
X75456Y-118517D02*
G54D12*
D03*
X105956Y-118517D02*
G54D12*
D03*
X75456Y-133717D02*
G54D12*
D03*
X105956Y-133717D02*
G54D12*
D03*
X75456Y-148917D02*
G54D12*
D03*
X105956Y-148917D02*
G54D12*
D03*
X74500Y-186000D02*
G54D13*
D03*
X119747Y-185785D02*
G54D11*
D03*
X119747Y-206385D02*
G54D11*
D03*
X99247Y-185785D02*
G54D11*
D03*
X99247Y-165185D02*
G54D11*
D03*
X712500Y-60500D02*
G54D13*
D03*
X712500Y-193500D02*
G54D13*
D03*
X712500Y-251000D02*
G54D13*
D03*
X712500Y-120500D02*
G54D13*
D03*
X84500Y-77500D02*
G54D14*
D03*
X109900Y-77500D02*
G54D14*
D03*
X639956Y-115517D02*
G54D12*
D03*
X670456Y-115517D02*
G54D12*
D03*
X639956Y-130717D02*
G54D12*
D03*
X670456Y-130717D02*
G54D12*
D03*
X639956Y-145917D02*
G54D12*
D03*
X670456Y-145917D02*
G54D12*
D03*
X589942Y-115010D02*
G54D10*
D03*
X589942Y-134010D02*
G54D10*
D03*
X612142Y-124510D02*
G54D10*
D03*
X589941Y-149510D02*
G54D10*
D03*
X589942Y-168510D02*
G54D10*
D03*
X612142Y-159010D02*
G54D10*
D03*
X622597Y-78805D02*
G54D11*
D03*
X622597Y-99405D02*
G54D11*
D03*
X602397Y-78805D02*
G54D11*
D03*
X602397Y-99405D02*
G54D11*
D03*
X674400Y-58000D02*
G54D15*
D03*
X522000Y-58000D02*
G54D15*
D03*
X623948Y-193668D02*
G54D10*
D03*
X642948Y-193668D02*
G54D10*
D03*
X633448Y-171468D02*
G54D10*
D03*
X682799Y-193675D02*
G54D16*
D03*
X662199Y-193675D02*
G54D16*
D03*
G54D17*
X10000Y-10000D02*
X10000Y-292000D01*
G36*
X21000Y-10000D02*
X-1000Y-10000D01*
X-1000Y1000D01*
X21000Y1000D01*
X21000Y-10000D01*
G37*
G36*
X-1000Y-292000D02*
X21000Y-292000D01*
X21000Y-303000D01*
X-1000Y-303000D01*
X-1000Y-292000D01*
G37*
G54D17*
X792000Y-10000D02*
X792000Y-292000D01*
G36*
X803000Y-10000D02*
X781000Y-10000D01*
X781000Y1000D01*
X803000Y1000D01*
X803000Y-10000D01*
G37*
G36*
X781000Y-292000D02*
X803000Y-292000D01*
X803000Y-303000D01*
X781000Y-303000D01*
X781000Y-292000D01*
G37*
G54D17*
X10000Y-10000D02*
X792000Y-10000D01*
G36*
X10000Y1000D02*
X10000Y-21000D01*
X-1000Y-21000D01*
X-1000Y1000D01*
X10000Y1000D01*
G37*
G36*
X792000Y-21000D02*
X792000Y1000D01*
X803000Y1000D01*
X803000Y-21000D01*
X792000Y-21000D01*
G37*
G54D17*
X10000Y-292000D02*
X792000Y-292000D01*
G36*
X10000Y-281000D02*
X10000Y-303000D01*
X-1000Y-303000D01*
X-1000Y-281000D01*
X10000Y-281000D01*
G37*
G36*
X792000Y-303000D02*
X792000Y-281000D01*
X803000Y-281000D01*
X803000Y-303000D01*
X792000Y-303000D01*
G37*
G36*
X601632Y-213419D02*
X592440Y-222612D01*
X581126Y-211299D01*
X590318Y-202106D01*
X601632Y-213419D01*
G37*
G36*
X587066Y-227986D02*
X577873Y-237178D01*
X566560Y-225865D01*
X575752Y-216672D01*
X587066Y-227986D01*
G37*
X135180Y-62578D02*
G54D11*
D03*
X135180Y-83178D02*
G54D11*
D03*
M02*
