%FSLAX34Y34*%
%MOMM*%
%LNSILK_TOP*%
G71*
G01*
%ADD10C,0.150*%
%ADD11C,0.222*%
%LPD*%
G54D10*
X164622Y-108609D02*
X172560Y-108609D01*
X172560Y-140408D01*
X164622Y-140408D01*
X164622Y-108609D01*
G54D10*
X164622Y-143108D02*
X172560Y-143108D01*
X172560Y-174908D01*
X164622Y-174908D01*
X164622Y-143108D01*
G54D10*
X181616Y-106540D02*
X198678Y-106540D01*
G54D10*
X181616Y-71859D02*
X198678Y-71859D01*
G54D10*
X181616Y-106540D02*
X181616Y-71859D01*
G54D10*
X198678Y-106540D02*
X198678Y-71859D01*
G54D10*
X161416Y-106540D02*
X178478Y-106540D01*
G54D10*
X161416Y-71859D02*
X178478Y-71859D01*
G54D10*
X161416Y-106540D02*
X161416Y-71859D01*
G54D10*
X178478Y-106540D02*
X178478Y-71859D01*
G54D10*
X161416Y-211540D02*
X178478Y-211540D01*
G54D10*
X161416Y-176859D02*
X178478Y-176859D01*
G54D10*
X161416Y-211540D02*
X161416Y-176859D01*
G54D10*
X178478Y-211540D02*
X178478Y-176859D01*
G54D10*
X141216Y-211640D02*
X158278Y-211640D01*
G54D10*
X141216Y-176959D02*
X158278Y-176959D01*
G54D10*
X141216Y-211640D02*
X141216Y-176959D01*
G54D10*
X158278Y-211640D02*
X158278Y-176959D01*
G54D10*
X207823Y-108609D02*
X215760Y-108609D01*
X215760Y-140409D01*
X207822Y-140409D01*
X207823Y-108609D01*
G54D10*
X207822Y-143108D02*
X215760Y-143108D01*
X215760Y-174909D01*
X207822Y-174909D01*
X207822Y-143108D01*
G54D10*
X224816Y-106541D02*
X241878Y-106541D01*
G54D10*
X224816Y-71860D02*
X241878Y-71860D01*
G54D10*
X224816Y-106541D02*
X224816Y-71860D01*
G54D10*
X241878Y-106541D02*
X241878Y-71860D01*
G54D10*
X204616Y-106541D02*
X221678Y-106541D01*
G54D10*
X204616Y-71860D02*
X221678Y-71860D01*
G54D10*
X204616Y-106541D02*
X204616Y-71860D01*
G54D10*
X221678Y-106541D02*
X221678Y-71860D01*
G54D10*
X204616Y-211541D02*
X221678Y-211541D01*
G54D10*
X204616Y-176860D02*
X221678Y-176860D01*
G54D10*
X204616Y-211541D02*
X204616Y-176860D01*
G54D10*
X221678Y-211541D02*
X221678Y-176860D01*
G54D10*
X184416Y-211641D02*
X201478Y-211641D01*
G54D10*
X184416Y-176960D02*
X201478Y-176960D01*
G54D10*
X184416Y-211641D02*
X184416Y-176960D01*
G54D10*
X201478Y-211641D02*
X201478Y-176960D01*
G54D10*
X251122Y-108609D02*
X259060Y-108609D01*
X259060Y-140408D01*
X251122Y-140408D01*
X251122Y-108609D01*
G54D10*
X251122Y-143108D02*
X259060Y-143108D01*
X259060Y-174908D01*
X251122Y-174908D01*
X251122Y-143108D01*
G54D10*
X268116Y-106540D02*
X285178Y-106540D01*
G54D10*
X268116Y-71859D02*
X285178Y-71859D01*
G54D10*
X268116Y-106540D02*
X268116Y-71859D01*
G54D10*
X285178Y-106540D02*
X285178Y-71859D01*
G54D10*
X247916Y-106540D02*
X264978Y-106540D01*
G54D10*
X247916Y-71859D02*
X264978Y-71859D01*
G54D10*
X247916Y-106540D02*
X247916Y-71859D01*
G54D10*
X264978Y-106540D02*
X264978Y-71859D01*
G54D10*
X247916Y-211540D02*
X264978Y-211540D01*
G54D10*
X247916Y-176859D02*
X264978Y-176859D01*
G54D10*
X247916Y-211540D02*
X247916Y-176859D01*
G54D10*
X264978Y-211540D02*
X264978Y-176859D01*
G54D10*
X227716Y-211640D02*
X244778Y-211640D01*
G54D10*
X227716Y-176959D02*
X244778Y-176959D01*
G54D10*
X227716Y-211640D02*
X227716Y-176959D01*
G54D10*
X244778Y-211640D02*
X244778Y-176959D01*
G54D10*
X294323Y-108609D02*
X302260Y-108609D01*
X302260Y-140409D01*
X294322Y-140409D01*
X294323Y-108609D01*
G54D10*
X294322Y-143108D02*
X302260Y-143108D01*
X302260Y-174909D01*
X294322Y-174909D01*
X294322Y-143108D01*
G54D10*
X311316Y-106541D02*
X328378Y-106541D01*
G54D10*
X311316Y-71860D02*
X328378Y-71860D01*
G54D10*
X311316Y-106541D02*
X311316Y-71860D01*
G54D10*
X328378Y-106541D02*
X328378Y-71860D01*
G54D10*
X291116Y-106541D02*
X308178Y-106541D01*
G54D10*
X291116Y-71860D02*
X308178Y-71860D01*
G54D10*
X291116Y-106541D02*
X291116Y-71860D01*
G54D10*
X308178Y-106541D02*
X308178Y-71860D01*
G54D10*
X291116Y-211541D02*
X308178Y-211541D01*
G54D10*
X291116Y-176860D02*
X308178Y-176860D01*
G54D10*
X291116Y-211541D02*
X291116Y-176860D01*
G54D10*
X308178Y-211541D02*
X308178Y-176860D01*
G54D10*
X270916Y-211641D02*
X287978Y-211641D01*
G54D10*
X270916Y-176960D02*
X287978Y-176960D01*
G54D10*
X270916Y-211641D02*
X270916Y-176960D01*
G54D10*
X287978Y-211641D02*
X287978Y-176960D01*
G54D10*
X337622Y-108609D02*
X345560Y-108609D01*
X345560Y-140408D01*
X337622Y-140408D01*
X337622Y-108609D01*
G54D10*
X337622Y-143108D02*
X345560Y-143108D01*
X345560Y-174908D01*
X337622Y-174908D01*
X337622Y-143108D01*
G54D10*
X354616Y-106540D02*
X371678Y-106540D01*
G54D10*
X354616Y-71859D02*
X371678Y-71859D01*
G54D10*
X354616Y-106540D02*
X354616Y-71859D01*
G54D10*
X371678Y-106540D02*
X371678Y-71859D01*
G54D10*
X334416Y-106540D02*
X351478Y-106540D01*
G54D10*
X334416Y-71859D02*
X351478Y-71859D01*
G54D10*
X334416Y-106540D02*
X334416Y-71859D01*
G54D10*
X351478Y-106540D02*
X351478Y-71859D01*
G54D10*
X334416Y-211540D02*
X351478Y-211540D01*
G54D10*
X334416Y-176859D02*
X351478Y-176859D01*
G54D10*
X334416Y-211540D02*
X334416Y-176859D01*
G54D10*
X351478Y-211540D02*
X351478Y-176859D01*
G54D10*
X314216Y-211640D02*
X331278Y-211640D01*
G54D10*
X314216Y-176959D02*
X331278Y-176959D01*
G54D10*
X314216Y-211640D02*
X314216Y-176959D01*
G54D10*
X331278Y-211640D02*
X331278Y-176959D01*
G54D10*
X380823Y-108609D02*
X388760Y-108609D01*
X388760Y-140409D01*
X380822Y-140409D01*
X380823Y-108609D01*
G54D10*
X380822Y-143108D02*
X388760Y-143108D01*
X388760Y-174909D01*
X380822Y-174909D01*
X380822Y-143108D01*
G54D10*
X397816Y-106541D02*
X414878Y-106541D01*
G54D10*
X397816Y-71860D02*
X414878Y-71860D01*
G54D10*
X397816Y-106541D02*
X397816Y-71860D01*
G54D10*
X414878Y-106541D02*
X414878Y-71860D01*
G54D10*
X377616Y-106541D02*
X394678Y-106541D01*
G54D10*
X377616Y-71860D02*
X394678Y-71860D01*
G54D10*
X377616Y-106541D02*
X377616Y-71860D01*
G54D10*
X394678Y-106541D02*
X394678Y-71860D01*
G54D10*
X377616Y-211541D02*
X394678Y-211541D01*
G54D10*
X377616Y-176860D02*
X394678Y-176860D01*
G54D10*
X377616Y-211541D02*
X377616Y-176860D01*
G54D10*
X394678Y-211541D02*
X394678Y-176860D01*
G54D10*
X357416Y-211641D02*
X374478Y-211641D01*
G54D10*
X357416Y-176960D02*
X374478Y-176960D01*
G54D10*
X357416Y-211641D02*
X357416Y-176960D01*
G54D10*
X374478Y-211641D02*
X374478Y-176960D01*
G54D10*
X424122Y-108609D02*
X432060Y-108609D01*
X432060Y-140408D01*
X424122Y-140408D01*
X424122Y-108609D01*
G54D10*
X424122Y-143108D02*
X432060Y-143108D01*
X432060Y-174908D01*
X424122Y-174908D01*
X424122Y-143108D01*
G54D10*
X441116Y-106540D02*
X458178Y-106540D01*
G54D10*
X441116Y-71859D02*
X458178Y-71859D01*
G54D10*
X441116Y-106540D02*
X441116Y-71859D01*
G54D10*
X458178Y-106540D02*
X458178Y-71859D01*
G54D10*
X420916Y-106540D02*
X437978Y-106540D01*
G54D10*
X420916Y-71859D02*
X437978Y-71859D01*
G54D10*
X420916Y-106540D02*
X420916Y-71859D01*
G54D10*
X437978Y-106540D02*
X437978Y-71859D01*
G54D10*
X420916Y-211540D02*
X437978Y-211540D01*
G54D10*
X420916Y-176859D02*
X437978Y-176859D01*
G54D10*
X420916Y-211540D02*
X420916Y-176859D01*
G54D10*
X437978Y-211540D02*
X437978Y-176859D01*
G54D10*
X400716Y-211640D02*
X417778Y-211640D01*
G54D10*
X400716Y-176959D02*
X417778Y-176959D01*
G54D10*
X400716Y-211640D02*
X400716Y-176959D01*
G54D10*
X417778Y-211640D02*
X417778Y-176959D01*
G54D10*
X467323Y-108609D02*
X475260Y-108609D01*
X475260Y-140409D01*
X467322Y-140409D01*
X467323Y-108609D01*
G54D10*
X467322Y-143108D02*
X475260Y-143108D01*
X475260Y-174909D01*
X467322Y-174909D01*
X467322Y-143108D01*
G54D10*
X484316Y-106541D02*
X501378Y-106541D01*
G54D10*
X484316Y-71860D02*
X501378Y-71860D01*
G54D10*
X484316Y-106541D02*
X484316Y-71860D01*
G54D10*
X501378Y-106541D02*
X501378Y-71860D01*
G54D10*
X464116Y-106541D02*
X481178Y-106541D01*
G54D10*
X464116Y-71860D02*
X481178Y-71860D01*
G54D10*
X464116Y-106541D02*
X464116Y-71860D01*
G54D10*
X481178Y-106541D02*
X481178Y-71860D01*
G54D10*
X464116Y-211541D02*
X481178Y-211541D01*
G54D10*
X464116Y-176860D02*
X481178Y-176860D01*
G54D10*
X464116Y-211541D02*
X464116Y-176860D01*
G54D10*
X481178Y-211541D02*
X481178Y-176860D01*
G54D10*
X443916Y-211641D02*
X460978Y-211641D01*
G54D10*
X443916Y-176960D02*
X460978Y-176960D01*
G54D10*
X443916Y-211641D02*
X443916Y-176960D01*
G54D10*
X460978Y-211641D02*
X460978Y-176960D01*
G54D10*
X510623Y-108609D02*
X518560Y-108609D01*
X518560Y-140409D01*
X510622Y-140409D01*
X510623Y-108609D01*
G54D10*
X510623Y-143109D02*
X518560Y-143109D01*
X518560Y-174909D01*
X510623Y-174909D01*
X510623Y-143109D01*
G54D10*
X527616Y-106541D02*
X544678Y-106541D01*
G54D10*
X527616Y-71860D02*
X544678Y-71860D01*
G54D10*
X527616Y-106541D02*
X527616Y-71860D01*
G54D10*
X544678Y-106541D02*
X544678Y-71860D01*
G54D10*
X507416Y-106541D02*
X524478Y-106541D01*
G54D10*
X507416Y-71860D02*
X524478Y-71860D01*
G54D10*
X507416Y-106541D02*
X507416Y-71860D01*
G54D10*
X524478Y-106541D02*
X524478Y-71860D01*
G54D10*
X507416Y-211541D02*
X524478Y-211541D01*
G54D10*
X507416Y-176860D02*
X524478Y-176860D01*
G54D10*
X507416Y-211541D02*
X507416Y-176860D01*
G54D10*
X524478Y-211541D02*
X524478Y-176860D01*
G54D10*
X487216Y-211641D02*
X504278Y-211641D01*
G54D10*
X487216Y-176960D02*
X504278Y-176960D01*
G54D10*
X487216Y-211641D02*
X487216Y-176960D01*
G54D10*
X504278Y-211641D02*
X504278Y-176960D01*
G54D10*
X553823Y-108610D02*
X561760Y-108610D01*
X561760Y-140410D01*
X553823Y-140410D01*
X553823Y-108610D01*
G54D10*
X553823Y-143109D02*
X561760Y-143109D01*
X561760Y-174909D01*
X553823Y-174909D01*
X553823Y-143109D01*
G54D10*
X570816Y-106542D02*
X587878Y-106542D01*
G54D10*
X570816Y-71860D02*
X587878Y-71860D01*
G54D10*
X570816Y-106542D02*
X570816Y-71860D01*
G54D10*
X587878Y-106542D02*
X587878Y-71860D01*
G54D10*
X550616Y-106542D02*
X567678Y-106542D01*
G54D10*
X550616Y-71860D02*
X567678Y-71860D01*
G54D10*
X550616Y-106542D02*
X550616Y-71860D01*
G54D10*
X567678Y-106542D02*
X567678Y-71860D01*
G54D10*
X550616Y-211542D02*
X567678Y-211542D01*
G54D10*
X550616Y-176861D02*
X567678Y-176861D01*
G54D10*
X550616Y-211542D02*
X550616Y-176861D01*
G54D10*
X567678Y-211542D02*
X567678Y-176861D01*
G54D10*
X530416Y-211642D02*
X547478Y-211642D01*
G54D10*
X530416Y-176961D02*
X547478Y-176961D01*
G54D10*
X530416Y-211642D02*
X530416Y-176961D01*
G54D10*
X547478Y-211642D02*
X547478Y-176961D01*
G54D10*
X126419Y-151075D02*
X143482Y-151075D01*
G54D10*
X126419Y-116394D02*
X143482Y-116394D01*
G54D10*
X126419Y-151075D02*
X126419Y-116394D01*
G54D10*
X143482Y-151075D02*
X143482Y-116394D01*
G54D10*
X118409Y-111465D02*
X118409Y-155903D01*
X62935Y-155903D01*
X62935Y-111465D01*
X118409Y-111465D01*
G54D10*
X111166Y-213522D02*
X128228Y-213522D01*
G54D10*
X111166Y-178841D02*
X128228Y-178841D01*
G54D10*
X111166Y-213522D02*
X111166Y-178841D01*
G54D10*
X128228Y-213522D02*
X128228Y-178841D01*
G54D10*
X107828Y-158047D02*
X90766Y-158047D01*
G54D10*
X107828Y-192728D02*
X90766Y-192729D01*
G54D10*
X107828Y-158047D02*
X107828Y-192728D01*
G54D10*
X90766Y-158047D02*
X90766Y-192729D01*
G54D10*
X682909Y-108465D02*
X682909Y-152903D01*
X627435Y-152903D01*
X627435Y-108465D01*
X682909Y-108465D01*
G54D10*
X597023Y-108610D02*
X604960Y-108610D01*
X604960Y-140410D01*
X597023Y-140410D01*
X597023Y-108610D01*
G54D10*
X597023Y-143110D02*
X604960Y-143110D01*
X604960Y-174910D01*
X597023Y-174910D01*
X597023Y-143110D01*
G54D10*
X614016Y-106542D02*
X631079Y-106542D01*
G54D10*
X614016Y-71861D02*
X631079Y-71861D01*
G54D10*
X614016Y-106542D02*
X614016Y-71861D01*
G54D10*
X631079Y-106542D02*
X631079Y-71861D01*
G54D10*
X593816Y-106542D02*
X610879Y-106542D01*
G54D10*
X593816Y-71861D02*
X610879Y-71861D01*
G54D10*
X593816Y-106542D02*
X593816Y-71861D01*
G54D10*
X610879Y-106542D02*
X610879Y-71861D01*
G54D10*
X617548Y-186587D02*
X617548Y-178649D01*
X649349Y-178649D01*
X649349Y-186587D01*
X617548Y-186587D01*
G54D10*
X655061Y-185094D02*
X655061Y-202156D01*
G54D10*
X689742Y-185094D02*
X689742Y-202156D01*
G54D10*
X655061Y-185094D02*
X689742Y-185094D01*
G54D10*
X655061Y-202156D02*
X689742Y-202156D01*
G54D10*
X565698Y-225904D02*
X577763Y-237970D01*
G54D10*
X590221Y-201381D02*
X602286Y-213446D01*
G54D10*
X565698Y-225904D02*
X590221Y-201381D01*
G54D10*
X577763Y-237970D02*
X602286Y-213446D01*
G54D11*
X30508Y-194350D02*
X30508Y-176572D01*
G54D11*
X35397Y-194350D02*
X35397Y-176572D01*
X46064Y-194350D01*
X46064Y-176572D01*
G54D11*
X750711Y-261222D02*
X761822Y-261222D01*
X764044Y-262555D01*
X765156Y-265222D01*
X765156Y-267888D01*
X764044Y-270555D01*
X761822Y-271888D01*
X750711Y-271888D01*
X748489Y-270555D01*
X747378Y-267888D01*
X747378Y-265222D01*
X748489Y-262555D01*
X750711Y-261222D01*
G54D11*
X747378Y-256332D02*
X761822Y-256332D01*
X764044Y-254999D01*
X765155Y-252332D01*
X765156Y-249666D01*
X764044Y-246999D01*
X761822Y-245666D01*
X747378Y-245666D01*
G54D11*
X765156Y-235443D02*
X747378Y-235443D01*
G54D11*
X747378Y-240776D02*
X747378Y-230110D01*
G54D11*
X756268Y-210171D02*
X758490Y-206171D01*
X760713Y-204838D01*
X765157Y-204838D01*
G54D11*
X765157Y-215505D02*
X747379Y-215505D01*
X747379Y-208838D01*
X748490Y-206171D01*
X750712Y-204838D01*
X752935Y-204838D01*
X755157Y-206171D01*
X756268Y-208838D01*
X756268Y-215505D01*
G54D11*
X765157Y-190615D02*
X765157Y-199949D01*
X747379Y-199949D01*
X747379Y-190615D01*
G54D11*
X756268Y-199949D02*
X756268Y-190615D01*
G54D11*
X765157Y-185727D02*
X747379Y-185727D01*
X747379Y-176393D01*
G54D11*
X756268Y-185727D02*
X756268Y-176393D01*
G54D11*
X765157Y-171505D02*
X765157Y-171505D01*
G54D11*
X765157Y-155505D02*
X747379Y-155505D01*
X747379Y-148838D01*
X748490Y-146171D01*
X750713Y-144838D01*
X752935Y-144838D01*
X755157Y-146171D01*
X756268Y-148838D01*
X756268Y-155505D01*
G54D11*
X765157Y-139949D02*
X747379Y-139949D01*
G54D11*
X758046Y-139949D02*
X755824Y-138615D01*
X755157Y-135949D01*
X755824Y-133282D01*
X758046Y-131949D01*
X765157Y-131949D01*
G54D11*
X756268Y-127060D02*
X755157Y-124393D01*
X755157Y-121193D01*
X757379Y-119060D01*
X765157Y-119060D01*
G54D11*
X761824Y-119060D02*
X759602Y-120393D01*
X759157Y-123060D01*
X759602Y-125726D01*
X761824Y-127060D01*
X764046Y-126526D01*
X765157Y-124393D01*
X765157Y-123060D01*
X765157Y-122526D01*
X764046Y-120393D01*
X761824Y-119060D01*
G54D11*
X764046Y-114171D02*
X765157Y-111504D01*
X765157Y-108837D01*
X764046Y-106171D01*
X761824Y-106171D01*
X760713Y-107504D01*
X759602Y-112837D01*
X758490Y-114171D01*
X756268Y-114171D01*
X755157Y-111504D01*
X755157Y-108837D01*
X756268Y-106171D01*
G54D11*
X764046Y-93282D02*
X765157Y-95415D01*
X765157Y-98082D01*
X764046Y-100748D01*
X761824Y-101282D01*
X758046Y-101282D01*
X755824Y-99948D01*
X755157Y-97282D01*
X755824Y-94615D01*
X757379Y-93282D01*
X759602Y-93282D01*
X759602Y-101282D01*
G54D11*
X747107Y-73393D02*
X764884Y-66726D01*
X747107Y-60060D01*
G54D11*
X764884Y-55171D02*
X754884Y-55171D01*
G54D11*
X751551Y-55171D02*
X751551Y-55171D01*
G54D11*
X764884Y-50282D02*
X754884Y-50282D01*
G54D11*
X757107Y-50282D02*
X755551Y-48948D01*
X754884Y-46282D01*
X755551Y-43615D01*
X757107Y-42282D01*
X764884Y-42282D01*
G54D11*
X110281Y-62009D02*
X110281Y-51342D01*
G54D11*
X105837Y-56676D02*
X114725Y-56676D01*
G54D10*
X126599Y-90315D02*
X143662Y-90315D01*
G54D10*
X126599Y-55634D02*
X143662Y-55634D01*
G54D10*
X126599Y-90315D02*
X126599Y-55634D01*
G54D10*
X143662Y-90315D02*
X143662Y-55634D01*
M02*
