; Drill file
; Format: 2.4 (00.0000)
M48
INCH
T01C0.0118
T02C0.0157
T03C0.0315
%
G05
G90
T01
X000390Y-011500
X000790Y-011500
X001180Y-011500
X001570Y-011500
X001970Y-011500
X002360Y-011500
X002760Y-011500
X003150Y-011500
X003540Y-011500
X003940Y-011500
X004330Y-011500
X004720Y-011500
X005120Y-011500
X005510Y-011500
X005910Y-011500
X006300Y-011500
X006690Y-011500
X007090Y-011500
X007480Y-011500
X007870Y-011500
X008270Y-011500
X008660Y-011500
X009060Y-011500
X009450Y-011500
X009840Y-011500
X010240Y-011500
X010630Y-011500
X011020Y-011500
X011420Y-011500
X011810Y-011500
X012200Y-011500
X012600Y-011500
X012990Y-011500
X013390Y-011500
X013780Y-011500
X014170Y-011500
X014570Y-011500
X014960Y-011500
X015350Y-011500
X015750Y-011500
X016140Y-011500
X016540Y-011500
X016930Y-011500
X017320Y-011500
X017720Y-011500
X018110Y-011500
X018500Y-011500
X018900Y-011500
X019290Y-011500
X019690Y-011500
X020080Y-011500
X020470Y-011500
X020870Y-011500
X021260Y-011500
X021650Y-011500
X022050Y-011500
X022440Y-011500
X022830Y-011500
X023230Y-011500
X023620Y-011500
X024020Y-011500
X024410Y-011500
X024800Y-011500
X025200Y-011500
X025590Y-011500
X025980Y-011500
X026380Y-011500
X026770Y-011500
X027170Y-011500
X027560Y-011500
X027950Y-011500
X028350Y-011500
X028740Y-011500
X029130Y-011500
X029530Y-011500
X029920Y-011500
X030310Y-011500
X030710Y-011500
X031180Y-011500
X031180Y-011020
X031180Y-010630
X031180Y-010240
X031180Y-009840
X031180Y-009450
X031180Y-009060
X031180Y-008660
X031180Y-008270
X031180Y-007870
X031180Y-007480
X031180Y-007090
X031180Y-006690
X031180Y-006300
X031180Y-005910
X031180Y-005510
X031180Y-005120
X031180Y-004720
X031180Y-004330
X031180Y-003940
X031180Y-003540
X031180Y-003150
X031180Y-002760
X031180Y-002360
X031180Y-001970
X031180Y-001570
X031180Y-001180
X031180Y-000790
X031180Y-000390
X030710Y-000390
X030310Y-000390
X029920Y-000390
X029530Y-000390
X029130Y-000390
X028740Y-000390
X028350Y-000390
X027950Y-000390
X027560Y-000390
X027170Y-000390
X026770Y-000390
X026380Y-000390
X025980Y-000390
X025590Y-000390
X025200Y-000390
X024800Y-000390
X024410Y-000390
X024020Y-000390
X023620Y-000390
X023230Y-000390
X022830Y-000390
X022440Y-000390
X022050Y-000390
X021650Y-000390
X021260Y-000390
X020870Y-000390
X020470Y-000390
X020080Y-000390
X019690Y-000390
X019290Y-000390
X018900Y-000390
X018500Y-000390
X018110Y-000390
X017720Y-000390
X017320Y-000390
X016930Y-000390
X016540Y-000390
X016140Y-000390
X015750Y-000390
X015350Y-000390
X014960Y-000390
X014570Y-000390
X014170Y-000390
X013780Y-000390
X013390Y-000390
X012990Y-000390
X012600Y-000390
X012200Y-000390
X011810Y-000390
X011420Y-000390
X011020Y-000390
X010630Y-000390
X010240Y-000390
X009840Y-000390
X009450Y-000390
X009060Y-000390
X008660Y-000390
X008270Y-000390
X007870Y-000390
X007480Y-000390
X007090Y-000390
X006690Y-000390
X006300Y-000390
X005910Y-000390
X005510Y-000390
X005120Y-000390
X004720Y-000390
X004330Y-000390
X003940Y-000390
X003540Y-000390
X003150Y-000390
X002760Y-000390
X002360Y-000390
X001970Y-000390
X001570Y-000390
X001180Y-000390
X000790Y-000390
X000390Y-000390
X000390Y-000790
X000390Y-001180
X000390Y-001570
X000390Y-001970
X000390Y-002360
X000390Y-002760
X000390Y-003150
X000390Y-003540
X000390Y-003940
X000390Y-004330
X000390Y-004720
X000390Y-005120
X000390Y-005510
X000390Y-005910
X000390Y-006300
X000390Y-006690
X000390Y-007090
X000390Y-007480
X000390Y-007870
X000390Y-008270
X000390Y-008660
X000390Y-009060
X000390Y-009450
X000390Y-009840
X000390Y-010240
X000390Y-010630
X000390Y-011020
X001690Y-010810
X002600Y-010570
X003000Y-009720
X003430Y-009990
X003830Y-010830
X004610Y-010700
X004750Y-010120
X004200Y-009360
X003660Y-008970
X003460Y-008120
X003660Y-007950
X003920Y-007970
X004230Y-007890
X004220Y-008170
X004710Y-008720
X004910Y-008550
X005100Y-008720
X005300Y-008550
X005500Y-008720
X005690Y-008550
X005890Y-008720
X006090Y-008550
X006280Y-008720
X006480Y-008550
X006680Y-008720
X006880Y-008550
X007070Y-008720
X007270Y-008550
X007460Y-008720
X007660Y-008550
X007860Y-008720
X008060Y-008550
X008250Y-008720
X008450Y-008550
X008650Y-008720
X008840Y-008550
X009040Y-008720
X009240Y-008550
X009430Y-008720
X009630Y-008550
X009830Y-008720
X010030Y-008550
X010220Y-008720
X010420Y-008550
X010610Y-008720
X010810Y-008550
X011010Y-008720
X011210Y-008550
X011400Y-008720
X011600Y-008550
X011800Y-008720
X011990Y-008550
X012190Y-008720
X012390Y-008550
X012580Y-008720
X012780Y-008550
X012980Y-008720
X013180Y-008550
X013370Y-008720
X013570Y-008550
X013760Y-008720
X013960Y-008550
X014160Y-008720
X014360Y-008550
X014550Y-008720
X014750Y-008550
X014940Y-008720
X015140Y-008550
X015340Y-008720
X015540Y-008550
X015730Y-008720
X015930Y-008550
X016130Y-008720
X016320Y-008550
X016520Y-008720
X016720Y-008550
X016910Y-008720
X017110Y-008550
X017310Y-008720
X017510Y-008550
X017700Y-008720
X017900Y-008550
X018090Y-008720
X018290Y-008550
X018490Y-008720
X018690Y-008550
X018880Y-008720
X019080Y-008550
X019280Y-008720
X019470Y-008550
X019670Y-008720
X019870Y-008550
X020060Y-008720
X020260Y-008550
X020460Y-008720
X020660Y-008550
X020850Y-008720
X021050Y-008550
X021240Y-008720
X021440Y-008550
X021640Y-008720
X021840Y-008550
X022030Y-008720
X022180Y-008940
X022340Y-009160
X022520Y-009350
X022820Y-009450
X023000Y-009270
X023190Y-009050
X023400Y-009210
X023590Y-009410
X023800Y-009620
X023990Y-009800
X024230Y-010040
X024440Y-010240
X024720Y-010380
X025040Y-010380
X025370Y-010380
X025700Y-010370
X025990Y-010390
X026320Y-010370
X026690Y-010370
X026960Y-010360
X027220Y-010370
X027380Y-010590
X027600Y-010730
X027840Y-010820
X028090Y-010840
X028340Y-010800
X028560Y-010690
X028750Y-010540
X028890Y-010340
X028990Y-010100
X029010Y-009850
X028970Y-009610
X028870Y-009380
X028730Y-009190
X028530Y-009040
X028290Y-008950
X028040Y-008920
X027790Y-008960
X027560Y-009060
X027360Y-009220
X027220Y-009420
X026960Y-009410
X026650Y-009400
X026320Y-009390
X026330Y-009060
X025990Y-009400
X025670Y-009400
X025390Y-009410
X025130Y-009410
X024880Y-009260
X024690Y-009070
X024510Y-008880
X024300Y-008690
X024110Y-008500
X023950Y-008310
X024170Y-008190
X023950Y-008030
X023930Y-007760
X023950Y-007500
X024020Y-007240
X024050Y-007000
X024050Y-006760
X022720Y-007100
X022540Y-006920
X022580Y-007340
X022760Y-007530
X022540Y-007620
X022510Y-008490
X022230Y-008550
X021640Y-009290
X022170Y-010150
X021590Y-010780
X021020Y-010170
X020470Y-010530
X019580Y-010120
X019290Y-009470
X018280Y-009530
X018250Y-010240
X018830Y-010750
X017340Y-010820
X017340Y-010080
X016950Y-009450
X016310Y-010150
X016180Y-010730
X015220Y-010160
X014670Y-010520
X013780Y-010110
X013490Y-009460
X012480Y-009520
X012450Y-010230
X013030Y-010740
X011540Y-010810
X011540Y-010070
X011150Y-009440
X010510Y-010140
X010380Y-010720
X009460Y-010130
X008910Y-010490
X008020Y-010080
X007730Y-009430
X006720Y-009500
X006690Y-010200
X007270Y-010720
X005780Y-010790
X005780Y-010050
X005390Y-009420
X005260Y-008240
X005260Y-007940
X005350Y-007670
X005350Y-007380
X005360Y-007100
X005260Y-006860
X005380Y-006640
X005110Y-006640
X004920Y-006800
X004810Y-006580
X004530Y-006550
X004520Y-006800
X003180Y-008230
X002910Y-008270
X002640Y-008230
X002390Y-008100
X002190Y-007910
X002050Y-007660
X002000Y-007390
X002020Y-007130
X002100Y-006880
X002270Y-006680
X002460Y-006540
X002030Y-006370
X001760Y-006180
X002030Y-005980
X001760Y-005790
X002030Y-005580
X001760Y-005400
X002030Y-005190
X001760Y-005000
X002030Y-004800
X001760Y-004610
X002030Y-004400
X001760Y-004210
X001760Y-003820
X002150Y-003820
X002150Y-003430
X001760Y-003430
X001760Y-003030
X002150Y-003030
X002150Y-002640
X001760Y-002640
X001710Y-002140
X002150Y-001850
X002550Y-001850
X002940Y-001850
X003330Y-002250
X003730Y-002250
X004120Y-002250
X004110Y-001720
X004660Y-001950
X005090Y-001950
X005520Y-001950
X005830Y-002020
X006040Y-002180
X006300Y-002190
X006290Y-002450
X006480Y-002640
X006680Y-002450
X006880Y-002640
X007070Y-002450
X007270Y-002640
X007470Y-002450
X007660Y-002640
X007860Y-002450
X008060Y-002640
X008250Y-002450
X008450Y-002640
X008650Y-002450
X008840Y-002640
X009040Y-002450
X009240Y-002640
X009430Y-002450
X009630Y-002640
X009830Y-002450
X010030Y-002640
X010220Y-002450
X010420Y-002640
X010620Y-002450
X010810Y-002640
X011010Y-002450
X011210Y-002640
X011400Y-002450
X011600Y-002640
X011800Y-002450
X011990Y-002640
X012190Y-002450
X012390Y-002640
X012580Y-002450
X012780Y-002640
X012980Y-002450
X013180Y-002640
X013370Y-002450
X013570Y-002640
X013770Y-002450
X013960Y-002640
X014160Y-002450
X014360Y-002640
X014550Y-002450
X014750Y-002640
X014950Y-002450
X015140Y-002640
X015340Y-002450
X015540Y-002640
X015730Y-002450
X015930Y-002640
X016130Y-002450
X016320Y-002640
X016520Y-002450
X016720Y-002640
X016910Y-002450
X017110Y-002640
X017310Y-002450
X017510Y-002640
X017700Y-002450
X017900Y-002640
X018100Y-002450
X018290Y-002640
X018490Y-002450
X018690Y-002640
X018880Y-002450
X019080Y-002640
X019280Y-002450
X019470Y-002640
X019670Y-002450
X019810Y-002660
X019780Y-002140
X019880Y-001900
X020040Y-001700
X020250Y-001550
X020500Y-001500
X020760Y-001530
X021010Y-001640
X021190Y-001830
X021310Y-002080
X021320Y-002420
X021440Y-002640
X021650Y-002450
X021840Y-002640
X022040Y-002450
X022230Y-002640
X022440Y-002450
X022620Y-002640
X022830Y-002450
X023020Y-002640
X023230Y-002450
X023410Y-002640
X023620Y-002450
X023810Y-002640
X024010Y-002450
X024200Y-002640
X024410Y-002450
X024590Y-002640
X024800Y-002450
X024990Y-002640
X025190Y-002450
X025380Y-002640
X025510Y-002890
X025540Y-003180
X025430Y-003480
X025670Y-003680
X025850Y-003860
X026100Y-003860
X026380Y-003850
X026660Y-003840
X026900Y-003850
X027150Y-003860
X027380Y-003980
X027610Y-003840
X027870Y-003770
X028150Y-003760
X028420Y-003820
X028650Y-003950
X028850Y-004150
X028980Y-004390
X029060Y-004680
X029040Y-004950
X028940Y-005190
X028780Y-005410
X028580Y-005570
X028350Y-005670
X028110Y-005710
X027860Y-005710
X027630Y-005630
X027590Y-005870
X027600Y-006120
X027550Y-006350
X027320Y-006210
X027350Y-005960
X027340Y-005710
X027400Y-005480
X027180Y-006430
X026930Y-006430
X026670Y-006430
X026410Y-006430
X026160Y-006430
X025920Y-006520
X025960Y-006760
X025870Y-007000
X026140Y-007010
X026410Y-007010
X026670Y-007010
X026720Y-006760
X026960Y-007000
X027280Y-007020
X027470Y-006840
X027410Y-006580
X027170Y-006700
X027700Y-006700
X027970Y-006640
X028240Y-006660
X028500Y-006730
X028710Y-006890
X028880Y-007090
X028990Y-007330
X029020Y-007590
X029000Y-007870
X028890Y-008100
X028740Y-008310
X028540Y-008460
X028310Y-008560
X028060Y-008590
X027800Y-008540
X027560Y-008450
X027360Y-008290
X027110Y-008230
X026850Y-008240
X026590Y-008250
X026320Y-008250
X026050Y-008240
X025780Y-008240
X025520Y-008230
X025260Y-008220
X024990Y-008200
X024720Y-008190
X024450Y-008200
X024840Y-008620
X025270Y-009070
X025760Y-008800
X026840Y-008680
X027090Y-009020
X026600Y-010970
X025490Y-010940
X024320Y-010870
X023380Y-010370
X023260Y-009770
X022700Y-010960
X020420Y-009500
X020770Y-007640
X019070Y-007640
X017370Y-007640
X015660Y-007640
X013960Y-007640
X012250Y-007640
X010550Y-007640
X008840Y-007640
X007150Y-007640
X008860Y-009470
X009960Y-009390
X014620Y-009490
X015770Y-009400
X016450Y-003510
X014760Y-003510
X015300Y-001940
X015860Y-001290
X016840Y-001820
X017440Y-001220
X018260Y-001870
X018600Y-001400
X019310Y-001890
X019690Y-001130
X021640Y-001160
X022250Y-001450
X021970Y-001960
X022570Y-002000
X023120Y-001560
X023530Y-001910
X024000Y-001520
X023930Y-001080
X024790Y-001110
X024920Y-001640
X025250Y-001950
X025740Y-002180
X025590Y-002450
X025770Y-002640
X025960Y-002800
X026170Y-002990
X026450Y-003100
X026730Y-003090
X027010Y-002990
X027270Y-003040
X027510Y-003200
X027760Y-003330
X028080Y-003370
X028390Y-003320
X028660Y-003160
X028880Y-002980
X029000Y-002700
X029030Y-002310
X028980Y-002020
X028860Y-001770
X028640Y-001570
X028350Y-001420
X028030Y-001390
X027730Y-001470
X027400Y-001610
X027070Y-001700
X026790Y-001510
X026990Y-001290
X026440Y-001500
X026120Y-001620
X025900Y-001860
X025680Y-001350
X026340Y-001100
X027540Y-001080
X028160Y-001010
X028750Y-001100
X029140Y-001520
X029410Y-002020
X029440Y-002660
X029200Y-003210
X028800Y-003600
X029870Y-004180
X029780Y-005220
X030380Y-005270
X029650Y-006210
X030040Y-007190
X029840Y-008470
X029900Y-009710
X030180Y-010660
X029460Y-010800
X028350Y-006180
X026330Y-006720
X026610Y-003510
X027250Y-003480
X025960Y-003400
X024340Y-001890
X022790Y-001080
X023260Y-003520
X021570Y-003510
X019860Y-003510
X018160Y-003510
X014720Y-001250
X013720Y-001850
X013320Y-001250
X012190Y-001870
X011700Y-001180
X010770Y-001890
X010250Y-001250
X009320Y-001870
X008790Y-001270
X007990Y-001880
X007650Y-001330
X006850Y-001940
X006120Y-001250
X004780Y-001400
X003580Y-001250
X002160Y-001200
X001290Y-001650
X001310Y-002910
X001200Y-004050
X002550Y-003820
X002550Y-003430
X002550Y-003030
X002550Y-002640
X002940Y-003820
X003730Y-003820
X003880Y-003620
X003730Y-003430
X004130Y-003730
X003970Y-003950
X004290Y-003960
X004450Y-003750
X004640Y-003960
X004730Y-003700
X007940Y-003510
X009640Y-003510
X011350Y-003510
X013050Y-003510
X001760Y-006580
X001760Y-006970
X001290Y-007410
X001380Y-008590
X002400Y-009050
X002050Y-009590
X001420Y-009900
X001200Y-005760
X030160Y-003060
X030090Y-001510
T02
X005870Y-006630
X005870Y-005280
X004750Y-005260
X005310Y-003670
X007570Y-005280
X007570Y-006630
X009270Y-006630
X009270Y-005280
X010970Y-005280
X010970Y-006630
X012680Y-006630
X012680Y-005280
X014380Y-005280
X014380Y-006630
X016080Y-006630
X016080Y-005280
X017790Y-005280
X017790Y-006630
X019490Y-006630
X019490Y-005280
X021190Y-005280
X021190Y-006630
X022890Y-006630
X022890Y-005280
X024630Y-005150
X025480Y-006740
X025690Y-007630
X025040Y-003110
X026550Y-002280
X020550Y-002280
T03
X003330Y-003050
X004330Y-003050
M30
