<svg width="1746" height="1226" xmlns="http://www.w3.org/2000/svg" xmlns:xlink="http://www.w3.org/1999/xlink" xml:space="preserve" overflow="hidden"><defs><clipPath id="clip0"><rect x="2602" y="96" width="1746" height="1226"/></clipPath><clipPath id="clip1"><rect x="2602" y="96" width="1746" height="1225"/></clipPath><clipPath id="clip2"><rect x="2602" y="96" width="1746" height="1225"/></clipPath><clipPath id="clip3"><rect x="2602" y="96" width="1746" height="1225"/></clipPath><clipPath id="clip4"><rect x="2602" y="96" width="1746" height="1225"/></clipPath><clipPath id="clip5"><rect x="2602" y="96" width="1746" height="1225"/></clipPath><clipPath id="clip6"><rect x="2602" y="96" width="1746" height="1225"/></clipPath><clipPath id="clip7"><rect x="2602" y="96" width="1746" height="1225"/></clipPath><clipPath id="clip8"><rect x="2838" y="265" width="1450" height="828"/></clipPath><clipPath id="clip9"><rect x="2602" y="96" width="1746" height="1225"/></clipPath><clipPath id="clip10"><rect x="2602" y="96" width="1746" height="1225"/></clipPath><clipPath id="clip11"><rect x="2602" y="96" width="1746" height="1225"/></clipPath><clipPath id="clip12"><rect x="2602" y="96" width="1746" height="1225"/></clipPath><clipPath id="clip13"><rect x="2602" y="96" width="1746" height="1225"/></clipPath><clipPath id="clip14"><rect x="2602" y="96" width="1746" height="1225"/></clipPath><clipPath id="clip15"><rect x="2602" y="96" width="1746" height="1225"/></clipPath><clipPath id="clip16"><rect x="2602" y="96" width="1746" height="1225"/></clipPath><clipPath id="clip17"><rect x="2602" y="96" width="1746" height="1225"/></clipPath><clipPath id="clip18"><rect x="2602" y="96" width="1746" height="1225"/></clipPath><clipPath id="clip19"><rect x="2602" y="96" width="1746" height="1225"/></clipPath><clipPath id="clip20"><rect x="2602" y="96" width="1746" height="1225"/></clipPath><clipPath id="clip21"><rect x="2602" y="96" width="1746" height="1225"/></clipPath><clipPath id="clip22"><rect x="2602" y="96" width="1746" height="1225"/></clipPath></defs><g clip-path="url(#clip0)" transform="translate(-2602 -96)"><rect x="2602" y="95.9999" width="1746" height="1226" fill="#FFFFFF"/><g clip-path="url(#clip1)"><path d="M2838.5 1048.53 4285.5 1048.53M2838.5 1007.53 4285.5 1007.53M2838.5 966.532 4285.5 966.532M2838.5 925.531 4285.5 925.531M2838.5 842.528 4285.5 842.528M2838.5 801.526 4285.5 801.526M2838.5 760.525 4285.5 760.525M2838.5 719.524 4285.5 719.524M2838.5 636.521 4285.5 636.521M2838.5 595.52 4285.5 595.52M2838.5 554.518 4285.5 554.518M2838.5 513.517 4285.5 513.517M2838.5 430.514 4285.5 430.514M2838.5 389.513 4285.5 389.513M2838.5 348.512 4285.5 348.512M2838.5 307.51 4285.5 307.51" stroke="#F2F2F2" stroke-width="3.4375" stroke-linejoin="round" stroke-miterlimit="10" fill="none"/></g><g clip-path="url(#clip2)"><path d="M2838.5 883.529 4285.5 883.529M2838.5 677.522 4285.5 677.522M2838.5 471.516 4285.5 471.516M2838.5 265.5 4285.5 265.5" stroke="#BFBFBF" stroke-width="3.4375" stroke-linejoin="round" stroke-miterlimit="10" fill="none"/></g><g clip-path="url(#clip3)"><path d="M2910.6 265.5 2910.6 1089.5M2982.6 265.5 2982.6 1089.5M3055.6 265.5 3055.6 1089.5M3127.6 265.5 3127.6 1089.5M3272.61 265.5 3272.61 1089.5M3344.61 265.5 3344.61 1089.5M3416.61 265.5 3416.61 1089.5M3489.61 265.5 3489.61 1089.5M3633.62 265.5 3633.62 1089.5M3706.62 265.5 3706.62 1089.5M3778.62 265.5 3778.62 1089.5M3851.63 265.5 3851.63 1089.5M3995.63 265.5 3995.63 1089.5M4068.63 265.5 4068.63 1089.5M4140.64 265.5 4140.64 1089.5M4212.64 265.5 4212.64 1089.5" stroke="#F2F2F2" stroke-width="3.4375" stroke-linejoin="round" stroke-miterlimit="10" fill="none"/></g><g clip-path="url(#clip4)"><path d="M3199.6 265.5 3199.6 1089.5M3561.62 265.5 3561.62 1089.5M3923.63 265.5 3923.63 1089.5M4285.5 265.5 4285.5 1089.5" stroke="#BFBFBF" stroke-width="3.4375" stroke-linejoin="round" stroke-miterlimit="10" fill="none"/></g><g clip-path="url(#clip5)"><rect x="2838.5" y="265.5" width="1447" height="824" stroke="#000000" stroke-width="3.4375" stroke-linejoin="round" stroke-miterlimit="10" fill="none"/></g><g clip-path="url(#clip6)"><path d="M0 0 0.000360892 824" stroke="#000000" stroke-width="3.4375" stroke-linejoin="round" stroke-miterlimit="10" fill="none" fill-rule="evenodd" transform="matrix(1 0 0 -1 2838.5 1089.5)"/></g><g clip-path="url(#clip7)"><path d="M2838.5 1089.5 4285.5 1089.5" stroke="#000000" stroke-width="3.4375" stroke-linejoin="round" stroke-miterlimit="10" fill="none" fill-rule="evenodd"/></g><g clip-path="url(#clip8)"><path d="M2874.5 436.361C2876.37 434.708 2878.48 432.572 2880.11 431.4 2881.75 430.229 2882.69 430.504 2884.33 429.333 2885.96 428.162 2887.84 424.372 2889.95 424.372 2892.05 424.372 2894.86 426.922 2896.96 429.333 2899.07 431.745 2900.94 436.085 2902.58 438.842 2904.22 441.597 2905.15 444.354 2906.79 445.87 2908.43 447.385 2910.54 447.179 2912.41 447.937 2914.28 448.695 2916.39 448.419 2918.02 450.417 2919.66 452.415 2921.07 456.825 2922.24 459.926 2923.41 463.026 2923.87 468.262 2925.04 469.021 2926.21 469.779 2927.85 465.989 2929.25 464.473 2930.66 462.957 2932.06 461.855 2933.47 459.926 2934.87 457.996 2936.28 455.24 2937.68 452.898 2939.08 450.555 2940.02 447.868 2941.89 445.87 2943.76 443.871 2947.04 440.564 2948.91 440.909 2950.78 441.253 2951.25 444.767 2953.12 447.937 2954.99 451.106 2958.51 456.756 2960.14 459.926 2961.78 463.095 2961.78 463.853 2962.95 466.954 2964.12 470.054 2966.23 475.428 2967.16 478.529 2968.1 481.63 2967.86 483.215 2968.57 485.557 2969.27 487.9 2969.97 491.414 2971.37 492.585 2972.78 493.756 2975.35 491.414 2976.99 492.585 2978.63 493.757 2979.8 497.271 2981.2 499.613 2982.61 501.956 2983.78 505.883 2985.42 506.641 2987.05 507.399 2989.16 504.161 2991.03 504.161 2992.9 504.161 2994.54 504.643 2996.65 506.641 2998.75 508.639 3001.79 514.22 3003.66 516.15 3005.3 517.836 3007.06 517.193 3007.88 518.217 3008.82 519.388 3007.65 522.764 3009.28 523.178 3010.92 523.591 3015.83 522.282 3017.71 520.697 3019.58 519.112 3018.64 515.599 3020.51 513.669 3022.39 511.74 3026.6 510.706 3028.94 509.122 3031.28 507.537 3032.68 504.987 3034.55 504.161 3036.43 503.334 3038.3 505.332 3040.17 504.161 3042.04 502.989 3044.15 496.719 3045.78 497.133 3047.42 497.546 3048.59 503.471 3050 506.641 3051.4 509.81 3052.81 514.22 3054.21 516.15 3055.59 518.048 3056.58 517.878 3058.42 518.217 3060.29 518.561 3063.1 518.975 3065.44 518.217 3067.78 517.459 3070.35 515.185 3072.46 513.669 3074.57 512.153 3075.5 510.706 3078.08 509.122 3080.65 507.537 3085.33 505.745 3087.9 504.161 3090.17 502.764 3092.28 503.013 3093.52 499.613 3094.92 495.755 3094.45 484.937 3096.33 481.01 3098.2 477.082 3102.65 477.633 3104.75 476.049 3106.86 474.464 3108.03 473.844 3108.96 471.501 3109.9 469.159 3109.67 465.093 3110.37 461.993 3111.07 458.892 3112.01 455.998 3113.18 452.898 3114.35 449.797 3115.98 446.558 3117.39 443.389 3118.79 440.219 3119.96 437.394 3121.6 433.881 3123.24 430.367 3125.81 425.406 3127.22 422.305 3128.62 419.205 3129.09 417.619 3130.02 415.277 3130.96 412.934 3131.9 410.592 3132.83 408.249 3133.77 405.907 3134.7 403.564 3135.64 401.221 3136.58 398.878 3137.51 397.363 3138.45 394.193 3139.38 391.024 3139.62 383.031 3141.25 382.204 3142.89 381.377 3146.4 389.232 3148.28 389.232 3150.15 389.232 3151.32 383.72 3152.49 382.204 3153.55 380.823 3154.23 381.518 3155.3 380.137 3156.47 378.621 3158.1 375.107 3159.51 373.109 3160.91 371.111 3162.31 368.561 3163.72 368.148 3165.12 367.735 3166.29 371.387 3167.93 370.629 3169.57 369.871 3171.44 363.601 3173.55 363.601 3175.65 363.601 3179.16 368.286 3180.57 370.629 3181.97 372.971 3180.57 376.898 3181.97 377.657 3183.37 378.415 3187.12 376.761 3188.99 375.176 3190.86 373.591 3191.8 370.835 3193.21 368.148 3194.61 365.461 3196.25 359.398 3197.42 359.053 3198.59 358.709 3199.05 363.739 3200.22 366.081 3201.39 368.424 3203.03 372.764 3204.44 373.109 3205.84 373.454 3207.01 370.146 3208.65 368.148 3210.28 366.15 3212.86 364.221 3214.26 361.12 3215.67 358.02 3215.9 351.887 3217.07 349.545 3218.17 347.355 3219.53 347.451 3221.28 347.064 3223.16 346.651 3226.2 345.893 3228.3 347.064 3230.41 348.235 3232.75 351.336 3233.92 354.092 3235.09 356.848 3234.62 360.087 3235.32 363.601 3236.02 367.114 3237.19 370.904 3238.13 375.176 3239.07 379.448 3240 386.063 3240.94 389.232 3241.75 391.967 3242.74 392.172 3243.75 394.193 3244.92 396.536 3246.55 400.188 3247.96 403.288 3249.36 406.389 3250.53 409.627 3252.17 412.797 3253.81 415.966 3256.15 420.72 3257.79 422.305 3259.3 423.772 3260.7 423.07 3262 422.305 3263.4 421.478 3264.81 417.757 3266.21 417.344 3267.62 416.931 3268.79 418.653 3270.42 419.825 3272.06 420.996 3274.4 423.959 3276.04 424.372 3277.68 424.786 3278.85 421.478 3280.25 422.305 3281.65 423.132 3282.59 427.817 3284.46 429.333 3286.33 430.849 3288.91 431.813 3291.48 431.4 3294.06 430.987 3297.33 427.197 3299.91 426.853 3302.48 426.508 3304.82 429.746 3306.92 429.333 3309.03 428.92 3311.14 426.37 3312.54 424.372 3313.95 422.374 3313.95 419.273 3315.35 417.344 3316.75 415.415 3318.63 412.383 3320.97 412.797 3323.3 413.21 3327.28 417.482 3329.39 419.825 3331.49 422.167 3332.2 425.681 3333.6 426.853 3335.01 428.024 3336.18 426.853 3337.81 426.853 3339.45 426.853 3341.32 426.853 3343.43 426.853 3345.53 426.853 3348.34 427.266 3350.45 426.853 3352.55 426.439 3353.96 424.786 3356.06 424.372 3358.17 423.959 3360.98 424.372 3363.09 424.372 3365.19 424.372 3367.06 424.372 3368.7 424.372 3370.34 424.372 3371.27 423.545 3372.91 424.372 3374.55 425.199 3376.89 427.748 3378.53 429.333 3380.17 430.918 3381.1 432.296 3382.74 433.881 3384.38 435.465 3386.02 438.428 3388.36 438.842 3390.7 439.255 3394.44 437.188 3396.78 436.361 3399.12 435.534 3400.76 435.052 3402.4 433.881 3404.03 432.709 3404.97 430.918 3406.61 429.333 3408.25 427.748 3410.35 425.957 3412.22 424.372 3414.1 422.788 3415.73 420.996 3417.84 419.825 3419.95 418.653 3422.99 417.757 3424.86 417.344 3426.73 416.931 3427.67 416.517 3429.07 417.344 3430.48 418.171 3432.12 420.307 3433.28 422.305 3434.45 424.303 3435.16 427.817 3436.09 429.333 3437.01 430.818 3437.75 432.21 3438.9 431.4 3440.07 430.573 3441.71 425.888 3443.11 424.372 3444.51 422.856 3446.15 421.892 3447.32 422.305 3448.49 422.718 3449.19 425.681 3450.13 426.853 3451.07 428.024 3452 428.575 3452.94 429.333 3453.71 429.957 3454.59 430.094 3455.75 431.4 3457.15 432.985 3459.73 436.085 3461.36 438.842 3463 441.597 3463.94 446.007 3465.58 447.937 3467.21 449.866 3469.08 449.59 3471.19 450.417 3473.3 451.244 3476.34 451.726 3478.21 452.898 3480.08 454.069 3480.79 455.929 3482.42 457.445 3484.06 458.961 3486.87 460.408 3488.04 461.993 3489.21 463.577 3488.51 464.955 3489.44 466.954 3490.38 468.952 3492.25 471.294 3493.65 473.982 3495.06 476.669 3496.46 480.734 3497.87 483.077 3499.27 485.419 3500.68 486.453 3502.08 488.038 3503.48 489.622 3505.36 491.069 3506.29 492.585 3507.23 494.101 3506.53 496.719 3507.7 497.133 3508.86 497.546 3511.67 494.652 3513.31 495.065 3514.95 495.479 3516.12 498.097 3517.52 499.613 3518.93 501.129 3520.33 502.989 3521.74 504.161 3523.07 505.27 3524.4 504.749 3525.95 506.641 3527.59 508.639 3530.63 513.807 3531.56 516.15 3532.41 518.26 3531.14 518.586 3531.56 520.697 3532.03 523.039 3533.43 527.105 3534.37 530.206 3535.31 533.306 3536.01 536.958 3537.18 539.301 3538.35 541.643 3539.75 543.09 3541.39 544.262 3543.03 545.433 3545.37 547.5 3547.01 546.329 3548.65 545.157 3549.82 539.576 3551.22 537.234 3552.62 534.891 3553.56 532.273 3555.43 532.273 3557.3 532.273 3559.88 535.235 3562.45 537.234 3565.02 539.232 3568.54 542.745 3570.88 544.262 3573.22 545.777 3574.62 545.984 3576.49 546.329 3578.36 546.673 3580.23 547.5 3582.11 546.329 3583.98 545.157 3586.08 541.988 3587.72 539.301 3589.36 536.613 3590.76 532.893 3591.94 530.206 3593.11 527.518 3593.34 524.349 3594.74 523.178 3596.15 522.006 3598.49 524.004 3600.36 523.178 3602.23 522.351 3604.1 520.559 3605.97 518.217 3607.84 515.874 3609.72 512.222 3611.59 509.122 3613.46 506.021 3615.57 504.298 3617.21 499.613 3618.85 494.928 3620.48 486.866 3621.42 481.01 3622.35 475.153 3621.89 468.814 3622.82 464.473 3623.76 460.132 3625.4 457.721 3627.03 454.965 3628.67 452.208 3631.24 445.594 3632.65 447.937 3634.05 450.279 3634.29 463.509 3635.46 469.021 3636.63 474.533 3638.73 477.84 3639.67 481.01 3640.61 484.179 3639.9 488.451 3641.07 488.038 3642.24 487.624 3645.75 482.043 3646.69 478.529 3647.62 475.015 3646.22 470.467 3646.69 466.954 3647.16 463.439 3648.56 460.959 3649.5 457.445 3650.43 453.931 3651.13 449.383 3652.3 445.87 3653.47 442.356 3655.58 439.531 3656.52 436.361 3657.45 433.192 3656.75 428.851 3657.92 426.853 3659.09 424.854 3661.9 423.959 3663.54 424.372 3665.18 424.786 3666.58 427.335 3667.75 429.333 3668.92 431.331 3668.92 434.019 3670.56 436.361 3672.19 438.704 3675.94 443.389 3677.58 443.389 3679.21 443.389 3679.21 438.359 3680.38 436.361 3681.55 434.363 3682.72 433.743 3684.59 431.4 3686.47 429.058 3689.04 423.821 3691.62 422.305 3694.19 420.789 3697.7 422.305 3700.04 422.305 3702.38 422.305 3703.78 421.961 3705.65 422.305 3707.53 422.65 3709.17 424.028 3711.27 424.372 3713.38 424.717 3716.19 425.544 3718.29 424.372 3720.4 423.201 3722.27 420.858 3723.91 417.344 3725.54 413.83 3726.71 404.804 3728.12 403.288 3729.52 401.772 3730.46 406.251 3732.33 408.249 3734.2 410.247 3737.01 413.761 3739.35 415.277 3741.69 416.793 3743.8 415.828 3746.37 417.344 3748.94 418.86 3752.45 422.03 3754.79 424.372 3757.13 426.715 3758.31 429.815 3760.41 431.4 3762.52 432.985 3765.56 432.64 3767.43 433.881 3769.3 435.121 3770 437.257 3771.64 438.842 3773.28 440.426 3774.45 442.218 3777.26 443.389 3780.07 444.56 3786.15 447.454 3788.49 445.87 3790.83 444.285 3790.36 437.808 3791.3 433.881 3792.23 429.953 3792.47 423.476 3794.11 422.305 3795.74 421.134 3799.25 427.679 3801.13 426.853 3803 426.026 3803.7 420.445 3805.34 417.344 3806.98 414.244 3809.55 410.179 3810.96 408.249 3812.06 406.734 3812.66 405.769 3813.76 405.769 3815.17 405.769 3817.51 407.078 3819.38 408.249 3821.25 409.421 3823.35 414.381 3824.99 412.797 3826.63 411.212 3827.57 403.013 3829.21 398.741 3830.85 394.469 3833.19 391.85 3834.82 387.165 3836.46 382.48 3836.69 373.798 3839.03 370.629 3841.37 367.459 3845.82 368.561 3848.86 368.148 3851.9 367.735 3854.95 368.493 3857.29 368.148 3859.63 367.803 3861.03 367.597 3862.9 366.081 3864.77 364.565 3867.11 362.567 3868.52 359.053 3869.92 355.539 3869.92 348.511 3871.32 344.997 3872.73 341.483 3874.37 339.967 3876.94 337.969 3879.52 335.971 3883.96 333.835 3886.77 333.008 3889.58 332.181 3891.45 332.181 3893.79 333.008 3896.13 333.835 3898.24 336.798 3900.81 337.969 3903.38 339.14 3907.6 336.177 3909.23 340.036 3910.87 343.895 3909.7 357.193 3910.64 361.12 3911.2 363.503 3914.14 363.099 3914.85 363.601 3915.83 364.292 3915.89 365.448 3917.66 366.081 3919.76 366.839 3924.91 368.148 3927.49 368.148 3930.06 368.148 3930.76 366.081 3933.1 366.081 3935.44 366.081 3938.95 367.803 3941.52 368.148 3944.1 368.493 3945.97 366.977 3948.55 368.148 3951.12 369.32 3954.16 373.591 3956.97 375.176 3959.78 376.761 3963.05 377.657 3965.39 377.657 3967.73 377.657 3969.14 377.106 3971.01 375.176 3972.88 373.247 3974.99 368.424 3976.62 366.081 3978.26 363.739 3979.2 361.947 3980.84 361.12 3982.47 360.293 3984.58 359.949 3986.45 361.12 3988.32 362.291 3990.43 364.634 3992.07 368.148 3993.71 371.662 3994.64 377.105 3996.28 382.204 3997.92 387.303 3999.79 394.813 4001.9 398.741 4004 402.668 4006.81 404.597 4008.92 405.769 4011.02 406.94 4012.66 404.184 4014.53 405.769 4016.4 407.353 4018.04 411.763 4020.15 415.277 4022.25 418.791 4025.06 424.165 4027.17 426.853 4029.27 429.54 4030.91 431.4 4032.78 431.4 4034.65 431.4 4036.53 426.439 4038.4 426.853 4040.27 427.266 4041.68 432.709 4044.02 433.881 4046.36 435.052 4050.1 435.052 4052.44 433.881 4054.78 432.709 4056.42 426.853 4058.05 426.853 4059.69 426.853 4060.86 431.538 4062.27 433.881 4063.67 436.223 4064.61 440.495 4066.48 440.909 4068.35 441.322 4071.16 438.704 4073.5 436.361 4075.84 434.019 4078.18 428.437 4080.52 426.853 4082.86 425.268 4085.67 426.439 4087.54 426.853 4089.41 427.266 4089.88 428.162 4091.75 429.333 4093.62 430.504 4096.67 434.294 4098.77 433.881 4100.88 433.467 4102.28 428.024 4104.39 426.853 4106.49 425.681 4109.3 427.611 4111.41 426.853 4113.51 426.095 4114.92 424.234 4117.02 422.305 4119.13 420.376 4122.17 419.618 4124.04 415.277 4125.91 410.936 4126.85 402.117 4128.25 396.26 4129.66 390.403 4131.06 384.409 4132.46 380.137 4133.87 375.865 4135.04 373.798 4136.68 370.629 4138.32 367.459 4140.42 363.463 4142.29 361.12 4144.17 358.778 4146.51 358.915 4147.91 356.573 4149.31 354.23 4149.55 350.578 4150.72 347.064 4151.89 343.55 4153.29 337.418 4154.93 335.489 4156.57 333.559 4158.21 335.489 4160.55 335.489 4162.89 335.489 4166.4 335.489 4168.97 335.489 4171.54 335.489 4173.65 335.075 4175.99 335.489 4178.33 335.902 4180.67 337.969 4183.01 337.969 4185.35 337.969 4187.46 336.66 4190.03 335.489 4192.6 334.317 4196.11 330.941 4198.45 330.941 4200.79 330.941 4201.73 333.559 4204.07 335.489 4206.41 337.418 4209.45 340.932 4212.49 342.517 4215.54 344.101 4219.04 345.755 4222.32 344.997 4225.6 344.239 4229.34 339.14 4232.15 337.969 4234.96 336.798 4236.59 337.211 4239.17 337.969 4241.74 338.727 4245.48 341.346 4247.59 342.517 4249.7 343.688 4249.7 345.41 4251.81 344.997 4253.91 344.584 4257.89 341.621 4260.23 340.036 4262.57 338.451 4263.74 337.418 4265.84 335.489 4267.95 333.56 4270.29 330.045 4272.86 328.461 4275.44 326.876 4279.18 326.807 4281.29 325.98 4283.39 325.153 4284.1 324.327 4285.5 323.5" stroke="#5B9BD5" stroke-width="6.875" stroke-linecap="round" stroke-linejoin="round" stroke-miterlimit="10" fill="none"/></g><g clip-path="url(#clip9)"><text font-family="Calibri,Calibri_MSFontService,sans-serif" font-weight="400" font-size="50" transform="matrix(1 0 0 1 2765.93 1104)">0</text></g><g clip-path="url(#clip10)"><text font-family="Calibri,Calibri_MSFontService,sans-serif" font-weight="400" font-size="50" transform="matrix(1 0 0 1 2765.93 898)">5</text></g><g clip-path="url(#clip11)"><text font-family="Calibri,Calibri_MSFontService,sans-serif" font-weight="400" font-size="50" transform="matrix(1 0 0 1 2740.37 692)">10</text></g><g clip-path="url(#clip12)"><text font-family="Calibri,Calibri_MSFontService,sans-serif" font-weight="400" font-size="50" transform="matrix(1 0 0 1 2740.37 486)">15</text></g><g clip-path="url(#clip13)"><text font-family="Calibri,Calibri_MSFontService,sans-serif" font-weight="400" font-size="50" transform="matrix(1 0 0 1 2740.37 280)">20</text></g><g clip-path="url(#clip14)"><text font-family="Calibri,Calibri_MSFontService,sans-serif" font-weight="400" font-size="50" transform="matrix(1 0 0 1 2825.48 1170)">0</text></g><g clip-path="url(#clip15)"><text font-family="Calibri,Calibri_MSFontService,sans-serif" font-weight="400" font-size="50" transform="matrix(1 0 0 1 3187.23 1170)">1</text></g><g clip-path="url(#clip16)"><text font-family="Calibri,Calibri_MSFontService,sans-serif" font-weight="400" font-size="50" transform="matrix(1 0 0 1 3548.98 1170)">2</text></g><g clip-path="url(#clip17)"><text font-family="Calibri,Calibri_MSFontService,sans-serif" font-weight="400" font-size="50" transform="matrix(1 0 0 1 3910.72 1170)">3</text></g><g clip-path="url(#clip18)"><text font-family="Calibri,Calibri_MSFontService,sans-serif" font-weight="400" font-size="50" transform="matrix(1 0 0 1 4272.47 1170)">4</text></g><g clip-path="url(#clip19)"><text font-family="Calibri,Calibri_MSFontService,sans-serif" font-weight="400" font-size="55" transform="matrix(6.12323e-17 -1 1 6.12323e-17 2695.49 796)">IP3 [dBm]</text></g><g clip-path="url(#clip20)"><text font-family="Calibri,Calibri_MSFontService,sans-serif" font-weight="400" font-size="55" transform="matrix(1 0 0 1 3354.62 1249)">Frekvenca IF [GHz]</text></g><g clip-path="url(#clip21)"><path d="M3303.5 167.5 3391.5 167.5" stroke="#5B9BD5" stroke-width="6.875" stroke-linecap="round" stroke-linejoin="round" stroke-miterlimit="10" fill="none" fill-rule="evenodd"/></g><g clip-path="url(#clip22)"><text font-family="Calibri,Calibri_MSFontService,sans-serif" font-weight="400" font-size="50" transform="matrix(1 0 0 1 3401.28 182)">LO=+10 dBm</text></g></g></svg>