<?xml version="1.0" encoding="utf-8" standalone="no"?>
<!DOCTYPE svg PUBLIC "-//W3C//DTD SVG 1.1//EN"
  "http://www.w3.org/Graphics/SVG/1.1/DTD/svg11.dtd">
<svg xmlns:xlink="http://www.w3.org/1999/xlink" width="460.8pt" height="345.6pt" viewBox="0 0 460.8 345.6" xmlns="http://www.w3.org/2000/svg" version="1.1">
 <metadata>
  <rdf:RDF xmlns:dc="http://purl.org/dc/elements/1.1/" xmlns:cc="http://creativecommons.org/ns#" xmlns:rdf="http://www.w3.org/1999/02/22-rdf-syntax-ns#">
   <cc:Work>
    <dc:type rdf:resource="http://purl.org/dc/dcmitype/StillImage"/>
    <dc:date>2022-11-27T22:45:24.202277</dc:date>
    <dc:format>image/svg+xml</dc:format>
    <dc:creator>
     <cc:Agent>
      <dc:title>Matplotlib v3.5.1, https://matplotlib.org/</dc:title>
     </cc:Agent>
    </dc:creator>
   </cc:Work>
  </rdf:RDF>
 </metadata>
 <defs>
  <style type="text/css">*{stroke-linejoin: round; stroke-linecap: butt}</style>
 </defs>
 <g id="figure_1">
  <g id="patch_1">
   <path d="M 0 345.6 
L 460.8 345.6 
L 460.8 0 
L 0 0 
z
" style="fill: #ffffff"/>
  </g>
  <g id="axes_1">
   <g id="patch_2">
    <path d="M 57.6 307.584 
L 414.72 307.584 
L 414.72 41.472 
L 57.6 41.472 
z
" style="fill: #ffffff"/>
   </g>
   <g id="matplotlib.axis_1">
    <g id="xtick_1">
     <g id="line2d_1">
      <path d="M 102.23998 307.584 
L 102.23998 41.472 
" clip-path="url(#p77b6a76a79)" style="fill: none; stroke: #b0b0b0; stroke-width: 0.8; stroke-linecap: square"/>
     </g>
     <g id="line2d_2">
      <defs>
       <path id="m1b20c0097f" d="M 0 0 
L 0 3.5 
" style="stroke: #000000; stroke-width: 0.8"/>
      </defs>
      <g>
       <use xlink:href="#m1b20c0097f" x="102.23998" y="307.584" style="stroke: #000000; stroke-width: 0.8"/>
      </g>
     </g>
     <g id="text_1">
      <!-- 2 -->
      <g transform="translate(99.05873 322.182437)scale(0.1 -0.1)">
       <defs>
        <path id="DejaVuSans-32" d="M 1228 531 
L 3431 531 
L 3431 0 
L 469 0 
L 469 531 
Q 828 903 1448 1529 
Q 2069 2156 2228 2338 
Q 2531 2678 2651 2914 
Q 2772 3150 2772 3378 
Q 2772 3750 2511 3984 
Q 2250 4219 1831 4219 
Q 1534 4219 1204 4116 
Q 875 4013 500 3803 
L 500 4441 
Q 881 4594 1212 4672 
Q 1544 4750 1819 4750 
Q 2544 4750 2975 4387 
Q 3406 4025 3406 3419 
Q 3406 3131 3298 2873 
Q 3191 2616 2906 2266 
Q 2828 2175 2409 1742 
Q 1991 1309 1228 531 
z
" transform="scale(0.015625)"/>
       </defs>
       <use xlink:href="#DejaVuSans-32"/>
      </g>
     </g>
    </g>
    <g id="xtick_2">
     <g id="line2d_3">
      <path d="M 146.879983 307.584 
L 146.879983 41.472 
" clip-path="url(#p77b6a76a79)" style="fill: none; stroke: #b0b0b0; stroke-width: 0.8; stroke-linecap: square"/>
     </g>
     <g id="line2d_4">
      <g>
       <use xlink:href="#m1b20c0097f" x="146.879983" y="307.584" style="stroke: #000000; stroke-width: 0.8"/>
      </g>
     </g>
     <g id="text_2">
      <!-- 4 -->
      <g transform="translate(143.698733 322.182437)scale(0.1 -0.1)">
       <defs>
        <path id="DejaVuSans-34" d="M 2419 4116 
L 825 1625 
L 2419 1625 
L 2419 4116 
z
M 2253 4666 
L 3047 4666 
L 3047 1625 
L 3713 1625 
L 3713 1100 
L 3047 1100 
L 3047 0 
L 2419 0 
L 2419 1100 
L 313 1100 
L 313 1709 
L 2253 4666 
z
" transform="scale(0.015625)"/>
       </defs>
       <use xlink:href="#DejaVuSans-34"/>
      </g>
     </g>
    </g>
    <g id="xtick_3">
     <g id="line2d_5">
      <path d="M 191.519986 307.584 
L 191.519986 41.472 
" clip-path="url(#p77b6a76a79)" style="fill: none; stroke: #b0b0b0; stroke-width: 0.8; stroke-linecap: square"/>
     </g>
     <g id="line2d_6">
      <g>
       <use xlink:href="#m1b20c0097f" x="191.519986" y="307.584" style="stroke: #000000; stroke-width: 0.8"/>
      </g>
     </g>
     <g id="text_3">
      <!-- 6 -->
      <g transform="translate(188.338736 322.182437)scale(0.1 -0.1)">
       <defs>
        <path id="DejaVuSans-36" d="M 2113 2584 
Q 1688 2584 1439 2293 
Q 1191 2003 1191 1497 
Q 1191 994 1439 701 
Q 1688 409 2113 409 
Q 2538 409 2786 701 
Q 3034 994 3034 1497 
Q 3034 2003 2786 2293 
Q 2538 2584 2113 2584 
z
M 3366 4563 
L 3366 3988 
Q 3128 4100 2886 4159 
Q 2644 4219 2406 4219 
Q 1781 4219 1451 3797 
Q 1122 3375 1075 2522 
Q 1259 2794 1537 2939 
Q 1816 3084 2150 3084 
Q 2853 3084 3261 2657 
Q 3669 2231 3669 1497 
Q 3669 778 3244 343 
Q 2819 -91 2113 -91 
Q 1303 -91 875 529 
Q 447 1150 447 2328 
Q 447 3434 972 4092 
Q 1497 4750 2381 4750 
Q 2619 4750 2861 4703 
Q 3103 4656 3366 4563 
z
" transform="scale(0.015625)"/>
       </defs>
       <use xlink:href="#DejaVuSans-36"/>
      </g>
     </g>
    </g>
    <g id="xtick_4">
     <g id="line2d_7">
      <path d="M 236.159989 307.584 
L 236.159989 41.472 
" clip-path="url(#p77b6a76a79)" style="fill: none; stroke: #b0b0b0; stroke-width: 0.8; stroke-linecap: square"/>
     </g>
     <g id="line2d_8">
      <g>
       <use xlink:href="#m1b20c0097f" x="236.159989" y="307.584" style="stroke: #000000; stroke-width: 0.8"/>
      </g>
     </g>
     <g id="text_4">
      <!-- 8 -->
      <g transform="translate(232.978739 322.182437)scale(0.1 -0.1)">
       <defs>
        <path id="DejaVuSans-38" d="M 2034 2216 
Q 1584 2216 1326 1975 
Q 1069 1734 1069 1313 
Q 1069 891 1326 650 
Q 1584 409 2034 409 
Q 2484 409 2743 651 
Q 3003 894 3003 1313 
Q 3003 1734 2745 1975 
Q 2488 2216 2034 2216 
z
M 1403 2484 
Q 997 2584 770 2862 
Q 544 3141 544 3541 
Q 544 4100 942 4425 
Q 1341 4750 2034 4750 
Q 2731 4750 3128 4425 
Q 3525 4100 3525 3541 
Q 3525 3141 3298 2862 
Q 3072 2584 2669 2484 
Q 3125 2378 3379 2068 
Q 3634 1759 3634 1313 
Q 3634 634 3220 271 
Q 2806 -91 2034 -91 
Q 1263 -91 848 271 
Q 434 634 434 1313 
Q 434 1759 690 2068 
Q 947 2378 1403 2484 
z
M 1172 3481 
Q 1172 3119 1398 2916 
Q 1625 2713 2034 2713 
Q 2441 2713 2670 2916 
Q 2900 3119 2900 3481 
Q 2900 3844 2670 4047 
Q 2441 4250 2034 4250 
Q 1625 4250 1398 4047 
Q 1172 3844 1172 3481 
z
" transform="scale(0.015625)"/>
       </defs>
       <use xlink:href="#DejaVuSans-38"/>
      </g>
     </g>
    </g>
    <g id="xtick_5">
     <g id="line2d_9">
      <path d="M 280.799992 307.584 
L 280.799992 41.472 
" clip-path="url(#p77b6a76a79)" style="fill: none; stroke: #b0b0b0; stroke-width: 0.8; stroke-linecap: square"/>
     </g>
     <g id="line2d_10">
      <g>
       <use xlink:href="#m1b20c0097f" x="280.799992" y="307.584" style="stroke: #000000; stroke-width: 0.8"/>
      </g>
     </g>
     <g id="text_5">
      <!-- 10 -->
      <g transform="translate(274.437492 322.182437)scale(0.1 -0.1)">
       <defs>
        <path id="DejaVuSans-31" d="M 794 531 
L 1825 531 
L 1825 4091 
L 703 3866 
L 703 4441 
L 1819 4666 
L 2450 4666 
L 2450 531 
L 3481 531 
L 3481 0 
L 794 0 
L 794 531 
z
" transform="scale(0.015625)"/>
        <path id="DejaVuSans-30" d="M 2034 4250 
Q 1547 4250 1301 3770 
Q 1056 3291 1056 2328 
Q 1056 1369 1301 889 
Q 1547 409 2034 409 
Q 2525 409 2770 889 
Q 3016 1369 3016 2328 
Q 3016 3291 2770 3770 
Q 2525 4250 2034 4250 
z
M 2034 4750 
Q 2819 4750 3233 4129 
Q 3647 3509 3647 2328 
Q 3647 1150 3233 529 
Q 2819 -91 2034 -91 
Q 1250 -91 836 529 
Q 422 1150 422 2328 
Q 422 3509 836 4129 
Q 1250 4750 2034 4750 
z
" transform="scale(0.015625)"/>
       </defs>
       <use xlink:href="#DejaVuSans-31"/>
       <use xlink:href="#DejaVuSans-30" x="63.623047"/>
      </g>
     </g>
    </g>
    <g id="xtick_6">
     <g id="line2d_11">
      <path d="M 325.439994 307.584 
L 325.439994 41.472 
" clip-path="url(#p77b6a76a79)" style="fill: none; stroke: #b0b0b0; stroke-width: 0.8; stroke-linecap: square"/>
     </g>
     <g id="line2d_12">
      <g>
       <use xlink:href="#m1b20c0097f" x="325.439994" y="307.584" style="stroke: #000000; stroke-width: 0.8"/>
      </g>
     </g>
     <g id="text_6">
      <!-- 12 -->
      <g transform="translate(319.077494 322.182437)scale(0.1 -0.1)">
       <use xlink:href="#DejaVuSans-31"/>
       <use xlink:href="#DejaVuSans-32" x="63.623047"/>
      </g>
     </g>
    </g>
    <g id="xtick_7">
     <g id="line2d_13">
      <path d="M 370.079997 307.584 
L 370.079997 41.472 
" clip-path="url(#p77b6a76a79)" style="fill: none; stroke: #b0b0b0; stroke-width: 0.8; stroke-linecap: square"/>
     </g>
     <g id="line2d_14">
      <g>
       <use xlink:href="#m1b20c0097f" x="370.079997" y="307.584" style="stroke: #000000; stroke-width: 0.8"/>
      </g>
     </g>
     <g id="text_7">
      <!-- 14 -->
      <g transform="translate(363.717497 322.182437)scale(0.1 -0.1)">
       <use xlink:href="#DejaVuSans-31"/>
       <use xlink:href="#DejaVuSans-34" x="63.623047"/>
      </g>
     </g>
    </g>
    <g id="xtick_8">
     <g id="line2d_15">
      <path d="M 414.72 307.584 
L 414.72 41.472 
" clip-path="url(#p77b6a76a79)" style="fill: none; stroke: #b0b0b0; stroke-width: 0.8; stroke-linecap: square"/>
     </g>
     <g id="line2d_16">
      <g>
       <use xlink:href="#m1b20c0097f" x="414.72" y="307.584" style="stroke: #000000; stroke-width: 0.8"/>
      </g>
     </g>
     <g id="text_8">
      <!-- 16 -->
      <g transform="translate(408.3575 322.182437)scale(0.1 -0.1)">
       <use xlink:href="#DejaVuSans-31"/>
       <use xlink:href="#DejaVuSans-36" x="63.623047"/>
      </g>
     </g>
    </g>
    <g id="text_9">
     <!-- Frekvenca [GHz] -->
     <g transform="translate(194.964687 335.860562)scale(0.1 -0.1)">
      <defs>
       <path id="DejaVuSans-46" d="M 628 4666 
L 3309 4666 
L 3309 4134 
L 1259 4134 
L 1259 2759 
L 3109 2759 
L 3109 2228 
L 1259 2228 
L 1259 0 
L 628 0 
L 628 4666 
z
" transform="scale(0.015625)"/>
       <path id="DejaVuSans-72" d="M 2631 2963 
Q 2534 3019 2420 3045 
Q 2306 3072 2169 3072 
Q 1681 3072 1420 2755 
Q 1159 2438 1159 1844 
L 1159 0 
L 581 0 
L 581 3500 
L 1159 3500 
L 1159 2956 
Q 1341 3275 1631 3429 
Q 1922 3584 2338 3584 
Q 2397 3584 2469 3576 
Q 2541 3569 2628 3553 
L 2631 2963 
z
" transform="scale(0.015625)"/>
       <path id="DejaVuSans-65" d="M 3597 1894 
L 3597 1613 
L 953 1613 
Q 991 1019 1311 708 
Q 1631 397 2203 397 
Q 2534 397 2845 478 
Q 3156 559 3463 722 
L 3463 178 
Q 3153 47 2828 -22 
Q 2503 -91 2169 -91 
Q 1331 -91 842 396 
Q 353 884 353 1716 
Q 353 2575 817 3079 
Q 1281 3584 2069 3584 
Q 2775 3584 3186 3129 
Q 3597 2675 3597 1894 
z
M 3022 2063 
Q 3016 2534 2758 2815 
Q 2500 3097 2075 3097 
Q 1594 3097 1305 2825 
Q 1016 2553 972 2059 
L 3022 2063 
z
" transform="scale(0.015625)"/>
       <path id="DejaVuSans-6b" d="M 581 4863 
L 1159 4863 
L 1159 1991 
L 2875 3500 
L 3609 3500 
L 1753 1863 
L 3688 0 
L 2938 0 
L 1159 1709 
L 1159 0 
L 581 0 
L 581 4863 
z
" transform="scale(0.015625)"/>
       <path id="DejaVuSans-76" d="M 191 3500 
L 800 3500 
L 1894 563 
L 2988 3500 
L 3597 3500 
L 2284 0 
L 1503 0 
L 191 3500 
z
" transform="scale(0.015625)"/>
       <path id="DejaVuSans-6e" d="M 3513 2113 
L 3513 0 
L 2938 0 
L 2938 2094 
Q 2938 2591 2744 2837 
Q 2550 3084 2163 3084 
Q 1697 3084 1428 2787 
Q 1159 2491 1159 1978 
L 1159 0 
L 581 0 
L 581 3500 
L 1159 3500 
L 1159 2956 
Q 1366 3272 1645 3428 
Q 1925 3584 2291 3584 
Q 2894 3584 3203 3211 
Q 3513 2838 3513 2113 
z
" transform="scale(0.015625)"/>
       <path id="DejaVuSans-63" d="M 3122 3366 
L 3122 2828 
Q 2878 2963 2633 3030 
Q 2388 3097 2138 3097 
Q 1578 3097 1268 2742 
Q 959 2388 959 1747 
Q 959 1106 1268 751 
Q 1578 397 2138 397 
Q 2388 397 2633 464 
Q 2878 531 3122 666 
L 3122 134 
Q 2881 22 2623 -34 
Q 2366 -91 2075 -91 
Q 1284 -91 818 406 
Q 353 903 353 1747 
Q 353 2603 823 3093 
Q 1294 3584 2113 3584 
Q 2378 3584 2631 3529 
Q 2884 3475 3122 3366 
z
" transform="scale(0.015625)"/>
       <path id="DejaVuSans-61" d="M 2194 1759 
Q 1497 1759 1228 1600 
Q 959 1441 959 1056 
Q 959 750 1161 570 
Q 1363 391 1709 391 
Q 2188 391 2477 730 
Q 2766 1069 2766 1631 
L 2766 1759 
L 2194 1759 
z
M 3341 1997 
L 3341 0 
L 2766 0 
L 2766 531 
Q 2569 213 2275 61 
Q 1981 -91 1556 -91 
Q 1019 -91 701 211 
Q 384 513 384 1019 
Q 384 1609 779 1909 
Q 1175 2209 1959 2209 
L 2766 2209 
L 2766 2266 
Q 2766 2663 2505 2880 
Q 2244 3097 1772 3097 
Q 1472 3097 1187 3025 
Q 903 2953 641 2809 
L 641 3341 
Q 956 3463 1253 3523 
Q 1550 3584 1831 3584 
Q 2591 3584 2966 3190 
Q 3341 2797 3341 1997 
z
" transform="scale(0.015625)"/>
       <path id="DejaVuSans-20" transform="scale(0.015625)"/>
       <path id="DejaVuSans-5b" d="M 550 4863 
L 1875 4863 
L 1875 4416 
L 1125 4416 
L 1125 -397 
L 1875 -397 
L 1875 -844 
L 550 -844 
L 550 4863 
z
" transform="scale(0.015625)"/>
       <path id="DejaVuSans-47" d="M 3809 666 
L 3809 1919 
L 2778 1919 
L 2778 2438 
L 4434 2438 
L 4434 434 
Q 4069 175 3628 42 
Q 3188 -91 2688 -91 
Q 1594 -91 976 548 
Q 359 1188 359 2328 
Q 359 3472 976 4111 
Q 1594 4750 2688 4750 
Q 3144 4750 3555 4637 
Q 3966 4525 4313 4306 
L 4313 3634 
Q 3963 3931 3569 4081 
Q 3175 4231 2741 4231 
Q 1884 4231 1454 3753 
Q 1025 3275 1025 2328 
Q 1025 1384 1454 906 
Q 1884 428 2741 428 
Q 3075 428 3337 486 
Q 3600 544 3809 666 
z
" transform="scale(0.015625)"/>
       <path id="DejaVuSans-48" d="M 628 4666 
L 1259 4666 
L 1259 2753 
L 3553 2753 
L 3553 4666 
L 4184 4666 
L 4184 0 
L 3553 0 
L 3553 2222 
L 1259 2222 
L 1259 0 
L 628 0 
L 628 4666 
z
" transform="scale(0.015625)"/>
       <path id="DejaVuSans-7a" d="M 353 3500 
L 3084 3500 
L 3084 2975 
L 922 459 
L 3084 459 
L 3084 0 
L 275 0 
L 275 525 
L 2438 3041 
L 353 3041 
L 353 3500 
z
" transform="scale(0.015625)"/>
       <path id="DejaVuSans-5d" d="M 1947 4863 
L 1947 -844 
L 622 -844 
L 622 -397 
L 1369 -397 
L 1369 4416 
L 622 4416 
L 622 4863 
L 1947 4863 
z
" transform="scale(0.015625)"/>
      </defs>
      <use xlink:href="#DejaVuSans-46"/>
      <use xlink:href="#DejaVuSans-72" x="50.269531"/>
      <use xlink:href="#DejaVuSans-65" x="89.132812"/>
      <use xlink:href="#DejaVuSans-6b" x="150.65625"/>
      <use xlink:href="#DejaVuSans-76" x="208.566406"/>
      <use xlink:href="#DejaVuSans-65" x="267.746094"/>
      <use xlink:href="#DejaVuSans-6e" x="329.269531"/>
      <use xlink:href="#DejaVuSans-63" x="392.648438"/>
      <use xlink:href="#DejaVuSans-61" x="447.628906"/>
      <use xlink:href="#DejaVuSans-20" x="508.908203"/>
      <use xlink:href="#DejaVuSans-5b" x="540.695312"/>
      <use xlink:href="#DejaVuSans-47" x="579.708984"/>
      <use xlink:href="#DejaVuSans-48" x="657.199219"/>
      <use xlink:href="#DejaVuSans-7a" x="732.394531"/>
      <use xlink:href="#DejaVuSans-5d" x="784.884766"/>
     </g>
    </g>
   </g>
   <g id="matplotlib.axis_2">
    <g id="ytick_1">
     <g id="line2d_17">
      <path d="M 57.6 307.584 
L 414.72 307.584 
" clip-path="url(#p77b6a76a79)" style="fill: none; stroke: #b0b0b0; stroke-width: 0.8; stroke-linecap: square"/>
     </g>
     <g id="line2d_18">
      <defs>
       <path id="md95b3251d2" d="M 0 0 
L -3.5 0 
" style="stroke: #000000; stroke-width: 0.8"/>
      </defs>
      <g>
       <use xlink:href="#md95b3251d2" x="57.6" y="307.584" style="stroke: #000000; stroke-width: 0.8"/>
      </g>
     </g>
     <g id="text_10">
      <!-- −80 -->
      <g transform="translate(29.495313 311.383219)scale(0.1 -0.1)">
       <defs>
        <path id="DejaVuSans-2212" d="M 678 2272 
L 4684 2272 
L 4684 1741 
L 678 1741 
L 678 2272 
z
" transform="scale(0.015625)"/>
       </defs>
       <use xlink:href="#DejaVuSans-2212"/>
       <use xlink:href="#DejaVuSans-38" x="83.789062"/>
       <use xlink:href="#DejaVuSans-30" x="147.412109"/>
      </g>
     </g>
    </g>
    <g id="ytick_2">
     <g id="line2d_19">
      <path d="M 57.6 274.32 
L 414.72 274.32 
" clip-path="url(#p77b6a76a79)" style="fill: none; stroke: #b0b0b0; stroke-width: 0.8; stroke-linecap: square"/>
     </g>
     <g id="line2d_20">
      <g>
       <use xlink:href="#md95b3251d2" x="57.6" y="274.32" style="stroke: #000000; stroke-width: 0.8"/>
      </g>
     </g>
     <g id="text_11">
      <!-- −70 -->
      <g transform="translate(29.495313 278.119219)scale(0.1 -0.1)">
       <defs>
        <path id="DejaVuSans-37" d="M 525 4666 
L 3525 4666 
L 3525 4397 
L 1831 0 
L 1172 0 
L 2766 4134 
L 525 4134 
L 525 4666 
z
" transform="scale(0.015625)"/>
       </defs>
       <use xlink:href="#DejaVuSans-2212"/>
       <use xlink:href="#DejaVuSans-37" x="83.789062"/>
       <use xlink:href="#DejaVuSans-30" x="147.412109"/>
      </g>
     </g>
    </g>
    <g id="ytick_3">
     <g id="line2d_21">
      <path d="M 57.6 241.056 
L 414.72 241.056 
" clip-path="url(#p77b6a76a79)" style="fill: none; stroke: #b0b0b0; stroke-width: 0.8; stroke-linecap: square"/>
     </g>
     <g id="line2d_22">
      <g>
       <use xlink:href="#md95b3251d2" x="57.6" y="241.056" style="stroke: #000000; stroke-width: 0.8"/>
      </g>
     </g>
     <g id="text_12">
      <!-- −60 -->
      <g transform="translate(29.495313 244.855219)scale(0.1 -0.1)">
       <use xlink:href="#DejaVuSans-2212"/>
       <use xlink:href="#DejaVuSans-36" x="83.789062"/>
       <use xlink:href="#DejaVuSans-30" x="147.412109"/>
      </g>
     </g>
    </g>
    <g id="ytick_4">
     <g id="line2d_23">
      <path d="M 57.6 207.792 
L 414.72 207.792 
" clip-path="url(#p77b6a76a79)" style="fill: none; stroke: #b0b0b0; stroke-width: 0.8; stroke-linecap: square"/>
     </g>
     <g id="line2d_24">
      <g>
       <use xlink:href="#md95b3251d2" x="57.6" y="207.792" style="stroke: #000000; stroke-width: 0.8"/>
      </g>
     </g>
     <g id="text_13">
      <!-- −50 -->
      <g transform="translate(29.495313 211.591219)scale(0.1 -0.1)">
       <defs>
        <path id="DejaVuSans-35" d="M 691 4666 
L 3169 4666 
L 3169 4134 
L 1269 4134 
L 1269 2991 
Q 1406 3038 1543 3061 
Q 1681 3084 1819 3084 
Q 2600 3084 3056 2656 
Q 3513 2228 3513 1497 
Q 3513 744 3044 326 
Q 2575 -91 1722 -91 
Q 1428 -91 1123 -41 
Q 819 9 494 109 
L 494 744 
Q 775 591 1075 516 
Q 1375 441 1709 441 
Q 2250 441 2565 725 
Q 2881 1009 2881 1497 
Q 2881 1984 2565 2268 
Q 2250 2553 1709 2553 
Q 1456 2553 1204 2497 
Q 953 2441 691 2322 
L 691 4666 
z
" transform="scale(0.015625)"/>
       </defs>
       <use xlink:href="#DejaVuSans-2212"/>
       <use xlink:href="#DejaVuSans-35" x="83.789062"/>
       <use xlink:href="#DejaVuSans-30" x="147.412109"/>
      </g>
     </g>
    </g>
    <g id="ytick_5">
     <g id="line2d_25">
      <path d="M 57.6 174.528 
L 414.72 174.528 
" clip-path="url(#p77b6a76a79)" style="fill: none; stroke: #b0b0b0; stroke-width: 0.8; stroke-linecap: square"/>
     </g>
     <g id="line2d_26">
      <g>
       <use xlink:href="#md95b3251d2" x="57.6" y="174.528" style="stroke: #000000; stroke-width: 0.8"/>
      </g>
     </g>
     <g id="text_14">
      <!-- −40 -->
      <g transform="translate(29.495313 178.327219)scale(0.1 -0.1)">
       <use xlink:href="#DejaVuSans-2212"/>
       <use xlink:href="#DejaVuSans-34" x="83.789062"/>
       <use xlink:href="#DejaVuSans-30" x="147.412109"/>
      </g>
     </g>
    </g>
    <g id="ytick_6">
     <g id="line2d_27">
      <path d="M 57.6 141.264 
L 414.72 141.264 
" clip-path="url(#p77b6a76a79)" style="fill: none; stroke: #b0b0b0; stroke-width: 0.8; stroke-linecap: square"/>
     </g>
     <g id="line2d_28">
      <g>
       <use xlink:href="#md95b3251d2" x="57.6" y="141.264" style="stroke: #000000; stroke-width: 0.8"/>
      </g>
     </g>
     <g id="text_15">
      <!-- −30 -->
      <g transform="translate(29.495313 145.063219)scale(0.1 -0.1)">
       <defs>
        <path id="DejaVuSans-33" d="M 2597 2516 
Q 3050 2419 3304 2112 
Q 3559 1806 3559 1356 
Q 3559 666 3084 287 
Q 2609 -91 1734 -91 
Q 1441 -91 1130 -33 
Q 819 25 488 141 
L 488 750 
Q 750 597 1062 519 
Q 1375 441 1716 441 
Q 2309 441 2620 675 
Q 2931 909 2931 1356 
Q 2931 1769 2642 2001 
Q 2353 2234 1838 2234 
L 1294 2234 
L 1294 2753 
L 1863 2753 
Q 2328 2753 2575 2939 
Q 2822 3125 2822 3475 
Q 2822 3834 2567 4026 
Q 2313 4219 1838 4219 
Q 1578 4219 1281 4162 
Q 984 4106 628 3988 
L 628 4550 
Q 988 4650 1302 4700 
Q 1616 4750 1894 4750 
Q 2613 4750 3031 4423 
Q 3450 4097 3450 3541 
Q 3450 3153 3228 2886 
Q 3006 2619 2597 2516 
z
" transform="scale(0.015625)"/>
       </defs>
       <use xlink:href="#DejaVuSans-2212"/>
       <use xlink:href="#DejaVuSans-33" x="83.789062"/>
       <use xlink:href="#DejaVuSans-30" x="147.412109"/>
      </g>
     </g>
    </g>
    <g id="ytick_7">
     <g id="line2d_29">
      <path d="M 57.6 108 
L 414.72 108 
" clip-path="url(#p77b6a76a79)" style="fill: none; stroke: #b0b0b0; stroke-width: 0.8; stroke-linecap: square"/>
     </g>
     <g id="line2d_30">
      <g>
       <use xlink:href="#md95b3251d2" x="57.6" y="108" style="stroke: #000000; stroke-width: 0.8"/>
      </g>
     </g>
     <g id="text_16">
      <!-- −20 -->
      <g transform="translate(29.495313 111.799219)scale(0.1 -0.1)">
       <use xlink:href="#DejaVuSans-2212"/>
       <use xlink:href="#DejaVuSans-32" x="83.789062"/>
       <use xlink:href="#DejaVuSans-30" x="147.412109"/>
      </g>
     </g>
    </g>
    <g id="ytick_8">
     <g id="line2d_31">
      <path d="M 57.6 74.736 
L 414.72 74.736 
" clip-path="url(#p77b6a76a79)" style="fill: none; stroke: #b0b0b0; stroke-width: 0.8; stroke-linecap: square"/>
     </g>
     <g id="line2d_32">
      <g>
       <use xlink:href="#md95b3251d2" x="57.6" y="74.736" style="stroke: #000000; stroke-width: 0.8"/>
      </g>
     </g>
     <g id="text_17">
      <!-- −10 -->
      <g transform="translate(29.495313 78.535219)scale(0.1 -0.1)">
       <use xlink:href="#DejaVuSans-2212"/>
       <use xlink:href="#DejaVuSans-31" x="83.789062"/>
       <use xlink:href="#DejaVuSans-30" x="147.412109"/>
      </g>
     </g>
    </g>
    <g id="ytick_9">
     <g id="line2d_33">
      <path d="M 57.6 41.472 
L 414.72 41.472 
" clip-path="url(#p77b6a76a79)" style="fill: none; stroke: #b0b0b0; stroke-width: 0.8; stroke-linecap: square"/>
     </g>
     <g id="line2d_34">
      <g>
       <use xlink:href="#md95b3251d2" x="57.6" y="41.472" style="stroke: #000000; stroke-width: 0.8"/>
      </g>
     </g>
     <g id="text_18">
      <!-- 0 -->
      <g transform="translate(44.2375 45.271219)scale(0.1 -0.1)">
       <use xlink:href="#DejaVuSans-30"/>
      </g>
     </g>
    </g>
    <g id="text_19">
     <!-- Amplituda [dB] -->
     <g transform="translate(23.415625 212.233469)rotate(-90)scale(0.1 -0.1)">
      <defs>
       <path id="DejaVuSans-41" d="M 2188 4044 
L 1331 1722 
L 3047 1722 
L 2188 4044 
z
M 1831 4666 
L 2547 4666 
L 4325 0 
L 3669 0 
L 3244 1197 
L 1141 1197 
L 716 0 
L 50 0 
L 1831 4666 
z
" transform="scale(0.015625)"/>
       <path id="DejaVuSans-6d" d="M 3328 2828 
Q 3544 3216 3844 3400 
Q 4144 3584 4550 3584 
Q 5097 3584 5394 3201 
Q 5691 2819 5691 2113 
L 5691 0 
L 5113 0 
L 5113 2094 
Q 5113 2597 4934 2840 
Q 4756 3084 4391 3084 
Q 3944 3084 3684 2787 
Q 3425 2491 3425 1978 
L 3425 0 
L 2847 0 
L 2847 2094 
Q 2847 2600 2669 2842 
Q 2491 3084 2119 3084 
Q 1678 3084 1418 2786 
Q 1159 2488 1159 1978 
L 1159 0 
L 581 0 
L 581 3500 
L 1159 3500 
L 1159 2956 
Q 1356 3278 1631 3431 
Q 1906 3584 2284 3584 
Q 2666 3584 2933 3390 
Q 3200 3197 3328 2828 
z
" transform="scale(0.015625)"/>
       <path id="DejaVuSans-70" d="M 1159 525 
L 1159 -1331 
L 581 -1331 
L 581 3500 
L 1159 3500 
L 1159 2969 
Q 1341 3281 1617 3432 
Q 1894 3584 2278 3584 
Q 2916 3584 3314 3078 
Q 3713 2572 3713 1747 
Q 3713 922 3314 415 
Q 2916 -91 2278 -91 
Q 1894 -91 1617 61 
Q 1341 213 1159 525 
z
M 3116 1747 
Q 3116 2381 2855 2742 
Q 2594 3103 2138 3103 
Q 1681 3103 1420 2742 
Q 1159 2381 1159 1747 
Q 1159 1113 1420 752 
Q 1681 391 2138 391 
Q 2594 391 2855 752 
Q 3116 1113 3116 1747 
z
" transform="scale(0.015625)"/>
       <path id="DejaVuSans-6c" d="M 603 4863 
L 1178 4863 
L 1178 0 
L 603 0 
L 603 4863 
z
" transform="scale(0.015625)"/>
       <path id="DejaVuSans-69" d="M 603 3500 
L 1178 3500 
L 1178 0 
L 603 0 
L 603 3500 
z
M 603 4863 
L 1178 4863 
L 1178 4134 
L 603 4134 
L 603 4863 
z
" transform="scale(0.015625)"/>
       <path id="DejaVuSans-74" d="M 1172 4494 
L 1172 3500 
L 2356 3500 
L 2356 3053 
L 1172 3053 
L 1172 1153 
Q 1172 725 1289 603 
Q 1406 481 1766 481 
L 2356 481 
L 2356 0 
L 1766 0 
Q 1100 0 847 248 
Q 594 497 594 1153 
L 594 3053 
L 172 3053 
L 172 3500 
L 594 3500 
L 594 4494 
L 1172 4494 
z
" transform="scale(0.015625)"/>
       <path id="DejaVuSans-75" d="M 544 1381 
L 544 3500 
L 1119 3500 
L 1119 1403 
Q 1119 906 1312 657 
Q 1506 409 1894 409 
Q 2359 409 2629 706 
Q 2900 1003 2900 1516 
L 2900 3500 
L 3475 3500 
L 3475 0 
L 2900 0 
L 2900 538 
Q 2691 219 2414 64 
Q 2138 -91 1772 -91 
Q 1169 -91 856 284 
Q 544 659 544 1381 
z
M 1991 3584 
L 1991 3584 
z
" transform="scale(0.015625)"/>
       <path id="DejaVuSans-64" d="M 2906 2969 
L 2906 4863 
L 3481 4863 
L 3481 0 
L 2906 0 
L 2906 525 
Q 2725 213 2448 61 
Q 2172 -91 1784 -91 
Q 1150 -91 751 415 
Q 353 922 353 1747 
Q 353 2572 751 3078 
Q 1150 3584 1784 3584 
Q 2172 3584 2448 3432 
Q 2725 3281 2906 2969 
z
M 947 1747 
Q 947 1113 1208 752 
Q 1469 391 1925 391 
Q 2381 391 2643 752 
Q 2906 1113 2906 1747 
Q 2906 2381 2643 2742 
Q 2381 3103 1925 3103 
Q 1469 3103 1208 2742 
Q 947 2381 947 1747 
z
" transform="scale(0.015625)"/>
       <path id="DejaVuSans-42" d="M 1259 2228 
L 1259 519 
L 2272 519 
Q 2781 519 3026 730 
Q 3272 941 3272 1375 
Q 3272 1813 3026 2020 
Q 2781 2228 2272 2228 
L 1259 2228 
z
M 1259 4147 
L 1259 2741 
L 2194 2741 
Q 2656 2741 2882 2914 
Q 3109 3088 3109 3444 
Q 3109 3797 2882 3972 
Q 2656 4147 2194 4147 
L 1259 4147 
z
M 628 4666 
L 2241 4666 
Q 2963 4666 3353 4366 
Q 3744 4066 3744 3513 
Q 3744 3084 3544 2831 
Q 3344 2578 2956 2516 
Q 3422 2416 3680 2098 
Q 3938 1781 3938 1306 
Q 3938 681 3513 340 
Q 3088 0 2303 0 
L 628 0 
L 628 4666 
z
" transform="scale(0.015625)"/>
      </defs>
      <use xlink:href="#DejaVuSans-41"/>
      <use xlink:href="#DejaVuSans-6d" x="68.408203"/>
      <use xlink:href="#DejaVuSans-70" x="165.820312"/>
      <use xlink:href="#DejaVuSans-6c" x="229.296875"/>
      <use xlink:href="#DejaVuSans-69" x="257.080078"/>
      <use xlink:href="#DejaVuSans-74" x="284.863281"/>
      <use xlink:href="#DejaVuSans-75" x="324.072266"/>
      <use xlink:href="#DejaVuSans-64" x="387.451172"/>
      <use xlink:href="#DejaVuSans-61" x="450.927734"/>
      <use xlink:href="#DejaVuSans-20" x="512.207031"/>
      <use xlink:href="#DejaVuSans-5b" x="543.994141"/>
      <use xlink:href="#DejaVuSans-64" x="583.007812"/>
      <use xlink:href="#DejaVuSans-42" x="646.484375"/>
      <use xlink:href="#DejaVuSans-5d" x="715.087891"/>
     </g>
    </g>
   </g>
   <g id="line2d_35">
    <path d="M 58.604378 289.105455 
L 59.049522 279.142931 
L 59.494667 251.486326 
L 59.939811 256.613307 
L 60.384956 241.961875 
L 60.8301 236.04549 
L 61.275245 227.747137 
L 61.720389 223.308505 
L 62.165534 215.015737 
L 64.391257 191.191464 
L 64.836401 188.951211 
L 65.281546 184.364996 
L 65.72669 184.024862 
L 66.171835 180.958716 
L 66.616979 179.71736 
L 67.062124 177.521817 
L 67.507268 173.295615 
L 67.952413 172.208874 
L 68.397557 168.701315 
L 68.842702 167.762472 
L 69.287846 165.506198 
L 70.178135 159.369891 
L 71.958714 153.818269 
L 72.403858 150.976187 
L 72.849003 150.341353 
L 73.294147 149.257635 
L 73.739292 148.695347 
L 74.184436 147.684068 
L 74.629581 145.725354 
L 75.074725 144.460042 
L 75.51987 144.070527 
L 76.410159 141.222137 
L 76.855303 139.011009 
L 77.300448 137.726244 
L 77.745592 137.18607 
L 79.081026 134.367564 
L 79.971315 133.474649 
L 80.41646 132.93196 
L 81.306749 131.167854 
L 82.197038 130.627447 
L 83.977616 127.070042 
L 84.42276 126.748861 
L 84.867905 126.884442 
L 86.203338 123.565909 
L 86.648483 123.056294 
L 87.093628 123.471343 
L 87.538772 123.206152 
L 87.983917 123.073695 
L 88.429061 122.131083 
L 88.874206 121.781598 
L 89.31935 122.00619 
L 89.764495 122.376418 
L 90.209639 122.556503 
L 91.099928 120.785394 
L 91.545073 121.129773 
L 92.435362 121.286487 
L 92.880506 120.839382 
L 93.325651 119.684516 
L 93.770795 119.705588 
L 94.21594 120.036545 
L 94.661084 119.556735 
L 95.106229 119.796838 
L 95.551374 119.761133 
L 95.996518 119.234607 
L 96.441663 118.986174 
L 96.886807 118.170741 
L 97.331952 116.890449 
L 97.777096 116.799585 
L 98.222241 117.056114 
L 98.667385 115.662682 
L 99.11253 113.368134 
L 99.557674 112.211585 
L 100.002819 111.476953 
L 100.447963 111.479022 
L 100.893108 110.836245 
L 101.338252 108.683153 
L 101.783397 107.442835 
L 102.673686 107.015129 
L 103.118831 107.756408 
L 103.563975 107.097062 
L 104.00912 105.324078 
L 104.454264 105.214992 
L 104.899409 105.524819 
L 105.344553 105.405514 
L 105.789698 104.951913 
L 106.679987 102.071909 
L 107.125131 101.302224 
L 107.570276 100.952463 
L 108.01542 100.931373 
L 108.905709 99.072531 
L 109.350854 98.580164 
L 109.795998 98.771642 
L 110.241143 99.551519 
L 110.686287 99.572765 
L 111.131432 99.264973 
L 111.576577 98.68591 
L 112.021721 98.349492 
L 112.466866 97.743621 
L 112.91201 97.765998 
L 113.357155 98.271301 
L 114.247444 97.445895 
L 114.692588 96.605447 
L 115.137733 96.658742 
L 115.582877 97.396235 
L 116.028022 97.772132 
L 116.473166 97.88958 
L 116.918311 98.312692 
L 117.8086 100.471964 
L 118.253744 100.836584 
L 118.698889 100.909303 
L 119.144034 100.868794 
L 120.034323 102.456588 
L 120.479467 101.571027 
L 120.924612 101.408033 
L 121.814901 103.091218 
L 122.260045 103.609525 
L 122.70519 103.125869 
L 123.150334 103.370077 
L 123.595479 105.996539 
L 124.485768 109.674393 
L 124.930912 109.970499 
L 125.376057 109.529272 
L 125.821201 110.807831 
L 126.266346 113.132745 
L 126.71149 113.930163 
L 127.60178 111.706528 
L 128.046924 111.906022 
L 128.492069 112.811534 
L 128.937213 114.197063 
L 129.382358 114.454211 
L 129.827502 113.313645 
L 130.272647 113.73337 
L 130.717791 115.508141 
L 131.162936 117.775987 
L 131.60808 119.290444 
L 132.053225 118.214885 
L 132.498369 118.262653 
L 133.833803 121.866039 
L 134.278947 122.193799 
L 134.724092 122.010531 
L 135.169237 122.68087 
L 135.614381 123.636242 
L 136.50467 126.707946 
L 137.394959 129.047753 
L 137.840104 129.419052 
L 138.285248 130.49479 
L 138.730393 132.004999 
L 139.175537 132.407962 
L 139.620682 133.228269 
L 140.065826 132.596466 
L 140.510971 132.661481 
L 140.956115 133.035734 
L 141.40126 133.194353 
L 141.846404 133.922712 
L 142.291549 133.88208 
L 142.736694 134.053542 
L 143.181838 134.657327 
L 143.626983 135.894765 
L 144.072127 137.892963 
L 144.517272 139.28413 
L 144.962416 140.112427 
L 145.407561 140.229037 
L 145.852705 139.569369 
L 146.742994 142.421072 
L 147.188139 142.719253 
L 148.523572 137.093852 
L 148.968717 136.4869 
L 149.859006 131.165153 
L 150.30415 130.109506 
L 150.749295 131.247621 
L 151.19444 137.788015 
L 152.975018 172.524992 
L 154.310451 189.152794 
L 154.755596 191.824655 
L 155.20074 196.528936 
L 155.645885 197.279838 
L 156.091029 206.533037 
L 156.536174 208.312286 
L 156.981318 211.245073 
L 157.426463 218.026631 
L 157.871607 213.591432 
L 158.316752 217.004904 
L 158.761897 219.349284 
L 159.652186 230.644617 
L 160.09733 223.291071 
L 160.542475 231.341502 
L 160.987619 232.033955 
L 161.432764 239.317018 
L 161.877908 252.777182 
L 162.323053 236.748794 
L 162.768197 244.091699 
L 163.213342 235.131462 
L 163.658486 235.473596 
L 164.103631 261.60283 
L 164.99392 236.671559 
L 165.439064 233.973685 
L 165.884209 247.236864 
L 166.329353 247.17631 
L 166.774498 244.04662 
L 167.219643 265.479101 
L 167.664787 281.409932 
L 168.109932 267.217171 
L 168.555076 246.351709 
L 169.000221 257.543757 
L 169.445365 277.374187 
L 169.89051 268.96421 
L 170.335654 267.009754 
L 170.780799 281.599816 
L 171.671088 266.420332 
L 172.116232 298.912025 
L 172.561377 267.008463 
L 173.006521 330.739576 
L 173.451666 328.145297 
L 173.89681 278.165851 
L 174.341955 246.481698 
L 174.7871 290.48159 
L 175.232244 257.370216 
L 175.677389 266.763114 
L 176.122533 251.421771 
L 176.567678 258.426088 
L 177.012822 269.520274 
L 177.457967 252.313369 
L 177.903111 327.800529 
L 178.348256 271.279191 
L 178.7934 275.543789 
L 179.238545 309.336491 
L 179.683689 268.778218 
L 180.128834 273.061403 
L 180.573978 284.650468 
L 181.019123 310.208027 
L 181.464267 278.002005 
L 181.909412 275.180942 
L 182.354556 249.725526 
L 182.799701 285.046652 
L 183.244846 287.017211 
L 183.68999 279.390714 
L 184.135135 265.488628 
L 184.580279 270.494267 
L 185.025424 268.66996 
L 185.470568 269.717127 
L 185.915713 329.002387 
L 186.360857 271.51327 
L 186.806002 285.13102 
L 187.251146 261.602468 
L 188.141435 256.063433 
L 188.58658 262.854957 
L 189.031724 296.229596 
L 189.476869 275.74499 
L 189.922013 262.493161 
L 190.367158 270.241218 
L 190.812303 271.297606 
L 191.257447 268.971508 
L 191.702592 265.42204 
L 192.592881 251.248845 
L 193.038025 291.648458 
L 193.48317 277.475546 
L 193.928314 259.540402 
L 194.373459 289.899703 
L 194.818603 267.805206 
L 195.263748 254.953353 
L 195.708892 257.791052 
L 196.154037 287.481321 
L 196.599181 272.375197 
L 197.044326 267.218605 
L 197.48947 284.623151 
L 197.934615 250.832705 
L 198.379759 272.997207 
L 198.824904 279.585701 
L 199.270049 262.412483 
L 199.715193 272.614348 
L 200.160338 265.527826 
L 200.605482 265.864527 
L 201.050627 287.190783 
L 201.495771 281.746265 
L 201.940916 265.056685 
L 202.38606 281.060381 
L 202.831205 255.837268 
L 203.276349 255.619788 
L 203.721494 249.657006 
L 204.166638 263.190471 
L 204.611783 267.554515 
L 205.056927 270.534623 
L 205.502072 294.508796 
L 205.947216 266.115321 
L 206.392361 255.091199 
L 206.837506 268.793832 
L 207.28265 271.898773 
L 207.727795 255.407656 
L 208.172939 253.640726 
L 208.618084 247.446773 
L 209.063228 269.937724 
L 209.508373 307.306771 
L 209.953517 244.067273 
L 210.398662 318.296116 
L 210.843806 269.174412 
L 211.288951 288.782682 
L 211.734095 284.566456 
L 212.17924 256.002603 
L 213.069529 278.884536 
L 213.514673 293.325639 
L 213.959818 275.318419 
L 214.404962 249.937092 
L 214.850107 274.727135 
L 215.295252 261.362441 
L 215.740396 254.938584 
L 216.185541 268.113124 
L 216.630685 264.59166 
L 217.07583 245.032226 
L 217.520974 236.341041 
L 217.966119 246.487086 
L 218.411263 273.991621 
L 218.856408 256.484884 
L 219.301552 261.448834 
L 219.746697 291.769087 
L 220.636986 253.445669 
L 221.08213 300.426159 
L 221.527275 252.700123 
L 221.972419 276.966999 
L 222.417564 240.330492 
L 223.307853 295.650913 
L 223.752998 241.328412 
L 224.198142 250.372558 
L 224.643287 234.742732 
L 225.088431 242.630711 
L 225.533576 254.775311 
L 225.97872 303.699204 
L 226.423865 259.70155 
L 226.869009 272.739674 
L 227.314154 241.189462 
L 227.759298 243.577913 
L 228.204443 257.295817 
L 228.649587 255.190027 
L 229.094732 249.451724 
L 229.539876 234.987891 
L 229.985021 258.301358 
L 230.430165 287.435816 
L 230.87531 256.504334 
L 231.320455 244.053173 
L 231.765599 244.036847 
L 232.210744 266.36547 
L 232.655888 254.059091 
L 233.101033 281.18708 
L 233.991322 233.679861 
L 234.436466 252.337675 
L 234.881611 294.838456 
L 235.326755 242.577126 
L 235.7719 266.935306 
L 236.217044 238.4478 
L 236.662189 301.639081 
L 237.107333 261.829152 
L 237.552478 262.356626 
L 237.997622 250.652807 
L 238.442767 254.552279 
L 238.887912 272.84213 
L 239.333056 264.86192 
L 239.778201 224.576293 
L 240.223345 246.279333 
L 240.66849 256.250227 
L 241.113634 256.58144 
L 241.558779 253.549127 
L 242.003923 233.143452 
L 242.449068 259.40225 
L 242.894212 237.090715 
L 243.339357 280.101423 
L 243.784501 253.56827 
L 244.229646 274.010056 
L 244.67479 245.570826 
L 245.119935 243.002619 
L 245.565079 234.235669 
L 246.010224 241.624352 
L 246.455368 246.449798 
L 246.900513 280.948813 
L 247.345658 261.920784 
L 247.790802 272.429667 
L 248.235947 245.099658 
L 248.681091 249.495423 
L 249.126236 255.629514 
L 249.57138 308.901853 
L 250.016525 265.695523 
L 250.461669 248.655836 
L 250.906814 250.850858 
L 251.351958 244.437838 
L 251.797103 255.03953 
L 252.242247 221.828377 
L 252.687392 239.121073 
L 253.132536 266.161611 
L 253.577681 244.219563 
L 254.022825 233.501662 
L 254.46797 260.164488 
L 254.913115 244.884613 
L 255.358259 258.281639 
L 255.803404 261.309388 
L 256.248548 254.296662 
L 256.693693 257.62094 
L 257.138837 243.021719 
L 257.583982 272.715288 
L 258.029126 262.836123 
L 258.474271 228.986334 
L 258.919415 246.091561 
L 259.36456 233.933123 
L 259.809704 216.123172 
L 260.254849 256.387394 
L 260.699993 282.449206 
L 261.145138 252.528142 
L 261.590282 244.168762 
L 262.035427 232.575001 
L 262.480571 243.070205 
L 262.925716 232.64573 
L 263.370861 239.539135 
L 263.816005 229.225688 
L 264.26115 233.407715 
L 264.706294 246.650449 
L 265.151439 240.480633 
L 265.596583 239.457848 
L 266.486872 261.868526 
L 266.932017 241.946354 
L 267.377161 246.480164 
L 267.822306 253.483247 
L 268.26745 232.454918 
L 269.157739 226.470657 
L 269.602884 248.965188 
L 270.048028 223.886823 
L 270.493173 228.345024 
L 270.938318 225.020324 
L 271.383462 234.821056 
L 271.828607 222.884768 
L 272.273751 228.115619 
L 272.718896 226.858649 
L 273.16404 223.954575 
L 273.609185 232.651977 
L 274.054329 234.952821 
L 274.499474 228.830392 
L 274.944618 239.603095 
L 275.389763 233.355866 
L 275.834907 224.345903 
L 276.280052 235.056056 
L 276.725196 250.340574 
L 277.170341 230.701981 
L 277.615485 257.101572 
L 278.06063 253.487356 
L 278.505774 259.508342 
L 278.950919 242.537372 
L 279.396064 251.237472 
L 279.841208 228.390333 
L 280.286353 228.623776 
L 280.731497 245.733514 
L 281.176642 231.04502 
L 281.621786 229.35263 
L 282.066931 224.702829 
L 282.512075 253.063386 
L 282.95722 225.998575 
L 283.402364 228.02396 
L 283.847509 218.634833 
L 284.292653 212.536617 
L 284.737798 221.609952 
L 285.182942 223.379487 
L 285.628087 214.618056 
L 286.073231 211.308574 
L 286.963521 213.779277 
L 287.408665 214.300018 
L 287.85381 230.156598 
L 288.298954 212.387139 
L 288.744099 215.493344 
L 289.189243 237.067643 
L 289.634388 227.637898 
L 290.079532 266.250303 
L 290.524677 234.411393 
L 290.969821 287.224696 
L 291.414966 243.193827 
L 292.305255 250.3985 
L 292.750399 324.064333 
L 293.195544 240.600287 
L 293.640688 245.057356 
L 294.085833 248.359673 
L 294.530977 245.119743 
L 294.976122 257.557825 
L 295.421267 242.77666 
L 295.866411 244.4625 
L 296.311556 233.107913 
L 296.7567 238.981095 
L 297.201845 251.01463 
L 297.646989 240.731147 
L 298.092134 239.593279 
L 298.537278 221.289194 
L 298.982423 236.099178 
L 299.427567 226.915543 
L 299.872712 233.238145 
L 300.317856 233.522269 
L 300.763001 234.50707 
L 301.208145 234.828038 
L 301.65329 221.673147 
L 302.098434 269.556076 
L 302.543579 258.158862 
L 302.988724 220.341869 
L 303.433868 241.815707 
L 303.879013 245.766794 
L 304.324157 266.713867 
L 304.769302 253.159911 
L 305.214446 256.32854 
L 305.659591 227.049268 
L 306.104735 275.734152 
L 306.54988 252.358429 
L 306.995024 237.978584 
L 307.440169 274.245299 
L 307.885313 255.323249 
L 308.330458 270.036196 
L 308.775602 234.720964 
L 309.220747 251.022074 
L 309.665891 247.023994 
L 310.111036 232.5031 
L 310.55618 243.436076 
L 311.001325 281.726063 
L 311.44647 262.788239 
L 311.891614 226.122852 
L 312.336759 218.869547 
L 312.781903 234.383481 
L 313.227048 210.494048 
L 313.672192 207.475101 
L 314.117337 214.039019 
L 314.562481 210.476139 
L 315.007626 213.803932 
L 315.45277 206.093131 
L 315.897915 221.410298 
L 316.343059 283.430724 
L 316.788204 278.127421 
L 317.233348 224.631185 
L 317.678493 234.955662 
L 318.123637 238.878356 
L 318.568782 254.394395 
L 319.013927 292.217253 
L 319.459071 238.414532 
L 319.904216 304.686376 
L 320.34936 241.086257 
L 320.794505 253.860378 
L 321.239649 257.162858 
L 321.684794 250.311149 
L 322.129938 250.324385 
L 322.575083 234.315466 
L 323.020227 244.85915 
L 323.465372 284.851412 
L 323.910516 241.482671 
L 324.355661 234.103531 
L 324.800805 216.828588 
L 325.24595 219.355957 
L 326.136239 227.307087 
L 326.581383 214.18735 
L 327.026528 210.492535 
L 327.916817 218.049683 
L 328.361962 203.77161 
L 329.252251 220.113222 
L 329.697395 208.386824 
L 330.14254 215.766389 
L 330.587684 217.891456 
L 331.032829 224.175092 
L 331.477973 216.809724 
L 331.923118 219.442663 
L 332.368262 210.759189 
L 332.813407 207.032446 
L 333.258551 219.208461 
L 333.703696 208.934632 
L 334.14884 223.017715 
L 334.593985 213.123241 
L 335.03913 218.207148 
L 335.484274 207.362595 
L 335.929419 211.190846 
L 336.819708 244.943424 
L 337.264852 268.159454 
L 337.709997 238.910695 
L 338.155141 242.724808 
L 339.04543 221.274325 
L 339.490575 215.423177 
L 339.935719 224.569187 
L 340.380864 220.196069 
L 340.826008 230.722006 
L 341.271153 222.366765 
L 341.716297 221.642744 
L 342.161442 239.528767 
L 342.606586 244.823251 
L 343.051731 224.495784 
L 343.496876 235.94944 
L 343.94202 223.414095 
L 344.387165 234.731725 
L 344.832309 229.623745 
L 345.277454 234.936166 
L 345.722598 234.250578 
L 346.167743 253.810086 
L 346.612887 232.059558 
L 347.058032 220.290486 
L 347.503176 262.553203 
L 347.948321 219.957287 
L 348.393465 257.066086 
L 348.83861 247.276258 
L 349.283754 222.889791 
L 349.728899 248.229362 
L 350.174043 235.005159 
L 350.619188 246.184826 
L 351.064333 237.872712 
L 351.509477 226.044888 
L 351.954622 256.850502 
L 352.399766 256.083188 
L 352.844911 250.20674 
L 353.290055 229.538523 
L 353.7352 318.46837 
L 354.180344 271.216698 
L 354.625489 248.526745 
L 355.070633 279.369003 
L 355.515778 231.954424 
L 355.960922 225.654389 
L 356.406067 245.096615 
L 356.851211 227.617484 
L 357.296356 252.582764 
L 357.7415 241.687424 
L 358.186645 240.721151 
L 358.631789 235.795185 
L 359.076934 260.855182 
L 359.522079 226.406388 
L 359.967223 251.2462 
L 360.412368 220.038577 
L 360.857512 238.101139 
L 361.302657 224.135322 
L 361.747801 225.921622 
L 362.192946 224.592163 
L 362.63809 217.474655 
L 363.083235 229.446322 
L 363.528379 232.206455 
L 363.973524 242.771065 
L 364.418668 290.789645 
L 364.863813 239.270768 
L 365.308957 240.392666 
L 365.754102 234.143395 
L 366.199246 258.00148 
L 366.644391 229.604163 
L 367.089536 228.435263 
L 367.53468 251.141026 
L 367.979825 228.101099 
L 368.424969 248.005641 
L 368.870114 246.879575 
L 369.315258 233.559469 
L 369.760403 232.467215 
L 370.205547 215.465436 
L 370.650692 265.649968 
L 371.095836 230.663877 
L 371.540981 218.54368 
L 371.986125 227.07715 
L 372.43127 238.098704 
L 372.876414 261.63336 
L 373.321559 224.227659 
L 373.766703 220.758261 
L 374.211848 236.910118 
L 374.656992 247.83374 
L 375.102137 234.16176 
L 375.547282 210.546732 
L 376.437571 222.580799 
L 376.882715 257.297996 
L 377.32786 226.832091 
L 377.773004 234.272735 
L 378.218149 239.562679 
L 378.663293 239.733081 
L 379.108438 237.942549 
L 379.553582 266.998367 
L 379.998727 246.988135 
L 380.443871 248.879367 
L 380.889016 255.543773 
L 381.33416 253.339311 
L 381.779305 230.148159 
L 382.224449 241.328329 
L 382.669594 245.664917 
L 383.114739 254.250029 
L 383.559883 246.82902 
L 384.005028 242.455686 
L 384.450172 293.913371 
L 384.895317 247.198534 
L 385.340461 250.097142 
L 385.785606 258.003715 
L 386.23075 230.04225 
L 387.121039 244.905164 
L 387.566184 238.22199 
L 388.011328 223.469979 
L 388.456473 234.229961 
L 388.901617 239.040528 
L 389.346762 270.569647 
L 389.791906 212.328075 
L 390.237051 235.429055 
L 390.682195 236.937208 
L 391.12734 243.425894 
L 391.572485 263.59414 
L 392.017629 231.544086 
L 392.462774 235.263573 
L 392.907918 236.80226 
L 393.353063 237.384759 
L 393.798207 249.823898 
L 394.243352 274.32941 
L 394.688496 229.697176 
L 395.133641 221.87952 
L 395.578785 254.249294 
L 396.02393 238.399996 
L 396.469074 246.118704 
L 396.914219 237.342563 
L 397.359363 245.238353 
L 397.804508 235.419465 
L 398.249652 246.265881 
L 398.694797 231.735387 
L 399.139942 228.952647 
L 400.030231 275.468017 
L 400.475375 293.415904 
L 400.92052 233.503831 
L 401.365664 268.021778 
L 401.810809 241.717421 
L 402.255953 275.486116 
L 402.701098 234.838632 
L 403.146242 244.116541 
L 403.591387 222.091602 
L 404.036531 266.679795 
L 404.481676 232.407726 
L 404.92682 272.686066 
L 405.371965 252.991905 
L 405.817109 281.937037 
L 406.262254 231.094546 
L 406.707398 247.137098 
L 407.152543 233.125942 
L 407.597688 230.601301 
L 408.042832 245.712987 
L 408.487977 235.507162 
L 408.933121 262.864351 
L 409.378266 261.527022 
L 409.82341 220.643916 
L 410.230429 346.6 
M 410.321337 346.6 
L 410.713699 258.896351 
L 411.158844 263.863358 
L 411.603988 261.668433 
L 412.049133 252.076842 
L 412.494277 263.949905 
L 412.939422 258.136479 
L 413.384566 221.548513 
L 413.829711 266.929887 
L 414.274855 224.932883 
L 414.72 233.772568 
L 414.72 233.772568 
" clip-path="url(#p77b6a76a79)" style="fill: none; stroke: #1f77b4; stroke-width: 1.5; stroke-linecap: square"/>
   </g>
   <g id="line2d_36">
    <path d="M 58.604378 293.711891 
L 59.049522 242.265359 
L 59.494667 258.743843 
L 59.939811 233.508106 
L 60.384956 247.897776 
L 60.8301 229.831093 
L 61.275245 229.765121 
L 61.720389 222.624464 
L 62.165534 230.287006 
L 62.610678 225.859345 
L 63.055823 219.262681 
L 63.500968 215.041679 
L 63.946112 214.076581 
L 64.391257 209.758618 
L 64.836401 207.527807 
L 65.281546 206.703249 
L 65.72669 208.045016 
L 66.171835 207.941142 
L 66.616979 206.502917 
L 67.062124 201.570947 
L 67.507268 205.653847 
L 67.952413 201.993143 
L 68.397557 199.632331 
L 68.842702 200.335169 
L 69.287846 198.373235 
L 70.62328 194.578508 
L 71.068425 195.40263 
L 71.513569 194.393204 
L 71.958714 192.610733 
L 72.403858 189.78152 
L 72.849003 188.898953 
L 73.294147 191.656598 
L 73.739292 191.355868 
L 74.184436 188.504927 
L 74.629581 188.414782 
L 75.51987 187.192673 
L 75.965014 187.311944 
L 76.410159 186.894674 
L 76.855303 183.232291 
L 77.300448 184.157522 
L 78.190737 183.347793 
L 78.635881 182.548137 
L 79.081026 184.110397 
L 79.526171 180.895594 
L 79.971315 184.631737 
L 80.41646 182.426816 
L 80.861604 183.429456 
L 81.306749 181.698049 
L 81.751893 181.775431 
L 82.197038 183.260628 
L 82.642182 181.380627 
L 83.087327 181.284271 
L 83.532471 182.215863 
L 83.977616 182.603438 
L 84.42276 179.723883 
L 84.867905 181.497277 
L 85.313049 180.754755 
L 85.758194 181.871896 
L 86.203338 179.910015 
L 86.648483 181.303411 
L 87.093628 181.354774 
L 87.538772 182.182229 
L 87.983917 181.735171 
L 88.429061 181.984259 
L 88.874206 180.327871 
L 89.31935 180.720978 
L 89.764495 183.526527 
L 90.209639 183.636874 
L 90.654784 181.223082 
L 91.099928 180.172309 
L 91.545073 182.499099 
L 91.990217 182.252546 
L 92.435362 183.404229 
L 92.880506 182.882423 
L 93.325651 181.49898 
L 93.770795 183.160191 
L 94.21594 184.011663 
L 94.661084 184.052195 
L 95.106229 185.400834 
L 95.551374 184.453951 
L 95.996518 184.989721 
L 96.441663 184.307879 
L 96.886807 185.856015 
L 97.331952 184.807065 
L 97.777096 184.551657 
L 98.222241 182.979258 
L 99.11253 181.551028 
L 100.002819 185.733687 
L 100.447963 186.754406 
L 100.893108 184.95022 
L 101.338252 185.712192 
L 101.783397 187.926064 
L 102.228541 186.120807 
L 102.673686 189.212878 
L 103.118831 193.385874 
L 103.563975 190.877459 
L 104.00912 190.273401 
L 104.454264 191.052248 
L 104.899409 192.262815 
L 105.344553 192.532416 
L 105.789698 192.611658 
L 106.234842 194.19846 
L 106.679987 191.888924 
L 107.125131 192.927566 
L 107.570276 196.266932 
L 108.01542 195.908566 
L 108.460565 196.081638 
L 108.905709 196.773426 
L 109.350854 198.451156 
L 109.795998 195.054822 
L 110.241143 195.529433 
L 110.686287 196.563946 
L 111.131432 193.349856 
L 111.576577 196.299178 
L 112.021721 191.795805 
L 112.466866 192.008728 
L 112.91201 193.944433 
L 113.357155 189.104917 
L 113.802299 187.787044 
L 114.692588 183.25489 
L 115.137733 178.939588 
L 115.582877 180.451287 
L 116.028022 177.744203 
L 116.473166 177.303452 
L 116.918311 176.206758 
L 117.363455 174.034475 
L 117.8086 173.244439 
L 118.253744 172.889206 
L 118.698889 171.806173 
L 119.144034 171.412228 
L 119.589178 170.491776 
L 120.034323 167.33949 
L 120.479467 167.901568 
L 120.924612 166.919572 
L 121.369756 168.040336 
L 121.814901 166.959266 
L 122.260045 163.693922 
L 122.70519 161.998296 
L 123.150334 162.606415 
L 124.040623 165.759872 
L 124.485768 165.090152 
L 124.930912 164.968013 
L 125.376057 163.289142 
L 126.266346 164.314911 
L 126.71149 166.609708 
L 127.156635 164.84617 
L 128.046924 162.443518 
L 128.937213 162.850813 
L 129.382358 163.685792 
L 129.827502 161.758283 
L 130.272647 161.387216 
L 130.717791 161.420377 
L 131.162936 161.062297 
L 131.60808 162.210261 
L 132.053225 161.780979 
L 132.498369 162.96402 
L 132.943514 162.040032 
L 134.278947 165.713413 
L 134.724092 164.976528 
L 135.169237 165.062403 
L 135.614381 166.525254 
L 136.059526 166.794735 
L 136.50467 167.881906 
L 136.949815 167.372601 
L 137.394959 170.855821 
L 137.840104 171.514202 
L 138.285248 172.660732 
L 138.730393 176.005038 
L 139.175537 176.411181 
L 139.620682 181.113816 
L 140.065826 180.028502 
L 140.510971 182.745406 
L 140.956115 182.401975 
L 141.40126 183.000337 
L 141.846404 183.177854 
L 142.736694 185.043266 
L 143.181838 186.985072 
L 143.626983 192.778363 
L 144.072127 188.941644 
L 144.517272 188.885295 
L 144.962416 188.660906 
L 145.407561 186.338184 
L 146.29785 177.886543 
L 146.742994 176.283385 
L 147.188139 172.046539 
L 147.633283 169.497881 
L 148.523572 161.089467 
L 148.968717 157.562768 
L 149.413861 155.869394 
L 149.859006 153.341423 
L 150.30415 154.632738 
L 150.749295 157.174491 
L 151.19444 162.982438 
L 151.639584 164.275317 
L 152.084729 164.417134 
L 152.529873 160.85121 
L 152.975018 156.259258 
L 153.420162 153.22457 
L 153.865307 151.66043 
L 154.310451 149.089363 
L 154.755596 150.198354 
L 155.645885 147.937148 
L 156.091029 146.231919 
L 156.536174 145.799516 
L 156.981318 147.289541 
L 157.426463 149.391752 
L 157.871607 148.901674 
L 158.316752 147.064144 
L 158.761897 146.160714 
L 159.207041 148.109415 
L 159.652186 148.739193 
L 160.09733 149.982162 
L 160.987619 147.244036 
L 161.432764 147.804022 
L 161.877908 147.988866 
L 162.323053 149.597028 
L 162.768197 150.508125 
L 163.658486 150.497854 
L 164.103631 152.791496 
L 164.548775 154.279594 
L 164.99392 154.554598 
L 165.884209 150.35408 
L 166.329353 151.475725 
L 166.774498 152.159587 
L 169.445365 163.160959 
L 169.89051 166.162423 
L 171.225943 171.162867 
L 171.671088 170.643766 
L 172.116232 173.648653 
L 172.561377 175.048961 
L 173.006521 178.127178 
L 173.451666 179.157547 
L 173.89681 178.486772 
L 174.341955 178.128781 
L 174.7871 181.824518 
L 175.677389 187.213236 
L 176.122533 186.761085 
L 176.567678 186.009259 
L 177.012822 188.92104 
L 177.457967 189.404339 
L 177.903111 193.505052 
L 178.348256 194.10091 
L 178.7934 194.1905 
L 179.238545 193.550231 
L 179.683689 195.261288 
L 180.128834 198.310436 
L 180.573978 202.494625 
L 181.019123 202.346111 
L 181.464267 206.735183 
L 181.909412 205.40778 
L 182.354556 202.490773 
L 182.799701 204.286483 
L 183.244846 205.532386 
L 184.135135 213.222035 
L 184.580279 211.917671 
L 185.025424 216.26625 
L 185.470568 217.940251 
L 185.915713 220.519844 
L 186.360857 223.984692 
L 186.806002 222.873059 
L 187.251146 228.271158 
L 187.696291 232.101025 
L 188.58658 244.157432 
L 189.031724 247.961683 
L 189.476869 273.799395 
L 189.922013 254.195473 
L 190.367158 253.029536 
L 190.812303 287.127112 
L 191.257447 244.360289 
L 191.702592 231.752119 
L 192.147736 235.659734 
L 192.592881 218.728555 
L 193.038025 220.788235 
L 193.48317 213.207732 
L 193.928314 208.676071 
L 194.373459 205.51289 
L 194.818603 198.582985 
L 195.263748 195.011589 
L 195.708892 185.234953 
L 196.154037 178.837657 
L 196.599181 174.488905 
L 197.044326 172.81353 
L 198.379759 158.965162 
L 198.824904 157.187454 
L 199.270049 156.42168 
L 199.715193 159.366026 
L 200.160338 159.967216 
L 200.605482 161.127445 
L 201.050627 160.064148 
L 201.495771 160.392756 
L 201.940916 157.845728 
L 202.38606 159.327466 
L 202.831205 159.044333 
L 203.276349 158.483765 
L 203.721494 156.961754 
L 204.611783 152.473249 
L 205.502072 149.168777 
L 205.947216 147.526314 
L 206.392361 144.913899 
L 207.28265 141.366629 
L 207.727795 143.227501 
L 208.172939 147.141586 
L 209.063228 158.306345 
L 209.508373 161.530834 
L 209.953517 163.561904 
L 211.734095 181.653292 
L 212.624384 180.827327 
L 213.514673 187.676171 
L 213.959818 189.99246 
L 214.404962 181.083004 
L 215.295252 192.708695 
L 215.740396 189.997743 
L 216.185541 191.475466 
L 216.630685 185.3355 
L 217.07583 189.132326 
L 217.520974 195.273519 
L 217.966119 196.740006 
L 218.411263 201.206879 
L 218.856408 194.702104 
L 219.301552 196.111679 
L 219.746697 193.011454 
L 220.191841 200.45957 
L 220.636986 199.96381 
L 221.08213 205.978164 
L 221.527275 205.053628 
L 222.417564 197.025095 
L 222.862709 203.070641 
L 223.307853 205.969652 
L 223.752998 211.614812 
L 224.198142 214.53438 
L 224.643287 210.854018 
L 225.088431 217.546608 
L 225.533576 207.08359 
L 225.97872 218.521679 
L 226.423865 224.629182 
L 226.869009 210.840466 
L 227.314154 216.31099 
L 228.204443 205.254908 
L 228.649587 213.334305 
L 229.094732 214.367155 
L 229.539876 210.275294 
L 229.985021 207.707905 
L 230.430165 208.038872 
L 230.87531 205.852226 
L 231.320455 220.992855 
L 231.765599 230.553428 
L 232.210744 211.237928 
L 232.655888 218.845135 
L 233.101033 215.347036 
L 233.546177 215.998122 
L 233.991322 223.758191 
L 234.436466 217.02428 
L 234.881611 215.165109 
L 235.326755 216.661962 
L 235.7719 213.236881 
L 236.217044 210.687491 
L 236.662189 214.597132 
L 237.107333 211.136908 
L 237.552478 213.274516 
L 237.997622 212.909673 
L 238.442767 218.603698 
L 238.887912 211.65255 
L 239.333056 211.507186 
L 239.778201 210.390494 
L 240.66849 229.980096 
L 241.113634 222.523688 
L 241.558779 220.247309 
L 242.003923 226.183253 
L 242.449068 220.81947 
L 242.894212 217.727461 
L 243.339357 230.095632 
L 243.784501 274.213918 
L 244.229646 231.976641 
L 245.119935 239.45341 
L 245.565079 237.927444 
L 246.010224 226.356868 
L 246.455368 244.974735 
L 246.900513 226.679795 
L 247.345658 232.88539 
L 247.790802 225.627478 
L 248.235947 229.246871 
L 248.681091 224.121098 
L 249.126236 237.942516 
L 249.57138 234.687943 
L 250.016525 223.142105 
L 250.461669 220.635117 
L 250.906814 231.794441 
L 251.351958 213.567422 
L 251.797103 212.144145 
L 252.242247 216.282922 
L 252.687392 226.793208 
L 253.132536 211.686992 
L 253.577681 212.614389 
L 254.022825 211.653159 
L 254.46797 209.656411 
L 254.913115 215.250986 
L 255.358259 218.079754 
L 255.803404 211.982356 
L 256.248548 210.552596 
L 256.693693 215.921143 
L 257.138837 212.440617 
L 257.583982 220.384566 
L 258.029126 217.416586 
L 258.474271 208.861228 
L 258.919415 215.602407 
L 259.36456 219.093863 
L 259.809704 219.332429 
L 260.254849 218.575271 
L 260.699993 216.242623 
L 261.145138 222.695436 
L 261.590282 212.962071 
L 262.035427 215.715691 
L 262.925716 227.255172 
L 263.816005 231.750572 
L 264.26115 224.884034 
L 264.706294 228.559194 
L 265.151439 228.039627 
L 265.596583 234.336492 
L 266.041728 261.229761 
L 266.486872 233.706296 
L 266.932017 221.295102 
L 267.377161 224.588151 
L 267.822306 238.994261 
L 268.26745 241.365994 
L 268.712595 246.386323 
L 269.157739 219.281924 
L 269.602884 220.5618 
L 270.048028 249.493683 
L 270.493173 253.204861 
L 270.938318 240.445792 
L 271.828607 225.451582 
L 272.273751 228.555203 
L 272.718896 241.810444 
L 273.16404 241.240346 
L 273.609185 248.080692 
L 274.054329 259.608191 
L 274.499474 246.264421 
L 274.944618 268.753792 
L 275.389763 251.068321 
L 275.834907 240.050263 
L 276.280052 238.45087 
L 276.725196 268.110925 
L 277.170341 235.107262 
L 277.615485 245.380293 
L 278.06063 241.295348 
L 278.505774 260.094787 
L 278.950919 231.071112 
L 279.396064 226.222688 
L 279.841208 242.479413 
L 280.286353 231.579928 
L 281.176642 225.635099 
L 281.621786 233.013487 
L 282.066931 227.735285 
L 282.512075 226.806601 
L 282.95722 230.703056 
L 283.402364 216.340605 
L 283.847509 215.191856 
L 284.292653 236.223206 
L 284.737798 217.821103 
L 285.628087 237.160559 
L 286.073231 223.017219 
L 286.518376 216.440923 
L 286.963521 215.179213 
L 287.408665 216.093633 
L 287.85381 225.507951 
L 288.298954 217.099989 
L 288.744099 226.189962 
L 289.189243 238.964782 
L 289.634388 236.77638 
L 290.079532 256.105259 
L 290.524677 233.444961 
L 290.969821 234.489879 
L 291.414966 229.715125 
L 291.86011 244.042908 
L 292.305255 247.99041 
L 292.750399 246.491015 
L 293.195544 248.353463 
L 293.640688 248.701774 
L 294.085833 242.523448 
L 294.530977 250.541492 
L 294.976122 285.144738 
L 295.421267 266.563321 
L 295.866411 236.75253 
L 296.311556 273.324751 
L 296.7567 245.181415 
L 297.201845 234.079851 
L 297.646989 273.545973 
L 298.092134 238.102173 
L 298.537278 238.860193 
L 298.982423 212.88082 
L 299.427567 220.464633 
L 299.872712 205.950731 
L 300.317856 210.834898 
L 300.763001 213.99244 
L 301.208145 230.881933 
L 301.65329 225.478951 
L 302.098434 222.65059 
L 302.543579 241.294257 
L 302.988724 249.724778 
L 303.433868 273.474948 
L 303.879013 244.661222 
L 304.324157 261.844067 
L 304.769302 249.364286 
L 305.214446 264.958163 
L 305.659591 250.525662 
L 306.104735 280.69154 
L 306.54988 246.238531 
L 306.995024 246.715068 
L 307.440169 229.093048 
L 307.885313 248.012667 
L 308.330458 250.364385 
L 308.775602 242.019302 
L 309.220747 262.202128 
L 309.665891 241.808342 
L 310.111036 262.273951 
L 310.55618 335.383669 
L 311.001325 245.323991 
L 311.44647 247.033967 
L 311.891614 259.85985 
L 312.336759 245.571219 
L 312.781903 227.218618 
L 313.227048 230.450565 
L 313.672192 231.679667 
L 314.117337 248.566213 
L 314.562481 238.197465 
L 315.007626 246.620821 
L 315.45277 273.427065 
L 315.897915 233.537212 
L 316.343059 244.119086 
L 316.788204 252.007636 
L 317.233348 251.403276 
L 317.678493 260.394036 
L 318.123637 319.386606 
L 318.568782 237.491277 
L 319.013927 246.103273 
L 319.459071 226.360983 
L 319.904216 245.235419 
L 320.34936 236.745485 
L 320.794505 237.2914 
L 321.684794 218.515199 
L 322.129938 241.473503 
L 322.575083 290.592057 
L 323.020227 268.512821 
L 323.465372 233.703256 
L 323.910516 232.971574 
L 324.355661 272.404043 
L 324.800805 234.194369 
L 325.24595 218.677301 
L 325.691094 226.695928 
L 326.136239 213.407915 
L 326.581383 215.046449 
L 327.026528 215.783916 
L 327.471673 213.566584 
L 327.916817 213.170586 
L 328.361962 203.53146 
L 328.807106 203.888017 
L 329.252251 206.656643 
L 329.697395 213.367206 
L 330.14254 203.905647 
L 330.587684 217.222936 
L 331.477973 206.029394 
L 331.923118 211.957435 
L 332.368262 215.751962 
L 332.813407 212.888707 
L 333.258551 217.867469 
L 333.703696 225.968797 
L 334.14884 225.557727 
L 334.593985 226.005104 
L 335.03913 235.505645 
L 335.484274 217.958935 
L 335.929419 223.554486 
L 336.374563 230.910034 
L 336.819708 235.641782 
L 337.264852 233.090623 
L 337.709997 225.762949 
L 338.155141 230.463615 
L 338.600286 228.172553 
L 339.04543 228.872817 
L 339.490575 231.068018 
L 339.935719 232.330078 
L 340.380864 234.40169 
L 340.826008 249.413896 
L 341.271153 239.794829 
L 341.716297 225.464654 
L 342.161442 223.916884 
L 342.606586 227.766004 
L 343.051731 217.557682 
L 343.496876 239.919552 
L 343.94202 232.597005 
L 344.387165 250.126314 
L 344.832309 228.139872 
L 345.277454 238.574928 
L 345.722598 219.723201 
L 346.167743 235.372576 
L 346.612887 227.818698 
L 347.058032 250.68339 
L 347.503176 235.128006 
L 347.948321 223.694261 
L 348.393465 255.774575 
L 348.83861 219.19127 
L 349.728899 243.040094 
L 350.174043 240.480959 
L 350.619188 245.440721 
L 351.064333 233.566497 
L 351.509477 236.421786 
L 351.954622 246.137322 
L 352.399766 226.088767 
L 352.844911 243.6229 
L 353.290055 226.384959 
L 353.7352 276.297059 
L 354.180344 243.149959 
L 354.625489 233.681241 
L 355.070633 241.653338 
L 355.515778 242.314863 
L 355.960922 250.311239 
L 356.406067 251.98501 
L 356.851211 261.483832 
L 357.296356 224.932181 
L 357.7415 226.324655 
L 358.186645 261.864049 
L 358.631789 235.415457 
L 359.076934 224.511355 
L 359.522079 227.678121 
L 359.967223 240.718021 
L 360.412368 227.981947 
L 360.857512 230.249727 
L 361.302657 233.660814 
L 361.747801 221.318114 
L 362.192946 264.477788 
L 362.63809 229.178663 
L 363.528379 239.095397 
L 363.973524 236.276752 
L 364.418668 236.891337 
L 364.863813 218.414196 
L 365.308957 238.946923 
L 365.754102 240.964654 
L 366.199246 254.473846 
L 366.644391 255.418224 
L 367.089536 252.870465 
L 367.53468 237.118204 
L 367.979825 236.961551 
L 368.424969 227.78741 
L 368.870114 245.372699 
L 369.315258 218.305154 
L 370.205547 237.157592 
L 370.650692 211.908836 
L 371.095836 251.222124 
L 371.540981 272.753615 
L 372.43127 249.554107 
L 372.876414 237.460368 
L 373.321559 253.00215 
L 374.211848 245.36572 
L 374.656992 229.305885 
L 375.102137 247.042359 
L 375.547282 250.029569 
L 375.992426 240.265854 
L 376.437571 241.015953 
L 376.882715 242.529209 
L 377.32786 232.536168 
L 377.773004 323.576826 
L 378.218149 248.500094 
L 378.663293 235.977083 
L 379.108438 249.365763 
L 379.553582 266.514133 
L 379.998727 261.537054 
L 380.443871 246.607412 
L 380.889016 258.910099 
L 381.33416 218.86051 
L 381.779305 245.55458 
L 382.224449 261.242987 
L 382.669594 227.802275 
L 383.114739 261.155479 
L 383.559883 239.496777 
L 384.005028 323.958716 
L 384.450172 235.453631 
L 384.895317 246.700708 
L 385.340461 252.140333 
L 385.785606 253.562928 
L 386.23075 250.708039 
L 387.121039 260.74261 
L 387.566184 229.494275 
L 388.011328 260.279063 
L 388.456473 259.953172 
L 388.901617 278.376588 
L 389.346762 267.653868 
L 389.791906 276.950554 
L 390.237051 248.310662 
L 390.682195 237.50743 
L 391.12734 279.957656 
L 392.017629 238.037106 
L 392.462774 270.840918 
L 392.907918 278.798146 
L 393.353063 256.356465 
L 393.798207 262.647536 
L 394.243352 263.343336 
L 394.688496 239.903642 
L 395.133641 226.437191 
L 396.02393 240.775728 
L 396.469074 237.766187 
L 396.914219 216.918338 
L 397.359363 248.354251 
L 397.804508 236.984639 
L 398.249652 237.849207 
L 398.694797 237.199039 
L 399.139942 235.345137 
L 399.585086 278.414373 
L 400.030231 238.668656 
L 400.475375 243.905085 
L 400.92052 222.822422 
L 401.365664 231.482222 
L 401.810809 234.613917 
L 402.255953 215.845703 
L 402.701098 223.534833 
L 403.146242 258.009084 
L 403.591387 242.389211 
L 404.036531 258.593722 
L 404.481676 243.210559 
L 404.92682 254.945017 
L 405.371965 258.240089 
L 405.817109 242.237457 
L 406.262254 251.993659 
L 406.707398 249.350495 
L 407.152543 240.541755 
L 407.597688 235.120096 
L 408.042832 267.074505 
L 408.487977 257.792519 
L 408.933121 229.718937 
L 409.378266 220.766254 
L 409.82341 223.183862 
L 410.268555 249.002414 
L 410.713699 255.401626 
L 411.158844 246.634942 
L 411.603988 267.875782 
L 412.049133 234.179646 
L 412.494277 245.895017 
L 412.939422 292.421737 
L 413.384566 257.458994 
L 413.829711 234.74371 
L 414.274855 231.47342 
L 414.72 261.004005 
L 414.72 261.004005 
" clip-path="url(#p77b6a76a79)" style="fill: none; stroke: #ff7f0e; stroke-width: 1.5; stroke-linecap: square"/>
   </g>
   <g id="patch_3">
    <path d="M 57.6 307.584 
L 57.6 41.472 
" style="fill: none; stroke: #000000; stroke-width: 0.8; stroke-linejoin: miter; stroke-linecap: square"/>
   </g>
   <g id="patch_4">
    <path d="M 414.72 307.584 
L 414.72 41.472 
" style="fill: none; stroke: #000000; stroke-width: 0.8; stroke-linejoin: miter; stroke-linecap: square"/>
   </g>
   <g id="patch_5">
    <path d="M 57.6 307.584 
L 414.72 307.584 
" style="fill: none; stroke: #000000; stroke-width: 0.8; stroke-linejoin: miter; stroke-linecap: square"/>
   </g>
   <g id="patch_6">
    <path d="M 57.6 41.472 
L 414.72 41.472 
" style="fill: none; stroke: #000000; stroke-width: 0.8; stroke-linejoin: miter; stroke-linecap: square"/>
   </g>
   <g id="text_20">
    <!-- Izolacija mešalnika -->
    <g transform="translate(179.488125 35.472)scale(0.12 -0.12)">
     <defs>
      <path id="DejaVuSans-49" d="M 628 4666 
L 1259 4666 
L 1259 0 
L 628 0 
L 628 4666 
z
" transform="scale(0.015625)"/>
      <path id="DejaVuSans-6f" d="M 1959 3097 
Q 1497 3097 1228 2736 
Q 959 2375 959 1747 
Q 959 1119 1226 758 
Q 1494 397 1959 397 
Q 2419 397 2687 759 
Q 2956 1122 2956 1747 
Q 2956 2369 2687 2733 
Q 2419 3097 1959 3097 
z
M 1959 3584 
Q 2709 3584 3137 3096 
Q 3566 2609 3566 1747 
Q 3566 888 3137 398 
Q 2709 -91 1959 -91 
Q 1206 -91 779 398 
Q 353 888 353 1747 
Q 353 2609 779 3096 
Q 1206 3584 1959 3584 
z
" transform="scale(0.015625)"/>
      <path id="DejaVuSans-6a" d="M 603 3500 
L 1178 3500 
L 1178 -63 
Q 1178 -731 923 -1031 
Q 669 -1331 103 -1331 
L -116 -1331 
L -116 -844 
L 38 -844 
Q 366 -844 484 -692 
Q 603 -541 603 -63 
L 603 3500 
z
M 603 4863 
L 1178 4863 
L 1178 4134 
L 603 4134 
L 603 4863 
z
" transform="scale(0.015625)"/>
      <path id="DejaVuSans-161" d="M 2834 3397 
L 2834 2853 
Q 2591 2978 2328 3040 
Q 2066 3103 1784 3103 
Q 1356 3103 1142 2972 
Q 928 2841 928 2578 
Q 928 2378 1081 2264 
Q 1234 2150 1697 2047 
L 1894 2003 
Q 2506 1872 2764 1633 
Q 3022 1394 3022 966 
Q 3022 478 2636 193 
Q 2250 -91 1575 -91 
Q 1294 -91 989 -36 
Q 684 19 347 128 
L 347 722 
Q 666 556 975 473 
Q 1284 391 1588 391 
Q 1994 391 2212 530 
Q 2431 669 2431 922 
Q 2431 1156 2273 1281 
Q 2116 1406 1581 1522 
L 1381 1569 
Q 847 1681 609 1914 
Q 372 2147 372 2553 
Q 372 3047 722 3315 
Q 1072 3584 1716 3584 
Q 2034 3584 2315 3537 
Q 2597 3491 2834 3397 
z
M 1501 3944 
L 736 5119 
L 1170 5119 
L 1733 4353 
L 2295 5119 
L 2729 5119 
L 1964 3944 
L 1501 3944 
z
M 1720 3584 
L 1720 3584 
z
" transform="scale(0.015625)"/>
     </defs>
     <use xlink:href="#DejaVuSans-49"/>
     <use xlink:href="#DejaVuSans-7a" x="29.492188"/>
     <use xlink:href="#DejaVuSans-6f" x="81.982422"/>
     <use xlink:href="#DejaVuSans-6c" x="143.164062"/>
     <use xlink:href="#DejaVuSans-61" x="170.947266"/>
     <use xlink:href="#DejaVuSans-63" x="232.226562"/>
     <use xlink:href="#DejaVuSans-69" x="287.207031"/>
     <use xlink:href="#DejaVuSans-6a" x="314.990234"/>
     <use xlink:href="#DejaVuSans-61" x="342.773438"/>
     <use xlink:href="#DejaVuSans-20" x="404.052734"/>
     <use xlink:href="#DejaVuSans-6d" x="435.839844"/>
     <use xlink:href="#DejaVuSans-65" x="533.251953"/>
     <use xlink:href="#DejaVuSans-161" x="594.775391"/>
     <use xlink:href="#DejaVuSans-61" x="646.875"/>
     <use xlink:href="#DejaVuSans-6c" x="708.154297"/>
     <use xlink:href="#DejaVuSans-6e" x="735.9375"/>
     <use xlink:href="#DejaVuSans-69" x="799.316406"/>
     <use xlink:href="#DejaVuSans-6b" x="827.099609"/>
     <use xlink:href="#DejaVuSans-61" x="883.259766"/>
    </g>
   </g>
   <g id="legend_1">
    <g id="patch_7">
     <path d="M 337.67625 78.82825 
L 407.72 78.82825 
Q 409.72 78.82825 409.72 76.82825 
L 409.72 48.472 
Q 409.72 46.472 407.72 46.472 
L 337.67625 46.472 
Q 335.67625 46.472 335.67625 48.472 
L 335.67625 76.82825 
Q 335.67625 78.82825 337.67625 78.82825 
z
" style="fill: #ffffff; opacity: 0.8; stroke: #cccccc; stroke-linejoin: miter"/>
    </g>
    <g id="line2d_37">
     <path d="M 339.67625 54.570437 
L 349.67625 54.570437 
L 359.67625 54.570437 
" style="fill: none; stroke: #1f77b4; stroke-width: 1.5; stroke-linecap: square"/>
    </g>
    <g id="text_21">
     <!-- IF-&gt;RF -->
     <g transform="translate(367.67625 58.070437)scale(0.1 -0.1)">
      <defs>
       <path id="DejaVuSans-2d" d="M 313 2009 
L 1997 2009 
L 1997 1497 
L 313 1497 
L 313 2009 
z
" transform="scale(0.015625)"/>
       <path id="DejaVuSans-3e" d="M 678 3150 
L 678 3719 
L 4684 2266 
L 4684 1747 
L 678 294 
L 678 863 
L 3897 2003 
L 678 3150 
z
" transform="scale(0.015625)"/>
       <path id="DejaVuSans-52" d="M 2841 2188 
Q 3044 2119 3236 1894 
Q 3428 1669 3622 1275 
L 4263 0 
L 3584 0 
L 2988 1197 
Q 2756 1666 2539 1819 
Q 2322 1972 1947 1972 
L 1259 1972 
L 1259 0 
L 628 0 
L 628 4666 
L 2053 4666 
Q 2853 4666 3247 4331 
Q 3641 3997 3641 3322 
Q 3641 2881 3436 2590 
Q 3231 2300 2841 2188 
z
M 1259 4147 
L 1259 2491 
L 2053 2491 
Q 2509 2491 2742 2702 
Q 2975 2913 2975 3322 
Q 2975 3731 2742 3939 
Q 2509 4147 2053 4147 
L 1259 4147 
z
" transform="scale(0.015625)"/>
      </defs>
      <use xlink:href="#DejaVuSans-49"/>
      <use xlink:href="#DejaVuSans-46" x="29.492188"/>
      <use xlink:href="#DejaVuSans-2d" x="87.011719"/>
      <use xlink:href="#DejaVuSans-3e" x="123.095703"/>
      <use xlink:href="#DejaVuSans-52" x="206.884766"/>
      <use xlink:href="#DejaVuSans-46" x="276.367188"/>
     </g>
    </g>
    <g id="line2d_38">
     <path d="M 339.67625 69.248562 
L 349.67625 69.248562 
L 359.67625 69.248562 
" style="fill: none; stroke: #ff7f0e; stroke-width: 1.5; stroke-linecap: square"/>
    </g>
    <g id="text_22">
     <!-- LO-&gt;RF -->
     <g transform="translate(367.67625 72.748562)scale(0.1 -0.1)">
      <defs>
       <path id="DejaVuSans-4c" d="M 628 4666 
L 1259 4666 
L 1259 531 
L 3531 531 
L 3531 0 
L 628 0 
L 628 4666 
z
" transform="scale(0.015625)"/>
       <path id="DejaVuSans-4f" d="M 2522 4238 
Q 1834 4238 1429 3725 
Q 1025 3213 1025 2328 
Q 1025 1447 1429 934 
Q 1834 422 2522 422 
Q 3209 422 3611 934 
Q 4013 1447 4013 2328 
Q 4013 3213 3611 3725 
Q 3209 4238 2522 4238 
z
M 2522 4750 
Q 3503 4750 4090 4092 
Q 4678 3434 4678 2328 
Q 4678 1225 4090 567 
Q 3503 -91 2522 -91 
Q 1538 -91 948 565 
Q 359 1222 359 2328 
Q 359 3434 948 4092 
Q 1538 4750 2522 4750 
z
" transform="scale(0.015625)"/>
      </defs>
      <use xlink:href="#DejaVuSans-4c"/>
      <use xlink:href="#DejaVuSans-4f" x="52.087891"/>
      <use xlink:href="#DejaVuSans-2d" x="133.548828"/>
      <use xlink:href="#DejaVuSans-3e" x="169.632812"/>
      <use xlink:href="#DejaVuSans-52" x="253.421875"/>
      <use xlink:href="#DejaVuSans-46" x="322.904297"/>
     </g>
    </g>
   </g>
  </g>
 </g>
 <defs>
  <clipPath id="p77b6a76a79">
   <rect x="57.6" y="41.472" width="357.12" height="266.112"/>
  </clipPath>
 </defs>
</svg>
