<svg width="1747" height="1225" xmlns="http://www.w3.org/2000/svg" xmlns:xlink="http://www.w3.org/1999/xlink" xml:space="preserve" overflow="hidden"><defs><clipPath id="clip0"><rect x="2344" y="52" width="1747" height="1225"/></clipPath></defs><g clip-path="url(#clip0)" transform="translate(-2344 -52)"><rect x="2344" y="51.9999" width="1747" height="1225" fill="#FFFFFF"/><g><path d="M2595.5 1024.53 4027.5 1024.53M2595.5 1004.53 4027.5 1004.53M2595.5 983.532 4027.5 983.532M2595.5 962.532 4027.5 962.532M2595.5 921.53 4027.5 921.53M2595.5 901.53 4027.5 901.53M2595.5 880.529 4027.5 880.529M2595.5 859.528 4027.5 859.528M2595.5 818.527 4027.5 818.527M2595.5 798.526 4027.5 798.526M2595.5 777.526 4027.5 777.526M2595.5 756.525 4027.5 756.525M2595.5 715.524 4027.5 715.524M2595.5 695.523 4027.5 695.523M2595.5 674.522 4027.5 674.522M2595.5 653.522 4027.5 653.522M2595.5 612.52 4027.5 612.52M2595.5 592.52 4027.5 592.52M2595.5 571.519 4027.5 571.519M2595.5 550.518 4027.5 550.518M2595.5 509.517 4027.5 509.517M2595.5 489.516 4027.5 489.516M2595.5 468.516 4027.5 468.516M2595.5 447.515 4027.5 447.515M2595.5 406.513 4027.5 406.513M2595.5 386.513 4027.5 386.513M2595.5 365.512 4027.5 365.512M2595.5 344.511 4027.5 344.511M2595.5 303.51 4027.5 303.51M2595.5 282.509 4027.5 282.509M2595.5 262.509 4027.5 262.509M2595.5 241.508 4027.5 241.508" stroke="#F2F2F2" stroke-width="3.4375" stroke-linejoin="round" stroke-miterlimit="10" fill="none"/></g><g><path d="M2595.5 1045.5 4027.5 1045.5M2595.5 942.531 4027.5 942.531M2595.5 839.528 4027.5 839.528M2595.5 736.524 4027.5 736.524M2595.5 633.521 4027.5 633.521M2595.5 530.518 4027.5 530.518M2595.5 427.514 4027.5 427.514M2595.5 324.511 4027.5 324.511M2595.5 221.5 4027.5 221.5" stroke="#BFBFBF" stroke-width="3.4375" stroke-linejoin="round" stroke-miterlimit="10" fill="none"/></g><g><path d="M2667.59 221.5 2667.59 1045.5M2738.59 221.5 2738.59 1045.5M2810.59 221.5 2810.59 1045.5M2882.59 221.5 2882.59 1045.5M3025.6 221.5 3025.6 1045.5M3096.6 221.5 3096.6 1045.5M3168.6 221.5 3168.6 1045.5M3239.61 221.5 3239.61 1045.5M3383.61 221.5 3383.61 1045.5M3454.61 221.5 3454.61 1045.5M3526.62 221.5 3526.62 1045.5M3597.62 221.5 3597.62 1045.5M3741.62 221.5 3741.62 1045.5M3812.63 221.5 3812.63 1045.5M3884.63 221.5 3884.63 1045.5M3955.63 221.5 3955.63 1045.5" stroke="#F2F2F2" stroke-width="3.4375" stroke-linejoin="round" stroke-miterlimit="10" fill="none"/></g><g><path d="M2953.6 221.5 2953.6 1045.5M3311.61 221.5 3311.61 1045.5M3669.62 221.5 3669.62 1045.5M4027.5 221.5 4027.5 1045.5" stroke="#BFBFBF" stroke-width="3.4375" stroke-linejoin="round" stroke-miterlimit="10" fill="none"/></g><g><rect x="2595.5" y="221.5" width="1432" height="824" stroke="#000000" stroke-width="3.4375" stroke-linejoin="round" stroke-miterlimit="10" fill="none"/></g><g><path d="M0 0 0.000360892 824" stroke="#000000" stroke-width="3.4375" stroke-linejoin="round" stroke-miterlimit="10" fill="none" fill-rule="evenodd" transform="matrix(1 0 0 -1 2595.5 1045.5)"/></g><g><path d="M2595.5 272.5 4027.5 272.5" stroke="#000000" stroke-width="3.4375" stroke-linejoin="round" stroke-miterlimit="10" fill="none" fill-rule="evenodd"/></g><g><path d="M2631.5 460.121C2643.43 464.806 2655.36 471.876 2667.29 474.176 2679.23 476.477 2691.16 468.924 2703.09 473.925 2715.02 478.925 2726.95 504.624 2738.88 504.179 2750.82 503.733 2762.75 454.853 2774.68 471.252 2786.61 487.651 2798.54 587.071 2810.47 602.572 2822.41 618.074 2834.34 569.374 2846.27 564.261 2858.2 559.147 2870.13 565.175 2882.06 571.892 2894 578.608 2905.93 590.129 2917.86 604.562 2929.79 618.995 2941.72 634.835 2953.65 658.49 2965.58 682.146 2977.52 730.002 2989.45 746.495 3000.42 761.661 3014.27 750.865 3025.24 757.446 3037.18 764.603 3049.11 803.727 3061.04 789.436 3072.97 775.144 3084.9 715.918 3096.83 671.698 3108.76 627.478 3120.7 557.566 3132.63 524.116 3143.39 493.949 3157.66 480.975 3168.42 470.997 3180.35 459.934 3192.29 467.201 3204.22 457.736 3216.15 448.271 3228.08 438.279 3240.01 414.21 3251.94 390.14 3263.88 335.736 3275.81 313.319 3287.34 291.646 3300.07 284.847 3311.6 279.71 3319.81 276.056 3339.19 265.5 3347.4 281.435 3359.33 304.613 3371.26 362.828 3383.19 418.777 3395.12 474.727 3407.06 591.28 3418.99 617.132 3430.26 641.567 3443.5 599.593 3454.78 573.889 3466.71 546.694 3478.65 479.993 3490.58 453.965 3501.19 430.808 3515.76 422.998 3526.37 417.717 3538.3 411.78 3550.23 413.847 3562.17 418.345 3574.1 422.843 3586.03 436.07 3597.96 444.707 3608.12 452.062 3623.59 450.692 3633.76 470.165 3645.69 493.029 3657.62 549.938 3669.55 581.895 3681.48 613.851 3693.41 636.617 3705.35 661.902 3717.28 687.188 3729.21 723.333 3741.14 733.609 3753.07 743.884 3765 730.07 3776.94 723.556 3788.87 717.041 3800.8 702.304 3812.73 694.523 3824.66 686.742 3836.59 669.272 3848.53 676.868 3860.46 684.464 3872.39 719.21 3884.32 740.097 3896.25 760.984 3908.18 793.002 3920.12 802.19 3932.05 811.378 3943.98 799.488 3955.91 795.225 3967.84 790.961 3979.77 771.396 3991.71 776.609 4003.64 781.821 4015.57 809.869 4027.5 826.5" stroke="#5B9BD5" stroke-width="6.875" stroke-linecap="round" stroke-linejoin="round" stroke-miterlimit="10" fill="none"/></g><g><text font-family="Calibri,Calibri_MSFontService,sans-serif" font-weight="400" font-size="50" transform="matrix(1 0 0 1 2482.56 1060)">-15</text></g><g><text font-family="Calibri,Calibri_MSFontService,sans-serif" font-weight="400" font-size="50" transform="matrix(1 0 0 1 2482.56 957)">-13</text></g><g><text font-family="Calibri,Calibri_MSFontService,sans-serif" font-weight="400" font-size="50" transform="matrix(1 0 0 1 2482.56 854)">-11</text></g><g><text font-family="Calibri,Calibri_MSFontService,sans-serif" font-weight="400" font-size="50" transform="matrix(1 0 0 1 2508.11 751)">-9</text></g><g><text font-family="Calibri,Calibri_MSFontService,sans-serif" font-weight="400" font-size="50" transform="matrix(1 0 0 1 2508.11 648)">-7</text></g><g><text font-family="Calibri,Calibri_MSFontService,sans-serif" font-weight="400" font-size="50" transform="matrix(1 0 0 1 2508.11 545)">-5</text></g><g><text font-family="Calibri,Calibri_MSFontService,sans-serif" font-weight="400" font-size="50" transform="matrix(1 0 0 1 2508.11 442)">-3</text></g><g><text font-family="Calibri,Calibri_MSFontService,sans-serif" font-weight="400" font-size="50" transform="matrix(1 0 0 1 2508.11 339)">-1</text></g><g><text font-family="Calibri,Calibri_MSFontService,sans-serif" font-weight="400" font-size="50" transform="matrix(1 0 0 1 2523.56 236)">1</text></g><g><text font-family="Calibri,Calibri_MSFontService,sans-serif" font-weight="400" font-size="50" transform="matrix(1 0 0 1 2583.12 1125)">0</text></g><g><text font-family="Calibri,Calibri_MSFontService,sans-serif" font-weight="400" font-size="50" transform="matrix(1 0 0 1 2941 1125)">1</text></g><g><text font-family="Calibri,Calibri_MSFontService,sans-serif" font-weight="400" font-size="50" transform="matrix(1 0 0 1 3298.89 1125)">2</text></g><g><text font-family="Calibri,Calibri_MSFontService,sans-serif" font-weight="400" font-size="50" transform="matrix(1 0 0 1 3656.77 1125)">3</text></g><g><text font-family="Calibri,Calibri_MSFontService,sans-serif" font-weight="400" font-size="50" transform="matrix(1 0 0 1 4014.66 1125)">4</text></g><g><text font-family="Calibri,Calibri_MSFontService,sans-serif" font-weight="400" font-size="55" transform="matrix(6.12323e-17 -1 1 6.12323e-17 2433.09 974)">Saturation point P</text></g><g><text font-family="Calibri,Calibri_MSFontService,sans-serif" font-weight="400" font-size="41" transform="matrix(6.12323e-17 -1 1 6.12323e-17 2433.09 572)">1dB</text></g><g><text font-family="Calibri,Calibri_MSFontService,sans-serif" font-weight="400" font-size="55" transform="matrix(6.12323e-17 -1 1 6.12323e-17 2433.09 495)">[dBm]</text></g><g><text font-family="Calibri,Calibri_MSFontService,sans-serif" font-weight="400" font-size="55" transform="matrix(1 0 0 1 3100.8 1205)">Frequency IF [GHz]</text></g><g><path d="M3040.5 123.5 3128.5 123.5" stroke="#5B9BD5" stroke-width="6.875" stroke-linecap="round" stroke-linejoin="round" stroke-miterlimit="10" fill="none" fill-rule="evenodd"/></g><g><text font-family="Calibri,Calibri_MSFontService,sans-serif" font-weight="400" font-size="50" transform="matrix(1 0 0 1 3137.77 138)">LO = +10dBm</text></g></g></svg>