<?xml version="1.0" encoding="utf-8" standalone="no"?>
<!DOCTYPE svg PUBLIC "-//W3C//DTD SVG 1.1//EN"
  "http://www.w3.org/Graphics/SVG/1.1/DTD/svg11.dtd">
<svg xmlns:xlink="http://www.w3.org/1999/xlink" width="460.8pt" height="345.6pt" viewBox="0 0 460.8 345.6" xmlns="http://www.w3.org/2000/svg" version="1.1">
 <metadata>
  <rdf:RDF xmlns:dc="http://purl.org/dc/elements/1.1/" xmlns:cc="http://creativecommons.org/ns#" xmlns:rdf="http://www.w3.org/1999/02/22-rdf-syntax-ns#">
   <cc:Work>
    <dc:type rdf:resource="http://purl.org/dc/dcmitype/StillImage"/>
    <dc:date>2022-11-29T10:36:03.185767</dc:date>
    <dc:format>image/svg+xml</dc:format>
    <dc:creator>
     <cc:Agent>
      <dc:title>Matplotlib v3.5.1, https://matplotlib.org/</dc:title>
     </cc:Agent>
    </dc:creator>
   </cc:Work>
  </rdf:RDF>
 </metadata>
 <defs>
  <style type="text/css">*{stroke-linejoin: round; stroke-linecap: butt}</style>
 </defs>
 <g id="figure_1">
  <g id="patch_1">
   <path d="M 0 345.6 
L 460.8 345.6 
L 460.8 0 
L 0 0 
z
" style="fill: #ffffff"/>
  </g>
  <g id="axes_1">
   <g id="patch_2">
    <path d="M 57.6 307.584 
L 414.72 307.584 
L 414.72 41.472 
L 57.6 41.472 
z
" style="fill: #ffffff"/>
   </g>
   <g id="matplotlib.axis_1">
    <g id="xtick_1">
     <g id="line2d_1">
      <path d="M 57.6 307.584 
L 57.6 41.472 
" clip-path="url(#p4163d8602f)" style="fill: none; stroke: #b0b0b0; stroke-width: 0.8; stroke-linecap: square"/>
     </g>
     <g id="line2d_2">
      <defs>
       <path id="m6f4edf573d" d="M 0 0 
L 0 3.5 
" style="stroke: #000000; stroke-width: 0.8"/>
      </defs>
      <g>
       <use xlink:href="#m6f4edf573d" x="57.6" y="307.584" style="stroke: #000000; stroke-width: 0.8"/>
      </g>
     </g>
     <g id="text_1">
      <!-- 0 -->
      <g transform="translate(54.41875 322.182437)scale(0.1 -0.1)">
       <defs>
        <path id="DejaVuSans-30" d="M 2034 4250 
Q 1547 4250 1301 3770 
Q 1056 3291 1056 2328 
Q 1056 1369 1301 889 
Q 1547 409 2034 409 
Q 2525 409 2770 889 
Q 3016 1369 3016 2328 
Q 3016 3291 2770 3770 
Q 2525 4250 2034 4250 
z
M 2034 4750 
Q 2819 4750 3233 4129 
Q 3647 3509 3647 2328 
Q 3647 1150 3233 529 
Q 2819 -91 2034 -91 
Q 1250 -91 836 529 
Q 422 1150 422 2328 
Q 422 3509 836 4129 
Q 1250 4750 2034 4750 
z
" transform="scale(0.015625)"/>
       </defs>
       <use xlink:href="#DejaVuSans-30"/>
      </g>
     </g>
    </g>
    <g id="xtick_2">
     <g id="line2d_3">
      <path d="M 117.12 307.584 
L 117.12 41.472 
" clip-path="url(#p4163d8602f)" style="fill: none; stroke: #b0b0b0; stroke-width: 0.8; stroke-linecap: square"/>
     </g>
     <g id="line2d_4">
      <g>
       <use xlink:href="#m6f4edf573d" x="117.12" y="307.584" style="stroke: #000000; stroke-width: 0.8"/>
      </g>
     </g>
     <g id="text_2">
      <!-- 1 -->
      <g transform="translate(113.93875 322.182437)scale(0.1 -0.1)">
       <defs>
        <path id="DejaVuSans-31" d="M 794 531 
L 1825 531 
L 1825 4091 
L 703 3866 
L 703 4441 
L 1819 4666 
L 2450 4666 
L 2450 531 
L 3481 531 
L 3481 0 
L 794 0 
L 794 531 
z
" transform="scale(0.015625)"/>
       </defs>
       <use xlink:href="#DejaVuSans-31"/>
      </g>
     </g>
    </g>
    <g id="xtick_3">
     <g id="line2d_5">
      <path d="M 176.64 307.584 
L 176.64 41.472 
" clip-path="url(#p4163d8602f)" style="fill: none; stroke: #b0b0b0; stroke-width: 0.8; stroke-linecap: square"/>
     </g>
     <g id="line2d_6">
      <g>
       <use xlink:href="#m6f4edf573d" x="176.64" y="307.584" style="stroke: #000000; stroke-width: 0.8"/>
      </g>
     </g>
     <g id="text_3">
      <!-- 2 -->
      <g transform="translate(173.45875 322.182437)scale(0.1 -0.1)">
       <defs>
        <path id="DejaVuSans-32" d="M 1228 531 
L 3431 531 
L 3431 0 
L 469 0 
L 469 531 
Q 828 903 1448 1529 
Q 2069 2156 2228 2338 
Q 2531 2678 2651 2914 
Q 2772 3150 2772 3378 
Q 2772 3750 2511 3984 
Q 2250 4219 1831 4219 
Q 1534 4219 1204 4116 
Q 875 4013 500 3803 
L 500 4441 
Q 881 4594 1212 4672 
Q 1544 4750 1819 4750 
Q 2544 4750 2975 4387 
Q 3406 4025 3406 3419 
Q 3406 3131 3298 2873 
Q 3191 2616 2906 2266 
Q 2828 2175 2409 1742 
Q 1991 1309 1228 531 
z
" transform="scale(0.015625)"/>
       </defs>
       <use xlink:href="#DejaVuSans-32"/>
      </g>
     </g>
    </g>
    <g id="xtick_4">
     <g id="line2d_7">
      <path d="M 236.16 307.584 
L 236.16 41.472 
" clip-path="url(#p4163d8602f)" style="fill: none; stroke: #b0b0b0; stroke-width: 0.8; stroke-linecap: square"/>
     </g>
     <g id="line2d_8">
      <g>
       <use xlink:href="#m6f4edf573d" x="236.16" y="307.584" style="stroke: #000000; stroke-width: 0.8"/>
      </g>
     </g>
     <g id="text_4">
      <!-- 3 -->
      <g transform="translate(232.97875 322.182437)scale(0.1 -0.1)">
       <defs>
        <path id="DejaVuSans-33" d="M 2597 2516 
Q 3050 2419 3304 2112 
Q 3559 1806 3559 1356 
Q 3559 666 3084 287 
Q 2609 -91 1734 -91 
Q 1441 -91 1130 -33 
Q 819 25 488 141 
L 488 750 
Q 750 597 1062 519 
Q 1375 441 1716 441 
Q 2309 441 2620 675 
Q 2931 909 2931 1356 
Q 2931 1769 2642 2001 
Q 2353 2234 1838 2234 
L 1294 2234 
L 1294 2753 
L 1863 2753 
Q 2328 2753 2575 2939 
Q 2822 3125 2822 3475 
Q 2822 3834 2567 4026 
Q 2313 4219 1838 4219 
Q 1578 4219 1281 4162 
Q 984 4106 628 3988 
L 628 4550 
Q 988 4650 1302 4700 
Q 1616 4750 1894 4750 
Q 2613 4750 3031 4423 
Q 3450 4097 3450 3541 
Q 3450 3153 3228 2886 
Q 3006 2619 2597 2516 
z
" transform="scale(0.015625)"/>
       </defs>
       <use xlink:href="#DejaVuSans-33"/>
      </g>
     </g>
    </g>
    <g id="xtick_5">
     <g id="line2d_9">
      <path d="M 295.68 307.584 
L 295.68 41.472 
" clip-path="url(#p4163d8602f)" style="fill: none; stroke: #b0b0b0; stroke-width: 0.8; stroke-linecap: square"/>
     </g>
     <g id="line2d_10">
      <g>
       <use xlink:href="#m6f4edf573d" x="295.68" y="307.584" style="stroke: #000000; stroke-width: 0.8"/>
      </g>
     </g>
     <g id="text_5">
      <!-- 4 -->
      <g transform="translate(292.49875 322.182437)scale(0.1 -0.1)">
       <defs>
        <path id="DejaVuSans-34" d="M 2419 4116 
L 825 1625 
L 2419 1625 
L 2419 4116 
z
M 2253 4666 
L 3047 4666 
L 3047 1625 
L 3713 1625 
L 3713 1100 
L 3047 1100 
L 3047 0 
L 2419 0 
L 2419 1100 
L 313 1100 
L 313 1709 
L 2253 4666 
z
" transform="scale(0.015625)"/>
       </defs>
       <use xlink:href="#DejaVuSans-34"/>
      </g>
     </g>
    </g>
    <g id="xtick_6">
     <g id="line2d_11">
      <path d="M 355.2 307.584 
L 355.2 41.472 
" clip-path="url(#p4163d8602f)" style="fill: none; stroke: #b0b0b0; stroke-width: 0.8; stroke-linecap: square"/>
     </g>
     <g id="line2d_12">
      <g>
       <use xlink:href="#m6f4edf573d" x="355.2" y="307.584" style="stroke: #000000; stroke-width: 0.8"/>
      </g>
     </g>
     <g id="text_6">
      <!-- 5 -->
      <g transform="translate(352.01875 322.182437)scale(0.1 -0.1)">
       <defs>
        <path id="DejaVuSans-35" d="M 691 4666 
L 3169 4666 
L 3169 4134 
L 1269 4134 
L 1269 2991 
Q 1406 3038 1543 3061 
Q 1681 3084 1819 3084 
Q 2600 3084 3056 2656 
Q 3513 2228 3513 1497 
Q 3513 744 3044 326 
Q 2575 -91 1722 -91 
Q 1428 -91 1123 -41 
Q 819 9 494 109 
L 494 744 
Q 775 591 1075 516 
Q 1375 441 1709 441 
Q 2250 441 2565 725 
Q 2881 1009 2881 1497 
Q 2881 1984 2565 2268 
Q 2250 2553 1709 2553 
Q 1456 2553 1204 2497 
Q 953 2441 691 2322 
L 691 4666 
z
" transform="scale(0.015625)"/>
       </defs>
       <use xlink:href="#DejaVuSans-35"/>
      </g>
     </g>
    </g>
    <g id="xtick_7">
     <g id="line2d_13">
      <path d="M 414.72 307.584 
L 414.72 41.472 
" clip-path="url(#p4163d8602f)" style="fill: none; stroke: #b0b0b0; stroke-width: 0.8; stroke-linecap: square"/>
     </g>
     <g id="line2d_14">
      <g>
       <use xlink:href="#m6f4edf573d" x="414.72" y="307.584" style="stroke: #000000; stroke-width: 0.8"/>
      </g>
     </g>
     <g id="text_7">
      <!-- 6 -->
      <g transform="translate(411.53875 322.182437)scale(0.1 -0.1)">
       <defs>
        <path id="DejaVuSans-36" d="M 2113 2584 
Q 1688 2584 1439 2293 
Q 1191 2003 1191 1497 
Q 1191 994 1439 701 
Q 1688 409 2113 409 
Q 2538 409 2786 701 
Q 3034 994 3034 1497 
Q 3034 2003 2786 2293 
Q 2538 2584 2113 2584 
z
M 3366 4563 
L 3366 3988 
Q 3128 4100 2886 4159 
Q 2644 4219 2406 4219 
Q 1781 4219 1451 3797 
Q 1122 3375 1075 2522 
Q 1259 2794 1537 2939 
Q 1816 3084 2150 3084 
Q 2853 3084 3261 2657 
Q 3669 2231 3669 1497 
Q 3669 778 3244 343 
Q 2819 -91 2113 -91 
Q 1303 -91 875 529 
Q 447 1150 447 2328 
Q 447 3434 972 4092 
Q 1497 4750 2381 4750 
Q 2619 4750 2861 4703 
Q 3103 4656 3366 4563 
z
" transform="scale(0.015625)"/>
       </defs>
       <use xlink:href="#DejaVuSans-36"/>
      </g>
     </g>
    </g>
    <g id="text_8">
     <!-- Frekvenca [GHz] -->
     <g transform="translate(194.964687 335.860562)scale(0.1 -0.1)">
      <defs>
       <path id="DejaVuSans-46" d="M 628 4666 
L 3309 4666 
L 3309 4134 
L 1259 4134 
L 1259 2759 
L 3109 2759 
L 3109 2228 
L 1259 2228 
L 1259 0 
L 628 0 
L 628 4666 
z
" transform="scale(0.015625)"/>
       <path id="DejaVuSans-72" d="M 2631 2963 
Q 2534 3019 2420 3045 
Q 2306 3072 2169 3072 
Q 1681 3072 1420 2755 
Q 1159 2438 1159 1844 
L 1159 0 
L 581 0 
L 581 3500 
L 1159 3500 
L 1159 2956 
Q 1341 3275 1631 3429 
Q 1922 3584 2338 3584 
Q 2397 3584 2469 3576 
Q 2541 3569 2628 3553 
L 2631 2963 
z
" transform="scale(0.015625)"/>
       <path id="DejaVuSans-65" d="M 3597 1894 
L 3597 1613 
L 953 1613 
Q 991 1019 1311 708 
Q 1631 397 2203 397 
Q 2534 397 2845 478 
Q 3156 559 3463 722 
L 3463 178 
Q 3153 47 2828 -22 
Q 2503 -91 2169 -91 
Q 1331 -91 842 396 
Q 353 884 353 1716 
Q 353 2575 817 3079 
Q 1281 3584 2069 3584 
Q 2775 3584 3186 3129 
Q 3597 2675 3597 1894 
z
M 3022 2063 
Q 3016 2534 2758 2815 
Q 2500 3097 2075 3097 
Q 1594 3097 1305 2825 
Q 1016 2553 972 2059 
L 3022 2063 
z
" transform="scale(0.015625)"/>
       <path id="DejaVuSans-6b" d="M 581 4863 
L 1159 4863 
L 1159 1991 
L 2875 3500 
L 3609 3500 
L 1753 1863 
L 3688 0 
L 2938 0 
L 1159 1709 
L 1159 0 
L 581 0 
L 581 4863 
z
" transform="scale(0.015625)"/>
       <path id="DejaVuSans-76" d="M 191 3500 
L 800 3500 
L 1894 563 
L 2988 3500 
L 3597 3500 
L 2284 0 
L 1503 0 
L 191 3500 
z
" transform="scale(0.015625)"/>
       <path id="DejaVuSans-6e" d="M 3513 2113 
L 3513 0 
L 2938 0 
L 2938 2094 
Q 2938 2591 2744 2837 
Q 2550 3084 2163 3084 
Q 1697 3084 1428 2787 
Q 1159 2491 1159 1978 
L 1159 0 
L 581 0 
L 581 3500 
L 1159 3500 
L 1159 2956 
Q 1366 3272 1645 3428 
Q 1925 3584 2291 3584 
Q 2894 3584 3203 3211 
Q 3513 2838 3513 2113 
z
" transform="scale(0.015625)"/>
       <path id="DejaVuSans-63" d="M 3122 3366 
L 3122 2828 
Q 2878 2963 2633 3030 
Q 2388 3097 2138 3097 
Q 1578 3097 1268 2742 
Q 959 2388 959 1747 
Q 959 1106 1268 751 
Q 1578 397 2138 397 
Q 2388 397 2633 464 
Q 2878 531 3122 666 
L 3122 134 
Q 2881 22 2623 -34 
Q 2366 -91 2075 -91 
Q 1284 -91 818 406 
Q 353 903 353 1747 
Q 353 2603 823 3093 
Q 1294 3584 2113 3584 
Q 2378 3584 2631 3529 
Q 2884 3475 3122 3366 
z
" transform="scale(0.015625)"/>
       <path id="DejaVuSans-61" d="M 2194 1759 
Q 1497 1759 1228 1600 
Q 959 1441 959 1056 
Q 959 750 1161 570 
Q 1363 391 1709 391 
Q 2188 391 2477 730 
Q 2766 1069 2766 1631 
L 2766 1759 
L 2194 1759 
z
M 3341 1997 
L 3341 0 
L 2766 0 
L 2766 531 
Q 2569 213 2275 61 
Q 1981 -91 1556 -91 
Q 1019 -91 701 211 
Q 384 513 384 1019 
Q 384 1609 779 1909 
Q 1175 2209 1959 2209 
L 2766 2209 
L 2766 2266 
Q 2766 2663 2505 2880 
Q 2244 3097 1772 3097 
Q 1472 3097 1187 3025 
Q 903 2953 641 2809 
L 641 3341 
Q 956 3463 1253 3523 
Q 1550 3584 1831 3584 
Q 2591 3584 2966 3190 
Q 3341 2797 3341 1997 
z
" transform="scale(0.015625)"/>
       <path id="DejaVuSans-20" transform="scale(0.015625)"/>
       <path id="DejaVuSans-5b" d="M 550 4863 
L 1875 4863 
L 1875 4416 
L 1125 4416 
L 1125 -397 
L 1875 -397 
L 1875 -844 
L 550 -844 
L 550 4863 
z
" transform="scale(0.015625)"/>
       <path id="DejaVuSans-47" d="M 3809 666 
L 3809 1919 
L 2778 1919 
L 2778 2438 
L 4434 2438 
L 4434 434 
Q 4069 175 3628 42 
Q 3188 -91 2688 -91 
Q 1594 -91 976 548 
Q 359 1188 359 2328 
Q 359 3472 976 4111 
Q 1594 4750 2688 4750 
Q 3144 4750 3555 4637 
Q 3966 4525 4313 4306 
L 4313 3634 
Q 3963 3931 3569 4081 
Q 3175 4231 2741 4231 
Q 1884 4231 1454 3753 
Q 1025 3275 1025 2328 
Q 1025 1384 1454 906 
Q 1884 428 2741 428 
Q 3075 428 3337 486 
Q 3600 544 3809 666 
z
" transform="scale(0.015625)"/>
       <path id="DejaVuSans-48" d="M 628 4666 
L 1259 4666 
L 1259 2753 
L 3553 2753 
L 3553 4666 
L 4184 4666 
L 4184 0 
L 3553 0 
L 3553 2222 
L 1259 2222 
L 1259 0 
L 628 0 
L 628 4666 
z
" transform="scale(0.015625)"/>
       <path id="DejaVuSans-7a" d="M 353 3500 
L 3084 3500 
L 3084 2975 
L 922 459 
L 3084 459 
L 3084 0 
L 275 0 
L 275 525 
L 2438 3041 
L 353 3041 
L 353 3500 
z
" transform="scale(0.015625)"/>
       <path id="DejaVuSans-5d" d="M 1947 4863 
L 1947 -844 
L 622 -844 
L 622 -397 
L 1369 -397 
L 1369 4416 
L 622 4416 
L 622 4863 
L 1947 4863 
z
" transform="scale(0.015625)"/>
      </defs>
      <use xlink:href="#DejaVuSans-46"/>
      <use xlink:href="#DejaVuSans-72" x="50.269531"/>
      <use xlink:href="#DejaVuSans-65" x="89.132812"/>
      <use xlink:href="#DejaVuSans-6b" x="150.65625"/>
      <use xlink:href="#DejaVuSans-76" x="208.566406"/>
      <use xlink:href="#DejaVuSans-65" x="267.746094"/>
      <use xlink:href="#DejaVuSans-6e" x="329.269531"/>
      <use xlink:href="#DejaVuSans-63" x="392.648438"/>
      <use xlink:href="#DejaVuSans-61" x="447.628906"/>
      <use xlink:href="#DejaVuSans-20" x="508.908203"/>
      <use xlink:href="#DejaVuSans-5b" x="540.695312"/>
      <use xlink:href="#DejaVuSans-47" x="579.708984"/>
      <use xlink:href="#DejaVuSans-48" x="657.199219"/>
      <use xlink:href="#DejaVuSans-7a" x="732.394531"/>
      <use xlink:href="#DejaVuSans-5d" x="784.884766"/>
     </g>
    </g>
   </g>
   <g id="matplotlib.axis_2">
    <g id="ytick_1">
     <g id="line2d_15">
      <path d="M 57.6 307.584 
L 414.72 307.584 
" clip-path="url(#p4163d8602f)" style="fill: none; stroke: #b0b0b0; stroke-width: 0.8; stroke-linecap: square"/>
     </g>
     <g id="line2d_16">
      <defs>
       <path id="m1ea5ea9f0a" d="M 0 0 
L -3.5 0 
" style="stroke: #000000; stroke-width: 0.8"/>
      </defs>
      <g>
       <use xlink:href="#m1ea5ea9f0a" x="57.6" y="307.584" style="stroke: #000000; stroke-width: 0.8"/>
      </g>
     </g>
     <g id="text_9">
      <!-- −40 -->
      <g transform="translate(29.495313 311.383219)scale(0.1 -0.1)">
       <defs>
        <path id="DejaVuSans-2212" d="M 678 2272 
L 4684 2272 
L 4684 1741 
L 678 1741 
L 678 2272 
z
" transform="scale(0.015625)"/>
       </defs>
       <use xlink:href="#DejaVuSans-2212"/>
       <use xlink:href="#DejaVuSans-34" x="83.789062"/>
       <use xlink:href="#DejaVuSans-30" x="147.412109"/>
      </g>
     </g>
    </g>
    <g id="ytick_2">
     <g id="line2d_17">
      <path d="M 57.6 274.32 
L 414.72 274.32 
" clip-path="url(#p4163d8602f)" style="fill: none; stroke: #b0b0b0; stroke-width: 0.8; stroke-linecap: square"/>
     </g>
     <g id="line2d_18">
      <g>
       <use xlink:href="#m1ea5ea9f0a" x="57.6" y="274.32" style="stroke: #000000; stroke-width: 0.8"/>
      </g>
     </g>
     <g id="text_10">
      <!-- −35 -->
      <g transform="translate(29.495313 278.119219)scale(0.1 -0.1)">
       <use xlink:href="#DejaVuSans-2212"/>
       <use xlink:href="#DejaVuSans-33" x="83.789062"/>
       <use xlink:href="#DejaVuSans-35" x="147.412109"/>
      </g>
     </g>
    </g>
    <g id="ytick_3">
     <g id="line2d_19">
      <path d="M 57.6 241.056 
L 414.72 241.056 
" clip-path="url(#p4163d8602f)" style="fill: none; stroke: #b0b0b0; stroke-width: 0.8; stroke-linecap: square"/>
     </g>
     <g id="line2d_20">
      <g>
       <use xlink:href="#m1ea5ea9f0a" x="57.6" y="241.056" style="stroke: #000000; stroke-width: 0.8"/>
      </g>
     </g>
     <g id="text_11">
      <!-- −30 -->
      <g transform="translate(29.495313 244.855219)scale(0.1 -0.1)">
       <use xlink:href="#DejaVuSans-2212"/>
       <use xlink:href="#DejaVuSans-33" x="83.789062"/>
       <use xlink:href="#DejaVuSans-30" x="147.412109"/>
      </g>
     </g>
    </g>
    <g id="ytick_4">
     <g id="line2d_21">
      <path d="M 57.6 207.792 
L 414.72 207.792 
" clip-path="url(#p4163d8602f)" style="fill: none; stroke: #b0b0b0; stroke-width: 0.8; stroke-linecap: square"/>
     </g>
     <g id="line2d_22">
      <g>
       <use xlink:href="#m1ea5ea9f0a" x="57.6" y="207.792" style="stroke: #000000; stroke-width: 0.8"/>
      </g>
     </g>
     <g id="text_12">
      <!-- −25 -->
      <g transform="translate(29.495313 211.591219)scale(0.1 -0.1)">
       <use xlink:href="#DejaVuSans-2212"/>
       <use xlink:href="#DejaVuSans-32" x="83.789062"/>
       <use xlink:href="#DejaVuSans-35" x="147.412109"/>
      </g>
     </g>
    </g>
    <g id="ytick_5">
     <g id="line2d_23">
      <path d="M 57.6 174.528 
L 414.72 174.528 
" clip-path="url(#p4163d8602f)" style="fill: none; stroke: #b0b0b0; stroke-width: 0.8; stroke-linecap: square"/>
     </g>
     <g id="line2d_24">
      <g>
       <use xlink:href="#m1ea5ea9f0a" x="57.6" y="174.528" style="stroke: #000000; stroke-width: 0.8"/>
      </g>
     </g>
     <g id="text_13">
      <!-- −20 -->
      <g transform="translate(29.495313 178.327219)scale(0.1 -0.1)">
       <use xlink:href="#DejaVuSans-2212"/>
       <use xlink:href="#DejaVuSans-32" x="83.789062"/>
       <use xlink:href="#DejaVuSans-30" x="147.412109"/>
      </g>
     </g>
    </g>
    <g id="ytick_6">
     <g id="line2d_25">
      <path d="M 57.6 141.264 
L 414.72 141.264 
" clip-path="url(#p4163d8602f)" style="fill: none; stroke: #b0b0b0; stroke-width: 0.8; stroke-linecap: square"/>
     </g>
     <g id="line2d_26">
      <g>
       <use xlink:href="#m1ea5ea9f0a" x="57.6" y="141.264" style="stroke: #000000; stroke-width: 0.8"/>
      </g>
     </g>
     <g id="text_14">
      <!-- −15 -->
      <g transform="translate(29.495313 145.063219)scale(0.1 -0.1)">
       <use xlink:href="#DejaVuSans-2212"/>
       <use xlink:href="#DejaVuSans-31" x="83.789062"/>
       <use xlink:href="#DejaVuSans-35" x="147.412109"/>
      </g>
     </g>
    </g>
    <g id="ytick_7">
     <g id="line2d_27">
      <path d="M 57.6 108 
L 414.72 108 
" clip-path="url(#p4163d8602f)" style="fill: none; stroke: #b0b0b0; stroke-width: 0.8; stroke-linecap: square"/>
     </g>
     <g id="line2d_28">
      <g>
       <use xlink:href="#m1ea5ea9f0a" x="57.6" y="108" style="stroke: #000000; stroke-width: 0.8"/>
      </g>
     </g>
     <g id="text_15">
      <!-- −10 -->
      <g transform="translate(29.495313 111.799219)scale(0.1 -0.1)">
       <use xlink:href="#DejaVuSans-2212"/>
       <use xlink:href="#DejaVuSans-31" x="83.789062"/>
       <use xlink:href="#DejaVuSans-30" x="147.412109"/>
      </g>
     </g>
    </g>
    <g id="ytick_8">
     <g id="line2d_29">
      <path d="M 57.6 74.736 
L 414.72 74.736 
" clip-path="url(#p4163d8602f)" style="fill: none; stroke: #b0b0b0; stroke-width: 0.8; stroke-linecap: square"/>
     </g>
     <g id="line2d_30">
      <g>
       <use xlink:href="#m1ea5ea9f0a" x="57.6" y="74.736" style="stroke: #000000; stroke-width: 0.8"/>
      </g>
     </g>
     <g id="text_16">
      <!-- −5 -->
      <g transform="translate(35.857813 78.535219)scale(0.1 -0.1)">
       <use xlink:href="#DejaVuSans-2212"/>
       <use xlink:href="#DejaVuSans-35" x="83.789062"/>
      </g>
     </g>
    </g>
    <g id="ytick_9">
     <g id="line2d_31">
      <path d="M 57.6 41.472 
L 414.72 41.472 
" clip-path="url(#p4163d8602f)" style="fill: none; stroke: #b0b0b0; stroke-width: 0.8; stroke-linecap: square"/>
     </g>
     <g id="line2d_32">
      <g>
       <use xlink:href="#m1ea5ea9f0a" x="57.6" y="41.472" style="stroke: #000000; stroke-width: 0.8"/>
      </g>
     </g>
     <g id="text_17">
      <!-- 0 -->
      <g transform="translate(44.2375 45.271219)scale(0.1 -0.1)">
       <use xlink:href="#DejaVuSans-30"/>
      </g>
     </g>
    </g>
    <g id="text_18">
     <!-- S21 [dB] -->
     <g transform="translate(23.415625 196.160031)rotate(-90)scale(0.1 -0.1)">
      <defs>
       <path id="DejaVuSans-53" d="M 3425 4513 
L 3425 3897 
Q 3066 4069 2747 4153 
Q 2428 4238 2131 4238 
Q 1616 4238 1336 4038 
Q 1056 3838 1056 3469 
Q 1056 3159 1242 3001 
Q 1428 2844 1947 2747 
L 2328 2669 
Q 3034 2534 3370 2195 
Q 3706 1856 3706 1288 
Q 3706 609 3251 259 
Q 2797 -91 1919 -91 
Q 1588 -91 1214 -16 
Q 841 59 441 206 
L 441 856 
Q 825 641 1194 531 
Q 1563 422 1919 422 
Q 2459 422 2753 634 
Q 3047 847 3047 1241 
Q 3047 1584 2836 1778 
Q 2625 1972 2144 2069 
L 1759 2144 
Q 1053 2284 737 2584 
Q 422 2884 422 3419 
Q 422 4038 858 4394 
Q 1294 4750 2059 4750 
Q 2388 4750 2728 4690 
Q 3069 4631 3425 4513 
z
" transform="scale(0.015625)"/>
       <path id="DejaVuSans-64" d="M 2906 2969 
L 2906 4863 
L 3481 4863 
L 3481 0 
L 2906 0 
L 2906 525 
Q 2725 213 2448 61 
Q 2172 -91 1784 -91 
Q 1150 -91 751 415 
Q 353 922 353 1747 
Q 353 2572 751 3078 
Q 1150 3584 1784 3584 
Q 2172 3584 2448 3432 
Q 2725 3281 2906 2969 
z
M 947 1747 
Q 947 1113 1208 752 
Q 1469 391 1925 391 
Q 2381 391 2643 752 
Q 2906 1113 2906 1747 
Q 2906 2381 2643 2742 
Q 2381 3103 1925 3103 
Q 1469 3103 1208 2742 
Q 947 2381 947 1747 
z
" transform="scale(0.015625)"/>
       <path id="DejaVuSans-42" d="M 1259 2228 
L 1259 519 
L 2272 519 
Q 2781 519 3026 730 
Q 3272 941 3272 1375 
Q 3272 1813 3026 2020 
Q 2781 2228 2272 2228 
L 1259 2228 
z
M 1259 4147 
L 1259 2741 
L 2194 2741 
Q 2656 2741 2882 2914 
Q 3109 3088 3109 3444 
Q 3109 3797 2882 3972 
Q 2656 4147 2194 4147 
L 1259 4147 
z
M 628 4666 
L 2241 4666 
Q 2963 4666 3353 4366 
Q 3744 4066 3744 3513 
Q 3744 3084 3544 2831 
Q 3344 2578 2956 2516 
Q 3422 2416 3680 2098 
Q 3938 1781 3938 1306 
Q 3938 681 3513 340 
Q 3088 0 2303 0 
L 628 0 
L 628 4666 
z
" transform="scale(0.015625)"/>
      </defs>
      <use xlink:href="#DejaVuSans-53"/>
      <use xlink:href="#DejaVuSans-32" x="63.476562"/>
      <use xlink:href="#DejaVuSans-31" x="127.099609"/>
      <use xlink:href="#DejaVuSans-20" x="190.722656"/>
      <use xlink:href="#DejaVuSans-5b" x="222.509766"/>
      <use xlink:href="#DejaVuSans-64" x="261.523438"/>
      <use xlink:href="#DejaVuSans-42" x="325"/>
      <use xlink:href="#DejaVuSans-5d" x="393.603516"/>
     </g>
    </g>
   </g>
   <g id="line2d_33">
    <path d="M 60.2784 48.397731 
L 61.164504 48.407338 
L 62.49366 48.395855 
L 63.822816 48.413039 
L 76.228272 49.014871 
L 77.557428 49.119507 
L 82.874052 49.372 
L 85.532364 49.634307 
L 87.304572 49.702864 
L 87.747624 49.831775 
L 88.633728 49.80249 
L 90.848988 50.263802 
L 94.393404 50.389633 
L 96.165612 50.216913 
L 97.051716 50.421872 
L 98.380872 50.51072 
L 101.039184 50.82442 
L 102.811392 50.695469 
L 107.241912 51.069795 
L 108.571068 51.313733 
L 109.457172 51.2143 
L 110.786328 51.399781 
L 111.672432 51.250279 
L 112.115484 51.35053 
L 113.001588 51.348913 
L 114.773796 51.655607 
L 118.318212 51.78726 
L 119.204316 51.753823 
L 120.533472 51.947878 
L 122.30568 51.864246 
L 123.191784 51.757748 
L 124.963992 52.062712 
L 127.179252 52.170095 
L 128.065356 52.349647 
L 128.95146 52.291322 
L 130.280616 52.108783 
L 133.825032 52.132673 
L 134.711136 52.37417 
L 135.59724 52.600518 
L 137.369448 52.478193 
L 138.698604 52.489436 
L 139.141656 52.444603 
L 139.584708 52.274684 
L 140.913864 52.2506 
L 141.356916 52.251978 
L 142.24302 52.520052 
L 145.787436 52.868493 
L 146.67354 52.60596 
L 147.116592 52.51324 
L 150.217956 52.68435 
L 151.547112 53.028619 
L 152.876268 53.077078 
L 153.762372 52.88877 
L 155.091528 52.9483 
L 155.977632 52.924609 
L 157.74984 52.723009 
L 159.522048 53.119736 
L 159.9651 53.080517 
L 160.851204 53.234576 
L 161.294256 53.162679 
L 162.623412 53.513921 
L 164.39562 53.334242 
L 165.724776 53.192544 
L 167.053932 53.187501 
L 167.496984 53.258633 
L 167.940036 53.461776 
L 168.383088 53.485892 
L 169.269192 53.780092 
L 170.598348 53.903475 
L 172.813608 53.827746 
L 175.028868 53.372143 
L 176.358024 53.687166 
L 176.801076 53.684226 
L 177.244128 53.817827 
L 177.68718 53.715427 
L 179.90244 54.346691 
L 180.788544 54.289018 
L 181.674648 53.926401 
L 182.560752 53.846294 
L 183.003804 53.752703 
L 183.446856 53.827381 
L 184.776012 53.755218 
L 186.105168 54.063449 
L 186.991272 54.486706 
L 188.76348 54.570512 
L 189.649584 54.464007 
L 190.535688 54.327179 
L 191.864844 53.959938 
L 193.194 54.166913 
L 194.080104 54.418309 
L 195.40926 54.538053 
L 197.181468 55.030892 
L 198.953676 54.566946 
L 199.396728 54.530675 
L 200.282832 54.72622 
L 200.725884 54.533655 
L 201.168936 54.730358 
L 201.611988 54.639275 
L 202.05504 54.821296 
L 204.713352 54.80155 
L 205.599456 54.888748 
L 207.371664 54.778279 
L 208.70082 55.151707 
L 209.143872 55.366519 
L 209.586924 55.354019 
L 210.029976 55.190699 
L 210.473028 55.167567 
L 210.91608 54.98087 
L 211.802184 54.979379 
L 212.245236 55.185709 
L 212.688288 55.165358 
L 213.574392 54.994408 
L 214.903548 55.179336 
L 215.3466 55.37743 
L 217.118808 55.508397 
L 217.56186 55.411246 
L 218.004912 55.561573 
L 218.447964 55.581198 
L 219.334068 55.880215 
L 219.77712 55.998934 
L 220.220172 55.782778 
L 222.435432 55.515941 
L 222.878484 55.510898 
L 223.321536 55.387303 
L 223.764588 55.403382 
L 225.093744 56.222568 
L 225.979848 56.816304 
L 226.865952 56.854937 
L 227.309004 56.574994 
L 227.752056 56.484768 
L 228.63816 56.041905 
L 229.967316 55.679287 
L 231.296472 55.232525 
L 232.182576 55.634541 
L 232.625628 56.135377 
L 233.06868 56.316998 
L 233.511732 56.650456 
L 234.397836 56.840427 
L 235.726992 56.970822 
L 236.170044 57.083667 
L 237.056148 56.655233 
L 238.385304 55.966223 
L 239.271408 55.811066 
L 241.486668 56.727915 
L 242.815824 57.587084 
L 243.258876 57.651783 
L 243.701928 57.581842 
L 244.588032 57.030704 
L 245.474136 56.750887 
L 246.803292 56.48556 
L 247.246344 56.191726 
L 248.5755 56.121492 
L 249.018552 56.343237 
L 250.347708 57.448666 
L 251.233812 57.61462 
L 251.676864 57.46734 
L 252.562968 57.516338 
L 253.00602 57.561058 
L 253.892124 57.260232 
L 255.664332 56.0506 
L 256.550436 56.266843 
L 258.322644 57.387147 
L 258.765696 57.453496 
L 259.6518 57.841381 
L 260.537904 57.864053 
L 262.753164 57.111589 
L 263.196216 57.139517 
L 265.411476 56.750667 
L 265.854528 56.761625 
L 267.626736 57.536017 
L 270.7281 57.660857 
L 272.500308 56.739165 
L 273.829464 56.996136 
L 274.715568 57.121242 
L 276.044724 57.26425 
L 277.816932 57.866295 
L 278.259984 57.824822 
L 278.703036 57.576007 
L 282.690504 57.011151 
L 283.576608 57.225538 
L 284.905764 57.633201 
L 285.791868 57.609145 
L 286.23492 57.504084 
L 286.677972 57.566434 
L 287.121024 57.469157 
L 288.007128 57.536835 
L 289.779336 57.263592 
L 290.66544 57.334823 
L 291.551544 57.31098 
L 291.994596 57.222331 
L 292.437648 57.289751 
L 292.8807 57.163254 
L 294.209856 57.407957 
L 294.652908 57.651483 
L 295.982064 57.718417 
L 296.868168 57.759824 
L 298.197324 57.716022 
L 299.083428 57.505827 
L 299.52648 57.286783 
L 300.855636 57.204235 
L 301.298688 57.434855 
L 303.513948 57.284615 
L 303.957 57.386975 
L 304.400052 57.370635 
L 304.843104 57.68015 
L 305.286156 57.802768 
L 307.058364 57.705437 
L 308.830572 57.431256 
L 309.273624 57.203876 
L 309.716676 57.233714 
L 310.159728 57.083494 
L 310.60278 57.074552 
L 314.147196 57.906272 
L 315.0333 57.973439 
L 315.919404 57.857394 
L 317.691612 57.450848 
L 318.134664 57.398191 
L 319.020768 57.569501 
L 319.46382 57.466908 
L 319.906872 57.596983 
L 320.349924 57.510883 
L 321.236028 57.923722 
L 322.122132 58.288396 
L 323.008236 58.379333 
L 323.451288 58.240875 
L 323.89434 58.228201 
L 324.337392 58.042874 
L 326.1096 57.799581 
L 326.552652 57.586099 
L 326.995704 57.577371 
L 328.32486 57.985633 
L 329.210964 58.379073 
L 330.097068 58.648838 
L 330.54012 58.583407 
L 331.869276 58.765129 
L 334.527588 58.240063 
L 336.299796 58.473343 
L 337.628952 58.984511 
L 338.515056 59.320817 
L 338.958108 59.607107 
L 339.40116 59.614638 
L 341.173368 58.987306 
L 342.059472 58.976395 
L 342.502524 58.92294 
L 342.945576 59.125577 
L 343.83168 59.053088 
L 345.160836 59.737462 
L 346.489992 60.040411 
L 347.376096 59.974734 
L 349.148304 60.277051 
L 350.920512 60.047423 
L 352.69272 60.445087 
L 353.135772 60.454534 
L 354.464928 60.903778 
L 356.237136 61.549412 
L 358.009344 61.092498 
L 358.452396 61.214942 
L 358.895448 61.144642 
L 359.781552 61.315606 
L 360.667656 61.200685 
L 361.996812 61.738252 
L 362.439864 62.072488 
L 362.882916 62.201845 
L 363.76902 62.162627 
L 365.98428 62.813171 
L 366.427332 62.875302 
L 367.313436 62.426996 
L 368.19954 62.277401 
L 371.300904 63.318717 
L 373.073112 64.304689 
L 373.516164 64.317156 
L 373.959216 64.159931 
L 375.731424 64.220784 
L 376.174476 64.357645 
L 376.617528 64.114718 
L 377.946684 63.792277 
L 378.832788 64.177015 
L 379.718892 64.988158 
L 380.604996 65.639028 
L 381.4911 66.001439 
L 381.934152 66.311819 
L 382.820256 66.42143 
L 383.70636 65.813804 
L 384.149412 65.356164 
L 385.035516 65.074598 
L 385.478568 65.101987 
L 387.693828 66.155824 
L 388.579932 67.027673 
L 389.022984 67.654906 
L 389.909088 68.476028 
L 390.35214 68.566872 
L 390.795192 68.540407 
L 392.124348 68.205518 
L 392.5674 68.115592 
L 393.453504 67.357173 
L 394.339608 66.322769 
L 394.78266 66.080009 
L 395.668764 66.640347 
L 396.554868 68.063148 
L 397.440972 69.442806 
L 398.327076 70.604019 
L 399.656232 71.465889 
L 400.099284 71.30269 
L 400.985388 70.301137 
L 401.871492 68.986304 
L 402.314544 68.670809 
L 402.757596 68.543341 
L 403.6437 68.77426 
L 404.086752 69.019901 
L 404.529804 69.503826 
L 405.415908 71.198327 
L 406.745064 73.604305 
L 407.188116 74.083214 
L 407.631168 74.19218 
L 408.07422 74.150041 
L 409.846428 73.34965 
L 411.175584 72.231607 
L 411.618636 72.250201 
L 412.061688 72.550243 
L 412.50474 73.384996 
L 414.72 78.80279 
L 414.72 78.80279 
" clip-path="url(#p4163d8602f)" style="fill: none; stroke: #1f77b4; stroke-width: 1.5; stroke-linecap: square"/>
   </g>
   <g id="line2d_34">
    <path d="M 60.2784 115.394102 
L 60.721452 115.314607 
L 61.607556 115.40607 
L 63.379764 115.383198 
L 63.822816 115.502216 
L 64.265868 115.403462 
L 66.92418 115.518356 
L 67.367232 115.439374 
L 68.253336 115.54504 
L 69.13944 115.519773 
L 72.683856 115.728924 
L 74.013012 115.745775 
L 74.899116 115.830359 
L 76.228272 115.808997 
L 77.114376 115.914437 
L 79.772688 116.024301 
L 80.21574 116.136727 
L 81.101844 116.105199 
L 82.874052 116.158109 
L 83.317104 116.096265 
L 84.203208 116.147937 
L 89.519832 116.730676 
L 89.962884 116.871023 
L 90.405936 116.782887 
L 91.29204 116.85155 
L 94.393404 116.827008 
L 96.165612 116.839988 
L 96.608664 116.99235 
L 102.36834 116.920427 
L 103.254444 117.076195 
L 103.697496 117.152763 
L 104.140548 117.070414 
L 105.469704 117.109233 
L 105.912756 117.10109 
L 106.355808 117.226768 
L 109.457172 117.266233 
L 110.786328 117.472623 
L 111.672432 117.287961 
L 112.115484 117.467613 
L 114.773796 117.630194 
L 115.6599 117.499107 
L 117.87516 117.627287 
L 118.761264 117.667257 
L 120.976524 117.75067 
L 121.862628 117.731496 
L 126.7362 117.989079 
L 127.179252 117.951731 
L 127.622304 118.028956 
L 128.508408 117.955869 
L 129.837564 117.936409 
L 134.268084 118.38057 
L 134.711136 118.241227 
L 135.154188 118.344213 
L 136.040292 118.230416 
L 136.926396 118.251619 
L 137.369448 118.304103 
L 138.255552 118.280791 
L 144.015228 118.609041 
L 147.116592 118.608814 
L 148.002696 118.795053 
L 157.74984 119.238848 
L 158.192892 119.317118 
L 158.635944 119.22821 
L 159.078996 119.279656 
L 159.522048 119.200993 
L 160.408152 119.318987 
L 161.737308 119.337456 
L 163.509516 119.391144 
L 163.952568 119.487037 
L 164.39562 119.424009 
L 166.167828 119.579079 
L 167.053932 119.552168 
L 170.155296 119.622621 
L 170.598348 119.724522 
L 171.484452 119.747993 
L 174.142764 120.046704 
L 176.358024 119.940386 
L 179.459388 120.106539 
L 181.231596 120.450469 
L 181.674648 120.405662 
L 182.1177 120.510358 
L 183.003804 120.352274 
L 183.889908 120.428774 
L 184.33296 120.28194 
L 185.662116 120.245396 
L 186.54822 120.300581 
L 187.434324 120.616643 
L 188.320428 120.679691 
L 188.76348 120.795783 
L 189.649584 120.840017 
L 190.092636 120.945637 
L 193.637052 120.746299 
L 194.966208 120.881664 
L 195.852312 120.872363 
L 198.067572 121.35837 
L 198.953676 121.33295 
L 199.396728 121.201058 
L 200.725884 121.244481 
L 201.168936 121.561447 
L 201.611988 121.274851 
L 202.498092 121.418851 
L 203.384196 121.364617 
L 203.827248 121.357146 
L 204.2703 121.466811 
L 204.713352 121.382353 
L 205.599456 121.479917 
L 206.48556 121.578292 
L 207.371664 121.39208 
L 207.814716 121.364923 
L 208.70082 121.614955 
L 209.586924 121.959071 
L 210.029976 121.866258 
L 210.473028 121.953942 
L 210.91608 121.742483 
L 211.802184 121.750433 
L 212.245236 121.941501 
L 214.017444 121.748164 
L 216.232704 122.068064 
L 216.675756 122.272026 
L 217.56186 122.058677 
L 218.004912 122.192265 
L 218.447964 122.102279 
L 219.334068 122.487443 
L 219.77712 122.674094 
L 220.220172 122.595338 
L 220.663224 122.674008 
L 221.99238 122.428293 
L 223.321536 122.291698 
L 224.20764 122.199151 
L 224.650692 122.244091 
L 225.536796 122.775569 
L 226.4229 123.410473 
L 226.865952 123.660984 
L 227.752056 123.58145 
L 229.967316 123.078751 
L 231.739524 122.326153 
L 232.182576 122.383573 
L 233.06868 122.737981 
L 233.511732 123.164346 
L 235.726992 123.839791 
L 236.170044 124.032283 
L 237.056148 124.026382 
L 237.942252 123.710328 
L 238.385304 123.514689 
L 238.828356 123.179414 
L 239.271408 123.032088 
L 240.157512 123.000281 
L 240.600564 123.207582 
L 241.043616 123.23595 
L 241.486668 123.389536 
L 243.258876 124.656881 
L 244.14498 124.811027 
L 245.031084 124.582995 
L 246.36024 124.196049 
L 246.803292 124.199076 
L 248.132448 123.539231 
L 249.018552 123.395238 
L 249.904656 123.957685 
L 250.79076 124.663268 
L 251.233812 124.860956 
L 252.119916 124.986667 
L 253.892124 125.36778 
L 254.778228 124.789425 
L 255.664332 124.080563 
L 256.550436 123.813479 
L 256.993488 123.903033 
L 259.208748 125.030696 
L 260.094852 125.656052 
L 260.980956 125.843209 
L 262.310112 125.490038 
L 262.753164 125.303414 
L 263.196216 125.360422 
L 263.639268 125.203515 
L 264.08232 125.252174 
L 264.968424 124.98696 
L 265.854528 124.753547 
L 266.29758 124.800442 
L 268.069788 125.681113 
L 268.51284 125.667389 
L 269.841996 126.061048 
L 270.285048 126.265342 
L 270.7281 126.298679 
L 271.614204 126.048248 
L 272.500308 125.39819 
L 273.386412 125.238795 
L 275.15862 125.636506 
L 275.601672 125.610614 
L 276.930828 126.052559 
L 277.816932 126.63428 
L 278.259984 126.737485 
L 278.703036 126.503353 
L 279.146088 126.573799 
L 279.58914 126.399689 
L 281.8044 126.29349 
L 282.690504 126.064062 
L 283.576608 126.277231 
L 284.462712 126.675447 
L 285.348816 126.988994 
L 287.121024 126.968317 
L 288.007128 127.134358 
L 288.45018 127.064603 
L 288.893232 127.188538 
L 293.766804 127.125489 
L 294.209856 127.30896 
L 294.652908 127.617757 
L 295.539012 127.767245 
L 298.197324 128.140806 
L 298.640376 128.211845 
L 299.083428 128.022214 
L 300.855636 127.81619 
L 301.298688 128.118826 
L 303.957 128.289477 
L 304.400052 128.335427 
L 305.286156 128.72135 
L 306.17226 128.878828 
L 307.058364 128.759071 
L 307.501416 128.932703 
L 307.944468 128.763815 
L 308.830572 128.754494 
L 309.716676 128.60746 
L 311.488884 128.797664 
L 312.374988 129.169409 
L 314.590248 129.563295 
L 316.362456 129.611275 
L 316.805508 129.430804 
L 317.24856 129.396842 
L 317.691612 129.547095 
L 318.577716 129.596313 
L 319.020768 129.725144 
L 319.46382 129.64702 
L 322.122132 130.242672 
L 322.565184 130.187308 
L 323.451288 130.218137 
L 326.552652 130.337228 
L 326.995704 130.361651 
L 327.438756 130.49951 
L 328.32486 130.603992 
L 328.767912 130.722219 
L 329.654016 130.818066 
L 332.312328 130.889264 
L 333.641484 130.900767 
L 334.084536 131.076514 
L 335.413692 131.234212 
L 337.628952 131.643665 
L 338.958108 131.43826 
L 340.287264 131.300447 
L 341.61642 131.514668 
L 342.059472 131.707239 
L 342.502524 131.709555 
L 342.945576 131.901974 
L 343.388628 131.91979 
L 344.274732 132.236696 
L 345.160836 132.3501 
L 345.603888 132.219046 
L 346.489992 132.2507 
L 346.933044 132.075412 
L 348.705252 132.430166 
L 349.148304 132.362946 
L 349.591356 132.122554 
L 350.034408 132.27807 
L 350.47746 132.233017 
L 351.363564 132.564346 
L 353.578824 133.005972 
L 354.90798 133.233285 
L 355.794084 133.054345 
L 356.237136 132.80889 
L 356.680188 132.755508 
L 357.12324 132.558119 
L 358.895448 133.020868 
L 360.667656 133.2326 
L 361.55376 133.749443 
L 361.996812 133.922828 
L 362.882916 133.960942 
L 363.76902 133.683946 
L 364.212072 133.774996 
L 364.655124 133.989483 
L 365.541228 134.115593 
L 366.427332 133.540731 
L 367.313436 133.400038 
L 368.19954 133.742085 
L 369.085644 134.155037 
L 370.4148 134.508188 
L 372.187008 135.123299 
L 372.63006 135.114824 
L 373.959216 134.565156 
L 376.174476 134.61915 
L 376.617528 134.377547 
L 377.06058 134.357655 
L 377.946684 134.517575 
L 379.718892 135.753166 
L 380.161944 136.037607 
L 381.048048 136.035132 
L 381.934152 136.030914 
L 383.263308 135.256695 
L 384.149412 134.530781 
L 385.035516 134.826012 
L 386.807724 135.920311 
L 387.250776 136.121652 
L 388.13688 136.884888 
L 388.579932 137.284348 
L 389.466036 137.619224 
L 389.909088 137.585807 
L 390.35214 137.37126 
L 391.238244 136.681811 
L 393.010452 135.685734 
L 393.896556 135.029688 
L 394.339608 134.926749 
L 394.78266 135.172384 
L 396.99792 138.43793 
L 398.770128 139.234071 
L 399.656232 138.637754 
L 400.542336 137.466123 
L 401.42844 136.117161 
L 401.871492 135.964067 
L 402.757596 136.227252 
L 403.6437 137.051367 
L 404.086752 137.50918 
L 405.85896 140.431196 
L 406.302012 140.783981 
L 406.745064 140.962488 
L 407.188116 140.832087 
L 408.07422 140.014138 
L 408.517272 139.545109 
L 408.960324 139.381351 
L 410.28948 138.418052 
L 410.732532 138.318859 
L 411.175584 138.618947 
L 411.618636 139.114813 
L 412.061688 139.958667 
L 413.833896 144.250189 
L 414.276948 144.987639 
L 414.72 145.454246 
L 414.72 145.454246 
" clip-path="url(#p4163d8602f)" style="fill: none; stroke: #ff7f0e; stroke-width: 1.5; stroke-linecap: square"/>
   </g>
   <g id="line2d_35">
    <path d="M 60.2784 182.082155 
L 61.164504 181.952724 
L 61.607556 182.102432 
L 62.49366 181.926353 
L 62.936712 182.078835 
L 71.3547 182.242294 
L 74.456064 182.490264 
L 76.228272 182.360002 
L 78.886584 182.544664 
L 79.772688 182.564935 
L 80.21574 182.732659 
L 80.658792 182.631629 
L 82.874052 182.721096 
L 83.317104 182.654089 
L 83.760156 182.732985 
L 84.203208 182.678245 
L 85.532364 182.760507 
L 85.975416 182.713798 
L 87.747624 183.081299 
L 88.190676 183.032959 
L 89.962884 183.357483 
L 90.405936 183.266559 
L 91.29204 183.382265 
L 91.735092 183.299384 
L 92.178144 183.392038 
L 93.064248 183.269886 
L 95.72256 183.319808 
L 96.165612 183.299843 
L 96.608664 183.457308 
L 99.266976 183.501097 
L 99.710028 183.38301 
L 100.15308 183.405084 
L 101.039184 183.205101 
L 101.925288 183.28059 
L 102.36834 183.305265 
L 102.811392 183.46454 
L 105.912756 183.577824 
L 107.241912 183.713847 
L 108.128016 183.562961 
L 109.900224 183.767708 
L 110.343276 183.702358 
L 110.786328 183.835414 
L 113.887692 183.819746 
L 114.773796 183.987929 
L 115.216848 183.89167 
L 115.6599 183.94265 
L 116.102952 183.845113 
L 117.432108 184.134124 
L 118.318212 183.928187 
L 118.761264 184.036548 
L 119.204316 184.023349 
L 119.647368 184.15055 
L 120.533472 183.97002 
L 120.976524 184.020188 
L 121.862628 183.940701 
L 122.30568 183.999099 
L 122.748732 184.184839 
L 125.850096 184.138515 
L 126.293148 184.448023 
L 126.7362 184.313091 
L 128.508408 184.280765 
L 128.95146 184.07713 
L 129.394512 184.29131 
L 129.837564 184.220611 
L 131.609772 184.40621 
L 132.052824 184.355649 
L 132.938928 184.600698 
L 134.268084 184.704788 
L 134.711136 184.556477 
L 135.59724 184.523586 
L 136.483344 184.454849 
L 136.926396 184.582284 
L 138.255552 184.471953 
L 138.698604 184.411652 
L 139.141656 184.64657 
L 139.584708 184.604351 
L 140.913864 184.89603 
L 141.356916 184.818185 
L 141.799968 184.947775 
L 143.129124 184.809716 
L 143.572176 184.878014 
L 144.015228 184.742935 
L 144.901332 184.808312 
L 146.67354 184.818717 
L 147.116592 184.991584 
L 147.559644 184.971619 
L 148.002696 185.135038 
L 149.331852 185.097071 
L 150.217956 185.230699 
L 152.876268 185.23664 
L 153.31932 185.370847 
L 153.762372 185.251469 
L 154.648476 185.387691 
L 155.977632 185.423876 
L 158.192892 185.577875 
L 159.9651 185.582831 
L 160.851204 185.746969 
L 161.294256 185.520974 
L 161.737308 185.652892 
L 162.18036 185.522983 
L 166.167828 185.948157 
L 166.61088 185.854918 
L 167.053932 185.975952 
L 167.496984 185.829131 
L 167.940036 185.888887 
L 168.383088 185.766668 
L 171.927504 186.071686 
L 174.142764 186.397673 
L 174.585816 186.347424 
L 175.028868 186.424537 
L 175.914972 186.297003 
L 176.358024 186.346979 
L 176.801076 186.242057 
L 177.244128 186.3429 
L 178.573284 186.219358 
L 179.016336 186.367429 
L 179.459388 186.379784 
L 179.90244 186.5956 
L 180.345492 186.564665 
L 180.788544 186.788026 
L 183.446856 186.831436 
L 184.33296 186.789237 
L 185.662116 186.594509 
L 186.54822 186.626815 
L 186.991272 186.914762 
L 188.320428 187.064969 
L 188.76348 187.2451 
L 189.649584 187.315546 
L 190.092636 187.462094 
L 190.97874 187.531669 
L 191.421792 187.277958 
L 191.864844 187.283121 
L 193.194 187.022783 
L 193.637052 187.203327 
L 194.080104 187.189177 
L 194.966208 187.348618 
L 195.40926 187.275956 
L 196.295364 187.443533 
L 198.510624 187.964221 
L 199.396728 187.698655 
L 199.83978 187.784768 
L 200.725884 187.777577 
L 201.168936 188.168216 
L 201.611988 187.750154 
L 202.498092 188.00813 
L 202.941144 187.871907 
L 203.384196 187.901685 
L 203.827248 188.07354 
L 204.713352 187.892916 
L 205.599456 188.056622 
L 206.042508 188.091689 
L 206.48556 188.245149 
L 206.928612 188.068417 
L 208.70082 188.210827 
L 209.586924 188.478569 
L 210.029976 188.39805 
L 210.473028 188.693627 
L 211.802184 188.269272 
L 212.245236 188.491329 
L 213.13134 188.45245 
L 213.574392 188.506823 
L 214.017444 188.427722 
L 216.232704 188.686768 
L 216.675756 189.009715 
L 217.118808 188.9401 
L 217.56186 188.747795 
L 218.004912 188.921699 
L 218.891016 188.953652 
L 220.663224 189.30663 
L 221.549328 189.224295 
L 221.99238 189.063876 
L 222.435432 189.241525 
L 223.764588 188.889945 
L 224.20764 188.850268 
L 225.093744 189.071061 
L 225.536796 189.44067 
L 225.979848 189.604515 
L 226.4229 190.084947 
L 226.865952 190.328327 
L 227.309004 190.226353 
L 227.752056 190.38109 
L 228.63816 189.987005 
L 229.081212 190.121757 
L 229.524264 190.08204 
L 230.410368 189.63295 
L 231.296472 189.324253 
L 231.739524 189.070974 
L 232.182576 189.11924 
L 233.06868 189.486056 
L 233.511732 189.939298 
L 234.840888 190.502331 
L 235.726992 190.57633 
L 236.170044 190.924564 
L 238.385304 190.472493 
L 239.71446 189.918621 
L 240.157512 189.870814 
L 241.486668 190.349988 
L 242.372772 190.892424 
L 243.701928 191.830576 
L 244.14498 191.9278 
L 245.031084 191.545596 
L 245.474136 191.603176 
L 246.36024 191.244477 
L 246.803292 191.203336 
L 247.689396 190.654361 
L 249.018552 190.220891 
L 250.79076 191.71034 
L 251.233812 191.913742 
L 251.676864 191.921193 
L 252.562968 192.19773 
L 253.00602 192.521256 
L 253.892124 192.515794 
L 255.664332 191.219137 
L 256.550436 190.918457 
L 257.879592 191.411502 
L 258.322644 191.714411 
L 259.208748 192.15333 
L 259.6518 192.447037 
L 260.094852 192.882117 
L 261.424008 192.973493 
L 262.310112 192.727047 
L 262.753164 192.556183 
L 263.196216 192.562503 
L 263.639268 192.357457 
L 264.08232 192.532792 
L 264.525372 192.46164 
L 265.411476 192.095124 
L 265.854528 191.99943 
L 266.740632 192.239078 
L 267.183684 192.509787 
L 267.626736 192.528275 
L 268.069788 192.852692 
L 268.51284 192.894797 
L 269.398944 193.220845 
L 270.7281 193.788022 
L 272.057256 193.142734 
L 272.500308 192.652556 
L 272.94336 192.852259 
L 273.386412 192.613823 
L 273.829464 192.617223 
L 274.272516 192.822488 
L 274.715568 192.693703 
L 275.15862 193.016836 
L 275.601672 193.110707 
L 276.044724 192.974831 
L 276.487776 193.11762 
L 276.930828 193.601864 
L 277.37388 193.705135 
L 278.259984 194.185507 
L 278.703036 193.972644 
L 279.146088 194.166513 
L 279.58914 193.887947 
L 280.918296 193.868554 
L 281.361348 193.948594 
L 282.690504 193.493676 
L 283.576608 193.573257 
L 284.462712 194.215977 
L 286.23492 194.60492 
L 286.677972 194.547393 
L 287.121024 194.320213 
L 287.564076 194.549821 
L 288.007128 194.499779 
L 288.45018 194.649008 
L 288.893232 194.642382 
L 289.336284 194.843729 
L 289.779336 194.571915 
L 290.222388 194.672605 
L 290.66544 194.647125 
L 291.551544 194.853289 
L 292.437648 194.606097 
L 293.323752 194.656392 
L 294.209856 194.89755 
L 295.539012 195.548367 
L 297.754272 195.877401 
L 298.197324 195.985875 
L 298.640376 195.749361 
L 299.083428 195.83632 
L 299.52648 195.679227 
L 299.969532 195.667485 
L 300.412584 195.469271 
L 300.855636 195.63325 
L 301.298688 195.592042 
L 302.184792 195.795605 
L 303.513948 195.890414 
L 303.957 196.132542 
L 304.400052 196.09224 
L 305.729208 196.637417 
L 306.17226 196.42295 
L 306.615312 196.739943 
L 307.944468 196.742225 
L 308.38752 196.580808 
L 311.045832 196.47562 
L 311.931936 196.801807 
L 312.374988 196.8438 
L 312.81804 197.171437 
L 313.261092 197.087658 
L 313.704144 197.32652 
L 314.147196 197.42735 
L 315.0333 197.280889 
L 315.476352 197.633534 
L 315.919404 197.372105 
L 316.362456 197.608419 
L 316.805508 197.35405 
L 318.134664 197.418801 
L 318.577716 197.54392 
L 319.46382 197.530009 
L 320.349924 197.698405 
L 323.008236 198.119534 
L 323.451288 198.000502 
L 323.89434 198.177646 
L 324.337392 197.903258 
L 325.223496 198.219672 
L 325.666548 197.996424 
L 326.552652 198.253967 
L 326.995704 198.23343 
L 327.881808 198.51948 
L 328.32486 198.328758 
L 329.210964 198.62216 
L 329.654016 198.707555 
L 330.097068 198.658205 
L 330.54012 198.769945 
L 330.983172 198.596393 
L 331.426224 198.624162 
L 331.869276 198.484154 
L 332.312328 198.743374 
L 332.75538 198.519793 
L 333.198432 198.491878 
L 334.97064 198.893627 
L 335.413692 198.953383 
L 335.856744 199.183563 
L 336.742848 199.287027 
L 337.1859 199.467983 
L 337.628952 199.411794 
L 338.515056 199.007423 
L 338.958108 199.057366 
L 340.287264 198.797527 
L 340.730316 199.030861 
L 341.173368 198.975982 
L 342.059472 199.322839 
L 343.388628 199.823103 
L 343.83168 199.706879 
L 344.274732 199.78455 
L 344.717784 200.139131 
L 345.160836 199.956658 
L 346.489992 199.848198 
L 347.376096 199.697818 
L 348.705252 199.914706 
L 349.148304 199.916914 
L 349.591356 199.657868 
L 350.034408 199.841132 
L 350.47746 199.705289 
L 352.249668 200.30611 
L 352.69272 200.236142 
L 353.135772 200.491257 
L 354.021876 200.490698 
L 354.464928 200.645063 
L 355.351032 200.663511 
L 355.794084 200.236615 
L 356.237136 200.223522 
L 357.12324 199.812865 
L 358.009344 200.157287 
L 358.452396 200.118261 
L 358.895448 200.364541 
L 359.3385 200.276824 
L 359.781552 200.387034 
L 360.224604 200.296104 
L 361.110708 200.839678 
L 361.55376 201.143152 
L 362.882916 201.243443 
L 363.76902 200.755839 
L 365.541228 201.042927 
L 366.870384 200.364794 
L 367.313436 200.250586 
L 367.756488 200.524954 
L 368.19954 200.486441 
L 368.642592 200.856616 
L 369.085644 201.072785 
L 369.528696 201.097946 
L 370.4148 201.38554 
L 370.857852 201.36648 
L 371.743956 201.774323 
L 372.187008 201.858913 
L 373.516164 201.225247 
L 373.959216 201.104931 
L 374.402268 201.157575 
L 374.84532 201.057031 
L 375.288372 201.256941 
L 375.731424 200.984669 
L 376.174476 200.961184 
L 376.617528 200.664396 
L 377.06058 200.807185 
L 377.503632 200.706721 
L 378.389736 201.185437 
L 379.718892 202.252679 
L 380.161944 202.351546 
L 380.604996 202.321409 
L 381.4911 202.015247 
L 381.934152 202.075475 
L 382.377204 201.797515 
L 383.263308 200.834641 
L 383.70636 200.784938 
L 384.149412 200.337897 
L 385.035516 200.548604 
L 385.478568 200.882515 
L 386.364672 201.386252 
L 388.13688 202.473579 
L 388.579932 202.851365 
L 389.466036 203.053603 
L 389.909088 203.156934 
L 390.35214 202.544857 
L 390.795192 202.576398 
L 391.238244 201.71152 
L 391.681296 201.623331 
L 392.124348 201.275343 
L 392.5674 201.163869 
L 393.453504 200.143236 
L 393.896556 199.785395 
L 394.339608 199.694006 
L 395.225712 200.545684 
L 395.668764 201.398692 
L 396.99792 202.903037 
L 397.440972 203.416068 
L 398.327076 203.585109 
L 398.770128 203.543821 
L 399.21318 203.290696 
L 400.099284 202.118878 
L 401.42844 199.80564 
L 402.314544 199.508885 
L 403.200648 200.041594 
L 403.6437 200.698392 
L 404.086752 200.952323 
L 405.415908 203.206844 
L 406.302012 203.706728 
L 406.745064 203.679964 
L 407.188116 203.509473 
L 407.631168 203.042839 
L 408.517272 201.623165 
L 408.960324 201.363393 
L 410.28948 200.067607 
L 410.732532 199.849987 
L 411.618636 200.583092 
L 412.061688 201.334054 
L 413.833896 205.54813 
L 414.276948 206.001958 
L 414.72 206.216584 
L 414.72 206.216584 
" clip-path="url(#p4163d8602f)" style="fill: none; stroke: #2ca02c; stroke-width: 1.5; stroke-linecap: square"/>
   </g>
   <g id="line2d_36">
    <path d="M 60.2784 248.559261 
L 60.721452 248.426418 
L 61.164504 248.587129 
L 62.050608 248.533242 
L 62.936712 248.661068 
L 63.379764 248.547146 
L 63.822816 248.733019 
L 64.265868 248.519251 
L 64.70892 248.747409 
L 65.151972 248.799487 
L 65.595024 248.639294 
L 66.038076 248.663497 
L 66.481128 248.859235 
L 66.92418 248.625849 
L 67.367232 248.527094 
L 67.810284 248.867299 
L 68.253336 248.671507 
L 68.696388 248.877145 
L 70.025544 248.543793 
L 70.468596 248.798349 
L 70.911648 248.832744 
L 71.3547 248.741953 
L 73.56996 248.91444 
L 74.013012 249.109075 
L 74.456064 249.114736 
L 76.228272 248.702835 
L 77.114376 249.085031 
L 77.557428 248.863799 
L 78.443532 249.18505 
L 79.329636 249.293583 
L 80.21574 249.144421 
L 80.658792 249.233622 
L 81.101844 249.03302 
L 81.544896 249.412509 
L 83.317104 249.19787 
L 83.760156 249.074354 
L 84.203208 249.322024 
L 84.64626 249.057376 
L 85.975416 249.243847 
L 86.418468 249.065905 
L 87.304572 249.645783 
L 87.747624 249.41686 
L 88.190676 249.411185 
L 88.633728 249.61512 
L 89.07678 249.943868 
L 89.519832 249.50314 
L 89.962884 249.878192 
L 90.405936 249.736746 
L 90.848988 250.044312 
L 91.29204 249.770416 
L 92.621196 249.749899 
L 93.064248 249.80036 
L 93.5073 249.466004 
L 94.393404 249.617821 
L 94.836456 249.619717 
L 95.279508 249.786017 
L 96.165612 249.649921 
L 96.608664 249.986918 
L 97.051716 249.75097 
L 97.494768 249.9124 
L 98.823924 249.81519 
L 99.710028 249.913431 
L 100.15308 249.864913 
L 100.596132 249.667238 
L 101.039184 249.666187 
L 101.925288 250.001594 
L 102.36834 249.799256 
L 102.811392 249.790315 
L 103.254444 250.111445 
L 103.697496 249.918754 
L 104.5836 249.999033 
L 105.026652 249.882024 
L 105.469704 250.1362 
L 105.912756 250.252904 
L 106.79886 249.934042 
L 107.241912 250.247049 
L 107.684964 250.271246 
L 108.571068 249.820858 
L 109.01412 250.049169 
L 109.457172 249.932738 
L 109.900224 250.206208 
L 110.343276 250.33331 
L 111.22938 250.024866 
L 111.672432 249.890572 
L 112.115484 250.328041 
L 113.44464 250.198857 
L 113.887692 250.362855 
L 114.773796 250.354811 
L 115.216848 250.103349 
L 115.6599 250.34426 
L 116.102952 250.153471 
L 117.432108 250.46244 
L 117.87516 250.141316 
L 118.318212 250.005087 
L 118.761264 250.356122 
L 119.204316 250.345784 
L 120.09042 250.640469 
L 121.419576 250.224889 
L 121.862628 250.578232 
L 122.30568 250.262125 
L 122.748732 250.770665 
L 123.191784 250.50279 
L 123.634836 250.76477 
L 124.077888 250.652504 
L 124.52094 250.732677 
L 125.407044 250.383844 
L 126.293148 250.673161 
L 126.7362 250.553544 
L 127.179252 250.874249 
L 127.622304 250.814946 
L 128.065356 250.588544 
L 128.508408 250.669303 
L 128.95146 250.534404 
L 129.837564 250.706665 
L 130.723668 250.607079 
L 131.16672 250.990926 
L 131.609772 250.56669 
L 132.052824 250.952253 
L 132.495876 250.972777 
L 132.938928 250.771862 
L 133.38198 251.119697 
L 133.825032 251.116258 
L 134.268084 250.883436 
L 135.154188 251.109465 
L 136.040292 250.653702 
L 136.483344 251.073221 
L 136.926396 250.945201 
L 138.255552 250.874601 
L 138.698604 251.085482 
L 140.02776 251.158297 
L 140.470812 251.098428 
L 140.913864 251.177098 
L 141.356916 250.937497 
L 141.799968 251.294599 
L 142.24302 251.315509 
L 142.686072 251.485235 
L 143.129124 251.197395 
L 143.572176 251.36299 
L 144.45828 251.194089 
L 144.901332 251.397112 
L 145.344384 251.220574 
L 146.230488 251.233473 
L 146.67354 250.933033 
L 147.116592 251.540407 
L 148.445748 251.402375 
L 148.8888 251.493032 
L 149.331852 251.761992 
L 149.774904 251.727204 
L 150.217956 251.564676 
L 150.661008 251.732101 
L 151.547112 251.539236 
L 152.433216 251.747376 
L 152.876268 251.506897 
L 153.31932 251.875422 
L 153.762372 251.448326 
L 154.205424 251.558662 
L 154.648476 251.840042 
L 155.091528 251.61746 
L 155.53458 252.115428 
L 155.977632 251.827023 
L 156.420684 252.234081 
L 156.863736 252.226211 
L 157.306788 251.969147 
L 157.74984 252.168285 
L 158.192892 251.906364 
L 158.635944 252.05055 
L 159.078996 251.962248 
L 159.9651 252.118755 
L 160.408152 252.339515 
L 160.851204 252.248464 
L 161.294256 251.983816 
L 161.737308 252.11642 
L 163.509516 252.034757 
L 164.838672 252.170953 
L 165.281724 252.620309 
L 165.724776 252.683252 
L 167.496984 252.278801 
L 169.269192 252.398472 
L 169.712244 252.155398 
L 171.484452 252.643894 
L 172.370556 252.654738 
L 172.813608 252.79893 
L 173.25666 253.152533 
L 173.699712 252.897811 
L 174.142764 253.135136 
L 175.028868 252.683963 
L 175.47192 252.892456 
L 175.914972 252.94957 
L 176.358024 252.797899 
L 177.244128 252.829986 
L 177.68718 253.002619 
L 178.130232 252.676512 
L 178.573284 253.110255 
L 179.459388 252.943003 
L 179.90244 253.055715 
L 180.345492 253.369801 
L 180.788544 253.256949 
L 181.674648 253.330383 
L 182.1177 253.562472 
L 182.560752 253.573523 
L 183.003804 253.290938 
L 183.446856 253.565792 
L 183.889908 253.478048 
L 184.33296 253.191446 
L 184.776012 253.588471 
L 185.219064 253.38628 
L 186.105168 253.383645 
L 186.991272 253.363454 
L 187.434324 253.730269 
L 187.877376 253.443394 
L 188.76348 254.034129 
L 189.206532 253.858781 
L 189.649584 254.105767 
L 190.535688 253.9267 
L 190.97874 254.338116 
L 191.864844 253.916115 
L 193.637052 253.973662 
L 194.080104 254.146202 
L 194.523156 254.041993 
L 194.966208 254.085023 
L 195.40926 253.931137 
L 195.852312 254.351428 
L 196.738416 254.28305 
L 197.181468 254.49274 
L 198.067572 254.454806 
L 198.510624 254.719102 
L 198.953676 254.820464 
L 199.396728 254.765731 
L 199.83978 254.312742 
L 200.282832 254.754009 
L 200.725884 254.392476 
L 201.611988 254.811076 
L 202.941144 254.638949 
L 203.384196 254.426784 
L 203.827248 254.914807 
L 204.2703 255.041656 
L 204.713352 254.688485 
L 205.156404 254.949002 
L 205.599456 254.846915 
L 206.928612 254.946135 
L 207.371664 254.645402 
L 208.257768 255.206738 
L 208.70082 254.990243 
L 209.143872 254.935663 
L 209.586924 255.383583 
L 210.029976 255.291934 
L 210.473028 255.403768 
L 210.91608 255.293039 
L 211.359132 255.392119 
L 211.802184 255.237548 
L 212.245236 255.471906 
L 214.017444 255.633183 
L 214.460496 255.350858 
L 214.903548 255.319084 
L 215.3466 255.625033 
L 215.789652 255.373431 
L 216.675756 255.795711 
L 217.118808 255.8137 
L 217.56186 256.326631 
L 218.004912 255.910166 
L 218.891016 255.745522 
L 219.334068 255.800441 
L 219.77712 256.495479 
L 220.220172 256.862321 
L 220.663224 256.443414 
L 221.106276 256.857571 
L 221.99238 256.110441 
L 222.435432 256.312853 
L 222.878484 255.963461 
L 223.764588 255.67433 
L 224.650692 256.047519 
L 225.536796 256.021241 
L 226.4229 256.70453 
L 226.865952 257.920376 
L 227.309004 257.345946 
L 227.752056 257.742214 
L 228.195108 257.643626 
L 228.63816 257.231259 
L 229.081212 257.144233 
L 229.524264 256.795667 
L 229.967316 256.836042 
L 230.85342 256.664347 
L 231.739524 256.085334 
L 232.182576 256.340761 
L 233.06868 256.473744 
L 233.511732 257.046271 
L 233.954784 256.902324 
L 234.397836 257.479628 
L 234.840888 257.350291 
L 235.28394 257.719987 
L 235.726992 257.56465 
L 236.170044 258.060963 
L 236.613096 258.267432 
L 237.056148 258.349608 
L 237.4992 258.246729 
L 237.942252 257.967591 
L 238.385304 257.437668 
L 238.828356 257.105301 
L 239.271408 257.250931 
L 239.71446 256.884149 
L 240.157512 257.270796 
L 240.600564 257.019194 
L 241.043616 257.635323 
L 241.486668 256.969365 
L 241.92972 257.680901 
L 242.372772 258.167241 
L 242.815824 258.259901 
L 243.258876 259.093464 
L 243.701928 259.318655 
L 244.14498 258.853005 
L 244.588032 258.779179 
L 245.031084 258.383677 
L 245.474136 258.616312 
L 245.917188 258.188683 
L 246.803292 258.376751 
L 247.689396 257.943494 
L 248.132448 257.967305 
L 249.018552 257.140947 
L 249.461604 257.916457 
L 249.904656 258.076464 
L 250.347708 258.77534 
L 250.79076 258.507319 
L 251.233812 259.071709 
L 251.676864 258.941966 
L 252.119916 259.151596 
L 253.00602 259.995284 
L 253.892124 259.455596 
L 254.778228 259.302289 
L 255.22128 259.058118 
L 256.107384 258.010069 
L 256.550436 257.964364 
L 256.993488 258.06546 
L 257.43654 258.416934 
L 257.879592 258.233383 
L 258.322644 258.763731 
L 258.765696 258.929685 
L 259.208748 259.361033 
L 259.6518 259.579491 
L 260.094852 260.198022 
L 260.537904 260.460448 
L 260.980956 260.129351 
L 261.424008 260.648563 
L 261.86706 260.312443 
L 262.310112 260.194782 
L 262.753164 259.561701 
L 263.196216 259.757347 
L 263.639268 259.477736 
L 264.08232 259.876971 
L 264.525372 259.445829 
L 264.968424 259.449582 
L 265.411476 259.001795 
L 265.854528 259.764971 
L 266.29758 259.462841 
L 266.740632 259.686514 
L 267.183684 260.156302 
L 268.069788 260.522319 
L 268.51284 260.236056 
L 268.955892 260.265548 
L 269.398944 260.446238 
L 269.841996 260.84351 
L 270.7281 261.255205 
L 271.171152 261.255611 
L 271.614204 260.737105 
L 272.057256 260.80652 
L 272.500308 260.015948 
L 272.94336 260.434695 
L 273.829464 260.005044 
L 274.272516 260.173599 
L 274.715568 260.060708 
L 275.15862 260.533183 
L 275.601672 260.15549 
L 276.044724 260.747077 
L 276.487776 261.0238 
L 276.930828 260.919325 
L 277.37388 261.099616 
L 277.816932 261.827272 
L 278.259984 261.40005 
L 278.703036 261.773225 
L 279.58914 261.521363 
L 280.032192 260.884438 
L 280.475244 260.805489 
L 280.918296 261.526819 
L 281.361348 261.554055 
L 281.8044 261.14212 
L 282.247452 261.096602 
L 282.690504 260.683869 
L 283.576608 260.83361 
L 284.01966 260.920828 
L 284.462712 261.605135 
L 284.905764 261.948839 
L 285.348816 261.845654 
L 286.23492 262.075927 
L 286.677972 261.25452 
L 287.121024 262.038392 
L 287.564076 262.346643 
L 288.007128 262.412213 
L 288.45018 261.845987 
L 288.893232 262.155428 
L 289.336284 261.750765 
L 289.779336 261.874108 
L 290.222388 262.222409 
L 290.66544 262.046788 
L 291.108492 262.127859 
L 291.551544 262.59585 
L 291.994596 262.06835 
L 292.437648 262.446402 
L 292.8807 261.97372 
L 293.323752 262.362024 
L 294.652908 262.436083 
L 295.09596 262.875714 
L 296.425116 262.997939 
L 296.868168 262.859514 
L 297.31122 263.044934 
L 297.754272 263.038614 
L 298.197324 263.644591 
L 298.640376 263.434123 
L 299.083428 263.548106 
L 299.52648 263.256061 
L 299.969532 262.758212 
L 300.412584 262.532762 
L 300.855636 263.025867 
L 301.298688 262.960956 
L 302.627844 263.52993 
L 303.070896 262.648421 
L 303.957 263.696809 
L 304.400052 263.32056 
L 304.843104 263.801777 
L 305.286156 263.689917 
L 305.729208 264.088918 
L 306.17226 264.287591 
L 306.615312 263.830437 
L 307.058364 263.913757 
L 307.501416 263.644684 
L 307.944468 263.789802 
L 308.38752 264.177653 
L 308.830572 263.687834 
L 309.273624 263.447795 
L 309.716676 263.994302 
L 310.159728 263.570619 
L 310.60278 263.406208 
L 311.045832 263.733779 
L 311.931936 263.80825 
L 312.81804 264.277113 
L 313.261092 264.423022 
L 314.147196 264.296113 
L 314.590248 264.733282 
L 315.0333 264.021379 
L 315.476352 264.512103 
L 315.919404 264.451483 
L 316.362456 264.169497 
L 317.691612 264.682448 
L 318.134664 264.319804 
L 318.577716 264.657141 
L 319.020768 264.657513 
L 319.46382 265.005854 
L 319.906872 264.654939 
L 320.349924 264.877169 
L 320.792976 264.82859 
L 321.236028 265.572692 
L 321.67908 264.848894 
L 322.122132 264.983507 
L 322.565184 265.322787 
L 323.008236 264.937144 
L 323.451288 264.946757 
L 323.89434 265.202963 
L 324.337392 265.131771 
L 324.780444 264.909535 
L 325.666548 265.257489 
L 326.1096 265.437288 
L 326.995704 265.501255 
L 327.438756 265.685564 
L 327.881808 265.497123 
L 328.32486 265.861963 
L 328.767912 265.470246 
L 329.210964 265.481136 
L 329.654016 265.299748 
L 330.097068 264.821711 
L 330.54012 265.851119 
L 330.983172 265.287327 
L 331.426224 265.478821 
L 331.869276 265.85352 
L 332.312328 265.570271 
L 332.75538 265.720451 
L 333.198432 265.118373 
L 333.641484 265.446715 
L 334.084536 265.544358 
L 334.527588 265.475648 
L 334.97064 265.600488 
L 335.413692 265.939035 
L 335.856744 266.04411 
L 336.742848 265.57844 
L 337.1859 266.075059 
L 337.628952 265.648355 
L 338.072004 265.792694 
L 339.844212 265.062822 
L 340.287264 265.491954 
L 340.730316 264.989095 
L 341.61642 265.54668 
L 342.502524 265.434327 
L 342.945576 266.122466 
L 343.388628 266.193212 
L 343.83168 265.884589 
L 344.274732 265.886438 
L 344.717784 266.596804 
L 345.603888 266.157354 
L 346.04694 266.161252 
L 346.489992 265.454399 
L 346.933044 266.151998 
L 347.376096 265.149009 
L 347.819148 265.709667 
L 348.2622 265.855855 
L 348.705252 265.810204 
L 349.148304 265.564636 
L 349.591356 265.865289 
L 350.034408 265.598279 
L 350.47746 265.791197 
L 350.920512 265.845657 
L 351.363564 265.674607 
L 352.249668 266.021084 
L 352.69272 266.484232 
L 353.135772 266.50614 
L 353.578824 266.077334 
L 354.021876 266.471253 
L 354.464928 266.492009 
L 356.237136 265.831766 
L 356.680188 265.874882 
L 357.12324 264.88927 
L 357.566292 265.216874 
L 358.009344 265.330856 
L 358.895448 265.165321 
L 359.3385 265.308383 
L 359.781552 265.232475 
L 360.224604 265.399693 
L 360.667656 265.013192 
L 361.110708 265.726399 
L 361.55376 266.06019 
L 361.996812 265.59162 
L 362.439864 266.495063 
L 362.882916 266.089788 
L 363.325968 265.485514 
L 363.76902 265.653956 
L 364.655124 265.23974 
L 365.098176 265.441985 
L 365.541228 265.45861 
L 365.98428 265.31298 
L 366.427332 264.882125 
L 366.870384 264.293485 
L 367.313436 264.543637 
L 367.756488 264.260022 
L 368.19954 264.460357 
L 368.642592 264.500188 
L 369.085644 264.280911 
L 369.528696 264.838237 
L 369.971748 264.418791 
L 371.300904 265.679377 
L 371.743956 265.441007 
L 372.187008 265.344022 
L 372.63006 265.127966 
L 373.073112 264.787389 
L 373.516164 264.950336 
L 373.959216 264.351651 
L 374.402268 265.017084 
L 374.84532 264.387616 
L 375.288372 264.359907 
L 375.731424 264.002306 
L 376.174476 264.08311 
L 377.06058 263.091018 
L 377.503632 263.281428 
L 377.946684 263.780541 
L 378.389736 263.760297 
L 378.832788 263.891457 
L 379.27584 265.170038 
L 379.718892 264.63663 
L 380.161944 265.053162 
L 381.048048 264.696119 
L 381.4911 264.527471 
L 382.377204 263.841328 
L 382.820256 263.817238 
L 383.70636 262.403179 
L 384.149412 262.178773 
L 384.592464 261.79496 
L 385.035516 262.482127 
L 385.92162 262.519496 
L 386.364672 262.847692 
L 386.807724 263.489554 
L 387.250776 263.046272 
L 387.693828 263.284189 
L 388.13688 263.183339 
L 388.579932 263.823126 
L 389.022984 263.586306 
L 389.466036 263.760197 
L 389.909088 263.81006 
L 390.35214 263.128979 
L 390.795192 262.996362 
L 391.238244 262.253165 
L 391.681296 262.049782 
L 392.124348 261.386085 
L 392.5674 261.117944 
L 393.896556 259.270162 
L 394.339608 259.131219 
L 394.78266 259.302468 
L 395.225712 260.289551 
L 396.111816 261.049028 
L 396.554868 260.63396 
L 396.99792 261.618088 
L 397.440972 261.441643 
L 397.884024 262.127427 
L 398.327076 262.48566 
L 398.770128 261.656848 
L 399.656232 260.719142 
L 400.985388 257.767707 
L 401.42844 256.903469 
L 401.871492 256.873272 
L 402.314544 256.175499 
L 402.757596 256.491574 
L 403.200648 256.557363 
L 404.086752 256.981918 
L 404.529804 257.821928 
L 405.85896 259.170749 
L 406.302012 258.675528 
L 406.745064 258.733428 
L 407.188116 258.209214 
L 407.631168 257.885814 
L 408.517272 255.790249 
L 408.960324 255.194996 
L 409.403376 255.059485 
L 409.846428 253.857996 
L 410.28948 253.501493 
L 410.732532 252.976853 
L 411.175584 252.713329 
L 411.618636 253.425411 
L 412.061688 253.783033 
L 413.390844 256.884089 
L 413.833896 257.394399 
L 414.276948 258.248991 
L 414.72 258.323289 
L 414.72 258.323289 
" clip-path="url(#p4163d8602f)" style="fill: none; stroke: #d62728; stroke-width: 1.5; stroke-linecap: square"/>
   </g>
   <g id="patch_3">
    <path d="M 57.6 307.584 
L 57.6 41.472 
" style="fill: none; stroke: #000000; stroke-width: 0.8; stroke-linejoin: miter; stroke-linecap: square"/>
   </g>
   <g id="patch_4">
    <path d="M 414.72 307.584 
L 414.72 41.472 
" style="fill: none; stroke: #000000; stroke-width: 0.8; stroke-linejoin: miter; stroke-linecap: square"/>
   </g>
   <g id="patch_5">
    <path d="M 57.6 307.584 
L 414.72 307.584 
" style="fill: none; stroke: #000000; stroke-width: 0.8; stroke-linejoin: miter; stroke-linecap: square"/>
   </g>
   <g id="patch_6">
    <path d="M 57.6 41.472 
L 414.72 41.472 
" style="fill: none; stroke: #000000; stroke-width: 0.8; stroke-linejoin: miter; stroke-linecap: square"/>
   </g>
   <g id="text_19">
    <!-- PE43711B -->
    <g transform="translate(205.546875 35.472)scale(0.12 -0.12)">
     <defs>
      <path id="DejaVuSans-50" d="M 1259 4147 
L 1259 2394 
L 2053 2394 
Q 2494 2394 2734 2622 
Q 2975 2850 2975 3272 
Q 2975 3691 2734 3919 
Q 2494 4147 2053 4147 
L 1259 4147 
z
M 628 4666 
L 2053 4666 
Q 2838 4666 3239 4311 
Q 3641 3956 3641 3272 
Q 3641 2581 3239 2228 
Q 2838 1875 2053 1875 
L 1259 1875 
L 1259 0 
L 628 0 
L 628 4666 
z
" transform="scale(0.015625)"/>
      <path id="DejaVuSans-45" d="M 628 4666 
L 3578 4666 
L 3578 4134 
L 1259 4134 
L 1259 2753 
L 3481 2753 
L 3481 2222 
L 1259 2222 
L 1259 531 
L 3634 531 
L 3634 0 
L 628 0 
L 628 4666 
z
" transform="scale(0.015625)"/>
      <path id="DejaVuSans-37" d="M 525 4666 
L 3525 4666 
L 3525 4397 
L 1831 0 
L 1172 0 
L 2766 4134 
L 525 4134 
L 525 4666 
z
" transform="scale(0.015625)"/>
     </defs>
     <use xlink:href="#DejaVuSans-50"/>
     <use xlink:href="#DejaVuSans-45" x="60.302734"/>
     <use xlink:href="#DejaVuSans-34" x="123.486328"/>
     <use xlink:href="#DejaVuSans-33" x="187.109375"/>
     <use xlink:href="#DejaVuSans-37" x="250.732422"/>
     <use xlink:href="#DejaVuSans-31" x="314.355469"/>
     <use xlink:href="#DejaVuSans-31" x="377.978516"/>
     <use xlink:href="#DejaVuSans-42" x="441.601562"/>
    </g>
   </g>
   <g id="legend_1">
    <g id="patch_7">
     <path d="M 349.785625 302.584 
L 407.72 302.584 
Q 409.72 302.584 409.72 300.584 
L 409.72 242.8715 
Q 409.72 240.8715 407.72 240.8715 
L 349.785625 240.8715 
Q 347.785625 240.8715 347.785625 242.8715 
L 347.785625 300.584 
Q 347.785625 302.584 349.785625 302.584 
z
" style="fill: #ffffff; opacity: 0.8; stroke: #cccccc; stroke-linejoin: miter"/>
    </g>
    <g id="line2d_37">
     <path d="M 351.785625 248.969937 
L 361.785625 248.969937 
L 371.785625 248.969937 
" style="fill: none; stroke: #1f77b4; stroke-width: 1.5; stroke-linecap: square"/>
    </g>
    <g id="text_20">
     <!-- 0dB -->
     <g transform="translate(379.785625 252.469937)scale(0.1 -0.1)">
      <use xlink:href="#DejaVuSans-30"/>
      <use xlink:href="#DejaVuSans-64" x="63.623047"/>
      <use xlink:href="#DejaVuSans-42" x="127.099609"/>
     </g>
    </g>
    <g id="line2d_38">
     <path d="M 351.785625 263.648062 
L 361.785625 263.648062 
L 371.785625 263.648062 
" style="fill: none; stroke: #ff7f0e; stroke-width: 1.5; stroke-linecap: square"/>
    </g>
    <g id="text_21">
     <!-- 10dB -->
     <g transform="translate(379.785625 267.148062)scale(0.1 -0.1)">
      <use xlink:href="#DejaVuSans-31"/>
      <use xlink:href="#DejaVuSans-30" x="63.623047"/>
      <use xlink:href="#DejaVuSans-64" x="127.246094"/>
      <use xlink:href="#DejaVuSans-42" x="190.722656"/>
     </g>
    </g>
    <g id="line2d_39">
     <path d="M 351.785625 278.326187 
L 361.785625 278.326187 
L 371.785625 278.326187 
" style="fill: none; stroke: #2ca02c; stroke-width: 1.5; stroke-linecap: square"/>
    </g>
    <g id="text_22">
     <!-- 20dB -->
     <g transform="translate(379.785625 281.826187)scale(0.1 -0.1)">
      <use xlink:href="#DejaVuSans-32"/>
      <use xlink:href="#DejaVuSans-30" x="63.623047"/>
      <use xlink:href="#DejaVuSans-64" x="127.246094"/>
      <use xlink:href="#DejaVuSans-42" x="190.722656"/>
     </g>
    </g>
    <g id="line2d_40">
     <path d="M 351.785625 293.004312 
L 361.785625 293.004312 
L 371.785625 293.004312 
" style="fill: none; stroke: #d62728; stroke-width: 1.5; stroke-linecap: square"/>
    </g>
    <g id="text_23">
     <!-- 30dB -->
     <g transform="translate(379.785625 296.504312)scale(0.1 -0.1)">
      <use xlink:href="#DejaVuSans-33"/>
      <use xlink:href="#DejaVuSans-30" x="63.623047"/>
      <use xlink:href="#DejaVuSans-64" x="127.246094"/>
      <use xlink:href="#DejaVuSans-42" x="190.722656"/>
     </g>
    </g>
   </g>
  </g>
 </g>
 <defs>
  <clipPath id="p4163d8602f">
   <rect x="57.6" y="41.472" width="357.12" height="266.112"/>
  </clipPath>
 </defs>
</svg>
