%FSLAX34Y34*%
%MOMM*%
%LNSMDMASK_BOTTOM*%
G71*
G01*
%ADD10R,2.500X1.500*%
%ADD11R,0.900X1.200*%
%ADD12R,0.600X2.200*%
%LPD*%
X202612Y837200D02*
G54D10*
D03*
X202612Y856250D02*
G54D10*
D03*
X202612Y875300D02*
G54D10*
D03*
X202612Y894350D02*
G54D10*
D03*
X202612Y913400D02*
G54D10*
D03*
X202612Y951500D02*
G54D10*
D03*
X202612Y970550D02*
G54D10*
D03*
X202612Y932450D02*
G54D10*
D03*
X221256Y837041D02*
G54D11*
D03*
X244256Y837041D02*
G54D11*
D03*
X232756Y837041D02*
G54D12*
D03*
X221256Y856091D02*
G54D11*
D03*
X244256Y856091D02*
G54D11*
D03*
X232756Y856091D02*
G54D12*
D03*
X221256Y875141D02*
G54D11*
D03*
X244256Y875141D02*
G54D11*
D03*
X232756Y875141D02*
G54D12*
D03*
X221256Y894191D02*
G54D11*
D03*
X244256Y894191D02*
G54D11*
D03*
X232756Y894191D02*
G54D12*
D03*
X221256Y913241D02*
G54D11*
D03*
X244256Y913241D02*
G54D11*
D03*
X232756Y913241D02*
G54D12*
D03*
X221256Y932291D02*
G54D11*
D03*
X244256Y932291D02*
G54D11*
D03*
X232756Y932291D02*
G54D12*
D03*
X221256Y951658D02*
G54D11*
D03*
X244256Y951658D02*
G54D11*
D03*
X232756Y951658D02*
G54D12*
D03*
M02*
