%FSLAX34Y34*%
%MOMM*%
%LNSOLDERMASK_BOTTOM*%
G71*
G01*
%ADD10R,2.700X1.700*%
%ADD11C,1.200*%
%ADD12R,1.100X1.400*%
%ADD13R,0.800X2.400*%
%ADD14C,1.200*%
%LPD*%
X202612Y837200D02*
G54D10*
D03*
X202612Y856250D02*
G54D10*
D03*
X202612Y875300D02*
G54D10*
D03*
X202612Y894350D02*
G54D10*
D03*
X202612Y913400D02*
G54D10*
D03*
X202612Y951500D02*
G54D10*
D03*
X202612Y970550D02*
G54D10*
D03*
X202612Y932450D02*
G54D10*
D03*
X313419Y894995D02*
G54D11*
D03*
X319419Y894995D02*
G54D11*
D03*
X325419Y894995D02*
G54D11*
D03*
X331419Y894995D02*
G54D11*
D03*
X313419Y888995D02*
G54D11*
D03*
X319419Y888995D02*
G54D11*
D03*
X325419Y888995D02*
G54D11*
D03*
X331419Y888995D02*
G54D11*
D03*
X313419Y882995D02*
G54D11*
D03*
X319419Y882995D02*
G54D11*
D03*
X325419Y882995D02*
G54D11*
D03*
X331419Y882995D02*
G54D11*
D03*
X313419Y876995D02*
G54D11*
D03*
X319419Y876995D02*
G54D11*
D03*
X325419Y876995D02*
G54D11*
D03*
X331419Y876995D02*
G54D11*
D03*
X221256Y837041D02*
G54D12*
D03*
X244256Y837041D02*
G54D12*
D03*
X232756Y837041D02*
G54D13*
D03*
X221256Y856091D02*
G54D12*
D03*
X244256Y856091D02*
G54D12*
D03*
X232756Y856091D02*
G54D13*
D03*
X221256Y875141D02*
G54D12*
D03*
X244256Y875141D02*
G54D12*
D03*
X232756Y875141D02*
G54D13*
D03*
X221256Y894191D02*
G54D12*
D03*
X244256Y894191D02*
G54D12*
D03*
X232756Y894191D02*
G54D13*
D03*
X221256Y913241D02*
G54D12*
D03*
X244256Y913241D02*
G54D12*
D03*
X232756Y913241D02*
G54D13*
D03*
X221256Y932291D02*
G54D12*
D03*
X244256Y932291D02*
G54D12*
D03*
X232756Y932291D02*
G54D13*
D03*
X221256Y951658D02*
G54D12*
D03*
X244256Y951658D02*
G54D12*
D03*
X232756Y951658D02*
G54D13*
D03*
G54D14*
X6000Y804000D02*
X596000Y804000D01*
G36*
X6000Y810000D02*
X6000Y798000D01*
X0Y798000D01*
X0Y810000D01*
X6000Y810000D01*
G37*
G36*
X596000Y798000D02*
X596000Y810000D01*
X602000Y810000D01*
X602000Y798000D01*
X596000Y798000D01*
G37*
G54D14*
X6000Y994000D02*
X256000Y994000D01*
G36*
X6000Y1000000D02*
X6000Y988000D01*
X0Y988000D01*
X0Y1000000D01*
X6000Y1000000D01*
G37*
G36*
X256000Y988000D02*
X256000Y1000000D01*
X262000Y1000000D01*
X262000Y988000D01*
X256000Y988000D01*
G37*
G54D14*
X297000Y994000D02*
X596000Y994000D01*
G36*
X297000Y1000000D02*
X297000Y988000D01*
X291000Y988000D01*
X291000Y1000000D01*
X297000Y1000000D01*
G37*
G36*
X596000Y988000D02*
X596000Y1000000D01*
X602000Y1000000D01*
X602000Y988000D01*
X596000Y988000D01*
G37*
G54D14*
X6000Y984000D02*
X6000Y814000D01*
G36*
X12000Y984000D02*
X0Y984000D01*
X1Y990000D01*
X12001Y990000D01*
X12000Y984000D01*
G37*
G36*
X0Y814000D02*
X12000Y814000D01*
X12000Y808000D01*
X0Y808000D01*
X0Y814000D01*
G37*
G54D14*
X596000Y985000D02*
X596000Y920000D01*
G36*
X602000Y985000D02*
X590000Y985000D01*
X590000Y991000D01*
X602000Y991000D01*
X602000Y985000D01*
G37*
G36*
X590000Y920000D02*
X602000Y920000D01*
X602000Y914000D01*
X590000Y914000D01*
X590000Y920000D01*
G37*
G54D14*
X596000Y878000D02*
X596000Y804000D01*
G36*
X602000Y878000D02*
X590000Y878000D01*
X590000Y884000D01*
X602000Y884000D01*
X602000Y878000D01*
G37*
G36*
X590000Y804000D02*
X602000Y804000D01*
X602000Y798000D01*
X590000Y798000D01*
X590000Y804000D01*
G37*
G36*
X551000Y941500D02*
X601000Y941500D01*
X601000Y856500D01*
X551000Y856500D01*
X551000Y941500D01*
G37*
G54D14*
X256000Y994000D02*
X297000Y994000D01*
G36*
X293000Y969000D02*
X260000Y969000D01*
X260000Y999000D01*
X293000Y999000D01*
X293000Y969000D01*
G37*
G54D14*
X596006Y917651D02*
X596006Y880221D01*
X595964Y880221D01*
M02*
