<?xml version="1.0" encoding="utf-8" standalone="no"?>
<!DOCTYPE svg PUBLIC "-//W3C//DTD SVG 1.1//EN"
  "http://www.w3.org/Graphics/SVG/1.1/DTD/svg11.dtd">
<svg xmlns:xlink="http://www.w3.org/1999/xlink" width="460.8pt" height="345.6pt" viewBox="0 0 460.8 345.6" xmlns="http://www.w3.org/2000/svg" version="1.1">
 <metadata>
  <rdf:RDF xmlns:dc="http://purl.org/dc/elements/1.1/" xmlns:cc="http://creativecommons.org/ns#" xmlns:rdf="http://www.w3.org/1999/02/22-rdf-syntax-ns#">
   <cc:Work>
    <dc:type rdf:resource="http://purl.org/dc/dcmitype/StillImage"/>
    <dc:date>2022-11-27T12:51:46.941127</dc:date>
    <dc:format>image/svg+xml</dc:format>
    <dc:creator>
     <cc:Agent>
      <dc:title>Matplotlib v3.5.1, https://matplotlib.org/</dc:title>
     </cc:Agent>
    </dc:creator>
   </cc:Work>
  </rdf:RDF>
 </metadata>
 <defs>
  <style type="text/css">*{stroke-linejoin: round; stroke-linecap: butt}</style>
 </defs>
 <g id="figure_1">
  <g id="patch_1">
   <path d="M 0 345.6 
L 460.8 345.6 
L 460.8 0 
L 0 0 
z
" style="fill: #ffffff"/>
  </g>
  <g id="axes_1">
   <g id="patch_2">
    <path d="M 57.6 307.584 
L 414.72 307.584 
L 414.72 41.472 
L 57.6 41.472 
z
" style="fill: #ffffff"/>
   </g>
   <g id="matplotlib.axis_1">
    <g id="xtick_1">
     <g id="line2d_1">
      <path d="M 57.6 307.584 
L 57.6 41.472 
" clip-path="url(#p0be0669a98)" style="fill: none; stroke: #b0b0b0; stroke-width: 0.8; stroke-linecap: square"/>
     </g>
     <g id="line2d_2">
      <defs>
       <path id="m1a927945c3" d="M 0 0 
L 0 3.5 
" style="stroke: #000000; stroke-width: 0.8"/>
      </defs>
      <g>
       <use xlink:href="#m1a927945c3" x="57.6" y="307.584" style="stroke: #000000; stroke-width: 0.8"/>
      </g>
     </g>
     <g id="text_1">
      <!-- 2 -->
      <g transform="translate(54.41875 322.182437)scale(0.1 -0.1)">
       <defs>
        <path id="DejaVuSans-32" d="M 1228 531 
L 3431 531 
L 3431 0 
L 469 0 
L 469 531 
Q 828 903 1448 1529 
Q 2069 2156 2228 2338 
Q 2531 2678 2651 2914 
Q 2772 3150 2772 3378 
Q 2772 3750 2511 3984 
Q 2250 4219 1831 4219 
Q 1534 4219 1204 4116 
Q 875 4013 500 3803 
L 500 4441 
Q 881 4594 1212 4672 
Q 1544 4750 1819 4750 
Q 2544 4750 2975 4387 
Q 3406 4025 3406 3419 
Q 3406 3131 3298 2873 
Q 3191 2616 2906 2266 
Q 2828 2175 2409 1742 
Q 1991 1309 1228 531 
z
" transform="scale(0.015625)"/>
       </defs>
       <use xlink:href="#DejaVuSans-32"/>
      </g>
     </g>
    </g>
    <g id="xtick_2">
     <g id="line2d_3">
      <path d="M 102.24 307.584 
L 102.24 41.472 
" clip-path="url(#p0be0669a98)" style="fill: none; stroke: #b0b0b0; stroke-width: 0.8; stroke-linecap: square"/>
     </g>
     <g id="line2d_4">
      <g>
       <use xlink:href="#m1a927945c3" x="102.24" y="307.584" style="stroke: #000000; stroke-width: 0.8"/>
      </g>
     </g>
     <g id="text_2">
      <!-- 3 -->
      <g transform="translate(99.05875 322.182437)scale(0.1 -0.1)">
       <defs>
        <path id="DejaVuSans-33" d="M 2597 2516 
Q 3050 2419 3304 2112 
Q 3559 1806 3559 1356 
Q 3559 666 3084 287 
Q 2609 -91 1734 -91 
Q 1441 -91 1130 -33 
Q 819 25 488 141 
L 488 750 
Q 750 597 1062 519 
Q 1375 441 1716 441 
Q 2309 441 2620 675 
Q 2931 909 2931 1356 
Q 2931 1769 2642 2001 
Q 2353 2234 1838 2234 
L 1294 2234 
L 1294 2753 
L 1863 2753 
Q 2328 2753 2575 2939 
Q 2822 3125 2822 3475 
Q 2822 3834 2567 4026 
Q 2313 4219 1838 4219 
Q 1578 4219 1281 4162 
Q 984 4106 628 3988 
L 628 4550 
Q 988 4650 1302 4700 
Q 1616 4750 1894 4750 
Q 2613 4750 3031 4423 
Q 3450 4097 3450 3541 
Q 3450 3153 3228 2886 
Q 3006 2619 2597 2516 
z
" transform="scale(0.015625)"/>
       </defs>
       <use xlink:href="#DejaVuSans-33"/>
      </g>
     </g>
    </g>
    <g id="xtick_3">
     <g id="line2d_5">
      <path d="M 146.88 307.584 
L 146.88 41.472 
" clip-path="url(#p0be0669a98)" style="fill: none; stroke: #b0b0b0; stroke-width: 0.8; stroke-linecap: square"/>
     </g>
     <g id="line2d_6">
      <g>
       <use xlink:href="#m1a927945c3" x="146.88" y="307.584" style="stroke: #000000; stroke-width: 0.8"/>
      </g>
     </g>
     <g id="text_3">
      <!-- 4 -->
      <g transform="translate(143.69875 322.182437)scale(0.1 -0.1)">
       <defs>
        <path id="DejaVuSans-34" d="M 2419 4116 
L 825 1625 
L 2419 1625 
L 2419 4116 
z
M 2253 4666 
L 3047 4666 
L 3047 1625 
L 3713 1625 
L 3713 1100 
L 3047 1100 
L 3047 0 
L 2419 0 
L 2419 1100 
L 313 1100 
L 313 1709 
L 2253 4666 
z
" transform="scale(0.015625)"/>
       </defs>
       <use xlink:href="#DejaVuSans-34"/>
      </g>
     </g>
    </g>
    <g id="xtick_4">
     <g id="line2d_7">
      <path d="M 191.52 307.584 
L 191.52 41.472 
" clip-path="url(#p0be0669a98)" style="fill: none; stroke: #b0b0b0; stroke-width: 0.8; stroke-linecap: square"/>
     </g>
     <g id="line2d_8">
      <g>
       <use xlink:href="#m1a927945c3" x="191.52" y="307.584" style="stroke: #000000; stroke-width: 0.8"/>
      </g>
     </g>
     <g id="text_4">
      <!-- 5 -->
      <g transform="translate(188.33875 322.182437)scale(0.1 -0.1)">
       <defs>
        <path id="DejaVuSans-35" d="M 691 4666 
L 3169 4666 
L 3169 4134 
L 1269 4134 
L 1269 2991 
Q 1406 3038 1543 3061 
Q 1681 3084 1819 3084 
Q 2600 3084 3056 2656 
Q 3513 2228 3513 1497 
Q 3513 744 3044 326 
Q 2575 -91 1722 -91 
Q 1428 -91 1123 -41 
Q 819 9 494 109 
L 494 744 
Q 775 591 1075 516 
Q 1375 441 1709 441 
Q 2250 441 2565 725 
Q 2881 1009 2881 1497 
Q 2881 1984 2565 2268 
Q 2250 2553 1709 2553 
Q 1456 2553 1204 2497 
Q 953 2441 691 2322 
L 691 4666 
z
" transform="scale(0.015625)"/>
       </defs>
       <use xlink:href="#DejaVuSans-35"/>
      </g>
     </g>
    </g>
    <g id="xtick_5">
     <g id="line2d_9">
      <path d="M 236.16 307.584 
L 236.16 41.472 
" clip-path="url(#p0be0669a98)" style="fill: none; stroke: #b0b0b0; stroke-width: 0.8; stroke-linecap: square"/>
     </g>
     <g id="line2d_10">
      <g>
       <use xlink:href="#m1a927945c3" x="236.16" y="307.584" style="stroke: #000000; stroke-width: 0.8"/>
      </g>
     </g>
     <g id="text_5">
      <!-- 6 -->
      <g transform="translate(232.97875 322.182437)scale(0.1 -0.1)">
       <defs>
        <path id="DejaVuSans-36" d="M 2113 2584 
Q 1688 2584 1439 2293 
Q 1191 2003 1191 1497 
Q 1191 994 1439 701 
Q 1688 409 2113 409 
Q 2538 409 2786 701 
Q 3034 994 3034 1497 
Q 3034 2003 2786 2293 
Q 2538 2584 2113 2584 
z
M 3366 4563 
L 3366 3988 
Q 3128 4100 2886 4159 
Q 2644 4219 2406 4219 
Q 1781 4219 1451 3797 
Q 1122 3375 1075 2522 
Q 1259 2794 1537 2939 
Q 1816 3084 2150 3084 
Q 2853 3084 3261 2657 
Q 3669 2231 3669 1497 
Q 3669 778 3244 343 
Q 2819 -91 2113 -91 
Q 1303 -91 875 529 
Q 447 1150 447 2328 
Q 447 3434 972 4092 
Q 1497 4750 2381 4750 
Q 2619 4750 2861 4703 
Q 3103 4656 3366 4563 
z
" transform="scale(0.015625)"/>
       </defs>
       <use xlink:href="#DejaVuSans-36"/>
      </g>
     </g>
    </g>
    <g id="xtick_6">
     <g id="line2d_11">
      <path d="M 280.8 307.584 
L 280.8 41.472 
" clip-path="url(#p0be0669a98)" style="fill: none; stroke: #b0b0b0; stroke-width: 0.8; stroke-linecap: square"/>
     </g>
     <g id="line2d_12">
      <g>
       <use xlink:href="#m1a927945c3" x="280.8" y="307.584" style="stroke: #000000; stroke-width: 0.8"/>
      </g>
     </g>
     <g id="text_6">
      <!-- 7 -->
      <g transform="translate(277.61875 322.182437)scale(0.1 -0.1)">
       <defs>
        <path id="DejaVuSans-37" d="M 525 4666 
L 3525 4666 
L 3525 4397 
L 1831 0 
L 1172 0 
L 2766 4134 
L 525 4134 
L 525 4666 
z
" transform="scale(0.015625)"/>
       </defs>
       <use xlink:href="#DejaVuSans-37"/>
      </g>
     </g>
    </g>
    <g id="xtick_7">
     <g id="line2d_13">
      <path d="M 325.44 307.584 
L 325.44 41.472 
" clip-path="url(#p0be0669a98)" style="fill: none; stroke: #b0b0b0; stroke-width: 0.8; stroke-linecap: square"/>
     </g>
     <g id="line2d_14">
      <g>
       <use xlink:href="#m1a927945c3" x="325.44" y="307.584" style="stroke: #000000; stroke-width: 0.8"/>
      </g>
     </g>
     <g id="text_7">
      <!-- 8 -->
      <g transform="translate(322.25875 322.182437)scale(0.1 -0.1)">
       <defs>
        <path id="DejaVuSans-38" d="M 2034 2216 
Q 1584 2216 1326 1975 
Q 1069 1734 1069 1313 
Q 1069 891 1326 650 
Q 1584 409 2034 409 
Q 2484 409 2743 651 
Q 3003 894 3003 1313 
Q 3003 1734 2745 1975 
Q 2488 2216 2034 2216 
z
M 1403 2484 
Q 997 2584 770 2862 
Q 544 3141 544 3541 
Q 544 4100 942 4425 
Q 1341 4750 2034 4750 
Q 2731 4750 3128 4425 
Q 3525 4100 3525 3541 
Q 3525 3141 3298 2862 
Q 3072 2584 2669 2484 
Q 3125 2378 3379 2068 
Q 3634 1759 3634 1313 
Q 3634 634 3220 271 
Q 2806 -91 2034 -91 
Q 1263 -91 848 271 
Q 434 634 434 1313 
Q 434 1759 690 2068 
Q 947 2378 1403 2484 
z
M 1172 3481 
Q 1172 3119 1398 2916 
Q 1625 2713 2034 2713 
Q 2441 2713 2670 2916 
Q 2900 3119 2900 3481 
Q 2900 3844 2670 4047 
Q 2441 4250 2034 4250 
Q 1625 4250 1398 4047 
Q 1172 3844 1172 3481 
z
" transform="scale(0.015625)"/>
       </defs>
       <use xlink:href="#DejaVuSans-38"/>
      </g>
     </g>
    </g>
    <g id="xtick_8">
     <g id="line2d_15">
      <path d="M 370.08 307.584 
L 370.08 41.472 
" clip-path="url(#p0be0669a98)" style="fill: none; stroke: #b0b0b0; stroke-width: 0.8; stroke-linecap: square"/>
     </g>
     <g id="line2d_16">
      <g>
       <use xlink:href="#m1a927945c3" x="370.08" y="307.584" style="stroke: #000000; stroke-width: 0.8"/>
      </g>
     </g>
     <g id="text_8">
      <!-- 9 -->
      <g transform="translate(366.89875 322.182437)scale(0.1 -0.1)">
       <defs>
        <path id="DejaVuSans-39" d="M 703 97 
L 703 672 
Q 941 559 1184 500 
Q 1428 441 1663 441 
Q 2288 441 2617 861 
Q 2947 1281 2994 2138 
Q 2813 1869 2534 1725 
Q 2256 1581 1919 1581 
Q 1219 1581 811 2004 
Q 403 2428 403 3163 
Q 403 3881 828 4315 
Q 1253 4750 1959 4750 
Q 2769 4750 3195 4129 
Q 3622 3509 3622 2328 
Q 3622 1225 3098 567 
Q 2575 -91 1691 -91 
Q 1453 -91 1209 -44 
Q 966 3 703 97 
z
M 1959 2075 
Q 2384 2075 2632 2365 
Q 2881 2656 2881 3163 
Q 2881 3666 2632 3958 
Q 2384 4250 1959 4250 
Q 1534 4250 1286 3958 
Q 1038 3666 1038 3163 
Q 1038 2656 1286 2365 
Q 1534 2075 1959 2075 
z
" transform="scale(0.015625)"/>
       </defs>
       <use xlink:href="#DejaVuSans-39"/>
      </g>
     </g>
    </g>
    <g id="xtick_9">
     <g id="line2d_17">
      <path d="M 414.72 307.584 
L 414.72 41.472 
" clip-path="url(#p0be0669a98)" style="fill: none; stroke: #b0b0b0; stroke-width: 0.8; stroke-linecap: square"/>
     </g>
     <g id="line2d_18">
      <g>
       <use xlink:href="#m1a927945c3" x="414.72" y="307.584" style="stroke: #000000; stroke-width: 0.8"/>
      </g>
     </g>
     <g id="text_9">
      <!-- 10 -->
      <g transform="translate(408.3575 322.182437)scale(0.1 -0.1)">
       <defs>
        <path id="DejaVuSans-31" d="M 794 531 
L 1825 531 
L 1825 4091 
L 703 3866 
L 703 4441 
L 1819 4666 
L 2450 4666 
L 2450 531 
L 3481 531 
L 3481 0 
L 794 0 
L 794 531 
z
" transform="scale(0.015625)"/>
        <path id="DejaVuSans-30" d="M 2034 4250 
Q 1547 4250 1301 3770 
Q 1056 3291 1056 2328 
Q 1056 1369 1301 889 
Q 1547 409 2034 409 
Q 2525 409 2770 889 
Q 3016 1369 3016 2328 
Q 3016 3291 2770 3770 
Q 2525 4250 2034 4250 
z
M 2034 4750 
Q 2819 4750 3233 4129 
Q 3647 3509 3647 2328 
Q 3647 1150 3233 529 
Q 2819 -91 2034 -91 
Q 1250 -91 836 529 
Q 422 1150 422 2328 
Q 422 3509 836 4129 
Q 1250 4750 2034 4750 
z
" transform="scale(0.015625)"/>
       </defs>
       <use xlink:href="#DejaVuSans-31"/>
       <use xlink:href="#DejaVuSans-30" x="63.623047"/>
      </g>
     </g>
    </g>
    <g id="text_10">
     <!-- Frekvenca [GHz] -->
     <g transform="translate(194.964687 335.860562)scale(0.1 -0.1)">
      <defs>
       <path id="DejaVuSans-46" d="M 628 4666 
L 3309 4666 
L 3309 4134 
L 1259 4134 
L 1259 2759 
L 3109 2759 
L 3109 2228 
L 1259 2228 
L 1259 0 
L 628 0 
L 628 4666 
z
" transform="scale(0.015625)"/>
       <path id="DejaVuSans-72" d="M 2631 2963 
Q 2534 3019 2420 3045 
Q 2306 3072 2169 3072 
Q 1681 3072 1420 2755 
Q 1159 2438 1159 1844 
L 1159 0 
L 581 0 
L 581 3500 
L 1159 3500 
L 1159 2956 
Q 1341 3275 1631 3429 
Q 1922 3584 2338 3584 
Q 2397 3584 2469 3576 
Q 2541 3569 2628 3553 
L 2631 2963 
z
" transform="scale(0.015625)"/>
       <path id="DejaVuSans-65" d="M 3597 1894 
L 3597 1613 
L 953 1613 
Q 991 1019 1311 708 
Q 1631 397 2203 397 
Q 2534 397 2845 478 
Q 3156 559 3463 722 
L 3463 178 
Q 3153 47 2828 -22 
Q 2503 -91 2169 -91 
Q 1331 -91 842 396 
Q 353 884 353 1716 
Q 353 2575 817 3079 
Q 1281 3584 2069 3584 
Q 2775 3584 3186 3129 
Q 3597 2675 3597 1894 
z
M 3022 2063 
Q 3016 2534 2758 2815 
Q 2500 3097 2075 3097 
Q 1594 3097 1305 2825 
Q 1016 2553 972 2059 
L 3022 2063 
z
" transform="scale(0.015625)"/>
       <path id="DejaVuSans-6b" d="M 581 4863 
L 1159 4863 
L 1159 1991 
L 2875 3500 
L 3609 3500 
L 1753 1863 
L 3688 0 
L 2938 0 
L 1159 1709 
L 1159 0 
L 581 0 
L 581 4863 
z
" transform="scale(0.015625)"/>
       <path id="DejaVuSans-76" d="M 191 3500 
L 800 3500 
L 1894 563 
L 2988 3500 
L 3597 3500 
L 2284 0 
L 1503 0 
L 191 3500 
z
" transform="scale(0.015625)"/>
       <path id="DejaVuSans-6e" d="M 3513 2113 
L 3513 0 
L 2938 0 
L 2938 2094 
Q 2938 2591 2744 2837 
Q 2550 3084 2163 3084 
Q 1697 3084 1428 2787 
Q 1159 2491 1159 1978 
L 1159 0 
L 581 0 
L 581 3500 
L 1159 3500 
L 1159 2956 
Q 1366 3272 1645 3428 
Q 1925 3584 2291 3584 
Q 2894 3584 3203 3211 
Q 3513 2838 3513 2113 
z
" transform="scale(0.015625)"/>
       <path id="DejaVuSans-63" d="M 3122 3366 
L 3122 2828 
Q 2878 2963 2633 3030 
Q 2388 3097 2138 3097 
Q 1578 3097 1268 2742 
Q 959 2388 959 1747 
Q 959 1106 1268 751 
Q 1578 397 2138 397 
Q 2388 397 2633 464 
Q 2878 531 3122 666 
L 3122 134 
Q 2881 22 2623 -34 
Q 2366 -91 2075 -91 
Q 1284 -91 818 406 
Q 353 903 353 1747 
Q 353 2603 823 3093 
Q 1294 3584 2113 3584 
Q 2378 3584 2631 3529 
Q 2884 3475 3122 3366 
z
" transform="scale(0.015625)"/>
       <path id="DejaVuSans-61" d="M 2194 1759 
Q 1497 1759 1228 1600 
Q 959 1441 959 1056 
Q 959 750 1161 570 
Q 1363 391 1709 391 
Q 2188 391 2477 730 
Q 2766 1069 2766 1631 
L 2766 1759 
L 2194 1759 
z
M 3341 1997 
L 3341 0 
L 2766 0 
L 2766 531 
Q 2569 213 2275 61 
Q 1981 -91 1556 -91 
Q 1019 -91 701 211 
Q 384 513 384 1019 
Q 384 1609 779 1909 
Q 1175 2209 1959 2209 
L 2766 2209 
L 2766 2266 
Q 2766 2663 2505 2880 
Q 2244 3097 1772 3097 
Q 1472 3097 1187 3025 
Q 903 2953 641 2809 
L 641 3341 
Q 956 3463 1253 3523 
Q 1550 3584 1831 3584 
Q 2591 3584 2966 3190 
Q 3341 2797 3341 1997 
z
" transform="scale(0.015625)"/>
       <path id="DejaVuSans-20" transform="scale(0.015625)"/>
       <path id="DejaVuSans-5b" d="M 550 4863 
L 1875 4863 
L 1875 4416 
L 1125 4416 
L 1125 -397 
L 1875 -397 
L 1875 -844 
L 550 -844 
L 550 4863 
z
" transform="scale(0.015625)"/>
       <path id="DejaVuSans-47" d="M 3809 666 
L 3809 1919 
L 2778 1919 
L 2778 2438 
L 4434 2438 
L 4434 434 
Q 4069 175 3628 42 
Q 3188 -91 2688 -91 
Q 1594 -91 976 548 
Q 359 1188 359 2328 
Q 359 3472 976 4111 
Q 1594 4750 2688 4750 
Q 3144 4750 3555 4637 
Q 3966 4525 4313 4306 
L 4313 3634 
Q 3963 3931 3569 4081 
Q 3175 4231 2741 4231 
Q 1884 4231 1454 3753 
Q 1025 3275 1025 2328 
Q 1025 1384 1454 906 
Q 1884 428 2741 428 
Q 3075 428 3337 486 
Q 3600 544 3809 666 
z
" transform="scale(0.015625)"/>
       <path id="DejaVuSans-48" d="M 628 4666 
L 1259 4666 
L 1259 2753 
L 3553 2753 
L 3553 4666 
L 4184 4666 
L 4184 0 
L 3553 0 
L 3553 2222 
L 1259 2222 
L 1259 0 
L 628 0 
L 628 4666 
z
" transform="scale(0.015625)"/>
       <path id="DejaVuSans-7a" d="M 353 3500 
L 3084 3500 
L 3084 2975 
L 922 459 
L 3084 459 
L 3084 0 
L 275 0 
L 275 525 
L 2438 3041 
L 353 3041 
L 353 3500 
z
" transform="scale(0.015625)"/>
       <path id="DejaVuSans-5d" d="M 1947 4863 
L 1947 -844 
L 622 -844 
L 622 -397 
L 1369 -397 
L 1369 4416 
L 622 4416 
L 622 4863 
L 1947 4863 
z
" transform="scale(0.015625)"/>
      </defs>
      <use xlink:href="#DejaVuSans-46"/>
      <use xlink:href="#DejaVuSans-72" x="50.269531"/>
      <use xlink:href="#DejaVuSans-65" x="89.132812"/>
      <use xlink:href="#DejaVuSans-6b" x="150.65625"/>
      <use xlink:href="#DejaVuSans-76" x="208.566406"/>
      <use xlink:href="#DejaVuSans-65" x="267.746094"/>
      <use xlink:href="#DejaVuSans-6e" x="329.269531"/>
      <use xlink:href="#DejaVuSans-63" x="392.648438"/>
      <use xlink:href="#DejaVuSans-61" x="447.628906"/>
      <use xlink:href="#DejaVuSans-20" x="508.908203"/>
      <use xlink:href="#DejaVuSans-5b" x="540.695312"/>
      <use xlink:href="#DejaVuSans-47" x="579.708984"/>
      <use xlink:href="#DejaVuSans-48" x="657.199219"/>
      <use xlink:href="#DejaVuSans-7a" x="732.394531"/>
      <use xlink:href="#DejaVuSans-5d" x="784.884766"/>
     </g>
    </g>
   </g>
   <g id="matplotlib.axis_2">
    <g id="ytick_1">
     <g id="line2d_19">
      <path d="M 57.6 307.584 
L 414.72 307.584 
" clip-path="url(#p0be0669a98)" style="fill: none; stroke: #b0b0b0; stroke-width: 0.8; stroke-linecap: square"/>
     </g>
     <g id="line2d_20">
      <defs>
       <path id="m0d34823b2b" d="M 0 0 
L -3.5 0 
" style="stroke: #000000; stroke-width: 0.8"/>
      </defs>
      <g>
       <use xlink:href="#m0d34823b2b" x="57.6" y="307.584" style="stroke: #000000; stroke-width: 0.8"/>
      </g>
     </g>
     <g id="text_11">
      <!-- −30 -->
      <g transform="translate(29.495313 311.383219)scale(0.1 -0.1)">
       <defs>
        <path id="DejaVuSans-2212" d="M 678 2272 
L 4684 2272 
L 4684 1741 
L 678 1741 
L 678 2272 
z
" transform="scale(0.015625)"/>
       </defs>
       <use xlink:href="#DejaVuSans-2212"/>
       <use xlink:href="#DejaVuSans-33" x="83.789062"/>
       <use xlink:href="#DejaVuSans-30" x="147.412109"/>
      </g>
     </g>
    </g>
    <g id="ytick_2">
     <g id="line2d_21">
      <path d="M 57.6 254.3616 
L 414.72 254.3616 
" clip-path="url(#p0be0669a98)" style="fill: none; stroke: #b0b0b0; stroke-width: 0.8; stroke-linecap: square"/>
     </g>
     <g id="line2d_22">
      <g>
       <use xlink:href="#m0d34823b2b" x="57.6" y="254.3616" style="stroke: #000000; stroke-width: 0.8"/>
      </g>
     </g>
     <g id="text_12">
      <!-- −20 -->
      <g transform="translate(29.495313 258.160819)scale(0.1 -0.1)">
       <use xlink:href="#DejaVuSans-2212"/>
       <use xlink:href="#DejaVuSans-32" x="83.789062"/>
       <use xlink:href="#DejaVuSans-30" x="147.412109"/>
      </g>
     </g>
    </g>
    <g id="ytick_3">
     <g id="line2d_23">
      <path d="M 57.6 201.1392 
L 414.72 201.1392 
" clip-path="url(#p0be0669a98)" style="fill: none; stroke: #b0b0b0; stroke-width: 0.8; stroke-linecap: square"/>
     </g>
     <g id="line2d_24">
      <g>
       <use xlink:href="#m0d34823b2b" x="57.6" y="201.1392" style="stroke: #000000; stroke-width: 0.8"/>
      </g>
     </g>
     <g id="text_13">
      <!-- −10 -->
      <g transform="translate(29.495313 204.938419)scale(0.1 -0.1)">
       <use xlink:href="#DejaVuSans-2212"/>
       <use xlink:href="#DejaVuSans-31" x="83.789062"/>
       <use xlink:href="#DejaVuSans-30" x="147.412109"/>
      </g>
     </g>
    </g>
    <g id="ytick_4">
     <g id="line2d_25">
      <path d="M 57.6 147.9168 
L 414.72 147.9168 
" clip-path="url(#p0be0669a98)" style="fill: none; stroke: #b0b0b0; stroke-width: 0.8; stroke-linecap: square"/>
     </g>
     <g id="line2d_26">
      <g>
       <use xlink:href="#m0d34823b2b" x="57.6" y="147.9168" style="stroke: #000000; stroke-width: 0.8"/>
      </g>
     </g>
     <g id="text_14">
      <!-- 0 -->
      <g transform="translate(44.2375 151.716019)scale(0.1 -0.1)">
       <use xlink:href="#DejaVuSans-30"/>
      </g>
     </g>
    </g>
    <g id="ytick_5">
     <g id="line2d_27">
      <path d="M 57.6 94.6944 
L 414.72 94.6944 
" clip-path="url(#p0be0669a98)" style="fill: none; stroke: #b0b0b0; stroke-width: 0.8; stroke-linecap: square"/>
     </g>
     <g id="line2d_28">
      <g>
       <use xlink:href="#m0d34823b2b" x="57.6" y="94.6944" style="stroke: #000000; stroke-width: 0.8"/>
      </g>
     </g>
     <g id="text_15">
      <!-- 10 -->
      <g transform="translate(37.875 98.493619)scale(0.1 -0.1)">
       <use xlink:href="#DejaVuSans-31"/>
       <use xlink:href="#DejaVuSans-30" x="63.623047"/>
      </g>
     </g>
    </g>
    <g id="ytick_6">
     <g id="line2d_29">
      <path d="M 57.6 41.472 
L 414.72 41.472 
" clip-path="url(#p0be0669a98)" style="fill: none; stroke: #b0b0b0; stroke-width: 0.8; stroke-linecap: square"/>
     </g>
     <g id="line2d_30">
      <g>
       <use xlink:href="#m0d34823b2b" x="57.6" y="41.472" style="stroke: #000000; stroke-width: 0.8"/>
      </g>
     </g>
     <g id="text_16">
      <!-- 20 -->
      <g transform="translate(37.875 45.271219)scale(0.1 -0.1)">
       <use xlink:href="#DejaVuSans-32"/>
       <use xlink:href="#DejaVuSans-30" x="63.623047"/>
      </g>
     </g>
    </g>
    <g id="text_17">
     <!-- Amplituda [dB] -->
     <g transform="translate(23.415625 212.233469)rotate(-90)scale(0.1 -0.1)">
      <defs>
       <path id="DejaVuSans-41" d="M 2188 4044 
L 1331 1722 
L 3047 1722 
L 2188 4044 
z
M 1831 4666 
L 2547 4666 
L 4325 0 
L 3669 0 
L 3244 1197 
L 1141 1197 
L 716 0 
L 50 0 
L 1831 4666 
z
" transform="scale(0.015625)"/>
       <path id="DejaVuSans-6d" d="M 3328 2828 
Q 3544 3216 3844 3400 
Q 4144 3584 4550 3584 
Q 5097 3584 5394 3201 
Q 5691 2819 5691 2113 
L 5691 0 
L 5113 0 
L 5113 2094 
Q 5113 2597 4934 2840 
Q 4756 3084 4391 3084 
Q 3944 3084 3684 2787 
Q 3425 2491 3425 1978 
L 3425 0 
L 2847 0 
L 2847 2094 
Q 2847 2600 2669 2842 
Q 2491 3084 2119 3084 
Q 1678 3084 1418 2786 
Q 1159 2488 1159 1978 
L 1159 0 
L 581 0 
L 581 3500 
L 1159 3500 
L 1159 2956 
Q 1356 3278 1631 3431 
Q 1906 3584 2284 3584 
Q 2666 3584 2933 3390 
Q 3200 3197 3328 2828 
z
" transform="scale(0.015625)"/>
       <path id="DejaVuSans-70" d="M 1159 525 
L 1159 -1331 
L 581 -1331 
L 581 3500 
L 1159 3500 
L 1159 2969 
Q 1341 3281 1617 3432 
Q 1894 3584 2278 3584 
Q 2916 3584 3314 3078 
Q 3713 2572 3713 1747 
Q 3713 922 3314 415 
Q 2916 -91 2278 -91 
Q 1894 -91 1617 61 
Q 1341 213 1159 525 
z
M 3116 1747 
Q 3116 2381 2855 2742 
Q 2594 3103 2138 3103 
Q 1681 3103 1420 2742 
Q 1159 2381 1159 1747 
Q 1159 1113 1420 752 
Q 1681 391 2138 391 
Q 2594 391 2855 752 
Q 3116 1113 3116 1747 
z
" transform="scale(0.015625)"/>
       <path id="DejaVuSans-6c" d="M 603 4863 
L 1178 4863 
L 1178 0 
L 603 0 
L 603 4863 
z
" transform="scale(0.015625)"/>
       <path id="DejaVuSans-69" d="M 603 3500 
L 1178 3500 
L 1178 0 
L 603 0 
L 603 3500 
z
M 603 4863 
L 1178 4863 
L 1178 4134 
L 603 4134 
L 603 4863 
z
" transform="scale(0.015625)"/>
       <path id="DejaVuSans-74" d="M 1172 4494 
L 1172 3500 
L 2356 3500 
L 2356 3053 
L 1172 3053 
L 1172 1153 
Q 1172 725 1289 603 
Q 1406 481 1766 481 
L 2356 481 
L 2356 0 
L 1766 0 
Q 1100 0 847 248 
Q 594 497 594 1153 
L 594 3053 
L 172 3053 
L 172 3500 
L 594 3500 
L 594 4494 
L 1172 4494 
z
" transform="scale(0.015625)"/>
       <path id="DejaVuSans-75" d="M 544 1381 
L 544 3500 
L 1119 3500 
L 1119 1403 
Q 1119 906 1312 657 
Q 1506 409 1894 409 
Q 2359 409 2629 706 
Q 2900 1003 2900 1516 
L 2900 3500 
L 3475 3500 
L 3475 0 
L 2900 0 
L 2900 538 
Q 2691 219 2414 64 
Q 2138 -91 1772 -91 
Q 1169 -91 856 284 
Q 544 659 544 1381 
z
M 1991 3584 
L 1991 3584 
z
" transform="scale(0.015625)"/>
       <path id="DejaVuSans-64" d="M 2906 2969 
L 2906 4863 
L 3481 4863 
L 3481 0 
L 2906 0 
L 2906 525 
Q 2725 213 2448 61 
Q 2172 -91 1784 -91 
Q 1150 -91 751 415 
Q 353 922 353 1747 
Q 353 2572 751 3078 
Q 1150 3584 1784 3584 
Q 2172 3584 2448 3432 
Q 2725 3281 2906 2969 
z
M 947 1747 
Q 947 1113 1208 752 
Q 1469 391 1925 391 
Q 2381 391 2643 752 
Q 2906 1113 2906 1747 
Q 2906 2381 2643 2742 
Q 2381 3103 1925 3103 
Q 1469 3103 1208 2742 
Q 947 2381 947 1747 
z
" transform="scale(0.015625)"/>
       <path id="DejaVuSans-42" d="M 1259 2228 
L 1259 519 
L 2272 519 
Q 2781 519 3026 730 
Q 3272 941 3272 1375 
Q 3272 1813 3026 2020 
Q 2781 2228 2272 2228 
L 1259 2228 
z
M 1259 4147 
L 1259 2741 
L 2194 2741 
Q 2656 2741 2882 2914 
Q 3109 3088 3109 3444 
Q 3109 3797 2882 3972 
Q 2656 4147 2194 4147 
L 1259 4147 
z
M 628 4666 
L 2241 4666 
Q 2963 4666 3353 4366 
Q 3744 4066 3744 3513 
Q 3744 3084 3544 2831 
Q 3344 2578 2956 2516 
Q 3422 2416 3680 2098 
Q 3938 1781 3938 1306 
Q 3938 681 3513 340 
Q 3088 0 2303 0 
L 628 0 
L 628 4666 
z
" transform="scale(0.015625)"/>
      </defs>
      <use xlink:href="#DejaVuSans-41"/>
      <use xlink:href="#DejaVuSans-6d" x="68.408203"/>
      <use xlink:href="#DejaVuSans-70" x="165.820312"/>
      <use xlink:href="#DejaVuSans-6c" x="229.296875"/>
      <use xlink:href="#DejaVuSans-69" x="257.080078"/>
      <use xlink:href="#DejaVuSans-74" x="284.863281"/>
      <use xlink:href="#DejaVuSans-75" x="324.072266"/>
      <use xlink:href="#DejaVuSans-64" x="387.451172"/>
      <use xlink:href="#DejaVuSans-61" x="450.927734"/>
      <use xlink:href="#DejaVuSans-20" x="512.207031"/>
      <use xlink:href="#DejaVuSans-5b" x="543.994141"/>
      <use xlink:href="#DejaVuSans-64" x="583.007812"/>
      <use xlink:href="#DejaVuSans-42" x="646.484375"/>
      <use xlink:href="#DejaVuSans-5d" x="715.087891"/>
     </g>
    </g>
   </g>
   <g id="line2d_31">
    <path d="M -1 151.031435 
L -0.273816 151.166915 
L 2.402796 151.801453 
L 2.938119 151.779296 
L 3.473441 152.029343 
L 5.614732 152.282798 
L 7.756022 152.627921 
L 9.361989 152.603485 
L 10.967957 152.632536 
L 15.785859 152.707105 
L 16.856505 152.729699 
L 18.462472 152.890054 
L 19.533117 153.111013 
L 20.06844 153.069721 
L 20.603762 153.223305 
L 21.139085 153.156624 
L 21.674407 153.289821 
L 22.745052 153.375644 
L 23.815697 153.56855 
L 25.421665 154.034419 
L 33.451503 155.081798 
L 37.19876 155.644448 
L 37.734083 155.837816 
L 38.804728 155.874061 
L 41.481341 156.644251 
L 42.551986 157.140207 
L 46.299243 158.997156 
L 47.369888 159.590274 
L 48.440533 160.430636 
L 52.187791 163.16857 
L 53.793759 164.796433 
L 54.864404 165.61966 
L 55.399726 166.293836 
L 58.611661 168.615694 
L 60.752951 170.495506 
L 62.358919 171.61772 
L 63.429564 172.527977 
L 63.964886 172.781171 
L 66.106177 174.446308 
L 68.247467 176.039695 
L 69.318112 176.459438 
L 73.065369 178.239847 
L 74.136014 178.374357 
L 74.671337 178.546338 
L 77.883272 178.60933 
L 78.418595 178.748491 
L 80.024562 178.56851 
L 81.095207 178.095166 
L 83.77182 177.135774 
L 84.307142 177.179318 
L 85.91311 176.774889 
L 86.983755 176.33386 
L 88.0544 176.089193 
L 89.125045 175.944264 
L 89.660368 176.135755 
L 90.731013 176.321289 
L 91.801658 176.776332 
L 93.942948 177.548975 
L 95.013593 178.13976 
L 97.154883 180.396493 
L 97.690205 180.717029 
L 98.225528 181.393597 
L 100.902141 183.57682 
L 101.972786 184.732254 
L 103.578753 186.204765 
L 104.649398 186.868934 
L 105.184721 187.068863 
L 105.720043 187.411426 
L 106.255366 187.48426 
L 107.326011 188.040887 
L 110.002623 189.353087 
L 112.679236 190.248845 
L 113.214559 190.542783 
L 114.285204 191.42356 
L 115.355849 192.568151 
L 116.961816 194.328604 
L 118.032461 195.592551 
L 118.567784 196.330549 
L 120.709074 200.511177 
L 122.315041 204.209066 
L 123.385686 206.703564 
L 124.991654 210.682165 
L 127.132944 216.534711 
L 128.738912 219.827644 
L 129.809557 221.369435 
L 132.486169 224.010133 
L 133.021492 224.320569 
L 133.556814 224.391156 
L 134.092137 224.282673 
L 135.698105 223.016634 
L 136.233427 222.347462 
L 140.516007 219.694173 
L 141.05133 219.081657 
L 142.657297 217.848631 
L 143.727942 217.331667 
L 144.263265 217.223846 
L 144.798587 217.317765 
L 145.869232 217.325746 
L 146.404555 217.379002 
L 149.081168 216.827471 
L 150.151813 216.945993 
L 150.687135 217.146923 
L 152.293103 218.045151 
L 153.363748 218.009719 
L 153.89907 217.962257 
L 154.969715 217.453342 
L 157.646328 216.404087 
L 158.18165 215.927505 
L 159.252295 214.445098 
L 160.322941 212.301905 
L 161.393586 210.011691 
L 167.817456 198.696873 
L 168.352778 197.975684 
L 169.423423 197.198975 
L 171.564714 196.003591 
L 172.100036 195.595698 
L 172.635359 195.454239 
L 173.170681 195.186575 
L 173.706004 195.054703 
L 175.311971 195.644962 
L 177.453261 196.641716 
L 177.988584 196.709809 
L 179.059229 197.080017 
L 180.129874 197.295487 
L 180.665196 197.497252 
L 181.200519 197.450677 
L 182.271164 197.619985 
L 182.806486 197.387234 
L 184.412454 195.834838 
L 187.089067 192.775013 
L 190.836324 187.709105 
L 191.906969 186.546576 
L 193.512937 185.60718 
L 195.118905 185.293048 
L 196.18955 184.888431 
L 197.260195 184.828763 
L 198.33084 185.243814 
L 200.47213 187.099046 
L 201.007452 187.76422 
L 201.542775 188.204746 
L 202.61342 189.495143 
L 203.148742 189.959281 
L 205.290032 192.990247 
L 206.360677 194.695878 
L 207.431323 195.715722 
L 209.03729 196.40225 
L 210.643258 196.342221 
L 212.249225 195.376264 
L 212.784548 194.989167 
L 214.390515 192.992984 
L 214.925838 192.213941 
L 216.531805 190.675657 
L 219.743741 188.95125 
L 220.814386 188.790206 
L 221.349708 188.765191 
L 221.885031 188.90653 
L 223.490998 189.889006 
L 224.026321 190.45171 
L 225.096966 191.303558 
L 227.238256 193.239258 
L 228.844223 195.098877 
L 229.379546 195.903717 
L 230.450191 196.903186 
L 231.520836 197.353135 
L 233.126804 197.461296 
L 234.197449 197.421537 
L 234.732771 197.358563 
L 235.803416 196.874964 
L 236.338739 196.702441 
L 239.015351 194.042881 
L 239.550674 193.605334 
L 240.085996 193.382489 
L 243.833254 192.777681 
L 244.368577 192.876581 
L 245.439222 193.427155 
L 247.045189 195.401947 
L 251.327769 203.417959 
L 251.863092 204.57496 
L 253.469059 208.920124 
L 254.004382 210.258061 
L 255.075027 212.090422 
L 255.61035 212.7523 
L 256.145672 213.049579 
L 256.680995 213.100061 
L 257.75164 212.785432 
L 258.286962 212.57508 
L 258.822285 212.119469 
L 259.357607 211.49222 
L 259.89293 210.627791 
L 260.963575 208.189417 
L 263.104865 203.30719 
L 263.640187 202.334159 
L 266.852123 198.142376 
L 267.387445 197.587397 
L 267.922768 197.223448 
L 269.528735 196.838949 
L 270.59938 197.329544 
L 272.205348 198.533686 
L 272.74067 199.065267 
L 273.275993 199.323788 
L 274.88196 201.078449 
L 278.093895 206.090646 
L 278.629218 206.47617 
L 280.235186 207.168709 
L 281.305831 207.09477 
L 282.376476 207.038085 
L 283.447121 206.235864 
L 284.517766 204.764061 
L 285.588411 203.168282 
L 286.659056 201.780175 
L 287.729701 200.767734 
L 288.800346 200.03201 
L 289.870991 198.99765 
L 290.406314 198.634416 
L 290.941636 197.997613 
L 292.012281 197.466779 
L 292.547604 197.274107 
L 293.082926 197.434386 
L 293.618249 197.374452 
L 294.153571 197.509926 
L 294.688894 197.795072 
L 295.224216 197.683871 
L 295.759539 197.91505 
L 296.294861 197.938536 
L 296.830184 197.654552 
L 298.436151 197.919881 
L 298.971474 198.256029 
L 300.577441 198.689202 
L 301.112764 198.424126 
L 301.648086 198.292192 
L 302.183409 197.984582 
L 304.860022 195.800286 
L 305.395344 195.499914 
L 305.930667 194.871287 
L 306.465989 194.51111 
L 307.536634 193.22883 
L 308.607279 191.943867 
L 309.142602 191.31791 
L 309.677924 190.895259 
L 310.748569 190.450887 
L 311.283892 190.47919 
L 311.819214 190.369904 
L 312.354537 190.105402 
L 312.889859 190.082817 
L 313.960505 189.811883 
L 314.495827 189.740085 
L 316.101795 190.499257 
L 317.707762 191.734838 
L 318.243085 191.90445 
L 318.778407 192.528482 
L 319.849052 192.973791 
L 320.384375 193.06502 
L 321.990342 193.979352 
L 322.525665 194.465577 
L 323.59631 194.877694 
L 324.131632 195.2205 
L 324.666955 195.087466 
L 325.7376 194.475221 
L 327.87889 193.045732 
L 328.414213 192.899602 
L 330.555503 191.461262 
L 331.090825 190.955336 
L 332.696793 190.111629 
L 333.232115 190.118497 
L 334.30276 190.47825 
L 334.838083 190.985392 
L 335.908728 191.74968 
L 338.050018 193.528322 
L 339.655986 196.531628 
L 340.726631 198.944235 
L 342.332598 202.356159 
L 344.473888 206.101817 
L 346.615178 208.664167 
L 347.685823 208.624094 
L 348.756468 207.842544 
L 349.291791 206.768283 
L 349.827114 206.310318 
L 350.362436 205.521588 
L 351.433081 204.397973 
L 351.968404 204.261719 
L 353.039049 202.94804 
L 353.574371 202.44908 
L 354.109694 201.755698 
L 355.715661 200.59892 
L 356.250984 200.467002 
L 357.321629 201.350076 
L 357.856951 202.24596 
L 358.927596 203.619091 
L 361.068886 206.979612 
L 362.139532 209.519359 
L 362.674854 211.134699 
L 363.210177 212.148361 
L 363.745499 213.455784 
L 364.280822 214.021802 
L 364.816144 214.243968 
L 365.351467 214.146191 
L 365.886789 213.610592 
L 366.957434 211.958324 
L 368.028079 210.152651 
L 368.563402 209.119359 
L 369.634047 206.395564 
L 371.775337 200.520189 
L 372.310659 199.089517 
L 373.916627 196.506415 
L 375.522595 194.535803 
L 377.663885 192.215181 
L 378.199207 191.838508 
L 379.805175 191.604457 
L 380.340497 191.886847 
L 380.87582 191.892311 
L 381.411142 192.009795 
L 383.01711 191.622601 
L 384.623077 191.264032 
L 386.764368 190.726463 
L 387.29969 190.39612 
L 392.652915 184.023607 
L 394.258883 181.54958 
L 395.86485 180.02402 
L 396.935495 179.424903 
L 398.006141 179.071579 
L 399.612108 178.273837 
L 400.682753 177.69755 
L 401.753398 177.354747 
L 402.824043 177.21341 
L 403.359366 177.32339 
L 404.430011 177.196398 
L 404.965333 177.055522 
L 406.035978 176.400996 
L 407.106623 175.666988 
L 407.641946 175.39409 
L 408.712591 174.574301 
L 409.247914 174.249244 
L 410.853881 172.493733 
L 411.924526 171.224063 
L 412.459849 170.663797 
L 413.530494 169.239167 
L 414.601139 168.385414 
L 415.671784 167.767434 
L 416.742429 166.967163 
L 417.277751 166.352981 
L 417.813074 165.930123 
L 418.348396 165.693685 
L 418.883719 165.325931 
L 419.419041 165.211897 
L 419.954364 164.921934 
L 420.489686 165.413718 
L 421.025009 165.271567 
L 421.560332 165.382834 
L 422.095654 165.227241 
L 422.630977 165.519277 
L 423.701622 165.318038 
L 424.236944 165.665498 
L 424.772267 165.698958 
L 426.913557 166.971664 
L 427.448879 167.52933 
L 427.984202 167.789676 
L 428.519524 168.269921 
L 429.054847 168.21019 
L 430.125492 168.410919 
L 432.266782 168.783836 
L 433.87275 168.467964 
L 437.084685 166.601745 
L 438.15533 166.441791 
L 438.690652 166.51356 
L 439.225975 166.385953 
L 439.761297 166.665586 
L 440.29662 166.525442 
L 440.831942 166.526572 
L 442.43791 167.217966 
L 443.508555 168.476254 
L 444.043877 168.723745 
L 445.649845 170.925139 
L 446.72049 172.932105 
L 447.791135 174.572078 
L 448.326458 175.677226 
L 448.86178 176.484291 
L 449.397103 177.838685 
L 451.538393 181.346052 
L 452.073715 181.793152 
L 452.609038 181.929103 
L 453.14436 182.277489 
L 455.28565 182.550474 
L 457.426941 182.013291 
L 458.497586 181.680317 
L 459.032908 181.558505 
L 460.103553 181.774652 
L 460.638876 181.933863 
L 461.8 183.074972 
L 461.8 183.074972 
" clip-path="url(#p0be0669a98)" style="fill: none; stroke: #1f77b4; stroke-width: 1.5; stroke-linecap: square"/>
   </g>
   <g id="line2d_32">
    <path d="M -1 150.932281 
L -0.809139 150.908365 
L 0.796829 151.095788 
L 1.332151 151.053731 
L 2.938119 151.357441 
L 4.008764 151.379519 
L 4.544086 151.497851 
L 5.614732 151.452828 
L 6.150054 151.644442 
L 6.685377 151.609362 
L 11.503279 152.342275 
L 14.179892 152.698909 
L 16.321182 153.008046 
L 16.856505 152.984386 
L 17.92715 153.103159 
L 19.533117 153.041965 
L 22.745052 153.332736 
L 23.280375 153.237671 
L 23.815697 153.333986 
L 25.421665 153.322202 
L 26.49231 153.435877 
L 27.562955 153.636404 
L 31.310213 154.078335 
L 32.380858 154.436277 
L 32.91618 154.445307 
L 35.05747 155.311835 
L 35.592793 155.396304 
L 36.663438 155.786519 
L 37.19876 155.768938 
L 41.481341 157.94126 
L 42.016663 158.08606 
L 45.763921 160.153048 
L 50.046501 163.277375 
L 51.652468 165.147559 
L 53.258436 167.307067 
L 55.399726 171.146889 
L 56.470371 173.585939 
L 58.611661 179.674765 
L 60.217629 185.008896 
L 62.358919 193.120774 
L 63.964886 199.763319 
L 65.035532 203.704595 
L 66.106177 206.695626 
L 66.641499 207.76745 
L 67.176822 208.355503 
L 67.712144 208.487712 
L 68.782789 207.746395 
L 69.318112 206.990093 
L 70.388757 204.666245 
L 72.530047 199.244951 
L 75.206659 191.82818 
L 76.277305 189.117443 
L 77.34795 186.824003 
L 78.953917 183.772988 
L 80.024562 181.778812 
L 80.559885 180.594522 
L 82.701175 177.05843 
L 84.842465 174.204752 
L 85.91311 173.027013 
L 86.983755 171.660027 
L 87.519077 171.000327 
L 88.0544 170.54938 
L 88.589723 169.949759 
L 90.19569 168.83198 
L 91.801658 167.952127 
L 92.33698 167.917561 
L 92.872303 167.492695 
L 94.47827 166.938706 
L 96.084238 166.541235 
L 98.76085 166.708667 
L 99.296173 166.632635 
L 99.831495 166.679466 
L 100.366818 166.553352 
L 100.902141 166.695973 
L 101.437463 166.599676 
L 105.184721 167.261177 
L 106.790688 167.124415 
L 107.326011 167.228903 
L 107.861333 167.112698 
L 110.002623 167.397747 
L 112.143914 167.073918 
L 113.214559 166.856494 
L 113.749881 166.900691 
L 114.285204 166.762898 
L 118.032461 166.825231 
L 118.567784 166.695221 
L 119.103106 166.912093 
L 119.638429 166.808818 
L 122.850364 167.36759 
L 128.203589 168.941778 
L 129.274234 169.610571 
L 130.344879 169.976058 
L 130.880202 170.25311 
L 131.415524 170.370648 
L 133.021492 171.2254 
L 134.092137 171.74586 
L 134.627459 172.143575 
L 136.233427 172.792975 
L 137.839395 173.308864 
L 139.445362 173.605734 
L 140.516007 173.962497 
L 141.05133 174.158668 
L 142.657297 174.386864 
L 143.727942 174.203674 
L 144.798587 174.157297 
L 145.869232 174.124207 
L 148.010523 174.41043 
L 148.545845 174.554641 
L 150.687135 174.603007 
L 152.293103 174.940813 
L 154.434393 175.991689 
L 155.505038 176.588715 
L 156.575683 177.190287 
L 159.252295 179.264505 
L 160.858263 180.885619 
L 165.676166 184.870054 
L 167.817456 186.042597 
L 168.888101 186.2568 
L 173.170681 186.816058 
L 173.706004 186.673334 
L 174.241326 186.723446 
L 176.382616 186.347288 
L 177.453261 186.728848 
L 179.594551 187.744129 
L 181.735841 188.981895 
L 183.341809 190.472932 
L 185.483099 193.44314 
L 188.695034 198.210472 
L 192.977614 205.913269 
L 194.048259 207.242561 
L 194.583582 207.840128 
L 195.118905 208.179424 
L 195.654227 208.78041 
L 196.18955 209.157342 
L 196.724872 209.685992 
L 198.33084 210.12463 
L 198.866162 210.099162 
L 199.401485 209.920641 
L 201.007452 208.718307 
L 201.542775 208.364991 
L 203.684065 207.687964 
L 204.219387 207.583356 
L 204.75471 207.192011 
L 206.896 206.348541 
L 207.966645 206.555055 
L 209.03729 207.263739 
L 213.31987 210.962361 
L 214.925838 213.437339 
L 216.531805 216.340521 
L 217.60245 218.107216 
L 218.137773 218.630782 
L 219.208418 219.997546 
L 219.743741 220.266343 
L 221.885031 222.058491 
L 222.420353 222.38395 
L 223.490998 221.884537 
L 224.561643 220.868541 
L 227.238256 217.008209 
L 227.773578 216.220166 
L 228.308901 215.050025 
L 228.844223 214.327187 
L 229.914868 212.354232 
L 232.056159 208.948864 
L 236.338739 205.152865 
L 237.409384 204.296111 
L 237.944706 204.085399 
L 239.015351 203.455764 
L 240.085996 203.219232 
L 242.227286 202.447449 
L 242.762609 202.107947 
L 243.297932 202.033869 
L 243.833254 201.568447 
L 245.974544 200.672017 
L 247.580512 199.761772 
L 254.004382 194.198701 
L 255.075027 193.200551 
L 256.680995 192.124653 
L 259.357607 190.928376 
L 260.963575 190.226569 
L 261.498897 190.19526 
L 262.03422 189.931465 
L 263.640187 189.818165 
L 264.17551 189.9829 
L 265.781477 190.023017 
L 266.852123 189.938859 
L 268.45809 189.942782 
L 269.528735 189.951677 
L 270.59938 190.40126 
L 272.205348 190.64032 
L 275.417283 190.509032 
L 278.093895 190.261647 
L 278.629218 190.041831 
L 279.164541 189.698319 
L 279.699863 189.555167 
L 280.235186 189.145614 
L 280.770508 189.006072 
L 282.376476 188.218777 
L 282.911798 188.105676 
L 285.053088 187.040894 
L 285.588411 186.560246 
L 286.123733 186.398306 
L 287.729701 185.493333 
L 289.870991 185.04966 
L 290.941636 184.781807 
L 291.476959 184.411164 
L 292.012281 184.268827 
L 292.547604 184.248921 
L 293.082926 184.092279 
L 293.618249 184.193712 
L 294.153571 184.169827 
L 294.688894 184.399066 
L 295.224216 184.363251 
L 295.759539 184.725236 
L 297.365506 185.089737 
L 298.971474 185.942775 
L 299.506796 186.06538 
L 300.577441 187.240488 
L 302.183409 188.68279 
L 303.254054 189.689833 
L 303.789377 189.910996 
L 304.860022 190.699307 
L 305.395344 190.928166 
L 307.001312 192.025748 
L 307.536634 192.530564 
L 308.071957 192.752636 
L 308.607279 192.732716 
L 309.142602 192.588626 
L 309.677924 192.215792 
L 311.283892 191.443138 
L 311.819214 191.557528 
L 313.960505 190.092064 
L 314.495827 189.840006 
L 315.03115 189.372655 
L 315.566472 189.135312 
L 317.17244 187.881699 
L 317.707762 187.720272 
L 318.778407 187.070233 
L 319.849052 187.103587 
L 320.384375 187.06529 
L 320.919697 187.193655 
L 321.990342 187.26489 
L 323.060987 187.542265 
L 324.131632 188.199746 
L 324.666955 188.888307 
L 325.202277 189.300577 
L 327.343568 192.025445 
L 327.87889 192.329314 
L 328.414213 192.907803 
L 328.949535 193.20934 
L 329.484858 193.757099 
L 332.16147 194.779674 
L 332.696793 194.841789 
L 333.232115 194.429623 
L 336.44405 190.559975 
L 336.979373 189.682403 
L 337.514695 189.113918 
L 339.120663 186.673691 
L 339.655986 185.939269 
L 340.191308 184.922546 
L 341.797276 182.750076 
L 343.403243 181.633344 
L 345.009211 180.870895 
L 346.079856 180.551164 
L 346.615178 180.569811 
L 347.685823 180.950683 
L 348.756468 181.462033 
L 349.291791 182.051934 
L 349.827114 182.413681 
L 351.433081 183.908412 
L 353.039049 185.182795 
L 353.574371 185.481479 
L 354.109694 185.985875 
L 354.645016 186.276844 
L 355.180339 186.80181 
L 356.250984 186.801806 
L 357.321629 186.394101 
L 358.392274 185.348134 
L 361.068886 181.918387 
L 364.280822 176.896783 
L 365.886789 175.007617 
L 366.957434 174.029073 
L 368.028079 173.328179 
L 370.704692 172.572428 
L 371.240014 172.544064 
L 372.845982 173.28624 
L 373.916627 174.179713 
L 374.45195 174.436022 
L 374.987272 174.916573 
L 376.59324 175.973447 
L 377.128562 176.444577 
L 378.199207 177.164728 
L 380.340497 178.735656 
L 381.411142 179.021395 
L 381.946465 179.117975 
L 383.01711 178.930225 
L 383.552432 178.777782 
L 384.623077 178.697068 
L 386.764368 177.782271 
L 389.44098 176.142268 
L 389.976303 175.798143 
L 390.511625 175.632441 
L 391.046948 175.719999 
L 391.58227 175.587111 
L 394.258883 175.705655 
L 394.794205 176.122601 
L 395.86485 176.244633 
L 396.935495 177.164925 
L 397.470818 177.445051 
L 400.147431 179.991008 
L 400.682753 180.74339 
L 402.288721 182.274346 
L 404.430011 184.613576 
L 405.500656 185.487291 
L 406.035978 185.603898 
L 407.641946 185.536041 
L 408.177268 185.275654 
L 409.247914 184.961335 
L 409.783236 184.54032 
L 410.853881 184.003165 
L 411.924526 182.828287 
L 412.459849 182.398403 
L 413.530494 181.320958 
L 414.601139 180.367682 
L 416.207106 179.575431 
L 418.348396 179.100922 
L 419.954364 179.178218 
L 420.489686 179.334226 
L 422.095654 180.633201 
L 423.166299 181.75849 
L 423.701622 182.00292 
L 424.772267 183.018808 
L 426.378234 184.230824 
L 426.913557 185.078038 
L 427.448879 185.618398 
L 427.984202 185.741914 
L 428.519524 185.993117 
L 429.590169 186.081685 
L 430.125492 185.734452 
L 431.731459 183.990464 
L 432.802105 183.004464 
L 434.408072 181.058929 
L 435.478717 179.49318 
L 436.549362 178.090887 
L 437.620007 176.937151 
L 438.690652 176.120998 
L 441.902587 174.983191 
L 442.973232 174.786703 
L 444.5792 175.035145 
L 445.649845 175.570255 
L 448.86178 177.185759 
L 449.932425 177.876009 
L 451.00307 178.602578 
L 451.538393 179.002286 
L 452.073715 179.160992 
L 453.14436 179.722176 
L 453.679683 179.840577 
L 455.28565 179.630187 
L 456.356295 179.478753 
L 456.891618 179.189738 
L 457.426941 179.132632 
L 457.962263 179.226466 
L 458.497586 179.134939 
L 459.032908 178.783963 
L 459.568231 178.27696 
L 460.103553 178.058476 
L 460.638876 177.634092 
L 461.174198 177.574043 
L 461.8 176.986926 
L 461.8 176.986926 
" clip-path="url(#p0be0669a98)" style="fill: none; stroke: #ff7f0e; stroke-width: 1.5; stroke-linecap: square"/>
   </g>
   <g id="line2d_33">
    <path d="M -1 217.767884 
L -0.809139 217.612786 
L -0.273816 217.414676 
L 0.261506 216.838519 
L 1.867474 216.073832 
L 2.938119 215.532285 
L 3.473441 215.558161 
L 4.544086 215.195316 
L 5.079409 214.906628 
L 6.685377 214.975216 
L 7.220699 214.717033 
L 9.361989 214.924862 
L 10.432634 215.21076 
L 10.967957 214.992509 
L 13.109247 215.397016 
L 13.644569 215.487337 
L 14.715214 215.837583 
L 16.321182 216.147064 
L 16.856505 216.244909 
L 17.391827 216.519032 
L 17.92715 216.54329 
L 19.533117 217.00647 
L 20.06844 217.103203 
L 20.603762 217.318706 
L 22.20973 217.640693 
L 22.745052 217.923854 
L 23.280375 217.831519 
L 24.35102 218.253913 
L 24.886342 218.664834 
L 25.956987 219.096055 
L 26.49231 219.408106 
L 27.562955 219.707187 
L 28.6336 220.198008 
L 30.239568 220.614099 
L 30.77489 220.950187 
L 31.845535 221.235366 
L 32.380858 221.649391 
L 32.91618 221.618019 
L 33.986825 222.100904 
L 35.592793 222.601868 
L 36.128115 222.62633 
L 36.663438 222.797561 
L 37.19876 222.595371 
L 37.734083 222.693495 
L 39.875373 221.921301 
L 40.946018 220.947097 
L 42.551986 219.062049 
L 43.622631 217.175115 
L 44.693276 214.890077 
L 45.763921 211.989119 
L 46.834566 208.78728 
L 48.975856 200.483516 
L 50.581823 193.349213 
L 52.723114 182.299701 
L 59.146984 146.699713 
L 60.752951 139.203191 
L 61.823596 134.532541 
L 62.894241 130.183418 
L 65.035532 122.897519 
L 67.176822 117.018702 
L 68.782789 113.753111 
L 69.853434 111.918259 
L 71.459402 109.657902 
L 71.994724 109.242986 
L 73.600692 107.430831 
L 74.671337 106.825426 
L 75.741982 106.269831 
L 76.812627 105.548876 
L 77.883272 105.361407 
L 78.418595 105.511917 
L 80.024562 105.140815 
L 80.559885 105.207679 
L 81.63053 105.605557 
L 83.77182 105.743221 
L 84.307142 106.054141 
L 84.842465 106.100947 
L 85.91311 106.471718 
L 86.983755 106.575876 
L 88.0544 107.138792 
L 88.589723 107.267738 
L 89.125045 107.145471 
L 90.19569 107.40813 
L 90.731013 107.384417 
L 91.266335 107.695383 
L 91.801658 107.476969 
L 92.33698 107.673655 
L 93.407625 107.636633 
L 93.942948 107.75308 
L 96.61956 107.267118 
L 97.154883 107.24289 
L 97.690205 106.952859 
L 98.225528 107.018294 
L 98.76085 106.747543 
L 99.831495 106.72119 
L 101.972786 106.02363 
L 103.043431 105.958574 
L 105.184721 105.566484 
L 105.720043 105.667535 
L 106.790688 105.594604 
L 107.326011 105.702591 
L 108.396656 105.604882 
L 108.931978 105.862174 
L 110.537946 105.844463 
L 111.608591 106.108284 
L 113.749881 106.351302 
L 114.285204 106.280133 
L 114.820526 106.564405 
L 115.355849 106.474664 
L 115.891171 106.585658 
L 116.426494 106.347995 
L 116.961816 106.505768 
L 118.567784 106.201456 
L 119.103106 106.359766 
L 120.709074 105.900699 
L 121.244396 105.884696 
L 121.779719 105.695475 
L 122.315041 105.638074 
L 122.850364 105.370165 
L 123.385686 105.264733 
L 123.921009 105.018668 
L 125.526977 104.686762 
L 130.344879 103.049901 
L 134.627459 102.080312 
L 135.698105 102.032817 
L 136.233427 101.909214 
L 138.374717 102.03035 
L 138.91004 102.135325 
L 139.445362 102.016992 
L 141.586652 102.242846 
L 142.657297 102.429747 
L 146.939877 102.925309 
L 148.545845 102.880589 
L 149.61649 102.956438 
L 150.687135 102.832595 
L 152.828425 102.638231 
L 158.716973 101.196812 
L 160.322941 100.950099 
L 161.393586 100.69973 
L 164.070198 100.591071 
L 164.605521 100.666696 
L 165.676166 100.562597 
L 168.352778 100.605327 
L 168.888101 100.785517 
L 169.423423 100.752512 
L 169.958746 100.912574 
L 170.494068 100.815695 
L 171.564714 101.007407 
L 172.100036 100.861395 
L 172.635359 101.005958 
L 173.706004 100.820518 
L 174.241326 100.970038 
L 175.311971 100.949396 
L 175.847294 100.958655 
L 176.382616 100.757368 
L 176.917939 100.769993 
L 177.453261 100.571428 
L 179.059229 100.4386 
L 180.129874 100.173629 
L 181.735841 99.922961 
L 182.271164 99.991202 
L 183.341809 99.66924 
L 183.877132 99.695058 
L 184.412454 99.519191 
L 188.159712 99.217647 
L 189.765679 99.27948 
L 190.836324 99.267281 
L 191.906969 99.167203 
L 192.442292 99.312733 
L 192.977614 99.186432 
L 194.048259 99.241123 
L 195.654227 99.069999 
L 197.260195 98.903703 
L 197.795517 99.011049 
L 198.33084 98.81784 
L 199.936807 98.690492 
L 201.542775 98.190133 
L 204.219387 97.678743 
L 204.75471 97.41584 
L 205.825355 97.22488 
L 206.360677 97.178043 
L 207.431323 96.824021 
L 210.107935 96.427328 
L 210.643258 96.482711 
L 211.713903 96.329186 
L 213.855193 96.288485 
L 214.390515 96.24057 
L 214.925838 96.308968 
L 218.137773 96.042301 
L 218.673095 96.128726 
L 221.349708 95.727357 
L 224.561643 95.203166 
L 225.632288 95.190936 
L 228.308901 94.59425 
L 229.379546 94.662969 
L 229.914868 94.526976 
L 230.450191 94.578696 
L 230.985514 94.474186 
L 231.520836 94.518464 
L 232.056159 94.433972 
L 233.662126 94.49516 
L 235.268094 94.321231 
L 236.874061 94.474433 
L 237.944706 94.645157 
L 238.480029 94.39612 
L 239.015351 94.437974 
L 239.550674 94.321787 
L 241.691964 94.232457 
L 243.833254 93.909754 
L 253.469059 91.248195 
L 257.75164 90.68191 
L 258.822285 90.825088 
L 259.357607 90.728493 
L 260.963575 90.829119 
L 265.246155 90.964094 
L 268.993413 90.489732 
L 270.064058 90.094926 
L 271.134703 89.750708 
L 273.811315 88.851219 
L 274.88196 88.324118 
L 275.952605 87.980559 
L 278.629218 87.051797 
L 282.911798 86.593929 
L 283.982443 86.747809 
L 285.053088 86.773591 
L 288.800346 87.133299 
L 291.476959 86.961803 
L 292.012281 86.993326 
L 292.547604 86.872681 
L 293.082926 86.900757 
L 293.618249 86.774471 
L 294.153571 86.525803 
L 294.688894 86.560705 
L 295.224216 86.284453 
L 296.294861 86.04592 
L 296.830184 85.513476 
L 297.900829 85.147903 
L 298.436151 84.864495 
L 298.971474 84.789919 
L 300.042119 84.25043 
L 300.577441 84.115057 
L 301.648086 83.559359 
L 304.324699 82.700978 
L 308.607279 82.664724 
L 313.960505 83.296353 
L 314.495827 83.194398 
L 315.03115 83.281872 
L 316.101795 83.194266 
L 317.17244 83.173772 
L 318.243085 82.865795 
L 318.778407 82.921943 
L 319.849052 82.692786 
L 320.919697 82.159895 
L 322.525665 81.71993 
L 324.666955 81.066529 
L 325.7376 80.806597 
L 326.808245 80.566178 
L 327.343568 80.60697 
L 328.414213 80.401832 
L 328.949535 80.379834 
L 329.484858 80.519829 
L 330.555503 80.638742 
L 332.696793 81.05982 
L 334.30276 81.364766 
L 335.373405 81.690563 
L 336.44405 82.01745 
L 338.050018 82.31283 
L 339.120663 82.715194 
L 339.655986 82.722713 
L 343.403243 83.514653 
L 348.221146 84.115523 
L 349.291791 84.401099 
L 351.433081 84.582465 
L 351.968404 84.872362 
L 353.039049 85.102013 
L 354.645016 85.517672 
L 355.715661 85.777959 
L 356.250984 85.846935 
L 358.927596 87.028269 
L 359.998241 87.649523 
L 361.604209 88.497456 
L 364.280822 90.686351 
L 366.957434 93.413229 
L 369.634047 96.438984 
L 370.704692 97.341884 
L 371.775337 98.568057 
L 374.45195 100.830925 
L 377.128562 102.681426 
L 378.199207 103.238974 
L 379.269852 103.790381 
L 379.805175 104.016937 
L 380.87582 104.72656 
L 381.946465 105.474361 
L 383.01711 106.100258 
L 383.552432 106.666762 
L 385.693723 108.355017 
L 386.764368 109.632212 
L 389.44098 113.38038 
L 392.117593 117.592695 
L 392.652915 118.54737 
L 393.188238 119.18877 
L 393.72356 120.118855 
L 394.258883 120.716096 
L 395.329528 122.463317 
L 395.86485 123.113185 
L 396.400173 123.971495 
L 403.359366 132.510131 
L 404.430011 134.105019 
L 406.571301 137.972126 
L 407.641946 140.634398 
L 408.177268 141.901462 
L 410.318559 148.484659 
L 411.389204 152.204591 
L 416.742429 174.778696 
L 417.813074 179.573887 
L 422.630977 203.243632 
L 426.378234 223.261223 
L 429.054847 237.041831 
L 429.590169 239.590754 
L 431.196137 245.435657 
L 431.731459 247.028768 
L 432.266782 248.100515 
L 433.337427 249.489304 
L 433.87275 249.676655 
L 434.408072 249.245364 
L 434.943395 248.57284 
L 436.01404 245.896827 
L 437.084685 241.241964 
L 438.15533 235.766417 
L 439.761297 226.852336 
L 442.973232 208.515966 
L 446.185168 192.029246 
L 448.86178 180.543278 
L 451.00307 173.486985 
L 453.679683 166.914519 
L 456.356295 162.66836 
L 457.426941 161.170596 
L 457.962263 160.817335 
L 458.497586 160.320743 
L 459.568231 158.97296 
L 460.638876 157.965494 
L 461.174198 157.708312 
L 461.8 157.059281 
L 461.8 157.059281 
" clip-path="url(#p0be0669a98)" style="fill: none; stroke: #2ca02c; stroke-width: 1.5; stroke-linecap: square"/>
   </g>
   <g id="line2d_34">
    <path d="M 57.6 152.176487 
L 62.064 136.207673 
L 64.296 129.050974 
L 66.528 122.756538 
L 68.76 117.495754 
L 70.992 113.225156 
L 73.224 109.850715 
L 75.456 107.296687 
L 77.688 105.521963 
L 79.92 104.30082 
L 82.152 103.457881 
L 84.384 102.942528 
L 86.616 102.711456 
L 88.848 102.647778 
L 93.312 102.852122 
L 108.936 104.182754 
L 115.632 104.483096 
L 122.328 104.503592 
L 129.024 104.333469 
L 137.952 103.787874 
L 146.88 103.089722 
L 200.448 97.804764 
L 251.784 93.259604 
L 280.8 90.665576 
L 316.512 87.821238 
L 327.672 87.274671 
L 336.6 87.123971 
L 341.064 87.220219 
L 347.76 87.663322 
L 352.224 88.208639 
L 356.688 88.969687 
L 361.152 90.021181 
L 365.616 91.404356 
L 370.08 93.145596 
L 374.544 95.206437 
L 379.008 97.734364 
L 383.472 100.712064 
L 387.936 104.148204 
L 392.4 108.111398 
L 396.864 112.657523 
L 401.328 117.754223 
L 405.792 123.5741 
L 408.024 126.738819 
L 410.256 130.114257 
L 412.488 133.762173 
L 414.72 137.672749 
L 414.72 137.672749 
" clip-path="url(#p0be0669a98)" style="fill: none; stroke-dasharray: 5.55,2.4; stroke-dashoffset: 0; stroke: #d62728; stroke-width: 1.5"/>
   </g>
   <g id="patch_3">
    <path d="M 57.6 307.584 
L 57.6 41.472 
" style="fill: none; stroke: #000000; stroke-width: 0.8; stroke-linejoin: miter; stroke-linecap: square"/>
   </g>
   <g id="patch_4">
    <path d="M 414.72 307.584 
L 414.72 41.472 
" style="fill: none; stroke: #000000; stroke-width: 0.8; stroke-linejoin: miter; stroke-linecap: square"/>
   </g>
   <g id="patch_5">
    <path d="M 57.6 307.584 
L 414.72 307.584 
" style="fill: none; stroke: #000000; stroke-width: 0.8; stroke-linejoin: miter; stroke-linecap: square"/>
   </g>
   <g id="patch_6">
    <path d="M 57.6 41.472 
L 414.72 41.472 
" style="fill: none; stroke: #000000; stroke-width: 0.8; stroke-linejoin: miter; stroke-linecap: square"/>
   </g>
   <g id="text_18">
    <!-- S parametri -->
    <g transform="translate(200.792812 35.472)scale(0.12 -0.12)">
     <defs>
      <path id="DejaVuSans-53" d="M 3425 4513 
L 3425 3897 
Q 3066 4069 2747 4153 
Q 2428 4238 2131 4238 
Q 1616 4238 1336 4038 
Q 1056 3838 1056 3469 
Q 1056 3159 1242 3001 
Q 1428 2844 1947 2747 
L 2328 2669 
Q 3034 2534 3370 2195 
Q 3706 1856 3706 1288 
Q 3706 609 3251 259 
Q 2797 -91 1919 -91 
Q 1588 -91 1214 -16 
Q 841 59 441 206 
L 441 856 
Q 825 641 1194 531 
Q 1563 422 1919 422 
Q 2459 422 2753 634 
Q 3047 847 3047 1241 
Q 3047 1584 2836 1778 
Q 2625 1972 2144 2069 
L 1759 2144 
Q 1053 2284 737 2584 
Q 422 2884 422 3419 
Q 422 4038 858 4394 
Q 1294 4750 2059 4750 
Q 2388 4750 2728 4690 
Q 3069 4631 3425 4513 
z
" transform="scale(0.015625)"/>
     </defs>
     <use xlink:href="#DejaVuSans-53"/>
     <use xlink:href="#DejaVuSans-20" x="63.476562"/>
     <use xlink:href="#DejaVuSans-70" x="95.263672"/>
     <use xlink:href="#DejaVuSans-61" x="158.740234"/>
     <use xlink:href="#DejaVuSans-72" x="220.019531"/>
     <use xlink:href="#DejaVuSans-61" x="261.132812"/>
     <use xlink:href="#DejaVuSans-6d" x="322.412109"/>
     <use xlink:href="#DejaVuSans-65" x="419.824219"/>
     <use xlink:href="#DejaVuSans-74" x="481.347656"/>
     <use xlink:href="#DejaVuSans-72" x="520.556641"/>
     <use xlink:href="#DejaVuSans-69" x="561.669922"/>
    </g>
   </g>
   <g id="legend_1">
    <g id="patch_7">
     <path d="M 328.954375 302.584 
L 407.72 302.584 
Q 409.72 302.584 409.72 300.584 
L 409.72 242.8715 
Q 409.72 240.8715 407.72 240.8715 
L 328.954375 240.8715 
Q 326.954375 240.8715 326.954375 242.8715 
L 326.954375 300.584 
Q 326.954375 302.584 328.954375 302.584 
z
" style="fill: #ffffff; opacity: 0.8; stroke: #cccccc; stroke-linejoin: miter"/>
    </g>
    <g id="line2d_35">
     <path d="M 330.954375 248.969937 
L 340.954375 248.969937 
L 350.954375 248.969937 
" style="fill: none; stroke: #1f77b4; stroke-width: 1.5; stroke-linecap: square"/>
    </g>
    <g id="text_19">
     <!-- S11 -->
     <g transform="translate(358.954375 252.469937)scale(0.1 -0.1)">
      <use xlink:href="#DejaVuSans-53"/>
      <use xlink:href="#DejaVuSans-31" x="63.476562"/>
      <use xlink:href="#DejaVuSans-31" x="127.099609"/>
     </g>
    </g>
    <g id="line2d_36">
     <path d="M 330.954375 263.648062 
L 340.954375 263.648062 
L 350.954375 263.648062 
" style="fill: none; stroke: #ff7f0e; stroke-width: 1.5; stroke-linecap: square"/>
    </g>
    <g id="text_20">
     <!-- S22 -->
     <g transform="translate(358.954375 267.148062)scale(0.1 -0.1)">
      <use xlink:href="#DejaVuSans-53"/>
      <use xlink:href="#DejaVuSans-32" x="63.476562"/>
      <use xlink:href="#DejaVuSans-32" x="127.099609"/>
     </g>
    </g>
    <g id="line2d_37">
     <path d="M 330.954375 278.326187 
L 340.954375 278.326187 
L 350.954375 278.326187 
" style="fill: none; stroke: #2ca02c; stroke-width: 1.5; stroke-linecap: square"/>
    </g>
    <g id="text_21">
     <!-- S21 -->
     <g transform="translate(358.954375 281.826187)scale(0.1 -0.1)">
      <use xlink:href="#DejaVuSans-53"/>
      <use xlink:href="#DejaVuSans-32" x="63.476562"/>
      <use xlink:href="#DejaVuSans-31" x="127.099609"/>
     </g>
    </g>
    <g id="line2d_38">
     <path d="M 330.954375 293.004312 
L 340.954375 293.004312 
L 350.954375 293.004312 
" style="fill: none; stroke-dasharray: 5.55,2.4; stroke-dashoffset: 0; stroke: #d62728; stroke-width: 1.5"/>
    </g>
    <g id="text_22">
     <!-- S21 - sim -->
     <g transform="translate(358.954375 296.504312)scale(0.1 -0.1)">
      <defs>
       <path id="DejaVuSans-2d" d="M 313 2009 
L 1997 2009 
L 1997 1497 
L 313 1497 
L 313 2009 
z
" transform="scale(0.015625)"/>
       <path id="DejaVuSans-73" d="M 2834 3397 
L 2834 2853 
Q 2591 2978 2328 3040 
Q 2066 3103 1784 3103 
Q 1356 3103 1142 2972 
Q 928 2841 928 2578 
Q 928 2378 1081 2264 
Q 1234 2150 1697 2047 
L 1894 2003 
Q 2506 1872 2764 1633 
Q 3022 1394 3022 966 
Q 3022 478 2636 193 
Q 2250 -91 1575 -91 
Q 1294 -91 989 -36 
Q 684 19 347 128 
L 347 722 
Q 666 556 975 473 
Q 1284 391 1588 391 
Q 1994 391 2212 530 
Q 2431 669 2431 922 
Q 2431 1156 2273 1281 
Q 2116 1406 1581 1522 
L 1381 1569 
Q 847 1681 609 1914 
Q 372 2147 372 2553 
Q 372 3047 722 3315 
Q 1072 3584 1716 3584 
Q 2034 3584 2315 3537 
Q 2597 3491 2834 3397 
z
" transform="scale(0.015625)"/>
      </defs>
      <use xlink:href="#DejaVuSans-53"/>
      <use xlink:href="#DejaVuSans-32" x="63.476562"/>
      <use xlink:href="#DejaVuSans-31" x="127.099609"/>
      <use xlink:href="#DejaVuSans-20" x="190.722656"/>
      <use xlink:href="#DejaVuSans-2d" x="222.509766"/>
      <use xlink:href="#DejaVuSans-20" x="258.59375"/>
      <use xlink:href="#DejaVuSans-73" x="290.380859"/>
      <use xlink:href="#DejaVuSans-69" x="342.480469"/>
      <use xlink:href="#DejaVuSans-6d" x="370.263672"/>
     </g>
    </g>
   </g>
  </g>
 </g>
 <defs>
  <clipPath id="p0be0669a98">
   <rect x="57.6" y="41.472" width="357.12" height="266.112"/>
  </clipPath>
 </defs>
</svg>
