<?xml version="1.0" encoding="utf-8" standalone="no"?>
<!DOCTYPE svg PUBLIC "-//W3C//DTD SVG 1.1//EN"
  "http://www.w3.org/Graphics/SVG/1.1/DTD/svg11.dtd">
<svg xmlns:xlink="http://www.w3.org/1999/xlink" width="460.8pt" height="345.6pt" viewBox="0 0 460.8 345.6" xmlns="http://www.w3.org/2000/svg" version="1.1">
 <metadata>
  <rdf:RDF xmlns:dc="http://purl.org/dc/elements/1.1/" xmlns:cc="http://creativecommons.org/ns#" xmlns:rdf="http://www.w3.org/1999/02/22-rdf-syntax-ns#">
   <cc:Work>
    <dc:type rdf:resource="http://purl.org/dc/dcmitype/StillImage"/>
    <dc:date>2022-09-13T17:33:37.729717</dc:date>
    <dc:format>image/svg+xml</dc:format>
    <dc:creator>
     <cc:Agent>
      <dc:title>Matplotlib v3.5.1, https://matplotlib.org/</dc:title>
     </cc:Agent>
    </dc:creator>
   </cc:Work>
  </rdf:RDF>
 </metadata>
 <defs>
  <style type="text/css">*{stroke-linejoin: round; stroke-linecap: butt}</style>
 </defs>
 <g id="figure_1">
  <g id="patch_1">
   <path d="M 0 345.6 
L 460.8 345.6 
L 460.8 0 
L 0 0 
z
" style="fill: #ffffff"/>
  </g>
  <g id="axes_1">
   <g id="patch_2">
    <path d="M 57.6 307.584 
L 414.72 307.584 
L 414.72 41.472 
L 57.6 41.472 
z
" style="fill: #ffffff"/>
   </g>
   <g id="matplotlib.axis_1">
    <g id="xtick_1">
     <g id="line2d_1">
      <defs>
       <path id="m0412f56d1d" d="M 0 0 
L 0 3.5 
" style="stroke: #000000; stroke-width: 0.8"/>
      </defs>
      <g>
       <use xlink:href="#m0412f56d1d" x="73.832727" y="307.584" style="stroke: #000000; stroke-width: 0.8"/>
      </g>
     </g>
     <g id="text_1">
      <!-- $\mathdefault{10^{3}}$ -->
      <g transform="translate(65.032727 322.182437)scale(0.1 -0.1)">
       <defs>
        <path id="DejaVuSans-31" d="M 794 531 
L 1825 531 
L 1825 4091 
L 703 3866 
L 703 4441 
L 1819 4666 
L 2450 4666 
L 2450 531 
L 3481 531 
L 3481 0 
L 794 0 
L 794 531 
z
" transform="scale(0.015625)"/>
        <path id="DejaVuSans-30" d="M 2034 4250 
Q 1547 4250 1301 3770 
Q 1056 3291 1056 2328 
Q 1056 1369 1301 889 
Q 1547 409 2034 409 
Q 2525 409 2770 889 
Q 3016 1369 3016 2328 
Q 3016 3291 2770 3770 
Q 2525 4250 2034 4250 
z
M 2034 4750 
Q 2819 4750 3233 4129 
Q 3647 3509 3647 2328 
Q 3647 1150 3233 529 
Q 2819 -91 2034 -91 
Q 1250 -91 836 529 
Q 422 1150 422 2328 
Q 422 3509 836 4129 
Q 1250 4750 2034 4750 
z
" transform="scale(0.015625)"/>
        <path id="DejaVuSans-33" d="M 2597 2516 
Q 3050 2419 3304 2112 
Q 3559 1806 3559 1356 
Q 3559 666 3084 287 
Q 2609 -91 1734 -91 
Q 1441 -91 1130 -33 
Q 819 25 488 141 
L 488 750 
Q 750 597 1062 519 
Q 1375 441 1716 441 
Q 2309 441 2620 675 
Q 2931 909 2931 1356 
Q 2931 1769 2642 2001 
Q 2353 2234 1838 2234 
L 1294 2234 
L 1294 2753 
L 1863 2753 
Q 2328 2753 2575 2939 
Q 2822 3125 2822 3475 
Q 2822 3834 2567 4026 
Q 2313 4219 1838 4219 
Q 1578 4219 1281 4162 
Q 984 4106 628 3988 
L 628 4550 
Q 988 4650 1302 4700 
Q 1616 4750 1894 4750 
Q 2613 4750 3031 4423 
Q 3450 4097 3450 3541 
Q 3450 3153 3228 2886 
Q 3006 2619 2597 2516 
z
" transform="scale(0.015625)"/>
       </defs>
       <use xlink:href="#DejaVuSans-31" transform="translate(0 0.765625)"/>
       <use xlink:href="#DejaVuSans-30" transform="translate(63.623047 0.765625)"/>
       <use xlink:href="#DejaVuSans-33" transform="translate(128.203125 39.046875)scale(0.7)"/>
      </g>
     </g>
    </g>
    <g id="xtick_2">
     <g id="line2d_2">
      <g>
       <use xlink:href="#m0412f56d1d" x="154.996364" y="307.584" style="stroke: #000000; stroke-width: 0.8"/>
      </g>
     </g>
     <g id="text_2">
      <!-- $\mathdefault{10^{4}}$ -->
      <g transform="translate(146.196364 322.182437)scale(0.1 -0.1)">
       <defs>
        <path id="DejaVuSans-34" d="M 2419 4116 
L 825 1625 
L 2419 1625 
L 2419 4116 
z
M 2253 4666 
L 3047 4666 
L 3047 1625 
L 3713 1625 
L 3713 1100 
L 3047 1100 
L 3047 0 
L 2419 0 
L 2419 1100 
L 313 1100 
L 313 1709 
L 2253 4666 
z
" transform="scale(0.015625)"/>
       </defs>
       <use xlink:href="#DejaVuSans-31" transform="translate(0 0.684375)"/>
       <use xlink:href="#DejaVuSans-30" transform="translate(63.623047 0.684375)"/>
       <use xlink:href="#DejaVuSans-34" transform="translate(128.203125 38.965625)scale(0.7)"/>
      </g>
     </g>
    </g>
    <g id="xtick_3">
     <g id="line2d_3">
      <g>
       <use xlink:href="#m0412f56d1d" x="236.16" y="307.584" style="stroke: #000000; stroke-width: 0.8"/>
      </g>
     </g>
     <g id="text_3">
      <!-- $\mathdefault{10^{5}}$ -->
      <g transform="translate(227.36 322.182437)scale(0.1 -0.1)">
       <defs>
        <path id="DejaVuSans-35" d="M 691 4666 
L 3169 4666 
L 3169 4134 
L 1269 4134 
L 1269 2991 
Q 1406 3038 1543 3061 
Q 1681 3084 1819 3084 
Q 2600 3084 3056 2656 
Q 3513 2228 3513 1497 
Q 3513 744 3044 326 
Q 2575 -91 1722 -91 
Q 1428 -91 1123 -41 
Q 819 9 494 109 
L 494 744 
Q 775 591 1075 516 
Q 1375 441 1709 441 
Q 2250 441 2565 725 
Q 2881 1009 2881 1497 
Q 2881 1984 2565 2268 
Q 2250 2553 1709 2553 
Q 1456 2553 1204 2497 
Q 953 2441 691 2322 
L 691 4666 
z
" transform="scale(0.015625)"/>
       </defs>
       <use xlink:href="#DejaVuSans-31" transform="translate(0 0.684375)"/>
       <use xlink:href="#DejaVuSans-30" transform="translate(63.623047 0.684375)"/>
       <use xlink:href="#DejaVuSans-35" transform="translate(128.203125 38.965625)scale(0.7)"/>
      </g>
     </g>
    </g>
    <g id="xtick_4">
     <g id="line2d_4">
      <g>
       <use xlink:href="#m0412f56d1d" x="317.323636" y="307.584" style="stroke: #000000; stroke-width: 0.8"/>
      </g>
     </g>
     <g id="text_4">
      <!-- $\mathdefault{10^{6}}$ -->
      <g transform="translate(308.523636 322.182437)scale(0.1 -0.1)">
       <defs>
        <path id="DejaVuSans-36" d="M 2113 2584 
Q 1688 2584 1439 2293 
Q 1191 2003 1191 1497 
Q 1191 994 1439 701 
Q 1688 409 2113 409 
Q 2538 409 2786 701 
Q 3034 994 3034 1497 
Q 3034 2003 2786 2293 
Q 2538 2584 2113 2584 
z
M 3366 4563 
L 3366 3988 
Q 3128 4100 2886 4159 
Q 2644 4219 2406 4219 
Q 1781 4219 1451 3797 
Q 1122 3375 1075 2522 
Q 1259 2794 1537 2939 
Q 1816 3084 2150 3084 
Q 2853 3084 3261 2657 
Q 3669 2231 3669 1497 
Q 3669 778 3244 343 
Q 2819 -91 2113 -91 
Q 1303 -91 875 529 
Q 447 1150 447 2328 
Q 447 3434 972 4092 
Q 1497 4750 2381 4750 
Q 2619 4750 2861 4703 
Q 3103 4656 3366 4563 
z
" transform="scale(0.015625)"/>
       </defs>
       <use xlink:href="#DejaVuSans-31" transform="translate(0 0.765625)"/>
       <use xlink:href="#DejaVuSans-30" transform="translate(63.623047 0.765625)"/>
       <use xlink:href="#DejaVuSans-36" transform="translate(128.203125 39.046875)scale(0.7)"/>
      </g>
     </g>
    </g>
    <g id="xtick_5">
     <g id="line2d_5">
      <g>
       <use xlink:href="#m0412f56d1d" x="398.487273" y="307.584" style="stroke: #000000; stroke-width: 0.8"/>
      </g>
     </g>
     <g id="text_5">
      <!-- $\mathdefault{10^{7}}$ -->
      <g transform="translate(389.687273 322.182437)scale(0.1 -0.1)">
       <defs>
        <path id="DejaVuSans-37" d="M 525 4666 
L 3525 4666 
L 3525 4397 
L 1831 0 
L 1172 0 
L 2766 4134 
L 525 4134 
L 525 4666 
z
" transform="scale(0.015625)"/>
       </defs>
       <use xlink:href="#DejaVuSans-31" transform="translate(0 0.684375)"/>
       <use xlink:href="#DejaVuSans-30" transform="translate(63.623047 0.684375)"/>
       <use xlink:href="#DejaVuSans-37" transform="translate(128.203125 38.965625)scale(0.7)"/>
      </g>
     </g>
    </g>
    <g id="xtick_6">
     <g id="line2d_6">
      <defs>
       <path id="m03c4b602e3" d="M 0 0 
L 0 2 
" style="stroke: #000000; stroke-width: 0.6"/>
      </defs>
      <g>
       <use xlink:href="#m03c4b602e3" x="61.260321" y="307.584" style="stroke: #000000; stroke-width: 0.6"/>
      </g>
     </g>
    </g>
    <g id="xtick_7">
     <g id="line2d_7">
      <g>
       <use xlink:href="#m03c4b602e3" x="65.967158" y="307.584" style="stroke: #000000; stroke-width: 0.6"/>
      </g>
     </g>
    </g>
    <g id="xtick_8">
     <g id="line2d_8">
      <g>
       <use xlink:href="#m03c4b602e3" x="70.118883" y="307.584" style="stroke: #000000; stroke-width: 0.6"/>
      </g>
     </g>
    </g>
    <g id="xtick_9">
     <g id="line2d_9">
      <g>
       <use xlink:href="#m03c4b602e3" x="98.265416" y="307.584" style="stroke: #000000; stroke-width: 0.6"/>
      </g>
     </g>
    </g>
    <g id="xtick_10">
     <g id="line2d_10">
      <g>
       <use xlink:href="#m03c4b602e3" x="112.557623" y="307.584" style="stroke: #000000; stroke-width: 0.6"/>
      </g>
     </g>
    </g>
    <g id="xtick_11">
     <g id="line2d_11">
      <g>
       <use xlink:href="#m03c4b602e3" x="122.698105" y="307.584" style="stroke: #000000; stroke-width: 0.6"/>
      </g>
     </g>
    </g>
    <g id="xtick_12">
     <g id="line2d_12">
      <g>
       <use xlink:href="#m03c4b602e3" x="130.563675" y="307.584" style="stroke: #000000; stroke-width: 0.6"/>
      </g>
     </g>
    </g>
    <g id="xtick_13">
     <g id="line2d_13">
      <g>
       <use xlink:href="#m03c4b602e3" x="136.990312" y="307.584" style="stroke: #000000; stroke-width: 0.6"/>
      </g>
     </g>
    </g>
    <g id="xtick_14">
     <g id="line2d_14">
      <g>
       <use xlink:href="#m03c4b602e3" x="142.423957" y="307.584" style="stroke: #000000; stroke-width: 0.6"/>
      </g>
     </g>
    </g>
    <g id="xtick_15">
     <g id="line2d_15">
      <g>
       <use xlink:href="#m03c4b602e3" x="147.130795" y="307.584" style="stroke: #000000; stroke-width: 0.6"/>
      </g>
     </g>
    </g>
    <g id="xtick_16">
     <g id="line2d_16">
      <g>
       <use xlink:href="#m03c4b602e3" x="151.282519" y="307.584" style="stroke: #000000; stroke-width: 0.6"/>
      </g>
     </g>
    </g>
    <g id="xtick_17">
     <g id="line2d_17">
      <g>
       <use xlink:href="#m03c4b602e3" x="179.429053" y="307.584" style="stroke: #000000; stroke-width: 0.6"/>
      </g>
     </g>
    </g>
    <g id="xtick_18">
     <g id="line2d_18">
      <g>
       <use xlink:href="#m03c4b602e3" x="193.72126" y="307.584" style="stroke: #000000; stroke-width: 0.6"/>
      </g>
     </g>
    </g>
    <g id="xtick_19">
     <g id="line2d_19">
      <g>
       <use xlink:href="#m03c4b602e3" x="203.861742" y="307.584" style="stroke: #000000; stroke-width: 0.6"/>
      </g>
     </g>
    </g>
    <g id="xtick_20">
     <g id="line2d_20">
      <g>
       <use xlink:href="#m03c4b602e3" x="211.727311" y="307.584" style="stroke: #000000; stroke-width: 0.6"/>
      </g>
     </g>
    </g>
    <g id="xtick_21">
     <g id="line2d_21">
      <g>
       <use xlink:href="#m03c4b602e3" x="218.153949" y="307.584" style="stroke: #000000; stroke-width: 0.6"/>
      </g>
     </g>
    </g>
    <g id="xtick_22">
     <g id="line2d_22">
      <g>
       <use xlink:href="#m03c4b602e3" x="223.587594" y="307.584" style="stroke: #000000; stroke-width: 0.6"/>
      </g>
     </g>
    </g>
    <g id="xtick_23">
     <g id="line2d_23">
      <g>
       <use xlink:href="#m03c4b602e3" x="228.294431" y="307.584" style="stroke: #000000; stroke-width: 0.6"/>
      </g>
     </g>
    </g>
    <g id="xtick_24">
     <g id="line2d_24">
      <g>
       <use xlink:href="#m03c4b602e3" x="232.446156" y="307.584" style="stroke: #000000; stroke-width: 0.6"/>
      </g>
     </g>
    </g>
    <g id="xtick_25">
     <g id="line2d_25">
      <g>
       <use xlink:href="#m03c4b602e3" x="260.592689" y="307.584" style="stroke: #000000; stroke-width: 0.6"/>
      </g>
     </g>
    </g>
    <g id="xtick_26">
     <g id="line2d_26">
      <g>
       <use xlink:href="#m03c4b602e3" x="274.884896" y="307.584" style="stroke: #000000; stroke-width: 0.6"/>
      </g>
     </g>
    </g>
    <g id="xtick_27">
     <g id="line2d_27">
      <g>
       <use xlink:href="#m03c4b602e3" x="285.025378" y="307.584" style="stroke: #000000; stroke-width: 0.6"/>
      </g>
     </g>
    </g>
    <g id="xtick_28">
     <g id="line2d_28">
      <g>
       <use xlink:href="#m03c4b602e3" x="292.890947" y="307.584" style="stroke: #000000; stroke-width: 0.6"/>
      </g>
     </g>
    </g>
    <g id="xtick_29">
     <g id="line2d_29">
      <g>
       <use xlink:href="#m03c4b602e3" x="299.317585" y="307.584" style="stroke: #000000; stroke-width: 0.6"/>
      </g>
     </g>
    </g>
    <g id="xtick_30">
     <g id="line2d_30">
      <g>
       <use xlink:href="#m03c4b602e3" x="304.75123" y="307.584" style="stroke: #000000; stroke-width: 0.6"/>
      </g>
     </g>
    </g>
    <g id="xtick_31">
     <g id="line2d_31">
      <g>
       <use xlink:href="#m03c4b602e3" x="309.458067" y="307.584" style="stroke: #000000; stroke-width: 0.6"/>
      </g>
     </g>
    </g>
    <g id="xtick_32">
     <g id="line2d_32">
      <g>
       <use xlink:href="#m03c4b602e3" x="313.609792" y="307.584" style="stroke: #000000; stroke-width: 0.6"/>
      </g>
     </g>
    </g>
    <g id="xtick_33">
     <g id="line2d_33">
      <g>
       <use xlink:href="#m03c4b602e3" x="341.756325" y="307.584" style="stroke: #000000; stroke-width: 0.6"/>
      </g>
     </g>
    </g>
    <g id="xtick_34">
     <g id="line2d_34">
      <g>
       <use xlink:href="#m03c4b602e3" x="356.048532" y="307.584" style="stroke: #000000; stroke-width: 0.6"/>
      </g>
     </g>
    </g>
    <g id="xtick_35">
     <g id="line2d_35">
      <g>
       <use xlink:href="#m03c4b602e3" x="366.189015" y="307.584" style="stroke: #000000; stroke-width: 0.6"/>
      </g>
     </g>
    </g>
    <g id="xtick_36">
     <g id="line2d_36">
      <g>
       <use xlink:href="#m03c4b602e3" x="374.054584" y="307.584" style="stroke: #000000; stroke-width: 0.6"/>
      </g>
     </g>
    </g>
    <g id="xtick_37">
     <g id="line2d_37">
      <g>
       <use xlink:href="#m03c4b602e3" x="380.481221" y="307.584" style="stroke: #000000; stroke-width: 0.6"/>
      </g>
     </g>
    </g>
    <g id="xtick_38">
     <g id="line2d_38">
      <g>
       <use xlink:href="#m03c4b602e3" x="385.914866" y="307.584" style="stroke: #000000; stroke-width: 0.6"/>
      </g>
     </g>
    </g>
    <g id="xtick_39">
     <g id="line2d_39">
      <g>
       <use xlink:href="#m03c4b602e3" x="390.621704" y="307.584" style="stroke: #000000; stroke-width: 0.6"/>
      </g>
     </g>
    </g>
    <g id="xtick_40">
     <g id="line2d_40">
      <g>
       <use xlink:href="#m03c4b602e3" x="394.773428" y="307.584" style="stroke: #000000; stroke-width: 0.6"/>
      </g>
     </g>
    </g>
    <g id="text_6">
     <!-- Frequency [Hz] -->
     <g transform="translate(198.455312 335.860562)scale(0.1 -0.1)">
      <defs>
       <path id="DejaVuSans-46" d="M 628 4666 
L 3309 4666 
L 3309 4134 
L 1259 4134 
L 1259 2759 
L 3109 2759 
L 3109 2228 
L 1259 2228 
L 1259 0 
L 628 0 
L 628 4666 
z
" transform="scale(0.015625)"/>
       <path id="DejaVuSans-72" d="M 2631 2963 
Q 2534 3019 2420 3045 
Q 2306 3072 2169 3072 
Q 1681 3072 1420 2755 
Q 1159 2438 1159 1844 
L 1159 0 
L 581 0 
L 581 3500 
L 1159 3500 
L 1159 2956 
Q 1341 3275 1631 3429 
Q 1922 3584 2338 3584 
Q 2397 3584 2469 3576 
Q 2541 3569 2628 3553 
L 2631 2963 
z
" transform="scale(0.015625)"/>
       <path id="DejaVuSans-65" d="M 3597 1894 
L 3597 1613 
L 953 1613 
Q 991 1019 1311 708 
Q 1631 397 2203 397 
Q 2534 397 2845 478 
Q 3156 559 3463 722 
L 3463 178 
Q 3153 47 2828 -22 
Q 2503 -91 2169 -91 
Q 1331 -91 842 396 
Q 353 884 353 1716 
Q 353 2575 817 3079 
Q 1281 3584 2069 3584 
Q 2775 3584 3186 3129 
Q 3597 2675 3597 1894 
z
M 3022 2063 
Q 3016 2534 2758 2815 
Q 2500 3097 2075 3097 
Q 1594 3097 1305 2825 
Q 1016 2553 972 2059 
L 3022 2063 
z
" transform="scale(0.015625)"/>
       <path id="DejaVuSans-71" d="M 947 1747 
Q 947 1113 1208 752 
Q 1469 391 1925 391 
Q 2381 391 2643 752 
Q 2906 1113 2906 1747 
Q 2906 2381 2643 2742 
Q 2381 3103 1925 3103 
Q 1469 3103 1208 2742 
Q 947 2381 947 1747 
z
M 2906 525 
Q 2725 213 2448 61 
Q 2172 -91 1784 -91 
Q 1150 -91 751 415 
Q 353 922 353 1747 
Q 353 2572 751 3078 
Q 1150 3584 1784 3584 
Q 2172 3584 2448 3432 
Q 2725 3281 2906 2969 
L 2906 3500 
L 3481 3500 
L 3481 -1331 
L 2906 -1331 
L 2906 525 
z
" transform="scale(0.015625)"/>
       <path id="DejaVuSans-75" d="M 544 1381 
L 544 3500 
L 1119 3500 
L 1119 1403 
Q 1119 906 1312 657 
Q 1506 409 1894 409 
Q 2359 409 2629 706 
Q 2900 1003 2900 1516 
L 2900 3500 
L 3475 3500 
L 3475 0 
L 2900 0 
L 2900 538 
Q 2691 219 2414 64 
Q 2138 -91 1772 -91 
Q 1169 -91 856 284 
Q 544 659 544 1381 
z
M 1991 3584 
L 1991 3584 
z
" transform="scale(0.015625)"/>
       <path id="DejaVuSans-6e" d="M 3513 2113 
L 3513 0 
L 2938 0 
L 2938 2094 
Q 2938 2591 2744 2837 
Q 2550 3084 2163 3084 
Q 1697 3084 1428 2787 
Q 1159 2491 1159 1978 
L 1159 0 
L 581 0 
L 581 3500 
L 1159 3500 
L 1159 2956 
Q 1366 3272 1645 3428 
Q 1925 3584 2291 3584 
Q 2894 3584 3203 3211 
Q 3513 2838 3513 2113 
z
" transform="scale(0.015625)"/>
       <path id="DejaVuSans-63" d="M 3122 3366 
L 3122 2828 
Q 2878 2963 2633 3030 
Q 2388 3097 2138 3097 
Q 1578 3097 1268 2742 
Q 959 2388 959 1747 
Q 959 1106 1268 751 
Q 1578 397 2138 397 
Q 2388 397 2633 464 
Q 2878 531 3122 666 
L 3122 134 
Q 2881 22 2623 -34 
Q 2366 -91 2075 -91 
Q 1284 -91 818 406 
Q 353 903 353 1747 
Q 353 2603 823 3093 
Q 1294 3584 2113 3584 
Q 2378 3584 2631 3529 
Q 2884 3475 3122 3366 
z
" transform="scale(0.015625)"/>
       <path id="DejaVuSans-79" d="M 2059 -325 
Q 1816 -950 1584 -1140 
Q 1353 -1331 966 -1331 
L 506 -1331 
L 506 -850 
L 844 -850 
Q 1081 -850 1212 -737 
Q 1344 -625 1503 -206 
L 1606 56 
L 191 3500 
L 800 3500 
L 1894 763 
L 2988 3500 
L 3597 3500 
L 2059 -325 
z
" transform="scale(0.015625)"/>
       <path id="DejaVuSans-20" transform="scale(0.015625)"/>
       <path id="DejaVuSans-5b" d="M 550 4863 
L 1875 4863 
L 1875 4416 
L 1125 4416 
L 1125 -397 
L 1875 -397 
L 1875 -844 
L 550 -844 
L 550 4863 
z
" transform="scale(0.015625)"/>
       <path id="DejaVuSans-48" d="M 628 4666 
L 1259 4666 
L 1259 2753 
L 3553 2753 
L 3553 4666 
L 4184 4666 
L 4184 0 
L 3553 0 
L 3553 2222 
L 1259 2222 
L 1259 0 
L 628 0 
L 628 4666 
z
" transform="scale(0.015625)"/>
       <path id="DejaVuSans-7a" d="M 353 3500 
L 3084 3500 
L 3084 2975 
L 922 459 
L 3084 459 
L 3084 0 
L 275 0 
L 275 525 
L 2438 3041 
L 353 3041 
L 353 3500 
z
" transform="scale(0.015625)"/>
       <path id="DejaVuSans-5d" d="M 1947 4863 
L 1947 -844 
L 622 -844 
L 622 -397 
L 1369 -397 
L 1369 4416 
L 622 4416 
L 622 4863 
L 1947 4863 
z
" transform="scale(0.015625)"/>
      </defs>
      <use xlink:href="#DejaVuSans-46"/>
      <use xlink:href="#DejaVuSans-72" x="50.269531"/>
      <use xlink:href="#DejaVuSans-65" x="89.132812"/>
      <use xlink:href="#DejaVuSans-71" x="150.65625"/>
      <use xlink:href="#DejaVuSans-75" x="214.132812"/>
      <use xlink:href="#DejaVuSans-65" x="277.511719"/>
      <use xlink:href="#DejaVuSans-6e" x="339.035156"/>
      <use xlink:href="#DejaVuSans-63" x="402.414062"/>
      <use xlink:href="#DejaVuSans-79" x="457.394531"/>
      <use xlink:href="#DejaVuSans-20" x="516.574219"/>
      <use xlink:href="#DejaVuSans-5b" x="548.361328"/>
      <use xlink:href="#DejaVuSans-48" x="587.375"/>
      <use xlink:href="#DejaVuSans-7a" x="662.570312"/>
      <use xlink:href="#DejaVuSans-5d" x="715.060547"/>
     </g>
    </g>
   </g>
   <g id="matplotlib.axis_2">
    <g id="ytick_1">
     <g id="line2d_41">
      <defs>
       <path id="m30f6f300bc" d="M 0 0 
L -3.5 0 
" style="stroke: #000000; stroke-width: 0.8"/>
      </defs>
      <g>
       <use xlink:href="#m30f6f300bc" x="57.6" y="307.584" style="stroke: #000000; stroke-width: 0.8"/>
      </g>
     </g>
     <g id="text_7">
      <!-- −140 -->
      <g transform="translate(23.132812 311.383219)scale(0.1 -0.1)">
       <defs>
        <path id="DejaVuSans-2212" d="M 678 2272 
L 4684 2272 
L 4684 1741 
L 678 1741 
L 678 2272 
z
" transform="scale(0.015625)"/>
       </defs>
       <use xlink:href="#DejaVuSans-2212"/>
       <use xlink:href="#DejaVuSans-31" x="83.789062"/>
       <use xlink:href="#DejaVuSans-34" x="147.412109"/>
       <use xlink:href="#DejaVuSans-30" x="211.035156"/>
      </g>
     </g>
    </g>
    <g id="ytick_2">
     <g id="line2d_42">
      <g>
       <use xlink:href="#m30f6f300bc" x="57.6" y="274.32" style="stroke: #000000; stroke-width: 0.8"/>
      </g>
     </g>
     <g id="text_8">
      <!-- −130 -->
      <g transform="translate(23.132812 278.119219)scale(0.1 -0.1)">
       <use xlink:href="#DejaVuSans-2212"/>
       <use xlink:href="#DejaVuSans-31" x="83.789062"/>
       <use xlink:href="#DejaVuSans-33" x="147.412109"/>
       <use xlink:href="#DejaVuSans-30" x="211.035156"/>
      </g>
     </g>
    </g>
    <g id="ytick_3">
     <g id="line2d_43">
      <g>
       <use xlink:href="#m30f6f300bc" x="57.6" y="241.056" style="stroke: #000000; stroke-width: 0.8"/>
      </g>
     </g>
     <g id="text_9">
      <!-- −120 -->
      <g transform="translate(23.132812 244.855219)scale(0.1 -0.1)">
       <defs>
        <path id="DejaVuSans-32" d="M 1228 531 
L 3431 531 
L 3431 0 
L 469 0 
L 469 531 
Q 828 903 1448 1529 
Q 2069 2156 2228 2338 
Q 2531 2678 2651 2914 
Q 2772 3150 2772 3378 
Q 2772 3750 2511 3984 
Q 2250 4219 1831 4219 
Q 1534 4219 1204 4116 
Q 875 4013 500 3803 
L 500 4441 
Q 881 4594 1212 4672 
Q 1544 4750 1819 4750 
Q 2544 4750 2975 4387 
Q 3406 4025 3406 3419 
Q 3406 3131 3298 2873 
Q 3191 2616 2906 2266 
Q 2828 2175 2409 1742 
Q 1991 1309 1228 531 
z
" transform="scale(0.015625)"/>
       </defs>
       <use xlink:href="#DejaVuSans-2212"/>
       <use xlink:href="#DejaVuSans-31" x="83.789062"/>
       <use xlink:href="#DejaVuSans-32" x="147.412109"/>
       <use xlink:href="#DejaVuSans-30" x="211.035156"/>
      </g>
     </g>
    </g>
    <g id="ytick_4">
     <g id="line2d_44">
      <g>
       <use xlink:href="#m30f6f300bc" x="57.6" y="207.792" style="stroke: #000000; stroke-width: 0.8"/>
      </g>
     </g>
     <g id="text_10">
      <!-- −110 -->
      <g transform="translate(23.132812 211.591219)scale(0.1 -0.1)">
       <use xlink:href="#DejaVuSans-2212"/>
       <use xlink:href="#DejaVuSans-31" x="83.789062"/>
       <use xlink:href="#DejaVuSans-31" x="147.412109"/>
       <use xlink:href="#DejaVuSans-30" x="211.035156"/>
      </g>
     </g>
    </g>
    <g id="ytick_5">
     <g id="line2d_45">
      <g>
       <use xlink:href="#m30f6f300bc" x="57.6" y="174.528" style="stroke: #000000; stroke-width: 0.8"/>
      </g>
     </g>
     <g id="text_11">
      <!-- −100 -->
      <g transform="translate(23.132812 178.327219)scale(0.1 -0.1)">
       <use xlink:href="#DejaVuSans-2212"/>
       <use xlink:href="#DejaVuSans-31" x="83.789062"/>
       <use xlink:href="#DejaVuSans-30" x="147.412109"/>
       <use xlink:href="#DejaVuSans-30" x="211.035156"/>
      </g>
     </g>
    </g>
    <g id="ytick_6">
     <g id="line2d_46">
      <g>
       <use xlink:href="#m30f6f300bc" x="57.6" y="141.264" style="stroke: #000000; stroke-width: 0.8"/>
      </g>
     </g>
     <g id="text_12">
      <!-- −90 -->
      <g transform="translate(29.495313 145.063219)scale(0.1 -0.1)">
       <defs>
        <path id="DejaVuSans-39" d="M 703 97 
L 703 672 
Q 941 559 1184 500 
Q 1428 441 1663 441 
Q 2288 441 2617 861 
Q 2947 1281 2994 2138 
Q 2813 1869 2534 1725 
Q 2256 1581 1919 1581 
Q 1219 1581 811 2004 
Q 403 2428 403 3163 
Q 403 3881 828 4315 
Q 1253 4750 1959 4750 
Q 2769 4750 3195 4129 
Q 3622 3509 3622 2328 
Q 3622 1225 3098 567 
Q 2575 -91 1691 -91 
Q 1453 -91 1209 -44 
Q 966 3 703 97 
z
M 1959 2075 
Q 2384 2075 2632 2365 
Q 2881 2656 2881 3163 
Q 2881 3666 2632 3958 
Q 2384 4250 1959 4250 
Q 1534 4250 1286 3958 
Q 1038 3666 1038 3163 
Q 1038 2656 1286 2365 
Q 1534 2075 1959 2075 
z
" transform="scale(0.015625)"/>
       </defs>
       <use xlink:href="#DejaVuSans-2212"/>
       <use xlink:href="#DejaVuSans-39" x="83.789062"/>
       <use xlink:href="#DejaVuSans-30" x="147.412109"/>
      </g>
     </g>
    </g>
    <g id="ytick_7">
     <g id="line2d_47">
      <g>
       <use xlink:href="#m30f6f300bc" x="57.6" y="108" style="stroke: #000000; stroke-width: 0.8"/>
      </g>
     </g>
     <g id="text_13">
      <!-- −80 -->
      <g transform="translate(29.495313 111.799219)scale(0.1 -0.1)">
       <defs>
        <path id="DejaVuSans-38" d="M 2034 2216 
Q 1584 2216 1326 1975 
Q 1069 1734 1069 1313 
Q 1069 891 1326 650 
Q 1584 409 2034 409 
Q 2484 409 2743 651 
Q 3003 894 3003 1313 
Q 3003 1734 2745 1975 
Q 2488 2216 2034 2216 
z
M 1403 2484 
Q 997 2584 770 2862 
Q 544 3141 544 3541 
Q 544 4100 942 4425 
Q 1341 4750 2034 4750 
Q 2731 4750 3128 4425 
Q 3525 4100 3525 3541 
Q 3525 3141 3298 2862 
Q 3072 2584 2669 2484 
Q 3125 2378 3379 2068 
Q 3634 1759 3634 1313 
Q 3634 634 3220 271 
Q 2806 -91 2034 -91 
Q 1263 -91 848 271 
Q 434 634 434 1313 
Q 434 1759 690 2068 
Q 947 2378 1403 2484 
z
M 1172 3481 
Q 1172 3119 1398 2916 
Q 1625 2713 2034 2713 
Q 2441 2713 2670 2916 
Q 2900 3119 2900 3481 
Q 2900 3844 2670 4047 
Q 2441 4250 2034 4250 
Q 1625 4250 1398 4047 
Q 1172 3844 1172 3481 
z
" transform="scale(0.015625)"/>
       </defs>
       <use xlink:href="#DejaVuSans-2212"/>
       <use xlink:href="#DejaVuSans-38" x="83.789062"/>
       <use xlink:href="#DejaVuSans-30" x="147.412109"/>
      </g>
     </g>
    </g>
    <g id="ytick_8">
     <g id="line2d_48">
      <g>
       <use xlink:href="#m30f6f300bc" x="57.6" y="74.736" style="stroke: #000000; stroke-width: 0.8"/>
      </g>
     </g>
     <g id="text_14">
      <!-- −70 -->
      <g transform="translate(29.495313 78.535219)scale(0.1 -0.1)">
       <use xlink:href="#DejaVuSans-2212"/>
       <use xlink:href="#DejaVuSans-37" x="83.789062"/>
       <use xlink:href="#DejaVuSans-30" x="147.412109"/>
      </g>
     </g>
    </g>
    <g id="ytick_9">
     <g id="line2d_49">
      <g>
       <use xlink:href="#m30f6f300bc" x="57.6" y="41.472" style="stroke: #000000; stroke-width: 0.8"/>
      </g>
     </g>
     <g id="text_15">
      <!-- −60 -->
      <g transform="translate(29.495313 45.271219)scale(0.1 -0.1)">
       <use xlink:href="#DejaVuSans-2212"/>
       <use xlink:href="#DejaVuSans-36" x="83.789062"/>
       <use xlink:href="#DejaVuSans-30" x="147.412109"/>
      </g>
     </g>
    </g>
    <g id="text_16">
     <!-- Phase noise [dBc/Hz] -->
     <g transform="translate(17.053125 227.257688)rotate(-90)scale(0.1 -0.1)">
      <defs>
       <path id="DejaVuSans-50" d="M 1259 4147 
L 1259 2394 
L 2053 2394 
Q 2494 2394 2734 2622 
Q 2975 2850 2975 3272 
Q 2975 3691 2734 3919 
Q 2494 4147 2053 4147 
L 1259 4147 
z
M 628 4666 
L 2053 4666 
Q 2838 4666 3239 4311 
Q 3641 3956 3641 3272 
Q 3641 2581 3239 2228 
Q 2838 1875 2053 1875 
L 1259 1875 
L 1259 0 
L 628 0 
L 628 4666 
z
" transform="scale(0.015625)"/>
       <path id="DejaVuSans-68" d="M 3513 2113 
L 3513 0 
L 2938 0 
L 2938 2094 
Q 2938 2591 2744 2837 
Q 2550 3084 2163 3084 
Q 1697 3084 1428 2787 
Q 1159 2491 1159 1978 
L 1159 0 
L 581 0 
L 581 4863 
L 1159 4863 
L 1159 2956 
Q 1366 3272 1645 3428 
Q 1925 3584 2291 3584 
Q 2894 3584 3203 3211 
Q 3513 2838 3513 2113 
z
" transform="scale(0.015625)"/>
       <path id="DejaVuSans-61" d="M 2194 1759 
Q 1497 1759 1228 1600 
Q 959 1441 959 1056 
Q 959 750 1161 570 
Q 1363 391 1709 391 
Q 2188 391 2477 730 
Q 2766 1069 2766 1631 
L 2766 1759 
L 2194 1759 
z
M 3341 1997 
L 3341 0 
L 2766 0 
L 2766 531 
Q 2569 213 2275 61 
Q 1981 -91 1556 -91 
Q 1019 -91 701 211 
Q 384 513 384 1019 
Q 384 1609 779 1909 
Q 1175 2209 1959 2209 
L 2766 2209 
L 2766 2266 
Q 2766 2663 2505 2880 
Q 2244 3097 1772 3097 
Q 1472 3097 1187 3025 
Q 903 2953 641 2809 
L 641 3341 
Q 956 3463 1253 3523 
Q 1550 3584 1831 3584 
Q 2591 3584 2966 3190 
Q 3341 2797 3341 1997 
z
" transform="scale(0.015625)"/>
       <path id="DejaVuSans-73" d="M 2834 3397 
L 2834 2853 
Q 2591 2978 2328 3040 
Q 2066 3103 1784 3103 
Q 1356 3103 1142 2972 
Q 928 2841 928 2578 
Q 928 2378 1081 2264 
Q 1234 2150 1697 2047 
L 1894 2003 
Q 2506 1872 2764 1633 
Q 3022 1394 3022 966 
Q 3022 478 2636 193 
Q 2250 -91 1575 -91 
Q 1294 -91 989 -36 
Q 684 19 347 128 
L 347 722 
Q 666 556 975 473 
Q 1284 391 1588 391 
Q 1994 391 2212 530 
Q 2431 669 2431 922 
Q 2431 1156 2273 1281 
Q 2116 1406 1581 1522 
L 1381 1569 
Q 847 1681 609 1914 
Q 372 2147 372 2553 
Q 372 3047 722 3315 
Q 1072 3584 1716 3584 
Q 2034 3584 2315 3537 
Q 2597 3491 2834 3397 
z
" transform="scale(0.015625)"/>
       <path id="DejaVuSans-6f" d="M 1959 3097 
Q 1497 3097 1228 2736 
Q 959 2375 959 1747 
Q 959 1119 1226 758 
Q 1494 397 1959 397 
Q 2419 397 2687 759 
Q 2956 1122 2956 1747 
Q 2956 2369 2687 2733 
Q 2419 3097 1959 3097 
z
M 1959 3584 
Q 2709 3584 3137 3096 
Q 3566 2609 3566 1747 
Q 3566 888 3137 398 
Q 2709 -91 1959 -91 
Q 1206 -91 779 398 
Q 353 888 353 1747 
Q 353 2609 779 3096 
Q 1206 3584 1959 3584 
z
" transform="scale(0.015625)"/>
       <path id="DejaVuSans-69" d="M 603 3500 
L 1178 3500 
L 1178 0 
L 603 0 
L 603 3500 
z
M 603 4863 
L 1178 4863 
L 1178 4134 
L 603 4134 
L 603 4863 
z
" transform="scale(0.015625)"/>
       <path id="DejaVuSans-64" d="M 2906 2969 
L 2906 4863 
L 3481 4863 
L 3481 0 
L 2906 0 
L 2906 525 
Q 2725 213 2448 61 
Q 2172 -91 1784 -91 
Q 1150 -91 751 415 
Q 353 922 353 1747 
Q 353 2572 751 3078 
Q 1150 3584 1784 3584 
Q 2172 3584 2448 3432 
Q 2725 3281 2906 2969 
z
M 947 1747 
Q 947 1113 1208 752 
Q 1469 391 1925 391 
Q 2381 391 2643 752 
Q 2906 1113 2906 1747 
Q 2906 2381 2643 2742 
Q 2381 3103 1925 3103 
Q 1469 3103 1208 2742 
Q 947 2381 947 1747 
z
" transform="scale(0.015625)"/>
       <path id="DejaVuSans-42" d="M 1259 2228 
L 1259 519 
L 2272 519 
Q 2781 519 3026 730 
Q 3272 941 3272 1375 
Q 3272 1813 3026 2020 
Q 2781 2228 2272 2228 
L 1259 2228 
z
M 1259 4147 
L 1259 2741 
L 2194 2741 
Q 2656 2741 2882 2914 
Q 3109 3088 3109 3444 
Q 3109 3797 2882 3972 
Q 2656 4147 2194 4147 
L 1259 4147 
z
M 628 4666 
L 2241 4666 
Q 2963 4666 3353 4366 
Q 3744 4066 3744 3513 
Q 3744 3084 3544 2831 
Q 3344 2578 2956 2516 
Q 3422 2416 3680 2098 
Q 3938 1781 3938 1306 
Q 3938 681 3513 340 
Q 3088 0 2303 0 
L 628 0 
L 628 4666 
z
" transform="scale(0.015625)"/>
       <path id="DejaVuSans-2f" d="M 1625 4666 
L 2156 4666 
L 531 -594 
L 0 -594 
L 1625 4666 
z
" transform="scale(0.015625)"/>
      </defs>
      <use xlink:href="#DejaVuSans-50"/>
      <use xlink:href="#DejaVuSans-68" x="60.302734"/>
      <use xlink:href="#DejaVuSans-61" x="123.681641"/>
      <use xlink:href="#DejaVuSans-73" x="184.960938"/>
      <use xlink:href="#DejaVuSans-65" x="237.060547"/>
      <use xlink:href="#DejaVuSans-20" x="298.583984"/>
      <use xlink:href="#DejaVuSans-6e" x="330.371094"/>
      <use xlink:href="#DejaVuSans-6f" x="393.75"/>
      <use xlink:href="#DejaVuSans-69" x="454.931641"/>
      <use xlink:href="#DejaVuSans-73" x="482.714844"/>
      <use xlink:href="#DejaVuSans-65" x="534.814453"/>
      <use xlink:href="#DejaVuSans-20" x="596.337891"/>
      <use xlink:href="#DejaVuSans-5b" x="628.125"/>
      <use xlink:href="#DejaVuSans-64" x="667.138672"/>
      <use xlink:href="#DejaVuSans-42" x="730.615234"/>
      <use xlink:href="#DejaVuSans-63" x="799.21875"/>
      <use xlink:href="#DejaVuSans-2f" x="854.199219"/>
      <use xlink:href="#DejaVuSans-48" x="887.890625"/>
      <use xlink:href="#DejaVuSans-7a" x="963.085938"/>
      <use xlink:href="#DejaVuSans-5d" x="1015.576172"/>
     </g>
    </g>
   </g>
   <g id="line2d_50">
    <path d="M 398.487273 277.861064 
L 397.775149 280.333688 
L 397.413619 282.073395 
L 397.048342 280.402433 
L 396.67924 280.725094 
L 396.306232 279.469932 
L 395.929234 280.111928 
L 395.548161 279.631817 
L 395.162923 278.831264 
L 394.773428 279.1761 
L 394.379582 278.795782 
L 393.981285 279.534243 
L 393.170929 279.52759 
L 392.758656 279.802572 
L 392.341504 277.887675 
L 391.919356 278.643876 
L 391.492092 278.596198 
L 391.059584 280.462308 
L 390.621704 279.37014 
L 389.729278 276.110268 
L 389.274447 276.666886 
L 388.81367 277.001744 
L 388.346791 278.463142 
L 387.394059 279.109572 
L 386.907859 279.997721 
L 386.414859 279.10292 
L 385.914866 279.897929 
L 385.407679 278.353371 
L 384.893087 278.846787 
L 384.370871 278.120523 
L 383.840802 276.948521 
L 383.30264 276.42295 
L 382.756135 275.549216 
L 382.201022 276.45954 
L 381.637027 276.445126 
L 381.063862 276.560441 
L 380.481221 277.506248 
L 379.286228 276.970697 
L 378.673188 275.82198 
L 378.049297 275.361828 
L 377.414164 276.020456 
L 376.767377 275.810892 
L 376.1085 276.843185 
L 375.437071 275.976104 
L 374.054584 274.85178 
L 373.34246 274.911656 
L 372.615652 274.17763 
L 371.873543 272.818241 
L 371.115472 271.855803 
L 370.340739 272.19066 
L 369.548595 271.352408 
L 368.73824 269.645964 
L 367.908815 267.468281 
L 367.059402 262.466484 
L 366.189015 256.262748 
L 365.296589 251.812025 
L 364.380981 251.180009 
L 363.440954 256.182915 
L 361.482177 268.748945 
L 360.460398 272.424617 
L 359.408113 270.802443 
L 358.323446 269.348806 
L 357.204338 266.21312 
L 356.048532 266.371678 
L 354.853539 265.948116 
L 352.334688 266.479232 
L 349.621895 261.549507 
L 348.182963 257.633225 
L 346.682783 257.584438 
L 345.115906 257.161985 
L 343.476126 256.850412 
L 341.756325 254.79248 
L 339.948292 253.448614 
L 336.027709 252.134686 
L 333.890756 250.890612 
L 331.615843 247.168371 
L 329.183919 244.050425 
L 326.571693 241.247379 
L 323.750274 240.548835 
L 322.857849 237.293398 
L 322.555281 237.295616 
L 322.250094 237.096032 
L 322.096504 235.634633 
L 321.7873 237.067203 
L 321.725133 236.982934 
L 321.569233 236.910862 
L 321.444015 236.981825 
L 321.255349 238.072884 
L 321.223807 238.036294 
L 321.192236 237.999704 
L 321.160637 238.088408 
L 321.097353 238.338996 
L 321.033956 238.137195 
L 320.938645 237.484112 
L 320.77922 236.490627 
L 320.683217 236.499497 
L 320.458189 237.624929 
L 320.393631 237.886606 
L 320.328954 238.232552 
L 320.264158 238.112801 
L 320.199243 237.820078 
L 319.708531 234.819665 
L 319.54343 235.04586 
L 319.144005 232.382523 
L 319.009851 232.242814 
L 318.638272 233.459168 
L 318.536249 233.276216 
L 318.399758 232.726251 
L 318.159618 232.121955 
L 318.056198 232.726251 
L 317.883155 233.711974 
L 317.848444 233.501302 
L 317.709257 233.089937 
L 317.534498 233.716409 
L 317.394064 232.506708 
L 317.358868 233.203035 
L 317.28837 233.427012 
L 316.93375 232.251684 
L 316.575526 233.414816 
L 316.213624 236.569352 
L 315.847968 236.81994 
L 315.478479 234.442673 
L 315.105076 230.88786 
L 314.727675 230.50976 
L 313.96053 232.328192 
L 313.570605 232.568801 
L 313.176317 231.946764 
L 312.77757 230.062913 
L 311.966282 233.085502 
L 311.553526 234.873996 
L 311.13588 233.227428 
L 310.713226 230.901166 
L 310.285442 230.280238 
L 309.413979 229.84448 
L 308.065003 225.050028 
L 307.603623 225.839494 
L 307.136124 227.126811 
L 306.662341 229.568388 
L 306.182103 227.874142 
L 305.201542 222.936656 
L 304.700838 221.630489 
L 304.19292 221.191404 
L 303.677576 222.681632 
L 303.154585 224.852662 
L 302.623718 225.711982 
L 302.084733 227.036998 
L 301.537379 225.026744 
L 300.981391 224.236169 
L 300.416492 219.15343 
L 299.842393 219.595841 
L 299.258788 218.498129 
L 298.665358 219.085793 
L 298.061766 217.459184 
L 297.447657 217.820652 
L 296.82266 215.981153 
L 296.186381 214.633961 
L 295.538405 214.088432 
L 294.878293 214.637288 
L 294.205583 213.724745 
L 293.519785 212.34318 
L 292.820379 211.839785 
L 292.106814 210.128907 
L 291.378504 206.550809 
L 290.634829 206.555244 
L 289.875124 207.009852 
L 289.098685 208.598763 
L 288.304757 206.250324 
L 287.492534 206.50424 
L 286.661153 204.601539 
L 285.809688 204.80334 
L 284.937146 204.356494 
L 284.042455 206.024129 
L 283.124462 204.368691 
L 282.181922 204.029398 
L 281.213484 202.08678 
L 280.217686 202.59572 
L 279.192936 200.217344 
L 278.1375 197.029544 
L 277.049484 194.707716 
L 275.926812 193.107718 
L 274.767203 193.325043 
L 273.568145 190.747083 
L 272.326858 189.15152 
L 271.040258 187.150136 
L 269.704912 187.381875 
L 268.31698 184.711884 
L 266.87215 183.745011 
L 265.365556 182.353467 
L 263.791682 180.304404 
L 262.144237 177.858392 
L 260.416002 174.333516 
L 260.238426 175.329219 
L 259.700264 180.193524 
L 259.519035 179.642451 
L 259.153758 176.567748 
L 258.96969 176.160819 
L 258.598645 177.500249 
L 258.411648 177.55458 
L 258.223653 176.846057 
L 258.034651 176.597686 
L 257.844629 175.412379 
L 257.461485 174.704964 
L 257.26834 174.800321 
L 257.07413 174.519795 
L 256.878845 173.821251 
L 256.682471 173.928804 
L 256.484998 172.992977 
L 256.086701 173.51744 
L 255.885852 175.274888 
L 255.480687 176.563313 
L 255.070812 173.955416 
L 254.656114 170.009196 
L 254.446921 169.315088 
L 254.236479 170.035808 
L 254.024773 171.273228 
L 253.811788 170.90178 
L 253.381918 167.901368 
L 252.94674 166.110656 
L 252.72712 166.13394 
L 252.506123 166.589657 
L 252.283732 166.45771 
L 251.834695 163.917449 
L 251.608013 163.681275 
L 251.379864 163.957366 
L 251.150228 163.807678 
L 250.68642 162.5126 
L 250.452207 162.630132 
L 250.287327 161.425976 
L 250.26371 161.434846 
L 250.240076 161.443716 
L 249.811947 165.833456 
L 249.668073 166.711625 
L 249.644037 166.718278 
L 249.595916 166.979955 
L 249.547729 166.76263 
L 249.475324 166.566372 
L 249.451156 166.739345 
L 249.402771 167.049809 
L 249.330067 166.927841 
L 249.3058 166.921188 
L 249.159841 168.324929 
L 249.062199 167.981201 
L 248.792279 167.176212 
L 248.767638 167.171777 
L 248.520276 168.678636 
L 248.420843 168.41696 
L 248.395941 168.359302 
L 248.346084 168.4724 
L 248.271166 169.216404 
L 248.246158 168.738512 
L 248.045452 166.912318 
L 247.944668 166.369006 
L 247.894168 166.375659 
L 247.818283 166.363462 
L 247.792951 166.311348 
L 247.538629 163.53824 
L 247.513095 163.656881 
L 247.333841 164.523963 
L 247.282458 164.246763 
L 247.102025 161.19091 
L 247.076173 161.275179 
L 246.972576 161.940459 
L 246.894677 162.87296 
L 246.842649 162.544755 
L 246.764463 162.16998 
L 246.712243 162.240944 
L 246.449973 163.977324 
L 246.397284 163.910796 
L 246.159204 162.534776 
L 246.079485 162.44718 
L 245.892771 165.142673 
L 245.866016 165.504142 
L 245.812447 165.051752 
L 245.678165 164.753484 
L 245.624309 164.622646 
L 245.462244 162.745448 
L 245.435161 162.787582 
L 245.353786 163.009342 
L 245.299431 162.819737 
L 245.217742 162.684464 
L 245.081171 164.482937 
L 244.971532 164.22126 
L 244.861551 163.903035 
L 244.806431 163.980651 
L 244.72359 164.264504 
L 244.668254 164.12036 
L 244.529534 162.733251 
L 244.473892 162.799779 
L 244.418163 163.31648 
L 244.390265 163.063673 
L 244.278452 162.036924 
L 244.250443 162.14226 
L 244.138186 162.913985 
L 244.053757 163.940734 
L 243.997359 163.554872 
L 243.94087 163.346417 
L 243.884291 163.529369 
L 243.799251 164.163603 
L 243.770859 164.336576 
L 243.714006 164.143644 
L 243.457026 161.622233 
L 243.342208 160.648707 
L 243.313445 160.716344 
L 243.227016 160.364854 
L 243.082493 157.943235 
L 243.024518 157.974281 
L 242.820851 158.867974 
L 242.791659 158.8713 
L 242.67465 160.067696 
L 242.527841 162.193265 
L 242.498405 162.189939 
L 242.291666 160.391465 
L 242.232374 160.464646 
L 242.083707 160.158617 
L 241.93441 160.893752 
L 241.724327 158.797011 
L 241.422019 155.381907 
L 241.330818 155.615864 
L 241.178291 156.411982 
L 241.117095 156.363195 
L 240.871243 154.721062 
L 240.840391 154.692233 
L 240.809511 154.74102 
L 240.71671 155.242198 
L 240.592594 157.33783 
L 240.499219 156.464096 
L 240.280378 154.576918 
L 240.123227 154.718844 
L 240.06017 154.570265 
L 239.933717 154.646772 
L 239.902032 154.696668 
L 239.519581 152.170822 
L 239.455434 152.175257 
L 239.294553 151.570961 
L 239.262288 151.685168 
L 239.100522 152.481286 
L 238.970571 152.428064 
L 238.807457 152.205195 
L 238.774744 152.250656 
L 238.709225 152.484612 
L 238.313536 154.038041 
L 238.280361 153.972622 
L 238.213916 153.869504 
L 238.180647 153.897224 
L 237.812596 155.142406 
L 237.711548 155.019329 
L 237.644021 154.466038 
L 237.270294 150.383436 
L 237.201916 150.726056 
L 236.995982 152.082118 
L 236.927069 152.013372 
L 236.719518 150.122868 
L 236.684808 150.126195 
L 236.405883 148.858836 
L 236.300714 148.950867 
L 236.230427 149.154886 
L 236.124733 151.006028 
L 235.769757 150.308592 
L 235.41117 151.052597 
L 234.312986 145.687114 
L 233.939188 147.180668 
L 233.561383 147.240543 
L 233.179485 149.918295 
L 232.793404 149.424879 
L 232.403047 147.878103 
L 232.008319 148.317188 
L 231.20535 145.95877 
L 230.7969 142.859674 
L 230.383661 145.75586 
L 229.965521 146.417813 
L 229.54236 147.460085 
L 229.114058 144.484066 
L 228.680488 146.903468 
L 228.241518 146.52204 
L 227.797012 147.15073 
L 227.346829 143.420727 
L 226.890823 141.553508 
L 225.960721 140.58109 
L 225.486301 142.016986 
L 225.005409 140.968061 
L 224.517866 141.812967 
L 223.522071 135.230021 
L 223.013421 134.856356 
L 222.497323 139.145194 
L 221.973557 141.407146 
L 221.441891 142.036944 
L 220.902082 139.029879 
L 220.353878 141.460368 
L 219.797013 140.431402 
L 219.23121 141.330639 
L 218.656176 140.740757 
L 218.071605 143.753367 
L 216.872551 139.356975 
L 216.257373 135.503895 
L 215.631268 137.724821 
L 214.99384 138.609644 
L 214.344673 140.502365 
L 213.683325 138.561965 
L 213.009332 137.433207 
L 212.322199 136.624892 
L 211.621405 139.312623 
L 211.4065 142.162239 
L 211.334573 141.836252 
L 211.262499 142.633479 
L 211.045388 135.558226 
L 210.8999 138.833621 
L 210.459801 132.901541 
L 210.237673 135.363077 
L 210.088806 134.816439 
L 209.939308 136.20133 
L 209.864321 135.996202 
L 209.638396 130.428917 
L 209.411015 136.029466 
L 209.334894 135.136882 
L 209.258608 136.702508 
L 209.182157 135.6935 
L 209.105539 136.447484 
L 208.951803 134.074652 
L 208.874683 134.635704 
L 208.797393 136.334386 
L 208.564503 133.3373 
L 208.330064 137.062868 
L 208.25157 136.56169 
L 208.172901 135.285461 
L 207.935834 138.249284 
L 207.776898 136.926485 
L 207.697161 136.873263 
L 207.617243 137.055106 
L 207.456862 139.704029 
L 207.214913 135.374165 
L 207.052686 137.619485 
L 206.971292 137.132722 
L 206.725976 133.17985 
L 206.643823 133.801887 
L 206.561478 132.418104 
L 206.396209 135.008261 
L 206.230161 138.886844 
L 206.146843 136.939791 
L 205.979613 138.138404 
L 205.811587 140.930362 
L 205.727272 141.58788 
L 205.642755 140.948103 
L 205.558035 141.258567 
L 205.302647 135.642495 
L 205.217105 135.975135 
L 204.959225 139.886981 
L 204.699445 135.694608 
L 204.612424 136.454136 
L 204.525188 135.687956 
L 204.437736 133.824063 
L 204.350066 134.032517 
L 204.174069 135.447346 
L 204.08574 135.300984 
L 203.99719 132.879365 
L 203.908416 133.389413 
L 203.640745 136.498488 
L 203.551067 134.564741 
L 203.461161 135.259959 
L 203.371026 133.786364 
L 203.190059 135.595925 
L 202.916856 131.588722 
L 202.641519 136.190242 
L 202.549259 136.805626 
L 202.364013 140.259538 
L 202.271024 140.038887 
L 201.896594 134.144506 
L 201.707877 136.458572 
L 201.518144 140.078804 
L 201.422893 139.54658 
L 201.231616 134.99052 
L 201.135586 135.001608 
L 201.039295 134.718864 
L 200.942739 135.803271 
L 200.845919 133.675484 
L 200.651476 134.290868 
L 200.553851 136.141455 
L 200.357786 134.986085 
L 200.160624 137.164877 
L 200.061628 136.975272 
L 199.962353 133.757535 
L 199.862798 133.96488 
L 199.762961 134.63016 
L 199.562434 139.820453 
L 199.36076 138.230434 
L 199.259489 137.483103 
L 199.157926 138.578597 
L 198.851469 135.636951 
L 198.542324 139.665221 
L 198.230444 132.479088 
L 198.02098 130.589693 
L 197.915779 132.128708 
L 197.598281 138.975548 
L 197.170451 133.419351 
L 196.954573 128.164748 
L 196.846136 128.928711 
L 196.409022 138.678389 
L 196.298891 138.793704 
L 196.188415 139.755034 
L 195.854894 133.389413 
L 195.743016 134.031408 
L 195.630781 137.50417 
L 195.405234 135.171255 
L 195.291916 133.223093 
L 195.178234 136.162522 
L 195.064183 136.041663 
L 194.949762 135.28657 
L 194.834969 133.528013 
L 194.488329 136.596063 
L 194.255327 134.035844 
L 194.138246 133.654416 
L 194.020774 133.812975 
L 193.784651 131.75726 
L 193.665993 131.892533 
L 193.523311 137.632791 
L 193.497307 134.919557 
L 193.44524 133.6145 
L 193.419178 137.370005 
L 193.40614 139.5366 
L 193.340876 134.874096 
L 193.2624 131.033213 
L 193.236202 134.130092 
L 193.223096 134.703341 
L 193.196869 131.851508 
L 193.144357 129.251372 
L 193.052272 129.824621 
L 193.025917 130.18609 
L 192.986349 129.341184 
L 192.959945 128.861074 
L 192.946736 128.879924 
L 192.761284 142.527034 
L 192.734712 142.411719 
L 192.654873 137.646096 
L 192.614885 132.258437 
L 192.521404 133.30958 
L 192.387429 127.784429 
L 192.360572 128.754629 
L 192.293342 129.479784 
L 192.266414 128.11596 
L 192.252942 128.182488 
L 192.104412 133.016856 
L 192.090878 132.907085 
L 192.077339 132.797314 
L 192.063795 133.499184 
L 192.03669 134.684492 
L 191.968839 133.040141 
L 191.928065 133.135498 
L 191.914463 131.54437 
L 191.887244 129.0407 
L 191.80546 131.549914 
L 191.778156 130.545341 
L 191.737161 132.128708 
L 191.723486 132.128708 
L 191.682427 136.383173 
L 191.600166 133.482552 
L 191.531468 130.402306 
L 191.572703 134.26093 
L 191.448853 132.058853 
L 191.366044 134.409509 
L 191.407473 131.779436 
L 191.338398 132.701957 
L 191.296888 131.495583 
L 191.269187 133.076732 
L 191.255329 133.898352 
L 191.227596 131.492256 
L 191.172064 126.012567 
L 191.116444 128.932037 
L 191.074672 134.733279 
L 191.004941 129.807989 
L 190.97701 128.838898 
L 190.963036 130.928986 
L 190.935072 134.558088 
L 190.865064 130.311384 
L 190.851046 129.896693 
L 190.822993 131.86814 
L 190.752762 133.433765 
L 190.794917 131.600919 
L 190.696476 132.421431 
L 190.597759 128.421989 
L 190.569504 130.182764 
L 190.385288 135.326487 
L 190.356861 133.314015 
L 190.185819 129.010762 
L 190.171528 129.072855 
L 190.12862 132.092117 
L 190.042647 131.069804 
L 189.970842 130.036402 
L 189.942079 130.792604 
L 189.884483 131.910274 
L 189.855649 130.896831 
L 189.783462 128.712495 
L 189.740079 129.694892 
L 189.507795 135.775551 
L 189.420293 140.863834 
L 189.391077 137.635008 
L 189.259305 133.445962 
L 189.156474 135.1391 
L 189.14176 134.38068 
L 189.127039 133.622261 
L 189.053343 134.396204 
L 189.009051 136.04388 
L 188.964703 134.044714 
L 188.935107 133.335082 
L 188.9203 134.952821 
L 188.771883 144.35101 
L 188.757007 143.042626 
L 188.6079 135.013805 
L 188.563044 137.436533 
L 188.44315 136.667026 
L 188.141617 128.270084 
L 188.111322 130.417829 
L 188.081 127.490597 
L 188.065829 125.389421 
L 187.974668 126.259829 
L 187.684426 130.984426 
L 187.928999 126.15782 
L 187.669084 129.893367 
L 187.530702 124.501272 
L 187.28334 134.285324 
L 187.267822 132.612144 
L 187.112266 123.066485 
L 187.096673 123.151863 
L 187.081073 123.908064 
L 187.03423 122.778197 
L 186.987326 123.760594 
L 186.971677 123.678543 
L 186.79908 133.046794 
L 186.767608 129.697109 
L 186.688804 125.073413 
L 186.657233 127.699052 
L 186.625634 129.011871 
L 186.56235 127.103626 
L 186.546512 126.553661 
L 186.530666 127.938552 
L 186.45133 130.328016 
L 186.435441 129.322335 
L 186.32402 126.673412 
L 186.308074 127.07258 
L 186.27616 126.888519 
L 186.244217 128.044997 
L 186.228235 128.769044 
L 186.180244 127.135781 
L 186.148214 127.786647 
L 186.084067 128.267866 
L 186.05195 127.14576 
L 186.003719 130.420047 
L 185.955421 127.282143 
L 185.826304 122.574178 
L 185.810131 123.045418 
L 185.777763 122.374594 
L 185.761568 122.654012 
L 185.599205 125.35394 
L 185.452436 130.64846 
L 185.436091 129.412148 
L 185.403377 124.391501 
L 185.32146 127.241117 
L 185.206455 131.379159 
L 185.173528 130.012008 
L 185.157053 130.0109 
L 185.124079 130.240421 
L 185.10758 129.7337 
L 184.892395 124.266207 
L 184.875788 124.621023 
L 184.84255 126.691152 
L 184.80928 124.133151 
L 184.775979 124.645416 
L 184.742647 124.414786 
L 184.725969 124.887135 
L 184.642461 127.546037 
L 184.625735 126.196628 
L 184.59226 120.772378 
L 184.508434 122.053042 
L 184.323312 126.63793 
L 184.221925 125.65886 
L 184.255753 126.663432 
L 184.204998 125.899469 
L 184.188064 126.642365 
L 184.137212 124.760732 
L 184.001247 122.956714 
L 183.967173 123.198432 
L 183.727733 132.391493 
L 183.659021 129.003 
L 183.521196 125.220884 
L 183.330801 128.586092 
L 183.278696 127.900853 
L 183.191683 121.012988 
L 183.139372 122.992196 
L 183.052014 128.251234 
L 183.034516 129.68713 
L 182.981971 126.5082 
L 182.929348 123.290463 
L 182.841467 123.555466 
L 182.735721 125.25193 
L 182.700401 124.358237 
L 182.682728 123.589839 
L 182.647355 126.321922 
L 182.629655 126.838623 
L 182.594229 125.105568 
L 182.558768 124.802866 
L 182.52327 124.334952 
L 182.487737 125.157682 
L 182.327393 129.424344 
L 182.291662 127.317624 
L 182.273782 127.263293 
L 182.166316 131.882554 
L 182.22009 127.03488 
L 182.148373 129.989832 
L 182.040523 126.589143 
L 182.022516 128.214644 
L 181.932342 129.620602 
L 181.96844 127.81104 
L 181.91428 129.092813 
L 181.80571 125.459276 
L 181.860037 129.574032 
L 181.787583 127.776668 
L 181.7513 131.162943 
L 181.696805 127.66357 
L 181.551073 122.815896 
L 181.514546 123.733983 
L 181.47798 121.760319 
L 181.386401 120.352143 
L 181.368056 120.753528 
L 181.184085 128.40314 
L 181.128705 128.29226 
L 181.073239 123.975701 
L 180.9806 124.803975 
L 180.962043 125.136615 
L 180.943477 124.186373 
L 180.906314 122.883533 
L 180.869112 125.40938 
L 180.850496 125.063434 
L 180.738595 124.31832 
L 180.79459 125.2608 
L 180.71991 124.69753 
L 180.607592 128.68034 
L 180.532515 126.523724 
L 180.419598 124.822824 
L 180.457277 126.55477 
L 180.400743 125.041258 
L 180.381878 126.319704 
L 180.325223 123.077573 
L 180.287402 124.10654 
L 180.249541 122.780415 
L 180.097688 120.630452 
L 180.07866 120.648192 
L 180.002446 122.574178 
L 179.945177 126.044722 
L 179.887815 123.28381 
L 179.83036 121.951032 
L 179.811187 122.843616 
L 179.77281 125.31624 
L 179.676686 124.705292 
L 179.599597 125.438208 
L 179.483646 119.507237 
L 179.444911 122.390339 
L 177.62102 124.598625 
L 177.435009 124.138473 
L 177.248012 124.091904 
L 177.060017 123.79031 
L 176.871014 123.006388 
L 176.680993 123.640622 
L 176.489941 120.966196 
L 176.297848 120.147902 
L 176.104703 120.448387 
L 175.910494 122.27458 
L 175.321362 124.367995 
L 174.923065 122.779084 
L 174.722215 121.161345 
L 174.520215 120.797659 
L 174.317051 121.108123 
L 173.907175 120.121291 
L 173.700436 120.165643 
L 173.283284 120.975067 
L 173.072842 119.633419 
L 172.861136 121.043812 
L 172.218281 119.011382 
L 172.001364 119.268624 
L 171.783104 118.602235 
L 171.342487 114.541809 
L 171.120095 114.426494 
L 170.896292 116.443401 
L 170.671058 117.078744 
L 170.444376 117.20182 
L 170.216227 114.58727 
L 169.986592 115.531968 
L 169.75545 115.125038 
L 169.522784 114.41208 
L 169.288571 113.072649 
L 169.052791 112.389628 
L 168.815424 113.541672 
L 168.576447 112.641326 
L 168.335839 112.448395 
L 167.849639 113.521713 
L 167.604001 113.907576 
L 167.356639 112.038139 
L 167.107529 111.433843 
L 166.856646 111.367315 
L 166.603965 112.462809 
L 166.349459 115.310208 
L 166.093102 116.074171 
L 165.834867 116.049777 
L 165.574726 112.367452 
L 165.048613 109.709659 
L 164.782582 109.615411 
L 164.24442 109.891502 
L 163.972227 113.558304 
L 163.697915 115.127256 
L 163.421451 113.420812 
L 163.142802 108.613056 
L 162.861933 106.628304 
L 162.578807 106.637174 
L 162.293389 108.773832 
L 162.005642 109.186305 
L 161.715525 108.890256 
L 161.423001 106.656024 
L 161.12803 106.154846 
L 160.830569 107.910076 
L 160.530576 110.378265 
L 160.228008 109.470158 
L 159.614968 104.397398 
L 159.304403 102.875016 
L 158.674941 105.510633 
L 158.355944 107.0563 
L 158.034034 107.214859 
L 157.709157 105.399753 
L 157.381258 105.18132 
L 157.05028 105.315484 
L 156.716164 106.303425 
L 156.378851 105.795595 
L 156.038279 105.048264 
L 155.694385 104.632464 
L 155.347102 104.965104 
L 154.996364 103.919505 
L 154.6421 103.334059 
L 153.922709 103.391716 
L 153.18833 103.837454 
L 152.815323 103.657828 
L 152.057252 100.820409 
L 151.672014 100.686244 
L 150.888673 98.567328 
L 150.490375 99.1938 
L 150.087526 100.706203 
L 149.68002 102.901627 
L 149.267747 103.596844 
L 148.850595 104.054779 
L 148.428447 103.69331 
L 148.001182 100.619716 
L 147.130795 99.835795 
L 146.687406 102.376056 
L 146.238369 101.197401 
L 145.783538 102.153187 
L 145.322761 99.561921 
L 144.855881 100.585344 
L 144.382734 99.184929 
L 143.90315 101.317152 
L 143.41695 102.6588 
L 142.92395 103.256443 
L 142.423957 102.560116 
L 140.879962 97.806691 
L 140.349893 97.110364 
L 139.811731 98.801284 
L 139.265226 99.755961 
L 138.710113 98.264625 
L 138.146118 97.148064 
L 137.572952 96.703435 
L 136.990312 98.170377 
L 136.39788 99.191582 
L 135.795319 101.70634 
L 135.182279 102.720892 
L 134.558388 100.480008 
L 133.923255 97.189089 
L 133.276468 96.357489 
L 132.617591 95.952777 
L 131.946162 96.610296 
L 131.261696 96.940718 
L 130.563675 97.781188 
L 129.851551 96.271003 
L 129.124743 94.3051 
L 128.382633 93.515635 
L 127.624563 94.983686 
L 126.057686 93.683064 
L 125.247331 92.003232 
L 124.417906 91.558603 
L 123.568493 93.093182 
L 121.80568 93.846057 
L 120.890072 91.556385 
L 119.950045 92.278214 
L 118.984261 94.68431 
L 117.991268 96.807662 
L 116.969489 94.486944 
L 115.917204 91.405588 
L 114.832536 89.55611 
L 113.713429 93.758462 
L 112.557623 95.412792 
L 111.36263 96.395188 
L 110.125699 91.808083 
L 108.843779 90.02735 
L 107.513473 90.797966 
L 106.130985 91.115083 
L 104.692054 91.161652 
L 103.191874 89.54724 
L 101.624997 89.02056 
L 98.265416 85.551124 
L 98.08873 85.979121 
L 97.553293 90.871147 
L 97.372991 91.954444 
L 97.191762 92.322566 
L 97.009597 93.245088 
L 96.826485 93.431366 
L 96.457383 93.041068 
L 96.271373 92.76276 
L 96.084375 91.916745 
L 95.707378 88.717857 
L 95.517356 90.075028 
L 95.134212 95.866291 
L 94.941067 96.864211 
L 94.157725 92.220556 
L 93.959139 92.496648 
L 93.759428 92.066433 
L 93.153415 94.529078 
L 92.743539 92.389094 
L 92.5368 91.857979 
L 92.119648 94.12104 
L 91.909206 94.853956 
L 91.6975 94.372737 
L 91.270235 92.8182 
L 91.054645 92.325892 
L 90.837728 92.57759 
L 90.619467 93.041068 
L 89.956459 98.307868 
L 89.732655 97.939747 
L 89.052591 93.515635 
L 88.124934 93.523396 
L 87.889155 93.96359 
L 87.651787 94.115496 
L 87.412811 93.431366 
L 87.172203 91.94003 
L 86.686003 87.953894 
L 86.440365 88.175654 
L 85.943893 91.604064 
L 85.185823 95.409465 
L 84.929466 95.721038 
L 84.149015 91.150564 
L 83.884977 91.102886 
L 83.350892 93.470174 
L 83.080784 92.465601 
L 82.534278 89.337676 
L 81.979166 91.213766 
L 80.551889 92.879184 
L 80.259365 91.75486 
L 79.964393 92.074195 
L 79.666932 92.60531 
L 79.36694 93.948067 
L 79.064372 93.416952 
L 78.451332 90.763593 
L 78.140767 91.242595 
L 77.511305 91.380086 
L 77.160249 90.979809 
L 77.128161 91.027488 
L 76.999515 91.402262 
L 76.870398 91.961097 
L 76.675831 90.485284 
L 76.381952 90.4243 
L 76.184663 89.635944 
L 76.052521 89.615985 
L 75.853374 91.20046 
L 75.719981 93.171907 
L 75.518941 91.606281 
L 75.384275 91.693876 
L 75.181306 91.926724 
L 75.079381 91.954444 
L 74.840404 93.453542 
L 74.530748 95.503713 
L 74.392246 97.180219 
L 74.357535 97.081536 
L 74.253197 96.884169 
L 74.07861 97.486248 
L 73.867959 97.140302 
L 73.832727 97.140302 
L 73.832727 97.140302 
" clip-path="url(#pc9ec6a255f)" style="fill: none; stroke: #ff0000; stroke-width: 1.5; stroke-linecap: square"/>
   </g>
   <g id="patch_3">
    <path d="M 57.6 307.584 
L 57.6 41.472 
" style="fill: none; stroke: #000000; stroke-width: 0.8; stroke-linejoin: miter; stroke-linecap: square"/>
   </g>
   <g id="patch_4">
    <path d="M 414.72 307.584 
L 414.72 41.472 
" style="fill: none; stroke: #000000; stroke-width: 0.8; stroke-linejoin: miter; stroke-linecap: square"/>
   </g>
   <g id="patch_5">
    <path d="M 57.6 307.584 
L 414.72 307.584 
" style="fill: none; stroke: #000000; stroke-width: 0.8; stroke-linejoin: miter; stroke-linecap: square"/>
   </g>
   <g id="patch_6">
    <path d="M 57.6 41.472 
L 414.72 41.472 
" style="fill: none; stroke: #000000; stroke-width: 0.8; stroke-linejoin: miter; stroke-linecap: square"/>
   </g>
   <g id="text_17">
    <!-- PLL 1 - prototip 2 -->
    <g transform="translate(184.765312 35.472)scale(0.12 -0.12)">
     <defs>
      <path id="DejaVuSans-4c" d="M 628 4666 
L 1259 4666 
L 1259 531 
L 3531 531 
L 3531 0 
L 628 0 
L 628 4666 
z
" transform="scale(0.015625)"/>
      <path id="DejaVuSans-2d" d="M 313 2009 
L 1997 2009 
L 1997 1497 
L 313 1497 
L 313 2009 
z
" transform="scale(0.015625)"/>
      <path id="DejaVuSans-70" d="M 1159 525 
L 1159 -1331 
L 581 -1331 
L 581 3500 
L 1159 3500 
L 1159 2969 
Q 1341 3281 1617 3432 
Q 1894 3584 2278 3584 
Q 2916 3584 3314 3078 
Q 3713 2572 3713 1747 
Q 3713 922 3314 415 
Q 2916 -91 2278 -91 
Q 1894 -91 1617 61 
Q 1341 213 1159 525 
z
M 3116 1747 
Q 3116 2381 2855 2742 
Q 2594 3103 2138 3103 
Q 1681 3103 1420 2742 
Q 1159 2381 1159 1747 
Q 1159 1113 1420 752 
Q 1681 391 2138 391 
Q 2594 391 2855 752 
Q 3116 1113 3116 1747 
z
" transform="scale(0.015625)"/>
      <path id="DejaVuSans-74" d="M 1172 4494 
L 1172 3500 
L 2356 3500 
L 2356 3053 
L 1172 3053 
L 1172 1153 
Q 1172 725 1289 603 
Q 1406 481 1766 481 
L 2356 481 
L 2356 0 
L 1766 0 
Q 1100 0 847 248 
Q 594 497 594 1153 
L 594 3053 
L 172 3053 
L 172 3500 
L 594 3500 
L 594 4494 
L 1172 4494 
z
" transform="scale(0.015625)"/>
     </defs>
     <use xlink:href="#DejaVuSans-50"/>
     <use xlink:href="#DejaVuSans-4c" x="60.302734"/>
     <use xlink:href="#DejaVuSans-4c" x="116.015625"/>
     <use xlink:href="#DejaVuSans-20" x="171.728516"/>
     <use xlink:href="#DejaVuSans-31" x="203.515625"/>
     <use xlink:href="#DejaVuSans-20" x="267.138672"/>
     <use xlink:href="#DejaVuSans-2d" x="298.925781"/>
     <use xlink:href="#DejaVuSans-20" x="335.009766"/>
     <use xlink:href="#DejaVuSans-70" x="366.796875"/>
     <use xlink:href="#DejaVuSans-72" x="430.273438"/>
     <use xlink:href="#DejaVuSans-6f" x="469.136719"/>
     <use xlink:href="#DejaVuSans-74" x="530.318359"/>
     <use xlink:href="#DejaVuSans-6f" x="569.527344"/>
     <use xlink:href="#DejaVuSans-74" x="630.708984"/>
     <use xlink:href="#DejaVuSans-69" x="669.917969"/>
     <use xlink:href="#DejaVuSans-70" x="697.701172"/>
     <use xlink:href="#DejaVuSans-20" x="761.177734"/>
     <use xlink:href="#DejaVuSans-32" x="792.964844"/>
    </g>
   </g>
   <g id="legend_1">
    <g id="patch_7">
     <path d="M 292.90125 64.150125 
L 407.72 64.150125 
Q 409.72 64.150125 409.72 62.150125 
L 409.72 48.472 
Q 409.72 46.472 407.72 46.472 
L 292.90125 46.472 
Q 290.90125 46.472 290.90125 48.472 
L 290.90125 62.150125 
Q 290.90125 64.150125 292.90125 64.150125 
z
" style="fill: #ffffff; opacity: 0.8; stroke: #cccccc; stroke-linejoin: miter"/>
    </g>
    <g id="line2d_51">
     <path d="M 294.90125 54.570438 
L 304.90125 54.570438 
L 314.90125 54.570438 
" style="fill: none; stroke: #ff0000; stroke-width: 1.5; stroke-linecap: square"/>
    </g>
    <g id="text_18">
     <!-- 30 kHz BW, frac. -->
     <g transform="translate(322.90125 58.070438)scale(0.1 -0.1)">
      <defs>
       <path id="DejaVuSans-6b" d="M 581 4863 
L 1159 4863 
L 1159 1991 
L 2875 3500 
L 3609 3500 
L 1753 1863 
L 3688 0 
L 2938 0 
L 1159 1709 
L 1159 0 
L 581 0 
L 581 4863 
z
" transform="scale(0.015625)"/>
       <path id="DejaVuSans-57" d="M 213 4666 
L 850 4666 
L 1831 722 
L 2809 4666 
L 3519 4666 
L 4500 722 
L 5478 4666 
L 6119 4666 
L 4947 0 
L 4153 0 
L 3169 4050 
L 2175 0 
L 1381 0 
L 213 4666 
z
" transform="scale(0.015625)"/>
       <path id="DejaVuSans-2c" d="M 750 794 
L 1409 794 
L 1409 256 
L 897 -744 
L 494 -744 
L 750 256 
L 750 794 
z
" transform="scale(0.015625)"/>
       <path id="DejaVuSans-66" d="M 2375 4863 
L 2375 4384 
L 1825 4384 
Q 1516 4384 1395 4259 
Q 1275 4134 1275 3809 
L 1275 3500 
L 2222 3500 
L 2222 3053 
L 1275 3053 
L 1275 0 
L 697 0 
L 697 3053 
L 147 3053 
L 147 3500 
L 697 3500 
L 697 3744 
Q 697 4328 969 4595 
Q 1241 4863 1831 4863 
L 2375 4863 
z
" transform="scale(0.015625)"/>
       <path id="DejaVuSans-2e" d="M 684 794 
L 1344 794 
L 1344 0 
L 684 0 
L 684 794 
z
" transform="scale(0.015625)"/>
      </defs>
      <use xlink:href="#DejaVuSans-33"/>
      <use xlink:href="#DejaVuSans-30" x="63.623047"/>
      <use xlink:href="#DejaVuSans-20" x="127.246094"/>
      <use xlink:href="#DejaVuSans-6b" x="159.033203"/>
      <use xlink:href="#DejaVuSans-48" x="216.943359"/>
      <use xlink:href="#DejaVuSans-7a" x="292.138672"/>
      <use xlink:href="#DejaVuSans-20" x="344.628906"/>
      <use xlink:href="#DejaVuSans-42" x="376.416016"/>
      <use xlink:href="#DejaVuSans-57" x="441.394531"/>
      <use xlink:href="#DejaVuSans-2c" x="540.271484"/>
      <use xlink:href="#DejaVuSans-20" x="572.058594"/>
      <use xlink:href="#DejaVuSans-66" x="603.845703"/>
      <use xlink:href="#DejaVuSans-72" x="639.050781"/>
      <use xlink:href="#DejaVuSans-61" x="680.164062"/>
      <use xlink:href="#DejaVuSans-63" x="741.443359"/>
      <use xlink:href="#DejaVuSans-2e" x="796.423828"/>
     </g>
    </g>
   </g>
  </g>
 </g>
 <defs>
  <clipPath id="pc9ec6a255f">
   <rect x="57.6" y="41.472" width="357.12" height="266.112"/>
  </clipPath>
 </defs>
</svg>
