<?xml version="1.0" encoding="utf-8" standalone="no"?>
<!DOCTYPE svg PUBLIC "-//W3C//DTD SVG 1.1//EN"
  "http://www.w3.org/Graphics/SVG/1.1/DTD/svg11.dtd">
<svg xmlns:xlink="http://www.w3.org/1999/xlink" width="460.8pt" height="345.6pt" viewBox="0 0 460.8 345.6" xmlns="http://www.w3.org/2000/svg" version="1.1">
 <metadata>
  <rdf:RDF xmlns:dc="http://purl.org/dc/elements/1.1/" xmlns:cc="http://creativecommons.org/ns#" xmlns:rdf="http://www.w3.org/1999/02/22-rdf-syntax-ns#">
   <cc:Work>
    <dc:type rdf:resource="http://purl.org/dc/dcmitype/StillImage"/>
    <dc:date>2022-09-16T18:30:03.970606</dc:date>
    <dc:format>image/svg+xml</dc:format>
    <dc:creator>
     <cc:Agent>
      <dc:title>Matplotlib v3.5.1, https://matplotlib.org/</dc:title>
     </cc:Agent>
    </dc:creator>
   </cc:Work>
  </rdf:RDF>
 </metadata>
 <defs>
  <style type="text/css">*{stroke-linejoin: round; stroke-linecap: butt}</style>
 </defs>
 <g id="figure_1">
  <g id="patch_1">
   <path d="M 0 345.6 
L 460.8 345.6 
L 460.8 0 
L 0 0 
z
" style="fill: #ffffff"/>
  </g>
  <g id="axes_1">
   <g id="patch_2">
    <path d="M 57.6 307.584 
L 414.72 307.584 
L 414.72 41.472 
L 57.6 41.472 
z
" style="fill: #ffffff"/>
   </g>
   <g id="matplotlib.axis_1">
    <g id="xtick_1">
     <g id="line2d_1">
      <defs>
       <path id="m4ee96c9d4b" d="M 0 0 
L 0 3.5 
" style="stroke: #000000; stroke-width: 0.8"/>
      </defs>
      <g>
       <use xlink:href="#m4ee96c9d4b" x="73.832727" y="307.584" style="stroke: #000000; stroke-width: 0.8"/>
      </g>
     </g>
     <g id="text_1">
      <!-- $\mathdefault{10^{3}}$ -->
      <g transform="translate(65.032727 322.182437)scale(0.1 -0.1)">
       <defs>
        <path id="DejaVuSans-31" d="M 794 531 
L 1825 531 
L 1825 4091 
L 703 3866 
L 703 4441 
L 1819 4666 
L 2450 4666 
L 2450 531 
L 3481 531 
L 3481 0 
L 794 0 
L 794 531 
z
" transform="scale(0.015625)"/>
        <path id="DejaVuSans-30" d="M 2034 4250 
Q 1547 4250 1301 3770 
Q 1056 3291 1056 2328 
Q 1056 1369 1301 889 
Q 1547 409 2034 409 
Q 2525 409 2770 889 
Q 3016 1369 3016 2328 
Q 3016 3291 2770 3770 
Q 2525 4250 2034 4250 
z
M 2034 4750 
Q 2819 4750 3233 4129 
Q 3647 3509 3647 2328 
Q 3647 1150 3233 529 
Q 2819 -91 2034 -91 
Q 1250 -91 836 529 
Q 422 1150 422 2328 
Q 422 3509 836 4129 
Q 1250 4750 2034 4750 
z
" transform="scale(0.015625)"/>
        <path id="DejaVuSans-33" d="M 2597 2516 
Q 3050 2419 3304 2112 
Q 3559 1806 3559 1356 
Q 3559 666 3084 287 
Q 2609 -91 1734 -91 
Q 1441 -91 1130 -33 
Q 819 25 488 141 
L 488 750 
Q 750 597 1062 519 
Q 1375 441 1716 441 
Q 2309 441 2620 675 
Q 2931 909 2931 1356 
Q 2931 1769 2642 2001 
Q 2353 2234 1838 2234 
L 1294 2234 
L 1294 2753 
L 1863 2753 
Q 2328 2753 2575 2939 
Q 2822 3125 2822 3475 
Q 2822 3834 2567 4026 
Q 2313 4219 1838 4219 
Q 1578 4219 1281 4162 
Q 984 4106 628 3988 
L 628 4550 
Q 988 4650 1302 4700 
Q 1616 4750 1894 4750 
Q 2613 4750 3031 4423 
Q 3450 4097 3450 3541 
Q 3450 3153 3228 2886 
Q 3006 2619 2597 2516 
z
" transform="scale(0.015625)"/>
       </defs>
       <use xlink:href="#DejaVuSans-31" transform="translate(0 0.765625)"/>
       <use xlink:href="#DejaVuSans-30" transform="translate(63.623047 0.765625)"/>
       <use xlink:href="#DejaVuSans-33" transform="translate(128.203125 39.046875)scale(0.7)"/>
      </g>
     </g>
    </g>
    <g id="xtick_2">
     <g id="line2d_2">
      <g>
       <use xlink:href="#m4ee96c9d4b" x="154.996364" y="307.584" style="stroke: #000000; stroke-width: 0.8"/>
      </g>
     </g>
     <g id="text_2">
      <!-- $\mathdefault{10^{4}}$ -->
      <g transform="translate(146.196364 322.182437)scale(0.1 -0.1)">
       <defs>
        <path id="DejaVuSans-34" d="M 2419 4116 
L 825 1625 
L 2419 1625 
L 2419 4116 
z
M 2253 4666 
L 3047 4666 
L 3047 1625 
L 3713 1625 
L 3713 1100 
L 3047 1100 
L 3047 0 
L 2419 0 
L 2419 1100 
L 313 1100 
L 313 1709 
L 2253 4666 
z
" transform="scale(0.015625)"/>
       </defs>
       <use xlink:href="#DejaVuSans-31" transform="translate(0 0.684375)"/>
       <use xlink:href="#DejaVuSans-30" transform="translate(63.623047 0.684375)"/>
       <use xlink:href="#DejaVuSans-34" transform="translate(128.203125 38.965625)scale(0.7)"/>
      </g>
     </g>
    </g>
    <g id="xtick_3">
     <g id="line2d_3">
      <g>
       <use xlink:href="#m4ee96c9d4b" x="236.16" y="307.584" style="stroke: #000000; stroke-width: 0.8"/>
      </g>
     </g>
     <g id="text_3">
      <!-- $\mathdefault{10^{5}}$ -->
      <g transform="translate(227.36 322.182437)scale(0.1 -0.1)">
       <defs>
        <path id="DejaVuSans-35" d="M 691 4666 
L 3169 4666 
L 3169 4134 
L 1269 4134 
L 1269 2991 
Q 1406 3038 1543 3061 
Q 1681 3084 1819 3084 
Q 2600 3084 3056 2656 
Q 3513 2228 3513 1497 
Q 3513 744 3044 326 
Q 2575 -91 1722 -91 
Q 1428 -91 1123 -41 
Q 819 9 494 109 
L 494 744 
Q 775 591 1075 516 
Q 1375 441 1709 441 
Q 2250 441 2565 725 
Q 2881 1009 2881 1497 
Q 2881 1984 2565 2268 
Q 2250 2553 1709 2553 
Q 1456 2553 1204 2497 
Q 953 2441 691 2322 
L 691 4666 
z
" transform="scale(0.015625)"/>
       </defs>
       <use xlink:href="#DejaVuSans-31" transform="translate(0 0.684375)"/>
       <use xlink:href="#DejaVuSans-30" transform="translate(63.623047 0.684375)"/>
       <use xlink:href="#DejaVuSans-35" transform="translate(128.203125 38.965625)scale(0.7)"/>
      </g>
     </g>
    </g>
    <g id="xtick_4">
     <g id="line2d_4">
      <g>
       <use xlink:href="#m4ee96c9d4b" x="317.323636" y="307.584" style="stroke: #000000; stroke-width: 0.8"/>
      </g>
     </g>
     <g id="text_4">
      <!-- $\mathdefault{10^{6}}$ -->
      <g transform="translate(308.523636 322.182437)scale(0.1 -0.1)">
       <defs>
        <path id="DejaVuSans-36" d="M 2113 2584 
Q 1688 2584 1439 2293 
Q 1191 2003 1191 1497 
Q 1191 994 1439 701 
Q 1688 409 2113 409 
Q 2538 409 2786 701 
Q 3034 994 3034 1497 
Q 3034 2003 2786 2293 
Q 2538 2584 2113 2584 
z
M 3366 4563 
L 3366 3988 
Q 3128 4100 2886 4159 
Q 2644 4219 2406 4219 
Q 1781 4219 1451 3797 
Q 1122 3375 1075 2522 
Q 1259 2794 1537 2939 
Q 1816 3084 2150 3084 
Q 2853 3084 3261 2657 
Q 3669 2231 3669 1497 
Q 3669 778 3244 343 
Q 2819 -91 2113 -91 
Q 1303 -91 875 529 
Q 447 1150 447 2328 
Q 447 3434 972 4092 
Q 1497 4750 2381 4750 
Q 2619 4750 2861 4703 
Q 3103 4656 3366 4563 
z
" transform="scale(0.015625)"/>
       </defs>
       <use xlink:href="#DejaVuSans-31" transform="translate(0 0.765625)"/>
       <use xlink:href="#DejaVuSans-30" transform="translate(63.623047 0.765625)"/>
       <use xlink:href="#DejaVuSans-36" transform="translate(128.203125 39.046875)scale(0.7)"/>
      </g>
     </g>
    </g>
    <g id="xtick_5">
     <g id="line2d_5">
      <g>
       <use xlink:href="#m4ee96c9d4b" x="398.487273" y="307.584" style="stroke: #000000; stroke-width: 0.8"/>
      </g>
     </g>
     <g id="text_5">
      <!-- $\mathdefault{10^{7}}$ -->
      <g transform="translate(389.687273 322.182437)scale(0.1 -0.1)">
       <defs>
        <path id="DejaVuSans-37" d="M 525 4666 
L 3525 4666 
L 3525 4397 
L 1831 0 
L 1172 0 
L 2766 4134 
L 525 4134 
L 525 4666 
z
" transform="scale(0.015625)"/>
       </defs>
       <use xlink:href="#DejaVuSans-31" transform="translate(0 0.684375)"/>
       <use xlink:href="#DejaVuSans-30" transform="translate(63.623047 0.684375)"/>
       <use xlink:href="#DejaVuSans-37" transform="translate(128.203125 38.965625)scale(0.7)"/>
      </g>
     </g>
    </g>
    <g id="xtick_6">
     <g id="line2d_6">
      <defs>
       <path id="m52373ed252" d="M 0 0 
L 0 2 
" style="stroke: #000000; stroke-width: 0.6"/>
      </defs>
      <g>
       <use xlink:href="#m52373ed252" x="61.260321" y="307.584" style="stroke: #000000; stroke-width: 0.6"/>
      </g>
     </g>
    </g>
    <g id="xtick_7">
     <g id="line2d_7">
      <g>
       <use xlink:href="#m52373ed252" x="65.967158" y="307.584" style="stroke: #000000; stroke-width: 0.6"/>
      </g>
     </g>
    </g>
    <g id="xtick_8">
     <g id="line2d_8">
      <g>
       <use xlink:href="#m52373ed252" x="70.118883" y="307.584" style="stroke: #000000; stroke-width: 0.6"/>
      </g>
     </g>
    </g>
    <g id="xtick_9">
     <g id="line2d_9">
      <g>
       <use xlink:href="#m52373ed252" x="98.265416" y="307.584" style="stroke: #000000; stroke-width: 0.6"/>
      </g>
     </g>
    </g>
    <g id="xtick_10">
     <g id="line2d_10">
      <g>
       <use xlink:href="#m52373ed252" x="112.557623" y="307.584" style="stroke: #000000; stroke-width: 0.6"/>
      </g>
     </g>
    </g>
    <g id="xtick_11">
     <g id="line2d_11">
      <g>
       <use xlink:href="#m52373ed252" x="122.698105" y="307.584" style="stroke: #000000; stroke-width: 0.6"/>
      </g>
     </g>
    </g>
    <g id="xtick_12">
     <g id="line2d_12">
      <g>
       <use xlink:href="#m52373ed252" x="130.563675" y="307.584" style="stroke: #000000; stroke-width: 0.6"/>
      </g>
     </g>
    </g>
    <g id="xtick_13">
     <g id="line2d_13">
      <g>
       <use xlink:href="#m52373ed252" x="136.990312" y="307.584" style="stroke: #000000; stroke-width: 0.6"/>
      </g>
     </g>
    </g>
    <g id="xtick_14">
     <g id="line2d_14">
      <g>
       <use xlink:href="#m52373ed252" x="142.423957" y="307.584" style="stroke: #000000; stroke-width: 0.6"/>
      </g>
     </g>
    </g>
    <g id="xtick_15">
     <g id="line2d_15">
      <g>
       <use xlink:href="#m52373ed252" x="147.130795" y="307.584" style="stroke: #000000; stroke-width: 0.6"/>
      </g>
     </g>
    </g>
    <g id="xtick_16">
     <g id="line2d_16">
      <g>
       <use xlink:href="#m52373ed252" x="151.282519" y="307.584" style="stroke: #000000; stroke-width: 0.6"/>
      </g>
     </g>
    </g>
    <g id="xtick_17">
     <g id="line2d_17">
      <g>
       <use xlink:href="#m52373ed252" x="179.429053" y="307.584" style="stroke: #000000; stroke-width: 0.6"/>
      </g>
     </g>
    </g>
    <g id="xtick_18">
     <g id="line2d_18">
      <g>
       <use xlink:href="#m52373ed252" x="193.72126" y="307.584" style="stroke: #000000; stroke-width: 0.6"/>
      </g>
     </g>
    </g>
    <g id="xtick_19">
     <g id="line2d_19">
      <g>
       <use xlink:href="#m52373ed252" x="203.861742" y="307.584" style="stroke: #000000; stroke-width: 0.6"/>
      </g>
     </g>
    </g>
    <g id="xtick_20">
     <g id="line2d_20">
      <g>
       <use xlink:href="#m52373ed252" x="211.727311" y="307.584" style="stroke: #000000; stroke-width: 0.6"/>
      </g>
     </g>
    </g>
    <g id="xtick_21">
     <g id="line2d_21">
      <g>
       <use xlink:href="#m52373ed252" x="218.153949" y="307.584" style="stroke: #000000; stroke-width: 0.6"/>
      </g>
     </g>
    </g>
    <g id="xtick_22">
     <g id="line2d_22">
      <g>
       <use xlink:href="#m52373ed252" x="223.587594" y="307.584" style="stroke: #000000; stroke-width: 0.6"/>
      </g>
     </g>
    </g>
    <g id="xtick_23">
     <g id="line2d_23">
      <g>
       <use xlink:href="#m52373ed252" x="228.294431" y="307.584" style="stroke: #000000; stroke-width: 0.6"/>
      </g>
     </g>
    </g>
    <g id="xtick_24">
     <g id="line2d_24">
      <g>
       <use xlink:href="#m52373ed252" x="232.446156" y="307.584" style="stroke: #000000; stroke-width: 0.6"/>
      </g>
     </g>
    </g>
    <g id="xtick_25">
     <g id="line2d_25">
      <g>
       <use xlink:href="#m52373ed252" x="260.592689" y="307.584" style="stroke: #000000; stroke-width: 0.6"/>
      </g>
     </g>
    </g>
    <g id="xtick_26">
     <g id="line2d_26">
      <g>
       <use xlink:href="#m52373ed252" x="274.884896" y="307.584" style="stroke: #000000; stroke-width: 0.6"/>
      </g>
     </g>
    </g>
    <g id="xtick_27">
     <g id="line2d_27">
      <g>
       <use xlink:href="#m52373ed252" x="285.025378" y="307.584" style="stroke: #000000; stroke-width: 0.6"/>
      </g>
     </g>
    </g>
    <g id="xtick_28">
     <g id="line2d_28">
      <g>
       <use xlink:href="#m52373ed252" x="292.890947" y="307.584" style="stroke: #000000; stroke-width: 0.6"/>
      </g>
     </g>
    </g>
    <g id="xtick_29">
     <g id="line2d_29">
      <g>
       <use xlink:href="#m52373ed252" x="299.317585" y="307.584" style="stroke: #000000; stroke-width: 0.6"/>
      </g>
     </g>
    </g>
    <g id="xtick_30">
     <g id="line2d_30">
      <g>
       <use xlink:href="#m52373ed252" x="304.75123" y="307.584" style="stroke: #000000; stroke-width: 0.6"/>
      </g>
     </g>
    </g>
    <g id="xtick_31">
     <g id="line2d_31">
      <g>
       <use xlink:href="#m52373ed252" x="309.458067" y="307.584" style="stroke: #000000; stroke-width: 0.6"/>
      </g>
     </g>
    </g>
    <g id="xtick_32">
     <g id="line2d_32">
      <g>
       <use xlink:href="#m52373ed252" x="313.609792" y="307.584" style="stroke: #000000; stroke-width: 0.6"/>
      </g>
     </g>
    </g>
    <g id="xtick_33">
     <g id="line2d_33">
      <g>
       <use xlink:href="#m52373ed252" x="341.756325" y="307.584" style="stroke: #000000; stroke-width: 0.6"/>
      </g>
     </g>
    </g>
    <g id="xtick_34">
     <g id="line2d_34">
      <g>
       <use xlink:href="#m52373ed252" x="356.048532" y="307.584" style="stroke: #000000; stroke-width: 0.6"/>
      </g>
     </g>
    </g>
    <g id="xtick_35">
     <g id="line2d_35">
      <g>
       <use xlink:href="#m52373ed252" x="366.189015" y="307.584" style="stroke: #000000; stroke-width: 0.6"/>
      </g>
     </g>
    </g>
    <g id="xtick_36">
     <g id="line2d_36">
      <g>
       <use xlink:href="#m52373ed252" x="374.054584" y="307.584" style="stroke: #000000; stroke-width: 0.6"/>
      </g>
     </g>
    </g>
    <g id="xtick_37">
     <g id="line2d_37">
      <g>
       <use xlink:href="#m52373ed252" x="380.481221" y="307.584" style="stroke: #000000; stroke-width: 0.6"/>
      </g>
     </g>
    </g>
    <g id="xtick_38">
     <g id="line2d_38">
      <g>
       <use xlink:href="#m52373ed252" x="385.914866" y="307.584" style="stroke: #000000; stroke-width: 0.6"/>
      </g>
     </g>
    </g>
    <g id="xtick_39">
     <g id="line2d_39">
      <g>
       <use xlink:href="#m52373ed252" x="390.621704" y="307.584" style="stroke: #000000; stroke-width: 0.6"/>
      </g>
     </g>
    </g>
    <g id="xtick_40">
     <g id="line2d_40">
      <g>
       <use xlink:href="#m52373ed252" x="394.773428" y="307.584" style="stroke: #000000; stroke-width: 0.6"/>
      </g>
     </g>
    </g>
    <g id="text_6">
     <!-- Frequency [Hz] -->
     <g transform="translate(198.455312 335.860562)scale(0.1 -0.1)">
      <defs>
       <path id="DejaVuSans-46" d="M 628 4666 
L 3309 4666 
L 3309 4134 
L 1259 4134 
L 1259 2759 
L 3109 2759 
L 3109 2228 
L 1259 2228 
L 1259 0 
L 628 0 
L 628 4666 
z
" transform="scale(0.015625)"/>
       <path id="DejaVuSans-72" d="M 2631 2963 
Q 2534 3019 2420 3045 
Q 2306 3072 2169 3072 
Q 1681 3072 1420 2755 
Q 1159 2438 1159 1844 
L 1159 0 
L 581 0 
L 581 3500 
L 1159 3500 
L 1159 2956 
Q 1341 3275 1631 3429 
Q 1922 3584 2338 3584 
Q 2397 3584 2469 3576 
Q 2541 3569 2628 3553 
L 2631 2963 
z
" transform="scale(0.015625)"/>
       <path id="DejaVuSans-65" d="M 3597 1894 
L 3597 1613 
L 953 1613 
Q 991 1019 1311 708 
Q 1631 397 2203 397 
Q 2534 397 2845 478 
Q 3156 559 3463 722 
L 3463 178 
Q 3153 47 2828 -22 
Q 2503 -91 2169 -91 
Q 1331 -91 842 396 
Q 353 884 353 1716 
Q 353 2575 817 3079 
Q 1281 3584 2069 3584 
Q 2775 3584 3186 3129 
Q 3597 2675 3597 1894 
z
M 3022 2063 
Q 3016 2534 2758 2815 
Q 2500 3097 2075 3097 
Q 1594 3097 1305 2825 
Q 1016 2553 972 2059 
L 3022 2063 
z
" transform="scale(0.015625)"/>
       <path id="DejaVuSans-71" d="M 947 1747 
Q 947 1113 1208 752 
Q 1469 391 1925 391 
Q 2381 391 2643 752 
Q 2906 1113 2906 1747 
Q 2906 2381 2643 2742 
Q 2381 3103 1925 3103 
Q 1469 3103 1208 2742 
Q 947 2381 947 1747 
z
M 2906 525 
Q 2725 213 2448 61 
Q 2172 -91 1784 -91 
Q 1150 -91 751 415 
Q 353 922 353 1747 
Q 353 2572 751 3078 
Q 1150 3584 1784 3584 
Q 2172 3584 2448 3432 
Q 2725 3281 2906 2969 
L 2906 3500 
L 3481 3500 
L 3481 -1331 
L 2906 -1331 
L 2906 525 
z
" transform="scale(0.015625)"/>
       <path id="DejaVuSans-75" d="M 544 1381 
L 544 3500 
L 1119 3500 
L 1119 1403 
Q 1119 906 1312 657 
Q 1506 409 1894 409 
Q 2359 409 2629 706 
Q 2900 1003 2900 1516 
L 2900 3500 
L 3475 3500 
L 3475 0 
L 2900 0 
L 2900 538 
Q 2691 219 2414 64 
Q 2138 -91 1772 -91 
Q 1169 -91 856 284 
Q 544 659 544 1381 
z
M 1991 3584 
L 1991 3584 
z
" transform="scale(0.015625)"/>
       <path id="DejaVuSans-6e" d="M 3513 2113 
L 3513 0 
L 2938 0 
L 2938 2094 
Q 2938 2591 2744 2837 
Q 2550 3084 2163 3084 
Q 1697 3084 1428 2787 
Q 1159 2491 1159 1978 
L 1159 0 
L 581 0 
L 581 3500 
L 1159 3500 
L 1159 2956 
Q 1366 3272 1645 3428 
Q 1925 3584 2291 3584 
Q 2894 3584 3203 3211 
Q 3513 2838 3513 2113 
z
" transform="scale(0.015625)"/>
       <path id="DejaVuSans-63" d="M 3122 3366 
L 3122 2828 
Q 2878 2963 2633 3030 
Q 2388 3097 2138 3097 
Q 1578 3097 1268 2742 
Q 959 2388 959 1747 
Q 959 1106 1268 751 
Q 1578 397 2138 397 
Q 2388 397 2633 464 
Q 2878 531 3122 666 
L 3122 134 
Q 2881 22 2623 -34 
Q 2366 -91 2075 -91 
Q 1284 -91 818 406 
Q 353 903 353 1747 
Q 353 2603 823 3093 
Q 1294 3584 2113 3584 
Q 2378 3584 2631 3529 
Q 2884 3475 3122 3366 
z
" transform="scale(0.015625)"/>
       <path id="DejaVuSans-79" d="M 2059 -325 
Q 1816 -950 1584 -1140 
Q 1353 -1331 966 -1331 
L 506 -1331 
L 506 -850 
L 844 -850 
Q 1081 -850 1212 -737 
Q 1344 -625 1503 -206 
L 1606 56 
L 191 3500 
L 800 3500 
L 1894 763 
L 2988 3500 
L 3597 3500 
L 2059 -325 
z
" transform="scale(0.015625)"/>
       <path id="DejaVuSans-20" transform="scale(0.015625)"/>
       <path id="DejaVuSans-5b" d="M 550 4863 
L 1875 4863 
L 1875 4416 
L 1125 4416 
L 1125 -397 
L 1875 -397 
L 1875 -844 
L 550 -844 
L 550 4863 
z
" transform="scale(0.015625)"/>
       <path id="DejaVuSans-48" d="M 628 4666 
L 1259 4666 
L 1259 2753 
L 3553 2753 
L 3553 4666 
L 4184 4666 
L 4184 0 
L 3553 0 
L 3553 2222 
L 1259 2222 
L 1259 0 
L 628 0 
L 628 4666 
z
" transform="scale(0.015625)"/>
       <path id="DejaVuSans-7a" d="M 353 3500 
L 3084 3500 
L 3084 2975 
L 922 459 
L 3084 459 
L 3084 0 
L 275 0 
L 275 525 
L 2438 3041 
L 353 3041 
L 353 3500 
z
" transform="scale(0.015625)"/>
       <path id="DejaVuSans-5d" d="M 1947 4863 
L 1947 -844 
L 622 -844 
L 622 -397 
L 1369 -397 
L 1369 4416 
L 622 4416 
L 622 4863 
L 1947 4863 
z
" transform="scale(0.015625)"/>
      </defs>
      <use xlink:href="#DejaVuSans-46"/>
      <use xlink:href="#DejaVuSans-72" x="50.269531"/>
      <use xlink:href="#DejaVuSans-65" x="89.132812"/>
      <use xlink:href="#DejaVuSans-71" x="150.65625"/>
      <use xlink:href="#DejaVuSans-75" x="214.132812"/>
      <use xlink:href="#DejaVuSans-65" x="277.511719"/>
      <use xlink:href="#DejaVuSans-6e" x="339.035156"/>
      <use xlink:href="#DejaVuSans-63" x="402.414062"/>
      <use xlink:href="#DejaVuSans-79" x="457.394531"/>
      <use xlink:href="#DejaVuSans-20" x="516.574219"/>
      <use xlink:href="#DejaVuSans-5b" x="548.361328"/>
      <use xlink:href="#DejaVuSans-48" x="587.375"/>
      <use xlink:href="#DejaVuSans-7a" x="662.570312"/>
      <use xlink:href="#DejaVuSans-5d" x="715.060547"/>
     </g>
    </g>
   </g>
   <g id="matplotlib.axis_2">
    <g id="ytick_1">
     <g id="line2d_41">
      <defs>
       <path id="ma8099cb47f" d="M 0 0 
L -3.5 0 
" style="stroke: #000000; stroke-width: 0.8"/>
      </defs>
      <g>
       <use xlink:href="#ma8099cb47f" x="57.6" y="307.584" style="stroke: #000000; stroke-width: 0.8"/>
      </g>
     </g>
     <g id="text_7">
      <!-- −140 -->
      <g transform="translate(23.132812 311.383219)scale(0.1 -0.1)">
       <defs>
        <path id="DejaVuSans-2212" d="M 678 2272 
L 4684 2272 
L 4684 1741 
L 678 1741 
L 678 2272 
z
" transform="scale(0.015625)"/>
       </defs>
       <use xlink:href="#DejaVuSans-2212"/>
       <use xlink:href="#DejaVuSans-31" x="83.789062"/>
       <use xlink:href="#DejaVuSans-34" x="147.412109"/>
       <use xlink:href="#DejaVuSans-30" x="211.035156"/>
      </g>
     </g>
    </g>
    <g id="ytick_2">
     <g id="line2d_42">
      <g>
       <use xlink:href="#ma8099cb47f" x="57.6" y="274.32" style="stroke: #000000; stroke-width: 0.8"/>
      </g>
     </g>
     <g id="text_8">
      <!-- −130 -->
      <g transform="translate(23.132812 278.119219)scale(0.1 -0.1)">
       <use xlink:href="#DejaVuSans-2212"/>
       <use xlink:href="#DejaVuSans-31" x="83.789062"/>
       <use xlink:href="#DejaVuSans-33" x="147.412109"/>
       <use xlink:href="#DejaVuSans-30" x="211.035156"/>
      </g>
     </g>
    </g>
    <g id="ytick_3">
     <g id="line2d_43">
      <g>
       <use xlink:href="#ma8099cb47f" x="57.6" y="241.056" style="stroke: #000000; stroke-width: 0.8"/>
      </g>
     </g>
     <g id="text_9">
      <!-- −120 -->
      <g transform="translate(23.132812 244.855219)scale(0.1 -0.1)">
       <defs>
        <path id="DejaVuSans-32" d="M 1228 531 
L 3431 531 
L 3431 0 
L 469 0 
L 469 531 
Q 828 903 1448 1529 
Q 2069 2156 2228 2338 
Q 2531 2678 2651 2914 
Q 2772 3150 2772 3378 
Q 2772 3750 2511 3984 
Q 2250 4219 1831 4219 
Q 1534 4219 1204 4116 
Q 875 4013 500 3803 
L 500 4441 
Q 881 4594 1212 4672 
Q 1544 4750 1819 4750 
Q 2544 4750 2975 4387 
Q 3406 4025 3406 3419 
Q 3406 3131 3298 2873 
Q 3191 2616 2906 2266 
Q 2828 2175 2409 1742 
Q 1991 1309 1228 531 
z
" transform="scale(0.015625)"/>
       </defs>
       <use xlink:href="#DejaVuSans-2212"/>
       <use xlink:href="#DejaVuSans-31" x="83.789062"/>
       <use xlink:href="#DejaVuSans-32" x="147.412109"/>
       <use xlink:href="#DejaVuSans-30" x="211.035156"/>
      </g>
     </g>
    </g>
    <g id="ytick_4">
     <g id="line2d_44">
      <g>
       <use xlink:href="#ma8099cb47f" x="57.6" y="207.792" style="stroke: #000000; stroke-width: 0.8"/>
      </g>
     </g>
     <g id="text_10">
      <!-- −110 -->
      <g transform="translate(23.132812 211.591219)scale(0.1 -0.1)">
       <use xlink:href="#DejaVuSans-2212"/>
       <use xlink:href="#DejaVuSans-31" x="83.789062"/>
       <use xlink:href="#DejaVuSans-31" x="147.412109"/>
       <use xlink:href="#DejaVuSans-30" x="211.035156"/>
      </g>
     </g>
    </g>
    <g id="ytick_5">
     <g id="line2d_45">
      <g>
       <use xlink:href="#ma8099cb47f" x="57.6" y="174.528" style="stroke: #000000; stroke-width: 0.8"/>
      </g>
     </g>
     <g id="text_11">
      <!-- −100 -->
      <g transform="translate(23.132812 178.327219)scale(0.1 -0.1)">
       <use xlink:href="#DejaVuSans-2212"/>
       <use xlink:href="#DejaVuSans-31" x="83.789062"/>
       <use xlink:href="#DejaVuSans-30" x="147.412109"/>
       <use xlink:href="#DejaVuSans-30" x="211.035156"/>
      </g>
     </g>
    </g>
    <g id="ytick_6">
     <g id="line2d_46">
      <g>
       <use xlink:href="#ma8099cb47f" x="57.6" y="141.264" style="stroke: #000000; stroke-width: 0.8"/>
      </g>
     </g>
     <g id="text_12">
      <!-- −90 -->
      <g transform="translate(29.495313 145.063219)scale(0.1 -0.1)">
       <defs>
        <path id="DejaVuSans-39" d="M 703 97 
L 703 672 
Q 941 559 1184 500 
Q 1428 441 1663 441 
Q 2288 441 2617 861 
Q 2947 1281 2994 2138 
Q 2813 1869 2534 1725 
Q 2256 1581 1919 1581 
Q 1219 1581 811 2004 
Q 403 2428 403 3163 
Q 403 3881 828 4315 
Q 1253 4750 1959 4750 
Q 2769 4750 3195 4129 
Q 3622 3509 3622 2328 
Q 3622 1225 3098 567 
Q 2575 -91 1691 -91 
Q 1453 -91 1209 -44 
Q 966 3 703 97 
z
M 1959 2075 
Q 2384 2075 2632 2365 
Q 2881 2656 2881 3163 
Q 2881 3666 2632 3958 
Q 2384 4250 1959 4250 
Q 1534 4250 1286 3958 
Q 1038 3666 1038 3163 
Q 1038 2656 1286 2365 
Q 1534 2075 1959 2075 
z
" transform="scale(0.015625)"/>
       </defs>
       <use xlink:href="#DejaVuSans-2212"/>
       <use xlink:href="#DejaVuSans-39" x="83.789062"/>
       <use xlink:href="#DejaVuSans-30" x="147.412109"/>
      </g>
     </g>
    </g>
    <g id="ytick_7">
     <g id="line2d_47">
      <g>
       <use xlink:href="#ma8099cb47f" x="57.6" y="108" style="stroke: #000000; stroke-width: 0.8"/>
      </g>
     </g>
     <g id="text_13">
      <!-- −80 -->
      <g transform="translate(29.495313 111.799219)scale(0.1 -0.1)">
       <defs>
        <path id="DejaVuSans-38" d="M 2034 2216 
Q 1584 2216 1326 1975 
Q 1069 1734 1069 1313 
Q 1069 891 1326 650 
Q 1584 409 2034 409 
Q 2484 409 2743 651 
Q 3003 894 3003 1313 
Q 3003 1734 2745 1975 
Q 2488 2216 2034 2216 
z
M 1403 2484 
Q 997 2584 770 2862 
Q 544 3141 544 3541 
Q 544 4100 942 4425 
Q 1341 4750 2034 4750 
Q 2731 4750 3128 4425 
Q 3525 4100 3525 3541 
Q 3525 3141 3298 2862 
Q 3072 2584 2669 2484 
Q 3125 2378 3379 2068 
Q 3634 1759 3634 1313 
Q 3634 634 3220 271 
Q 2806 -91 2034 -91 
Q 1263 -91 848 271 
Q 434 634 434 1313 
Q 434 1759 690 2068 
Q 947 2378 1403 2484 
z
M 1172 3481 
Q 1172 3119 1398 2916 
Q 1625 2713 2034 2713 
Q 2441 2713 2670 2916 
Q 2900 3119 2900 3481 
Q 2900 3844 2670 4047 
Q 2441 4250 2034 4250 
Q 1625 4250 1398 4047 
Q 1172 3844 1172 3481 
z
" transform="scale(0.015625)"/>
       </defs>
       <use xlink:href="#DejaVuSans-2212"/>
       <use xlink:href="#DejaVuSans-38" x="83.789062"/>
       <use xlink:href="#DejaVuSans-30" x="147.412109"/>
      </g>
     </g>
    </g>
    <g id="ytick_8">
     <g id="line2d_48">
      <g>
       <use xlink:href="#ma8099cb47f" x="57.6" y="74.736" style="stroke: #000000; stroke-width: 0.8"/>
      </g>
     </g>
     <g id="text_14">
      <!-- −70 -->
      <g transform="translate(29.495313 78.535219)scale(0.1 -0.1)">
       <use xlink:href="#DejaVuSans-2212"/>
       <use xlink:href="#DejaVuSans-37" x="83.789062"/>
       <use xlink:href="#DejaVuSans-30" x="147.412109"/>
      </g>
     </g>
    </g>
    <g id="ytick_9">
     <g id="line2d_49">
      <g>
       <use xlink:href="#ma8099cb47f" x="57.6" y="41.472" style="stroke: #000000; stroke-width: 0.8"/>
      </g>
     </g>
     <g id="text_15">
      <!-- −60 -->
      <g transform="translate(29.495313 45.271219)scale(0.1 -0.1)">
       <use xlink:href="#DejaVuSans-2212"/>
       <use xlink:href="#DejaVuSans-36" x="83.789062"/>
       <use xlink:href="#DejaVuSans-30" x="147.412109"/>
      </g>
     </g>
    </g>
    <g id="text_16">
     <!-- Phase noise [dBc/Hz] -->
     <g transform="translate(17.053125 227.257688)rotate(-90)scale(0.1 -0.1)">
      <defs>
       <path id="DejaVuSans-50" d="M 1259 4147 
L 1259 2394 
L 2053 2394 
Q 2494 2394 2734 2622 
Q 2975 2850 2975 3272 
Q 2975 3691 2734 3919 
Q 2494 4147 2053 4147 
L 1259 4147 
z
M 628 4666 
L 2053 4666 
Q 2838 4666 3239 4311 
Q 3641 3956 3641 3272 
Q 3641 2581 3239 2228 
Q 2838 1875 2053 1875 
L 1259 1875 
L 1259 0 
L 628 0 
L 628 4666 
z
" transform="scale(0.015625)"/>
       <path id="DejaVuSans-68" d="M 3513 2113 
L 3513 0 
L 2938 0 
L 2938 2094 
Q 2938 2591 2744 2837 
Q 2550 3084 2163 3084 
Q 1697 3084 1428 2787 
Q 1159 2491 1159 1978 
L 1159 0 
L 581 0 
L 581 4863 
L 1159 4863 
L 1159 2956 
Q 1366 3272 1645 3428 
Q 1925 3584 2291 3584 
Q 2894 3584 3203 3211 
Q 3513 2838 3513 2113 
z
" transform="scale(0.015625)"/>
       <path id="DejaVuSans-61" d="M 2194 1759 
Q 1497 1759 1228 1600 
Q 959 1441 959 1056 
Q 959 750 1161 570 
Q 1363 391 1709 391 
Q 2188 391 2477 730 
Q 2766 1069 2766 1631 
L 2766 1759 
L 2194 1759 
z
M 3341 1997 
L 3341 0 
L 2766 0 
L 2766 531 
Q 2569 213 2275 61 
Q 1981 -91 1556 -91 
Q 1019 -91 701 211 
Q 384 513 384 1019 
Q 384 1609 779 1909 
Q 1175 2209 1959 2209 
L 2766 2209 
L 2766 2266 
Q 2766 2663 2505 2880 
Q 2244 3097 1772 3097 
Q 1472 3097 1187 3025 
Q 903 2953 641 2809 
L 641 3341 
Q 956 3463 1253 3523 
Q 1550 3584 1831 3584 
Q 2591 3584 2966 3190 
Q 3341 2797 3341 1997 
z
" transform="scale(0.015625)"/>
       <path id="DejaVuSans-73" d="M 2834 3397 
L 2834 2853 
Q 2591 2978 2328 3040 
Q 2066 3103 1784 3103 
Q 1356 3103 1142 2972 
Q 928 2841 928 2578 
Q 928 2378 1081 2264 
Q 1234 2150 1697 2047 
L 1894 2003 
Q 2506 1872 2764 1633 
Q 3022 1394 3022 966 
Q 3022 478 2636 193 
Q 2250 -91 1575 -91 
Q 1294 -91 989 -36 
Q 684 19 347 128 
L 347 722 
Q 666 556 975 473 
Q 1284 391 1588 391 
Q 1994 391 2212 530 
Q 2431 669 2431 922 
Q 2431 1156 2273 1281 
Q 2116 1406 1581 1522 
L 1381 1569 
Q 847 1681 609 1914 
Q 372 2147 372 2553 
Q 372 3047 722 3315 
Q 1072 3584 1716 3584 
Q 2034 3584 2315 3537 
Q 2597 3491 2834 3397 
z
" transform="scale(0.015625)"/>
       <path id="DejaVuSans-6f" d="M 1959 3097 
Q 1497 3097 1228 2736 
Q 959 2375 959 1747 
Q 959 1119 1226 758 
Q 1494 397 1959 397 
Q 2419 397 2687 759 
Q 2956 1122 2956 1747 
Q 2956 2369 2687 2733 
Q 2419 3097 1959 3097 
z
M 1959 3584 
Q 2709 3584 3137 3096 
Q 3566 2609 3566 1747 
Q 3566 888 3137 398 
Q 2709 -91 1959 -91 
Q 1206 -91 779 398 
Q 353 888 353 1747 
Q 353 2609 779 3096 
Q 1206 3584 1959 3584 
z
" transform="scale(0.015625)"/>
       <path id="DejaVuSans-69" d="M 603 3500 
L 1178 3500 
L 1178 0 
L 603 0 
L 603 3500 
z
M 603 4863 
L 1178 4863 
L 1178 4134 
L 603 4134 
L 603 4863 
z
" transform="scale(0.015625)"/>
       <path id="DejaVuSans-64" d="M 2906 2969 
L 2906 4863 
L 3481 4863 
L 3481 0 
L 2906 0 
L 2906 525 
Q 2725 213 2448 61 
Q 2172 -91 1784 -91 
Q 1150 -91 751 415 
Q 353 922 353 1747 
Q 353 2572 751 3078 
Q 1150 3584 1784 3584 
Q 2172 3584 2448 3432 
Q 2725 3281 2906 2969 
z
M 947 1747 
Q 947 1113 1208 752 
Q 1469 391 1925 391 
Q 2381 391 2643 752 
Q 2906 1113 2906 1747 
Q 2906 2381 2643 2742 
Q 2381 3103 1925 3103 
Q 1469 3103 1208 2742 
Q 947 2381 947 1747 
z
" transform="scale(0.015625)"/>
       <path id="DejaVuSans-42" d="M 1259 2228 
L 1259 519 
L 2272 519 
Q 2781 519 3026 730 
Q 3272 941 3272 1375 
Q 3272 1813 3026 2020 
Q 2781 2228 2272 2228 
L 1259 2228 
z
M 1259 4147 
L 1259 2741 
L 2194 2741 
Q 2656 2741 2882 2914 
Q 3109 3088 3109 3444 
Q 3109 3797 2882 3972 
Q 2656 4147 2194 4147 
L 1259 4147 
z
M 628 4666 
L 2241 4666 
Q 2963 4666 3353 4366 
Q 3744 4066 3744 3513 
Q 3744 3084 3544 2831 
Q 3344 2578 2956 2516 
Q 3422 2416 3680 2098 
Q 3938 1781 3938 1306 
Q 3938 681 3513 340 
Q 3088 0 2303 0 
L 628 0 
L 628 4666 
z
" transform="scale(0.015625)"/>
       <path id="DejaVuSans-2f" d="M 1625 4666 
L 2156 4666 
L 531 -594 
L 0 -594 
L 1625 4666 
z
" transform="scale(0.015625)"/>
      </defs>
      <use xlink:href="#DejaVuSans-50"/>
      <use xlink:href="#DejaVuSans-68" x="60.302734"/>
      <use xlink:href="#DejaVuSans-61" x="123.681641"/>
      <use xlink:href="#DejaVuSans-73" x="184.960938"/>
      <use xlink:href="#DejaVuSans-65" x="237.060547"/>
      <use xlink:href="#DejaVuSans-20" x="298.583984"/>
      <use xlink:href="#DejaVuSans-6e" x="330.371094"/>
      <use xlink:href="#DejaVuSans-6f" x="393.75"/>
      <use xlink:href="#DejaVuSans-69" x="454.931641"/>
      <use xlink:href="#DejaVuSans-73" x="482.714844"/>
      <use xlink:href="#DejaVuSans-65" x="534.814453"/>
      <use xlink:href="#DejaVuSans-20" x="596.337891"/>
      <use xlink:href="#DejaVuSans-5b" x="628.125"/>
      <use xlink:href="#DejaVuSans-64" x="667.138672"/>
      <use xlink:href="#DejaVuSans-42" x="730.615234"/>
      <use xlink:href="#DejaVuSans-63" x="799.21875"/>
      <use xlink:href="#DejaVuSans-2f" x="854.199219"/>
      <use xlink:href="#DejaVuSans-48" x="887.890625"/>
      <use xlink:href="#DejaVuSans-7a" x="963.085938"/>
      <use xlink:href="#DejaVuSans-5d" x="1015.576172"/>
     </g>
    </g>
   </g>
   <g id="line2d_50">
    <path d="M 398.487273 260.093652 
L 398.133009 260.852072 
L 397.775149 262.47979 
L 397.413619 261.733568 
L 397.048342 262.286859 
L 396.67924 261.2967 
L 396.306232 262.391086 
L 395.929234 262.243616 
L 395.548161 262.638348 
L 395.162923 262.426568 
L 394.773428 262.607302 
L 394.379582 263.631833 
L 393.981285 263.517627 
L 393.170929 261.920955 
L 392.758656 260.294345 
L 392.341504 259.701137 
L 391.919356 259.682288 
L 391.492092 262.079513 
L 390.621704 261.5739 
L 390.178315 260.652488 
L 389.729278 262.504184 
L 389.274447 261.668148 
L 388.81367 262.42435 
L 388.346791 262.028508 
L 387.394059 261.440844 
L 385.914866 263.212707 
L 384.893087 261.484088 
L 384.370871 259.473833 
L 383.840802 258.215345 
L 383.30264 259.05138 
L 382.756135 259.306404 
L 382.201022 261.338835 
L 381.637027 261.964198 
L 381.063862 263.039734 
L 380.481221 262.03627 
L 379.888789 262.788036 
L 379.286228 261.80564 
L 378.673188 262.569603 
L 378.049297 260.495038 
L 377.414164 261.459694 
L 376.767377 261.691433 
L 376.1085 262.271336 
L 375.437071 262.43322 
L 374.752605 261.290048 
L 374.054584 260.944102 
L 373.34246 259.902939 
L 372.615652 259.969467 
L 371.873543 261.080484 
L 371.115472 260.772238 
L 370.340739 261.310006 
L 368.73824 263.887966 
L 367.908815 262.195937 
L 367.059402 257.103219 
L 366.189015 251.134548 
L 365.296589 247.08632 
L 364.380981 246.907803 
L 362.47517 255.150622 
L 361.482177 259.650132 
L 360.460398 260.828787 
L 359.408113 260.656923 
L 358.323446 258.249718 
L 357.204338 257.232948 
L 356.048532 257.699753 
L 354.853539 258.817424 
L 353.616608 258.452628 
L 352.334688 256.853739 
L 351.004382 255.013131 
L 349.621895 253.530665 
L 348.182963 253.252356 
L 346.682783 252.760049 
L 345.115906 254.270235 
L 343.476126 252.58375 
L 341.756325 251.42838 
L 339.948292 249.842796 
L 338.042481 249.61771 
L 336.027709 247.186112 
L 333.890756 244.3875 
L 331.615843 242.15216 
L 326.571693 242.392769 
L 323.750274 243.527072 
L 323.455302 243.958395 
L 323.157841 243.968374 
L 322.250094 242.210926 
L 322.034879 240.22063 
L 321.818343 239.157291 
L 321.694008 239.200534 
L 321.475361 237.970875 
L 321.444015 237.95646 
L 320.938645 239.895752 
L 320.747248 238.156044 
L 320.715247 238.242531 
L 320.490424 238.531928 
L 320.328954 238.126107 
L 320.264158 238.152718 
L 320.069053 238.309059 
L 319.840057 239.20386 
L 319.807221 239.20386 
L 319.609563 240.245024 
L 319.576512 240.166299 
L 319.510317 239.788198 
L 319.27765 237.970875 
L 319.110514 234.620081 
L 319.076991 234.570185 
L 319.043437 234.703241 
L 318.908899 235.578084 
L 318.807657 236.486192 
L 318.740001 236.273302 
L 318.638272 236.193468 
L 318.536249 236.313219 
L 318.125179 234.635604 
L 318.056198 234.735396 
L 317.883155 235.188896 
L 317.848444 235.058057 
L 317.778919 234.860691 
L 317.744106 234.925001 
L 317.604506 235.225486 
L 317.569519 235.06471 
L 317.429225 234.743158 
L 317.394064 234.794163 
L 317.358868 235.282035 
L 317.323636 235.246553 
L 317.28837 233.948148 
L 316.93375 233.344961 
L 316.575526 235.705596 
L 316.213624 236.150225 
L 315.847968 235.75771 
L 315.478479 231.834776 
L 315.105076 234.193193 
L 314.727675 235.803171 
L 314.34619 236.186816 
L 313.570605 230.635054 
L 313.176317 230.356745 
L 312.37426 231.105185 
L 311.553526 226.271926 
L 311.13588 225.962571 
L 310.285442 228.206782 
L 309.413979 225.101033 
L 308.065003 226.985993 
L 307.603623 224.323764 
L 307.136124 223.084126 
L 306.182103 223.132913 
L 305.201542 222.570752 
L 304.700838 223.39459 
L 304.19292 223.924596 
L 303.677576 223.442268 
L 302.084733 217.617742 
L 300.981391 219.00596 
L 300.416492 220.195702 
L 299.842393 217.535691 
L 298.665358 215.534307 
L 298.061766 215.120724 
L 297.447657 214.881224 
L 296.82266 212.816638 
L 296.186381 212.132508 
L 295.538405 211.269862 
L 294.878293 208.799456 
L 294.205583 209.097723 
L 293.519785 206.357878 
L 292.820379 207.625236 
L 292.106814 206.998764 
L 291.378504 206.647275 
L 290.634829 206.470976 
L 289.875124 204.338753 
L 289.098685 204.446307 
L 288.304757 202.568 
L 287.492534 201.321708 
L 286.661153 202.513668 
L 285.809688 202.869593 
L 284.937146 203.697867 
L 284.042455 200.83051 
L 283.124462 200.275001 
L 282.181922 199.23162 
L 281.213484 199.180616 
L 280.217686 198.47431 
L 279.192936 198.741531 
L 278.1375 198.88124 
L 277.049484 198.506465 
L 275.926812 194.951652 
L 274.767203 192.617628 
L 273.568145 189.828996 
L 272.326858 189.597257 
L 271.040258 187.924078 
L 269.704912 185.37162 
L 268.31698 183.045358 
L 266.87215 181.72256 
L 265.365556 181.680425 
L 262.144237 177.542384 
L 260.416002 176.497894 
L 260.238426 176.859363 
L 260.05995 177.63774 
L 259.700264 177.585627 
L 259.33687 176.03996 
L 258.96969 176.133099 
L 258.784656 175.635248 
L 258.223653 173.081681 
L 258.034651 172.913144 
L 257.653577 174.517577 
L 257.461485 175.954582 
L 257.26834 175.635248 
L 257.07413 175.589787 
L 256.878845 174.420003 
L 256.484998 175.040931 
L 256.286412 174.872393 
L 255.885852 172.331024 
L 255.070812 169.522433 
L 254.236479 173.242457 
L 254.024773 174.021944 
L 253.811788 173.376622 
L 253.381918 173.093878 
L 252.94674 175.053128 
L 252.72712 174.469899 
L 252.506123 173.306768 
L 251.834695 167.909129 
L 251.608013 166.850225 
L 251.379864 167.480024 
L 250.68642 170.071289 
L 250.405177 170.621254 
L 250.050438 172.193532 
L 249.97906 171.901918 
L 249.883664 171.72451 
L 249.859774 171.776624 
L 249.835868 171.828737 
L 249.811947 171.631371 
L 249.57183 169.885011 
L 249.547729 169.891664 
L 249.499475 170.00587 
L 249.402771 170.926174 
L 249.354318 171.331995 
L 249.330067 170.937262 
L 249.18421 169.611137 
L 249.159841 169.738649 
L 248.816902 171.208918 
L 248.693611 169.815156 
L 248.619429 170.123403 
L 248.569887 170.5137 
L 248.520276 170.048004 
L 248.395941 169.284041 
L 248.371021 169.316196 
L 248.346084 169.34946 
L 248.271166 168.48127 
L 248.196088 168.586606 
L 248.020283 169.34946 
L 247.944668 169.179814 
L 247.868891 169.270736 
L 247.818283 169.832897 
L 247.716847 170.756528 
L 247.666019 170.736569 
L 247.58964 170.76318 
L 247.308159 168.451332 
L 247.231 167.645235 
L 247.153671 167.303724 
L 247.127857 167.433454 
L 246.946629 168.853827 
L 246.894677 169.505801 
L 246.842649 169.106633 
L 246.816607 168.91592 
L 246.764463 169.056737 
L 246.633766 169.516889 
L 246.581352 169.492496 
L 246.265216 162.702204 
L 246.21225 163.144616 
L 246.079485 164.355425 
L 246.052872 164.306638 
L 245.705062 163.200056 
L 245.489307 161.316204 
L 245.462244 161.427084 
L 245.326619 162.428331 
L 245.217742 163.275454 
L 245.163177 162.986057 
L 245.053793 162.681137 
L 245.026394 162.688899 
L 244.889078 163.207817 
L 244.861551 163.17788 
L 244.806431 163.07587 
L 244.778839 163.202273 
L 244.668254 164.223478 
L 244.640554 163.71343 
L 244.473892 161.093336 
L 244.418163 161.159864 
L 244.194359 162.081276 
L 244.110065 162.615718 
L 243.997359 163.201164 
L 243.969126 163.190076 
L 243.94087 163.157921 
L 243.912592 163.285433 
L 243.657061 164.271156 
L 243.428356 162.640112 
L 243.370948 162.748774 
L 243.313445 163.19562 
L 243.284659 162.666723 
L 243.169278 161.096662 
L 243.140373 161.104424 
L 243.024518 161.277396 
L 242.995495 161.221956 
L 242.879162 160.736302 
L 242.703939 158.761529 
L 242.67465 158.781488 
L 242.380417 161.085574 
L 242.232374 161.408235 
L 242.172983 161.306225 
L 242.024064 160.984673 
L 241.784479 158.136166 
L 241.633906 159.483358 
L 241.543253 158.841363 
L 241.330818 157.621683 
L 241.239381 157.888904 
L 240.963639 159.400198 
L 240.809511 157.41212 
L 240.592594 155.149059 
L 240.499219 155.24996 
L 240.374334 155.307617 
L 240.123227 156.994102 
L 240.091713 156.976361 
L 240.06017 156.95862 
L 239.933717 158.38232 
L 239.902032 158.791467 
L 239.838578 158.70498 
L 239.583612 154.433883 
L 239.487522 154.12231 
L 239.455434 154.163336 
L 239.294553 155.1668 
L 238.511936 149.673804 
L 238.478947 149.630561 
L 238.445927 149.730353 
L 238.08065 150.651766 
L 238.047254 150.595217 
L 237.913355 150.48212 
L 237.745263 150.917878 
L 237.576365 149.657172 
L 237.542488 149.664934 
L 237.508578 149.672696 
L 237.33854 149.35447 
L 237.270294 149.749203 
L 237.201916 149.536313 
L 237.030388 149.081705 
L 236.995982 149.085032 
L 236.719518 149.831254 
L 236.650062 149.92772 
L 236.370862 150.702771 
L 236.300714 151.075328 
L 236.265588 150.90679 
L 236.230427 150.738252 
L 236.195231 152.905402 
L 236.124733 152.770128 
L 235.769757 150.962784 
L 235.048897 151.184544 
L 234.682862 149.961538 
L 234.312986 150.736589 
L 233.939188 150.733263 
L 233.561383 152.276712 
L 233.179485 150.605751 
L 232.793404 147.430148 
L 232.403047 146.885727 
L 232.008319 147.835968 
L 231.609121 150.204365 
L 230.7969 147.40908 
L 229.965521 147.765005 
L 229.54236 149.198684 
L 228.680488 147.355858 
L 228.241518 144.50846 
L 227.797012 142.606868 
L 226.890823 141.60673 
L 226.428839 144.953088 
L 225.960721 142.974989 
L 225.486301 145.185936 
L 225.005409 140.584416 
L 224.517866 141.194256 
L 224.023485 139.354757 
L 223.013421 143.620311 
L 222.497323 145.362236 
L 221.973557 146.62405 
L 221.441891 148.724117 
L 220.902082 148.069925 
L 220.353878 143.906381 
L 219.797013 141.054548 
L 219.23121 139.825997 
L 218.656176 141.88393 
L 218.071605 140.956973 
L 217.477176 139.714008 
L 216.872551 139.247204 
L 216.257373 140.486842 
L 215.631268 143.504996 
L 214.99384 144.680324 
L 214.344673 142.328559 
L 212.322199 140.19301 
L 211.621405 138.149492 
L 211.478281 140.907077 
L 211.4065 140.779565 
L 211.334573 138.33577 
L 211.262499 140.382615 
L 211.190277 139.598693 
L 211.045388 138.435562 
L 210.826931 143.462861 
L 210.75381 144.385383 
L 210.607112 141.91165 
L 210.533533 142.27201 
L 210.237673 140.86716 
L 210.088806 137.0418 
L 210.014137 137.28241 
L 209.864321 142.722183 
L 209.789173 142.349626 
L 209.638396 140.17416 
L 209.562765 141.168754 
L 209.486972 140.980258 
L 209.105539 138.891279 
L 209.028755 138.901258 
L 208.951803 138.689477 
L 208.874683 139.003268 
L 208.797393 139.792733 
L 208.719934 139.015464 
L 208.642304 142.213244 
L 208.564503 142.172218 
L 208.48653 143.02932 
L 208.330064 139.017682 
L 208.25157 139.362519 
L 208.094055 138.611861 
L 207.935834 140.361548 
L 207.697161 143.529389 
L 207.617243 143.396333 
L 207.214913 140.593287 
L 207.133893 139.077557 
L 206.725976 143.267712 
L 206.47894 139.679636 
L 206.230161 145.2569 
L 205.642755 139.196199 
L 205.558035 137.516367 
L 205.473111 137.593983 
L 205.387982 137.823504 
L 205.045395 145.830149 
L 204.872844 138.775964 
L 204.786251 138.887952 
L 204.612424 142.242072 
L 204.262178 135.465087 
L 204.174069 135.798836 
L 203.99719 140.548935 
L 203.908416 140.441381 
L 203.730194 139.596476 
L 203.551067 140.096544 
L 203.461161 139.781645 
L 203.371026 139.893634 
L 203.280659 140.290584 
L 203.190059 140.085456 
L 203.099227 140.564458 
L 202.733537 138.793704 
L 202.456758 143.149071 
L 201.990575 138.820316 
L 201.896594 141.288504 
L 201.802362 139.692941 
L 201.707877 140.38705 
L 201.613138 138.060788 
L 201.231616 141.688781 
L 200.845919 138.37236 
L 200.748831 138.099596 
L 200.651476 138.797031 
L 200.553851 142.378455 
L 200.455955 142.323015 
L 200.357786 142.573604 
L 200.160624 138.639581 
L 200.061628 138.161688 
L 199.862798 140.14644 
L 199.762961 141.122184 
L 199.66284 138.933413 
L 199.562434 140.005623 
L 199.461741 139.382477 
L 199.056069 144.139229 
L 198.645674 139.303752 
L 198.43867 143.459535 
L 198.334711 144.675888 
L 198.125867 139.741728 
L 198.02098 139.094189 
L 197.915779 140.746301 
L 197.810264 140.426967 
L 197.704432 141.565704 
L 197.277896 137.008536 
L 197.170451 137.945472 
L 197.062677 137.529672 
L 196.954573 139.482269 
L 196.846136 137.326762 
L 196.628257 138.516504 
L 196.409022 142.847477 
L 196.298891 143.827656 
L 196.188415 146.686143 
L 195.966419 144.53618 
L 195.630781 137.436533 
L 195.405234 136.407567 
L 195.178234 137.81796 
L 194.949762 137.292389 
L 194.834969 137.0418 
L 194.488329 144.811162 
L 194.37202 144.787877 
L 194.138246 142.405066 
L 194.020774 142.330776 
L 193.653046 138.014218 
L 193.640094 138.002021 
L 193.523311 143.623637 
L 193.510311 145.770274 
L 193.432212 142.600215 
L 193.419178 143.02932 
L 193.40614 143.458426 
L 193.393097 141.750874 
L 193.2624 135.542703 
L 193.249304 135.9707 
L 193.144357 143.052605 
L 193.104921 146.098479 
L 193.052272 143.210055 
L 192.959945 137.480885 
L 192.907078 138.634037 
L 192.880615 138.365708 
L 192.840883 134.969453 
L 192.787837 137.89225 
L 192.761284 141.602295 
L 192.668192 139.330364 
L 192.614885 135.96072 
L 192.521404 137.132722 
L 192.279881 146.687252 
L 192.266414 146.543108 
L 192.199003 142.444983 
L 192.144982 144.164732 
L 192.104412 146.774847 
L 192.077339 144.060504 
L 192.023131 145.583996 
L 191.832742 138.238196 
L 191.764497 138.007565 
L 191.696118 141.347271 
L 191.682427 142.334103 
L 191.613889 140.369309 
L 191.531468 138.754896 
L 191.517712 139.59204 
L 191.490185 140.443599 
L 191.421272 138.746026 
L 191.338398 136.230159 
L 191.379859 139.74949 
L 191.28304 137.161551 
L 191.185955 139.747272 
L 191.130357 139.443461 
L 191.088602 138.702783 
L 191.060737 139.420176 
L 190.949057 142.887394 
L 190.935072 141.534658 
L 190.907086 138.867994 
L 190.822993 140.98802 
L 190.752762 147.342552 
L 190.710556 142.936181 
L 190.668299 140.31276 
L 190.625992 145.366671 
L 190.597759 144.205757 
L 190.541225 141.959328 
L 190.47043 142.994948 
L 190.442072 144.012826 
L 190.413691 142.553645 
L 190.356861 143.25108 
L 190.328412 144.264524 
L 190.299939 142.00368 
L 190.228657 137.042909 
L 190.157231 137.714842 
L 190.12862 140.444708 
L 190.042647 139.11193 
L 189.999581 139.383586 
L 189.913293 138.171668 
L 189.870069 141.8928 
L 189.797911 141.041242 
L 189.769007 139.427938 
L 189.696642 141.805205 
L 189.682151 142.490444 
L 189.653152 139.277141 
L 189.449484 133.907223 
L 189.609608 140.110959 
L 189.434892 134.471602 
L 189.215271 141.298484 
L 189.37646 133.621152 
L 189.171183 141.158775 
L 189.127039 138.814772 
L 189.068094 139.801604 
L 188.964703 144.263415 
L 188.9203 143.194532 
L 188.905486 143.319826 
L 188.757007 136.3865 
L 188.727236 136.868828 
L 188.592954 143.08476 
L 188.503148 148.373736 
L 188.458159 145.901112 
L 188.44315 146.258146 
L 188.428134 144.974156 
L 188.26254 135.592599 
L 188.368008 147.037632 
L 188.247447 136.3488 
L 188.035469 143.724538 
L 188.187012 135.2777 
L 188.020278 143.459535 
L 188.005082 142.539231 
L 187.959452 144.783442 
L 187.928999 143.355308 
L 187.89852 144.772354 
L 187.852752 142.043597 
L 187.837483 142.548101 
L 187.761038 144.15697 
L 187.806925 142.345191 
L 187.730413 143.338676 
L 187.57689 137.58733 
L 187.561501 137.650532 
L 187.546105 137.248037 
L 187.484454 135.580402 
L 187.453588 135.631407 
L 187.407238 140.139788 
L 187.329853 138.689477 
L 187.314356 138.119554 
L 187.267822 139.28712 
L 187.236766 139.126344 
L 187.221228 139.451223 
L 187.19013 138.425583 
L 187.081073 137.018516 
L 187.065466 137.592874 
L 187.002967 142.254269 
L 186.940358 138.588576 
L 186.830524 135.578184 
L 186.814805 136.052751 
L 186.641437 140.535629 
L 186.767608 135.799944 
L 186.625634 139.655242 
L 186.483086 134.176661 
L 186.435441 135.40632 
L 186.387732 133.898352 
L 186.260192 131.087544 
L 186.244217 131.643053 
L 186.003719 139.50888 
L 186.196248 131.562111 
L 185.955421 138.120663 
L 185.907058 133.342844 
L 185.826304 134.756564 
L 185.647992 140.149767 
L 185.631738 139.811583 
L 185.582928 141.060092 
L 185.517742 140.595504 
L 185.485104 140.601048 
L 185.452436 142.602432 
L 185.403377 138.977765 
L 185.35425 142.270901 
L 185.255789 137.430989 
L 185.157053 139.903613 
L 185.14057 140.075477 
L 185.124079 139.21394 
L 185.10758 138.947828 
L 185.07456 140.138679 
L 185.024972 139.20396 
L 184.84255 144.644842 
L 184.80928 143.08476 
L 184.742647 143.511648 
L 184.725969 142.982751 
L 184.508434 135.35088 
L 184.458043 136.650394 
L 184.255753 146.31913 
L 184.238843 145.034031 
L 184.154171 141.473674 
L 184.120245 143.184552 
L 184.10327 144.012826 
L 184.035287 142.314144 
L 183.847656 138.217128 
L 183.830549 138.920108 
L 183.727733 142.064664 
L 183.693394 140.73854 
L 183.676212 140.351568 
L 183.624616 141.032372 
L 183.572944 142.892938 
L 183.503929 141.761962 
L 183.417471 135.15684 
L 183.348152 135.6935 
L 183.313441 135.458434 
L 183.296073 135.927456 
L 183.209103 140.937015 
L 183.174255 144.510677 
L 183.086983 143.152397 
L 182.999495 143.549348 
L 182.876646 146.558631 
L 182.841467 145.860087 
L 182.771005 143.8332 
L 182.718065 144.388709 
L 182.647355 147.049829 
L 182.611947 144.808944 
L 182.487737 140.006732 
L 182.469957 140.458013 
L 182.416563 144.986352 
L 182.327393 146.668402 
L 182.309532 144.892104 
L 182.22009 141.138816 
L 182.202175 142.196612 
L 182.166316 145.98649 
L 182.09449 143.803263 
L 181.96844 138.438888 
L 181.950396 139.146303 
L 181.91428 139.880328 
L 181.878127 138.962242 
L 181.823828 139.778319 
L 181.80571 139.742837 
L 181.605793 143.182335 
L 181.569323 142.827519 
L 181.551073 143.381919 
L 181.441377 146.166116 
L 181.423061 145.213656 
L 181.404736 144.261197 
L 181.349702 146.490994 
L 181.331339 145.974293 
L 181.312966 146.019754 
L 181.276191 147.04872 
L 181.202525 146.21712 
L 181.073239 142.37402 
L 180.962043 146.444424 
L 180.943477 144.649277 
L 180.813235 141.074506 
L 180.701215 145.001876 
L 180.663796 143.006036 
L 180.607592 138.619623 
L 180.532515 139.953509 
L 180.438442 145.221418 
L 180.363003 144.150317 
L 180.230595 142.071317 
L 180.211639 142.646784 
L 180.192673 142.700007 
L 180.154709 141.655517 
L 180.135712 143.834309 
L 180.097688 147.339226 
L 180.021515 144.629319 
L 180.002446 144.612687 
L 179.945177 142.700007 
L 179.868674 143.20562 
L 179.849522 143.225578 
L 179.83036 143.062584 
L 179.676686 146.950037 
L 179.638162 144.958632 
L 179.580298 146.828069 
L 179.541669 148.5456 
L 179.502998 150.046916 
L 179.483646 148.785101 
L 179.444911 143.104941 
L 177.62102 142.351622 
L 177.435009 142.666521 
L 177.248012 144.019257 
L 177.060017 142.605537 
L 176.680993 143.6467 
L 176.489941 144.206644 
L 176.297848 143.607892 
L 176.104703 142.629931 
L 175.715208 146.509622 
L 175.518835 145.210108 
L 175.321362 142.137624 
L 175.122776 141.692995 
L 174.923065 143.040187 
L 174.520215 148.078574 
L 174.112709 146.429788 
L 173.907175 143.265273 
L 173.700436 144.334156 
L 173.492477 142.541227 
L 173.283284 142.713091 
L 173.072842 143.269708 
L 172.648151 145.173518 
L 172.218281 143.085648 
L 172.001364 142.372689 
L 171.783104 143.307408 
L 171.563484 142.088836 
L 171.342487 142.072204 
L 171.120095 140.586412 
L 170.896292 140.55204 
L 170.671058 140.097432 
L 170.216227 144.452798 
L 169.986592 146.176982 
L 169.522784 144.612465 
L 169.288571 144.978369 
L 169.052791 143.611219 
L 168.815424 146.483011 
L 168.576447 146.183635 
L 168.335839 146.617176 
L 168.093577 145.432977 
L 167.604001 147.904492 
L 167.356639 148.204977 
L 167.107529 145.618147 
L 166.603965 143.251968 
L 166.349459 144.030345 
L 166.093102 145.358688 
L 165.834867 146.02175 
L 165.312651 144.696734 
L 165.048613 144.707822 
L 164.782582 144.527088 
L 164.24442 146.486337 
L 163.972227 148.819252 
L 163.697915 148.554249 
L 163.421451 148.506571 
L 163.142802 148.678435 
L 162.861933 148.47996 
L 162.578807 149.07095 
L 162.293389 147.487584 
L 162.005642 147.448776 
L 161.423001 145.636996 
L 161.12803 146.861112 
L 160.830569 146.60387 
L 159.922821 149.538864 
L 159.304403 144.124593 
L 158.991077 142.857235 
L 158.674941 146.524036 
L 158.355944 148.332489 
L 158.034034 147.855705 
L 157.709157 146.518492 
L 157.381258 145.703524 
L 156.716164 147.585158 
L 156.378851 146.374348 
L 156.038279 147.855705 
L 155.694385 146.864438 
L 155.347102 147.264715 
L 154.996364 145.216761 
L 153.922709 150.631032 
L 153.557432 151.116686 
L 153.18833 149.20955 
L 152.815323 148.689523 
L 152.438325 149.696313 
L 152.057252 151.997073 
L 151.672014 152.109062 
L 151.282519 150.05002 
L 150.888673 150.825072 
L 150.490375 151.132209 
L 150.087526 152.087995 
L 149.267747 150.55896 
L 148.850595 151.237545 
L 148.428447 150.827289 
L 148.001182 152.947315 
L 147.568675 154.446412 
L 147.130795 154.704763 
L 146.687406 154.373232 
L 146.238369 150.939278 
L 145.783538 150.379334 
L 145.322761 150.713083 
L 144.855881 152.418417 
L 144.382734 152.102409 
L 143.90315 150.607747 
L 143.41695 150.134289 
L 142.92395 150.529022 
L 142.423957 151.320705 
L 141.91677 152.361868 
L 141.402178 152.688964 
L 140.349893 155.332344 
L 139.811731 156.066369 
L 139.265226 155.591803 
L 138.710113 151.608993 
L 138.146118 150.70643 
L 137.572952 150.59555 
L 136.990312 154.968657 
L 136.39788 156.402336 
L 135.795319 156.78598 
L 135.182279 155.016336 
L 134.558388 156.274824 
L 133.923255 156.914601 
L 133.276468 155.731512 
L 132.617591 155.753688 
L 131.946162 156.271497 
L 131.261696 158.18196 
L 130.563675 156.048628 
L 129.851551 154.52292 
L 129.124743 153.939691 
L 128.382633 152.685638 
L 127.624563 152.588064 
L 126.84983 153.377529 
L 126.057686 156.192772 
L 125.247331 155.997624 
L 124.417906 156.131788 
L 123.568493 156.023126 
L 122.698105 157.752854 
L 121.80568 158.838369 
L 120.890072 158.950358 
L 119.950045 158.506838 
L 118.984261 156.384595 
L 117.991268 156.9523 
L 116.969489 159.139963 
L 115.917204 159.07787 
L 114.832536 159.60455 
L 113.713429 158.352715 
L 112.557623 159.961584 
L 111.36263 160.241001 
L 110.125699 158.744121 
L 108.843779 157.685217 
L 107.513473 156.86914 
L 106.130985 157.725134 
L 104.692054 157.773921 
L 103.191874 158.164219 
L 101.624997 160.854168 
L 99.985217 163.924435 
L 98.08873 165.932472 
L 97.911153 165.893664 
L 97.732677 166.025611 
L 97.372991 166.695326 
L 97.191762 166.126512 
L 96.457383 160.115707 
L 96.271373 160.390689 
L 96.084375 162.045019 
L 95.896381 162.492974 
L 95.517356 162.083827 
L 95.326305 161.292144 
L 95.134212 159.79859 
L 94.746857 154.948699 
L 94.551572 153.822158 
L 94.355199 153.99624 
L 94.157725 154.954243 
L 93.759428 157.369209 
L 92.949072 159.689928 
L 92.5368 160.938436 
L 92.328841 161.223398 
L 92.119648 161.002747 
L 91.909206 161.268859 
L 91.484515 163.816881 
L 91.270235 164.556451 
L 90.619467 161.008291 
L 90.399847 161.216745 
L 89.507422 165.094219 
L 89.28074 165.572112 
L 89.052591 165.567676 
L 88.591814 166.689782 
L 88.359147 166.662062 
L 87.412811 160.645713 
L 87.172203 160.640169 
L 86.929941 161.04599 
L 86.440365 162.794568 
L 86.193003 163.037395 
L 84.671231 158.654308 
L 83.884977 157.56214 
L 83.618946 157.42354 
L 83.080784 155.663875 
L 82.80859 155.804692 
L 81.979166 160.523745 
L 81.698296 160.0015 
L 81.415171 159.107808 
L 81.129753 159.04128 
L 80.842005 159.57683 
L 80.551889 158.593324 
L 79.964393 155.358955 
L 79.666932 155.071776 
L 79.064372 158.725272 
L 78.451332 162.359918 
L 78.140767 162.790132 
L 77.827441 162.688123 
L 77.192308 161.309884 
L 77.160249 161.309884 
L 76.999515 162.141484 
L 76.805662 160.948416 
L 76.708334 160.894084 
L 76.545521 162.806764 
L 76.512868 162.604963 
L 76.349147 162.189163 
L 76.217622 162.164769 
L 76.052521 161.160196 
L 75.853374 162.058324 
L 75.719981 162.058324 
L 75.518941 163.896715 
L 75.249092 164.553124 
L 74.908849 161.36976 
L 74.496174 162.526238 
L 74.357535 162.817852 
L 74.183466 163.417713 
L 74.07861 163.601774 
L 73.867959 162.933168 
L 73.832727 162.933168 
L 73.832727 162.933168 
" clip-path="url(#p33bf9c9239)" style="fill: none; stroke: #ff0000; stroke-width: 1.5; stroke-linecap: square"/>
   </g>
   <g id="patch_3">
    <path d="M 57.6 307.584 
L 57.6 41.472 
" style="fill: none; stroke: #000000; stroke-width: 0.8; stroke-linejoin: miter; stroke-linecap: square"/>
   </g>
   <g id="patch_4">
    <path d="M 414.72 307.584 
L 414.72 41.472 
" style="fill: none; stroke: #000000; stroke-width: 0.8; stroke-linejoin: miter; stroke-linecap: square"/>
   </g>
   <g id="patch_5">
    <path d="M 57.6 307.584 
L 414.72 307.584 
" style="fill: none; stroke: #000000; stroke-width: 0.8; stroke-linejoin: miter; stroke-linecap: square"/>
   </g>
   <g id="patch_6">
    <path d="M 57.6 41.472 
L 414.72 41.472 
" style="fill: none; stroke: #000000; stroke-width: 0.8; stroke-linejoin: miter; stroke-linecap: square"/>
   </g>
   <g id="text_17">
    <!-- PLL1 Ref VCO -->
    <g transform="translate(195.504375 35.472)scale(0.12 -0.12)">
     <defs>
      <path id="DejaVuSans-4c" d="M 628 4666 
L 1259 4666 
L 1259 531 
L 3531 531 
L 3531 0 
L 628 0 
L 628 4666 
z
" transform="scale(0.015625)"/>
      <path id="DejaVuSans-52" d="M 2841 2188 
Q 3044 2119 3236 1894 
Q 3428 1669 3622 1275 
L 4263 0 
L 3584 0 
L 2988 1197 
Q 2756 1666 2539 1819 
Q 2322 1972 1947 1972 
L 1259 1972 
L 1259 0 
L 628 0 
L 628 4666 
L 2053 4666 
Q 2853 4666 3247 4331 
Q 3641 3997 3641 3322 
Q 3641 2881 3436 2590 
Q 3231 2300 2841 2188 
z
M 1259 4147 
L 1259 2491 
L 2053 2491 
Q 2509 2491 2742 2702 
Q 2975 2913 2975 3322 
Q 2975 3731 2742 3939 
Q 2509 4147 2053 4147 
L 1259 4147 
z
" transform="scale(0.015625)"/>
      <path id="DejaVuSans-66" d="M 2375 4863 
L 2375 4384 
L 1825 4384 
Q 1516 4384 1395 4259 
Q 1275 4134 1275 3809 
L 1275 3500 
L 2222 3500 
L 2222 3053 
L 1275 3053 
L 1275 0 
L 697 0 
L 697 3053 
L 147 3053 
L 147 3500 
L 697 3500 
L 697 3744 
Q 697 4328 969 4595 
Q 1241 4863 1831 4863 
L 2375 4863 
z
" transform="scale(0.015625)"/>
      <path id="DejaVuSans-56" d="M 1831 0 
L 50 4666 
L 709 4666 
L 2188 738 
L 3669 4666 
L 4325 4666 
L 2547 0 
L 1831 0 
z
" transform="scale(0.015625)"/>
      <path id="DejaVuSans-43" d="M 4122 4306 
L 4122 3641 
Q 3803 3938 3442 4084 
Q 3081 4231 2675 4231 
Q 1875 4231 1450 3742 
Q 1025 3253 1025 2328 
Q 1025 1406 1450 917 
Q 1875 428 2675 428 
Q 3081 428 3442 575 
Q 3803 722 4122 1019 
L 4122 359 
Q 3791 134 3420 21 
Q 3050 -91 2638 -91 
Q 1578 -91 968 557 
Q 359 1206 359 2328 
Q 359 3453 968 4101 
Q 1578 4750 2638 4750 
Q 3056 4750 3426 4639 
Q 3797 4528 4122 4306 
z
" transform="scale(0.015625)"/>
      <path id="DejaVuSans-4f" d="M 2522 4238 
Q 1834 4238 1429 3725 
Q 1025 3213 1025 2328 
Q 1025 1447 1429 934 
Q 1834 422 2522 422 
Q 3209 422 3611 934 
Q 4013 1447 4013 2328 
Q 4013 3213 3611 3725 
Q 3209 4238 2522 4238 
z
M 2522 4750 
Q 3503 4750 4090 4092 
Q 4678 3434 4678 2328 
Q 4678 1225 4090 567 
Q 3503 -91 2522 -91 
Q 1538 -91 948 565 
Q 359 1222 359 2328 
Q 359 3434 948 4092 
Q 1538 4750 2522 4750 
z
" transform="scale(0.015625)"/>
     </defs>
     <use xlink:href="#DejaVuSans-50"/>
     <use xlink:href="#DejaVuSans-4c" x="60.302734"/>
     <use xlink:href="#DejaVuSans-4c" x="116.015625"/>
     <use xlink:href="#DejaVuSans-31" x="171.728516"/>
     <use xlink:href="#DejaVuSans-20" x="235.351562"/>
     <use xlink:href="#DejaVuSans-52" x="267.138672"/>
     <use xlink:href="#DejaVuSans-65" x="332.121094"/>
     <use xlink:href="#DejaVuSans-66" x="393.644531"/>
     <use xlink:href="#DejaVuSans-20" x="428.849609"/>
     <use xlink:href="#DejaVuSans-56" x="460.636719"/>
     <use xlink:href="#DejaVuSans-43" x="529.044922"/>
     <use xlink:href="#DejaVuSans-4f" x="598.869141"/>
    </g>
   </g>
   <g id="legend_1">
    <g id="patch_7">
     <path d="M 332.0575 64.150125 
L 407.72 64.150125 
Q 409.72 64.150125 409.72 62.150125 
L 409.72 48.472 
Q 409.72 46.472 407.72 46.472 
L 332.0575 46.472 
Q 330.0575 46.472 330.0575 48.472 
L 330.0575 62.150125 
Q 330.0575 64.150125 332.0575 64.150125 
z
" style="fill: #ffffff; opacity: 0.8; stroke: #cccccc; stroke-linejoin: miter"/>
    </g>
    <g id="line2d_51">
     <path d="M 334.0575 54.570438 
L 344.0575 54.570438 
L 354.0575 54.570438 
" style="fill: none; stroke: #ff0000; stroke-width: 1.5; stroke-linecap: square"/>
    </g>
    <g id="text_18">
     <!-- 650 MHz -->
     <g transform="translate(362.0575 58.070438)scale(0.1 -0.1)">
      <defs>
       <path id="DejaVuSans-4d" d="M 628 4666 
L 1569 4666 
L 2759 1491 
L 3956 4666 
L 4897 4666 
L 4897 0 
L 4281 0 
L 4281 4097 
L 3078 897 
L 2444 897 
L 1241 4097 
L 1241 0 
L 628 0 
L 628 4666 
z
" transform="scale(0.015625)"/>
      </defs>
      <use xlink:href="#DejaVuSans-36"/>
      <use xlink:href="#DejaVuSans-35" x="63.623047"/>
      <use xlink:href="#DejaVuSans-30" x="127.246094"/>
      <use xlink:href="#DejaVuSans-20" x="190.869141"/>
      <use xlink:href="#DejaVuSans-4d" x="222.65625"/>
      <use xlink:href="#DejaVuSans-48" x="308.935547"/>
      <use xlink:href="#DejaVuSans-7a" x="384.130859"/>
     </g>
    </g>
   </g>
  </g>
 </g>
 <defs>
  <clipPath id="p33bf9c9239">
   <rect x="57.6" y="41.472" width="357.12" height="266.112"/>
  </clipPath>
 </defs>
</svg>
