<?xml version="1.0" encoding="utf-8" standalone="no"?>
<!DOCTYPE svg PUBLIC "-//W3C//DTD SVG 1.1//EN"
  "http://www.w3.org/Graphics/SVG/1.1/DTD/svg11.dtd">
<svg xmlns:xlink="http://www.w3.org/1999/xlink" width="460.8pt" height="345.6pt" viewBox="0 0 460.8 345.6" xmlns="http://www.w3.org/2000/svg" version="1.1">
 <metadata>
  <rdf:RDF xmlns:dc="http://purl.org/dc/elements/1.1/" xmlns:cc="http://creativecommons.org/ns#" xmlns:rdf="http://www.w3.org/1999/02/22-rdf-syntax-ns#">
   <cc:Work>
    <dc:type rdf:resource="http://purl.org/dc/dcmitype/StillImage"/>
    <dc:date>2022-09-13T11:49:08.808722</dc:date>
    <dc:format>image/svg+xml</dc:format>
    <dc:creator>
     <cc:Agent>
      <dc:title>Matplotlib v3.5.1, https://matplotlib.org/</dc:title>
     </cc:Agent>
    </dc:creator>
   </cc:Work>
  </rdf:RDF>
 </metadata>
 <defs>
  <style type="text/css">*{stroke-linejoin: round; stroke-linecap: butt}</style>
 </defs>
 <g id="figure_1">
  <g id="patch_1">
   <path d="M 0 345.6 
L 460.8 345.6 
L 460.8 0 
L 0 0 
z
" style="fill: #ffffff"/>
  </g>
  <g id="axes_1">
   <g id="patch_2">
    <path d="M 57.6 307.584 
L 414.72 307.584 
L 414.72 41.472 
L 57.6 41.472 
z
" style="fill: #ffffff"/>
   </g>
   <g id="matplotlib.axis_1">
    <g id="xtick_1">
     <g id="line2d_1">
      <defs>
       <path id="m2aa7bddf63" d="M 0 0 
L 0 3.5 
" style="stroke: #000000; stroke-width: 0.8"/>
      </defs>
      <g>
       <use xlink:href="#m2aa7bddf63" x="73.832727" y="307.584" style="stroke: #000000; stroke-width: 0.8"/>
      </g>
     </g>
     <g id="text_1">
      <!-- $\mathdefault{10^{3}}$ -->
      <g transform="translate(65.032727 322.182437)scale(0.1 -0.1)">
       <defs>
        <path id="DejaVuSans-31" d="M 794 531 
L 1825 531 
L 1825 4091 
L 703 3866 
L 703 4441 
L 1819 4666 
L 2450 4666 
L 2450 531 
L 3481 531 
L 3481 0 
L 794 0 
L 794 531 
z
" transform="scale(0.015625)"/>
        <path id="DejaVuSans-30" d="M 2034 4250 
Q 1547 4250 1301 3770 
Q 1056 3291 1056 2328 
Q 1056 1369 1301 889 
Q 1547 409 2034 409 
Q 2525 409 2770 889 
Q 3016 1369 3016 2328 
Q 3016 3291 2770 3770 
Q 2525 4250 2034 4250 
z
M 2034 4750 
Q 2819 4750 3233 4129 
Q 3647 3509 3647 2328 
Q 3647 1150 3233 529 
Q 2819 -91 2034 -91 
Q 1250 -91 836 529 
Q 422 1150 422 2328 
Q 422 3509 836 4129 
Q 1250 4750 2034 4750 
z
" transform="scale(0.015625)"/>
        <path id="DejaVuSans-33" d="M 2597 2516 
Q 3050 2419 3304 2112 
Q 3559 1806 3559 1356 
Q 3559 666 3084 287 
Q 2609 -91 1734 -91 
Q 1441 -91 1130 -33 
Q 819 25 488 141 
L 488 750 
Q 750 597 1062 519 
Q 1375 441 1716 441 
Q 2309 441 2620 675 
Q 2931 909 2931 1356 
Q 2931 1769 2642 2001 
Q 2353 2234 1838 2234 
L 1294 2234 
L 1294 2753 
L 1863 2753 
Q 2328 2753 2575 2939 
Q 2822 3125 2822 3475 
Q 2822 3834 2567 4026 
Q 2313 4219 1838 4219 
Q 1578 4219 1281 4162 
Q 984 4106 628 3988 
L 628 4550 
Q 988 4650 1302 4700 
Q 1616 4750 1894 4750 
Q 2613 4750 3031 4423 
Q 3450 4097 3450 3541 
Q 3450 3153 3228 2886 
Q 3006 2619 2597 2516 
z
" transform="scale(0.015625)"/>
       </defs>
       <use xlink:href="#DejaVuSans-31" transform="translate(0 0.765625)"/>
       <use xlink:href="#DejaVuSans-30" transform="translate(63.623047 0.765625)"/>
       <use xlink:href="#DejaVuSans-33" transform="translate(128.203125 39.046875)scale(0.7)"/>
      </g>
     </g>
    </g>
    <g id="xtick_2">
     <g id="line2d_2">
      <g>
       <use xlink:href="#m2aa7bddf63" x="154.996364" y="307.584" style="stroke: #000000; stroke-width: 0.8"/>
      </g>
     </g>
     <g id="text_2">
      <!-- $\mathdefault{10^{4}}$ -->
      <g transform="translate(146.196364 322.182437)scale(0.1 -0.1)">
       <defs>
        <path id="DejaVuSans-34" d="M 2419 4116 
L 825 1625 
L 2419 1625 
L 2419 4116 
z
M 2253 4666 
L 3047 4666 
L 3047 1625 
L 3713 1625 
L 3713 1100 
L 3047 1100 
L 3047 0 
L 2419 0 
L 2419 1100 
L 313 1100 
L 313 1709 
L 2253 4666 
z
" transform="scale(0.015625)"/>
       </defs>
       <use xlink:href="#DejaVuSans-31" transform="translate(0 0.684375)"/>
       <use xlink:href="#DejaVuSans-30" transform="translate(63.623047 0.684375)"/>
       <use xlink:href="#DejaVuSans-34" transform="translate(128.203125 38.965625)scale(0.7)"/>
      </g>
     </g>
    </g>
    <g id="xtick_3">
     <g id="line2d_3">
      <g>
       <use xlink:href="#m2aa7bddf63" x="236.16" y="307.584" style="stroke: #000000; stroke-width: 0.8"/>
      </g>
     </g>
     <g id="text_3">
      <!-- $\mathdefault{10^{5}}$ -->
      <g transform="translate(227.36 322.182437)scale(0.1 -0.1)">
       <defs>
        <path id="DejaVuSans-35" d="M 691 4666 
L 3169 4666 
L 3169 4134 
L 1269 4134 
L 1269 2991 
Q 1406 3038 1543 3061 
Q 1681 3084 1819 3084 
Q 2600 3084 3056 2656 
Q 3513 2228 3513 1497 
Q 3513 744 3044 326 
Q 2575 -91 1722 -91 
Q 1428 -91 1123 -41 
Q 819 9 494 109 
L 494 744 
Q 775 591 1075 516 
Q 1375 441 1709 441 
Q 2250 441 2565 725 
Q 2881 1009 2881 1497 
Q 2881 1984 2565 2268 
Q 2250 2553 1709 2553 
Q 1456 2553 1204 2497 
Q 953 2441 691 2322 
L 691 4666 
z
" transform="scale(0.015625)"/>
       </defs>
       <use xlink:href="#DejaVuSans-31" transform="translate(0 0.684375)"/>
       <use xlink:href="#DejaVuSans-30" transform="translate(63.623047 0.684375)"/>
       <use xlink:href="#DejaVuSans-35" transform="translate(128.203125 38.965625)scale(0.7)"/>
      </g>
     </g>
    </g>
    <g id="xtick_4">
     <g id="line2d_4">
      <g>
       <use xlink:href="#m2aa7bddf63" x="317.323636" y="307.584" style="stroke: #000000; stroke-width: 0.8"/>
      </g>
     </g>
     <g id="text_4">
      <!-- $\mathdefault{10^{6}}$ -->
      <g transform="translate(308.523636 322.182437)scale(0.1 -0.1)">
       <defs>
        <path id="DejaVuSans-36" d="M 2113 2584 
Q 1688 2584 1439 2293 
Q 1191 2003 1191 1497 
Q 1191 994 1439 701 
Q 1688 409 2113 409 
Q 2538 409 2786 701 
Q 3034 994 3034 1497 
Q 3034 2003 2786 2293 
Q 2538 2584 2113 2584 
z
M 3366 4563 
L 3366 3988 
Q 3128 4100 2886 4159 
Q 2644 4219 2406 4219 
Q 1781 4219 1451 3797 
Q 1122 3375 1075 2522 
Q 1259 2794 1537 2939 
Q 1816 3084 2150 3084 
Q 2853 3084 3261 2657 
Q 3669 2231 3669 1497 
Q 3669 778 3244 343 
Q 2819 -91 2113 -91 
Q 1303 -91 875 529 
Q 447 1150 447 2328 
Q 447 3434 972 4092 
Q 1497 4750 2381 4750 
Q 2619 4750 2861 4703 
Q 3103 4656 3366 4563 
z
" transform="scale(0.015625)"/>
       </defs>
       <use xlink:href="#DejaVuSans-31" transform="translate(0 0.765625)"/>
       <use xlink:href="#DejaVuSans-30" transform="translate(63.623047 0.765625)"/>
       <use xlink:href="#DejaVuSans-36" transform="translate(128.203125 39.046875)scale(0.7)"/>
      </g>
     </g>
    </g>
    <g id="xtick_5">
     <g id="line2d_5">
      <g>
       <use xlink:href="#m2aa7bddf63" x="398.487273" y="307.584" style="stroke: #000000; stroke-width: 0.8"/>
      </g>
     </g>
     <g id="text_5">
      <!-- $\mathdefault{10^{7}}$ -->
      <g transform="translate(389.687273 322.182437)scale(0.1 -0.1)">
       <defs>
        <path id="DejaVuSans-37" d="M 525 4666 
L 3525 4666 
L 3525 4397 
L 1831 0 
L 1172 0 
L 2766 4134 
L 525 4134 
L 525 4666 
z
" transform="scale(0.015625)"/>
       </defs>
       <use xlink:href="#DejaVuSans-31" transform="translate(0 0.684375)"/>
       <use xlink:href="#DejaVuSans-30" transform="translate(63.623047 0.684375)"/>
       <use xlink:href="#DejaVuSans-37" transform="translate(128.203125 38.965625)scale(0.7)"/>
      </g>
     </g>
    </g>
    <g id="xtick_6">
     <g id="line2d_6">
      <defs>
       <path id="mc02de34357" d="M 0 0 
L 0 2 
" style="stroke: #000000; stroke-width: 0.6"/>
      </defs>
      <g>
       <use xlink:href="#mc02de34357" x="61.260321" y="307.584" style="stroke: #000000; stroke-width: 0.6"/>
      </g>
     </g>
    </g>
    <g id="xtick_7">
     <g id="line2d_7">
      <g>
       <use xlink:href="#mc02de34357" x="65.967158" y="307.584" style="stroke: #000000; stroke-width: 0.6"/>
      </g>
     </g>
    </g>
    <g id="xtick_8">
     <g id="line2d_8">
      <g>
       <use xlink:href="#mc02de34357" x="70.118883" y="307.584" style="stroke: #000000; stroke-width: 0.6"/>
      </g>
     </g>
    </g>
    <g id="xtick_9">
     <g id="line2d_9">
      <g>
       <use xlink:href="#mc02de34357" x="98.265416" y="307.584" style="stroke: #000000; stroke-width: 0.6"/>
      </g>
     </g>
    </g>
    <g id="xtick_10">
     <g id="line2d_10">
      <g>
       <use xlink:href="#mc02de34357" x="112.557623" y="307.584" style="stroke: #000000; stroke-width: 0.6"/>
      </g>
     </g>
    </g>
    <g id="xtick_11">
     <g id="line2d_11">
      <g>
       <use xlink:href="#mc02de34357" x="122.698105" y="307.584" style="stroke: #000000; stroke-width: 0.6"/>
      </g>
     </g>
    </g>
    <g id="xtick_12">
     <g id="line2d_12">
      <g>
       <use xlink:href="#mc02de34357" x="130.563675" y="307.584" style="stroke: #000000; stroke-width: 0.6"/>
      </g>
     </g>
    </g>
    <g id="xtick_13">
     <g id="line2d_13">
      <g>
       <use xlink:href="#mc02de34357" x="136.990312" y="307.584" style="stroke: #000000; stroke-width: 0.6"/>
      </g>
     </g>
    </g>
    <g id="xtick_14">
     <g id="line2d_14">
      <g>
       <use xlink:href="#mc02de34357" x="142.423957" y="307.584" style="stroke: #000000; stroke-width: 0.6"/>
      </g>
     </g>
    </g>
    <g id="xtick_15">
     <g id="line2d_15">
      <g>
       <use xlink:href="#mc02de34357" x="147.130795" y="307.584" style="stroke: #000000; stroke-width: 0.6"/>
      </g>
     </g>
    </g>
    <g id="xtick_16">
     <g id="line2d_16">
      <g>
       <use xlink:href="#mc02de34357" x="151.282519" y="307.584" style="stroke: #000000; stroke-width: 0.6"/>
      </g>
     </g>
    </g>
    <g id="xtick_17">
     <g id="line2d_17">
      <g>
       <use xlink:href="#mc02de34357" x="179.429053" y="307.584" style="stroke: #000000; stroke-width: 0.6"/>
      </g>
     </g>
    </g>
    <g id="xtick_18">
     <g id="line2d_18">
      <g>
       <use xlink:href="#mc02de34357" x="193.72126" y="307.584" style="stroke: #000000; stroke-width: 0.6"/>
      </g>
     </g>
    </g>
    <g id="xtick_19">
     <g id="line2d_19">
      <g>
       <use xlink:href="#mc02de34357" x="203.861742" y="307.584" style="stroke: #000000; stroke-width: 0.6"/>
      </g>
     </g>
    </g>
    <g id="xtick_20">
     <g id="line2d_20">
      <g>
       <use xlink:href="#mc02de34357" x="211.727311" y="307.584" style="stroke: #000000; stroke-width: 0.6"/>
      </g>
     </g>
    </g>
    <g id="xtick_21">
     <g id="line2d_21">
      <g>
       <use xlink:href="#mc02de34357" x="218.153949" y="307.584" style="stroke: #000000; stroke-width: 0.6"/>
      </g>
     </g>
    </g>
    <g id="xtick_22">
     <g id="line2d_22">
      <g>
       <use xlink:href="#mc02de34357" x="223.587594" y="307.584" style="stroke: #000000; stroke-width: 0.6"/>
      </g>
     </g>
    </g>
    <g id="xtick_23">
     <g id="line2d_23">
      <g>
       <use xlink:href="#mc02de34357" x="228.294431" y="307.584" style="stroke: #000000; stroke-width: 0.6"/>
      </g>
     </g>
    </g>
    <g id="xtick_24">
     <g id="line2d_24">
      <g>
       <use xlink:href="#mc02de34357" x="232.446156" y="307.584" style="stroke: #000000; stroke-width: 0.6"/>
      </g>
     </g>
    </g>
    <g id="xtick_25">
     <g id="line2d_25">
      <g>
       <use xlink:href="#mc02de34357" x="260.592689" y="307.584" style="stroke: #000000; stroke-width: 0.6"/>
      </g>
     </g>
    </g>
    <g id="xtick_26">
     <g id="line2d_26">
      <g>
       <use xlink:href="#mc02de34357" x="274.884896" y="307.584" style="stroke: #000000; stroke-width: 0.6"/>
      </g>
     </g>
    </g>
    <g id="xtick_27">
     <g id="line2d_27">
      <g>
       <use xlink:href="#mc02de34357" x="285.025378" y="307.584" style="stroke: #000000; stroke-width: 0.6"/>
      </g>
     </g>
    </g>
    <g id="xtick_28">
     <g id="line2d_28">
      <g>
       <use xlink:href="#mc02de34357" x="292.890947" y="307.584" style="stroke: #000000; stroke-width: 0.6"/>
      </g>
     </g>
    </g>
    <g id="xtick_29">
     <g id="line2d_29">
      <g>
       <use xlink:href="#mc02de34357" x="299.317585" y="307.584" style="stroke: #000000; stroke-width: 0.6"/>
      </g>
     </g>
    </g>
    <g id="xtick_30">
     <g id="line2d_30">
      <g>
       <use xlink:href="#mc02de34357" x="304.75123" y="307.584" style="stroke: #000000; stroke-width: 0.6"/>
      </g>
     </g>
    </g>
    <g id="xtick_31">
     <g id="line2d_31">
      <g>
       <use xlink:href="#mc02de34357" x="309.458067" y="307.584" style="stroke: #000000; stroke-width: 0.6"/>
      </g>
     </g>
    </g>
    <g id="xtick_32">
     <g id="line2d_32">
      <g>
       <use xlink:href="#mc02de34357" x="313.609792" y="307.584" style="stroke: #000000; stroke-width: 0.6"/>
      </g>
     </g>
    </g>
    <g id="xtick_33">
     <g id="line2d_33">
      <g>
       <use xlink:href="#mc02de34357" x="341.756325" y="307.584" style="stroke: #000000; stroke-width: 0.6"/>
      </g>
     </g>
    </g>
    <g id="xtick_34">
     <g id="line2d_34">
      <g>
       <use xlink:href="#mc02de34357" x="356.048532" y="307.584" style="stroke: #000000; stroke-width: 0.6"/>
      </g>
     </g>
    </g>
    <g id="xtick_35">
     <g id="line2d_35">
      <g>
       <use xlink:href="#mc02de34357" x="366.189015" y="307.584" style="stroke: #000000; stroke-width: 0.6"/>
      </g>
     </g>
    </g>
    <g id="xtick_36">
     <g id="line2d_36">
      <g>
       <use xlink:href="#mc02de34357" x="374.054584" y="307.584" style="stroke: #000000; stroke-width: 0.6"/>
      </g>
     </g>
    </g>
    <g id="xtick_37">
     <g id="line2d_37">
      <g>
       <use xlink:href="#mc02de34357" x="380.481221" y="307.584" style="stroke: #000000; stroke-width: 0.6"/>
      </g>
     </g>
    </g>
    <g id="xtick_38">
     <g id="line2d_38">
      <g>
       <use xlink:href="#mc02de34357" x="385.914866" y="307.584" style="stroke: #000000; stroke-width: 0.6"/>
      </g>
     </g>
    </g>
    <g id="xtick_39">
     <g id="line2d_39">
      <g>
       <use xlink:href="#mc02de34357" x="390.621704" y="307.584" style="stroke: #000000; stroke-width: 0.6"/>
      </g>
     </g>
    </g>
    <g id="xtick_40">
     <g id="line2d_40">
      <g>
       <use xlink:href="#mc02de34357" x="394.773428" y="307.584" style="stroke: #000000; stroke-width: 0.6"/>
      </g>
     </g>
    </g>
    <g id="text_6">
     <!-- Frequency [Hz] -->
     <g transform="translate(198.455312 335.860562)scale(0.1 -0.1)">
      <defs>
       <path id="DejaVuSans-46" d="M 628 4666 
L 3309 4666 
L 3309 4134 
L 1259 4134 
L 1259 2759 
L 3109 2759 
L 3109 2228 
L 1259 2228 
L 1259 0 
L 628 0 
L 628 4666 
z
" transform="scale(0.015625)"/>
       <path id="DejaVuSans-72" d="M 2631 2963 
Q 2534 3019 2420 3045 
Q 2306 3072 2169 3072 
Q 1681 3072 1420 2755 
Q 1159 2438 1159 1844 
L 1159 0 
L 581 0 
L 581 3500 
L 1159 3500 
L 1159 2956 
Q 1341 3275 1631 3429 
Q 1922 3584 2338 3584 
Q 2397 3584 2469 3576 
Q 2541 3569 2628 3553 
L 2631 2963 
z
" transform="scale(0.015625)"/>
       <path id="DejaVuSans-65" d="M 3597 1894 
L 3597 1613 
L 953 1613 
Q 991 1019 1311 708 
Q 1631 397 2203 397 
Q 2534 397 2845 478 
Q 3156 559 3463 722 
L 3463 178 
Q 3153 47 2828 -22 
Q 2503 -91 2169 -91 
Q 1331 -91 842 396 
Q 353 884 353 1716 
Q 353 2575 817 3079 
Q 1281 3584 2069 3584 
Q 2775 3584 3186 3129 
Q 3597 2675 3597 1894 
z
M 3022 2063 
Q 3016 2534 2758 2815 
Q 2500 3097 2075 3097 
Q 1594 3097 1305 2825 
Q 1016 2553 972 2059 
L 3022 2063 
z
" transform="scale(0.015625)"/>
       <path id="DejaVuSans-71" d="M 947 1747 
Q 947 1113 1208 752 
Q 1469 391 1925 391 
Q 2381 391 2643 752 
Q 2906 1113 2906 1747 
Q 2906 2381 2643 2742 
Q 2381 3103 1925 3103 
Q 1469 3103 1208 2742 
Q 947 2381 947 1747 
z
M 2906 525 
Q 2725 213 2448 61 
Q 2172 -91 1784 -91 
Q 1150 -91 751 415 
Q 353 922 353 1747 
Q 353 2572 751 3078 
Q 1150 3584 1784 3584 
Q 2172 3584 2448 3432 
Q 2725 3281 2906 2969 
L 2906 3500 
L 3481 3500 
L 3481 -1331 
L 2906 -1331 
L 2906 525 
z
" transform="scale(0.015625)"/>
       <path id="DejaVuSans-75" d="M 544 1381 
L 544 3500 
L 1119 3500 
L 1119 1403 
Q 1119 906 1312 657 
Q 1506 409 1894 409 
Q 2359 409 2629 706 
Q 2900 1003 2900 1516 
L 2900 3500 
L 3475 3500 
L 3475 0 
L 2900 0 
L 2900 538 
Q 2691 219 2414 64 
Q 2138 -91 1772 -91 
Q 1169 -91 856 284 
Q 544 659 544 1381 
z
M 1991 3584 
L 1991 3584 
z
" transform="scale(0.015625)"/>
       <path id="DejaVuSans-6e" d="M 3513 2113 
L 3513 0 
L 2938 0 
L 2938 2094 
Q 2938 2591 2744 2837 
Q 2550 3084 2163 3084 
Q 1697 3084 1428 2787 
Q 1159 2491 1159 1978 
L 1159 0 
L 581 0 
L 581 3500 
L 1159 3500 
L 1159 2956 
Q 1366 3272 1645 3428 
Q 1925 3584 2291 3584 
Q 2894 3584 3203 3211 
Q 3513 2838 3513 2113 
z
" transform="scale(0.015625)"/>
       <path id="DejaVuSans-63" d="M 3122 3366 
L 3122 2828 
Q 2878 2963 2633 3030 
Q 2388 3097 2138 3097 
Q 1578 3097 1268 2742 
Q 959 2388 959 1747 
Q 959 1106 1268 751 
Q 1578 397 2138 397 
Q 2388 397 2633 464 
Q 2878 531 3122 666 
L 3122 134 
Q 2881 22 2623 -34 
Q 2366 -91 2075 -91 
Q 1284 -91 818 406 
Q 353 903 353 1747 
Q 353 2603 823 3093 
Q 1294 3584 2113 3584 
Q 2378 3584 2631 3529 
Q 2884 3475 3122 3366 
z
" transform="scale(0.015625)"/>
       <path id="DejaVuSans-79" d="M 2059 -325 
Q 1816 -950 1584 -1140 
Q 1353 -1331 966 -1331 
L 506 -1331 
L 506 -850 
L 844 -850 
Q 1081 -850 1212 -737 
Q 1344 -625 1503 -206 
L 1606 56 
L 191 3500 
L 800 3500 
L 1894 763 
L 2988 3500 
L 3597 3500 
L 2059 -325 
z
" transform="scale(0.015625)"/>
       <path id="DejaVuSans-20" transform="scale(0.015625)"/>
       <path id="DejaVuSans-5b" d="M 550 4863 
L 1875 4863 
L 1875 4416 
L 1125 4416 
L 1125 -397 
L 1875 -397 
L 1875 -844 
L 550 -844 
L 550 4863 
z
" transform="scale(0.015625)"/>
       <path id="DejaVuSans-48" d="M 628 4666 
L 1259 4666 
L 1259 2753 
L 3553 2753 
L 3553 4666 
L 4184 4666 
L 4184 0 
L 3553 0 
L 3553 2222 
L 1259 2222 
L 1259 0 
L 628 0 
L 628 4666 
z
" transform="scale(0.015625)"/>
       <path id="DejaVuSans-7a" d="M 353 3500 
L 3084 3500 
L 3084 2975 
L 922 459 
L 3084 459 
L 3084 0 
L 275 0 
L 275 525 
L 2438 3041 
L 353 3041 
L 353 3500 
z
" transform="scale(0.015625)"/>
       <path id="DejaVuSans-5d" d="M 1947 4863 
L 1947 -844 
L 622 -844 
L 622 -397 
L 1369 -397 
L 1369 4416 
L 622 4416 
L 622 4863 
L 1947 4863 
z
" transform="scale(0.015625)"/>
      </defs>
      <use xlink:href="#DejaVuSans-46"/>
      <use xlink:href="#DejaVuSans-72" x="50.269531"/>
      <use xlink:href="#DejaVuSans-65" x="89.132812"/>
      <use xlink:href="#DejaVuSans-71" x="150.65625"/>
      <use xlink:href="#DejaVuSans-75" x="214.132812"/>
      <use xlink:href="#DejaVuSans-65" x="277.511719"/>
      <use xlink:href="#DejaVuSans-6e" x="339.035156"/>
      <use xlink:href="#DejaVuSans-63" x="402.414062"/>
      <use xlink:href="#DejaVuSans-79" x="457.394531"/>
      <use xlink:href="#DejaVuSans-20" x="516.574219"/>
      <use xlink:href="#DejaVuSans-5b" x="548.361328"/>
      <use xlink:href="#DejaVuSans-48" x="587.375"/>
      <use xlink:href="#DejaVuSans-7a" x="662.570312"/>
      <use xlink:href="#DejaVuSans-5d" x="715.060547"/>
     </g>
    </g>
   </g>
   <g id="matplotlib.axis_2">
    <g id="ytick_1">
     <g id="line2d_41">
      <defs>
       <path id="m8fdc4abf7a" d="M 0 0 
L -3.5 0 
" style="stroke: #000000; stroke-width: 0.8"/>
      </defs>
      <g>
       <use xlink:href="#m8fdc4abf7a" x="57.6" y="307.584" style="stroke: #000000; stroke-width: 0.8"/>
      </g>
     </g>
     <g id="text_7">
      <!-- −140 -->
      <g transform="translate(23.132812 311.383219)scale(0.1 -0.1)">
       <defs>
        <path id="DejaVuSans-2212" d="M 678 2272 
L 4684 2272 
L 4684 1741 
L 678 1741 
L 678 2272 
z
" transform="scale(0.015625)"/>
       </defs>
       <use xlink:href="#DejaVuSans-2212"/>
       <use xlink:href="#DejaVuSans-31" x="83.789062"/>
       <use xlink:href="#DejaVuSans-34" x="147.412109"/>
       <use xlink:href="#DejaVuSans-30" x="211.035156"/>
      </g>
     </g>
    </g>
    <g id="ytick_2">
     <g id="line2d_42">
      <g>
       <use xlink:href="#m8fdc4abf7a" x="57.6" y="274.32" style="stroke: #000000; stroke-width: 0.8"/>
      </g>
     </g>
     <g id="text_8">
      <!-- −130 -->
      <g transform="translate(23.132812 278.119219)scale(0.1 -0.1)">
       <use xlink:href="#DejaVuSans-2212"/>
       <use xlink:href="#DejaVuSans-31" x="83.789062"/>
       <use xlink:href="#DejaVuSans-33" x="147.412109"/>
       <use xlink:href="#DejaVuSans-30" x="211.035156"/>
      </g>
     </g>
    </g>
    <g id="ytick_3">
     <g id="line2d_43">
      <g>
       <use xlink:href="#m8fdc4abf7a" x="57.6" y="241.056" style="stroke: #000000; stroke-width: 0.8"/>
      </g>
     </g>
     <g id="text_9">
      <!-- −120 -->
      <g transform="translate(23.132812 244.855219)scale(0.1 -0.1)">
       <defs>
        <path id="DejaVuSans-32" d="M 1228 531 
L 3431 531 
L 3431 0 
L 469 0 
L 469 531 
Q 828 903 1448 1529 
Q 2069 2156 2228 2338 
Q 2531 2678 2651 2914 
Q 2772 3150 2772 3378 
Q 2772 3750 2511 3984 
Q 2250 4219 1831 4219 
Q 1534 4219 1204 4116 
Q 875 4013 500 3803 
L 500 4441 
Q 881 4594 1212 4672 
Q 1544 4750 1819 4750 
Q 2544 4750 2975 4387 
Q 3406 4025 3406 3419 
Q 3406 3131 3298 2873 
Q 3191 2616 2906 2266 
Q 2828 2175 2409 1742 
Q 1991 1309 1228 531 
z
" transform="scale(0.015625)"/>
       </defs>
       <use xlink:href="#DejaVuSans-2212"/>
       <use xlink:href="#DejaVuSans-31" x="83.789062"/>
       <use xlink:href="#DejaVuSans-32" x="147.412109"/>
       <use xlink:href="#DejaVuSans-30" x="211.035156"/>
      </g>
     </g>
    </g>
    <g id="ytick_4">
     <g id="line2d_44">
      <g>
       <use xlink:href="#m8fdc4abf7a" x="57.6" y="207.792" style="stroke: #000000; stroke-width: 0.8"/>
      </g>
     </g>
     <g id="text_10">
      <!-- −110 -->
      <g transform="translate(23.132812 211.591219)scale(0.1 -0.1)">
       <use xlink:href="#DejaVuSans-2212"/>
       <use xlink:href="#DejaVuSans-31" x="83.789062"/>
       <use xlink:href="#DejaVuSans-31" x="147.412109"/>
       <use xlink:href="#DejaVuSans-30" x="211.035156"/>
      </g>
     </g>
    </g>
    <g id="ytick_5">
     <g id="line2d_45">
      <g>
       <use xlink:href="#m8fdc4abf7a" x="57.6" y="174.528" style="stroke: #000000; stroke-width: 0.8"/>
      </g>
     </g>
     <g id="text_11">
      <!-- −100 -->
      <g transform="translate(23.132812 178.327219)scale(0.1 -0.1)">
       <use xlink:href="#DejaVuSans-2212"/>
       <use xlink:href="#DejaVuSans-31" x="83.789062"/>
       <use xlink:href="#DejaVuSans-30" x="147.412109"/>
       <use xlink:href="#DejaVuSans-30" x="211.035156"/>
      </g>
     </g>
    </g>
    <g id="ytick_6">
     <g id="line2d_46">
      <g>
       <use xlink:href="#m8fdc4abf7a" x="57.6" y="141.264" style="stroke: #000000; stroke-width: 0.8"/>
      </g>
     </g>
     <g id="text_12">
      <!-- −90 -->
      <g transform="translate(29.495313 145.063219)scale(0.1 -0.1)">
       <defs>
        <path id="DejaVuSans-39" d="M 703 97 
L 703 672 
Q 941 559 1184 500 
Q 1428 441 1663 441 
Q 2288 441 2617 861 
Q 2947 1281 2994 2138 
Q 2813 1869 2534 1725 
Q 2256 1581 1919 1581 
Q 1219 1581 811 2004 
Q 403 2428 403 3163 
Q 403 3881 828 4315 
Q 1253 4750 1959 4750 
Q 2769 4750 3195 4129 
Q 3622 3509 3622 2328 
Q 3622 1225 3098 567 
Q 2575 -91 1691 -91 
Q 1453 -91 1209 -44 
Q 966 3 703 97 
z
M 1959 2075 
Q 2384 2075 2632 2365 
Q 2881 2656 2881 3163 
Q 2881 3666 2632 3958 
Q 2384 4250 1959 4250 
Q 1534 4250 1286 3958 
Q 1038 3666 1038 3163 
Q 1038 2656 1286 2365 
Q 1534 2075 1959 2075 
z
" transform="scale(0.015625)"/>
       </defs>
       <use xlink:href="#DejaVuSans-2212"/>
       <use xlink:href="#DejaVuSans-39" x="83.789062"/>
       <use xlink:href="#DejaVuSans-30" x="147.412109"/>
      </g>
     </g>
    </g>
    <g id="ytick_7">
     <g id="line2d_47">
      <g>
       <use xlink:href="#m8fdc4abf7a" x="57.6" y="108" style="stroke: #000000; stroke-width: 0.8"/>
      </g>
     </g>
     <g id="text_13">
      <!-- −80 -->
      <g transform="translate(29.495313 111.799219)scale(0.1 -0.1)">
       <defs>
        <path id="DejaVuSans-38" d="M 2034 2216 
Q 1584 2216 1326 1975 
Q 1069 1734 1069 1313 
Q 1069 891 1326 650 
Q 1584 409 2034 409 
Q 2484 409 2743 651 
Q 3003 894 3003 1313 
Q 3003 1734 2745 1975 
Q 2488 2216 2034 2216 
z
M 1403 2484 
Q 997 2584 770 2862 
Q 544 3141 544 3541 
Q 544 4100 942 4425 
Q 1341 4750 2034 4750 
Q 2731 4750 3128 4425 
Q 3525 4100 3525 3541 
Q 3525 3141 3298 2862 
Q 3072 2584 2669 2484 
Q 3125 2378 3379 2068 
Q 3634 1759 3634 1313 
Q 3634 634 3220 271 
Q 2806 -91 2034 -91 
Q 1263 -91 848 271 
Q 434 634 434 1313 
Q 434 1759 690 2068 
Q 947 2378 1403 2484 
z
M 1172 3481 
Q 1172 3119 1398 2916 
Q 1625 2713 2034 2713 
Q 2441 2713 2670 2916 
Q 2900 3119 2900 3481 
Q 2900 3844 2670 4047 
Q 2441 4250 2034 4250 
Q 1625 4250 1398 4047 
Q 1172 3844 1172 3481 
z
" transform="scale(0.015625)"/>
       </defs>
       <use xlink:href="#DejaVuSans-2212"/>
       <use xlink:href="#DejaVuSans-38" x="83.789062"/>
       <use xlink:href="#DejaVuSans-30" x="147.412109"/>
      </g>
     </g>
    </g>
    <g id="ytick_8">
     <g id="line2d_48">
      <g>
       <use xlink:href="#m8fdc4abf7a" x="57.6" y="74.736" style="stroke: #000000; stroke-width: 0.8"/>
      </g>
     </g>
     <g id="text_14">
      <!-- −70 -->
      <g transform="translate(29.495313 78.535219)scale(0.1 -0.1)">
       <use xlink:href="#DejaVuSans-2212"/>
       <use xlink:href="#DejaVuSans-37" x="83.789062"/>
       <use xlink:href="#DejaVuSans-30" x="147.412109"/>
      </g>
     </g>
    </g>
    <g id="ytick_9">
     <g id="line2d_49">
      <g>
       <use xlink:href="#m8fdc4abf7a" x="57.6" y="41.472" style="stroke: #000000; stroke-width: 0.8"/>
      </g>
     </g>
     <g id="text_15">
      <!-- −60 -->
      <g transform="translate(29.495313 45.271219)scale(0.1 -0.1)">
       <use xlink:href="#DejaVuSans-2212"/>
       <use xlink:href="#DejaVuSans-36" x="83.789062"/>
       <use xlink:href="#DejaVuSans-30" x="147.412109"/>
      </g>
     </g>
    </g>
    <g id="text_16">
     <!-- Phase noise [dBc/Hz] -->
     <g transform="translate(17.053125 227.257688)rotate(-90)scale(0.1 -0.1)">
      <defs>
       <path id="DejaVuSans-50" d="M 1259 4147 
L 1259 2394 
L 2053 2394 
Q 2494 2394 2734 2622 
Q 2975 2850 2975 3272 
Q 2975 3691 2734 3919 
Q 2494 4147 2053 4147 
L 1259 4147 
z
M 628 4666 
L 2053 4666 
Q 2838 4666 3239 4311 
Q 3641 3956 3641 3272 
Q 3641 2581 3239 2228 
Q 2838 1875 2053 1875 
L 1259 1875 
L 1259 0 
L 628 0 
L 628 4666 
z
" transform="scale(0.015625)"/>
       <path id="DejaVuSans-68" d="M 3513 2113 
L 3513 0 
L 2938 0 
L 2938 2094 
Q 2938 2591 2744 2837 
Q 2550 3084 2163 3084 
Q 1697 3084 1428 2787 
Q 1159 2491 1159 1978 
L 1159 0 
L 581 0 
L 581 4863 
L 1159 4863 
L 1159 2956 
Q 1366 3272 1645 3428 
Q 1925 3584 2291 3584 
Q 2894 3584 3203 3211 
Q 3513 2838 3513 2113 
z
" transform="scale(0.015625)"/>
       <path id="DejaVuSans-61" d="M 2194 1759 
Q 1497 1759 1228 1600 
Q 959 1441 959 1056 
Q 959 750 1161 570 
Q 1363 391 1709 391 
Q 2188 391 2477 730 
Q 2766 1069 2766 1631 
L 2766 1759 
L 2194 1759 
z
M 3341 1997 
L 3341 0 
L 2766 0 
L 2766 531 
Q 2569 213 2275 61 
Q 1981 -91 1556 -91 
Q 1019 -91 701 211 
Q 384 513 384 1019 
Q 384 1609 779 1909 
Q 1175 2209 1959 2209 
L 2766 2209 
L 2766 2266 
Q 2766 2663 2505 2880 
Q 2244 3097 1772 3097 
Q 1472 3097 1187 3025 
Q 903 2953 641 2809 
L 641 3341 
Q 956 3463 1253 3523 
Q 1550 3584 1831 3584 
Q 2591 3584 2966 3190 
Q 3341 2797 3341 1997 
z
" transform="scale(0.015625)"/>
       <path id="DejaVuSans-73" d="M 2834 3397 
L 2834 2853 
Q 2591 2978 2328 3040 
Q 2066 3103 1784 3103 
Q 1356 3103 1142 2972 
Q 928 2841 928 2578 
Q 928 2378 1081 2264 
Q 1234 2150 1697 2047 
L 1894 2003 
Q 2506 1872 2764 1633 
Q 3022 1394 3022 966 
Q 3022 478 2636 193 
Q 2250 -91 1575 -91 
Q 1294 -91 989 -36 
Q 684 19 347 128 
L 347 722 
Q 666 556 975 473 
Q 1284 391 1588 391 
Q 1994 391 2212 530 
Q 2431 669 2431 922 
Q 2431 1156 2273 1281 
Q 2116 1406 1581 1522 
L 1381 1569 
Q 847 1681 609 1914 
Q 372 2147 372 2553 
Q 372 3047 722 3315 
Q 1072 3584 1716 3584 
Q 2034 3584 2315 3537 
Q 2597 3491 2834 3397 
z
" transform="scale(0.015625)"/>
       <path id="DejaVuSans-6f" d="M 1959 3097 
Q 1497 3097 1228 2736 
Q 959 2375 959 1747 
Q 959 1119 1226 758 
Q 1494 397 1959 397 
Q 2419 397 2687 759 
Q 2956 1122 2956 1747 
Q 2956 2369 2687 2733 
Q 2419 3097 1959 3097 
z
M 1959 3584 
Q 2709 3584 3137 3096 
Q 3566 2609 3566 1747 
Q 3566 888 3137 398 
Q 2709 -91 1959 -91 
Q 1206 -91 779 398 
Q 353 888 353 1747 
Q 353 2609 779 3096 
Q 1206 3584 1959 3584 
z
" transform="scale(0.015625)"/>
       <path id="DejaVuSans-69" d="M 603 3500 
L 1178 3500 
L 1178 0 
L 603 0 
L 603 3500 
z
M 603 4863 
L 1178 4863 
L 1178 4134 
L 603 4134 
L 603 4863 
z
" transform="scale(0.015625)"/>
       <path id="DejaVuSans-64" d="M 2906 2969 
L 2906 4863 
L 3481 4863 
L 3481 0 
L 2906 0 
L 2906 525 
Q 2725 213 2448 61 
Q 2172 -91 1784 -91 
Q 1150 -91 751 415 
Q 353 922 353 1747 
Q 353 2572 751 3078 
Q 1150 3584 1784 3584 
Q 2172 3584 2448 3432 
Q 2725 3281 2906 2969 
z
M 947 1747 
Q 947 1113 1208 752 
Q 1469 391 1925 391 
Q 2381 391 2643 752 
Q 2906 1113 2906 1747 
Q 2906 2381 2643 2742 
Q 2381 3103 1925 3103 
Q 1469 3103 1208 2742 
Q 947 2381 947 1747 
z
" transform="scale(0.015625)"/>
       <path id="DejaVuSans-42" d="M 1259 2228 
L 1259 519 
L 2272 519 
Q 2781 519 3026 730 
Q 3272 941 3272 1375 
Q 3272 1813 3026 2020 
Q 2781 2228 2272 2228 
L 1259 2228 
z
M 1259 4147 
L 1259 2741 
L 2194 2741 
Q 2656 2741 2882 2914 
Q 3109 3088 3109 3444 
Q 3109 3797 2882 3972 
Q 2656 4147 2194 4147 
L 1259 4147 
z
M 628 4666 
L 2241 4666 
Q 2963 4666 3353 4366 
Q 3744 4066 3744 3513 
Q 3744 3084 3544 2831 
Q 3344 2578 2956 2516 
Q 3422 2416 3680 2098 
Q 3938 1781 3938 1306 
Q 3938 681 3513 340 
Q 3088 0 2303 0 
L 628 0 
L 628 4666 
z
" transform="scale(0.015625)"/>
       <path id="DejaVuSans-2f" d="M 1625 4666 
L 2156 4666 
L 531 -594 
L 0 -594 
L 1625 4666 
z
" transform="scale(0.015625)"/>
      </defs>
      <use xlink:href="#DejaVuSans-50"/>
      <use xlink:href="#DejaVuSans-68" x="60.302734"/>
      <use xlink:href="#DejaVuSans-61" x="123.681641"/>
      <use xlink:href="#DejaVuSans-73" x="184.960938"/>
      <use xlink:href="#DejaVuSans-65" x="237.060547"/>
      <use xlink:href="#DejaVuSans-20" x="298.583984"/>
      <use xlink:href="#DejaVuSans-6e" x="330.371094"/>
      <use xlink:href="#DejaVuSans-6f" x="393.75"/>
      <use xlink:href="#DejaVuSans-69" x="454.931641"/>
      <use xlink:href="#DejaVuSans-73" x="482.714844"/>
      <use xlink:href="#DejaVuSans-65" x="534.814453"/>
      <use xlink:href="#DejaVuSans-20" x="596.337891"/>
      <use xlink:href="#DejaVuSans-5b" x="628.125"/>
      <use xlink:href="#DejaVuSans-64" x="667.138672"/>
      <use xlink:href="#DejaVuSans-42" x="730.615234"/>
      <use xlink:href="#DejaVuSans-63" x="799.21875"/>
      <use xlink:href="#DejaVuSans-2f" x="854.199219"/>
      <use xlink:href="#DejaVuSans-48" x="887.890625"/>
      <use xlink:href="#DejaVuSans-7a" x="963.085938"/>
      <use xlink:href="#DejaVuSans-5d" x="1015.576172"/>
     </g>
    </g>
   </g>
   <g id="line2d_50">
    <path d="M 398.487273 279.27811 
L 398.133009 279.023086 
L 397.775149 279.716086 
L 397.413619 279.40784 
L 397.048342 279.958913 
L 396.67924 280.052052 
L 396.306232 279.692801 
L 395.929234 277.465222 
L 395.548161 279.118443 
L 395.162923 279.925649 
L 394.773428 281.37596 
L 394.379582 281.604372 
L 393.981285 282.002432 
L 393.578435 282.170969 
L 393.170929 280.635281 
L 392.758656 280.24831 
L 392.341504 279.049697 
L 391.919356 279.051915 
L 391.492092 278.368894 
L 391.059584 278.53854 
L 390.621704 277.986358 
L 390.178315 278.688228 
L 389.274447 281.387048 
L 388.81367 280.78386 
L 387.873644 274.59343 
L 387.394059 273.876036 
L 386.414859 277.638195 
L 385.914866 277.736878 
L 384.893087 276.186776 
L 384.370871 276.615881 
L 383.30264 275.030297 
L 382.756135 273.990243 
L 382.201022 273.782897 
L 381.637027 274.126625 
L 380.481221 271.30362 
L 379.888789 271.787057 
L 378.673188 274.542425 
L 376.767377 276.279915 
L 376.1085 275.524822 
L 375.437071 275.004795 
L 374.752605 273.372641 
L 374.054584 271.383454 
L 373.34246 270.0285 
L 372.615652 269.873268 
L 371.115472 271.463288 
L 370.340739 272.547694 
L 369.548595 272.681859 
L 367.908815 271.416718 
L 367.059402 271.257051 
L 366.189015 272.067584 
L 364.380981 271.320252 
L 363.440954 269.426422 
L 361.482177 269.174724 
L 360.460398 270.243608 
L 359.408113 269.531758 
L 358.323446 269.043886 
L 357.204338 268.349777 
L 356.048532 267.084636 
L 354.853539 266.968212 
L 352.334688 264.920259 
L 351.004382 262.402174 
L 349.621895 260.630312 
L 348.182963 259.530382 
L 346.682783 258.115553 
L 345.115906 256.342582 
L 341.756325 253.152564 
L 338.042481 249.161993 
L 336.027709 247.641828 
L 333.890756 245.422011 
L 331.615843 241.90268 
L 329.183919 238.71488 
L 326.571693 237.373232 
L 323.750274 237.949808 
L 323.455302 238.693812 
L 323.157841 239.892425 
L 322.555281 241.00566 
L 322.188738 240.853755 
L 322.034879 241.056665 
L 321.849358 239.709473 
L 321.631676 236.758956 
L 321.600468 236.758956 
L 321.349808 235.538168 
L 321.097353 237.294507 
L 320.938645 236.832137 
L 320.651158 237.805664 
L 320.554806 237.607188 
L 320.490424 237.600536 
L 320.296571 238.715988 
L 320.231715 239.190555 
L 320.16674 239.104068 
L 320.003777 239.049737 
L 319.971094 239.044193 
L 319.807221 238.521948 
L 319.774355 238.558539 
L 319.344283 239.007603 
L 318.908899 237.913217 
L 318.807657 238.152718 
L 318.740001 238.057361 
L 318.536249 236.828811 
L 318.502176 236.835464 
L 318.43393 236.744542 
L 318.262736 236.536088 
L 318.056198 236.935256 
L 317.987083 237.37434 
L 317.917832 237.194715 
L 317.813699 236.71904 
L 317.639458 236.098112 
L 317.534498 235.710032 
L 317.28837 231.197216 
L 316.93375 231.906848 
L 316.575526 230.976564 
L 316.213624 233.222993 
L 315.847968 232.036577 
L 315.478479 232.310451 
L 315.105076 230.064022 
L 314.727675 231.402344 
L 314.34619 229.748014 
L 313.96053 230.391118 
L 313.570605 229.059449 
L 313.176317 229.327779 
L 312.77757 228.7257 
L 312.37426 227.784329 
L 311.966282 227.3397 
L 311.553526 226.081212 
L 311.13588 227.751065 
L 310.713226 227.071371 
L 310.285442 229.036164 
L 309.852404 225.652107 
L 309.413979 224.333744 
L 308.970032 223.522102 
L 308.520422 225.171996 
L 308.065003 225.711982 
L 307.603623 223.5975 
L 307.136124 222.432152 
L 306.662341 220.495078 
L 306.182103 220.700206 
L 305.695232 220.416353 
L 305.201542 222.288008 
L 304.700838 222.280246 
L 304.19292 220.917531 
L 303.677576 218.738739 
L 303.154585 217.756342 
L 302.623718 218.942758 
L 302.084733 218.284131 
L 301.537379 218.224256 
L 300.981391 216.619822 
L 300.416492 215.805963 
L 299.842393 213.030636 
L 299.258788 212.518371 
L 298.665358 211.196681 
L 298.061766 212.063763 
L 297.447657 212.022737 
L 296.82266 212.823291 
L 296.186381 211.180049 
L 295.538405 209.826204 
L 294.878293 210.286356 
L 294.205583 211.426203 
L 293.519785 210.766467 
L 292.820379 208.568825 
L 292.106814 208.785041 
L 291.378504 207.333622 
L 290.634829 208.348174 
L 289.875124 206.733761 
L 289.098685 205.581718 
L 288.304757 205.661552 
L 287.492534 205.178115 
L 286.661153 205.250187 
L 285.809688 204.241179 
L 284.937146 201.935984 
L 284.042455 202.6689 
L 283.124462 201.177564 
L 282.181922 200.22067 
L 281.213484 198.259203 
L 280.217686 195.989489 
L 279.192936 200.975763 
L 277.049484 202.781998 
L 275.926812 195.330862 
L 274.767203 192.16302 
L 273.568145 190.856854 
L 272.326858 191.952348 
L 271.040258 191.916867 
L 269.704912 190.978822 
L 268.31698 188.819988 
L 266.87215 187.042582 
L 265.365556 186.457136 
L 263.791682 186.875153 
L 262.144237 186.393934 
L 260.416002 185.098856 
L 260.238426 185.303984 
L 259.880566 187.428444 
L 259.700264 187.7001 
L 259.519035 188.803356 
L 259.33687 189.116038 
L 259.153758 188.233433 
L 258.784656 184.255059 
L 258.411648 184.109806 
L 258.223653 184.502321 
L 257.844629 182.612926 
L 257.653577 181.586177 
L 257.461485 181.59283 
L 257.07413 181.478624 
L 256.484998 179.823185 
L 256.286412 179.887496 
L 256.086701 180.377585 
L 255.885852 180.420828 
L 255.683852 180.28999 
L 255.070812 177.923811 
L 254.446921 174.565256 
L 254.236479 173.856732 
L 254.024773 172.346547 
L 253.597508 171.453963 
L 253.165 173.593947 
L 252.94674 173.59062 
L 252.72712 173.418756 
L 252.506123 172.261169 
L 252.059928 171.369694 
L 251.379864 174.160544 
L 251.150228 175.259364 
L 250.919087 175.502192 
L 250.68642 175.077521 
L 250.287327 173.67378 
L 250.050438 169.635531 
L 250.002869 169.635531 
L 249.835868 169.094436 
L 249.740083 169.411553 
L 249.52361 171.085841 
L 249.451156 171.015987 
L 249.354318 171.112452 
L 249.3058 171.593672 
L 249.257214 171.277664 
L 249.062199 169.698732 
L 249.037746 169.809612 
L 248.939764 170.758745 
L 248.767638 171.96512 
L 248.619429 172.284454 
L 248.569887 172.539478 
L 248.54509 172.199076 
L 248.445727 171.268793 
L 248.395941 171.282099 
L 248.346084 171.415155 
L 248.321129 171.33643 
L 248.221132 171.039272 
L 248.196088 171.175654 
L 248.070602 171.83539 
L 248.020283 171.571496 
L 247.944668 171.651329 
L 247.767601 172.272257 
L 247.691442 172.021668 
L 247.58964 171.60476 
L 247.538629 171.629153 
L 247.461973 171.445092 
L 247.410776 171.473921 
L 247.153671 172.522846 
L 246.894677 169.988129 
L 246.842649 170.103444 
L 246.764463 170.675585 
L 246.686103 170.581337 
L 246.659944 170.56914 
L 246.528859 171.608086 
L 246.291669 174.488748 
L 246.079485 175.71619 
L 246.026239 175.499974 
L 245.59735 173.71148 
L 245.54337 173.76692 
L 245.272223 175.88251 
L 245.217742 175.541 
L 244.944069 172.922014 
L 244.834002 172.401987 
L 244.751226 172.222361 
L 244.585087 174.056316 
L 244.473892 173.843427 
L 244.278452 172.89762 
L 244.166283 173.690412 
L 244.053757 174.678353 
L 244.025569 174.396718 
L 243.628554 171.422916 
L 243.514295 170.979396 
L 243.428356 170.094574 
L 243.370948 170.110097 
L 243.255849 170.834144 
L 243.227016 171.062556 
L 243.169278 170.949459 
L 242.937376 167.972331 
L 242.820851 168.243987 
L 242.733203 168.917028 
L 242.645337 169.993673 
L 242.586638 169.865052 
L 242.468945 170.482654 
L 242.439461 170.670041 
L 242.380417 170.332966 
L 242.291666 169.851747 
L 242.232374 169.964844 
L 242.083707 171.944052 
L 241.994205 171.901918 
L 241.874514 171.959576 
L 241.452366 168.96138 
L 241.361245 168.800604 
L 241.330818 168.823889 
L 241.239381 169.240798 
L 241.117095 170.942806 
L 241.055793 170.361795 
L 240.747671 165.058404 
L 240.499219 163.178988 
L 240.311725 162.818628 
L 240.217602 162.646764 
L 240.123227 163.366376 
L 239.870319 165.081689 
L 239.519581 166.727148 
L 239.358993 168.1952 
L 239.197671 166.814744 
L 239.165317 166.831376 
L 239.132934 166.848008 
L 239.035606 167.356947 
L 238.970571 167.164016 
L 238.938009 167.097488 
L 238.905416 167.127425 
L 238.807457 167.556531 
L 238.774744 167.429019 
L 238.34668 165.505251 
L 238.047254 163.210035 
L 237.913355 163.012668 
L 237.846214 163.376355 
L 237.812596 163.04815 
L 237.6778 161.957091 
L 237.644021 162.015857 
L 237.576365 162.204353 
L 237.508578 162.089038 
L 237.440661 162.026945 
L 237.406654 162.117867 
L 237.236121 162.49375 
L 237.201916 162.467139 
L 236.927069 162.189939 
L 236.823446 162.849675 
L 236.788838 162.711075 
L 236.650062 162.247596 
L 236.580469 162.294166 
L 236.475821 162.59576 
L 236.440869 162.448289 
L 236.335805 161.677673 
L 236.195231 161.113848 
L 236.124733 162.275871 
L 235.769757 160.907612 
L 235.41117 161.918837 
L 235.048897 159.404079 
L 234.682862 159.835402 
L 234.312986 157.830692 
L 233.939188 159.540461 
L 233.561383 163.47781 
L 233.179485 163.017658 
L 232.793404 160.16028 
L 232.403047 154.129517 
L 232.008319 155.14296 
L 231.609121 157.184261 
L 231.20535 156.361532 
L 230.7969 155.188421 
L 229.965521 151.509423 
L 229.54236 148.017812 
L 229.114058 148.440264 
L 228.680488 150.457172 
L 228.241518 149.025711 
L 227.797012 150.3851 
L 227.346829 150.015869 
L 226.890823 154.125082 
L 226.428839 151.68794 
L 225.960721 150.825293 
L 225.486301 145.595084 
L 225.005409 144.522874 
L 224.023485 147.328138 
L 223.013421 144.189125 
L 222.497323 143.886423 
L 221.973557 144.131468 
L 221.441891 144.797856 
L 220.902082 144.76681 
L 220.353878 146.645117 
L 219.797013 145.4964 
L 219.23121 143.934101 
L 218.656176 141.685455 
L 217.477176 142.803125 
L 216.872551 145.260226 
L 216.257373 143.559327 
L 215.631268 143.767781 
L 213.009332 135.265503 
L 212.322199 134.798698 
L 211.549916 132.312768 
L 211.478281 132.731895 
L 211.334573 135.742287 
L 211.117907 132.377079 
L 211.045388 133.387196 
L 210.826931 138.380122 
L 210.75381 138.402298 
L 210.607112 134.458296 
L 210.533533 130.785951 
L 210.459801 132.822816 
L 210.385914 132.503482 
L 210.311871 133.648872 
L 210.088806 126.104597 
L 210.014137 125.794133 
L 209.713866 129.832383 
L 209.486972 135.237783 
L 209.411015 135.21228 
L 209.258608 136.084906 
L 208.951803 130.219354 
L 208.874683 130.831412 
L 208.797393 130.83252 
L 208.48653 123.225044 
L 208.330064 123.724004 
L 208.172901 124.674245 
L 208.015033 127.770015 
L 207.935834 127.676876 
L 207.776898 126.21326 
L 207.697161 127.012704 
L 207.617243 129.029612 
L 207.537144 128.436404 
L 207.295747 130.589693 
L 207.133893 127.872024 
L 207.052686 127.696834 
L 206.971292 129.541877 
L 206.725976 124.617696 
L 206.561478 125.38166 
L 206.396209 123.057615 
L 206.313282 123.065376 
L 206.063327 125.097807 
L 205.979613 124.782908 
L 205.8957 123.981245 
L 205.811587 124.079928 
L 205.727272 124.293927 
L 205.558035 129.063984 
L 205.473111 128.713604 
L 205.302647 122.869119 
L 205.217105 123.75505 
L 205.131354 126.759898 
L 204.872844 119.622552 
L 204.437736 127.584845 
L 204.262178 126.405082 
L 204.174069 123.920261 
L 204.08574 124.167524 
L 203.99719 123.500026 
L 203.819418 124.626567 
L 203.730194 124.224072 
L 203.371026 118.177786 
L 203.280659 117.197607 
L 203.008159 121.580693 
L 202.825316 118.437245 
L 202.733537 118.501556 
L 202.456758 120.191367 
L 202.271024 123.728439 
L 202.177789 124.509034 
L 202.084306 123.992333 
L 201.990575 125.459276 
L 201.896594 125.041258 
L 201.802362 125.083392 
L 201.518144 118.46053 
L 201.422893 117.975984 
L 201.327384 118.106823 
L 201.039295 121.525253 
L 200.651476 118.085756 
L 200.455955 117.339533 
L 200.357786 117.353948 
L 200.061628 114.711677 
L 199.962353 115.278274 
L 199.862798 115.220616 
L 199.66284 113.904471 
L 199.461741 114.882432 
L 199.259489 116.287282 
L 199.157926 116.064413 
L 198.953917 114.651802 
L 198.748721 116.061087 
L 198.542324 117.678826 
L 198.43867 117.149928 
L 198.230444 113.552981 
L 198.125867 114.320271 
L 198.02098 116.156444 
L 197.810264 114.968919 
L 197.704432 115.802736 
L 197.491809 114.571968 
L 197.385015 111.155756 
L 197.277896 112.254576 
L 197.062677 117.746463 
L 196.737365 110.96726 
L 196.298891 116.291717 
L 196.188415 115.528863 
L 196.077592 115.715141 
L 195.966419 114.002045 
L 195.854894 115.157415 
L 195.518188 109.172112 
L 195.178234 115.036556 
L 195.064183 114.678413 
L 194.949762 113.5175 
L 194.719801 114.147298 
L 194.37202 111.201216 
L 194.138246 108.083271 
L 193.90291 108.554511 
L 193.665993 107.847096 
L 193.653046 107.884796 
L 193.640094 107.922495 
L 193.601209 103.071495 
L 193.536306 107.513348 
L 193.523311 108.690893 
L 193.497307 106.675095 
L 193.419178 108.290616 
L 193.380049 105.544119 
L 193.314737 107.52998 
L 193.170623 113.649447 
L 193.157492 113.21258 
L 193.039097 103.570455 
L 193.012733 104.597204 
L 192.880615 113.225885 
L 192.840883 112.35326 
L 192.787837 111.889781 
L 192.708119 115.08756 
L 192.561498 109.504752 
L 192.548138 109.585695 
L 192.521404 111.007176 
L 192.481265 107.605378 
L 192.414265 104.677037 
L 192.374003 106.814804 
L 192.225983 111.867605 
L 192.212496 111.867605 
L 192.077339 107.615357 
L 192.009565 109.582368 
L 191.995995 109.891724 
L 191.968839 108.435869 
L 191.873626 106.525407 
L 191.860004 107.304893 
L 191.819104 110.822007 
L 191.723486 109.40496 
L 191.545218 102.229916 
L 191.531468 102.254309 
L 191.503951 103.691314 
L 191.462636 100.384872 
L 191.421272 100.225205 
L 191.407473 101.254172 
L 191.31073 103.691314 
L 191.352224 101.149944 
L 191.296888 102.763248 
L 191.227596 97.144959 
L 191.172064 98.56644 
L 191.03285 101.835183 
L 190.949057 103.315431 
L 190.97701 101.432688 
L 190.921082 102.029223 
L 190.851046 103.512797 
L 190.752762 109.656658 
L 190.710556 106.498796 
L 190.555367 98.06748 
L 190.527078 99.371429 
L 190.427885 103.908639 
L 190.4846 99.271637 
L 190.385288 102.523748 
L 190.356861 102.115709 
L 190.185819 109.623394 
L 190.171528 109.295189 
L 190.12862 110.841965 
L 190.099985 109.954925 
L 190.071328 111.125818 
L 190.028297 109.661093 
L 189.999581 109.807455 
L 189.942079 110.457212 
L 189.855649 106.426724 
L 189.841224 106.349108 
L 189.812355 107.426861 
L 189.769007 105.416607 
L 189.754546 105.365602 
L 189.595081 102.002612 
L 189.580548 102.497136 
L 189.56601 103.222292 
L 189.536915 100.425898 
L 189.493227 98.436711 
L 189.434892 100.302821 
L 189.361837 102.600255 
L 189.405688 100.297277 
L 189.273971 101.738717 
L 189.068094 95.381967 
L 189.023821 99.088685 
L 188.935107 98.362421 
L 188.742124 105.075096 
L 188.652698 104.776829 
L 188.592954 102.354101 
L 188.518131 104.356594 
L 188.44315 108.576687 
L 188.413112 105.994292 
L 188.337906 102.763248 
L 188.277626 103.624786 
L 188.20213 100.258469 
L 188.141617 102.141212 
L 188.096164 106.620764 
L 188.020278 104.183621 
L 187.989878 102.643498 
L 187.868015 98.036434 
L 187.852752 98.727216 
L 187.63838 104.964216 
L 187.623017 104.555069 
L 187.592272 102.836429 
L 187.515293 104.624924 
L 187.484454 105.539684 
L 187.422695 104.679255 
L 187.252298 100.649876 
L 187.236766 102.455002 
L 187.205682 105.477591 
L 187.143433 101.278565 
L 187.112266 100.930402 
L 187.096673 101.577941 
L 187.002967 104.77572 
L 186.924689 104.121528 
L 186.909012 103.530538 
L 186.86194 104.478562 
L 186.830524 104.460821 
L 186.79908 106.638504 
L 186.751861 103.46401 
L 186.625634 99.394714 
L 186.609823 99.582101 
L 186.56235 98.794853 
L 186.514813 100.853895 
L 186.483086 97.713773 
L 186.403643 100.571151 
L 186.29212 102.202196 
L 186.339959 100.438095 
L 186.27616 101.33844 
L 186.132189 95.345376 
L 186.05195 96.280095 
L 186.019803 98.355768 
L 185.923186 97.616199 
L 185.874779 96.882173 
L 185.826304 97.506428 
L 185.582928 104.853336 
L 185.517742 104.772394 
L 185.452436 105.442109 
L 185.403377 102.843082 
L 185.370633 106.269274 
L 185.32146 101.158815 
L 185.305054 101.204276 
L 185.189995 97.08841 
L 185.124079 98.02202 
L 185.091074 100.3128 
L 185.024972 97.825762 
L 185.008427 97.465402 
L 184.975314 98.145096 
L 184.84255 102.157844 
L 184.825919 102.157844 
L 184.775979 104.876621 
L 184.725969 102.898522 
L 184.525215 96.888826 
L 184.508434 97.279124 
L 184.424408 99.465677 
L 184.390741 97.913357 
L 184.373896 96.579471 
L 184.323312 98.362421 
L 184.289548 97.626178 
L 184.272655 97.61509 
L 184.171121 94.153416 
L 184.035287 91.975733 
L 183.984214 91.469012 
L 183.950124 92.030064 
L 183.830549 93.805253 
L 183.641823 99.257223 
L 183.624616 98.242671 
L 183.572944 100.510167 
L 183.538453 99.235047 
L 183.43478 101.32957 
L 183.400154 100.224096 
L 183.296073 93.560208 
L 183.243917 95.54496 
L 183.121918 99.320424 
L 183.104455 98.074133 
L 183.069503 95.812181 
L 183.034516 98.5487 
L 182.999495 98.202754 
L 182.964439 98.189448 
L 182.594229 88.943165 
L 182.166316 99.094229 
L 182.541023 88.885508 
L 182.07651 97.075104 
L 182.040523 96.3311 
L 181.986474 96.712527 
L 181.932342 102.892978 
L 181.841937 101.460408 
L 181.823828 101.30185 
L 181.80571 102.082445 
L 181.769446 103.960752 
L 181.714979 101.285218 
L 181.696805 102.35521 
L 181.678622 102.766575 
L 181.660429 102.107948 
L 181.569323 96.190282 
L 181.496268 97.266927 
L 181.276191 107.976826 
L 181.202525 106.814804 
L 181.165635 104.645991 
L 181.128705 107.001082 
L 181.110226 107.994567 
L 181.073239 105.495332 
L 180.831871 94.97282 
L 180.813235 95.694648 
L 180.626337 102.384039 
L 180.588838 100.705316 
L 180.532515 97.489796 
L 180.476102 99.301575 
L 180.457277 100.102128 
L 180.400743 98.311416 
L 180.363003 99.87926 
L 180.344118 99.87926 
L 180.287402 101.778634 
L 180.268477 99.74066 
L 180.230595 96.673719 
L 180.154709 98.277044 
L 180.135712 99.68522 
L 180.07866 96.805666 
L 180.040573 98.730543 
L 180.021515 98.828117 
L 179.945177 99.609821 
L 179.906946 97.5408 
L 179.849522 100.510167 
L 179.792004 98.924583 
L 179.753606 98.971152 
L 179.618885 104.274543 
L 179.599597 102.96505 
L 179.444911 98.147536 
L 177.62102 97.685832 
L 177.248012 98.763585 
L 177.060017 98.05728 
L 176.871014 94.788537 
L 176.680993 93.895953 
L 176.489941 94.205308 
L 176.104703 97.117017 
L 175.910494 97.388673 
L 175.715208 97.362062 
L 175.518835 96.767745 
L 175.122776 101.265038 
L 174.923065 100.919092 
L 174.520215 96.768854 
L 174.317051 95.412792 
L 174.112709 97.426372 
L 173.907175 100.792689 
L 173.700436 102.218606 
L 173.492477 100.981185 
L 173.283284 96.816532 
L 173.072842 96.492763 
L 172.433872 93.405864 
L 172.218281 93.239544 
L 172.001364 94.095537 
L 171.563484 96.942936 
L 171.120095 98.290128 
L 170.896292 97.245638 
L 170.671058 97.38202 
L 170.216227 98.858942 
L 169.986592 97.52062 
L 169.75545 94.590062 
L 169.522784 93.097617 
L 169.288571 94.688745 
L 168.815424 99.700521 
L 168.576447 99.671692 
L 168.335839 100.702876 
L 167.849639 97.27114 
L 167.604001 94.495814 
L 167.356639 95.447164 
L 166.856646 96.20891 
L 166.603965 94.339473 
L 166.349459 94.73975 
L 166.093102 94.642176 
L 165.834867 96.223324 
L 165.574726 96.611404 
L 165.312651 97.468507 
L 165.048613 96.644668 
L 164.782582 96.75444 
L 164.514528 97.054924 
L 164.24442 97.815561 
L 163.972227 96.111336 
L 163.697915 95.20212 
L 163.421451 95.611267 
L 163.142802 98.160398 
L 162.861933 98.37994 
L 162.578807 98.024016 
L 162.293389 98.141548 
L 162.005642 97.726857 
L 161.715525 97.725748 
L 161.423001 96.870864 
L 161.12803 98.610571 
L 160.830569 96.647995 
L 160.530576 96.4218 
L 160.228008 93.587707 
L 159.922821 94.041206 
L 159.304403 96.511612 
L 158.991077 95.918404 
L 158.674941 93.701913 
L 158.355944 94.149868 
L 157.709157 98.016254 
L 157.381258 97.496227 
L 157.05028 95.362896 
L 156.716164 94.868371 
L 156.378851 95.79311 
L 156.038279 94.860609 
L 155.694385 93.581054 
L 155.347102 91.83802 
L 154.996364 93.29831 
L 154.6421 93.124228 
L 154.28424 94.931572 
L 153.922709 94.557907 
L 153.557432 94.975924 
L 153.18833 93.383688 
L 152.438325 94.527969 
L 152.057252 93.62208 
L 151.672014 93.117576 
L 150.888673 95.261995 
L 150.490375 94.726444 
L 150.087526 93.271699 
L 149.68002 94.338364 
L 149.267747 93.938088 
L 148.850595 95.310782 
L 148.428447 95.990476 
L 148.001182 97.604889 
L 147.568675 95.773152 
L 147.130795 94.838433 
L 146.687406 94.863936 
L 146.238369 96.687912 
L 145.783538 96.92963 
L 145.322761 95.530324 
L 144.855881 94.512446 
L 144.382734 94.797408 
L 143.90315 95.627899 
L 143.41695 95.258668 
L 142.92395 93.942523 
L 142.423957 93.190756 
L 141.91677 92.071977 
L 141.402178 92.972323 
L 140.879962 94.717574 
L 140.349893 95.278627 
L 139.265226 94.236355 
L 138.710113 94.414872 
L 138.146118 93.40919 
L 137.572952 91.895678 
L 136.990312 93.387014 
L 135.795319 95.462688 
L 135.182279 92.487777 
L 134.558388 90.306768 
L 133.923255 89.238993 
L 133.276468 92.160681 
L 131.946162 95.89512 
L 131.261696 93.578836 
L 129.851551 94.977033 
L 129.124743 96.803227 
L 128.382633 95.754302 
L 127.624563 94.192003 
L 126.84983 91.908984 
L 126.057686 90.724785 
L 125.247331 90.097204 
L 123.568493 93.540028 
L 122.698105 94.307318 
L 120.890072 92.828179 
L 119.950045 90.386601 
L 118.984261 89.056041 
L 117.991268 90.099422 
L 116.969489 92.37468 
L 115.917204 92.183966 
L 114.832536 88.073644 
L 113.713429 86.688753 
L 112.557623 88.666852 
L 111.36263 91.907875 
L 110.125699 93.7884 
L 108.843779 92.736148 
L 107.513473 92.777174 
L 106.130985 91.558603 
L 104.692054 92.171769 
L 103.191874 91.03414 
L 101.624997 90.460891 
L 99.985217 89.133657 
L 98.265416 89.898729 
L 98.08873 90.521875 
L 97.911153 91.646198 
L 97.732677 90.836774 
L 97.553293 90.586185 
L 97.372991 90.783552 
L 96.642417 96.01487 
L 96.457383 96.027067 
L 96.271373 93.715219 
L 96.084375 92.922427 
L 95.896381 91.258118 
L 95.707378 91.137259 
L 95.517356 90.826795 
L 95.326305 93.020001 
L 95.134212 93.684172 
L 94.941067 93.41806 
L 94.551572 90.19367 
L 94.355199 89.954169 
L 94.157725 90.383275 
L 93.959139 91.149456 
L 93.558579 90.947654 
L 93.153415 91.753752 
L 92.5368 95.177726 
L 92.328841 95.559153 
L 92.119648 95.291932 
L 91.484515 90.579532 
L 91.270235 90.473088 
L 91.054645 91.139476 
L 90.837728 92.61418 
L 90.619467 93.321595 
L 89.956459 91.049664 
L 89.732655 91.020835 
L 89.507422 91.907875 
L 88.822955 96.132403 
L 88.124934 93.262828 
L 87.651787 94.872806 
L 87.172203 95.641204 
L 86.929941 95.671142 
L 86.193003 100.096363 
L 85.943893 99.383404 
L 85.69301 99.464347 
L 85.440329 99.004195 
L 85.185823 99.63732 
L 84.929466 99.317985 
L 84.671231 98.493038 
L 84.149015 94.494705 
L 83.884977 92.992281 
L 83.618946 93.700804 
L 83.350892 93.574401 
L 83.080784 93.834969 
L 82.80859 93.526723 
L 82.257815 93.809467 
L 81.979166 93.350424 
L 81.415171 92.951256 
L 81.129753 92.177313 
L 80.551889 92.017646 
L 79.964393 93.200736 
L 79.666932 93.596577 
L 79.36694 93.648691 
L 79.064372 93.500112 
L 78.759185 93.63982 
L 78.451332 94.572321 
L 78.140767 94.728662 
L 77.827441 94.439265 
L 77.511305 93.770659 
L 77.160249 93.59436 
L 76.902722 91.375651 
L 76.838045 91.442179 
L 76.675831 91.873502 
L 76.545521 92.470036 
L 76.512868 92.454513 
L 76.184663 92.213904 
L 76.052521 91.867958 
L 75.886643 94.46255 
L 75.853374 94.41598 
L 75.719981 94.322841 
L 75.586082 94.578974 
L 75.384275 93.000043 
L 74.977161 92.456731 
L 74.908849 92.456731 
L 74.737488 91.947792 
L 74.496174 93.544464 
L 74.253197 95.749867 
L 74.183466 95.643422 
L 74.07861 95.430532 
L 73.867959 96.704544 
L 73.832727 96.704544 
L 73.832727 96.704544 
" clip-path="url(#p9b8873602c)" style="fill: none; stroke: #ff0000; stroke-width: 1.5; stroke-linecap: square"/>
   </g>
   <g id="patch_3">
    <path d="M 57.6 307.584 
L 57.6 41.472 
" style="fill: none; stroke: #000000; stroke-width: 0.8; stroke-linejoin: miter; stroke-linecap: square"/>
   </g>
   <g id="patch_4">
    <path d="M 414.72 307.584 
L 414.72 41.472 
" style="fill: none; stroke: #000000; stroke-width: 0.8; stroke-linejoin: miter; stroke-linecap: square"/>
   </g>
   <g id="patch_5">
    <path d="M 57.6 307.584 
L 414.72 307.584 
" style="fill: none; stroke: #000000; stroke-width: 0.8; stroke-linejoin: miter; stroke-linecap: square"/>
   </g>
   <g id="patch_6">
    <path d="M 57.6 41.472 
L 414.72 41.472 
" style="fill: none; stroke: #000000; stroke-width: 0.8; stroke-linejoin: miter; stroke-linecap: square"/>
   </g>
   <g id="text_17">
    <!-- LMX2491 v2 -->
    <g transform="translate(198.984375 35.472)scale(0.12 -0.12)">
     <defs>
      <path id="DejaVuSans-4c" d="M 628 4666 
L 1259 4666 
L 1259 531 
L 3531 531 
L 3531 0 
L 628 0 
L 628 4666 
z
" transform="scale(0.015625)"/>
      <path id="DejaVuSans-4d" d="M 628 4666 
L 1569 4666 
L 2759 1491 
L 3956 4666 
L 4897 4666 
L 4897 0 
L 4281 0 
L 4281 4097 
L 3078 897 
L 2444 897 
L 1241 4097 
L 1241 0 
L 628 0 
L 628 4666 
z
" transform="scale(0.015625)"/>
      <path id="DejaVuSans-58" d="M 403 4666 
L 1081 4666 
L 2241 2931 
L 3406 4666 
L 4084 4666 
L 2584 2425 
L 4184 0 
L 3506 0 
L 2194 1984 
L 872 0 
L 191 0 
L 1856 2491 
L 403 4666 
z
" transform="scale(0.015625)"/>
      <path id="DejaVuSans-76" d="M 191 3500 
L 800 3500 
L 1894 563 
L 2988 3500 
L 3597 3500 
L 2284 0 
L 1503 0 
L 191 3500 
z
" transform="scale(0.015625)"/>
     </defs>
     <use xlink:href="#DejaVuSans-4c"/>
     <use xlink:href="#DejaVuSans-4d" x="55.712891"/>
     <use xlink:href="#DejaVuSans-58" x="141.992188"/>
     <use xlink:href="#DejaVuSans-32" x="210.498047"/>
     <use xlink:href="#DejaVuSans-34" x="274.121094"/>
     <use xlink:href="#DejaVuSans-39" x="337.744141"/>
     <use xlink:href="#DejaVuSans-31" x="401.367188"/>
     <use xlink:href="#DejaVuSans-20" x="464.990234"/>
     <use xlink:href="#DejaVuSans-76" x="496.777344"/>
     <use xlink:href="#DejaVuSans-32" x="555.957031"/>
    </g>
   </g>
   <g id="legend_1">
    <g id="patch_7">
     <path d="M 332.0575 64.150125 
L 407.72 64.150125 
Q 409.72 64.150125 409.72 62.150125 
L 409.72 48.472 
Q 409.72 46.472 407.72 46.472 
L 332.0575 46.472 
Q 330.0575 46.472 330.0575 48.472 
L 330.0575 62.150125 
Q 330.0575 64.150125 332.0575 64.150125 
z
" style="fill: #ffffff; opacity: 0.8; stroke: #cccccc; stroke-linejoin: miter"/>
    </g>
    <g id="line2d_51">
     <path d="M 334.0575 54.570438 
L 344.0575 54.570438 
L 354.0575 54.570438 
" style="fill: none; stroke: #ff0000; stroke-width: 1.5; stroke-linecap: square"/>
    </g>
    <g id="text_18">
     <!-- 655 MHz -->
     <g transform="translate(362.0575 58.070438)scale(0.1 -0.1)">
      <use xlink:href="#DejaVuSans-36"/>
      <use xlink:href="#DejaVuSans-35" x="63.623047"/>
      <use xlink:href="#DejaVuSans-35" x="127.246094"/>
      <use xlink:href="#DejaVuSans-20" x="190.869141"/>
      <use xlink:href="#DejaVuSans-4d" x="222.65625"/>
      <use xlink:href="#DejaVuSans-48" x="308.935547"/>
      <use xlink:href="#DejaVuSans-7a" x="384.130859"/>
     </g>
    </g>
   </g>
  </g>
 </g>
 <defs>
  <clipPath id="p9b8873602c">
   <rect x="57.6" y="41.472" width="357.12" height="266.112"/>
  </clipPath>
 </defs>
</svg>
