<?xml version="1.0" encoding="utf-8" standalone="no"?>
<!DOCTYPE svg PUBLIC "-//W3C//DTD SVG 1.1//EN"
  "http://www.w3.org/Graphics/SVG/1.1/DTD/svg11.dtd">
<svg xmlns:xlink="http://www.w3.org/1999/xlink" width="460.8pt" height="345.6pt" viewBox="0 0 460.8 345.6" xmlns="http://www.w3.org/2000/svg" version="1.1">
 <metadata>
  <rdf:RDF xmlns:dc="http://purl.org/dc/elements/1.1/" xmlns:cc="http://creativecommons.org/ns#" xmlns:rdf="http://www.w3.org/1999/02/22-rdf-syntax-ns#">
   <cc:Work>
    <dc:type rdf:resource="http://purl.org/dc/dcmitype/StillImage"/>
    <dc:date>2022-09-13T14:47:00.229635</dc:date>
    <dc:format>image/svg+xml</dc:format>
    <dc:creator>
     <cc:Agent>
      <dc:title>Matplotlib v3.5.1, https://matplotlib.org/</dc:title>
     </cc:Agent>
    </dc:creator>
   </cc:Work>
  </rdf:RDF>
 </metadata>
 <defs>
  <style type="text/css">*{stroke-linejoin: round; stroke-linecap: butt}</style>
 </defs>
 <g id="figure_1">
  <g id="patch_1">
   <path d="M 0 345.6 
L 460.8 345.6 
L 460.8 0 
L 0 0 
z
" style="fill: #ffffff"/>
  </g>
  <g id="axes_1">
   <g id="patch_2">
    <path d="M 57.6 307.584 
L 414.72 307.584 
L 414.72 41.472 
L 57.6 41.472 
z
" style="fill: #ffffff"/>
   </g>
   <g id="matplotlib.axis_1">
    <g id="xtick_1">
     <g id="line2d_1">
      <defs>
       <path id="m652bad8367" d="M 0 0 
L 0 3.5 
" style="stroke: #000000; stroke-width: 0.8"/>
      </defs>
      <g>
       <use xlink:href="#m652bad8367" x="73.832727" y="307.584" style="stroke: #000000; stroke-width: 0.8"/>
      </g>
     </g>
     <g id="text_1">
      <!-- $\mathdefault{10^{3}}$ -->
      <g transform="translate(65.032727 322.182437)scale(0.1 -0.1)">
       <defs>
        <path id="DejaVuSans-31" d="M 794 531 
L 1825 531 
L 1825 4091 
L 703 3866 
L 703 4441 
L 1819 4666 
L 2450 4666 
L 2450 531 
L 3481 531 
L 3481 0 
L 794 0 
L 794 531 
z
" transform="scale(0.015625)"/>
        <path id="DejaVuSans-30" d="M 2034 4250 
Q 1547 4250 1301 3770 
Q 1056 3291 1056 2328 
Q 1056 1369 1301 889 
Q 1547 409 2034 409 
Q 2525 409 2770 889 
Q 3016 1369 3016 2328 
Q 3016 3291 2770 3770 
Q 2525 4250 2034 4250 
z
M 2034 4750 
Q 2819 4750 3233 4129 
Q 3647 3509 3647 2328 
Q 3647 1150 3233 529 
Q 2819 -91 2034 -91 
Q 1250 -91 836 529 
Q 422 1150 422 2328 
Q 422 3509 836 4129 
Q 1250 4750 2034 4750 
z
" transform="scale(0.015625)"/>
        <path id="DejaVuSans-33" d="M 2597 2516 
Q 3050 2419 3304 2112 
Q 3559 1806 3559 1356 
Q 3559 666 3084 287 
Q 2609 -91 1734 -91 
Q 1441 -91 1130 -33 
Q 819 25 488 141 
L 488 750 
Q 750 597 1062 519 
Q 1375 441 1716 441 
Q 2309 441 2620 675 
Q 2931 909 2931 1356 
Q 2931 1769 2642 2001 
Q 2353 2234 1838 2234 
L 1294 2234 
L 1294 2753 
L 1863 2753 
Q 2328 2753 2575 2939 
Q 2822 3125 2822 3475 
Q 2822 3834 2567 4026 
Q 2313 4219 1838 4219 
Q 1578 4219 1281 4162 
Q 984 4106 628 3988 
L 628 4550 
Q 988 4650 1302 4700 
Q 1616 4750 1894 4750 
Q 2613 4750 3031 4423 
Q 3450 4097 3450 3541 
Q 3450 3153 3228 2886 
Q 3006 2619 2597 2516 
z
" transform="scale(0.015625)"/>
       </defs>
       <use xlink:href="#DejaVuSans-31" transform="translate(0 0.765625)"/>
       <use xlink:href="#DejaVuSans-30" transform="translate(63.623047 0.765625)"/>
       <use xlink:href="#DejaVuSans-33" transform="translate(128.203125 39.046875)scale(0.7)"/>
      </g>
     </g>
    </g>
    <g id="xtick_2">
     <g id="line2d_2">
      <g>
       <use xlink:href="#m652bad8367" x="154.996364" y="307.584" style="stroke: #000000; stroke-width: 0.8"/>
      </g>
     </g>
     <g id="text_2">
      <!-- $\mathdefault{10^{4}}$ -->
      <g transform="translate(146.196364 322.182437)scale(0.1 -0.1)">
       <defs>
        <path id="DejaVuSans-34" d="M 2419 4116 
L 825 1625 
L 2419 1625 
L 2419 4116 
z
M 2253 4666 
L 3047 4666 
L 3047 1625 
L 3713 1625 
L 3713 1100 
L 3047 1100 
L 3047 0 
L 2419 0 
L 2419 1100 
L 313 1100 
L 313 1709 
L 2253 4666 
z
" transform="scale(0.015625)"/>
       </defs>
       <use xlink:href="#DejaVuSans-31" transform="translate(0 0.684375)"/>
       <use xlink:href="#DejaVuSans-30" transform="translate(63.623047 0.684375)"/>
       <use xlink:href="#DejaVuSans-34" transform="translate(128.203125 38.965625)scale(0.7)"/>
      </g>
     </g>
    </g>
    <g id="xtick_3">
     <g id="line2d_3">
      <g>
       <use xlink:href="#m652bad8367" x="236.16" y="307.584" style="stroke: #000000; stroke-width: 0.8"/>
      </g>
     </g>
     <g id="text_3">
      <!-- $\mathdefault{10^{5}}$ -->
      <g transform="translate(227.36 322.182437)scale(0.1 -0.1)">
       <defs>
        <path id="DejaVuSans-35" d="M 691 4666 
L 3169 4666 
L 3169 4134 
L 1269 4134 
L 1269 2991 
Q 1406 3038 1543 3061 
Q 1681 3084 1819 3084 
Q 2600 3084 3056 2656 
Q 3513 2228 3513 1497 
Q 3513 744 3044 326 
Q 2575 -91 1722 -91 
Q 1428 -91 1123 -41 
Q 819 9 494 109 
L 494 744 
Q 775 591 1075 516 
Q 1375 441 1709 441 
Q 2250 441 2565 725 
Q 2881 1009 2881 1497 
Q 2881 1984 2565 2268 
Q 2250 2553 1709 2553 
Q 1456 2553 1204 2497 
Q 953 2441 691 2322 
L 691 4666 
z
" transform="scale(0.015625)"/>
       </defs>
       <use xlink:href="#DejaVuSans-31" transform="translate(0 0.684375)"/>
       <use xlink:href="#DejaVuSans-30" transform="translate(63.623047 0.684375)"/>
       <use xlink:href="#DejaVuSans-35" transform="translate(128.203125 38.965625)scale(0.7)"/>
      </g>
     </g>
    </g>
    <g id="xtick_4">
     <g id="line2d_4">
      <g>
       <use xlink:href="#m652bad8367" x="317.323636" y="307.584" style="stroke: #000000; stroke-width: 0.8"/>
      </g>
     </g>
     <g id="text_4">
      <!-- $\mathdefault{10^{6}}$ -->
      <g transform="translate(308.523636 322.182437)scale(0.1 -0.1)">
       <defs>
        <path id="DejaVuSans-36" d="M 2113 2584 
Q 1688 2584 1439 2293 
Q 1191 2003 1191 1497 
Q 1191 994 1439 701 
Q 1688 409 2113 409 
Q 2538 409 2786 701 
Q 3034 994 3034 1497 
Q 3034 2003 2786 2293 
Q 2538 2584 2113 2584 
z
M 3366 4563 
L 3366 3988 
Q 3128 4100 2886 4159 
Q 2644 4219 2406 4219 
Q 1781 4219 1451 3797 
Q 1122 3375 1075 2522 
Q 1259 2794 1537 2939 
Q 1816 3084 2150 3084 
Q 2853 3084 3261 2657 
Q 3669 2231 3669 1497 
Q 3669 778 3244 343 
Q 2819 -91 2113 -91 
Q 1303 -91 875 529 
Q 447 1150 447 2328 
Q 447 3434 972 4092 
Q 1497 4750 2381 4750 
Q 2619 4750 2861 4703 
Q 3103 4656 3366 4563 
z
" transform="scale(0.015625)"/>
       </defs>
       <use xlink:href="#DejaVuSans-31" transform="translate(0 0.765625)"/>
       <use xlink:href="#DejaVuSans-30" transform="translate(63.623047 0.765625)"/>
       <use xlink:href="#DejaVuSans-36" transform="translate(128.203125 39.046875)scale(0.7)"/>
      </g>
     </g>
    </g>
    <g id="xtick_5">
     <g id="line2d_5">
      <g>
       <use xlink:href="#m652bad8367" x="398.487273" y="307.584" style="stroke: #000000; stroke-width: 0.8"/>
      </g>
     </g>
     <g id="text_5">
      <!-- $\mathdefault{10^{7}}$ -->
      <g transform="translate(389.687273 322.182437)scale(0.1 -0.1)">
       <defs>
        <path id="DejaVuSans-37" d="M 525 4666 
L 3525 4666 
L 3525 4397 
L 1831 0 
L 1172 0 
L 2766 4134 
L 525 4134 
L 525 4666 
z
" transform="scale(0.015625)"/>
       </defs>
       <use xlink:href="#DejaVuSans-31" transform="translate(0 0.684375)"/>
       <use xlink:href="#DejaVuSans-30" transform="translate(63.623047 0.684375)"/>
       <use xlink:href="#DejaVuSans-37" transform="translate(128.203125 38.965625)scale(0.7)"/>
      </g>
     </g>
    </g>
    <g id="xtick_6">
     <g id="line2d_6">
      <defs>
       <path id="m8fe0dca029" d="M 0 0 
L 0 2 
" style="stroke: #000000; stroke-width: 0.6"/>
      </defs>
      <g>
       <use xlink:href="#m8fe0dca029" x="61.260321" y="307.584" style="stroke: #000000; stroke-width: 0.6"/>
      </g>
     </g>
    </g>
    <g id="xtick_7">
     <g id="line2d_7">
      <g>
       <use xlink:href="#m8fe0dca029" x="65.967158" y="307.584" style="stroke: #000000; stroke-width: 0.6"/>
      </g>
     </g>
    </g>
    <g id="xtick_8">
     <g id="line2d_8">
      <g>
       <use xlink:href="#m8fe0dca029" x="70.118883" y="307.584" style="stroke: #000000; stroke-width: 0.6"/>
      </g>
     </g>
    </g>
    <g id="xtick_9">
     <g id="line2d_9">
      <g>
       <use xlink:href="#m8fe0dca029" x="98.265416" y="307.584" style="stroke: #000000; stroke-width: 0.6"/>
      </g>
     </g>
    </g>
    <g id="xtick_10">
     <g id="line2d_10">
      <g>
       <use xlink:href="#m8fe0dca029" x="112.557623" y="307.584" style="stroke: #000000; stroke-width: 0.6"/>
      </g>
     </g>
    </g>
    <g id="xtick_11">
     <g id="line2d_11">
      <g>
       <use xlink:href="#m8fe0dca029" x="122.698105" y="307.584" style="stroke: #000000; stroke-width: 0.6"/>
      </g>
     </g>
    </g>
    <g id="xtick_12">
     <g id="line2d_12">
      <g>
       <use xlink:href="#m8fe0dca029" x="130.563675" y="307.584" style="stroke: #000000; stroke-width: 0.6"/>
      </g>
     </g>
    </g>
    <g id="xtick_13">
     <g id="line2d_13">
      <g>
       <use xlink:href="#m8fe0dca029" x="136.990312" y="307.584" style="stroke: #000000; stroke-width: 0.6"/>
      </g>
     </g>
    </g>
    <g id="xtick_14">
     <g id="line2d_14">
      <g>
       <use xlink:href="#m8fe0dca029" x="142.423957" y="307.584" style="stroke: #000000; stroke-width: 0.6"/>
      </g>
     </g>
    </g>
    <g id="xtick_15">
     <g id="line2d_15">
      <g>
       <use xlink:href="#m8fe0dca029" x="147.130795" y="307.584" style="stroke: #000000; stroke-width: 0.6"/>
      </g>
     </g>
    </g>
    <g id="xtick_16">
     <g id="line2d_16">
      <g>
       <use xlink:href="#m8fe0dca029" x="151.282519" y="307.584" style="stroke: #000000; stroke-width: 0.6"/>
      </g>
     </g>
    </g>
    <g id="xtick_17">
     <g id="line2d_17">
      <g>
       <use xlink:href="#m8fe0dca029" x="179.429053" y="307.584" style="stroke: #000000; stroke-width: 0.6"/>
      </g>
     </g>
    </g>
    <g id="xtick_18">
     <g id="line2d_18">
      <g>
       <use xlink:href="#m8fe0dca029" x="193.72126" y="307.584" style="stroke: #000000; stroke-width: 0.6"/>
      </g>
     </g>
    </g>
    <g id="xtick_19">
     <g id="line2d_19">
      <g>
       <use xlink:href="#m8fe0dca029" x="203.861742" y="307.584" style="stroke: #000000; stroke-width: 0.6"/>
      </g>
     </g>
    </g>
    <g id="xtick_20">
     <g id="line2d_20">
      <g>
       <use xlink:href="#m8fe0dca029" x="211.727311" y="307.584" style="stroke: #000000; stroke-width: 0.6"/>
      </g>
     </g>
    </g>
    <g id="xtick_21">
     <g id="line2d_21">
      <g>
       <use xlink:href="#m8fe0dca029" x="218.153949" y="307.584" style="stroke: #000000; stroke-width: 0.6"/>
      </g>
     </g>
    </g>
    <g id="xtick_22">
     <g id="line2d_22">
      <g>
       <use xlink:href="#m8fe0dca029" x="223.587594" y="307.584" style="stroke: #000000; stroke-width: 0.6"/>
      </g>
     </g>
    </g>
    <g id="xtick_23">
     <g id="line2d_23">
      <g>
       <use xlink:href="#m8fe0dca029" x="228.294431" y="307.584" style="stroke: #000000; stroke-width: 0.6"/>
      </g>
     </g>
    </g>
    <g id="xtick_24">
     <g id="line2d_24">
      <g>
       <use xlink:href="#m8fe0dca029" x="232.446156" y="307.584" style="stroke: #000000; stroke-width: 0.6"/>
      </g>
     </g>
    </g>
    <g id="xtick_25">
     <g id="line2d_25">
      <g>
       <use xlink:href="#m8fe0dca029" x="260.592689" y="307.584" style="stroke: #000000; stroke-width: 0.6"/>
      </g>
     </g>
    </g>
    <g id="xtick_26">
     <g id="line2d_26">
      <g>
       <use xlink:href="#m8fe0dca029" x="274.884896" y="307.584" style="stroke: #000000; stroke-width: 0.6"/>
      </g>
     </g>
    </g>
    <g id="xtick_27">
     <g id="line2d_27">
      <g>
       <use xlink:href="#m8fe0dca029" x="285.025378" y="307.584" style="stroke: #000000; stroke-width: 0.6"/>
      </g>
     </g>
    </g>
    <g id="xtick_28">
     <g id="line2d_28">
      <g>
       <use xlink:href="#m8fe0dca029" x="292.890947" y="307.584" style="stroke: #000000; stroke-width: 0.6"/>
      </g>
     </g>
    </g>
    <g id="xtick_29">
     <g id="line2d_29">
      <g>
       <use xlink:href="#m8fe0dca029" x="299.317585" y="307.584" style="stroke: #000000; stroke-width: 0.6"/>
      </g>
     </g>
    </g>
    <g id="xtick_30">
     <g id="line2d_30">
      <g>
       <use xlink:href="#m8fe0dca029" x="304.75123" y="307.584" style="stroke: #000000; stroke-width: 0.6"/>
      </g>
     </g>
    </g>
    <g id="xtick_31">
     <g id="line2d_31">
      <g>
       <use xlink:href="#m8fe0dca029" x="309.458067" y="307.584" style="stroke: #000000; stroke-width: 0.6"/>
      </g>
     </g>
    </g>
    <g id="xtick_32">
     <g id="line2d_32">
      <g>
       <use xlink:href="#m8fe0dca029" x="313.609792" y="307.584" style="stroke: #000000; stroke-width: 0.6"/>
      </g>
     </g>
    </g>
    <g id="xtick_33">
     <g id="line2d_33">
      <g>
       <use xlink:href="#m8fe0dca029" x="341.756325" y="307.584" style="stroke: #000000; stroke-width: 0.6"/>
      </g>
     </g>
    </g>
    <g id="xtick_34">
     <g id="line2d_34">
      <g>
       <use xlink:href="#m8fe0dca029" x="356.048532" y="307.584" style="stroke: #000000; stroke-width: 0.6"/>
      </g>
     </g>
    </g>
    <g id="xtick_35">
     <g id="line2d_35">
      <g>
       <use xlink:href="#m8fe0dca029" x="366.189015" y="307.584" style="stroke: #000000; stroke-width: 0.6"/>
      </g>
     </g>
    </g>
    <g id="xtick_36">
     <g id="line2d_36">
      <g>
       <use xlink:href="#m8fe0dca029" x="374.054584" y="307.584" style="stroke: #000000; stroke-width: 0.6"/>
      </g>
     </g>
    </g>
    <g id="xtick_37">
     <g id="line2d_37">
      <g>
       <use xlink:href="#m8fe0dca029" x="380.481221" y="307.584" style="stroke: #000000; stroke-width: 0.6"/>
      </g>
     </g>
    </g>
    <g id="xtick_38">
     <g id="line2d_38">
      <g>
       <use xlink:href="#m8fe0dca029" x="385.914866" y="307.584" style="stroke: #000000; stroke-width: 0.6"/>
      </g>
     </g>
    </g>
    <g id="xtick_39">
     <g id="line2d_39">
      <g>
       <use xlink:href="#m8fe0dca029" x="390.621704" y="307.584" style="stroke: #000000; stroke-width: 0.6"/>
      </g>
     </g>
    </g>
    <g id="xtick_40">
     <g id="line2d_40">
      <g>
       <use xlink:href="#m8fe0dca029" x="394.773428" y="307.584" style="stroke: #000000; stroke-width: 0.6"/>
      </g>
     </g>
    </g>
    <g id="text_6">
     <!-- Frequency [Hz] -->
     <g transform="translate(198.455312 335.860562)scale(0.1 -0.1)">
      <defs>
       <path id="DejaVuSans-46" d="M 628 4666 
L 3309 4666 
L 3309 4134 
L 1259 4134 
L 1259 2759 
L 3109 2759 
L 3109 2228 
L 1259 2228 
L 1259 0 
L 628 0 
L 628 4666 
z
" transform="scale(0.015625)"/>
       <path id="DejaVuSans-72" d="M 2631 2963 
Q 2534 3019 2420 3045 
Q 2306 3072 2169 3072 
Q 1681 3072 1420 2755 
Q 1159 2438 1159 1844 
L 1159 0 
L 581 0 
L 581 3500 
L 1159 3500 
L 1159 2956 
Q 1341 3275 1631 3429 
Q 1922 3584 2338 3584 
Q 2397 3584 2469 3576 
Q 2541 3569 2628 3553 
L 2631 2963 
z
" transform="scale(0.015625)"/>
       <path id="DejaVuSans-65" d="M 3597 1894 
L 3597 1613 
L 953 1613 
Q 991 1019 1311 708 
Q 1631 397 2203 397 
Q 2534 397 2845 478 
Q 3156 559 3463 722 
L 3463 178 
Q 3153 47 2828 -22 
Q 2503 -91 2169 -91 
Q 1331 -91 842 396 
Q 353 884 353 1716 
Q 353 2575 817 3079 
Q 1281 3584 2069 3584 
Q 2775 3584 3186 3129 
Q 3597 2675 3597 1894 
z
M 3022 2063 
Q 3016 2534 2758 2815 
Q 2500 3097 2075 3097 
Q 1594 3097 1305 2825 
Q 1016 2553 972 2059 
L 3022 2063 
z
" transform="scale(0.015625)"/>
       <path id="DejaVuSans-71" d="M 947 1747 
Q 947 1113 1208 752 
Q 1469 391 1925 391 
Q 2381 391 2643 752 
Q 2906 1113 2906 1747 
Q 2906 2381 2643 2742 
Q 2381 3103 1925 3103 
Q 1469 3103 1208 2742 
Q 947 2381 947 1747 
z
M 2906 525 
Q 2725 213 2448 61 
Q 2172 -91 1784 -91 
Q 1150 -91 751 415 
Q 353 922 353 1747 
Q 353 2572 751 3078 
Q 1150 3584 1784 3584 
Q 2172 3584 2448 3432 
Q 2725 3281 2906 2969 
L 2906 3500 
L 3481 3500 
L 3481 -1331 
L 2906 -1331 
L 2906 525 
z
" transform="scale(0.015625)"/>
       <path id="DejaVuSans-75" d="M 544 1381 
L 544 3500 
L 1119 3500 
L 1119 1403 
Q 1119 906 1312 657 
Q 1506 409 1894 409 
Q 2359 409 2629 706 
Q 2900 1003 2900 1516 
L 2900 3500 
L 3475 3500 
L 3475 0 
L 2900 0 
L 2900 538 
Q 2691 219 2414 64 
Q 2138 -91 1772 -91 
Q 1169 -91 856 284 
Q 544 659 544 1381 
z
M 1991 3584 
L 1991 3584 
z
" transform="scale(0.015625)"/>
       <path id="DejaVuSans-6e" d="M 3513 2113 
L 3513 0 
L 2938 0 
L 2938 2094 
Q 2938 2591 2744 2837 
Q 2550 3084 2163 3084 
Q 1697 3084 1428 2787 
Q 1159 2491 1159 1978 
L 1159 0 
L 581 0 
L 581 3500 
L 1159 3500 
L 1159 2956 
Q 1366 3272 1645 3428 
Q 1925 3584 2291 3584 
Q 2894 3584 3203 3211 
Q 3513 2838 3513 2113 
z
" transform="scale(0.015625)"/>
       <path id="DejaVuSans-63" d="M 3122 3366 
L 3122 2828 
Q 2878 2963 2633 3030 
Q 2388 3097 2138 3097 
Q 1578 3097 1268 2742 
Q 959 2388 959 1747 
Q 959 1106 1268 751 
Q 1578 397 2138 397 
Q 2388 397 2633 464 
Q 2878 531 3122 666 
L 3122 134 
Q 2881 22 2623 -34 
Q 2366 -91 2075 -91 
Q 1284 -91 818 406 
Q 353 903 353 1747 
Q 353 2603 823 3093 
Q 1294 3584 2113 3584 
Q 2378 3584 2631 3529 
Q 2884 3475 3122 3366 
z
" transform="scale(0.015625)"/>
       <path id="DejaVuSans-79" d="M 2059 -325 
Q 1816 -950 1584 -1140 
Q 1353 -1331 966 -1331 
L 506 -1331 
L 506 -850 
L 844 -850 
Q 1081 -850 1212 -737 
Q 1344 -625 1503 -206 
L 1606 56 
L 191 3500 
L 800 3500 
L 1894 763 
L 2988 3500 
L 3597 3500 
L 2059 -325 
z
" transform="scale(0.015625)"/>
       <path id="DejaVuSans-20" transform="scale(0.015625)"/>
       <path id="DejaVuSans-5b" d="M 550 4863 
L 1875 4863 
L 1875 4416 
L 1125 4416 
L 1125 -397 
L 1875 -397 
L 1875 -844 
L 550 -844 
L 550 4863 
z
" transform="scale(0.015625)"/>
       <path id="DejaVuSans-48" d="M 628 4666 
L 1259 4666 
L 1259 2753 
L 3553 2753 
L 3553 4666 
L 4184 4666 
L 4184 0 
L 3553 0 
L 3553 2222 
L 1259 2222 
L 1259 0 
L 628 0 
L 628 4666 
z
" transform="scale(0.015625)"/>
       <path id="DejaVuSans-7a" d="M 353 3500 
L 3084 3500 
L 3084 2975 
L 922 459 
L 3084 459 
L 3084 0 
L 275 0 
L 275 525 
L 2438 3041 
L 353 3041 
L 353 3500 
z
" transform="scale(0.015625)"/>
       <path id="DejaVuSans-5d" d="M 1947 4863 
L 1947 -844 
L 622 -844 
L 622 -397 
L 1369 -397 
L 1369 4416 
L 622 4416 
L 622 4863 
L 1947 4863 
z
" transform="scale(0.015625)"/>
      </defs>
      <use xlink:href="#DejaVuSans-46"/>
      <use xlink:href="#DejaVuSans-72" x="50.269531"/>
      <use xlink:href="#DejaVuSans-65" x="89.132812"/>
      <use xlink:href="#DejaVuSans-71" x="150.65625"/>
      <use xlink:href="#DejaVuSans-75" x="214.132812"/>
      <use xlink:href="#DejaVuSans-65" x="277.511719"/>
      <use xlink:href="#DejaVuSans-6e" x="339.035156"/>
      <use xlink:href="#DejaVuSans-63" x="402.414062"/>
      <use xlink:href="#DejaVuSans-79" x="457.394531"/>
      <use xlink:href="#DejaVuSans-20" x="516.574219"/>
      <use xlink:href="#DejaVuSans-5b" x="548.361328"/>
      <use xlink:href="#DejaVuSans-48" x="587.375"/>
      <use xlink:href="#DejaVuSans-7a" x="662.570312"/>
      <use xlink:href="#DejaVuSans-5d" x="715.060547"/>
     </g>
    </g>
   </g>
   <g id="matplotlib.axis_2">
    <g id="ytick_1">
     <g id="line2d_41">
      <defs>
       <path id="md390a294b3" d="M 0 0 
L -3.5 0 
" style="stroke: #000000; stroke-width: 0.8"/>
      </defs>
      <g>
       <use xlink:href="#md390a294b3" x="57.6" y="307.584" style="stroke: #000000; stroke-width: 0.8"/>
      </g>
     </g>
     <g id="text_7">
      <!-- −140 -->
      <g transform="translate(23.132812 311.383219)scale(0.1 -0.1)">
       <defs>
        <path id="DejaVuSans-2212" d="M 678 2272 
L 4684 2272 
L 4684 1741 
L 678 1741 
L 678 2272 
z
" transform="scale(0.015625)"/>
       </defs>
       <use xlink:href="#DejaVuSans-2212"/>
       <use xlink:href="#DejaVuSans-31" x="83.789062"/>
       <use xlink:href="#DejaVuSans-34" x="147.412109"/>
       <use xlink:href="#DejaVuSans-30" x="211.035156"/>
      </g>
     </g>
    </g>
    <g id="ytick_2">
     <g id="line2d_42">
      <g>
       <use xlink:href="#md390a294b3" x="57.6" y="274.32" style="stroke: #000000; stroke-width: 0.8"/>
      </g>
     </g>
     <g id="text_8">
      <!-- −130 -->
      <g transform="translate(23.132812 278.119219)scale(0.1 -0.1)">
       <use xlink:href="#DejaVuSans-2212"/>
       <use xlink:href="#DejaVuSans-31" x="83.789062"/>
       <use xlink:href="#DejaVuSans-33" x="147.412109"/>
       <use xlink:href="#DejaVuSans-30" x="211.035156"/>
      </g>
     </g>
    </g>
    <g id="ytick_3">
     <g id="line2d_43">
      <g>
       <use xlink:href="#md390a294b3" x="57.6" y="241.056" style="stroke: #000000; stroke-width: 0.8"/>
      </g>
     </g>
     <g id="text_9">
      <!-- −120 -->
      <g transform="translate(23.132812 244.855219)scale(0.1 -0.1)">
       <defs>
        <path id="DejaVuSans-32" d="M 1228 531 
L 3431 531 
L 3431 0 
L 469 0 
L 469 531 
Q 828 903 1448 1529 
Q 2069 2156 2228 2338 
Q 2531 2678 2651 2914 
Q 2772 3150 2772 3378 
Q 2772 3750 2511 3984 
Q 2250 4219 1831 4219 
Q 1534 4219 1204 4116 
Q 875 4013 500 3803 
L 500 4441 
Q 881 4594 1212 4672 
Q 1544 4750 1819 4750 
Q 2544 4750 2975 4387 
Q 3406 4025 3406 3419 
Q 3406 3131 3298 2873 
Q 3191 2616 2906 2266 
Q 2828 2175 2409 1742 
Q 1991 1309 1228 531 
z
" transform="scale(0.015625)"/>
       </defs>
       <use xlink:href="#DejaVuSans-2212"/>
       <use xlink:href="#DejaVuSans-31" x="83.789062"/>
       <use xlink:href="#DejaVuSans-32" x="147.412109"/>
       <use xlink:href="#DejaVuSans-30" x="211.035156"/>
      </g>
     </g>
    </g>
    <g id="ytick_4">
     <g id="line2d_44">
      <g>
       <use xlink:href="#md390a294b3" x="57.6" y="207.792" style="stroke: #000000; stroke-width: 0.8"/>
      </g>
     </g>
     <g id="text_10">
      <!-- −110 -->
      <g transform="translate(23.132812 211.591219)scale(0.1 -0.1)">
       <use xlink:href="#DejaVuSans-2212"/>
       <use xlink:href="#DejaVuSans-31" x="83.789062"/>
       <use xlink:href="#DejaVuSans-31" x="147.412109"/>
       <use xlink:href="#DejaVuSans-30" x="211.035156"/>
      </g>
     </g>
    </g>
    <g id="ytick_5">
     <g id="line2d_45">
      <g>
       <use xlink:href="#md390a294b3" x="57.6" y="174.528" style="stroke: #000000; stroke-width: 0.8"/>
      </g>
     </g>
     <g id="text_11">
      <!-- −100 -->
      <g transform="translate(23.132812 178.327219)scale(0.1 -0.1)">
       <use xlink:href="#DejaVuSans-2212"/>
       <use xlink:href="#DejaVuSans-31" x="83.789062"/>
       <use xlink:href="#DejaVuSans-30" x="147.412109"/>
       <use xlink:href="#DejaVuSans-30" x="211.035156"/>
      </g>
     </g>
    </g>
    <g id="ytick_6">
     <g id="line2d_46">
      <g>
       <use xlink:href="#md390a294b3" x="57.6" y="141.264" style="stroke: #000000; stroke-width: 0.8"/>
      </g>
     </g>
     <g id="text_12">
      <!-- −90 -->
      <g transform="translate(29.495313 145.063219)scale(0.1 -0.1)">
       <defs>
        <path id="DejaVuSans-39" d="M 703 97 
L 703 672 
Q 941 559 1184 500 
Q 1428 441 1663 441 
Q 2288 441 2617 861 
Q 2947 1281 2994 2138 
Q 2813 1869 2534 1725 
Q 2256 1581 1919 1581 
Q 1219 1581 811 2004 
Q 403 2428 403 3163 
Q 403 3881 828 4315 
Q 1253 4750 1959 4750 
Q 2769 4750 3195 4129 
Q 3622 3509 3622 2328 
Q 3622 1225 3098 567 
Q 2575 -91 1691 -91 
Q 1453 -91 1209 -44 
Q 966 3 703 97 
z
M 1959 2075 
Q 2384 2075 2632 2365 
Q 2881 2656 2881 3163 
Q 2881 3666 2632 3958 
Q 2384 4250 1959 4250 
Q 1534 4250 1286 3958 
Q 1038 3666 1038 3163 
Q 1038 2656 1286 2365 
Q 1534 2075 1959 2075 
z
" transform="scale(0.015625)"/>
       </defs>
       <use xlink:href="#DejaVuSans-2212"/>
       <use xlink:href="#DejaVuSans-39" x="83.789062"/>
       <use xlink:href="#DejaVuSans-30" x="147.412109"/>
      </g>
     </g>
    </g>
    <g id="ytick_7">
     <g id="line2d_47">
      <g>
       <use xlink:href="#md390a294b3" x="57.6" y="108" style="stroke: #000000; stroke-width: 0.8"/>
      </g>
     </g>
     <g id="text_13">
      <!-- −80 -->
      <g transform="translate(29.495313 111.799219)scale(0.1 -0.1)">
       <defs>
        <path id="DejaVuSans-38" d="M 2034 2216 
Q 1584 2216 1326 1975 
Q 1069 1734 1069 1313 
Q 1069 891 1326 650 
Q 1584 409 2034 409 
Q 2484 409 2743 651 
Q 3003 894 3003 1313 
Q 3003 1734 2745 1975 
Q 2488 2216 2034 2216 
z
M 1403 2484 
Q 997 2584 770 2862 
Q 544 3141 544 3541 
Q 544 4100 942 4425 
Q 1341 4750 2034 4750 
Q 2731 4750 3128 4425 
Q 3525 4100 3525 3541 
Q 3525 3141 3298 2862 
Q 3072 2584 2669 2484 
Q 3125 2378 3379 2068 
Q 3634 1759 3634 1313 
Q 3634 634 3220 271 
Q 2806 -91 2034 -91 
Q 1263 -91 848 271 
Q 434 634 434 1313 
Q 434 1759 690 2068 
Q 947 2378 1403 2484 
z
M 1172 3481 
Q 1172 3119 1398 2916 
Q 1625 2713 2034 2713 
Q 2441 2713 2670 2916 
Q 2900 3119 2900 3481 
Q 2900 3844 2670 4047 
Q 2441 4250 2034 4250 
Q 1625 4250 1398 4047 
Q 1172 3844 1172 3481 
z
" transform="scale(0.015625)"/>
       </defs>
       <use xlink:href="#DejaVuSans-2212"/>
       <use xlink:href="#DejaVuSans-38" x="83.789062"/>
       <use xlink:href="#DejaVuSans-30" x="147.412109"/>
      </g>
     </g>
    </g>
    <g id="ytick_8">
     <g id="line2d_48">
      <g>
       <use xlink:href="#md390a294b3" x="57.6" y="74.736" style="stroke: #000000; stroke-width: 0.8"/>
      </g>
     </g>
     <g id="text_14">
      <!-- −70 -->
      <g transform="translate(29.495313 78.535219)scale(0.1 -0.1)">
       <use xlink:href="#DejaVuSans-2212"/>
       <use xlink:href="#DejaVuSans-37" x="83.789062"/>
       <use xlink:href="#DejaVuSans-30" x="147.412109"/>
      </g>
     </g>
    </g>
    <g id="ytick_9">
     <g id="line2d_49">
      <g>
       <use xlink:href="#md390a294b3" x="57.6" y="41.472" style="stroke: #000000; stroke-width: 0.8"/>
      </g>
     </g>
     <g id="text_15">
      <!-- −60 -->
      <g transform="translate(29.495313 45.271219)scale(0.1 -0.1)">
       <use xlink:href="#DejaVuSans-2212"/>
       <use xlink:href="#DejaVuSans-36" x="83.789062"/>
       <use xlink:href="#DejaVuSans-30" x="147.412109"/>
      </g>
     </g>
    </g>
    <g id="text_16">
     <!-- Phase noise [dBc/Hz] -->
     <g transform="translate(17.053125 227.257688)rotate(-90)scale(0.1 -0.1)">
      <defs>
       <path id="DejaVuSans-50" d="M 1259 4147 
L 1259 2394 
L 2053 2394 
Q 2494 2394 2734 2622 
Q 2975 2850 2975 3272 
Q 2975 3691 2734 3919 
Q 2494 4147 2053 4147 
L 1259 4147 
z
M 628 4666 
L 2053 4666 
Q 2838 4666 3239 4311 
Q 3641 3956 3641 3272 
Q 3641 2581 3239 2228 
Q 2838 1875 2053 1875 
L 1259 1875 
L 1259 0 
L 628 0 
L 628 4666 
z
" transform="scale(0.015625)"/>
       <path id="DejaVuSans-68" d="M 3513 2113 
L 3513 0 
L 2938 0 
L 2938 2094 
Q 2938 2591 2744 2837 
Q 2550 3084 2163 3084 
Q 1697 3084 1428 2787 
Q 1159 2491 1159 1978 
L 1159 0 
L 581 0 
L 581 4863 
L 1159 4863 
L 1159 2956 
Q 1366 3272 1645 3428 
Q 1925 3584 2291 3584 
Q 2894 3584 3203 3211 
Q 3513 2838 3513 2113 
z
" transform="scale(0.015625)"/>
       <path id="DejaVuSans-61" d="M 2194 1759 
Q 1497 1759 1228 1600 
Q 959 1441 959 1056 
Q 959 750 1161 570 
Q 1363 391 1709 391 
Q 2188 391 2477 730 
Q 2766 1069 2766 1631 
L 2766 1759 
L 2194 1759 
z
M 3341 1997 
L 3341 0 
L 2766 0 
L 2766 531 
Q 2569 213 2275 61 
Q 1981 -91 1556 -91 
Q 1019 -91 701 211 
Q 384 513 384 1019 
Q 384 1609 779 1909 
Q 1175 2209 1959 2209 
L 2766 2209 
L 2766 2266 
Q 2766 2663 2505 2880 
Q 2244 3097 1772 3097 
Q 1472 3097 1187 3025 
Q 903 2953 641 2809 
L 641 3341 
Q 956 3463 1253 3523 
Q 1550 3584 1831 3584 
Q 2591 3584 2966 3190 
Q 3341 2797 3341 1997 
z
" transform="scale(0.015625)"/>
       <path id="DejaVuSans-73" d="M 2834 3397 
L 2834 2853 
Q 2591 2978 2328 3040 
Q 2066 3103 1784 3103 
Q 1356 3103 1142 2972 
Q 928 2841 928 2578 
Q 928 2378 1081 2264 
Q 1234 2150 1697 2047 
L 1894 2003 
Q 2506 1872 2764 1633 
Q 3022 1394 3022 966 
Q 3022 478 2636 193 
Q 2250 -91 1575 -91 
Q 1294 -91 989 -36 
Q 684 19 347 128 
L 347 722 
Q 666 556 975 473 
Q 1284 391 1588 391 
Q 1994 391 2212 530 
Q 2431 669 2431 922 
Q 2431 1156 2273 1281 
Q 2116 1406 1581 1522 
L 1381 1569 
Q 847 1681 609 1914 
Q 372 2147 372 2553 
Q 372 3047 722 3315 
Q 1072 3584 1716 3584 
Q 2034 3584 2315 3537 
Q 2597 3491 2834 3397 
z
" transform="scale(0.015625)"/>
       <path id="DejaVuSans-6f" d="M 1959 3097 
Q 1497 3097 1228 2736 
Q 959 2375 959 1747 
Q 959 1119 1226 758 
Q 1494 397 1959 397 
Q 2419 397 2687 759 
Q 2956 1122 2956 1747 
Q 2956 2369 2687 2733 
Q 2419 3097 1959 3097 
z
M 1959 3584 
Q 2709 3584 3137 3096 
Q 3566 2609 3566 1747 
Q 3566 888 3137 398 
Q 2709 -91 1959 -91 
Q 1206 -91 779 398 
Q 353 888 353 1747 
Q 353 2609 779 3096 
Q 1206 3584 1959 3584 
z
" transform="scale(0.015625)"/>
       <path id="DejaVuSans-69" d="M 603 3500 
L 1178 3500 
L 1178 0 
L 603 0 
L 603 3500 
z
M 603 4863 
L 1178 4863 
L 1178 4134 
L 603 4134 
L 603 4863 
z
" transform="scale(0.015625)"/>
       <path id="DejaVuSans-64" d="M 2906 2969 
L 2906 4863 
L 3481 4863 
L 3481 0 
L 2906 0 
L 2906 525 
Q 2725 213 2448 61 
Q 2172 -91 1784 -91 
Q 1150 -91 751 415 
Q 353 922 353 1747 
Q 353 2572 751 3078 
Q 1150 3584 1784 3584 
Q 2172 3584 2448 3432 
Q 2725 3281 2906 2969 
z
M 947 1747 
Q 947 1113 1208 752 
Q 1469 391 1925 391 
Q 2381 391 2643 752 
Q 2906 1113 2906 1747 
Q 2906 2381 2643 2742 
Q 2381 3103 1925 3103 
Q 1469 3103 1208 2742 
Q 947 2381 947 1747 
z
" transform="scale(0.015625)"/>
       <path id="DejaVuSans-42" d="M 1259 2228 
L 1259 519 
L 2272 519 
Q 2781 519 3026 730 
Q 3272 941 3272 1375 
Q 3272 1813 3026 2020 
Q 2781 2228 2272 2228 
L 1259 2228 
z
M 1259 4147 
L 1259 2741 
L 2194 2741 
Q 2656 2741 2882 2914 
Q 3109 3088 3109 3444 
Q 3109 3797 2882 3972 
Q 2656 4147 2194 4147 
L 1259 4147 
z
M 628 4666 
L 2241 4666 
Q 2963 4666 3353 4366 
Q 3744 4066 3744 3513 
Q 3744 3084 3544 2831 
Q 3344 2578 2956 2516 
Q 3422 2416 3680 2098 
Q 3938 1781 3938 1306 
Q 3938 681 3513 340 
Q 3088 0 2303 0 
L 628 0 
L 628 4666 
z
" transform="scale(0.015625)"/>
       <path id="DejaVuSans-2f" d="M 1625 4666 
L 2156 4666 
L 531 -594 
L 0 -594 
L 1625 4666 
z
" transform="scale(0.015625)"/>
      </defs>
      <use xlink:href="#DejaVuSans-50"/>
      <use xlink:href="#DejaVuSans-68" x="60.302734"/>
      <use xlink:href="#DejaVuSans-61" x="123.681641"/>
      <use xlink:href="#DejaVuSans-73" x="184.960938"/>
      <use xlink:href="#DejaVuSans-65" x="237.060547"/>
      <use xlink:href="#DejaVuSans-20" x="298.583984"/>
      <use xlink:href="#DejaVuSans-6e" x="330.371094"/>
      <use xlink:href="#DejaVuSans-6f" x="393.75"/>
      <use xlink:href="#DejaVuSans-69" x="454.931641"/>
      <use xlink:href="#DejaVuSans-73" x="482.714844"/>
      <use xlink:href="#DejaVuSans-65" x="534.814453"/>
      <use xlink:href="#DejaVuSans-20" x="596.337891"/>
      <use xlink:href="#DejaVuSans-5b" x="628.125"/>
      <use xlink:href="#DejaVuSans-64" x="667.138672"/>
      <use xlink:href="#DejaVuSans-42" x="730.615234"/>
      <use xlink:href="#DejaVuSans-63" x="799.21875"/>
      <use xlink:href="#DejaVuSans-2f" x="854.199219"/>
      <use xlink:href="#DejaVuSans-48" x="887.890625"/>
      <use xlink:href="#DejaVuSans-7a" x="963.085938"/>
      <use xlink:href="#DejaVuSans-5d" x="1015.576172"/>
     </g>
    </g>
   </g>
   <g id="line2d_50">
    <path d="M 398.487273 279.597444 
L 398.133009 280.310403 
L 397.775149 279.445539 
L 397.413619 280.37804 
L 397.048342 279.500979 
L 396.67924 278.995366 
L 396.306232 278.902227 
L 395.929234 279.956696 
L 395.548161 279.853577 
L 394.773428 278.120523 
L 394.379582 279.384555 
L 393.981285 281.992452 
L 393.578435 283.778729 
L 393.170929 283.144496 
L 392.758656 280.0077 
L 392.341504 278.452054 
L 391.919356 278.703752 
L 391.492092 280.193979 
L 391.059584 280.094187 
L 390.621704 278.77028 
L 390.178315 276.822118 
L 389.729278 276.64471 
L 388.81367 278.035145 
L 387.873644 276.715673 
L 387.394059 276.249977 
L 386.907859 276.583726 
L 385.407679 280.610888 
L 384.893087 279.912344 
L 384.370871 278.759192 
L 382.756135 277.295576 
L 382.201022 276.271044 
L 381.637027 276.467302 
L 381.063862 276.978459 
L 380.481221 277.826691 
L 379.888789 276.715673 
L 379.286228 277.528424 
L 378.673188 276.945195 
L 378.049297 277.316643 
L 377.414164 276.070352 
L 376.767377 275.524822 
L 376.1085 273.950326 
L 375.437071 274.825169 
L 374.752605 274.797449 
L 374.054584 275.553651 
L 373.34246 275.153374 
L 372.615652 274.885044 
L 371.873543 275.280886 
L 371.115472 273.740763 
L 370.340739 273.015608 
L 369.548595 271.848041 
L 367.908815 271.172782 
L 367.059402 272.137438 
L 366.189015 273.322745 
L 365.296589 273.189689 
L 364.380981 271.976662 
L 363.440954 269.514017 
L 362.47517 269.5118 
L 360.460398 268.130235 
L 359.408113 267.870776 
L 358.323446 266.982627 
L 357.204338 266.511387 
L 356.048532 265.456918 
L 354.853539 265.188588 
L 353.616608 265.597736 
L 352.334688 263.583046 
L 349.621895 258.78416 
L 348.182963 256.512228 
L 346.682783 255.339118 
L 345.115906 254.454296 
L 343.476126 252.483958 
L 341.756325 252.435171 
L 339.948292 251.140092 
L 338.042481 251.785414 
L 336.027709 249.032264 
L 333.890756 245.14592 
L 329.183919 239.162835 
L 326.571693 237.743571 
L 323.750274 235.497142 
L 323.455302 233.927081 
L 323.157841 232.996798 
L 322.857849 232.527776 
L 322.555281 232.687443 
L 322.004027 232.419113 
L 321.849358 232.198462 
L 321.694008 233.252931 
L 321.631676 232.889244 
L 321.50668 232.715163 
L 321.444015 232.690769 
L 321.223807 231.797076 
L 321.065669 231.717243 
L 321.002214 231.579752 
L 320.938645 231.610798 
L 320.747248 233.306153 
L 320.715247 233.08772 
L 320.554806 232.684116 
L 320.425925 232.187374 
L 320.264158 231.679544 
L 320.199243 231.524312 
L 320.134208 231.329163 
L 320.069053 231.426737 
L 319.971094 231.6363 
L 319.93838 231.560902 
L 319.905636 231.485504 
L 319.872862 231.615233 
L 319.807221 232.025489 
L 319.774355 231.833667 
L 319.344283 229.547321 
L 319.27765 229.571715 
L 318.942582 229.820086 
L 318.841437 229.755776 
L 318.740001 229.718076 
L 318.46807 231.159516 
L 318.262736 229.746905 
L 318.228397 229.841153 
L 318.090705 230.322372 
L 317.987083 231.170604 
L 317.952474 230.955497 
L 317.778919 230.475387 
L 317.569519 230.005256 
L 317.429225 229.48412 
L 317.394064 229.724729 
L 317.358868 229.172547 
L 317.28837 229.516275 
L 316.93375 230.97102 
L 315.847968 227.2011 
L 315.478479 227.514891 
L 315.105076 226.279688 
L 314.727675 225.453632 
L 314.34619 223.443377 
L 313.96053 224.987936 
L 313.570605 224.809419 
L 313.176317 226.862916 
L 312.77757 224.610944 
L 312.37426 224.75287 
L 311.966282 222.706025 
L 311.553526 222.113926 
L 311.13588 217.183092 
L 310.713226 217.585587 
L 310.285442 219.499376 
L 309.852404 226.148849 
L 309.413979 226.920574 
L 308.970032 224.052108 
L 308.520422 219.746638 
L 308.065003 216.831603 
L 307.603623 216.530009 
L 307.136124 215.102984 
L 306.662341 216.115318 
L 305.695232 219.815384 
L 304.700838 217.911574 
L 304.19292 217.086627 
L 303.677576 217.975884 
L 303.154585 217.728622 
L 302.084733 219.644628 
L 301.537379 220.175744 
L 300.981391 219.781011 
L 298.665358 210.636737 
L 298.061766 211.808739 
L 297.447657 209.176448 
L 296.82266 210.228699 
L 296.186381 208.569934 
L 295.538405 211.516016 
L 294.205583 206.544156 
L 293.519785 204.725724 
L 292.820379 205.476382 
L 292.106814 207.061966 
L 290.634829 203.007084 
L 289.875124 198.782556 
L 289.098685 197.935433 
L 288.304757 195.198915 
L 286.661153 195.718942 
L 285.809688 198.442155 
L 284.937146 197.825662 
L 283.124462 194.023587 
L 281.213484 195.712289 
L 280.217686 195.131278 
L 279.192936 192.831627 
L 278.1375 191.909105 
L 277.049484 189.912156 
L 275.926812 189.29012 
L 273.568145 186.059076 
L 272.326858 183.179523 
L 271.040258 181.610571 
L 269.704912 181.046192 
L 268.31698 180.000593 
L 266.87215 175.613072 
L 265.365556 173.151536 
L 263.791682 172.120352 
L 262.144237 173.740308 
L 260.416002 175.07863 
L 260.238426 175.414596 
L 260.05995 176.004478 
L 259.880566 175.858116 
L 259.700264 176.192974 
L 259.519035 174.998796 
L 259.153758 174.427764 
L 258.96969 175.342524 
L 258.598645 174.121736 
L 258.411648 172.53726 
L 258.223653 172.068238 
L 258.034651 171.200048 
L 257.844629 171.309819 
L 257.461485 171.15126 
L 257.07413 172.444121 
L 256.878845 172.598244 
L 256.682471 171.838716 
L 256.286412 171.331995 
L 255.885852 170.49596 
L 255.683852 170.621254 
L 255.480687 170.30192 
L 255.070812 167.470044 
L 254.656114 164.398668 
L 254.446921 163.881968 
L 254.236479 164.117033 
L 254.024773 163.477256 
L 253.597508 161.228609 
L 253.381918 161.174278 
L 253.165 160.905948 
L 252.506123 162.59576 
L 252.059928 161.746419 
L 251.608013 160.715235 
L 250.919087 163.18675 
L 250.68642 162.898462 
L 250.4287 163.086958 
L 250.310928 163.730062 
L 250.192762 165.970947 
L 250.097943 167.126316 
L 250.050438 167.017654 
L 249.883664 164.529507 
L 249.835868 164.682521 
L 249.764054 164.98855 
L 249.740083 164.855494 
L 249.644037 164.592708 
L 249.52361 166.269214 
L 249.475324 165.723684 
L 249.281515 162.296384 
L 249.257214 162.305254 
L 249.232896 162.314124 
L 249.062199 161.051201 
L 249.037746 161.253003 
L 248.988789 161.658824 
L 248.939764 161.408235 
L 248.742979 160.742955 
L 248.619429 160.576635 
L 248.271166 158.062985 
L 248.221132 158.357926 
L 247.995096 160.492366 
L 247.894168 160.920363 
L 247.58964 163.368593 
L 247.564144 163.052585 
L 247.461973 162.350715 
L 247.410776 162.503729 
L 247.282458 164.170256 
L 247.231 163.753347 
L 247.153671 163.475038 
L 247.102025 163.557089 
L 247.024412 164.376492 
L 246.972576 163.87088 
L 246.894677 163.365267 
L 246.842649 163.54711 
L 246.686103 164.312182 
L 246.581352 164.682521 
L 246.132651 155.308726 
L 246.026239 155.844276 
L 245.892771 156.054948 
L 245.758795 156.281144 
L 245.731939 156.343236 
L 245.678165 156.205745 
L 245.59735 155.564859 
L 245.408057 154.071305 
L 245.353786 154.128963 
L 245.326619 154.08572 
L 245.19047 153.414896 
L 244.944069 152.451348 
L 244.889078 152.628756 
L 244.806431 153.213094 
L 244.778839 152.956961 
L 244.585087 152.025569 
L 244.529534 151.974564 
L 244.418163 151.823768 
L 244.278452 152.686414 
L 244.138186 154.114548 
L 243.969126 151.53548 
L 243.94087 151.630836 
L 243.855967 152.624321 
L 243.770859 152.581078 
L 243.685545 152.96694 
L 243.514295 154.166662 
L 243.370948 152.434716 
L 243.313445 152.501244 
L 243.227016 153.209768 
L 243.169278 153.027924 
L 243.082493 151.919124 
L 242.995495 152.093206 
L 242.820851 152.50568 
L 242.733203 152.579969 
L 242.67465 152.686414 
L 242.616 152.623212 
L 242.586638 152.574425 
L 242.527841 152.6343 
L 241.784479 157.164857 
L 241.603715 156.566105 
L 241.452366 156.614892 
L 241.361245 156.959729 
L 241.178291 158.110664 
L 241.117095 158.006436 
L 241.086457 158.066312 
L 240.963639 158.385646 
L 240.592594 152.783988 
L 240.499219 152.464654 
L 240.436832 152.584404 
L 240.374334 153.203115 
L 240.311725 152.811708 
L 240.154714 151.397988 
L 240.123227 151.499998 
L 239.997 152.391473 
L 239.806808 153.333953 
L 239.647526 152.686414 
L 239.583612 152.750724 
L 239.294553 153.924944 
L 238.970571 152.242894 
L 238.807457 153.412678 
L 238.742 153.319539 
L 238.08065 148.935344 
L 238.013827 148.964172 
L 237.812596 150.230422 
L 237.745263 149.979833 
L 237.576365 148.759044 
L 237.542488 148.771241 
L 237.474636 148.881012 
L 237.33854 149.367776 
L 237.270294 149.221414 
L 237.06476 148.440819 
L 236.892562 147.667985 
L 236.823446 147.734513 
L 236.650062 148.640403 
L 236.615283 148.53174 
L 236.510738 148.41199 
L 236.300714 150.007553 
L 236.195231 149.707623 
L 236.16 149.518572 
L 236.124733 150.553637 
L 235.769757 147.431256 
L 235.41117 146.51317 
L 235.048897 142.076861 
L 234.682862 145.791341 
L 234.312986 146.040821 
L 233.939188 148.138671 
L 233.179485 145.754751 
L 232.793404 146.013101 
L 232.008319 141.017957 
L 231.609121 138.605208 
L 231.20535 141.093356 
L 230.383661 143.723429 
L 229.965521 145.114973 
L 229.54236 144.812271 
L 229.114058 145.04401 
L 228.680488 144.173602 
L 228.241518 145.724813 
L 227.797012 144.58164 
L 227.346829 141.804096 
L 226.890823 142.233202 
L 226.428839 143.425162 
L 225.960721 143.085869 
L 225.486301 143.36196 
L 225.005409 142.795364 
L 224.517866 145.019616 
L 224.023485 144.252327 
L 223.522071 144.790095 
L 223.013421 143.967365 
L 222.497323 144.446367 
L 221.973557 143.024885 
L 221.441891 143.452882 
L 220.902082 141.238608 
L 220.353878 144.325508 
L 219.797013 142.633479 
L 219.23121 145.574016 
L 218.656176 143.24221 
L 218.071605 145.202568 
L 217.477176 142.764317 
L 216.872551 143.268821 
L 216.257373 141.397167 
L 215.631268 141.603404 
L 214.99384 140.713037 
L 214.344673 142.3086 
L 213.683325 142.435004 
L 213.009332 144.311093 
L 212.322199 143.857594 
L 211.621405 145.111647 
L 211.549916 144.382056 
L 211.4065 147.006586 
L 210.972719 142.245399 
L 210.8999 142.189959 
L 210.826931 141.944914 
L 210.75381 140.841658 
L 210.533533 143.924122 
L 210.385914 142.615738 
L 210.311871 142.50264 
L 210.088806 140.805068 
L 210.014137 140.704167 
L 209.411015 147.607556 
L 209.105539 140.57222 
L 209.028755 140.358221 
L 208.951803 139.468964 
L 208.874683 142.15226 
L 208.797393 140.477972 
L 208.564503 147.160709 
L 208.330064 141.661061 
L 208.094055 145.511924 
L 207.935834 144.284482 
L 207.856456 143.134656 
L 207.617243 145.762512 
L 207.376397 138.286983 
L 207.295747 138.315812 
L 207.133893 142.090167 
L 207.052686 140.463557 
L 206.971292 140.343807 
L 206.807938 141.402711 
L 206.643823 138.773746 
L 206.230161 145.18261 
L 206.146843 144.801183 
L 206.063327 145.277967 
L 205.979613 144.744634 
L 205.8957 146.545325 
L 205.473111 143.580394 
L 205.217105 146.420031 
L 204.959225 138.799248 
L 204.786251 140.034452 
L 204.699445 139.354757 
L 204.612424 139.655242 
L 204.437736 143.165703 
L 204.350066 144.592728 
L 204.08574 141.434866 
L 203.99719 142.08684 
L 203.908416 141.970416 
L 203.819418 142.29086 
L 203.730194 141.143252 
L 203.551067 145.068404 
L 203.461161 144.993005 
L 203.371026 143.023776 
L 203.190059 144.560573 
L 203.099227 146.081847 
L 203.008159 144.654821 
L 202.916856 145.19148 
L 202.825316 144.8411 
L 202.733537 146.09737 
L 202.641519 145.549623 
L 202.364013 140.195228 
L 202.084306 146.163898 
L 201.802362 140.751845 
L 201.613138 142.688919 
L 201.518144 144.649277 
L 201.327384 143.267712 
L 201.231616 144.122597 
L 201.135586 143.113589 
L 201.039295 143.853159 
L 200.651476 138.40008 
L 200.357786 141.592316 
L 200.160624 145.739228 
L 200.061628 146.294736 
L 199.862798 144.283373 
L 199.66284 142.681157 
L 199.461741 141.078941 
L 199.259489 143.561544 
L 199.056069 142.062447 
L 198.953917 142.255378 
L 198.645674 136.56169 
L 198.334711 141.827381 
L 198.02098 139.106386 
L 197.915779 140.098762 
L 197.704432 145.923288 
L 197.598281 145.098341 
L 197.385015 139.848173 
L 197.170451 141.642212 
L 196.846136 138.738264 
L 196.409022 144.023914 
L 196.298891 144.293352 
L 196.188415 142.329668 
L 196.077592 143.457317 
L 195.966419 143.237775 
L 195.854894 142.498205 
L 195.630781 138.821424 
L 195.291916 142.303056 
L 194.834969 136.36765 
L 194.719801 134.67673 
L 194.604255 134.644575 
L 194.37202 139.715117 
L 194.255327 140.739648 
L 194.138246 138.464391 
L 194.020774 138.885735 
L 193.90291 138.876864 
L 193.784651 138.339096 
L 193.665993 137.040692 
L 193.653046 137.463144 
L 193.601209 140.062172 
L 193.536306 138.291418 
L 193.419178 134.728844 
L 193.380049 135.884213 
L 193.366996 135.938544 
L 193.353939 135.73009 
L 193.314737 135.091421 
L 193.30166 136.052751 
L 193.288578 137.229188 
L 193.249304 135.477284 
L 193.196869 135.947415 
L 193.144357 133.631132 
L 193.078606 133.72538 
L 192.933522 144.623775 
L 192.907078 143.86092 
L 192.81437 145.151564 
L 192.774563 139.737293 
L 192.748001 141.761962 
L 192.721418 138.434453 
L 192.668192 139.068687 
L 192.614885 142.616847 
L 192.574852 139.636392 
L 192.548138 136.702508 
L 192.50803 140.34048 
L 192.467875 139.739511 
L 192.427675 138.332444 
L 192.374003 139.290447 
L 192.279881 143.418509 
L 192.252942 141.300701 
L 192.11794 135.044852 
L 192.063795 136.042772 
L 191.941661 138.558639 
L 192.009565 135.910824 
L 191.928065 138.428909 
L 191.873626 141.103335 
L 191.846376 143.284344 
L 191.791811 140.809503 
L 191.764497 141.229738 
L 191.737161 142.048032 
L 191.696118 140.981367 
L 191.572703 130.708335 
L 191.462636 133.712074 
L 191.421272 139.174023 
L 191.338398 137.078391 
L 191.255329 139.151847 
L 191.241465 137.575133 
L 191.158167 134.925101 
L 191.130357 136.297796 
L 190.990978 141.40382 
L 190.97701 141.311789 
L 190.907086 137.730365 
L 190.865064 140.195228 
L 190.851046 140.195228 
L 190.822993 142.423916 
L 190.780871 137.813525 
L 190.766819 138.451085 
L 190.752762 139.088645 
L 190.696476 136.74686 
L 190.555367 132.385949 
L 190.527078 132.608818 
L 190.498765 132.757397 
L 190.385288 139.188437 
L 190.356861 137.215882 
L 190.342639 135.907498 
L 190.299939 138.567509 
L 190.242925 136.474095 
L 190.214383 135.784421 
L 190.157231 136.96862 
L 190.05699 142.759882 
L 189.999581 139.728423 
L 189.841224 136.673679 
L 189.797911 140.327175 
L 189.711127 139.547688 
L 189.493227 134.041388 
L 189.478652 134.041388 
L 189.391077 139.61976 
L 189.317931 136.686984 
L 189.28863 135.85982 
L 189.244633 138.503199 
L 189.156474 141.206453 
L 189.14176 139.200634 
L 189.053343 134.470493 
L 189.009051 135.429605 
L 188.964703 137.487538 
L 188.890666 143.914143 
L 188.831325 141.036807 
L 188.801616 139.560994 
L 188.757007 141.475892 
L 188.727236 140.571111 
L 188.682532 142.972772 
L 188.637772 140.500148 
L 188.592954 139.350322 
L 188.533109 140.614354 
L 188.503148 143.821004 
L 188.458159 139.210613 
L 188.428134 140.565567 
L 188.35296 144.927586 
L 188.307779 142.193285 
L 188.217243 139.443461 
L 188.171887 140.556696 
L 188.156755 141.08005 
L 188.126473 138.416712 
L 187.989878 129.860103 
L 187.944229 131.786088 
L 187.928999 131.786088 
L 187.761038 136.895439 
L 187.715091 135.074789 
L 187.669084 136.25677 
L 187.607648 141.565704 
L 187.469024 141.288504 
L 187.376305 139.942421 
L 187.422695 143.171247 
L 187.360828 140.687535 
L 187.345344 141.432648 
L 187.314356 138.866885 
L 187.298851 137.909991 
L 187.267822 139.094189 
L 187.236766 138.66841 
L 187.205682 141.790791 
L 187.143433 137.571807 
L 187.112266 137.058432 
L 187.096673 138.709436 
L 187.065466 142.018095 
L 187.002967 138.181647 
L 186.830524 131.142984 
L 186.657233 135.478392 
L 186.641437 136.668135 
L 186.56235 135.12912 
L 186.546512 134.749911 
L 186.467211 135.4163 
L 186.435441 137.487538 
L 186.355891 136.507359 
L 186.32402 134.17777 
L 186.244217 134.906252 
L 186.180244 136.31221 
L 186.164233 137.338959 
L 186.116155 134.34409 
L 186.100115 134.818656 
L 186.084067 135.293223 
L 186.068012 134.238754 
L 185.971528 129.414365 
L 185.939308 131.749498 
L 185.923186 131.834876 
L 185.826304 128.889903 
L 185.874779 132.31166 
L 185.810131 129.995376 
L 185.729155 131.997869 
L 185.761568 129.909999 
L 185.712938 131.579852 
L 185.53405 123.858168 
L 185.272218 131.792741 
L 185.255789 131.523303 
L 185.189995 128.998565 
L 185.157053 131.361418 
L 185.041509 134.663424 
L 185.024972 134.450535 
L 184.875788 131.43349 
L 184.84255 132.831687 
L 184.692589 138.850253 
L 184.659178 138.708327 
L 184.424408 132.402581 
L 184.407579 133.391631 
L 184.238843 136.621565 
L 184.357043 132.927044 
L 184.171121 135.981788 
L 184.137212 135.225586 
L 184.10327 135.819903 
L 184.035287 140.583308 
L 184.001247 136.854413 
L 183.950124 137.932167 
L 183.830549 127.15574 
L 183.796311 128.459688 
L 183.74489 126.74881 
L 183.727733 127.522752 
L 183.710568 127.430722 
L 183.693394 126.564749 
L 183.641823 128.406466 
L 183.6074 126.929544 
L 183.590176 127.02601 
L 183.486655 131.10085 
L 183.45208 129.131621 
L 183.382829 128.358788 
L 183.330801 131.56322 
L 183.261311 129.272439 
L 183.243917 129.241392 
L 183.226514 129.27133 
L 183.191683 130.281447 
L 183.156818 128.822266 
L 183.069503 127.46953 
L 183.052014 127.993992 
L 183.01701 128.835572 
L 182.929348 128.443056 
L 182.911789 128.300021 
L 182.894222 128.794546 
L 182.788634 130.326908 
L 182.771005 130.005356 
L 182.753367 129.683804 
L 182.735721 131.07313 
L 182.700401 132.503482 
L 182.665046 130.502098 
L 182.629655 131.444578 
L 182.594229 130.548668 
L 182.558768 132.067724 
L 182.505508 131.065368 
L 182.398747 135.847623 
L 182.345245 134.327458 
L 182.291662 131.863704 
L 182.237997 134.304173 
L 182.130421 133.557951 
L 181.950396 129.837927 
L 181.932342 130.903484 
L 181.91428 131.001058 
L 181.878127 129.065093 
L 181.80571 129.994268 
L 181.678622 134.563632 
L 181.642226 133.598976 
L 181.47798 131.803829 
L 181.423061 134.320805 
L 181.349702 133.260792 
L 181.312966 133.21644 
L 181.276191 134.71332 
L 181.239377 132.443607 
L 181.110226 129.261351 
L 181.091737 129.249154 
L 181.054731 130.846935 
L 180.9806 130.473269 
L 180.943477 132.085464 
L 180.887718 126.449434 
L 180.813235 126.486024 
L 180.775935 128.77237 
L 180.71991 125.451514 
L 180.701215 125.4371 
L 180.607592 130.802583 
L 180.532515 129.633908 
L 180.400743 125.48256 
L 180.363003 125.830724 
L 180.325223 125.324002 
L 180.306318 126.12012 
L 180.097688 133.695442 
L 180.021515 135.481719 
L 179.964277 131.59981 
L 179.926067 130.35241 
L 179.887815 129.090596 
L 179.811187 129.417692 
L 179.715167 129.211455 
L 179.657429 131.001058 
L 179.618885 131.085327 
L 179.541669 131.908056 
L 179.502998 132.818381 
L 179.483646 132.426975 
L 179.444911 126.941963 
L 177.62102 124.641868 
L 177.435009 125.475686 
L 177.248012 128.736667 
L 177.060017 129.865425 
L 176.871014 128.772148 
L 176.680993 126.887188 
L 176.489941 127.123363 
L 176.104703 124.530988 
L 175.910494 121.934179 
L 175.715208 122.089411 
L 175.518835 125.513385 
L 175.321362 126.602227 
L 175.122776 126.911582 
L 174.923065 124.804862 
L 174.520215 123.673886 
L 174.317051 121.898697 
L 174.112709 123.074025 
L 173.907175 122.249078 
L 173.700436 123.162729 
L 173.492477 120.63023 
L 173.072842 121.538337 
L 172.861136 123.274718 
L 172.648151 123.347899 
L 172.433872 122.204726 
L 172.001364 118.919352 
L 171.783104 119.778672 
L 171.563484 122.179224 
L 171.342487 122.089411 
L 170.896292 118.576732 
L 170.671058 119.250883 
L 170.444376 121.938614 
L 170.216227 120.069177 
L 169.986592 120.107985 
L 169.75545 119.072366 
L 169.522784 119.162179 
L 169.288571 117.956913 
L 169.052791 117.890385 
L 168.815424 118.146518 
L 168.576447 119.147764 
L 168.335839 118.989206 
L 168.093577 121.451851 
L 167.849639 121.364256 
L 167.604001 119.804174 
L 167.356639 116.183942 
L 167.107529 116.291496 
L 166.856646 117.39586 
L 166.603965 119.304105 
L 165.574726 114.583944 
L 165.312651 115.772577 
L 165.048613 115.151649 
L 164.782582 115.339036 
L 164.514528 114.225801 
L 164.24442 113.832177 
L 163.697915 114.714782 
L 163.142802 113.334326 
L 162.861933 112.870848 
L 162.578807 113.873203 
L 162.293389 113.495102 
L 162.005642 111.559137 
L 161.423001 110.901619 
L 161.12803 111.162187 
L 160.830569 108.997809 
L 160.530576 108.257131 
L 160.228008 108.372446 
L 159.922821 109.23731 
L 159.614968 111.006955 
L 158.991077 110.138764 
L 158.674941 110.125459 
L 158.355944 109.23731 
L 158.034034 109.014441 
L 157.709157 107.564131 
L 157.381258 109.115342 
L 157.05028 109.165238 
L 156.378851 107.233708 
L 156.038279 105.43967 
L 155.694385 105.091507 
L 155.347102 105.072657 
L 154.996364 106.830105 
L 154.6421 107.125046 
L 154.28424 107.021928 
L 153.922709 107.983257 
L 153.557432 106.675982 
L 153.18833 106.536273 
L 152.815323 105.741264 
L 152.438325 106.693723 
L 151.282519 103.050206 
L 150.490375 102.155404 
L 150.087526 102.830664 
L 149.68002 101.9281 
L 149.267747 103.441612 
L 148.850595 103.152216 
L 148.428447 104.322 
L 148.001182 104.004883 
L 147.130795 103.963857 
L 146.687406 103.552492 
L 146.238369 102.478065 
L 145.783538 104.086934 
L 145.322761 103.253116 
L 144.855881 104.015971 
L 144.382734 101.656444 
L 143.90315 101.802806 
L 143.41695 101.123112 
L 142.423957 103.392825 
L 141.91677 103.399478 
L 141.402178 100.618608 
L 140.879962 98.982019 
L 140.349893 100.116321 
L 139.811731 101.925883 
L 138.710113 101.528932 
L 138.146118 99.273633 
L 137.572952 100.402392 
L 136.990312 99.127272 
L 136.39788 102.016804 
L 135.795319 100.797124 
L 134.558388 99.799204 
L 133.923255 98.791305 
L 133.276468 100.054228 
L 132.617591 99.458803 
L 131.946162 98.646052 
L 131.261696 98.591721 
L 130.563675 97.372041 
L 129.851551 99.63732 
L 129.124743 98.392137 
L 128.382633 99.566356 
L 127.624563 99.553051 
L 126.84983 100.430112 
L 126.057686 97.950835 
L 125.247331 95.01695 
L 124.417906 93.098726 
L 123.568493 93.882648 
L 122.698105 92.407944 
L 121.80568 91.229289 
L 120.890072 90.31342 
L 118.984261 92.221665 
L 116.969489 92.385768 
L 115.917204 91.261444 
L 114.832536 91.001985 
L 113.713429 92.006558 
L 112.557623 93.803923 
L 111.36263 95.101219 
L 110.125699 93.736286 
L 108.843779 92.065324 
L 107.513473 89.304412 
L 106.130985 88.638024 
L 104.692054 89.220144 
L 103.191874 90.417648 
L 101.624997 91.107321 
L 99.985217 90.657148 
L 98.08873 90.924369 
L 97.911153 90.578424 
L 97.553293 89.468515 
L 97.372991 89.308848 
L 97.191762 89.89762 
L 96.642417 93.312724 
L 96.271373 95.499278 
L 95.896381 91.683897 
L 95.707378 89.382028 
L 95.517356 88.987296 
L 95.326305 89.11259 
L 95.134212 89.443012 
L 94.746857 88.357497 
L 94.551572 88.959576 
L 94.157725 91.789233 
L 93.959139 92.903577 
L 93.759428 93.128664 
L 93.153415 95.724364 
L 92.949072 95.632334 
L 92.5368 95.15555 
L 92.328841 94.572321 
L 92.119648 93.561096 
L 91.909206 91.899004 
L 91.6975 91.704964 
L 91.484515 90.486393 
L 91.270235 90.201432 
L 91.054645 89.229014 
L 90.837728 89.530608 
L 90.17885 92.324784 
L 89.956459 91.64398 
L 89.732655 90.15708 
L 89.507422 89.579395 
L 89.28074 90.919934 
L 88.822955 97.052707 
L 88.591814 97.288881 
L 88.124934 94.473638 
L 87.889155 94.604476 
L 87.651787 95.505931 
L 87.412811 95.279736 
L 86.929941 93.510091 
L 86.686003 93.758462 
L 86.193003 95.005862 
L 85.69301 96.119097 
L 85.185823 95.267539 
L 84.929466 95.889576 
L 84.149015 99.069614 
L 83.884977 99.494284 
L 83.618946 99.011956 
L 82.80859 95.664489 
L 82.534278 95.306347 
L 82.257815 95.341828 
L 81.698296 94.698724 
L 81.129753 92.529912 
L 80.842005 91.375651 
L 80.551889 90.759158 
L 80.259365 90.986462 
L 79.964393 91.074057 
L 79.064372 93.929217 
L 78.759185 93.870451 
L 78.451332 93.297201 
L 78.140767 93.031089 
L 77.511305 89.876553 
L 77.031721 88.322016 
L 76.999515 88.322016 
L 76.578144 91.0164 
L 76.545521 91.0164 
L 76.381952 90.450912 
L 76.217622 91.771492 
L 76.052521 91.259227 
L 75.786741 93.544464 
L 75.719981 93.544464 
L 75.384275 91.545297 
L 75.249092 92.117438 
L 75.215215 92.058672 
L 75.079381 91.941139 
L 74.874643 93.038851 
L 74.737488 93.191865 
L 74.530748 95.287497 
L 74.392246 95.287497 
L 74.113597 96.438432 
L 74.043589 96.438432 
L 73.832727 97.672526 
L 73.832727 97.672526 
" clip-path="url(#pe461659f0e)" style="fill: none; stroke: #ff0000; stroke-width: 1.5; stroke-linecap: square"/>
   </g>
   <g id="line2d_51">
    <path d="M 398.487273 280.492246 
L 398.133009 280.810472 
L 397.775149 279.63847 
L 397.413619 278.968755 
L 397.048342 278.574022 
L 396.67924 277.806732 
L 396.306232 278.761409 
L 395.929234 279.098484 
L 395.548161 279.986633 
L 395.162923 278.839025 
L 394.379582 279.557528 
L 393.981285 279.626273 
L 393.578435 278.173745 
L 393.170929 278.70486 
L 392.341504 279.15836 
L 391.919356 278.218097 
L 391.492092 277.785665 
L 391.059584 279.487673 
L 390.621704 280.552121 
L 390.178315 280.460091 
L 389.729278 279.178318 
L 389.274447 276.476172 
L 388.81367 276.601467 
L 388.346791 274.94492 
L 387.873644 275.247622 
L 387.394059 273.788441 
L 386.907859 274.985945 
L 386.414859 274.518032 
L 385.914866 275.361828 
L 385.407679 277.460787 
L 384.893087 277.244571 
L 384.370871 277.806732 
L 383.840802 275.640137 
L 383.30264 276.460649 
L 382.756135 277.001744 
L 382.201022 276.607011 
L 381.637027 277.81782 
L 381.063862 277.122603 
L 380.481221 278.103891 
L 378.673188 272.420182 
L 377.414164 274.468136 
L 376.767377 275.384004 
L 376.1085 274.560166 
L 375.437071 273.046654 
L 374.752605 272.476731 
L 374.054584 272.232795 
L 373.34246 272.443467 
L 372.615652 273.222953 
L 371.873543 272.900292 
L 371.115472 273.15199 
L 369.548595 270.26024 
L 368.73824 269.490732 
L 367.908815 267.320811 
L 367.059402 262.659416 
L 366.189015 254.680491 
L 365.296589 248.156312 
L 364.380981 247.5753 
L 363.440954 252.597056 
L 362.47517 260.40966 
L 361.482177 264.850404 
L 360.460398 267.246521 
L 359.408113 267.229889 
L 358.323446 267.502654 
L 357.204338 267.313049 
L 356.048532 266.408268 
L 354.853539 266.55463 
L 353.616608 264.201756 
L 352.334688 262.764752 
L 351.004382 260.236688 
L 349.621895 260.084782 
L 348.182963 259.280902 
L 346.682783 257.424771 
L 345.115906 254.914448 
L 343.476126 252.557139 
L 341.756325 250.919441 
L 339.948292 249.863864 
L 338.042481 248.272736 
L 336.027709 248.006624 
L 331.615843 241.730816 
L 329.183919 236.080371 
L 326.571693 232.706292 
L 323.750274 231.083009 
L 322.555281 232.10754 
L 322.188738 232.630894 
L 322.096504 232.261664 
L 322.034879 232.454595 
L 321.849358 233.572265 
L 321.7873 233.46582 
L 321.600468 233.206361 
L 321.475361 233.021192 
L 321.444015 232.960208 
L 321.381238 233.000124 
L 321.31835 233.114331 
L 321.160637 233.533457 
L 321.097353 233.42923 
L 321.002214 233.485779 
L 320.586952 231.360209 
L 320.52263 231.415649 
L 320.458189 231.556467 
L 320.425925 231.669564 
L 320.393631 231.40567 
L 320.231715 230.116136 
L 320.199243 230.258062 
L 320.069053 231.283702 
L 319.872862 231.924588 
L 319.741458 232.623132 
L 319.576512 233.13318 
L 319.377552 233.224102 
L 319.344283 233.249604 
L 319.177463 234.064572 
L 319.144005 233.842812 
L 319.009851 233.334982 
L 318.976232 233.372681 
L 318.908899 233.51239 
L 318.875184 233.367137 
L 318.604298 231.752724 
L 318.46807 231.273723 
L 318.365552 231.882454 
L 318.297041 231.642953 
L 318.194024 230.986544 
L 318.056198 230.7038 
L 317.987083 230.641707 
L 317.883155 230.049608 
L 317.813699 230.116136 
L 317.709257 230.31572 
L 317.674375 230.273585 
L 317.604506 230.189316 
L 317.394064 228.548292 
L 317.28837 230.680515 
L 316.93375 229.339976 
L 316.575526 228.835472 
L 316.213624 228.909761 
L 315.847968 230.90671 
L 315.478479 230.936648 
L 315.105076 229.766864 
L 314.727675 227.186686 
L 314.34619 227.440601 
L 313.96053 226.368392 
L 313.570605 226.376153 
L 312.77757 223.876918 
L 312.37426 221.239083 
L 311.966282 221.905472 
L 311.553526 223.814825 
L 311.13588 226.376153 
L 310.285442 225.532356 
L 309.852404 223.972275 
L 309.413979 223.715033 
L 308.970032 223.80152 
L 308.520422 225.211913 
L 308.065003 222.754812 
L 307.136124 219.542619 
L 306.662341 221.139291 
L 306.182103 221.697017 
L 305.695232 221.413164 
L 305.201542 219.884129 
L 304.700838 217.886072 
L 304.19292 217.145393 
L 303.677576 215.821486 
L 303.154585 215.563136 
L 302.623718 213.980878 
L 302.084733 214.891203 
L 301.537379 214.74595 
L 300.981391 215.422318 
L 299.842393 211.071387 
L 299.258788 207.909089 
L 298.665358 206.268065 
L 298.061766 206.508675 
L 297.447657 207.336948 
L 296.82266 209.278457 
L 296.186381 207.369104 
L 295.538405 204.800014 
L 294.878293 201.635499 
L 294.205583 200.907017 
L 292.106814 205.036188 
L 291.378504 204.469592 
L 290.634829 204.274443 
L 289.875124 203.817617 
L 289.098685 203.931824 
L 287.492534 198.076251 
L 286.661153 198.220395 
L 285.809688 198.569667 
L 284.937146 197.902169 
L 284.042455 195.161216 
L 283.124462 194.619012 
L 282.181922 193.506886 
L 281.213484 191.586444 
L 280.217686 191.550963 
L 279.192936 192.128648 
L 278.1375 191.736132 
L 277.049484 190.034124 
L 275.926812 187.237731 
L 274.767203 186.973836 
L 273.568145 184.694144 
L 272.326858 186.034683 
L 271.040258 184.939188 
L 269.704912 183.410153 
L 268.31698 178.53476 
L 266.87215 174.647307 
L 265.365556 172.033865 
L 263.791682 169.936016 
L 262.144237 167.967896 
L 260.416002 166.739345 
L 260.05995 165.897766 
L 259.880566 166.030822 
L 259.700264 165.455355 
L 259.519035 165.671571 
L 259.33687 166.101785 
L 258.96969 168.14863 
L 258.784656 168.072123 
L 258.034651 166.075174 
L 257.653577 164.471849 
L 257.461485 164.316617 
L 257.07413 165.679332 
L 256.484998 169.511345 
L 256.286412 169.491387 
L 256.086701 169.836224 
L 255.885852 168.133107 
L 255.683852 167.946828 
L 255.480687 166.948908 
L 255.276345 167.818208 
L 254.864072 167.911347 
L 254.236479 165.471987 
L 253.811788 166.55972 
L 253.597508 168.336017 
L 253.381918 167.617515 
L 253.165 167.606427 
L 252.94674 167.053136 
L 252.283732 168.625414 
L 252.059928 167.759441 
L 251.834695 166.350156 
L 251.608013 165.81128 
L 251.150228 166.303587 
L 250.68642 163.876424 
L 250.452207 163.238864 
L 250.405177 163.38079 
L 250.192762 165.225833 
L 250.002869 166.324654 
L 249.955235 166.045236 
L 249.668073 162.757644 
L 249.619985 162.559169 
L 249.354318 161.322857 
L 249.330067 161.336163 
L 249.3058 161.349468 
L 248.915226 158.260352 
L 248.816902 158.37234 
L 248.767638 158.217108 
L 248.693611 158.116208 
L 248.644174 158.189388 
L 248.569887 158.309139 
L 248.54509 158.143928 
L 248.495444 157.840116 
L 248.420843 158.034156 
L 248.221132 159.363608 
L 248.171027 159.058688 
L 248.020283 157.906644 
L 247.969891 158.186062 
L 247.894168 158.482112 
L 247.868891 158.377884 
L 247.818283 158.181627 
L 247.767601 158.346838 
L 247.58964 159.310385 
L 247.513095 159.190635 
L 247.410776 158.764856 
L 247.205243 156.069363 
L 247.153671 156.000617 
L 246.946629 153.684334 
L 246.920663 153.696531 
L 246.894677 153.708728 
L 246.764463 154.762088 
L 246.712243 154.393966 
L 246.449973 152.06216 
L 246.397284 152.390364 
L 246.318102 153.076712 
L 246.265216 153.043448 
L 246.026239 150.07519 
L 245.866016 149.154886 
L 245.812447 149.212544 
L 245.731939 149.996465 
L 245.705062 149.642758 
L 245.624309 148.853292 
L 245.57037 148.932017 
L 245.54337 148.991892 
L 245.516349 148.847748 
L 245.408057 148.552808 
L 245.163177 150.890158 
L 245.108528 150.257033 
L 244.971532 149.381081 
L 244.944069 149.374428 
L 244.557321 151.726193 
L 244.473892 152.275049 
L 244.418163 152.184128 
L 244.334403 152.421411 
L 243.884291 155.479481 
L 243.714006 155.824318 
L 243.685545 155.579273 
L 243.57147 153.698748 
L 243.428356 152.537835 
L 243.399664 152.746289 
L 243.284659 154.187729 
L 243.198159 153.683225 
L 242.937376 151.623075 
L 242.733203 151.105265 
L 242.439461 148.233473 
L 242.321275 148.602704 
L 242.172983 149.071726 
L 241.93441 146.357384 
L 241.874514 146.583579 
L 241.724327 147.832088 
L 241.694212 147.732296 
L 241.330818 145.19647 
L 241.239381 145.249692 
L 241.147707 145.715388 
L 240.809511 147.625851 
L 240.71671 147.390785 
L 240.311725 145.308459 
L 240.123227 144.357108 
L 240.028599 144.501252 
L 239.838578 144.894876 
L 239.583612 143.869236 
L 239.519581 143.898065 
L 239.294553 144.679769 
L 239.262288 144.55891 
L 239.132934 144.044427 
L 239.100522 144.10652 
L 238.970571 144.485729 
L 238.872794 144.904856 
L 238.840141 144.852742 
L 238.807457 144.800628 
L 238.643585 143.709569 
L 238.610719 143.81047 
L 238.544894 144.256208 
L 238.34668 145.118854 
L 238.247154 145.238604 
L 238.147346 145.53798 
L 238.114014 145.480323 
L 237.846214 144.879353 
L 237.745263 144.677552 
L 237.711548 144.703054 
L 237.508578 144.958078 
L 237.33854 145.865076 
L 236.995982 142.99772 
L 236.927069 143.075336 
L 236.754195 143.414628 
L 236.650062 143.429043 
L 236.370862 143.144081 
L 236.335805 143.15406 
L 236.16 141.791345 
L 236.124733 143.897511 
L 235.769757 141.248588 
L 235.41117 141.980396 
L 235.048897 139.800495 
L 234.682862 144.639298 
L 234.312986 143.813242 
L 233.939188 144.1104 
L 233.561383 142.473812 
L 233.179485 143.040408 
L 232.793404 141.482544 
L 232.403047 140.934797 
L 232.008319 138.601882 
L 231.609121 139.062034 
L 231.20535 139.794951 
L 230.7969 142.96501 
L 230.383661 144.12038 
L 229.965521 141.92052 
L 229.114058 139.318167 
L 228.680488 140.564458 
L 228.241518 139.104168 
L 227.797012 139.488922 
L 227.346829 138.436671 
L 226.890823 139.427938 
L 226.428839 140.119829 
L 225.960721 140.113176 
L 225.486301 138.996615 
L 225.005409 136.614912 
L 224.517866 137.639444 
L 224.023485 139.126344 
L 223.522071 139.737293 
L 222.497323 136.240138 
L 221.973557 134.467167 
L 221.441891 135.631407 
L 220.902082 135.523853 
L 220.353878 137.370005 
L 219.797013 136.378738 
L 219.23121 138.143948 
L 218.656176 138.123989 
L 218.071605 140.751845 
L 217.477176 138.822533 
L 216.872551 140.464666 
L 216.257373 138.464391 
L 215.631268 140.85829 
L 213.683325 135.132447 
L 213.009332 134.986085 
L 212.322199 137.327871 
L 211.621405 137.430989 
L 211.549916 137.304586 
L 211.478281 137.600636 
L 211.262499 135.667997 
L 211.045388 139.772775 
L 210.826931 134.864117 
L 210.680537 135.833208 
L 210.607112 138.39121 
L 210.533533 138.319138 
L 210.385914 139.684071 
L 210.237673 145.101668 
L 210.163318 143.723429 
L 209.864321 133.54021 
L 209.789173 134.206599 
L 209.486972 138.43778 
L 209.411015 138.320247 
L 209.258608 136.557255 
L 209.105539 138.064114 
L 208.951803 139.498901 
L 208.719934 135.588164 
L 208.642304 136.704725 
L 208.408384 141.922738 
L 208.330064 141.63445 
L 208.172901 141.980396 
L 207.856456 132.115402 
L 207.776898 133.755317 
L 207.697161 133.345061 
L 207.617243 133.936052 
L 207.537144 131.123026 
L 207.052686 139.66633 
L 206.971292 139.151847 
L 206.807938 135.613666 
L 206.725976 134.826418 
L 206.643823 136.730228 
L 206.47894 133.183176 
L 206.396209 133.820736 
L 206.230161 139.354757 
L 206.063327 137.377767 
L 205.811587 143.275474 
L 205.387982 134.828636 
L 205.302647 136.611586 
L 205.217105 136.454136 
L 205.045395 135.159058 
L 204.872844 140.188575 
L 204.786251 140.14644 
L 204.437736 135.584837 
L 204.350066 135.603687 
L 204.262178 134.722191 
L 204.08574 135.97957 
L 203.99719 136.03501 
L 203.819418 133.447071 
L 203.730194 133.563495 
L 203.099227 142.967228 
L 202.825316 137.885597 
L 202.549259 133.918311 
L 202.364013 137.41214 
L 202.271024 141.343944 
L 201.990575 138.9822 
L 201.802362 143.000492 
L 201.422893 135.888648 
L 201.327384 136.464116 
L 201.039295 139.325928 
L 200.845919 136.73688 
L 200.748831 134.468276 
L 200.651476 135.093639 
L 200.455955 134.541456 
L 200.357786 133.818519 
L 200.259343 134.535912 
L 200.160624 136.490727 
L 199.962353 133.349496 
L 199.862798 133.494749 
L 199.762961 134.665642 
L 199.461741 140.247341 
L 199.36076 139.51886 
L 199.157926 136.818932 
L 199.056069 137.521911 
L 198.953917 137.486429 
L 198.748721 136.05386 
L 198.645674 136.315536 
L 198.43867 137.562936 
L 198.334711 137.524128 
L 198.230444 138.750461 
L 198.125867 138.584141 
L 197.915779 140.83944 
L 197.810264 139.490031 
L 197.598281 134.091284 
L 197.385015 134.614637 
L 197.170451 136.581648 
L 197.062677 137.891141 
L 196.737365 131.742845 
L 196.628257 131.869248 
L 196.188415 134.599114 
L 195.966419 137.067303 
L 195.854894 137.641661 
L 195.630781 135.451781 
L 195.405234 131.518868 
L 195.291916 130.323581 
L 194.949762 136.00729 
L 194.604255 129.903346 
L 194.138246 137.185944 
L 194.020774 137.544087 
L 193.90291 137.317892 
L 193.784651 136.472986 
L 193.665993 137.006319 
L 193.575262 142.32745 
L 193.523311 141.659952 
L 193.510311 141.748656 
L 193.2624 129.315682 
L 193.458264 142.074644 
L 193.209985 131.127461 
L 193.196869 131.127461 
L 193.118071 128.539522 
L 193.091766 129.588447 
L 193.052272 135.17569 
L 192.973149 132.833904 
L 192.959945 132.390384 
L 192.893849 133.851783 
L 192.81437 133.12441 
L 192.787837 133.439309 
L 192.748001 137.537434 
L 192.694815 132.658714 
L 192.668192 128.130375 
L 192.588202 131.794959 
L 192.467875 137.385528 
L 192.427675 137.080608 
L 192.347137 138.517613 
L 192.32025 137.061759 
L 192.306798 136.923159 
L 192.293342 137.825722 
L 192.279881 137.83681 
L 192.077339 130.587476 
L 192.023131 135.155732 
L 191.955253 131.832658 
L 191.941661 130.87022 
L 191.900856 132.779573 
L 191.860004 137.537434 
L 191.819104 131.706255 
L 191.791811 132.55116 
L 191.764497 132.324965 
L 191.750832 132.138687 
L 191.709805 133.086711 
L 191.66873 139.628631 
L 191.600166 133.433765 
L 191.586437 132.860516 
L 191.517712 133.539101 
L 191.503951 134.217687 
L 191.462636 131.511106 
L 191.407473 130.812562 
L 191.393669 131.57209 
L 191.31073 134.1312 
L 191.269187 132.821708 
L 191.241465 133.367237 
L 191.185955 132.718589 
L 191.004941 129.651648 
L 190.990978 130.013117 
L 190.907086 134.073543 
L 190.879077 136.918724 
L 190.822993 132.041112 
L 190.794917 131.547696 
L 190.738699 132.349359 
L 190.668299 139.196199 
L 190.625992 143.707906 
L 190.569504 141.428213 
L 190.47043 132.664258 
L 190.413691 133.958228 
L 190.285694 136.649285 
L 190.271444 135.35088 
L 190.242925 132.75518 
L 190.157231 134.696688 
L 190.114305 136.83889 
L 190.071328 133.11554 
L 190.028297 130.072992 
L 189.970842 132.609927 
L 189.870069 137.205903 
L 189.841224 135.283244 
L 189.812355 133.434874 
L 189.769007 136.138128 
L 189.740079 139.506663 
L 189.667655 137.080608 
L 189.580548 135.703479 
L 189.609608 138.16945 
L 189.56601 136.436396 
L 189.536915 140.001188 
L 189.493227 135.561552 
L 189.420293 130.774863 
L 189.37646 132.00674 
L 189.273971 135.013805 
L 189.317931 130.947836 
L 189.244633 133.613391 
L 189.185885 130.125106 
L 189.112312 131.145202 
L 188.964703 136.704725 
L 188.949908 136.253444 
L 188.861008 130.957815 
L 188.757007 133.111104 
L 188.667618 135.608122 
L 188.622839 133.851783 
L 188.592954 132.723024 
L 188.563044 134.563632 
L 188.518131 132.941458 
L 188.503148 133.508055 
L 188.458159 131.302652 
L 188.398084 128.280063 
L 188.322846 129.4565 
L 188.156755 133.067861 
L 188.141617 132.530093 
L 187.989878 127.867589 
L 188.096164 134.283106 
L 187.944229 128.542848 
L 187.745729 134.093501 
L 187.699762 133.967098 
L 187.515293 130.043055 
L 187.499877 131.04541 
L 187.469024 132.731895 
L 187.407238 131.730648 
L 187.267822 129.641669 
L 187.252298 129.260242 
L 187.236766 130.376804 
L 187.205682 133.372781 
L 187.112266 131.780544 
L 187.081073 133.267445 
L 187.049851 131.513324 
L 186.893328 126.091292 
L 186.657233 138.568618 
L 186.625634 136.951988 
L 186.514813 133.183176 
L 186.498953 133.88172 
L 186.371815 137.877836 
L 186.339959 136.385391 
L 186.180244 131.910274 
L 186.164233 133.118866 
L 186.116155 131.179575 
L 186.084067 132.401472 
L 185.987627 130.618522 
L 185.971528 131.26717 
L 185.939308 132.690869 
L 185.923186 130.477704 
L 185.826304 127.182351 
L 185.810131 127.827672 
L 185.761568 127.514991 
L 185.305054 140.130917 
L 185.28864 140.953647 
L 185.255789 139.558776 
L 185.206455 134.914013 
L 185.14057 138.362381 
L 185.091074 135.888648 
L 184.958746 126.819773 
L 184.925586 129.241392 
L 184.84255 130.765992 
L 184.892395 128.609376 
L 184.825919 129.336749 
L 184.725969 125.178749 
L 184.675888 125.96378 
L 184.625735 129.198149 
L 184.575511 125.642228 
L 184.491645 128.304456 
L 184.323312 134.725517 
L 184.306434 134.069108 
L 184.255753 134.738823 
L 184.052295 128.305565 
L 184.035287 128.284498 
L 183.984214 126.611319 
L 183.916001 127.762253 
L 183.847656 129.537442 
L 183.659021 134.763216 
L 183.6074 133.55906 
L 183.572944 133.612282 
L 183.538453 131.818244 
L 183.521196 133.435983 
L 183.486655 138.045264 
L 183.400154 135.71124 
L 183.226514 131.782762 
L 183.191683 132.793988 
L 183.104455 134.403965 
L 183.156818 132.47798 
L 183.034516 133.310688 
L 182.999495 131.325936 
L 182.929348 133.136607 
L 182.911789 133.136607 
L 182.876646 132.775138 
L 182.841467 133.23529 
L 182.806254 133.566821 
L 182.611947 125.646663 
L 182.576503 126.299746 
L 182.469957 128.326632 
L 182.52327 125.98152 
L 182.452168 127.085885 
L 182.43437 126.686717 
L 182.398747 128.114852 
L 182.380922 127.859828 
L 182.291662 127.950749 
L 182.202175 126.267591 
L 182.09449 129.40106 
L 182.058521 128.326632 
L 181.896208 124.806192 
L 181.678622 131.002167 
L 181.660429 130.557538 
L 181.605793 131.390247 
L 181.551073 129.449847 
L 181.532814 130.602999 
L 181.496268 128.551719 
L 181.386401 125.306261 
L 181.441377 129.537442 
L 181.368056 126.038069 
L 181.276191 130.781516 
L 181.165635 128.71693 
L 181.073239 127.191221 
L 181.054731 127.884221 
L 181.017685 129.408821 
L 180.943477 129.112772 
L 180.813235 126.478263 
L 180.79459 126.948394 
L 180.775935 126.928436 
L 180.738595 125.948256 
L 180.701215 127.110279 
L 180.532515 129.231413 
L 180.400743 124.54008 
L 180.344118 125.0213 
L 180.325223 125.192055 
L 180.287402 124.815063 
L 180.230595 123.813816 
L 180.173696 124.340496 
L 180.135712 126.510418 
L 180.021515 133.302927 
L 179.983367 131.040975 
L 179.868674 127.91305 
L 179.77281 124.126498 
L 179.734392 125.142159 
L 179.657429 129.813533 
L 179.599597 128.885468 
L 179.483646 126.253176 
L 179.464284 124.160427 
L 179.444911 125.238846 
L 177.62102 122.978668 
L 177.435009 121.44298 
L 177.248012 117.803899 
L 176.680993 122.106043 
L 176.489941 121.500638 
L 176.297848 120.357465 
L 176.104703 120.423993 
L 175.910494 120.137923 
L 175.518835 123.215952 
L 175.321362 125.033275 
L 175.122776 125.826067 
L 174.923065 124.9357 
L 174.722215 125.015534 
L 174.520215 125.312692 
L 174.317051 125.921424 
L 174.112709 125.48123 
L 173.907175 125.548867 
L 173.700436 123.096201 
L 173.492477 124.071945 
L 173.283284 121.254484 
L 173.072842 121.352059 
L 172.861136 117.296068 
L 172.648151 117.752894 
L 172.433872 116.390179 
L 172.218281 118.409304 
L 172.001364 119.349566 
L 171.783104 120.93515 
L 171.342487 118.372713 
L 171.120095 118.72642 
L 170.671058 123.711585 
L 170.444376 123.096201 
L 170.216227 120.987264 
L 169.986592 120.734457 
L 169.75545 120.10355 
L 169.522784 120.493848 
L 169.288571 119.426073 
L 169.052791 120.857534 
L 168.815424 117.504523 
L 168.576447 116.336956 
L 168.335839 116.40792 
L 168.093577 116.738342 
L 167.849639 115.201545 
L 167.604001 110.564544 
L 167.356639 110.50356 
L 167.107529 111.031348 
L 166.856646 114.030652 
L 166.603965 115.292467 
L 166.349459 115.794753 
L 165.834867 110.979235 
L 165.574726 111.148881 
L 165.312651 115.250332 
L 165.048613 116.596416 
L 164.782582 115.774795 
L 164.514528 113.036059 
L 164.24442 113.785608 
L 163.972227 113.426356 
L 163.697915 113.939731 
L 163.421451 114.087201 
L 163.142802 115.174934 
L 162.861933 113.688033 
L 162.578807 113.909793 
L 161.715525 111.145555 
L 161.423001 110.506886 
L 161.12803 109.424697 
L 160.830569 107.526432 
L 160.530576 106.546252 
L 160.228008 108.208344 
L 159.922821 107.852419 
L 159.614968 108.453388 
L 159.304403 107.319086 
L 158.991077 108.224976 
L 158.674941 108.545419 
L 158.355944 110.778542 
L 158.034034 112.078056 
L 157.709157 111.379512 
L 157.05028 108.158448 
L 156.716164 110.267385 
L 156.378851 110.047843 
L 156.038279 110.043408 
L 155.694385 107.877921 
L 155.347102 108.48887 
L 154.996364 107.086238 
L 154.6421 106.680417 
L 154.28424 104.31202 
L 153.922709 104.64466 
L 153.557432 104.249928 
L 153.18833 105.623731 
L 152.438325 107.300236 
L 152.057252 106.573972 
L 151.282519 101.288323 
L 150.888673 100.825953 
L 150.490375 104.135721 
L 150.087526 106.5019 
L 149.68002 106.866696 
L 149.267747 104.479449 
L 148.850595 102.920476 
L 148.428447 103.635652 
L 148.001182 106.562884 
L 147.568675 107.157201 
L 147.130795 109.065446 
L 146.687406 106.070577 
L 146.238369 106.534056 
L 145.783538 102.243 
L 145.322761 101.380353 
L 144.855881 99.105096 
L 144.382734 98.357764 
L 143.90315 98.367744 
L 142.92395 101.646465 
L 142.423957 102.029001 
L 141.91677 100.341408 
L 141.402178 99.373425 
L 140.879962 98.749171 
L 140.349893 99.917846 
L 139.811731 100.135171 
L 139.265226 101.588808 
L 138.710113 101.98354 
L 138.146118 102.012369 
L 137.572952 101.608766 
L 136.990312 100.442308 
L 136.39788 102.235238 
L 135.182279 103.173283 
L 134.558388 102.872798 
L 133.923255 101.564414 
L 133.276468 101.749584 
L 132.617591 99.846883 
L 130.563675 95.933928 
L 129.851551 96.947371 
L 129.124743 97.441896 
L 128.382633 96.75444 
L 127.624563 95.533651 
L 126.84983 93.706348 
L 125.247331 92.18951 
L 124.417906 94.238572 
L 123.568493 95.346264 
L 122.698105 98.804611 
L 121.80568 97.84439 
L 120.890072 97.628174 
L 119.950045 95.110089 
L 118.984261 94.715356 
L 117.991268 97.189089 
L 116.969489 98.116046 
L 115.917204 96.80988 
L 114.832536 93.992419 
L 113.713429 92.018755 
L 112.557623 90.652713 
L 111.36263 88.500532 
L 110.125699 87.956112 
L 108.843779 89.37094 
L 107.513473 91.612934 
L 106.130985 91.518686 
L 104.692054 92.16179 
L 103.191874 91.833585 
L 101.624997 90.719241 
L 99.985217 90.810163 
L 98.265416 91.689441 
L 98.08873 93.028872 
L 97.732677 90.993115 
L 97.372991 93.574401 
L 97.191762 93.480153 
L 96.826485 90.710371 
L 96.457383 93.322704 
L 96.271373 93.144187 
L 95.896381 90.17482 
L 95.517356 93.463521 
L 95.326305 93.466848 
L 94.941067 90.1848 
L 94.551572 93.690825 
L 94.355199 92.698449 
L 93.959139 87.907324 
L 93.558579 89.30663 
L 93.153415 87.277526 
L 92.949072 87.591316 
L 92.5368 90.248001 
L 92.119648 87.719937 
L 91.909206 89.988542 
L 91.484515 97.053816 
L 90.837728 87.474892 
L 90.399847 90.357772 
L 89.956459 89.721321 
L 89.732655 90.293462 
L 89.507422 91.183828 
L 89.28074 91.173849 
L 88.822955 89.373158 
L 88.359147 92.366918 
L 88.124934 93.155275 
L 87.651787 91.738228 
L 86.929941 94.930464 
L 86.440365 93.863798 
L 85.943893 98.365526 
L 85.69301 96.921868 
L 85.185823 89.532825 
L 84.671231 91.92118 
L 84.41109 92.362483 
L 83.884977 90.856732 
L 83.350892 93.486806 
L 83.080784 92.93795 
L 82.80859 91.074057 
L 82.534278 90.433171 
L 81.979166 92.879184 
L 81.415171 88.548211 
L 81.129753 88.137955 
L 80.551889 91.648416 
L 79.964393 88.903027 
L 79.666932 88.492771 
L 79.064372 90.417648 
L 78.451332 89.818896 
L 77.511305 95.670033 
L 76.935016 95.670033 
L 76.740806 90.793531 
L 76.118654 90.793531 
L 75.919881 98.364417 
L 75.316748 98.364417 
L 75.113389 92.223883 
L 74.496174 92.223883 
L 74.28801 95.586873 
L 73.832727 95.586873 
L 73.832727 95.586873 
" clip-path="url(#pe461659f0e)" style="fill: none; stroke: #008000; stroke-width: 1.5; stroke-linecap: square"/>
   </g>
   <g id="patch_3">
    <path d="M 57.6 307.584 
L 57.6 41.472 
" style="fill: none; stroke: #000000; stroke-width: 0.8; stroke-linejoin: miter; stroke-linecap: square"/>
   </g>
   <g id="patch_4">
    <path d="M 414.72 307.584 
L 414.72 41.472 
" style="fill: none; stroke: #000000; stroke-width: 0.8; stroke-linejoin: miter; stroke-linecap: square"/>
   </g>
   <g id="patch_5">
    <path d="M 57.6 307.584 
L 414.72 307.584 
" style="fill: none; stroke: #000000; stroke-width: 0.8; stroke-linejoin: miter; stroke-linecap: square"/>
   </g>
   <g id="patch_6">
    <path d="M 57.6 41.472 
L 414.72 41.472 
" style="fill: none; stroke: #000000; stroke-width: 0.8; stroke-linejoin: miter; stroke-linecap: square"/>
   </g>
   <g id="text_17">
    <!-- PLL 1 frac/int -->
    <g transform="translate(196.827188 35.472)scale(0.12 -0.12)">
     <defs>
      <path id="DejaVuSans-4c" d="M 628 4666 
L 1259 4666 
L 1259 531 
L 3531 531 
L 3531 0 
L 628 0 
L 628 4666 
z
" transform="scale(0.015625)"/>
      <path id="DejaVuSans-66" d="M 2375 4863 
L 2375 4384 
L 1825 4384 
Q 1516 4384 1395 4259 
Q 1275 4134 1275 3809 
L 1275 3500 
L 2222 3500 
L 2222 3053 
L 1275 3053 
L 1275 0 
L 697 0 
L 697 3053 
L 147 3053 
L 147 3500 
L 697 3500 
L 697 3744 
Q 697 4328 969 4595 
Q 1241 4863 1831 4863 
L 2375 4863 
z
" transform="scale(0.015625)"/>
      <path id="DejaVuSans-74" d="M 1172 4494 
L 1172 3500 
L 2356 3500 
L 2356 3053 
L 1172 3053 
L 1172 1153 
Q 1172 725 1289 603 
Q 1406 481 1766 481 
L 2356 481 
L 2356 0 
L 1766 0 
Q 1100 0 847 248 
Q 594 497 594 1153 
L 594 3053 
L 172 3053 
L 172 3500 
L 594 3500 
L 594 4494 
L 1172 4494 
z
" transform="scale(0.015625)"/>
     </defs>
     <use xlink:href="#DejaVuSans-50"/>
     <use xlink:href="#DejaVuSans-4c" x="60.302734"/>
     <use xlink:href="#DejaVuSans-4c" x="116.015625"/>
     <use xlink:href="#DejaVuSans-20" x="171.728516"/>
     <use xlink:href="#DejaVuSans-31" x="203.515625"/>
     <use xlink:href="#DejaVuSans-20" x="267.138672"/>
     <use xlink:href="#DejaVuSans-66" x="298.925781"/>
     <use xlink:href="#DejaVuSans-72" x="334.130859"/>
     <use xlink:href="#DejaVuSans-61" x="375.244141"/>
     <use xlink:href="#DejaVuSans-63" x="436.523438"/>
     <use xlink:href="#DejaVuSans-2f" x="491.503906"/>
     <use xlink:href="#DejaVuSans-69" x="525.195312"/>
     <use xlink:href="#DejaVuSans-6e" x="552.978516"/>
     <use xlink:href="#DejaVuSans-74" x="616.357422"/>
    </g>
   </g>
   <g id="legend_1">
    <g id="patch_7">
     <path d="M 353.284063 78.82825 
L 407.72 78.82825 
Q 409.72 78.82825 409.72 76.82825 
L 409.72 48.472 
Q 409.72 46.472 407.72 46.472 
L 353.284063 46.472 
Q 351.284063 46.472 351.284063 48.472 
L 351.284063 76.82825 
Q 351.284063 78.82825 353.284063 78.82825 
z
" style="fill: #ffffff; opacity: 0.8; stroke: #cccccc; stroke-linejoin: miter"/>
    </g>
    <g id="line2d_52">
     <path d="M 355.284063 54.570437 
L 365.284063 54.570437 
L 375.284063 54.570437 
" style="fill: none; stroke: #ff0000; stroke-width: 1.5; stroke-linecap: square"/>
    </g>
    <g id="text_18">
     <!-- int. -->
     <g transform="translate(383.284063 58.070437)scale(0.1 -0.1)">
      <defs>
       <path id="DejaVuSans-2e" d="M 684 794 
L 1344 794 
L 1344 0 
L 684 0 
L 684 794 
z
" transform="scale(0.015625)"/>
      </defs>
      <use xlink:href="#DejaVuSans-69"/>
      <use xlink:href="#DejaVuSans-6e" x="27.783203"/>
      <use xlink:href="#DejaVuSans-74" x="91.162109"/>
      <use xlink:href="#DejaVuSans-2e" x="130.371094"/>
     </g>
    </g>
    <g id="line2d_53">
     <path d="M 355.284063 69.248562 
L 365.284063 69.248562 
L 375.284063 69.248562 
" style="fill: none; stroke: #008000; stroke-width: 1.5; stroke-linecap: square"/>
    </g>
    <g id="text_19">
     <!-- frac. -->
     <g transform="translate(383.284063 72.748562)scale(0.1 -0.1)">
      <use xlink:href="#DejaVuSans-66"/>
      <use xlink:href="#DejaVuSans-72" x="35.205078"/>
      <use xlink:href="#DejaVuSans-61" x="76.318359"/>
      <use xlink:href="#DejaVuSans-63" x="137.597656"/>
      <use xlink:href="#DejaVuSans-2e" x="192.578125"/>
     </g>
    </g>
   </g>
  </g>
 </g>
 <defs>
  <clipPath id="pe461659f0e">
   <rect x="57.6" y="41.472" width="357.12" height="266.112"/>
  </clipPath>
 </defs>
</svg>
