; Drill file
; Format: 2.4 (00.0000)
M48
INCH
T01C0.0118
T02C0.0157
%
G05
G90
T01
X000460Y031750
X000320Y032010
X000320Y032340
X000320Y032740
X000320Y033130
X000320Y033520
X000320Y033920
X000320Y034310
X000320Y034710
X000320Y035100
X000320Y035490
X000320Y035890
X000320Y036280
X000320Y036670
X000320Y037070
X000320Y037460
X000320Y037850
X000320Y038250
X000320Y038640
X000320Y038980
X000660Y039040
X001050Y039040
X001450Y039040
X001840Y039040
X002230Y039040
X002630Y039040
X003020Y039040
X003410Y039040
X003810Y039040
X004200Y039040
X004600Y039040
X004990Y039040
X005380Y039040
X005780Y039040
X006170Y039040
X006560Y039040
X006960Y039040
X007350Y039040
X007750Y039040
X008140Y039040
X008530Y039040
X008930Y039040
X009320Y039040
X009710Y039040
X010110Y039040
X010500Y039040
X010890Y039040
X011290Y039040
X011680Y039040
X012080Y039040
X012470Y039040
X012860Y039040
X013260Y039040
X013650Y039040
X014040Y039040
X014440Y039040
X014830Y039040
X015230Y039040
X015620Y039040
X016010Y039040
X016240Y038720
X016520Y038720
X016410Y039040
X016800Y039040
X017190Y039040
X017590Y039040
X017980Y039040
X018380Y039040
X018770Y039040
X019160Y039040
X019560Y039040
X019950Y039040
X020340Y039040
X020740Y039040
X021130Y039040
X021520Y039040
X021920Y039040
X022310Y039040
X022710Y039040
X023100Y039040
X023370Y039040
X023370Y038650
X023370Y038250
X023440Y038020
X023310Y037820
X023190Y038040
X022950Y038050
X022700Y038030
X022580Y037820
X022430Y038000
X022340Y037780
X022190Y037970
X021990Y037840
X021910Y037610
X022140Y037650
X021740Y037780
X021680Y037550
X021450Y037470
X021490Y037710
X021250Y037600
X021230Y037360
X021030Y037240
X021020Y037480
X020810Y037340
X020830Y037100
X020650Y036940
X020420Y037000
X020480Y036770
X020330Y036580
X020200Y036380
X020100Y036170
X020010Y035950
X019910Y035730
X019760Y035540
X019590Y035380
X019380Y035270
X019640Y034810
X019780Y034620
X019990Y034520
X020200Y034390
X020250Y034620
X020460Y034500
X020660Y034400
X020880Y034300
X020830Y034060
X020610Y034160
X020400Y034270
X020210Y033770
X020220Y033530
X020430Y033660
X020650Y033570
X020870Y033480
X020680Y033330
X020910Y033250
X021140Y033170
X021370Y033110
X021600Y033060
X021560Y033290
X021330Y033340
X021090Y033410
X021280Y033900
X021510Y033850
X021580Y034080
X021810Y034030
X021740Y033800
X021980Y033770
X022220Y033760
X022290Y033990
X022050Y034000
X022120Y034380
X022350Y034710
X022590Y034340
X022680Y034110
X022920Y034110
X022990Y033880
X022750Y033880
X022520Y033880
X023160Y034110
X023230Y033880
X023470Y033880
X023400Y034110
X023380Y034350
X023380Y034610
X023380Y034850
X023380Y035130
X023380Y035400
X023380Y035680
X023380Y035960
X023380Y036230
X023360Y036510
X023280Y036750
X023360Y036980
X023110Y036980
X023030Y036760
X022790Y036750
X022870Y036980
X022620Y036980
X022380Y036990
X022190Y037120
X022120Y036890
X022320Y036760
X022550Y036750
X022360Y036270
X022830Y036270
X022830Y035760
X022360Y035760
X021850Y035760
X021850Y036270
X021490Y036200
X021270Y036480
X021460Y036620
X021300Y036790
X021500Y036910
X021720Y037010
X021950Y037080
X021890Y036840
X021670Y036740
X021110Y036650
X020930Y036480
X020780Y036300
X020950Y036120
X021100Y036310
X020810Y035920
X020710Y035700
X020550Y035880
X020650Y036090
X020460Y035650
X020630Y035480
X020520Y035270
X020350Y035440
X020210Y035250
X020380Y035070
X020210Y034900
X020040Y035070
X019850Y034930
X020020Y034750
X019410Y034720
X019330Y034200
X019560Y034120
X019590Y033880
X019420Y033720
X019420Y033480
X019650Y033570
X019790Y033760
X020000Y033650
X019990Y033890
X019780Y034020
X019230Y033870
X019120Y034090
X018880Y034090
X018650Y034090
X018410Y034090
X018870Y033850
X019680Y033330
X019980Y033330
X020200Y033200
X020190Y032940
X020100Y032700
X019860Y032700
X019620Y032660
X019410Y032560
X019170Y032560
X019480Y032190
X019560Y031750
X019160Y031750
X018770Y031750
X018540Y032030
X018290Y032040
X018030Y032040
X017780Y032040
X017530Y032110
X017310Y032240
X017070Y032220
X017040Y032460
X016840Y032330
X016640Y032200
X016400Y032210
X016400Y031970
X016170Y031950
X015930Y031950
X015930Y031690
X016170Y031710
X016410Y031730
X016640Y031960
X016800Y031750
X016970Y031930
X017190Y031750
X017590Y031750
X017980Y031750
X018380Y031750
X017520Y032470
X017280Y032480
X016540Y032580
X016070Y032570
X016160Y032190
X015930Y032200
X016290Y032990
X016300Y033370
X016220Y034750
X016220Y034980
X016220Y035220
X016220Y035460
X016220Y035690
X016220Y035930
X015990Y035930
X015750Y035930
X015510Y035930
X015510Y035690
X015750Y035690
X015990Y035690
X015990Y035460
X015750Y035460
X015510Y035460
X015510Y035220
X015750Y035220
X015990Y035220
X015990Y034980
X015750Y034980
X015510Y034980
X015510Y034750
X015750Y034750
X015990Y034750
X016460Y034750
X016460Y034980
X016460Y035220
X016460Y035460
X016460Y035690
X016460Y035930
X016690Y035930
X016690Y035690
X016690Y035460
X016690Y035220
X016690Y034980
X016690Y034750
X017810Y035990
X018030Y036190
X019130Y036260
X019130Y036030
X019130Y036500
X019360Y036490
X019500Y036700
X019500Y036940
X019500Y037190
X019420Y037410
X019420Y037650
X019380Y037880
X019160Y037990
X018920Y037980
X018680Y037980
X018450Y037980
X018210Y037980
X017970Y037940
X018360Y038280
X018420Y038550
X018680Y038550
X018700Y038270
X019050Y038550
X019380Y038280
X019660Y038000
X019750Y037680
X019750Y037380
X020120Y037260
X019790Y036940
X019760Y036580
X019590Y036390
X019960Y036370
X019860Y036140
X020090Y036590
X020240Y036810
X020600Y037180
X020620Y037720
X020700Y038120
X020210Y038170
X020130Y037770
X019760Y038510
X020550Y038590
X021100Y038550
X021570Y038440
X021870Y038120
X022080Y038530
X022480Y038470
X022930Y038480
X022820Y037820
X023060Y037820
X021280Y038050
X021330Y035760
X021290Y035250
X020960Y035110
X020670Y034800
X021290Y034700
X021570Y034420
X021340Y034140
X021110Y034210
X021050Y033980
X020460Y033420
X020520Y033000
X020560Y032760
X020380Y032450
X020590Y032180
X020740Y031750
X020340Y031750
X019950Y031750
X019980Y032190
X021120Y032200
X021130Y031750
X021520Y031750
X021920Y031750
X022310Y031750
X022710Y031750
X023100Y031750
X023370Y031770
X023370Y032170
X023370Y032560
X023310Y032840
X023190Y033040
X023430Y033050
X023070Y032830
X022950Y033040
X022830Y032840
X022710Y033040
X022470Y033050
X022250Y033140
X022030Y033220
X022070Y032980
X021830Y033020
X021790Y033250
X022290Y032900
X022580Y032840
X022650Y032530
X022830Y032210
X022230Y032210
X022070Y032570
X021660Y032230
X021480Y032640
X021030Y032830
X021850Y034700
X021850Y035250
X022360Y035250
X022830Y035250
X022830Y034700
X023030Y034340
X016500Y038060
X016220Y038060
X014370Y037910
X014370Y037670
X014330Y038150
X014210Y038380
X014290Y038620
X014010Y038620
X013460Y037870
X013460Y037500
X013340Y037200
X013340Y036930
X013070Y036930
X013070Y037200
X012710Y037560
X012670Y037870
X012360Y037870
X012360Y037590
X012440Y037360
X012240Y037200
X012160Y036930
X012400Y036930
X011610Y036740
X011530Y036960
X011530Y037200
X011220Y037200
X010900Y037200
X010780Y036960
X010780Y036690
X010740Y036450
X010570Y036280
X010460Y036060
X010250Y036180
X010010Y036180
X009780Y036180
X009520Y036180
X009260Y036180
X009030Y036180
X008790Y036180
X008510Y036180
X008250Y036180
X008550Y037140
X008610Y037390
X008470Y037610
X008470Y037860
X008460Y038130
X008470Y038380
X008470Y038630
X008140Y038260
X008150Y037910
X008150Y037480
X008260Y037200
X007890Y037260
X007480Y037260
X007080Y037260
X006640Y037200
X006640Y036760
X006640Y036390
X006510Y036170
X006640Y035950
X006640Y035570
X006640Y035320
X006640Y035010
X006640Y034570
X006640Y034140
X006640Y033730
X007020Y033590
X007390Y033590
X007770Y033590
X008070Y033420
X008300Y033190
X008500Y032950
X008660Y032670
X008990Y032670
X009260Y032670
X009520Y032760
X009770Y032680
X010070Y032680
X010360Y032700
X010530Y032520
X010690Y032350
X010870Y032180
X011040Y032010
X011280Y031940
X011090Y031750
X010700Y031750
X010300Y031750
X009910Y031750
X009520Y031750
X009120Y031750
X008730Y031750
X008340Y031750
X007940Y031750
X007550Y031750
X007150Y031750
X006760Y031750
X006370Y031750
X005970Y031750
X005580Y031750
X005190Y031750
X004790Y031750
X004400Y031750
X004010Y031750
X003610Y031750
X003220Y031750
X002820Y031750
X002430Y031750
X002040Y031750
X001640Y031750
X001250Y031750
X000860Y031750
X001020Y032320
X002210Y032320
X001770Y033320
X001210Y034390
X001460Y035450
X002460Y034700
X003210Y036010
X004140Y035390
X004080Y034260
X003390Y033390
X003520Y032320
X004830Y032320
X004710Y033200
X005740Y033190
X005890Y032320
X006640Y033070
X006960Y032140
X007390Y032140
X007770Y032140
X008080Y032140
X008270Y032320
X008520Y032140
X009060Y032260
X009900Y032250
X009520Y033200
X009520Y033610
X009520Y034020
X009520Y034430
X009520Y034840
X009520Y035270
X009520Y035670
X010480Y035820
X010680Y035680
X010710Y035450
X010720Y035210
X010970Y035390
X011250Y035390
X011540Y035390
X011580Y035620
X011580Y035860
X011570Y036100
X011330Y036100
X011100Y036220
X011100Y036490
X011100Y036730
X011330Y036770
X010840Y036100
X011000Y035780
X011330Y035680
X011450Y034410
X011100Y034400
X010940Y033500
X011260Y033500
X011220Y033220
X011450Y033030
X011680Y032920
X011930Y032920
X012130Y033090
X012370Y033080
X012560Y033230
X012810Y033230
X012800Y033500
X012510Y033500
X012200Y033500
X011890Y033500
X011960Y033260
X011710Y033210
X011570Y033500
X013090Y033230
X013150Y033470
X013530Y032080
X013790Y032080
X014040Y032070
X014290Y032080
X014540Y032080
X014770Y032020
X014770Y032260
X014770Y032490
X014770Y031780
X014510Y031730
X014210Y031750
X013850Y031750
X013450Y031750
X013260Y031960
X013060Y031750
X012860Y031960
X012670Y031750
X012450Y031960
X012270Y031750
X012080Y031960
X011880Y031750
X011680Y031960
X011490Y031750
X008020Y032570
X005460Y034320
X005780Y035070
X005430Y036180
X004960Y037070
X005860Y037520
X006650Y037910
X006640Y038570
X007140Y038570
X007580Y038570
X007960Y038570
X007440Y038030
X008850Y037280
X009170Y037280
X009520Y037090
X009520Y036690
X013200Y036660
X013190Y036420
X014730Y033380
X005890Y038510
X004830Y038510
X003520Y038510
X003020Y037390
X002210Y038510
X000890Y038510
X001520Y037390
T02
X010330Y036690
X013240Y035670
X013580Y034780
X014640Y034300
X015020Y036600
X015310Y037590
X013590Y038350
X017890Y038380
X017650Y036430
X018440Y035410
X017350Y033980
M30
