%FSLAX34Y34*%
%MOMM*%
%LNSILK_TOP*%
G71*
G01*
%ADD10C,0.150*%
%ADD11C,0.222*%
%ADD12C,0.178*%
%ADD13C,0.200*%
%ADD14C,0.700*%
%LPD*%
G54D10*
X470722Y930182D02*
X470722Y910856D01*
G54D10*
X462647Y930182D02*
X462647Y910856D01*
G54D10*
X470722Y930182D02*
X462647Y930182D01*
G54D10*
X470722Y910856D02*
X462647Y910856D01*
G54D10*
X480817Y930192D02*
X480817Y910866D01*
G54D10*
X472742Y930191D02*
X472742Y910866D01*
G54D10*
X480817Y930192D02*
X472742Y930191D01*
G54D10*
X480817Y910866D02*
X472742Y910866D01*
G54D10*
X484463Y871912D02*
X465138Y871912D01*
G54D10*
X484463Y879988D02*
X465138Y879988D01*
G54D10*
X484463Y871912D02*
X484463Y879988D01*
G54D10*
X465138Y871912D02*
X465138Y879988D01*
G54D10*
X484463Y882912D02*
X465138Y882912D01*
G54D10*
X484462Y890988D02*
X465138Y890988D01*
G54D10*
X484463Y882912D02*
X484462Y890988D01*
G54D10*
X465138Y882912D02*
X465138Y890988D01*
G54D10*
X462850Y847112D02*
X462850Y858088D01*
X491150Y858088D01*
X491150Y847113D01*
X462850Y847112D01*
G54D10*
X409330Y969716D02*
X409330Y980692D01*
X437630Y980692D01*
X437630Y969716D01*
X409330Y969716D01*
G54D10*
X480731Y833116D02*
X480731Y844091D01*
X509031Y844091D01*
X509031Y833116D01*
X480731Y833116D01*
G54D10*
X300330Y906916D02*
X300330Y917891D01*
X328630Y917891D01*
X328630Y906916D01*
X300330Y906916D01*
G54D10*
X300229Y893916D02*
X300229Y904891D01*
X328530Y904891D01*
X328529Y893916D01*
X300229Y893916D01*
G54D10*
X317592Y948154D02*
X328568Y948154D01*
X328567Y919854D01*
X317592Y919854D01*
X317592Y948154D01*
G54D10*
X283930Y920316D02*
X283930Y931292D01*
X312230Y931291D01*
X312230Y920316D01*
X283930Y920316D01*
G54D10*
X294730Y880917D02*
X294730Y891892D01*
X323030Y891892D01*
X323030Y880917D01*
X294730Y880917D01*
G54D10*
X264030Y881017D02*
X264030Y891992D01*
X292330Y891992D01*
X292330Y881017D01*
X264030Y881017D01*
G54D10*
X294730Y867917D02*
X294730Y878892D01*
X323030Y878892D01*
X323030Y867917D01*
X294730Y867917D01*
G54D10*
X333076Y837944D02*
X333076Y826969D01*
X304776Y826969D01*
X304776Y837944D01*
X333076Y837944D01*
G54D10*
X367492Y833777D02*
X381157Y847442D01*
G54D10*
X373202Y828067D02*
X386867Y841732D01*
G54D10*
X367492Y833777D02*
X373202Y828067D01*
G54D10*
X381157Y847442D02*
X386867Y841732D01*
G54D10*
X390093Y831895D02*
X390093Y851220D01*
G54D10*
X398168Y831895D02*
X398168Y851220D01*
G54D10*
X390093Y831895D02*
X398168Y831895D01*
G54D10*
X390093Y851220D02*
X398168Y851220D01*
G54D10*
X219150Y967112D02*
X219150Y978088D01*
X247450Y978088D01*
X247450Y967112D01*
X219150Y967112D01*
G54D10*
X483467Y894190D02*
X475706Y901951D01*
X495718Y921962D01*
X503478Y914201D01*
X483467Y894190D01*
G54D10*
X250500Y980000D02*
X292735Y979999D01*
X292725Y950625D01*
X250500Y951000D01*
X250500Y980000D01*
G54D10*
X296150Y968512D02*
X296150Y979488D01*
X324450Y979488D01*
X324450Y968512D01*
X296150Y968512D01*
G54D11*
X22000Y821833D02*
X23333Y819611D01*
X26000Y818500D01*
X28667Y818500D01*
X31333Y819611D01*
X32667Y821833D01*
X32667Y824056D01*
X31333Y826278D01*
X28667Y827389D01*
X26000Y827389D01*
X23333Y828500D01*
X22000Y830722D01*
X22000Y832944D01*
X23333Y835167D01*
X26000Y836278D01*
X28667Y836278D01*
X31333Y835167D01*
X32667Y832944D01*
G54D11*
X42889Y818500D02*
X42889Y836278D01*
G54D11*
X37556Y836278D02*
X48223Y836278D01*
G54D11*
X61112Y828500D02*
X61112Y818500D01*
G54D11*
X61112Y820722D02*
X59779Y818944D01*
X57112Y818500D01*
X54445Y818944D01*
X53112Y820722D01*
X53112Y828500D01*
G54D11*
X72668Y827389D02*
X70001Y827389D01*
X67334Y828500D01*
X66001Y830722D01*
X66001Y832944D01*
X67334Y835167D01*
X70001Y836278D01*
X72668Y836278D01*
X75334Y835167D01*
X76668Y832944D01*
X76668Y830722D01*
X75334Y828500D01*
X72668Y827389D01*
X75334Y826278D01*
X76668Y824056D01*
X76668Y821833D01*
X75334Y819611D01*
X72668Y818500D01*
X70001Y818500D01*
X67334Y819611D01*
X66001Y821833D01*
X66001Y824056D01*
X67334Y826278D01*
X70001Y827389D01*
G54D11*
X81557Y829611D02*
X88224Y836278D01*
X88224Y818500D01*
G54D11*
X93113Y832944D02*
X94446Y835167D01*
X97113Y836278D01*
X99780Y836278D01*
X102446Y835167D01*
X103780Y832944D01*
X103780Y830722D01*
X102446Y828500D01*
X99780Y827389D01*
X102446Y826278D01*
X103780Y824056D01*
X103780Y821833D01*
X102446Y819611D01*
X99780Y818500D01*
X97113Y818500D01*
X94446Y819611D01*
X93113Y821833D01*
G54D11*
X119336Y832944D02*
X119336Y821833D01*
X118002Y819611D01*
X115336Y818500D01*
X112669Y818500D01*
X110002Y819611D01*
X108669Y821833D01*
X108669Y832944D01*
X110002Y835167D01*
X112669Y836278D01*
X115336Y836278D01*
X118002Y835167D01*
X119336Y832944D01*
G54D11*
X134892Y832944D02*
X134892Y821833D01*
X133558Y819611D01*
X130892Y818500D01*
X128225Y818500D01*
X125558Y819611D01*
X124225Y821833D01*
X124225Y832944D01*
X125558Y835167D01*
X128225Y836278D01*
X130892Y836278D01*
X133558Y835167D01*
X134892Y832944D01*
G54D11*
X144937Y828500D02*
X150270Y818500D01*
X155604Y828500D01*
G54D11*
X160493Y832944D02*
X161826Y835167D01*
X164493Y836278D01*
X167160Y836278D01*
X169826Y835167D01*
X171160Y832944D01*
X171160Y830722D01*
X169826Y828500D01*
X167160Y827389D01*
X169826Y826278D01*
X171160Y824056D01*
X171160Y821833D01*
X169826Y819611D01*
X167160Y818500D01*
X164493Y818500D01*
X161826Y819611D01*
X160493Y821833D01*
G54D10*
X365230Y969616D02*
X365230Y980592D01*
X393530Y980592D01*
X393530Y969616D01*
X365230Y969616D01*
G54D10*
X341992Y948154D02*
X352967Y948154D01*
X352967Y919854D01*
X341992Y919854D01*
X341992Y948154D01*
G54D11*
X22000Y961682D02*
X22000Y979460D01*
X28667Y979460D01*
X31333Y978348D01*
X32667Y976126D01*
X32667Y973904D01*
X31333Y971682D01*
X28667Y970571D01*
X22000Y970571D01*
G54D11*
X37556Y979460D02*
X37556Y961682D01*
X46889Y961682D01*
G54D11*
X51778Y979460D02*
X51778Y961682D01*
X61111Y961682D01*
G54D11*
X71156Y979460D02*
X77823Y961682D01*
X84489Y979460D01*
G54D11*
X100045Y965015D02*
X98711Y962793D01*
X96045Y961682D01*
X93378Y961682D01*
X90711Y962793D01*
X89378Y965015D01*
X89378Y976126D01*
X90711Y978348D01*
X93378Y979460D01*
X96045Y979460D01*
X98711Y978348D01*
X100045Y976126D01*
G54D11*
X115601Y976126D02*
X115601Y965015D01*
X114267Y962793D01*
X111601Y961682D01*
X108934Y961682D01*
X106267Y962793D01*
X104934Y965015D01*
X104934Y976126D01*
X106267Y978348D01*
X108934Y979460D01*
X111601Y979460D01*
X114267Y978348D01*
X115601Y976126D01*
G54D11*
X125646Y972793D02*
X132313Y979460D01*
X132313Y961682D01*
G54D11*
X137202Y969460D02*
X147869Y969460D01*
G54D11*
X163425Y961682D02*
X152758Y961682D01*
X152758Y962793D01*
X154091Y965015D01*
X162091Y971682D01*
X163425Y973904D01*
X163425Y976126D01*
X162091Y978348D01*
X159425Y979460D01*
X156758Y979460D01*
X154091Y978348D01*
X152758Y976126D01*
G54D12*
X216517Y826111D02*
X219717Y824333D01*
X220783Y822556D01*
X220783Y819000D01*
G54D12*
X212250Y819000D02*
X212250Y833222D01*
X217583Y833222D01*
X219717Y832333D01*
X220783Y830556D01*
X220783Y828778D01*
X219717Y827000D01*
X217583Y826111D01*
X212250Y826111D01*
G54D12*
X232161Y819000D02*
X224694Y819000D01*
X224694Y833222D01*
X232161Y833222D01*
G54D12*
X224694Y826111D02*
X232161Y826111D01*
G54D12*
X236072Y819000D02*
X236072Y833222D01*
X243539Y833222D01*
G54D12*
X236072Y826111D02*
X243539Y826111D01*
G54D12*
X247450Y819000D02*
X258117Y819000D01*
G54D12*
X270561Y821667D02*
X269495Y819889D01*
X267361Y819000D01*
X265228Y819000D01*
X263095Y819889D01*
X262028Y821667D01*
X262028Y830556D01*
X263095Y832333D01*
X265228Y833222D01*
X267361Y833222D01*
X269495Y832333D01*
X270561Y830556D01*
G54D12*
X274472Y833222D02*
X274472Y819000D01*
X281939Y819000D01*
G54D12*
X285850Y819000D02*
X285850Y833222D01*
G54D12*
X285850Y823444D02*
X294383Y833222D01*
G54D12*
X289050Y826111D02*
X294383Y819000D01*
G54D13*
X299750Y821250D02*
X371856Y822271D01*
G54D12*
X579873Y870008D02*
X565651Y870008D01*
X574540Y863608D01*
X576318Y863608D01*
X576318Y872141D01*
G54D12*
X573651Y876052D02*
X573651Y884585D01*
G54D12*
X572762Y893829D02*
X572762Y891696D01*
X571873Y889562D01*
X570095Y888496D01*
X568318Y888496D01*
X566540Y889562D01*
X565651Y891696D01*
X565651Y893829D01*
X566540Y895962D01*
X568318Y897029D01*
X570095Y897029D01*
X571873Y895962D01*
X572762Y893829D01*
X573651Y895962D01*
X575429Y897029D01*
X577207Y897029D01*
X578984Y895962D01*
X579873Y893829D01*
X579873Y891696D01*
X578984Y889562D01*
X577207Y888496D01*
X575429Y888496D01*
X573651Y889562D01*
X572762Y891696D01*
G54D12*
X572762Y909330D02*
X572762Y913597D01*
X577207Y913597D01*
X578984Y912530D01*
X579873Y910397D01*
X579873Y908264D01*
X578984Y906130D01*
X577207Y905064D01*
X568318Y905064D01*
X566540Y906130D01*
X565651Y908264D01*
X565651Y910397D01*
X566540Y912530D01*
X568318Y913597D01*
G54D12*
X579873Y917508D02*
X565651Y917508D01*
G54D12*
X579873Y926041D02*
X565651Y926041D01*
G54D12*
X572762Y917508D02*
X572762Y926041D01*
G54D12*
X571873Y929952D02*
X571873Y936352D01*
X579873Y929952D01*
X579873Y936352D01*
G54D10*
X354992Y948154D02*
X365967Y948154D01*
X365967Y919854D01*
X354992Y919854D01*
X354992Y948154D01*
G54D14*
G75*
G01X442660Y930108D02*
G03X442660Y930108I-1500J0D01*
G01*
G54D10*
X369833Y936660D02*
X447998Y936660D01*
X447998Y857394D01*
X369833Y857394D01*
X369833Y936660D01*
G54D10*
X419530Y939116D02*
X419530Y950092D01*
X447830Y950092D01*
X447830Y939116D01*
X419530Y939116D01*
G54D10*
X409330Y952016D02*
X409330Y962992D01*
X437630Y962992D01*
X437630Y952016D01*
X409330Y952016D01*
G54D10*
X450188Y951850D02*
X439212Y951850D01*
X439212Y980150D01*
X450188Y980150D01*
X450188Y951850D01*
G54D10*
X382530Y939216D02*
X382530Y950192D01*
X410830Y950192D01*
X410830Y939216D01*
X382530Y939216D01*
G54D10*
X394492Y980854D02*
X405468Y980854D01*
X405468Y952554D01*
X394492Y952554D01*
X394492Y980854D01*
G54D10*
X338630Y900716D02*
X338630Y911692D01*
X366930Y911692D01*
X366930Y900716D01*
X338630Y900716D01*
G54D10*
X369392Y967654D02*
X380368Y967654D01*
X380368Y939354D01*
X369392Y939354D01*
X369392Y967654D01*
G54D10*
X465903Y961075D02*
X476878Y961075D01*
X476878Y932775D01*
X465903Y932775D01*
X465903Y961075D01*
G54D10*
X478403Y961075D02*
X489378Y961075D01*
X489378Y932775D01*
X478403Y932775D01*
X478403Y961075D01*
G54D10*
X452303Y961075D02*
X463278Y961075D01*
X463278Y932775D01*
X452303Y932775D01*
X452303Y961075D01*
G54D10*
X461188Y846850D02*
X450212Y846850D01*
X450212Y875150D01*
X461188Y875150D01*
X461188Y846850D01*
G54D10*
X479250Y844088D02*
X479250Y833112D01*
X450951Y833112D01*
X450950Y844087D01*
X479250Y844088D01*
G54D10*
X435868Y827354D02*
X424892Y827354D01*
X424892Y855654D01*
X435868Y855654D01*
X435868Y827354D01*
G54D10*
X448568Y827354D02*
X437592Y827354D01*
X437592Y855654D01*
X448568Y855654D01*
X448568Y827354D01*
G54D10*
X339230Y865766D02*
X339230Y876742D01*
X367530Y876742D01*
X367530Y865766D01*
X339230Y865766D01*
G54D10*
X339230Y853016D02*
X339230Y863992D01*
X367530Y863992D01*
X367530Y853016D01*
X339230Y853016D01*
G54D10*
X339230Y840266D02*
X339230Y851242D01*
X367530Y851242D01*
X367530Y840266D01*
X339230Y840266D01*
G54D10*
X363250Y837838D02*
X363250Y826862D01*
X334951Y826862D01*
X334950Y837837D01*
X363250Y837838D01*
G54D10*
X326438Y880357D02*
X337413Y880357D01*
X337413Y852057D01*
X326438Y852057D01*
X326438Y880357D01*
G54D10*
X219150Y953112D02*
X219150Y964088D01*
X247450Y964088D01*
X247450Y953112D01*
X219150Y953112D01*
G54D10*
X306788Y937450D02*
X295812Y937450D01*
X295812Y965750D01*
X306788Y965750D01*
X306788Y937450D01*
G54D10*
X337088Y951350D02*
X326112Y951350D01*
X326112Y979650D01*
X337088Y979650D01*
X337088Y951350D01*
G54D10*
X450731Y820116D02*
X450731Y831091D01*
X479031Y831091D01*
X479031Y820116D01*
X450731Y820116D01*
M02*
