<?xml version="1.0" encoding="utf-8" standalone="no"?>
<!DOCTYPE svg PUBLIC "-//W3C//DTD SVG 1.1//EN"
  "http://www.w3.org/Graphics/SVG/1.1/DTD/svg11.dtd">
<svg xmlns:xlink="http://www.w3.org/1999/xlink" width="460.8pt" height="345.6pt" viewBox="0 0 460.8 345.6" xmlns="http://www.w3.org/2000/svg" version="1.1">
 <metadata>
  <rdf:RDF xmlns:dc="http://purl.org/dc/elements/1.1/" xmlns:cc="http://creativecommons.org/ns#" xmlns:rdf="http://www.w3.org/1999/02/22-rdf-syntax-ns#">
   <cc:Work>
    <dc:type rdf:resource="http://purl.org/dc/dcmitype/StillImage"/>
    <dc:date>2022-02-24T11:20:51.526447</dc:date>
    <dc:format>image/svg+xml</dc:format>
    <dc:creator>
     <cc:Agent>
      <dc:title>Matplotlib v3.5.1, https://matplotlib.org/</dc:title>
     </cc:Agent>
    </dc:creator>
   </cc:Work>
  </rdf:RDF>
 </metadata>
 <defs>
  <style type="text/css">*{stroke-linejoin: round; stroke-linecap: butt}</style>
 </defs>
 <g id="figure_1">
  <g id="patch_1">
   <path d="M 0 345.6 
L 460.8 345.6 
L 460.8 0 
L 0 0 
z
" style="fill: #ffffff"/>
  </g>
  <g id="axes_1">
   <g id="patch_2">
    <path d="M 57.6 307.584 
L 414.72 307.584 
L 414.72 41.472 
L 57.6 41.472 
z
" style="fill: #ffffff"/>
   </g>
   <g id="matplotlib.axis_1">
    <g id="xtick_1">
     <g id="line2d_1">
      <defs>
       <path id="m502d70fb57" d="M 0 0 
L 0 3.5 
" style="stroke: #000000; stroke-width: 0.8"/>
      </defs>
      <g>
       <use xlink:href="#m502d70fb57" x="71.642198" y="307.584" style="stroke: #000000; stroke-width: 0.8"/>
      </g>
     </g>
     <g id="text_1">
      <!-- $\mathdefault{10^{3}}$ -->
      <g transform="translate(62.842198 322.182437)scale(0.1 -0.1)">
       <defs>
        <path id="DejaVuSans-31" d="M 794 531 
L 1825 531 
L 1825 4091 
L 703 3866 
L 703 4441 
L 1819 4666 
L 2450 4666 
L 2450 531 
L 3481 531 
L 3481 0 
L 794 0 
L 794 531 
z
" transform="scale(0.015625)"/>
        <path id="DejaVuSans-30" d="M 2034 4250 
Q 1547 4250 1301 3770 
Q 1056 3291 1056 2328 
Q 1056 1369 1301 889 
Q 1547 409 2034 409 
Q 2525 409 2770 889 
Q 3016 1369 3016 2328 
Q 3016 3291 2770 3770 
Q 2525 4250 2034 4250 
z
M 2034 4750 
Q 2819 4750 3233 4129 
Q 3647 3509 3647 2328 
Q 3647 1150 3233 529 
Q 2819 -91 2034 -91 
Q 1250 -91 836 529 
Q 422 1150 422 2328 
Q 422 3509 836 4129 
Q 1250 4750 2034 4750 
z
" transform="scale(0.015625)"/>
        <path id="DejaVuSans-33" d="M 2597 2516 
Q 3050 2419 3304 2112 
Q 3559 1806 3559 1356 
Q 3559 666 3084 287 
Q 2609 -91 1734 -91 
Q 1441 -91 1130 -33 
Q 819 25 488 141 
L 488 750 
Q 750 597 1062 519 
Q 1375 441 1716 441 
Q 2309 441 2620 675 
Q 2931 909 2931 1356 
Q 2931 1769 2642 2001 
Q 2353 2234 1838 2234 
L 1294 2234 
L 1294 2753 
L 1863 2753 
Q 2328 2753 2575 2939 
Q 2822 3125 2822 3475 
Q 2822 3834 2567 4026 
Q 2313 4219 1838 4219 
Q 1578 4219 1281 4162 
Q 984 4106 628 3988 
L 628 4550 
Q 988 4650 1302 4700 
Q 1616 4750 1894 4750 
Q 2613 4750 3031 4423 
Q 3450 4097 3450 3541 
Q 3450 3153 3228 2886 
Q 3006 2619 2597 2516 
z
" transform="scale(0.015625)"/>
       </defs>
       <use xlink:href="#DejaVuSans-31" transform="translate(0 0.765625)"/>
       <use xlink:href="#DejaVuSans-30" transform="translate(63.623047 0.765625)"/>
       <use xlink:href="#DejaVuSans-33" transform="translate(128.203125 39.046875)scale(0.7)"/>
      </g>
     </g>
    </g>
    <g id="xtick_2">
     <g id="line2d_2">
      <g>
       <use xlink:href="#m502d70fb57" x="152.948678" y="307.584" style="stroke: #000000; stroke-width: 0.8"/>
      </g>
     </g>
     <g id="text_2">
      <!-- $\mathdefault{10^{4}}$ -->
      <g transform="translate(144.148678 322.182437)scale(0.1 -0.1)">
       <defs>
        <path id="DejaVuSans-34" d="M 2419 4116 
L 825 1625 
L 2419 1625 
L 2419 4116 
z
M 2253 4666 
L 3047 4666 
L 3047 1625 
L 3713 1625 
L 3713 1100 
L 3047 1100 
L 3047 0 
L 2419 0 
L 2419 1100 
L 313 1100 
L 313 1709 
L 2253 4666 
z
" transform="scale(0.015625)"/>
       </defs>
       <use xlink:href="#DejaVuSans-31" transform="translate(0 0.684375)"/>
       <use xlink:href="#DejaVuSans-30" transform="translate(63.623047 0.684375)"/>
       <use xlink:href="#DejaVuSans-34" transform="translate(128.203125 38.965625)scale(0.7)"/>
      </g>
     </g>
    </g>
    <g id="xtick_3">
     <g id="line2d_3">
      <g>
       <use xlink:href="#m502d70fb57" x="234.255157" y="307.584" style="stroke: #000000; stroke-width: 0.8"/>
      </g>
     </g>
     <g id="text_3">
      <!-- $\mathdefault{10^{5}}$ -->
      <g transform="translate(225.455157 322.182437)scale(0.1 -0.1)">
       <defs>
        <path id="DejaVuSans-35" d="M 691 4666 
L 3169 4666 
L 3169 4134 
L 1269 4134 
L 1269 2991 
Q 1406 3038 1543 3061 
Q 1681 3084 1819 3084 
Q 2600 3084 3056 2656 
Q 3513 2228 3513 1497 
Q 3513 744 3044 326 
Q 2575 -91 1722 -91 
Q 1428 -91 1123 -41 
Q 819 9 494 109 
L 494 744 
Q 775 591 1075 516 
Q 1375 441 1709 441 
Q 2250 441 2565 725 
Q 2881 1009 2881 1497 
Q 2881 1984 2565 2268 
Q 2250 2553 1709 2553 
Q 1456 2553 1204 2497 
Q 953 2441 691 2322 
L 691 4666 
z
" transform="scale(0.015625)"/>
       </defs>
       <use xlink:href="#DejaVuSans-31" transform="translate(0 0.684375)"/>
       <use xlink:href="#DejaVuSans-30" transform="translate(63.623047 0.684375)"/>
       <use xlink:href="#DejaVuSans-35" transform="translate(128.203125 38.965625)scale(0.7)"/>
      </g>
     </g>
    </g>
    <g id="xtick_4">
     <g id="line2d_4">
      <g>
       <use xlink:href="#m502d70fb57" x="315.561636" y="307.584" style="stroke: #000000; stroke-width: 0.8"/>
      </g>
     </g>
     <g id="text_4">
      <!-- $\mathdefault{10^{6}}$ -->
      <g transform="translate(306.761636 322.182437)scale(0.1 -0.1)">
       <defs>
        <path id="DejaVuSans-36" d="M 2113 2584 
Q 1688 2584 1439 2293 
Q 1191 2003 1191 1497 
Q 1191 994 1439 701 
Q 1688 409 2113 409 
Q 2538 409 2786 701 
Q 3034 994 3034 1497 
Q 3034 2003 2786 2293 
Q 2538 2584 2113 2584 
z
M 3366 4563 
L 3366 3988 
Q 3128 4100 2886 4159 
Q 2644 4219 2406 4219 
Q 1781 4219 1451 3797 
Q 1122 3375 1075 2522 
Q 1259 2794 1537 2939 
Q 1816 3084 2150 3084 
Q 2853 3084 3261 2657 
Q 3669 2231 3669 1497 
Q 3669 778 3244 343 
Q 2819 -91 2113 -91 
Q 1303 -91 875 529 
Q 447 1150 447 2328 
Q 447 3434 972 4092 
Q 1497 4750 2381 4750 
Q 2619 4750 2861 4703 
Q 3103 4656 3366 4563 
z
" transform="scale(0.015625)"/>
       </defs>
       <use xlink:href="#DejaVuSans-31" transform="translate(0 0.765625)"/>
       <use xlink:href="#DejaVuSans-30" transform="translate(63.623047 0.765625)"/>
       <use xlink:href="#DejaVuSans-36" transform="translate(128.203125 39.046875)scale(0.7)"/>
      </g>
     </g>
    </g>
    <g id="xtick_5">
     <g id="line2d_5">
      <g>
       <use xlink:href="#m502d70fb57" x="396.868116" y="307.584" style="stroke: #000000; stroke-width: 0.8"/>
      </g>
     </g>
     <g id="text_5">
      <!-- $\mathdefault{10^{7}}$ -->
      <g transform="translate(388.068116 322.182437)scale(0.1 -0.1)">
       <defs>
        <path id="DejaVuSans-37" d="M 525 4666 
L 3525 4666 
L 3525 4397 
L 1831 0 
L 1172 0 
L 2766 4134 
L 525 4134 
L 525 4666 
z
" transform="scale(0.015625)"/>
       </defs>
       <use xlink:href="#DejaVuSans-31" transform="translate(0 0.684375)"/>
       <use xlink:href="#DejaVuSans-30" transform="translate(63.623047 0.684375)"/>
       <use xlink:href="#DejaVuSans-37" transform="translate(128.203125 38.965625)scale(0.7)"/>
      </g>
     </g>
    </g>
    <g id="xtick_6">
     <g id="line2d_6">
      <defs>
       <path id="mcd480d9e9f" d="M 0 0 
L 0 2 
" style="stroke: #000000; stroke-width: 0.6"/>
      </defs>
      <g>
       <use xlink:href="#mcd480d9e9f" x="59.047665" y="307.584" style="stroke: #000000; stroke-width: 0.6"/>
      </g>
     </g>
    </g>
    <g id="xtick_7">
     <g id="line2d_7">
      <g>
       <use xlink:href="#mcd480d9e9f" x="63.762786" y="307.584" style="stroke: #000000; stroke-width: 0.6"/>
      </g>
     </g>
    </g>
    <g id="xtick_8">
     <g id="line2d_8">
      <g>
       <use xlink:href="#mcd480d9e9f" x="67.921818" y="307.584" style="stroke: #000000; stroke-width: 0.6"/>
      </g>
     </g>
    </g>
    <g id="xtick_9">
     <g id="line2d_9">
      <g>
       <use xlink:href="#mcd480d9e9f" x="96.117887" y="307.584" style="stroke: #000000; stroke-width: 0.6"/>
      </g>
     </g>
    </g>
    <g id="xtick_10">
     <g id="line2d_10">
      <g>
       <use xlink:href="#mcd480d9e9f" x="110.435248" y="307.584" style="stroke: #000000; stroke-width: 0.6"/>
      </g>
     </g>
    </g>
    <g id="xtick_11">
     <g id="line2d_11">
      <g>
       <use xlink:href="#mcd480d9e9f" x="120.593577" y="307.584" style="stroke: #000000; stroke-width: 0.6"/>
      </g>
     </g>
    </g>
    <g id="xtick_12">
     <g id="line2d_12">
      <g>
       <use xlink:href="#mcd480d9e9f" x="128.472989" y="307.584" style="stroke: #000000; stroke-width: 0.6"/>
      </g>
     </g>
    </g>
    <g id="xtick_13">
     <g id="line2d_13">
      <g>
       <use xlink:href="#mcd480d9e9f" x="134.910937" y="307.584" style="stroke: #000000; stroke-width: 0.6"/>
      </g>
     </g>
    </g>
    <g id="xtick_14">
     <g id="line2d_14">
      <g>
       <use xlink:href="#mcd480d9e9f" x="140.354145" y="307.584" style="stroke: #000000; stroke-width: 0.6"/>
      </g>
     </g>
    </g>
    <g id="xtick_15">
     <g id="line2d_15">
      <g>
       <use xlink:href="#mcd480d9e9f" x="145.069266" y="307.584" style="stroke: #000000; stroke-width: 0.6"/>
      </g>
     </g>
    </g>
    <g id="xtick_16">
     <g id="line2d_16">
      <g>
       <use xlink:href="#mcd480d9e9f" x="149.228297" y="307.584" style="stroke: #000000; stroke-width: 0.6"/>
      </g>
     </g>
    </g>
    <g id="xtick_17">
     <g id="line2d_17">
      <g>
       <use xlink:href="#mcd480d9e9f" x="177.424367" y="307.584" style="stroke: #000000; stroke-width: 0.6"/>
      </g>
     </g>
    </g>
    <g id="xtick_18">
     <g id="line2d_18">
      <g>
       <use xlink:href="#mcd480d9e9f" x="191.741727" y="307.584" style="stroke: #000000; stroke-width: 0.6"/>
      </g>
     </g>
    </g>
    <g id="xtick_19">
     <g id="line2d_19">
      <g>
       <use xlink:href="#mcd480d9e9f" x="201.900056" y="307.584" style="stroke: #000000; stroke-width: 0.6"/>
      </g>
     </g>
    </g>
    <g id="xtick_20">
     <g id="line2d_20">
      <g>
       <use xlink:href="#mcd480d9e9f" x="209.779468" y="307.584" style="stroke: #000000; stroke-width: 0.6"/>
      </g>
     </g>
    </g>
    <g id="xtick_21">
     <g id="line2d_21">
      <g>
       <use xlink:href="#mcd480d9e9f" x="216.217416" y="307.584" style="stroke: #000000; stroke-width: 0.6"/>
      </g>
     </g>
    </g>
    <g id="xtick_22">
     <g id="line2d_22">
      <g>
       <use xlink:href="#mcd480d9e9f" x="221.660624" y="307.584" style="stroke: #000000; stroke-width: 0.6"/>
      </g>
     </g>
    </g>
    <g id="xtick_23">
     <g id="line2d_23">
      <g>
       <use xlink:href="#mcd480d9e9f" x="226.375745" y="307.584" style="stroke: #000000; stroke-width: 0.6"/>
      </g>
     </g>
    </g>
    <g id="xtick_24">
     <g id="line2d_24">
      <g>
       <use xlink:href="#mcd480d9e9f" x="230.534777" y="307.584" style="stroke: #000000; stroke-width: 0.6"/>
      </g>
     </g>
    </g>
    <g id="xtick_25">
     <g id="line2d_25">
      <g>
       <use xlink:href="#mcd480d9e9f" x="258.730846" y="307.584" style="stroke: #000000; stroke-width: 0.6"/>
      </g>
     </g>
    </g>
    <g id="xtick_26">
     <g id="line2d_26">
      <g>
       <use xlink:href="#mcd480d9e9f" x="273.048206" y="307.584" style="stroke: #000000; stroke-width: 0.6"/>
      </g>
     </g>
    </g>
    <g id="xtick_27">
     <g id="line2d_27">
      <g>
       <use xlink:href="#mcd480d9e9f" x="283.206535" y="307.584" style="stroke: #000000; stroke-width: 0.6"/>
      </g>
     </g>
    </g>
    <g id="xtick_28">
     <g id="line2d_28">
      <g>
       <use xlink:href="#mcd480d9e9f" x="291.085947" y="307.584" style="stroke: #000000; stroke-width: 0.6"/>
      </g>
     </g>
    </g>
    <g id="xtick_29">
     <g id="line2d_29">
      <g>
       <use xlink:href="#mcd480d9e9f" x="297.523896" y="307.584" style="stroke: #000000; stroke-width: 0.6"/>
      </g>
     </g>
    </g>
    <g id="xtick_30">
     <g id="line2d_30">
      <g>
       <use xlink:href="#mcd480d9e9f" x="302.967103" y="307.584" style="stroke: #000000; stroke-width: 0.6"/>
      </g>
     </g>
    </g>
    <g id="xtick_31">
     <g id="line2d_31">
      <g>
       <use xlink:href="#mcd480d9e9f" x="307.682224" y="307.584" style="stroke: #000000; stroke-width: 0.6"/>
      </g>
     </g>
    </g>
    <g id="xtick_32">
     <g id="line2d_32">
      <g>
       <use xlink:href="#mcd480d9e9f" x="311.841256" y="307.584" style="stroke: #000000; stroke-width: 0.6"/>
      </g>
     </g>
    </g>
    <g id="xtick_33">
     <g id="line2d_33">
      <g>
       <use xlink:href="#mcd480d9e9f" x="340.037326" y="307.584" style="stroke: #000000; stroke-width: 0.6"/>
      </g>
     </g>
    </g>
    <g id="xtick_34">
     <g id="line2d_34">
      <g>
       <use xlink:href="#mcd480d9e9f" x="354.354686" y="307.584" style="stroke: #000000; stroke-width: 0.6"/>
      </g>
     </g>
    </g>
    <g id="xtick_35">
     <g id="line2d_35">
      <g>
       <use xlink:href="#mcd480d9e9f" x="364.513015" y="307.584" style="stroke: #000000; stroke-width: 0.6"/>
      </g>
     </g>
    </g>
    <g id="xtick_36">
     <g id="line2d_36">
      <g>
       <use xlink:href="#mcd480d9e9f" x="372.392427" y="307.584" style="stroke: #000000; stroke-width: 0.6"/>
      </g>
     </g>
    </g>
    <g id="xtick_37">
     <g id="line2d_37">
      <g>
       <use xlink:href="#mcd480d9e9f" x="378.830375" y="307.584" style="stroke: #000000; stroke-width: 0.6"/>
      </g>
     </g>
    </g>
    <g id="xtick_38">
     <g id="line2d_38">
      <g>
       <use xlink:href="#mcd480d9e9f" x="384.273583" y="307.584" style="stroke: #000000; stroke-width: 0.6"/>
      </g>
     </g>
    </g>
    <g id="xtick_39">
     <g id="line2d_39">
      <g>
       <use xlink:href="#mcd480d9e9f" x="388.988704" y="307.584" style="stroke: #000000; stroke-width: 0.6"/>
      </g>
     </g>
    </g>
    <g id="xtick_40">
     <g id="line2d_40">
      <g>
       <use xlink:href="#mcd480d9e9f" x="393.147735" y="307.584" style="stroke: #000000; stroke-width: 0.6"/>
      </g>
     </g>
    </g>
    <g id="text_6">
     <!-- Frequency [Hz] -->
     <g transform="translate(198.455312 335.860562)scale(0.1 -0.1)">
      <defs>
       <path id="DejaVuSans-46" d="M 628 4666 
L 3309 4666 
L 3309 4134 
L 1259 4134 
L 1259 2759 
L 3109 2759 
L 3109 2228 
L 1259 2228 
L 1259 0 
L 628 0 
L 628 4666 
z
" transform="scale(0.015625)"/>
       <path id="DejaVuSans-72" d="M 2631 2963 
Q 2534 3019 2420 3045 
Q 2306 3072 2169 3072 
Q 1681 3072 1420 2755 
Q 1159 2438 1159 1844 
L 1159 0 
L 581 0 
L 581 3500 
L 1159 3500 
L 1159 2956 
Q 1341 3275 1631 3429 
Q 1922 3584 2338 3584 
Q 2397 3584 2469 3576 
Q 2541 3569 2628 3553 
L 2631 2963 
z
" transform="scale(0.015625)"/>
       <path id="DejaVuSans-65" d="M 3597 1894 
L 3597 1613 
L 953 1613 
Q 991 1019 1311 708 
Q 1631 397 2203 397 
Q 2534 397 2845 478 
Q 3156 559 3463 722 
L 3463 178 
Q 3153 47 2828 -22 
Q 2503 -91 2169 -91 
Q 1331 -91 842 396 
Q 353 884 353 1716 
Q 353 2575 817 3079 
Q 1281 3584 2069 3584 
Q 2775 3584 3186 3129 
Q 3597 2675 3597 1894 
z
M 3022 2063 
Q 3016 2534 2758 2815 
Q 2500 3097 2075 3097 
Q 1594 3097 1305 2825 
Q 1016 2553 972 2059 
L 3022 2063 
z
" transform="scale(0.015625)"/>
       <path id="DejaVuSans-71" d="M 947 1747 
Q 947 1113 1208 752 
Q 1469 391 1925 391 
Q 2381 391 2643 752 
Q 2906 1113 2906 1747 
Q 2906 2381 2643 2742 
Q 2381 3103 1925 3103 
Q 1469 3103 1208 2742 
Q 947 2381 947 1747 
z
M 2906 525 
Q 2725 213 2448 61 
Q 2172 -91 1784 -91 
Q 1150 -91 751 415 
Q 353 922 353 1747 
Q 353 2572 751 3078 
Q 1150 3584 1784 3584 
Q 2172 3584 2448 3432 
Q 2725 3281 2906 2969 
L 2906 3500 
L 3481 3500 
L 3481 -1331 
L 2906 -1331 
L 2906 525 
z
" transform="scale(0.015625)"/>
       <path id="DejaVuSans-75" d="M 544 1381 
L 544 3500 
L 1119 3500 
L 1119 1403 
Q 1119 906 1312 657 
Q 1506 409 1894 409 
Q 2359 409 2629 706 
Q 2900 1003 2900 1516 
L 2900 3500 
L 3475 3500 
L 3475 0 
L 2900 0 
L 2900 538 
Q 2691 219 2414 64 
Q 2138 -91 1772 -91 
Q 1169 -91 856 284 
Q 544 659 544 1381 
z
M 1991 3584 
L 1991 3584 
z
" transform="scale(0.015625)"/>
       <path id="DejaVuSans-6e" d="M 3513 2113 
L 3513 0 
L 2938 0 
L 2938 2094 
Q 2938 2591 2744 2837 
Q 2550 3084 2163 3084 
Q 1697 3084 1428 2787 
Q 1159 2491 1159 1978 
L 1159 0 
L 581 0 
L 581 3500 
L 1159 3500 
L 1159 2956 
Q 1366 3272 1645 3428 
Q 1925 3584 2291 3584 
Q 2894 3584 3203 3211 
Q 3513 2838 3513 2113 
z
" transform="scale(0.015625)"/>
       <path id="DejaVuSans-63" d="M 3122 3366 
L 3122 2828 
Q 2878 2963 2633 3030 
Q 2388 3097 2138 3097 
Q 1578 3097 1268 2742 
Q 959 2388 959 1747 
Q 959 1106 1268 751 
Q 1578 397 2138 397 
Q 2388 397 2633 464 
Q 2878 531 3122 666 
L 3122 134 
Q 2881 22 2623 -34 
Q 2366 -91 2075 -91 
Q 1284 -91 818 406 
Q 353 903 353 1747 
Q 353 2603 823 3093 
Q 1294 3584 2113 3584 
Q 2378 3584 2631 3529 
Q 2884 3475 3122 3366 
z
" transform="scale(0.015625)"/>
       <path id="DejaVuSans-79" d="M 2059 -325 
Q 1816 -950 1584 -1140 
Q 1353 -1331 966 -1331 
L 506 -1331 
L 506 -850 
L 844 -850 
Q 1081 -850 1212 -737 
Q 1344 -625 1503 -206 
L 1606 56 
L 191 3500 
L 800 3500 
L 1894 763 
L 2988 3500 
L 3597 3500 
L 2059 -325 
z
" transform="scale(0.015625)"/>
       <path id="DejaVuSans-20" transform="scale(0.015625)"/>
       <path id="DejaVuSans-5b" d="M 550 4863 
L 1875 4863 
L 1875 4416 
L 1125 4416 
L 1125 -397 
L 1875 -397 
L 1875 -844 
L 550 -844 
L 550 4863 
z
" transform="scale(0.015625)"/>
       <path id="DejaVuSans-48" d="M 628 4666 
L 1259 4666 
L 1259 2753 
L 3553 2753 
L 3553 4666 
L 4184 4666 
L 4184 0 
L 3553 0 
L 3553 2222 
L 1259 2222 
L 1259 0 
L 628 0 
L 628 4666 
z
" transform="scale(0.015625)"/>
       <path id="DejaVuSans-7a" d="M 353 3500 
L 3084 3500 
L 3084 2975 
L 922 459 
L 3084 459 
L 3084 0 
L 275 0 
L 275 525 
L 2438 3041 
L 353 3041 
L 353 3500 
z
" transform="scale(0.015625)"/>
       <path id="DejaVuSans-5d" d="M 1947 4863 
L 1947 -844 
L 622 -844 
L 622 -397 
L 1369 -397 
L 1369 4416 
L 622 4416 
L 622 4863 
L 1947 4863 
z
" transform="scale(0.015625)"/>
      </defs>
      <use xlink:href="#DejaVuSans-46"/>
      <use xlink:href="#DejaVuSans-72" x="50.269531"/>
      <use xlink:href="#DejaVuSans-65" x="89.132812"/>
      <use xlink:href="#DejaVuSans-71" x="150.65625"/>
      <use xlink:href="#DejaVuSans-75" x="214.132812"/>
      <use xlink:href="#DejaVuSans-65" x="277.511719"/>
      <use xlink:href="#DejaVuSans-6e" x="339.035156"/>
      <use xlink:href="#DejaVuSans-63" x="402.414062"/>
      <use xlink:href="#DejaVuSans-79" x="457.394531"/>
      <use xlink:href="#DejaVuSans-20" x="516.574219"/>
      <use xlink:href="#DejaVuSans-5b" x="548.361328"/>
      <use xlink:href="#DejaVuSans-48" x="587.375"/>
      <use xlink:href="#DejaVuSans-7a" x="662.570312"/>
      <use xlink:href="#DejaVuSans-5d" x="715.060547"/>
     </g>
    </g>
   </g>
   <g id="matplotlib.axis_2">
    <g id="ytick_1">
     <g id="line2d_41">
      <defs>
       <path id="m482eca8c2b" d="M 0 0 
L -3.5 0 
" style="stroke: #000000; stroke-width: 0.8"/>
      </defs>
      <g>
       <use xlink:href="#m482eca8c2b" x="57.6" y="307.584" style="stroke: #000000; stroke-width: 0.8"/>
      </g>
     </g>
     <g id="text_7">
      <!-- −140 -->
      <g transform="translate(23.132812 311.383219)scale(0.1 -0.1)">
       <defs>
        <path id="DejaVuSans-2212" d="M 678 2272 
L 4684 2272 
L 4684 1741 
L 678 1741 
L 678 2272 
z
" transform="scale(0.015625)"/>
       </defs>
       <use xlink:href="#DejaVuSans-2212"/>
       <use xlink:href="#DejaVuSans-31" x="83.789062"/>
       <use xlink:href="#DejaVuSans-34" x="147.412109"/>
       <use xlink:href="#DejaVuSans-30" x="211.035156"/>
      </g>
     </g>
    </g>
    <g id="ytick_2">
     <g id="line2d_42">
      <g>
       <use xlink:href="#m482eca8c2b" x="57.6" y="274.32" style="stroke: #000000; stroke-width: 0.8"/>
      </g>
     </g>
     <g id="text_8">
      <!-- −130 -->
      <g transform="translate(23.132812 278.119219)scale(0.1 -0.1)">
       <use xlink:href="#DejaVuSans-2212"/>
       <use xlink:href="#DejaVuSans-31" x="83.789062"/>
       <use xlink:href="#DejaVuSans-33" x="147.412109"/>
       <use xlink:href="#DejaVuSans-30" x="211.035156"/>
      </g>
     </g>
    </g>
    <g id="ytick_3">
     <g id="line2d_43">
      <g>
       <use xlink:href="#m482eca8c2b" x="57.6" y="241.056" style="stroke: #000000; stroke-width: 0.8"/>
      </g>
     </g>
     <g id="text_9">
      <!-- −120 -->
      <g transform="translate(23.132812 244.855219)scale(0.1 -0.1)">
       <defs>
        <path id="DejaVuSans-32" d="M 1228 531 
L 3431 531 
L 3431 0 
L 469 0 
L 469 531 
Q 828 903 1448 1529 
Q 2069 2156 2228 2338 
Q 2531 2678 2651 2914 
Q 2772 3150 2772 3378 
Q 2772 3750 2511 3984 
Q 2250 4219 1831 4219 
Q 1534 4219 1204 4116 
Q 875 4013 500 3803 
L 500 4441 
Q 881 4594 1212 4672 
Q 1544 4750 1819 4750 
Q 2544 4750 2975 4387 
Q 3406 4025 3406 3419 
Q 3406 3131 3298 2873 
Q 3191 2616 2906 2266 
Q 2828 2175 2409 1742 
Q 1991 1309 1228 531 
z
" transform="scale(0.015625)"/>
       </defs>
       <use xlink:href="#DejaVuSans-2212"/>
       <use xlink:href="#DejaVuSans-31" x="83.789062"/>
       <use xlink:href="#DejaVuSans-32" x="147.412109"/>
       <use xlink:href="#DejaVuSans-30" x="211.035156"/>
      </g>
     </g>
    </g>
    <g id="ytick_4">
     <g id="line2d_44">
      <g>
       <use xlink:href="#m482eca8c2b" x="57.6" y="207.792" style="stroke: #000000; stroke-width: 0.8"/>
      </g>
     </g>
     <g id="text_10">
      <!-- −110 -->
      <g transform="translate(23.132812 211.591219)scale(0.1 -0.1)">
       <use xlink:href="#DejaVuSans-2212"/>
       <use xlink:href="#DejaVuSans-31" x="83.789062"/>
       <use xlink:href="#DejaVuSans-31" x="147.412109"/>
       <use xlink:href="#DejaVuSans-30" x="211.035156"/>
      </g>
     </g>
    </g>
    <g id="ytick_5">
     <g id="line2d_45">
      <g>
       <use xlink:href="#m482eca8c2b" x="57.6" y="174.528" style="stroke: #000000; stroke-width: 0.8"/>
      </g>
     </g>
     <g id="text_11">
      <!-- −100 -->
      <g transform="translate(23.132812 178.327219)scale(0.1 -0.1)">
       <use xlink:href="#DejaVuSans-2212"/>
       <use xlink:href="#DejaVuSans-31" x="83.789062"/>
       <use xlink:href="#DejaVuSans-30" x="147.412109"/>
       <use xlink:href="#DejaVuSans-30" x="211.035156"/>
      </g>
     </g>
    </g>
    <g id="ytick_6">
     <g id="line2d_46">
      <g>
       <use xlink:href="#m482eca8c2b" x="57.6" y="141.264" style="stroke: #000000; stroke-width: 0.8"/>
      </g>
     </g>
     <g id="text_12">
      <!-- −90 -->
      <g transform="translate(29.495313 145.063219)scale(0.1 -0.1)">
       <defs>
        <path id="DejaVuSans-39" d="M 703 97 
L 703 672 
Q 941 559 1184 500 
Q 1428 441 1663 441 
Q 2288 441 2617 861 
Q 2947 1281 2994 2138 
Q 2813 1869 2534 1725 
Q 2256 1581 1919 1581 
Q 1219 1581 811 2004 
Q 403 2428 403 3163 
Q 403 3881 828 4315 
Q 1253 4750 1959 4750 
Q 2769 4750 3195 4129 
Q 3622 3509 3622 2328 
Q 3622 1225 3098 567 
Q 2575 -91 1691 -91 
Q 1453 -91 1209 -44 
Q 966 3 703 97 
z
M 1959 2075 
Q 2384 2075 2632 2365 
Q 2881 2656 2881 3163 
Q 2881 3666 2632 3958 
Q 2384 4250 1959 4250 
Q 1534 4250 1286 3958 
Q 1038 3666 1038 3163 
Q 1038 2656 1286 2365 
Q 1534 2075 1959 2075 
z
" transform="scale(0.015625)"/>
       </defs>
       <use xlink:href="#DejaVuSans-2212"/>
       <use xlink:href="#DejaVuSans-39" x="83.789062"/>
       <use xlink:href="#DejaVuSans-30" x="147.412109"/>
      </g>
     </g>
    </g>
    <g id="ytick_7">
     <g id="line2d_47">
      <g>
       <use xlink:href="#m482eca8c2b" x="57.6" y="108" style="stroke: #000000; stroke-width: 0.8"/>
      </g>
     </g>
     <g id="text_13">
      <!-- −80 -->
      <g transform="translate(29.495313 111.799219)scale(0.1 -0.1)">
       <defs>
        <path id="DejaVuSans-38" d="M 2034 2216 
Q 1584 2216 1326 1975 
Q 1069 1734 1069 1313 
Q 1069 891 1326 650 
Q 1584 409 2034 409 
Q 2484 409 2743 651 
Q 3003 894 3003 1313 
Q 3003 1734 2745 1975 
Q 2488 2216 2034 2216 
z
M 1403 2484 
Q 997 2584 770 2862 
Q 544 3141 544 3541 
Q 544 4100 942 4425 
Q 1341 4750 2034 4750 
Q 2731 4750 3128 4425 
Q 3525 4100 3525 3541 
Q 3525 3141 3298 2862 
Q 3072 2584 2669 2484 
Q 3125 2378 3379 2068 
Q 3634 1759 3634 1313 
Q 3634 634 3220 271 
Q 2806 -91 2034 -91 
Q 1263 -91 848 271 
Q 434 634 434 1313 
Q 434 1759 690 2068 
Q 947 2378 1403 2484 
z
M 1172 3481 
Q 1172 3119 1398 2916 
Q 1625 2713 2034 2713 
Q 2441 2713 2670 2916 
Q 2900 3119 2900 3481 
Q 2900 3844 2670 4047 
Q 2441 4250 2034 4250 
Q 1625 4250 1398 4047 
Q 1172 3844 1172 3481 
z
" transform="scale(0.015625)"/>
       </defs>
       <use xlink:href="#DejaVuSans-2212"/>
       <use xlink:href="#DejaVuSans-38" x="83.789062"/>
       <use xlink:href="#DejaVuSans-30" x="147.412109"/>
      </g>
     </g>
    </g>
    <g id="ytick_8">
     <g id="line2d_48">
      <g>
       <use xlink:href="#m482eca8c2b" x="57.6" y="74.736" style="stroke: #000000; stroke-width: 0.8"/>
      </g>
     </g>
     <g id="text_14">
      <!-- −70 -->
      <g transform="translate(29.495313 78.535219)scale(0.1 -0.1)">
       <use xlink:href="#DejaVuSans-2212"/>
       <use xlink:href="#DejaVuSans-37" x="83.789062"/>
       <use xlink:href="#DejaVuSans-30" x="147.412109"/>
      </g>
     </g>
    </g>
    <g id="ytick_9">
     <g id="line2d_49">
      <g>
       <use xlink:href="#m482eca8c2b" x="57.6" y="41.472" style="stroke: #000000; stroke-width: 0.8"/>
      </g>
     </g>
     <g id="text_15">
      <!-- −60 -->
      <g transform="translate(29.495313 45.271219)scale(0.1 -0.1)">
       <use xlink:href="#DejaVuSans-2212"/>
       <use xlink:href="#DejaVuSans-36" x="83.789062"/>
       <use xlink:href="#DejaVuSans-30" x="147.412109"/>
      </g>
     </g>
    </g>
    <g id="text_16">
     <!-- Phase noise [dBc/Hz] -->
     <g transform="translate(17.053125 227.257688)rotate(-90)scale(0.1 -0.1)">
      <defs>
       <path id="DejaVuSans-50" d="M 1259 4147 
L 1259 2394 
L 2053 2394 
Q 2494 2394 2734 2622 
Q 2975 2850 2975 3272 
Q 2975 3691 2734 3919 
Q 2494 4147 2053 4147 
L 1259 4147 
z
M 628 4666 
L 2053 4666 
Q 2838 4666 3239 4311 
Q 3641 3956 3641 3272 
Q 3641 2581 3239 2228 
Q 2838 1875 2053 1875 
L 1259 1875 
L 1259 0 
L 628 0 
L 628 4666 
z
" transform="scale(0.015625)"/>
       <path id="DejaVuSans-68" d="M 3513 2113 
L 3513 0 
L 2938 0 
L 2938 2094 
Q 2938 2591 2744 2837 
Q 2550 3084 2163 3084 
Q 1697 3084 1428 2787 
Q 1159 2491 1159 1978 
L 1159 0 
L 581 0 
L 581 4863 
L 1159 4863 
L 1159 2956 
Q 1366 3272 1645 3428 
Q 1925 3584 2291 3584 
Q 2894 3584 3203 3211 
Q 3513 2838 3513 2113 
z
" transform="scale(0.015625)"/>
       <path id="DejaVuSans-61" d="M 2194 1759 
Q 1497 1759 1228 1600 
Q 959 1441 959 1056 
Q 959 750 1161 570 
Q 1363 391 1709 391 
Q 2188 391 2477 730 
Q 2766 1069 2766 1631 
L 2766 1759 
L 2194 1759 
z
M 3341 1997 
L 3341 0 
L 2766 0 
L 2766 531 
Q 2569 213 2275 61 
Q 1981 -91 1556 -91 
Q 1019 -91 701 211 
Q 384 513 384 1019 
Q 384 1609 779 1909 
Q 1175 2209 1959 2209 
L 2766 2209 
L 2766 2266 
Q 2766 2663 2505 2880 
Q 2244 3097 1772 3097 
Q 1472 3097 1187 3025 
Q 903 2953 641 2809 
L 641 3341 
Q 956 3463 1253 3523 
Q 1550 3584 1831 3584 
Q 2591 3584 2966 3190 
Q 3341 2797 3341 1997 
z
" transform="scale(0.015625)"/>
       <path id="DejaVuSans-73" d="M 2834 3397 
L 2834 2853 
Q 2591 2978 2328 3040 
Q 2066 3103 1784 3103 
Q 1356 3103 1142 2972 
Q 928 2841 928 2578 
Q 928 2378 1081 2264 
Q 1234 2150 1697 2047 
L 1894 2003 
Q 2506 1872 2764 1633 
Q 3022 1394 3022 966 
Q 3022 478 2636 193 
Q 2250 -91 1575 -91 
Q 1294 -91 989 -36 
Q 684 19 347 128 
L 347 722 
Q 666 556 975 473 
Q 1284 391 1588 391 
Q 1994 391 2212 530 
Q 2431 669 2431 922 
Q 2431 1156 2273 1281 
Q 2116 1406 1581 1522 
L 1381 1569 
Q 847 1681 609 1914 
Q 372 2147 372 2553 
Q 372 3047 722 3315 
Q 1072 3584 1716 3584 
Q 2034 3584 2315 3537 
Q 2597 3491 2834 3397 
z
" transform="scale(0.015625)"/>
       <path id="DejaVuSans-6f" d="M 1959 3097 
Q 1497 3097 1228 2736 
Q 959 2375 959 1747 
Q 959 1119 1226 758 
Q 1494 397 1959 397 
Q 2419 397 2687 759 
Q 2956 1122 2956 1747 
Q 2956 2369 2687 2733 
Q 2419 3097 1959 3097 
z
M 1959 3584 
Q 2709 3584 3137 3096 
Q 3566 2609 3566 1747 
Q 3566 888 3137 398 
Q 2709 -91 1959 -91 
Q 1206 -91 779 398 
Q 353 888 353 1747 
Q 353 2609 779 3096 
Q 1206 3584 1959 3584 
z
" transform="scale(0.015625)"/>
       <path id="DejaVuSans-69" d="M 603 3500 
L 1178 3500 
L 1178 0 
L 603 0 
L 603 3500 
z
M 603 4863 
L 1178 4863 
L 1178 4134 
L 603 4134 
L 603 4863 
z
" transform="scale(0.015625)"/>
       <path id="DejaVuSans-64" d="M 2906 2969 
L 2906 4863 
L 3481 4863 
L 3481 0 
L 2906 0 
L 2906 525 
Q 2725 213 2448 61 
Q 2172 -91 1784 -91 
Q 1150 -91 751 415 
Q 353 922 353 1747 
Q 353 2572 751 3078 
Q 1150 3584 1784 3584 
Q 2172 3584 2448 3432 
Q 2725 3281 2906 2969 
z
M 947 1747 
Q 947 1113 1208 752 
Q 1469 391 1925 391 
Q 2381 391 2643 752 
Q 2906 1113 2906 1747 
Q 2906 2381 2643 2742 
Q 2381 3103 1925 3103 
Q 1469 3103 1208 2742 
Q 947 2381 947 1747 
z
" transform="scale(0.015625)"/>
       <path id="DejaVuSans-42" d="M 1259 2228 
L 1259 519 
L 2272 519 
Q 2781 519 3026 730 
Q 3272 941 3272 1375 
Q 3272 1813 3026 2020 
Q 2781 2228 2272 2228 
L 1259 2228 
z
M 1259 4147 
L 1259 2741 
L 2194 2741 
Q 2656 2741 2882 2914 
Q 3109 3088 3109 3444 
Q 3109 3797 2882 3972 
Q 2656 4147 2194 4147 
L 1259 4147 
z
M 628 4666 
L 2241 4666 
Q 2963 4666 3353 4366 
Q 3744 4066 3744 3513 
Q 3744 3084 3544 2831 
Q 3344 2578 2956 2516 
Q 3422 2416 3680 2098 
Q 3938 1781 3938 1306 
Q 3938 681 3513 340 
Q 3088 0 2303 0 
L 628 0 
L 628 4666 
z
" transform="scale(0.015625)"/>
       <path id="DejaVuSans-2f" d="M 1625 4666 
L 2156 4666 
L 531 -594 
L 0 -594 
L 1625 4666 
z
" transform="scale(0.015625)"/>
      </defs>
      <use xlink:href="#DejaVuSans-50"/>
      <use xlink:href="#DejaVuSans-68" x="60.302734"/>
      <use xlink:href="#DejaVuSans-61" x="123.681641"/>
      <use xlink:href="#DejaVuSans-73" x="184.960938"/>
      <use xlink:href="#DejaVuSans-65" x="237.060547"/>
      <use xlink:href="#DejaVuSans-20" x="298.583984"/>
      <use xlink:href="#DejaVuSans-6e" x="330.371094"/>
      <use xlink:href="#DejaVuSans-6f" x="393.75"/>
      <use xlink:href="#DejaVuSans-69" x="454.931641"/>
      <use xlink:href="#DejaVuSans-73" x="482.714844"/>
      <use xlink:href="#DejaVuSans-65" x="534.814453"/>
      <use xlink:href="#DejaVuSans-20" x="596.337891"/>
      <use xlink:href="#DejaVuSans-5b" x="628.125"/>
      <use xlink:href="#DejaVuSans-64" x="667.138672"/>
      <use xlink:href="#DejaVuSans-42" x="730.615234"/>
      <use xlink:href="#DejaVuSans-63" x="799.21875"/>
      <use xlink:href="#DejaVuSans-2f" x="854.199219"/>
      <use xlink:href="#DejaVuSans-48" x="887.890625"/>
      <use xlink:href="#DejaVuSans-7a" x="963.085938"/>
      <use xlink:href="#DejaVuSans-5d" x="1015.576172"/>
     </g>
    </g>
   </g>
   <g id="line2d_50">
    <path d="M 398.487273 227.129472 
L 398.425486 230.832864 
L 398.363594 227.317968 
L 398.30159 230.644368 
L 398.239477 226.763568 
L 398.177254 230.278464 
L 398.114922 226.952064 
L 398.052479 230.278464 
L 397.989929 226.763568 
L 397.927265 230.267376 
L 397.864489 226.75248 
L 397.801602 231.18768 
L 397.738602 227.683872 
L 397.67549 231.564672 
L 397.612268 227.683872 
L 397.54893 231.74208 
L 397.485477 228.049776 
L 397.421911 231.010272 
L 397.358229 227.129472 
L 397.294433 230.821776 
L 397.230524 227.495376 
L 397.166497 230.644368 
L 397.102353 226.763568 
L 397.038092 229.901472 
L 396.973714 226.386576 
L 396.909218 230.07888 
L 396.844608 226.940976 
L 396.779876 231.376176 
L 396.715026 219.922272 
L 396.650055 223.803072 
L 396.584965 219.556368 
L 396.519755 231.564672 
L 396.454428 227.86128 
L 396.388976 231.74208 
L 396.323403 227.683872 
L 396.257707 230.832864 
L 396.191889 226.763568 
L 396.125952 230.267376 
L 396.059888 227.30688 
L 395.9937 231.74208 
L 395.927388 228.049776 
L 395.860951 231.18768 
L 395.794388 226.75248 
L 395.727704 229.890384 
L 395.66089 226.563984 
L 395.593949 230.256288 
L 395.526881 227.484288 
L 395.459685 230.810688 
L 395.392362 227.484288 
L 395.324913 231.18768 
L 395.257332 228.049776 
L 395.189621 231.564672 
L 395.12178 227.495376 
L 395.053808 231.18768 
L 394.985705 227.495376 
L 394.917474 231.18768 
L 394.849108 226.940976 
L 394.780609 230.444784 
L 394.711977 227.118384 
L 394.643211 230.999184 
L 394.574311 227.672784 
L 394.50528 231.74208 
L 394.436109 227.86128 
L 394.366804 231.18768 
L 394.297362 226.940976 
L 394.227783 230.455872 
L 394.158066 226.952064 
L 394.088216 230.455872 
L 394.018223 226.940976 
L 393.948092 230.267376 
L 393.87782 226.575072 
L 393.807409 230.644368 
L 393.736861 227.317968 
L 393.666168 231.198768 
L 393.595333 226.940976 
L 393.524355 229.890384 
L 393.453235 226.009584 
L 393.381971 229.712976 
L 393.310566 226.386576 
L 393.239014 230.821776 
L 393.167316 226.940976 
L 393.095472 231.010272 
L 393.023481 226.940976 
L 392.951344 231.376176 
L 392.879063 227.495376 
L 392.806629 230.644368 
L 392.734047 226.763568 
L 392.661315 230.278464 
L 392.588433 226.952064 
L 392.5154 230.278464 
L 392.44222 226.763568 
L 392.368884 230.089968 
L 392.295396 226.386576 
L 392.221754 229.901472 
L 392.147958 226.020672 
L 392.074008 229.901472 
L 391.999906 226.575072 
L 391.925645 230.267376 
L 391.851227 226.386576 
L 391.776652 229.890384 
L 391.701919 226.563984 
L 391.627027 230.267376 
L 391.551981 226.575072 
L 391.47677 229.901472 
L 391.4014 226.19808 
L 391.325867 229.52448 
L 391.250173 225.277776 
L 391.174321 229.158576 
L 391.098301 225.08928 
L 391.022117 229.335984 
L 390.945768 225.277776 
L 390.869254 229.901472 
L 390.792573 226.386576 
L 390.71573 230.07888 
L 390.638715 225.277776 
L 390.561532 228.792672 
L 390.48418 224.723376 
L 390.406658 228.604176 
L 390.328965 224.723376 
L 390.251106 228.792672 
L 390.17307 225.277776 
L 390.094861 229.158576 
L 390.016478 225.08928 
L 389.937921 229.335984 
L 389.859189 224.346384 
L 389.780286 228.41568 
L 389.701201 224.168976 
L 389.621939 229.347072 
L 389.542499 225.466272 
L 389.462879 228.981168 
L 389.383079 224.723376 
L 389.303103 228.792672 
L 389.222942 225.08928 
L 389.142597 229.347072 
L 389.06207 224.723376 
L 388.981358 228.426768 
L 388.900462 223.614576 
L 388.819384 227.86128 
L 388.738115 223.049088 
L 388.656659 228.038688 
L 388.575014 223.237584 
L 388.493181 228.049776 
L 388.411161 222.882768 
L 388.328946 227.683872 
L 388.246539 223.248672 
L 388.16394 227.495376 
L 388.081147 222.139872 
L 387.998159 226.386576 
L 387.91498 222.31728 
L 387.8316 227.495376 
L 387.748023 222.139872 
L 387.664248 226.209168 
L 387.580274 219.001968 
L 387.496099 224.357472 
L 387.411728 218.259072 
L 387.32715 224.723376 
L 387.242369 219.367872 
L 387.157383 225.466272 
L 387.072193 219.922272 
L 386.986797 224.723376 
L 386.901199 218.43648 
L 386.815388 224.168976 
L 386.729367 218.624976 
L 386.643137 224.357472 
L 386.556696 218.43648 
L 386.470042 223.791984 
L 386.38318 217.139184 
L 386.296099 222.683184 
L 386.208803 216.584784 
L 386.121291 223.049088 
L 386.033561 216.21888 
L 385.945612 222.139872 
L 385.857449 214.566768 
L 385.76906 220.842576 
L 385.68045 213.812784 
L 385.591616 221.20848 
L 385.502559 214.378272 
L 385.413281 221.219568 
L 385.323772 212.349168 
L 385.234035 219.556368 
L 385.14407 211.794768 
L 385.053875 220.288176 
L 384.96345 212.33808 
L 384.872796 218.99088 
L 384.781905 210.497472 
L 384.690779 218.259072 
L 384.599417 210.497472 
L 384.507819 218.813472 
L 384.415982 208.834272 
L 384.32391 216.961776 
L 384.231593 207.536976 
L 384.139034 216.77328 
L 384.046232 208.645776 
L 383.953185 218.802384 
L 383.859892 210.308976 
L 383.766357 218.43648 
L 383.672569 208.279872 
L 383.578531 217.150272 
L 383.484242 207.913968 
L 383.3897 216.961776 
L 383.294905 208.091376 
L 383.199859 216.407376 
L 383.104552 206.616672 
L 383.008987 214.189776 
L 382.913162 205.13088 
L 382.817077 214.189776 
L 382.72073 203.656176 
L 382.624124 212.715072 
L 382.527248 202.735872 
L 382.430106 213.457968 
L 382.332695 205.330464 
L 382.235015 214.378272 
L 382.13707 204.57648 
L 382.038846 212.149584 
L 381.940349 202.35888 
L 381.841576 211.417776 
L 381.742526 201.438576 
L 381.643197 211.417776 
L 381.543594 200.884176 
L 381.443704 210.863376 
L 381.34353 201.25008 
L 381.243071 210.863376 
L 381.142325 199.963872 
L 381.041291 208.834272 
L 380.939973 199.409472 
L 380.838358 209.943072 
L 380.736449 199.963872 
L 380.634246 210.308976 
L 380.531746 199.398384 
L 380.428947 209.56608 
L 380.325854 197.735184 
L 380.222453 208.823184 
L 380.118749 197.180784 
L 380.014739 207.714384 
L 379.910422 195.70608 
L 379.805796 206.79408 
L 379.700865 196.448976 
L 379.595615 206.79408 
L 379.490051 195.517584 
L 379.38417 204.753888 
L 379.27797 194.774688 
L 379.171451 205.862688 
L 379.064614 194.963184 
L 378.957448 204.942384 
L 378.849955 193.48848 
L 378.742135 206.051184 
L 378.633983 194.963184 
L 378.525506 205.308288 
L 378.416689 191.448288 
L 378.307535 202.35888 
L 378.198042 191.27088 
L 378.088209 203.101776 
L 377.978033 191.636784 
L 377.867519 203.833584 
L 377.756651 192.002688 
L 377.645435 204.02208 
L 377.533866 192.202272 
L 377.421945 204.776064 
L 377.309667 192.579264 
L 377.197037 203.112864 
L 377.084041 188.321472 
L 376.970682 199.409472 
L 376.856958 187.39008 
L 376.742867 201.438576 
L 376.628405 188.132976 
L 376.513578 199.220976 
L 376.39837 186.28128 
L 376.282785 198.289584 
L 376.16682 186.83568 
L 376.050473 199.58688 
L 375.933741 187.755984 
L 375.816629 197.546688 
L 375.69912 184.61808 
L 375.581219 196.448976 
L 375.462923 184.995072 
L 375.34423 195.528672 
L 375.225136 182.965968 
L 375.105646 196.460064 
L 374.985743 184.440672 
L 374.865432 197.003376 
L 374.74471 182.95488 
L 374.623573 196.637472 
L 374.502026 182.223072 
L 374.380053 195.162768 
L 374.257656 180.371376 
L 374.134834 193.311072 
L 374.011584 179.262576 
L 373.887901 191.836368 
L 373.763791 177.233472 
L 373.639236 191.836368 
L 373.51424 180.193968 
L 373.3888 194.419872 
L 373.262913 178.708176 
L 373.136576 189.973584 
L 373.009792 176.490576 
L 372.882544 189.60768 
L 372.754835 176.124672 
L 372.626664 188.321472 
L 372.498025 175.392864 
L 372.368916 187.035264 
L 372.23934 173.541168 
L 372.10928 186.103872 
L 371.978739 175.015872 
L 371.847714 189.430272 
L 371.7162 177.044976 
L 371.584195 189.796176 
L 371.451702 176.30208 
L 371.318703 186.469776 
L 371.185201 172.97568 
L 371.051192 185.549472 
L 370.916673 173.541168 
L 370.781639 187.955568 
L 370.646094 174.649968 
L 370.51002 187.212672 
L 370.373419 172.243872 
L 370.236287 184.995072 
L 370.098621 173.352672 
L 369.960417 185.360976 
L 369.821676 171.86688 
L 369.682381 183.697776 
L 369.542534 170.769168 
L 369.402131 183.886272 
L 369.261168 169.283376 
L 369.119647 182.95488 
L 368.977549 168.917472 
L 368.834877 182.588976 
L 368.691627 167.620176 
L 368.547792 181.657584 
L 368.40337 168.728976 
L 368.258362 182.588976 
L 368.112748 167.808672 
L 367.966531 179.262576 
L 367.819707 165.76848 
L 367.672269 178.708176 
L 367.524213 167.43168 
L 367.375542 180.005472 
L 367.226234 167.98608 
L 367.076292 183.886272 
L 366.92571 170.946576 
L 366.774484 183.143376 
L 366.622607 166.134384 
L 366.470083 177.588288 
L 366.316888 163.362384 
L 366.163026 174.827376 
L 366.008491 162.453168 
L 365.853276 177.056064 
L 365.697376 165.779568 
L 365.540793 177.976368 
L 365.383505 164.293776 
L 365.225512 176.85648 
L 365.066809 164.10528 
L 364.90739 176.679072 
L 364.747248 162.264672 
L 364.586385 177.41088 
L 364.424777 163.916784 
L 364.262426 177.96528 
L 364.099325 162.630576 
L 363.935467 175.381776 
L 363.770855 161.88768 
L 363.605462 173.895984 
L 363.439291 160.22448 
L 363.272334 173.907072 
L 363.104584 160.978464 
L 362.936034 172.798272 
L 362.766684 156.89808 
L 362.596509 171.489888 
L 362.42551 158.56128 
L 362.253678 174.08448 
L 362.081007 159.492672 
L 361.907486 173.164176 
L 361.733119 158.938272 
L 361.557876 171.135072 
L 361.38176 157.829472 
L 361.204761 170.026272 
L 361.02687 158.195376 
L 360.848078 170.75808 
L 360.668386 157.45248 
L 360.487765 169.64928 
L 360.306216 156.89808 
L 360.123728 169.837776 
L 359.940293 157.275072 
L 359.755899 168.917472 
L 359.570548 155.78928 
L 359.384208 167.243184 
L 359.19688 155.046384 
L 359.008553 168.728976 
L 358.819215 155.78928 
L 358.628858 169.09488 
L 358.437479 153.57168 
L 358.245046 167.065776 
L 358.051559 154.137168 
L 357.857006 167.808672 
L 357.661375 153.394272 
L 357.464665 166.145472 
L 357.266842 152.096976 
L 357.067905 166.511376 
L 356.86784 151.90848 
L 356.666636 165.591072 
L 356.464279 151.919568 
L 356.260766 165.036672 
L 356.056062 152.285472 
L 355.850165 165.402576 
L 355.64306 151.542576 
L 355.434733 164.471184 
L 355.22517 150.422688 
L 355.014367 162.619488 
L 354.802287 149.868288 
L 354.588925 161.699184 
L 354.374266 148.58208 
L 354.158294 159.858576 
L 353.940993 148.02768 
L 353.722359 163.55088 
L 353.50235 150.79968 
L 353.280962 162.264672 
L 353.058177 146.187072 
L 352.833978 162.264672 
L 352.608346 148.959072 
L 352.381275 163.561968 
L 352.152723 147.295872 
L 351.922681 159.67008 
L 351.691131 145.067184 
L 351.458052 159.858576 
L 351.223425 148.216176 
L 350.987241 160.601472 
L 350.749453 145.078272 
L 350.510054 159.869664 
L 350.26902 148.227264 
L 350.02633 160.978464 
L 349.781974 145.078272 
L 349.535901 159.11568 
L 349.288102 146.36448 
L 349.038551 159.67008 
L 348.787224 144.70128 
L 348.534095 157.263984 
L 348.279153 145.067184 
L 348.022343 158.372784 
L 347.763651 145.987488 
L 347.50305 157.263984 
L 347.240511 144.14688 
L 346.976006 157.275072 
L 346.709519 143.969472 
L 346.440991 157.829472 
L 346.170405 143.59248 
L 345.89773 158.195376 
L 345.622932 143.969472 
L 345.34598 156.166272 
L 345.066853 142.860672 
L 344.785487 156.166272 
L 344.50186 144.346464 
L 344.215937 156.166272 
L 343.92768 142.306272 
L 343.637051 157.086576 
L 343.344025 143.415072 
L 343.048532 159.858576 
L 342.750545 144.14688 
L 342.450021 159.304176 
L 342.146918 141.563376 
L 341.841191 156.720672 
L 341.53281 140.643072 
L 341.221696 154.314576 
L 340.907816 138.425472 
L 340.59112 154.314576 
L 340.271559 141.385968 
L 339.949097 154.868976 
L 339.623645 140.088672 
L 339.295166 152.096976 
L 338.963602 139.900176 
L 338.628895 153.57168 
L 338.290986 141.186384 
L 337.94983 154.12608 
L 337.605327 140.077584 
L 337.25743 152.651376 
L 336.906071 138.04848 
L 336.55118 149.69088 
L 336.192687 135.83088 
L 335.830537 148.959072 
L 335.464614 136.950768 
L 335.094859 150.433776 
L 334.721191 137.682576 
L 334.343526 150.988176 
L 333.961779 138.791376 
L 333.57588 150.24528 
L 333.185697 135.83088 
L 332.791153 149.13648 
L 332.392151 136.93968 
L 331.988589 153.205776 
L 331.580362 139.722768 
L 331.167382 153.948672 
L 330.749492 138.04848 
L 330.326598 144.512784 
L 329.898577 138.04848 
L 329.741629 145.998576 
L 329.425649 147.47328 
L 329.1868 145.266768 
L 329.106815 146.552976 
L 329.026649 145.998576 
L 328.865769 143.59248 
L 328.785077 143.215488 
L 328.623089 146.36448 
L 328.541816 147.107376 
L 328.296892 141.92928 
L 327.967654 147.295872 
L 327.884856 146.375568 
L 327.801864 143.603568 
L 327.551735 146.36448 
L 327.467955 145.632672 
L 327.383976 143.792064 
L 327.215441 146.91888 
L 327.130859 146.175984 
L 327.046073 147.839184 
L 326.961083 146.175984 
L 326.875914 149.313888 
L 326.790513 144.878688 
L 326.704906 145.25568 
L 326.533065 150.256368 
L 326.446856 149.147568 
L 326.273751 142.860672 
L 326.012519 146.91888 
L 325.837267 143.415072 
L 325.749314 143.415072 
L 325.661168 142.860672 
L 325.484159 144.889776 
L 325.39532 147.107376 
L 325.127483 143.415072 
L 324.947772 145.621584 
L 324.857572 146.730384 
L 324.403139 142.306272 
L 324.311535 145.266768 
L 324.219693 144.889776 
L 324.035289 142.48368 
L 323.942753 141.92928 
L 323.663596 144.889776 
L 323.476285 143.403984 
L 323.382242 144.70128 
L 323.287948 143.780976 
L 323.193401 144.889776 
L 323.098629 142.117776 
L 322.71686 144.889776 
L 322.42783 141.740784 
L 322.330949 140.631984 
L 322.038729 148.770576 
L 321.744071 143.03808 
L 321.546237 145.067184 
L 321.446903 145.444176 
L 321.347289 142.672176 
L 321.147243 144.335376 
L 321.046779 144.889776 
L 320.844988 140.088672 
L 320.743689 140.277168 
L 320.437945 146.91888 
L 320.232666 142.672176 
L 320.026156 143.403984 
L 319.818461 140.077584 
L 319.714139 140.077584 
L 319.504564 144.14688 
L 319.399308 144.889776 
L 319.187883 140.277168 
L 318.975152 143.226576 
L 318.761164 142.494768 
L 318.653666 140.643072 
L 318.545839 143.03808 
L 318.437682 141.92928 
L 318.329225 142.48368 
L 318.220402 142.306272 
L 318.111242 141.563376 
L 318.001743 142.672176 
L 317.891904 142.48368 
L 317.781756 143.958384 
L 317.671229 142.295184 
L 317.449133 143.215488 
L 317.225664 144.335376 
L 317.11338 142.494768 
L 316.887736 144.157968 
L 316.774405 143.415072 
L 316.546577 139.345776 
L 316.202089 145.821168 
L 315.970527 140.643072 
L 315.854173 139.534272 
L 315.620345 142.683264 
L 315.384923 138.979872 
L 315.26662 141.008976 
L 315.147956 141.008976 
L 314.789443 145.266768 
L 314.548432 141.008976 
L 314.305729 143.59248 
L 314.183749 143.59248 
L 313.938554 138.225888 
L 313.815297 138.04848 
L 313.691607 139.71168 
L 313.567483 144.70128 
L 313.442922 144.70128 
L 313.317956 145.25568 
L 313.19251 143.780976 
L 313.066616 144.512784 
L 312.813511 140.443488 
L 312.430362 141.563376 
L 312.301716 138.791376 
L 312.172639 140.26608 
L 312.043049 139.71168 
L 311.912982 141.92928 
L 311.782434 141.92928 
L 311.651401 143.03808 
L 311.51992 140.443488 
L 311.387908 140.631984 
L 311.2554 138.414384 
L 311.122394 138.968784 
L 310.854908 141.751872 
L 310.720382 142.860672 
L 310.449781 139.71168 
L 310.177131 141.020064 
L 309.902319 138.248064 
L 309.764106 138.425472 
L 309.625393 139.15728 
L 309.48609 138.968784 
L 309.346235 139.71168 
L 308.92336 137.871072 
L 308.781254 139.15728 
L 308.638574 139.15728 
L 308.495315 137.859984 
L 308.351516 138.236976 
L 308.207086 139.534272 
L 307.91644 134.544672 
L 307.770216 134.16768 
L 307.475981 141.92928 
L 307.327917 143.59248 
L 307.029913 140.26608 
L 306.880008 141.197472 
L 306.729418 140.277168 
L 306.578184 141.020064 
L 306.426299 138.802464 
L 306.1206 140.454576 
L 305.656963 134.899488 
L 305.187204 140.077584 
L 305.029202 139.900176 
L 304.870491 139.345776 
L 304.711111 140.831568 
L 304.390079 135.841968 
L 304.228462 135.464976 
L 304.066151 137.316672 
L 303.903042 136.762272 
L 303.739175 136.762272 
L 303.574544 137.871072 
L 303.409142 140.26608 
L 303.243012 138.236976 
L 303.076046 138.04848 
L 302.908287 139.71168 
L 302.739727 138.60288 
L 302.570359 138.414384 
L 302.400225 136.93968 
L 302.229216 139.900176 
L 302.057376 138.613968 
L 301.884694 141.020064 
L 301.711217 141.751872 
L 301.53683 143.59248 
L 301.185452 139.15728 
L 300.830596 135.287568 
L 300.651794 135.464976 
L 300.472083 135.27648 
L 300.291452 136.196784 
L 300.109892 135.83088 
L 299.744004 138.979872 
L 299.5596 139.900176 
L 299.374228 139.523184 
L 299.187935 137.859984 
L 298.812258 132.870384 
L 298.622911 133.61328 
L 298.048757 138.791376 
L 297.855259 142.48368 
L 297.465054 142.117776 
L 297.268381 142.117776 
L 297.070548 143.03808 
L 296.871599 143.403984 
L 296.268 138.791376 
L 296.064465 138.04848 
L 295.85975 136.207872 
L 295.653842 135.841968 
L 295.23845 141.197472 
L 295.028875 142.306272 
L 294.818049 140.454576 
L 294.605957 139.71168 
L 294.392647 140.443488 
L 294.177977 137.49408 
L 293.961993 137.49408 
L 293.526021 139.534272 
L 293.306067 138.802464 
L 293.084666 137.505168 
L 292.861869 138.425472 
L 292.637657 140.26608 
L 292.412081 139.900176 
L 292.184985 140.643072 
L 291.95642 139.722768 
L 291.726366 139.722768 
L 291.261781 144.157968 
L 291.027141 143.226576 
L 290.790931 138.414384 
L 290.553131 137.117088 
L 290.313718 138.780288 
L 290.072743 138.414384 
L 289.83004 138.60288 
L 289.585657 138.60288 
L 289.091832 139.15728 
L 288.842267 140.088672 
L 288.590927 141.940368 
L 288.337784 139.722768 
L 287.826066 138.425472 
L 287.56736 139.71168 
L 287.306745 139.523184 
L 287.044192 138.60288 
L 286.779671 140.643072 
L 286.513235 138.979872 
L 286.244692 140.088672 
L 285.974092 139.15728 
L 285.701401 141.751872 
L 285.149703 138.979872 
L 284.870546 139.345776 
L 284.589164 137.49408 
L 284.305522 138.791376 
L 284.019669 138.04848 
L 283.731397 139.534272 
L 283.440751 138.791376 
L 283.147694 137.128176 
L 282.852183 138.414384 
L 282.554269 138.225888 
L 282.253729 138.414384 
L 281.95061 138.414384 
L 281.33645 137.128176 
L 281.025412 136.573776 
L 280.394802 141.92928 
L 280.075223 141.563376 
L 279.752822 139.900176 
L 279.427352 136.019376 
L 279.098855 138.425472 
L 278.767273 138.60288 
L 278.432547 141.37488 
L 278.09472 140.997888 
L 277.409005 139.71168 
L 277.061089 138.236976 
L 276.70971 138.60288 
L 276.354906 136.38528 
L 275.996394 138.236976 
L 275.634203 138.791376 
L 275.268259 143.415072 
L 274.524907 140.454576 
L 274.147222 139.900176 
L 273.379512 144.523872 
L 272.989424 145.266768 
L 272.594859 143.969472 
L 272.195835 144.14688 
L 271.79225 140.26608 
L 271.384 139.900176 
L 270.971099 140.277168 
L 270.553186 142.494768 
L 270.130268 142.494768 
L 269.702223 143.780976 
L 269.269056 144.335376 
L 268.830377 145.444176 
L 268.38618 145.266768 
L 267.936324 143.969472 
L 267.480662 144.523872 
L 267.019183 144.889776 
L 266.551452 146.552976 
L 266.077442 147.107376 
L 265.596982 145.81008 
L 265.109894 146.91888 
L 264.616142 146.36448 
L 264.115237 146.91888 
L 263.607124 147.661776 
L 262.037546 140.631984 
L 261.498403 145.998576 
L 260.394773 148.781664 
L 259.829919 145.632672 
L 259.255708 146.91888 
L 258.672004 145.987488 
L 258.07849 147.650688 
L 257.474829 150.056784 
L 256.860854 149.879376 
L 256.235825 149.879376 
L 255.599534 148.770576 
L 254.951565 149.324976 
L 254.291483 149.324976 
L 253.619031 148.404672 
L 252.933316 150.988176 
L 252.234021 149.513472 
L 251.520596 150.988176 
L 250.792681 150.988176 
L 250.049218 154.203696 
L 249.289764 155.024208 
L 248.513617 154.18152 
L 248.356461 156.033216 
L 248.198365 159.72552 
L 247.960125 153.250128 
L 247.880273 156.210624 
L 247.80024 155.101824 
L 247.720025 153.438624 
L 247.639869 154.358928 
L 247.478525 160.27992 
L 247.072153 153.07272 
L 246.990265 155.656224 
L 246.908434 153.804528 
L 246.826165 155.656224 
L 246.743704 152.152416 
L 246.495409 158.06232 
L 246.412172 157.330512 
L 246.328737 157.50792 
L 246.161526 160.091424 
L 245.993267 154.547424 
L 245.908835 154.913328 
L 245.824456 157.319424 
L 245.739619 156.210624 
L 245.569332 158.428224 
L 245.48388 159.914016 
L 245.31261 153.62712 
L 245.226534 154.18152 
L 245.140247 155.84472 
L 244.967298 162.131616 
L 244.880374 161.94312 
L 244.793236 158.982624 
L 244.705882 161.38872 
L 244.618575 158.250816 
L 244.530788 159.17112 
L 244.442782 157.685328 
L 244.354556 159.902928 
L 244.177706 156.39912 
L 244.088814 155.84472 
L 243.999698 157.50792 
L 243.731263 151.586928 
L 243.279102 158.428224 
L 242.913214 154.73592 
L 242.821077 156.39912 
L 242.728699 154.370016 
L 242.636357 155.656224 
L 242.543494 154.358928 
L 242.450386 156.210624 
L 242.357032 155.478816 
L 242.26343 153.815616 
L 242.169862 156.587616 
L 242.075763 155.101824 
L 241.981412 158.982624 
L 241.697122 152.51832 
L 241.410237 156.576528 
L 241.217967 155.656224 
L 240.927438 160.83432 
L 240.634205 152.329824 
L 240.535917 152.706816 
L 240.239698 155.645136 
L 240.040929 160.268832 
L 239.940973 161.200224 
L 239.840734 158.428224 
L 239.740209 158.61672 
L 239.639397 159.348528 
L 239.5386 158.982624 
L 239.43721 159.902928 
L 239.335528 157.50792 
L 239.131282 158.805216 
L 239.029022 158.61672 
L 238.822989 151.775424 
L 238.511982 160.27992 
L 238.407597 157.685328 
L 238.092892 162.863424 
L 237.987259 162.674928 
L 237.668769 156.210624 
L 237.347057 159.902928 
L 237.239165 159.72552 
L 236.913824 155.478816 
L 236.804598 154.73592 
L 236.695363 152.329824 
L 236.364617 159.537024 
L 236.14272 153.07272 
L 235.694361 159.348528 
L 235.581291 159.348528 
L 235.354058 154.536336 
L 235.239891 154.358928 
L 234.895506 162.297936 
L 234.664152 158.971536 
L 234.547729 157.685328 
L 234.430921 158.61672 
L 234.313725 156.39912 
L 233.960141 159.914016 
L 233.841369 158.61672 
L 233.602981 158.805216 
L 233.483 160.102512 
L 233.120591 155.467728 
L 232.877269 160.645824 
L 232.754793 161.754624 
L 232.508928 158.794128 
L 232.385165 158.051232 
L 232.260967 158.239728 
L 232.13633 161.200224 
L 232.011251 161.011728 
L 231.886106 161.754624 
L 231.760136 158.428224 
L 231.633716 158.805216 
L 231.506841 158.805216 
L 231.379892 160.83432 
L 231.2521 159.902928 
L 230.995121 156.765024 
L 230.865927 156.587616 
L 230.736648 158.805216 
L 230.606503 157.142016 
L 230.475876 158.61672 
L 230.344764 158.428224 
L 230.21356 159.537024 
L 230.081468 158.794128 
L 229.682204 153.061632 
L 229.27878 162.486432 
L 229.007383 160.27992 
L 228.870693 159.914016 
L 228.595715 161.577216 
L 228.318997 158.982624 
L 228.17961 156.022128 
L 228.039672 155.467728 
L 227.758544 157.319424 
L 227.616923 156.576528 
L 227.18862 163.60632 
L 227.045124 158.439312 
L 226.900606 158.993712 
L 226.755495 154.18152 
L 226.609786 158.794128 
L 226.463912 159.348528 
L 226.316992 162.309024 
L 226.021304 156.022128 
L 225.872526 154.724832 
L 225.422848 162.309024 
L 225.271522 160.823232 
L 224.96737 155.090736 
L 224.660112 157.862736 
L 224.505474 158.794128 
L 224.350624 156.576528 
L 224.194622 157.50792 
L 224.037928 157.50792 
L 223.880535 157.330512 
L 223.564107 159.17112 
L 223.404584 161.200224 
L 222.922129 155.667312 
L 222.759672 155.29032 
L 222.596464 157.319424 
L 222.432498 157.496832 
L 222.102762 158.239728 
L 221.936482 159.72552 
L 221.769416 159.72552 
L 221.601555 160.83432 
L 221.4334 160.83432 
L 221.26393 163.983312 
L 221.093643 161.577216 
L 220.922531 164.526624 
L 220.750586 157.319424 
L 220.404685 152.884224 
L 220.054835 158.428224 
L 219.879132 158.239728 
L 219.702017 159.902928 
L 219.524009 158.971536 
L 219.345099 159.348528 
L 218.803413 157.319424 
L 218.620805 157.685328 
L 218.437248 159.17112 
L 218.253287 158.250816 
L 218.067805 154.370016 
L 217.881343 154.370016 
L 217.693891 150.666624 
L 217.505439 155.84472 
L 217.316546 153.993024 
L 216.934548 161.754624 
L 216.741988 163.229328 
L 216.548955 163.783728 
L 216.354275 158.794128 
L 216.158516 159.537024 
L 215.961665 157.496832 
L 215.365045 163.040832 
L 214.75817 153.804528 
L 214.3473 159.17112 
L 214.140059 160.645824 
L 213.931593 161.011728 
L 213.722522 162.297936 
L 212.871691 160.080336 
L 212.655579 158.051232 
L 212.219344 156.95352 
L 211.999189 158.250816 
L 211.77832 157.50792 
L 211.55539 155.656224 
L 211.331043 155.101824 
L 211.105261 156.95352 
L 210.878711 161.022816 
L 210.65001 162.863424 
L 210.419817 161.011728 
L 210.188114 162.309024 
L 209.95488 160.83432 
L 209.720803 161.38872 
L 209.484452 159.17112 
L 209.246508 159.17112 
L 208.766482 152.884224 
L 208.523634 152.695728 
L 208.032868 157.873824 
L 207.784904 158.428224 
L 207.535938 158.239728 
L 207.031152 157.319424 
L 206.776027 155.467728 
L 206.000187 162.686016 
L 205.472793 160.27992 
L 205.206917 156.765024 
L 204.938213 156.39912 
L 204.667449 157.130928 
L 204.394593 155.833632 
L 204.120441 155.279232 
L 203.843308 155.833632 
L 203.563983 161.011728 
L 203.28243 163.229328 
L 202.998615 161.566128 
L 202.713363 162.863424 
L 202.424917 161.94312 
L 201.546061 156.022128 
L 201.24788 159.525936 
L 200.947159 159.348528 
L 200.643856 161.754624 
L 200.337925 159.914016 
L 200.03025 161.022816 
L 199.718933 158.805216 
L 199.404846 161.577216 
L 199.08794 159.17112 
L 198.769129 161.94312 
L 198.44644 159.72552 
L 197.792078 157.319424 
L 197.460293 157.873824 
L 196.788241 163.240416 
L 196.446842 163.05192 
L 196.10211 162.49752 
L 195.753979 160.645824 
L 195.403443 161.011728 
L 195.04832 161.754624 
L 193.962112 159.17112 
L 193.592116 160.091424 
L 193.218202 160.457328 
L 192.840286 160.27992 
L 192.458282 160.468416 
L 192.073266 161.022816 
L 191.682826 161.200224 
L 191.288022 160.823232 
L 190.888753 159.902928 
L 190.077644 158.794128 
L 189.66437 159.160032 
L 189.246201 157.873824 
L 188.823021 158.982624 
L 188.396002 158.428224 
L 187.5235 161.200224 
L 187.079029 159.902928 
L 186.630252 158.982624 
L 186.174321 157.496832 
L 185.712425 161.200224 
L 185.244407 163.972224 
L 184.770102 164.526624 
L 184.290793 163.783728 
L 183.803414 160.091424 
L 183.309215 158.982624 
L 182.808 155.101824 
L 182.301106 158.982624 
L 181.78527 157.50792 
L 181.261785 161.577216 
L 180.730424 160.645824 
L 180.190944 162.309024 
L 179.644751 161.011728 
L 179.088293 162.120528 
L 178.522926 162.309024 
L 177.948358 165.081024 
L 177.364287 163.60632 
L 177.247369 162.309024 
L 177.128282 158.61672 
L 176.651488 168.04152 
L 176.530371 167.864112 
L 176.288707 160.091424 
L 176.168167 160.268832 
L 176.045378 160.634736 
L 175.924003 165.446928 
L 175.80036 162.120528 
L 175.678138 162.120528 
L 175.55363 157.685328 
L 175.305165 163.794816 
L 175.054938 160.091424 
L 174.928209 160.091424 
L 174.802926 161.38872 
L 174.675288 157.50792 
L 174.547186 157.50792 
L 174.420541 156.022128 
L 174.03397 161.200224 
L 173.774538 153.993024 
L 173.645086 152.884224 
L 173.513185 156.022128 
L 173.38079 155.101824 
L 172.850208 160.468416 
L 172.717316 159.914016 
L 172.581897 158.439312 
L 172.447989 158.805216 
L 172.174545 163.05192 
L 171.90103 158.982624 
L 171.62538 161.932032 
L 171.347562 155.101824 
L 171.06754 158.61672 
L 170.925631 157.50792 
L 170.78528 158.61672 
L 170.2139 168.030432 
L 170.068512 168.218928 
L 169.924705 163.417824 
L 169.778118 163.794816 
L 169.630921 162.874512 
L 169.485317 162.686016 
L 169.336891 161.754624 
L 169.190068 164.892528 
L 168.892329 163.972224 
L 168.741384 164.892528 
L 168.592058 165.081024 
L 168.286925 162.486432 
L 168.135661 164.892528 
L 167.673288 161.011728 
L 167.519366 164.338128 
L 167.362423 163.05192 
L 167.048797 154.370016 
L 166.889744 156.587616 
L 166.571873 165.081024 
L 166.251114 159.714432 
L 166.090852 159.537024 
L 165.765674 165.081024 
L 165.600721 165.081024 
L 165.434994 165.446928 
L 165.270976 168.218928 
L 165.10369 168.950736 
L 164.938123 164.704032 
L 164.602102 146.231424 
L 164.43161 145.31112 
L 164.090711 157.696416 
L 163.917725 166.189824 
L 163.746489 167.110128 
L 163.571804 164.704032 
L 163.398878 163.972224 
L 162.693219 157.696416 
L 162.332323 149.003424 
L 161.970435 157.696416 
L 161.6048 146.97432 
L 161.421942 146.042928 
L 161.050553 161.377632 
L 160.861972 164.526624 
L 160.672379 163.05192 
L 160.484615 163.972224 
L 160.292979 160.645824 
L 159.909458 165.26952 
L 159.717582 167.664528 
L 159.521726 164.526624 
L 159.327725 159.160032 
L 159.129689 157.319424 
L 158.930536 156.95352 
L 158.733251 156.033216 
L 158.531843 156.587616 
L 158.128596 163.229328 
L 157.720692 158.982624 
L 157.51651 160.091424 
L 157.30802 162.863424 
L 157.098292 160.268832 
L 156.890468 163.229328 
L 156.678238 163.595232 
L 156.46792 169.327728 
L 156.040254 165.258432 
L 155.822835 161.566128 
L 155.607345 163.05192 
L 155.165746 171.556416 
L 154.721913 163.417824 
L 154.499577 164.16072 
L 154.27243 162.49752 
L 153.589027 155.84472 
L 153.355927 154.924416 
L 153.121279 150.85512 
L 152.888598 150.666624 
L 152.173994 153.993024 
L 151.690648 157.319424 
L 150.951125 147.517632 
L 150.703643 150.101136 
L 150.450625 155.467728 
L 150.199598 157.130928 
L 149.94293 162.120528 
L 149.427828 159.525936 
L 149.169397 154.536336 
L 148.905101 156.388032 
L 148.638812 160.268832 
L 148.374519 167.476032 
L 148.104183 170.990928 
L 147.835843 170.070624 
L 147.288821 157.496832 
L 147.010011 156.576528 
L 146.449942 166.001328 
L 146.164402 167.664528 
L 145.880847 167.110128 
L 145.590648 173.397024 
L 145.302429 171.356832 
L 144.714379 162.297936 
L 144.414392 162.297936 
L 144.116369 159.902928 
L 143.811236 151.775424 
L 143.503443 147.894624 
L 143.197598 151.398432 
L 142.884386 158.794128 
L 142.573108 161.566128 
L 141.937374 153.62712 
L 140.959304 172.665216 
L 139.95337 155.29032 
L 139.615022 157.50792 
L 139.268199 161.754624 
L 138.923189 164.16072 
L 138.569469 161.94312 
L 138.21753 160.468416 
L 137.856634 161.022816 
L 137.492011 163.240416 
L 137.129111 162.863424 
L 136.756858 161.566128 
L 136.386283 159.537024 
L 136.006073 164.903616 
L 135.627492 165.26952 
L 135.238977 161.566128 
L 134.852036 151.209936 
L 134.454847 153.061632 
L 134.053139 153.061632 
L 133.652907 158.239728 
L 133.241918 155.467728 
L 132.832331 155.101824 
L 132.411621 154.18152 
L 131.992231 155.84472 
L 131.56133 161.38872 
L 131.131656 161.754624 
L 130.690057 161.38872 
L 130.242866 160.091424 
L 129.338018 153.804528 
L 128.880238 153.62712 
L 128.409372 156.95352 
L 127.939312 161.38872 
L 127.455642 163.05192 
L 126.972624 161.011728 
L 126.475435 160.091424 
L 125.971146 162.674928 
L 125.46724 167.110128 
L 124.948237 168.407424 
L 124.429411 162.674928 
L 123.89481 161.566128 
L 123.360153 161.011728 
L 122.808987 163.972224 
L 122.257503 163.05192 
L 121.688712 160.645824 
L 120.531728 157.130928 
L 119.335547 151.398432 
L 118.717255 150.112224 
L 118.097419 151.032528 
L 117.456862 150.30072 
L 115.472578 172.842624 
L 114.792509 168.773328 
L 114.088474 165.82392 
L 113.380944 167.110128 
L 112.647894 164.71512 
L 111.910594 159.902928 
L 111.146035 157.319424 
L 110.376347 160.268832 
L 109.57745 162.674928 
L 108.760058 162.674928 
L 107.935932 160.091424 
L 107.079169 166.189824 
L 106.214368 169.327728 
L 105.314249 170.436528 
L 104.404549 164.704032 
L 103.456452 156.765024 
L 102.496935 153.62712 
L 101.495457 154.004112 
L 100.464744 156.95352 
L 99.419121 155.29032 
L 98.325006 150.478128 
L 97.213023 148.08312 
L 96.047195 149.003424 
L 94.859858 152.51832 
L 93.612254 156.576528 
L 92.338606 157.130928 
L 90.996889 154.724832 
L 89.602169 154.913328 
L 88.172205 156.210624 
L 86.658808 161.38872 
L 85.10176 161.577216 
L 83.447607 162.49752 
L 81.738679 157.50792 
L 79.914895 160.27992 
L 78.021246 162.49752 
L 73.832727 162.49752 
L 73.832727 162.49752 
" clip-path="url(#p2148c5a195)" style="fill: none; stroke: #ff0000; stroke-width: 1.5; stroke-linecap: square"/>
   </g>
   <g id="patch_3">
    <path d="M 57.6 307.584 
L 57.6 41.472 
" style="fill: none; stroke: #000000; stroke-width: 0.8; stroke-linejoin: miter; stroke-linecap: square"/>
   </g>
   <g id="patch_4">
    <path d="M 414.72 307.584 
L 414.72 41.472 
" style="fill: none; stroke: #000000; stroke-width: 0.8; stroke-linejoin: miter; stroke-linecap: square"/>
   </g>
   <g id="patch_5">
    <path d="M 57.6 307.584 
L 414.72 307.584 
" style="fill: none; stroke: #000000; stroke-width: 0.8; stroke-linejoin: miter; stroke-linecap: square"/>
   </g>
   <g id="patch_6">
    <path d="M 57.6 41.472 
L 414.72 41.472 
" style="fill: none; stroke: #000000; stroke-width: 0.8; stroke-linejoin: miter; stroke-linecap: square"/>
   </g>
   <g id="text_17">
    <!-- LMX2491 Low jitter (frac, 3, no dith.) -->
    <g transform="translate(125.926875 35.472)scale(0.12 -0.12)">
     <defs>
      <path id="DejaVuSans-4c" d="M 628 4666 
L 1259 4666 
L 1259 531 
L 3531 531 
L 3531 0 
L 628 0 
L 628 4666 
z
" transform="scale(0.015625)"/>
      <path id="DejaVuSans-4d" d="M 628 4666 
L 1569 4666 
L 2759 1491 
L 3956 4666 
L 4897 4666 
L 4897 0 
L 4281 0 
L 4281 4097 
L 3078 897 
L 2444 897 
L 1241 4097 
L 1241 0 
L 628 0 
L 628 4666 
z
" transform="scale(0.015625)"/>
      <path id="DejaVuSans-58" d="M 403 4666 
L 1081 4666 
L 2241 2931 
L 3406 4666 
L 4084 4666 
L 2584 2425 
L 4184 0 
L 3506 0 
L 2194 1984 
L 872 0 
L 191 0 
L 1856 2491 
L 403 4666 
z
" transform="scale(0.015625)"/>
      <path id="DejaVuSans-77" d="M 269 3500 
L 844 3500 
L 1563 769 
L 2278 3500 
L 2956 3500 
L 3675 769 
L 4391 3500 
L 4966 3500 
L 4050 0 
L 3372 0 
L 2619 2869 
L 1863 0 
L 1184 0 
L 269 3500 
z
" transform="scale(0.015625)"/>
      <path id="DejaVuSans-6a" d="M 603 3500 
L 1178 3500 
L 1178 -63 
Q 1178 -731 923 -1031 
Q 669 -1331 103 -1331 
L -116 -1331 
L -116 -844 
L 38 -844 
Q 366 -844 484 -692 
Q 603 -541 603 -63 
L 603 3500 
z
M 603 4863 
L 1178 4863 
L 1178 4134 
L 603 4134 
L 603 4863 
z
" transform="scale(0.015625)"/>
      <path id="DejaVuSans-74" d="M 1172 4494 
L 1172 3500 
L 2356 3500 
L 2356 3053 
L 1172 3053 
L 1172 1153 
Q 1172 725 1289 603 
Q 1406 481 1766 481 
L 2356 481 
L 2356 0 
L 1766 0 
Q 1100 0 847 248 
Q 594 497 594 1153 
L 594 3053 
L 172 3053 
L 172 3500 
L 594 3500 
L 594 4494 
L 1172 4494 
z
" transform="scale(0.015625)"/>
      <path id="DejaVuSans-28" d="M 1984 4856 
Q 1566 4138 1362 3434 
Q 1159 2731 1159 2009 
Q 1159 1288 1364 580 
Q 1569 -128 1984 -844 
L 1484 -844 
Q 1016 -109 783 600 
Q 550 1309 550 2009 
Q 550 2706 781 3412 
Q 1013 4119 1484 4856 
L 1984 4856 
z
" transform="scale(0.015625)"/>
      <path id="DejaVuSans-66" d="M 2375 4863 
L 2375 4384 
L 1825 4384 
Q 1516 4384 1395 4259 
Q 1275 4134 1275 3809 
L 1275 3500 
L 2222 3500 
L 2222 3053 
L 1275 3053 
L 1275 0 
L 697 0 
L 697 3053 
L 147 3053 
L 147 3500 
L 697 3500 
L 697 3744 
Q 697 4328 969 4595 
Q 1241 4863 1831 4863 
L 2375 4863 
z
" transform="scale(0.015625)"/>
      <path id="DejaVuSans-2c" d="M 750 794 
L 1409 794 
L 1409 256 
L 897 -744 
L 494 -744 
L 750 256 
L 750 794 
z
" transform="scale(0.015625)"/>
      <path id="DejaVuSans-2e" d="M 684 794 
L 1344 794 
L 1344 0 
L 684 0 
L 684 794 
z
" transform="scale(0.015625)"/>
      <path id="DejaVuSans-29" d="M 513 4856 
L 1013 4856 
Q 1481 4119 1714 3412 
Q 1947 2706 1947 2009 
Q 1947 1309 1714 600 
Q 1481 -109 1013 -844 
L 513 -844 
Q 928 -128 1133 580 
Q 1338 1288 1338 2009 
Q 1338 2731 1133 3434 
Q 928 4138 513 4856 
z
" transform="scale(0.015625)"/>
     </defs>
     <use xlink:href="#DejaVuSans-4c"/>
     <use xlink:href="#DejaVuSans-4d" x="55.712891"/>
     <use xlink:href="#DejaVuSans-58" x="141.992188"/>
     <use xlink:href="#DejaVuSans-32" x="210.498047"/>
     <use xlink:href="#DejaVuSans-34" x="274.121094"/>
     <use xlink:href="#DejaVuSans-39" x="337.744141"/>
     <use xlink:href="#DejaVuSans-31" x="401.367188"/>
     <use xlink:href="#DejaVuSans-20" x="464.990234"/>
     <use xlink:href="#DejaVuSans-4c" x="496.777344"/>
     <use xlink:href="#DejaVuSans-6f" x="550.740234"/>
     <use xlink:href="#DejaVuSans-77" x="611.921875"/>
     <use xlink:href="#DejaVuSans-20" x="693.708984"/>
     <use xlink:href="#DejaVuSans-6a" x="725.496094"/>
     <use xlink:href="#DejaVuSans-69" x="753.279297"/>
     <use xlink:href="#DejaVuSans-74" x="781.0625"/>
     <use xlink:href="#DejaVuSans-74" x="820.271484"/>
     <use xlink:href="#DejaVuSans-65" x="859.480469"/>
     <use xlink:href="#DejaVuSans-72" x="921.003906"/>
     <use xlink:href="#DejaVuSans-20" x="962.117188"/>
     <use xlink:href="#DejaVuSans-28" x="993.904297"/>
     <use xlink:href="#DejaVuSans-66" x="1032.917969"/>
     <use xlink:href="#DejaVuSans-72" x="1068.123047"/>
     <use xlink:href="#DejaVuSans-61" x="1109.236328"/>
     <use xlink:href="#DejaVuSans-63" x="1170.515625"/>
     <use xlink:href="#DejaVuSans-2c" x="1225.496094"/>
     <use xlink:href="#DejaVuSans-20" x="1257.283203"/>
     <use xlink:href="#DejaVuSans-33" x="1289.070312"/>
     <use xlink:href="#DejaVuSans-2c" x="1352.693359"/>
     <use xlink:href="#DejaVuSans-20" x="1384.480469"/>
     <use xlink:href="#DejaVuSans-6e" x="1416.267578"/>
     <use xlink:href="#DejaVuSans-6f" x="1479.646484"/>
     <use xlink:href="#DejaVuSans-20" x="1540.828125"/>
     <use xlink:href="#DejaVuSans-64" x="1572.615234"/>
     <use xlink:href="#DejaVuSans-69" x="1636.091797"/>
     <use xlink:href="#DejaVuSans-74" x="1663.875"/>
     <use xlink:href="#DejaVuSans-68" x="1703.083984"/>
     <use xlink:href="#DejaVuSans-2e" x="1766.462891"/>
     <use xlink:href="#DejaVuSans-29" x="1798.25"/>
    </g>
   </g>
   <g id="legend_1">
    <g id="patch_7">
     <path d="M 332.0575 64.150125 
L 407.72 64.150125 
Q 409.72 64.150125 409.72 62.150125 
L 409.72 48.472 
Q 409.72 46.472 407.72 46.472 
L 332.0575 46.472 
Q 330.0575 46.472 330.0575 48.472 
L 330.0575 62.150125 
Q 330.0575 64.150125 332.0575 64.150125 
z
" style="fill: #ffffff; opacity: 0.8; stroke: #cccccc; stroke-linejoin: miter"/>
    </g>
    <g id="line2d_51">
     <path d="M 334.0575 54.570438 
L 344.0575 54.570438 
L 354.0575 54.570438 
" style="fill: none; stroke: #ff0000; stroke-width: 1.5; stroke-linecap: square"/>
    </g>
    <g id="text_18">
     <!-- 655 MHz -->
     <g transform="translate(362.0575 58.070438)scale(0.1 -0.1)">
      <use xlink:href="#DejaVuSans-36"/>
      <use xlink:href="#DejaVuSans-35" x="63.623047"/>
      <use xlink:href="#DejaVuSans-35" x="127.246094"/>
      <use xlink:href="#DejaVuSans-20" x="190.869141"/>
      <use xlink:href="#DejaVuSans-4d" x="222.65625"/>
      <use xlink:href="#DejaVuSans-48" x="308.935547"/>
      <use xlink:href="#DejaVuSans-7a" x="384.130859"/>
     </g>
    </g>
   </g>
  </g>
 </g>
 <defs>
  <clipPath id="p2148c5a195">
   <rect x="57.6" y="41.472" width="357.12" height="266.112"/>
  </clipPath>
 </defs>
</svg>
