<?xml version="1.0" encoding="utf-8" standalone="no"?>
<!DOCTYPE svg PUBLIC "-//W3C//DTD SVG 1.1//EN"
  "http://www.w3.org/Graphics/SVG/1.1/DTD/svg11.dtd">
<svg xmlns:xlink="http://www.w3.org/1999/xlink" width="460.8pt" height="345.6pt" viewBox="0 0 460.8 345.6" xmlns="http://www.w3.org/2000/svg" version="1.1">
 <metadata>
  <rdf:RDF xmlns:dc="http://purl.org/dc/elements/1.1/" xmlns:cc="http://creativecommons.org/ns#" xmlns:rdf="http://www.w3.org/1999/02/22-rdf-syntax-ns#">
   <cc:Work>
    <dc:type rdf:resource="http://purl.org/dc/dcmitype/StillImage"/>
    <dc:date>2022-02-24T19:55:12.242220</dc:date>
    <dc:format>image/svg+xml</dc:format>
    <dc:creator>
     <cc:Agent>
      <dc:title>Matplotlib v3.5.1, https://matplotlib.org/</dc:title>
     </cc:Agent>
    </dc:creator>
   </cc:Work>
  </rdf:RDF>
 </metadata>
 <defs>
  <style type="text/css">*{stroke-linejoin: round; stroke-linecap: butt}</style>
 </defs>
 <g id="figure_1">
  <g id="patch_1">
   <path d="M 0 345.6 
L 460.8 345.6 
L 460.8 0 
L 0 0 
z
" style="fill: #ffffff"/>
  </g>
  <g id="axes_1">
   <g id="patch_2">
    <path d="M 57.6 307.584 
L 414.72 307.584 
L 414.72 41.472 
L 57.6 41.472 
z
" style="fill: #ffffff"/>
   </g>
   <g id="matplotlib.axis_1">
    <g id="xtick_1">
     <g id="line2d_1">
      <defs>
       <path id="mc9a1ea0f17" d="M 0 0 
L 0 3.5 
" style="stroke: #000000; stroke-width: 0.8"/>
      </defs>
      <g>
       <use xlink:href="#mc9a1ea0f17" x="71.642198" y="307.584" style="stroke: #000000; stroke-width: 0.8"/>
      </g>
     </g>
     <g id="text_1">
      <!-- $\mathdefault{10^{3}}$ -->
      <g transform="translate(62.842198 322.182437)scale(0.1 -0.1)">
       <defs>
        <path id="DejaVuSans-31" d="M 794 531 
L 1825 531 
L 1825 4091 
L 703 3866 
L 703 4441 
L 1819 4666 
L 2450 4666 
L 2450 531 
L 3481 531 
L 3481 0 
L 794 0 
L 794 531 
z
" transform="scale(0.015625)"/>
        <path id="DejaVuSans-30" d="M 2034 4250 
Q 1547 4250 1301 3770 
Q 1056 3291 1056 2328 
Q 1056 1369 1301 889 
Q 1547 409 2034 409 
Q 2525 409 2770 889 
Q 3016 1369 3016 2328 
Q 3016 3291 2770 3770 
Q 2525 4250 2034 4250 
z
M 2034 4750 
Q 2819 4750 3233 4129 
Q 3647 3509 3647 2328 
Q 3647 1150 3233 529 
Q 2819 -91 2034 -91 
Q 1250 -91 836 529 
Q 422 1150 422 2328 
Q 422 3509 836 4129 
Q 1250 4750 2034 4750 
z
" transform="scale(0.015625)"/>
        <path id="DejaVuSans-33" d="M 2597 2516 
Q 3050 2419 3304 2112 
Q 3559 1806 3559 1356 
Q 3559 666 3084 287 
Q 2609 -91 1734 -91 
Q 1441 -91 1130 -33 
Q 819 25 488 141 
L 488 750 
Q 750 597 1062 519 
Q 1375 441 1716 441 
Q 2309 441 2620 675 
Q 2931 909 2931 1356 
Q 2931 1769 2642 2001 
Q 2353 2234 1838 2234 
L 1294 2234 
L 1294 2753 
L 1863 2753 
Q 2328 2753 2575 2939 
Q 2822 3125 2822 3475 
Q 2822 3834 2567 4026 
Q 2313 4219 1838 4219 
Q 1578 4219 1281 4162 
Q 984 4106 628 3988 
L 628 4550 
Q 988 4650 1302 4700 
Q 1616 4750 1894 4750 
Q 2613 4750 3031 4423 
Q 3450 4097 3450 3541 
Q 3450 3153 3228 2886 
Q 3006 2619 2597 2516 
z
" transform="scale(0.015625)"/>
       </defs>
       <use xlink:href="#DejaVuSans-31" transform="translate(0 0.765625)"/>
       <use xlink:href="#DejaVuSans-30" transform="translate(63.623047 0.765625)"/>
       <use xlink:href="#DejaVuSans-33" transform="translate(128.203125 39.046875)scale(0.7)"/>
      </g>
     </g>
    </g>
    <g id="xtick_2">
     <g id="line2d_2">
      <g>
       <use xlink:href="#mc9a1ea0f17" x="152.948678" y="307.584" style="stroke: #000000; stroke-width: 0.8"/>
      </g>
     </g>
     <g id="text_2">
      <!-- $\mathdefault{10^{4}}$ -->
      <g transform="translate(144.148678 322.182437)scale(0.1 -0.1)">
       <defs>
        <path id="DejaVuSans-34" d="M 2419 4116 
L 825 1625 
L 2419 1625 
L 2419 4116 
z
M 2253 4666 
L 3047 4666 
L 3047 1625 
L 3713 1625 
L 3713 1100 
L 3047 1100 
L 3047 0 
L 2419 0 
L 2419 1100 
L 313 1100 
L 313 1709 
L 2253 4666 
z
" transform="scale(0.015625)"/>
       </defs>
       <use xlink:href="#DejaVuSans-31" transform="translate(0 0.684375)"/>
       <use xlink:href="#DejaVuSans-30" transform="translate(63.623047 0.684375)"/>
       <use xlink:href="#DejaVuSans-34" transform="translate(128.203125 38.965625)scale(0.7)"/>
      </g>
     </g>
    </g>
    <g id="xtick_3">
     <g id="line2d_3">
      <g>
       <use xlink:href="#mc9a1ea0f17" x="234.255157" y="307.584" style="stroke: #000000; stroke-width: 0.8"/>
      </g>
     </g>
     <g id="text_3">
      <!-- $\mathdefault{10^{5}}$ -->
      <g transform="translate(225.455157 322.182437)scale(0.1 -0.1)">
       <defs>
        <path id="DejaVuSans-35" d="M 691 4666 
L 3169 4666 
L 3169 4134 
L 1269 4134 
L 1269 2991 
Q 1406 3038 1543 3061 
Q 1681 3084 1819 3084 
Q 2600 3084 3056 2656 
Q 3513 2228 3513 1497 
Q 3513 744 3044 326 
Q 2575 -91 1722 -91 
Q 1428 -91 1123 -41 
Q 819 9 494 109 
L 494 744 
Q 775 591 1075 516 
Q 1375 441 1709 441 
Q 2250 441 2565 725 
Q 2881 1009 2881 1497 
Q 2881 1984 2565 2268 
Q 2250 2553 1709 2553 
Q 1456 2553 1204 2497 
Q 953 2441 691 2322 
L 691 4666 
z
" transform="scale(0.015625)"/>
       </defs>
       <use xlink:href="#DejaVuSans-31" transform="translate(0 0.684375)"/>
       <use xlink:href="#DejaVuSans-30" transform="translate(63.623047 0.684375)"/>
       <use xlink:href="#DejaVuSans-35" transform="translate(128.203125 38.965625)scale(0.7)"/>
      </g>
     </g>
    </g>
    <g id="xtick_4">
     <g id="line2d_4">
      <g>
       <use xlink:href="#mc9a1ea0f17" x="315.561636" y="307.584" style="stroke: #000000; stroke-width: 0.8"/>
      </g>
     </g>
     <g id="text_4">
      <!-- $\mathdefault{10^{6}}$ -->
      <g transform="translate(306.761636 322.182437)scale(0.1 -0.1)">
       <defs>
        <path id="DejaVuSans-36" d="M 2113 2584 
Q 1688 2584 1439 2293 
Q 1191 2003 1191 1497 
Q 1191 994 1439 701 
Q 1688 409 2113 409 
Q 2538 409 2786 701 
Q 3034 994 3034 1497 
Q 3034 2003 2786 2293 
Q 2538 2584 2113 2584 
z
M 3366 4563 
L 3366 3988 
Q 3128 4100 2886 4159 
Q 2644 4219 2406 4219 
Q 1781 4219 1451 3797 
Q 1122 3375 1075 2522 
Q 1259 2794 1537 2939 
Q 1816 3084 2150 3084 
Q 2853 3084 3261 2657 
Q 3669 2231 3669 1497 
Q 3669 778 3244 343 
Q 2819 -91 2113 -91 
Q 1303 -91 875 529 
Q 447 1150 447 2328 
Q 447 3434 972 4092 
Q 1497 4750 2381 4750 
Q 2619 4750 2861 4703 
Q 3103 4656 3366 4563 
z
" transform="scale(0.015625)"/>
       </defs>
       <use xlink:href="#DejaVuSans-31" transform="translate(0 0.765625)"/>
       <use xlink:href="#DejaVuSans-30" transform="translate(63.623047 0.765625)"/>
       <use xlink:href="#DejaVuSans-36" transform="translate(128.203125 39.046875)scale(0.7)"/>
      </g>
     </g>
    </g>
    <g id="xtick_5">
     <g id="line2d_5">
      <g>
       <use xlink:href="#mc9a1ea0f17" x="396.868116" y="307.584" style="stroke: #000000; stroke-width: 0.8"/>
      </g>
     </g>
     <g id="text_5">
      <!-- $\mathdefault{10^{7}}$ -->
      <g transform="translate(388.068116 322.182437)scale(0.1 -0.1)">
       <defs>
        <path id="DejaVuSans-37" d="M 525 4666 
L 3525 4666 
L 3525 4397 
L 1831 0 
L 1172 0 
L 2766 4134 
L 525 4134 
L 525 4666 
z
" transform="scale(0.015625)"/>
       </defs>
       <use xlink:href="#DejaVuSans-31" transform="translate(0 0.684375)"/>
       <use xlink:href="#DejaVuSans-30" transform="translate(63.623047 0.684375)"/>
       <use xlink:href="#DejaVuSans-37" transform="translate(128.203125 38.965625)scale(0.7)"/>
      </g>
     </g>
    </g>
    <g id="xtick_6">
     <g id="line2d_6">
      <defs>
       <path id="m469cac9ba3" d="M 0 0 
L 0 2 
" style="stroke: #000000; stroke-width: 0.6"/>
      </defs>
      <g>
       <use xlink:href="#m469cac9ba3" x="59.047665" y="307.584" style="stroke: #000000; stroke-width: 0.6"/>
      </g>
     </g>
    </g>
    <g id="xtick_7">
     <g id="line2d_7">
      <g>
       <use xlink:href="#m469cac9ba3" x="63.762786" y="307.584" style="stroke: #000000; stroke-width: 0.6"/>
      </g>
     </g>
    </g>
    <g id="xtick_8">
     <g id="line2d_8">
      <g>
       <use xlink:href="#m469cac9ba3" x="67.921818" y="307.584" style="stroke: #000000; stroke-width: 0.6"/>
      </g>
     </g>
    </g>
    <g id="xtick_9">
     <g id="line2d_9">
      <g>
       <use xlink:href="#m469cac9ba3" x="96.117887" y="307.584" style="stroke: #000000; stroke-width: 0.6"/>
      </g>
     </g>
    </g>
    <g id="xtick_10">
     <g id="line2d_10">
      <g>
       <use xlink:href="#m469cac9ba3" x="110.435248" y="307.584" style="stroke: #000000; stroke-width: 0.6"/>
      </g>
     </g>
    </g>
    <g id="xtick_11">
     <g id="line2d_11">
      <g>
       <use xlink:href="#m469cac9ba3" x="120.593577" y="307.584" style="stroke: #000000; stroke-width: 0.6"/>
      </g>
     </g>
    </g>
    <g id="xtick_12">
     <g id="line2d_12">
      <g>
       <use xlink:href="#m469cac9ba3" x="128.472989" y="307.584" style="stroke: #000000; stroke-width: 0.6"/>
      </g>
     </g>
    </g>
    <g id="xtick_13">
     <g id="line2d_13">
      <g>
       <use xlink:href="#m469cac9ba3" x="134.910937" y="307.584" style="stroke: #000000; stroke-width: 0.6"/>
      </g>
     </g>
    </g>
    <g id="xtick_14">
     <g id="line2d_14">
      <g>
       <use xlink:href="#m469cac9ba3" x="140.354145" y="307.584" style="stroke: #000000; stroke-width: 0.6"/>
      </g>
     </g>
    </g>
    <g id="xtick_15">
     <g id="line2d_15">
      <g>
       <use xlink:href="#m469cac9ba3" x="145.069266" y="307.584" style="stroke: #000000; stroke-width: 0.6"/>
      </g>
     </g>
    </g>
    <g id="xtick_16">
     <g id="line2d_16">
      <g>
       <use xlink:href="#m469cac9ba3" x="149.228297" y="307.584" style="stroke: #000000; stroke-width: 0.6"/>
      </g>
     </g>
    </g>
    <g id="xtick_17">
     <g id="line2d_17">
      <g>
       <use xlink:href="#m469cac9ba3" x="177.424367" y="307.584" style="stroke: #000000; stroke-width: 0.6"/>
      </g>
     </g>
    </g>
    <g id="xtick_18">
     <g id="line2d_18">
      <g>
       <use xlink:href="#m469cac9ba3" x="191.741727" y="307.584" style="stroke: #000000; stroke-width: 0.6"/>
      </g>
     </g>
    </g>
    <g id="xtick_19">
     <g id="line2d_19">
      <g>
       <use xlink:href="#m469cac9ba3" x="201.900056" y="307.584" style="stroke: #000000; stroke-width: 0.6"/>
      </g>
     </g>
    </g>
    <g id="xtick_20">
     <g id="line2d_20">
      <g>
       <use xlink:href="#m469cac9ba3" x="209.779468" y="307.584" style="stroke: #000000; stroke-width: 0.6"/>
      </g>
     </g>
    </g>
    <g id="xtick_21">
     <g id="line2d_21">
      <g>
       <use xlink:href="#m469cac9ba3" x="216.217416" y="307.584" style="stroke: #000000; stroke-width: 0.6"/>
      </g>
     </g>
    </g>
    <g id="xtick_22">
     <g id="line2d_22">
      <g>
       <use xlink:href="#m469cac9ba3" x="221.660624" y="307.584" style="stroke: #000000; stroke-width: 0.6"/>
      </g>
     </g>
    </g>
    <g id="xtick_23">
     <g id="line2d_23">
      <g>
       <use xlink:href="#m469cac9ba3" x="226.375745" y="307.584" style="stroke: #000000; stroke-width: 0.6"/>
      </g>
     </g>
    </g>
    <g id="xtick_24">
     <g id="line2d_24">
      <g>
       <use xlink:href="#m469cac9ba3" x="230.534777" y="307.584" style="stroke: #000000; stroke-width: 0.6"/>
      </g>
     </g>
    </g>
    <g id="xtick_25">
     <g id="line2d_25">
      <g>
       <use xlink:href="#m469cac9ba3" x="258.730846" y="307.584" style="stroke: #000000; stroke-width: 0.6"/>
      </g>
     </g>
    </g>
    <g id="xtick_26">
     <g id="line2d_26">
      <g>
       <use xlink:href="#m469cac9ba3" x="273.048206" y="307.584" style="stroke: #000000; stroke-width: 0.6"/>
      </g>
     </g>
    </g>
    <g id="xtick_27">
     <g id="line2d_27">
      <g>
       <use xlink:href="#m469cac9ba3" x="283.206535" y="307.584" style="stroke: #000000; stroke-width: 0.6"/>
      </g>
     </g>
    </g>
    <g id="xtick_28">
     <g id="line2d_28">
      <g>
       <use xlink:href="#m469cac9ba3" x="291.085947" y="307.584" style="stroke: #000000; stroke-width: 0.6"/>
      </g>
     </g>
    </g>
    <g id="xtick_29">
     <g id="line2d_29">
      <g>
       <use xlink:href="#m469cac9ba3" x="297.523896" y="307.584" style="stroke: #000000; stroke-width: 0.6"/>
      </g>
     </g>
    </g>
    <g id="xtick_30">
     <g id="line2d_30">
      <g>
       <use xlink:href="#m469cac9ba3" x="302.967103" y="307.584" style="stroke: #000000; stroke-width: 0.6"/>
      </g>
     </g>
    </g>
    <g id="xtick_31">
     <g id="line2d_31">
      <g>
       <use xlink:href="#m469cac9ba3" x="307.682224" y="307.584" style="stroke: #000000; stroke-width: 0.6"/>
      </g>
     </g>
    </g>
    <g id="xtick_32">
     <g id="line2d_32">
      <g>
       <use xlink:href="#m469cac9ba3" x="311.841256" y="307.584" style="stroke: #000000; stroke-width: 0.6"/>
      </g>
     </g>
    </g>
    <g id="xtick_33">
     <g id="line2d_33">
      <g>
       <use xlink:href="#m469cac9ba3" x="340.037326" y="307.584" style="stroke: #000000; stroke-width: 0.6"/>
      </g>
     </g>
    </g>
    <g id="xtick_34">
     <g id="line2d_34">
      <g>
       <use xlink:href="#m469cac9ba3" x="354.354686" y="307.584" style="stroke: #000000; stroke-width: 0.6"/>
      </g>
     </g>
    </g>
    <g id="xtick_35">
     <g id="line2d_35">
      <g>
       <use xlink:href="#m469cac9ba3" x="364.513015" y="307.584" style="stroke: #000000; stroke-width: 0.6"/>
      </g>
     </g>
    </g>
    <g id="xtick_36">
     <g id="line2d_36">
      <g>
       <use xlink:href="#m469cac9ba3" x="372.392427" y="307.584" style="stroke: #000000; stroke-width: 0.6"/>
      </g>
     </g>
    </g>
    <g id="xtick_37">
     <g id="line2d_37">
      <g>
       <use xlink:href="#m469cac9ba3" x="378.830375" y="307.584" style="stroke: #000000; stroke-width: 0.6"/>
      </g>
     </g>
    </g>
    <g id="xtick_38">
     <g id="line2d_38">
      <g>
       <use xlink:href="#m469cac9ba3" x="384.273583" y="307.584" style="stroke: #000000; stroke-width: 0.6"/>
      </g>
     </g>
    </g>
    <g id="xtick_39">
     <g id="line2d_39">
      <g>
       <use xlink:href="#m469cac9ba3" x="388.988704" y="307.584" style="stroke: #000000; stroke-width: 0.6"/>
      </g>
     </g>
    </g>
    <g id="xtick_40">
     <g id="line2d_40">
      <g>
       <use xlink:href="#m469cac9ba3" x="393.147735" y="307.584" style="stroke: #000000; stroke-width: 0.6"/>
      </g>
     </g>
    </g>
    <g id="text_6">
     <!-- Frequency [Hz] -->
     <g transform="translate(198.455312 335.860562)scale(0.1 -0.1)">
      <defs>
       <path id="DejaVuSans-46" d="M 628 4666 
L 3309 4666 
L 3309 4134 
L 1259 4134 
L 1259 2759 
L 3109 2759 
L 3109 2228 
L 1259 2228 
L 1259 0 
L 628 0 
L 628 4666 
z
" transform="scale(0.015625)"/>
       <path id="DejaVuSans-72" d="M 2631 2963 
Q 2534 3019 2420 3045 
Q 2306 3072 2169 3072 
Q 1681 3072 1420 2755 
Q 1159 2438 1159 1844 
L 1159 0 
L 581 0 
L 581 3500 
L 1159 3500 
L 1159 2956 
Q 1341 3275 1631 3429 
Q 1922 3584 2338 3584 
Q 2397 3584 2469 3576 
Q 2541 3569 2628 3553 
L 2631 2963 
z
" transform="scale(0.015625)"/>
       <path id="DejaVuSans-65" d="M 3597 1894 
L 3597 1613 
L 953 1613 
Q 991 1019 1311 708 
Q 1631 397 2203 397 
Q 2534 397 2845 478 
Q 3156 559 3463 722 
L 3463 178 
Q 3153 47 2828 -22 
Q 2503 -91 2169 -91 
Q 1331 -91 842 396 
Q 353 884 353 1716 
Q 353 2575 817 3079 
Q 1281 3584 2069 3584 
Q 2775 3584 3186 3129 
Q 3597 2675 3597 1894 
z
M 3022 2063 
Q 3016 2534 2758 2815 
Q 2500 3097 2075 3097 
Q 1594 3097 1305 2825 
Q 1016 2553 972 2059 
L 3022 2063 
z
" transform="scale(0.015625)"/>
       <path id="DejaVuSans-71" d="M 947 1747 
Q 947 1113 1208 752 
Q 1469 391 1925 391 
Q 2381 391 2643 752 
Q 2906 1113 2906 1747 
Q 2906 2381 2643 2742 
Q 2381 3103 1925 3103 
Q 1469 3103 1208 2742 
Q 947 2381 947 1747 
z
M 2906 525 
Q 2725 213 2448 61 
Q 2172 -91 1784 -91 
Q 1150 -91 751 415 
Q 353 922 353 1747 
Q 353 2572 751 3078 
Q 1150 3584 1784 3584 
Q 2172 3584 2448 3432 
Q 2725 3281 2906 2969 
L 2906 3500 
L 3481 3500 
L 3481 -1331 
L 2906 -1331 
L 2906 525 
z
" transform="scale(0.015625)"/>
       <path id="DejaVuSans-75" d="M 544 1381 
L 544 3500 
L 1119 3500 
L 1119 1403 
Q 1119 906 1312 657 
Q 1506 409 1894 409 
Q 2359 409 2629 706 
Q 2900 1003 2900 1516 
L 2900 3500 
L 3475 3500 
L 3475 0 
L 2900 0 
L 2900 538 
Q 2691 219 2414 64 
Q 2138 -91 1772 -91 
Q 1169 -91 856 284 
Q 544 659 544 1381 
z
M 1991 3584 
L 1991 3584 
z
" transform="scale(0.015625)"/>
       <path id="DejaVuSans-6e" d="M 3513 2113 
L 3513 0 
L 2938 0 
L 2938 2094 
Q 2938 2591 2744 2837 
Q 2550 3084 2163 3084 
Q 1697 3084 1428 2787 
Q 1159 2491 1159 1978 
L 1159 0 
L 581 0 
L 581 3500 
L 1159 3500 
L 1159 2956 
Q 1366 3272 1645 3428 
Q 1925 3584 2291 3584 
Q 2894 3584 3203 3211 
Q 3513 2838 3513 2113 
z
" transform="scale(0.015625)"/>
       <path id="DejaVuSans-63" d="M 3122 3366 
L 3122 2828 
Q 2878 2963 2633 3030 
Q 2388 3097 2138 3097 
Q 1578 3097 1268 2742 
Q 959 2388 959 1747 
Q 959 1106 1268 751 
Q 1578 397 2138 397 
Q 2388 397 2633 464 
Q 2878 531 3122 666 
L 3122 134 
Q 2881 22 2623 -34 
Q 2366 -91 2075 -91 
Q 1284 -91 818 406 
Q 353 903 353 1747 
Q 353 2603 823 3093 
Q 1294 3584 2113 3584 
Q 2378 3584 2631 3529 
Q 2884 3475 3122 3366 
z
" transform="scale(0.015625)"/>
       <path id="DejaVuSans-79" d="M 2059 -325 
Q 1816 -950 1584 -1140 
Q 1353 -1331 966 -1331 
L 506 -1331 
L 506 -850 
L 844 -850 
Q 1081 -850 1212 -737 
Q 1344 -625 1503 -206 
L 1606 56 
L 191 3500 
L 800 3500 
L 1894 763 
L 2988 3500 
L 3597 3500 
L 2059 -325 
z
" transform="scale(0.015625)"/>
       <path id="DejaVuSans-20" transform="scale(0.015625)"/>
       <path id="DejaVuSans-5b" d="M 550 4863 
L 1875 4863 
L 1875 4416 
L 1125 4416 
L 1125 -397 
L 1875 -397 
L 1875 -844 
L 550 -844 
L 550 4863 
z
" transform="scale(0.015625)"/>
       <path id="DejaVuSans-48" d="M 628 4666 
L 1259 4666 
L 1259 2753 
L 3553 2753 
L 3553 4666 
L 4184 4666 
L 4184 0 
L 3553 0 
L 3553 2222 
L 1259 2222 
L 1259 0 
L 628 0 
L 628 4666 
z
" transform="scale(0.015625)"/>
       <path id="DejaVuSans-7a" d="M 353 3500 
L 3084 3500 
L 3084 2975 
L 922 459 
L 3084 459 
L 3084 0 
L 275 0 
L 275 525 
L 2438 3041 
L 353 3041 
L 353 3500 
z
" transform="scale(0.015625)"/>
       <path id="DejaVuSans-5d" d="M 1947 4863 
L 1947 -844 
L 622 -844 
L 622 -397 
L 1369 -397 
L 1369 4416 
L 622 4416 
L 622 4863 
L 1947 4863 
z
" transform="scale(0.015625)"/>
      </defs>
      <use xlink:href="#DejaVuSans-46"/>
      <use xlink:href="#DejaVuSans-72" x="50.269531"/>
      <use xlink:href="#DejaVuSans-65" x="89.132812"/>
      <use xlink:href="#DejaVuSans-71" x="150.65625"/>
      <use xlink:href="#DejaVuSans-75" x="214.132812"/>
      <use xlink:href="#DejaVuSans-65" x="277.511719"/>
      <use xlink:href="#DejaVuSans-6e" x="339.035156"/>
      <use xlink:href="#DejaVuSans-63" x="402.414062"/>
      <use xlink:href="#DejaVuSans-79" x="457.394531"/>
      <use xlink:href="#DejaVuSans-20" x="516.574219"/>
      <use xlink:href="#DejaVuSans-5b" x="548.361328"/>
      <use xlink:href="#DejaVuSans-48" x="587.375"/>
      <use xlink:href="#DejaVuSans-7a" x="662.570312"/>
      <use xlink:href="#DejaVuSans-5d" x="715.060547"/>
     </g>
    </g>
   </g>
   <g id="matplotlib.axis_2">
    <g id="ytick_1">
     <g id="line2d_41">
      <defs>
       <path id="m004f99eddb" d="M 0 0 
L -3.5 0 
" style="stroke: #000000; stroke-width: 0.8"/>
      </defs>
      <g>
       <use xlink:href="#m004f99eddb" x="57.6" y="307.584" style="stroke: #000000; stroke-width: 0.8"/>
      </g>
     </g>
     <g id="text_7">
      <!-- −140 -->
      <g transform="translate(23.132812 311.383219)scale(0.1 -0.1)">
       <defs>
        <path id="DejaVuSans-2212" d="M 678 2272 
L 4684 2272 
L 4684 1741 
L 678 1741 
L 678 2272 
z
" transform="scale(0.015625)"/>
       </defs>
       <use xlink:href="#DejaVuSans-2212"/>
       <use xlink:href="#DejaVuSans-31" x="83.789062"/>
       <use xlink:href="#DejaVuSans-34" x="147.412109"/>
       <use xlink:href="#DejaVuSans-30" x="211.035156"/>
      </g>
     </g>
    </g>
    <g id="ytick_2">
     <g id="line2d_42">
      <g>
       <use xlink:href="#m004f99eddb" x="57.6" y="274.32" style="stroke: #000000; stroke-width: 0.8"/>
      </g>
     </g>
     <g id="text_8">
      <!-- −130 -->
      <g transform="translate(23.132812 278.119219)scale(0.1 -0.1)">
       <use xlink:href="#DejaVuSans-2212"/>
       <use xlink:href="#DejaVuSans-31" x="83.789062"/>
       <use xlink:href="#DejaVuSans-33" x="147.412109"/>
       <use xlink:href="#DejaVuSans-30" x="211.035156"/>
      </g>
     </g>
    </g>
    <g id="ytick_3">
     <g id="line2d_43">
      <g>
       <use xlink:href="#m004f99eddb" x="57.6" y="241.056" style="stroke: #000000; stroke-width: 0.8"/>
      </g>
     </g>
     <g id="text_9">
      <!-- −120 -->
      <g transform="translate(23.132812 244.855219)scale(0.1 -0.1)">
       <defs>
        <path id="DejaVuSans-32" d="M 1228 531 
L 3431 531 
L 3431 0 
L 469 0 
L 469 531 
Q 828 903 1448 1529 
Q 2069 2156 2228 2338 
Q 2531 2678 2651 2914 
Q 2772 3150 2772 3378 
Q 2772 3750 2511 3984 
Q 2250 4219 1831 4219 
Q 1534 4219 1204 4116 
Q 875 4013 500 3803 
L 500 4441 
Q 881 4594 1212 4672 
Q 1544 4750 1819 4750 
Q 2544 4750 2975 4387 
Q 3406 4025 3406 3419 
Q 3406 3131 3298 2873 
Q 3191 2616 2906 2266 
Q 2828 2175 2409 1742 
Q 1991 1309 1228 531 
z
" transform="scale(0.015625)"/>
       </defs>
       <use xlink:href="#DejaVuSans-2212"/>
       <use xlink:href="#DejaVuSans-31" x="83.789062"/>
       <use xlink:href="#DejaVuSans-32" x="147.412109"/>
       <use xlink:href="#DejaVuSans-30" x="211.035156"/>
      </g>
     </g>
    </g>
    <g id="ytick_4">
     <g id="line2d_44">
      <g>
       <use xlink:href="#m004f99eddb" x="57.6" y="207.792" style="stroke: #000000; stroke-width: 0.8"/>
      </g>
     </g>
     <g id="text_10">
      <!-- −110 -->
      <g transform="translate(23.132812 211.591219)scale(0.1 -0.1)">
       <use xlink:href="#DejaVuSans-2212"/>
       <use xlink:href="#DejaVuSans-31" x="83.789062"/>
       <use xlink:href="#DejaVuSans-31" x="147.412109"/>
       <use xlink:href="#DejaVuSans-30" x="211.035156"/>
      </g>
     </g>
    </g>
    <g id="ytick_5">
     <g id="line2d_45">
      <g>
       <use xlink:href="#m004f99eddb" x="57.6" y="174.528" style="stroke: #000000; stroke-width: 0.8"/>
      </g>
     </g>
     <g id="text_11">
      <!-- −100 -->
      <g transform="translate(23.132812 178.327219)scale(0.1 -0.1)">
       <use xlink:href="#DejaVuSans-2212"/>
       <use xlink:href="#DejaVuSans-31" x="83.789062"/>
       <use xlink:href="#DejaVuSans-30" x="147.412109"/>
       <use xlink:href="#DejaVuSans-30" x="211.035156"/>
      </g>
     </g>
    </g>
    <g id="ytick_6">
     <g id="line2d_46">
      <g>
       <use xlink:href="#m004f99eddb" x="57.6" y="141.264" style="stroke: #000000; stroke-width: 0.8"/>
      </g>
     </g>
     <g id="text_12">
      <!-- −90 -->
      <g transform="translate(29.495313 145.063219)scale(0.1 -0.1)">
       <defs>
        <path id="DejaVuSans-39" d="M 703 97 
L 703 672 
Q 941 559 1184 500 
Q 1428 441 1663 441 
Q 2288 441 2617 861 
Q 2947 1281 2994 2138 
Q 2813 1869 2534 1725 
Q 2256 1581 1919 1581 
Q 1219 1581 811 2004 
Q 403 2428 403 3163 
Q 403 3881 828 4315 
Q 1253 4750 1959 4750 
Q 2769 4750 3195 4129 
Q 3622 3509 3622 2328 
Q 3622 1225 3098 567 
Q 2575 -91 1691 -91 
Q 1453 -91 1209 -44 
Q 966 3 703 97 
z
M 1959 2075 
Q 2384 2075 2632 2365 
Q 2881 2656 2881 3163 
Q 2881 3666 2632 3958 
Q 2384 4250 1959 4250 
Q 1534 4250 1286 3958 
Q 1038 3666 1038 3163 
Q 1038 2656 1286 2365 
Q 1534 2075 1959 2075 
z
" transform="scale(0.015625)"/>
       </defs>
       <use xlink:href="#DejaVuSans-2212"/>
       <use xlink:href="#DejaVuSans-39" x="83.789062"/>
       <use xlink:href="#DejaVuSans-30" x="147.412109"/>
      </g>
     </g>
    </g>
    <g id="ytick_7">
     <g id="line2d_47">
      <g>
       <use xlink:href="#m004f99eddb" x="57.6" y="108" style="stroke: #000000; stroke-width: 0.8"/>
      </g>
     </g>
     <g id="text_13">
      <!-- −80 -->
      <g transform="translate(29.495313 111.799219)scale(0.1 -0.1)">
       <defs>
        <path id="DejaVuSans-38" d="M 2034 2216 
Q 1584 2216 1326 1975 
Q 1069 1734 1069 1313 
Q 1069 891 1326 650 
Q 1584 409 2034 409 
Q 2484 409 2743 651 
Q 3003 894 3003 1313 
Q 3003 1734 2745 1975 
Q 2488 2216 2034 2216 
z
M 1403 2484 
Q 997 2584 770 2862 
Q 544 3141 544 3541 
Q 544 4100 942 4425 
Q 1341 4750 2034 4750 
Q 2731 4750 3128 4425 
Q 3525 4100 3525 3541 
Q 3525 3141 3298 2862 
Q 3072 2584 2669 2484 
Q 3125 2378 3379 2068 
Q 3634 1759 3634 1313 
Q 3634 634 3220 271 
Q 2806 -91 2034 -91 
Q 1263 -91 848 271 
Q 434 634 434 1313 
Q 434 1759 690 2068 
Q 947 2378 1403 2484 
z
M 1172 3481 
Q 1172 3119 1398 2916 
Q 1625 2713 2034 2713 
Q 2441 2713 2670 2916 
Q 2900 3119 2900 3481 
Q 2900 3844 2670 4047 
Q 2441 4250 2034 4250 
Q 1625 4250 1398 4047 
Q 1172 3844 1172 3481 
z
" transform="scale(0.015625)"/>
       </defs>
       <use xlink:href="#DejaVuSans-2212"/>
       <use xlink:href="#DejaVuSans-38" x="83.789062"/>
       <use xlink:href="#DejaVuSans-30" x="147.412109"/>
      </g>
     </g>
    </g>
    <g id="ytick_8">
     <g id="line2d_48">
      <g>
       <use xlink:href="#m004f99eddb" x="57.6" y="74.736" style="stroke: #000000; stroke-width: 0.8"/>
      </g>
     </g>
     <g id="text_14">
      <!-- −70 -->
      <g transform="translate(29.495313 78.535219)scale(0.1 -0.1)">
       <use xlink:href="#DejaVuSans-2212"/>
       <use xlink:href="#DejaVuSans-37" x="83.789062"/>
       <use xlink:href="#DejaVuSans-30" x="147.412109"/>
      </g>
     </g>
    </g>
    <g id="ytick_9">
     <g id="line2d_49">
      <g>
       <use xlink:href="#m004f99eddb" x="57.6" y="41.472" style="stroke: #000000; stroke-width: 0.8"/>
      </g>
     </g>
     <g id="text_15">
      <!-- −60 -->
      <g transform="translate(29.495313 45.271219)scale(0.1 -0.1)">
       <use xlink:href="#DejaVuSans-2212"/>
       <use xlink:href="#DejaVuSans-36" x="83.789062"/>
       <use xlink:href="#DejaVuSans-30" x="147.412109"/>
      </g>
     </g>
    </g>
    <g id="text_16">
     <!-- Phase noise [dBc/Hz] -->
     <g transform="translate(17.053125 227.257688)rotate(-90)scale(0.1 -0.1)">
      <defs>
       <path id="DejaVuSans-50" d="M 1259 4147 
L 1259 2394 
L 2053 2394 
Q 2494 2394 2734 2622 
Q 2975 2850 2975 3272 
Q 2975 3691 2734 3919 
Q 2494 4147 2053 4147 
L 1259 4147 
z
M 628 4666 
L 2053 4666 
Q 2838 4666 3239 4311 
Q 3641 3956 3641 3272 
Q 3641 2581 3239 2228 
Q 2838 1875 2053 1875 
L 1259 1875 
L 1259 0 
L 628 0 
L 628 4666 
z
" transform="scale(0.015625)"/>
       <path id="DejaVuSans-68" d="M 3513 2113 
L 3513 0 
L 2938 0 
L 2938 2094 
Q 2938 2591 2744 2837 
Q 2550 3084 2163 3084 
Q 1697 3084 1428 2787 
Q 1159 2491 1159 1978 
L 1159 0 
L 581 0 
L 581 4863 
L 1159 4863 
L 1159 2956 
Q 1366 3272 1645 3428 
Q 1925 3584 2291 3584 
Q 2894 3584 3203 3211 
Q 3513 2838 3513 2113 
z
" transform="scale(0.015625)"/>
       <path id="DejaVuSans-61" d="M 2194 1759 
Q 1497 1759 1228 1600 
Q 959 1441 959 1056 
Q 959 750 1161 570 
Q 1363 391 1709 391 
Q 2188 391 2477 730 
Q 2766 1069 2766 1631 
L 2766 1759 
L 2194 1759 
z
M 3341 1997 
L 3341 0 
L 2766 0 
L 2766 531 
Q 2569 213 2275 61 
Q 1981 -91 1556 -91 
Q 1019 -91 701 211 
Q 384 513 384 1019 
Q 384 1609 779 1909 
Q 1175 2209 1959 2209 
L 2766 2209 
L 2766 2266 
Q 2766 2663 2505 2880 
Q 2244 3097 1772 3097 
Q 1472 3097 1187 3025 
Q 903 2953 641 2809 
L 641 3341 
Q 956 3463 1253 3523 
Q 1550 3584 1831 3584 
Q 2591 3584 2966 3190 
Q 3341 2797 3341 1997 
z
" transform="scale(0.015625)"/>
       <path id="DejaVuSans-73" d="M 2834 3397 
L 2834 2853 
Q 2591 2978 2328 3040 
Q 2066 3103 1784 3103 
Q 1356 3103 1142 2972 
Q 928 2841 928 2578 
Q 928 2378 1081 2264 
Q 1234 2150 1697 2047 
L 1894 2003 
Q 2506 1872 2764 1633 
Q 3022 1394 3022 966 
Q 3022 478 2636 193 
Q 2250 -91 1575 -91 
Q 1294 -91 989 -36 
Q 684 19 347 128 
L 347 722 
Q 666 556 975 473 
Q 1284 391 1588 391 
Q 1994 391 2212 530 
Q 2431 669 2431 922 
Q 2431 1156 2273 1281 
Q 2116 1406 1581 1522 
L 1381 1569 
Q 847 1681 609 1914 
Q 372 2147 372 2553 
Q 372 3047 722 3315 
Q 1072 3584 1716 3584 
Q 2034 3584 2315 3537 
Q 2597 3491 2834 3397 
z
" transform="scale(0.015625)"/>
       <path id="DejaVuSans-6f" d="M 1959 3097 
Q 1497 3097 1228 2736 
Q 959 2375 959 1747 
Q 959 1119 1226 758 
Q 1494 397 1959 397 
Q 2419 397 2687 759 
Q 2956 1122 2956 1747 
Q 2956 2369 2687 2733 
Q 2419 3097 1959 3097 
z
M 1959 3584 
Q 2709 3584 3137 3096 
Q 3566 2609 3566 1747 
Q 3566 888 3137 398 
Q 2709 -91 1959 -91 
Q 1206 -91 779 398 
Q 353 888 353 1747 
Q 353 2609 779 3096 
Q 1206 3584 1959 3584 
z
" transform="scale(0.015625)"/>
       <path id="DejaVuSans-69" d="M 603 3500 
L 1178 3500 
L 1178 0 
L 603 0 
L 603 3500 
z
M 603 4863 
L 1178 4863 
L 1178 4134 
L 603 4134 
L 603 4863 
z
" transform="scale(0.015625)"/>
       <path id="DejaVuSans-64" d="M 2906 2969 
L 2906 4863 
L 3481 4863 
L 3481 0 
L 2906 0 
L 2906 525 
Q 2725 213 2448 61 
Q 2172 -91 1784 -91 
Q 1150 -91 751 415 
Q 353 922 353 1747 
Q 353 2572 751 3078 
Q 1150 3584 1784 3584 
Q 2172 3584 2448 3432 
Q 2725 3281 2906 2969 
z
M 947 1747 
Q 947 1113 1208 752 
Q 1469 391 1925 391 
Q 2381 391 2643 752 
Q 2906 1113 2906 1747 
Q 2906 2381 2643 2742 
Q 2381 3103 1925 3103 
Q 1469 3103 1208 2742 
Q 947 2381 947 1747 
z
" transform="scale(0.015625)"/>
       <path id="DejaVuSans-42" d="M 1259 2228 
L 1259 519 
L 2272 519 
Q 2781 519 3026 730 
Q 3272 941 3272 1375 
Q 3272 1813 3026 2020 
Q 2781 2228 2272 2228 
L 1259 2228 
z
M 1259 4147 
L 1259 2741 
L 2194 2741 
Q 2656 2741 2882 2914 
Q 3109 3088 3109 3444 
Q 3109 3797 2882 3972 
Q 2656 4147 2194 4147 
L 1259 4147 
z
M 628 4666 
L 2241 4666 
Q 2963 4666 3353 4366 
Q 3744 4066 3744 3513 
Q 3744 3084 3544 2831 
Q 3344 2578 2956 2516 
Q 3422 2416 3680 2098 
Q 3938 1781 3938 1306 
Q 3938 681 3513 340 
Q 3088 0 2303 0 
L 628 0 
L 628 4666 
z
" transform="scale(0.015625)"/>
       <path id="DejaVuSans-2f" d="M 1625 4666 
L 2156 4666 
L 531 -594 
L 0 -594 
L 1625 4666 
z
" transform="scale(0.015625)"/>
      </defs>
      <use xlink:href="#DejaVuSans-50"/>
      <use xlink:href="#DejaVuSans-68" x="60.302734"/>
      <use xlink:href="#DejaVuSans-61" x="123.681641"/>
      <use xlink:href="#DejaVuSans-73" x="184.960938"/>
      <use xlink:href="#DejaVuSans-65" x="237.060547"/>
      <use xlink:href="#DejaVuSans-20" x="298.583984"/>
      <use xlink:href="#DejaVuSans-6e" x="330.371094"/>
      <use xlink:href="#DejaVuSans-6f" x="393.75"/>
      <use xlink:href="#DejaVuSans-69" x="454.931641"/>
      <use xlink:href="#DejaVuSans-73" x="482.714844"/>
      <use xlink:href="#DejaVuSans-65" x="534.814453"/>
      <use xlink:href="#DejaVuSans-20" x="596.337891"/>
      <use xlink:href="#DejaVuSans-5b" x="628.125"/>
      <use xlink:href="#DejaVuSans-64" x="667.138672"/>
      <use xlink:href="#DejaVuSans-42" x="730.615234"/>
      <use xlink:href="#DejaVuSans-63" x="799.21875"/>
      <use xlink:href="#DejaVuSans-2f" x="854.199219"/>
      <use xlink:href="#DejaVuSans-48" x="887.890625"/>
      <use xlink:href="#DejaVuSans-7a" x="963.085938"/>
      <use xlink:href="#DejaVuSans-5d" x="1015.576172"/>
     </g>
    </g>
   </g>
   <g id="line2d_50">
    <path d="M 398.487273 206.428176 
L 398.425486 210.308976 
L 398.363594 206.982576 
L 398.30159 209.931984 
L 398.239477 205.873776 
L 398.177254 209.388672 
L 398.114922 206.250768 
L 398.052479 210.131568 
L 397.989929 206.616672 
L 397.927265 210.308976 
L 397.864489 206.79408 
L 397.801602 209.931984 
L 397.738602 206.428176 
L 397.67549 209.754576 
L 397.612268 206.805168 
L 397.54893 209.943072 
L 397.485477 206.805168 
L 397.421911 209.943072 
L 397.358229 206.616672 
L 397.294433 210.12048 
L 397.230524 206.79408 
L 397.166497 209.931984 
L 397.102353 205.873776 
L 397.038092 209.01168 
L 396.973714 206.062272 
L 396.909218 210.308976 
L 396.844608 207.359568 
L 396.779876 210.131568 
L 396.715026 206.062272 
L 396.650055 209.388672 
L 396.584965 206.616672 
L 396.519755 209.943072 
L 396.454428 206.616672 
L 396.388976 209.56608 
L 396.323403 206.428176 
L 396.257707 209.754576 
L 396.191889 206.805168 
L 396.125952 210.497472 
L 396.059888 206.982576 
L 395.9937 210.308976 
L 395.927388 206.982576 
L 395.860951 210.12048 
L 395.794388 206.79408 
L 395.727704 209.943072 
L 395.66089 206.616672 
L 395.593949 209.943072 
L 395.526881 206.616672 
L 395.459685 209.943072 
L 395.392362 206.428176 
L 395.324913 209.931984 
L 395.257332 206.428176 
L 395.189621 209.388672 
L 395.12178 205.696368 
L 395.053808 209.200176 
L 394.985705 206.23968 
L 394.917474 209.56608 
L 394.849108 206.79408 
L 394.780609 210.12048 
L 394.711977 206.79408 
L 394.643211 209.754576 
L 394.574311 206.79408 
L 394.50528 210.486384 
L 394.436109 207.159984 
L 394.366804 210.308976 
L 394.297362 206.805168 
L 394.227783 210.131568 
L 394.158066 206.805168 
L 394.088216 210.131568 
L 394.018223 206.993664 
L 393.948092 210.131568 
L 393.87782 206.616672 
L 393.807409 210.12048 
L 393.736861 206.79408 
L 393.666168 210.12048 
L 393.595333 206.616672 
L 393.524355 209.943072 
L 393.453235 206.616672 
L 393.381971 209.56608 
L 393.310566 206.051184 
L 393.239014 209.189088 
L 393.167316 206.23968 
L 393.095472 209.943072 
L 393.023481 206.805168 
L 392.951344 209.754576 
L 392.879063 206.23968 
L 392.806629 209.377584 
L 392.734047 206.23968 
L 392.661315 209.56608 
L 392.588433 206.428176 
L 392.5154 209.943072 
L 392.44222 206.805168 
L 392.368884 210.131568 
L 392.295396 206.805168 
L 392.221754 209.943072 
L 392.147958 206.616672 
L 392.074008 209.754576 
L 391.999906 200.69568 
L 391.925645 203.833584 
L 391.851227 200.69568 
L 391.776652 209.943072 
L 391.701919 206.616672 
L 391.627027 209.56608 
L 391.551981 206.605584 
L 391.47677 210.67488 
L 391.4014 207.171072 
L 391.325867 209.943072 
L 391.250173 206.062272 
L 391.174321 209.754576 
L 391.098301 206.428176 
L 391.022117 209.754576 
L 390.945768 206.428176 
L 390.869254 209.754576 
L 390.792573 206.428176 
L 390.71573 209.56608 
L 390.638715 206.23968 
L 390.561532 209.56608 
L 390.48418 206.428176 
L 390.406658 210.308976 
L 390.328965 207.171072 
L 390.251106 210.308976 
L 390.17307 206.428176 
L 390.094861 209.931984 
L 390.016478 206.79408 
L 389.937921 209.931984 
L 389.859189 206.428176 
L 389.780286 209.943072 
L 389.701201 206.805168 
L 389.621939 210.131568 
L 389.542499 206.616672 
L 389.462879 210.308976 
L 389.383079 206.982576 
L 389.303103 210.863376 
L 389.222942 207.171072 
L 389.142597 210.67488 
L 389.06207 206.79408 
L 388.981358 210.308976 
L 388.900462 206.428176 
L 388.819384 209.754576 
L 388.738115 206.23968 
L 388.656659 209.56608 
L 388.575014 206.23968 
L 388.493181 209.56608 
L 388.411161 206.616672 
L 388.328946 210.497472 
L 388.246539 207.171072 
L 388.16394 210.12048 
L 388.081147 206.23968 
L 387.998159 209.56608 
L 387.91498 206.428176 
L 387.8316 209.56608 
L 387.748023 206.428176 
L 387.664248 210.308976 
L 387.580274 207.359568 
L 387.496099 210.685968 
L 387.411728 207.171072 
L 387.32715 210.308976 
L 387.242369 206.428176 
L 387.157383 209.388672 
L 387.072193 205.873776 
L 386.986797 209.56608 
L 386.901199 206.605584 
L 386.815388 210.12048 
L 386.729367 206.982576 
L 386.643137 209.754576 
L 386.556696 206.616672 
L 386.470042 209.754576 
L 386.38318 206.616672 
L 386.296099 210.308976 
L 386.208803 207.171072 
L 386.121291 210.497472 
L 386.033561 206.616672 
L 385.945612 209.56608 
L 385.857449 206.23968 
L 385.76906 209.931984 
L 385.68045 206.79408 
L 385.591616 210.12048 
L 385.502559 206.23968 
L 385.413281 209.200176 
L 385.323772 205.873776 
L 385.234035 209.388672 
L 385.14407 206.062272 
L 385.053875 210.131568 
L 384.96345 206.805168 
L 384.872796 210.497472 
L 384.781905 206.428176 
L 384.690779 209.56608 
L 384.599417 206.428176 
L 384.507819 209.56608 
L 384.415982 206.79408 
L 384.32391 210.12048 
L 384.231593 207.171072 
L 384.139034 209.943072 
L 384.046232 206.428176 
L 383.953185 209.377584 
L 383.859892 206.605584 
L 383.766357 210.12048 
L 383.672569 207.171072 
L 383.578531 209.943072 
L 383.484242 206.23968 
L 383.3897 209.189088 
L 383.294905 206.051184 
L 383.199859 209.377584 
L 383.104552 206.051184 
L 383.008987 209.377584 
L 382.913162 206.23968 
L 382.817077 209.943072 
L 382.72073 206.805168 
L 382.624124 210.685968 
L 382.527248 207.359568 
L 382.430106 210.685968 
L 382.332695 206.993664 
L 382.235015 210.131568 
L 382.13707 206.805168 
L 382.038846 210.131568 
L 381.940349 206.805168 
L 381.841576 209.754576 
L 381.742526 206.428176 
L 381.643197 210.12048 
L 381.543594 206.982576 
L 381.443704 209.931984 
L 381.34353 206.23968 
L 381.243071 210.12048 
L 381.142325 207.171072 
L 381.041291 210.497472 
L 380.939973 206.982576 
L 380.838358 210.67488 
L 380.736449 207.536976 
L 380.634246 210.308976 
L 380.531746 206.79408 
L 380.428947 210.12048 
L 380.325854 206.616672 
L 380.222453 209.388672 
L 380.118749 206.062272 
L 380.014739 209.943072 
L 379.910422 206.993664 
L 379.805796 210.320064 
L 379.700865 206.805168 
L 379.595615 209.577168 
L 379.490051 206.062272 
L 379.38417 209.388672 
L 379.27797 206.23968 
L 379.171451 209.377584 
L 379.064614 206.23968 
L 378.957448 209.754576 
L 378.849955 206.805168 
L 378.742135 209.943072 
L 378.633983 206.616672 
L 378.525506 209.388672 
L 378.416689 206.428176 
L 378.307535 209.56608 
L 378.198042 206.605584 
L 378.088209 209.377584 
L 377.978033 206.23968 
L 377.867519 209.754576 
L 377.756651 206.982576 
L 377.645435 210.12048 
L 377.533866 206.605584 
L 377.421945 209.56608 
L 377.309667 206.428176 
L 377.197037 209.754576 
L 377.084041 206.79408 
L 376.970682 210.12048 
L 376.856958 206.982576 
L 376.742867 209.577168 
L 376.628405 206.250768 
L 376.513578 209.200176 
L 376.39837 206.428176 
L 376.282785 209.754576 
L 376.16682 206.616672 
L 376.050473 210.12048 
L 375.933741 206.79408 
L 375.816629 210.12048 
L 375.69912 206.616672 
L 375.581219 210.308976 
L 375.462923 206.982576 
L 375.34423 209.754576 
L 375.225136 205.873776 
L 375.105646 209.388672 
L 374.985743 206.616672 
L 374.865432 210.320064 
L 374.74471 206.805168 
L 374.623573 209.943072 
L 374.502026 206.616672 
L 374.380053 210.131568 
L 374.257656 207.171072 
L 374.134834 209.943072 
L 374.011584 206.616672 
L 373.887901 209.388672 
L 373.763791 206.79408 
L 373.639236 210.12048 
L 373.51424 207.171072 
L 373.3888 210.320064 
L 373.262913 206.439264 
L 373.136576 209.388672 
L 373.009792 205.873776 
L 372.882544 209.56608 
L 372.754835 206.616672 
L 372.626664 209.943072 
L 372.498025 206.805168 
L 372.368916 209.754576 
L 372.23934 206.062272 
L 372.10928 209.200176 
L 371.978739 206.062272 
L 371.847714 209.943072 
L 371.7162 206.805168 
L 371.584195 210.131568 
L 371.451702 206.616672 
L 371.318703 209.754576 
L 371.185201 206.428176 
L 371.051192 209.943072 
L 370.916673 206.805168 
L 370.781639 210.131568 
L 370.646094 206.805168 
L 370.51002 210.131568 
L 370.373419 206.993664 
L 370.236287 210.320064 
L 370.098621 206.616672 
L 369.960417 209.943072 
L 369.821676 206.23968 
L 369.682381 209.943072 
L 369.542534 206.79408 
L 369.402131 210.308976 
L 369.261168 206.79408 
L 369.119647 209.943072 
L 368.977549 206.805168 
L 368.834877 210.131568 
L 368.691627 206.805168 
L 368.547792 209.754576 
L 368.40337 206.23968 
L 368.258362 209.743488 
L 368.112748 206.79408 
L 367.966531 210.308976 
L 367.819707 206.982576 
L 367.672269 210.12048 
L 367.524213 206.982576 
L 367.375542 209.577168 
L 367.226234 206.250768 
L 367.076292 209.577168 
L 366.92571 206.616672 
L 366.774484 209.754576 
L 366.622607 206.23968 
L 366.470083 209.377584 
L 366.316888 206.428176 
L 366.163026 209.754576 
L 366.008491 206.616672 
L 365.853276 210.308976 
L 365.697376 206.982576 
L 365.540793 210.12048 
L 365.383505 206.605584 
L 365.225512 209.931984 
L 365.066809 206.982576 
L 364.90739 210.308976 
L 364.747248 207.171072 
L 364.586385 210.12048 
L 364.424777 206.428176 
L 364.262426 209.377584 
L 364.099325 206.605584 
L 363.935467 209.56608 
L 363.770855 206.428176 
L 363.605462 209.577168 
L 363.439291 206.805168 
L 363.272334 210.497472 
L 363.104584 206.982576 
L 362.936034 209.754576 
L 362.766684 206.062272 
L 362.596509 209.200176 
L 362.42551 205.873776 
L 362.253678 209.200176 
L 362.081007 206.062272 
L 361.907486 209.56608 
L 361.733119 206.051184 
L 361.557876 209.931984 
L 361.38176 206.982576 
L 361.204761 210.497472 
L 361.02687 206.805168 
L 360.848078 210.131568 
L 360.668386 206.805168 
L 360.487765 209.943072 
L 360.306216 206.23968 
L 360.123728 209.56608 
L 359.940293 206.23968 
L 359.755899 209.943072 
L 359.570548 206.616672 
L 359.384208 209.943072 
L 359.19688 206.428176 
L 359.008553 210.497472 
L 358.819215 207.171072 
L 358.628858 210.497472 
L 358.437479 206.616672 
L 358.245046 209.943072 
L 358.051559 206.982576 
L 357.857006 210.308976 
L 357.661375 206.79408 
L 357.464665 209.56608 
L 357.266842 206.051184 
L 357.067905 209.56608 
L 356.86784 206.23968 
L 356.666636 209.200176 
L 356.464279 205.68528 
L 356.260766 209.56608 
L 356.056062 206.417088 
L 355.850165 210.297888 
L 355.64306 206.417088 
L 355.434733 209.743488 
L 355.22517 206.23968 
L 355.014367 209.56608 
L 354.802287 206.428176 
L 354.588925 209.56608 
L 354.374266 206.428176 
L 354.158294 209.943072 
L 353.940993 206.805168 
L 353.722359 209.943072 
L 353.50235 206.23968 
L 353.280962 209.377584 
L 353.058177 206.051184 
L 352.833978 209.56608 
L 352.608346 206.051184 
L 352.381275 209.56608 
L 352.152723 206.051184 
L 351.922681 209.200176 
L 351.691131 205.68528 
L 351.458052 209.200176 
L 351.223425 206.428176 
L 350.987241 209.943072 
L 350.749453 206.616672 
L 350.510054 210.308976 
L 350.26902 207.34848 
L 350.02633 211.040784 
L 349.781974 206.605584 
L 349.535901 210.486384 
L 349.288102 207.159984 
L 349.038551 210.852288 
L 348.787224 206.605584 
L 348.534095 209.56608 
L 348.279153 205.68528 
L 348.022343 208.823184 
L 347.763651 205.496784 
L 347.50305 209.56608 
L 347.240511 206.616672 
L 346.976006 210.308976 
L 346.709519 206.79408 
L 346.440991 210.12048 
L 346.170405 206.23968 
L 345.89773 209.943072 
L 345.622932 206.616672 
L 345.34598 210.131568 
L 345.066853 206.250768 
L 344.785487 209.200176 
L 344.50186 205.507872 
L 344.215937 209.01168 
L 343.92768 205.68528 
L 343.637051 209.56608 
L 343.344025 206.428176 
L 343.048532 209.388672 
L 342.750545 205.13088 
L 342.450021 208.268784 
L 342.146918 205.13088 
L 341.841191 209.56608 
L 341.53281 206.062272 
L 341.221696 209.388672 
L 340.907816 205.330464 
L 340.59112 209.022768 
L 340.271559 205.696368 
L 339.949097 209.754576 
L 339.623645 206.23968 
L 339.295166 209.743488 
L 338.963602 205.862688 
L 338.628895 209.377584 
L 338.290986 206.051184 
L 337.94983 209.377584 
L 337.605327 205.68528 
L 337.25743 209.56608 
L 336.906071 206.062272 
L 336.55118 209.754576 
L 336.192687 205.507872 
L 335.830537 208.834272 
L 335.464614 205.141968 
L 335.094859 208.834272 
L 334.721191 205.507872 
L 334.343526 208.834272 
L 333.961779 205.141968 
L 333.57588 208.834272 
L 333.185697 204.953472 
L 332.791153 208.468368 
L 332.392151 204.953472 
L 331.988589 208.645776 
L 331.580362 205.13088 
L 331.167382 208.279872 
L 330.749492 204.033168 
L 330.326598 201.261168 
L 329.741653 193.133664 
L 329.662917 193.499568 
L 329.584004 193.311072 
L 329.504915 193.499568 
L 329.346228 192.945168 
L 329.1868 192.579264 
L 329.026649 193.133664 
L 328.865793 193.133664 
L 328.785077 193.311072 
L 328.623114 192.76776 
L 328.54184 193.32216 
L 328.46038 193.133664 
L 328.378731 192.945168 
L 328.296892 192.21336 
L 328.214889 192.401856 
L 327.884856 193.133664 
L 327.718701 192.956256 
L 327.551735 193.510656 
L 327.46798 193.87656 
L 327.130859 192.579264 
L 326.961109 193.510656 
L 326.875914 193.32216 
L 326.704906 192.202272 
L 326.533091 193.133664 
L 326.36041 192.024864 
L 326.273777 192.202272 
L 326.186906 192.390768 
L 325.925002 192.024864 
L 325.572774 193.311072 
L 325.484159 192.390768 
L 325.395347 192.945168 
L 325.306285 192.579264 
L 325.127483 193.311072 
L 324.947799 192.945168 
L 324.767168 192.390768 
L 324.585636 192.390768 
L 324.403139 192.579264 
L 324.219693 192.579264 
L 323.942753 192.21336 
L 323.756893 192.21336 
L 323.382242 192.76776 
L 323.193429 192.401856 
L 323.003573 192.756672 
L 322.812719 193.311072 
L 322.716889 193.311072 
L 322.620799 192.945168 
L 322.524446 193.133664 
L 322.23383 191.836368 
L 322.038729 192.579264 
L 321.446933 191.65896 
L 321.247423 192.568176 
L 321.147243 192.756672 
L 320.946058 192.390768 
L 320.33547 191.470464 
L 320.129562 191.65896 
L 320.026187 191.470464 
L 319.714139 192.579264 
L 319.504596 191.470464 
L 319.29377 192.568176 
L 319.187883 193.122576 
L 318.975184 192.21336 
L 318.868336 192.035952 
L 318.761164 192.76776 
L 318.220402 190.916064 
L 318.001776 191.093472 
L 317.781756 192.390768 
L 317.225664 191.459376 
L 316.774405 192.024864 
L 316.660675 191.470464 
L 316.546577 191.65896 
L 316.432144 190.916064 
L 316.202089 191.093472 
L 316.086498 192.024864 
L 315.854208 191.10456 
L 315.73747 191.281968 
L 315.50283 192.013776 
L 315.384958 191.281968 
L 315.266656 191.281968 
L 315.147956 190.916064 
L 314.789479 191.65896 
L 314.669161 192.024864 
L 314.548432 192.024864 
L 314.183785 190.916064 
L 313.815297 192.390768 
L 313.691607 191.65896 
L 313.567521 191.65896 
L 313.442959 191.293056 
L 313.317956 191.65896 
L 313.19251 191.281968 
L 313.066654 191.281968 
L 312.813511 191.470464 
L 312.686256 191.10456 
L 312.558541 191.470464 
L 312.430401 191.293056 
L 312.301755 191.847456 
L 312.172639 191.847456 
L 312.043049 191.65896 
L 311.912982 191.10456 
L 311.782473 191.293056 
L 311.51992 192.21336 
L 310.988924 190.916064 
L 310.854908 191.293056 
L 310.720382 191.293056 
L 310.585381 191.847456 
L 310.449822 191.293056 
L 310.31374 191.293056 
L 310.177131 190.916064 
L 309.90236 190.916064 
L 309.764148 190.55016 
L 309.625393 191.10456 
L 309.48609 190.916064 
L 309.346277 190.916064 
L 309.205867 190.361664 
L 308.638617 191.65896 
L 308.495358 190.738656 
L 308.351516 190.55016 
L 308.207086 189.99576 
L 307.77026 191.647872 
L 307.623427 191.281968 
L 307.475981 190.539072 
L 307.327917 190.539072 
L 307.179274 190.904976 
L 307.029958 190.904976 
L 306.880008 190.350576 
L 306.729418 190.350576 
L 306.426344 191.647872 
L 306.273803 191.470464 
L 305.96673 189.618768 
L 305.812233 188.687376 
L 305.65701 189.618768 
L 305.501101 189.618768 
L 305.344501 190.361664 
L 305.187204 190.361664 
L 304.711111 189.807264 
L 304.55096 190.539072 
L 304.390128 190.361664 
L 304.228511 190.55016 
L 304.066151 190.55016 
L 303.903042 190.916064 
L 303.739175 190.916064 
L 303.243012 189.984672 
L 302.739778 189.984672 
L 302.57041 189.618768 
L 302.057427 189.618768 
L 301.711217 189.99576 
L 301.53683 191.281968 
L 301.361578 190.539072 
L 301.185505 190.539072 
L 301.008496 189.807264 
L 300.651794 190.916064 
L 300.291506 190.361664 
L 300.109947 189.252864 
L 299.92745 189.807264 
L 299.744004 189.984672 
L 299.559656 189.796176 
L 298.812258 187.412256 
L 298.2412 189.075456 
L 298.048757 189.075456 
L 297.855259 189.44136 
L 297.660754 189.075456 
L 297.465113 189.252864 
L 297.268381 188.698464 
L 297.070548 189.064368 
L 296.470369 186.292368 
L 296.268 186.480864 
L 295.859812 187.589664 
L 295.446788 186.11496 
L 295.23845 185.56056 
L 295.028875 186.292368 
L 294.818113 186.103872 
L 294.606021 186.103872 
L 293.961993 189.807264 
L 293.526087 187.966656 
L 293.306067 187.77816 
L 293.084666 187.966656 
L 292.861936 187.412256 
L 292.637725 186.11496 
L 292.184985 186.11496 
L 291.95642 187.22376 
L 291.726435 187.22376 
L 291.494872 187.77816 
L 291.261781 186.857856 
L 291.027141 186.480864 
L 290.790931 185.549472 
L 290.553202 186.103872 
L 290.31379 185.549472 
L 290.072743 185.372064 
L 289.83004 184.45176 
L 289.339644 187.22376 
L 289.091832 186.846768 
L 288.590927 184.45176 
L 288.33786 184.640256 
L 288.08289 184.263264 
L 287.56736 184.629168 
L 287.306745 183.708864 
L 287.044271 183.708864 
L 286.779751 183.520368 
L 286.513235 183.708864 
L 286.244692 183.34296 
L 285.974092 183.34296 
L 285.701483 184.074768 
L 285.149703 183.154464 
L 284.870546 181.491264 
L 284.589249 180.748368 
L 284.305608 182.965968 
L 284.019669 183.520368 
L 283.731397 184.817664 
L 283.440751 182.777472 
L 283.147782 184.263264 
L 282.852273 184.074768 
L 282.554269 185.00616 
L 282.253729 183.89736 
L 281.95061 184.085856 
L 281.644957 182.977056 
L 281.336543 182.78856 
L 281.025412 182.422656 
L 280.711515 182.78856 
L 280.394897 182.600064 
L 280.075319 182.777472 
L 279.752822 182.034576 
L 279.427352 183.143376 
L 279.098855 183.143376 
L 278.767373 184.074768 
L 278.432648 182.600064 
L 278.09472 182.045664 
L 277.753527 180.005472 
L 277.409005 180.005472 
L 277.061194 179.451072 
L 276.709816 180.382464 
L 276.354906 180.01656 
L 275.996394 178.730352 
L 275.634313 176.878656 
L 275.26837 176.13576 
L 274.524907 178.719264 
L 274.147222 178.530768 
L 273.379629 176.867568 
L 272.989424 176.867568 
L 272.195835 175.758768 
L 271.792372 175.947264 
L 271.384123 174.461472 
L 270.971099 174.649968 
L 270.553186 174.461472 
L 269.702352 176.501664 
L 269.269056 175.02696 
L 268.830377 175.58136 
L 268.38618 173.729664 
L 267.93646 172.80936 
L 267.4808 172.432368 
L 267.019183 172.432368 
L 266.551452 173.907072 
L 266.077442 174.461472 
L 265.597127 174.095568 
L 265.110041 174.649968 
L 264.616142 173.729664 
L 264.115237 174.649968 
L 263.607124 172.620864 
L 263.091749 172.80936 
L 262.568582 172.077552 
L 262.037546 170.780256 
L 260.951065 169.294464 
L 260.394941 169.660368 
L 259.255708 167.631264 
L 258.672004 169.117056 
L 258.07867 168.92856 
L 257.475012 169.848864 
L 256.860854 168.551568 
L 256.235825 167.997168 
L 255.599534 166.699872 
L 254.951762 167.254272 
L 254.291684 166.888368 
L 253.619031 166.71096 
L 252.933316 164.49336 
L 252.234233 161.532864 
L 250.792681 160.789968 
L 250.049218 165.291696 
L 249.289764 165.912624 
L 248.513852 166.899456 
L 248.198365 162.841248 
L 248.039796 165.424752 
L 247.960125 164.504448 
L 247.80048 162.10944 
L 247.720266 162.475344 
L 247.639869 162.66384 
L 247.478525 161.00064 
L 247.316683 164.138544 
L 247.235361 163.950048 
L 247.072399 162.841248 
L 246.908434 164.870352 
L 246.826165 164.127456 
L 246.661299 160.623648 
L 246.495409 162.841248 
L 246.328988 160.069248 
L 246.245356 160.257744 
L 245.993267 162.475344 
L 245.909089 164.315952 
L 245.824456 161.920944 
L 245.569589 165.43584 
L 245.484137 165.069936 
L 245.054008 156.742848 
L 244.793498 163.395648 
L 244.618575 160.435152 
L 244.530788 160.246656 
L 244.266375 157.851648 
L 244.177706 161.920944 
L 244.088814 161.00064 
L 243.999966 161.00064 
L 243.910625 158.406048 
L 243.731263 160.801056 
L 243.641238 162.098352 
L 243.551255 160.435152 
L 243.460771 162.098352 
L 243.370053 161.355456 
L 243.279102 161.909856 
L 243.188191 160.801056 
L 242.913214 162.098352 
L 242.636357 156.920256 
L 242.543494 158.029056 
L 242.357313 162.841248 
L 242.169862 160.069248 
L 242.075763 160.246656 
L 241.887092 162.464256 
L 241.601752 153.23904 
L 241.314377 157.297248 
L 241.217967 157.297248 
L 241.121292 157.485744 
L 240.927438 160.812144 
L 240.829964 160.435152 
L 240.73222 159.514848 
L 240.536212 154.713744 
L 240.43765 154.34784 
L 240.239698 160.812144 
L 240.040929 157.108752 
L 239.840734 152.307648 
L 239.740209 151.753248 
L 239.6397 152.119152 
L 239.335528 158.217552 
L 239.233859 158.583456 
L 239.131589 160.435152 
L 238.822989 156.376944 
L 238.719832 156.56544 
L 238.61606 157.11984 
L 238.511982 154.90224 
L 238.407597 156.188448 
L 238.092892 151.753248 
L 237.987259 155.079648 
L 237.881308 154.525248 
L 237.775358 156.554352 
L 237.668769 153.593856 
L 237.561857 154.891152 
L 237.131268 150.644448 
L 236.913824 153.227952 
L 236.804927 153.416448 
L 236.695363 152.862048 
L 236.47521 153.782352 
L 236.364949 153.604944 
L 236.25401 153.050544 
L 236.14272 153.416448 
L 236.031079 152.673552 
L 235.694361 156.188448 
L 235.581291 155.999952 
L 235.467857 154.336752 
L 235.240235 148.615344 
L 235.125699 148.615344 
L 234.895506 153.416448 
L 234.664152 151.74216 
L 234.547729 151.930656 
L 234.430921 152.485056 
L 234.314077 154.148256 
L 234.196492 153.40536 
L 234.078514 153.782352 
L 233.722555 148.604256 
L 233.602981 149.158656 
L 233.483 150.821856 
L 233.36261 149.158656 
L 233.242171 149.158656 
L 232.999323 152.862048 
L 232.877269 152.307648 
L 232.632259 147.495456 
L 232.508928 148.792752 
L 232.385165 153.039456 
L 232.260967 153.227952 
L 232.136705 152.119152 
L 232.011628 149.169744 
L 231.760136 152.496144 
L 231.379892 146.763648 
L 231.2521 149.347152 
L 231.123844 148.615344 
L 230.995508 151.198848 
L 230.866315 148.615344 
L 230.736648 149.724144 
L 230.606503 148.437936 
L 230.475876 149.546736 
L 230.21356 148.238352 
L 230.081468 148.604256 
L 229.948881 150.090048 
L 229.816195 149.724144 
L 229.682606 147.14064 
L 229.54851 147.318048 
L 229.27878 149.347152 
L 229.007383 147.506544 
L 228.870693 149.169744 
L 228.59613 147.683952 
L 228.457835 146.19816 
L 228.318997 146.75256 
L 228.039672 148.792752 
L 227.899599 147.872448 
L 227.758544 147.872448 
L 227.616923 144.911952 
L 227.474732 145.466352 
L 227.332395 142.882848 
L 227.189052 143.071344 
L 227.045124 142.328448 
L 226.900606 143.991648 
L 226.610224 143.437248 
L 226.463912 142.516944 
L 226.169457 144.734544 
L 226.021304 145.100448 
L 225.872974 145.100448 
L 225.723569 144.357552 
L 225.573529 146.209248 
L 225.422848 145.654848 
L 225.271978 145.843344 
L 224.96737 146.941056 
L 224.814075 146.020752 
L 224.660112 143.437248 
L 224.505939 143.81424 
L 224.350624 142.516944 
L 224.194622 139.93344 
L 224.037928 139.190544 
L 223.722913 143.248752 
L 223.564107 143.437248 
L 223.404584 140.110848 
L 223.244336 139.37904 
L 223.083842 137.893248 
L 222.596464 144.723456 
L 222.432992 143.060256 
L 222.268263 143.991648 
L 222.102762 141.585552 
L 221.936482 144.734544 
L 221.60206 140.110848 
L 221.4334 139.002048 
L 221.26393 141.219648 
L 221.093643 141.219648 
L 220.923046 140.110848 
L 220.751103 137.16144 
L 220.578319 136.418544 
L 220.055363 140.853744 
L 219.879132 137.71584 
L 219.702017 138.27024 
L 219.524009 137.527344 
L 219.345638 137.527344 
L 219.16582 137.338848 
L 218.985081 137.527344 
L 218.803413 138.636144 
L 218.620805 138.447648 
L 218.437801 139.002048 
L 218.067805 138.081744 
L 217.694455 131.972256 
L 217.316546 133.83504 
L 217.126063 135.864144 
L 216.548955 130.320144 
L 216.354275 130.320144 
L 216.158516 131.06304 
L 215.962258 131.251536 
L 215.56524 128.84544 
L 215.365045 128.84544 
L 215.163708 132.349248 
L 214.961826 131.051952 
L 214.75817 133.635456 
L 214.553333 132.903648 
L 214.3473 138.447648 
L 214.140683 133.458048 
L 213.932221 131.606352 
L 213.722522 127.359648 
L 213.51157 130.131648 
L 213.29935 130.131648 
L 213.086489 129.943152 
L 212.655579 124.765056 
L 212.438135 125.873856 
L 211.999852 131.240448 
L 211.77832 130.874544 
L 211.55539 130.874544 
L 211.105942 128.656944 
L 210.878711 129.388752 
L 210.65001 128.279952 
L 210.419817 128.279952 
L 210.188812 125.142048 
L 209.720803 123.112944 
L 209.484452 123.85584 
L 209.246508 126.993744 
L 209.007672 125.884944 
L 208.766482 125.696448 
L 208.523634 123.30144 
L 208.279104 124.587648 
L 208.03361 122.924448 
L 207.785651 123.101856 
L 207.535938 121.072752 
L 207.284447 124.399152 
L 207.031152 123.112944 
L 206.776796 124.41024 
L 206.519819 121.63824 
L 206.260959 122.370048 
L 206.000187 119.221056 
L 205.738266 120.518352 
L 205.473591 118.855152 
L 205.206917 121.449744 
L 204.938213 118.489248 
L 204.667449 118.123344 
L 204.120441 115.894656 
L 203.843308 118.855152 
L 203.563983 120.152448 
L 203.283279 122.004144 
L 202.999471 121.449744 
L 202.713363 120.340944 
L 202.424917 120.706848 
L 202.134096 118.300752 
L 201.841745 118.666656 
L 201.546061 118.666656 
L 200.947159 115.162848 
L 200.338847 115.162848 
L 200.03025 114.419952 
L 199.718933 112.024944 
L 199.088896 110.184336 
L 198.769129 111.65904 
L 198.44644 109.99584 
L 198.120775 109.252944 
L 197.792078 107.77824 
L 196.788241 106.303536 
L 196.446842 111.470544 
L 195.75503 110.71656 
L 195.403443 105.915456 
L 195.04832 107.578656 
L 194.328271 104.629248 
L 193.962112 101.857248 
L 193.218202 106.658352 
L 192.841427 107.589744 
L 192.073266 104.074848 
L 191.682826 103.143456 
L 191.288022 100.925856 
L 190.889958 104.252256 
L 190.486137 104.074848 
L 190.077644 102.78864 
L 189.66437 99.828144 
L 189.247464 100.005552 
L 188.8243 99.817056 
L 188.396002 96.490656 
L 187.962446 95.381856 
L 187.5235 95.570352 
L 187.080372 98.719344 
L 186.630252 99.096336 
L 186.174321 97.610544 
L 185.712425 97.233552 
L 185.245821 96.490656 
L 184.771536 96.679152 
L 184.290793 95.015952 
L 183.803414 95.015952 
L 183.309215 95.758848 
L 182.809516 94.47264 
L 182.301106 94.47264 
L 181.78527 94.838544 
L 181.261785 93.729744 
L 180.732031 91.878048 
L 180.192576 93.352752 
L 179.644751 96.124752 
L 179.088293 96.313248 
L 178.522926 95.02704 
L 177.950098 92.80944 
L 177.364287 94.47264 
L 177.247369 93.36384 
L 177.010579 87.442848 
L 176.89069 88.363152 
L 176.410654 106.480944 
L 176.288707 104.263344 
L 176.168167 93.91824 
L 175.924003 95.947344 
L 175.80036 96.313248 
L 175.678138 92.80944 
L 175.55363 92.80944 
L 175.428682 99.828144 
L 175.305165 100.382544 
L 175.179332 95.947344 
L 174.928209 81.72144 
L 174.675288 99.273744 
L 174.547186 101.67984 
L 174.291511 87.076944 
L 174.163943 87.076944 
L 173.645086 94.284144 
L 173.116495 118.300752 
L 172.850208 103.886352 
L 172.581897 89.660448 
L 172.311532 84.859344 
L 172.174545 89.671536 
L 171.90103 105.00624 
L 171.76451 102.78864 
L 171.487789 91.70064 
L 171.347562 92.432448 
L 171.208881 90.580752 
L 171.06754 90.946656 
L 170.925631 90.769248 
L 170.78528 94.650048 
L 170.500746 108.875952 
L 170.356536 109.252944 
L 170.068512 91.14624 
L 169.924705 87.631344 
L 169.778118 87.808752 
L 169.630921 86.699952 
L 169.040393 96.490656 
L 168.892329 95.758848 
L 168.741384 104.817744 
L 168.592058 104.817744 
L 168.439821 108.510048 
L 167.828858 90.03744 
L 167.673288 89.660448 
L 167.362423 93.164256 
L 166.889744 86.15664 
L 166.413063 94.838544 
L 166.251114 97.976448 
L 166.090852 96.679152 
L 165.927415 98.153856 
L 165.765674 96.85656 
L 165.600721 99.451152 
L 165.434994 97.976448 
L 165.270976 99.46224 
L 165.10369 105.738048 
L 164.938123 107.401248 
L 164.769249 105.361056 
L 164.43161 92.243952 
L 163.571804 109.99584 
L 163.398878 108.510048 
L 163.222461 105.361056 
L 163.047811 95.015952 
L 162.693219 96.878736 
L 162.513232 102.977136 
L 162.332323 103.531536 
L 162.153203 103.34304 
L 161.970435 102.966048 
L 161.789465 104.629248 
L 161.6048 108.698544 
L 161.421942 108.144144 
L 161.235339 104.074848 
L 160.861972 93.541248 
L 160.292979 104.263344 
L 159.909458 97.987536 
L 159.717582 96.501744 
L 159.521726 105.183648 
L 159.327725 108.321552 
L 159.129689 105.183648 
L 158.930536 96.501744 
L 158.733251 97.79904 
L 158.332311 111.65904 
L 158.128596 110.361744 
L 157.926767 108.33264 
L 157.720692 104.629248 
L 157.51651 106.480944 
L 157.30802 105.738048 
L 157.098292 109.807344 
L 156.678238 102.034656 
L 156.46792 95.936256 
L 156.253127 97.045056 
L 156.040254 101.857248 
L 155.822835 102.966048 
L 155.387236 100.748448 
L 154.946196 105.56064 
L 154.721913 109.44144 
L 154.499577 105.194736 
L 154.047237 89.660448 
L 153.589027 96.501744 
L 153.121279 105.361056 
L 152.650813 107.94456 
L 152.415001 103.143456 
L 151.934965 107.401248 
L 151.690648 105.926544 
L 151.200594 96.501744 
L 150.703643 100.382544 
L 150.199598 95.758848 
L 149.169397 104.45184 
L 148.905101 108.510048 
L 148.638812 109.064448 
L 148.104183 94.650048 
L 147.835843 93.718656 
L 147.561335 98.530848 
L 147.288821 105.372144 
L 147.010011 107.966736 
L 146.733192 107.035344 
L 146.449942 107.589744 
L 146.164402 107.212752 
L 145.880847 108.875952 
L 145.590648 107.767152 
L 145.302429 107.212752 
L 145.007417 107.955648 
L 144.714379 107.955648 
L 144.116369 100.382544 
L 143.811236 98.719344 
L 143.503443 101.67984 
L 143.197598 105.738048 
L 142.884386 106.469856 
L 142.573108 108.133056 
L 142.254282 103.143456 
L 141.937374 101.480256 
L 141.612729 102.223152 
L 141.289985 105.738048 
L 140.959304 107.77824 
L 140.625498 108.88704 
L 140.29356 114.065136 
L 139.95337 116.837136 
L 139.615022 115.53984 
L 139.268199 115.162848 
L 138.923189 111.282048 
L 138.569469 110.173248 
L 138.21753 103.89744 
L 137.129111 106.480944 
L 136.756858 108.144144 
L 136.386283 107.589744 
L 136.006073 112.756752 
L 135.627492 113.311152 
L 134.852036 118.855152 
L 134.053139 111.282048 
L 133.652907 103.331952 
L 133.241918 107.767152 
L 132.832331 109.430352 
L 132.411621 112.756752 
L 131.992231 121.627152 
L 131.131656 126.23976 
L 130.690057 119.58696 
L 130.242866 117.191952 
L 129.796741 111.836448 
L 129.338018 104.629248 
L 128.880238 103.331952 
L 128.409372 108.510048 
L 127.939312 111.65904 
L 127.455642 117.391536 
L 126.972624 112.401936 
L 126.475435 110.738736 
L 125.971146 105.372144 
L 125.46724 109.252944 
L 124.429411 120.163536 
L 123.89481 124.044336 
L 123.360153 124.598736 
L 122.808987 125.330544 
L 122.257503 120.706848 
L 121.110609 109.252944 
L 120.531728 109.99584 
L 119.934206 114.242544 
L 118.717255 124.57656 
L 118.097419 125.13096 
L 117.456862 125.319456 
L 116.814295 120.329856 
L 116.149809 119.043648 
L 115.472578 118.855152 
L 114.792509 122.181552 
L 113.380944 122.924448 
L 111.910594 121.449744 
L 110.376347 117.36936 
L 108.760058 120.884256 
L 107.935932 122.181552 
L 107.079169 124.765056 
L 106.214368 126.428256 
L 105.314249 125.13096 
L 104.404549 120.14136 
L 103.456452 119.775456 
L 102.496935 120.884256 
L 101.495457 127.171152 
L 100.464744 128.091456 
L 99.419121 131.240448 
L 98.325006 131.240448 
L 97.213023 130.686048 
L 96.047195 128.091456 
L 94.859858 127.34856 
L 93.612254 128.279952 
L 92.338606 128.656944 
L 90.996889 128.29104 
L 89.602169 130.320144 
L 88.172205 139.922352 
L 86.658808 145.832256 
L 85.10176 146.941056 
L 81.738679 137.71584 
L 79.914895 141.59664 
L 78.021246 141.774048 
L 73.832727 141.774048 
L 73.832727 141.774048 
" clip-path="url(#p0b4ed7992e)" style="fill: none; stroke: #ff0000; stroke-width: 1.5; stroke-linecap: square"/>
   </g>
   <g id="patch_3">
    <path d="M 57.6 307.584 
L 57.6 41.472 
" style="fill: none; stroke: #000000; stroke-width: 0.8; stroke-linejoin: miter; stroke-linecap: square"/>
   </g>
   <g id="patch_4">
    <path d="M 414.72 307.584 
L 414.72 41.472 
" style="fill: none; stroke: #000000; stroke-width: 0.8; stroke-linejoin: miter; stroke-linecap: square"/>
   </g>
   <g id="patch_5">
    <path d="M 57.6 307.584 
L 414.72 307.584 
" style="fill: none; stroke: #000000; stroke-width: 0.8; stroke-linejoin: miter; stroke-linecap: square"/>
   </g>
   <g id="patch_6">
    <path d="M 57.6 41.472 
L 414.72 41.472 
" style="fill: none; stroke: #000000; stroke-width: 0.8; stroke-linejoin: miter; stroke-linecap: square"/>
   </g>
   <g id="text_17">
    <!-- LMX2491 10kHz (frac, 3) -->
    <g transform="translate(161.807813 35.472)scale(0.12 -0.12)">
     <defs>
      <path id="DejaVuSans-4c" d="M 628 4666 
L 1259 4666 
L 1259 531 
L 3531 531 
L 3531 0 
L 628 0 
L 628 4666 
z
" transform="scale(0.015625)"/>
      <path id="DejaVuSans-4d" d="M 628 4666 
L 1569 4666 
L 2759 1491 
L 3956 4666 
L 4897 4666 
L 4897 0 
L 4281 0 
L 4281 4097 
L 3078 897 
L 2444 897 
L 1241 4097 
L 1241 0 
L 628 0 
L 628 4666 
z
" transform="scale(0.015625)"/>
      <path id="DejaVuSans-58" d="M 403 4666 
L 1081 4666 
L 2241 2931 
L 3406 4666 
L 4084 4666 
L 2584 2425 
L 4184 0 
L 3506 0 
L 2194 1984 
L 872 0 
L 191 0 
L 1856 2491 
L 403 4666 
z
" transform="scale(0.015625)"/>
      <path id="DejaVuSans-6b" d="M 581 4863 
L 1159 4863 
L 1159 1991 
L 2875 3500 
L 3609 3500 
L 1753 1863 
L 3688 0 
L 2938 0 
L 1159 1709 
L 1159 0 
L 581 0 
L 581 4863 
z
" transform="scale(0.015625)"/>
      <path id="DejaVuSans-28" d="M 1984 4856 
Q 1566 4138 1362 3434 
Q 1159 2731 1159 2009 
Q 1159 1288 1364 580 
Q 1569 -128 1984 -844 
L 1484 -844 
Q 1016 -109 783 600 
Q 550 1309 550 2009 
Q 550 2706 781 3412 
Q 1013 4119 1484 4856 
L 1984 4856 
z
" transform="scale(0.015625)"/>
      <path id="DejaVuSans-66" d="M 2375 4863 
L 2375 4384 
L 1825 4384 
Q 1516 4384 1395 4259 
Q 1275 4134 1275 3809 
L 1275 3500 
L 2222 3500 
L 2222 3053 
L 1275 3053 
L 1275 0 
L 697 0 
L 697 3053 
L 147 3053 
L 147 3500 
L 697 3500 
L 697 3744 
Q 697 4328 969 4595 
Q 1241 4863 1831 4863 
L 2375 4863 
z
" transform="scale(0.015625)"/>
      <path id="DejaVuSans-2c" d="M 750 794 
L 1409 794 
L 1409 256 
L 897 -744 
L 494 -744 
L 750 256 
L 750 794 
z
" transform="scale(0.015625)"/>
      <path id="DejaVuSans-29" d="M 513 4856 
L 1013 4856 
Q 1481 4119 1714 3412 
Q 1947 2706 1947 2009 
Q 1947 1309 1714 600 
Q 1481 -109 1013 -844 
L 513 -844 
Q 928 -128 1133 580 
Q 1338 1288 1338 2009 
Q 1338 2731 1133 3434 
Q 928 4138 513 4856 
z
" transform="scale(0.015625)"/>
     </defs>
     <use xlink:href="#DejaVuSans-4c"/>
     <use xlink:href="#DejaVuSans-4d" x="55.712891"/>
     <use xlink:href="#DejaVuSans-58" x="141.992188"/>
     <use xlink:href="#DejaVuSans-32" x="210.498047"/>
     <use xlink:href="#DejaVuSans-34" x="274.121094"/>
     <use xlink:href="#DejaVuSans-39" x="337.744141"/>
     <use xlink:href="#DejaVuSans-31" x="401.367188"/>
     <use xlink:href="#DejaVuSans-20" x="464.990234"/>
     <use xlink:href="#DejaVuSans-31" x="496.777344"/>
     <use xlink:href="#DejaVuSans-30" x="560.400391"/>
     <use xlink:href="#DejaVuSans-6b" x="624.023438"/>
     <use xlink:href="#DejaVuSans-48" x="681.933594"/>
     <use xlink:href="#DejaVuSans-7a" x="757.128906"/>
     <use xlink:href="#DejaVuSans-20" x="809.619141"/>
     <use xlink:href="#DejaVuSans-28" x="841.40625"/>
     <use xlink:href="#DejaVuSans-66" x="880.419922"/>
     <use xlink:href="#DejaVuSans-72" x="915.625"/>
     <use xlink:href="#DejaVuSans-61" x="956.738281"/>
     <use xlink:href="#DejaVuSans-63" x="1018.017578"/>
     <use xlink:href="#DejaVuSans-2c" x="1072.998047"/>
     <use xlink:href="#DejaVuSans-20" x="1104.785156"/>
     <use xlink:href="#DejaVuSans-33" x="1136.572266"/>
     <use xlink:href="#DejaVuSans-29" x="1200.195312"/>
    </g>
   </g>
   <g id="legend_1">
    <g id="patch_7">
     <path d="M 332.0575 64.150125 
L 407.72 64.150125 
Q 409.72 64.150125 409.72 62.150125 
L 409.72 48.472 
Q 409.72 46.472 407.72 46.472 
L 332.0575 46.472 
Q 330.0575 46.472 330.0575 48.472 
L 330.0575 62.150125 
Q 330.0575 64.150125 332.0575 64.150125 
z
" style="fill: #ffffff; opacity: 0.8; stroke: #cccccc; stroke-linejoin: miter"/>
    </g>
    <g id="line2d_51">
     <path d="M 334.0575 54.570438 
L 344.0575 54.570438 
L 354.0575 54.570438 
" style="fill: none; stroke: #ff0000; stroke-width: 1.5; stroke-linecap: square"/>
    </g>
    <g id="text_18">
     <!-- 650 MHz -->
     <g transform="translate(362.0575 58.070438)scale(0.1 -0.1)">
      <use xlink:href="#DejaVuSans-36"/>
      <use xlink:href="#DejaVuSans-35" x="63.623047"/>
      <use xlink:href="#DejaVuSans-30" x="127.246094"/>
      <use xlink:href="#DejaVuSans-20" x="190.869141"/>
      <use xlink:href="#DejaVuSans-4d" x="222.65625"/>
      <use xlink:href="#DejaVuSans-48" x="308.935547"/>
      <use xlink:href="#DejaVuSans-7a" x="384.130859"/>
     </g>
    </g>
   </g>
  </g>
 </g>
 <defs>
  <clipPath id="p0b4ed7992e">
   <rect x="57.6" y="41.472" width="357.12" height="266.112"/>
  </clipPath>
 </defs>
</svg>
