<?xml version="1.0" encoding="utf-8" standalone="no"?>
<!DOCTYPE svg PUBLIC "-//W3C//DTD SVG 1.1//EN"
  "http://www.w3.org/Graphics/SVG/1.1/DTD/svg11.dtd">
<svg xmlns:xlink="http://www.w3.org/1999/xlink" width="460.8pt" height="345.6pt" viewBox="0 0 460.8 345.6" xmlns="http://www.w3.org/2000/svg" version="1.1">
 <metadata>
  <rdf:RDF xmlns:dc="http://purl.org/dc/elements/1.1/" xmlns:cc="http://creativecommons.org/ns#" xmlns:rdf="http://www.w3.org/1999/02/22-rdf-syntax-ns#">
   <cc:Work>
    <dc:type rdf:resource="http://purl.org/dc/dcmitype/StillImage"/>
    <dc:date>2022-02-24T10:54:59.948763</dc:date>
    <dc:format>image/svg+xml</dc:format>
    <dc:creator>
     <cc:Agent>
      <dc:title>Matplotlib v3.5.1, https://matplotlib.org/</dc:title>
     </cc:Agent>
    </dc:creator>
   </cc:Work>
  </rdf:RDF>
 </metadata>
 <defs>
  <style type="text/css">*{stroke-linejoin: round; stroke-linecap: butt}</style>
 </defs>
 <g id="figure_1">
  <g id="patch_1">
   <path d="M 0 345.6 
L 460.8 345.6 
L 460.8 0 
L 0 0 
z
" style="fill: #ffffff"/>
  </g>
  <g id="axes_1">
   <g id="patch_2">
    <path d="M 57.6 307.584 
L 414.72 307.584 
L 414.72 41.472 
L 57.6 41.472 
z
" style="fill: #ffffff"/>
   </g>
   <g id="matplotlib.axis_1">
    <g id="xtick_1">
     <g id="line2d_1">
      <defs>
       <path id="m96303c849e" d="M 0 0 
L 0 3.5 
" style="stroke: #000000; stroke-width: 0.8"/>
      </defs>
      <g>
       <use xlink:href="#m96303c849e" x="71.6088" y="307.584" style="stroke: #000000; stroke-width: 0.8"/>
      </g>
     </g>
     <g id="text_1">
      <!-- $\mathdefault{10^{3}}$ -->
      <g transform="translate(62.8088 322.182437)scale(0.1 -0.1)">
       <defs>
        <path id="DejaVuSans-31" d="M 794 531 
L 1825 531 
L 1825 4091 
L 703 3866 
L 703 4441 
L 1819 4666 
L 2450 4666 
L 2450 531 
L 3481 531 
L 3481 0 
L 794 0 
L 794 531 
z
" transform="scale(0.015625)"/>
        <path id="DejaVuSans-30" d="M 2034 4250 
Q 1547 4250 1301 3770 
Q 1056 3291 1056 2328 
Q 1056 1369 1301 889 
Q 1547 409 2034 409 
Q 2525 409 2770 889 
Q 3016 1369 3016 2328 
Q 3016 3291 2770 3770 
Q 2525 4250 2034 4250 
z
M 2034 4750 
Q 2819 4750 3233 4129 
Q 3647 3509 3647 2328 
Q 3647 1150 3233 529 
Q 2819 -91 2034 -91 
Q 1250 -91 836 529 
Q 422 1150 422 2328 
Q 422 3509 836 4129 
Q 1250 4750 2034 4750 
z
" transform="scale(0.015625)"/>
        <path id="DejaVuSans-33" d="M 2597 2516 
Q 3050 2419 3304 2112 
Q 3559 1806 3559 1356 
Q 3559 666 3084 287 
Q 2609 -91 1734 -91 
Q 1441 -91 1130 -33 
Q 819 25 488 141 
L 488 750 
Q 750 597 1062 519 
Q 1375 441 1716 441 
Q 2309 441 2620 675 
Q 2931 909 2931 1356 
Q 2931 1769 2642 2001 
Q 2353 2234 1838 2234 
L 1294 2234 
L 1294 2753 
L 1863 2753 
Q 2328 2753 2575 2939 
Q 2822 3125 2822 3475 
Q 2822 3834 2567 4026 
Q 2313 4219 1838 4219 
Q 1578 4219 1281 4162 
Q 984 4106 628 3988 
L 628 4550 
Q 988 4650 1302 4700 
Q 1616 4750 1894 4750 
Q 2613 4750 3031 4423 
Q 3450 4097 3450 3541 
Q 3450 3153 3228 2886 
Q 3006 2619 2597 2516 
z
" transform="scale(0.015625)"/>
       </defs>
       <use xlink:href="#DejaVuSans-31" transform="translate(0 0.765625)"/>
       <use xlink:href="#DejaVuSans-30" transform="translate(63.623047 0.765625)"/>
       <use xlink:href="#DejaVuSans-33" transform="translate(128.203125 39.046875)scale(0.7)"/>
      </g>
     </g>
    </g>
    <g id="xtick_2">
     <g id="line2d_2">
      <g>
       <use xlink:href="#m96303c849e" x="152.923587" y="307.584" style="stroke: #000000; stroke-width: 0.8"/>
      </g>
     </g>
     <g id="text_2">
      <!-- $\mathdefault{10^{4}}$ -->
      <g transform="translate(144.123587 322.182437)scale(0.1 -0.1)">
       <defs>
        <path id="DejaVuSans-34" d="M 2419 4116 
L 825 1625 
L 2419 1625 
L 2419 4116 
z
M 2253 4666 
L 3047 4666 
L 3047 1625 
L 3713 1625 
L 3713 1100 
L 3047 1100 
L 3047 0 
L 2419 0 
L 2419 1100 
L 313 1100 
L 313 1709 
L 2253 4666 
z
" transform="scale(0.015625)"/>
       </defs>
       <use xlink:href="#DejaVuSans-31" transform="translate(0 0.684375)"/>
       <use xlink:href="#DejaVuSans-30" transform="translate(63.623047 0.684375)"/>
       <use xlink:href="#DejaVuSans-34" transform="translate(128.203125 38.965625)scale(0.7)"/>
      </g>
     </g>
    </g>
    <g id="xtick_3">
     <g id="line2d_3">
      <g>
       <use xlink:href="#m96303c849e" x="234.238375" y="307.584" style="stroke: #000000; stroke-width: 0.8"/>
      </g>
     </g>
     <g id="text_3">
      <!-- $\mathdefault{10^{5}}$ -->
      <g transform="translate(225.438375 322.182437)scale(0.1 -0.1)">
       <defs>
        <path id="DejaVuSans-35" d="M 691 4666 
L 3169 4666 
L 3169 4134 
L 1269 4134 
L 1269 2991 
Q 1406 3038 1543 3061 
Q 1681 3084 1819 3084 
Q 2600 3084 3056 2656 
Q 3513 2228 3513 1497 
Q 3513 744 3044 326 
Q 2575 -91 1722 -91 
Q 1428 -91 1123 -41 
Q 819 9 494 109 
L 494 744 
Q 775 591 1075 516 
Q 1375 441 1709 441 
Q 2250 441 2565 725 
Q 2881 1009 2881 1497 
Q 2881 1984 2565 2268 
Q 2250 2553 1709 2553 
Q 1456 2553 1204 2497 
Q 953 2441 691 2322 
L 691 4666 
z
" transform="scale(0.015625)"/>
       </defs>
       <use xlink:href="#DejaVuSans-31" transform="translate(0 0.684375)"/>
       <use xlink:href="#DejaVuSans-30" transform="translate(63.623047 0.684375)"/>
       <use xlink:href="#DejaVuSans-35" transform="translate(128.203125 38.965625)scale(0.7)"/>
      </g>
     </g>
    </g>
    <g id="xtick_4">
     <g id="line2d_4">
      <g>
       <use xlink:href="#m96303c849e" x="315.553163" y="307.584" style="stroke: #000000; stroke-width: 0.8"/>
      </g>
     </g>
     <g id="text_4">
      <!-- $\mathdefault{10^{6}}$ -->
      <g transform="translate(306.753163 322.182437)scale(0.1 -0.1)">
       <defs>
        <path id="DejaVuSans-36" d="M 2113 2584 
Q 1688 2584 1439 2293 
Q 1191 2003 1191 1497 
Q 1191 994 1439 701 
Q 1688 409 2113 409 
Q 2538 409 2786 701 
Q 3034 994 3034 1497 
Q 3034 2003 2786 2293 
Q 2538 2584 2113 2584 
z
M 3366 4563 
L 3366 3988 
Q 3128 4100 2886 4159 
Q 2644 4219 2406 4219 
Q 1781 4219 1451 3797 
Q 1122 3375 1075 2522 
Q 1259 2794 1537 2939 
Q 1816 3084 2150 3084 
Q 2853 3084 3261 2657 
Q 3669 2231 3669 1497 
Q 3669 778 3244 343 
Q 2819 -91 2113 -91 
Q 1303 -91 875 529 
Q 447 1150 447 2328 
Q 447 3434 972 4092 
Q 1497 4750 2381 4750 
Q 2619 4750 2861 4703 
Q 3103 4656 3366 4563 
z
" transform="scale(0.015625)"/>
       </defs>
       <use xlink:href="#DejaVuSans-31" transform="translate(0 0.765625)"/>
       <use xlink:href="#DejaVuSans-30" transform="translate(63.623047 0.765625)"/>
       <use xlink:href="#DejaVuSans-36" transform="translate(128.203125 39.046875)scale(0.7)"/>
      </g>
     </g>
    </g>
    <g id="xtick_5">
     <g id="line2d_5">
      <g>
       <use xlink:href="#m96303c849e" x="396.86795" y="307.584" style="stroke: #000000; stroke-width: 0.8"/>
      </g>
     </g>
     <g id="text_5">
      <!-- $\mathdefault{10^{7}}$ -->
      <g transform="translate(388.06795 322.182437)scale(0.1 -0.1)">
       <defs>
        <path id="DejaVuSans-37" d="M 525 4666 
L 3525 4666 
L 3525 4397 
L 1831 0 
L 1172 0 
L 2766 4134 
L 525 4134 
L 525 4666 
z
" transform="scale(0.015625)"/>
       </defs>
       <use xlink:href="#DejaVuSans-31" transform="translate(0 0.684375)"/>
       <use xlink:href="#DejaVuSans-30" transform="translate(63.623047 0.684375)"/>
       <use xlink:href="#DejaVuSans-37" transform="translate(128.203125 38.965625)scale(0.7)"/>
      </g>
     </g>
    </g>
    <g id="xtick_6">
     <g id="line2d_6">
      <defs>
       <path id="m9450921373" d="M 0 0 
L 0 2 
" style="stroke: #000000; stroke-width: 0.6"/>
      </defs>
      <g>
       <use xlink:href="#m9450921373" x="59.01298" y="307.584" style="stroke: #000000; stroke-width: 0.6"/>
      </g>
     </g>
    </g>
    <g id="xtick_7">
     <g id="line2d_7">
      <g>
       <use xlink:href="#m9450921373" x="63.728583" y="307.584" style="stroke: #000000; stroke-width: 0.6"/>
      </g>
     </g>
    </g>
    <g id="xtick_8">
     <g id="line2d_8">
      <g>
       <use xlink:href="#m9450921373" x="67.888039" y="307.584" style="stroke: #000000; stroke-width: 0.6"/>
      </g>
     </g>
    </g>
    <g id="xtick_9">
     <g id="line2d_9">
      <g>
       <use xlink:href="#m9450921373" x="96.08699" y="307.584" style="stroke: #000000; stroke-width: 0.6"/>
      </g>
     </g>
    </g>
    <g id="xtick_10">
     <g id="line2d_10">
      <g>
       <use xlink:href="#m9450921373" x="110.405813" y="307.584" style="stroke: #000000; stroke-width: 0.6"/>
      </g>
     </g>
    </g>
    <g id="xtick_11">
     <g id="line2d_11">
      <g>
       <use xlink:href="#m9450921373" x="120.56518" y="307.584" style="stroke: #000000; stroke-width: 0.6"/>
      </g>
     </g>
    </g>
    <g id="xtick_12">
     <g id="line2d_12">
      <g>
       <use xlink:href="#m9450921373" x="128.445397" y="307.584" style="stroke: #000000; stroke-width: 0.6"/>
      </g>
     </g>
    </g>
    <g id="xtick_13">
     <g id="line2d_13">
      <g>
       <use xlink:href="#m9450921373" x="134.884003" y="307.584" style="stroke: #000000; stroke-width: 0.6"/>
      </g>
     </g>
    </g>
    <g id="xtick_14">
     <g id="line2d_14">
      <g>
       <use xlink:href="#m9450921373" x="140.327767" y="307.584" style="stroke: #000000; stroke-width: 0.6"/>
      </g>
     </g>
    </g>
    <g id="xtick_15">
     <g id="line2d_15">
      <g>
       <use xlink:href="#m9450921373" x="145.04337" y="307.584" style="stroke: #000000; stroke-width: 0.6"/>
      </g>
     </g>
    </g>
    <g id="xtick_16">
     <g id="line2d_16">
      <g>
       <use xlink:href="#m9450921373" x="149.202827" y="307.584" style="stroke: #000000; stroke-width: 0.6"/>
      </g>
     </g>
    </g>
    <g id="xtick_17">
     <g id="line2d_17">
      <g>
       <use xlink:href="#m9450921373" x="177.401778" y="307.584" style="stroke: #000000; stroke-width: 0.6"/>
      </g>
     </g>
    </g>
    <g id="xtick_18">
     <g id="line2d_18">
      <g>
       <use xlink:href="#m9450921373" x="191.720601" y="307.584" style="stroke: #000000; stroke-width: 0.6"/>
      </g>
     </g>
    </g>
    <g id="xtick_19">
     <g id="line2d_19">
      <g>
       <use xlink:href="#m9450921373" x="201.879968" y="307.584" style="stroke: #000000; stroke-width: 0.6"/>
      </g>
     </g>
    </g>
    <g id="xtick_20">
     <g id="line2d_20">
      <g>
       <use xlink:href="#m9450921373" x="209.760185" y="307.584" style="stroke: #000000; stroke-width: 0.6"/>
      </g>
     </g>
    </g>
    <g id="xtick_21">
     <g id="line2d_21">
      <g>
       <use xlink:href="#m9450921373" x="216.198791" y="307.584" style="stroke: #000000; stroke-width: 0.6"/>
      </g>
     </g>
    </g>
    <g id="xtick_22">
     <g id="line2d_22">
      <g>
       <use xlink:href="#m9450921373" x="221.642555" y="307.584" style="stroke: #000000; stroke-width: 0.6"/>
      </g>
     </g>
    </g>
    <g id="xtick_23">
     <g id="line2d_23">
      <g>
       <use xlink:href="#m9450921373" x="226.358158" y="307.584" style="stroke: #000000; stroke-width: 0.6"/>
      </g>
     </g>
    </g>
    <g id="xtick_24">
     <g id="line2d_24">
      <g>
       <use xlink:href="#m9450921373" x="230.517614" y="307.584" style="stroke: #000000; stroke-width: 0.6"/>
      </g>
     </g>
    </g>
    <g id="xtick_25">
     <g id="line2d_25">
      <g>
       <use xlink:href="#m9450921373" x="258.716565" y="307.584" style="stroke: #000000; stroke-width: 0.6"/>
      </g>
     </g>
    </g>
    <g id="xtick_26">
     <g id="line2d_26">
      <g>
       <use xlink:href="#m9450921373" x="273.035389" y="307.584" style="stroke: #000000; stroke-width: 0.6"/>
      </g>
     </g>
    </g>
    <g id="xtick_27">
     <g id="line2d_27">
      <g>
       <use xlink:href="#m9450921373" x="283.194755" y="307.584" style="stroke: #000000; stroke-width: 0.6"/>
      </g>
     </g>
    </g>
    <g id="xtick_28">
     <g id="line2d_28">
      <g>
       <use xlink:href="#m9450921373" x="291.074972" y="307.584" style="stroke: #000000; stroke-width: 0.6"/>
      </g>
     </g>
    </g>
    <g id="xtick_29">
     <g id="line2d_29">
      <g>
       <use xlink:href="#m9450921373" x="297.513579" y="307.584" style="stroke: #000000; stroke-width: 0.6"/>
      </g>
     </g>
    </g>
    <g id="xtick_30">
     <g id="line2d_30">
      <g>
       <use xlink:href="#m9450921373" x="302.957343" y="307.584" style="stroke: #000000; stroke-width: 0.6"/>
      </g>
     </g>
    </g>
    <g id="xtick_31">
     <g id="line2d_31">
      <g>
       <use xlink:href="#m9450921373" x="307.672946" y="307.584" style="stroke: #000000; stroke-width: 0.6"/>
      </g>
     </g>
    </g>
    <g id="xtick_32">
     <g id="line2d_32">
      <g>
       <use xlink:href="#m9450921373" x="311.832402" y="307.584" style="stroke: #000000; stroke-width: 0.6"/>
      </g>
     </g>
    </g>
    <g id="xtick_33">
     <g id="line2d_33">
      <g>
       <use xlink:href="#m9450921373" x="340.031353" y="307.584" style="stroke: #000000; stroke-width: 0.6"/>
      </g>
     </g>
    </g>
    <g id="xtick_34">
     <g id="line2d_34">
      <g>
       <use xlink:href="#m9450921373" x="354.350176" y="307.584" style="stroke: #000000; stroke-width: 0.6"/>
      </g>
     </g>
    </g>
    <g id="xtick_35">
     <g id="line2d_35">
      <g>
       <use xlink:href="#m9450921373" x="364.509543" y="307.584" style="stroke: #000000; stroke-width: 0.6"/>
      </g>
     </g>
    </g>
    <g id="xtick_36">
     <g id="line2d_36">
      <g>
       <use xlink:href="#m9450921373" x="372.38976" y="307.584" style="stroke: #000000; stroke-width: 0.6"/>
      </g>
     </g>
    </g>
    <g id="xtick_37">
     <g id="line2d_37">
      <g>
       <use xlink:href="#m9450921373" x="378.828366" y="307.584" style="stroke: #000000; stroke-width: 0.6"/>
      </g>
     </g>
    </g>
    <g id="xtick_38">
     <g id="line2d_38">
      <g>
       <use xlink:href="#m9450921373" x="384.27213" y="307.584" style="stroke: #000000; stroke-width: 0.6"/>
      </g>
     </g>
    </g>
    <g id="xtick_39">
     <g id="line2d_39">
      <g>
       <use xlink:href="#m9450921373" x="388.987733" y="307.584" style="stroke: #000000; stroke-width: 0.6"/>
      </g>
     </g>
    </g>
    <g id="xtick_40">
     <g id="line2d_40">
      <g>
       <use xlink:href="#m9450921373" x="393.14719" y="307.584" style="stroke: #000000; stroke-width: 0.6"/>
      </g>
     </g>
    </g>
    <g id="text_6">
     <!-- Frequency [Hz] -->
     <g transform="translate(198.455312 335.860562)scale(0.1 -0.1)">
      <defs>
       <path id="DejaVuSans-46" d="M 628 4666 
L 3309 4666 
L 3309 4134 
L 1259 4134 
L 1259 2759 
L 3109 2759 
L 3109 2228 
L 1259 2228 
L 1259 0 
L 628 0 
L 628 4666 
z
" transform="scale(0.015625)"/>
       <path id="DejaVuSans-72" d="M 2631 2963 
Q 2534 3019 2420 3045 
Q 2306 3072 2169 3072 
Q 1681 3072 1420 2755 
Q 1159 2438 1159 1844 
L 1159 0 
L 581 0 
L 581 3500 
L 1159 3500 
L 1159 2956 
Q 1341 3275 1631 3429 
Q 1922 3584 2338 3584 
Q 2397 3584 2469 3576 
Q 2541 3569 2628 3553 
L 2631 2963 
z
" transform="scale(0.015625)"/>
       <path id="DejaVuSans-65" d="M 3597 1894 
L 3597 1613 
L 953 1613 
Q 991 1019 1311 708 
Q 1631 397 2203 397 
Q 2534 397 2845 478 
Q 3156 559 3463 722 
L 3463 178 
Q 3153 47 2828 -22 
Q 2503 -91 2169 -91 
Q 1331 -91 842 396 
Q 353 884 353 1716 
Q 353 2575 817 3079 
Q 1281 3584 2069 3584 
Q 2775 3584 3186 3129 
Q 3597 2675 3597 1894 
z
M 3022 2063 
Q 3016 2534 2758 2815 
Q 2500 3097 2075 3097 
Q 1594 3097 1305 2825 
Q 1016 2553 972 2059 
L 3022 2063 
z
" transform="scale(0.015625)"/>
       <path id="DejaVuSans-71" d="M 947 1747 
Q 947 1113 1208 752 
Q 1469 391 1925 391 
Q 2381 391 2643 752 
Q 2906 1113 2906 1747 
Q 2906 2381 2643 2742 
Q 2381 3103 1925 3103 
Q 1469 3103 1208 2742 
Q 947 2381 947 1747 
z
M 2906 525 
Q 2725 213 2448 61 
Q 2172 -91 1784 -91 
Q 1150 -91 751 415 
Q 353 922 353 1747 
Q 353 2572 751 3078 
Q 1150 3584 1784 3584 
Q 2172 3584 2448 3432 
Q 2725 3281 2906 2969 
L 2906 3500 
L 3481 3500 
L 3481 -1331 
L 2906 -1331 
L 2906 525 
z
" transform="scale(0.015625)"/>
       <path id="DejaVuSans-75" d="M 544 1381 
L 544 3500 
L 1119 3500 
L 1119 1403 
Q 1119 906 1312 657 
Q 1506 409 1894 409 
Q 2359 409 2629 706 
Q 2900 1003 2900 1516 
L 2900 3500 
L 3475 3500 
L 3475 0 
L 2900 0 
L 2900 538 
Q 2691 219 2414 64 
Q 2138 -91 1772 -91 
Q 1169 -91 856 284 
Q 544 659 544 1381 
z
M 1991 3584 
L 1991 3584 
z
" transform="scale(0.015625)"/>
       <path id="DejaVuSans-6e" d="M 3513 2113 
L 3513 0 
L 2938 0 
L 2938 2094 
Q 2938 2591 2744 2837 
Q 2550 3084 2163 3084 
Q 1697 3084 1428 2787 
Q 1159 2491 1159 1978 
L 1159 0 
L 581 0 
L 581 3500 
L 1159 3500 
L 1159 2956 
Q 1366 3272 1645 3428 
Q 1925 3584 2291 3584 
Q 2894 3584 3203 3211 
Q 3513 2838 3513 2113 
z
" transform="scale(0.015625)"/>
       <path id="DejaVuSans-63" d="M 3122 3366 
L 3122 2828 
Q 2878 2963 2633 3030 
Q 2388 3097 2138 3097 
Q 1578 3097 1268 2742 
Q 959 2388 959 1747 
Q 959 1106 1268 751 
Q 1578 397 2138 397 
Q 2388 397 2633 464 
Q 2878 531 3122 666 
L 3122 134 
Q 2881 22 2623 -34 
Q 2366 -91 2075 -91 
Q 1284 -91 818 406 
Q 353 903 353 1747 
Q 353 2603 823 3093 
Q 1294 3584 2113 3584 
Q 2378 3584 2631 3529 
Q 2884 3475 3122 3366 
z
" transform="scale(0.015625)"/>
       <path id="DejaVuSans-79" d="M 2059 -325 
Q 1816 -950 1584 -1140 
Q 1353 -1331 966 -1331 
L 506 -1331 
L 506 -850 
L 844 -850 
Q 1081 -850 1212 -737 
Q 1344 -625 1503 -206 
L 1606 56 
L 191 3500 
L 800 3500 
L 1894 763 
L 2988 3500 
L 3597 3500 
L 2059 -325 
z
" transform="scale(0.015625)"/>
       <path id="DejaVuSans-20" transform="scale(0.015625)"/>
       <path id="DejaVuSans-5b" d="M 550 4863 
L 1875 4863 
L 1875 4416 
L 1125 4416 
L 1125 -397 
L 1875 -397 
L 1875 -844 
L 550 -844 
L 550 4863 
z
" transform="scale(0.015625)"/>
       <path id="DejaVuSans-48" d="M 628 4666 
L 1259 4666 
L 1259 2753 
L 3553 2753 
L 3553 4666 
L 4184 4666 
L 4184 0 
L 3553 0 
L 3553 2222 
L 1259 2222 
L 1259 0 
L 628 0 
L 628 4666 
z
" transform="scale(0.015625)"/>
       <path id="DejaVuSans-7a" d="M 353 3500 
L 3084 3500 
L 3084 2975 
L 922 459 
L 3084 459 
L 3084 0 
L 275 0 
L 275 525 
L 2438 3041 
L 353 3041 
L 353 3500 
z
" transform="scale(0.015625)"/>
       <path id="DejaVuSans-5d" d="M 1947 4863 
L 1947 -844 
L 622 -844 
L 622 -397 
L 1369 -397 
L 1369 4416 
L 622 4416 
L 622 4863 
L 1947 4863 
z
" transform="scale(0.015625)"/>
      </defs>
      <use xlink:href="#DejaVuSans-46"/>
      <use xlink:href="#DejaVuSans-72" x="50.269531"/>
      <use xlink:href="#DejaVuSans-65" x="89.132812"/>
      <use xlink:href="#DejaVuSans-71" x="150.65625"/>
      <use xlink:href="#DejaVuSans-75" x="214.132812"/>
      <use xlink:href="#DejaVuSans-65" x="277.511719"/>
      <use xlink:href="#DejaVuSans-6e" x="339.035156"/>
      <use xlink:href="#DejaVuSans-63" x="402.414062"/>
      <use xlink:href="#DejaVuSans-79" x="457.394531"/>
      <use xlink:href="#DejaVuSans-20" x="516.574219"/>
      <use xlink:href="#DejaVuSans-5b" x="548.361328"/>
      <use xlink:href="#DejaVuSans-48" x="587.375"/>
      <use xlink:href="#DejaVuSans-7a" x="662.570312"/>
      <use xlink:href="#DejaVuSans-5d" x="715.060547"/>
     </g>
    </g>
   </g>
   <g id="matplotlib.axis_2">
    <g id="ytick_1">
     <g id="line2d_41">
      <defs>
       <path id="m027a76c959" d="M 0 0 
L -3.5 0 
" style="stroke: #000000; stroke-width: 0.8"/>
      </defs>
      <g>
       <use xlink:href="#m027a76c959" x="57.6" y="307.584" style="stroke: #000000; stroke-width: 0.8"/>
      </g>
     </g>
     <g id="text_7">
      <!-- −140 -->
      <g transform="translate(23.132812 311.383219)scale(0.1 -0.1)">
       <defs>
        <path id="DejaVuSans-2212" d="M 678 2272 
L 4684 2272 
L 4684 1741 
L 678 1741 
L 678 2272 
z
" transform="scale(0.015625)"/>
       </defs>
       <use xlink:href="#DejaVuSans-2212"/>
       <use xlink:href="#DejaVuSans-31" x="83.789062"/>
       <use xlink:href="#DejaVuSans-34" x="147.412109"/>
       <use xlink:href="#DejaVuSans-30" x="211.035156"/>
      </g>
     </g>
    </g>
    <g id="ytick_2">
     <g id="line2d_42">
      <g>
       <use xlink:href="#m027a76c959" x="57.6" y="274.32" style="stroke: #000000; stroke-width: 0.8"/>
      </g>
     </g>
     <g id="text_8">
      <!-- −130 -->
      <g transform="translate(23.132812 278.119219)scale(0.1 -0.1)">
       <use xlink:href="#DejaVuSans-2212"/>
       <use xlink:href="#DejaVuSans-31" x="83.789062"/>
       <use xlink:href="#DejaVuSans-33" x="147.412109"/>
       <use xlink:href="#DejaVuSans-30" x="211.035156"/>
      </g>
     </g>
    </g>
    <g id="ytick_3">
     <g id="line2d_43">
      <g>
       <use xlink:href="#m027a76c959" x="57.6" y="241.056" style="stroke: #000000; stroke-width: 0.8"/>
      </g>
     </g>
     <g id="text_9">
      <!-- −120 -->
      <g transform="translate(23.132812 244.855219)scale(0.1 -0.1)">
       <defs>
        <path id="DejaVuSans-32" d="M 1228 531 
L 3431 531 
L 3431 0 
L 469 0 
L 469 531 
Q 828 903 1448 1529 
Q 2069 2156 2228 2338 
Q 2531 2678 2651 2914 
Q 2772 3150 2772 3378 
Q 2772 3750 2511 3984 
Q 2250 4219 1831 4219 
Q 1534 4219 1204 4116 
Q 875 4013 500 3803 
L 500 4441 
Q 881 4594 1212 4672 
Q 1544 4750 1819 4750 
Q 2544 4750 2975 4387 
Q 3406 4025 3406 3419 
Q 3406 3131 3298 2873 
Q 3191 2616 2906 2266 
Q 2828 2175 2409 1742 
Q 1991 1309 1228 531 
z
" transform="scale(0.015625)"/>
       </defs>
       <use xlink:href="#DejaVuSans-2212"/>
       <use xlink:href="#DejaVuSans-31" x="83.789062"/>
       <use xlink:href="#DejaVuSans-32" x="147.412109"/>
       <use xlink:href="#DejaVuSans-30" x="211.035156"/>
      </g>
     </g>
    </g>
    <g id="ytick_4">
     <g id="line2d_44">
      <g>
       <use xlink:href="#m027a76c959" x="57.6" y="207.792" style="stroke: #000000; stroke-width: 0.8"/>
      </g>
     </g>
     <g id="text_10">
      <!-- −110 -->
      <g transform="translate(23.132812 211.591219)scale(0.1 -0.1)">
       <use xlink:href="#DejaVuSans-2212"/>
       <use xlink:href="#DejaVuSans-31" x="83.789062"/>
       <use xlink:href="#DejaVuSans-31" x="147.412109"/>
       <use xlink:href="#DejaVuSans-30" x="211.035156"/>
      </g>
     </g>
    </g>
    <g id="ytick_5">
     <g id="line2d_45">
      <g>
       <use xlink:href="#m027a76c959" x="57.6" y="174.528" style="stroke: #000000; stroke-width: 0.8"/>
      </g>
     </g>
     <g id="text_11">
      <!-- −100 -->
      <g transform="translate(23.132812 178.327219)scale(0.1 -0.1)">
       <use xlink:href="#DejaVuSans-2212"/>
       <use xlink:href="#DejaVuSans-31" x="83.789062"/>
       <use xlink:href="#DejaVuSans-30" x="147.412109"/>
       <use xlink:href="#DejaVuSans-30" x="211.035156"/>
      </g>
     </g>
    </g>
    <g id="ytick_6">
     <g id="line2d_46">
      <g>
       <use xlink:href="#m027a76c959" x="57.6" y="141.264" style="stroke: #000000; stroke-width: 0.8"/>
      </g>
     </g>
     <g id="text_12">
      <!-- −90 -->
      <g transform="translate(29.495313 145.063219)scale(0.1 -0.1)">
       <defs>
        <path id="DejaVuSans-39" d="M 703 97 
L 703 672 
Q 941 559 1184 500 
Q 1428 441 1663 441 
Q 2288 441 2617 861 
Q 2947 1281 2994 2138 
Q 2813 1869 2534 1725 
Q 2256 1581 1919 1581 
Q 1219 1581 811 2004 
Q 403 2428 403 3163 
Q 403 3881 828 4315 
Q 1253 4750 1959 4750 
Q 2769 4750 3195 4129 
Q 3622 3509 3622 2328 
Q 3622 1225 3098 567 
Q 2575 -91 1691 -91 
Q 1453 -91 1209 -44 
Q 966 3 703 97 
z
M 1959 2075 
Q 2384 2075 2632 2365 
Q 2881 2656 2881 3163 
Q 2881 3666 2632 3958 
Q 2384 4250 1959 4250 
Q 1534 4250 1286 3958 
Q 1038 3666 1038 3163 
Q 1038 2656 1286 2365 
Q 1534 2075 1959 2075 
z
" transform="scale(0.015625)"/>
       </defs>
       <use xlink:href="#DejaVuSans-2212"/>
       <use xlink:href="#DejaVuSans-39" x="83.789062"/>
       <use xlink:href="#DejaVuSans-30" x="147.412109"/>
      </g>
     </g>
    </g>
    <g id="ytick_7">
     <g id="line2d_47">
      <g>
       <use xlink:href="#m027a76c959" x="57.6" y="108" style="stroke: #000000; stroke-width: 0.8"/>
      </g>
     </g>
     <g id="text_13">
      <!-- −80 -->
      <g transform="translate(29.495313 111.799219)scale(0.1 -0.1)">
       <defs>
        <path id="DejaVuSans-38" d="M 2034 2216 
Q 1584 2216 1326 1975 
Q 1069 1734 1069 1313 
Q 1069 891 1326 650 
Q 1584 409 2034 409 
Q 2484 409 2743 651 
Q 3003 894 3003 1313 
Q 3003 1734 2745 1975 
Q 2488 2216 2034 2216 
z
M 1403 2484 
Q 997 2584 770 2862 
Q 544 3141 544 3541 
Q 544 4100 942 4425 
Q 1341 4750 2034 4750 
Q 2731 4750 3128 4425 
Q 3525 4100 3525 3541 
Q 3525 3141 3298 2862 
Q 3072 2584 2669 2484 
Q 3125 2378 3379 2068 
Q 3634 1759 3634 1313 
Q 3634 634 3220 271 
Q 2806 -91 2034 -91 
Q 1263 -91 848 271 
Q 434 634 434 1313 
Q 434 1759 690 2068 
Q 947 2378 1403 2484 
z
M 1172 3481 
Q 1172 3119 1398 2916 
Q 1625 2713 2034 2713 
Q 2441 2713 2670 2916 
Q 2900 3119 2900 3481 
Q 2900 3844 2670 4047 
Q 2441 4250 2034 4250 
Q 1625 4250 1398 4047 
Q 1172 3844 1172 3481 
z
" transform="scale(0.015625)"/>
       </defs>
       <use xlink:href="#DejaVuSans-2212"/>
       <use xlink:href="#DejaVuSans-38" x="83.789062"/>
       <use xlink:href="#DejaVuSans-30" x="147.412109"/>
      </g>
     </g>
    </g>
    <g id="ytick_8">
     <g id="line2d_48">
      <g>
       <use xlink:href="#m027a76c959" x="57.6" y="74.736" style="stroke: #000000; stroke-width: 0.8"/>
      </g>
     </g>
     <g id="text_14">
      <!-- −70 -->
      <g transform="translate(29.495313 78.535219)scale(0.1 -0.1)">
       <use xlink:href="#DejaVuSans-2212"/>
       <use xlink:href="#DejaVuSans-37" x="83.789062"/>
       <use xlink:href="#DejaVuSans-30" x="147.412109"/>
      </g>
     </g>
    </g>
    <g id="ytick_9">
     <g id="line2d_49">
      <g>
       <use xlink:href="#m027a76c959" x="57.6" y="41.472" style="stroke: #000000; stroke-width: 0.8"/>
      </g>
     </g>
     <g id="text_15">
      <!-- −60 -->
      <g transform="translate(29.495313 45.271219)scale(0.1 -0.1)">
       <use xlink:href="#DejaVuSans-2212"/>
       <use xlink:href="#DejaVuSans-36" x="83.789062"/>
       <use xlink:href="#DejaVuSans-30" x="147.412109"/>
      </g>
     </g>
    </g>
    <g id="text_16">
     <!-- Phase noise [dBc/Hz] -->
     <g transform="translate(17.053125 227.257688)rotate(-90)scale(0.1 -0.1)">
      <defs>
       <path id="DejaVuSans-50" d="M 1259 4147 
L 1259 2394 
L 2053 2394 
Q 2494 2394 2734 2622 
Q 2975 2850 2975 3272 
Q 2975 3691 2734 3919 
Q 2494 4147 2053 4147 
L 1259 4147 
z
M 628 4666 
L 2053 4666 
Q 2838 4666 3239 4311 
Q 3641 3956 3641 3272 
Q 3641 2581 3239 2228 
Q 2838 1875 2053 1875 
L 1259 1875 
L 1259 0 
L 628 0 
L 628 4666 
z
" transform="scale(0.015625)"/>
       <path id="DejaVuSans-68" d="M 3513 2113 
L 3513 0 
L 2938 0 
L 2938 2094 
Q 2938 2591 2744 2837 
Q 2550 3084 2163 3084 
Q 1697 3084 1428 2787 
Q 1159 2491 1159 1978 
L 1159 0 
L 581 0 
L 581 4863 
L 1159 4863 
L 1159 2956 
Q 1366 3272 1645 3428 
Q 1925 3584 2291 3584 
Q 2894 3584 3203 3211 
Q 3513 2838 3513 2113 
z
" transform="scale(0.015625)"/>
       <path id="DejaVuSans-61" d="M 2194 1759 
Q 1497 1759 1228 1600 
Q 959 1441 959 1056 
Q 959 750 1161 570 
Q 1363 391 1709 391 
Q 2188 391 2477 730 
Q 2766 1069 2766 1631 
L 2766 1759 
L 2194 1759 
z
M 3341 1997 
L 3341 0 
L 2766 0 
L 2766 531 
Q 2569 213 2275 61 
Q 1981 -91 1556 -91 
Q 1019 -91 701 211 
Q 384 513 384 1019 
Q 384 1609 779 1909 
Q 1175 2209 1959 2209 
L 2766 2209 
L 2766 2266 
Q 2766 2663 2505 2880 
Q 2244 3097 1772 3097 
Q 1472 3097 1187 3025 
Q 903 2953 641 2809 
L 641 3341 
Q 956 3463 1253 3523 
Q 1550 3584 1831 3584 
Q 2591 3584 2966 3190 
Q 3341 2797 3341 1997 
z
" transform="scale(0.015625)"/>
       <path id="DejaVuSans-73" d="M 2834 3397 
L 2834 2853 
Q 2591 2978 2328 3040 
Q 2066 3103 1784 3103 
Q 1356 3103 1142 2972 
Q 928 2841 928 2578 
Q 928 2378 1081 2264 
Q 1234 2150 1697 2047 
L 1894 2003 
Q 2506 1872 2764 1633 
Q 3022 1394 3022 966 
Q 3022 478 2636 193 
Q 2250 -91 1575 -91 
Q 1294 -91 989 -36 
Q 684 19 347 128 
L 347 722 
Q 666 556 975 473 
Q 1284 391 1588 391 
Q 1994 391 2212 530 
Q 2431 669 2431 922 
Q 2431 1156 2273 1281 
Q 2116 1406 1581 1522 
L 1381 1569 
Q 847 1681 609 1914 
Q 372 2147 372 2553 
Q 372 3047 722 3315 
Q 1072 3584 1716 3584 
Q 2034 3584 2315 3537 
Q 2597 3491 2834 3397 
z
" transform="scale(0.015625)"/>
       <path id="DejaVuSans-6f" d="M 1959 3097 
Q 1497 3097 1228 2736 
Q 959 2375 959 1747 
Q 959 1119 1226 758 
Q 1494 397 1959 397 
Q 2419 397 2687 759 
Q 2956 1122 2956 1747 
Q 2956 2369 2687 2733 
Q 2419 3097 1959 3097 
z
M 1959 3584 
Q 2709 3584 3137 3096 
Q 3566 2609 3566 1747 
Q 3566 888 3137 398 
Q 2709 -91 1959 -91 
Q 1206 -91 779 398 
Q 353 888 353 1747 
Q 353 2609 779 3096 
Q 1206 3584 1959 3584 
z
" transform="scale(0.015625)"/>
       <path id="DejaVuSans-69" d="M 603 3500 
L 1178 3500 
L 1178 0 
L 603 0 
L 603 3500 
z
M 603 4863 
L 1178 4863 
L 1178 4134 
L 603 4134 
L 603 4863 
z
" transform="scale(0.015625)"/>
       <path id="DejaVuSans-64" d="M 2906 2969 
L 2906 4863 
L 3481 4863 
L 3481 0 
L 2906 0 
L 2906 525 
Q 2725 213 2448 61 
Q 2172 -91 1784 -91 
Q 1150 -91 751 415 
Q 353 922 353 1747 
Q 353 2572 751 3078 
Q 1150 3584 1784 3584 
Q 2172 3584 2448 3432 
Q 2725 3281 2906 2969 
z
M 947 1747 
Q 947 1113 1208 752 
Q 1469 391 1925 391 
Q 2381 391 2643 752 
Q 2906 1113 2906 1747 
Q 2906 2381 2643 2742 
Q 2381 3103 1925 3103 
Q 1469 3103 1208 2742 
Q 947 2381 947 1747 
z
" transform="scale(0.015625)"/>
       <path id="DejaVuSans-42" d="M 1259 2228 
L 1259 519 
L 2272 519 
Q 2781 519 3026 730 
Q 3272 941 3272 1375 
Q 3272 1813 3026 2020 
Q 2781 2228 2272 2228 
L 1259 2228 
z
M 1259 4147 
L 1259 2741 
L 2194 2741 
Q 2656 2741 2882 2914 
Q 3109 3088 3109 3444 
Q 3109 3797 2882 3972 
Q 2656 4147 2194 4147 
L 1259 4147 
z
M 628 4666 
L 2241 4666 
Q 2963 4666 3353 4366 
Q 3744 4066 3744 3513 
Q 3744 3084 3544 2831 
Q 3344 2578 2956 2516 
Q 3422 2416 3680 2098 
Q 3938 1781 3938 1306 
Q 3938 681 3513 340 
Q 3088 0 2303 0 
L 628 0 
L 628 4666 
z
" transform="scale(0.015625)"/>
       <path id="DejaVuSans-2f" d="M 1625 4666 
L 2156 4666 
L 531 -594 
L 0 -594 
L 1625 4666 
z
" transform="scale(0.015625)"/>
      </defs>
      <use xlink:href="#DejaVuSans-50"/>
      <use xlink:href="#DejaVuSans-68" x="60.302734"/>
      <use xlink:href="#DejaVuSans-61" x="123.681641"/>
      <use xlink:href="#DejaVuSans-73" x="184.960938"/>
      <use xlink:href="#DejaVuSans-65" x="237.060547"/>
      <use xlink:href="#DejaVuSans-20" x="298.583984"/>
      <use xlink:href="#DejaVuSans-6e" x="330.371094"/>
      <use xlink:href="#DejaVuSans-6f" x="393.75"/>
      <use xlink:href="#DejaVuSans-69" x="454.931641"/>
      <use xlink:href="#DejaVuSans-73" x="482.714844"/>
      <use xlink:href="#DejaVuSans-65" x="534.814453"/>
      <use xlink:href="#DejaVuSans-20" x="596.337891"/>
      <use xlink:href="#DejaVuSans-5b" x="628.125"/>
      <use xlink:href="#DejaVuSans-64" x="667.138672"/>
      <use xlink:href="#DejaVuSans-42" x="730.615234"/>
      <use xlink:href="#DejaVuSans-63" x="799.21875"/>
      <use xlink:href="#DejaVuSans-2f" x="854.199219"/>
      <use xlink:href="#DejaVuSans-48" x="887.890625"/>
      <use xlink:href="#DejaVuSans-7a" x="963.085938"/>
      <use xlink:href="#DejaVuSans-5d" x="1015.576172"/>
     </g>
    </g>
   </g>
   <g id="line2d_50">
    <path d="M 398.487273 223.614576 
L 398.425479 227.683872 
L 398.363581 224.53488 
L 398.301571 227.683872 
L 398.239451 223.98048 
L 398.177222 227.30688 
L 398.114884 223.98048 
L 398.052435 226.940976 
L 397.989878 223.803072 
L 397.927208 226.940976 
L 397.864426 223.98048 
L 397.801532 227.118384 
L 397.738526 223.98048 
L 397.675407 228.238272 
L 397.612179 224.734464 
L 397.548834 228.060864 
L 397.485375 223.625664 
L 397.421802 227.129472 
L 397.358114 223.98048 
L 397.294311 227.484288 
L 397.230396 223.98048 
L 397.166362 227.30688 
L 397.102211 223.98048 
L 397.037944 227.484288 
L 396.973559 223.98048 
L 396.909057 227.129472 
L 396.844441 223.803072 
L 396.779702 226.940976 
L 396.714845 215.475984 
L 396.649868 218.247984 
L 396.584771 215.287488 
L 396.519554 227.118384 
L 396.45422 223.98048 
L 396.388762 227.129472 
L 396.323182 223.614576 
L 396.25748 227.30688 
L 396.191655 223.98048 
L 396.125711 227.30688 
L 396.05964 223.98048 
L 395.993445 227.484288 
L 395.927126 223.603488 
L 395.860682 227.30688 
L 395.794113 223.42608 
L 395.727422 227.495376 
L 395.660601 223.42608 
L 395.593653 227.30688 
L 395.526579 223.42608 
L 395.459376 227.30688 
L 395.392046 223.614576 
L 395.32459 227.495376 
L 395.257002 223.98048 
L 395.189284 227.86128 
L 395.121436 224.346384 
L 395.053457 227.495376 
L 394.985347 223.42608 
L 394.91711 226.75248 
L 394.848736 223.603488 
L 394.78023 227.118384 
L 394.711591 223.614576 
L 394.642818 227.129472 
L 394.573911 223.248672 
L 394.504873 226.940976 
L 394.435696 223.248672 
L 394.366383 227.495376 
L 394.296933 223.803072 
L 394.227347 226.940976 
L 394.157624 223.437168 
L 394.087767 227.129472 
L 394.017767 223.803072 
L 393.947628 227.495376 
L 393.877349 223.248672 
L 393.806931 227.317968 
L 393.736376 223.625664 
L 393.665675 228.060864 
L 393.594833 224.357472 
L 393.523848 228.049776 
L 393.45272 224.168976 
L 393.381449 227.495376 
L 393.310038 223.98048 
L 393.238477 227.30688 
L 393.166772 223.803072 
L 393.094921 226.952064 
L 393.022923 223.625664 
L 392.950778 226.952064 
L 392.87849 223.625664 
L 392.806049 227.317968 
L 392.733459 224.168976 
L 392.66072 228.049776 
L 392.58783 224.168976 
L 392.51479 227.683872 
L 392.441603 223.803072 
L 392.368259 227.872368 
L 392.294763 224.357472 
L 392.221114 228.049776 
L 392.14731 223.98048 
L 392.073352 227.495376 
L 391.999243 223.98048 
L 391.924974 227.672784 
L 391.850549 223.98048 
L 391.775966 227.495376 
L 391.701225 223.991568 
L 391.626326 227.317968 
L 391.551272 223.437168 
L 391.476054 226.763568 
L 391.400675 223.614576 
L 391.325136 227.86128 
L 391.249434 224.900784 
L 391.173573 228.227184 
L 391.097546 223.791984 
L 391.021354 227.30688 
L 390.944997 223.98048 
L 390.868475 228.238272 
L 390.791787 223.98048 
L 390.714936 227.86128 
L 390.637913 224.157888 
L 390.560722 228.593088 
L 390.483362 224.53488 
L 390.405832 228.049776 
L 390.328132 224.168976 
L 390.250264 227.86128 
L 390.17222 224.168976 
L 390.094003 227.872368 
L 390.015613 224.357472 
L 389.937048 228.049776 
L 389.858308 224.53488 
L 389.779396 227.495376 
L 389.700303 224.168976 
L 389.621033 227.30688 
L 389.541585 224.168976 
L 389.461957 227.129472 
L 389.382149 223.803072 
L 389.302165 227.86128 
L 389.221995 224.712288 
L 389.141642 228.038688 
L 389.061107 223.42608 
L 388.980387 226.575072 
L 388.899482 223.071264 
L 388.818396 227.317968 
L 388.737119 223.803072 
L 388.655654 227.129472 
L 388.574001 223.437168 
L 388.492159 227.129472 
L 388.410131 223.803072 
L 388.327908 227.129472 
L 388.245493 223.803072 
L 388.162885 227.495376 
L 388.080083 224.53488 
L 387.997087 228.238272 
L 387.9139 224.545968 
L 387.830512 227.683872 
L 387.746926 224.168976 
L 387.663142 227.86128 
L 387.579159 224.911872 
L 387.494976 228.426768 
L 387.410596 224.545968 
L 387.326009 227.495376 
L 387.241219 223.791984 
L 387.156226 228.227184 
L 387.071027 224.900784 
L 386.985622 228.41568 
L 386.900015 224.168976 
L 386.814195 227.495376 
L 386.728166 223.98048 
L 386.641927 227.672784 
L 386.555477 224.346384 
L 386.468814 227.495376 
L 386.381943 223.98048 
L 386.294854 227.129472 
L 386.207548 223.98048 
L 386.120027 227.495376 
L 386.032288 223.98048 
L 385.944331 227.86128 
L 385.856158 224.168976 
L 385.767761 227.86128 
L 385.679141 223.614576 
L 385.590298 227.118384 
L 385.501232 223.237584 
L 385.411945 226.929888 
L 385.322427 223.791984 
L 385.232681 227.672784 
L 385.142707 224.346384 
L 385.052503 227.30688 
L 384.962068 224.168976 
L 384.871405 227.683872 
L 384.780505 223.98048 
L 384.689369 227.86128 
L 384.597998 224.168976 
L 384.50639 228.049776 
L 384.414544 223.614576 
L 384.322463 227.118384 
L 384.230136 223.42608 
L 384.137568 227.30688 
L 384.044756 223.614576 
L 383.9517 227.30688 
L 383.858397 223.98048 
L 383.764853 227.495376 
L 383.671055 223.991568 
L 383.577007 227.506464 
L 383.482709 224.180064 
L 383.388157 227.872368 
L 383.293352 223.991568 
L 383.198297 227.317968 
L 383.10298 223.991568 
L 383.007405 227.495376 
L 382.911571 224.346384 
L 382.815476 227.672784 
L 382.719119 224.168976 
L 382.622503 227.872368 
L 382.525617 223.991568 
L 382.428465 227.683872 
L 382.331044 223.98048 
L 382.233354 227.672784 
L 382.135399 224.157888 
L 382.037165 227.30688 
L 381.938658 223.98048 
L 381.839875 227.30688 
L 381.740815 223.791984 
L 381.641476 227.118384 
L 381.541863 223.98048 
L 381.441962 227.672784 
L 381.341778 224.53488 
L 381.241309 227.672784 
L 381.140553 223.98048 
L 381.039509 227.672784 
L 380.93818 224.168976 
L 380.836554 228.049776 
L 380.734636 223.991568 
L 380.632422 227.872368 
L 380.529911 224.180064 
L 380.427102 227.872368 
L 380.323998 223.991568 
L 380.220587 227.317968 
L 380.116872 223.625664 
L 380.012852 226.952064 
L 379.908524 223.803072 
L 379.803887 227.129472 
L 379.698945 224.168976 
L 379.593685 228.049776 
L 379.48811 224.900784 
L 379.382218 227.86128 
L 379.276007 223.98048 
L 379.169477 227.129472 
L 379.06263 223.803072 
L 378.955452 226.952064 
L 378.847949 223.803072 
L 378.740117 227.129472 
L 378.631955 224.168976 
L 378.523466 227.317968 
L 378.414638 223.803072 
L 378.305472 226.763568 
L 378.195969 223.803072 
L 378.086125 227.683872 
L 377.975938 224.357472 
L 377.865412 227.495376 
L 377.754533 223.803072 
L 377.643305 227.495376 
L 377.531725 224.168976 
L 377.419792 227.495376 
L 377.307503 223.614576 
L 377.194862 227.129472 
L 377.081854 223.614576 
L 376.968484 227.30688 
L 376.854748 223.98048 
L 376.740645 227.495376 
L 376.626172 224.168976 
L 376.511333 227.30688 
L 376.396113 224.346384 
L 376.280516 227.672784 
L 376.164539 224.346384 
L 376.04818 227.30688 
L 375.931436 223.803072 
L 375.814312 227.317968 
L 375.696792 223.803072 
L 375.578879 226.940976 
L 375.460571 223.614576 
L 375.341865 227.129472 
L 375.222759 224.168976 
L 375.103256 227.129472 
L 374.983342 223.98048 
L 374.863018 227.495376 
L 374.742283 223.98048 
L 374.621134 227.495376 
L 374.499575 223.42608 
L 374.377589 227.118384 
L 374.25518 223.42608 
L 374.132346 227.129472 
L 374.009083 223.625664 
L 373.885388 227.129472 
L 373.761265 223.98048 
L 373.636697 227.30688 
L 373.511688 223.98048 
L 373.386236 227.129472 
L 373.260336 223.98048 
L 373.133985 226.940976 
L 373.007188 223.614576 
L 372.879927 227.129472 
L 372.752206 224.168976 
L 372.624021 227.495376 
L 372.495369 223.98048 
L 372.366247 227.495376 
L 372.236658 224.168976 
L 372.106584 227.129472 
L 371.97603 223.614576 
L 371.844992 227.118384 
L 371.713465 223.98048 
L 371.581446 227.495376 
L 371.44894 224.168976 
L 371.315927 227.672784 
L 371.182411 224.346384 
L 371.048388 227.495376 
L 370.913855 224.168976 
L 370.778808 227.129472 
L 370.643249 224.168976 
L 370.507161 227.683872 
L 370.370546 224.168976 
L 370.233401 227.495376 
L 370.095721 223.803072 
L 369.957502 227.495376 
L 369.818747 223.803072 
L 369.679438 227.30688 
L 369.539577 223.98048 
L 369.399159 227.484288 
L 369.258181 223.791984 
L 369.116646 227.118384 
L 368.974534 223.791984 
L 368.831847 227.484288 
L 368.688582 223.603488 
L 368.544733 226.563984 
L 368.400295 223.237584 
L 368.255273 227.118384 
L 368.109644 223.98048 
L 367.963413 227.129472 
L 367.816573 223.803072 
L 367.66912 227.495376 
L 367.521049 224.346384 
L 367.372363 227.86128 
L 367.223039 223.98048 
L 367.073082 227.30688 
L 366.922485 223.42608 
L 366.771244 227.30688 
L 366.619351 223.803072 
L 366.466811 227.495376 
L 366.313601 223.98048 
L 366.159723 227.484288 
L 366.005172 224.157888 
L 365.849942 227.672784 
L 365.694026 224.346384 
L 365.537427 227.672784 
L 365.380122 223.98048 
L 365.222113 227.86128 
L 365.063394 224.53488 
L 364.903959 228.227184 
L 364.7438 224.346384 
L 364.582921 227.672784 
L 364.421296 223.791984 
L 364.258929 226.75248 
L 364.095811 223.248672 
L 363.931937 226.763568 
L 363.767307 223.625664 
L 363.601898 227.506464 
L 363.43571 223.991568 
L 363.268736 227.495376 
L 363.100969 223.614576 
L 362.932401 227.30688 
L 362.763034 223.98048 
L 362.592841 227.86128 
L 362.421825 224.357472 
L 362.249976 228.238272 
L 362.077286 224.723376 
L 361.903748 228.41568 
L 361.729363 224.723376 
L 361.554103 228.049776 
L 361.377968 224.53488 
L 361.200951 227.495376 
L 361.023042 223.803072 
L 360.844232 227.683872 
L 360.664522 224.357472 
L 360.483882 228.238272 
L 360.302314 223.991568 
L 360.119808 227.495376 
L 359.936354 223.42608 
L 359.751941 226.75248 
L 359.566571 223.42608 
L 359.380212 227.30688 
L 359.192865 224.168976 
L 359.004518 227.872368 
L 358.815162 224.180064 
L 358.624785 227.872368 
L 358.433386 223.803072 
L 358.240934 227.129472 
L 358.047427 223.248672 
L 357.852854 226.940976 
L 357.657203 223.614576 
L 357.460473 227.129472 
L 357.26263 223.625664 
L 357.063673 227.129472 
L 356.863588 223.98048 
L 356.662363 227.30688 
L 356.459984 223.803072 
L 356.256451 226.952064 
L 356.051726 223.625664 
L 355.845808 227.129472 
L 355.638682 223.98048 
L 355.430334 227.672784 
L 355.220749 223.98048 
L 355.009925 227.129472 
L 354.797823 223.437168 
L 354.584439 226.952064 
L 354.369759 223.625664 
L 354.153765 226.952064 
L 353.936441 223.625664 
L 353.717785 227.506464 
L 353.497754 224.180064 
L 353.276343 227.506464 
L 353.053535 223.803072 
L 352.829313 226.940976 
L 352.603658 223.614576 
L 352.376564 226.763568 
L 352.147988 223.071264 
L 351.917923 226.575072 
L 351.686349 223.060176 
L 351.453246 227.118384 
L 351.218595 223.791984 
L 350.982387 227.672784 
L 350.744575 224.346384 
L 350.505151 227.86128 
L 350.264093 223.98048 
L 350.021378 226.75248 
L 349.776997 222.87168 
L 349.530899 227.118384 
L 349.283074 223.98048 
L 349.033498 227.672784 
L 348.782145 223.614576 
L 348.528991 227.683872 
L 348.274023 224.180064 
L 348.017186 227.683872 
L 347.758468 224.168976 
L 347.49784 227.86128 
L 347.235275 224.168976 
L 346.970742 227.495376 
L 346.704228 223.803072 
L 346.435673 227.317968 
L 346.165059 223.248672 
L 345.892356 226.940976 
L 345.61753 223.614576 
L 345.340549 227.872368 
L 345.061394 223.803072 
L 344.779999 227.683872 
L 344.496344 223.42608 
L 344.210392 227.129472 
L 343.922105 222.87168 
L 343.631446 226.75248 
L 343.338391 223.237584 
L 343.042867 226.75248 
L 342.744849 222.87168 
L 342.444295 226.386576 
L 342.141161 222.694272 
L 341.835403 226.209168 
L 341.52699 222.505776 
L 341.215844 226.19808 
L 340.901932 222.683184 
L 340.585204 226.940976 
L 340.26561 223.614576 
L 339.943115 227.129472 
L 339.61763 222.31728 
L 339.289117 226.19808 
L 338.957519 222.683184 
L 338.622779 226.563984 
L 338.284834 222.494688 
L 337.943644 226.009584 
L 337.599106 222.128784 
L 337.251173 225.832176 
L 336.899778 222.31728 
L 336.544852 226.386576 
L 336.186322 222.683184 
L 335.824134 226.009584 
L 335.458174 222.128784 
L 335.088381 225.832176 
L 334.714675 222.328368 
L 334.336972 226.209168 
L 333.955185 221.585472 
L 333.569248 225.08928 
L 333.179024 220.842576 
L 332.78444 225.832176 
L 332.385397 221.773968 
L 331.981794 225.832176 
L 331.573525 221.396976 
L 331.160503 225.64368 
L 330.742571 221.585472 
L 330.319633 223.803072 
L 329.891568 221.951376 
L 329.813174 224.346384 
L 329.734604 223.98048 
L 329.57694 223.614576 
L 329.497866 223.614576 
L 329.099726 222.87168 
L 329.019551 222.87168 
L 328.777954 224.168976 
L 328.697045 224.357472 
L 328.61595 223.437168 
L 328.534669 223.625664 
L 328.4532 223.437168 
L 328.28972 224.168976 
L 328.043036 222.31728 
L 327.877642 223.614576 
L 327.794641 223.42608 
L 327.711444 222.683184 
L 327.544487 223.42608 
L 327.460698 223.42608 
L 327.37671 222.505776 
L 327.123567 223.614576 
L 326.953775 222.505776 
L 326.783187 221.574384 
L 326.525712 223.060176 
L 326.353039 223.42608 
L 326.179492 222.494688 
L 326.092397 222.494688 
L 325.476699 223.803072 
L 325.387851 223.614576 
L 325.119987 222.328368 
L 325.030236 222.505776 
L 324.940257 223.237584 
L 324.850048 223.049088 
L 324.759635 223.237584 
L 324.668963 222.87168 
L 324.486917 223.98048 
L 324.212104 222.882768 
L 324.027681 223.803072 
L 323.749257 221.396976 
L 323.562395 222.882768 
L 323.46862 222.505776 
L 323.374567 221.585472 
L 323.090896 223.248672 
L 322.804957 222.505776 
L 322.709118 222.694272 
L 322.613017 222.328368 
L 322.516684 223.071264 
L 322.420058 222.694272 
L 322.323166 223.248672 
L 322.226009 222.87168 
L 322.128612 223.060176 
L 321.932951 222.128784 
L 321.834712 221.574384 
L 321.63744 223.237584 
L 321.538375 223.603488 
L 321.339406 222.31728 
L 321.038865 223.42608 
L 320.735715 221.773968 
L 320.42997 223.060176 
L 320.327454 223.237584 
L 320.018138 222.505776 
L 319.914417 223.060176 
L 319.706089 222.694272 
L 319.601447 222.139872 
L 319.496493 222.31728 
L 319.17978 221.20848 
L 318.53767 223.42608 
L 318.321002 222.139872 
L 318.2122 222.328368 
L 318.103029 222.516864 
L 317.773476 221.031072 
L 317.552086 220.842576 
L 317.105065 222.31728 
L 316.766021 221.031072 
L 316.652313 221.951376 
L 316.538204 221.773968 
L 316.423724 220.665168 
L 316.308873 220.665168 
L 316.193646 220.842576 
L 316.078078 221.574384 
L 315.962095 220.831488 
L 315.845729 221.019984 
L 315.728979 220.842576 
L 315.258116 222.505776 
L 314.900812 220.842576 
L 314.78089 220.288176 
L 314.539819 220.831488 
L 314.4187 221.76288 
L 314.052719 221.76288 
L 313.682943 220.842576 
L 313.434231 222.328368 
L 313.309253 222.328368 
L 313.183794 221.951376 
L 312.93153 220.288176 
L 312.804719 220.110768 
L 312.421569 221.940288 
L 312.16378 221.20848 
L 312.034216 221.031072 
L 311.904135 221.219568 
L 311.511033 220.665168 
L 311.379008 220.853664 
L 311.246487 220.665168 
L 311.113466 221.219568 
L 310.979943 220.110768 
L 310.845954 221.031072 
L 310.711413 220.288176 
L 310.576358 220.842576 
L 310.304689 219.733776 
L 309.893267 222.128784 
L 309.75504 221.019984 
L 309.616312 220.831488 
L 309.476995 219.911184 
L 309.337126 220.09968 
L 309.196701 219.733776 
L 308.772087 220.65408 
L 308.629393 220.842576 
L 308.48612 220.842576 
L 308.342262 220.65408 
L 307.907185 219.179376 
L 307.760946 219.179376 
L 307.614098 219.001968 
L 307.318602 220.476672 
L 307.169899 221.031072 
L 306.720042 219.179376 
L 306.568792 219.556368 
L 306.264335 218.813472 
L 306.111162 218.624976 
L 305.802716 219.179376 
L 305.647477 219.367872 
L 305.491552 218.813472 
L 305.334983 219.179376 
L 305.17767 218.802384 
L 305.019652 219.911184 
L 304.541361 218.624976 
L 304.380464 219.356784 
L 304.218831 219.356784 
L 304.056454 218.99088 
L 303.729493 216.961776 
L 303.399427 216.961776 
L 303.233229 217.150272 
L 302.729943 219.179376 
L 302.21938 216.961776 
L 302.047522 217.338768 
L 301.874823 216.041472 
L 301.701276 216.784368 
L 301.526923 215.852976 
L 301.351653 218.43648 
L 301.175509 218.43648 
L 300.998482 218.99088 
L 300.820563 217.88208 
L 300.641797 217.505088 
L 300.281418 217.505088 
L 300.09984 216.950688 
L 299.917378 216.950688 
L 299.733914 217.139184 
L 299.549491 216.961776 
L 299.364101 216.961776 
L 299.177731 216.77328 
L 298.99043 216.950688 
L 298.802073 216.950688 
L 298.612706 216.77328 
L 298.422319 216.77328 
L 298.038494 215.841888 
L 297.844976 216.396288 
L 297.454731 215.66448 
L 297.060184 216.595872 
L 296.861216 216.041472 
L 296.66112 214.932672 
L 296.459884 212.903568 
L 296.257555 213.823872 
L 296.053999 214.00128 
L 295.849263 215.841888 
L 295.643334 215.841888 
L 295.436196 215.287488 
L 295.018303 213.812784 
L 294.595342 214.744176 
L 294.381946 214.378272 
L 294.167318 213.44688 
L 293.733977 214.55568 
L 293.515296 214.378272 
L 293.295319 212.903568 
L 293.073896 212.715072 
L 292.851076 212.89248 
L 292.626841 212.703984 
L 292.401173 211.595184 
L 291.715456 214.921584 
L 291.01616 213.069888 
L 290.779926 213.069888 
L 290.302664 213.44688 
L 290.061665 212.715072 
L 289.818937 211.417776 
L 289.574529 210.863376 
L 289.080578 210.863376 
L 288.831063 210.308976 
L 288.579697 210.863376 
L 288.326528 210.131568 
L 288.071532 210.320064 
L 287.814681 210.320064 
L 287.556026 211.606272 
L 287.295384 209.754576 
L 287.032804 206.79408 
L 286.768257 206.79408 
L 286.233223 209.931984 
L 285.962594 208.645776 
L 285.689876 207.90288 
L 285.415035 207.536976 
L 285.138122 208.45728 
L 284.577526 207.90288 
L 284.293854 206.79408 
L 284.007886 206.428176 
L 283.71967 205.696368 
L 283.428995 205.696368 
L 282.840367 207.725472 
L 282.542333 206.982576 
L 281.938701 202.91328 
L 281.632926 202.91328 
L 280.69948 207.725472 
L 280.382735 208.834272 
L 280.063123 206.428176 
L 279.086655 204.399072 
L 278.420279 201.80448 
L 278.082316 202.547376 
L 277.74119 203.844672 
L 277.048681 202.547376 
L 276.697266 200.329776 
L 276.342426 199.220976 
L 275.983877 197.36928 
L 275.62165 198.47808 
L 275.255668 199.03248 
L 274.885855 200.884176 
L 274.51224 201.072672 
L 274.134516 200.884176 
L 273.752709 200.329776 
L 273.366728 199.220976 
L 272.976482 199.963872 
L 272.581994 199.043568 
L 272.18293 200.518272 
L 271.371012 201.992976 
L 270.117152 197.36928 
L 269.689063 197.180784 
L 268.817128 196.071984 
L 267.922983 196.448976 
L 267.467275 197.380368 
L 267.005609 196.271568 
L 266.53797 194.053968 
L 265.583402 192.568176 
L 265.096265 192.568176 
L 264.602313 192.37968 
L 264.101507 193.48848 
L 263.593342 192.93408 
L 263.077758 192.568176 
L 262.554534 192.390768 
L 262.023603 191.647872 
L 261.484404 193.676976 
L 260.936845 191.27088 
L 260.380662 192.93408 
L 259.815579 191.459376 
L 259.24148 193.122576 
L 258.657717 194.419872 
L 258.064142 193.676976 
L 257.46042 193.676976 
L 256.846196 191.082384 
L 256.22129 191.82528 
L 255.584933 191.082384 
L 254.936898 191.27088 
L 254.276749 188.49888 
L 253.604228 186.658272 
L 252.918443 189.618768 
L 252.219076 188.144064 
L 251.505578 187.401168 
L 250.777368 185.183568 
L 250.03405 186.369984 
L 249.274518 185.527296 
L 248.498527 182.45592 
L 248.262152 185.593824 
L 248.103923 181.713024 
L 248.024423 182.267424 
L 247.785082 187.257024 
L 247.70486 185.959728 
L 247.624455 187.622928 
L 247.543867 185.959728 
L 247.382379 189.286128 
L 247.301236 188.177328 
L 247.138387 184.11912 
L 246.810668 187.99992 
L 246.562929 183.553632 
L 246.145961 190.394928 
L 246.061923 189.840528 
L 245.893498 185.959728 
L 245.808856 186.33672 
L 245.724011 187.44552 
L 245.638961 187.268112 
L 245.468502 184.850928 
L 245.382834 185.582736 
L 245.296958 185.405328 
L 245.211132 184.67352 
L 245.124836 182.090016 
L 244.864678 185.039424 
L 244.777793 184.11912 
L 244.690431 185.22792 
L 244.515056 183.56472 
L 244.339071 186.148224 
L 244.073037 180.970128 
L 243.98418 182.821824 
L 243.89483 181.713024 
L 243.715449 185.582736 
L 243.625686 188.543232 
L 243.354203 184.296528 
L 243.080891 187.434432 
L 242.897316 185.028336 
L 242.805447 184.850928 
L 242.71306 186.514128 
L 242.434441 181.890432 
L 242.153889 186.33672 
L 241.965703 182.821824 
L 241.6811 186.148224 
L 241.585721 185.78232 
L 241.490371 186.148224 
L 241.394474 183.753216 
L 241.298317 185.593824 
L 241.201896 185.22792 
L 241.105212 186.89112 
L 241.008554 181.90152 
L 240.7161 185.22792 
L 240.322652 181.701936 
L 239.924772 185.039424 
L 239.724289 186.880032 
L 239.623468 185.593824 
L 239.522358 186.33672 
L 239.420958 184.862016 
L 239.319265 185.78232 
L 239.217586 184.850928 
L 239.115305 185.405328 
L 238.806984 181.90152 
L 238.703506 181.90152 
L 238.599723 182.45592 
L 238.391239 185.216832 
L 238.286848 185.771232 
L 238.181832 187.068528 
L 238.076503 186.148224 
L 237.970858 187.257024 
L 237.865215 184.850928 
L 237.758936 185.593824 
L 237.545413 183.753216 
L 237.438165 185.22792 
L 237.330914 184.296528 
L 237.223012 187.068528 
L 236.897641 179.872416 
L 236.458655 186.702624 
L 236.348383 183.187728 
L 236.237432 183.742128 
L 236.126131 181.34712 
L 236.014478 181.90152 
L 235.902809 179.68392 
L 235.677726 185.039424 
L 235.564644 185.22792 
L 235.337731 183.187728 
L 235.223553 183.553632 
L 234.879136 189.10872 
L 234.763464 188.920224 
L 234.647412 187.44552 
L 234.530977 187.811424 
L 234.414156 184.11912 
L 234.061714 188.55432 
L 233.824902 184.862016 
L 233.586132 180.79272 
L 233.345736 186.525216 
L 233.225286 185.78232 
L 232.982412 182.078928 
L 232.860347 182.267424 
L 232.738226 182.078928 
L 232.615312 182.821824 
L 232.491968 185.039424 
L 232.368192 185.22792 
L 231.994616 179.672832 
L 231.617046 186.137136 
L 231.49016 186.325632 
L 231.362816 187.622928 
L 231.235011 184.11912 
L 231.106742 185.039424 
L 230.978393 184.11912 
L 230.849187 184.11912 
L 230.719506 182.832912 
L 230.327977 185.593824 
L 230.06426 187.257024 
L 229.665357 182.821824 
L 229.531247 184.296528 
L 229.396625 184.296528 
L 229.261896 184.850928 
L 229.126242 184.850928 
L 228.990065 186.514128 
L 228.853361 186.514128 
L 228.716126 187.257024 
L 228.578769 186.89112 
L 228.440461 188.365824 
L 228.301608 186.325632 
L 228.162208 186.691536 
L 228.022676 184.850928 
L 227.882167 185.405328 
L 227.741098 183.187728 
L 227.599463 185.582736 
L 227.457257 185.028336 
L 227.314906 183.742128 
L 226.883073 186.33672 
L 226.592661 183.56472 
L 226.151849 185.216832 
L 226.004126 182.444832 
L 225.855335 182.078928 
L 225.55586 186.148224 
L 225.254278 182.633328 
L 225.102287 182.821824 
L 224.949639 183.376224 
L 224.796328 184.850928 
L 224.642813 183.742128 
L 224.488161 185.039424 
L 224.33283 184.11912 
L 224.176812 185.970816 
L 224.020101 185.039424 
L 223.863166 186.89112 
L 223.705055 186.702624 
L 223.546233 187.99992 
L 223.386693 186.148224 
L 223.226911 185.959728 
L 223.065919 184.108032 
L 222.904189 184.296528 
L 222.741715 182.633328 
L 222.578491 185.22792 
L 222.415001 185.22792 
L 222.250256 186.713712 
L 222.084739 185.416416 
L 221.918442 185.970816 
L 221.751861 187.079616 
L 221.583985 185.78232 
L 221.245821 186.514128 
L 221.075516 188.177328 
L 220.904902 187.245936 
L 220.560139 184.296528 
L 220.386488 183.01032 
L 220.212504 184.307616 
L 220.03713 183.387312 
L 219.860881 185.050512 
L 219.683748 185.604912 
L 219.505722 186.713712 
L 219.327332 187.079616 
L 219.147496 185.039424 
L 218.966739 185.216832 
L 218.785052 185.582736 
L 218.419403 184.296528 
L 218.23487 181.524528 
L 218.049369 182.444832 
L 217.675981 187.44552 
L 217.487513 188.188416 
L 217.298033 184.862016 
L 217.107531 185.416416 
L 216.916572 184.67352 
L 216.723996 184.485024 
L 216.530364 184.850928 
L 216.335664 184.485024 
L 215.943606 181.90152 
L 215.745635 184.67352 
L 215.546548 185.050512 
L 215.346332 184.307616 
L 215.145581 182.821824 
L 214.943072 183.187728 
L 214.739396 185.039424 
L 214.534538 183.930624 
L 214.328484 184.11912 
L 214.121845 183.742128 
L 213.492668 186.514128 
L 212.852724 183.553632 
L 212.636589 184.850928 
L 212.419124 185.22792 
L 212.20097 184.485024 
L 211.980796 183.187728 
L 211.759242 183.365136 
L 211.536288 184.108032 
L 211.312594 186.148224 
L 211.086794 183.930624 
L 210.859541 184.485024 
L 210.630816 181.890432 
L 209.701514 185.216832 
L 209.465139 183.742128 
L 209.227887 184.296528 
L 208.98831 181.713024 
L 208.504222 180.23832 
L 208.014149 185.78232 
L 207.766164 185.959728 
L 207.264909 183.365136 
L 206.500203 187.634016 
L 206.241316 186.148224 
L 205.980517 185.959728 
L 205.71857 184.662432 
L 205.453868 183.930624 
L 204.918435 184.485024 
L 204.64846 186.325632 
L 204.100579 183.930624 
L 203.823418 183.753216 
L 203.544064 185.78232 
L 203.263332 189.66312 
L 202.979495 187.99992 
L 202.693357 188.376912 
L 202.404883 184.67352 
L 202.114032 188.177328 
L 201.821651 186.880032 
L 201.525936 187.434432 
L 201.227725 185.216832 
L 200.926974 185.216832 
L 200.624554 186.148224 
L 200.318599 186.148224 
L 200.009971 186.89112 
L 199.698621 185.405328 
L 199.384503 185.405328 
L 199.068521 186.137136 
L 198.748721 188.543232 
L 198.425999 190.029024 
L 198.1003 190.583424 
L 197.772562 190.21752 
L 197.440752 188.55432 
L 197.105795 185.970816 
L 196.426197 183.01032 
L 195.734313 185.970816 
L 195.382691 185.78232 
L 195.027532 186.33672 
L 194.669847 186.514128 
L 194.307409 188.365824 
L 193.941212 187.068528 
L 193.571179 187.068528 
L 193.197226 187.988832 
L 192.820413 190.583424 
L 192.438382 189.474624 
L 192.052173 188.920224 
L 191.661694 186.880032 
L 190.868745 189.286128 
L 190.056347 186.33672 
L 189.643031 185.039424 
L 189.226083 186.33672 
L 188.374534 189.840528 
L 187.940934 190.583424 
L 187.503269 188.55432 
L 187.05877 188.742816 
L 186.608604 187.811424 
L 186.152625 189.474624 
L 185.224031 194.09832 
L 184.749697 192.801024 
L 184.268905 189.10872 
L 183.781477 187.811424 
L 183.288721 189.10872 
L 182.787477 188.55432 
L 182.279015 189.474624 
L 181.763126 189.474624 
L 181.239588 189.652032 
L 180.17027 186.514128 
L 179.622389 186.33672 
L 179.065874 187.257024 
L 178.50216 190.77192 
L 177.927562 193.54392 
L 177.34346 195.584112 
L 177.224762 195.584112 
L 176.868046 189.66312 
L 176.628819 195.584112 
L 176.509501 194.286816 
L 176.267825 185.416416 
L 176.145449 185.604912 
L 175.90126 193.178016 
L 175.655371 190.040112 
L 175.53085 190.594512 
L 175.282359 194.841216 
L 175.032107 192.623616 
L 174.905365 191.692224 
L 174.780068 189.840528 
L 174.652417 190.949328 
L 174.526219 190.949328 
L 174.397645 190.394928 
L 174.270531 190.394928 
L 174.141021 191.32632 
L 174.011035 193.366512 
L 173.751575 193.178016 
L 173.62211 195.395616 
L 173.490196 195.584112 
L 173.359767 194.09832 
L 173.095461 194.09832 
L 172.961561 194.286816 
L 172.827151 193.909824 
L 172.694246 193.909824 
L 172.558813 195.20712 
L 172.424892 194.65272 
L 172.28842 194.65272 
L 172.015941 190.77192 
L 171.879941 190.77192 
L 171.602199 192.801024 
L 171.464593 192.801024 
L 171.185657 195.584112 
L 171.044302 195.584112 
L 170.9045 195.395616 
L 170.621087 195.395616 
L 170.477449 195.584112 
L 170.333225 195.029712 
L 170.045171 191.692224 
L 169.90135 192.246624 
L 169.609737 195.584112 
L 168.717907 195.584112 
L 168.265689 190.960416 
L 167.805288 195.395616 
L 167.649702 194.09832 
L 167.338805 194.09832 
L 167.183504 194.65272 
L 166.868458 194.65272 
L 166.708679 193.54392 
L 166.389349 193.54392 
L 166.227383 195.584112 
L 165.903651 195.584112 
L 165.741893 195.20712 
L 165.413659 195.20712 
L 165.247145 195.584112 
L 164.066759 195.584112 
L 163.550413 193.54392 
L 163.374855 194.09832 
L 163.19842 190.406016 
L 163.023753 190.77192 
L 162.84555 190.21752 
L 162.669124 194.286816 
L 162.310898 191.88072 
L 162.129053 192.43512 
L 161.765278 195.584112 
L 161.02629 195.584112 
L 160.83769 194.475312 
L 160.650915 191.88072 
L 160.460294 191.88072 
L 160.271507 192.98952 
L 160.078822 195.584112 
L 159.497307 195.584112 
L 159.10523 190.77192 
L 158.909038 189.474624 
L 158.307771 195.20712 
L 158.104035 193.366512 
L 157.696089 193.366512 
L 157.491887 193.178016 
L 156.865781 183.930624 
L 156.228374 195.584112 
L 155.798039 195.584112 
L 155.582526 193.732416 
L 155.362395 192.98952 
L 155.144199 192.98952 
L 154.921309 194.841216 
L 154.700362 195.584112 
L 154.247475 195.584112 
L 154.022259 194.65272 
L 153.564002 194.65272 
L 153.330879 195.584112 
L 153.09972 195.584112 
L 152.629253 192.623616 
L 152.389856 192.623616 
L 151.909771 195.395616 
L 151.665429 195.395616 
L 151.42307 195.584112 
L 151.175325 195.584112 
L 150.929567 194.475312 
L 150.42907 194.475312 
L 150.174227 195.584112 
L 146.142897 195.584112 
L 145.855034 194.65272 
L 145.276558 194.65272 
L 144.981516 195.584112 
L 144.688447 194.475312 
L 144.388429 194.475312 
L 144.090376 194.09832 
L 143.785212 191.88072 
L 143.482002 191.88072 
L 143.171512 192.257712 
L 142.862963 195.584112 
L 142.546958 195.584112 
L 142.228099 195.029712 
L 141.586481 195.029712 
L 141.263703 195.584112 
L 140.604155 195.584112 
L 140.267176 194.65272 
L 139.588569 194.65272 
L 139.24171 195.584112 
L 136.735698 195.584112 
L 136.3595 194.09832 
L 135.979251 193.721328 
L 135.600631 193.721328 
L 135.212077 195.20712 
L 134.825097 194.286816 
L 134.032148 194.286816 
L 133.625845 195.584112 
L 130.222172 195.584112 
L 129.769285 195.395616 
L 128.852688 195.395616 
L 128.381774 195.584112 
L 117.428145 195.584112 
L 116.120958 192.801024 
L 115.453863 192.612528 
L 114.070025 195.395616 
L 113.351811 195.584112 
L 112.618686 192.812112 
L 111.88131 191.148912 
L 111.116673 189.851616 
L 109.547927 193.355424 
L 108.742794 194.65272 
L 107.906242 194.09832 
L 107.062335 194.09832 
L 106.184502 192.246624 
L 105.284291 192.801024 
L 104.374498 192.801024 
L 103.426304 194.65272 
L 102.466689 195.584112 
L 101.465109 195.584112 
L 100.449899 190.040112 
L 98.310917 188.177328 
L 97.182238 193.532832 
L 94.828832 195.395616 
L 93.581101 195.584112 
L 92.307323 194.841216 
L 90.965468 194.841216 
L 89.591835 193.54392 
L 88.140496 188.188416 
L 86.650018 183.376224 
L 85.069737 183.376224 
L 83.415415 184.850928 
L 81.706312 188.177328 
L 79.882341 189.097632 
L 77.988499 190.206432 
L 73.832727 190.206432 
L 73.832727 190.206432 
" clip-path="url(#p1c3e3fe325)" style="fill: none; stroke: #ff0000; stroke-width: 1.5; stroke-linecap: square"/>
   </g>
   <g id="patch_3">
    <path d="M 57.6 307.584 
L 57.6 41.472 
" style="fill: none; stroke: #000000; stroke-width: 0.8; stroke-linejoin: miter; stroke-linecap: square"/>
   </g>
   <g id="patch_4">
    <path d="M 414.72 307.584 
L 414.72 41.472 
" style="fill: none; stroke: #000000; stroke-width: 0.8; stroke-linejoin: miter; stroke-linecap: square"/>
   </g>
   <g id="patch_5">
    <path d="M 57.6 307.584 
L 414.72 307.584 
" style="fill: none; stroke: #000000; stroke-width: 0.8; stroke-linejoin: miter; stroke-linecap: square"/>
   </g>
   <g id="patch_6">
    <path d="M 57.6 41.472 
L 414.72 41.472 
" style="fill: none; stroke: #000000; stroke-width: 0.8; stroke-linejoin: miter; stroke-linecap: square"/>
   </g>
   <g id="text_17">
    <!-- LMX2491 Low jitter (int - no dith.) -->
    <g transform="translate(135.126563 35.472)scale(0.12 -0.12)">
     <defs>
      <path id="DejaVuSans-4c" d="M 628 4666 
L 1259 4666 
L 1259 531 
L 3531 531 
L 3531 0 
L 628 0 
L 628 4666 
z
" transform="scale(0.015625)"/>
      <path id="DejaVuSans-4d" d="M 628 4666 
L 1569 4666 
L 2759 1491 
L 3956 4666 
L 4897 4666 
L 4897 0 
L 4281 0 
L 4281 4097 
L 3078 897 
L 2444 897 
L 1241 4097 
L 1241 0 
L 628 0 
L 628 4666 
z
" transform="scale(0.015625)"/>
      <path id="DejaVuSans-58" d="M 403 4666 
L 1081 4666 
L 2241 2931 
L 3406 4666 
L 4084 4666 
L 2584 2425 
L 4184 0 
L 3506 0 
L 2194 1984 
L 872 0 
L 191 0 
L 1856 2491 
L 403 4666 
z
" transform="scale(0.015625)"/>
      <path id="DejaVuSans-77" d="M 269 3500 
L 844 3500 
L 1563 769 
L 2278 3500 
L 2956 3500 
L 3675 769 
L 4391 3500 
L 4966 3500 
L 4050 0 
L 3372 0 
L 2619 2869 
L 1863 0 
L 1184 0 
L 269 3500 
z
" transform="scale(0.015625)"/>
      <path id="DejaVuSans-6a" d="M 603 3500 
L 1178 3500 
L 1178 -63 
Q 1178 -731 923 -1031 
Q 669 -1331 103 -1331 
L -116 -1331 
L -116 -844 
L 38 -844 
Q 366 -844 484 -692 
Q 603 -541 603 -63 
L 603 3500 
z
M 603 4863 
L 1178 4863 
L 1178 4134 
L 603 4134 
L 603 4863 
z
" transform="scale(0.015625)"/>
      <path id="DejaVuSans-74" d="M 1172 4494 
L 1172 3500 
L 2356 3500 
L 2356 3053 
L 1172 3053 
L 1172 1153 
Q 1172 725 1289 603 
Q 1406 481 1766 481 
L 2356 481 
L 2356 0 
L 1766 0 
Q 1100 0 847 248 
Q 594 497 594 1153 
L 594 3053 
L 172 3053 
L 172 3500 
L 594 3500 
L 594 4494 
L 1172 4494 
z
" transform="scale(0.015625)"/>
      <path id="DejaVuSans-28" d="M 1984 4856 
Q 1566 4138 1362 3434 
Q 1159 2731 1159 2009 
Q 1159 1288 1364 580 
Q 1569 -128 1984 -844 
L 1484 -844 
Q 1016 -109 783 600 
Q 550 1309 550 2009 
Q 550 2706 781 3412 
Q 1013 4119 1484 4856 
L 1984 4856 
z
" transform="scale(0.015625)"/>
      <path id="DejaVuSans-2d" d="M 313 2009 
L 1997 2009 
L 1997 1497 
L 313 1497 
L 313 2009 
z
" transform="scale(0.015625)"/>
      <path id="DejaVuSans-2e" d="M 684 794 
L 1344 794 
L 1344 0 
L 684 0 
L 684 794 
z
" transform="scale(0.015625)"/>
      <path id="DejaVuSans-29" d="M 513 4856 
L 1013 4856 
Q 1481 4119 1714 3412 
Q 1947 2706 1947 2009 
Q 1947 1309 1714 600 
Q 1481 -109 1013 -844 
L 513 -844 
Q 928 -128 1133 580 
Q 1338 1288 1338 2009 
Q 1338 2731 1133 3434 
Q 928 4138 513 4856 
z
" transform="scale(0.015625)"/>
     </defs>
     <use xlink:href="#DejaVuSans-4c"/>
     <use xlink:href="#DejaVuSans-4d" x="55.712891"/>
     <use xlink:href="#DejaVuSans-58" x="141.992188"/>
     <use xlink:href="#DejaVuSans-32" x="210.498047"/>
     <use xlink:href="#DejaVuSans-34" x="274.121094"/>
     <use xlink:href="#DejaVuSans-39" x="337.744141"/>
     <use xlink:href="#DejaVuSans-31" x="401.367188"/>
     <use xlink:href="#DejaVuSans-20" x="464.990234"/>
     <use xlink:href="#DejaVuSans-4c" x="496.777344"/>
     <use xlink:href="#DejaVuSans-6f" x="550.740234"/>
     <use xlink:href="#DejaVuSans-77" x="611.921875"/>
     <use xlink:href="#DejaVuSans-20" x="693.708984"/>
     <use xlink:href="#DejaVuSans-6a" x="725.496094"/>
     <use xlink:href="#DejaVuSans-69" x="753.279297"/>
     <use xlink:href="#DejaVuSans-74" x="781.0625"/>
     <use xlink:href="#DejaVuSans-74" x="820.271484"/>
     <use xlink:href="#DejaVuSans-65" x="859.480469"/>
     <use xlink:href="#DejaVuSans-72" x="921.003906"/>
     <use xlink:href="#DejaVuSans-20" x="962.117188"/>
     <use xlink:href="#DejaVuSans-28" x="993.904297"/>
     <use xlink:href="#DejaVuSans-69" x="1032.917969"/>
     <use xlink:href="#DejaVuSans-6e" x="1060.701172"/>
     <use xlink:href="#DejaVuSans-74" x="1124.080078"/>
     <use xlink:href="#DejaVuSans-20" x="1163.289062"/>
     <use xlink:href="#DejaVuSans-2d" x="1195.076172"/>
     <use xlink:href="#DejaVuSans-20" x="1231.160156"/>
     <use xlink:href="#DejaVuSans-6e" x="1262.947266"/>
     <use xlink:href="#DejaVuSans-6f" x="1326.326172"/>
     <use xlink:href="#DejaVuSans-20" x="1387.507812"/>
     <use xlink:href="#DejaVuSans-64" x="1419.294922"/>
     <use xlink:href="#DejaVuSans-69" x="1482.771484"/>
     <use xlink:href="#DejaVuSans-74" x="1510.554688"/>
     <use xlink:href="#DejaVuSans-68" x="1549.763672"/>
     <use xlink:href="#DejaVuSans-2e" x="1613.142578"/>
     <use xlink:href="#DejaVuSans-29" x="1644.929688"/>
    </g>
   </g>
   <g id="legend_1">
    <g id="patch_7">
     <path d="M 332.0575 64.150125 
L 407.72 64.150125 
Q 409.72 64.150125 409.72 62.150125 
L 409.72 48.472 
Q 409.72 46.472 407.72 46.472 
L 332.0575 46.472 
Q 330.0575 46.472 330.0575 48.472 
L 330.0575 62.150125 
Q 330.0575 64.150125 332.0575 64.150125 
z
" style="fill: #ffffff; opacity: 0.8; stroke: #cccccc; stroke-linejoin: miter"/>
    </g>
    <g id="line2d_51">
     <path d="M 334.0575 54.570438 
L 344.0575 54.570438 
L 354.0575 54.570438 
" style="fill: none; stroke: #ff0000; stroke-width: 1.5; stroke-linecap: square"/>
    </g>
    <g id="text_18">
     <!-- 650 MHz -->
     <g transform="translate(362.0575 58.070438)scale(0.1 -0.1)">
      <use xlink:href="#DejaVuSans-36"/>
      <use xlink:href="#DejaVuSans-35" x="63.623047"/>
      <use xlink:href="#DejaVuSans-30" x="127.246094"/>
      <use xlink:href="#DejaVuSans-20" x="190.869141"/>
      <use xlink:href="#DejaVuSans-4d" x="222.65625"/>
      <use xlink:href="#DejaVuSans-48" x="308.935547"/>
      <use xlink:href="#DejaVuSans-7a" x="384.130859"/>
     </g>
    </g>
   </g>
  </g>
 </g>
 <defs>
  <clipPath id="p1c3e3fe325">
   <rect x="57.6" y="41.472" width="357.12" height="266.112"/>
  </clipPath>
 </defs>
</svg>
