; Drill file
; Format: 2.4 (00.0000)
M48
INCH
T01C0.0118
T02C0.0157
%
G05
G90
T01
X000630Y031660
X000630Y032170
X000630Y032700
X000630Y033170
X000630Y033700
X000630Y034200
X000500Y034560
X000810Y034560
X001130Y034560
X001440Y034560
X001750Y034560
X002060Y034560
X002380Y034560
X002690Y034560
X003000Y034560
X003310Y034560
X003630Y034560
X003470Y034840
X003750Y034910
X003970Y034470
X004280Y034280
X004660Y034250
X005030Y034250
X005410Y034220
X005750Y034280
X006000Y034530
X006160Y034910
X006440Y034840
X006750Y034840
X007060Y034840
X007380Y034840
X007690Y034840
X008000Y034840
X008310Y034840
X008630Y034840
X008940Y034840
X009250Y034840
X009560Y034840
X009860Y034840
X009720Y034560
X009410Y034560
X009090Y034560
X008780Y034560
X008470Y034560
X008160Y034560
X007840Y034560
X007530Y034560
X007220Y034560
X006910Y034560
X006590Y034560
X006660Y033720
X007590Y033060
X008060Y033750
X008470Y032440
X008630Y031630
X007740Y031630
X006880Y031630
X006940Y032440
X005780Y032940
X005340Y033720
X004060Y033370
X004690Y032530
X004970Y031630
X004060Y031630
X003130Y031630
X002220Y031620
X001410Y031630
X001910Y032660
X003130Y032630
X002910Y033780
X002840Y034840
X002530Y034840
X002220Y034840
X001910Y034840
X001590Y034840
X001280Y034840
X000970Y034840
X000660Y034840
X000340Y034840
X000340Y035690
X000660Y035690
X000970Y035690
X001280Y035690
X001590Y035690
X001910Y035690
X002220Y035690
X002530Y035690
X002840Y035690
X003160Y035690
X003520Y035670
X003970Y036430
X004170Y036670
X004440Y036750
X004750Y036750
X005030Y036750
X004890Y037010
X005200Y037010
X005340Y036750
X005310Y035920
X005080Y035920
X004840Y035920
X004600Y035920
X004600Y035690
X004840Y035690
X005080Y035690
X005310Y035690
X005310Y035450
X005080Y035450
X004840Y035450
X004600Y035450
X004600Y035220
X004840Y035220
X005080Y035220
X005310Y035220
X006480Y035660
X006750Y035690
X007060Y035690
X007220Y035920
X007380Y035690
X007530Y035920
X007690Y035690
X007840Y035920
X008000Y035690
X008160Y035920
X008310Y035690
X008630Y035690
X008940Y035690
X009250Y035690
X009560Y035690
X009860Y035690
X009720Y035970
X009410Y035970
X009090Y035970
X008780Y035970
X008470Y035970
X008690Y036380
X009560Y036340
X009560Y036860
X009560Y037390
X009120Y037440
X009560Y037860
X009560Y038390
X009560Y038890
X008630Y038940
X007740Y038940
X006880Y038940
X005940Y038940
X005200Y038440
X004970Y038940
X004560Y038570
X004060Y038940
X003130Y038940
X002760Y038570
X002220Y038940
X001410Y038940
X000630Y038890
X000630Y038390
X000630Y037860
X000630Y037390
X000630Y036860
X000630Y036340
X000500Y035970
X000810Y035970
X001130Y035970
X001440Y035970
X001750Y035970
X002060Y035970
X002380Y035970
X002190Y036340
X001440Y036340
X001470Y037370
X002630Y037370
X002720Y037750
X003220Y037750
X003440Y037440
X003970Y036910
X004470Y037220
X006900Y037440
X008000Y037430
X009560Y034200
X009560Y033700
X009560Y033170
X009560Y032700
X009560Y032170
X009560Y031660
X005940Y031630
X003160Y034840
X001750Y033910
T02
X002060Y038190
X003910Y038190
X007460Y038270
X008550Y038270
M30
