%FSLAX34Y34*%
%MOMM*%
%LNSILK_TOP*%
G71*
G01*
%ADD10C,0.150*%
%ADD11C,0.500*%
%ADD12C,0.222*%
%ADD13C,0.178*%
%LPD*%
G54D10*
X150712Y877689D02*
X100712Y877689D01*
X100712Y927689D01*
X150712Y927689D01*
X150712Y877689D01*
G54D11*
G75*
G01X105462Y923439D02*
G03X105462Y923439I-500J0D01*
G01*
G54D10*
X58912Y890345D02*
X58912Y901320D01*
X87212Y901320D01*
X87212Y890345D01*
X58912Y890345D01*
G54D10*
X192512Y901120D02*
X192512Y890145D01*
X164213Y890145D01*
X164213Y901120D01*
X192512Y901120D01*
G54D10*
X81825Y943269D02*
X92800Y943269D01*
X92800Y914969D01*
X81825Y914969D01*
X81825Y943269D01*
G54D10*
X77719Y914900D02*
X66744Y914900D01*
X66744Y943200D01*
X77719Y943200D01*
X77719Y914900D01*
G54D10*
X153162Y935432D02*
X142188Y935432D01*
X142188Y963732D01*
X153162Y963732D01*
X153162Y935432D01*
G54D10*
X169000Y921145D02*
X158025Y921145D01*
X158025Y949445D01*
X169000Y949445D01*
X169000Y921145D01*
G54D10*
X203025Y929670D02*
X203025Y918695D01*
X174725Y918695D01*
X174725Y929670D01*
X203025Y929670D01*
G54D10*
X61496Y953864D02*
X61496Y963864D01*
X59746Y963864D01*
G54D10*
X43096Y953864D02*
X43096Y963864D01*
X44846Y963864D01*
G54D10*
X43096Y944364D02*
X43096Y934364D01*
X44846Y934364D01*
G54D10*
X61496Y944364D02*
X61496Y934364D01*
X59746Y934364D01*
G54D10*
X117590Y967960D02*
X107590Y967960D01*
X107590Y966210D01*
G54D10*
X117590Y949560D02*
X107590Y949560D01*
X107590Y951310D01*
G54D10*
X127090Y949560D02*
X137090Y949560D01*
X137090Y951310D01*
G54D10*
X127090Y967960D02*
X137090Y967960D01*
X137090Y966210D01*
G54D10*
X198542Y955477D02*
X198542Y965477D01*
X196792Y965477D01*
G54D10*
X180142Y955477D02*
X180142Y965477D01*
X181892Y965477D01*
G54D10*
X180142Y945977D02*
X180142Y935977D01*
X181892Y935977D01*
G54D10*
X198542Y945977D02*
X198542Y935977D01*
X196792Y935977D01*
G54D10*
X226467Y955477D02*
X226467Y965477D01*
X224717Y965477D01*
G54D10*
X208067Y955477D02*
X208067Y965477D01*
X209817Y965477D01*
G54D10*
X208067Y945977D02*
X208067Y935977D01*
X209817Y935977D01*
G54D10*
X226467Y945977D02*
X226467Y935977D01*
X224717Y935977D01*
G54D12*
X39688Y818356D02*
X39688Y836134D01*
X46354Y836134D01*
X49021Y835023D01*
X50354Y832801D01*
X50354Y830578D01*
X49021Y828356D01*
X46354Y827245D01*
X39688Y827245D01*
G54D12*
X64577Y818356D02*
X55244Y818356D01*
X55244Y836134D01*
X64577Y836134D01*
G54D12*
X55244Y827245D02*
X64577Y827245D01*
G54D12*
X77466Y818356D02*
X77466Y836134D01*
X69466Y825023D01*
X69466Y822801D01*
X80132Y822801D01*
G54D12*
X85022Y832801D02*
X86355Y835023D01*
X89022Y836134D01*
X91688Y836134D01*
X94355Y835023D01*
X95688Y832801D01*
X95688Y830578D01*
X94355Y828356D01*
X91688Y827245D01*
X94355Y826134D01*
X95688Y823912D01*
X95688Y821690D01*
X94355Y819467D01*
X91688Y818356D01*
X89022Y818356D01*
X86355Y819467D01*
X85022Y821690D01*
G54D12*
X100578Y836134D02*
X111244Y836134D01*
X109911Y833912D01*
X107244Y830578D01*
X104578Y826134D01*
X103244Y822801D01*
X103244Y818356D01*
G54D12*
X116134Y829467D02*
X122800Y836134D01*
X122800Y818356D01*
G54D12*
X127690Y829467D02*
X134356Y836134D01*
X134356Y818356D01*
G54D12*
X139246Y818356D02*
X139246Y836134D01*
X145912Y836134D01*
X148579Y835023D01*
X149912Y832801D01*
X149912Y830578D01*
X148579Y828356D01*
X145912Y827245D01*
X148579Y826134D01*
X149912Y823912D01*
X149912Y821690D01*
X148579Y819467D01*
X145912Y818356D01*
X139246Y818356D01*
G54D12*
X139246Y827245D02*
X145912Y827245D01*
G54D13*
X194282Y825849D02*
X199616Y831182D01*
X199616Y816960D01*
G54D13*
X203526Y824960D02*
X207793Y816960D01*
X212060Y824960D01*
G54D13*
X224504Y828515D02*
X224504Y819626D01*
X223437Y817849D01*
X221304Y816960D01*
X219170Y816960D01*
X217037Y817849D01*
X215970Y819626D01*
X215970Y828515D01*
X217037Y830293D01*
X219170Y831182D01*
X221304Y831182D01*
X223437Y830293D01*
X224504Y828515D01*
M02*
