%FSLAX34Y34*%
%MOMM*%
%LNSOLDERMASK_BOTTOM*%
G71*
G01*
%ADD10R,1.000X1.800*%
%ADD11C,2.700*%
%ADD12C,1.700*%
%LPD*%
X100806Y953962D02*
G54D10*
D03*
X113506Y953962D02*
G54D10*
D03*
X126206Y953962D02*
G54D10*
D03*
X138906Y953962D02*
G54D10*
D03*
X151606Y953962D02*
G54D10*
D03*
G54D11*
X17209Y983526D02*
X17267Y915091D01*
G36*
X30709Y983538D02*
X3709Y983515D01*
X3698Y997015D01*
X30697Y997038D01*
X30709Y983538D01*
G37*
G36*
X3767Y915080D02*
X30767Y915102D01*
X30778Y901602D01*
X3778Y901580D01*
X3767Y915080D01*
G37*
G54D11*
X242649Y983536D02*
X242644Y915118D01*
G36*
X256149Y983535D02*
X229149Y983537D01*
X229150Y997037D01*
X256150Y997035D01*
X256149Y983535D01*
G37*
G36*
X229144Y915119D02*
X256144Y915116D01*
X256143Y901616D01*
X229143Y901619D01*
X229144Y915119D01*
G37*
G54D11*
X242665Y906463D02*
X242381Y808422D01*
G36*
X256165Y906424D02*
X229165Y906502D01*
X229204Y920002D01*
X256204Y919924D01*
X256165Y906424D01*
G37*
G36*
X228881Y808461D02*
X255881Y808382D01*
X255841Y794883D01*
X228842Y794961D01*
X228881Y808461D01*
G37*
G54D11*
X17267Y915091D02*
X17299Y807961D01*
G36*
X30767Y915095D02*
X3767Y915087D01*
X3763Y928587D01*
X30763Y928595D01*
X30767Y915095D01*
G37*
G36*
X3799Y807957D02*
X30799Y807965D01*
X30803Y794465D01*
X3803Y794457D01*
X3799Y807957D01*
G37*
G54D12*
X19050Y803275D02*
X239712Y803275D01*
G54D12*
X17224Y988536D02*
X237887Y988536D01*
M02*
