%FSLAX34Y34*%
%MOMM*%
%LNCOPPER_TOP*%
G71*
G01*
%ADD10R,1.100X1.400*%
%ADD11R,1.400X1.100*%
%ADD12R,3.550X3.550*%
%ADD13C,1.100*%
%ADD14C,0.700*%
%ADD15C,1.375*%
%ADD16C,0.500*%
%ADD17R,1.300X1.300*%
%ADD18C,1.380*%
%ADD19R,1.700X1.700*%
%ADD20C,0.800*%
%ADD21R,2.000X1.700*%
%ADD22R,1.700X2.000*%
%ADD23C,1.000*%
%ADD24C,1.600*%
%ADD25C,1.300*%
%ADD26C,0.300*%
%ADD27R,0.300X0.600*%
%ADD28R,0.600X0.300*%
%ADD29R,2.750X2.750*%
%ADD30C,0.975*%
%ADD31C,0.100*%
%ADD32R,0.900X0.900*%
%ADD33C,0.980*%
%ADD34C,0.400*%
%ADD35R,1.200X0.900*%
%ADD36R,2.200X0.600*%
%ADD37R,0.900X1.200*%
%ADD38R,0.600X2.200*%
%ADD39C,1.000*%
%ADD40C,0.600*%
%ADD41C,2.500*%
%ADD42C,1.500*%
%LPD*%
G36*
X0Y1000000D02*
X260000Y1000000D01*
X260000Y790000D01*
X0Y790000D01*
X0Y1000000D01*
G37*
%LPC*%
X113212Y884232D02*
G54D10*
D03*
X113212Y922232D02*
G54D10*
D03*
X118212Y884232D02*
G54D10*
D03*
X118212Y922232D02*
G54D10*
D03*
X123212Y884232D02*
G54D10*
D03*
X123212Y922232D02*
G54D10*
D03*
X128212Y884232D02*
G54D10*
D03*
X128212Y922232D02*
G54D10*
D03*
X133212Y884232D02*
G54D10*
D03*
X133212Y922232D02*
G54D10*
D03*
X138212Y884232D02*
G54D10*
D03*
X138212Y922232D02*
G54D10*
D03*
X106712Y890732D02*
G54D11*
D03*
X144712Y890732D02*
G54D11*
D03*
X106712Y895732D02*
G54D11*
D03*
X144712Y895732D02*
G54D11*
D03*
X106712Y900732D02*
G54D11*
D03*
X144712Y900732D02*
G54D11*
D03*
X106712Y905732D02*
G54D11*
D03*
X144712Y905732D02*
G54D11*
D03*
X106712Y910732D02*
G54D11*
D03*
X144712Y910732D02*
G54D11*
D03*
X106712Y915732D02*
G54D11*
D03*
X144712Y915732D02*
G54D11*
D03*
X125712Y903232D02*
G54D12*
D03*
G54D13*
X106712Y900732D02*
X116712Y900732D01*
X117212Y900232D01*
G54D13*
X106712Y890732D02*
X113712Y890732D01*
X117212Y894232D01*
G54D13*
X113212Y884232D02*
X113212Y891232D01*
X115212Y893232D01*
G54D13*
X118212Y884232D02*
X118212Y892232D01*
G54D13*
X123212Y884232D02*
X123212Y892232D01*
G54D13*
X128212Y884232D02*
X128212Y891232D01*
G54D13*
X133212Y884232D02*
X133212Y892232D01*
G54D13*
X138212Y884232D02*
X138212Y890232D01*
X135212Y893232D01*
G54D13*
X144712Y890732D02*
X134712Y890732D01*
X133212Y892232D01*
G54D13*
X144712Y900732D02*
X133712Y900732D01*
X133212Y900232D01*
G54D13*
X106712Y915732D02*
X112712Y915732D01*
X115212Y913232D01*
G54D13*
X113212Y922232D02*
X113212Y915232D01*
X115212Y913232D01*
G54D13*
X118212Y922232D02*
X118212Y914232D01*
G54D13*
X123212Y922232D02*
X123212Y915232D01*
G54D13*
X128212Y922232D02*
X128212Y915232D01*
G54D13*
X133212Y922232D02*
X133212Y915232D01*
G54D13*
X138212Y922232D02*
X138212Y916982D01*
G54D14*
X106712Y905732D02*
X98962Y905732D01*
G54D14*
X106712Y910732D02*
X98962Y910732D01*
X97462Y909232D01*
X97462Y907232D01*
X98962Y905732D01*
G54D15*
X86212Y895732D02*
X81462Y895732D01*
G36*
X81462Y902608D02*
X81462Y888858D01*
X74588Y888858D01*
X74588Y902608D01*
X81462Y902608D01*
G37*
G54D14*
X106712Y895732D02*
X86212Y895732D01*
G36*
X99712Y894732D02*
X87212Y891482D01*
X87212Y899982D01*
X99712Y896732D01*
X99712Y894732D01*
G37*
G54D16*
X99712Y894732D02*
X87212Y891482D01*
X87212Y899982D01*
X99712Y896732D01*
X99712Y894732D01*
X64762Y895832D02*
G54D17*
D03*
X81462Y895732D02*
G54D17*
D03*
G54D15*
X65556Y895753D02*
X9196Y895743D01*
G36*
X65557Y888878D02*
X65555Y902628D01*
X72430Y902629D01*
X72432Y888879D01*
X65557Y888878D01*
G37*
G36*
X9194Y902618D02*
X9197Y888868D01*
X2322Y888867D01*
X2319Y902617D01*
X9194Y902618D01*
G37*
G54D15*
X165212Y895732D02*
X169963Y895732D01*
G36*
X169963Y888858D02*
X169963Y902608D01*
X176838Y902608D01*
X176838Y888858D01*
X169963Y888858D01*
G37*
G54D14*
X144712Y895732D02*
X165212Y895732D01*
G36*
X151713Y896732D02*
X164213Y899982D01*
X164213Y891482D01*
X151713Y894732D01*
X151713Y896732D01*
G37*
G54D16*
X151713Y896732D02*
X164213Y899982D01*
X164213Y891482D01*
X151713Y894732D01*
X151713Y896732D01*
X186662Y895633D02*
G54D17*
D03*
X169963Y895733D02*
G54D17*
D03*
G54D18*
X186662Y895712D02*
X250167Y895722D01*
G36*
X186661Y902612D02*
X186664Y888812D01*
X179764Y888811D01*
X179761Y902611D01*
X186661Y902612D01*
G37*
G36*
X250168Y888822D02*
X250166Y902622D01*
X257066Y902623D01*
X257068Y888823D01*
X250168Y888822D01*
G37*
X87312Y937419D02*
G54D19*
D03*
X87212Y920719D02*
G54D19*
D03*
X72231Y920750D02*
G54D19*
D03*
X72331Y937450D02*
G54D19*
D03*
G54D14*
X97462Y909232D02*
X87212Y920719D01*
G54D20*
X87212Y920719D02*
X72231Y920750D01*
X71358Y920671D01*
G54D20*
X87212Y920719D02*
X87212Y920719D01*
X147675Y941282D02*
G54D19*
D03*
X147775Y957982D02*
G54D19*
D03*
X163512Y926995D02*
G54D19*
D03*
X163612Y943695D02*
G54D19*
D03*
X197175Y924182D02*
G54D19*
D03*
X180475Y924282D02*
G54D19*
D03*
G54D14*
X144712Y915732D02*
X150212Y915732D01*
X152462Y917982D01*
X152462Y925482D01*
X147648Y930890D01*
X147675Y941282D01*
G54D14*
X144712Y910732D02*
X152462Y910732D01*
X157712Y915982D01*
X163512Y926995D01*
G54D14*
X144712Y905732D02*
X154712Y905732D01*
X164185Y915231D01*
X171949Y915234D01*
X180475Y924282D01*
X52246Y937614D02*
G54D21*
D03*
X52246Y960614D02*
G54D21*
D03*
X133840Y958710D02*
G54D22*
D03*
X110840Y958710D02*
G54D22*
D03*
X189292Y939227D02*
G54D21*
D03*
X189292Y962227D02*
G54D21*
D03*
X217217Y939227D02*
G54D21*
D03*
X217217Y962227D02*
G54D21*
D03*
G54D23*
X163612Y943695D02*
X176174Y939232D01*
X189292Y939227D01*
X52228Y969962D02*
G54D24*
D03*
X99218Y969962D02*
G54D24*
D03*
X189496Y971958D02*
G54D24*
D03*
X217277Y971958D02*
G54D24*
D03*
G54D25*
X72331Y937450D02*
X63500Y937419D01*
X52246Y937614D01*
G54D25*
X99219Y969962D02*
X110840Y958710D01*
G36*
X77516Y901107D02*
X69901Y901107D01*
X69901Y890356D01*
X77516Y890356D01*
X77516Y901107D01*
G37*
G54D26*
X77516Y901107D02*
X69901Y901107D01*
X69901Y890356D01*
X77516Y890356D01*
X77516Y901107D01*
G36*
X181498Y901107D02*
X173882Y901107D01*
X173882Y890356D01*
X181498Y890356D01*
X181498Y901107D01*
G37*
G54D26*
X181498Y901107D02*
X173882Y901107D01*
X173882Y890356D01*
X181498Y890356D01*
X181498Y901107D01*
G54D13*
X199556Y924182D02*
X217217Y939227D01*
G54D25*
X52246Y960614D02*
X52229Y969962D01*
G54D25*
X217277Y971958D02*
X217217Y962227D01*
G36*
X69064Y944449D02*
X59372Y944449D01*
X59372Y930617D01*
X69064Y930617D01*
X69064Y944449D01*
G37*
G54D26*
X69064Y944449D02*
X59372Y944449D01*
X59372Y930617D01*
X69064Y930617D01*
X69064Y944449D01*
G36*
X157712Y915982D02*
X140674Y915982D01*
X140674Y938043D01*
X157712Y938043D01*
X157712Y915982D01*
G37*
G54D26*
X157712Y915982D02*
X140674Y915982D01*
X140674Y938043D01*
X157712Y938043D01*
X157712Y915982D01*
G36*
X207169Y930275D02*
X157162Y930275D01*
X157162Y946150D01*
X207169Y946150D01*
X207169Y930275D01*
G37*
G54D26*
X207169Y930275D02*
X157162Y930275D01*
X157162Y946150D01*
X207169Y946150D01*
X207169Y930275D01*
%LPD*%
X113212Y884232D02*
G54D27*
D03*
X113212Y922232D02*
G54D27*
D03*
X118212Y884232D02*
G54D27*
D03*
X118212Y922232D02*
G54D27*
D03*
X123212Y884232D02*
G54D27*
D03*
X123212Y922232D02*
G54D27*
D03*
X128212Y884232D02*
G54D27*
D03*
X128212Y922232D02*
G54D27*
D03*
X133212Y884232D02*
G54D27*
D03*
X133212Y922232D02*
G54D27*
D03*
X138212Y884232D02*
G54D27*
D03*
X138212Y922232D02*
G54D27*
D03*
X106712Y890732D02*
G54D28*
D03*
X144712Y890732D02*
G54D28*
D03*
X106712Y895732D02*
G54D28*
D03*
X144712Y895732D02*
G54D28*
D03*
X106712Y900732D02*
G54D28*
D03*
X144712Y900732D02*
G54D28*
D03*
X106712Y905732D02*
G54D28*
D03*
X144712Y905732D02*
G54D28*
D03*
X106712Y910732D02*
G54D28*
D03*
X144712Y910732D02*
G54D28*
D03*
X106712Y915732D02*
G54D28*
D03*
X144712Y915732D02*
G54D28*
D03*
X125712Y903232D02*
G54D29*
D03*
G54D26*
X106712Y900732D02*
X116712Y900732D01*
X117212Y900232D01*
G54D26*
X106712Y890732D02*
X113712Y890732D01*
X117212Y894232D01*
G54D26*
X113212Y884232D02*
X113212Y891232D01*
X115212Y893232D01*
G54D26*
X118212Y884232D02*
X118212Y892232D01*
G54D26*
X123212Y884232D02*
X123212Y892232D01*
G54D26*
X128212Y884232D02*
X128212Y891232D01*
G54D26*
X133212Y884232D02*
X133212Y892232D01*
G54D26*
X138212Y884232D02*
X138212Y890232D01*
X135212Y893232D01*
G54D26*
X144712Y890732D02*
X134712Y890732D01*
X133212Y892232D01*
G54D26*
X144712Y900732D02*
X133712Y900732D01*
X133212Y900232D01*
G54D26*
X106712Y915732D02*
X112712Y915732D01*
X115212Y913232D01*
G54D26*
X113212Y922232D02*
X113212Y915232D01*
X115212Y913232D01*
G54D26*
X118212Y922232D02*
X118212Y914232D01*
G54D26*
X123212Y922232D02*
X123212Y915232D01*
G54D26*
X128212Y922232D02*
X128212Y915232D01*
G54D26*
X133212Y922232D02*
X133212Y915232D01*
G54D26*
X138212Y922232D02*
X138212Y916982D01*
G54D26*
X106712Y905732D02*
X98962Y905732D01*
G54D26*
X106712Y910732D02*
X98962Y910732D01*
X97462Y909232D01*
X97462Y907232D01*
X98962Y905732D01*
G54D30*
X86212Y895732D02*
X81462Y895732D01*
G36*
X81462Y900608D02*
X81462Y890858D01*
X76588Y890858D01*
X76588Y900608D01*
X81462Y900608D01*
G37*
G54D26*
X106712Y895732D02*
X86212Y895732D01*
G36*
X99712Y894732D02*
X87212Y891482D01*
X87212Y899982D01*
X99712Y896732D01*
X99712Y894732D01*
G37*
G54D31*
X99712Y894732D02*
X87212Y891482D01*
X87212Y899982D01*
X99712Y896732D01*
X99712Y894732D01*
G54D26*
X106712Y890732D02*
X102462Y890732D01*
G54D26*
X106712Y900732D02*
X102212Y900732D01*
X64762Y895832D02*
G54D32*
D03*
X81462Y895732D02*
G54D32*
D03*
G54D30*
X65556Y895753D02*
X9196Y895743D01*
G36*
X65557Y890878D02*
X65555Y900628D01*
X70430Y900629D01*
X70432Y890879D01*
X65557Y890878D01*
G37*
G36*
X9195Y900618D02*
X9196Y890868D01*
X4321Y890867D01*
X4320Y900617D01*
X9195Y900618D01*
G37*
G54D30*
X165212Y895732D02*
X169963Y895732D01*
G36*
X169963Y890858D02*
X169963Y900608D01*
X174838Y900608D01*
X174838Y890858D01*
X169963Y890858D01*
G37*
G54D26*
X144712Y895732D02*
X165212Y895732D01*
G36*
X151713Y896732D02*
X164213Y899982D01*
X164213Y891482D01*
X151713Y894732D01*
X151713Y896732D01*
G37*
G54D31*
X151713Y896732D02*
X164213Y899982D01*
X164213Y891482D01*
X151713Y894732D01*
X151713Y896732D01*
X186662Y895633D02*
G54D32*
D03*
X169963Y895733D02*
G54D32*
D03*
G54D33*
X186662Y895712D02*
X250167Y895722D01*
G36*
X186662Y900612D02*
X186663Y890812D01*
X181763Y890811D01*
X181762Y900611D01*
X186662Y900612D01*
G37*
G36*
X250168Y890822D02*
X250166Y900622D01*
X255066Y900623D01*
X255068Y890823D01*
X250168Y890822D01*
G37*
X87312Y937419D02*
G54D32*
D03*
X87212Y920719D02*
G54D32*
D03*
X72231Y920750D02*
G54D32*
D03*
X72331Y937450D02*
G54D32*
D03*
G54D26*
X97462Y909232D02*
X87212Y920719D01*
G54D34*
X87212Y920719D02*
X72231Y920750D01*
X71358Y920671D01*
G54D34*
X87212Y920719D02*
X87212Y920719D01*
X147675Y941282D02*
G54D32*
D03*
X147775Y957982D02*
G54D32*
D03*
X163512Y926995D02*
G54D32*
D03*
X163612Y943695D02*
G54D32*
D03*
X197175Y924182D02*
G54D32*
D03*
X180475Y924282D02*
G54D32*
D03*
G54D26*
X144712Y915732D02*
X150212Y915732D01*
X152462Y917982D01*
X152462Y925482D01*
X147648Y930890D01*
X147675Y941282D01*
G54D26*
X144712Y910732D02*
X152462Y910732D01*
X157712Y915982D01*
X163512Y926995D01*
G54D26*
X144712Y905732D02*
X154712Y905732D01*
X164185Y915231D01*
X171949Y915234D01*
X180475Y924282D01*
G54D26*
X144712Y900732D02*
X151462Y900732D01*
G54D26*
X144712Y890732D02*
X151212Y890732D01*
X154137Y889953D01*
G54D26*
X138212Y884232D02*
X138212Y874482D01*
G54D26*
X133212Y884232D02*
X133212Y874482D01*
G54D26*
X128212Y884232D02*
X128212Y874232D01*
G54D26*
X123212Y884232D02*
X123212Y874232D01*
X123462Y873982D01*
G54D26*
X118212Y884232D02*
X118212Y874982D01*
X118712Y874482D01*
G54D26*
X113212Y884232D02*
X113212Y873982D01*
X112962Y873732D01*
G54D26*
X106712Y890732D02*
X100212Y890732D01*
X95770Y889544D01*
G54D26*
X106712Y900732D02*
X99962Y900732D01*
G54D26*
X113212Y922232D02*
X113212Y931732D01*
G54D26*
X118212Y922232D02*
X118212Y931482D01*
G54D26*
X123212Y922232D02*
X123212Y931482D01*
G54D26*
X128212Y922232D02*
X128212Y930732D01*
G54D26*
X133212Y922232D02*
X133212Y930232D01*
X132712Y930732D01*
X52246Y937614D02*
G54D35*
D03*
X52246Y960614D02*
G54D35*
D03*
X52246Y949114D02*
G54D36*
D03*
X133840Y958710D02*
G54D37*
D03*
X110840Y958710D02*
G54D37*
D03*
X122340Y958710D02*
G54D38*
D03*
X189292Y939227D02*
G54D35*
D03*
X189292Y962227D02*
G54D35*
D03*
X189292Y950727D02*
G54D36*
D03*
X217217Y939227D02*
G54D35*
D03*
X217217Y962227D02*
G54D35*
D03*
X217217Y950727D02*
G54D36*
D03*
G54D34*
X147775Y957982D02*
X135400Y957189D01*
X133840Y958710D01*
G54D34*
X163612Y943695D02*
X176174Y939232D01*
X189292Y939227D01*
X52228Y969962D02*
G54D39*
D03*
X99218Y969962D02*
G54D39*
D03*
X116919Y912495D02*
G54D40*
D03*
X122919Y912495D02*
G54D40*
D03*
X128919Y912495D02*
G54D40*
D03*
X134919Y912495D02*
G54D40*
D03*
X116919Y906495D02*
G54D40*
D03*
X122919Y906495D02*
G54D40*
D03*
X128919Y906495D02*
G54D40*
D03*
X134919Y906495D02*
G54D40*
D03*
X116919Y900495D02*
G54D40*
D03*
X122919Y900495D02*
G54D40*
D03*
X128919Y900495D02*
G54D40*
D03*
X134919Y900495D02*
G54D40*
D03*
X116919Y894495D02*
G54D40*
D03*
X122919Y894495D02*
G54D40*
D03*
X128919Y894495D02*
G54D40*
D03*
X134919Y894495D02*
G54D40*
D03*
X189496Y971958D02*
G54D39*
D03*
X217277Y971958D02*
G54D39*
D03*
G54D14*
X72331Y937450D02*
X63500Y937419D01*
X52246Y937614D01*
G54D14*
X99219Y969962D02*
X110840Y958710D01*
G54D14*
X189496Y971958D02*
X189292Y962227D01*
G54D26*
X106712Y915732D02*
X98680Y915732D01*
X97631Y916781D01*
G54D16*
X199556Y924182D02*
X217217Y939227D01*
G54D14*
X52246Y960614D02*
X52229Y969962D01*
G54D14*
X217277Y971958D02*
X217217Y962227D01*
G54D14*
X87312Y937419D02*
X100806Y937419D01*
G54D14*
X87312Y937419D02*
X87312Y950912D01*
G54D26*
X106712Y915732D02*
X106712Y930719D01*
X106362Y931069D01*
G54D26*
X113212Y922232D02*
X97736Y922232D01*
X97631Y922338D01*
G54D26*
X144712Y890732D02*
X144712Y875756D01*
X144462Y875506D01*
G54D26*
X138212Y884232D02*
X153194Y884238D01*
G54D26*
X113212Y884232D02*
X98425Y884238D01*
G54D26*
X106712Y890732D02*
X106712Y875856D01*
X106362Y875506D01*
G54D26*
X138212Y922232D02*
X138212Y928588D01*
X136525Y931069D01*
X8732Y885031D02*
G54D40*
D03*
X16669Y885031D02*
G54D40*
D03*
X24607Y885031D02*
G54D40*
D03*
X32544Y885031D02*
G54D40*
D03*
X40482Y885031D02*
G54D40*
D03*
X48419Y885031D02*
G54D40*
D03*
X56357Y885031D02*
G54D40*
D03*
X64294Y885031D02*
G54D40*
D03*
X72232Y885031D02*
G54D40*
D03*
X80169Y885031D02*
G54D40*
D03*
X88107Y885031D02*
G54D40*
D03*
X95250Y886618D02*
G54D40*
D03*
X89297Y905986D02*
G54D40*
D03*
X80169Y906462D02*
G54D40*
D03*
X72232Y906462D02*
G54D40*
D03*
X64294Y906462D02*
G54D40*
D03*
X56357Y906462D02*
G54D40*
D03*
X48419Y906462D02*
G54D40*
D03*
X40482Y906462D02*
G54D40*
D03*
X32544Y906462D02*
G54D40*
D03*
X24607Y906462D02*
G54D40*
D03*
X16669Y906462D02*
G54D40*
D03*
X8732Y906462D02*
G54D40*
D03*
X242888Y885031D02*
G54D40*
D03*
X234951Y885031D02*
G54D40*
D03*
X227013Y885031D02*
G54D40*
D03*
X219076Y885031D02*
G54D40*
D03*
X211138Y885031D02*
G54D40*
D03*
X203201Y885031D02*
G54D40*
D03*
X195263Y885031D02*
G54D40*
D03*
X187326Y885031D02*
G54D40*
D03*
X179388Y885031D02*
G54D40*
D03*
X171451Y885031D02*
G54D40*
D03*
X163513Y885031D02*
G54D40*
D03*
X156370Y886618D02*
G54D40*
D03*
X250508Y885031D02*
G54D40*
D03*
X242888Y906462D02*
G54D40*
D03*
X234951Y906462D02*
G54D40*
D03*
X227013Y906462D02*
G54D40*
D03*
X219076Y906462D02*
G54D40*
D03*
X211138Y906462D02*
G54D40*
D03*
X203201Y906462D02*
G54D40*
D03*
X195263Y906462D02*
G54D40*
D03*
X187326Y906462D02*
G54D40*
D03*
X179388Y906462D02*
G54D40*
D03*
X171451Y906462D02*
G54D40*
D03*
X164466Y905827D02*
G54D40*
D03*
X250508Y906462D02*
G54D40*
D03*
X12700Y877887D02*
G54D40*
D03*
X20638Y877887D02*
G54D40*
D03*
X28576Y877887D02*
G54D40*
D03*
X36513Y877887D02*
G54D40*
D03*
X44450Y877887D02*
G54D40*
D03*
X52388Y877887D02*
G54D40*
D03*
X60326Y877887D02*
G54D40*
D03*
X68263Y877887D02*
G54D40*
D03*
X76200Y877887D02*
G54D40*
D03*
X84138Y877887D02*
G54D40*
D03*
X92076Y877887D02*
G54D40*
D03*
X167482Y877887D02*
G54D40*
D03*
X175419Y877887D02*
G54D40*
D03*
X183357Y877887D02*
G54D40*
D03*
X191294Y877887D02*
G54D40*
D03*
X199232Y877887D02*
G54D40*
D03*
X207169Y877887D02*
G54D40*
D03*
X215107Y877887D02*
G54D40*
D03*
X223044Y877887D02*
G54D40*
D03*
X230982Y877887D02*
G54D40*
D03*
X238919Y877887D02*
G54D40*
D03*
X246857Y877887D02*
G54D40*
D03*
X183357Y912495D02*
G54D40*
D03*
X191294Y912495D02*
G54D40*
D03*
X199232Y912495D02*
G54D40*
D03*
X207169Y912495D02*
G54D40*
D03*
X215107Y913606D02*
G54D40*
D03*
X223044Y913606D02*
G54D40*
D03*
X230982Y913606D02*
G54D40*
D03*
X238919Y913606D02*
G54D40*
D03*
X246857Y913606D02*
G54D40*
D03*
X60326Y913606D02*
G54D40*
D03*
X52388Y913606D02*
G54D40*
D03*
X44450Y913606D02*
G54D40*
D03*
X36513Y913606D02*
G54D40*
D03*
X28576Y913606D02*
G54D40*
D03*
X20638Y913606D02*
G54D40*
D03*
X12700Y913606D02*
G54D40*
D03*
X100807Y875506D02*
G54D40*
D03*
X108744Y870744D02*
G54D40*
D03*
X118269Y869950D02*
G54D40*
D03*
X127794Y869950D02*
G54D40*
D03*
X137319Y869156D02*
G54D40*
D03*
X146050Y870744D02*
G54D40*
D03*
X152400Y877094D02*
G54D40*
D03*
X135732Y933450D02*
G54D40*
D03*
X127794Y933450D02*
G54D40*
D03*
X120650Y933450D02*
G54D40*
D03*
X112713Y933450D02*
G54D40*
D03*
X105807Y931386D02*
G54D40*
D03*
X100886Y925195D02*
G54D40*
D03*
X66676Y949325D02*
G54D40*
D03*
X37307Y949325D02*
G54D40*
D03*
X175198Y951024D02*
G54D40*
D03*
X203212Y950789D02*
G54D40*
D03*
X231617Y950912D02*
G54D40*
D03*
G54D41*
X17209Y983526D02*
X17267Y915091D01*
G36*
X29709Y983537D02*
X4709Y983516D01*
X4698Y996016D01*
X29698Y996037D01*
X29709Y983537D01*
G37*
G36*
X4767Y915080D02*
X29767Y915102D01*
X29777Y902602D01*
X4777Y902580D01*
X4767Y915080D01*
G37*
G54D41*
X242649Y983536D02*
X242644Y915118D01*
G36*
X255149Y983535D02*
X230149Y983537D01*
X230150Y996037D01*
X255150Y996035D01*
X255149Y983535D01*
G37*
G36*
X230144Y915118D02*
X255144Y915116D01*
X255143Y902616D01*
X230143Y902618D01*
X230144Y915118D01*
G37*
G54D41*
X242375Y876313D02*
X242381Y808422D01*
G36*
X254875Y876314D02*
X229875Y876312D01*
X229874Y888812D01*
X254874Y888814D01*
X254875Y876314D01*
G37*
G36*
X229881Y808420D02*
X254881Y808423D01*
X254882Y795923D01*
X229882Y795920D01*
X229881Y808420D01*
G37*
G54D41*
X17304Y876379D02*
X17299Y807961D01*
G36*
X29804Y876378D02*
X4804Y876380D01*
X4805Y888880D01*
X29805Y888878D01*
X29804Y876378D01*
G37*
G36*
X4799Y807962D02*
X29799Y807960D01*
X29798Y795460D01*
X4798Y795462D01*
X4799Y807962D01*
G37*
G54D42*
X19050Y803275D02*
X239712Y803275D01*
G54D42*
X17224Y988536D02*
X237887Y988536D01*
X15876Y868759D02*
G54D40*
D03*
X15876Y856059D02*
G54D40*
D03*
X15876Y842565D02*
G54D40*
D03*
X15876Y830659D02*
G54D40*
D03*
X15876Y817165D02*
G54D40*
D03*
X15876Y804068D02*
G54D40*
D03*
X35719Y803275D02*
G54D40*
D03*
X56356Y803274D02*
G54D40*
D03*
X79376Y803275D02*
G54D40*
D03*
X103188Y803275D02*
G54D40*
D03*
X126207Y803275D02*
G54D40*
D03*
X150813Y803275D02*
G54D40*
D03*
X174626Y803275D02*
G54D40*
D03*
X196533Y803275D02*
G54D40*
D03*
X219076Y803275D02*
G54D40*
D03*
X15876Y987822D02*
G54D40*
D03*
X15876Y975122D02*
G54D40*
D03*
X15876Y961628D02*
G54D40*
D03*
X15876Y949722D02*
G54D40*
D03*
X15876Y936228D02*
G54D40*
D03*
X15876Y923131D02*
G54D40*
D03*
X242888Y868759D02*
G54D40*
D03*
X242888Y856059D02*
G54D40*
D03*
X242888Y842565D02*
G54D40*
D03*
X242888Y830659D02*
G54D40*
D03*
X242888Y817165D02*
G54D40*
D03*
X242889Y804068D02*
G54D40*
D03*
X242888Y987822D02*
G54D40*
D03*
X242888Y975122D02*
G54D40*
D03*
X242888Y961628D02*
G54D40*
D03*
X242888Y949722D02*
G54D40*
D03*
X242888Y936228D02*
G54D40*
D03*
X242889Y923131D02*
G54D40*
D03*
X35719Y989012D02*
G54D40*
D03*
X56356Y989012D02*
G54D40*
D03*
X79376Y989012D02*
G54D40*
D03*
X103188Y989012D02*
G54D40*
D03*
X126207Y989012D02*
G54D40*
D03*
X150813Y989012D02*
G54D40*
D03*
X174626Y989012D02*
G54D40*
D03*
X196533Y989012D02*
G54D40*
D03*
X219076Y989012D02*
G54D40*
D03*
X44450Y861218D02*
G54D40*
D03*
X48419Y829468D02*
G54D40*
D03*
X73819Y858044D02*
G54D40*
D03*
X79376Y828675D02*
G54D40*
D03*
X103188Y847725D02*
G54D40*
D03*
X135732Y856456D02*
G54D40*
D03*
X119063Y826294D02*
G54D40*
D03*
X146844Y836612D02*
G54D40*
D03*
X176213Y823912D02*
G54D40*
D03*
X169069Y856456D02*
G54D40*
D03*
X204788Y857250D02*
G54D40*
D03*
X215107Y823912D02*
G54D40*
D03*
X192882Y839787D02*
G54D40*
D03*
X124180Y940122D02*
G54D40*
D03*
X132085Y940121D02*
G54D40*
D03*
X113507Y942975D02*
G54D40*
D03*
X100806Y937419D02*
G54D40*
D03*
X87312Y950912D02*
G54D40*
D03*
X81757Y958850D02*
G54D40*
D03*
X69057Y958850D02*
G54D40*
D03*
X70029Y979731D02*
G54D40*
D03*
X115888Y979725D02*
G54D40*
D03*
X132029Y976462D02*
G54D40*
D03*
X220663Y923925D02*
G54D40*
D03*
X55563Y923131D02*
G54D40*
D03*
X36513Y923131D02*
G54D40*
D03*
M02*
