%FSLAX34Y34*%
%MOMM*%
%LNSOLDERMASK_TOP*%
G71*
G01*
%ADD10R,0.500X0.800*%
%ADD11R,0.800X0.500*%
%ADD12R,2.950X2.950*%
%ADD13C,1.175*%
%ADD14C,0.500*%
%ADD15C,0.300*%
%ADD16R,1.100X1.100*%
%ADD17C,1.180*%
%ADD18R,1.400X1.100*%
%ADD19R,2.400X0.800*%
%ADD20R,1.100X1.400*%
%ADD21R,0.800X2.400*%
%ADD22C,2.700*%
%ADD23C,1.700*%
%LPD*%
X113212Y884232D02*
G54D10*
D03*
X113212Y922232D02*
G54D10*
D03*
X118212Y884232D02*
G54D10*
D03*
X118212Y922232D02*
G54D10*
D03*
X123212Y884232D02*
G54D10*
D03*
X123212Y922232D02*
G54D10*
D03*
X128212Y884232D02*
G54D10*
D03*
X128212Y922232D02*
G54D10*
D03*
X133212Y884232D02*
G54D10*
D03*
X133212Y922232D02*
G54D10*
D03*
X138212Y884232D02*
G54D10*
D03*
X138212Y922232D02*
G54D10*
D03*
X106712Y890732D02*
G54D11*
D03*
X144712Y890732D02*
G54D11*
D03*
X106712Y895732D02*
G54D11*
D03*
X144712Y895732D02*
G54D11*
D03*
X106712Y900732D02*
G54D11*
D03*
X144712Y900732D02*
G54D11*
D03*
X106712Y905732D02*
G54D11*
D03*
X144712Y905732D02*
G54D11*
D03*
X106712Y910732D02*
G54D11*
D03*
X144712Y910732D02*
G54D11*
D03*
X106712Y915732D02*
G54D11*
D03*
X144712Y915732D02*
G54D11*
D03*
X125712Y903232D02*
G54D12*
D03*
G54D13*
X86212Y895732D02*
X81462Y895732D01*
G36*
X81462Y901608D02*
X81462Y889858D01*
X75588Y889858D01*
X75588Y901608D01*
X81462Y901608D01*
G37*
G54D14*
X106712Y895732D02*
X86212Y895732D01*
G36*
X99712Y894732D02*
X87212Y891482D01*
X87212Y899982D01*
X99712Y896732D01*
X99712Y894732D01*
G37*
G54D15*
X99712Y894732D02*
X87212Y891482D01*
X87212Y899982D01*
X99712Y896732D01*
X99712Y894732D01*
X64762Y895832D02*
G54D16*
D03*
X81462Y895732D02*
G54D16*
D03*
G54D13*
X65556Y895753D02*
X9196Y895743D01*
G36*
X65557Y889878D02*
X65555Y901628D01*
X71430Y901629D01*
X71432Y889879D01*
X65557Y889878D01*
G37*
G36*
X9194Y901618D02*
X9197Y889868D01*
X3322Y889867D01*
X3319Y901617D01*
X9194Y901618D01*
G37*
G54D13*
X165212Y895732D02*
X169963Y895732D01*
G36*
X169963Y889858D02*
X169963Y901608D01*
X175838Y901608D01*
X175838Y889858D01*
X169963Y889858D01*
G37*
G54D14*
X144712Y895732D02*
X165212Y895732D01*
G36*
X151713Y896732D02*
X164213Y899982D01*
X164213Y891482D01*
X151713Y894732D01*
X151713Y896732D01*
G37*
G54D15*
X151713Y896732D02*
X164213Y899982D01*
X164213Y891482D01*
X151713Y894732D01*
X151713Y896732D01*
X186662Y895633D02*
G54D16*
D03*
X169963Y895733D02*
G54D16*
D03*
G54D17*
X186662Y895712D02*
X250167Y895722D01*
G36*
X186662Y901612D02*
X186663Y889812D01*
X180763Y889811D01*
X180762Y901611D01*
X186662Y901612D01*
G37*
G36*
X250168Y889822D02*
X250166Y901622D01*
X256066Y901623D01*
X256068Y889823D01*
X250168Y889822D01*
G37*
X87312Y937419D02*
G54D16*
D03*
X87212Y920719D02*
G54D16*
D03*
X72231Y920750D02*
G54D16*
D03*
X72331Y937450D02*
G54D16*
D03*
X147675Y941282D02*
G54D16*
D03*
X147775Y957982D02*
G54D16*
D03*
X163512Y926995D02*
G54D16*
D03*
X163612Y943695D02*
G54D16*
D03*
X197175Y924182D02*
G54D16*
D03*
X180475Y924282D02*
G54D16*
D03*
X52246Y937614D02*
G54D18*
D03*
X52246Y960614D02*
G54D18*
D03*
X52246Y949114D02*
G54D19*
D03*
X133840Y958710D02*
G54D20*
D03*
X110840Y958710D02*
G54D20*
D03*
X122340Y958710D02*
G54D21*
D03*
X189292Y939227D02*
G54D18*
D03*
X189292Y962227D02*
G54D18*
D03*
X189292Y950727D02*
G54D19*
D03*
X217217Y939227D02*
G54D18*
D03*
X217217Y962227D02*
G54D18*
D03*
X217217Y950727D02*
G54D19*
D03*
G54D22*
X17209Y983526D02*
X17267Y915091D01*
G36*
X30709Y983538D02*
X3709Y983515D01*
X3698Y997015D01*
X30697Y997038D01*
X30709Y983538D01*
G37*
G36*
X3767Y915080D02*
X30767Y915102D01*
X30778Y901602D01*
X3778Y901580D01*
X3767Y915080D01*
G37*
G54D22*
X242649Y983536D02*
X242644Y915118D01*
G36*
X256149Y983535D02*
X229149Y983537D01*
X229150Y997037D01*
X256150Y997035D01*
X256149Y983535D01*
G37*
G36*
X229144Y915119D02*
X256144Y915116D01*
X256143Y901616D01*
X229143Y901619D01*
X229144Y915119D01*
G37*
G54D22*
X242375Y876313D02*
X242381Y808422D01*
G36*
X255875Y876314D02*
X228875Y876311D01*
X228874Y889811D01*
X255874Y889814D01*
X255875Y876314D01*
G37*
G36*
X228881Y808420D02*
X255881Y808423D01*
X255882Y794923D01*
X228882Y794920D01*
X228881Y808420D01*
G37*
G54D22*
X17304Y876379D02*
X17299Y807961D01*
G36*
X30804Y876378D02*
X3804Y876380D01*
X3805Y889880D01*
X30805Y889878D01*
X30804Y876378D01*
G37*
G36*
X3799Y807962D02*
X30799Y807960D01*
X30798Y794460D01*
X3798Y794462D01*
X3799Y807962D01*
G37*
G54D23*
X19050Y803275D02*
X239712Y803275D01*
G54D23*
X17224Y988536D02*
X237887Y988536D01*
M02*
