%FSLAX34Y34*%
%MOMM*%
%LNSMDMASK_TOP*%
G71*
G01*
%ADD10R,0.300X0.600*%
%ADD11R,0.600X0.300*%
%ADD12R,2.750X2.750*%
%ADD13R,0.900X0.900*%
%ADD14R,1.200X0.900*%
%ADD15R,2.200X0.600*%
%ADD16R,0.900X1.200*%
%ADD17R,0.600X2.200*%
%LPD*%
X113212Y884232D02*
G54D10*
D03*
X113212Y922232D02*
G54D10*
D03*
X118212Y884232D02*
G54D10*
D03*
X118212Y922232D02*
G54D10*
D03*
X123212Y884232D02*
G54D10*
D03*
X123212Y922232D02*
G54D10*
D03*
X128212Y884232D02*
G54D10*
D03*
X128212Y922232D02*
G54D10*
D03*
X133212Y884232D02*
G54D10*
D03*
X133212Y922232D02*
G54D10*
D03*
X138212Y884232D02*
G54D10*
D03*
X138212Y922232D02*
G54D10*
D03*
X106712Y890732D02*
G54D11*
D03*
X144712Y890732D02*
G54D11*
D03*
X106712Y895732D02*
G54D11*
D03*
X144712Y895732D02*
G54D11*
D03*
X106712Y900732D02*
G54D11*
D03*
X144712Y900732D02*
G54D11*
D03*
X106712Y905732D02*
G54D11*
D03*
X144712Y905732D02*
G54D11*
D03*
X106712Y910732D02*
G54D11*
D03*
X144712Y910732D02*
G54D11*
D03*
X106712Y915732D02*
G54D11*
D03*
X144712Y915732D02*
G54D11*
D03*
X125712Y903232D02*
G54D12*
D03*
X64762Y895832D02*
G54D13*
D03*
X81462Y895732D02*
G54D13*
D03*
X186662Y895633D02*
G54D13*
D03*
X169963Y895733D02*
G54D13*
D03*
X87312Y937419D02*
G54D13*
D03*
X87212Y920719D02*
G54D13*
D03*
X72231Y920750D02*
G54D13*
D03*
X72331Y937450D02*
G54D13*
D03*
X147675Y941282D02*
G54D13*
D03*
X147775Y957982D02*
G54D13*
D03*
X163512Y926995D02*
G54D13*
D03*
X163612Y943695D02*
G54D13*
D03*
X197175Y924182D02*
G54D13*
D03*
X180475Y924282D02*
G54D13*
D03*
X52246Y937614D02*
G54D14*
D03*
X52246Y960614D02*
G54D14*
D03*
X52246Y949114D02*
G54D15*
D03*
X133840Y958710D02*
G54D16*
D03*
X110840Y958710D02*
G54D16*
D03*
X122340Y958710D02*
G54D17*
D03*
X189292Y939227D02*
G54D14*
D03*
X189292Y962227D02*
G54D14*
D03*
X189292Y950727D02*
G54D15*
D03*
X217217Y939227D02*
G54D14*
D03*
X217217Y962227D02*
G54D14*
D03*
X217217Y950727D02*
G54D15*
D03*
M02*
