%FSLAX34Y34*%
%MOMM*%
%LNSILK_BOTTOM*%
G71*
G01*
%ADD10C,0.400*%
%ADD11C,0.222*%
%LPD*%
G54D10*
X90488Y954881D02*
X90488Y938212D01*
X161925Y938212D01*
X161925Y954881D01*
G36*
X76200Y946150D02*
X83344Y953294D01*
X76200Y960438D01*
X76200Y946150D01*
G37*
G54D10*
X76200Y946150D02*
X83344Y953294D01*
X76200Y960438D01*
X76200Y946150D01*
G54D11*
X77628Y869950D02*
X77628Y880617D01*
G54D11*
X82072Y875283D02*
X73183Y875283D01*
G54D11*
X84294Y885506D02*
X86517Y886839D01*
X87628Y889506D01*
X87628Y892173D01*
X86517Y894839D01*
X84294Y896173D01*
X82072Y896173D01*
X79850Y894839D01*
X78739Y892173D01*
X77628Y894839D01*
X75406Y896173D01*
X73183Y896173D01*
X70961Y894839D01*
X69850Y892173D01*
X69850Y889506D01*
X70961Y886839D01*
X73183Y885506D01*
G54D11*
X87628Y901062D02*
X69850Y907729D01*
X87628Y914395D01*
G54D11*
X84294Y919284D02*
X86517Y920617D01*
X87628Y923284D01*
X87628Y925951D01*
X86517Y928617D01*
X84294Y929951D01*
X82072Y929951D01*
X79850Y928617D01*
X78739Y925951D01*
X77628Y928617D01*
X75406Y929951D01*
X73183Y929951D01*
X70961Y928617D01*
X69850Y925951D01*
X69850Y923284D01*
X70961Y920617D01*
X73183Y919284D01*
G54D11*
X101758Y893540D02*
X101758Y898873D01*
X96202Y898873D01*
X93980Y897540D01*
X92869Y894873D01*
X92869Y892206D01*
X93980Y889540D01*
X96202Y888206D01*
X107313Y888206D01*
X109535Y889540D01*
X110647Y892206D01*
X110647Y894873D01*
X109535Y897540D01*
X107313Y898873D01*
G54D11*
X92869Y903762D02*
X110647Y903762D01*
X92869Y914429D01*
X110647Y914429D01*
G54D11*
X92869Y919318D02*
X110647Y919318D01*
X110647Y925985D01*
X109535Y928652D01*
X107313Y929985D01*
X96202Y929985D01*
X93980Y928652D01*
X92869Y925985D01*
X92869Y919318D01*
G54D11*
X115888Y866775D02*
X133665Y866775D01*
X133665Y873442D01*
X132554Y876108D01*
X130332Y877442D01*
X119221Y877442D01*
X116999Y876108D01*
X115888Y873442D01*
X115888Y866775D01*
G54D11*
X115888Y882331D02*
X133665Y888998D01*
X115888Y895664D01*
G54D11*
X122554Y884998D02*
X122554Y892998D01*
G54D11*
X115888Y905886D02*
X133665Y905886D01*
G54D11*
X133665Y900553D02*
X133665Y911220D01*
G54D11*
X115888Y916109D02*
X133665Y922776D01*
X115888Y929442D01*
G54D11*
X122554Y918776D02*
X122554Y926776D01*
G54D11*
X142240Y898873D02*
X140017Y897540D01*
X138906Y894873D01*
X138906Y892206D01*
X140017Y889540D01*
X142240Y888206D01*
X153351Y888206D01*
X155573Y889540D01*
X156684Y892206D01*
X156684Y894873D01*
X155573Y897540D01*
X153351Y898873D01*
G54D11*
X156684Y903762D02*
X138906Y903762D01*
X138906Y913096D01*
G54D11*
X138906Y917984D02*
X156684Y917984D01*
G54D11*
X144462Y917984D02*
X156684Y928651D01*
G54D11*
X147795Y921984D02*
X138906Y928651D01*
G54D11*
X180497Y904875D02*
X162719Y904875D01*
X162719Y914208D01*
G54D11*
X162719Y928430D02*
X162719Y919097D01*
X180497Y919097D01*
X180497Y928430D01*
G54D11*
X171608Y919097D02*
X171608Y928430D01*
M02*
