%FSLAX34Y34*%
%MOMM*%
%LNCOPPER_BOTTOM*%
G71*
G01*
%ADD10C,1.600*%
%ADD11R,1.600X2.400*%
%ADD12C,1.300*%
%ADD13C,1.000*%
%ADD14C,0.600*%
%ADD15R,0.800X1.600*%
%ADD16C,0.500*%
%ADD17C,0.800*%
%ADD18C,2.500*%
%ADD19C,1.500*%
%LPD*%
G36*
X0Y1000000D02*
X260000Y1000000D01*
X260000Y790000D01*
X0Y790000D01*
X0Y1000000D01*
G37*
%LPC*%
X52228Y969962D02*
G54D10*
D03*
X99218Y969962D02*
G54D10*
D03*
X189496Y971958D02*
G54D10*
D03*
X217277Y971958D02*
G54D10*
D03*
X100806Y953962D02*
G54D11*
D03*
X113506Y953962D02*
G54D11*
D03*
X126206Y953962D02*
G54D11*
D03*
X138906Y953962D02*
G54D11*
D03*
X151606Y953962D02*
G54D11*
D03*
G54D12*
X52228Y969962D02*
X84806Y969962D01*
X100806Y953962D01*
G54D12*
X99218Y969962D02*
X120650Y969962D01*
X126206Y964406D01*
X126206Y953962D01*
G54D12*
X138906Y953962D02*
X138906Y966788D01*
X144077Y971958D01*
X189496Y971958D01*
G54D12*
X151606Y953962D02*
X158875Y961231D01*
X205581Y961231D01*
X216308Y971958D01*
X217277Y971958D01*
%LPD*%
X52228Y969962D02*
G54D13*
D03*
X99218Y969962D02*
G54D13*
D03*
X116919Y912495D02*
G54D14*
D03*
X122919Y912495D02*
G54D14*
D03*
X128919Y912495D02*
G54D14*
D03*
X134919Y912495D02*
G54D14*
D03*
X116919Y906495D02*
G54D14*
D03*
X122919Y906495D02*
G54D14*
D03*
X128919Y906495D02*
G54D14*
D03*
X134919Y906495D02*
G54D14*
D03*
X116919Y900495D02*
G54D14*
D03*
X122919Y900495D02*
G54D14*
D03*
X128919Y900495D02*
G54D14*
D03*
X134919Y900495D02*
G54D14*
D03*
X116919Y894495D02*
G54D14*
D03*
X122919Y894495D02*
G54D14*
D03*
X128919Y894495D02*
G54D14*
D03*
X134919Y894495D02*
G54D14*
D03*
X189496Y971958D02*
G54D13*
D03*
X217277Y971958D02*
G54D13*
D03*
X8732Y885031D02*
G54D14*
D03*
X16669Y885031D02*
G54D14*
D03*
X24607Y885031D02*
G54D14*
D03*
X32544Y885031D02*
G54D14*
D03*
X40482Y885031D02*
G54D14*
D03*
X48419Y885031D02*
G54D14*
D03*
X56357Y885031D02*
G54D14*
D03*
X64294Y885031D02*
G54D14*
D03*
X72232Y885031D02*
G54D14*
D03*
X80169Y885031D02*
G54D14*
D03*
X88107Y885031D02*
G54D14*
D03*
X95250Y886618D02*
G54D14*
D03*
X89297Y905986D02*
G54D14*
D03*
X80169Y906462D02*
G54D14*
D03*
X72232Y906462D02*
G54D14*
D03*
X64294Y906462D02*
G54D14*
D03*
X56357Y906462D02*
G54D14*
D03*
X48419Y906462D02*
G54D14*
D03*
X40482Y906462D02*
G54D14*
D03*
X32544Y906462D02*
G54D14*
D03*
X24607Y906462D02*
G54D14*
D03*
X16669Y906462D02*
G54D14*
D03*
X8732Y906462D02*
G54D14*
D03*
X242888Y885031D02*
G54D14*
D03*
X234951Y885031D02*
G54D14*
D03*
X227013Y885031D02*
G54D14*
D03*
X219076Y885031D02*
G54D14*
D03*
X211138Y885031D02*
G54D14*
D03*
X203201Y885031D02*
G54D14*
D03*
X195263Y885031D02*
G54D14*
D03*
X187326Y885031D02*
G54D14*
D03*
X179388Y885031D02*
G54D14*
D03*
X171451Y885031D02*
G54D14*
D03*
X163513Y885031D02*
G54D14*
D03*
X156370Y886618D02*
G54D14*
D03*
X250508Y885031D02*
G54D14*
D03*
X242888Y906462D02*
G54D14*
D03*
X234951Y906462D02*
G54D14*
D03*
X227013Y906462D02*
G54D14*
D03*
X219076Y906462D02*
G54D14*
D03*
X211138Y906462D02*
G54D14*
D03*
X203201Y906462D02*
G54D14*
D03*
X195263Y906462D02*
G54D14*
D03*
X187326Y906462D02*
G54D14*
D03*
X179388Y906462D02*
G54D14*
D03*
X171451Y906462D02*
G54D14*
D03*
X164466Y905827D02*
G54D14*
D03*
X250508Y906462D02*
G54D14*
D03*
X12700Y877887D02*
G54D14*
D03*
X20638Y877887D02*
G54D14*
D03*
X28576Y877887D02*
G54D14*
D03*
X36513Y877887D02*
G54D14*
D03*
X44450Y877887D02*
G54D14*
D03*
X52388Y877887D02*
G54D14*
D03*
X60326Y877887D02*
G54D14*
D03*
X68263Y877887D02*
G54D14*
D03*
X76200Y877887D02*
G54D14*
D03*
X84138Y877887D02*
G54D14*
D03*
X92076Y877887D02*
G54D14*
D03*
X167482Y877887D02*
G54D14*
D03*
X175419Y877887D02*
G54D14*
D03*
X183357Y877887D02*
G54D14*
D03*
X191294Y877887D02*
G54D14*
D03*
X199232Y877887D02*
G54D14*
D03*
X207169Y877887D02*
G54D14*
D03*
X215107Y877887D02*
G54D14*
D03*
X223044Y877887D02*
G54D14*
D03*
X230982Y877887D02*
G54D14*
D03*
X238919Y877887D02*
G54D14*
D03*
X246857Y877887D02*
G54D14*
D03*
X183357Y912495D02*
G54D14*
D03*
X191294Y912495D02*
G54D14*
D03*
X199232Y912495D02*
G54D14*
D03*
X207169Y912495D02*
G54D14*
D03*
X215107Y913606D02*
G54D14*
D03*
X223044Y913606D02*
G54D14*
D03*
X230982Y913606D02*
G54D14*
D03*
X238919Y913606D02*
G54D14*
D03*
X246857Y913606D02*
G54D14*
D03*
X60326Y913606D02*
G54D14*
D03*
X52388Y913606D02*
G54D14*
D03*
X44450Y913606D02*
G54D14*
D03*
X36513Y913606D02*
G54D14*
D03*
X28576Y913606D02*
G54D14*
D03*
X20638Y913606D02*
G54D14*
D03*
X12700Y913606D02*
G54D14*
D03*
X100807Y875506D02*
G54D14*
D03*
X108744Y870744D02*
G54D14*
D03*
X118269Y869950D02*
G54D14*
D03*
X127794Y869950D02*
G54D14*
D03*
X137319Y869156D02*
G54D14*
D03*
X146050Y870744D02*
G54D14*
D03*
X152400Y877094D02*
G54D14*
D03*
X135732Y933450D02*
G54D14*
D03*
X127794Y933450D02*
G54D14*
D03*
X120650Y933450D02*
G54D14*
D03*
X112713Y933450D02*
G54D14*
D03*
X105807Y931386D02*
G54D14*
D03*
X100886Y925195D02*
G54D14*
D03*
X66676Y949325D02*
G54D14*
D03*
X37307Y949325D02*
G54D14*
D03*
X175198Y951024D02*
G54D14*
D03*
X203212Y950789D02*
G54D14*
D03*
X231617Y950912D02*
G54D14*
D03*
X15876Y868759D02*
G54D14*
D03*
X15876Y856059D02*
G54D14*
D03*
X15876Y842565D02*
G54D14*
D03*
X15876Y830659D02*
G54D14*
D03*
X15876Y817165D02*
G54D14*
D03*
X15876Y804068D02*
G54D14*
D03*
X35719Y803275D02*
G54D14*
D03*
X56356Y803274D02*
G54D14*
D03*
X79376Y803275D02*
G54D14*
D03*
X103188Y803275D02*
G54D14*
D03*
X126207Y803275D02*
G54D14*
D03*
X150813Y803275D02*
G54D14*
D03*
X174626Y803275D02*
G54D14*
D03*
X196533Y803275D02*
G54D14*
D03*
X219076Y803275D02*
G54D14*
D03*
X15876Y987822D02*
G54D14*
D03*
X15876Y975122D02*
G54D14*
D03*
X15876Y961628D02*
G54D14*
D03*
X15876Y949722D02*
G54D14*
D03*
X15876Y936228D02*
G54D14*
D03*
X15876Y923131D02*
G54D14*
D03*
X242888Y868759D02*
G54D14*
D03*
X242888Y856059D02*
G54D14*
D03*
X242888Y842565D02*
G54D14*
D03*
X242888Y830659D02*
G54D14*
D03*
X242888Y817165D02*
G54D14*
D03*
X242889Y804068D02*
G54D14*
D03*
X242888Y987822D02*
G54D14*
D03*
X242888Y975122D02*
G54D14*
D03*
X242888Y961628D02*
G54D14*
D03*
X242888Y949722D02*
G54D14*
D03*
X242888Y936228D02*
G54D14*
D03*
X242889Y923131D02*
G54D14*
D03*
X35719Y989012D02*
G54D14*
D03*
X56356Y989012D02*
G54D14*
D03*
X79376Y989012D02*
G54D14*
D03*
X103188Y989012D02*
G54D14*
D03*
X126207Y989012D02*
G54D14*
D03*
X150813Y989012D02*
G54D14*
D03*
X174626Y989012D02*
G54D14*
D03*
X196533Y989012D02*
G54D14*
D03*
X219076Y989012D02*
G54D14*
D03*
X44450Y861218D02*
G54D14*
D03*
X48419Y829468D02*
G54D14*
D03*
X73819Y858044D02*
G54D14*
D03*
X79376Y828675D02*
G54D14*
D03*
X103188Y847725D02*
G54D14*
D03*
X135732Y856456D02*
G54D14*
D03*
X119063Y826294D02*
G54D14*
D03*
X146844Y836612D02*
G54D14*
D03*
X176213Y823912D02*
G54D14*
D03*
X169069Y856456D02*
G54D14*
D03*
X204788Y857250D02*
G54D14*
D03*
X215107Y823912D02*
G54D14*
D03*
X192882Y839787D02*
G54D14*
D03*
X100806Y953962D02*
G54D15*
D03*
X113506Y953962D02*
G54D15*
D03*
X126206Y953962D02*
G54D15*
D03*
X138906Y953962D02*
G54D15*
D03*
X151606Y953962D02*
G54D15*
D03*
G54D16*
X52228Y969962D02*
X84806Y969962D01*
X100806Y953962D01*
G54D16*
X99218Y969962D02*
X120650Y969962D01*
X126206Y964406D01*
X126206Y953962D01*
G54D16*
X138906Y953962D02*
X138906Y966788D01*
X144077Y971958D01*
X189496Y971958D01*
G54D16*
X151606Y953962D02*
X158875Y961231D01*
X205581Y961231D01*
X216308Y971958D01*
X217277Y971958D01*
X124180Y940122D02*
G54D14*
D03*
X132085Y940121D02*
G54D14*
D03*
X113507Y942975D02*
G54D14*
D03*
X100806Y937419D02*
G54D14*
D03*
X87312Y950912D02*
G54D14*
D03*
X81757Y958850D02*
G54D14*
D03*
X69057Y958850D02*
G54D14*
D03*
X70029Y979731D02*
G54D14*
D03*
X115888Y979725D02*
G54D14*
D03*
X132029Y976462D02*
G54D14*
D03*
X220663Y923925D02*
G54D14*
D03*
X55563Y923131D02*
G54D14*
D03*
X36513Y923131D02*
G54D14*
D03*
G54D17*
X113506Y953962D02*
X113506Y940594D01*
G54D18*
X17209Y983526D02*
X17267Y915091D01*
G36*
X29709Y983537D02*
X4709Y983516D01*
X4698Y996016D01*
X29698Y996037D01*
X29709Y983537D01*
G37*
G36*
X4767Y915080D02*
X29767Y915102D01*
X29777Y902602D01*
X4777Y902580D01*
X4767Y915080D01*
G37*
G54D18*
X242649Y983536D02*
X242644Y915118D01*
G36*
X255149Y983535D02*
X230149Y983537D01*
X230150Y996037D01*
X255150Y996035D01*
X255149Y983535D01*
G37*
G36*
X230144Y915118D02*
X255144Y915116D01*
X255143Y902616D01*
X230143Y902618D01*
X230144Y915118D01*
G37*
G54D18*
X242665Y906463D02*
X242381Y808422D01*
G36*
X255165Y906426D02*
X230165Y906499D01*
X230201Y918999D01*
X255201Y918926D01*
X255165Y906426D01*
G37*
G36*
X229881Y808458D02*
X254881Y808385D01*
X254844Y795885D01*
X229844Y795958D01*
X229881Y808458D01*
G37*
G54D18*
X17267Y915091D02*
X17299Y807961D01*
G36*
X29767Y915095D02*
X4767Y915087D01*
X4763Y927587D01*
X29763Y927595D01*
X29767Y915095D01*
G37*
G36*
X4799Y807957D02*
X29799Y807965D01*
X29803Y795465D01*
X4803Y795457D01*
X4799Y807957D01*
G37*
G54D19*
X19050Y803275D02*
X239712Y803275D01*
G54D19*
X17224Y988536D02*
X237887Y988536D01*
M02*
