<?xml version="1.0" encoding="utf-8" standalone="no"?>
<!DOCTYPE svg PUBLIC "-//W3C//DTD SVG 1.1//EN"
  "http://www.w3.org/Graphics/SVG/1.1/DTD/svg11.dtd">
<svg xmlns:xlink="http://www.w3.org/1999/xlink" width="460.8pt" height="345.6pt" viewBox="0 0 460.8 345.6" xmlns="http://www.w3.org/2000/svg" version="1.1">
 <metadata>
  <rdf:RDF xmlns:dc="http://purl.org/dc/elements/1.1/" xmlns:cc="http://creativecommons.org/ns#" xmlns:rdf="http://www.w3.org/1999/02/22-rdf-syntax-ns#">
   <cc:Work>
    <dc:type rdf:resource="http://purl.org/dc/dcmitype/StillImage"/>
    <dc:date>2022-09-16T18:51:12.125931</dc:date>
    <dc:format>image/svg+xml</dc:format>
    <dc:creator>
     <cc:Agent>
      <dc:title>Matplotlib v3.5.1, https://matplotlib.org/</dc:title>
     </cc:Agent>
    </dc:creator>
   </cc:Work>
  </rdf:RDF>
 </metadata>
 <defs>
  <style type="text/css">*{stroke-linejoin: round; stroke-linecap: butt}</style>
 </defs>
 <g id="figure_1">
  <g id="patch_1">
   <path d="M 0 345.6 
L 460.8 345.6 
L 460.8 0 
L 0 0 
z
" style="fill: #ffffff"/>
  </g>
  <g id="axes_1">
   <g id="patch_2">
    <path d="M 57.6 307.584 
L 414.72 307.584 
L 414.72 41.472 
L 57.6 41.472 
z
" style="fill: #ffffff"/>
   </g>
   <g id="matplotlib.axis_1">
    <g id="xtick_1">
     <g id="line2d_1">
      <defs>
       <path id="m55e4661139" d="M 0 0 
L 0 3.5 
" style="stroke: #000000; stroke-width: 0.8"/>
      </defs>
      <g>
       <use xlink:href="#m55e4661139" x="73.832727" y="307.584" style="stroke: #000000; stroke-width: 0.8"/>
      </g>
     </g>
     <g id="text_1">
      <!-- $\mathdefault{10^{3}}$ -->
      <g transform="translate(65.032727 322.182437)scale(0.1 -0.1)">
       <defs>
        <path id="DejaVuSans-31" d="M 794 531 
L 1825 531 
L 1825 4091 
L 703 3866 
L 703 4441 
L 1819 4666 
L 2450 4666 
L 2450 531 
L 3481 531 
L 3481 0 
L 794 0 
L 794 531 
z
" transform="scale(0.015625)"/>
        <path id="DejaVuSans-30" d="M 2034 4250 
Q 1547 4250 1301 3770 
Q 1056 3291 1056 2328 
Q 1056 1369 1301 889 
Q 1547 409 2034 409 
Q 2525 409 2770 889 
Q 3016 1369 3016 2328 
Q 3016 3291 2770 3770 
Q 2525 4250 2034 4250 
z
M 2034 4750 
Q 2819 4750 3233 4129 
Q 3647 3509 3647 2328 
Q 3647 1150 3233 529 
Q 2819 -91 2034 -91 
Q 1250 -91 836 529 
Q 422 1150 422 2328 
Q 422 3509 836 4129 
Q 1250 4750 2034 4750 
z
" transform="scale(0.015625)"/>
        <path id="DejaVuSans-33" d="M 2597 2516 
Q 3050 2419 3304 2112 
Q 3559 1806 3559 1356 
Q 3559 666 3084 287 
Q 2609 -91 1734 -91 
Q 1441 -91 1130 -33 
Q 819 25 488 141 
L 488 750 
Q 750 597 1062 519 
Q 1375 441 1716 441 
Q 2309 441 2620 675 
Q 2931 909 2931 1356 
Q 2931 1769 2642 2001 
Q 2353 2234 1838 2234 
L 1294 2234 
L 1294 2753 
L 1863 2753 
Q 2328 2753 2575 2939 
Q 2822 3125 2822 3475 
Q 2822 3834 2567 4026 
Q 2313 4219 1838 4219 
Q 1578 4219 1281 4162 
Q 984 4106 628 3988 
L 628 4550 
Q 988 4650 1302 4700 
Q 1616 4750 1894 4750 
Q 2613 4750 3031 4423 
Q 3450 4097 3450 3541 
Q 3450 3153 3228 2886 
Q 3006 2619 2597 2516 
z
" transform="scale(0.015625)"/>
       </defs>
       <use xlink:href="#DejaVuSans-31" transform="translate(0 0.765625)"/>
       <use xlink:href="#DejaVuSans-30" transform="translate(63.623047 0.765625)"/>
       <use xlink:href="#DejaVuSans-33" transform="translate(128.203125 39.046875)scale(0.7)"/>
      </g>
     </g>
    </g>
    <g id="xtick_2">
     <g id="line2d_2">
      <g>
       <use xlink:href="#m55e4661139" x="154.996364" y="307.584" style="stroke: #000000; stroke-width: 0.8"/>
      </g>
     </g>
     <g id="text_2">
      <!-- $\mathdefault{10^{4}}$ -->
      <g transform="translate(146.196364 322.182437)scale(0.1 -0.1)">
       <defs>
        <path id="DejaVuSans-34" d="M 2419 4116 
L 825 1625 
L 2419 1625 
L 2419 4116 
z
M 2253 4666 
L 3047 4666 
L 3047 1625 
L 3713 1625 
L 3713 1100 
L 3047 1100 
L 3047 0 
L 2419 0 
L 2419 1100 
L 313 1100 
L 313 1709 
L 2253 4666 
z
" transform="scale(0.015625)"/>
       </defs>
       <use xlink:href="#DejaVuSans-31" transform="translate(0 0.684375)"/>
       <use xlink:href="#DejaVuSans-30" transform="translate(63.623047 0.684375)"/>
       <use xlink:href="#DejaVuSans-34" transform="translate(128.203125 38.965625)scale(0.7)"/>
      </g>
     </g>
    </g>
    <g id="xtick_3">
     <g id="line2d_3">
      <g>
       <use xlink:href="#m55e4661139" x="236.16" y="307.584" style="stroke: #000000; stroke-width: 0.8"/>
      </g>
     </g>
     <g id="text_3">
      <!-- $\mathdefault{10^{5}}$ -->
      <g transform="translate(227.36 322.182437)scale(0.1 -0.1)">
       <defs>
        <path id="DejaVuSans-35" d="M 691 4666 
L 3169 4666 
L 3169 4134 
L 1269 4134 
L 1269 2991 
Q 1406 3038 1543 3061 
Q 1681 3084 1819 3084 
Q 2600 3084 3056 2656 
Q 3513 2228 3513 1497 
Q 3513 744 3044 326 
Q 2575 -91 1722 -91 
Q 1428 -91 1123 -41 
Q 819 9 494 109 
L 494 744 
Q 775 591 1075 516 
Q 1375 441 1709 441 
Q 2250 441 2565 725 
Q 2881 1009 2881 1497 
Q 2881 1984 2565 2268 
Q 2250 2553 1709 2553 
Q 1456 2553 1204 2497 
Q 953 2441 691 2322 
L 691 4666 
z
" transform="scale(0.015625)"/>
       </defs>
       <use xlink:href="#DejaVuSans-31" transform="translate(0 0.684375)"/>
       <use xlink:href="#DejaVuSans-30" transform="translate(63.623047 0.684375)"/>
       <use xlink:href="#DejaVuSans-35" transform="translate(128.203125 38.965625)scale(0.7)"/>
      </g>
     </g>
    </g>
    <g id="xtick_4">
     <g id="line2d_4">
      <g>
       <use xlink:href="#m55e4661139" x="317.323636" y="307.584" style="stroke: #000000; stroke-width: 0.8"/>
      </g>
     </g>
     <g id="text_4">
      <!-- $\mathdefault{10^{6}}$ -->
      <g transform="translate(308.523636 322.182437)scale(0.1 -0.1)">
       <defs>
        <path id="DejaVuSans-36" d="M 2113 2584 
Q 1688 2584 1439 2293 
Q 1191 2003 1191 1497 
Q 1191 994 1439 701 
Q 1688 409 2113 409 
Q 2538 409 2786 701 
Q 3034 994 3034 1497 
Q 3034 2003 2786 2293 
Q 2538 2584 2113 2584 
z
M 3366 4563 
L 3366 3988 
Q 3128 4100 2886 4159 
Q 2644 4219 2406 4219 
Q 1781 4219 1451 3797 
Q 1122 3375 1075 2522 
Q 1259 2794 1537 2939 
Q 1816 3084 2150 3084 
Q 2853 3084 3261 2657 
Q 3669 2231 3669 1497 
Q 3669 778 3244 343 
Q 2819 -91 2113 -91 
Q 1303 -91 875 529 
Q 447 1150 447 2328 
Q 447 3434 972 4092 
Q 1497 4750 2381 4750 
Q 2619 4750 2861 4703 
Q 3103 4656 3366 4563 
z
" transform="scale(0.015625)"/>
       </defs>
       <use xlink:href="#DejaVuSans-31" transform="translate(0 0.765625)"/>
       <use xlink:href="#DejaVuSans-30" transform="translate(63.623047 0.765625)"/>
       <use xlink:href="#DejaVuSans-36" transform="translate(128.203125 39.046875)scale(0.7)"/>
      </g>
     </g>
    </g>
    <g id="xtick_5">
     <g id="line2d_5">
      <g>
       <use xlink:href="#m55e4661139" x="398.487273" y="307.584" style="stroke: #000000; stroke-width: 0.8"/>
      </g>
     </g>
     <g id="text_5">
      <!-- $\mathdefault{10^{7}}$ -->
      <g transform="translate(389.687273 322.182437)scale(0.1 -0.1)">
       <defs>
        <path id="DejaVuSans-37" d="M 525 4666 
L 3525 4666 
L 3525 4397 
L 1831 0 
L 1172 0 
L 2766 4134 
L 525 4134 
L 525 4666 
z
" transform="scale(0.015625)"/>
       </defs>
       <use xlink:href="#DejaVuSans-31" transform="translate(0 0.684375)"/>
       <use xlink:href="#DejaVuSans-30" transform="translate(63.623047 0.684375)"/>
       <use xlink:href="#DejaVuSans-37" transform="translate(128.203125 38.965625)scale(0.7)"/>
      </g>
     </g>
    </g>
    <g id="xtick_6">
     <g id="line2d_6">
      <defs>
       <path id="mdedf177465" d="M 0 0 
L 0 2 
" style="stroke: #000000; stroke-width: 0.6"/>
      </defs>
      <g>
       <use xlink:href="#mdedf177465" x="61.260321" y="307.584" style="stroke: #000000; stroke-width: 0.6"/>
      </g>
     </g>
    </g>
    <g id="xtick_7">
     <g id="line2d_7">
      <g>
       <use xlink:href="#mdedf177465" x="65.967158" y="307.584" style="stroke: #000000; stroke-width: 0.6"/>
      </g>
     </g>
    </g>
    <g id="xtick_8">
     <g id="line2d_8">
      <g>
       <use xlink:href="#mdedf177465" x="70.118883" y="307.584" style="stroke: #000000; stroke-width: 0.6"/>
      </g>
     </g>
    </g>
    <g id="xtick_9">
     <g id="line2d_9">
      <g>
       <use xlink:href="#mdedf177465" x="98.265416" y="307.584" style="stroke: #000000; stroke-width: 0.6"/>
      </g>
     </g>
    </g>
    <g id="xtick_10">
     <g id="line2d_10">
      <g>
       <use xlink:href="#mdedf177465" x="112.557623" y="307.584" style="stroke: #000000; stroke-width: 0.6"/>
      </g>
     </g>
    </g>
    <g id="xtick_11">
     <g id="line2d_11">
      <g>
       <use xlink:href="#mdedf177465" x="122.698105" y="307.584" style="stroke: #000000; stroke-width: 0.6"/>
      </g>
     </g>
    </g>
    <g id="xtick_12">
     <g id="line2d_12">
      <g>
       <use xlink:href="#mdedf177465" x="130.563675" y="307.584" style="stroke: #000000; stroke-width: 0.6"/>
      </g>
     </g>
    </g>
    <g id="xtick_13">
     <g id="line2d_13">
      <g>
       <use xlink:href="#mdedf177465" x="136.990312" y="307.584" style="stroke: #000000; stroke-width: 0.6"/>
      </g>
     </g>
    </g>
    <g id="xtick_14">
     <g id="line2d_14">
      <g>
       <use xlink:href="#mdedf177465" x="142.423957" y="307.584" style="stroke: #000000; stroke-width: 0.6"/>
      </g>
     </g>
    </g>
    <g id="xtick_15">
     <g id="line2d_15">
      <g>
       <use xlink:href="#mdedf177465" x="147.130795" y="307.584" style="stroke: #000000; stroke-width: 0.6"/>
      </g>
     </g>
    </g>
    <g id="xtick_16">
     <g id="line2d_16">
      <g>
       <use xlink:href="#mdedf177465" x="151.282519" y="307.584" style="stroke: #000000; stroke-width: 0.6"/>
      </g>
     </g>
    </g>
    <g id="xtick_17">
     <g id="line2d_17">
      <g>
       <use xlink:href="#mdedf177465" x="179.429053" y="307.584" style="stroke: #000000; stroke-width: 0.6"/>
      </g>
     </g>
    </g>
    <g id="xtick_18">
     <g id="line2d_18">
      <g>
       <use xlink:href="#mdedf177465" x="193.72126" y="307.584" style="stroke: #000000; stroke-width: 0.6"/>
      </g>
     </g>
    </g>
    <g id="xtick_19">
     <g id="line2d_19">
      <g>
       <use xlink:href="#mdedf177465" x="203.861742" y="307.584" style="stroke: #000000; stroke-width: 0.6"/>
      </g>
     </g>
    </g>
    <g id="xtick_20">
     <g id="line2d_20">
      <g>
       <use xlink:href="#mdedf177465" x="211.727311" y="307.584" style="stroke: #000000; stroke-width: 0.6"/>
      </g>
     </g>
    </g>
    <g id="xtick_21">
     <g id="line2d_21">
      <g>
       <use xlink:href="#mdedf177465" x="218.153949" y="307.584" style="stroke: #000000; stroke-width: 0.6"/>
      </g>
     </g>
    </g>
    <g id="xtick_22">
     <g id="line2d_22">
      <g>
       <use xlink:href="#mdedf177465" x="223.587594" y="307.584" style="stroke: #000000; stroke-width: 0.6"/>
      </g>
     </g>
    </g>
    <g id="xtick_23">
     <g id="line2d_23">
      <g>
       <use xlink:href="#mdedf177465" x="228.294431" y="307.584" style="stroke: #000000; stroke-width: 0.6"/>
      </g>
     </g>
    </g>
    <g id="xtick_24">
     <g id="line2d_24">
      <g>
       <use xlink:href="#mdedf177465" x="232.446156" y="307.584" style="stroke: #000000; stroke-width: 0.6"/>
      </g>
     </g>
    </g>
    <g id="xtick_25">
     <g id="line2d_25">
      <g>
       <use xlink:href="#mdedf177465" x="260.592689" y="307.584" style="stroke: #000000; stroke-width: 0.6"/>
      </g>
     </g>
    </g>
    <g id="xtick_26">
     <g id="line2d_26">
      <g>
       <use xlink:href="#mdedf177465" x="274.884896" y="307.584" style="stroke: #000000; stroke-width: 0.6"/>
      </g>
     </g>
    </g>
    <g id="xtick_27">
     <g id="line2d_27">
      <g>
       <use xlink:href="#mdedf177465" x="285.025378" y="307.584" style="stroke: #000000; stroke-width: 0.6"/>
      </g>
     </g>
    </g>
    <g id="xtick_28">
     <g id="line2d_28">
      <g>
       <use xlink:href="#mdedf177465" x="292.890947" y="307.584" style="stroke: #000000; stroke-width: 0.6"/>
      </g>
     </g>
    </g>
    <g id="xtick_29">
     <g id="line2d_29">
      <g>
       <use xlink:href="#mdedf177465" x="299.317585" y="307.584" style="stroke: #000000; stroke-width: 0.6"/>
      </g>
     </g>
    </g>
    <g id="xtick_30">
     <g id="line2d_30">
      <g>
       <use xlink:href="#mdedf177465" x="304.75123" y="307.584" style="stroke: #000000; stroke-width: 0.6"/>
      </g>
     </g>
    </g>
    <g id="xtick_31">
     <g id="line2d_31">
      <g>
       <use xlink:href="#mdedf177465" x="309.458067" y="307.584" style="stroke: #000000; stroke-width: 0.6"/>
      </g>
     </g>
    </g>
    <g id="xtick_32">
     <g id="line2d_32">
      <g>
       <use xlink:href="#mdedf177465" x="313.609792" y="307.584" style="stroke: #000000; stroke-width: 0.6"/>
      </g>
     </g>
    </g>
    <g id="xtick_33">
     <g id="line2d_33">
      <g>
       <use xlink:href="#mdedf177465" x="341.756325" y="307.584" style="stroke: #000000; stroke-width: 0.6"/>
      </g>
     </g>
    </g>
    <g id="xtick_34">
     <g id="line2d_34">
      <g>
       <use xlink:href="#mdedf177465" x="356.048532" y="307.584" style="stroke: #000000; stroke-width: 0.6"/>
      </g>
     </g>
    </g>
    <g id="xtick_35">
     <g id="line2d_35">
      <g>
       <use xlink:href="#mdedf177465" x="366.189015" y="307.584" style="stroke: #000000; stroke-width: 0.6"/>
      </g>
     </g>
    </g>
    <g id="xtick_36">
     <g id="line2d_36">
      <g>
       <use xlink:href="#mdedf177465" x="374.054584" y="307.584" style="stroke: #000000; stroke-width: 0.6"/>
      </g>
     </g>
    </g>
    <g id="xtick_37">
     <g id="line2d_37">
      <g>
       <use xlink:href="#mdedf177465" x="380.481221" y="307.584" style="stroke: #000000; stroke-width: 0.6"/>
      </g>
     </g>
    </g>
    <g id="xtick_38">
     <g id="line2d_38">
      <g>
       <use xlink:href="#mdedf177465" x="385.914866" y="307.584" style="stroke: #000000; stroke-width: 0.6"/>
      </g>
     </g>
    </g>
    <g id="xtick_39">
     <g id="line2d_39">
      <g>
       <use xlink:href="#mdedf177465" x="390.621704" y="307.584" style="stroke: #000000; stroke-width: 0.6"/>
      </g>
     </g>
    </g>
    <g id="xtick_40">
     <g id="line2d_40">
      <g>
       <use xlink:href="#mdedf177465" x="394.773428" y="307.584" style="stroke: #000000; stroke-width: 0.6"/>
      </g>
     </g>
    </g>
    <g id="text_6">
     <!-- Frequency [Hz] -->
     <g transform="translate(198.455312 335.860562)scale(0.1 -0.1)">
      <defs>
       <path id="DejaVuSans-46" d="M 628 4666 
L 3309 4666 
L 3309 4134 
L 1259 4134 
L 1259 2759 
L 3109 2759 
L 3109 2228 
L 1259 2228 
L 1259 0 
L 628 0 
L 628 4666 
z
" transform="scale(0.015625)"/>
       <path id="DejaVuSans-72" d="M 2631 2963 
Q 2534 3019 2420 3045 
Q 2306 3072 2169 3072 
Q 1681 3072 1420 2755 
Q 1159 2438 1159 1844 
L 1159 0 
L 581 0 
L 581 3500 
L 1159 3500 
L 1159 2956 
Q 1341 3275 1631 3429 
Q 1922 3584 2338 3584 
Q 2397 3584 2469 3576 
Q 2541 3569 2628 3553 
L 2631 2963 
z
" transform="scale(0.015625)"/>
       <path id="DejaVuSans-65" d="M 3597 1894 
L 3597 1613 
L 953 1613 
Q 991 1019 1311 708 
Q 1631 397 2203 397 
Q 2534 397 2845 478 
Q 3156 559 3463 722 
L 3463 178 
Q 3153 47 2828 -22 
Q 2503 -91 2169 -91 
Q 1331 -91 842 396 
Q 353 884 353 1716 
Q 353 2575 817 3079 
Q 1281 3584 2069 3584 
Q 2775 3584 3186 3129 
Q 3597 2675 3597 1894 
z
M 3022 2063 
Q 3016 2534 2758 2815 
Q 2500 3097 2075 3097 
Q 1594 3097 1305 2825 
Q 1016 2553 972 2059 
L 3022 2063 
z
" transform="scale(0.015625)"/>
       <path id="DejaVuSans-71" d="M 947 1747 
Q 947 1113 1208 752 
Q 1469 391 1925 391 
Q 2381 391 2643 752 
Q 2906 1113 2906 1747 
Q 2906 2381 2643 2742 
Q 2381 3103 1925 3103 
Q 1469 3103 1208 2742 
Q 947 2381 947 1747 
z
M 2906 525 
Q 2725 213 2448 61 
Q 2172 -91 1784 -91 
Q 1150 -91 751 415 
Q 353 922 353 1747 
Q 353 2572 751 3078 
Q 1150 3584 1784 3584 
Q 2172 3584 2448 3432 
Q 2725 3281 2906 2969 
L 2906 3500 
L 3481 3500 
L 3481 -1331 
L 2906 -1331 
L 2906 525 
z
" transform="scale(0.015625)"/>
       <path id="DejaVuSans-75" d="M 544 1381 
L 544 3500 
L 1119 3500 
L 1119 1403 
Q 1119 906 1312 657 
Q 1506 409 1894 409 
Q 2359 409 2629 706 
Q 2900 1003 2900 1516 
L 2900 3500 
L 3475 3500 
L 3475 0 
L 2900 0 
L 2900 538 
Q 2691 219 2414 64 
Q 2138 -91 1772 -91 
Q 1169 -91 856 284 
Q 544 659 544 1381 
z
M 1991 3584 
L 1991 3584 
z
" transform="scale(0.015625)"/>
       <path id="DejaVuSans-6e" d="M 3513 2113 
L 3513 0 
L 2938 0 
L 2938 2094 
Q 2938 2591 2744 2837 
Q 2550 3084 2163 3084 
Q 1697 3084 1428 2787 
Q 1159 2491 1159 1978 
L 1159 0 
L 581 0 
L 581 3500 
L 1159 3500 
L 1159 2956 
Q 1366 3272 1645 3428 
Q 1925 3584 2291 3584 
Q 2894 3584 3203 3211 
Q 3513 2838 3513 2113 
z
" transform="scale(0.015625)"/>
       <path id="DejaVuSans-63" d="M 3122 3366 
L 3122 2828 
Q 2878 2963 2633 3030 
Q 2388 3097 2138 3097 
Q 1578 3097 1268 2742 
Q 959 2388 959 1747 
Q 959 1106 1268 751 
Q 1578 397 2138 397 
Q 2388 397 2633 464 
Q 2878 531 3122 666 
L 3122 134 
Q 2881 22 2623 -34 
Q 2366 -91 2075 -91 
Q 1284 -91 818 406 
Q 353 903 353 1747 
Q 353 2603 823 3093 
Q 1294 3584 2113 3584 
Q 2378 3584 2631 3529 
Q 2884 3475 3122 3366 
z
" transform="scale(0.015625)"/>
       <path id="DejaVuSans-79" d="M 2059 -325 
Q 1816 -950 1584 -1140 
Q 1353 -1331 966 -1331 
L 506 -1331 
L 506 -850 
L 844 -850 
Q 1081 -850 1212 -737 
Q 1344 -625 1503 -206 
L 1606 56 
L 191 3500 
L 800 3500 
L 1894 763 
L 2988 3500 
L 3597 3500 
L 2059 -325 
z
" transform="scale(0.015625)"/>
       <path id="DejaVuSans-20" transform="scale(0.015625)"/>
       <path id="DejaVuSans-5b" d="M 550 4863 
L 1875 4863 
L 1875 4416 
L 1125 4416 
L 1125 -397 
L 1875 -397 
L 1875 -844 
L 550 -844 
L 550 4863 
z
" transform="scale(0.015625)"/>
       <path id="DejaVuSans-48" d="M 628 4666 
L 1259 4666 
L 1259 2753 
L 3553 2753 
L 3553 4666 
L 4184 4666 
L 4184 0 
L 3553 0 
L 3553 2222 
L 1259 2222 
L 1259 0 
L 628 0 
L 628 4666 
z
" transform="scale(0.015625)"/>
       <path id="DejaVuSans-7a" d="M 353 3500 
L 3084 3500 
L 3084 2975 
L 922 459 
L 3084 459 
L 3084 0 
L 275 0 
L 275 525 
L 2438 3041 
L 353 3041 
L 353 3500 
z
" transform="scale(0.015625)"/>
       <path id="DejaVuSans-5d" d="M 1947 4863 
L 1947 -844 
L 622 -844 
L 622 -397 
L 1369 -397 
L 1369 4416 
L 622 4416 
L 622 4863 
L 1947 4863 
z
" transform="scale(0.015625)"/>
      </defs>
      <use xlink:href="#DejaVuSans-46"/>
      <use xlink:href="#DejaVuSans-72" x="50.269531"/>
      <use xlink:href="#DejaVuSans-65" x="89.132812"/>
      <use xlink:href="#DejaVuSans-71" x="150.65625"/>
      <use xlink:href="#DejaVuSans-75" x="214.132812"/>
      <use xlink:href="#DejaVuSans-65" x="277.511719"/>
      <use xlink:href="#DejaVuSans-6e" x="339.035156"/>
      <use xlink:href="#DejaVuSans-63" x="402.414062"/>
      <use xlink:href="#DejaVuSans-79" x="457.394531"/>
      <use xlink:href="#DejaVuSans-20" x="516.574219"/>
      <use xlink:href="#DejaVuSans-5b" x="548.361328"/>
      <use xlink:href="#DejaVuSans-48" x="587.375"/>
      <use xlink:href="#DejaVuSans-7a" x="662.570312"/>
      <use xlink:href="#DejaVuSans-5d" x="715.060547"/>
     </g>
    </g>
   </g>
   <g id="matplotlib.axis_2">
    <g id="ytick_1">
     <g id="line2d_41">
      <defs>
       <path id="m01658ad6ff" d="M 0 0 
L -3.5 0 
" style="stroke: #000000; stroke-width: 0.8"/>
      </defs>
      <g>
       <use xlink:href="#m01658ad6ff" x="57.6" y="307.584" style="stroke: #000000; stroke-width: 0.8"/>
      </g>
     </g>
     <g id="text_7">
      <!-- −140 -->
      <g transform="translate(23.132812 311.383219)scale(0.1 -0.1)">
       <defs>
        <path id="DejaVuSans-2212" d="M 678 2272 
L 4684 2272 
L 4684 1741 
L 678 1741 
L 678 2272 
z
" transform="scale(0.015625)"/>
       </defs>
       <use xlink:href="#DejaVuSans-2212"/>
       <use xlink:href="#DejaVuSans-31" x="83.789062"/>
       <use xlink:href="#DejaVuSans-34" x="147.412109"/>
       <use xlink:href="#DejaVuSans-30" x="211.035156"/>
      </g>
     </g>
    </g>
    <g id="ytick_2">
     <g id="line2d_42">
      <g>
       <use xlink:href="#m01658ad6ff" x="57.6" y="274.32" style="stroke: #000000; stroke-width: 0.8"/>
      </g>
     </g>
     <g id="text_8">
      <!-- −130 -->
      <g transform="translate(23.132812 278.119219)scale(0.1 -0.1)">
       <use xlink:href="#DejaVuSans-2212"/>
       <use xlink:href="#DejaVuSans-31" x="83.789062"/>
       <use xlink:href="#DejaVuSans-33" x="147.412109"/>
       <use xlink:href="#DejaVuSans-30" x="211.035156"/>
      </g>
     </g>
    </g>
    <g id="ytick_3">
     <g id="line2d_43">
      <g>
       <use xlink:href="#m01658ad6ff" x="57.6" y="241.056" style="stroke: #000000; stroke-width: 0.8"/>
      </g>
     </g>
     <g id="text_9">
      <!-- −120 -->
      <g transform="translate(23.132812 244.855219)scale(0.1 -0.1)">
       <defs>
        <path id="DejaVuSans-32" d="M 1228 531 
L 3431 531 
L 3431 0 
L 469 0 
L 469 531 
Q 828 903 1448 1529 
Q 2069 2156 2228 2338 
Q 2531 2678 2651 2914 
Q 2772 3150 2772 3378 
Q 2772 3750 2511 3984 
Q 2250 4219 1831 4219 
Q 1534 4219 1204 4116 
Q 875 4013 500 3803 
L 500 4441 
Q 881 4594 1212 4672 
Q 1544 4750 1819 4750 
Q 2544 4750 2975 4387 
Q 3406 4025 3406 3419 
Q 3406 3131 3298 2873 
Q 3191 2616 2906 2266 
Q 2828 2175 2409 1742 
Q 1991 1309 1228 531 
z
" transform="scale(0.015625)"/>
       </defs>
       <use xlink:href="#DejaVuSans-2212"/>
       <use xlink:href="#DejaVuSans-31" x="83.789062"/>
       <use xlink:href="#DejaVuSans-32" x="147.412109"/>
       <use xlink:href="#DejaVuSans-30" x="211.035156"/>
      </g>
     </g>
    </g>
    <g id="ytick_4">
     <g id="line2d_44">
      <g>
       <use xlink:href="#m01658ad6ff" x="57.6" y="207.792" style="stroke: #000000; stroke-width: 0.8"/>
      </g>
     </g>
     <g id="text_10">
      <!-- −110 -->
      <g transform="translate(23.132812 211.591219)scale(0.1 -0.1)">
       <use xlink:href="#DejaVuSans-2212"/>
       <use xlink:href="#DejaVuSans-31" x="83.789062"/>
       <use xlink:href="#DejaVuSans-31" x="147.412109"/>
       <use xlink:href="#DejaVuSans-30" x="211.035156"/>
      </g>
     </g>
    </g>
    <g id="ytick_5">
     <g id="line2d_45">
      <g>
       <use xlink:href="#m01658ad6ff" x="57.6" y="174.528" style="stroke: #000000; stroke-width: 0.8"/>
      </g>
     </g>
     <g id="text_11">
      <!-- −100 -->
      <g transform="translate(23.132812 178.327219)scale(0.1 -0.1)">
       <use xlink:href="#DejaVuSans-2212"/>
       <use xlink:href="#DejaVuSans-31" x="83.789062"/>
       <use xlink:href="#DejaVuSans-30" x="147.412109"/>
       <use xlink:href="#DejaVuSans-30" x="211.035156"/>
      </g>
     </g>
    </g>
    <g id="ytick_6">
     <g id="line2d_46">
      <g>
       <use xlink:href="#m01658ad6ff" x="57.6" y="141.264" style="stroke: #000000; stroke-width: 0.8"/>
      </g>
     </g>
     <g id="text_12">
      <!-- −90 -->
      <g transform="translate(29.495313 145.063219)scale(0.1 -0.1)">
       <defs>
        <path id="DejaVuSans-39" d="M 703 97 
L 703 672 
Q 941 559 1184 500 
Q 1428 441 1663 441 
Q 2288 441 2617 861 
Q 2947 1281 2994 2138 
Q 2813 1869 2534 1725 
Q 2256 1581 1919 1581 
Q 1219 1581 811 2004 
Q 403 2428 403 3163 
Q 403 3881 828 4315 
Q 1253 4750 1959 4750 
Q 2769 4750 3195 4129 
Q 3622 3509 3622 2328 
Q 3622 1225 3098 567 
Q 2575 -91 1691 -91 
Q 1453 -91 1209 -44 
Q 966 3 703 97 
z
M 1959 2075 
Q 2384 2075 2632 2365 
Q 2881 2656 2881 3163 
Q 2881 3666 2632 3958 
Q 2384 4250 1959 4250 
Q 1534 4250 1286 3958 
Q 1038 3666 1038 3163 
Q 1038 2656 1286 2365 
Q 1534 2075 1959 2075 
z
" transform="scale(0.015625)"/>
       </defs>
       <use xlink:href="#DejaVuSans-2212"/>
       <use xlink:href="#DejaVuSans-39" x="83.789062"/>
       <use xlink:href="#DejaVuSans-30" x="147.412109"/>
      </g>
     </g>
    </g>
    <g id="ytick_7">
     <g id="line2d_47">
      <g>
       <use xlink:href="#m01658ad6ff" x="57.6" y="108" style="stroke: #000000; stroke-width: 0.8"/>
      </g>
     </g>
     <g id="text_13">
      <!-- −80 -->
      <g transform="translate(29.495313 111.799219)scale(0.1 -0.1)">
       <defs>
        <path id="DejaVuSans-38" d="M 2034 2216 
Q 1584 2216 1326 1975 
Q 1069 1734 1069 1313 
Q 1069 891 1326 650 
Q 1584 409 2034 409 
Q 2484 409 2743 651 
Q 3003 894 3003 1313 
Q 3003 1734 2745 1975 
Q 2488 2216 2034 2216 
z
M 1403 2484 
Q 997 2584 770 2862 
Q 544 3141 544 3541 
Q 544 4100 942 4425 
Q 1341 4750 2034 4750 
Q 2731 4750 3128 4425 
Q 3525 4100 3525 3541 
Q 3525 3141 3298 2862 
Q 3072 2584 2669 2484 
Q 3125 2378 3379 2068 
Q 3634 1759 3634 1313 
Q 3634 634 3220 271 
Q 2806 -91 2034 -91 
Q 1263 -91 848 271 
Q 434 634 434 1313 
Q 434 1759 690 2068 
Q 947 2378 1403 2484 
z
M 1172 3481 
Q 1172 3119 1398 2916 
Q 1625 2713 2034 2713 
Q 2441 2713 2670 2916 
Q 2900 3119 2900 3481 
Q 2900 3844 2670 4047 
Q 2441 4250 2034 4250 
Q 1625 4250 1398 4047 
Q 1172 3844 1172 3481 
z
" transform="scale(0.015625)"/>
       </defs>
       <use xlink:href="#DejaVuSans-2212"/>
       <use xlink:href="#DejaVuSans-38" x="83.789062"/>
       <use xlink:href="#DejaVuSans-30" x="147.412109"/>
      </g>
     </g>
    </g>
    <g id="ytick_8">
     <g id="line2d_48">
      <g>
       <use xlink:href="#m01658ad6ff" x="57.6" y="74.736" style="stroke: #000000; stroke-width: 0.8"/>
      </g>
     </g>
     <g id="text_14">
      <!-- −70 -->
      <g transform="translate(29.495313 78.535219)scale(0.1 -0.1)">
       <use xlink:href="#DejaVuSans-2212"/>
       <use xlink:href="#DejaVuSans-37" x="83.789062"/>
       <use xlink:href="#DejaVuSans-30" x="147.412109"/>
      </g>
     </g>
    </g>
    <g id="ytick_9">
     <g id="line2d_49">
      <g>
       <use xlink:href="#m01658ad6ff" x="57.6" y="41.472" style="stroke: #000000; stroke-width: 0.8"/>
      </g>
     </g>
     <g id="text_15">
      <!-- −60 -->
      <g transform="translate(29.495313 45.271219)scale(0.1 -0.1)">
       <use xlink:href="#DejaVuSans-2212"/>
       <use xlink:href="#DejaVuSans-36" x="83.789062"/>
       <use xlink:href="#DejaVuSans-30" x="147.412109"/>
      </g>
     </g>
    </g>
    <g id="text_16">
     <!-- Phase noise [dBc/Hz] -->
     <g transform="translate(17.053125 227.257688)rotate(-90)scale(0.1 -0.1)">
      <defs>
       <path id="DejaVuSans-50" d="M 1259 4147 
L 1259 2394 
L 2053 2394 
Q 2494 2394 2734 2622 
Q 2975 2850 2975 3272 
Q 2975 3691 2734 3919 
Q 2494 4147 2053 4147 
L 1259 4147 
z
M 628 4666 
L 2053 4666 
Q 2838 4666 3239 4311 
Q 3641 3956 3641 3272 
Q 3641 2581 3239 2228 
Q 2838 1875 2053 1875 
L 1259 1875 
L 1259 0 
L 628 0 
L 628 4666 
z
" transform="scale(0.015625)"/>
       <path id="DejaVuSans-68" d="M 3513 2113 
L 3513 0 
L 2938 0 
L 2938 2094 
Q 2938 2591 2744 2837 
Q 2550 3084 2163 3084 
Q 1697 3084 1428 2787 
Q 1159 2491 1159 1978 
L 1159 0 
L 581 0 
L 581 4863 
L 1159 4863 
L 1159 2956 
Q 1366 3272 1645 3428 
Q 1925 3584 2291 3584 
Q 2894 3584 3203 3211 
Q 3513 2838 3513 2113 
z
" transform="scale(0.015625)"/>
       <path id="DejaVuSans-61" d="M 2194 1759 
Q 1497 1759 1228 1600 
Q 959 1441 959 1056 
Q 959 750 1161 570 
Q 1363 391 1709 391 
Q 2188 391 2477 730 
Q 2766 1069 2766 1631 
L 2766 1759 
L 2194 1759 
z
M 3341 1997 
L 3341 0 
L 2766 0 
L 2766 531 
Q 2569 213 2275 61 
Q 1981 -91 1556 -91 
Q 1019 -91 701 211 
Q 384 513 384 1019 
Q 384 1609 779 1909 
Q 1175 2209 1959 2209 
L 2766 2209 
L 2766 2266 
Q 2766 2663 2505 2880 
Q 2244 3097 1772 3097 
Q 1472 3097 1187 3025 
Q 903 2953 641 2809 
L 641 3341 
Q 956 3463 1253 3523 
Q 1550 3584 1831 3584 
Q 2591 3584 2966 3190 
Q 3341 2797 3341 1997 
z
" transform="scale(0.015625)"/>
       <path id="DejaVuSans-73" d="M 2834 3397 
L 2834 2853 
Q 2591 2978 2328 3040 
Q 2066 3103 1784 3103 
Q 1356 3103 1142 2972 
Q 928 2841 928 2578 
Q 928 2378 1081 2264 
Q 1234 2150 1697 2047 
L 1894 2003 
Q 2506 1872 2764 1633 
Q 3022 1394 3022 966 
Q 3022 478 2636 193 
Q 2250 -91 1575 -91 
Q 1294 -91 989 -36 
Q 684 19 347 128 
L 347 722 
Q 666 556 975 473 
Q 1284 391 1588 391 
Q 1994 391 2212 530 
Q 2431 669 2431 922 
Q 2431 1156 2273 1281 
Q 2116 1406 1581 1522 
L 1381 1569 
Q 847 1681 609 1914 
Q 372 2147 372 2553 
Q 372 3047 722 3315 
Q 1072 3584 1716 3584 
Q 2034 3584 2315 3537 
Q 2597 3491 2834 3397 
z
" transform="scale(0.015625)"/>
       <path id="DejaVuSans-6f" d="M 1959 3097 
Q 1497 3097 1228 2736 
Q 959 2375 959 1747 
Q 959 1119 1226 758 
Q 1494 397 1959 397 
Q 2419 397 2687 759 
Q 2956 1122 2956 1747 
Q 2956 2369 2687 2733 
Q 2419 3097 1959 3097 
z
M 1959 3584 
Q 2709 3584 3137 3096 
Q 3566 2609 3566 1747 
Q 3566 888 3137 398 
Q 2709 -91 1959 -91 
Q 1206 -91 779 398 
Q 353 888 353 1747 
Q 353 2609 779 3096 
Q 1206 3584 1959 3584 
z
" transform="scale(0.015625)"/>
       <path id="DejaVuSans-69" d="M 603 3500 
L 1178 3500 
L 1178 0 
L 603 0 
L 603 3500 
z
M 603 4863 
L 1178 4863 
L 1178 4134 
L 603 4134 
L 603 4863 
z
" transform="scale(0.015625)"/>
       <path id="DejaVuSans-64" d="M 2906 2969 
L 2906 4863 
L 3481 4863 
L 3481 0 
L 2906 0 
L 2906 525 
Q 2725 213 2448 61 
Q 2172 -91 1784 -91 
Q 1150 -91 751 415 
Q 353 922 353 1747 
Q 353 2572 751 3078 
Q 1150 3584 1784 3584 
Q 2172 3584 2448 3432 
Q 2725 3281 2906 2969 
z
M 947 1747 
Q 947 1113 1208 752 
Q 1469 391 1925 391 
Q 2381 391 2643 752 
Q 2906 1113 2906 1747 
Q 2906 2381 2643 2742 
Q 2381 3103 1925 3103 
Q 1469 3103 1208 2742 
Q 947 2381 947 1747 
z
" transform="scale(0.015625)"/>
       <path id="DejaVuSans-42" d="M 1259 2228 
L 1259 519 
L 2272 519 
Q 2781 519 3026 730 
Q 3272 941 3272 1375 
Q 3272 1813 3026 2020 
Q 2781 2228 2272 2228 
L 1259 2228 
z
M 1259 4147 
L 1259 2741 
L 2194 2741 
Q 2656 2741 2882 2914 
Q 3109 3088 3109 3444 
Q 3109 3797 2882 3972 
Q 2656 4147 2194 4147 
L 1259 4147 
z
M 628 4666 
L 2241 4666 
Q 2963 4666 3353 4366 
Q 3744 4066 3744 3513 
Q 3744 3084 3544 2831 
Q 3344 2578 2956 2516 
Q 3422 2416 3680 2098 
Q 3938 1781 3938 1306 
Q 3938 681 3513 340 
Q 3088 0 2303 0 
L 628 0 
L 628 4666 
z
" transform="scale(0.015625)"/>
       <path id="DejaVuSans-2f" d="M 1625 4666 
L 2156 4666 
L 531 -594 
L 0 -594 
L 1625 4666 
z
" transform="scale(0.015625)"/>
      </defs>
      <use xlink:href="#DejaVuSans-50"/>
      <use xlink:href="#DejaVuSans-68" x="60.302734"/>
      <use xlink:href="#DejaVuSans-61" x="123.681641"/>
      <use xlink:href="#DejaVuSans-73" x="184.960938"/>
      <use xlink:href="#DejaVuSans-65" x="237.060547"/>
      <use xlink:href="#DejaVuSans-20" x="298.583984"/>
      <use xlink:href="#DejaVuSans-6e" x="330.371094"/>
      <use xlink:href="#DejaVuSans-6f" x="393.75"/>
      <use xlink:href="#DejaVuSans-69" x="454.931641"/>
      <use xlink:href="#DejaVuSans-73" x="482.714844"/>
      <use xlink:href="#DejaVuSans-65" x="534.814453"/>
      <use xlink:href="#DejaVuSans-20" x="596.337891"/>
      <use xlink:href="#DejaVuSans-5b" x="628.125"/>
      <use xlink:href="#DejaVuSans-64" x="667.138672"/>
      <use xlink:href="#DejaVuSans-42" x="730.615234"/>
      <use xlink:href="#DejaVuSans-63" x="799.21875"/>
      <use xlink:href="#DejaVuSans-2f" x="854.199219"/>
      <use xlink:href="#DejaVuSans-48" x="887.890625"/>
      <use xlink:href="#DejaVuSans-7a" x="963.085938"/>
      <use xlink:href="#DejaVuSans-5d" x="1015.576172"/>
     </g>
    </g>
   </g>
   <g id="line2d_50">
    <path d="M 398.487273 265.502379 
L 398.133009 264.3459 
L 397.775149 264.060939 
L 397.413619 262.626152 
L 397.048342 261.889908 
L 396.67924 262.120539 
L 396.306232 263.059692 
L 395.929234 262.817974 
L 395.548161 263.118459 
L 394.773428 262.690462 
L 394.379582 262.600649 
L 393.981285 262.010768 
L 393.578435 260.78887 
L 393.170929 261.66704 
L 392.758656 262.23031 
L 392.341504 264.950196 
L 391.919356 264.424625 
L 391.492092 264.989004 
L 391.059584 263.61631 
L 390.621704 264.239456 
L 390.178315 262.529686 
L 389.729278 263.335784 
L 389.274447 261.283395 
L 388.81367 262.046249 
L 388.346791 262.065099 
L 387.873644 262.881176 
L 386.907859 260.658032 
L 386.414859 260.533846 
L 385.914866 260.919708 
L 385.407679 260.968496 
L 383.840802 262.297947 
L 382.756135 260.721233 
L 382.201022 259.490465 
L 381.637027 259.289772 
L 381.063862 259.574734 
L 380.481221 261.231281 
L 379.888789 261.641537 
L 378.673188 259.817561 
L 378.049297 259.932876 
L 377.414164 261.250131 
L 376.767377 260.809937 
L 376.1085 260.16018 
L 375.437071 260.193444 
L 374.752605 260.414096 
L 374.054584 260.842092 
L 373.34246 260.838766 
L 372.615652 261.005086 
L 371.873543 260.200097 
L 371.115472 259.194416 
L 370.340739 259.45831 
L 369.548595 259.107929 
L 368.73824 259.481595 
L 367.908815 257.839462 
L 367.059402 255.676193 
L 366.189015 252.294353 
L 365.296589 247.766014 
L 364.380981 247.509881 
L 363.440954 250.307384 
L 362.47517 254.969888 
L 361.482177 257.29615 
L 360.460398 258.797465 
L 359.408113 258.41382 
L 358.323446 257.527889 
L 357.204338 255.687281 
L 356.048532 254.63503 
L 354.853539 255.30031 
L 353.616608 254.880075 
L 352.334688 256.424633 
L 351.004382 254.863443 
L 349.621895 254.04404 
L 348.182963 251.908491 
L 346.682783 252.109184 
L 345.115906 251.573633 
L 343.476126 250.740924 
L 341.756325 249.214107 
L 339.948292 248.515563 
L 338.042481 248.474537 
L 336.027709 247.403436 
L 333.890756 244.589302 
L 329.183919 239.68508 
L 326.571693 238.830195 
L 323.750274 236.808852 
L 323.157841 235.33304 
L 322.127275 236.897556 
L 322.096504 237.081617 
L 322.034879 237.066094 
L 321.849358 235.17559 
L 321.7873 235.28647 
L 321.600468 236.516129 
L 321.569233 236.434078 
L 321.475361 235.941771 
L 321.349808 235.681203 
L 321.192236 236.534979 
L 321.160637 236.449601 
L 320.683217 234.114468 
L 320.425925 234.626734 
L 320.264158 234.642257 
L 320.16674 234.589035 
L 319.872862 236.153552 
L 319.807221 236.100329 
L 319.510317 234.067899 
L 319.377552 232.318212 
L 319.210891 230.903384 
L 319.177463 230.904492 
L 318.908899 231.988899 
L 318.841437 231.96007 
L 318.638272 231.815926 
L 318.46807 231.013155 
L 318.297041 230.092851 
L 318.262736 230.089524 
L 318.159618 229.573932 
L 318.090705 229.764646 
L 317.848444 230.301305 
L 317.778919 230.212601 
L 317.604506 229.527363 
L 317.534498 229.658201 
L 317.394064 230.38003 
L 317.323636 229.786822 
L 317.28837 231.134014 
L 316.575526 234.285224 
L 315.847968 230.677188 
L 315.478479 230.771436 
L 314.34619 232.178504 
L 313.96053 230.829094 
L 313.570605 230.8047 
L 313.176317 229.253489 
L 312.77757 230.632836 
L 312.37426 231.252656 
L 311.966282 228.953004 
L 311.553526 230.652795 
L 311.13588 230.223689 
L 310.713226 230.112809 
L 310.285442 227.67234 
L 309.852404 226.584608 
L 309.413979 227.951758 
L 308.970032 226.589043 
L 308.520422 225.920436 
L 307.136124 221.283435 
L 306.662341 220.480664 
L 306.182103 221.884404 
L 305.695232 220.627025 
L 305.201542 221.700344 
L 304.700838 221.357724 
L 304.19292 223.227161 
L 303.677576 222.270267 
L 303.154585 222.84906 
L 301.537379 219.802078 
L 300.981391 219.650172 
L 300.416492 221.441993 
L 299.842393 220.245598 
L 299.258788 220.945251 
L 298.665358 218.730977 
L 298.061766 219.19002 
L 297.447657 217.493556 
L 296.82266 217.040057 
L 296.186381 215.077481 
L 295.538405 215.43008 
L 294.878293 212.848793 
L 294.205583 212.629251 
L 293.519785 209.870556 
L 292.820379 209.214147 
L 292.106814 207.279291 
L 290.634829 209.644361 
L 289.875124 210.372843 
L 289.098685 209.023433 
L 288.304757 208.350392 
L 287.492534 207.478875 
L 286.661153 206.752611 
L 285.809688 205.001816 
L 284.937146 202.938339 
L 284.042455 202.809718 
L 283.124462 202.12448 
L 282.181922 203.615816 
L 281.213484 203.24215 
L 280.217686 204.513944 
L 279.192936 204.444089 
L 278.1375 201.668763 
L 277.049484 200.367032 
L 274.767203 193.197531 
L 273.568145 189.48416 
L 272.326858 188.703564 
L 271.040258 188.09816 
L 269.704912 185.595598 
L 268.31698 184.492342 
L 266.87215 184.3737 
L 265.365556 184.394768 
L 263.791682 181.397681 
L 262.144237 179.743352 
L 260.416002 178.633443 
L 260.238426 178.693318 
L 260.05995 179.499416 
L 259.880566 179.740025 
L 259.700264 180.211265 
L 259.33687 179.899692 
L 258.96969 178.310782 
L 258.784656 178.207664 
L 258.598645 178.371766 
L 258.411648 178.077934 
L 258.223653 177.27738 
L 257.844629 176.8893 
L 257.653577 177.233028 
L 257.461485 177.886112 
L 257.26834 178.086804 
L 257.07413 178.889576 
L 256.878845 178.378419 
L 256.682471 177.113278 
L 256.286412 173.104966 
L 256.086701 172.798937 
L 255.885852 173.932131 
L 255.480687 174.355692 
L 255.276345 173.994224 
L 255.070812 173.999768 
L 254.864072 173.308985 
L 254.656114 173.109401 
L 254.236479 172.407531 
L 253.811788 172.145854 
L 253.597508 172.635944 
L 253.381918 172.775652 
L 252.94674 174.49651 
L 252.72712 175.04204 
L 252.506123 175.1252 
L 252.283732 175.763868 
L 252.059928 175.991172 
L 251.834695 175.908012 
L 251.608013 174.806974 
L 251.379864 174.63511 
L 250.919087 172.966366 
L 250.68642 171.401849 
L 250.358084 170.463804 
L 250.310928 170.614601 
L 250.050438 171.667961 
L 249.955235 171.44731 
L 249.835868 171.661308 
L 249.788008 171.596998 
L 249.764054 171.548211 
L 249.716096 171.590345 
L 249.52361 173.780225 
L 249.426972 173.455347 
L 249.232896 173.853406 
L 249.159841 173.357772 
L 249.111054 173.371078 
L 249.037746 174.05299 
L 248.964285 173.903302 
L 248.890671 174.291382 
L 248.816902 174.708291 
L 248.792279 174.17274 
L 248.569887 170.759854 
L 248.54509 170.778704 
L 248.520276 170.797553 
L 248.495444 170.688891 
L 248.246158 169.318414 
L 247.792951 159.560974 
L 247.767601 159.759449 
L 247.640578 160.706364 
L 247.58964 160.444688 
L 247.359505 160.339352 
L 247.024412 157.756956 
L 246.972576 158.116208 
L 246.764463 160.183011 
L 246.712243 160.151964 
L 246.607569 161.251894 
L 246.528859 161.608928 
L 246.476288 161.57012 
L 246.37091 161.399364 
L 246.21225 160.397009 
L 246.185737 160.490148 
L 245.866016 161.682108 
L 245.839242 161.586752 
L 245.785631 161.419323 
L 245.731939 161.465892 
L 245.489307 163.101372 
L 245.462244 163.091393 
L 245.353786 162.749883 
L 245.326619 162.897353 
L 245.217742 163.662425 
L 245.163177 163.280998 
L 244.998974 161.83734 
L 244.944069 161.868387 
L 244.640554 163.115787 
L 244.585087 163.175662 
L 244.473892 163.308718 
L 244.334403 162.220985 
L 244.306438 162.311907 
L 244.166283 163.126875 
L 243.969126 163.743368 
L 243.94087 163.745585 
L 243.799251 164.890976 
L 243.742444 164.539486 
L 243.57147 163.837616 
L 243.514295 163.788828 
L 243.342208 165.253553 
L 243.198159 165.056187 
L 242.995495 165.744752 
L 242.937376 165.554038 
L 242.498405 161.492504 
L 242.468945 161.519115 
L 242.380417 161.645518 
L 242.172983 159.788278 
L 241.994205 158.617385 
L 241.814516 158.605188 
L 241.784479 158.608515 
L 241.512984 157.613921 
L 241.391645 157.213644 
L 241.086457 154.191056 
L 241.055793 154.191056 
L 240.902069 155.392995 
L 240.71671 157.315654 
L 240.561497 157.580657 
L 240.311725 158.048571 
L 240.186172 157.990913 
L 240.06017 157.969846 
L 239.965373 158.803664 
L 239.902032 158.768182 
L 239.806808 158.149472 
L 239.743181 158.189388 
L 239.583612 159.16735 
L 239.358993 157.231385 
L 239.294553 157.251344 
L 239.197671 157.574004 
L 239.132934 157.518564 
L 238.840141 157.676014 
L 238.742 157.852313 
L 238.544894 155.374145 
L 238.511936 155.379689 
L 238.445927 155.476155 
L 238.180647 156.466313 
L 237.980368 158.341294 
L 237.812596 159.150718 
L 237.6778 159.572062 
L 237.33854 156.955294 
L 237.304433 156.992993 
L 237.270294 157.030692 
L 237.236121 156.974144 
L 237.099099 156.798953 
L 236.995982 157.151552 
L 236.823446 155.811012 
L 236.754195 155.921892 
L 236.684808 156.449681 
L 236.650062 155.893064 
L 236.440869 153.167633 
L 236.335805 152.996878 
L 236.195231 151.304295 
L 236.16 151.933539 
L 236.124733 152.302215 
L 235.769757 153.538527 
L 235.048897 151.143519 
L 234.682862 151.745597 
L 234.312986 151.071447 
L 233.939188 151.709007 
L 233.561383 149.382744 
L 233.179485 150.066874 
L 232.793404 151.407413 
L 232.403047 153.315658 
L 231.609121 148.823909 
L 231.20535 144.713588 
L 230.7969 146.636247 
L 230.383661 146.931188 
L 229.965521 148.672004 
L 229.54236 147.955719 
L 229.114058 146.096261 
L 228.680488 146.00534 
L 228.241518 144.525092 
L 227.797012 145.251356 
L 227.346829 141.802988 
L 226.890823 140.836114 
L 226.428839 141.39384 
L 225.960721 144.229042 
L 225.486301 145.48753 
L 225.005409 143.875335 
L 224.517866 146.150592 
L 224.023485 145.774709 
L 223.522071 144.195778 
L 223.013421 141.233064 
L 222.497323 141.562378 
L 221.973557 143.105828 
L 221.441891 142.471594 
L 220.902082 141.167645 
L 220.353878 142.932855 
L 219.797013 143.021559 
L 219.23121 145.926615 
L 218.656176 142.591344 
L 218.071605 143.357525 
L 217.477176 139.34256 
L 216.872551 140.454687 
L 216.257373 138.231543 
L 215.631268 139.077557 
L 214.99384 137.776935 
L 214.344673 138.92676 
L 213.683325 138.789269 
L 213.009332 141.475892 
L 212.322199 141.287396 
L 211.621405 141.853992 
L 211.478281 140.33161 
L 211.4065 140.292802 
L 211.334573 139.902504 
L 211.262499 140.619898 
L 211.117907 139.317058 
L 211.045388 137.701536 
L 210.972719 138.07742 
L 210.826931 139.228354 
L 210.680537 136.71914 
L 210.459801 140.491277 
L 210.311871 140.140896 
L 210.237673 141.353924 
L 210.163318 140.846093 
L 210.088806 141.472565 
L 209.864321 139.290447 
L 209.638396 142.461615 
L 209.486972 141.0989 
L 209.411015 141.7919 
L 209.258608 144.578314 
L 209.182157 144.373186 
L 208.874683 135.441802 
L 208.797393 136.407567 
L 208.719934 136.308884 
L 208.642304 138.098487 
L 208.564503 138.057461 
L 208.48653 137.626138 
L 208.330064 141.518026 
L 208.25157 146.418922 
L 208.172901 145.170413 
L 208.015033 138.866885 
L 207.856456 140.011167 
L 207.776898 139.710682 
L 207.537144 135.613666 
L 207.376397 133.193156 
L 207.052686 143.137983 
L 206.971292 143.033756 
L 206.725976 134.537021 
L 206.643823 135.021567 
L 206.47894 140.235144 
L 206.396209 139.849282 
L 206.313282 139.180676 
L 206.063327 143.29765 
L 205.8957 140.619898 
L 205.811587 140.330501 
L 205.642755 142.840824 
L 205.558035 143.216708 
L 205.387982 140.113176 
L 205.302647 141.287396 
L 205.217105 140.041104 
L 205.131354 140.190792 
L 205.045395 139.99897 
L 204.959225 141.280743 
L 204.872844 141.097791 
L 204.699445 138.880191 
L 204.612424 139.256074 
L 204.350066 143.467296 
L 204.262178 142.490444 
L 204.174069 143.711232 
L 204.08574 143.201184 
L 203.99719 144.100421 
L 203.730194 138.207149 
L 203.640745 139.525512 
L 203.461161 142.427242 
L 203.371026 140.176378 
L 203.280659 140.424749 
L 203.008159 136.904309 
L 202.733537 140.194119 
L 202.549259 142.637914 
L 202.364013 136.862175 
L 202.271024 134.406183 
L 201.802362 142.531469 
L 201.707877 142.321906 
L 201.231616 134.706668 
L 201.135586 134.417271 
L 201.039295 134.672295 
L 200.748831 142.080188 
L 200.651476 143.646922 
L 200.553851 142.991621 
L 200.455955 144.322181 
L 200.061628 138.709436 
L 199.962353 138.517613 
L 199.762961 140.356004 
L 199.66284 140.853855 
L 199.461741 142.584692 
L 199.36076 142.166674 
L 199.259489 139.816018 
L 199.157926 140.005623 
L 198.953917 141.546855 
L 198.542324 133.747556 
L 198.230444 140.831679 
L 198.02098 138.352402 
L 197.810264 136.242356 
L 197.598281 138.850253 
L 197.491809 138.442215 
L 197.277896 133.654416 
L 196.954573 136.776797 
L 196.628257 143.153506 
L 196.51881 142.963901 
L 196.409022 143.044844 
L 196.298891 144.047199 
L 195.966419 136.609368 
L 195.630781 141.481436 
L 195.405234 137.819069 
L 195.291916 134.993847 
L 195.064183 138.948936 
L 194.834969 141.676584 
L 194.719801 141.739786 
L 194.37202 139.40798 
L 193.90291 147.340335 
L 193.784651 147.952392 
L 193.665993 146.86466 
L 193.640094 148.880458 
L 193.601209 143.327588 
L 193.588238 144.404232 
L 193.575262 144.384274 
L 193.549296 142.191068 
L 193.471283 144.016152 
L 193.40614 148.354887 
L 193.44524 143.964039 
L 193.393097 145.611716 
L 193.314737 140.706384 
L 193.275491 141.960437 
L 193.2624 142.10569 
L 193.249304 141.105552 
L 193.209985 138.005348 
L 193.170623 141.46813 
L 193.144357 141.173189 
L 193.052272 144.141447 
L 193.012733 143.129112 
L 192.614885 134.769869 
L 192.467875 138.229325 
L 192.45448 138.270351 
L 192.374003 137.193706 
L 192.333696 137.46758 
L 192.32025 137.331197 
L 192.306798 138.08629 
L 192.158495 141.287396 
L 192.077339 138.219346 
L 192.11794 142.101255 
L 192.023131 140.367092 
L 191.955253 143.045952 
L 191.914463 141.19093 
L 191.737161 136.805626 
L 191.860004 141.465912 
L 191.723486 137.091696 
L 191.682427 137.447621 
L 191.66873 136.621565 
L 191.655028 135.795509 
L 191.613889 137.198141 
L 191.558963 136.176936 
L 191.448853 142.901808 
L 191.366044 139.575408 
L 191.255329 137.490864 
L 191.31073 139.589823 
L 191.227596 137.56848 
L 191.158167 137.370005 
L 191.116444 138.757114 
L 191.046796 149.116632 
L 190.949057 144.625992 
L 190.696476 136.180263 
L 190.668299 138.162797 
L 190.6401 140.626551 
L 190.569504 137.387746 
L 190.413691 135.531615 
L 190.314178 141.53244 
L 190.257187 140.337154 
L 190.12862 145.444287 
L 190.099985 142.341864 
L 190.042647 137.334524 
L 189.970842 139.280468 
L 189.884483 138.768202 
L 189.870069 139.226136 
L 189.797911 142.665634 
L 189.740079 140.871596 
L 189.711127 139.576517 
L 189.653152 140.93258 
L 189.493227 150.44941 
L 189.37646 143.217816 
L 189.347208 144.039437 
L 189.317931 145.275749 
L 189.229955 147.781637 
L 189.215271 146.855789 
L 189.185885 144.017261 
L 189.112312 146.738256 
L 189.097579 147.616426 
L 189.068094 144.176928 
L 188.964703 141.688781 
L 188.949908 141.873951 
L 188.87584 142.749903 
L 188.831325 147.220584 
L 188.771883 143.531607 
L 188.637772 137.251364 
L 188.622839 137.572916 
L 188.518131 143.601461 
L 188.488158 147.731741 
L 188.428134 143.660228 
L 188.292706 137.068412 
L 188.187012 134.890728 
L 188.232348 138.428909 
L 188.171887 134.901816 
L 187.959452 141.342836 
L 187.89852 141.824055 
L 187.852752 140.796197 
L 187.761038 142.24429 
L 187.806925 140.441381 
L 187.730413 141.295157 
L 187.623017 133.602303 
L 187.57689 136.373194 
L 187.546105 138.284765 
L 187.469024 136.61713 
L 187.407238 134.707776 
L 187.360828 135.459543 
L 187.205682 143.475058 
L 187.19013 142.357388 
L 187.143433 137.447621 
L 187.081073 140.185248 
L 187.002967 142.653437 
L 186.956021 141.060092 
L 186.86194 143.603679 
L 186.814805 142.340756 
L 186.783347 140.880466 
L 186.688804 138.219346 
L 186.673022 139.577626 
L 186.578182 141.616709 
L 186.56235 140.400356 
L 186.546512 139.235007 
L 186.467211 141.352815 
L 186.371815 148.201872 
L 186.339959 144.021696 
L 186.32402 142.622391 
L 186.260192 145.417676 
L 186.228235 149.204228 
L 186.148214 145.974293 
L 186.05195 139.7129 
L 185.971528 140.520106 
L 185.955421 141.623362 
L 185.907058 138.781508 
L 185.858628 141.131055 
L 185.696712 139.465637 
L 185.582928 143.338676 
L 185.517742 142.654546 
L 185.387009 141.575684 
L 185.35425 139.890308 
L 185.206455 136.461898 
L 185.124079 135.067028 
L 185.091074 135.986223 
L 184.859173 143.98178 
L 184.825919 142.036944 
L 184.80928 140.66425 
L 184.725969 142.132301 
L 184.709283 143.374157 
L 184.675888 140.2673 
L 184.59226 138.106248 
L 184.575511 138.947828 
L 184.525215 138.867994 
L 184.407579 143.272148 
L 184.289548 140.39592 
L 184.272655 141.155448 
L 184.255753 141.914976 
L 184.238843 140.123156 
L 184.204998 137.267996 
L 184.120245 137.841245 
L 183.864755 143.592591 
L 184.069295 137.647205 
L 183.779179 142.480464 
L 183.727733 138.957807 
L 183.676212 141.400493 
L 183.572944 143.937428 
L 183.555703 143.696818 
L 183.469372 143.180117 
L 183.43478 145.281293 
L 183.400154 142.776514 
L 183.226514 133.954901 
L 183.104455 139.223919 
L 183.069503 136.55282 
L 183.034516 136.519556 
L 182.911789 139.91581 
L 182.876646 142.304165 
L 182.841467 139.745055 
L 182.806254 137.598418 
L 182.735721 140.198554 
L 182.629655 146.04193 
L 182.487737 144.07381 
L 182.43437 141.179842 
L 182.363088 142.187741 
L 182.327393 143.717885 
L 182.237997 143.215599 
L 182.22009 143.12246 
L 182.166316 141.036807 
L 182.09449 142.283098 
L 182.022516 143.76002 
L 182.0045 143.004927 
L 181.932342 139.390239 
L 181.878127 141.463695 
L 181.80571 140.647618 
L 181.7513 142.837498 
L 181.714979 142.309709 
L 181.660429 142.700007 
L 181.605793 144.010608 
L 181.532814 143.798828 
L 181.47798 142.089058 
L 181.386401 142.666743 
L 181.294583 145.98649 
L 181.257789 143.755584 
L 181.239377 142.224332 
L 181.184085 144.416429 
L 181.147175 142.531469 
L 180.9806 144.703608 
L 180.943477 143.743388 
L 180.906314 142.3086 
L 180.831871 142.831954 
L 180.79459 144.251218 
L 180.775935 142.548101 
L 180.738595 138.637364 
L 180.645071 138.768202 
L 180.532515 140.687535 
L 180.51372 140.314978 
L 180.494916 139.942421 
L 180.476102 141.322877 
L 180.438442 143.774434 
L 180.381878 141.849557 
L 180.249541 135.473957 
L 180.211639 135.700152 
L 180.116705 138.705 
L 180.040573 137.434316 
L 179.964277 136.902092 
L 179.945177 136.689202 
L 179.906946 137.361135 
L 179.618885 148.551144 
L 179.560989 140.614354 
L 179.483646 142.028074 
L 179.444911 143.183665 
L 177.62102 145.526116 
L 177.435009 146.323344 
L 177.248012 145.894238 
L 176.871014 142.450305 
L 176.680993 144.582528 
L 176.104703 144.71891 
L 175.910494 145.93859 
L 175.321362 140.389046 
L 174.923065 144.595833 
L 174.722215 145.329859 
L 174.520215 143.366174 
L 174.317051 144.04476 
L 174.112709 144.088003 
L 173.907175 145.700198 
L 173.700436 144.77435 
L 173.492477 142.247395 
L 173.283284 141.199579 
L 173.072842 138.007344 
L 172.433872 147.438796 
L 172.218281 147.313502 
L 172.001364 145.4862 
L 171.783104 145.011633 
L 171.563484 143.228683 
L 171.342487 143.304081 
L 171.120095 143.745384 
L 170.896292 144.721128 
L 170.671058 143.152176 
L 170.444376 142.601102 
L 170.216227 143.472619 
L 169.986592 143.077886 
L 169.75545 143.847393 
L 169.522784 142.413715 
L 169.288571 144.287587 
L 169.052791 143.726534 
L 168.815424 144.248779 
L 168.576447 143.345107 
L 168.093577 145.944134 
L 167.849639 145.837689 
L 167.356639 144.957302 
L 167.107529 145.022721 
L 166.856646 144.697843 
L 166.603965 143.408308 
L 166.093102 147.459864 
L 165.834867 148.120708 
L 165.574726 148.038657 
L 165.312651 146.518492 
L 165.048613 147.581832 
L 164.782582 144.816484 
L 164.514528 145.149124 
L 164.24442 144.991675 
L 163.972227 146.26236 
L 163.697915 146.137065 
L 163.421451 144.880795 
L 163.142802 145.182388 
L 162.578807 146.40096 
L 162.005642 143.624524 
L 161.715525 145.25446 
L 161.423001 145.552728 
L 161.12803 146.017315 
L 160.830569 144.935126 
L 160.530576 145.007198 
L 160.228008 146.810107 
L 159.922821 147.017452 
L 159.614968 148.326945 
L 158.991077 149.501164 
L 158.674941 149.456812 
L 158.355944 149.13526 
L 157.709157 150.525696 
L 157.381258 150.784046 
L 156.716164 153.075936 
L 156.378851 153.302131 
L 156.038279 152.1013 
L 155.347102 147.096177 
L 154.996364 146.358825 
L 154.6421 147.750369 
L 154.28424 147.831312 
L 153.922709 148.909065 
L 153.557432 147.985435 
L 153.18833 148.279267 
L 152.815323 148.236024 
L 152.438325 149.185156 
L 152.057252 152.618001 
L 151.672014 152.846414 
L 151.282519 151.628952 
L 150.888673 149.066515 
L 150.490375 149.510035 
L 150.087526 153.01606 
L 149.68002 153.175728 
L 148.850595 151.107816 
L 148.428447 149.379196 
L 148.001182 150.237408 
L 147.568675 147.901166 
L 147.130795 148.926806 
L 146.687406 148.71946 
L 145.783538 151.197628 
L 144.855881 152.94288 
L 144.382734 153.785568 
L 143.90315 152.865264 
L 142.92395 149.87483 
L 142.423957 150.478017 
L 141.402178 153.54274 
L 140.879962 152.696726 
L 140.349893 153.039345 
L 139.811731 152.192222 
L 139.265226 153.935256 
L 138.710113 153.416337 
L 138.146118 153.906427 
L 137.572952 154.164777 
L 136.990312 154.658193 
L 136.39788 154.535116 
L 135.795319 153.311001 
L 135.182279 154.395408 
L 134.558388 154.397625 
L 133.923255 155.851262 
L 133.276468 153.501715 
L 132.617591 155.174894 
L 131.946162 155.36339 
L 131.261696 158.097691 
L 130.563675 156.773784 
L 129.851551 153.822158 
L 128.382633 151.531377 
L 127.624563 151.769769 
L 126.84983 154.441977 
L 126.057686 156.41675 
L 125.247331 157.101988 
L 124.417906 154.419801 
L 123.568493 153.83879 
L 121.80568 158.272881 
L 120.890072 158.790691 
L 119.950045 159.519172 
L 118.984261 158.873851 
L 117.991268 162.907665 
L 116.969489 162.803438 
L 115.917204 163.292419 
L 114.832536 159.608985 
L 113.713429 158.299492 
L 111.36263 158.420352 
L 110.125699 159.581265 
L 108.843779 157.722916 
L 107.513473 158.331648 
L 106.130985 157.726243 
L 104.692054 159.552436 
L 103.191874 160.550356 
L 101.624997 161.726793 
L 99.985217 163.21702 
L 98.265416 164.034206 
L 97.911153 166.215216 
L 97.732677 166.422561 
L 97.553293 166.348272 
L 97.372991 165.658598 
L 97.191762 165.626443 
L 96.826485 166.133164 
L 96.642417 166.689782 
L 96.457383 166.588881 
L 96.271373 165.884793 
L 95.896381 163.087291 
L 95.326305 165.900316 
L 94.746857 158.913768 
L 94.355199 157.1286 
L 93.759428 154.303377 
L 93.558579 155.386675 
L 93.356579 155.731512 
L 93.153415 156.679536 
L 92.949072 156.510998 
L 92.5368 158.56006 
L 92.119648 161.829912 
L 91.909206 162.039475 
L 91.6975 161.580432 
L 91.484515 160.733308 
L 91.270235 160.533724 
L 90.619467 164.21494 
L 90.17885 162.37655 
L 89.956459 162.100459 
L 89.732655 163.545225 
L 89.507422 164.207179 
L 88.822955 160.914043 
L 87.889155 165.602049 
L 87.651787 165.665251 
L 87.412811 165.034344 
L 86.929941 161.315428 
L 86.686003 161.008291 
L 86.193003 161.701291 
L 85.69301 160.695609 
L 85.440329 159.786393 
L 84.929466 156.55535 
L 84.41109 155.449876 
L 84.149015 155.683833 
L 83.884977 155.635046 
L 83.350892 156.234907 
L 82.80859 155.921116 
L 82.534278 154.530681 
L 82.257815 153.952996 
L 81.979166 154.049462 
L 81.698296 155.600673 
L 81.415171 157.891454 
L 81.129753 159.112243 
L 80.842005 159.24419 
L 80.551889 158.045577 
L 79.964393 158.374891 
L 79.36694 156.686188 
L 79.064372 156.254865 
L 78.451332 157.96907 
L 77.827441 160.360752 
L 77.511305 160.810924 
L 77.160249 160.890758 
L 76.999515 162.657076 
L 76.870398 161.476204 
L 76.708334 163.312377 
L 76.675831 163.213694 
L 76.512868 162.38542 
L 76.316312 160.660128 
L 76.217622 160.428388 
L 76.052521 161.599281 
L 75.886643 160.36186 
L 75.719981 161.173502 
L 75.586082 160.338576 
L 75.41799 162.317784 
L 75.249092 161.629219 
L 75.079381 163.77142 
L 74.908849 161.95188 
L 74.63427 164.60302 
L 74.565289 164.60302 
L 74.32279 164.034206 
L 74.218348 163.964352 
L 73.973442 159.6234 
L 73.832727 159.6234 
L 73.832727 159.6234 
" clip-path="url(#p50da78939a)" style="fill: none; stroke: #ff0000; stroke-width: 1.5; stroke-linecap: square"/>
   </g>
   <g id="line2d_51">
    <path d="M 398.487273 263.390115 
L 398.133009 261.75907 
L 397.775149 262.715964 
L 397.413619 262.164891 
L 397.048342 261.1581 
L 396.67924 261.351032 
L 396.306232 263.048604 
L 395.929234 263.844723 
L 395.548161 263.42227 
L 395.162923 264.242782 
L 394.773428 264.393579 
L 394.379582 263.772651 
L 393.981285 262.347843 
L 393.578435 263.571958 
L 393.170929 266.512496 
L 392.758656 265.446939 
L 392.341504 263.463296 
L 391.919356 262.191502 
L 391.492092 264.807161 
L 390.621704 266.574588 
L 390.178315 264.834881 
L 389.729278 263.548673 
L 389.274447 261.396492 
L 388.81367 260.338697 
L 388.346791 261.117075 
L 387.873644 260.882009 
L 387.394059 262.070643 
L 386.907859 260.7423 
L 386.414859 261.236825 
L 385.914866 259.989425 
L 385.407679 261.816728 
L 384.893087 262.84902 
L 384.370871 264.488936 
L 383.840802 263.58859 
L 383.30264 261.117075 
L 382.756135 260.348676 
L 382.201022 260.009384 
L 381.637027 261.045003 
L 381.063862 259.946182 
L 380.481221 260.233361 
L 379.888789 259.947291 
L 379.286228 261.20467 
L 378.049297 259.982772 
L 376.767377 260.921926 
L 376.1085 262.240289 
L 375.437071 261.2967 
L 374.054584 261.86108 
L 373.34246 262.702659 
L 372.615652 261.909867 
L 371.873543 260.896424 
L 370.340739 258.177646 
L 369.548595 257.475776 
L 368.73824 257.053323 
L 367.908815 257.667598 
L 367.059402 256.082014 
L 366.189015 251.257625 
L 365.296589 246.964352 
L 364.380981 245.198033 
L 363.440954 248.967953 
L 362.47517 255.022001 
L 361.482177 259.294208 
L 360.460398 261.32442 
L 359.408113 259.136758 
L 357.204338 257.062193 
L 356.048532 259.145628 
L 354.853539 258.698782 
L 353.616608 257.476884 
L 352.334688 255.366838 
L 351.004382 253.557276 
L 349.621895 253.16587 
L 348.182963 251.764347 
L 346.682783 252.855406 
L 345.115906 253.250139 
L 343.476126 253.846673 
L 341.756325 252.135795 
L 339.948292 249.462478 
L 338.042481 247.213832 
L 336.027709 245.710299 
L 333.890756 243.93511 
L 331.615843 244.828803 
L 329.183919 242.626726 
L 326.571693 241.463595 
L 323.750274 237.885497 
L 323.455302 238.026315 
L 323.157841 237.832275 
L 322.555281 236.377529 
L 322.250094 236.205665 
L 322.188738 236.63588 
L 322.096504 236.579331 
L 321.942241 235.707814 
L 321.880347 235.769907 
L 321.849358 235.800953 
L 321.694008 236.948561 
L 321.662856 236.863184 
L 321.600468 236.692428 
L 321.569233 236.868728 
L 321.50668 237.163668 
L 321.444015 237.048353 
L 321.349808 236.612595 
L 321.286864 236.841008 
L 321.223807 237.280092 
L 321.160637 237.644888 
L 321.129009 237.359926 
L 320.843077 235.581411 
L 320.683217 236.001646 
L 320.490424 237.028395 
L 320.425925 237.010654 
L 320.231715 237.793467 
L 320.16674 237.70698 
L 319.971094 237.158124 
L 319.905636 237.359926 
L 319.708531 238.505316 
L 319.609563 238.279121 
L 319.41079 237.101576 
L 319.27765 236.795547 
L 319.076991 237.534008 
L 319.009851 237.405387 
L 318.706124 236.620356 
L 318.46807 234.539139 
L 318.056198 235.77656 
L 317.987083 235.661244 
L 317.604506 233.768523 
L 317.534498 233.801787 
L 317.429225 234.284115 
L 317.394064 234.171017 
L 317.358868 234.084531 
L 317.323636 235.013705 
L 317.28837 234.036852 
L 316.93375 233.617726 
L 316.575526 231.589731 
L 316.213624 233.044476 
L 315.847968 232.259446 
L 315.478479 230.977673 
L 315.105076 230.452102 
L 314.727675 231.995552 
L 314.34619 234.255286 
L 313.96053 233.550089 
L 313.570605 231.955635 
L 313.176317 232.259446 
L 312.77757 234.836297 
L 312.37426 235.927356 
L 311.966282 234.534704 
L 311.553526 231.310313 
L 310.713226 228.887585 
L 309.852404 229.270121 
L 309.413979 229.704771 
L 308.970032 226.709902 
L 308.520422 225.236307 
L 308.065003 225.923763 
L 307.603623 225.606646 
L 306.662341 219.931808 
L 306.182103 220.65918 
L 305.695232 222.078444 
L 304.700838 221.718084 
L 303.677576 220.221204 
L 303.154585 220.37311 
L 302.623718 220.680248 
L 301.537379 216.3903 
L 300.981391 213.570622 
L 300.416492 215.11518 
L 299.842393 215.506587 
L 299.258788 217.132088 
L 298.665358 216.331534 
L 298.061766 216.490092 
L 297.447657 216.268332 
L 296.82266 214.070691 
L 296.186381 213.030636 
L 294.878293 211.602502 
L 294.205583 211.28095 
L 293.519785 210.219828 
L 292.820379 210.703265 
L 292.106814 209.17423 
L 291.378504 208.460163 
L 290.634829 209.851707 
L 289.875124 209.879427 
L 289.098685 208.288299 
L 288.304757 206.204864 
L 287.492534 201.838409 
L 286.661153 201.9759 
L 285.809688 202.473752 
L 284.937146 204.880956 
L 284.042455 203.030369 
L 283.124462 201.409304 
L 282.181922 200.642014 
L 281.213484 199.199465 
L 279.192936 195.293163 
L 278.1375 192.737379 
L 277.049484 192.814995 
L 275.926812 192.749576 
L 274.767203 194.105638 
L 273.568145 193.437032 
L 272.326858 190.131699 
L 271.040258 189.460875 
L 269.704912 187.376331 
L 268.31698 186.749859 
L 266.87215 183.425676 
L 263.791682 180.668091 
L 262.144237 179.741134 
L 260.416002 177.362758 
L 260.238426 176.90815 
L 259.880566 177.858392 
L 259.700264 177.755273 
L 259.33687 175.093044 
L 259.153758 174.310232 
L 258.598645 173.59062 
L 258.223653 174.743772 
L 258.034651 175.554305 
L 257.844629 175.407944 
L 257.461485 173.591729 
L 257.26834 173.573988 
L 257.07413 172.550566 
L 256.878845 172.388681 
L 256.682471 171.46616 
L 256.484998 171.77995 
L 256.086701 170.244262 
L 255.683852 167.579816 
L 255.480687 167.321465 
L 255.070812 169.032344 
L 254.864072 169.908296 
L 254.446921 170.575793 
L 254.024773 170.438302 
L 253.811788 170.559161 
L 253.597508 170.958329 
L 253.381918 171.611412 
L 252.72712 169.631096 
L 252.506123 170.552508 
L 252.283732 170.099009 
L 252.059928 169.085566 
L 251.834695 167.498873 
L 251.608013 167.475588 
L 251.379864 167.222782 
L 251.150228 167.279331 
L 250.919087 166.825832 
L 250.4287 166.946691 
L 250.287327 167.692913 
L 250.240076 167.493329 
L 250.121672 166.917862 
L 250.097943 166.964432 
L 250.026661 167.272678 
L 250.002869 167.47448 
L 249.955235 167.106358 
L 249.835868 164.635952 
L 249.788008 164.705806 
L 249.764054 164.772334 
L 249.740083 164.66478 
L 249.644037 164.426388 
L 249.619985 164.57275 
L 249.52361 165.693747 
L 249.475324 165.283491 
L 249.354318 163.102481 
L 249.330067 163.21447 
L 249.257214 163.961801 
L 249.159841 164.725764 
L 249.086635 164.705806 
L 248.988789 165.174828 
L 248.939764 164.910934 
L 248.644174 161.417105 
L 248.594667 161.565684 
L 248.520276 162.192156 
L 248.321129 164.447456 
L 248.12085 165.251336 
L 248.095735 165.331169 
L 248.070602 165.221398 
L 247.894168 164.669216 
L 247.818283 164.990768 
L 247.666019 166.010864 
L 247.640578 165.573996 
L 247.461973 163.837616 
L 247.436384 163.92632 
L 247.38515 164.401995 
L 247.333841 164.737961 
L 247.308159 164.477393 
L 247.231 164.216825 
L 247.205243 164.326596 
L 246.972576 165.425417 
L 246.920663 165.057296 
L 246.764463 163.053694 
L 246.449973 158.009763 
L 246.318102 157.687102 
L 246.265216 157.751412 
L 246.052872 159.538798 
L 245.972912 159.223899 
L 245.839242 159.159588 
L 245.758795 158.68724 
L 245.57037 158.136166 
L 245.54337 158.136166 
L 245.19047 160.283912 
L 245.108528 160.066587 
L 245.026394 160.024452 
L 244.806431 160.857161 
L 244.778839 160.565547 
L 244.585087 158.790358 
L 244.529534 159.044273 
L 244.138186 161.381624 
L 244.110065 161.24635 
L 243.997359 160.873793 
L 243.969126 161.007958 
L 243.799251 161.79188 
L 243.770859 161.654388 
L 243.628554 161.06118 
L 243.57147 161.096662 
L 243.342208 162.354041 
L 243.313445 162.314124 
L 243.024518 161.0889 
L 242.850018 159.579824 
L 242.791659 159.626393 
L 242.586638 161.49583 
L 242.527841 161.025699 
L 242.498405 160.809483 
L 242.409951 160.9503 
L 242.380417 161.053419 
L 242.024064 152.830558 
L 241.994205 152.562228 
L 241.93441 152.577752 
L 241.694212 154.701104 
L 241.603715 154.369572 
L 241.512984 154.14116 
L 241.482688 154.215449 
L 241.361245 154.78759 
L 241.20885 155.10138 
L 241.025102 154.370681 
L 240.963639 154.410598 
L 240.871243 154.66784 
L 240.809511 154.586897 
L 240.685722 154.622379 
L 240.186172 156.675876 
L 240.123227 156.327713 
L 239.997 155.788836 
L 239.965373 155.795489 
L 239.902032 155.864235 
L 239.870319 155.808795 
L 239.838578 155.753355 
L 239.583612 154.207688 
L 239.519581 154.243169 
L 239.358993 155.80436 
L 239.294553 155.263265 
L 239.132934 154.249822 
L 239.035606 154.560286 
L 239.003104 154.345179 
L 238.872794 153.67879 
L 238.807457 153.765276 
L 238.544894 153.639982 
L 237.946878 150.62959 
L 237.745263 147.548235 
L 237.644021 147.677964 
L 237.508578 146.997161 
L 237.33854 146.377342 
L 237.236121 146.512616 
L 237.099099 146.911784 
L 236.892562 148.300001 
L 236.788838 148.57831 
L 236.230427 151.240539 
L 236.195231 151.039292 
L 236.16 152.088771 
L 236.124733 151.935202 
L 235.769757 151.203394 
L 235.41117 153.170405 
L 235.048897 151.098058 
L 234.682862 152.618223 
L 234.312986 147.898061 
L 233.939188 150.318572 
L 233.561383 147.46452 
L 233.179485 146.250384 
L 232.793404 142.616847 
L 232.403047 143.570415 
L 232.008319 145.36778 
L 231.609121 148.089884 
L 231.20535 148.756272 
L 230.7969 148.902634 
L 230.383661 147.4745 
L 229.965521 145.250247 
L 229.54236 145.513032 
L 228.680488 150.987178 
L 228.241518 148.759599 
L 227.346829 141.093356 
L 226.890823 142.610194 
L 226.428839 142.407284 
L 225.960721 142.833063 
L 225.486301 141.611165 
L 225.005409 142.850804 
L 224.517866 142.929528 
L 224.023485 142.369584 
L 223.522071 140.554479 
L 223.013421 139.430156 
L 222.497323 139.599802 
L 221.973557 138.7427 
L 220.902082 141.569031 
L 220.353878 143.126895 
L 219.797013 142.524816 
L 219.23121 143.012688 
L 218.656176 143.758911 
L 218.071605 147.665213 
L 217.477176 145.86674 
L 216.872551 144.835556 
L 216.257373 140.930362 
L 215.631268 140.954756 
L 214.99384 141.424887 
L 214.344673 143.172356 
L 213.683325 141.432648 
L 213.009332 141.991484 
L 212.322199 139.935768 
L 211.621405 141.0989 
L 211.549916 140.249559 
L 211.478281 141.667714 
L 211.4065 141.549072 
L 211.262499 139.272706 
L 211.190277 139.6752 
L 210.972719 145.603954 
L 210.680537 140.058845 
L 210.533533 140.369309 
L 210.459801 140.619898 
L 210.163318 137.486429 
L 210.088806 137.69821 
L 209.939308 140.032234 
L 209.864321 139.374716 
L 209.713866 137.752541 
L 209.486972 145.905548 
L 209.411015 145.37665 
L 209.258608 142.665634 
L 209.182157 142.827519 
L 209.105539 142.65122 
L 209.028755 143.479493 
L 208.951803 143.292106 
L 208.874683 143.690165 
L 208.797393 142.908461 
L 208.719934 144.325508 
L 208.48653 138.972221 
L 208.25157 142.800908 
L 208.015033 135.196757 
L 207.776898 141.769724 
L 207.617243 136.813388 
L 207.376397 142.640132 
L 207.214913 138.689477 
L 207.133893 139.505554 
L 206.971292 142.596888 
L 206.807938 140.808394 
L 206.725976 140.852746 
L 206.643823 141.647756 
L 206.47894 139.149629 
L 206.230161 140.832788 
L 206.063327 138.504308 
L 205.979613 138.47437 
L 205.8957 137.603962 
L 205.727272 138.082964 
L 205.558035 141.489197 
L 205.473111 141.346162 
L 205.131354 137.630573 
L 204.959225 140.917056 
L 204.872844 140.475754 
L 204.699445 138.388992 
L 204.525188 141.238608 
L 204.262178 134.931754 
L 204.174069 137.062868 
L 204.08574 136.999666 
L 203.99719 137.042909 
L 203.908416 136.831128 
L 203.819418 138.352402 
L 203.730194 138.331335 
L 203.551067 135.008261 
L 203.280659 144.641516 
L 203.099227 140.795088 
L 203.008159 140.626551 
L 202.916856 140.782892 
L 202.733537 139.942421 
L 202.456758 135.265503 
L 202.177789 139.115256 
L 201.990575 137.01408 
L 201.707877 137.95656 
L 201.613138 137.709298 
L 201.518144 138.366816 
L 201.422893 137.812416 
L 201.231616 139.126344 
L 201.039295 135.065919 
L 200.942739 136.460789 
L 200.748831 141.350597 
L 200.651476 141.102226 
L 200.455955 142.39176 
L 200.357786 142.41948 
L 200.160624 139.221701 
L 200.061628 138.968895 
L 199.66284 136.249008 
L 199.562434 136.65372 
L 199.461741 139.076448 
L 199.36076 138.288092 
L 199.259489 139.451223 
L 199.157926 139.044293 
L 199.056069 141.411581 
L 198.953917 140.77513 
L 198.851469 138.793704 
L 198.748721 138.809228 
L 198.645674 138.921216 
L 198.43867 141.964872 
L 198.230444 141.202018 
L 198.125867 140.250668 
L 197.915779 141.43154 
L 197.810264 141.390514 
L 197.598281 139.41685 
L 197.491809 138.752679 
L 197.277896 140.450252 
L 197.170451 141.021284 
L 196.954573 137.974301 
L 196.846136 137.637226 
L 196.628257 139.769448 
L 196.51881 141.027936 
L 196.409022 138.456629 
L 196.298891 138.617405 
L 196.188415 138.112901 
L 195.966419 140.548935 
L 195.743016 138.736047 
L 195.630781 136.084906 
L 195.518188 136.329951 
L 195.405234 135.379709 
L 195.291916 136.25677 
L 195.178234 133.933834 
L 195.064183 135.262176 
L 194.949762 134.735496 
L 194.834969 135.07368 
L 194.719801 135.914151 
L 194.37202 147.013239 
L 194.138246 144.680324 
L 194.020774 144.264524 
L 193.90291 145.295708 
L 193.784651 144.925368 
L 193.665993 145.271314 
L 193.575262 148.685309 
L 193.523311 147.161818 
L 193.510311 147.238325 
L 193.497307 147.093072 
L 193.471283 149.57124 
L 193.432212 146.810328 
L 193.393097 147.053156 
L 193.2624 138.698348 
L 193.223096 141.388296 
L 193.170623 139.572082 
L 193.131217 141.049004 
L 193.118071 142.408392 
L 193.078606 139.436808 
L 193.039097 139.689615 
L 193.025917 139.217266 
L 192.999543 141.796335 
L 192.973149 143.085869 
L 192.920302 139.936877 
L 192.854132 134.635704 
L 192.787837 135.514983 
L 192.694815 138.679498 
L 192.654873 137.44873 
L 192.561498 134.265365 
L 192.534774 135.492807 
L 192.467875 143.184552 
L 192.414265 139.358084 
L 192.374003 136.253444 
L 192.293342 137.71706 
L 192.279881 137.669381 
L 192.252942 136.73688 
L 192.199003 137.980954 
L 192.050245 143.385245 
L 191.98242 145.174848 
L 192.023131 143.022668 
L 191.968839 143.983997 
L 191.900856 140.344916 
L 191.860004 143.936319 
L 191.723486 140.466884 
L 191.80546 144.61934 
L 191.682427 142.646784 
L 191.655028 142.325232 
L 191.64132 143.172356 
L 191.627607 144.180255 
L 191.586437 139.5743 
L 191.558963 141.081159 
L 191.517712 141.189821 
L 191.476413 141.039024 
L 191.462636 141.831816 
L 191.448853 142.806452 
L 191.407473 139.902504 
L 191.366044 142.194394 
L 191.172064 136.04388 
L 191.158167 137.715951 
L 191.060737 144.399797 
L 191.018898 142.306383 
L 190.949057 140.681991 
L 190.921082 141.684346 
L 190.879077 145.470898 
L 190.808958 143.129112 
L 190.738699 140.583308 
L 190.710556 142.548101 
L 190.625992 145.724813 
L 190.668299 141.829599 
L 190.569504 145.57069 
L 190.527078 141.529114 
L 190.442072 143.18677 
L 190.413691 141.272981 
L 190.342639 142.43833 
L 190.257187 144.961959 
L 190.228657 143.061476 
L 190.028297 135.234456 
L 190.200104 143.200076 
L 189.985215 136.231268 
L 189.884483 146.897924 
L 189.812355 140.758498 
L 189.711127 139.144085 
L 189.754546 141.583445 
L 189.696642 139.162935 
L 189.682151 139.181784 
L 189.667655 139.030988 
L 189.653152 138.861341 
L 189.609608 141.463695 
L 189.551465 139.543253 
L 189.522358 137.953234 
L 189.478652 140.920383 
L 189.449484 139.63861 
L 189.303284 145.164869 
L 189.273971 143.208946 
L 189.259305 141.628906 
L 189.229955 145.061751 
L 189.156474 141.835143 
L 189.068094 139.853717 
L 189.053343 140.720799 
L 189.038585 141.668823 
L 188.994274 139.6752 
L 188.935107 141.249696 
L 188.905486 142.747685 
L 188.816474 141.991484 
L 188.727236 140.946994 
L 188.69744 141.215324 
L 188.667618 140.953647 
L 188.563044 150.335204 
L 188.518131 147.869232 
L 188.337906 140.560023 
L 188.247447 142.090167 
L 188.156755 144.499589 
L 188.20213 141.940479 
L 188.111322 144.142556 
L 187.928999 138.265916 
L 188.035469 144.749069 
L 187.868015 140.102088 
L 187.837483 142.691136 
L 187.791636 138.196061 
L 187.761038 138.196061 
L 187.699762 133.153239 
L 187.63838 135.375274 
L 187.515293 139.617543 
L 187.345344 146.846919 
L 187.314356 146.385658 
L 187.298851 147.205061 
L 187.28334 148.024464 
L 187.252298 145.821279 
L 187.096673 139.289338 
L 187.002967 146.455512 
L 186.956021 142.063556 
L 186.893328 137.521911 
L 186.814805 139.808256 
L 186.783347 141.584554 
L 186.720347 138.515396 
L 186.688804 138.33577 
L 186.498953 146.916773 
L 186.435441 145.138258 
L 186.387732 146.23597 
L 186.228235 150.510394 
L 186.196248 149.401594 
L 186.116155 141.595642 
L 186.05195 142.809778 
L 186.019803 145.235832 
L 185.939308 144.825576 
L 185.761568 139.237224 
L 185.729155 141.692108 
L 185.68048 139.23168 
L 185.66424 139.399109 
L 185.631738 138.632928 
L 185.582928 139.672983 
L 185.55035 139.659677 
L 185.501427 141.552399 
L 185.419738 141.176516 
L 185.403377 141.213106 
L 185.35425 142.982751 
L 185.305054 141.811858 
L 185.255789 137.314565 
L 185.173528 137.398834 
L 184.991875 143.754476 
L 184.975314 143.814351 
L 184.925586 147.1973 
L 184.892395 143.797719 
L 184.692589 137.17153 
L 184.59226 134.912904 
L 184.642461 137.996477 
L 184.575511 136.200221 
L 184.508434 136.174719 
L 184.474848 137.646096 
L 184.441229 136.308884 
L 184.373896 136.781232 
L 184.221925 140.893772 
L 184.171121 138.861341 
L 184.120245 139.755034 
L 184.035287 143.956277 
L 184.001247 141.333965 
L 183.984214 139.885872 
L 183.898928 141.276308 
L 183.864755 142.73438 
L 183.830549 141.157666 
L 183.796311 141.177624 
L 183.762038 139.25053 
L 183.727733 142.164456 
L 183.693394 140.425858 
L 183.676212 140.402573 
L 183.659021 141.248588 
L 183.624616 140.023364 
L 183.572944 136.951988 
L 183.503929 137.602853 
L 183.382829 135.574858 
L 183.43478 138.056352 
L 183.330801 136.582757 
L 183.261311 140.949212 
L 183.191683 137.640552 
L 183.174255 137.3567 
L 183.121918 137.948799 
L 183.034516 146.046365 
L 182.876646 145.796885 
L 182.771005 142.677831 
L 182.682728 143.428488 
L 182.629655 146.508735 
L 182.576503 144.79453 
L 182.452168 139.14852 
L 182.416563 140.443599 
L 182.327393 136.379847 
L 182.273782 138.870212 
L 182.166316 145.381085 
L 182.07651 143.517192 
L 182.040523 140.126482 
L 181.950396 141.857319 
L 181.932342 142.56806 
L 181.878127 140.730778 
L 181.860037 140.730778 
L 181.80571 139.599802 
L 181.7513 140.391485 
L 181.733144 140.597722 
L 181.605793 149.010188 
L 181.569323 147.331464 
L 181.496268 141.341727 
L 181.441377 144.100421 
L 181.404736 142.286424 
L 181.312966 142.291968 
L 181.294583 143.300976 
L 181.257789 140.619898 
L 181.239377 138.774855 
L 181.147175 139.732858 
L 181.073239 138.63182 
L 181.017685 142.36404 
L 180.9249 139.9524 
L 180.869112 140.514562 
L 180.738595 144.205757 
L 180.701215 146.738256 
L 180.626337 144.771245 
L 180.588838 144.509568 
L 180.532515 147.209496 
L 180.476102 145.088362 
L 180.363003 140.859399 
L 180.325223 141.302919 
L 180.211639 146.357938 
L 180.173696 144.133685 
L 180.154709 142.270901 
L 180.097688 145.832367 
L 180.07866 144.05496 
L 180.059622 143.8709 
L 180.040573 145.464245 
L 180.002446 141.544637 
L 179.945177 143.332023 
L 179.887815 139.640828 
L 179.868674 140.513453 
L 179.83036 138.07742 
L 179.811187 136.435287 
L 179.734392 136.923159 
L 179.599597 142.14228 
L 179.580298 140.826135 
L 179.560989 139.509989 
L 179.502998 142.010333 
L 179.444911 144.133907 
L 177.62102 144.662361 
L 177.435009 143.422723 
L 177.248012 141.17962 
L 176.680993 143.444899 
L 176.489941 141.695212 
L 176.297848 141.619814 
L 176.104703 141.954672 
L 175.910494 143.029099 
L 175.715208 145.122513 
L 175.518835 145.976289 
L 175.321362 147.692712 
L 175.122776 143.883984 
L 174.923065 144.21108 
L 174.722215 141.930278 
L 174.317051 146.407612 
L 174.112709 147.763675 
L 173.700436 146.19694 
L 173.492477 143.870678 
L 173.283284 144.365203 
L 173.072842 140.92127 
L 172.861136 141.230625 
L 172.648151 139.952179 
L 172.433872 142.106577 
L 172.218281 142.836168 
L 171.783104 145.890912 
L 171.563484 146.11378 
L 171.342487 146.994168 
L 170.671058 140.882462 
L 170.444376 142.760769 
L 170.216227 143.403873 
L 169.986592 147.271368 
L 169.75545 147.329025 
L 169.522784 147.999849 
L 169.288571 145.028265 
L 169.052791 146.122651 
L 168.815424 144.111288 
L 168.576447 145.083705 
L 168.335839 143.295211 
L 168.093577 144.953976 
L 167.849639 144.013713 
L 167.356639 146.537342 
L 167.107529 146.791257 
L 166.856646 147.301305 
L 166.603965 146.43755 
L 166.093102 148.792641 
L 165.574726 147.510868 
L 165.312651 145.483982 
L 165.048613 146.432006 
L 164.514528 147.455428 
L 164.24442 147.288 
L 163.972227 147.557438 
L 163.697915 146.647113 
L 163.421451 147.718214 
L 163.142802 145.974072 
L 162.861933 146.833392 
L 162.578807 146.519601 
L 162.293389 145.89202 
L 161.715525 142.325011 
L 161.12803 144.458342 
L 160.830569 146.94538 
L 160.228008 147.460972 
L 159.922821 146.388763 
L 159.614968 146.738035 
L 159.304403 145.794446 
L 158.674941 149.69964 
L 158.355944 149.515579 
L 158.034034 148.509897 
L 157.709157 148.214956 
L 157.381258 150.32722 
L 157.05028 151.536921 
L 156.716164 150.342744 
L 156.378851 151.246416 
L 156.038279 149.882592 
L 155.694385 150.771849 
L 155.347102 148.431172 
L 154.996364 149.201788 
L 154.6421 148.567555 
L 154.28424 151.464849 
L 153.922709 150.092155 
L 153.557432 150.537892 
L 153.18833 149.83824 
L 152.815323 152.973926 
L 152.438325 153.157987 
L 152.057252 151.856256 
L 151.672014 149.746209 
L 151.282519 149.280513 
L 150.888673 149.750644 
L 150.490375 151.439347 
L 150.087526 151.993747 
L 149.68002 151.665542 
L 149.267747 151.901716 
L 148.850595 152.958403 
L 148.428447 153.629227 
L 148.001182 153.863184 
L 147.568675 152.695617 
L 147.130795 152.524862 
L 146.687406 151.755355 
L 146.238369 152.792083 
L 145.322761 150.851683 
L 144.855881 149.257228 
L 144.382734 151.137753 
L 143.90315 151.877323 
L 143.41695 151.525833 
L 142.92395 149.510035 
L 142.423957 149.124172 
L 141.91677 149.524449 
L 141.402178 151.788619 
L 140.879962 153.143572 
L 140.349893 153.619248 
L 139.811731 153.492844 
L 139.265226 152.807606 
L 138.710113 154.277875 
L 137.572952 155.305732 
L 136.990312 154.71696 
L 136.39788 154.907673 
L 135.795319 155.812454 
L 135.182279 158.616609 
L 134.558388 159.430468 
L 133.276468 155.977665 
L 131.946162 157.409126 
L 131.261696 158.801779 
L 130.563675 157.011067 
L 129.851551 156.649598 
L 129.124743 155.35452 
L 128.382633 154.74468 
L 127.624563 154.858886 
L 126.84983 153.929712 
L 126.057686 154.739136 
L 124.417906 157.022155 
L 123.568493 156.496584 
L 122.698105 156.708364 
L 121.80568 156.248212 
L 119.950045 158.919312 
L 118.984261 160.644604 
L 117.991268 160.707806 
L 116.969489 160.072464 
L 115.917204 159.206491 
L 114.832536 159.891729 
L 113.713429 158.631024 
L 112.557623 158.715292 
L 108.843779 161.561582 
L 107.513473 159.020212 
L 106.130985 158.095473 
L 104.692054 159.143289 
L 103.191874 162.469689 
L 101.624997 164.0586 
L 99.985217 163.33788 
L 98.265416 161.31432 
L 98.08873 160.70448 
L 97.732677 157.829361 
L 97.553293 157.323748 
L 97.191762 158.201918 
L 97.009597 157.880366 
L 96.271373 152.307537 
L 96.084375 152.26762 
L 95.707378 155.115019 
L 95.134212 158.50462 
L 94.941067 158.675376 
L 94.746857 158.665396 
L 94.551572 157.453478 
L 94.157725 156.627422 
L 93.959139 158.413699 
L 93.356579 168.931776 
L 92.743539 164.708356 
L 92.5368 164.861371 
L 92.328841 164.518752 
L 91.909206 162.6726 
L 91.484515 160.487155 
L 91.270235 159.68771 
L 90.837728 160.655692 
L 90.619467 162.346612 
L 90.399847 162.735801 
L 90.17885 162.731366 
L 89.956459 161.986252 
L 89.507422 161.192352 
L 89.052591 158.286187 
L 88.822955 157.253894 
L 88.124934 160.378492 
L 87.889155 160.569206 
L 87.651787 160.480502 
L 87.412811 159.876206 
L 87.172203 160.074681 
L 86.686003 162.397617 
L 86.440365 161.353128 
L 85.943893 157.997899 
L 85.69301 157.471219 
L 85.440329 156.474408 
L 84.671231 159.067891 
L 84.149015 156.945648 
L 83.884977 156.360201 
L 83.618946 157.993464 
L 83.350892 158.028945 
L 83.080784 158.234073 
L 82.80859 156.412315 
L 82.534278 155.388892 
L 82.257815 154.964222 
L 81.979166 155.404416 
L 81.129753 160.736635 
L 80.842005 161.30434 
L 80.551889 161.090342 
L 80.259365 160.631299 
L 79.964393 160.461652 
L 79.666932 161.826585 
L 79.064372 162.290064 
L 78.759185 162.558393 
L 78.451332 163.336771 
L 78.140767 163.397755 
L 77.511305 162.160334 
L 77.160249 161.908636 
L 77.031721 162.800112 
L 76.999515 162.655968 
L 76.870398 162.36768 
L 76.708334 164.160609 
L 76.414727 162.15479 
L 76.381952 162.15479 
L 76.217622 160.90739 
L 76.052521 162.647097 
L 76.019408 162.465254 
L 75.886643 162.101568 
L 75.719981 163.175995 
L 75.451672 159.190968 
L 75.384275 159.107808 
L 75.215215 158.607739 
L 75.04534 157.820491 
L 74.771827 157.148558 
L 74.737488 157.148558 
L 74.530748 155.293536 
L 74.392246 155.269142 
L 74.253197 156.772675 
L 74.218348 156.611899 
L 74.07861 156.290347 
L 73.867959 156.825897 
L 73.832727 156.825897 
L 73.832727 156.825897 
" clip-path="url(#p50da78939a)" style="fill: none; stroke: #008000; stroke-width: 1.5; stroke-linecap: square"/>
   </g>
   <g id="patch_3">
    <path d="M 57.6 307.584 
L 57.6 41.472 
" style="fill: none; stroke: #000000; stroke-width: 0.8; stroke-linejoin: miter; stroke-linecap: square"/>
   </g>
   <g id="patch_4">
    <path d="M 414.72 307.584 
L 414.72 41.472 
" style="fill: none; stroke: #000000; stroke-width: 0.8; stroke-linejoin: miter; stroke-linecap: square"/>
   </g>
   <g id="patch_5">
    <path d="M 57.6 307.584 
L 414.72 307.584 
" style="fill: none; stroke: #000000; stroke-width: 0.8; stroke-linejoin: miter; stroke-linecap: square"/>
   </g>
   <g id="patch_6">
    <path d="M 57.6 41.472 
L 414.72 41.472 
" style="fill: none; stroke: #000000; stroke-width: 0.8; stroke-linejoin: miter; stroke-linecap: square"/>
   </g>
   <g id="text_17">
    <!-- PLL1 amp gain resistor -->
    <g transform="translate(167.600625 35.472)scale(0.12 -0.12)">
     <defs>
      <path id="DejaVuSans-4c" d="M 628 4666 
L 1259 4666 
L 1259 531 
L 3531 531 
L 3531 0 
L 628 0 
L 628 4666 
z
" transform="scale(0.015625)"/>
      <path id="DejaVuSans-6d" d="M 3328 2828 
Q 3544 3216 3844 3400 
Q 4144 3584 4550 3584 
Q 5097 3584 5394 3201 
Q 5691 2819 5691 2113 
L 5691 0 
L 5113 0 
L 5113 2094 
Q 5113 2597 4934 2840 
Q 4756 3084 4391 3084 
Q 3944 3084 3684 2787 
Q 3425 2491 3425 1978 
L 3425 0 
L 2847 0 
L 2847 2094 
Q 2847 2600 2669 2842 
Q 2491 3084 2119 3084 
Q 1678 3084 1418 2786 
Q 1159 2488 1159 1978 
L 1159 0 
L 581 0 
L 581 3500 
L 1159 3500 
L 1159 2956 
Q 1356 3278 1631 3431 
Q 1906 3584 2284 3584 
Q 2666 3584 2933 3390 
Q 3200 3197 3328 2828 
z
" transform="scale(0.015625)"/>
      <path id="DejaVuSans-70" d="M 1159 525 
L 1159 -1331 
L 581 -1331 
L 581 3500 
L 1159 3500 
L 1159 2969 
Q 1341 3281 1617 3432 
Q 1894 3584 2278 3584 
Q 2916 3584 3314 3078 
Q 3713 2572 3713 1747 
Q 3713 922 3314 415 
Q 2916 -91 2278 -91 
Q 1894 -91 1617 61 
Q 1341 213 1159 525 
z
M 3116 1747 
Q 3116 2381 2855 2742 
Q 2594 3103 2138 3103 
Q 1681 3103 1420 2742 
Q 1159 2381 1159 1747 
Q 1159 1113 1420 752 
Q 1681 391 2138 391 
Q 2594 391 2855 752 
Q 3116 1113 3116 1747 
z
" transform="scale(0.015625)"/>
      <path id="DejaVuSans-67" d="M 2906 1791 
Q 2906 2416 2648 2759 
Q 2391 3103 1925 3103 
Q 1463 3103 1205 2759 
Q 947 2416 947 1791 
Q 947 1169 1205 825 
Q 1463 481 1925 481 
Q 2391 481 2648 825 
Q 2906 1169 2906 1791 
z
M 3481 434 
Q 3481 -459 3084 -895 
Q 2688 -1331 1869 -1331 
Q 1566 -1331 1297 -1286 
Q 1028 -1241 775 -1147 
L 775 -588 
Q 1028 -725 1275 -790 
Q 1522 -856 1778 -856 
Q 2344 -856 2625 -561 
Q 2906 -266 2906 331 
L 2906 616 
Q 2728 306 2450 153 
Q 2172 0 1784 0 
Q 1141 0 747 490 
Q 353 981 353 1791 
Q 353 2603 747 3093 
Q 1141 3584 1784 3584 
Q 2172 3584 2450 3431 
Q 2728 3278 2906 2969 
L 2906 3500 
L 3481 3500 
L 3481 434 
z
" transform="scale(0.015625)"/>
      <path id="DejaVuSans-74" d="M 1172 4494 
L 1172 3500 
L 2356 3500 
L 2356 3053 
L 1172 3053 
L 1172 1153 
Q 1172 725 1289 603 
Q 1406 481 1766 481 
L 2356 481 
L 2356 0 
L 1766 0 
Q 1100 0 847 248 
Q 594 497 594 1153 
L 594 3053 
L 172 3053 
L 172 3500 
L 594 3500 
L 594 4494 
L 1172 4494 
z
" transform="scale(0.015625)"/>
     </defs>
     <use xlink:href="#DejaVuSans-50"/>
     <use xlink:href="#DejaVuSans-4c" x="60.302734"/>
     <use xlink:href="#DejaVuSans-4c" x="116.015625"/>
     <use xlink:href="#DejaVuSans-31" x="171.728516"/>
     <use xlink:href="#DejaVuSans-20" x="235.351562"/>
     <use xlink:href="#DejaVuSans-61" x="267.138672"/>
     <use xlink:href="#DejaVuSans-6d" x="328.417969"/>
     <use xlink:href="#DejaVuSans-70" x="425.830078"/>
     <use xlink:href="#DejaVuSans-20" x="489.306641"/>
     <use xlink:href="#DejaVuSans-67" x="521.09375"/>
     <use xlink:href="#DejaVuSans-61" x="584.570312"/>
     <use xlink:href="#DejaVuSans-69" x="645.849609"/>
     <use xlink:href="#DejaVuSans-6e" x="673.632812"/>
     <use xlink:href="#DejaVuSans-20" x="737.011719"/>
     <use xlink:href="#DejaVuSans-72" x="768.798828"/>
     <use xlink:href="#DejaVuSans-65" x="807.662109"/>
     <use xlink:href="#DejaVuSans-73" x="869.185547"/>
     <use xlink:href="#DejaVuSans-69" x="921.285156"/>
     <use xlink:href="#DejaVuSans-73" x="949.068359"/>
     <use xlink:href="#DejaVuSans-74" x="1001.167969"/>
     <use xlink:href="#DejaVuSans-6f" x="1040.376953"/>
     <use xlink:href="#DejaVuSans-72" x="1101.558594"/>
    </g>
   </g>
   <g id="legend_1">
    <g id="patch_7">
     <path d="M 356.046563 78.82825 
L 407.72 78.82825 
Q 409.72 78.82825 409.72 76.82825 
L 409.72 48.472 
Q 409.72 46.472 407.72 46.472 
L 356.046563 46.472 
Q 354.046563 46.472 354.046563 48.472 
L 354.046563 76.82825 
Q 354.046563 78.82825 356.046563 78.82825 
z
" style="fill: #ffffff; opacity: 0.8; stroke: #cccccc; stroke-linejoin: miter"/>
    </g>
    <g id="line2d_52">
     <path d="M 358.046563 54.570437 
L 368.046563 54.570437 
L 378.046563 54.570437 
" style="fill: none; stroke: #ff0000; stroke-width: 1.5; stroke-linecap: square"/>
    </g>
    <g id="text_18">
     <!-- 8R2 -->
     <g transform="translate(386.046563 58.070437)scale(0.1 -0.1)">
      <defs>
       <path id="DejaVuSans-52" d="M 2841 2188 
Q 3044 2119 3236 1894 
Q 3428 1669 3622 1275 
L 4263 0 
L 3584 0 
L 2988 1197 
Q 2756 1666 2539 1819 
Q 2322 1972 1947 1972 
L 1259 1972 
L 1259 0 
L 628 0 
L 628 4666 
L 2053 4666 
Q 2853 4666 3247 4331 
Q 3641 3997 3641 3322 
Q 3641 2881 3436 2590 
Q 3231 2300 2841 2188 
z
M 1259 4147 
L 1259 2491 
L 2053 2491 
Q 2509 2491 2742 2702 
Q 2975 2913 2975 3322 
Q 2975 3731 2742 3939 
Q 2509 4147 2053 4147 
L 1259 4147 
z
" transform="scale(0.015625)"/>
      </defs>
      <use xlink:href="#DejaVuSans-38"/>
      <use xlink:href="#DejaVuSans-52" x="63.623047"/>
      <use xlink:href="#DejaVuSans-32" x="133.105469"/>
     </g>
    </g>
    <g id="line2d_53">
     <path d="M 358.046563 69.248562 
L 368.046563 69.248562 
L 378.046563 69.248562 
" style="fill: none; stroke: #008000; stroke-width: 1.5; stroke-linecap: square"/>
    </g>
    <g id="text_19">
     <!-- 6R8 -->
     <g transform="translate(386.046563 72.748562)scale(0.1 -0.1)">
      <use xlink:href="#DejaVuSans-36"/>
      <use xlink:href="#DejaVuSans-52" x="63.623047"/>
      <use xlink:href="#DejaVuSans-38" x="133.105469"/>
     </g>
    </g>
   </g>
  </g>
 </g>
 <defs>
  <clipPath id="p50da78939a">
   <rect x="57.6" y="41.472" width="357.12" height="266.112"/>
  </clipPath>
 </defs>
</svg>
