%FSLAX34Y34*%
%MOMM*%
%LNSOLDERMASK_TOP*%
G71*
G01*
%ADD10R,1.600X1.300*%
%ADD11R,1.300X1.300*%
%ADD12R,1.300X1.600*%
%ADD13R,1.000X1.800*%
%ADD14C,3.300*%
%ADD15C,3.500*%
%ADD16R,1.250X1.100*%
%ADD17C,2.600*%
%ADD18C,4.100*%
%ADD19C,2.900*%
%ADD20R,1.100X1.250*%
%ADD21R,1.700X2.200*%
%ADD22R,1.300X2.800*%
%ADD23C,2.200*%
%ADD24R,1.400X1.100*%
%ADD25R,2.400X0.800*%
%ADD26C,2.700*%
%ADD27R,1.100X1.400*%
%ADD28R,0.800X2.400*%
%ADD29C,2.900*%
%ADD30C,3.900*%
%LPD*%
X422606Y-140888D02*
G54D10*
D03*
X422606Y-161488D02*
G54D10*
D03*
X436606Y-102888D02*
G54D10*
D03*
X436606Y-123488D02*
G54D10*
D03*
X433706Y-179766D02*
G54D10*
D03*
X433706Y-200366D02*
G54D10*
D03*
X123627Y-104377D02*
G54D11*
D03*
X104627Y-104377D02*
G54D11*
D03*
X114127Y-82177D02*
G54D11*
D03*
X90225Y-121194D02*
G54D12*
D03*
X110825Y-121194D02*
G54D12*
D03*
X69805Y-131641D02*
G54D10*
D03*
X69805Y-111041D02*
G54D10*
D03*
X158027Y-104378D02*
G54D11*
D03*
X139027Y-104378D02*
G54D11*
D03*
X148527Y-82178D02*
G54D11*
D03*
X126825Y-121194D02*
G54D12*
D03*
X147424Y-121194D02*
G54D12*
D03*
G36*
X87027Y-58177D02*
X100027Y-58177D01*
X100027Y-74177D01*
X87027Y-74177D01*
X87027Y-58177D01*
G37*
X114127Y-66177D02*
G54D12*
D03*
X132572Y-45648D02*
G54D10*
D03*
X132572Y-66248D02*
G54D10*
D03*
X130272Y-141848D02*
G54D10*
D03*
X130272Y-162448D02*
G54D10*
D03*
X149272Y-141848D02*
G54D10*
D03*
X149272Y-162448D02*
G54D10*
D03*
X130380Y-181804D02*
G54D12*
D03*
G36*
X144480Y-173804D02*
X157480Y-173804D01*
X157480Y-189804D01*
X144480Y-189804D01*
X144480Y-173804D01*
G37*
X165459Y-77194D02*
G54D12*
D03*
X186059Y-77194D02*
G54D12*
D03*
X130380Y-181804D02*
G54D12*
D03*
X114127Y-66177D02*
G54D12*
D03*
X452000Y-196000D02*
G54D13*
D03*
X452000Y-165500D02*
G54D13*
D03*
X467200Y-196000D02*
G54D13*
D03*
X467200Y-165500D02*
G54D13*
D03*
X482400Y-196000D02*
G54D13*
D03*
X482400Y-165500D02*
G54D13*
D03*
X506150Y-72550D02*
G54D14*
D03*
X506150Y-120950D02*
G54D14*
D03*
X505800Y-165300D02*
G54D15*
D03*
X505800Y-216100D02*
G54D15*
D03*
X549900Y-105400D02*
G54D12*
D03*
X529300Y-105400D02*
G54D12*
D03*
X528012Y-88433D02*
G54D16*
D03*
X552712Y-88433D02*
G54D16*
D03*
X537553Y-51153D02*
G54D10*
D03*
X537553Y-71753D02*
G54D10*
D03*
X462700Y-126700D02*
G54D17*
D03*
X462700Y-101300D02*
G54D17*
D03*
X168000Y-196000D02*
G54D13*
D03*
X168000Y-165500D02*
G54D13*
D03*
X183200Y-196000D02*
G54D13*
D03*
X183200Y-165500D02*
G54D13*
D03*
X198400Y-196000D02*
G54D13*
D03*
X198400Y-165500D02*
G54D13*
D03*
X307000Y-116000D02*
G54D18*
D03*
X307000Y-216000D02*
G54D18*
D03*
X342000Y-131000D02*
G54D19*
D03*
X272000Y-131000D02*
G54D19*
D03*
X342000Y-166000D02*
G54D19*
D03*
X272000Y-201000D02*
G54D19*
D03*
X342000Y-201000D02*
G54D19*
D03*
X222150Y-72550D02*
G54D14*
D03*
X222150Y-120950D02*
G54D14*
D03*
X221800Y-165300D02*
G54D15*
D03*
X221800Y-216100D02*
G54D15*
D03*
X265900Y-105400D02*
G54D12*
D03*
X245300Y-105400D02*
G54D12*
D03*
X244012Y-88433D02*
G54D16*
D03*
X268712Y-88433D02*
G54D16*
D03*
X253553Y-51153D02*
G54D10*
D03*
X253553Y-71753D02*
G54D10*
D03*
X371859Y-80344D02*
G54D12*
D03*
X351259Y-80344D02*
G54D12*
D03*
X352400Y-41100D02*
G54D10*
D03*
X352400Y-61700D02*
G54D10*
D03*
X364553Y-102953D02*
G54D10*
D03*
X364553Y-123553D02*
G54D10*
D03*
X364747Y-141034D02*
G54D20*
D03*
X364747Y-165734D02*
G54D20*
D03*
X364655Y-179797D02*
G54D10*
D03*
X364655Y-200397D02*
G54D10*
D03*
X364553Y-123553D02*
G54D10*
D03*
X383553Y-102953D02*
G54D10*
D03*
X383553Y-123553D02*
G54D10*
D03*
X383747Y-141034D02*
G54D20*
D03*
X383747Y-165734D02*
G54D20*
D03*
X383655Y-179797D02*
G54D10*
D03*
X383655Y-200397D02*
G54D10*
D03*
X383553Y-123553D02*
G54D10*
D03*
X402553Y-102953D02*
G54D10*
D03*
X402553Y-123553D02*
G54D10*
D03*
X402747Y-141034D02*
G54D20*
D03*
X402747Y-165734D02*
G54D20*
D03*
X402655Y-179797D02*
G54D10*
D03*
X402655Y-200397D02*
G54D10*
D03*
X402553Y-123553D02*
G54D10*
D03*
G36*
X303626Y-153438D02*
X294433Y-162631D01*
X283119Y-151317D01*
X292312Y-142125D01*
X303626Y-153438D01*
G37*
G36*
X289059Y-168005D02*
X279866Y-177198D01*
X268553Y-165884D01*
X277745Y-156691D01*
X289059Y-168005D01*
G37*
X178700Y-126700D02*
G54D17*
D03*
X178700Y-101300D02*
G54D17*
D03*
X433706Y-200366D02*
G54D10*
D03*
X422606Y-161488D02*
G54D10*
D03*
G36*
X318626Y-168439D02*
X309433Y-177631D01*
X298120Y-166317D01*
X307312Y-157125D01*
X318626Y-168439D01*
G37*
G36*
X304059Y-183005D02*
X294866Y-192198D01*
X283553Y-180884D01*
X292745Y-171691D01*
X304059Y-183005D01*
G37*
G36*
X588626Y-154437D02*
X579433Y-163630D01*
X568119Y-152316D01*
X577312Y-143124D01*
X588626Y-154437D01*
G37*
G36*
X574059Y-169004D02*
X564866Y-178196D01*
X553553Y-166882D01*
X562745Y-157690D01*
X574059Y-169004D01*
G37*
G36*
X603626Y-169437D02*
X594433Y-178630D01*
X583119Y-167316D01*
X592312Y-158123D01*
X603626Y-169437D01*
G37*
G36*
X589059Y-184004D02*
X579866Y-193196D01*
X568553Y-181882D01*
X577745Y-172690D01*
X589059Y-184004D01*
G37*
X67512Y-174214D02*
G54D20*
D03*
X67512Y-149514D02*
G54D20*
D03*
X73612Y-205788D02*
G54D20*
D03*
X73612Y-230488D02*
G54D20*
D03*
X85505Y-150847D02*
G54D10*
D03*
X85505Y-171447D02*
G54D10*
D03*
X105405Y-171641D02*
G54D10*
D03*
X105405Y-151041D02*
G54D10*
D03*
X123519Y-258600D02*
G54D11*
D03*
X123519Y-277600D02*
G54D11*
D03*
X101319Y-268100D02*
G54D11*
D03*
X84700Y-268200D02*
G54D21*
D03*
X47200Y-268200D02*
G54D21*
D03*
X80500Y-268200D02*
G54D22*
D03*
X51500Y-268200D02*
G54D22*
D03*
X51469Y-241982D02*
G54D12*
D03*
X30869Y-241982D02*
G54D12*
D03*
X41000Y-222600D02*
G54D10*
D03*
X41000Y-202000D02*
G54D10*
D03*
X105405Y-171641D02*
G54D10*
D03*
G54D23*
X11000Y-491000D02*
X11000Y-11000D01*
G36*
X0Y-491000D02*
X22000Y-491000D01*
X22000Y-502000D01*
X0Y-502000D01*
X0Y-491000D01*
G37*
G36*
X22000Y-11000D02*
X0Y-11000D01*
X0Y0D01*
X22000Y0D01*
X22000Y-11000D01*
G37*
G54D23*
X11000Y-11000D02*
X990000Y-11000D01*
G36*
X990000Y-22000D02*
X990000Y0D01*
X1001000Y0D01*
X1001000Y-22000D01*
X990000Y-22000D01*
G37*
X40896Y-72407D02*
G54D24*
D03*
X40896Y-95407D02*
G54D24*
D03*
X40896Y-83907D02*
G54D25*
D03*
X101319Y-268100D02*
G54D11*
D03*
X123519Y-277600D02*
G54D11*
D03*
X706606Y-140888D02*
G54D10*
D03*
X706606Y-161488D02*
G54D10*
D03*
X724606Y-102888D02*
G54D10*
D03*
X724606Y-123488D02*
G54D10*
D03*
X655659Y-80344D02*
G54D12*
D03*
X635059Y-80344D02*
G54D12*
D03*
X636400Y-41100D02*
G54D10*
D03*
X636400Y-61700D02*
G54D10*
D03*
X648553Y-102953D02*
G54D10*
D03*
X648553Y-123553D02*
G54D10*
D03*
X648747Y-141034D02*
G54D20*
D03*
X648747Y-165734D02*
G54D20*
D03*
X648655Y-179797D02*
G54D10*
D03*
X648655Y-200397D02*
G54D10*
D03*
X648553Y-123553D02*
G54D10*
D03*
X667553Y-102953D02*
G54D10*
D03*
X667553Y-123553D02*
G54D10*
D03*
X667747Y-141034D02*
G54D20*
D03*
X667747Y-165734D02*
G54D20*
D03*
X667655Y-179797D02*
G54D10*
D03*
X667655Y-200397D02*
G54D10*
D03*
X667553Y-123553D02*
G54D10*
D03*
X686553Y-102953D02*
G54D10*
D03*
X686553Y-123553D02*
G54D10*
D03*
X686747Y-141034D02*
G54D20*
D03*
X686747Y-165734D02*
G54D20*
D03*
X686655Y-179797D02*
G54D10*
D03*
X686655Y-200397D02*
G54D10*
D03*
X686553Y-123553D02*
G54D10*
D03*
X706606Y-161488D02*
G54D10*
D03*
X391850Y-416450D02*
G54D14*
D03*
X391850Y-368050D02*
G54D14*
D03*
X392200Y-272900D02*
G54D15*
D03*
X392200Y-323700D02*
G54D15*
D03*
X348101Y-383600D02*
G54D12*
D03*
X368701Y-383600D02*
G54D12*
D03*
X369988Y-400567D02*
G54D16*
D03*
X345288Y-400567D02*
G54D16*
D03*
X360448Y-437847D02*
G54D10*
D03*
X360448Y-417247D02*
G54D10*
D03*
X822437Y-346018D02*
G54D11*
D03*
X841437Y-346017D02*
G54D11*
D03*
X831937Y-368218D02*
G54D11*
D03*
X191324Y-309150D02*
G54D10*
D03*
X191324Y-288550D02*
G54D10*
D03*
X175874Y-324523D02*
G54D11*
D03*
G36*
X188374Y-318023D02*
X201374Y-318023D01*
X201374Y-331023D01*
X188374Y-331023D01*
X188374Y-318023D01*
G37*
X185374Y-346723D02*
G54D11*
D03*
X139415Y-360270D02*
G54D11*
D03*
G36*
X151916Y-353770D02*
X164916Y-353770D01*
X164916Y-366770D01*
X151916Y-366770D01*
X151916Y-353770D01*
G37*
X148916Y-382470D02*
G54D11*
D03*
X158501Y-324564D02*
G54D10*
D03*
X158501Y-345164D02*
G54D10*
D03*
X148809Y-420711D02*
G54D10*
D03*
X148809Y-400111D02*
G54D10*
D03*
X179394Y-420712D02*
G54D10*
D03*
X179394Y-400112D02*
G54D10*
D03*
X171229Y-307302D02*
G54D10*
D03*
X171229Y-286702D02*
G54D10*
D03*
X139129Y-324602D02*
G54D10*
D03*
X139129Y-304002D02*
G54D10*
D03*
X199642Y-268587D02*
G54D12*
D03*
X179042Y-268587D02*
G54D12*
D03*
X139497Y-342592D02*
G54D12*
D03*
X118897Y-342592D02*
G54D12*
D03*
X241141Y-424556D02*
G54D12*
D03*
G36*
X255241Y-416556D02*
X268241Y-416556D01*
X268241Y-432556D01*
X255241Y-432556D01*
X255241Y-416556D01*
G37*
X261600Y-461800D02*
G54D10*
D03*
X261600Y-441200D02*
G54D10*
D03*
X249448Y-385947D02*
G54D10*
D03*
X249448Y-365347D02*
G54D10*
D03*
X249253Y-347866D02*
G54D20*
D03*
X249253Y-323166D02*
G54D20*
D03*
X249345Y-309103D02*
G54D10*
D03*
X249345Y-288503D02*
G54D10*
D03*
X249448Y-365347D02*
G54D10*
D03*
X230448Y-385947D02*
G54D10*
D03*
X230448Y-365347D02*
G54D10*
D03*
X230253Y-347866D02*
G54D20*
D03*
X230253Y-323166D02*
G54D20*
D03*
X230345Y-309103D02*
G54D10*
D03*
X230345Y-288503D02*
G54D10*
D03*
X230448Y-365347D02*
G54D10*
D03*
X211448Y-385947D02*
G54D10*
D03*
X211448Y-365347D02*
G54D10*
D03*
X211253Y-347866D02*
G54D20*
D03*
X211253Y-323166D02*
G54D20*
D03*
X211345Y-309103D02*
G54D10*
D03*
X211345Y-288503D02*
G54D10*
D03*
X211448Y-365347D02*
G54D10*
D03*
X179042Y-268587D02*
G54D12*
D03*
X148809Y-400111D02*
G54D10*
D03*
X73840Y-350463D02*
G54D16*
D03*
X98540Y-350463D02*
G54D16*
D03*
X73612Y-330314D02*
G54D20*
D03*
X73612Y-305614D02*
G54D20*
D03*
X71006Y-399641D02*
G54D10*
D03*
X71006Y-379041D02*
G54D10*
D03*
X120047Y-368847D02*
G54D12*
D03*
X99447Y-368847D02*
G54D12*
D03*
X118093Y-407557D02*
G54D10*
D03*
X118093Y-386957D02*
G54D10*
D03*
X71006Y-379041D02*
G54D10*
D03*
G54D23*
X11000Y-491000D02*
X990000Y-491000D01*
G36*
X11000Y-480000D02*
X11000Y-502000D01*
X0Y-502000D01*
X0Y-480000D01*
X11000Y-480000D01*
G37*
G36*
X990000Y-502000D02*
X990000Y-480000D01*
X1001000Y-480000D01*
X1001000Y-502000D01*
X990000Y-502000D01*
G37*
X118093Y-386957D02*
G54D10*
D03*
G54D23*
X990000Y-11000D02*
X990000Y-491000D01*
X934720Y-65180D02*
G54D26*
D03*
X952680Y-47220D02*
G54D26*
D03*
X436468Y-250468D02*
G54D17*
D03*
X418507Y-232507D02*
G54D17*
D03*
X117000Y-315600D02*
G54D10*
D03*
X117000Y-295000D02*
G54D10*
D03*
X117000Y-295000D02*
G54D10*
D03*
X833911Y-122285D02*
G54D27*
D03*
X856911Y-122285D02*
G54D27*
D03*
X845411Y-122285D02*
G54D28*
D03*
X856912Y-78285D02*
G54D27*
D03*
X833912Y-78285D02*
G54D27*
D03*
G36*
X841411Y-66285D02*
X849411Y-66285D01*
X849412Y-90285D01*
X841412Y-90285D01*
X841411Y-66285D01*
G37*
X856912Y-100285D02*
G54D27*
D03*
X833912Y-100285D02*
G54D27*
D03*
X845411Y-100285D02*
G54D28*
D03*
X869412Y-40569D02*
G54D29*
D03*
X759426Y-104069D02*
G54D29*
D03*
X51469Y-241982D02*
G54D12*
D03*
X616380Y-71723D02*
G54D26*
D03*
X590980Y-71723D02*
G54D26*
D03*
X565580Y-71723D02*
G54D26*
D03*
X332380Y-71723D02*
G54D26*
D03*
X306980Y-71723D02*
G54D26*
D03*
X281580Y-71723D02*
G54D26*
D03*
X281620Y-417277D02*
G54D26*
D03*
X307020Y-417277D02*
G54D26*
D03*
X332420Y-417277D02*
G54D26*
D03*
X69974Y-73830D02*
G54D10*
D03*
X69974Y-94430D02*
G54D10*
D03*
X416000Y-324000D02*
G54D13*
D03*
X416000Y-293500D02*
G54D13*
D03*
X431200Y-324000D02*
G54D13*
D03*
X431200Y-293500D02*
G54D13*
D03*
X446400Y-324000D02*
G54D13*
D03*
X446400Y-293500D02*
G54D13*
D03*
X464906Y-287766D02*
G54D10*
D03*
X464906Y-308366D02*
G54D10*
D03*
X475394Y-348112D02*
G54D10*
D03*
X475394Y-327512D02*
G54D10*
D03*
X461394Y-386112D02*
G54D10*
D03*
X461394Y-365512D02*
G54D10*
D03*
X533408Y-385210D02*
G54D10*
D03*
X533408Y-364610D02*
G54D10*
D03*
X533214Y-347129D02*
G54D20*
D03*
X533214Y-322429D02*
G54D20*
D03*
X533306Y-308366D02*
G54D10*
D03*
X533306Y-287766D02*
G54D10*
D03*
X533408Y-364610D02*
G54D10*
D03*
X514408Y-385210D02*
G54D10*
D03*
X514408Y-364610D02*
G54D10*
D03*
X514214Y-347129D02*
G54D20*
D03*
X514214Y-322429D02*
G54D20*
D03*
X514306Y-308366D02*
G54D10*
D03*
X514306Y-287766D02*
G54D10*
D03*
X514408Y-364610D02*
G54D10*
D03*
X495408Y-385210D02*
G54D10*
D03*
X495408Y-364610D02*
G54D10*
D03*
X495214Y-347129D02*
G54D20*
D03*
X495214Y-322429D02*
G54D20*
D03*
X495306Y-308366D02*
G54D10*
D03*
X495306Y-287766D02*
G54D10*
D03*
X495408Y-364610D02*
G54D10*
D03*
G36*
X588626Y-311529D02*
X579434Y-320722D01*
X568120Y-309408D01*
X577313Y-300215D01*
X588626Y-311529D01*
G37*
G36*
X574059Y-326096D02*
X564867Y-335288D01*
X553553Y-323974D01*
X562746Y-314782D01*
X574059Y-326096D01*
G37*
G36*
X603626Y-326529D02*
X594434Y-335722D01*
X583120Y-324408D01*
X592313Y-315215D01*
X603626Y-326529D01*
G37*
G36*
X589060Y-341096D02*
X579867Y-350288D01*
X568553Y-338975D01*
X577746Y-329782D01*
X589060Y-341096D01*
G37*
X433901Y-362300D02*
G54D17*
D03*
X433900Y-387700D02*
G54D17*
D03*
X675850Y-416450D02*
G54D14*
D03*
X675850Y-368050D02*
G54D14*
D03*
X676200Y-272900D02*
G54D15*
D03*
X676200Y-323700D02*
G54D15*
D03*
X632101Y-383600D02*
G54D12*
D03*
X652701Y-383600D02*
G54D12*
D03*
X653988Y-400567D02*
G54D16*
D03*
X629288Y-400567D02*
G54D16*
D03*
X644448Y-437847D02*
G54D10*
D03*
X644448Y-417247D02*
G54D10*
D03*
X525141Y-424556D02*
G54D12*
D03*
G36*
X539241Y-416556D02*
X552241Y-416556D01*
X552241Y-432556D01*
X539241Y-432556D01*
X539241Y-416556D01*
G37*
X545600Y-461800D02*
G54D10*
D03*
X545600Y-441200D02*
G54D10*
D03*
X565620Y-417277D02*
G54D26*
D03*
X591020Y-417277D02*
G54D26*
D03*
X616420Y-417277D02*
G54D26*
D03*
X700000Y-324000D02*
G54D13*
D03*
X700000Y-293500D02*
G54D13*
D03*
X715200Y-324000D02*
G54D13*
D03*
X715200Y-293500D02*
G54D13*
D03*
X730400Y-324000D02*
G54D13*
D03*
X730400Y-293500D02*
G54D13*
D03*
X717901Y-362300D02*
G54D17*
D03*
X717900Y-387700D02*
G54D17*
D03*
X822437Y-239218D02*
G54D11*
D03*
X841437Y-239217D02*
G54D11*
D03*
X831937Y-261418D02*
G54D11*
D03*
X822437Y-184818D02*
G54D11*
D03*
X841437Y-184817D02*
G54D11*
D03*
X831937Y-207018D02*
G54D11*
D03*
X841665Y-328694D02*
G54D12*
D03*
G36*
X855765Y-320694D02*
X868765Y-320694D01*
X868765Y-336694D01*
X855765Y-336694D01*
X855765Y-320694D01*
G37*
X861712Y-239746D02*
G54D10*
D03*
X861712Y-260347D02*
G54D10*
D03*
X859712Y-185146D02*
G54D10*
D03*
X859712Y-205746D02*
G54D10*
D03*
X794937Y-318218D02*
G54D30*
D03*
X794937Y-267418D02*
G54D30*
D03*
X896537Y-292818D02*
G54D30*
D03*
X794937Y-426218D02*
G54D30*
D03*
X794937Y-375418D02*
G54D30*
D03*
X896537Y-400818D02*
G54D30*
D03*
X794937Y-210218D02*
G54D30*
D03*
X794937Y-159418D02*
G54D30*
D03*
X896537Y-184818D02*
G54D30*
D03*
X875413Y-367337D02*
G54D11*
D03*
X875412Y-348337D02*
G54D11*
D03*
X897613Y-357837D02*
G54D11*
D03*
X960058Y-355793D02*
G54D12*
D03*
X939458Y-355793D02*
G54D12*
D03*
X859688Y-368109D02*
G54D10*
D03*
X859688Y-347510D02*
G54D10*
D03*
X916015Y-377190D02*
G54D12*
D03*
X936615Y-377190D02*
G54D12*
D03*
X843413Y-301337D02*
G54D11*
D03*
X843412Y-282337D02*
G54D11*
D03*
X865613Y-291837D02*
G54D11*
D03*
X827688Y-302109D02*
G54D10*
D03*
X827688Y-281510D02*
G54D10*
D03*
X909413Y-243337D02*
G54D11*
D03*
X909413Y-224337D02*
G54D11*
D03*
X931613Y-233837D02*
G54D11*
D03*
X893688Y-244909D02*
G54D10*
D03*
X893688Y-224310D02*
G54D10*
D03*
X960058Y-295793D02*
G54D12*
D03*
X939458Y-295793D02*
G54D12*
D03*
X960058Y-213793D02*
G54D12*
D03*
X939458Y-213793D02*
G54D12*
D03*
X935072Y-335819D02*
G54D12*
D03*
X914472Y-335819D02*
G54D12*
D03*
X949072Y-261819D02*
G54D12*
D03*
X928472Y-261819D02*
G54D12*
D03*
X681698Y-242948D02*
G54D10*
D03*
X681698Y-222348D02*
G54D10*
D03*
X723196Y-201426D02*
G54D11*
D03*
X723196Y-182426D02*
G54D11*
D03*
X745396Y-191926D02*
G54D11*
D03*
X706506Y-200681D02*
G54D10*
D03*
X706506Y-180081D02*
G54D10*
D03*
X711298Y-242948D02*
G54D10*
D03*
X711298Y-222348D02*
G54D10*
D03*
X739400Y-422400D02*
G54D12*
D03*
X718800Y-422400D02*
G54D12*
D03*
X739400Y-385800D02*
G54D11*
D03*
X739400Y-366800D02*
G54D11*
D03*
X761600Y-376300D02*
G54D11*
D03*
X739400Y-402800D02*
G54D12*
D03*
G36*
X753500Y-394800D02*
X766500Y-394800D01*
X766500Y-410800D01*
X753500Y-410800D01*
X753500Y-394800D01*
G37*
X760000Y-420800D02*
G54D10*
D03*
X760000Y-441400D02*
G54D10*
D03*
X759281Y-135458D02*
G54D29*
D03*
X651518Y-243220D02*
G54D29*
D03*
X591000Y-116000D02*
G54D18*
D03*
X591000Y-216000D02*
G54D18*
D03*
X626000Y-131000D02*
G54D19*
D03*
X556000Y-131000D02*
G54D19*
D03*
X626000Y-166000D02*
G54D19*
D03*
X556000Y-201000D02*
G54D19*
D03*
X626000Y-201000D02*
G54D19*
D03*
X591000Y-273000D02*
G54D18*
D03*
X591000Y-373000D02*
G54D18*
D03*
X626000Y-288000D02*
G54D19*
D03*
X556000Y-288000D02*
G54D19*
D03*
X626000Y-323000D02*
G54D19*
D03*
X556000Y-358000D02*
G54D19*
D03*
X626000Y-358000D02*
G54D19*
D03*
G36*
X304626Y-311529D02*
X295434Y-320722D01*
X284120Y-309408D01*
X293313Y-300216D01*
X304626Y-311529D01*
G37*
G36*
X290059Y-326096D02*
X280867Y-335288D01*
X269553Y-323974D01*
X278746Y-314782D01*
X290059Y-326096D01*
G37*
G36*
X319626Y-326529D02*
X310434Y-335722D01*
X299120Y-324408D01*
X308312Y-315215D01*
X319626Y-326529D01*
G37*
G36*
X305060Y-341096D02*
X295867Y-350288D01*
X284553Y-338975D01*
X293746Y-329782D01*
X305060Y-341096D01*
G37*
X307000Y-273000D02*
G54D18*
D03*
X307000Y-373000D02*
G54D18*
D03*
X342000Y-288000D02*
G54D19*
D03*
X272000Y-288000D02*
G54D19*
D03*
X342000Y-323000D02*
G54D19*
D03*
X272000Y-358000D02*
G54D19*
D03*
X342000Y-358000D02*
G54D19*
D03*
M02*
