%FSLAX34Y34*%
%MOMM*%
%LNSMDMASK_BOTTOM*%
G71*
G01*
%ADD10R,1.400X1.100*%
%ADD11R,1.100X1.100*%
%ADD12R,1.100X1.400*%
%ADD13R,2.000X1.500*%
%ADD14R,2.600X1.100*%
%ADD15R,4.000X1.400*%
%ADD16R,0.900X1.200*%
%ADD17R,0.600X2.200*%
%ADD18R,2.000X0.900*%
%ADD19R,3.000X3.000*%
%LPD*%
X374322Y-188773D02*
G54D10*
D03*
X374322Y-209373D02*
G54D10*
D03*
X390918Y-180136D02*
G54D11*
D03*
X390918Y-199136D02*
G54D11*
D03*
X413118Y-189636D02*
G54D11*
D03*
X426676Y-144389D02*
G54D11*
D03*
X426676Y-163389D02*
G54D11*
D03*
X448876Y-153889D02*
G54D11*
D03*
X389152Y-162289D02*
G54D12*
D03*
G36*
X404252Y-155289D02*
X415252Y-155289D01*
X415253Y-169289D01*
X404253Y-169289D01*
X404252Y-155289D01*
G37*
X430772Y-180598D02*
G54D10*
D03*
X430772Y-201198D02*
G54D10*
D03*
X449872Y-180598D02*
G54D10*
D03*
X449872Y-201198D02*
G54D10*
D03*
X418504Y-126308D02*
G54D12*
D03*
X439104Y-126308D02*
G54D12*
D03*
X371553Y-75953D02*
G54D10*
D03*
X371553Y-96553D02*
G54D10*
D03*
X391553Y-75953D02*
G54D10*
D03*
X391553Y-96553D02*
G54D10*
D03*
X411553Y-75953D02*
G54D10*
D03*
X411553Y-96553D02*
G54D10*
D03*
X73626Y-102503D02*
G54D10*
D03*
X73626Y-123103D02*
G54D10*
D03*
X53059Y-150994D02*
G54D12*
D03*
X73659Y-150994D02*
G54D12*
D03*
X105000Y-200799D02*
G54D13*
D03*
X105000Y-238299D02*
G54D13*
D03*
X105001Y-204999D02*
G54D14*
D03*
X105001Y-233999D02*
G54D14*
D03*
X151271Y-244248D02*
G54D10*
D03*
X151271Y-264848D02*
G54D10*
D03*
X25000Y-151000D02*
G54D15*
D03*
X73626Y-123103D02*
G54D10*
D03*
X180196Y-244050D02*
G54D16*
D03*
X203196Y-244050D02*
G54D16*
D03*
X191696Y-244050D02*
G54D17*
D03*
X655553Y-75953D02*
G54D10*
D03*
X655553Y-96553D02*
G54D10*
D03*
X675553Y-75953D02*
G54D10*
D03*
X675553Y-96553D02*
G54D10*
D03*
X695553Y-75953D02*
G54D10*
D03*
X695553Y-96553D02*
G54D10*
D03*
X242448Y-412947D02*
G54D10*
D03*
X242448Y-392347D02*
G54D10*
D03*
X222448Y-412947D02*
G54D10*
D03*
X222448Y-392347D02*
G54D10*
D03*
X202448Y-412947D02*
G54D10*
D03*
X202448Y-392347D02*
G54D10*
D03*
X52961Y-351023D02*
G54D12*
D03*
G36*
X68060Y-344023D02*
X79060Y-344023D01*
X79061Y-358023D01*
X68061Y-358023D01*
X68060Y-344023D01*
G37*
X25000Y-351000D02*
G54D15*
D03*
X153001Y-341499D02*
G54D13*
D03*
X153000Y-303999D02*
G54D13*
D03*
X153000Y-337299D02*
G54D14*
D03*
X153000Y-308299D02*
G54D14*
D03*
X895762Y-72813D02*
G54D18*
D03*
X895762Y-85513D02*
G54D18*
D03*
X895762Y-98213D02*
G54D18*
D03*
X895762Y-110913D02*
G54D18*
D03*
X526408Y-412210D02*
G54D10*
D03*
X526408Y-391610D02*
G54D10*
D03*
X506408Y-412210D02*
G54D10*
D03*
X506408Y-391610D02*
G54D10*
D03*
X486408Y-412210D02*
G54D10*
D03*
X486408Y-391610D02*
G54D10*
D03*
X522279Y-300227D02*
G54D10*
D03*
X522279Y-279627D02*
G54D10*
D03*
X505682Y-308864D02*
G54D11*
D03*
X505682Y-289864D02*
G54D11*
D03*
X483482Y-299364D02*
G54D11*
D03*
X469924Y-344611D02*
G54D11*
D03*
X469924Y-325611D02*
G54D11*
D03*
X447724Y-335111D02*
G54D11*
D03*
X507448Y-326711D02*
G54D12*
D03*
X486848Y-326711D02*
G54D12*
D03*
X465829Y-308402D02*
G54D10*
D03*
X465829Y-287802D02*
G54D10*
D03*
X446729Y-308402D02*
G54D10*
D03*
X446729Y-287802D02*
G54D10*
D03*
X478097Y-362692D02*
G54D12*
D03*
X457497Y-362692D02*
G54D12*
D03*
X762248Y-354866D02*
G54D10*
D03*
X762248Y-375466D02*
G54D10*
D03*
X745919Y-269729D02*
G54D11*
D03*
X764919Y-269729D02*
G54D11*
D03*
X755419Y-291929D02*
G54D11*
D03*
X753341Y-306370D02*
G54D10*
D03*
X753341Y-326970D02*
G54D10*
D03*
X764606Y-227888D02*
G54D10*
D03*
X764606Y-248488D02*
G54D10*
D03*
X804753Y-238334D02*
G54D12*
D03*
X784153Y-238334D02*
G54D12*
D03*
X727118Y-321509D02*
G54D10*
D03*
X727118Y-300909D02*
G54D10*
D03*
X726991Y-285058D02*
G54D10*
D03*
X726991Y-264458D02*
G54D10*
D03*
X711245Y-248641D02*
G54D10*
D03*
X711245Y-228041D02*
G54D10*
D03*
X924536Y-411018D02*
G54D10*
D03*
X924537Y-390418D02*
G54D10*
D03*
X924753Y-303147D02*
G54D10*
D03*
X924753Y-282547D02*
G54D10*
D03*
X924953Y-195347D02*
G54D10*
D03*
X924953Y-174747D02*
G54D10*
D03*
X794453Y-111232D02*
G54D19*
D03*
X794453Y-66232D02*
G54D19*
D03*
M02*
