%FSLAX34Y34*%
%MOMM*%
%LNSOLDERMASK_BOTTOM*%
G71*
G01*
%ADD10R,1.600X1.300*%
%ADD11R,1.300X1.300*%
%ADD12R,1.300X1.600*%
%ADD13C,3.300*%
%ADD14C,3.500*%
%ADD15C,2.600*%
%ADD16C,4.100*%
%ADD17C,2.900*%
%ADD18R,2.200X1.700*%
%ADD19R,2.800X1.300*%
%ADD20R,4.200X1.600*%
%ADD21R,1.100X1.400*%
%ADD22R,0.800X2.400*%
%ADD23C,2.700*%
%ADD24R,2.200X1.100*%
%ADD25C,2.900*%
%ADD26C,3.900*%
%ADD27R,3.200X3.200*%
%LPD*%
X374322Y-188773D02*
G54D10*
D03*
X374322Y-209373D02*
G54D10*
D03*
X390918Y-180136D02*
G54D11*
D03*
X390918Y-199136D02*
G54D11*
D03*
X413118Y-189636D02*
G54D11*
D03*
X426676Y-144389D02*
G54D11*
D03*
X426676Y-163389D02*
G54D11*
D03*
X448876Y-153889D02*
G54D11*
D03*
X389152Y-162289D02*
G54D12*
D03*
G36*
X403252Y-154289D02*
X416252Y-154289D01*
X416253Y-170289D01*
X403253Y-170289D01*
X403252Y-154289D01*
G37*
X430772Y-180598D02*
G54D10*
D03*
X430772Y-201198D02*
G54D10*
D03*
X449872Y-180598D02*
G54D10*
D03*
X449872Y-201198D02*
G54D10*
D03*
X418504Y-126308D02*
G54D12*
D03*
X439104Y-126308D02*
G54D12*
D03*
X506150Y-72550D02*
G54D13*
D03*
X506150Y-120950D02*
G54D13*
D03*
X505800Y-165300D02*
G54D14*
D03*
X505800Y-216100D02*
G54D14*
D03*
X462700Y-126700D02*
G54D15*
D03*
X462700Y-101300D02*
G54D15*
D03*
X307000Y-116000D02*
G54D16*
D03*
X307000Y-216000D02*
G54D16*
D03*
X342000Y-131000D02*
G54D17*
D03*
X272000Y-131000D02*
G54D17*
D03*
X342000Y-166000D02*
G54D17*
D03*
X272000Y-201000D02*
G54D17*
D03*
X342000Y-201000D02*
G54D17*
D03*
X222150Y-72550D02*
G54D13*
D03*
X222150Y-120950D02*
G54D13*
D03*
X221800Y-165300D02*
G54D14*
D03*
X221800Y-216100D02*
G54D14*
D03*
X371553Y-75953D02*
G54D10*
D03*
X371553Y-96553D02*
G54D10*
D03*
X391553Y-75953D02*
G54D10*
D03*
X391553Y-96553D02*
G54D10*
D03*
X411553Y-75953D02*
G54D10*
D03*
X411553Y-96553D02*
G54D10*
D03*
X178700Y-126700D02*
G54D15*
D03*
X178700Y-101300D02*
G54D15*
D03*
X73626Y-102503D02*
G54D10*
D03*
X73626Y-123103D02*
G54D10*
D03*
X53059Y-150994D02*
G54D12*
D03*
X73659Y-150994D02*
G54D12*
D03*
X105000Y-200799D02*
G54D18*
D03*
X105000Y-238299D02*
G54D18*
D03*
X105001Y-204999D02*
G54D19*
D03*
X105001Y-233999D02*
G54D19*
D03*
X151271Y-244248D02*
G54D10*
D03*
X151271Y-264848D02*
G54D10*
D03*
X25000Y-151000D02*
G54D20*
D03*
X73626Y-123103D02*
G54D10*
D03*
X180196Y-244050D02*
G54D21*
D03*
X203196Y-244050D02*
G54D21*
D03*
X191696Y-244050D02*
G54D22*
D03*
X655553Y-75953D02*
G54D10*
D03*
X655553Y-96553D02*
G54D10*
D03*
X675553Y-75953D02*
G54D10*
D03*
X675553Y-96553D02*
G54D10*
D03*
X695553Y-75953D02*
G54D10*
D03*
X695553Y-96553D02*
G54D10*
D03*
X391850Y-416450D02*
G54D13*
D03*
X391850Y-368050D02*
G54D13*
D03*
X392200Y-272900D02*
G54D14*
D03*
X392200Y-323700D02*
G54D14*
D03*
X242448Y-412947D02*
G54D10*
D03*
X242448Y-392347D02*
G54D10*
D03*
X222448Y-412947D02*
G54D10*
D03*
X222448Y-392347D02*
G54D10*
D03*
X202448Y-412947D02*
G54D10*
D03*
X202448Y-392347D02*
G54D10*
D03*
X52961Y-351023D02*
G54D12*
D03*
G36*
X67060Y-343023D02*
X80060Y-343023D01*
X80061Y-359023D01*
X67061Y-359023D01*
X67060Y-343023D01*
G37*
X25000Y-351000D02*
G54D20*
D03*
X153001Y-341499D02*
G54D18*
D03*
X153000Y-303999D02*
G54D18*
D03*
X153000Y-337299D02*
G54D19*
D03*
X153000Y-308299D02*
G54D19*
D03*
X934720Y-65180D02*
G54D23*
D03*
X952680Y-47220D02*
G54D23*
D03*
X436468Y-250468D02*
G54D15*
D03*
X418507Y-232507D02*
G54D15*
D03*
X895762Y-72813D02*
G54D24*
D03*
X895762Y-85513D02*
G54D24*
D03*
X895762Y-98213D02*
G54D24*
D03*
X895762Y-110913D02*
G54D24*
D03*
X869412Y-40569D02*
G54D25*
D03*
X759426Y-104069D02*
G54D25*
D03*
X616380Y-71723D02*
G54D23*
D03*
X590980Y-71723D02*
G54D23*
D03*
X565580Y-71723D02*
G54D23*
D03*
X332380Y-71723D02*
G54D23*
D03*
X306980Y-71723D02*
G54D23*
D03*
X281580Y-71723D02*
G54D23*
D03*
X281620Y-417277D02*
G54D23*
D03*
X307020Y-417277D02*
G54D23*
D03*
X332420Y-417277D02*
G54D23*
D03*
X526408Y-412210D02*
G54D10*
D03*
X526408Y-391610D02*
G54D10*
D03*
X506408Y-412210D02*
G54D10*
D03*
X506408Y-391610D02*
G54D10*
D03*
X486408Y-412210D02*
G54D10*
D03*
X486408Y-391610D02*
G54D10*
D03*
X522279Y-300227D02*
G54D10*
D03*
X522279Y-279627D02*
G54D10*
D03*
X505682Y-308864D02*
G54D11*
D03*
X505682Y-289864D02*
G54D11*
D03*
X483482Y-299364D02*
G54D11*
D03*
X469924Y-344611D02*
G54D11*
D03*
X469924Y-325611D02*
G54D11*
D03*
X447724Y-335111D02*
G54D11*
D03*
X507448Y-326711D02*
G54D12*
D03*
X486848Y-326711D02*
G54D12*
D03*
X465829Y-308402D02*
G54D10*
D03*
X465829Y-287802D02*
G54D10*
D03*
X446729Y-308402D02*
G54D10*
D03*
X446729Y-287802D02*
G54D10*
D03*
X478097Y-362692D02*
G54D12*
D03*
X457497Y-362692D02*
G54D12*
D03*
X433901Y-362300D02*
G54D15*
D03*
X433900Y-387700D02*
G54D15*
D03*
X675850Y-416450D02*
G54D13*
D03*
X675850Y-368050D02*
G54D13*
D03*
X676200Y-272900D02*
G54D14*
D03*
X676200Y-323700D02*
G54D14*
D03*
X565620Y-417277D02*
G54D23*
D03*
X591020Y-417277D02*
G54D23*
D03*
X616420Y-417277D02*
G54D23*
D03*
X717901Y-362300D02*
G54D15*
D03*
X717900Y-387700D02*
G54D15*
D03*
X794937Y-318218D02*
G54D26*
D03*
X794937Y-267418D02*
G54D26*
D03*
X896537Y-292818D02*
G54D26*
D03*
X794937Y-426218D02*
G54D26*
D03*
X794937Y-375418D02*
G54D26*
D03*
X896537Y-400818D02*
G54D26*
D03*
X794937Y-210218D02*
G54D26*
D03*
X794937Y-159418D02*
G54D26*
D03*
X896537Y-184818D02*
G54D26*
D03*
X762248Y-354866D02*
G54D10*
D03*
X762248Y-375466D02*
G54D10*
D03*
X745919Y-269729D02*
G54D11*
D03*
X764919Y-269729D02*
G54D11*
D03*
X755419Y-291929D02*
G54D11*
D03*
X753341Y-306370D02*
G54D10*
D03*
X753341Y-326970D02*
G54D10*
D03*
X764606Y-227888D02*
G54D10*
D03*
X764606Y-248488D02*
G54D10*
D03*
X804753Y-238334D02*
G54D12*
D03*
X784153Y-238334D02*
G54D12*
D03*
X727118Y-321509D02*
G54D10*
D03*
X727118Y-300909D02*
G54D10*
D03*
X726991Y-285058D02*
G54D10*
D03*
X726991Y-264458D02*
G54D10*
D03*
X711245Y-248641D02*
G54D10*
D03*
X711245Y-228041D02*
G54D10*
D03*
X924536Y-411018D02*
G54D10*
D03*
X924537Y-390418D02*
G54D10*
D03*
X924753Y-303147D02*
G54D10*
D03*
X924753Y-282547D02*
G54D10*
D03*
X924953Y-195347D02*
G54D10*
D03*
X924953Y-174747D02*
G54D10*
D03*
X794453Y-111232D02*
G54D27*
D03*
X794453Y-66232D02*
G54D27*
D03*
X759281Y-135458D02*
G54D25*
D03*
X651518Y-243220D02*
G54D25*
D03*
X591000Y-116000D02*
G54D16*
D03*
X591000Y-216000D02*
G54D16*
D03*
X626000Y-131000D02*
G54D17*
D03*
X556000Y-131000D02*
G54D17*
D03*
X626000Y-166000D02*
G54D17*
D03*
X556000Y-201000D02*
G54D17*
D03*
X626000Y-201000D02*
G54D17*
D03*
X591000Y-273000D02*
G54D16*
D03*
X591000Y-373000D02*
G54D16*
D03*
X626000Y-288000D02*
G54D17*
D03*
X556000Y-288000D02*
G54D17*
D03*
X626000Y-323000D02*
G54D17*
D03*
X556000Y-358000D02*
G54D17*
D03*
X626000Y-358000D02*
G54D17*
D03*
X307000Y-273000D02*
G54D16*
D03*
X307000Y-373000D02*
G54D16*
D03*
X342000Y-288000D02*
G54D17*
D03*
X272000Y-288000D02*
G54D17*
D03*
X342000Y-323000D02*
G54D17*
D03*
X272000Y-358000D02*
G54D17*
D03*
X342000Y-358000D02*
G54D17*
D03*
M02*
