%FSLAX34Y34*%
%MOMM*%
%LNCOPPER_TOP*%
G71*
G01*
%ADD10R,2.400X2.100*%
%ADD11C,0.900*%
%ADD12R,1.900X1.900*%
%ADD13R,2.100X2.400*%
%ADD14R,1.900X2.200*%
%ADD15R,1.600X2.400*%
%ADD16C,3.500*%
%ADD17C,3.700*%
%ADD18C,2.400*%
%ADD19C,1.600*%
%ADD20C,2.100*%
%ADD21C,1.900*%
%ADD22C,2.800*%
%ADD23C,3.100*%
%ADD24R,1.900X2.050*%
%ADD25C,1.700*%
%ADD26R,2.200X1.900*%
%ADD27C,1.400*%
%ADD28C,1.500*%
%ADD29C,1.400*%
%ADD30C,1.800*%
%ADD31C,0.800*%
%ADD32R,1.700X1.850*%
%ADD33R,2.300X2.800*%
%ADD34R,1.900X3.400*%
%ADD35C,2.000*%
%ADD36C,2.000*%
%ADD37C,1.300*%
%ADD38R,2.000X1.700*%
%ADD39R,1.850X1.700*%
%ADD40C,2.900*%
%ADD41R,1.700X2.000*%
%ADD42C,3.100*%
%ADD43C,0.500*%
%ADD44C,4.100*%
%ADD45C,1.600*%
%ADD46R,1.400X1.100*%
%ADD47R,1.100X1.100*%
%ADD48R,1.100X1.400*%
%ADD49R,0.800X1.600*%
%ADD50C,2.700*%
%ADD51C,2.900*%
%ADD52R,1.050X0.900*%
%ADD53C,1.100*%
%ADD54C,2.000*%
%ADD55C,3.500*%
%ADD56C,2.300*%
%ADD57R,0.900X1.050*%
%ADD58C,0.600*%
%ADD59C,0.700*%
%ADD60C,0.600*%
%ADD61C,1.000*%
%ADD62R,1.500X2.000*%
%ADD63R,1.100X2.600*%
%ADD64C,1.200*%
%ADD65C,1.200*%
%ADD66R,1.200X0.900*%
%ADD67R,2.200X0.600*%
%ADD68C,2.100*%
%ADD69R,0.900X1.200*%
%ADD70R,0.600X2.200*%
%ADD71C,2.300*%
%ADD72C,3.300*%
%ADD73C,0.800*%
%LPD*%
G36*
X0Y0D02*
X1002000Y0D01*
X1002000Y-502000D01*
X0Y-502000D01*
X0Y0D01*
G37*
%LPC*%
X436606Y-102888D02*
G54D10*
D03*
X436606Y-123488D02*
G54D10*
D03*
G36*
X473772Y-189598D02*
X466431Y-189598D01*
X466431Y-153252D01*
X473772Y-153252D01*
X473772Y-189598D01*
G37*
G54D11*
X473772Y-189598D02*
X466431Y-189598D01*
X466431Y-153252D01*
X473772Y-153252D01*
X473772Y-189598D01*
X123627Y-104377D02*
G54D12*
D03*
X104627Y-104377D02*
G54D12*
D03*
X114127Y-82177D02*
G54D12*
D03*
X90225Y-121194D02*
G54D13*
D03*
X110825Y-121194D02*
G54D13*
D03*
X69805Y-131641D02*
G54D10*
D03*
X69805Y-111041D02*
G54D10*
D03*
X158027Y-104378D02*
G54D12*
D03*
X139027Y-104378D02*
G54D12*
D03*
X148527Y-82178D02*
G54D12*
D03*
X126825Y-121194D02*
G54D13*
D03*
X147424Y-121194D02*
G54D13*
D03*
X132572Y-45648D02*
G54D10*
D03*
X132572Y-66248D02*
G54D10*
D03*
X130272Y-141848D02*
G54D10*
D03*
X130272Y-162448D02*
G54D10*
D03*
X149272Y-141848D02*
G54D10*
D03*
X149272Y-162448D02*
G54D10*
D03*
X165459Y-77194D02*
G54D13*
D03*
X186059Y-77194D02*
G54D13*
D03*
X130380Y-181804D02*
G54D14*
D03*
X114127Y-66177D02*
G54D14*
D03*
X452000Y-196000D02*
G54D15*
D03*
X452000Y-165500D02*
G54D15*
D03*
X467200Y-196000D02*
G54D15*
D03*
X467200Y-165500D02*
G54D15*
D03*
X482400Y-196000D02*
G54D15*
D03*
X482400Y-165500D02*
G54D15*
D03*
X506150Y-72550D02*
G54D16*
D03*
X506150Y-120950D02*
G54D16*
D03*
X505800Y-165300D02*
G54D17*
D03*
X505800Y-216100D02*
G54D17*
D03*
G54D18*
X486400Y-165500D02*
X505600Y-165500D01*
X505800Y-165300D01*
G36*
X486400Y-153500D02*
X486400Y-177500D01*
X474400Y-177500D01*
X474400Y-153500D01*
X486400Y-153500D01*
G37*
G54D19*
X452000Y-196000D02*
X452000Y-210000D01*
X456000Y-214000D01*
X493000Y-214000D01*
X504900Y-217000D01*
X505800Y-216100D01*
G54D19*
X452000Y-165500D02*
X452000Y-154000D01*
X460000Y-146000D01*
X481100Y-146000D01*
X506150Y-120950D01*
G54D20*
X505800Y-165300D02*
X556000Y-131000D01*
G54D21*
X529300Y-105400D02*
X529287Y-98238D01*
X527612Y-88033D01*
X506150Y-72550D01*
X537553Y-51153D02*
G54D10*
D03*
X537553Y-71753D02*
G54D10*
D03*
G54D19*
X527612Y-88033D02*
X537553Y-70253D01*
G54D19*
X537553Y-49653D02*
X581653Y-49653D01*
X591000Y-59000D01*
X591000Y-71703D01*
X590980Y-71723D01*
G54D21*
X556000Y-131000D02*
X626000Y-201000D01*
X462700Y-126700D02*
G54D22*
D03*
X462700Y-101300D02*
G54D22*
D03*
G36*
X189772Y-189598D02*
X182431Y-189598D01*
X182431Y-153252D01*
X189772Y-153252D01*
X189772Y-189598D01*
G37*
G54D11*
X189772Y-189598D02*
X182431Y-189598D01*
X182431Y-153252D01*
X189772Y-153252D01*
X189772Y-189598D01*
X168000Y-196000D02*
G54D15*
D03*
X168000Y-165500D02*
G54D15*
D03*
X183200Y-196000D02*
G54D15*
D03*
X183200Y-165500D02*
G54D15*
D03*
X198400Y-196000D02*
G54D15*
D03*
X198400Y-165500D02*
G54D15*
D03*
X272000Y-131000D02*
G54D23*
D03*
X342000Y-201000D02*
G54D23*
D03*
X222150Y-72550D02*
G54D16*
D03*
X222150Y-120950D02*
G54D16*
D03*
X221800Y-165300D02*
G54D17*
D03*
X221800Y-216100D02*
G54D17*
D03*
G54D18*
X202400Y-165500D02*
X221600Y-165500D01*
X221800Y-165300D01*
G36*
X202400Y-153500D02*
X202400Y-177500D01*
X190400Y-177500D01*
X190400Y-153500D01*
X202400Y-153500D01*
G37*
G54D19*
X168000Y-196000D02*
X168000Y-210000D01*
X172000Y-214000D01*
X209000Y-214000D01*
X220900Y-217000D01*
X221800Y-216100D01*
G54D19*
X168000Y-165500D02*
X168000Y-154000D01*
X176000Y-146000D01*
X197100Y-146000D01*
X222150Y-120950D01*
G54D20*
X221800Y-165300D02*
X272000Y-131000D01*
G54D21*
X245301Y-107038D02*
X245287Y-98238D01*
X243339Y-89580D01*
X222150Y-72550D01*
G36*
X235801Y-107053D02*
X254801Y-107023D01*
X254816Y-116523D01*
X235816Y-116553D01*
X235801Y-107053D01*
G37*
X253553Y-51153D02*
G54D10*
D03*
X253553Y-71753D02*
G54D10*
D03*
G54D19*
X243612Y-88033D02*
X253553Y-70253D01*
G54D19*
X253553Y-49653D02*
X297653Y-49653D01*
X307000Y-59000D01*
X307000Y-71703D01*
X306980Y-71723D01*
G54D21*
X350659Y-80344D02*
X332659Y-72002D01*
X332380Y-71723D01*
X352400Y-41100D02*
G54D10*
D03*
X352400Y-61700D02*
G54D10*
D03*
X364747Y-141034D02*
G54D24*
D03*
X364747Y-165734D02*
G54D24*
D03*
X364655Y-179797D02*
G54D10*
D03*
X364655Y-200397D02*
G54D10*
D03*
G54D25*
X364647Y-137859D02*
X364553Y-123553D01*
G54D25*
X364747Y-165734D02*
X364655Y-179797D01*
X364553Y-123553D02*
G54D26*
D03*
X383747Y-141034D02*
G54D24*
D03*
X383747Y-165734D02*
G54D24*
D03*
X383655Y-179797D02*
G54D10*
D03*
X383655Y-200397D02*
G54D10*
D03*
G54D25*
X383647Y-137859D02*
X383553Y-123553D01*
G54D25*
X383747Y-165734D02*
X383655Y-179797D01*
X383553Y-123553D02*
G54D26*
D03*
X402747Y-141034D02*
G54D24*
D03*
X402747Y-165734D02*
G54D24*
D03*
X402655Y-179797D02*
G54D10*
D03*
X402655Y-200397D02*
G54D10*
D03*
G54D25*
X402647Y-137859D02*
X402553Y-123553D01*
G54D25*
X402747Y-165734D02*
X402655Y-179797D01*
X402553Y-123553D02*
G54D26*
D03*
X364468Y-146113D02*
G54D27*
D03*
X383468Y-146113D02*
G54D27*
D03*
X402468Y-146113D02*
G54D27*
D03*
G54D28*
X364468Y-146113D02*
X364468Y-138038D01*
X364647Y-137859D01*
G54D28*
X383468Y-146113D02*
X383468Y-138038D01*
X383647Y-137859D01*
G54D28*
X402468Y-146113D02*
X402468Y-138038D01*
X402647Y-137859D01*
G54D21*
X272000Y-131000D02*
X342000Y-201000D01*
X178700Y-126700D02*
G54D22*
D03*
X178700Y-101300D02*
G54D22*
D03*
X416468Y-198113D02*
G54D27*
D03*
X444468Y-141113D02*
G54D27*
D03*
X431468Y-210113D02*
G54D27*
D03*
G54D29*
X416468Y-198113D02*
X418000Y-196581D01*
X418000Y-171000D01*
X422606Y-161488D01*
G54D28*
X422606Y-161488D02*
X435512Y-161488D01*
X439000Y-158000D01*
X439000Y-146581D01*
X444468Y-141113D01*
G54D28*
X444468Y-141113D02*
X440000Y-135000D01*
X436606Y-123488D01*
G54D19*
X431468Y-210113D02*
X433706Y-200366D01*
G54D25*
X243000Y-34000D02*
X956000Y-34000D01*
G54D30*
X332380Y-71723D02*
X342377Y-71723D01*
X352400Y-61700D01*
G54D30*
X350659Y-80344D02*
X350659Y-63441D01*
X352400Y-61700D01*
G54D21*
X351300Y-81800D02*
X351300Y-69800D01*
G36*
X341800Y-81800D02*
X360800Y-81800D01*
X360800Y-91300D01*
X341800Y-91300D01*
X341800Y-81800D01*
G37*
G36*
X360800Y-69800D02*
X341800Y-69800D01*
X341800Y-60300D01*
X360800Y-60300D01*
X360800Y-69800D01*
G37*
G54D21*
X402655Y-200397D02*
X342603Y-200397D01*
X342000Y-201000D01*
X433706Y-200366D02*
G54D26*
D03*
G54D21*
X529301Y-107038D02*
X529287Y-98238D01*
X527339Y-89580D01*
X506150Y-72550D01*
G36*
X519801Y-107053D02*
X538801Y-107023D01*
X538816Y-116523D01*
X519816Y-116553D01*
X519801Y-107053D01*
G37*
X422606Y-161488D02*
G54D26*
D03*
G36*
X409474Y-129187D02*
X409474Y-166025D01*
X357554Y-172234D01*
X357554Y-129187D01*
X409474Y-129187D01*
G37*
G54D31*
X409474Y-129187D02*
X409474Y-166025D01*
X357554Y-172234D01*
X357554Y-129187D01*
X409474Y-129187D01*
G36*
X454260Y-167641D02*
X415821Y-167641D01*
X415821Y-156996D01*
X454260Y-156996D01*
X454260Y-167641D01*
G37*
G54D31*
X454260Y-167641D02*
X415821Y-167641D01*
X415821Y-156996D01*
X454260Y-156996D01*
X454260Y-167641D01*
G36*
X462000Y-160000D02*
X435468Y-160000D01*
X435468Y-93338D01*
X462000Y-93338D01*
X462000Y-160000D01*
G37*
G54D31*
X462000Y-160000D02*
X435468Y-160000D01*
X435468Y-93338D01*
X462000Y-93338D01*
X462000Y-160000D01*
G36*
X409474Y-166025D02*
X454959Y-166025D01*
X454959Y-206878D01*
X409474Y-206878D01*
X409474Y-166025D01*
G37*
G54D31*
X409474Y-166025D02*
X454959Y-166025D01*
X454959Y-206878D01*
X409474Y-206878D01*
X409474Y-166025D01*
G36*
X183200Y-165500D02*
X221600Y-165500D01*
X221800Y-165300D01*
X272000Y-131000D01*
X244000Y-112000D01*
X243612Y-88033D01*
X253000Y-62000D01*
X219000Y-62000D01*
X222150Y-72550D01*
X222150Y-120950D01*
X197100Y-146000D01*
X198400Y-165500D01*
X183200Y-165500D01*
G37*
G54D31*
X183200Y-165500D02*
X221600Y-165500D01*
X221800Y-165300D01*
X272000Y-131000D01*
X244000Y-112000D01*
X243612Y-88033D01*
X253000Y-62000D01*
X219000Y-62000D01*
X222150Y-72550D01*
X222150Y-120950D01*
X197100Y-146000D01*
X198400Y-165500D01*
X183200Y-165500D01*
G36*
X467200Y-165500D02*
X505800Y-165300D01*
X556000Y-131000D01*
X530000Y-116000D01*
X529300Y-105400D01*
X527612Y-88033D01*
X537553Y-71753D01*
X533000Y-63000D01*
X506000Y-64000D01*
X506150Y-72550D01*
X506150Y-120950D01*
X481100Y-146000D01*
X467200Y-165500D01*
G37*
G54D31*
X467200Y-165500D02*
X505800Y-165300D01*
X556000Y-131000D01*
X530000Y-116000D01*
X529300Y-105400D01*
X527612Y-88033D01*
X537553Y-71753D01*
X533000Y-63000D01*
X506000Y-64000D01*
X506150Y-72550D01*
X506150Y-120950D01*
X481100Y-146000D01*
X467200Y-165500D01*
G54D25*
X450202Y-243798D02*
X730897Y-244402D01*
G54D19*
X431468Y-210113D02*
X436468Y-228468D01*
X436468Y-250468D01*
G54D19*
X431468Y-210113D02*
X431468Y-202604D01*
X433706Y-200366D01*
G36*
X290000Y-46000D02*
X294000Y-46000D01*
X307000Y-59000D01*
X307000Y-71703D01*
X306980Y-71723D01*
X332380Y-71723D01*
X342377Y-71723D01*
X352400Y-61700D01*
X352400Y-41100D01*
X295900Y-41100D01*
X295000Y-42000D01*
X290000Y-46000D01*
G37*
G54D31*
X290000Y-46000D02*
X294000Y-46000D01*
X307000Y-59000D01*
X307000Y-71703D01*
X306980Y-71723D01*
X332380Y-71723D01*
X342377Y-71723D01*
X352400Y-61700D01*
X352400Y-41100D01*
X295900Y-41100D01*
X295000Y-42000D01*
X290000Y-46000D01*
G36*
X575000Y-40000D02*
X575000Y-43000D01*
X591000Y-59000D01*
X591000Y-71703D01*
X590980Y-71723D01*
X616380Y-71723D01*
X627381Y-71723D01*
X637359Y-61744D01*
X637359Y-37359D01*
X635000Y-35000D01*
X587000Y-35000D01*
X581000Y-41000D01*
X575000Y-40000D01*
G37*
G54D31*
X575000Y-40000D02*
X575000Y-43000D01*
X591000Y-59000D01*
X591000Y-71703D01*
X590980Y-71723D01*
X616380Y-71723D01*
X627381Y-71723D01*
X637359Y-61744D01*
X637359Y-37359D01*
X635000Y-35000D01*
X587000Y-35000D01*
X581000Y-41000D01*
X575000Y-40000D01*
X395500Y-55000D02*
G54D27*
D03*
G54D29*
X395500Y-55000D02*
X395500Y-84000D01*
X395500Y-84000D02*
G54D27*
D03*
X407600Y-46000D02*
G54D27*
D03*
G54D29*
X407600Y-46000D02*
X407600Y-84200D01*
X407600Y-84200D02*
G54D27*
D03*
G54D30*
X436606Y-102888D02*
X456000Y-73000D01*
X456000Y-36000D01*
X67512Y-174214D02*
G54D32*
D03*
X67512Y-149514D02*
G54D32*
D03*
X73612Y-205788D02*
G54D32*
D03*
X73612Y-230488D02*
G54D32*
D03*
X85505Y-150847D02*
G54D10*
D03*
X85505Y-171447D02*
G54D10*
D03*
X84700Y-268200D02*
G54D33*
D03*
X47200Y-268200D02*
G54D33*
D03*
X80500Y-268200D02*
G54D34*
D03*
X51500Y-268200D02*
G54D34*
D03*
X41000Y-222600D02*
G54D10*
D03*
X41000Y-202000D02*
G54D10*
D03*
G54D25*
X130380Y-181804D02*
X130380Y-193380D01*
X181000Y-244000D01*
X243000Y-244000D01*
G54D29*
X149272Y-141848D02*
X162000Y-134119D01*
X162000Y-110000D01*
X158027Y-104378D01*
G54D19*
X147424Y-121194D02*
X139027Y-104378D01*
G54D28*
X158027Y-104378D02*
X166000Y-83000D01*
X165459Y-77194D01*
G54D21*
X178700Y-101300D02*
X186059Y-77194D01*
X105405Y-171641D02*
G54D26*
D03*
G54D21*
X85505Y-171447D02*
X105405Y-171641D01*
G54D35*
X104922Y-186341D02*
X104933Y-172409D01*
X104922Y-186341D02*
G54D36*
D03*
G54D37*
X67512Y-149514D02*
X85505Y-150847D01*
G54D21*
X104627Y-104377D02*
X104568Y-109926D01*
X110727Y-117310D01*
X110825Y-121194D01*
G54D21*
X69805Y-111041D02*
X80633Y-111031D01*
X90225Y-121194D01*
X67922Y-191341D02*
G54D36*
D03*
G54D25*
X73612Y-205788D02*
X67922Y-191740D01*
X67922Y-191341D01*
X67512Y-190931D01*
X67512Y-174214D01*
G54D25*
X67512Y-149514D02*
X67504Y-137284D01*
X69805Y-131641D01*
X135173Y-277741D02*
G54D36*
D03*
G54D25*
X135173Y-277741D02*
X123558Y-277739D01*
X123519Y-277700D01*
G54D25*
X41000Y-202000D02*
X40896Y-95407D01*
X40896Y-72407D02*
G54D38*
D03*
X40896Y-95407D02*
G54D38*
D03*
X101319Y-268100D02*
G54D12*
D03*
X123519Y-277600D02*
G54D12*
D03*
G54D21*
X114127Y-82177D02*
X114127Y-66177D01*
G54D21*
X148527Y-82178D02*
X148502Y-82178D01*
X132572Y-66248D01*
G54D21*
X114127Y-66177D02*
X132501Y-66177D01*
X132572Y-66248D01*
G54D19*
X123627Y-104377D02*
X124974Y-111523D01*
X126825Y-121194D01*
X126775Y-129485D01*
X130272Y-141848D01*
G54D21*
X130380Y-181804D02*
X130272Y-162448D01*
G54D21*
X130272Y-162448D02*
X149272Y-162448D01*
G54D25*
X40896Y-72407D02*
X51896Y-51104D01*
X69000Y-34000D01*
X243000Y-34000D01*
G54D25*
X132572Y-45648D02*
X132572Y-35428D01*
X133000Y-35000D01*
X724606Y-102888D02*
G54D10*
D03*
X724606Y-123488D02*
G54D10*
D03*
G54D21*
X634659Y-80344D02*
X616659Y-72002D01*
X616380Y-71723D01*
X636400Y-41100D02*
G54D10*
D03*
X636400Y-61700D02*
G54D10*
D03*
X648747Y-141034D02*
G54D24*
D03*
X648747Y-165734D02*
G54D24*
D03*
X648655Y-179797D02*
G54D10*
D03*
X648655Y-200397D02*
G54D10*
D03*
G54D25*
X648647Y-137859D02*
X648553Y-123553D01*
G54D25*
X648747Y-165734D02*
X648655Y-179797D01*
X648553Y-123553D02*
G54D26*
D03*
X667747Y-141034D02*
G54D24*
D03*
X667747Y-165734D02*
G54D24*
D03*
X667655Y-179797D02*
G54D10*
D03*
X667655Y-200397D02*
G54D10*
D03*
G54D25*
X667647Y-137859D02*
X667553Y-123553D01*
G54D25*
X667747Y-165734D02*
X667655Y-179797D01*
X667553Y-123553D02*
G54D26*
D03*
X686747Y-141034D02*
G54D24*
D03*
X686747Y-165734D02*
G54D24*
D03*
X686655Y-179797D02*
G54D10*
D03*
X686655Y-200397D02*
G54D10*
D03*
G54D25*
X686647Y-137859D02*
X686553Y-123553D01*
G54D25*
X686747Y-165734D02*
X686655Y-179797D01*
X686553Y-123553D02*
G54D26*
D03*
X648468Y-146114D02*
G54D27*
D03*
X667468Y-146114D02*
G54D27*
D03*
X686468Y-146114D02*
G54D27*
D03*
G54D28*
X648468Y-146114D02*
X648468Y-138038D01*
X648647Y-137859D01*
G54D28*
X667468Y-146114D02*
X667468Y-138038D01*
X667647Y-137859D01*
G54D28*
X686468Y-146114D02*
X686468Y-138038D01*
X686647Y-137859D01*
G54D30*
X616380Y-71723D02*
X626377Y-71723D01*
X636400Y-61700D01*
G54D21*
X635100Y-81800D02*
X635100Y-69800D01*
G36*
X625600Y-81800D02*
X644600Y-81800D01*
X644600Y-91300D01*
X625600Y-91300D01*
X625600Y-81800D01*
G37*
G36*
X644600Y-69800D02*
X625600Y-69800D01*
X625600Y-60300D01*
X644600Y-60300D01*
X644600Y-69800D01*
G37*
G54D21*
X686655Y-200397D02*
X626603Y-200397D01*
X626000Y-201000D01*
X706606Y-161488D02*
G54D26*
D03*
G36*
X693474Y-129187D02*
X693474Y-166025D01*
X641554Y-172234D01*
X641554Y-129187D01*
X693474Y-129187D01*
G37*
G54D31*
X693474Y-129187D02*
X693474Y-166025D01*
X641554Y-172234D01*
X641554Y-129187D01*
X693474Y-129187D01*
X679500Y-55000D02*
G54D27*
D03*
G54D29*
X679500Y-55000D02*
X679500Y-84000D01*
X679500Y-84000D02*
G54D27*
D03*
X691600Y-46000D02*
G54D27*
D03*
G54D29*
X691600Y-46000D02*
X691600Y-84200D01*
X691600Y-84200D02*
G54D27*
D03*
X391850Y-416450D02*
G54D16*
D03*
X391850Y-368050D02*
G54D16*
D03*
X392200Y-272900D02*
G54D17*
D03*
X392200Y-323700D02*
G54D17*
D03*
G54D21*
X368701Y-383600D02*
X368714Y-390762D01*
X370388Y-400967D01*
X391850Y-416450D01*
X360448Y-437847D02*
G54D10*
D03*
X360448Y-417247D02*
G54D10*
D03*
G54D19*
X370388Y-400967D02*
X360448Y-418747D01*
G54D19*
X360448Y-439347D02*
X316347Y-439347D01*
X307000Y-430000D01*
X307000Y-417297D01*
X307020Y-417277D01*
G54D21*
X368700Y-381962D02*
X368714Y-390762D01*
X370662Y-399420D01*
X391850Y-416450D01*
G36*
X378200Y-381947D02*
X359200Y-381977D01*
X359184Y-372477D01*
X378184Y-372447D01*
X378200Y-381947D01*
G37*
X822437Y-346018D02*
G54D12*
D03*
X841437Y-346017D02*
G54D12*
D03*
X831937Y-368218D02*
G54D12*
D03*
X191324Y-309150D02*
G54D10*
D03*
X191324Y-288550D02*
G54D10*
D03*
X175874Y-324523D02*
G54D12*
D03*
G36*
X185374Y-315023D02*
X204374Y-315023D01*
X204374Y-334023D01*
X185374Y-334023D01*
X185374Y-315023D01*
G37*
X185374Y-346723D02*
G54D12*
D03*
X139415Y-360270D02*
G54D12*
D03*
G36*
X148915Y-350770D02*
X167915Y-350770D01*
X167916Y-369770D01*
X148916Y-369770D01*
X148915Y-350770D01*
G37*
X148916Y-382470D02*
G54D12*
D03*
X158501Y-324564D02*
G54D10*
D03*
X158501Y-345164D02*
G54D10*
D03*
X179394Y-420712D02*
G54D10*
D03*
X179394Y-400112D02*
G54D10*
D03*
X171229Y-307302D02*
G54D10*
D03*
X171229Y-286702D02*
G54D10*
D03*
X139129Y-324602D02*
G54D10*
D03*
X139129Y-304002D02*
G54D10*
D03*
X139497Y-342592D02*
G54D13*
D03*
X118897Y-342592D02*
G54D13*
D03*
G36*
X252241Y-413556D02*
X271241Y-413556D01*
X271241Y-435556D01*
X252241Y-435556D01*
X252241Y-413556D01*
G37*
G54D21*
X262341Y-424556D02*
X281341Y-416898D01*
X281620Y-417177D01*
X261600Y-461800D02*
G54D10*
D03*
X261600Y-441200D02*
G54D10*
D03*
X249253Y-347866D02*
G54D24*
D03*
X249253Y-323166D02*
G54D24*
D03*
X249345Y-309103D02*
G54D10*
D03*
X249345Y-288503D02*
G54D10*
D03*
G54D25*
X249353Y-351041D02*
X249448Y-365347D01*
G54D25*
X249253Y-323166D02*
X249345Y-309103D01*
X249448Y-365347D02*
G54D26*
D03*
X230253Y-347866D02*
G54D24*
D03*
X230253Y-323166D02*
G54D24*
D03*
X230345Y-309103D02*
G54D10*
D03*
X230345Y-288503D02*
G54D10*
D03*
G54D25*
X230353Y-351041D02*
X230448Y-365347D01*
G54D25*
X230253Y-323166D02*
X230345Y-309103D01*
X230448Y-365347D02*
G54D26*
D03*
X211253Y-347866D02*
G54D24*
D03*
X211253Y-323166D02*
G54D24*
D03*
X211345Y-309103D02*
G54D10*
D03*
X211345Y-288503D02*
G54D10*
D03*
G54D25*
X211353Y-351041D02*
X211448Y-365347D01*
G54D25*
X211253Y-323166D02*
X211345Y-309103D01*
X211448Y-365347D02*
G54D26*
D03*
X249533Y-342786D02*
G54D27*
D03*
X230533Y-342787D02*
G54D27*
D03*
X211533Y-342786D02*
G54D27*
D03*
G54D28*
X249533Y-342786D02*
X249533Y-350862D01*
X249353Y-351041D01*
G54D28*
X230533Y-342787D02*
X230533Y-350862D01*
X230353Y-351041D01*
G54D28*
X211533Y-342786D02*
X211533Y-350862D01*
X211353Y-351041D01*
G54D30*
X281620Y-417177D02*
X281620Y-417277D01*
X261741Y-424556D01*
X261600Y-441200D01*
G54D21*
X211345Y-288503D02*
X271397Y-288503D01*
X272000Y-287900D01*
X179042Y-268587D02*
G54D14*
D03*
X148809Y-400111D02*
G54D26*
D03*
G36*
X204527Y-358713D02*
X204527Y-321875D01*
X256447Y-315666D01*
X256447Y-358713D01*
X204527Y-358713D01*
G37*
G54D31*
X204527Y-358713D02*
X204527Y-321875D01*
X256447Y-315666D01*
X256447Y-358713D01*
X204527Y-358713D01*
G54D19*
X180533Y-270787D02*
X180533Y-245432D01*
X180000Y-244900D01*
X73840Y-350463D02*
G54D39*
D03*
X98540Y-350463D02*
G54D39*
D03*
X73612Y-330314D02*
G54D32*
D03*
X73612Y-305614D02*
G54D32*
D03*
X120047Y-368847D02*
G54D13*
D03*
X99447Y-368847D02*
G54D13*
D03*
G54D25*
X73612Y-230488D02*
X80500Y-268200D01*
X73612Y-305614D01*
X73462Y-365796D02*
G54D36*
D03*
G54D25*
X73462Y-365796D02*
X73612Y-365646D01*
X73612Y-330314D01*
G54D21*
X101319Y-268200D02*
X101319Y-268100D01*
X84700Y-268200D01*
G54D21*
X51500Y-268200D02*
X51469Y-268169D01*
X51469Y-241982D01*
G54D37*
X51469Y-241982D02*
X41000Y-222600D01*
G54D25*
X73462Y-365796D02*
X73462Y-378985D01*
X73406Y-379041D01*
X71006Y-379041D02*
G54D26*
D03*
G54D25*
X191000Y-466000D02*
X946000Y-466000D01*
G54D25*
X179394Y-420712D02*
X179394Y-456394D01*
X191000Y-466000D01*
G54D21*
X191324Y-288550D02*
X211298Y-288550D01*
X211345Y-288503D01*
G54D21*
X194874Y-324523D02*
X191324Y-309150D01*
G54D25*
X171229Y-307302D02*
X175874Y-324523D01*
G54D21*
X158501Y-324564D02*
X175874Y-324523D01*
G54D25*
X158416Y-360270D02*
X158501Y-345164D01*
G54D25*
X139415Y-360270D02*
X139497Y-342592D01*
X139129Y-324602D01*
G54D25*
X139129Y-304002D02*
X171229Y-286702D01*
G54D25*
X171229Y-286702D02*
X171229Y-276400D01*
X179042Y-268587D01*
G54D21*
X148916Y-382470D02*
X148916Y-400004D01*
X148809Y-400111D01*
G54D25*
X148916Y-382470D02*
X166530Y-382470D01*
X185374Y-363626D01*
X185374Y-346723D01*
G54D25*
X148809Y-400111D02*
X179394Y-400112D01*
X131462Y-386796D02*
G54D36*
D03*
G54D21*
X131462Y-386796D02*
X131300Y-386957D01*
X118093Y-386957D01*
G54D37*
X98540Y-350463D02*
X99447Y-368847D01*
G54D25*
X98540Y-350463D02*
X118897Y-342592D01*
G54D21*
X120047Y-368847D02*
X120154Y-378285D01*
X118093Y-386957D01*
X118093Y-386957D02*
G54D26*
D03*
X952680Y-47220D02*
G54D40*
D03*
X436468Y-250468D02*
G54D22*
D03*
G54D19*
X117000Y-295000D02*
X123519Y-277600D01*
X117000Y-295000D02*
G54D26*
D03*
X833911Y-122285D02*
G54D41*
D03*
X856911Y-122285D02*
G54D41*
D03*
X856912Y-78285D02*
G54D41*
D03*
X833912Y-78285D02*
G54D41*
D03*
X856912Y-100285D02*
G54D41*
D03*
X833912Y-100285D02*
G54D41*
D03*
G54D25*
X956000Y-34000D02*
X966000Y-44000D01*
G54D25*
X946000Y-466000D02*
X966047Y-441470D01*
G54D25*
X243000Y-244000D02*
X401000Y-244000D01*
X414000Y-257000D01*
X422000Y-257000D01*
X436468Y-250468D01*
G54D25*
X436468Y-250468D02*
X436532Y-250468D01*
X450000Y-244000D01*
X869412Y-40569D02*
G54D42*
D03*
X759426Y-104069D02*
G54D42*
D03*
G54D25*
X966047Y-441470D02*
X966000Y-44000D01*
G36*
X158027Y-104378D02*
X104627Y-104377D01*
X104627Y-91677D01*
X114127Y-82177D01*
X114127Y-74873D01*
X119000Y-70000D01*
X136349Y-70000D01*
X148527Y-82178D01*
X158027Y-104378D01*
G37*
G54D43*
X158027Y-104378D02*
X104627Y-104377D01*
X104627Y-91677D01*
X114127Y-82177D01*
X114127Y-74873D01*
X119000Y-70000D01*
X136349Y-70000D01*
X148527Y-82178D01*
X158027Y-104378D01*
G36*
X160000Y-99000D02*
X160000Y-132119D01*
X162000Y-134119D01*
X171281Y-134119D01*
X178700Y-126700D01*
X178700Y-101300D01*
X160000Y-99000D01*
G37*
G54D43*
X160000Y-99000D02*
X160000Y-132119D01*
X162000Y-134119D01*
X171281Y-134119D01*
X178700Y-126700D01*
X178700Y-101300D01*
X160000Y-99000D01*
G36*
X149000Y-128000D02*
X149000Y-162176D01*
X149272Y-162448D01*
X175448Y-162448D01*
X176000Y-163000D01*
X176000Y-129400D01*
X178700Y-126700D01*
X157300Y-126700D01*
X156000Y-128000D01*
X149000Y-128000D01*
G37*
G54D43*
X149000Y-128000D02*
X149000Y-162176D01*
X149272Y-162448D01*
X175448Y-162448D01*
X176000Y-163000D01*
X176000Y-129400D01*
X178700Y-126700D01*
X157300Y-126700D01*
X156000Y-128000D01*
X149000Y-128000D01*
G36*
X81000Y-178000D02*
X61635Y-178000D01*
X61635Y-149135D01*
X81000Y-149135D01*
X81000Y-178000D01*
G37*
G54D43*
X81000Y-178000D02*
X61635Y-178000D01*
X61635Y-149135D01*
X81000Y-149135D01*
X81000Y-178000D01*
X51469Y-241982D02*
G54D14*
D03*
G36*
X98540Y-350463D02*
X98540Y-367940D01*
X99447Y-368847D01*
X120047Y-368847D01*
X120047Y-375381D01*
X131462Y-386796D01*
X144590Y-386796D01*
X148916Y-382470D01*
X148916Y-400004D01*
X148809Y-400111D01*
X167889Y-400111D01*
X173000Y-395000D01*
X173000Y-376000D01*
X185374Y-363626D01*
X185374Y-357626D01*
X189000Y-354000D01*
X208395Y-354000D01*
X211353Y-351041D01*
X211345Y-309103D01*
X211345Y-308572D01*
X191324Y-288550D01*
X173076Y-288550D01*
X171229Y-286702D01*
X171229Y-286771D01*
X149000Y-309000D01*
X144126Y-309000D01*
X139129Y-304002D01*
X139129Y-322360D01*
X118897Y-342592D01*
X98540Y-350463D01*
G37*
G54D43*
X98540Y-350463D02*
X98540Y-367940D01*
X99447Y-368847D01*
X120047Y-368847D01*
X120047Y-375381D01*
X131462Y-386796D01*
X144590Y-386796D01*
X148916Y-382470D01*
X148916Y-400004D01*
X148809Y-400111D01*
X167889Y-400111D01*
X173000Y-395000D01*
X173000Y-376000D01*
X185374Y-363626D01*
X185374Y-357626D01*
X189000Y-354000D01*
X208395Y-354000D01*
X211353Y-351041D01*
X211345Y-309103D01*
X211345Y-308572D01*
X191324Y-288550D01*
X173076Y-288550D01*
X171229Y-286702D01*
X171229Y-286771D01*
X149000Y-309000D01*
X144126Y-309000D01*
X139129Y-304002D01*
X139129Y-322360D01*
X118897Y-342592D01*
X98540Y-350463D01*
G36*
X392404Y-431442D02*
X360577Y-431442D01*
X360577Y-412019D01*
X392404Y-412019D01*
X392404Y-431442D01*
G37*
G54D43*
X392404Y-431442D02*
X360577Y-431442D01*
X360577Y-412019D01*
X392404Y-412019D01*
X392404Y-431442D01*
G36*
X384000Y-246000D02*
X408293Y-246000D01*
X408293Y-274634D01*
X384000Y-274634D01*
X384000Y-246000D01*
G37*
G54D43*
X384000Y-246000D02*
X408293Y-246000D01*
X408293Y-274634D01*
X384000Y-274634D01*
X384000Y-246000D01*
G36*
X354000Y-437300D02*
X316347Y-440647D01*
X317000Y-430300D01*
X352000Y-430300D01*
X354000Y-437300D01*
G37*
G54D43*
X354000Y-437300D02*
X316347Y-440647D01*
X317000Y-430300D01*
X352000Y-430300D01*
X354000Y-437300D01*
X616380Y-71723D02*
G54D40*
D03*
X590980Y-71723D02*
G54D40*
D03*
X332380Y-71723D02*
G54D40*
D03*
X306980Y-71723D02*
G54D40*
D03*
X281620Y-417277D02*
G54D40*
D03*
X307020Y-417277D02*
G54D40*
D03*
X69974Y-94430D02*
G54D26*
D03*
G54D30*
X69974Y-94430D02*
X69974Y-110873D01*
X69805Y-111041D01*
X416000Y-324000D02*
G54D15*
D03*
X416000Y-293500D02*
G54D15*
D03*
X431200Y-324000D02*
G54D15*
D03*
X431200Y-293500D02*
G54D15*
D03*
X446400Y-324000D02*
G54D15*
D03*
X446400Y-293500D02*
G54D15*
D03*
G54D19*
X446245Y-292442D02*
X446245Y-278442D01*
X442245Y-274442D01*
X405245Y-274442D01*
X393345Y-271442D01*
X392445Y-272342D01*
G54D18*
X412001Y-324100D02*
X392801Y-324100D01*
X392601Y-324300D01*
G36*
X412001Y-336100D02*
X412001Y-312100D01*
X424001Y-312100D01*
X424001Y-336100D01*
X412001Y-336100D01*
G37*
X464906Y-287766D02*
G54D26*
D03*
X464906Y-308366D02*
G54D26*
D03*
G54D19*
X464906Y-287766D02*
X464906Y-244906D01*
X464000Y-244000D01*
G54D19*
X446301Y-323203D02*
X446301Y-334703D01*
X438301Y-342703D01*
X417201Y-342703D01*
X392151Y-367753D01*
X461394Y-386112D02*
G54D10*
D03*
X461394Y-365512D02*
G54D10*
D03*
X452333Y-348087D02*
G54D27*
D03*
G54D29*
X481533Y-290886D02*
X480001Y-292419D01*
X480001Y-318000D01*
X475394Y-327512D01*
G54D28*
X475394Y-327512D02*
X462488Y-327512D01*
X459001Y-331000D01*
X459001Y-342419D01*
X452333Y-348086D01*
G54D28*
X452333Y-348086D02*
X458001Y-354000D01*
X461394Y-365512D01*
G54D30*
X461394Y-386112D02*
X442001Y-416000D01*
X442001Y-463000D01*
X533214Y-347129D02*
G54D24*
D03*
X533214Y-322429D02*
G54D24*
D03*
X533306Y-308366D02*
G54D10*
D03*
X533306Y-287766D02*
G54D10*
D03*
G54D25*
X533314Y-350304D02*
X533408Y-364610D01*
G54D25*
X533214Y-322429D02*
X533306Y-308366D01*
X533408Y-364610D02*
G54D26*
D03*
X514214Y-347129D02*
G54D24*
D03*
X514214Y-322429D02*
G54D24*
D03*
X514306Y-308366D02*
G54D10*
D03*
X514306Y-287766D02*
G54D10*
D03*
G54D25*
X514314Y-350304D02*
X514408Y-364610D01*
G54D25*
X514214Y-322429D02*
X514306Y-308366D01*
X514408Y-364610D02*
G54D26*
D03*
X495214Y-347129D02*
G54D24*
D03*
X495214Y-322429D02*
G54D24*
D03*
X495306Y-308366D02*
G54D10*
D03*
X495306Y-287766D02*
G54D10*
D03*
G54D25*
X495314Y-350304D02*
X495408Y-364610D01*
G54D25*
X495214Y-322429D02*
X495306Y-308366D01*
X495408Y-364610D02*
G54D26*
D03*
X533493Y-342050D02*
G54D27*
D03*
X514493Y-342050D02*
G54D27*
D03*
X495493Y-342050D02*
G54D27*
D03*
G54D28*
X533493Y-342050D02*
X533493Y-350125D01*
X533314Y-350304D01*
G54D28*
X514493Y-342050D02*
X514493Y-350125D01*
X514314Y-350304D01*
G54D28*
X495493Y-342050D02*
X495493Y-350125D01*
X495314Y-350304D01*
G54D21*
X495306Y-287766D02*
X555358Y-287766D01*
X555961Y-287163D01*
G54D21*
X556001Y-288092D02*
X626001Y-358092D01*
G54D29*
X502461Y-433163D02*
X502460Y-404163D01*
X502460Y-404163D02*
G54D27*
D03*
G54D29*
X490361Y-442163D02*
X490361Y-403963D01*
X490361Y-403963D02*
G54D27*
D03*
X502461Y-433163D02*
G54D27*
D03*
X490361Y-442163D02*
G54D27*
D03*
X433901Y-362300D02*
G54D22*
D03*
X433900Y-387700D02*
G54D22*
D03*
X481533Y-290886D02*
G54D27*
D03*
X465133Y-278887D02*
G54D27*
D03*
X675850Y-416450D02*
G54D16*
D03*
X675850Y-368050D02*
G54D16*
D03*
X676200Y-272900D02*
G54D17*
D03*
X676200Y-323700D02*
G54D17*
D03*
G54D21*
X652701Y-383600D02*
X652714Y-390762D01*
X654388Y-400967D01*
X675850Y-416450D01*
X644448Y-437847D02*
G54D10*
D03*
X644448Y-417247D02*
G54D10*
D03*
G54D19*
X654388Y-400967D02*
X644448Y-418747D01*
G54D19*
X644448Y-439347D02*
X600347Y-439347D01*
X591000Y-430000D01*
X591000Y-417297D01*
X591020Y-417277D01*
G54D21*
X652700Y-381962D02*
X652714Y-390762D01*
X654662Y-399420D01*
X675850Y-416450D01*
G36*
X662200Y-381947D02*
X643200Y-381977D01*
X643184Y-372477D01*
X662184Y-372447D01*
X662200Y-381947D01*
G37*
G36*
X536241Y-413556D02*
X555241Y-413556D01*
X555241Y-435556D01*
X536241Y-435556D01*
X536241Y-413556D01*
G37*
G54D21*
X546341Y-424556D02*
X565341Y-416898D01*
X565620Y-417177D01*
X545600Y-461800D02*
G54D10*
D03*
X545600Y-441200D02*
G54D10*
D03*
G54D30*
X565620Y-417177D02*
X565620Y-417277D01*
X545741Y-424556D01*
X545600Y-441200D01*
X565620Y-417277D02*
G54D40*
D03*
X591020Y-417277D02*
G54D40*
D03*
X700000Y-324000D02*
G54D15*
D03*
X700000Y-293500D02*
G54D15*
D03*
X715200Y-324000D02*
G54D15*
D03*
X715200Y-293500D02*
G54D15*
D03*
X730400Y-324000D02*
G54D15*
D03*
X730400Y-293500D02*
G54D15*
D03*
G54D19*
X730245Y-292442D02*
X730245Y-278442D01*
X726245Y-274442D01*
X689245Y-274442D01*
X677345Y-271442D01*
X676445Y-272342D01*
G54D18*
X696001Y-324100D02*
X676801Y-324100D01*
X676601Y-324300D01*
G36*
X696001Y-336100D02*
X696001Y-312100D01*
X708001Y-312100D01*
X708001Y-336100D01*
X696001Y-336100D01*
G37*
G54D19*
X730301Y-323203D02*
X730301Y-334703D01*
X722301Y-342703D01*
X701201Y-342703D01*
X676151Y-367753D01*
X717901Y-362300D02*
G54D22*
D03*
X717900Y-387700D02*
G54D22*
D03*
G36*
X406000Y-254000D02*
X460000Y-254000D01*
X460000Y-280000D01*
X406000Y-280000D01*
X406000Y-254000D01*
G37*
G54D43*
X406000Y-254000D02*
X460000Y-254000D01*
X460000Y-280000D01*
X406000Y-280000D01*
X406000Y-254000D01*
G36*
X444000Y-288000D02*
X488000Y-288000D01*
X488000Y-330000D01*
X444000Y-330000D01*
X444000Y-288000D01*
G37*
G54D43*
X444000Y-288000D02*
X488000Y-288000D01*
X488000Y-330000D01*
X444000Y-330000D01*
X444000Y-288000D01*
G36*
X540255Y-348051D02*
X488231Y-348051D01*
X488231Y-321364D01*
X540255Y-321364D01*
X540255Y-348051D01*
G37*
G54D43*
X540255Y-348051D02*
X488231Y-348051D01*
X488231Y-321364D01*
X540255Y-321364D01*
X540255Y-348051D01*
G36*
X431631Y-329160D02*
X464005Y-329160D01*
X464005Y-393790D01*
X431631Y-393790D01*
X431631Y-329160D01*
G37*
G54D43*
X431631Y-329160D02*
X464005Y-329160D01*
X464005Y-393790D01*
X431631Y-393790D01*
X431631Y-329160D01*
G36*
X454873Y-320370D02*
X490643Y-320370D01*
X490643Y-339279D01*
X454873Y-339279D01*
X454873Y-320370D01*
G37*
G54D43*
X454873Y-320370D02*
X490643Y-320370D01*
X490643Y-339279D01*
X454873Y-339279D01*
X454873Y-320370D01*
G36*
X392200Y-323700D02*
X412000Y-323700D01*
X412000Y-354000D01*
X392200Y-354000D01*
X392200Y-323700D01*
G37*
G54D43*
X392200Y-323700D02*
X412000Y-323700D01*
X412000Y-354000D01*
X392200Y-354000D01*
X392200Y-323700D01*
X822437Y-239218D02*
G54D12*
D03*
X841437Y-239217D02*
G54D12*
D03*
X831937Y-261418D02*
G54D12*
D03*
X822437Y-184818D02*
G54D12*
D03*
X841437Y-184817D02*
G54D12*
D03*
X831937Y-207018D02*
G54D12*
D03*
X841665Y-328694D02*
G54D14*
D03*
G36*
X852765Y-317694D02*
X871765Y-317694D01*
X871765Y-339694D01*
X852765Y-339694D01*
X852765Y-317694D01*
G37*
X861712Y-239746D02*
G54D26*
D03*
X861712Y-260347D02*
G54D26*
D03*
X859712Y-185146D02*
G54D26*
D03*
X859712Y-205746D02*
G54D26*
D03*
X794937Y-318218D02*
G54D44*
D03*
X794937Y-267418D02*
G54D44*
D03*
X896537Y-292818D02*
G54D44*
D03*
X794937Y-426218D02*
G54D44*
D03*
X794937Y-375418D02*
G54D44*
D03*
X896537Y-400818D02*
G54D44*
D03*
X794937Y-210218D02*
G54D44*
D03*
X794937Y-159418D02*
G54D44*
D03*
X896537Y-184818D02*
G54D44*
D03*
G54D30*
X831937Y-368218D02*
X794937Y-375418D01*
G54D30*
X831937Y-261418D02*
X817533Y-261419D01*
X794937Y-267418D01*
G54D30*
X831937Y-207018D02*
X794937Y-210218D01*
G54D30*
X765400Y-217218D02*
X766000Y-250000D01*
X766000Y-328000D01*
X778296Y-346419D01*
X806897Y-346402D01*
X822437Y-346818D01*
G54D30*
X822437Y-239218D02*
X768000Y-239218D01*
G54D30*
X841437Y-184817D02*
X859712Y-184817D01*
X859712Y-185146D01*
G54D30*
X841437Y-239217D02*
X861712Y-239312D01*
X861712Y-239746D01*
G54D30*
X841437Y-346017D02*
X841428Y-340124D01*
X841665Y-328694D01*
X842030Y-328694D01*
X841665Y-328694D01*
X875413Y-367337D02*
G54D12*
D03*
X875412Y-348337D02*
G54D12*
D03*
X897613Y-357837D02*
G54D12*
D03*
X960058Y-355793D02*
G54D14*
D03*
X939458Y-355793D02*
G54D14*
D03*
X859688Y-368109D02*
G54D26*
D03*
X859688Y-347510D02*
G54D26*
D03*
X916015Y-377190D02*
G54D14*
D03*
X936615Y-377190D02*
G54D14*
D03*
G54D37*
X875412Y-348337D02*
X881402Y-348337D01*
X886465Y-353400D01*
X886505Y-367993D01*
G54D25*
X859688Y-347510D02*
X875412Y-348337D01*
G54D25*
X859688Y-368109D02*
X875413Y-367337D01*
G54D19*
X862265Y-328694D02*
X884694Y-328694D01*
X898000Y-342000D01*
X898000Y-357450D01*
X897613Y-357837D01*
G36*
X894000Y-362000D02*
X851096Y-362000D01*
X851096Y-341984D01*
X894000Y-341984D01*
X894000Y-362000D01*
G37*
G54D43*
X894000Y-362000D02*
X851096Y-362000D01*
X851096Y-341984D01*
X894000Y-341984D01*
X894000Y-362000D01*
G36*
X881402Y-348337D02*
X850000Y-348337D01*
X850000Y-330000D01*
X881402Y-330000D01*
X881402Y-348337D01*
G37*
G54D43*
X881402Y-348337D02*
X850000Y-348337D01*
X850000Y-330000D01*
X881402Y-330000D01*
X881402Y-348337D01*
G36*
X860000Y-342000D02*
X847474Y-342000D01*
X847474Y-320205D01*
X860000Y-320205D01*
X860000Y-342000D01*
G37*
G54D43*
X860000Y-342000D02*
X847474Y-342000D01*
X847474Y-320205D01*
X860000Y-320205D01*
X860000Y-342000D01*
X843413Y-301337D02*
G54D12*
D03*
X843412Y-282337D02*
G54D12*
D03*
X865613Y-291837D02*
G54D12*
D03*
X827688Y-302109D02*
G54D26*
D03*
X827688Y-281510D02*
G54D26*
D03*
G54D37*
X843412Y-282337D02*
X849402Y-282337D01*
X854465Y-287400D01*
X854465Y-304865D01*
X859800Y-310200D01*
G54D25*
X827688Y-281510D02*
X843412Y-282337D01*
G54D25*
X827688Y-302109D02*
X843413Y-301337D01*
G54D19*
X865613Y-291837D02*
X861712Y-260347D01*
G54D37*
X859800Y-310200D02*
X874200Y-310200D01*
X881744Y-317744D01*
X894365Y-317744D01*
G54D25*
X827688Y-302109D02*
X822437Y-307361D01*
X822437Y-346018D01*
X806897Y-346402D02*
G54D36*
D03*
X853173Y-381741D02*
G54D36*
D03*
G54D35*
X853173Y-381741D02*
X858130Y-370762D01*
X909413Y-243337D02*
G54D12*
D03*
X909413Y-224337D02*
G54D12*
D03*
X931613Y-233837D02*
G54D12*
D03*
X893688Y-244909D02*
G54D26*
D03*
X893688Y-224310D02*
G54D26*
D03*
G54D37*
X909413Y-224337D02*
X915402Y-224337D01*
X920465Y-229400D01*
X920465Y-246865D01*
X925800Y-252200D01*
G54D25*
X893688Y-224310D02*
X909413Y-224337D01*
G54D25*
X893688Y-244909D02*
X909413Y-243337D01*
G54D25*
X822437Y-239218D02*
X822437Y-231563D01*
X830000Y-224000D01*
X872600Y-224000D01*
X878000Y-229400D01*
X877977Y-244923D01*
X893688Y-244909D01*
X960058Y-295793D02*
G54D14*
D03*
X939458Y-295793D02*
G54D14*
D03*
X960058Y-213793D02*
G54D14*
D03*
X939458Y-213793D02*
G54D14*
D03*
G54D25*
X859712Y-205946D02*
X863711Y-209945D01*
X921817Y-209945D01*
G54D25*
X921817Y-209945D02*
X931613Y-219741D01*
X931613Y-233837D01*
G54D25*
X939458Y-213793D02*
X936954Y-211288D01*
X924798Y-211288D01*
X945485Y-377330D02*
G54D27*
D03*
G54D25*
X945504Y-377310D02*
X945384Y-377190D01*
X936615Y-377190D01*
G54D25*
X897613Y-357837D02*
X897657Y-357793D01*
X901602Y-355756D01*
X939458Y-355793D01*
G54D25*
X896784Y-267349D02*
X910057Y-271366D01*
X939458Y-295793D01*
G54D25*
X896784Y-267349D02*
X864000Y-272000D01*
X952982Y-335832D02*
G54D27*
D03*
X935072Y-335819D02*
G54D14*
D03*
X914472Y-335819D02*
G54D14*
D03*
G54D37*
X894365Y-317744D02*
X895744Y-317744D01*
X912000Y-336000D01*
X914291Y-336000D01*
X914472Y-335819D01*
G54D19*
X952982Y-335832D02*
X935085Y-335832D01*
X935072Y-335819D01*
X952847Y-249647D02*
G54D27*
D03*
X949072Y-261819D02*
G54D14*
D03*
X928472Y-261819D02*
G54D14*
D03*
G54D37*
X925800Y-252200D02*
X928472Y-261819D01*
G54D37*
X949072Y-261819D02*
X952847Y-249647D01*
G54D37*
X916015Y-377190D02*
X895702Y-377190D01*
X886505Y-367993D01*
G36*
X962000Y-388000D02*
X959281Y-385646D01*
X945167Y-385391D01*
X875413Y-367337D01*
X837551Y-394146D01*
X782451Y-388000D01*
X782451Y-201950D01*
X962000Y-201950D01*
X962000Y-388000D01*
G37*
G54D43*
X962000Y-388000D02*
X959281Y-385646D01*
X945167Y-385391D01*
X875413Y-367337D01*
X837551Y-394146D01*
X782451Y-388000D01*
X782451Y-201950D01*
X962000Y-201950D01*
X962000Y-388000D01*
G36*
X816000Y-334000D02*
X772000Y-334000D01*
X772000Y-214000D01*
X816000Y-214000D01*
X816000Y-334000D01*
G37*
G54D43*
X816000Y-334000D02*
X772000Y-334000D01*
X772000Y-214000D01*
X816000Y-214000D01*
X816000Y-334000D01*
G36*
X790000Y-186000D02*
X868245Y-186000D01*
X868245Y-225348D01*
X790000Y-225348D01*
X790000Y-186000D01*
G37*
G54D43*
X790000Y-186000D02*
X868245Y-186000D01*
X868245Y-225348D01*
X790000Y-225348D01*
X790000Y-186000D01*
X681698Y-242948D02*
G54D26*
D03*
G54D30*
X707206Y-161488D02*
X715112Y-161488D01*
X726600Y-150000D01*
X726600Y-124882D01*
X725206Y-123488D01*
X723196Y-201426D02*
G54D12*
D03*
X723196Y-182426D02*
G54D12*
D03*
X745396Y-191926D02*
G54D12*
D03*
X706506Y-200681D02*
G54D10*
D03*
X706506Y-180081D02*
G54D10*
D03*
X711298Y-242948D02*
G54D10*
D03*
X711298Y-222348D02*
G54D10*
D03*
X739400Y-422400D02*
G54D13*
D03*
X718800Y-422400D02*
G54D13*
D03*
X739400Y-385800D02*
G54D12*
D03*
X739400Y-366800D02*
G54D12*
D03*
X761600Y-376300D02*
G54D12*
D03*
X739400Y-402800D02*
G54D13*
D03*
G36*
X749500Y-390800D02*
X770500Y-390800D01*
X770500Y-414800D01*
X749500Y-414800D01*
X749500Y-390800D01*
G37*
G54D20*
X626000Y-358000D02*
X676200Y-323700D01*
G54D20*
X342000Y-358000D02*
X392200Y-323700D01*
G54D29*
X760000Y-402800D02*
X774760Y-400776D01*
X828000Y-400800D01*
G54D29*
X828000Y-400800D02*
X834114Y-400800D01*
X853173Y-381741D01*
X760000Y-420800D02*
G54D26*
D03*
G54D25*
X760000Y-420800D02*
X760000Y-402800D01*
G54D25*
X739400Y-402800D02*
X739400Y-422400D01*
G54D25*
X718800Y-422400D02*
X717900Y-387700D01*
G54D25*
X739400Y-385800D02*
X739400Y-402800D01*
X739575Y-355226D02*
G54D36*
D03*
G54D25*
X761600Y-376300D02*
X761627Y-358634D01*
X750156Y-339181D01*
G54D25*
X750156Y-339181D02*
X750054Y-276032D01*
X747940Y-264098D01*
X748000Y-204000D01*
X745396Y-191926D01*
G54D25*
X706506Y-180081D02*
X723196Y-182426D01*
G54D25*
X706506Y-200681D02*
X706222Y-200397D01*
X686655Y-200397D01*
X730897Y-244402D02*
G54D36*
D03*
X765400Y-217218D02*
G54D36*
D03*
G54D25*
X715698Y-222348D02*
X723196Y-214850D01*
X723196Y-201426D01*
G54D25*
X745396Y-191926D02*
X745396Y-179396D01*
X722000Y-156000D01*
G54D30*
X739575Y-355226D02*
X739575Y-366625D01*
X739400Y-366800D01*
X750156Y-339181D02*
G54D36*
D03*
G54D28*
X768000Y-239218D02*
X768000Y-184818D01*
X822437Y-184818D01*
X724897Y-224402D02*
G54D36*
D03*
G54D25*
X724897Y-224402D02*
X720495Y-220000D01*
X720000Y-220000D01*
G54D25*
X724897Y-224402D02*
X722843Y-222348D01*
X711298Y-222348D01*
G54D25*
X724897Y-224402D02*
X723196Y-222701D01*
X723196Y-214850D01*
X759281Y-135458D02*
G54D42*
D03*
X651518Y-243220D02*
G54D42*
D03*
G54D20*
X952680Y-47220D02*
X944000Y-36000D01*
G54D20*
X952680Y-47220D02*
X963923Y-58463D01*
X879762Y-85513D02*
G54D45*
D03*
X879762Y-98213D02*
G54D45*
D03*
X879762Y-110913D02*
G54D45*
D03*
G54D37*
X856912Y-78285D02*
X866000Y-84000D01*
X879762Y-85513D01*
G54D37*
X856912Y-100285D02*
X858443Y-98228D01*
X879762Y-98213D01*
G54D37*
X856911Y-122285D02*
X866000Y-112000D01*
X879762Y-110913D01*
G54D25*
X722606Y-102888D02*
X706000Y-86282D01*
X706000Y-34000D01*
X728762Y-56313D02*
G54D45*
D03*
X740562Y-47713D02*
G54D45*
D03*
X719962Y-67113D02*
G54D45*
D03*
X823762Y-88313D02*
G54D45*
D03*
X823762Y-106913D02*
G54D45*
D03*
X824000Y-120600D02*
G54D45*
D03*
X556000Y-131000D02*
G54D23*
D03*
X626000Y-201000D02*
G54D23*
D03*
X556000Y-288000D02*
G54D23*
D03*
X626000Y-358000D02*
G54D23*
D03*
G54D21*
X272001Y-288092D02*
X342001Y-358092D01*
X272000Y-288000D02*
G54D23*
D03*
X342000Y-358000D02*
G54D23*
D03*
G54D37*
X719962Y-67113D02*
X720449Y-67600D01*
X728034Y-68040D01*
X752000Y-68000D01*
G54D37*
X752000Y-68000D02*
X804600Y-120600D01*
X824000Y-120600D01*
G54D37*
X728762Y-56313D02*
X733344Y-59095D01*
X755864Y-59095D01*
X791682Y-94913D01*
X823762Y-106913D01*
G54D37*
X740562Y-47713D02*
X746249Y-50000D01*
X759627Y-50000D01*
X787940Y-78313D01*
X823762Y-88313D01*
G54D37*
X823762Y-88313D02*
X833790Y-78285D01*
X833912Y-78285D01*
G54D37*
X823762Y-106913D02*
X830390Y-100285D01*
X833912Y-100285D01*
G54D37*
X824000Y-120600D02*
X825685Y-122285D01*
X833911Y-122285D01*
G54D28*
X765400Y-217218D02*
X765400Y-187418D01*
X768000Y-184818D01*
G36*
X794000Y-236000D02*
X748600Y-236000D01*
X748600Y-182702D01*
X794000Y-182702D01*
X794000Y-236000D01*
G37*
G54D43*
X794000Y-236000D02*
X748600Y-236000D01*
X748600Y-182702D01*
X794000Y-182702D01*
X794000Y-236000D01*
G36*
X712000Y-166000D02*
X732000Y-166000D01*
X732000Y-184000D01*
X712000Y-184000D01*
X712000Y-166000D01*
G37*
G54D43*
X712000Y-166000D02*
X732000Y-166000D01*
X732000Y-184000D01*
X712000Y-184000D01*
X712000Y-166000D01*
G36*
X748000Y-226000D02*
X766000Y-226000D01*
X766000Y-264000D01*
X748000Y-264000D01*
X748000Y-226000D01*
G37*
G54D43*
X748000Y-226000D02*
X766000Y-226000D01*
X766000Y-264000D01*
X748000Y-264000D01*
X748000Y-226000D01*
G36*
X730897Y-244402D02*
X701903Y-244402D01*
X701903Y-191580D01*
X730897Y-191580D01*
X730897Y-244402D01*
G37*
G54D43*
X730897Y-244402D02*
X701903Y-244402D01*
X701903Y-191580D01*
X730897Y-191580D01*
X730897Y-244402D01*
G36*
X722000Y-176000D02*
X744000Y-176000D01*
X744000Y-244000D01*
X722000Y-244000D01*
X722000Y-176000D01*
G37*
G54D43*
X722000Y-176000D02*
X744000Y-176000D01*
X744000Y-244000D01*
X722000Y-244000D01*
X722000Y-176000D01*
G36*
X834114Y-400800D02*
X798000Y-400800D01*
X798000Y-382000D01*
X834114Y-382000D01*
X834114Y-400800D01*
G37*
G54D43*
X834114Y-400800D02*
X798000Y-400800D01*
X798000Y-382000D01*
X834114Y-382000D01*
X834114Y-400800D01*
G36*
X794000Y-396000D02*
X722000Y-396000D01*
X722000Y-338000D01*
X794000Y-338000D01*
X794000Y-396000D01*
G37*
G54D43*
X794000Y-396000D02*
X722000Y-396000D01*
X722000Y-338000D01*
X794000Y-338000D01*
X794000Y-396000D01*
G36*
X720000Y-376000D02*
X794937Y-376000D01*
X794937Y-426218D01*
X720000Y-426218D01*
X720000Y-376000D01*
G37*
G54D43*
X720000Y-376000D02*
X794937Y-376000D01*
X794937Y-426218D01*
X720000Y-426218D01*
X720000Y-376000D01*
G36*
X780000Y-386000D02*
X732875Y-386000D01*
X732875Y-314596D01*
X780000Y-314596D01*
X780000Y-386000D01*
G37*
G54D43*
X780000Y-386000D02*
X732875Y-386000D01*
X732875Y-314596D01*
X780000Y-314596D01*
X780000Y-386000D01*
G36*
X894000Y-216000D02*
X858772Y-216000D01*
X858772Y-178168D01*
X894000Y-178168D01*
X894000Y-216000D01*
G37*
G54D43*
X894000Y-216000D02*
X858772Y-216000D01*
X858772Y-178168D01*
X894000Y-178168D01*
X894000Y-216000D01*
G36*
X948903Y-383597D02*
X915615Y-383597D01*
X915615Y-377390D01*
X948903Y-377390D01*
X948903Y-383597D01*
G37*
G54D11*
X948903Y-383597D02*
X915615Y-383597D01*
X915615Y-377390D01*
X948903Y-377390D01*
X948903Y-383597D01*
G36*
X762932Y-69698D02*
X699012Y-69698D01*
X699012Y-38068D01*
X762932Y-38068D01*
X762932Y-69698D01*
G37*
G54D11*
X762932Y-69698D02*
X699012Y-69698D01*
X699012Y-38068D01*
X762932Y-38068D01*
X762932Y-69698D01*
G36*
X856911Y-122285D02*
X833911Y-122285D01*
X825685Y-122285D01*
X824000Y-120600D01*
X804600Y-120600D01*
X804600Y-118600D01*
X782000Y-96000D01*
X782000Y-88000D01*
X790000Y-80000D01*
X823762Y-88313D01*
X833912Y-78285D01*
X856912Y-78285D01*
X862000Y-84000D01*
X879762Y-85513D01*
X879762Y-110913D01*
X866000Y-112000D01*
X856911Y-122285D01*
G37*
G54D11*
X856911Y-122285D02*
X833911Y-122285D01*
X825685Y-122285D01*
X824000Y-120600D01*
X804600Y-120600D01*
X804600Y-118600D01*
X782000Y-96000D01*
X782000Y-88000D01*
X790000Y-80000D01*
X823762Y-88313D01*
X833912Y-78285D01*
X856912Y-78285D01*
X862000Y-84000D01*
X879762Y-85513D01*
X879762Y-110913D01*
X866000Y-112000D01*
X856911Y-122285D01*
G36*
X635000Y-35000D02*
X698000Y-35000D01*
X698000Y-64000D01*
X635000Y-64000D01*
X635000Y-35000D01*
G37*
G54D11*
X635000Y-35000D02*
X698000Y-35000D01*
X698000Y-64000D01*
X635000Y-64000D01*
X635000Y-35000D01*
%LPD*%
X422606Y-140888D02*
G54D46*
D03*
X422606Y-161488D02*
G54D46*
D03*
X436606Y-102888D02*
G54D46*
D03*
X436606Y-123488D02*
G54D46*
D03*
X433706Y-179766D02*
G54D46*
D03*
X433706Y-200366D02*
G54D46*
D03*
X123627Y-104377D02*
G54D47*
D03*
X104627Y-104377D02*
G54D47*
D03*
X114127Y-82177D02*
G54D47*
D03*
X90225Y-121194D02*
G54D48*
D03*
X110825Y-121194D02*
G54D48*
D03*
X69805Y-131641D02*
G54D46*
D03*
X69805Y-111041D02*
G54D46*
D03*
X158027Y-104378D02*
G54D47*
D03*
X139027Y-104378D02*
G54D47*
D03*
X148527Y-82178D02*
G54D47*
D03*
X126825Y-121194D02*
G54D48*
D03*
X147424Y-121194D02*
G54D48*
D03*
G36*
X88027Y-59177D02*
X99027Y-59177D01*
X99027Y-73177D01*
X88027Y-73177D01*
X88027Y-59177D01*
G37*
X114127Y-66177D02*
G54D48*
D03*
X132572Y-45648D02*
G54D46*
D03*
X132572Y-66248D02*
G54D46*
D03*
X130272Y-141848D02*
G54D46*
D03*
X130272Y-162448D02*
G54D46*
D03*
X149272Y-141848D02*
G54D46*
D03*
X149272Y-162448D02*
G54D46*
D03*
X130380Y-181804D02*
G54D48*
D03*
G36*
X145480Y-174804D02*
X156480Y-174804D01*
X156480Y-188804D01*
X145480Y-188804D01*
X145480Y-174804D01*
G37*
X165459Y-77194D02*
G54D48*
D03*
X186059Y-77194D02*
G54D48*
D03*
X130380Y-181804D02*
G54D48*
D03*
X114127Y-66177D02*
G54D48*
D03*
X452000Y-196000D02*
G54D49*
D03*
X452000Y-165500D02*
G54D49*
D03*
X467200Y-196000D02*
G54D49*
D03*
X467200Y-165500D02*
G54D49*
D03*
X482400Y-196000D02*
G54D49*
D03*
X482400Y-165500D02*
G54D49*
D03*
X506150Y-72550D02*
G54D50*
D03*
X506150Y-120950D02*
G54D50*
D03*
X505800Y-165300D02*
G54D51*
D03*
X505800Y-216100D02*
G54D51*
D03*
G54D19*
X486400Y-165500D02*
X505600Y-165500D01*
X505800Y-165300D01*
G36*
X486400Y-157500D02*
X486400Y-173500D01*
X478400Y-173500D01*
X478400Y-157500D01*
X486400Y-157500D01*
G37*
G54D31*
X452000Y-196000D02*
X452000Y-210000D01*
X456000Y-214000D01*
X493000Y-214000D01*
X504900Y-217000D01*
X505800Y-216100D01*
G54D31*
X452000Y-165500D02*
X452000Y-154000D01*
X460000Y-146000D01*
X481100Y-146000D01*
X506150Y-120950D01*
G54D37*
X505800Y-165300D02*
X556000Y-131000D01*
X549900Y-105400D02*
G54D48*
D03*
X529300Y-105400D02*
G54D48*
D03*
X528012Y-88433D02*
G54D52*
D03*
X552712Y-88433D02*
G54D52*
D03*
G54D53*
X529300Y-105400D02*
X529287Y-98238D01*
X527612Y-88033D01*
X506150Y-72550D01*
X537553Y-51153D02*
G54D46*
D03*
X537553Y-71753D02*
G54D46*
D03*
G54D31*
X527612Y-88033D02*
X537553Y-70253D01*
G54D31*
X537553Y-49653D02*
X581653Y-49653D01*
X591000Y-59000D01*
X591000Y-71703D01*
X590980Y-71723D01*
G54D53*
X556000Y-131000D02*
X626000Y-201000D01*
X462700Y-126700D02*
G54D54*
D03*
X462700Y-101300D02*
G54D54*
D03*
X168000Y-196000D02*
G54D49*
D03*
X168000Y-165500D02*
G54D49*
D03*
X183200Y-196000D02*
G54D49*
D03*
X183200Y-165500D02*
G54D49*
D03*
X198400Y-196000D02*
G54D49*
D03*
X198400Y-165500D02*
G54D49*
D03*
X307000Y-116000D02*
G54D55*
D03*
X307000Y-216000D02*
G54D55*
D03*
X342000Y-131000D02*
G54D56*
D03*
X272000Y-131000D02*
G54D56*
D03*
X342000Y-166000D02*
G54D56*
D03*
X272000Y-201000D02*
G54D56*
D03*
X342000Y-201000D02*
G54D56*
D03*
X222150Y-72550D02*
G54D50*
D03*
X222150Y-120950D02*
G54D50*
D03*
X221800Y-165300D02*
G54D51*
D03*
X221800Y-216100D02*
G54D51*
D03*
G54D19*
X202400Y-165500D02*
X221600Y-165500D01*
X221800Y-165300D01*
G36*
X202400Y-157500D02*
X202400Y-173500D01*
X194400Y-173500D01*
X194400Y-157500D01*
X202400Y-157500D01*
G37*
G54D31*
X168000Y-196000D02*
X168000Y-210000D01*
X172000Y-214000D01*
X209000Y-214000D01*
X220900Y-217000D01*
X221800Y-216100D01*
G54D31*
X168000Y-165500D02*
X168000Y-154000D01*
X176000Y-146000D01*
X197100Y-146000D01*
X222150Y-120950D01*
G54D37*
X221800Y-165300D02*
X272000Y-131000D01*
X265900Y-105400D02*
G54D48*
D03*
X245300Y-105400D02*
G54D48*
D03*
X244012Y-88433D02*
G54D52*
D03*
X268712Y-88433D02*
G54D52*
D03*
G54D53*
X245301Y-107038D02*
X245287Y-98238D01*
X243339Y-89580D01*
X222150Y-72550D01*
G36*
X239801Y-107046D02*
X250801Y-107029D01*
X250809Y-112529D01*
X239809Y-112546D01*
X239801Y-107046D01*
G37*
X253553Y-51153D02*
G54D46*
D03*
X253553Y-71753D02*
G54D46*
D03*
G54D31*
X243612Y-88033D02*
X253553Y-70253D01*
G54D31*
X253553Y-49653D02*
X297653Y-49653D01*
X307000Y-59000D01*
X307000Y-71703D01*
X306980Y-71723D01*
X371859Y-80344D02*
G54D48*
D03*
X351259Y-80344D02*
G54D48*
D03*
G54D53*
X350659Y-80344D02*
X332659Y-72002D01*
X332380Y-71723D01*
X352400Y-41100D02*
G54D46*
D03*
X352400Y-61700D02*
G54D46*
D03*
X364553Y-102953D02*
G54D46*
D03*
X364553Y-123553D02*
G54D46*
D03*
X364747Y-141034D02*
G54D57*
D03*
X364747Y-165734D02*
G54D57*
D03*
X364655Y-179797D02*
G54D46*
D03*
X364655Y-200397D02*
G54D46*
D03*
G54D11*
X364647Y-137859D02*
X364553Y-123553D01*
G54D11*
X364747Y-165734D02*
X364655Y-179797D01*
X364553Y-123553D02*
G54D46*
D03*
X383553Y-102953D02*
G54D46*
D03*
X383553Y-123553D02*
G54D46*
D03*
X383747Y-141034D02*
G54D57*
D03*
X383747Y-165734D02*
G54D57*
D03*
X383655Y-179797D02*
G54D46*
D03*
X383655Y-200397D02*
G54D46*
D03*
G54D11*
X383647Y-137859D02*
X383553Y-123553D01*
G54D11*
X383747Y-165734D02*
X383655Y-179797D01*
X383553Y-123553D02*
G54D46*
D03*
X402553Y-102953D02*
G54D46*
D03*
X402553Y-123553D02*
G54D46*
D03*
X402747Y-141034D02*
G54D57*
D03*
X402747Y-165734D02*
G54D57*
D03*
X402655Y-179797D02*
G54D46*
D03*
X402655Y-200397D02*
G54D46*
D03*
G54D11*
X402647Y-137859D02*
X402553Y-123553D01*
G54D11*
X402747Y-165734D02*
X402655Y-179797D01*
X402553Y-123553D02*
G54D46*
D03*
X364468Y-146113D02*
G54D58*
D03*
X383468Y-146113D02*
G54D58*
D03*
X402468Y-146113D02*
G54D58*
D03*
G54D59*
X364468Y-146113D02*
X364468Y-138038D01*
X364647Y-137859D01*
G54D59*
X383468Y-146113D02*
X383468Y-138038D01*
X383647Y-137859D01*
G54D59*
X402468Y-146113D02*
X402468Y-138038D01*
X402647Y-137859D01*
G36*
X302211Y-153438D02*
X294433Y-161217D01*
X284534Y-151317D01*
X292312Y-143539D01*
X302211Y-153438D01*
G37*
G36*
X287645Y-168005D02*
X279866Y-175783D01*
X269967Y-165884D01*
X277745Y-158106D01*
X287645Y-168005D01*
G37*
G54D53*
X272000Y-131000D02*
X342000Y-201000D01*
X178700Y-126700D02*
G54D54*
D03*
X178700Y-101300D02*
G54D54*
D03*
X416468Y-198113D02*
G54D58*
D03*
X444468Y-141113D02*
G54D58*
D03*
X431468Y-210113D02*
G54D58*
D03*
G54D60*
X416468Y-198113D02*
X418000Y-196581D01*
X418000Y-171000D01*
X422606Y-161488D01*
G54D59*
X422606Y-161488D02*
X435512Y-161488D01*
X439000Y-158000D01*
X439000Y-146581D01*
X444468Y-141113D01*
G54D59*
X444468Y-141113D02*
X440000Y-135000D01*
X436606Y-123488D01*
G54D31*
X431468Y-210113D02*
X433706Y-200366D01*
G54D11*
X243000Y-34000D02*
X956000Y-34000D01*
G54D61*
X332380Y-71723D02*
X342377Y-71723D01*
X352400Y-61700D01*
G54D61*
X350659Y-80344D02*
X350659Y-63441D01*
X352400Y-61700D01*
G54D31*
X198400Y-195600D02*
X198400Y-187000D01*
X192000Y-180600D01*
X153000Y-180600D01*
G54D31*
X198400Y-196000D02*
X209000Y-196000D01*
G54D31*
X192000Y-180600D02*
X205600Y-180600D01*
X213000Y-188000D01*
G54D31*
X209000Y-184000D02*
X200000Y-184000D01*
G54D53*
X351300Y-81800D02*
X351300Y-69800D01*
G36*
X345800Y-81800D02*
X356800Y-81800D01*
X356800Y-87300D01*
X345800Y-87300D01*
X345800Y-81800D01*
G37*
G36*
X356800Y-69800D02*
X345800Y-69800D01*
X345800Y-64300D01*
X356800Y-64300D01*
X356800Y-69800D01*
G37*
G54D53*
X402655Y-200397D02*
X342603Y-200397D01*
X342000Y-201000D01*
X433706Y-200366D02*
G54D46*
D03*
G54D53*
X529301Y-107038D02*
X529287Y-98238D01*
X527339Y-89580D01*
X506150Y-72550D01*
G36*
X523801Y-107046D02*
X534801Y-107029D01*
X534810Y-112529D01*
X523810Y-112546D01*
X523801Y-107046D01*
G37*
G54D31*
X482400Y-195600D02*
X482400Y-187000D01*
X476000Y-180600D01*
X436000Y-180600D01*
G54D31*
X482400Y-196000D02*
X493000Y-196000D01*
G54D31*
X476000Y-180600D02*
X489600Y-180600D01*
X497000Y-188000D01*
G54D31*
X493000Y-184000D02*
X484000Y-184000D01*
X422606Y-161488D02*
G54D46*
D03*
G36*
X317211Y-168439D02*
X309433Y-176217D01*
X299534Y-166317D01*
X307312Y-158539D01*
X317211Y-168439D01*
G37*
G36*
X302645Y-183005D02*
X294866Y-190783D01*
X284967Y-180884D01*
X292745Y-173106D01*
X302645Y-183005D01*
G37*
G36*
X587211Y-154437D02*
X579433Y-162215D01*
X569534Y-152316D01*
X577312Y-144538D01*
X587211Y-154437D01*
G37*
G36*
X572645Y-169004D02*
X564866Y-176782D01*
X554967Y-166882D01*
X562745Y-159104D01*
X572645Y-169004D01*
G37*
G36*
X602211Y-169437D02*
X594433Y-177215D01*
X584534Y-167316D01*
X592312Y-159538D01*
X602211Y-169437D01*
G37*
G36*
X587645Y-184004D02*
X579866Y-191782D01*
X569967Y-181882D01*
X577745Y-174104D01*
X587645Y-184004D01*
G37*
G54D11*
X450202Y-243798D02*
X730897Y-244402D01*
G54D31*
X431468Y-210113D02*
X436468Y-228468D01*
X436468Y-250468D01*
G54D31*
X431468Y-210113D02*
X431468Y-202604D01*
X433706Y-200366D01*
X395500Y-55000D02*
G54D58*
D03*
G54D60*
X395500Y-55000D02*
X395500Y-84000D01*
X395500Y-84000D02*
G54D58*
D03*
X407600Y-46000D02*
G54D58*
D03*
G54D60*
X407600Y-46000D02*
X407600Y-84200D01*
X407600Y-84200D02*
G54D58*
D03*
G54D61*
X436606Y-102888D02*
X456000Y-73000D01*
X456000Y-36000D01*
X426668Y-74113D02*
G54D58*
D03*
X436468Y-74113D02*
G54D58*
D03*
X426623Y-87828D02*
G54D58*
D03*
X421468Y-111113D02*
G54D58*
D03*
X468793Y-74031D02*
G54D58*
D03*
X464539Y-83343D02*
G54D58*
D03*
X347468Y-105113D02*
G54D58*
D03*
X331468Y-105113D02*
G54D58*
D03*
X280468Y-109113D02*
G54D58*
D03*
X290468Y-91113D02*
G54D58*
D03*
X313468Y-91113D02*
G54D58*
D03*
X323468Y-98113D02*
G54D58*
D03*
X333468Y-92113D02*
G54D58*
D03*
X339468Y-111113D02*
G54D58*
D03*
X340468Y-98113D02*
G54D58*
D03*
X285468Y-100113D02*
G54D58*
D03*
X312468Y-147113D02*
G54D58*
D03*
X321468Y-156113D02*
G54D58*
D03*
X321468Y-138113D02*
G54D58*
D03*
X330468Y-147113D02*
G54D58*
D03*
X265218Y-156863D02*
G54D58*
D03*
X252093Y-163738D02*
G54D58*
D03*
X217609Y-187484D02*
G54D58*
D03*
X233093Y-190988D02*
G54D58*
D03*
X243468Y-178113D02*
G54D58*
D03*
X241583Y-204459D02*
G54D58*
D03*
X244469Y-212699D02*
G54D58*
D03*
X269468Y-176113D02*
G54D58*
D03*
X277986Y-183297D02*
G54D58*
D03*
X287468Y-194113D02*
G54D58*
D03*
X305468Y-192113D02*
G54D58*
D03*
X318468Y-196113D02*
G54D58*
D03*
X253468Y-222113D02*
G54D58*
D03*
X268468Y-222113D02*
G54D58*
D03*
X281468Y-222113D02*
G54D58*
D03*
X330468Y-222113D02*
G54D58*
D03*
X342468Y-222113D02*
G54D58*
D03*
X431866Y-81601D02*
G54D58*
D03*
X67512Y-174214D02*
G54D57*
D03*
X67512Y-149514D02*
G54D57*
D03*
X73612Y-205788D02*
G54D57*
D03*
X73612Y-230488D02*
G54D57*
D03*
X85505Y-150847D02*
G54D46*
D03*
X85505Y-171447D02*
G54D46*
D03*
X105405Y-171641D02*
G54D46*
D03*
X105405Y-151041D02*
G54D46*
D03*
X123519Y-258600D02*
G54D47*
D03*
X123519Y-277600D02*
G54D47*
D03*
X101319Y-268100D02*
G54D47*
D03*
X84700Y-268200D02*
G54D62*
D03*
X47200Y-268200D02*
G54D62*
D03*
X80500Y-268200D02*
G54D63*
D03*
X51500Y-268200D02*
G54D63*
D03*
X51469Y-241982D02*
G54D48*
D03*
X30869Y-241982D02*
G54D48*
D03*
X41000Y-222600D02*
G54D46*
D03*
X41000Y-202000D02*
G54D46*
D03*
G54D11*
X130380Y-181804D02*
X130380Y-193380D01*
X181000Y-244000D01*
X243000Y-244000D01*
G54D60*
X149272Y-141848D02*
X162000Y-134119D01*
X162000Y-110000D01*
X158027Y-104378D01*
G54D31*
X147424Y-121194D02*
X139027Y-104378D01*
G54D59*
X158027Y-104378D02*
X166000Y-83000D01*
X165459Y-77194D01*
G54D53*
X178700Y-101300D02*
X186059Y-77194D01*
X115186Y-136652D02*
G54D58*
D03*
X109130Y-136687D02*
G54D58*
D03*
X103075Y-136652D02*
G54D58*
D03*
X97020Y-136582D02*
G54D58*
D03*
X105405Y-171641D02*
G54D46*
D03*
G54D53*
X85505Y-171447D02*
X105405Y-171641D01*
G54D64*
X104922Y-186341D02*
X104933Y-172409D01*
X104922Y-186341D02*
G54D65*
D03*
G54D43*
X67512Y-149514D02*
X85505Y-150847D01*
G54D53*
X104627Y-104377D02*
X104568Y-109926D01*
X110727Y-117310D01*
X110825Y-121194D01*
G54D53*
X69805Y-111041D02*
X80633Y-111031D01*
X90225Y-121194D01*
X67922Y-191341D02*
G54D65*
D03*
G54D11*
X73612Y-205788D02*
X67922Y-191740D01*
X67922Y-191341D01*
X67512Y-190931D01*
X67512Y-174214D01*
G54D11*
X67512Y-149514D02*
X67504Y-137284D01*
X69805Y-131641D01*
X91020Y-136582D02*
G54D58*
D03*
X85020Y-136582D02*
G54D58*
D03*
X135173Y-277741D02*
G54D65*
D03*
G54D11*
X135173Y-277741D02*
X123558Y-277739D01*
X123519Y-277700D01*
G54D11*
X41000Y-202000D02*
X40896Y-95407D01*
G54D35*
X11000Y-491000D02*
X11000Y-11000D01*
G36*
X1000Y-491000D02*
X21000Y-491000D01*
X21000Y-501000D01*
X1000Y-501000D01*
X1000Y-491000D01*
G37*
G36*
X21000Y-11000D02*
X1000Y-11000D01*
X1000Y-1000D01*
X21000Y-1000D01*
X21000Y-11000D01*
G37*
G54D35*
X11000Y-11000D02*
X990000Y-11000D01*
G36*
X990000Y-21000D02*
X990000Y-1000D01*
X1000000Y-1000D01*
X1000000Y-21000D01*
X990000Y-21000D01*
G37*
X40896Y-72407D02*
G54D66*
D03*
X40896Y-95407D02*
G54D66*
D03*
X40896Y-83907D02*
G54D67*
D03*
X101319Y-268100D02*
G54D47*
D03*
X123519Y-277600D02*
G54D47*
D03*
X26715Y-84037D02*
G54D58*
D03*
X54980Y-83871D02*
G54D58*
D03*
G54D53*
X114127Y-82177D02*
X114127Y-66177D01*
G54D53*
X148527Y-82178D02*
X148502Y-82178D01*
X132572Y-66248D01*
G54D53*
X114127Y-66177D02*
X132501Y-66177D01*
X132572Y-66248D01*
G54D31*
X123627Y-104377D02*
X124974Y-111523D01*
X126825Y-121194D01*
X126775Y-129485D01*
X130272Y-141848D01*
G54D53*
X130380Y-181804D02*
X130272Y-162448D01*
G54D53*
X130272Y-162448D02*
X149272Y-162448D01*
G54D11*
X40896Y-72407D02*
X51896Y-51104D01*
X69000Y-34000D01*
X243000Y-34000D01*
G54D11*
X132572Y-45648D02*
X132572Y-35428D01*
X133000Y-35000D01*
X54980Y-76871D02*
G54D58*
D03*
X55025Y-92234D02*
G54D58*
D03*
X26980Y-74871D02*
G54D58*
D03*
X26980Y-92871D02*
G54D58*
D03*
X60980Y-60871D02*
G54D58*
D03*
X66980Y-54871D02*
G54D58*
D03*
X74980Y-45871D02*
G54D58*
D03*
X82980Y-45871D02*
G54D58*
D03*
X91980Y-45871D02*
G54D58*
D03*
X109254Y-45872D02*
G54D58*
D03*
X78980Y-57871D02*
G54D58*
D03*
X66981Y-63946D02*
G54D58*
D03*
X80438Y-65275D02*
G54D58*
D03*
X82703Y-78562D02*
G54D58*
D03*
X90980Y-101871D02*
G54D58*
D03*
X85980Y-95871D02*
G54D58*
D03*
X82207Y-72041D02*
G54D58*
D03*
X98980Y-80871D02*
G54D58*
D03*
X90980Y-89871D02*
G54D58*
D03*
X79980Y-218071D02*
G54D58*
D03*
X65980Y-218071D02*
G54D58*
D03*
X72980Y-218071D02*
G54D58*
D03*
X191734Y-258218D02*
G54D58*
D03*
X11000Y-166000D02*
G54D58*
D03*
X11000Y-136000D02*
G54D58*
D03*
X11000Y-116000D02*
G54D58*
D03*
X11000Y-96000D02*
G54D58*
D03*
X11000Y-76000D02*
G54D58*
D03*
X11000Y-56000D02*
G54D58*
D03*
X11000Y-36000D02*
G54D58*
D03*
X11000Y-16000D02*
G54D58*
D03*
X21000Y-11000D02*
G54D58*
D03*
X41000Y-11000D02*
G54D58*
D03*
X61000Y-11000D02*
G54D58*
D03*
X11000Y-286000D02*
G54D58*
D03*
X11000Y-266000D02*
G54D58*
D03*
X11000Y-246000D02*
G54D58*
D03*
X11000Y-226000D02*
G54D58*
D03*
X11000Y-206000D02*
G54D58*
D03*
X11000Y-186000D02*
G54D58*
D03*
X81000Y-11000D02*
G54D58*
D03*
X101000Y-11000D02*
G54D58*
D03*
X121000Y-11000D02*
G54D58*
D03*
X141000Y-11000D02*
G54D58*
D03*
X161000Y-11000D02*
G54D58*
D03*
X181000Y-11000D02*
G54D58*
D03*
X201000Y-11000D02*
G54D58*
D03*
X221000Y-11000D02*
G54D58*
D03*
X241000Y-11000D02*
G54D58*
D03*
X261000Y-11000D02*
G54D58*
D03*
X281000Y-11000D02*
G54D58*
D03*
X301000Y-11000D02*
G54D58*
D03*
X321000Y-11000D02*
G54D58*
D03*
X341000Y-11000D02*
G54D58*
D03*
X361000Y-11000D02*
G54D58*
D03*
X381000Y-11000D02*
G54D58*
D03*
X401000Y-11000D02*
G54D58*
D03*
X421000Y-11000D02*
G54D58*
D03*
X441000Y-11000D02*
G54D58*
D03*
X461000Y-11000D02*
G54D58*
D03*
X481000Y-11000D02*
G54D58*
D03*
X501000Y-11000D02*
G54D58*
D03*
X521000Y-11000D02*
G54D58*
D03*
X541000Y-11000D02*
G54D58*
D03*
X561000Y-11000D02*
G54D58*
D03*
X581000Y-11000D02*
G54D58*
D03*
X601000Y-11000D02*
G54D58*
D03*
X621000Y-11000D02*
G54D58*
D03*
X641000Y-11000D02*
G54D58*
D03*
X661000Y-11000D02*
G54D58*
D03*
X681000Y-11000D02*
G54D58*
D03*
X52500Y-31500D02*
G54D58*
D03*
X45474Y-38760D02*
G54D58*
D03*
X37500Y-47000D02*
G54D58*
D03*
X32500Y-58000D02*
G54D58*
D03*
X28600Y-105900D02*
G54D58*
D03*
X28600Y-116900D02*
G54D58*
D03*
X28600Y-127900D02*
G54D58*
D03*
X53922Y-172324D02*
G54D58*
D03*
X54000Y-180000D02*
G54D58*
D03*
X56258Y-198025D02*
G54D58*
D03*
X54834Y-188942D02*
G54D58*
D03*
X61000Y-212000D02*
G54D58*
D03*
X53814Y-165229D02*
G54D58*
D03*
X175765Y-46754D02*
G54D58*
D03*
X189751Y-47054D02*
G54D58*
D03*
X177017Y-60126D02*
G54D58*
D03*
X186854Y-58842D02*
G54D58*
D03*
X706606Y-140888D02*
G54D46*
D03*
X706606Y-161488D02*
G54D46*
D03*
X724606Y-102888D02*
G54D46*
D03*
X724606Y-123488D02*
G54D46*
D03*
X655659Y-80344D02*
G54D48*
D03*
X635059Y-80344D02*
G54D48*
D03*
G54D53*
X634659Y-80344D02*
X616659Y-72002D01*
X616380Y-71723D01*
X636400Y-41100D02*
G54D46*
D03*
X636400Y-61700D02*
G54D46*
D03*
X648553Y-102953D02*
G54D46*
D03*
X648553Y-123553D02*
G54D46*
D03*
X648747Y-141034D02*
G54D57*
D03*
X648747Y-165734D02*
G54D57*
D03*
X648655Y-179797D02*
G54D46*
D03*
X648655Y-200397D02*
G54D46*
D03*
G54D11*
X648647Y-137859D02*
X648553Y-123553D01*
G54D11*
X648747Y-165734D02*
X648655Y-179797D01*
X648553Y-123553D02*
G54D46*
D03*
X667553Y-102953D02*
G54D46*
D03*
X667553Y-123553D02*
G54D46*
D03*
X667747Y-141034D02*
G54D57*
D03*
X667747Y-165734D02*
G54D57*
D03*
X667655Y-179797D02*
G54D46*
D03*
X667655Y-200397D02*
G54D46*
D03*
G54D11*
X667647Y-137859D02*
X667553Y-123553D01*
G54D11*
X667747Y-165734D02*
X667655Y-179797D01*
X667553Y-123553D02*
G54D46*
D03*
X686553Y-102953D02*
G54D46*
D03*
X686553Y-123553D02*
G54D46*
D03*
X686747Y-141034D02*
G54D57*
D03*
X686747Y-165734D02*
G54D57*
D03*
X686655Y-179797D02*
G54D46*
D03*
X686655Y-200397D02*
G54D46*
D03*
G54D11*
X686647Y-137859D02*
X686553Y-123553D01*
G54D11*
X686747Y-165734D02*
X686655Y-179797D01*
X686553Y-123553D02*
G54D46*
D03*
X648468Y-146114D02*
G54D58*
D03*
X667468Y-146114D02*
G54D58*
D03*
X686468Y-146114D02*
G54D58*
D03*
G54D59*
X648468Y-146114D02*
X648468Y-138038D01*
X648647Y-137859D01*
G54D59*
X667468Y-146114D02*
X667468Y-138038D01*
X667647Y-137859D01*
G54D59*
X686468Y-146114D02*
X686468Y-138038D01*
X686647Y-137859D01*
G54D61*
X616380Y-71723D02*
X626377Y-71723D01*
X636400Y-61700D01*
G54D53*
X635100Y-81800D02*
X635100Y-69800D01*
G36*
X629600Y-81800D02*
X640600Y-81800D01*
X640600Y-87300D01*
X629600Y-87300D01*
X629600Y-81800D01*
G37*
G36*
X640600Y-69800D02*
X629600Y-69800D01*
X629600Y-64300D01*
X640600Y-64300D01*
X640600Y-69800D01*
G37*
G54D53*
X686655Y-200397D02*
X626603Y-200397D01*
X626000Y-201000D01*
X706606Y-161488D02*
G54D46*
D03*
X679500Y-55000D02*
G54D58*
D03*
G54D60*
X679500Y-55000D02*
X679500Y-84000D01*
X679500Y-84000D02*
G54D58*
D03*
X691600Y-46000D02*
G54D58*
D03*
G54D60*
X691600Y-46000D02*
X691600Y-84200D01*
X691600Y-84200D02*
G54D58*
D03*
X709468Y-111314D02*
G54D58*
D03*
X391850Y-416450D02*
G54D50*
D03*
X391850Y-368050D02*
G54D50*
D03*
X392200Y-272900D02*
G54D51*
D03*
X392200Y-323700D02*
G54D51*
D03*
X348101Y-383600D02*
G54D48*
D03*
X368701Y-383600D02*
G54D48*
D03*
X369988Y-400567D02*
G54D52*
D03*
X345288Y-400567D02*
G54D52*
D03*
G54D53*
X368701Y-383600D02*
X368714Y-390762D01*
X370388Y-400967D01*
X391850Y-416450D01*
X360448Y-437847D02*
G54D46*
D03*
X360448Y-417247D02*
G54D46*
D03*
G54D31*
X370388Y-400967D02*
X360448Y-418747D01*
G54D31*
X360448Y-439347D02*
X316347Y-439347D01*
X307000Y-430000D01*
X307000Y-417297D01*
X307020Y-417277D01*
G54D53*
X368700Y-381962D02*
X368714Y-390762D01*
X370662Y-399420D01*
X391850Y-416450D01*
G36*
X374200Y-381954D02*
X363200Y-381971D01*
X363191Y-376471D01*
X374191Y-376454D01*
X374200Y-381954D01*
G37*
X822437Y-346018D02*
G54D47*
D03*
X841437Y-346017D02*
G54D47*
D03*
X831937Y-368218D02*
G54D47*
D03*
X191324Y-309150D02*
G54D46*
D03*
X191324Y-288550D02*
G54D46*
D03*
X175874Y-324523D02*
G54D47*
D03*
G36*
X189374Y-319023D02*
X200374Y-319023D01*
X200374Y-330023D01*
X189374Y-330023D01*
X189374Y-319023D01*
G37*
X185374Y-346723D02*
G54D47*
D03*
X139415Y-360270D02*
G54D47*
D03*
G36*
X152916Y-354770D02*
X163916Y-354770D01*
X163916Y-365770D01*
X152916Y-365770D01*
X152916Y-354770D01*
G37*
X148916Y-382470D02*
G54D47*
D03*
X158501Y-324564D02*
G54D46*
D03*
X158501Y-345164D02*
G54D46*
D03*
X148809Y-420711D02*
G54D46*
D03*
X148809Y-400111D02*
G54D46*
D03*
X179394Y-420712D02*
G54D46*
D03*
X179394Y-400112D02*
G54D46*
D03*
X171229Y-307302D02*
G54D46*
D03*
X171229Y-286702D02*
G54D46*
D03*
X139129Y-324602D02*
G54D46*
D03*
X139129Y-304002D02*
G54D46*
D03*
X199642Y-268587D02*
G54D48*
D03*
X179042Y-268587D02*
G54D48*
D03*
X139497Y-342592D02*
G54D48*
D03*
X118897Y-342592D02*
G54D48*
D03*
X241141Y-424556D02*
G54D48*
D03*
G36*
X256241Y-417556D02*
X267241Y-417556D01*
X267241Y-431556D01*
X256241Y-431556D01*
X256241Y-417556D01*
G37*
G54D53*
X262341Y-424556D02*
X281341Y-416898D01*
X281620Y-417177D01*
X261600Y-461800D02*
G54D46*
D03*
X261600Y-441200D02*
G54D46*
D03*
X249448Y-385947D02*
G54D46*
D03*
X249448Y-365347D02*
G54D46*
D03*
X249253Y-347866D02*
G54D57*
D03*
X249253Y-323166D02*
G54D57*
D03*
X249345Y-309103D02*
G54D46*
D03*
X249345Y-288503D02*
G54D46*
D03*
G54D11*
X249353Y-351041D02*
X249448Y-365347D01*
G54D11*
X249253Y-323166D02*
X249345Y-309103D01*
X249448Y-365347D02*
G54D46*
D03*
X230448Y-385947D02*
G54D46*
D03*
X230448Y-365347D02*
G54D46*
D03*
X230253Y-347866D02*
G54D57*
D03*
X230253Y-323166D02*
G54D57*
D03*
X230345Y-309103D02*
G54D46*
D03*
X230345Y-288503D02*
G54D46*
D03*
G54D11*
X230353Y-351041D02*
X230448Y-365347D01*
G54D11*
X230253Y-323166D02*
X230345Y-309103D01*
X230448Y-365347D02*
G54D46*
D03*
X211448Y-385947D02*
G54D46*
D03*
X211448Y-365347D02*
G54D46*
D03*
X211253Y-347866D02*
G54D57*
D03*
X211253Y-323166D02*
G54D57*
D03*
X211345Y-309103D02*
G54D46*
D03*
X211345Y-288503D02*
G54D46*
D03*
G54D11*
X211353Y-351041D02*
X211448Y-365347D01*
G54D11*
X211253Y-323166D02*
X211345Y-309103D01*
X211448Y-365347D02*
G54D46*
D03*
X249533Y-342786D02*
G54D58*
D03*
X230533Y-342787D02*
G54D58*
D03*
X211533Y-342786D02*
G54D58*
D03*
G54D59*
X249533Y-342786D02*
X249533Y-350862D01*
X249353Y-351041D01*
G54D59*
X230533Y-342787D02*
X230533Y-350862D01*
X230353Y-351041D01*
G54D59*
X211533Y-342786D02*
X211533Y-350862D01*
X211353Y-351041D01*
G54D61*
X281620Y-417177D02*
X281620Y-417277D01*
X261741Y-424556D01*
X261600Y-441200D01*
G54D53*
X211345Y-288503D02*
X271397Y-288503D01*
X272000Y-287900D01*
X179042Y-268587D02*
G54D48*
D03*
X148809Y-400111D02*
G54D46*
D03*
G54D31*
X180533Y-270787D02*
X180533Y-245432D01*
X180000Y-244900D01*
X135133Y-421787D02*
G54D58*
D03*
X193935Y-453073D02*
G54D58*
D03*
X73840Y-350463D02*
G54D52*
D03*
X98540Y-350463D02*
G54D52*
D03*
X73612Y-330314D02*
G54D57*
D03*
X73612Y-305614D02*
G54D57*
D03*
X71006Y-399641D02*
G54D46*
D03*
X71006Y-379041D02*
G54D46*
D03*
X120047Y-368847D02*
G54D48*
D03*
X99447Y-368847D02*
G54D48*
D03*
X118093Y-407557D02*
G54D46*
D03*
X118093Y-386957D02*
G54D46*
D03*
G54D11*
X73612Y-230488D02*
X80500Y-268200D01*
X73612Y-305614D01*
X79980Y-317871D02*
G54D58*
D03*
X65980Y-317871D02*
G54D58*
D03*
X72980Y-317871D02*
G54D58*
D03*
X73462Y-365796D02*
G54D65*
D03*
G54D11*
X73462Y-365796D02*
X73612Y-365646D01*
X73612Y-330314D01*
G54D53*
X101319Y-268200D02*
X101319Y-268100D01*
X84700Y-268200D01*
X191959Y-229178D02*
G54D58*
D03*
X148812Y-194773D02*
G54D58*
D03*
X155812Y-194773D02*
G54D58*
D03*
X156412Y-202173D02*
G54D58*
D03*
X61298Y-225933D02*
G54D58*
D03*
X64000Y-243000D02*
G54D58*
D03*
X64623Y-250087D02*
G54D58*
D03*
G54D53*
X51500Y-268200D02*
X51469Y-268169D01*
X51469Y-241982D01*
G54D43*
X51469Y-241982D02*
X41000Y-222600D01*
X65298Y-258933D02*
G54D58*
D03*
X66298Y-266933D02*
G54D58*
D03*
X66298Y-274933D02*
G54D58*
D03*
X65298Y-282933D02*
G54D58*
D03*
X59298Y-204933D02*
G54D58*
D03*
X56298Y-217933D02*
G54D58*
D03*
X122000Y-246999D02*
G54D58*
D03*
X128077Y-246970D02*
G54D58*
D03*
X134114Y-246971D02*
G54D58*
D03*
X135904Y-258801D02*
G54D58*
D03*
X134432Y-264671D02*
G54D58*
D03*
X109000Y-253000D02*
G54D58*
D03*
X101000Y-253000D02*
G54D58*
D03*
X107010Y-281447D02*
G54D58*
D03*
X100111Y-283886D02*
G54D58*
D03*
X135964Y-252741D02*
G54D58*
D03*
X126298Y-222433D02*
G54D58*
D03*
X134298Y-222433D02*
G54D58*
D03*
X142298Y-222533D02*
G54D58*
D03*
X126298Y-215533D02*
G54D58*
D03*
X126298Y-208933D02*
G54D58*
D03*
X134298Y-215533D02*
G54D58*
D03*
X81298Y-185933D02*
G54D58*
D03*
X89298Y-185933D02*
G54D58*
D03*
X85098Y-192933D02*
G54D58*
D03*
X85098Y-199933D02*
G54D58*
D03*
X85089Y-206927D02*
G54D58*
D03*
X85098Y-213933D02*
G54D58*
D03*
X85107Y-222232D02*
G54D58*
D03*
X88651Y-247645D02*
G54D58*
D03*
X94562Y-219239D02*
G54D58*
D03*
X101562Y-219239D02*
G54D58*
D03*
X108562Y-219239D02*
G54D58*
D03*
X115562Y-219239D02*
G54D58*
D03*
X90862Y-290239D02*
G54D58*
D03*
X88862Y-300239D02*
G54D58*
D03*
X87862Y-311239D02*
G54D58*
D03*
X87862Y-323239D02*
G54D58*
D03*
X120862Y-327239D02*
G54D58*
D03*
G54D11*
X73462Y-365796D02*
X73462Y-378985D01*
X73406Y-379041D01*
X71006Y-379041D02*
G54D46*
D03*
G54D35*
X11000Y-491000D02*
X990000Y-491000D01*
G36*
X11000Y-481000D02*
X11000Y-501000D01*
X1000Y-501000D01*
X1000Y-481000D01*
X11000Y-481000D01*
G37*
G36*
X990000Y-501000D02*
X990000Y-481000D01*
X1000000Y-481000D01*
X1000000Y-501000D01*
X990000Y-501000D01*
G37*
G54D11*
X191000Y-466000D02*
X946000Y-466000D01*
G54D11*
X179394Y-420712D02*
X179394Y-456394D01*
X191000Y-466000D01*
G54D53*
X191324Y-288550D02*
X211298Y-288550D01*
X211345Y-288503D01*
G54D53*
X194874Y-324523D02*
X191324Y-309150D01*
G54D11*
X171229Y-307302D02*
X175874Y-324523D01*
G54D53*
X158501Y-324564D02*
X175874Y-324523D01*
X179745Y-386037D02*
G54D58*
D03*
X185705Y-380422D02*
G54D58*
D03*
X196652Y-368081D02*
G54D58*
D03*
G54D11*
X158416Y-360270D02*
X158501Y-345164D01*
G54D11*
X139415Y-360270D02*
X139497Y-342592D01*
X139129Y-324602D01*
G54D11*
X139129Y-304002D02*
X171229Y-286702D01*
G54D11*
X171229Y-286702D02*
X171229Y-276400D01*
X179042Y-268587D01*
X201734Y-257218D02*
G54D58*
D03*
X210734Y-258218D02*
G54D58*
D03*
X210734Y-266218D02*
G54D58*
D03*
X210734Y-274218D02*
G54D58*
D03*
G54D53*
X148916Y-382470D02*
X148916Y-400004D01*
X148809Y-400111D01*
X190993Y-447169D02*
G54D58*
D03*
X190982Y-440608D02*
G54D58*
D03*
X194478Y-428423D02*
G54D58*
D03*
X203187Y-453094D02*
G54D58*
D03*
X212726Y-453210D02*
G54D58*
D03*
X223936Y-453094D02*
G54D58*
D03*
X232475Y-453152D02*
G54D58*
D03*
X241187Y-453325D02*
G54D58*
D03*
X137033Y-432087D02*
G54D58*
D03*
X147533Y-434787D02*
G54D58*
D03*
X157533Y-434787D02*
G54D58*
D03*
X162533Y-415787D02*
G54D58*
D03*
X162533Y-424787D02*
G54D58*
D03*
G54D11*
X148916Y-382470D02*
X166530Y-382470D01*
X185374Y-363626D01*
X185374Y-346723D01*
G54D11*
X148809Y-400111D02*
X179394Y-400112D01*
X191705Y-374422D02*
G54D58*
D03*
X197194Y-360204D02*
G54D58*
D03*
X131462Y-386796D02*
G54D65*
D03*
G54D53*
X131462Y-386796D02*
X131300Y-386957D01*
X118093Y-386957D01*
G54D43*
X98540Y-350463D02*
X99447Y-368847D01*
G54D11*
X98540Y-350463D02*
X118897Y-342592D01*
G54D53*
X120047Y-368847D02*
X120154Y-378285D01*
X118093Y-386957D01*
X118093Y-386957D02*
G54D46*
D03*
X86862Y-333239D02*
G54D58*
D03*
X96862Y-336239D02*
G54D58*
D03*
X102862Y-331239D02*
G54D58*
D03*
X102862Y-320239D02*
G54D58*
D03*
X111862Y-327239D02*
G54D58*
D03*
X102862Y-311239D02*
G54D58*
D03*
X101862Y-303239D02*
G54D58*
D03*
X102862Y-293239D02*
G54D58*
D03*
X153862Y-279239D02*
G54D58*
D03*
X146862Y-285239D02*
G54D58*
D03*
X131465Y-290276D02*
G54D58*
D03*
X86129Y-356779D02*
G54D58*
D03*
X86174Y-350056D02*
G54D58*
D03*
X86134Y-343471D02*
G54D58*
D03*
X62500Y-290242D02*
G54D58*
D03*
X60862Y-297239D02*
G54D58*
D03*
X60332Y-304592D02*
G54D58*
D03*
X59862Y-312239D02*
G54D58*
D03*
X60862Y-324239D02*
G54D58*
D03*
X61904Y-336862D02*
G54D58*
D03*
X55862Y-372239D02*
G54D58*
D03*
X55862Y-379239D02*
G54D58*
D03*
X85395Y-372895D02*
G54D58*
D03*
X85459Y-380485D02*
G54D58*
D03*
X85862Y-387239D02*
G54D58*
D03*
X93862Y-386239D02*
G54D58*
D03*
X101862Y-386239D02*
G54D58*
D03*
X55862Y-387239D02*
G54D58*
D03*
X57862Y-400239D02*
G54D58*
D03*
X58862Y-411239D02*
G54D58*
D03*
X70862Y-412239D02*
G54D58*
D03*
X82862Y-411239D02*
G54D58*
D03*
X84862Y-400239D02*
G54D58*
D03*
X103862Y-409239D02*
G54D58*
D03*
X103862Y-419239D02*
G54D58*
D03*
X114862Y-420239D02*
G54D58*
D03*
X125862Y-420239D02*
G54D58*
D03*
X131862Y-409239D02*
G54D58*
D03*
X166540Y-263688D02*
G54D58*
D03*
X166731Y-255748D02*
G54D58*
D03*
X53600Y-127900D02*
G54D58*
D03*
X53600Y-116900D02*
G54D58*
D03*
X53600Y-105900D02*
G54D58*
D03*
X28467Y-172186D02*
G54D58*
D03*
X28600Y-179900D02*
G54D58*
D03*
X28600Y-187900D02*
G54D58*
D03*
X23600Y-225900D02*
G54D58*
D03*
X23600Y-214900D02*
G54D58*
D03*
X23600Y-202900D02*
G54D58*
D03*
X22600Y-255900D02*
G54D58*
D03*
X30600Y-255900D02*
G54D58*
D03*
X17536Y-240995D02*
G54D58*
D03*
X28600Y-267900D02*
G54D58*
D03*
X26600Y-291900D02*
G54D58*
D03*
X26600Y-308900D02*
G54D58*
D03*
X27687Y-324590D02*
G54D58*
D03*
X42600Y-291900D02*
G54D58*
D03*
G54D35*
X990000Y-11000D02*
X990000Y-491000D01*
X934720Y-65180D02*
G54D68*
D03*
X952680Y-47220D02*
G54D68*
D03*
X436468Y-250468D02*
G54D54*
D03*
X418507Y-232507D02*
G54D54*
D03*
X117000Y-315600D02*
G54D46*
D03*
X117000Y-295000D02*
G54D46*
D03*
G54D31*
X117000Y-295000D02*
X123519Y-277600D01*
X117000Y-295000D02*
G54D46*
D03*
X833911Y-122285D02*
G54D69*
D03*
X856911Y-122285D02*
G54D69*
D03*
X845411Y-122285D02*
G54D70*
D03*
X856912Y-78285D02*
G54D69*
D03*
X833912Y-78285D02*
G54D69*
D03*
G36*
X842411Y-67285D02*
X848411Y-67285D01*
X848412Y-89285D01*
X842412Y-89285D01*
X842411Y-67285D01*
G37*
X856912Y-100285D02*
G54D69*
D03*
X833912Y-100285D02*
G54D69*
D03*
X845411Y-100285D02*
G54D70*
D03*
X200498Y-430897D02*
G54D58*
D03*
X206320Y-436460D02*
G54D58*
D03*
X218708Y-448666D02*
G54D58*
D03*
X212388Y-442628D02*
G54D58*
D03*
G54D11*
X956000Y-34000D02*
X966000Y-44000D01*
G54D11*
X946000Y-466000D02*
X966047Y-441470D01*
G54D11*
X243000Y-244000D02*
X401000Y-244000D01*
X414000Y-257000D01*
X422000Y-257000D01*
X436468Y-250468D01*
G54D11*
X436468Y-250468D02*
X436532Y-250468D01*
X450000Y-244000D01*
X869412Y-40569D02*
G54D71*
D03*
X759426Y-104069D02*
G54D71*
D03*
G54D11*
X966047Y-441470D02*
X966000Y-44000D01*
X701000Y-11000D02*
G54D58*
D03*
X721000Y-11000D02*
G54D58*
D03*
X741000Y-11000D02*
G54D58*
D03*
X761000Y-11000D02*
G54D58*
D03*
X781000Y-11000D02*
G54D58*
D03*
X801000Y-11000D02*
G54D58*
D03*
X821000Y-11000D02*
G54D58*
D03*
X841000Y-11000D02*
G54D58*
D03*
X861000Y-11000D02*
G54D58*
D03*
X881000Y-11000D02*
G54D58*
D03*
X901000Y-11000D02*
G54D58*
D03*
X921000Y-11000D02*
G54D58*
D03*
X941000Y-11000D02*
G54D58*
D03*
X961000Y-11000D02*
G54D58*
D03*
X981000Y-11000D02*
G54D58*
D03*
X21000Y-491000D02*
G54D58*
D03*
X41000Y-491000D02*
G54D58*
D03*
X61000Y-491000D02*
G54D58*
D03*
X81000Y-491000D02*
G54D58*
D03*
X101000Y-491000D02*
G54D58*
D03*
X121000Y-491000D02*
G54D58*
D03*
X141000Y-491000D02*
G54D58*
D03*
X161000Y-491000D02*
G54D58*
D03*
X181000Y-491000D02*
G54D58*
D03*
X201000Y-491000D02*
G54D58*
D03*
X221000Y-491000D02*
G54D58*
D03*
X241000Y-491000D02*
G54D58*
D03*
X261000Y-491000D02*
G54D58*
D03*
X281000Y-491000D02*
G54D58*
D03*
X301000Y-491000D02*
G54D58*
D03*
X321000Y-491000D02*
G54D58*
D03*
X341000Y-491000D02*
G54D58*
D03*
X361000Y-491000D02*
G54D58*
D03*
X381000Y-491000D02*
G54D58*
D03*
X401000Y-491000D02*
G54D58*
D03*
X421000Y-491000D02*
G54D58*
D03*
X441000Y-491000D02*
G54D58*
D03*
X461000Y-491000D02*
G54D58*
D03*
X481000Y-491000D02*
G54D58*
D03*
X501000Y-491000D02*
G54D58*
D03*
X521000Y-491000D02*
G54D58*
D03*
X541000Y-491000D02*
G54D58*
D03*
X561000Y-491000D02*
G54D58*
D03*
X581000Y-491000D02*
G54D58*
D03*
X601000Y-491000D02*
G54D58*
D03*
X621000Y-491000D02*
G54D58*
D03*
X641000Y-491000D02*
G54D58*
D03*
X661000Y-491000D02*
G54D58*
D03*
X681000Y-491000D02*
G54D58*
D03*
X701000Y-491000D02*
G54D58*
D03*
X721000Y-491000D02*
G54D58*
D03*
X741000Y-491000D02*
G54D58*
D03*
X761000Y-491000D02*
G54D58*
D03*
X781000Y-491000D02*
G54D58*
D03*
X801000Y-491000D02*
G54D58*
D03*
X821000Y-491000D02*
G54D58*
D03*
X841000Y-491000D02*
G54D58*
D03*
X861000Y-491000D02*
G54D58*
D03*
X881000Y-491000D02*
G54D58*
D03*
X901000Y-491000D02*
G54D58*
D03*
X921000Y-491000D02*
G54D58*
D03*
X941000Y-491000D02*
G54D58*
D03*
X961000Y-491000D02*
G54D58*
D03*
X981000Y-491000D02*
G54D58*
D03*
X11000Y-486000D02*
G54D58*
D03*
X11000Y-466000D02*
G54D58*
D03*
X11000Y-446000D02*
G54D58*
D03*
X11000Y-426000D02*
G54D58*
D03*
X11000Y-406000D02*
G54D58*
D03*
X11000Y-386000D02*
G54D58*
D03*
X11000Y-366000D02*
G54D58*
D03*
X11000Y-306000D02*
G54D58*
D03*
X11000Y-326000D02*
G54D58*
D03*
X11000Y-336000D02*
G54D58*
D03*
X991000Y-21000D02*
G54D58*
D03*
X991000Y-41000D02*
G54D58*
D03*
X991000Y-61000D02*
G54D58*
D03*
X991000Y-81000D02*
G54D58*
D03*
X991000Y-101000D02*
G54D58*
D03*
X991000Y-121000D02*
G54D58*
D03*
X991000Y-141000D02*
G54D58*
D03*
X991000Y-161000D02*
G54D58*
D03*
X991000Y-181000D02*
G54D58*
D03*
X991000Y-201000D02*
G54D58*
D03*
X991000Y-221000D02*
G54D58*
D03*
X991000Y-241000D02*
G54D58*
D03*
X991000Y-261000D02*
G54D58*
D03*
X991000Y-281000D02*
G54D58*
D03*
X991000Y-301000D02*
G54D58*
D03*
X991000Y-321000D02*
G54D58*
D03*
X991000Y-341000D02*
G54D58*
D03*
X991000Y-361000D02*
G54D58*
D03*
X991000Y-381000D02*
G54D58*
D03*
X991000Y-401000D02*
G54D58*
D03*
X991000Y-421000D02*
G54D58*
D03*
X991000Y-441000D02*
G54D58*
D03*
X991000Y-461000D02*
G54D58*
D03*
X991000Y-481000D02*
G54D58*
D03*
X241948Y-229805D02*
G54D58*
D03*
X181948Y-226805D02*
G54D58*
D03*
X261948Y-229805D02*
G54D58*
D03*
X275948Y-229805D02*
G54D58*
D03*
X336948Y-229805D02*
G54D58*
D03*
X356948Y-229805D02*
G54D58*
D03*
X374948Y-229805D02*
G54D58*
D03*
X391948Y-229805D02*
G54D58*
D03*
X403948Y-229805D02*
G54D58*
D03*
X417948Y-215805D02*
G54D58*
D03*
X405948Y-215805D02*
G54D58*
D03*
X392948Y-215805D02*
G54D58*
D03*
X382948Y-223805D02*
G54D58*
D03*
X363948Y-223005D02*
G54D58*
D03*
X368948Y-47805D02*
G54D58*
D03*
X381948Y-47805D02*
G54D58*
D03*
X374948Y-54405D02*
G54D58*
D03*
X60049Y-365232D02*
G54D58*
D03*
X93948Y-316805D02*
G54D58*
D03*
X93948Y-305805D02*
G54D58*
D03*
X95948Y-296805D02*
G54D58*
D03*
X93948Y-327805D02*
G54D58*
D03*
X53447Y-136302D02*
G54D58*
D03*
X25948Y-386805D02*
G54D58*
D03*
X32948Y-408805D02*
G54D58*
D03*
X30948Y-446805D02*
G54D58*
D03*
X36948Y-470805D02*
G54D58*
D03*
X63948Y-466805D02*
G54D58*
D03*
X91948Y-468805D02*
G54D58*
D03*
X118948Y-468805D02*
G54D58*
D03*
X145948Y-469805D02*
G54D58*
D03*
X166948Y-470805D02*
G54D58*
D03*
X163948Y-457805D02*
G54D58*
D03*
X163948Y-441805D02*
G54D58*
D03*
X179948Y-476805D02*
G54D58*
D03*
X238948Y-256805D02*
G54D58*
D03*
X238948Y-271805D02*
G54D58*
D03*
X251948Y-271805D02*
G54D58*
D03*
X252060Y-256879D02*
G54D58*
D03*
X264948Y-256805D02*
G54D58*
D03*
X276948Y-256805D02*
G54D58*
D03*
X288948Y-256805D02*
G54D58*
D03*
X326948Y-256805D02*
G54D58*
D03*
X338948Y-256805D02*
G54D58*
D03*
X351948Y-256805D02*
G54D58*
D03*
X363948Y-256805D02*
G54D58*
D03*
X375948Y-256805D02*
G54D58*
D03*
X352948Y-266805D02*
G54D58*
D03*
X363948Y-264805D02*
G54D58*
D03*
X333948Y-266805D02*
G54D58*
D03*
X267948Y-332805D02*
G54D58*
D03*
X274948Y-340805D02*
G54D58*
D03*
X303948Y-350805D02*
G54D58*
D03*
X319948Y-310805D02*
G54D58*
D03*
X266948Y-318805D02*
G54D58*
D03*
X315948Y-293805D02*
G54D58*
D03*
X312948Y-302805D02*
G54D58*
D03*
X342948Y-305805D02*
G54D58*
D03*
X326948Y-294805D02*
G54D58*
D03*
X302948Y-295805D02*
G54D58*
D03*
X327948Y-304805D02*
G54D58*
D03*
X269948Y-309805D02*
G54D58*
D03*
X288948Y-356805D02*
G54D58*
D03*
X267948Y-379805D02*
G54D58*
D03*
X280948Y-379805D02*
G54D58*
D03*
X274948Y-387805D02*
G54D58*
D03*
X288948Y-388805D02*
G54D58*
D03*
X330948Y-380805D02*
G54D58*
D03*
X328948Y-399805D02*
G54D58*
D03*
X292948Y-398805D02*
G54D58*
D03*
X51469Y-241982D02*
G54D48*
D03*
X263948Y-267805D02*
G54D58*
D03*
X281948Y-268805D02*
G54D58*
D03*
X103862Y-399239D02*
G54D58*
D03*
X103000Y-392625D02*
G54D58*
D03*
X616380Y-71723D02*
G54D68*
D03*
X590980Y-71723D02*
G54D68*
D03*
X565580Y-71723D02*
G54D68*
D03*
X332380Y-71723D02*
G54D68*
D03*
X306980Y-71723D02*
G54D68*
D03*
X281580Y-71723D02*
G54D68*
D03*
X281620Y-417277D02*
G54D68*
D03*
X307020Y-417277D02*
G54D68*
D03*
X332420Y-417277D02*
G54D68*
D03*
X495468Y-94113D02*
G54D58*
D03*
X484468Y-110113D02*
G54D58*
D03*
X485468Y-88113D02*
G54D58*
D03*
X517468Y-185113D02*
G54D58*
D03*
X532000Y-166000D02*
G54D58*
D03*
X544000Y-158000D02*
G54D58*
D03*
X555468Y-174113D02*
G54D58*
D03*
X573468Y-193113D02*
G54D58*
D03*
X596468Y-195113D02*
G54D58*
D03*
X536468Y-204113D02*
G54D58*
D03*
X534000Y-232000D02*
G54D58*
D03*
X558000Y-224000D02*
G54D58*
D03*
X476468Y-229113D02*
G54D58*
D03*
X457468Y-229113D02*
G54D58*
D03*
X628468Y-231113D02*
G54D58*
D03*
X650468Y-223113D02*
G54D58*
D03*
X672480Y-214043D02*
G54D58*
D03*
X695965Y-222300D02*
G54D58*
D03*
X696142Y-215339D02*
G54D58*
D03*
X574468Y-95113D02*
G54D58*
D03*
X634468Y-103113D02*
G54D58*
D03*
X622468Y-93113D02*
G54D58*
D03*
X620468Y-111113D02*
G54D58*
D03*
X576468Y-133113D02*
G54D58*
D03*
X670468Y-223113D02*
G54D58*
D03*
X610468Y-231113D02*
G54D58*
D03*
X636468Y-231113D02*
G54D58*
D03*
X642468Y-225113D02*
G54D58*
D03*
X298000Y-438000D02*
G54D58*
D03*
X288000Y-438000D02*
G54D58*
D03*
X234854Y-46842D02*
G54D58*
D03*
X222854Y-46842D02*
G54D58*
D03*
X206854Y-46842D02*
G54D58*
D03*
X202854Y-88842D02*
G54D58*
D03*
X214854Y-96842D02*
G54D58*
D03*
X197183Y-103841D02*
G54D58*
D03*
X193452Y-113476D02*
G54D58*
D03*
X198509Y-125610D02*
G54D58*
D03*
X69974Y-73830D02*
G54D46*
D03*
X69974Y-94430D02*
G54D46*
D03*
G54D61*
X69974Y-94430D02*
X69974Y-110873D01*
X69805Y-111041D01*
X56980Y-68871D02*
G54D58*
D03*
X73463Y-63943D02*
G54D58*
D03*
X86207Y-84483D02*
G54D58*
D03*
X91926Y-80623D02*
G54D58*
D03*
X86980Y-54871D02*
G54D58*
D03*
X94980Y-54871D02*
G54D58*
D03*
X100879Y-45871D02*
G54D58*
D03*
X116980Y-45871D02*
G54D58*
D03*
X416000Y-324000D02*
G54D49*
D03*
X416000Y-293500D02*
G54D49*
D03*
X431200Y-324000D02*
G54D49*
D03*
X431200Y-293500D02*
G54D49*
D03*
X446400Y-324000D02*
G54D49*
D03*
X446400Y-293500D02*
G54D49*
D03*
G54D31*
X446245Y-292442D02*
X446245Y-278442D01*
X442245Y-274442D01*
X405245Y-274442D01*
X393345Y-271442D01*
X392445Y-272342D01*
G54D19*
X412001Y-324100D02*
X392801Y-324100D01*
X392601Y-324300D01*
G36*
X412001Y-332100D02*
X412001Y-316100D01*
X420001Y-316100D01*
X420001Y-332100D01*
X412001Y-332100D01*
G37*
G54D31*
X415947Y-293800D02*
X415947Y-302400D01*
X422347Y-308800D01*
X462347Y-308800D01*
G54D31*
X415947Y-293400D02*
X405347Y-293400D01*
G54D31*
X422347Y-308800D02*
X408747Y-308800D01*
X401347Y-301400D01*
G54D31*
X405347Y-305400D02*
X414347Y-305400D01*
X464906Y-287766D02*
G54D46*
D03*
X464906Y-308366D02*
G54D46*
D03*
G54D31*
X464906Y-287766D02*
X464906Y-244906D01*
X464000Y-244000D01*
G54D31*
X446301Y-323203D02*
X446301Y-334703D01*
X438301Y-342703D01*
X417201Y-342703D01*
X392151Y-367753D01*
X475394Y-348112D02*
G54D46*
D03*
X475394Y-327512D02*
G54D46*
D03*
X461394Y-386112D02*
G54D46*
D03*
X461394Y-365512D02*
G54D46*
D03*
X452333Y-348087D02*
G54D58*
D03*
G54D60*
X481533Y-290886D02*
X480001Y-292419D01*
X480001Y-318000D01*
X475394Y-327512D01*
G54D59*
X475394Y-327512D02*
X462488Y-327512D01*
X459001Y-331000D01*
X459001Y-342419D01*
X452333Y-348086D01*
G54D59*
X452333Y-348086D02*
X458001Y-354000D01*
X461394Y-365512D01*
G54D61*
X461394Y-386112D02*
X442001Y-416000D01*
X442001Y-463000D01*
X533408Y-385210D02*
G54D46*
D03*
X533408Y-364610D02*
G54D46*
D03*
X533214Y-347129D02*
G54D57*
D03*
X533214Y-322429D02*
G54D57*
D03*
X533306Y-308366D02*
G54D46*
D03*
X533306Y-287766D02*
G54D46*
D03*
G54D11*
X533314Y-350304D02*
X533408Y-364610D01*
G54D11*
X533214Y-322429D02*
X533306Y-308366D01*
X533408Y-364610D02*
G54D46*
D03*
X514408Y-385210D02*
G54D46*
D03*
X514408Y-364610D02*
G54D46*
D03*
X514214Y-347129D02*
G54D57*
D03*
X514214Y-322429D02*
G54D57*
D03*
X514306Y-308366D02*
G54D46*
D03*
X514306Y-287766D02*
G54D46*
D03*
G54D11*
X514314Y-350304D02*
X514408Y-364610D01*
G54D11*
X514214Y-322429D02*
X514306Y-308366D01*
X514408Y-364610D02*
G54D46*
D03*
X495408Y-385210D02*
G54D46*
D03*
X495408Y-364610D02*
G54D46*
D03*
X495214Y-347129D02*
G54D57*
D03*
X495214Y-322429D02*
G54D57*
D03*
X495306Y-308366D02*
G54D46*
D03*
X495306Y-287766D02*
G54D46*
D03*
G54D11*
X495314Y-350304D02*
X495408Y-364610D01*
G54D11*
X495214Y-322429D02*
X495306Y-308366D01*
X495408Y-364610D02*
G54D46*
D03*
X533493Y-342050D02*
G54D58*
D03*
X514493Y-342050D02*
G54D58*
D03*
X495493Y-342050D02*
G54D58*
D03*
G54D59*
X533493Y-342050D02*
X533493Y-350125D01*
X533314Y-350304D01*
G54D59*
X514493Y-342050D02*
X514493Y-350125D01*
X514314Y-350304D01*
G54D59*
X495493Y-342050D02*
X495493Y-350125D01*
X495314Y-350304D01*
G54D53*
X495306Y-287766D02*
X555358Y-287766D01*
X555961Y-287163D01*
G54D53*
X556001Y-288092D02*
X626001Y-358092D01*
G36*
X587212Y-311529D02*
X579434Y-319307D01*
X569535Y-309408D01*
X577313Y-301630D01*
X587212Y-311529D01*
G37*
G36*
X572645Y-326096D02*
X564867Y-333874D01*
X554968Y-323974D01*
X562746Y-316196D01*
X572645Y-326096D01*
G37*
G36*
X602212Y-326529D02*
X594434Y-334307D01*
X584534Y-324408D01*
X592313Y-316630D01*
X602212Y-326529D01*
G37*
G36*
X587645Y-341096D02*
X579867Y-348874D01*
X569968Y-338975D01*
X577746Y-331196D01*
X587645Y-341096D01*
G37*
G54D60*
X502461Y-433163D02*
X502460Y-404163D01*
X502460Y-404163D02*
G54D58*
D03*
G54D60*
X490361Y-442163D02*
X490361Y-403963D01*
X490361Y-403963D02*
G54D58*
D03*
X502461Y-433163D02*
G54D58*
D03*
X490361Y-442163D02*
G54D58*
D03*
X433901Y-362300D02*
G54D54*
D03*
X433900Y-387700D02*
G54D54*
D03*
X481533Y-290886D02*
G54D58*
D03*
X465133Y-278887D02*
G54D58*
D03*
X476553Y-377947D02*
G54D58*
D03*
X675850Y-416450D02*
G54D50*
D03*
X675850Y-368050D02*
G54D50*
D03*
X676200Y-272900D02*
G54D51*
D03*
X676200Y-323700D02*
G54D51*
D03*
X632101Y-383600D02*
G54D48*
D03*
X652701Y-383600D02*
G54D48*
D03*
X653988Y-400567D02*
G54D52*
D03*
X629288Y-400567D02*
G54D52*
D03*
G54D53*
X652701Y-383600D02*
X652714Y-390762D01*
X654388Y-400967D01*
X675850Y-416450D01*
X644448Y-437847D02*
G54D46*
D03*
X644448Y-417247D02*
G54D46*
D03*
G54D31*
X654388Y-400967D02*
X644448Y-418747D01*
G54D31*
X644448Y-439347D02*
X600347Y-439347D01*
X591000Y-430000D01*
X591000Y-417297D01*
X591020Y-417277D01*
G54D53*
X652700Y-381962D02*
X652714Y-390762D01*
X654662Y-399420D01*
X675850Y-416450D01*
G36*
X658200Y-381954D02*
X647200Y-381971D01*
X647191Y-376471D01*
X658191Y-376454D01*
X658200Y-381954D01*
G37*
X525141Y-424556D02*
G54D48*
D03*
G36*
X540241Y-417556D02*
X551241Y-417556D01*
X551241Y-431556D01*
X540241Y-431556D01*
X540241Y-417556D01*
G37*
G54D53*
X546341Y-424556D02*
X565341Y-416898D01*
X565620Y-417177D01*
X545600Y-461800D02*
G54D46*
D03*
X545600Y-441200D02*
G54D46*
D03*
G54D61*
X565620Y-417177D02*
X565620Y-417277D01*
X545741Y-424556D01*
X545600Y-441200D01*
X565620Y-417277D02*
G54D68*
D03*
X591020Y-417277D02*
G54D68*
D03*
X616420Y-417277D02*
G54D68*
D03*
X700000Y-324000D02*
G54D49*
D03*
X700000Y-293500D02*
G54D49*
D03*
X715200Y-324000D02*
G54D49*
D03*
X715200Y-293500D02*
G54D49*
D03*
X730400Y-324000D02*
G54D49*
D03*
X730400Y-293500D02*
G54D49*
D03*
G54D31*
X730245Y-292442D02*
X730245Y-278442D01*
X726245Y-274442D01*
X689245Y-274442D01*
X677345Y-271442D01*
X676445Y-272342D01*
G54D19*
X696001Y-324100D02*
X676801Y-324100D01*
X676601Y-324300D01*
G36*
X696001Y-332100D02*
X696001Y-316100D01*
X704001Y-316100D01*
X704001Y-332100D01*
X696001Y-332100D01*
G37*
G54D31*
X699947Y-293800D02*
X699947Y-302400D01*
X698347Y-305400D01*
X689347Y-305400D01*
G54D31*
X699947Y-293400D02*
X689347Y-293400D01*
G54D31*
X698347Y-305400D02*
X689347Y-305400D01*
X685347Y-301400D01*
G54D31*
X689347Y-305400D02*
X698347Y-305400D01*
G54D31*
X730301Y-323203D02*
X730301Y-334703D01*
X722301Y-342703D01*
X701201Y-342703D01*
X676151Y-367753D01*
X717901Y-362300D02*
G54D54*
D03*
X717900Y-387700D02*
G54D54*
D03*
X191024Y-434403D02*
G54D58*
D03*
X822437Y-239218D02*
G54D47*
D03*
X841437Y-239217D02*
G54D47*
D03*
X831937Y-261418D02*
G54D47*
D03*
X822437Y-184818D02*
G54D47*
D03*
X841437Y-184817D02*
G54D47*
D03*
X831937Y-207018D02*
G54D47*
D03*
X841665Y-328694D02*
G54D48*
D03*
G36*
X856765Y-321694D02*
X867765Y-321694D01*
X867765Y-335694D01*
X856765Y-335694D01*
X856765Y-321694D01*
G37*
X861712Y-239746D02*
G54D46*
D03*
X861712Y-260347D02*
G54D46*
D03*
X859712Y-185146D02*
G54D46*
D03*
X859712Y-205746D02*
G54D46*
D03*
X794937Y-318218D02*
G54D72*
D03*
X794937Y-267418D02*
G54D72*
D03*
X896537Y-292818D02*
G54D72*
D03*
X794937Y-426218D02*
G54D72*
D03*
X794937Y-375418D02*
G54D72*
D03*
X896537Y-400818D02*
G54D72*
D03*
X794937Y-210218D02*
G54D72*
D03*
X794937Y-159418D02*
G54D72*
D03*
X896537Y-184818D02*
G54D72*
D03*
G54D61*
X831937Y-368218D02*
X794937Y-375418D01*
G54D61*
X831937Y-261418D02*
X817533Y-261419D01*
X794937Y-267418D01*
G54D61*
X831937Y-207018D02*
X794937Y-210218D01*
G54D61*
X765400Y-217218D02*
X766000Y-250000D01*
X766000Y-328000D01*
X778296Y-346419D01*
X806897Y-346402D01*
X822437Y-346818D01*
G54D61*
X822437Y-239218D02*
X768000Y-239218D01*
G54D61*
X841437Y-184817D02*
X859712Y-184817D01*
X859712Y-185146D01*
G54D61*
X841437Y-239217D02*
X861712Y-239312D01*
X861712Y-239746D01*
G54D61*
X841437Y-346017D02*
X841428Y-340124D01*
X841665Y-328694D01*
X842030Y-328694D01*
X841665Y-328694D01*
X875413Y-367337D02*
G54D47*
D03*
X875412Y-348337D02*
G54D47*
D03*
X897613Y-357837D02*
G54D47*
D03*
X960058Y-355793D02*
G54D48*
D03*
X939458Y-355793D02*
G54D48*
D03*
X859688Y-368109D02*
G54D46*
D03*
X859688Y-347510D02*
G54D46*
D03*
X916015Y-377190D02*
G54D48*
D03*
X936615Y-377190D02*
G54D48*
D03*
G54D43*
X875412Y-348337D02*
X881402Y-348337D01*
X886465Y-353400D01*
X886505Y-367993D01*
G54D11*
X859688Y-347510D02*
X875412Y-348337D01*
G54D11*
X859688Y-368109D02*
X875413Y-367337D01*
G54D31*
X862265Y-328694D02*
X884694Y-328694D01*
X898000Y-342000D01*
X898000Y-357450D01*
X897613Y-357837D01*
X843413Y-301337D02*
G54D47*
D03*
X843412Y-282337D02*
G54D47*
D03*
X865613Y-291837D02*
G54D47*
D03*
X827688Y-302109D02*
G54D46*
D03*
X827688Y-281510D02*
G54D46*
D03*
G54D43*
X843412Y-282337D02*
X849402Y-282337D01*
X854465Y-287400D01*
X854465Y-304865D01*
X859800Y-310200D01*
G54D11*
X827688Y-281510D02*
X843412Y-282337D01*
G54D11*
X827688Y-302109D02*
X843413Y-301337D01*
G54D31*
X865613Y-291837D02*
X861712Y-260347D01*
G54D43*
X859800Y-310200D02*
X874200Y-310200D01*
X881744Y-317744D01*
X894365Y-317744D01*
G54D11*
X827688Y-302109D02*
X822437Y-307361D01*
X822437Y-346018D01*
X806897Y-346402D02*
G54D65*
D03*
X853173Y-381741D02*
G54D65*
D03*
G54D64*
X853173Y-381741D02*
X858130Y-370762D01*
X909413Y-243337D02*
G54D47*
D03*
X909413Y-224337D02*
G54D47*
D03*
X931613Y-233837D02*
G54D47*
D03*
X893688Y-244909D02*
G54D46*
D03*
X893688Y-224310D02*
G54D46*
D03*
G54D43*
X909413Y-224337D02*
X915402Y-224337D01*
X920465Y-229400D01*
X920465Y-246865D01*
X925800Y-252200D01*
G54D11*
X893688Y-224310D02*
X909413Y-224337D01*
G54D11*
X893688Y-244909D02*
X909413Y-243337D01*
G54D11*
X822437Y-239218D02*
X822437Y-231563D01*
X830000Y-224000D01*
X872600Y-224000D01*
X878000Y-229400D01*
X877977Y-244923D01*
X893688Y-244909D01*
X960058Y-295793D02*
G54D48*
D03*
X939458Y-295793D02*
G54D48*
D03*
X960058Y-213793D02*
G54D48*
D03*
X939458Y-213793D02*
G54D48*
D03*
G54D11*
X859712Y-205946D02*
X863711Y-209945D01*
X921817Y-209945D01*
G54D11*
X921817Y-209945D02*
X931613Y-219741D01*
X931613Y-233837D01*
G54D11*
X939458Y-213793D02*
X936954Y-211288D01*
X924798Y-211288D01*
X945485Y-377330D02*
G54D58*
D03*
G54D11*
X945504Y-377310D02*
X945384Y-377190D01*
X936615Y-377190D01*
G54D11*
X897613Y-357837D02*
X897657Y-357793D01*
X901602Y-355756D01*
X939458Y-355793D01*
G54D11*
X896784Y-267349D02*
X910057Y-271366D01*
X939458Y-295793D01*
G54D11*
X896784Y-267349D02*
X864000Y-272000D01*
X952982Y-335832D02*
G54D58*
D03*
X935072Y-335819D02*
G54D48*
D03*
X914472Y-335819D02*
G54D48*
D03*
G54D43*
X894365Y-317744D02*
X895744Y-317744D01*
X912000Y-336000D01*
X914291Y-336000D01*
X914472Y-335819D01*
G54D31*
X952982Y-335832D02*
X935085Y-335832D01*
X935072Y-335819D01*
X952847Y-249647D02*
G54D58*
D03*
X949072Y-261819D02*
G54D48*
D03*
X928472Y-261819D02*
G54D48*
D03*
G54D43*
X925800Y-252200D02*
X928472Y-261819D01*
G54D43*
X949072Y-261819D02*
X952847Y-249647D01*
G54D43*
X916015Y-377190D02*
X895702Y-377190D01*
X886505Y-367993D01*
X681698Y-242948D02*
G54D46*
D03*
X681698Y-222348D02*
G54D46*
D03*
G54D61*
X707206Y-161488D02*
X715112Y-161488D01*
X726600Y-150000D01*
X726600Y-124882D01*
X725206Y-123488D01*
X709468Y-117314D02*
G54D58*
D03*
X709468Y-123314D02*
G54D58*
D03*
X709468Y-129314D02*
G54D58*
D03*
X703468Y-129314D02*
G54D58*
D03*
X703468Y-123314D02*
G54D58*
D03*
X703468Y-117314D02*
G54D58*
D03*
X723196Y-201426D02*
G54D47*
D03*
X723196Y-182426D02*
G54D47*
D03*
X745396Y-191926D02*
G54D47*
D03*
X706506Y-200681D02*
G54D46*
D03*
X706506Y-180081D02*
G54D46*
D03*
X711298Y-242948D02*
G54D46*
D03*
X711298Y-222348D02*
G54D46*
D03*
X739400Y-422400D02*
G54D48*
D03*
X718800Y-422400D02*
G54D48*
D03*
X739400Y-385800D02*
G54D47*
D03*
X739400Y-366800D02*
G54D47*
D03*
X761600Y-376300D02*
G54D47*
D03*
X739400Y-402800D02*
G54D48*
D03*
G36*
X754500Y-395800D02*
X765500Y-395800D01*
X765500Y-409800D01*
X754500Y-409800D01*
X754500Y-395800D01*
G37*
G54D37*
X626000Y-358000D02*
X676200Y-323700D01*
G54D37*
X342000Y-358000D02*
X392200Y-323700D01*
G54D31*
X760000Y-402800D02*
X774760Y-400776D01*
X828000Y-400800D01*
G54D31*
X828000Y-400800D02*
X834114Y-400800D01*
X853173Y-381741D01*
X760000Y-420800D02*
G54D46*
D03*
X760000Y-441400D02*
G54D46*
D03*
G54D11*
X760000Y-420800D02*
X760000Y-402800D01*
G54D11*
X739400Y-402800D02*
X739400Y-422400D01*
G54D11*
X718800Y-422400D02*
X717900Y-387700D01*
G54D11*
X739400Y-385800D02*
X739400Y-402800D01*
X739575Y-355226D02*
G54D65*
D03*
G54D11*
X761600Y-376300D02*
X761627Y-358634D01*
X750156Y-339181D01*
G54D11*
X750156Y-339181D02*
X750054Y-276032D01*
X747940Y-264098D01*
X748000Y-204000D01*
X745396Y-191926D01*
G54D11*
X706506Y-180081D02*
X723196Y-182426D01*
G54D11*
X706506Y-200681D02*
X706222Y-200397D01*
X686655Y-200397D01*
X730897Y-244402D02*
G54D65*
D03*
X765400Y-217218D02*
G54D65*
D03*
G54D11*
X715698Y-222348D02*
X723196Y-214850D01*
X723196Y-201426D01*
G54D11*
X745396Y-191926D02*
X745396Y-179396D01*
X722000Y-156000D01*
G54D61*
X739575Y-355226D02*
X739575Y-366625D01*
X739400Y-366800D01*
X750156Y-339181D02*
G54D65*
D03*
G54D59*
X768000Y-239218D02*
X768000Y-184818D01*
X822437Y-184818D01*
X724897Y-224402D02*
G54D65*
D03*
G54D11*
X724897Y-224402D02*
X720495Y-220000D01*
X720000Y-220000D01*
G54D11*
X724897Y-224402D02*
X722843Y-222348D01*
X711298Y-222348D01*
G54D11*
X724897Y-224402D02*
X723196Y-222701D01*
X723196Y-214850D01*
X759281Y-135458D02*
G54D71*
D03*
X651518Y-243220D02*
G54D71*
D03*
G54D37*
X952680Y-47220D02*
X944000Y-36000D01*
G54D37*
X952680Y-47220D02*
X963923Y-58463D01*
X879762Y-85513D02*
G54D73*
D03*
X879762Y-98213D02*
G54D73*
D03*
X879762Y-110913D02*
G54D73*
D03*
G54D43*
X856912Y-78285D02*
X866000Y-84000D01*
X879762Y-85513D01*
G54D43*
X856912Y-100285D02*
X858443Y-98228D01*
X879762Y-98213D01*
G54D43*
X856911Y-122285D02*
X866000Y-112000D01*
X879762Y-110913D01*
G54D11*
X722606Y-102888D02*
X706000Y-86282D01*
X706000Y-34000D01*
X728762Y-56313D02*
G54D73*
D03*
X740562Y-47713D02*
G54D73*
D03*
X719962Y-67113D02*
G54D73*
D03*
X823762Y-88313D02*
G54D73*
D03*
X823762Y-106913D02*
G54D73*
D03*
X824000Y-120600D02*
G54D73*
D03*
X591000Y-116000D02*
G54D55*
D03*
X591000Y-216000D02*
G54D55*
D03*
X626000Y-131000D02*
G54D56*
D03*
X556000Y-131000D02*
G54D56*
D03*
X626000Y-166000D02*
G54D56*
D03*
X556000Y-201000D02*
G54D56*
D03*
X626000Y-201000D02*
G54D56*
D03*
X591000Y-273000D02*
G54D55*
D03*
X591000Y-373000D02*
G54D55*
D03*
X626000Y-288000D02*
G54D56*
D03*
X556000Y-288000D02*
G54D56*
D03*
X626000Y-323000D02*
G54D56*
D03*
X556000Y-358000D02*
G54D56*
D03*
X626000Y-358000D02*
G54D56*
D03*
G54D53*
X272001Y-288092D02*
X342001Y-358092D01*
G36*
X303212Y-311529D02*
X295434Y-319307D01*
X285535Y-309408D01*
X293313Y-301630D01*
X303212Y-311529D01*
G37*
G36*
X288645Y-326096D02*
X280867Y-333874D01*
X270968Y-323974D01*
X278746Y-316196D01*
X288645Y-326096D01*
G37*
G36*
X318212Y-326529D02*
X310434Y-334307D01*
X300534Y-324408D01*
X308312Y-316630D01*
X318212Y-326529D01*
G37*
G36*
X303645Y-341096D02*
X295867Y-348874D01*
X285968Y-338975D01*
X293746Y-331196D01*
X303645Y-341096D01*
G37*
X307000Y-273000D02*
G54D55*
D03*
X307000Y-373000D02*
G54D55*
D03*
X342000Y-288000D02*
G54D56*
D03*
X272000Y-288000D02*
G54D56*
D03*
X342000Y-323000D02*
G54D56*
D03*
X272000Y-358000D02*
G54D56*
D03*
X342000Y-358000D02*
G54D56*
D03*
X640480Y-214243D02*
G54D58*
D03*
X648480Y-214243D02*
G54D58*
D03*
X656480Y-214243D02*
G54D58*
D03*
X664480Y-214043D02*
G54D58*
D03*
X689880Y-214043D02*
G54D58*
D03*
X695965Y-230300D02*
G54D58*
D03*
X663965Y-228300D02*
G54D58*
D03*
X657965Y-224300D02*
G54D58*
D03*
X633965Y-220300D02*
G54D58*
D03*
X625965Y-220300D02*
G54D58*
D03*
X617965Y-220300D02*
G54D58*
D03*
X620468Y-231113D02*
G54D58*
D03*
X524000Y-232000D02*
G54D58*
D03*
X544000Y-232000D02*
G54D58*
D03*
X554000Y-232000D02*
G54D58*
D03*
X564000Y-232000D02*
G54D58*
D03*
X574000Y-232000D02*
G54D58*
D03*
X548000Y-224000D02*
G54D58*
D03*
X538000Y-224000D02*
G54D58*
D03*
X528000Y-224000D02*
G54D58*
D03*
X555200Y-150000D02*
G54D58*
D03*
X550000Y-154000D02*
G54D58*
D03*
X538000Y-162000D02*
G54D58*
D03*
X528000Y-172000D02*
G54D58*
D03*
X524000Y-180000D02*
G54D58*
D03*
X509468Y-187113D02*
G54D58*
D03*
X501468Y-187113D02*
G54D58*
D03*
X509317Y-193857D02*
G54D58*
D03*
X517468Y-197113D02*
G54D58*
D03*
X523468Y-203113D02*
G54D58*
D03*
X527468Y-211113D02*
G54D58*
D03*
X528091Y-217826D02*
G54D58*
D03*
X549468Y-167113D02*
G54D58*
D03*
X561468Y-181113D02*
G54D58*
D03*
X567468Y-187113D02*
G54D58*
D03*
X581468Y-197113D02*
G54D58*
D03*
X587468Y-193113D02*
G54D58*
D03*
X553468Y-161113D02*
G54D58*
D03*
X559468Y-155113D02*
G54D58*
D03*
X549468Y-173113D02*
G54D58*
D03*
X555397Y-180210D02*
G54D58*
D03*
X561188Y-187313D02*
G54D58*
D03*
X575202Y-199769D02*
G54D58*
D03*
X537468Y-173113D02*
G54D58*
D03*
X547468Y-185113D02*
G54D58*
D03*
X535468Y-185113D02*
G54D58*
D03*
X527468Y-191113D02*
G54D58*
D03*
X539468Y-195113D02*
G54D58*
D03*
X541000Y-216000D02*
G54D58*
D03*
X567468Y-217113D02*
G54D58*
D03*
X569468Y-225113D02*
G54D58*
D03*
X582468Y-139113D02*
G54D58*
D03*
X588468Y-145113D02*
G54D58*
D03*
X594468Y-151113D02*
G54D58*
D03*
X600468Y-157113D02*
G54D58*
D03*
X606468Y-163113D02*
G54D58*
D03*
X626131Y-181854D02*
G54D58*
D03*
X633407Y-182564D02*
G54D58*
D03*
X634468Y-153113D02*
G54D58*
D03*
X634468Y-145113D02*
G54D58*
D03*
X598468Y-139113D02*
G54D58*
D03*
X608468Y-147113D02*
G54D58*
D03*
X622468Y-149113D02*
G54D58*
D03*
X608468Y-133113D02*
G54D58*
D03*
X612468Y-121113D02*
G54D58*
D03*
X553311Y-61468D02*
G54D58*
D03*
X567841Y-113670D02*
G54D58*
D03*
X560468Y-109113D02*
G54D58*
D03*
X560468Y-101113D02*
G54D58*
D03*
X564468Y-87113D02*
G54D58*
D03*
X562468Y-95113D02*
G54D58*
D03*
X574888Y-85907D02*
G54D58*
D03*
X584468Y-91113D02*
G54D58*
D03*
X594468Y-91113D02*
G54D58*
D03*
X604468Y-89113D02*
G54D58*
D03*
X612468Y-91113D02*
G54D58*
D03*
X633460Y-96324D02*
G54D58*
D03*
X630925Y-110773D02*
G54D58*
D03*
X723647Y-77875D02*
G54D58*
D03*
X729703Y-77650D02*
G54D58*
D03*
X717647Y-79875D02*
G54D58*
D03*
X721839Y-84644D02*
G54D58*
D03*
X726212Y-89176D02*
G54D58*
D03*
X732754Y-89237D02*
G54D58*
D03*
X738960Y-89525D02*
G54D58*
D03*
X740065Y-95759D02*
G54D58*
D03*
X740254Y-102076D02*
G54D58*
D03*
X740369Y-108420D02*
G54D58*
D03*
X740550Y-114951D02*
G54D58*
D03*
X740594Y-121473D02*
G54D58*
D03*
X740580Y-127918D02*
G54D58*
D03*
X740512Y-134300D02*
G54D58*
D03*
X739984Y-140693D02*
G54D58*
D03*
X740506Y-147604D02*
G54D58*
D03*
X740816Y-154614D02*
G54D58*
D03*
X745224Y-160721D02*
G54D58*
D03*
X750682Y-165984D02*
G54D58*
D03*
X755263Y-170760D02*
G54D58*
D03*
X758772Y-176901D02*
G54D58*
D03*
X765595Y-173879D02*
G54D58*
D03*
X772612Y-173392D02*
G54D58*
D03*
X749025Y-151462D02*
G54D58*
D03*
X756433Y-154678D02*
G54D58*
D03*
X764133Y-155068D02*
G54D58*
D03*
X770955Y-152632D02*
G54D58*
D03*
X775341Y-146199D02*
G54D58*
D03*
X783736Y-136477D02*
G54D58*
D03*
X790176Y-136332D02*
G54D58*
D03*
X778503Y-140425D02*
G54D58*
D03*
X799775Y-136300D02*
G54D58*
D03*
X806534Y-137064D02*
G54D58*
D03*
X814220Y-136696D02*
G54D58*
D03*
X820804Y-136614D02*
G54D58*
D03*
X812534Y-143064D02*
G54D58*
D03*
X819010Y-144505D02*
G54D58*
D03*
X825210Y-144505D02*
G54D58*
D03*
X831598Y-144447D02*
G54D58*
D03*
X833158Y-136495D02*
G54D58*
D03*
X748065Y-78763D02*
G54D58*
D03*
X747982Y-85236D02*
G54D58*
D03*
X745213Y-90946D02*
G54D58*
D03*
X735870Y-77708D02*
G54D58*
D03*
X741911Y-77850D02*
G54D58*
D03*
G54D43*
X719962Y-67113D02*
X720449Y-67600D01*
X728034Y-68040D01*
X752000Y-68000D01*
G54D43*
X752000Y-68000D02*
X804600Y-120600D01*
X824000Y-120600D01*
G54D43*
X728762Y-56313D02*
X733344Y-59095D01*
X755864Y-59095D01*
X791682Y-94913D01*
X823762Y-106913D01*
G54D43*
X740562Y-47713D02*
X746249Y-50000D01*
X759627Y-50000D01*
X787940Y-78313D01*
X823762Y-88313D01*
G54D43*
X823762Y-88313D02*
X833790Y-78285D01*
X833912Y-78285D01*
G54D43*
X823762Y-106913D02*
X830390Y-100285D01*
X833912Y-100285D01*
G54D43*
X824000Y-120600D02*
X825685Y-122285D01*
X833911Y-122285D01*
X845768Y-136348D02*
G54D58*
D03*
X850136Y-141092D02*
G54D58*
D03*
X844812Y-144266D02*
G54D58*
D03*
X837998Y-144447D02*
G54D58*
D03*
X839317Y-136587D02*
G54D58*
D03*
X827041Y-136729D02*
G54D58*
D03*
X845465Y-64106D02*
G54D58*
D03*
X839465Y-64106D02*
G54D58*
D03*
X851465Y-64106D02*
G54D58*
D03*
X857465Y-64106D02*
G54D58*
D03*
X863465Y-64106D02*
G54D58*
D03*
X868967Y-68054D02*
G54D58*
D03*
X868955Y-74210D02*
G54D58*
D03*
X831465Y-64106D02*
G54D58*
D03*
X824332Y-65134D02*
G54D58*
D03*
X819769Y-76346D02*
G54D58*
D03*
X819743Y-70255D02*
G54D58*
D03*
X819822Y-59963D02*
G54D58*
D03*
X819790Y-53523D02*
G54D58*
D03*
X820015Y-46627D02*
G54D58*
D03*
X827102Y-46286D02*
G54D58*
D03*
X833796Y-46413D02*
G54D58*
D03*
X840715Y-46309D02*
G54D58*
D03*
X847866Y-46251D02*
G54D58*
D03*
X852710Y-50577D02*
G54D58*
D03*
X856574Y-55478D02*
G54D58*
D03*
X862226Y-58247D02*
G54D58*
D03*
X828431Y-56286D02*
G54D58*
D03*
X837832Y-55709D02*
G54D58*
D03*
X847578Y-56228D02*
G54D58*
D03*
X875322Y-74875D02*
G54D58*
D03*
X878431Y-69204D02*
G54D58*
D03*
X868627Y-59170D02*
G54D58*
D03*
X874569Y-58512D02*
G54D58*
D03*
X879015Y-63063D02*
G54D58*
D03*
X880452Y-55977D02*
G54D58*
D03*
X884804Y-51354D02*
G54D58*
D03*
X887711Y-45608D02*
G54D58*
D03*
X931465Y-50106D02*
G54D58*
D03*
X923067Y-51964D02*
G54D58*
D03*
X917871Y-59062D02*
G54D58*
D03*
X914942Y-51564D02*
G54D58*
D03*
X926489Y-45881D02*
G54D58*
D03*
X919283Y-45904D02*
G54D58*
D03*
X949850Y-66342D02*
G54D58*
D03*
X954049Y-71814D02*
G54D58*
D03*
X946927Y-72864D02*
G54D58*
D03*
X954048Y-79835D02*
G54D58*
D03*
X941454Y-78411D02*
G54D58*
D03*
X932984Y-79310D02*
G54D58*
D03*
X947076Y-81259D02*
G54D58*
D03*
X953898Y-87557D02*
G54D58*
D03*
X937706Y-84108D02*
G54D58*
D03*
X926701Y-87945D02*
G54D58*
D03*
X887465Y-60106D02*
G54D58*
D03*
X895465Y-60106D02*
G54D58*
D03*
X903465Y-60106D02*
G54D58*
D03*
X911465Y-60106D02*
G54D58*
D03*
X907465Y-52106D02*
G54D58*
D03*
X899465Y-52106D02*
G54D58*
D03*
X891465Y-52106D02*
G54D58*
D03*
X895465Y-46106D02*
G54D58*
D03*
X903465Y-46106D02*
G54D58*
D03*
X911465Y-46106D02*
G54D58*
D03*
X963465Y-24106D02*
G54D58*
D03*
X968339Y-28835D02*
G54D58*
D03*
X973465Y-34106D02*
G54D58*
D03*
X977855Y-39331D02*
G54D58*
D03*
X973465Y-24106D02*
G54D58*
D03*
X978085Y-29123D02*
G54D58*
D03*
X954449Y-116143D02*
G54D58*
D03*
X948962Y-118800D02*
G54D58*
D03*
X942849Y-118916D02*
G54D58*
D03*
X936505Y-118858D02*
G54D58*
D03*
X930162Y-118743D02*
G54D58*
D03*
X926644Y-113552D02*
G54D58*
D03*
X926644Y-107151D02*
G54D58*
D03*
X926797Y-100799D02*
G54D58*
D03*
X926708Y-94232D02*
G54D58*
D03*
X927063Y-81500D02*
G54D58*
D03*
X954123Y-94378D02*
G54D58*
D03*
X953448Y-102099D02*
G54D58*
D03*
X953448Y-110120D02*
G54D58*
D03*
X939880Y-110795D02*
G54D58*
D03*
X941454Y-95052D02*
G54D58*
D03*
G54D59*
X765400Y-217218D02*
X765400Y-187418D01*
X768000Y-184818D01*
X940330Y-174437D02*
G54D58*
D03*
X940330Y-181559D02*
G54D58*
D03*
X940405Y-188756D02*
G54D58*
D03*
X940405Y-195877D02*
G54D58*
D03*
X476793Y-74031D02*
G54D58*
D03*
X484793Y-74031D02*
G54D58*
D03*
X474468Y-87113D02*
G54D58*
D03*
X482468Y-97113D02*
G54D58*
D03*
X484016Y-126023D02*
G54D58*
D03*
X476277Y-114168D02*
G54D58*
D03*
X696027Y-262968D02*
G54D58*
D03*
X703673Y-263044D02*
G54D58*
D03*
X693478Y-256522D02*
G54D58*
D03*
X655767Y-262514D02*
G54D58*
D03*
X680468Y-301113D02*
G54D58*
D03*
X672468Y-301113D02*
G54D58*
D03*
X676468Y-295113D02*
G54D58*
D03*
X668468Y-295113D02*
G54D58*
D03*
X664468Y-303113D02*
G54D58*
D03*
X658468Y-309113D02*
G54D58*
D03*
X654468Y-315113D02*
G54D58*
D03*
X652468Y-321113D02*
G54D58*
D03*
X646468Y-325113D02*
G54D58*
D03*
X640468Y-329113D02*
G54D58*
D03*
X610468Y-319113D02*
G54D58*
D03*
X604191Y-313060D02*
G54D58*
D03*
X598468Y-307113D02*
G54D58*
D03*
X592468Y-301113D02*
G54D58*
D03*
X586468Y-295113D02*
G54D58*
D03*
X648468Y-263113D02*
G54D58*
D03*
X640468Y-259113D02*
G54D58*
D03*
X632468Y-257113D02*
G54D58*
D03*
X624468Y-257113D02*
G54D58*
D03*
X616468Y-257113D02*
G54D58*
D03*
X608468Y-257113D02*
G54D58*
D03*
X618468Y-269113D02*
G54D58*
D03*
X636468Y-271113D02*
G54D58*
D03*
X648468Y-281113D02*
G54D58*
D03*
X650468Y-293113D02*
G54D58*
D03*
X646681Y-307066D02*
G54D58*
D03*
X635974Y-305996D02*
G54D58*
D03*
X616468Y-307113D02*
G54D58*
D03*
X608468Y-297113D02*
G54D58*
D03*
X484931Y-273566D02*
G54D58*
D03*
X476468Y-273113D02*
G54D58*
D03*
X476468Y-265113D02*
G54D58*
D03*
X476468Y-257113D02*
G54D58*
D03*
X484468Y-257113D02*
G54D58*
D03*
X498468Y-257113D02*
G54D58*
D03*
X505314Y-256920D02*
G54D58*
D03*
X494468Y-273113D02*
G54D58*
D03*
X502468Y-273113D02*
G54D58*
D03*
X506468Y-265113D02*
G54D58*
D03*
X514468Y-265113D02*
G54D58*
D03*
X522468Y-265113D02*
G54D58*
D03*
X532468Y-265113D02*
G54D58*
D03*
X540468Y-265113D02*
G54D58*
D03*
X514468Y-257113D02*
G54D58*
D03*
X522468Y-257113D02*
G54D58*
D03*
X532468Y-257113D02*
G54D58*
D03*
X540468Y-257113D02*
G54D58*
D03*
X491668Y-257113D02*
G54D58*
D03*
X548468Y-265113D02*
G54D58*
D03*
X558468Y-265113D02*
G54D58*
D03*
X568468Y-267113D02*
G54D58*
D03*
X548468Y-257113D02*
G54D58*
D03*
X558468Y-257113D02*
G54D58*
D03*
X568468Y-257113D02*
G54D58*
D03*
X576468Y-257113D02*
G54D58*
D03*
X548464Y-305172D02*
G54D58*
D03*
X556209Y-306695D02*
G54D58*
D03*
X548648Y-312155D02*
G54D58*
D03*
X548758Y-318900D02*
G54D58*
D03*
X545973Y-324812D02*
G54D58*
D03*
X546021Y-331603D02*
G54D58*
D03*
X546194Y-338408D02*
G54D58*
D03*
X546194Y-345675D02*
G54D58*
D03*
X558593Y-313264D02*
G54D58*
D03*
X553345Y-328143D02*
G54D58*
D03*
X558132Y-333449D02*
G54D58*
D03*
X563610Y-338466D02*
G54D58*
D03*
X569435Y-343426D02*
G54D58*
D03*
X574625Y-349193D02*
G54D58*
D03*
X582564Y-351730D02*
G54D58*
D03*
X587888Y-347249D02*
G54D58*
D03*
X593523Y-344277D02*
G54D58*
D03*
X598580Y-349645D02*
G54D58*
D03*
X603771Y-354792D02*
G54D58*
D03*
X682526Y-344637D02*
G54D58*
D03*
X673818Y-346136D02*
G54D58*
D03*
X666436Y-348385D02*
G54D58*
D03*
X659112Y-353576D02*
G54D58*
D03*
X652884Y-357958D02*
G54D58*
D03*
X645098Y-362803D02*
G54D58*
D03*
X653345Y-366609D02*
G54D58*
D03*
X642468Y-369113D02*
G54D58*
D03*
X665859Y-385986D02*
G54D58*
D03*
X670819Y-393772D02*
G54D58*
D03*
X697782Y-362866D02*
G54D58*
D03*
X699734Y-370408D02*
G54D58*
D03*
X704215Y-375865D02*
G54D58*
D03*
X694676Y-379769D02*
G54D58*
D03*
X699700Y-386207D02*
G54D58*
D03*
X679160Y-390180D02*
G54D58*
D03*
X688531Y-386732D02*
G54D58*
D03*
X685307Y-397151D02*
G54D58*
D03*
X694303Y-401649D02*
G54D58*
D03*
X694903Y-393253D02*
G54D58*
D03*
X701050Y-397301D02*
G54D58*
D03*
X706222Y-404198D02*
G54D58*
D03*
X697676Y-409370D02*
G54D58*
D03*
X703673Y-415442D02*
G54D58*
D03*
X697226Y-422039D02*
G54D58*
D03*
X704273Y-426012D02*
G54D58*
D03*
X693663Y-430925D02*
G54D58*
D03*
X686692Y-436502D02*
G54D58*
D03*
X679214Y-437516D02*
G54D58*
D03*
X671990Y-437516D02*
G54D58*
D03*
X665779Y-435234D02*
G54D58*
D03*
X660076Y-430925D02*
G54D58*
D03*
X660330Y-440684D02*
G54D58*
D03*
X666962Y-441229D02*
G54D58*
D03*
X692812Y-440186D02*
G54D58*
D03*
X701148Y-440099D02*
G54D58*
D03*
X702941Y-434025D02*
G54D58*
D03*
X709064Y-439571D02*
G54D58*
D03*
X719591Y-439474D02*
G54D58*
D03*
X731384Y-439571D02*
G54D58*
D03*
X743372Y-439181D02*
G54D58*
D03*
X585094Y-441082D02*
G54D58*
D03*
X578749Y-431455D02*
G54D58*
D03*
X563665Y-434916D02*
G54D58*
D03*
X568634Y-439885D02*
G54D58*
D03*
X577640Y-440905D02*
G54D58*
D03*
X572893Y-434694D02*
G54D58*
D03*
X541445Y-409632D02*
G54D58*
D03*
X548923Y-407985D02*
G54D58*
D03*
X541817Y-401379D02*
G54D58*
D03*
X545727Y-394078D02*
G54D58*
D03*
X551649Y-399250D02*
G54D58*
D03*
X560345Y-396627D02*
G54D58*
D03*
X570915Y-397151D02*
G54D58*
D03*
X578861Y-400075D02*
G54D58*
D03*
X593536Y-397972D02*
G54D58*
D03*
X550570Y-384284D02*
G54D58*
D03*
X550951Y-375919D02*
G54D58*
D03*
X559696Y-376299D02*
G54D58*
D03*
X569962Y-375792D02*
G54D58*
D03*
X560836Y-388466D02*
G54D58*
D03*
X573004Y-387833D02*
G54D58*
D03*
X606971Y-395564D02*
G54D58*
D03*
X613688Y-386312D02*
G54D58*
D03*
X869115Y-381559D02*
G54D58*
D03*
X879460Y-381109D02*
G54D58*
D03*
X872264Y-391080D02*
G54D58*
D03*
X864393Y-393103D02*
G54D58*
D03*
X855472Y-395652D02*
G54D58*
D03*
X816763Y-435965D02*
G54D58*
D03*
X821150Y-440936D02*
G54D58*
D03*
X826803Y-434210D02*
G54D58*
D03*
X836160Y-432066D02*
G54D58*
D03*
X845419Y-429532D02*
G54D58*
D03*
X853411Y-427875D02*
G54D58*
D03*
X862086Y-425634D02*
G54D58*
D03*
X870565Y-423002D02*
G54D58*
D03*
X878655Y-421930D02*
G54D58*
D03*
X887622Y-424269D02*
G54D58*
D03*
X896589Y-424854D02*
G54D58*
D03*
X905848Y-425049D02*
G54D58*
D03*
X832066Y-440838D02*
G54D58*
D03*
X842203Y-439961D02*
G54D58*
D03*
X851364Y-440351D02*
G54D58*
D03*
X859259Y-440643D02*
G54D58*
D03*
X871540Y-439961D02*
G54D58*
D03*
X881092Y-439669D02*
G54D58*
D03*
X889961Y-440448D02*
G54D58*
D03*
X899708Y-440253D02*
G54D58*
D03*
X907700Y-440156D02*
G54D58*
D03*
X916857Y-440051D02*
G54D58*
D03*
X926616Y-439670D02*
G54D58*
D03*
X937136Y-439924D02*
G54D58*
D03*
X941191Y-433080D02*
G54D58*
D03*
X941065Y-424968D02*
G54D58*
D03*
X941318Y-417364D02*
G54D58*
D03*
X941445Y-408745D02*
G54D58*
D03*
X941445Y-398859D02*
G54D58*
D03*
X914322Y-426236D02*
G54D58*
D03*
X923574Y-426362D02*
G54D58*
D03*
X931812Y-426109D02*
G54D58*
D03*
X454581Y-453704D02*
G54D58*
D03*
X462183Y-454094D02*
G54D58*
D03*
X470760Y-454191D02*
G54D58*
D03*
X479922Y-453704D02*
G54D58*
D03*
X488109Y-453899D02*
G54D58*
D03*
X497174Y-454094D02*
G54D58*
D03*
X505458Y-453899D02*
G54D58*
D03*
X514425Y-453899D02*
G54D58*
D03*
X522187Y-453863D02*
G54D58*
D03*
X470992Y-414187D02*
G54D58*
D03*
X457843Y-414418D02*
G54D58*
D03*
X462168Y-407958D02*
G54D58*
D03*
X467013Y-401557D02*
G54D58*
D03*
X470069Y-407382D02*
G54D58*
D03*
X428216Y-413620D02*
G54D58*
D03*
X428394Y-405235D02*
G54D58*
D03*
X420541Y-413931D02*
G54D58*
D03*
X413753Y-410825D02*
G54D58*
D03*
X420231Y-401642D02*
G54D58*
D03*
X409970Y-401799D02*
G54D58*
D03*
X415367Y-391379D02*
G54D58*
D03*
X404423Y-394303D02*
G54D58*
D03*
X392504Y-391829D02*
G54D58*
D03*
X382759Y-389805D02*
G54D58*
D03*
X403973Y-385907D02*
G54D58*
D03*
X412928Y-381242D02*
G54D58*
D03*
X414449Y-372117D02*
G54D58*
D03*
X413815Y-363625D02*
G54D58*
D03*
X370465Y-368516D02*
G54D58*
D03*
X362894Y-368366D02*
G54D58*
D03*
X362144Y-361094D02*
G54D58*
D03*
X370465Y-360195D02*
G54D58*
D03*
X375262Y-353148D02*
G54D58*
D03*
X383958Y-347226D02*
G54D58*
D03*
X368811Y-320955D02*
G54D58*
D03*
X360819Y-323879D02*
G54D58*
D03*
X357505Y-315400D02*
G54D58*
D03*
X354971Y-304191D02*
G54D58*
D03*
X366179Y-310234D02*
G54D58*
D03*
X375341Y-305653D02*
G54D58*
D03*
X384503Y-300585D02*
G54D58*
D03*
X393957Y-298440D02*
G54D58*
D03*
X382066Y-294250D02*
G54D58*
D03*
X373392Y-298051D02*
G54D58*
D03*
X363840Y-300975D02*
G54D58*
D03*
X374854Y-288596D02*
G54D58*
D03*
X365692Y-290838D02*
G54D58*
D03*
X357700Y-294542D02*
G54D58*
D03*
X369980Y-279142D02*
G54D58*
D03*
X369980Y-270858D02*
G54D58*
D03*
X359454Y-274659D02*
G54D58*
D03*
X349415Y-274366D02*
G54D58*
D03*
X359162Y-283723D02*
G54D58*
D03*
X332066Y-275244D02*
G54D58*
D03*
X327677Y-315651D02*
G54D58*
D03*
X316042Y-353148D02*
G54D58*
D03*
X317744Y-397085D02*
G54D58*
D03*
X333587Y-390874D02*
G54D58*
D03*
X376426Y-437643D02*
G54D58*
D03*
X385805Y-437769D02*
G54D58*
D03*
X259967Y-407578D02*
G54D58*
D03*
X264415Y-397199D02*
G54D58*
D03*
X40471Y-389722D02*
G54D58*
D03*
X32976Y-426981D02*
G54D58*
D03*
X49679Y-415632D02*
G54D58*
D03*
X44540Y-404497D02*
G54D58*
D03*
X131478Y-446681D02*
G54D58*
D03*
X93148Y-440685D02*
G54D58*
D03*
X66595Y-445610D02*
G54D58*
D03*
X76874Y-427195D02*
G54D58*
D03*
X112848Y-458244D02*
G54D58*
D03*
X112634Y-438758D02*
G54D58*
D03*
X54049Y-365232D02*
G54D58*
D03*
X48049Y-365232D02*
G54D58*
D03*
X42049Y-365232D02*
G54D58*
D03*
X36049Y-365232D02*
G54D58*
D03*
X30049Y-365232D02*
G54D58*
D03*
X24049Y-365232D02*
G54D58*
D03*
X18049Y-365232D02*
G54D58*
D03*
X55904Y-336862D02*
G54D58*
D03*
X49904Y-336862D02*
G54D58*
D03*
X43904Y-336862D02*
G54D58*
D03*
X37904Y-336862D02*
G54D58*
D03*
X31904Y-336862D02*
G54D58*
D03*
X25904Y-336862D02*
G54D58*
D03*
X19904Y-336862D02*
G54D58*
D03*
X45904Y-324862D02*
G54D58*
D03*
X41904Y-310862D02*
G54D58*
D03*
X29370Y-165306D02*
G54D58*
D03*
X22848Y-165306D02*
G54D58*
D03*
X29148Y-136468D02*
G54D58*
D03*
X22626Y-136380D02*
G54D58*
D03*
X300468Y-89113D02*
G54D58*
D03*
X306468Y-93113D02*
G54D58*
D03*
X322468Y-87113D02*
G54D58*
D03*
X332468Y-117113D02*
G54D58*
D03*
X306468Y-143113D02*
G54D58*
D03*
X299341Y-137562D02*
G54D58*
D03*
X325535Y-163591D02*
G54D58*
D03*
X314498Y-153707D02*
G54D58*
D03*
X321582Y-147446D02*
G54D58*
D03*
X346128Y-149753D02*
G54D58*
D03*
X348051Y-181384D02*
G54D58*
D03*
X261944Y-164909D02*
G54D58*
D03*
X260132Y-174300D02*
G54D58*
D03*
X250247Y-174300D02*
G54D58*
D03*
X245001Y-169621D02*
G54D58*
D03*
X237727Y-185997D02*
G54D58*
D03*
X237082Y-197636D02*
G54D58*
D03*
X244250Y-221345D02*
G54D58*
D03*
X251754Y-230604D02*
G54D58*
D03*
X286647Y-231384D02*
G54D58*
D03*
X257797Y-215302D02*
G54D58*
D03*
X254581Y-195614D02*
G54D58*
D03*
X254971Y-184016D02*
G54D58*
D03*
X224951Y-190448D02*
G54D58*
D03*
X208824Y-103056D02*
G54D58*
D03*
X202941Y-109573D02*
G54D58*
D03*
X199885Y-117301D02*
G54D58*
D03*
X196136Y-94233D02*
G54D58*
D03*
X205190Y-96021D02*
G54D58*
D03*
X210092Y-90773D02*
G54D58*
D03*
X200675Y-81409D02*
G54D58*
D03*
X200380Y-69708D02*
G54D58*
D03*
X201014Y-59189D02*
G54D58*
D03*
X208999Y-54119D02*
G54D58*
D03*
X227883Y-52091D02*
G54D58*
D03*
X235995Y-54373D02*
G54D58*
D03*
X291904Y-82909D02*
G54D58*
D03*
X285382Y-115592D02*
G54D58*
D03*
X277286Y-97376D02*
G54D58*
D03*
X282834Y-87106D02*
G54D58*
D03*
X349550Y-95427D02*
G54D58*
D03*
X168743Y-45675D02*
G54D58*
D03*
X168685Y-52941D02*
G54D58*
D03*
X168780Y-60522D02*
G54D58*
D03*
X199959Y-227178D02*
G54D58*
D03*
M02*
