; Drill file
; Format: 2.4 (00.0000)
M48
INCH
T01C0.0118
T02C0.0157
T03C0.0197
T04C0.0315
T05C0.0354
T06C0.0433
T07C0.0472
T08C0.063
%
G05
G90
T01
X000430Y-019130
X000830Y-019330
X001610Y-019330
X002400Y-019330
X003190Y-019330
X003980Y-019330
X004760Y-019330
X005550Y-019330
X006340Y-019330
X007130Y-019330
X007080Y-018770
X006570Y-018540
X006450Y-018020
X006450Y-017390
X006200Y-017120
X005810Y-017120
X005390Y-017010
X005320Y-016610
X004960Y-016540
X004520Y-016540
X004090Y-016510
X004090Y-016110
X004090Y-015720
X004060Y-015460
X004010Y-015210
X003700Y-015210
X003380Y-015250
X003360Y-014980
X003360Y-014680
X003390Y-014050
X003390Y-013780
X003390Y-013520
X003420Y-013120
X003700Y-012910
X003460Y-012730
X003700Y-012470
X003460Y-012250
X003700Y-012040
X003500Y-011820
X003780Y-011690
X004050Y-011540
X003940Y-011180
X004210Y-011080
X003580Y-011430
X004010Y-011940
X004050Y-012250
X004050Y-012610
X004050Y-013040
X003810Y-013240
X004400Y-012880
X004760Y-012880
X005180Y-011430
X005780Y-011230
X006060Y-010990
X006560Y-010380
X006560Y-010070
X007550Y-010170
X007940Y-010130
X008300Y-010170
X008300Y-010480
X008300Y-010800
X009410Y-010700
X009920Y-010700
X010390Y-010540
X010430Y-010110
X010900Y-010110
X011380Y-010110
X011100Y-010580
X009920Y-010110
X009410Y-010110
X009530Y-009050
X009620Y-008710
X009620Y-008370
X009510Y-008050
X009330Y-007780
X009180Y-007520
X009360Y-007320
X009590Y-007010
X009850Y-006860
X009650Y-006680
X009920Y-006450
X010310Y-006490
X010440Y-006180
X010240Y-006860
X010610Y-006930
X010940Y-007220
X011320Y-007640
X012030Y-007560
X012540Y-007720
X013010Y-008740
X013270Y-009050
X013480Y-008740
X014050Y-009050
X014330Y-008780
X014760Y-009050
X015080Y-008810
X015430Y-009050
X015900Y-009050
X015980Y-008500
X016450Y-008500
X016990Y-008270
X016400Y-007800
X015470Y-008500
X014800Y-010110
X014330Y-010110
X014330Y-010430
X014570Y-010660
X014570Y-010990
X014760Y-011360
X015040Y-011580
X015140Y-011830
X015510Y-011750
X014780Y-012030
X014700Y-011730
X014320Y-011850
X014080Y-011600
X014400Y-011450
X014140Y-011170
X014150Y-010810
X013760Y-010800
X013900Y-010500
X013860Y-010110
X013340Y-010110
X013150Y-010500
X013070Y-010840
X012870Y-010110
X012870Y-011610
X012910Y-012000
X012600Y-012240
X012900Y-012430
X013500Y-012040
X013980Y-011980
X014070Y-012420
X014210Y-012750
X014520Y-012640
X014420Y-012210
X015120Y-013670
X014770Y-013900
X014590Y-014180
X014590Y-014510
X014290Y-014500
X014260Y-014220
X015070Y-015350
X015450Y-015430
X015920Y-015520
X015900Y-015190
X016260Y-015010
X016320Y-014650
X016290Y-014320
X016350Y-015410
X016540Y-015810
X016870Y-015950
X016860Y-016280
X016560Y-016300
X016290Y-016170
X016140Y-015820
X015190Y-017240
X014820Y-017230
X015000Y-019330
X014210Y-019330
X013430Y-019330
X012640Y-019330
X011850Y-019330
X011060Y-019330
X010280Y-019330
X009490Y-019330
X008700Y-019330
X007910Y-019330
X008000Y-017840
X007640Y-017840
X007520Y-017610
X007520Y-017350
X007520Y-017100
X007660Y-016870
X007890Y-016960
X008120Y-017180
X008360Y-017430
X008610Y-017660
X008820Y-017840
X009150Y-017840
X009500Y-017850
X008380Y-017840
X006400Y-016720
X006400Y-016370
X005190Y-016110
X004430Y-017270
X004440Y-018040
X004680Y-018460
X005180Y-017590
X005750Y-018500
X003620Y-018460
X002520Y-018380
X002620Y-017540
X003030Y-016820
X002790Y-016230
X002320Y-016190
X001960Y-016360
X001750Y-015930
X001300Y-016090
X001300Y-016810
X001220Y-017590
X000430Y-017560
X000430Y-018350
X001450Y-018540
X000430Y-016770
X000430Y-015980
X000430Y-015200
X001020Y-015230
X001590Y-015340
X002200Y-015250
X002200Y-014930
X002200Y-014660
X002130Y-014380
X002360Y-014380
X001890Y-014380
X001660Y-014380
X001420Y-014380
X001180Y-014380
X000950Y-014380
X000710Y-014380
X000430Y-014410
X000430Y-013230
X000780Y-013260
X001020Y-013260
X001260Y-013260
X001490Y-013260
X001730Y-013260
X001960Y-013260
X002200Y-013260
X002440Y-013260
X002400Y-012770
X002600Y-012510
X002870Y-012510
X003150Y-012510
X002360Y-012290
X002380Y-011990
X002400Y-011700
X002460Y-011430
X002570Y-011140
X002610Y-010820
X002610Y-010510
X002570Y-010190
X002540Y-009850
X002520Y-009570
X002410Y-008890
X002600Y-008590
X002870Y-008590
X003150Y-008590
X003350Y-008420
X003350Y-008150
X003350Y-007870
X003350Y-007600
X003200Y-007320
X003520Y-007320
X003720Y-008630
X004000Y-008630
X004270Y-008630
X004550Y-008630
X004970Y-008760
X004970Y-008490
X004970Y-008230
X005290Y-008490
X005290Y-008760
X005600Y-008760
X006160Y-007960
X006130Y-007670
X005860Y-007670
X007160Y-008930
X007560Y-009020
X007870Y-008940
X008570Y-007380
X008860Y-007500
X010020Y-007700
X010040Y-007240
X010150Y-008480
X009980Y-008740
X009910Y-009080
X010310Y-009050
X010570Y-008740
X010860Y-009050
X011080Y-008740
X011290Y-009110
X011930Y-011650
X012320Y-011920
X012440Y-011570
X010630Y-012200
X010510Y-012550
X010550Y-013100
X010820Y-013420
X011380Y-014050
X011970Y-013810
X012440Y-013900
X013030Y-014990
X013130Y-015390
X012950Y-015740
X012510Y-015630
X011530Y-015700
X011380Y-015310
X011060Y-014950
X010820Y-015270
X010550Y-014950
X010410Y-015640
X010230Y-016050
X011340Y-017240
X011730Y-017240
X009820Y-013500
X009080Y-013500
X008330Y-013500
X007760Y-014180
X007740Y-014490
X007550Y-014740
X007310Y-014980
X007080Y-015200
X003340Y-015760
X003260Y-016190
X002280Y-015760
X003670Y-017350
X001810Y-012790
X001650Y-012240
X001050Y-012160
X001090Y-012780
X000430Y-012830
X000430Y-012050
X000430Y-011260
X001050Y-011490
X001680Y-011490
X001130Y-010550
X001200Y-010070
X000890Y-010070
X000430Y-009690
X000690Y-009490
X000930Y-008890
X000930Y-008460
X000930Y-007990
X000430Y-008110
X000430Y-008900
X000430Y-010470
X002220Y-008580
X002400Y-008350
X002330Y-008070
X002210Y-007800
X002160Y-007440
X002130Y-007090
X002120Y-006780
X002120Y-006510
X001160Y-006510
X000900Y-006510
X001120Y-006780
X001130Y-007080
X001130Y-007400
X000430Y-007320
X000430Y-006540
X000430Y-005350
X000890Y-005370
X001150Y-005370
X001130Y-005040
X001130Y-004600
X001130Y-004170
X001060Y-003660
X001050Y-003310
X001060Y-002950
X000430Y-002990
X000430Y-003780
X000430Y-004570
X002110Y-004600
X002110Y-005040
X002100Y-005370
X002110Y-004170
X002170Y-003630
X002160Y-003300
X002160Y-003030
X002240Y-002710
X002400Y-002400
X002640Y-002520
X002890Y-002520
X003170Y-002570
X003240Y-002840
X003260Y-003090
X003390Y-003330
X003620Y-003170
X003900Y-003180
X003580Y-003540
X003390Y-003770
X003580Y-004010
X003580Y-005380
X003820Y-005380
X004060Y-005380
X004300Y-005380
X004530Y-005380
X003350Y-005380
X003110Y-002280
X003420Y-002160
X003740Y-002160
X003620Y-001810
X003970Y-001810
X004300Y-001810
X004610Y-001810
X003270Y-001810
X002950Y-001810
X002640Y-002160
X001790Y-001530
X002070Y-001240
X001480Y-001850
X001280Y-002280
X000430Y-002200
X000430Y-001420
X000430Y-000630
X000830Y-000430
X001610Y-000430
X002400Y-000430
X003190Y-000430
X003980Y-000430
X004760Y-000430
X005550Y-000430
X006340Y-000430
X007130Y-000430
X007910Y-000430
X008700Y-000430
X009490Y-000430
X010280Y-000430
X011060Y-000430
X011850Y-000430
X012640Y-000430
X013430Y-000430
X014210Y-000430
X015000Y-000430
X015790Y-000430
X016570Y-000430
X017360Y-000430
X018150Y-000430
X018940Y-000430
X019720Y-000430
X020510Y-000430
X021300Y-000430
X022090Y-000430
X022870Y-000430
X023660Y-000430
X024450Y-000430
X025240Y-000430
X026020Y-000430
X026810Y-000430
X027600Y-000430
X028390Y-000430
X029170Y-000430
X029960Y-000430
X030750Y-000430
X031540Y-000430
X032320Y-000430
X033110Y-000430
X033900Y-000430
X034690Y-000430
X035470Y-000430
X036260Y-000430
X037050Y-000430
X037830Y-000430
X037930Y-000950
X038120Y-001140
X038330Y-000950
X038510Y-001150
X038330Y-001340
X038500Y-001550
X039020Y-001610
X039020Y-000830
X038620Y-000430
X039020Y-002400
X039020Y-003190
X039020Y-003980
X039020Y-004760
X039020Y-005550
X039020Y-006340
X039020Y-007130
X039020Y-007910
X039020Y-008700
X039020Y-009490
X039020Y-010280
X039020Y-011060
X039020Y-011850
X039020Y-012640
X039020Y-013430
X039020Y-014210
X039020Y-015000
X039020Y-015790
X039020Y-016570
X039020Y-017360
X039020Y-018150
X039020Y-018940
X038620Y-019330
X037830Y-019330
X037050Y-019330
X036260Y-019330
X035470Y-019330
X034690Y-019330
X033900Y-019330
X033110Y-019330
X032320Y-019330
X031540Y-019330
X030750Y-019330
X029960Y-019330
X029170Y-019330
X028390Y-019330
X027600Y-019330
X026810Y-019330
X026020Y-019330
X025240Y-019330
X024450Y-019330
X023660Y-019330
X022870Y-019330
X022090Y-019330
X021300Y-019330
X020510Y-019330
X019720Y-019330
X018940Y-019330
X018150Y-019330
X017360Y-019330
X016570Y-019330
X015790Y-019330
X017900Y-017860
X018200Y-017880
X018530Y-017880
X018890Y-017860
X019220Y-017870
X019570Y-017880
X019900Y-017870
X020250Y-017870
X020560Y-017870
X019780Y-017050
X019310Y-017410
X018540Y-016310
X018510Y-016040
X018390Y-015810
X018200Y-016060
X018030Y-016320
X019310Y-015900
X019780Y-015910
X018760Y-014880
X017810Y-013700
X019510Y-013470
X020260Y-013470
X021000Y-013470
X021500Y-013610
X021500Y-013320
X021500Y-013060
X021500Y-012790
X021600Y-012560
X021600Y-012290
X021590Y-012010
X021900Y-012070
X021990Y-012330
X021790Y-012920
X021970Y-013130
X022190Y-013330
X022420Y-013520
X022620Y-013750
X022940Y-013850
X023150Y-013670
X023370Y-013550
X023570Y-013770
X023770Y-013970
X024160Y-015210
X023900Y-015570
X023370Y-015670
X022790Y-015750
X022480Y-015640
X022560Y-015270
X022080Y-015290
X022060Y-015620
X021720Y-015720
X021490Y-015510
X021330Y-015800
X021320Y-016130
X021610Y-016060
X021680Y-015130
X021690Y-014800
X022040Y-014810
X022440Y-014790
X022790Y-016990
X022550Y-017110
X022390Y-017320
X022190Y-017120
X022740Y-017360
X023040Y-017370
X026000Y-017350
X026260Y-017370
X026210Y-017140
X026460Y-017230
X026740Y-017230
X027040Y-017190
X027280Y-017330
X027600Y-017330
X027670Y-017090
X027730Y-016770
X027450Y-016620
X027700Y-016360
X027470Y-016120
X027330Y-015810
X027600Y-015640
X027360Y-015480
X027550Y-015200
X027350Y-014950
X027110Y-015230
X026740Y-015360
X026410Y-015500
X026210Y-015200
X026980Y-015640
X027800Y-015910
X027720Y-014800
X027550Y-014580
X027470Y-014290
X026870Y-013570
X026530Y-013630
X026240Y-013720
X025950Y-013920
X025700Y-014090
X025720Y-014430
X025400Y-014280
X025290Y-014530
X025220Y-012960
X025450Y-012800
X025690Y-012640
X025770Y-012410
X025920Y-012170
X026160Y-011930
X026480Y-011850
X026630Y-011620
X026790Y-011850
X026320Y-011620
X025610Y-011540
X025530Y-011070
X025060Y-010670
X025220Y-010200
X024900Y-010120
X024590Y-010120
X024270Y-010120
X023960Y-010120
X024350Y-010600
X023960Y-011700
X024270Y-012090
X024030Y-012560
X023790Y-012330
X023560Y-012090
X023330Y-011850
X023090Y-011620
X022380Y-010520
X022380Y-010120
X022700Y-010120
X021990Y-010120
X021990Y-010440
X021590Y-010440
X021280Y-010440
X020960Y-010440
X020960Y-010120
X021280Y-010120
X021590Y-010120
X021420Y-009130
X021570Y-008820
X021970Y-008820
X021810Y-009130
X022200Y-009130
X022420Y-008860
X022600Y-009130
X022340Y-008550
X022650Y-007860
X022890Y-007760
X023130Y-007600
X023480Y-007680
X022580Y-007600
X022340Y-007370
X022090Y-007370
X022110Y-007130
X021870Y-007090
X021870Y-006850
X021630Y-006820
X021630Y-006580
X021790Y-006340
X021650Y-006060
X021860Y-005910
X022030Y-006110
X021420Y-006220
X021180Y-006380
X020940Y-006540
X020790Y-006770
X020630Y-007090
X020370Y-007290
X020060Y-007370
X020050Y-007630
X020370Y-007760
X020610Y-008000
X020770Y-008310
X020790Y-008580
X020790Y-008820
X020630Y-009130
X021020Y-009130
X021180Y-008820
X021300Y-008500
X021120Y-008040
X021240Y-007680
X021080Y-007290
X020770Y-007520
X021160Y-006820
X021550Y-007290
X019740Y-007370
X018760Y-009020
X018010Y-009020
X018760Y-010120
X018760Y-010440
X018760Y-010750
X019090Y-010770
X019470Y-010750
X019780Y-010750
X019940Y-010440
X020250Y-010440
X020570Y-010440
X020570Y-010120
X020250Y-010120
X019890Y-010110
X019620Y-010120
X019360Y-010120
X019070Y-010120
X018310Y-010980
X018960Y-011450
X024030Y-009100
X024430Y-009100
X024740Y-009100
X025060Y-009100
X025290Y-008860
X025610Y-008780
X025900Y-008830
X026140Y-008990
X026400Y-008780
X026480Y-008430
X026160Y-008430
X025850Y-008430
X025530Y-008430
X025220Y-008430
X024960Y-008670
X024640Y-008670
X024330Y-008670
X024650Y-007160
X024940Y-007190
X024980Y-006030
X024980Y-005710
X024510Y-005870
X023960Y-005790
X023640Y-006190
X023400Y-005950
X023170Y-005710
X022930Y-005480
X022700Y-005240
X022360Y-004480
X022070Y-004300
X022070Y-003980
X022140Y-003740
X022220Y-003430
X022630Y-003380
X022620Y-003740
X023010Y-003590
X023400Y-003590
X023800Y-003510
X024110Y-003590
X024510Y-003670
X024940Y-003790
X024980Y-004060
X024840Y-004360
X024430Y-004370
X024110Y-004770
X023960Y-005240
X023560Y-005480
X023880Y-006420
X025530Y-005750
X026280Y-005750
X027030Y-005750
X027700Y-005090
X027930Y-005090
X027930Y-004850
X027930Y-004620
X027930Y-004380
X027700Y-004620
X027700Y-004850
X029160Y-004780
X029160Y-005040
X029150Y-005290
X029130Y-005540
X029150Y-005810
X029170Y-006090
X029340Y-006330
X029550Y-006530
X029730Y-006720
X029870Y-006960
X030140Y-006850
X030420Y-006830
X030080Y-006110
X030350Y-006010
X030530Y-005760
X030650Y-005530
X030860Y-005370
X031110Y-005370
X031490Y-005370
X031750Y-005400
X032060Y-005380
X032320Y-005380
X032560Y-005380
X032800Y-005370
X033040Y-005380
X033300Y-005370
X033470Y-005550
X033260Y-005680
X032990Y-005690
X032740Y-005690
X032490Y-005690
X032240Y-005690
X031990Y-005630
X029780Y-006090
X029490Y-005960
X029160Y-004530
X029150Y-004270
X029140Y-004020
X029140Y-003770
X029090Y-003520
X028850Y-003510
X028590Y-003510
X028420Y-003330
X028250Y-003140
X028490Y-003070
X028730Y-003060
X028970Y-003060
X029210Y-003060
X029450Y-003100
X029450Y-003360
X029340Y-003580
X027230Y-003310
X026750Y-003310
X026750Y-002170
X027230Y-001810
X032280Y-002110
X032280Y-002360
X032450Y-002560
X032270Y-002770
X032270Y-003010
X032730Y-002520
X033050Y-002520
X033290Y-002520
X033520Y-002520
X033760Y-002520
X033990Y-002520
X033950Y-002290
X033720Y-002180
X033570Y-001990
X033380Y-001820
X033100Y-001820
X032830Y-001830
X032560Y-001820
X032280Y-001840
X032620Y-002220
X032990Y-002190
X033370Y-002210
X034200Y-002330
X034430Y-002300
X034610Y-002480
X034580Y-002720
X034460Y-002950
X034210Y-002920
X034210Y-002680
X034660Y-002200
X034830Y-002020
X034950Y-001800
X035100Y-002050
X035250Y-001820
X035410Y-002050
X035570Y-001820
X035730Y-002050
X035880Y-001820
X036020Y-002030
X036190Y-001810
X036340Y-002050
X036480Y-001810
X036670Y-001970
X036140Y-002330
X035880Y-002370
X035570Y-002370
X035250Y-002370
X034940Y-002370
X036500Y-003210
X036730Y-003120
X036920Y-003310
X037070Y-003090
X037290Y-003200
X037560Y-003140
X037560Y-003450
X037560Y-003720
X037540Y-004020
X037540Y-004340
X037580Y-004570
X037360Y-004680
X037120Y-004680
X036870Y-004680
X036620Y-004670
X036480Y-004470
X036480Y-004220
X036490Y-003970
X036480Y-003710
X036480Y-003460
X037070Y-003740
X037000Y-004360
X037280Y-002870
X037400Y-002610
X037560Y-002830
X037020Y-006870
X037020Y-007150
X037020Y-007430
X037020Y-007710
X037510Y-009830
X037520Y-013220
X037220Y-014860
X037060Y-015700
X037060Y-016090
X037060Y-016430
X037050Y-016730
X037050Y-017050
X036900Y-017320
X036480Y-017310
X036100Y-017320
X035740Y-017330
X035420Y-017330
X035040Y-017340
X034690Y-017310
X034310Y-017320
X033830Y-017350
X033520Y-017340
X033160Y-017320
X032920Y-017010
X032550Y-017090
X032760Y-017360
X032330Y-017360
X032160Y-017160
X033280Y-016910
X033600Y-016850
X033940Y-016760
X034270Y-016650
X034590Y-016610
X034950Y-016700
X035300Y-016730
X035660Y-016730
X036000Y-016780
X036360Y-016790
X036690Y-016780
X034620Y-015000
X034220Y-015020
X034340Y-015400
X034030Y-015480
X033680Y-015580
X029270Y-017290
X028790Y-017310
X028330Y-017300
X027920Y-017310
X027310Y-016970
X025990Y-016970
X025460Y-012090
X025040Y-012050
X025530Y-010360
X025820Y-010340
X027300Y-010100
X027400Y-010350
X027700Y-010360
X027400Y-009070
X027400Y-008750
X027410Y-008480
X027160Y-008430
X021780Y-002420
X019510Y-003710
X019110Y-003470
X018990Y-003820
X018680Y-003430
X018290Y-003280
X018460Y-002910
X018770Y-002910
X019090Y-002910
X019070Y-004340
X018750Y-004490
X019060Y-004960
X017500Y-005560
X016590Y-004370
X016800Y-003460
X017000Y-003210
X017180Y-002920
X016800Y-002920
X016050Y-003310
X015570Y-003310
X015570Y-002170
X016050Y-001810
X015040Y-001880
X014760Y-002140
X014530Y-001880
X013760Y-003760
X013400Y-003860
X013130Y-003630
X012730Y-003860
X013050Y-004140
X013360Y-004370
X013090Y-004610
X013680Y-004140
X012700Y-003430
X012340Y-003590
X012070Y-003670
X011830Y-003510
X011440Y-003590
X011490Y-003260
X011140Y-003430
X010920Y-003830
X011240Y-003940
X011040Y-004300
X011240Y-004550
X011790Y-005420
X012070Y-005630
X012300Y-005790
X012380Y-006050
X012660Y-006150
X012820Y-006440
X012660Y-005800
X013010Y-005790
X012660Y-005440
X013630Y-005900
X014350Y-005750
X015100Y-005750
X015850Y-005750
X013700Y-007140
X008460Y-003810
X008270Y-003570
X008080Y-003780
X007990Y-003500
X007900Y-003210
X007890Y-002740
X007910Y-002330
X008230Y-002130
X008140Y-001840
X008770Y-001840
X008970Y-002050
X009290Y-002140
X009250Y-001840
X007470Y-001850
X007360Y-002320
X006970Y-002370
X006640Y-002380
X006640Y-002080
X006640Y-001800
X006920Y-001840
X007720Y-003710
X007760Y-004090
X007990Y-004310
X007870Y-004620
X007620Y-004470
X007820Y-004950
X008220Y-004060
X005280Y-009720
X005040Y-009720
X004800Y-009720
X004290Y-009960
X003980Y-009960
X003490Y-009750
X003350Y-008750
X005350Y-009950
X005350Y-010190
X005290Y-010420
T02
X028340Y-002640
X028690Y-002220
X029160Y-001880
X032430Y-003480
X032430Y-004210
X032440Y-004750
X034640Y-004370
X034640Y-003870
X034640Y-003370
T03
X002890Y-014400
X005180Y-015230
X005320Y-010930
X004130Y-007340
X002670Y-007530
X028540Y-008830
X028780Y-009620
X030130Y-008550
X029530Y-013350
X029120Y-013990
X031770Y-013640
X033590Y-015030
T04
X011090Y-016430
X012090Y-016430
X013090Y-016430
X015430Y-016400
X015430Y-014490
X017080Y-014260
X017080Y-015260
X022270Y-016430
X023270Y-016430
X024270Y-016430
X026610Y-016400
X026610Y-014490
X028260Y-014260
X028260Y-015260
X025650Y-009580
X029890Y-005330
X029900Y-004100
X034230Y-001600
X036800Y-002570
X037510Y-001860
X024270Y-002820
X023270Y-002820
X022270Y-002820
X019930Y-002860
X019930Y-004760
X018220Y-004990
X018220Y-003990
X013090Y-002820
X012090Y-002820
X011090Y-002820
X008750Y-002860
X008750Y-004760
X007040Y-004990
X007040Y-003990
X016480Y-009150
X017180Y-009860
T05
X010710Y-014090
X013460Y-014090
X013460Y-012720
X013460Y-011340
X010710Y-011340
X010710Y-007910
X013460Y-007910
X013460Y-006540
X013460Y-005160
X010710Y-005160
X021890Y-005160
X024650Y-005160
X024650Y-006540
X024650Y-007910
X021890Y-007910
X021890Y-011340
X024650Y-011340
X024650Y-012720
X024650Y-014090
X021890Y-014090
T06
X008730Y-008510
X008730Y-006510
X015440Y-010740
X015440Y-012740
X019910Y-008510
X019910Y-006510
X026620Y-010740
X026620Y-012740
T07
X031300Y-016780
X031300Y-014780
X031300Y-012530
X031300Y-010530
X031300Y-008280
X031300Y-006280
X035300Y-007280
X035300Y-011530
X035300Y-015780
T08
X012090Y-014690
X012090Y-010750
X012090Y-008500
X012090Y-004570
X023270Y-004570
X023270Y-008500
X023270Y-010750
X023270Y-014690
M30
