%FSLAX34Y34*%
%MOMM*%
%LNSILK_BOTTOM*%
G71*
G01*
%ADD10C,0.150*%
%ADD11C,0.200*%
%ADD12C,0.333*%
%ADD13C,0.222*%
%ADD14C,0.167*%
%ADD15C,0.300*%
%LPD*%
G54D10*
X365740Y-216510D02*
X382803Y-216510D01*
G54D10*
X365740Y-181829D02*
X382803Y-181829D01*
G54D10*
X365740Y-216510D02*
X365740Y-181829D01*
G54D10*
X382803Y-216510D02*
X382803Y-181829D01*
G54D10*
X397999Y-173736D02*
X405937Y-173736D01*
X405937Y-205536D01*
X397999Y-205536D01*
X397999Y-173736D01*
G54D10*
X433758Y-137989D02*
X441695Y-137989D01*
X441695Y-169789D01*
X433758Y-169789D01*
X433758Y-137989D01*
G54D10*
X416890Y-170870D02*
X416890Y-153808D01*
G54D10*
X382209Y-170870D02*
X382209Y-153808D01*
G54D10*
X416890Y-170870D02*
X382209Y-170870D01*
G54D10*
X416890Y-153808D02*
X382209Y-153808D01*
G54D10*
X422190Y-208335D02*
X439253Y-208335D01*
G54D10*
X422190Y-173654D02*
X439253Y-173654D01*
G54D10*
X422190Y-208335D02*
X422190Y-173654D01*
G54D10*
X439253Y-208335D02*
X439253Y-173654D01*
G54D10*
X441290Y-208335D02*
X458353Y-208335D01*
G54D10*
X441290Y-173654D02*
X458353Y-173654D01*
G54D10*
X441290Y-208335D02*
X441290Y-173654D01*
G54D10*
X458353Y-208335D02*
X458353Y-173654D01*
G54D10*
X446241Y-134890D02*
X446241Y-117827D01*
G54D10*
X411560Y-134890D02*
X411560Y-117827D01*
G54D10*
X446241Y-134890D02*
X411560Y-134890D01*
G54D10*
X446241Y-117827D02*
X411560Y-117827D01*
G54D11*
X483950Y-66850D02*
X483950Y-127150D01*
G54D11*
X528350Y-66950D02*
X528350Y-127250D01*
G54D11*
G75*
G01X528350Y-67050D02*
G03X483950Y-67050I-22200J0D01*
G01*
G54D11*
G75*
G01X483950Y-127150D02*
G03X528350Y-127150I22200J0D01*
G01*
G54D10*
G75*
G01X491231Y-169894D02*
G03X490870Y-211249I14569J-20806D01*
G01*
G54D10*
G75*
G01X520730Y-211249D02*
G03X520369Y-169894I-14930J20549D01*
G01*
G54D10*
X496200Y-189100D02*
X515400Y-189100D01*
G54D10*
X496200Y-192300D02*
X515400Y-192300D01*
G54D10*
X505800Y-189100D02*
X505800Y-181200D01*
G54D10*
X505800Y-192300D02*
X505800Y-200200D01*
G54D10*
X520100Y-179600D02*
X491500Y-201800D01*
X497900Y-201800D01*
G54D10*
X491500Y-201800D02*
X493100Y-195500D01*
G54D10*
X450000Y-139400D02*
X475400Y-139400D01*
X475400Y-88600D01*
X450000Y-88600D01*
X450000Y-139400D01*
G54D11*
X199950Y-66850D02*
X199950Y-127150D01*
G54D11*
X244350Y-66950D02*
X244350Y-127250D01*
G54D11*
G75*
G01X244350Y-67050D02*
G03X199950Y-67050I-22200J0D01*
G01*
G54D11*
G75*
G01X199950Y-127150D02*
G03X244350Y-127150I22200J0D01*
G01*
G54D10*
G75*
G01X207231Y-169894D02*
G03X206870Y-211249I14569J-20806D01*
G01*
G54D10*
G75*
G01X236730Y-211249D02*
G03X236369Y-169894I-14930J20549D01*
G01*
G54D10*
X212200Y-189100D02*
X231400Y-189100D01*
G54D10*
X212200Y-192300D02*
X231400Y-192300D01*
G54D10*
X221800Y-189100D02*
X221800Y-181200D01*
G54D10*
X221800Y-192300D02*
X221800Y-200200D01*
G54D10*
X236100Y-179600D02*
X207500Y-201800D01*
X213900Y-201800D01*
G54D10*
X207500Y-201800D02*
X209100Y-195500D01*
G54D10*
X326000Y-216000D02*
X357000Y-216000D01*
X357000Y-116000D01*
X326000Y-116000D01*
G54D10*
X288000Y-116000D02*
X257000Y-116000D01*
X257000Y-216000D01*
X288000Y-216000D01*
G54D10*
X362972Y-103691D02*
X380034Y-103691D01*
G54D10*
X362972Y-69009D02*
X380034Y-69009D01*
G54D10*
X362972Y-103691D02*
X362972Y-69009D01*
G54D10*
X380034Y-103691D02*
X380034Y-69009D01*
G54D10*
X382972Y-103691D02*
X400034Y-103691D01*
G54D10*
X382972Y-69009D02*
X400034Y-69009D01*
G54D10*
X382972Y-103691D02*
X382972Y-69009D01*
G54D10*
X400034Y-103691D02*
X400034Y-69009D01*
G54D10*
X402972Y-103691D02*
X420034Y-103691D01*
G54D10*
X402972Y-69009D02*
X420034Y-69009D01*
G54D10*
X402972Y-103691D02*
X402972Y-69009D01*
G54D10*
X420034Y-103691D02*
X420034Y-69009D01*
G54D10*
X166000Y-139400D02*
X191400Y-139400D01*
X191400Y-88600D01*
X166000Y-88600D01*
X166000Y-139400D01*
G54D10*
X65045Y-130241D02*
X82108Y-130241D01*
G54D10*
X65045Y-95559D02*
X82108Y-95559D01*
G54D10*
X65045Y-130241D02*
X65045Y-95559D01*
G54D10*
X82108Y-130241D02*
X82108Y-95559D01*
G54D10*
X80796Y-159575D02*
X80796Y-142513D01*
G54D10*
X46115Y-159575D02*
X46115Y-142513D01*
G54D10*
X80796Y-159575D02*
X46115Y-159575D01*
G54D10*
X80796Y-142513D02*
X46115Y-142513D01*
G54D10*
X120001Y-190999D02*
X120000Y-247999D01*
X90000Y-247999D01*
X90001Y-190999D01*
X120001Y-190999D01*
G54D10*
X142690Y-271985D02*
X159753Y-271986D01*
G54D10*
X142691Y-237304D02*
X159753Y-237304D01*
G54D10*
X142690Y-271985D02*
X142691Y-237304D01*
G54D10*
X159753Y-271986D02*
X159753Y-237304D01*
G54D10*
X196446Y-253300D02*
X206446Y-253300D01*
X206446Y-251550D01*
G54D10*
X196446Y-234900D02*
X206446Y-234900D01*
X206446Y-236650D01*
G54D10*
X186946Y-234899D02*
X176946Y-234900D01*
X176946Y-236650D01*
G54D10*
X186946Y-253300D02*
X176946Y-253300D01*
X176946Y-251550D01*
G54D10*
X646972Y-103691D02*
X664034Y-103691D01*
G54D10*
X646972Y-69009D02*
X664034Y-69009D01*
G54D10*
X646972Y-103691D02*
X646972Y-69009D01*
G54D10*
X664034Y-103691D02*
X664034Y-69009D01*
G54D10*
X666972Y-103691D02*
X684034Y-103691D01*
G54D10*
X666972Y-69009D02*
X684034Y-69009D01*
G54D10*
X666972Y-103691D02*
X666972Y-69009D01*
G54D10*
X684034Y-103691D02*
X684034Y-69009D01*
G54D10*
X686972Y-103691D02*
X704034Y-103691D01*
G54D10*
X686972Y-69009D02*
X704034Y-69009D01*
G54D10*
X686972Y-103691D02*
X686972Y-69009D01*
G54D10*
X704034Y-103691D02*
X704034Y-69009D01*
G54D11*
X414051Y-422150D02*
X414051Y-361850D01*
G54D11*
X369651Y-422050D02*
X369651Y-361750D01*
G54D11*
G75*
G01X369651Y-421950D02*
G03X414051Y-421950I22200J0D01*
G01*
G54D11*
G75*
G01X414051Y-361850D02*
G03X369651Y-361850I-22200J0D01*
G01*
G54D10*
G75*
G01X377632Y-277494D02*
G03X377271Y-318849I14568J-20806D01*
G01*
G54D10*
G75*
G01X407130Y-318849D02*
G03X406769Y-277494I-14930J20549D01*
G01*
G54D10*
X382600Y-296700D02*
X401800Y-296700D01*
G54D10*
X382600Y-299900D02*
X401800Y-299900D01*
G54D10*
X392200Y-296700D02*
X392200Y-288800D01*
G54D10*
X392200Y-299900D02*
X392200Y-307800D01*
G54D10*
X406500Y-287200D02*
X377900Y-309400D01*
X384300Y-309400D01*
G54D10*
X377900Y-309400D02*
X379500Y-303100D01*
G54D10*
X251029Y-385209D02*
X233966Y-385209D01*
G54D10*
X251029Y-419891D02*
X233966Y-419891D01*
G54D10*
X251029Y-385209D02*
X251029Y-419891D01*
G54D10*
X233966Y-385209D02*
X233966Y-419891D01*
G54D10*
X231029Y-385209D02*
X213966Y-385209D01*
G54D10*
X231029Y-419891D02*
X213966Y-419891D01*
G54D10*
X231029Y-385209D02*
X231029Y-419891D01*
G54D10*
X213966Y-385209D02*
X213966Y-419891D01*
G54D10*
X211029Y-385209D02*
X193966Y-385209D01*
G54D10*
X211029Y-419891D02*
X193966Y-419891D01*
G54D10*
X211029Y-385209D02*
X211029Y-419891D01*
G54D10*
X193966Y-385209D02*
X193966Y-419891D01*
G54D10*
X80698Y-359604D02*
X80698Y-342541D01*
G54D10*
X46017Y-359604D02*
X46017Y-342541D01*
G54D10*
X80698Y-359604D02*
X46017Y-359604D01*
G54D10*
X80698Y-342541D02*
X46017Y-342541D01*
G54D10*
X138000Y-351299D02*
X138000Y-294299D01*
X168000Y-294299D01*
X168000Y-351299D01*
X138000Y-351299D01*
G54D10*
G75*
G01X972300Y-56200D02*
G03X972300Y-56200I-28600J0D01*
G01*
G54D10*
X963923Y-58463D02*
X968378Y-62918D01*
G54D10*
X963923Y-62988D02*
X968449Y-58463D01*
G54D10*
G75*
G01X456088Y-241488D02*
G03X456088Y-241488I-28600J0D01*
G01*
G54D10*
X429750Y-221264D02*
X434205Y-216810D01*
G54D10*
X434276Y-221264D02*
X429750Y-216739D01*
G54D10*
X886062Y-63313D02*
X911062Y-63313D01*
X911062Y-120313D01*
X886062Y-120313D01*
G54D12*
X184000Y-66471D02*
X174000Y-56471D01*
X174000Y-83138D01*
G54D12*
X454968Y-84113D02*
X470968Y-84113D01*
X470968Y-82447D01*
X468968Y-79113D01*
X456968Y-69113D01*
X454968Y-65780D01*
X454968Y-62447D01*
X456968Y-59113D01*
X460968Y-57447D01*
X464968Y-57447D01*
X468968Y-59113D01*
X470968Y-62447D01*
G54D11*
G75*
G01X161450Y-91975D02*
G03X161450Y-91975I-3175J0D01*
G01*
G36*
G75*
G01X161450Y-91975D02*
G03X161450Y-91975I-3175J0D01*
G01*
G37*
X161450Y-91975D01*
G54D11*
G75*
G01X445675Y-94625D02*
G03X445675Y-94625I-3175J0D01*
G01*
G36*
G75*
G01X445675Y-94625D02*
G03X445675Y-94625I-3175J0D01*
G01*
G37*
X445675Y-94625D01*
G54D11*
G75*
G01X901275Y-55200D02*
G03X901275Y-55200I-3175J0D01*
G01*
G36*
G75*
G01X901275Y-55200D02*
G03X901275Y-55200I-3175J0D01*
G01*
G37*
X901275Y-55200D01*
G54D12*
X47625Y-187200D02*
X47625Y-172200D01*
G54D12*
X47625Y-167200D02*
X47625Y-167200D01*
G54D12*
X40292Y-187200D02*
X40292Y-172200D01*
G54D12*
X40292Y-175533D02*
X38292Y-173200D01*
X34292Y-172200D01*
X30292Y-173200D01*
X28292Y-175533D01*
X28292Y-187200D01*
G54D12*
X64200Y-389575D02*
X64200Y-382908D01*
X66200Y-379575D01*
X70200Y-378575D01*
X74200Y-379575D01*
X76200Y-382908D01*
X76200Y-389575D01*
X74200Y-392908D01*
X70200Y-393575D01*
X66200Y-392908D01*
X64200Y-389575D01*
G54D12*
X44867Y-378575D02*
X44867Y-393575D01*
G54D12*
X44867Y-390242D02*
X46867Y-392908D01*
X50867Y-393575D01*
X54867Y-392908D01*
X56867Y-390242D01*
X56867Y-378575D01*
G54D12*
X33534Y-366908D02*
X33534Y-391908D01*
X31534Y-393575D01*
X29534Y-392908D01*
G54D12*
X37534Y-378575D02*
X29534Y-378575D01*
G54D12*
X978182Y-33640D02*
X966868Y-22327D01*
G54D12*
X977239Y-23269D02*
X967811Y-32697D01*
G54D12*
X406400Y-216808D02*
X390400Y-216808D01*
G54D12*
X398400Y-210141D02*
X398400Y-223474D01*
G54D12*
X222250Y-458983D02*
X202250Y-485650D01*
G54D12*
X222250Y-485650D02*
X202250Y-458983D01*
G54D12*
X190917Y-458983D02*
X190917Y-483983D01*
X188917Y-485650D01*
X186917Y-484983D01*
G54D12*
X194917Y-470650D02*
X186917Y-470650D01*
G54D12*
X179584Y-472317D02*
X175584Y-470650D01*
X170784Y-470650D01*
X167584Y-473983D01*
X167584Y-485650D01*
G54D12*
X167584Y-480650D02*
X169584Y-477317D01*
X173584Y-476650D01*
X177584Y-477317D01*
X179584Y-480650D01*
X178784Y-483983D01*
X175584Y-485650D01*
X173584Y-485650D01*
X172784Y-485650D01*
X169584Y-483983D01*
X167584Y-480650D01*
G54D12*
X160251Y-485650D02*
X160251Y-458983D01*
G54D12*
X141185Y-485650D02*
X141185Y-460650D01*
X139185Y-458983D01*
X137185Y-459983D01*
G54D12*
X145185Y-470650D02*
X137185Y-470650D01*
G54D12*
X129852Y-485650D02*
X129852Y-470650D01*
G54D12*
X129852Y-465650D02*
X129852Y-465650D01*
G54D12*
X122519Y-485650D02*
X122519Y-458983D01*
G54D12*
X111186Y-458983D02*
X111186Y-483983D01*
X109186Y-485650D01*
X107186Y-484983D01*
G54D12*
X115186Y-470650D02*
X107186Y-470650D01*
G54D12*
X87853Y-483983D02*
X91053Y-485650D01*
X95053Y-485650D01*
X99053Y-483983D01*
X99853Y-480650D01*
X99853Y-474983D01*
X97853Y-471650D01*
X93853Y-470650D01*
X89853Y-471650D01*
X87853Y-473983D01*
X87853Y-477317D01*
X99853Y-477317D01*
G54D12*
X80520Y-485650D02*
X80520Y-470650D01*
G54D12*
X80520Y-473983D02*
X76520Y-470650D01*
X72520Y-470650D01*
G54D12*
X57454Y-470650D02*
X49454Y-485650D01*
X41454Y-470650D01*
G54D12*
X18121Y-458983D02*
X34121Y-458983D01*
X34121Y-470650D01*
X32121Y-470650D01*
X28121Y-468983D01*
X24121Y-468983D01*
X20121Y-470650D01*
X18121Y-473983D01*
X18121Y-480650D01*
X20121Y-483983D01*
X24121Y-485650D01*
X28121Y-485650D01*
X32121Y-483983D01*
X34121Y-480650D01*
G54D13*
X109266Y-30355D02*
X102600Y-12577D01*
X95933Y-30355D01*
G54D13*
X106600Y-23688D02*
X98600Y-23688D01*
G54D13*
X91044Y-30355D02*
X91044Y-12577D01*
X84378Y-12577D01*
X81711Y-13688D01*
X80378Y-15911D01*
X80378Y-18133D01*
X81711Y-20355D01*
X84378Y-21466D01*
X81711Y-22577D01*
X80378Y-24799D01*
X80378Y-27022D01*
X81711Y-29244D01*
X84378Y-30355D01*
X91044Y-30355D01*
G54D13*
X91044Y-21466D02*
X84378Y-21466D01*
G54D13*
X59666Y-30355D02*
X70332Y-30355D01*
X70332Y-29244D01*
X68999Y-27022D01*
X60999Y-20355D01*
X59666Y-18133D01*
X59666Y-15911D01*
X60999Y-13688D01*
X63666Y-12577D01*
X66332Y-12577D01*
X68999Y-13688D01*
X70332Y-15911D01*
G54D13*
X44110Y-15911D02*
X44110Y-27022D01*
X45443Y-29244D01*
X48110Y-30355D01*
X50776Y-30355D01*
X53443Y-29244D01*
X54776Y-27022D01*
X54776Y-15911D01*
X53443Y-13688D01*
X50776Y-12577D01*
X48110Y-12577D01*
X45443Y-13688D01*
X44110Y-15911D01*
G54D13*
X28554Y-30355D02*
X39220Y-30355D01*
X39220Y-29244D01*
X37887Y-27022D01*
X29887Y-20355D01*
X28554Y-18133D01*
X28554Y-15911D01*
X29887Y-13688D01*
X32554Y-12577D01*
X35220Y-12577D01*
X37887Y-13688D01*
X39220Y-15911D01*
G54D13*
X12998Y-30355D02*
X23664Y-30355D01*
X23664Y-29244D01*
X22331Y-27022D01*
X14331Y-20355D01*
X12998Y-18133D01*
X12998Y-15911D01*
X14331Y-13688D01*
X16998Y-12577D01*
X19664Y-12577D01*
X22331Y-13688D01*
X23664Y-15911D01*
G54D10*
X543480Y-47723D02*
X543480Y-95723D01*
X638480Y-95723D01*
X638480Y-47723D01*
X543480Y-47723D01*
G54D10*
G75*
G01X637431Y-56123D02*
G03X637431Y-56123I-7450J0D01*
G01*
G54D10*
X626180Y-56123D02*
X633780Y-56123D01*
G54D10*
X259480Y-47723D02*
X259480Y-95723D01*
X354480Y-95723D01*
X354480Y-47723D01*
X259480Y-47723D01*
G54D10*
G75*
G01X353431Y-56123D02*
G03X353431Y-56123I-7450J0D01*
G01*
G54D10*
X342180Y-56123D02*
X349780Y-56123D01*
G54D10*
X354521Y-441277D02*
X354521Y-393277D01*
X259520Y-393277D01*
X259520Y-441277D01*
X354521Y-441277D01*
G54D10*
G75*
G01X275470Y-432877D02*
G03X275470Y-432877I-7450J0D01*
G01*
G54D10*
X271820Y-432877D02*
X264220Y-432877D01*
G54D14*
X820062Y-76646D02*
X830062Y-63313D01*
G54D14*
X820062Y-63313D02*
X830062Y-76646D01*
G54D14*
X835729Y-76646D02*
X835729Y-64146D01*
X836729Y-63313D01*
X837729Y-63646D01*
G54D14*
X833729Y-70813D02*
X837729Y-70813D01*
G54D14*
X841396Y-69979D02*
X843396Y-70813D01*
X845796Y-70813D01*
X847396Y-69146D01*
X847396Y-63313D01*
G54D14*
X847396Y-65813D02*
X846396Y-67479D01*
X844396Y-67813D01*
X842396Y-67479D01*
X841396Y-65813D01*
X841796Y-64146D01*
X843396Y-63313D01*
X844396Y-63313D01*
X844796Y-63313D01*
X846396Y-64146D01*
X847396Y-65813D01*
G54D14*
X851063Y-63313D02*
X851063Y-76646D01*
G54D14*
X866597Y-74146D02*
X866597Y-65813D01*
X865597Y-64146D01*
X863597Y-63313D01*
X861597Y-63313D01*
X859597Y-64146D01*
X858597Y-65813D01*
X858597Y-74146D01*
X859597Y-75813D01*
X861597Y-76646D01*
X863597Y-76646D01*
X865597Y-75813D01*
X866597Y-74146D01*
G54D14*
X870264Y-63313D02*
X870264Y-76646D01*
X878264Y-63313D01*
X878264Y-76646D01*
G54D14*
X842062Y-88646D02*
X847062Y-93646D01*
X847062Y-80313D01*
G54D14*
X850729Y-80313D02*
X850729Y-93646D01*
G54D14*
X853729Y-85313D02*
X856729Y-80313D01*
G54D14*
X850729Y-83646D02*
X856729Y-87813D01*
G54D14*
X860396Y-80313D02*
X860396Y-93646D01*
G54D14*
X868396Y-80313D02*
X868396Y-93646D01*
G54D14*
X860396Y-86979D02*
X868396Y-86979D01*
G54D14*
X872063Y-87813D02*
X878063Y-87813D01*
X872063Y-80313D01*
X878063Y-80313D01*
G54D14*
X839062Y-107146D02*
X840062Y-108813D01*
X842062Y-109646D01*
X844062Y-109646D01*
X846062Y-108813D01*
X847062Y-107146D01*
X847062Y-105479D01*
X846062Y-103813D01*
X844062Y-102979D01*
X846062Y-102146D01*
X847062Y-100479D01*
X847062Y-98813D01*
X846062Y-97146D01*
X844062Y-96313D01*
X842062Y-96313D01*
X840062Y-97146D01*
X839062Y-98813D01*
G54D14*
X850729Y-96313D02*
X850729Y-109646D01*
G54D14*
X853729Y-101313D02*
X856729Y-96313D01*
G54D14*
X850729Y-99646D02*
X856729Y-103813D01*
G54D14*
X860396Y-96313D02*
X860396Y-109646D01*
G54D14*
X868396Y-96313D02*
X868396Y-109646D01*
G54D14*
X860396Y-102979D02*
X868396Y-102979D01*
G54D14*
X872063Y-103813D02*
X878063Y-103813D01*
X872063Y-96313D01*
X878063Y-96313D01*
G54D14*
X830526Y-120743D02*
X835526Y-125743D01*
X835526Y-112410D01*
G54D14*
X847193Y-123243D02*
X847193Y-114910D01*
X846193Y-113243D01*
X844193Y-112410D01*
X842193Y-112410D01*
X840193Y-113243D01*
X839193Y-114910D01*
X839193Y-123243D01*
X840193Y-124910D01*
X842193Y-125743D01*
X844193Y-125743D01*
X846193Y-124910D01*
X847193Y-123243D01*
G54D14*
X850860Y-112410D02*
X850860Y-125743D01*
G54D14*
X853860Y-117410D02*
X856860Y-112410D01*
G54D14*
X850860Y-115743D02*
X856860Y-119910D01*
G54D14*
X860527Y-112410D02*
X860527Y-125743D01*
G54D14*
X868527Y-112410D02*
X868527Y-125743D01*
G54D14*
X860527Y-119076D02*
X868527Y-119076D01*
G54D14*
X872194Y-119910D02*
X878194Y-119910D01*
X872194Y-112410D01*
X878194Y-112410D01*
G54D10*
X534989Y-384472D02*
X517927Y-384472D01*
G54D10*
X534989Y-419154D02*
X517927Y-419154D01*
G54D10*
X534989Y-384472D02*
X534989Y-419154D01*
G54D10*
X517927Y-384472D02*
X517927Y-419154D01*
G54D10*
X514990Y-384472D02*
X497927Y-384472D01*
G54D10*
X514989Y-419154D02*
X497927Y-419154D01*
G54D10*
X514990Y-384472D02*
X514989Y-419154D01*
G54D10*
X497927Y-384472D02*
X497927Y-419154D01*
G54D10*
X494989Y-384472D02*
X477927Y-384472D01*
G54D10*
X494989Y-419154D02*
X477927Y-419154D01*
G54D10*
X494989Y-384472D02*
X494989Y-419154D01*
G54D10*
X477927Y-384472D02*
X477927Y-419154D01*
G54D10*
X530860Y-272490D02*
X513798Y-272490D01*
G54D10*
X530860Y-307171D02*
X513798Y-307171D01*
G54D10*
X530860Y-272490D02*
X530860Y-307171D01*
G54D10*
X513798Y-272490D02*
X513798Y-307171D01*
G54D10*
X498601Y-315264D02*
X490664Y-315264D01*
X490664Y-283464D01*
X498601Y-283464D01*
X498601Y-315264D01*
G54D10*
X462843Y-351011D02*
X454906Y-351011D01*
X454906Y-319211D01*
X462843Y-319211D01*
X462843Y-351011D01*
G54D10*
X479710Y-318130D02*
X479710Y-335192D01*
G54D10*
X514392Y-318130D02*
X514392Y-335192D01*
G54D10*
X479710Y-318130D02*
X514392Y-318130D01*
G54D10*
X479710Y-335192D02*
X514392Y-335192D01*
G54D10*
X474410Y-280665D02*
X457348Y-280665D01*
G54D10*
X474410Y-315346D02*
X457348Y-315346D01*
G54D10*
X474410Y-280665D02*
X474410Y-315346D01*
G54D10*
X457348Y-280665D02*
X457348Y-315346D01*
G54D10*
X455310Y-280665D02*
X438248Y-280665D01*
G54D10*
X455310Y-315346D02*
X438248Y-315346D01*
G54D10*
X455310Y-280665D02*
X455310Y-315346D01*
G54D10*
X438248Y-280665D02*
X438248Y-315346D01*
G54D10*
X450359Y-354110D02*
X450359Y-371173D01*
G54D10*
X485041Y-354110D02*
X485041Y-371173D01*
G54D10*
X450359Y-354110D02*
X485041Y-354110D01*
G54D10*
X450359Y-371173D02*
X485041Y-371173D01*
G54D10*
X446601Y-349600D02*
X421201Y-349600D01*
X421201Y-400400D01*
X446600Y-400400D01*
X446601Y-349600D01*
G54D11*
X698051Y-422150D02*
X698051Y-361850D01*
G54D11*
X653651Y-422050D02*
X653651Y-361750D01*
G54D11*
G75*
G01X653651Y-421950D02*
G03X698051Y-421950I22200J0D01*
G01*
G54D11*
G75*
G01X698051Y-361850D02*
G03X653651Y-361850I-22200J0D01*
G01*
G54D10*
G75*
G01X661632Y-277494D02*
G03X661271Y-318849I14568J-20806D01*
G01*
G54D10*
G75*
G01X691130Y-318849D02*
G03X690769Y-277494I-14930J20549D01*
G01*
G54D10*
X666600Y-296700D02*
X685800Y-296700D01*
G54D10*
X666600Y-299900D02*
X685800Y-299900D01*
G54D10*
X676200Y-296700D02*
X676200Y-288800D01*
G54D10*
X676200Y-299900D02*
X676200Y-307800D01*
G54D10*
X690500Y-287200D02*
X661900Y-309400D01*
X668300Y-309400D01*
G54D10*
X661900Y-309400D02*
X663500Y-303100D01*
G54D10*
X638521Y-441277D02*
X638521Y-393277D01*
X543520Y-393277D01*
X543520Y-441277D01*
X638521Y-441277D01*
G54D10*
G75*
G01X559470Y-432877D02*
G03X559470Y-432877I-7450J0D01*
G01*
G54D10*
X555820Y-432877D02*
X548220Y-432877D01*
G54D10*
X730601Y-349600D02*
X705201Y-349600D01*
X705201Y-400400D01*
X730600Y-400400D01*
X730601Y-349600D01*
G54D10*
G75*
G01X811261Y-332849D02*
G03X888945Y-313480I31276J40031D01*
G01*
G54D10*
G75*
G01X861837Y-292818D02*
G03X861837Y-292818I-19300J0D01*
G01*
G54D10*
G75*
G01X888945Y-272156D02*
G03X809209Y-254479I-46408J-20662D01*
G01*
G54D10*
X785436Y-302328D02*
X785437Y-283119D01*
G54D10*
G75*
G01X811261Y-440849D02*
G03X888945Y-421480I31275J40031D01*
G01*
G54D10*
G75*
G01X861836Y-400818D02*
G03X861836Y-400818I-19300J0D01*
G01*
G54D10*
G75*
G01X888945Y-380156D02*
G03X809209Y-362479I-46409J-20662D01*
G01*
G54D10*
X785436Y-410328D02*
X785437Y-391120D01*
G54D10*
G75*
G01X811261Y-224849D02*
G03X888945Y-205480I31276J40031D01*
G01*
G54D10*
G75*
G01X861837Y-184818D02*
G03X861837Y-184818I-19300J0D01*
G01*
G54D10*
G75*
G01X888945Y-164156D02*
G03X809209Y-146479I-46408J-20662D01*
G01*
G54D10*
X785436Y-194328D02*
X785437Y-175119D01*
G54D10*
X753667Y-382604D02*
X770730Y-382604D01*
G54D10*
X753667Y-347923D02*
X770730Y-347923D01*
G54D10*
X753667Y-382604D02*
X753667Y-347923D01*
G54D10*
X770730Y-382604D02*
X770730Y-347923D01*
G54D10*
X739519Y-276810D02*
X739519Y-284748D01*
X771319Y-284748D01*
X771319Y-276810D01*
X739519Y-276810D01*
G54D10*
X744760Y-334107D02*
X761822Y-334107D01*
G54D10*
X744760Y-299426D02*
X761822Y-299426D01*
G54D10*
X744760Y-334107D02*
X744760Y-299426D01*
G54D10*
X761822Y-334107D02*
X761822Y-299426D01*
G54D10*
X756025Y-255625D02*
X773087Y-255625D01*
G54D10*
X756025Y-220944D02*
X773087Y-220944D01*
G54D10*
X756025Y-255625D02*
X756025Y-220944D01*
G54D10*
X773087Y-255625D02*
X773087Y-220944D01*
G54D10*
X777015Y-229753D02*
X777015Y-246816D01*
G54D10*
X811697Y-229753D02*
X811697Y-246816D01*
G54D10*
X777015Y-229753D02*
X811697Y-229753D01*
G54D10*
X777015Y-246816D02*
X811697Y-246816D01*
G54D10*
X735699Y-293772D02*
X718637Y-293772D01*
G54D10*
X735699Y-328453D02*
X718637Y-328453D01*
G54D10*
X735699Y-293772D02*
X735699Y-328453D01*
G54D10*
X718637Y-293772D02*
X718637Y-328453D01*
G54D10*
X735572Y-257321D02*
X718510Y-257321D01*
G54D10*
X735572Y-292002D02*
X718510Y-292002D01*
G54D10*
X735572Y-257321D02*
X735572Y-292002D01*
G54D10*
X718510Y-257321D02*
X718510Y-292002D01*
G54D10*
X719826Y-220904D02*
X702764Y-220904D01*
G54D10*
X719826Y-255585D02*
X702764Y-255585D01*
G54D10*
X719826Y-220904D02*
X719826Y-255585D01*
G54D10*
X702764Y-220904D02*
X702764Y-255585D01*
G54D10*
X933118Y-383280D02*
X916055Y-383280D01*
G54D10*
X933118Y-417962D02*
X916055Y-417962D01*
G54D10*
X933118Y-383280D02*
X933118Y-417962D01*
G54D10*
X916055Y-383280D02*
X916055Y-417962D01*
G54D10*
X933335Y-275409D02*
X916272Y-275409D01*
G54D10*
X933335Y-310090D02*
X916272Y-310091D01*
G54D10*
X933335Y-275409D02*
X933335Y-310090D01*
G54D10*
X916272Y-275409D02*
X916272Y-310091D01*
G54D10*
X933535Y-167609D02*
X916472Y-167609D01*
G54D10*
X933535Y-202290D02*
X916472Y-202291D01*
G54D10*
X933535Y-167609D02*
X933535Y-202290D01*
G54D10*
X916472Y-167609D02*
X916472Y-202291D01*
G54D11*
X812103Y-49132D02*
X812103Y-84057D01*
X777178Y-84057D01*
X777178Y-49132D01*
X812103Y-49132D01*
G54D11*
X812103Y-93582D02*
X812103Y-128507D01*
X777178Y-128507D01*
X777178Y-93582D01*
X812103Y-93582D01*
G54D10*
X725552Y-182622D02*
X712117Y-169187D01*
X685247Y-196057D01*
X698682Y-209492D01*
X725552Y-182622D01*
G54D10*
X718905Y-175833D02*
X748432Y-146306D01*
G54D10*
X663367Y-231372D02*
X691894Y-202845D01*
G54D10*
X610000Y-216000D02*
X641000Y-216000D01*
X641000Y-116000D01*
X610000Y-116000D01*
G54D10*
X572000Y-116000D02*
X541000Y-116000D01*
X541000Y-216000D01*
X572000Y-216000D01*
G54D10*
X610000Y-373000D02*
X641000Y-373000D01*
X641000Y-273000D01*
X610000Y-273000D01*
G54D10*
X572000Y-273000D02*
X541000Y-273000D01*
X541000Y-373000D01*
X572000Y-373000D01*
G54D10*
X326000Y-373000D02*
X357000Y-373000D01*
X357000Y-273000D01*
X326000Y-273000D01*
G54D10*
X288000Y-273000D02*
X257000Y-273000D01*
X257000Y-373000D01*
X288000Y-373000D01*
G54D13*
X770000Y-56222D02*
X759333Y-56222D01*
G54D13*
X764667Y-51778D02*
X764667Y-60667D01*
G54D13*
X754444Y-52889D02*
X747777Y-46222D01*
X747777Y-64000D01*
G54D13*
X732221Y-64000D02*
X742888Y-64000D01*
X742888Y-62889D01*
X741555Y-60667D01*
X733555Y-54000D01*
X732221Y-51778D01*
X732221Y-49556D01*
X733555Y-47333D01*
X736221Y-46222D01*
X738888Y-46222D01*
X741555Y-47333D01*
X742888Y-49556D01*
G54D13*
X727332Y-46222D02*
X720665Y-64000D01*
X713999Y-46222D01*
G54D13*
X729048Y-84793D02*
X729048Y-95460D01*
G54D13*
X725715Y-100349D02*
X719048Y-107016D01*
X736826Y-107016D01*
G54D13*
X736826Y-122572D02*
X736826Y-111905D01*
X735715Y-111905D01*
X733493Y-113239D01*
X726826Y-121239D01*
X724604Y-122572D01*
X722382Y-122572D01*
X720160Y-121239D01*
X719048Y-118572D01*
X719048Y-115905D01*
X720160Y-113239D01*
X722382Y-111905D01*
G54D13*
X719049Y-127461D02*
X736826Y-134128D01*
X719049Y-140795D01*
G54D15*
X738960Y-89525D02*
X752000Y-82000D01*
X768000Y-84000D01*
X777178Y-93582D01*
G54D13*
X953748Y-217885D02*
X960415Y-211219D01*
X942637Y-211219D01*
G54D13*
X942637Y-206329D02*
X960415Y-206329D01*
G54D13*
X949304Y-202329D02*
X942637Y-198329D01*
G54D13*
X947081Y-206329D02*
X952637Y-198329D01*
G54D13*
X939304Y-188284D02*
X938192Y-185618D01*
X938192Y-183751D01*
X939304Y-181084D01*
X941526Y-180284D01*
X952637Y-180284D01*
G54D13*
X949748Y-180284D02*
X951970Y-181618D01*
X952637Y-184284D01*
X951970Y-186951D01*
X949748Y-188284D01*
X945304Y-188284D01*
X943081Y-186951D01*
X942637Y-184284D01*
X943081Y-181618D01*
X945304Y-180284D01*
G54D13*
X951526Y-175395D02*
X952637Y-172728D01*
X952637Y-169528D01*
X950415Y-167395D01*
X942637Y-167395D01*
G54D13*
X945970Y-167395D02*
X948192Y-168728D01*
X948637Y-171395D01*
X948192Y-174062D01*
X945970Y-175395D01*
X943748Y-174862D01*
X942637Y-172728D01*
X942637Y-171395D01*
X942637Y-170862D01*
X943748Y-168728D01*
X945970Y-167395D01*
G54D13*
X942637Y-162506D02*
X952637Y-162506D01*
G54D13*
X955970Y-162506D02*
X955970Y-162506D01*
G54D13*
X942637Y-157617D02*
X952637Y-157617D01*
G54D13*
X950415Y-157617D02*
X951970Y-156284D01*
X952637Y-153617D01*
X951970Y-150950D01*
X950415Y-149617D01*
X942637Y-149617D01*
G54D13*
X957081Y-329885D02*
X959304Y-328552D01*
X960415Y-325885D01*
X960415Y-323219D01*
X959304Y-320552D01*
X957081Y-319219D01*
X954859Y-319219D01*
X952637Y-320552D01*
X951526Y-323219D01*
X950415Y-320552D01*
X948192Y-319219D01*
X945970Y-319219D01*
X943748Y-320552D01*
X942637Y-323219D01*
X942637Y-325885D01*
X943748Y-328552D01*
X945970Y-329885D01*
G54D13*
X942637Y-314329D02*
X960415Y-314329D01*
G54D13*
X949304Y-310329D02*
X942637Y-306329D01*
G54D13*
X947081Y-314329D02*
X952637Y-306329D01*
G54D13*
X939304Y-296284D02*
X938192Y-293618D01*
X938192Y-291751D01*
X939304Y-289084D01*
X941526Y-288284D01*
X952637Y-288284D01*
G54D13*
X949748Y-288284D02*
X951970Y-289618D01*
X952637Y-292284D01*
X951970Y-294951D01*
X949748Y-296284D01*
X945304Y-296284D01*
X943081Y-294951D01*
X942637Y-292284D01*
X943081Y-289618D01*
X945304Y-288284D01*
G54D13*
X951526Y-283395D02*
X952637Y-280729D01*
X952637Y-277529D01*
X950415Y-275395D01*
X942637Y-275395D01*
G54D13*
X945970Y-275395D02*
X948192Y-276729D01*
X948637Y-279395D01*
X948192Y-282062D01*
X945970Y-283395D01*
X943748Y-282862D01*
X942637Y-280729D01*
X942637Y-279395D01*
X942637Y-278862D01*
X943748Y-276729D01*
X945970Y-275395D01*
G54D13*
X942637Y-270506D02*
X952637Y-270506D01*
G54D13*
X955970Y-270506D02*
X955970Y-270506D01*
G54D13*
X942637Y-265617D02*
X952637Y-265617D01*
G54D13*
X950415Y-265617D02*
X951970Y-264284D01*
X952637Y-261617D01*
X951970Y-258951D01*
X950415Y-257617D01*
X942637Y-257617D01*
G54D13*
X953748Y-447885D02*
X960415Y-441219D01*
X942637Y-441219D01*
G54D13*
X957081Y-425663D02*
X945970Y-425663D01*
X943748Y-426996D01*
X942637Y-429663D01*
X942637Y-432329D01*
X943748Y-434996D01*
X945970Y-436329D01*
X957081Y-436329D01*
X959304Y-434996D01*
X960415Y-432329D01*
X960415Y-429663D01*
X959304Y-426996D01*
X957081Y-425663D01*
G54D13*
X942637Y-420773D02*
X960415Y-420773D01*
G54D13*
X949304Y-416773D02*
X942637Y-412773D01*
G54D13*
X947081Y-420773D02*
X952637Y-412773D01*
G54D13*
X939304Y-402728D02*
X938192Y-400062D01*
X938192Y-398195D01*
X939304Y-395528D01*
X941526Y-394728D01*
X952637Y-394728D01*
G54D13*
X949748Y-394728D02*
X951970Y-396062D01*
X952637Y-398728D01*
X951970Y-401395D01*
X949748Y-402728D01*
X945304Y-402728D01*
X943081Y-401395D01*
X942637Y-398728D01*
X943081Y-396062D01*
X945304Y-394728D01*
G54D13*
X951526Y-389839D02*
X952637Y-387173D01*
X952637Y-383973D01*
X950415Y-381839D01*
X942637Y-381839D01*
G54D13*
X945970Y-381839D02*
X948192Y-383173D01*
X948637Y-385839D01*
X948192Y-388506D01*
X945970Y-389839D01*
X943748Y-389306D01*
X942637Y-387173D01*
X942637Y-385839D01*
X942637Y-385306D01*
X943748Y-383173D01*
X945970Y-381839D01*
G54D13*
X942637Y-376950D02*
X952637Y-376950D01*
G54D13*
X955970Y-376950D02*
X955970Y-376950D01*
G54D13*
X942637Y-372061D02*
X952637Y-372061D01*
G54D13*
X950415Y-372061D02*
X951970Y-370728D01*
X952637Y-368061D01*
X951970Y-365395D01*
X950415Y-364061D01*
X942637Y-364061D01*
G54D12*
X725842Y-411846D02*
X723842Y-408513D01*
X719842Y-406846D01*
X715842Y-406846D01*
X711842Y-408513D01*
X709842Y-411846D01*
X709842Y-415179D01*
X711842Y-418513D01*
X715842Y-420179D01*
X711842Y-421846D01*
X709842Y-425179D01*
X709842Y-428513D01*
X711842Y-431846D01*
X715842Y-433513D01*
X719842Y-433513D01*
X723842Y-431846D01*
X725842Y-428513D01*
G54D12*
X430000Y-433138D02*
X430000Y-406471D01*
X442000Y-423138D01*
X442000Y-426471D01*
X426000Y-426471D01*
G54D11*
G75*
G01X741022Y-395191D02*
G03X741022Y-395191I-3175J0D01*
G01*
G36*
G75*
G01X741022Y-395191D02*
G03X741022Y-395191I-3175J0D01*
G01*
G37*
X741022Y-395191D01*
G54D11*
G75*
G01X456717Y-395552D02*
G03X456717Y-395552I-3175J0D01*
G01*
G36*
G75*
G01X456717Y-395552D02*
G03X456717Y-395552I-3175J0D01*
G01*
G37*
X456717Y-395552D01*
M02*
