%FSLAX34Y34*%
%MOMM*%
%LNSMDMASK_TOP*%
G71*
G01*
%ADD10R,1.400X1.100*%
%ADD11R,1.100X1.100*%
%ADD12R,1.100X1.400*%
%ADD13R,0.800X1.600*%
%ADD14R,1.050X0.900*%
%ADD15R,0.900X1.050*%
%ADD16R,1.500X2.000*%
%ADD17R,1.100X2.600*%
%ADD18R,1.200X0.900*%
%ADD19R,2.200X0.600*%
%ADD20R,0.900X1.200*%
%ADD21R,0.600X2.200*%
%LPD*%
X422606Y-140888D02*
G54D10*
D03*
X422606Y-161488D02*
G54D10*
D03*
X436606Y-102888D02*
G54D10*
D03*
X436606Y-123488D02*
G54D10*
D03*
X433706Y-179766D02*
G54D10*
D03*
X433706Y-200366D02*
G54D10*
D03*
X123627Y-104377D02*
G54D11*
D03*
X104627Y-104377D02*
G54D11*
D03*
X114127Y-82177D02*
G54D11*
D03*
X90225Y-121194D02*
G54D12*
D03*
X110825Y-121194D02*
G54D12*
D03*
X69805Y-131641D02*
G54D10*
D03*
X69805Y-111041D02*
G54D10*
D03*
X158027Y-104378D02*
G54D11*
D03*
X139027Y-104378D02*
G54D11*
D03*
X148527Y-82178D02*
G54D11*
D03*
X126825Y-121194D02*
G54D12*
D03*
X147424Y-121194D02*
G54D12*
D03*
G36*
X88027Y-59177D02*
X99027Y-59177D01*
X99027Y-73177D01*
X88027Y-73177D01*
X88027Y-59177D01*
G37*
X114127Y-66177D02*
G54D12*
D03*
X132572Y-45648D02*
G54D10*
D03*
X132572Y-66248D02*
G54D10*
D03*
X130272Y-141848D02*
G54D10*
D03*
X130272Y-162448D02*
G54D10*
D03*
X149272Y-141848D02*
G54D10*
D03*
X149272Y-162448D02*
G54D10*
D03*
X130380Y-181804D02*
G54D12*
D03*
G36*
X145480Y-174804D02*
X156480Y-174804D01*
X156480Y-188804D01*
X145480Y-188804D01*
X145480Y-174804D01*
G37*
X165459Y-77194D02*
G54D12*
D03*
X186059Y-77194D02*
G54D12*
D03*
X130380Y-181804D02*
G54D12*
D03*
X114127Y-66177D02*
G54D12*
D03*
X452000Y-196000D02*
G54D13*
D03*
X452000Y-165500D02*
G54D13*
D03*
X467200Y-196000D02*
G54D13*
D03*
X467200Y-165500D02*
G54D13*
D03*
X482400Y-196000D02*
G54D13*
D03*
X482400Y-165500D02*
G54D13*
D03*
X549900Y-105400D02*
G54D12*
D03*
X529300Y-105400D02*
G54D12*
D03*
X528012Y-88433D02*
G54D14*
D03*
X552712Y-88433D02*
G54D14*
D03*
X537553Y-51153D02*
G54D10*
D03*
X537553Y-71753D02*
G54D10*
D03*
X168000Y-196000D02*
G54D13*
D03*
X168000Y-165500D02*
G54D13*
D03*
X183200Y-196000D02*
G54D13*
D03*
X183200Y-165500D02*
G54D13*
D03*
X198400Y-196000D02*
G54D13*
D03*
X198400Y-165500D02*
G54D13*
D03*
X265900Y-105400D02*
G54D12*
D03*
X245300Y-105400D02*
G54D12*
D03*
X244012Y-88433D02*
G54D14*
D03*
X268712Y-88433D02*
G54D14*
D03*
X253553Y-51153D02*
G54D10*
D03*
X253553Y-71753D02*
G54D10*
D03*
X371859Y-80344D02*
G54D12*
D03*
X351259Y-80344D02*
G54D12*
D03*
X352400Y-41100D02*
G54D10*
D03*
X352400Y-61700D02*
G54D10*
D03*
X364553Y-102953D02*
G54D10*
D03*
X364553Y-123553D02*
G54D10*
D03*
X364747Y-141034D02*
G54D15*
D03*
X364747Y-165734D02*
G54D15*
D03*
X364655Y-179797D02*
G54D10*
D03*
X364655Y-200397D02*
G54D10*
D03*
X364553Y-123553D02*
G54D10*
D03*
X383553Y-102953D02*
G54D10*
D03*
X383553Y-123553D02*
G54D10*
D03*
X383747Y-141034D02*
G54D15*
D03*
X383747Y-165734D02*
G54D15*
D03*
X383655Y-179797D02*
G54D10*
D03*
X383655Y-200397D02*
G54D10*
D03*
X383553Y-123553D02*
G54D10*
D03*
X402553Y-102953D02*
G54D10*
D03*
X402553Y-123553D02*
G54D10*
D03*
X402747Y-141034D02*
G54D15*
D03*
X402747Y-165734D02*
G54D15*
D03*
X402655Y-179797D02*
G54D10*
D03*
X402655Y-200397D02*
G54D10*
D03*
X402553Y-123553D02*
G54D10*
D03*
G36*
X302211Y-153438D02*
X294433Y-161217D01*
X284534Y-151317D01*
X292312Y-143539D01*
X302211Y-153438D01*
G37*
G36*
X287645Y-168005D02*
X279866Y-175783D01*
X269967Y-165884D01*
X277745Y-158106D01*
X287645Y-168005D01*
G37*
X433706Y-200366D02*
G54D10*
D03*
X422606Y-161488D02*
G54D10*
D03*
G36*
X317211Y-168439D02*
X309433Y-176217D01*
X299534Y-166317D01*
X307312Y-158539D01*
X317211Y-168439D01*
G37*
G36*
X302645Y-183005D02*
X294866Y-190783D01*
X284967Y-180884D01*
X292745Y-173106D01*
X302645Y-183005D01*
G37*
G36*
X587211Y-154437D02*
X579433Y-162215D01*
X569534Y-152316D01*
X577312Y-144538D01*
X587211Y-154437D01*
G37*
G36*
X572645Y-169004D02*
X564866Y-176782D01*
X554967Y-166882D01*
X562745Y-159104D01*
X572645Y-169004D01*
G37*
G36*
X602211Y-169437D02*
X594433Y-177215D01*
X584534Y-167316D01*
X592312Y-159538D01*
X602211Y-169437D01*
G37*
G36*
X587645Y-184004D02*
X579866Y-191782D01*
X569967Y-181882D01*
X577745Y-174104D01*
X587645Y-184004D01*
G37*
X67512Y-174214D02*
G54D15*
D03*
X67512Y-149514D02*
G54D15*
D03*
X73612Y-205788D02*
G54D15*
D03*
X73612Y-230488D02*
G54D15*
D03*
X85505Y-150847D02*
G54D10*
D03*
X85505Y-171447D02*
G54D10*
D03*
X105405Y-171641D02*
G54D10*
D03*
X105405Y-151041D02*
G54D10*
D03*
X123519Y-258600D02*
G54D11*
D03*
X123519Y-277600D02*
G54D11*
D03*
X101319Y-268100D02*
G54D11*
D03*
X84700Y-268200D02*
G54D16*
D03*
X47200Y-268200D02*
G54D16*
D03*
X80500Y-268200D02*
G54D17*
D03*
X51500Y-268200D02*
G54D17*
D03*
X51469Y-241982D02*
G54D12*
D03*
X30869Y-241982D02*
G54D12*
D03*
X41000Y-222600D02*
G54D10*
D03*
X41000Y-202000D02*
G54D10*
D03*
X105405Y-171641D02*
G54D10*
D03*
X40896Y-72407D02*
G54D18*
D03*
X40896Y-95407D02*
G54D18*
D03*
X40896Y-83907D02*
G54D19*
D03*
X101319Y-268100D02*
G54D11*
D03*
X123519Y-277600D02*
G54D11*
D03*
X706606Y-140888D02*
G54D10*
D03*
X706606Y-161488D02*
G54D10*
D03*
X724606Y-102888D02*
G54D10*
D03*
X724606Y-123488D02*
G54D10*
D03*
X655659Y-80344D02*
G54D12*
D03*
X635059Y-80344D02*
G54D12*
D03*
X636400Y-41100D02*
G54D10*
D03*
X636400Y-61700D02*
G54D10*
D03*
X648553Y-102953D02*
G54D10*
D03*
X648553Y-123553D02*
G54D10*
D03*
X648747Y-141034D02*
G54D15*
D03*
X648747Y-165734D02*
G54D15*
D03*
X648655Y-179797D02*
G54D10*
D03*
X648655Y-200397D02*
G54D10*
D03*
X648553Y-123553D02*
G54D10*
D03*
X667553Y-102953D02*
G54D10*
D03*
X667553Y-123553D02*
G54D10*
D03*
X667747Y-141034D02*
G54D15*
D03*
X667747Y-165734D02*
G54D15*
D03*
X667655Y-179797D02*
G54D10*
D03*
X667655Y-200397D02*
G54D10*
D03*
X667553Y-123553D02*
G54D10*
D03*
X686553Y-102953D02*
G54D10*
D03*
X686553Y-123553D02*
G54D10*
D03*
X686747Y-141034D02*
G54D15*
D03*
X686747Y-165734D02*
G54D15*
D03*
X686655Y-179797D02*
G54D10*
D03*
X686655Y-200397D02*
G54D10*
D03*
X686553Y-123553D02*
G54D10*
D03*
X706606Y-161488D02*
G54D10*
D03*
X348101Y-383600D02*
G54D12*
D03*
X368701Y-383600D02*
G54D12*
D03*
X369988Y-400567D02*
G54D14*
D03*
X345288Y-400567D02*
G54D14*
D03*
X360448Y-437847D02*
G54D10*
D03*
X360448Y-417247D02*
G54D10*
D03*
X822437Y-346018D02*
G54D11*
D03*
X841437Y-346017D02*
G54D11*
D03*
X831937Y-368218D02*
G54D11*
D03*
X191324Y-309150D02*
G54D10*
D03*
X191324Y-288550D02*
G54D10*
D03*
X175874Y-324523D02*
G54D11*
D03*
G36*
X189374Y-319023D02*
X200374Y-319023D01*
X200374Y-330023D01*
X189374Y-330023D01*
X189374Y-319023D01*
G37*
X185374Y-346723D02*
G54D11*
D03*
X139415Y-360270D02*
G54D11*
D03*
G36*
X152916Y-354770D02*
X163916Y-354770D01*
X163916Y-365770D01*
X152916Y-365770D01*
X152916Y-354770D01*
G37*
X148916Y-382470D02*
G54D11*
D03*
X158501Y-324564D02*
G54D10*
D03*
X158501Y-345164D02*
G54D10*
D03*
X148809Y-420711D02*
G54D10*
D03*
X148809Y-400111D02*
G54D10*
D03*
X179394Y-420712D02*
G54D10*
D03*
X179394Y-400112D02*
G54D10*
D03*
X171229Y-307302D02*
G54D10*
D03*
X171229Y-286702D02*
G54D10*
D03*
X139129Y-324602D02*
G54D10*
D03*
X139129Y-304002D02*
G54D10*
D03*
X199642Y-268587D02*
G54D12*
D03*
X179042Y-268587D02*
G54D12*
D03*
X139497Y-342592D02*
G54D12*
D03*
X118897Y-342592D02*
G54D12*
D03*
X241141Y-424556D02*
G54D12*
D03*
G36*
X256241Y-417556D02*
X267241Y-417556D01*
X267241Y-431556D01*
X256241Y-431556D01*
X256241Y-417556D01*
G37*
X261600Y-461800D02*
G54D10*
D03*
X261600Y-441200D02*
G54D10*
D03*
X249448Y-385947D02*
G54D10*
D03*
X249448Y-365347D02*
G54D10*
D03*
X249253Y-347866D02*
G54D15*
D03*
X249253Y-323166D02*
G54D15*
D03*
X249345Y-309103D02*
G54D10*
D03*
X249345Y-288503D02*
G54D10*
D03*
X249448Y-365347D02*
G54D10*
D03*
X230448Y-385947D02*
G54D10*
D03*
X230448Y-365347D02*
G54D10*
D03*
X230253Y-347866D02*
G54D15*
D03*
X230253Y-323166D02*
G54D15*
D03*
X230345Y-309103D02*
G54D10*
D03*
X230345Y-288503D02*
G54D10*
D03*
X230448Y-365347D02*
G54D10*
D03*
X211448Y-385947D02*
G54D10*
D03*
X211448Y-365347D02*
G54D10*
D03*
X211253Y-347866D02*
G54D15*
D03*
X211253Y-323166D02*
G54D15*
D03*
X211345Y-309103D02*
G54D10*
D03*
X211345Y-288503D02*
G54D10*
D03*
X211448Y-365347D02*
G54D10*
D03*
X179042Y-268587D02*
G54D12*
D03*
X148809Y-400111D02*
G54D10*
D03*
X73840Y-350463D02*
G54D14*
D03*
X98540Y-350463D02*
G54D14*
D03*
X73612Y-330314D02*
G54D15*
D03*
X73612Y-305614D02*
G54D15*
D03*
X71006Y-399641D02*
G54D10*
D03*
X71006Y-379041D02*
G54D10*
D03*
X120047Y-368847D02*
G54D12*
D03*
X99447Y-368847D02*
G54D12*
D03*
X118093Y-407557D02*
G54D10*
D03*
X118093Y-386957D02*
G54D10*
D03*
X71006Y-379041D02*
G54D10*
D03*
X118093Y-386957D02*
G54D10*
D03*
X117000Y-315600D02*
G54D10*
D03*
X117000Y-295000D02*
G54D10*
D03*
X117000Y-295000D02*
G54D10*
D03*
X833911Y-122285D02*
G54D20*
D03*
X856911Y-122285D02*
G54D20*
D03*
X845411Y-122285D02*
G54D21*
D03*
X856912Y-78285D02*
G54D20*
D03*
X833912Y-78285D02*
G54D20*
D03*
G36*
X842411Y-67285D02*
X848411Y-67285D01*
X848412Y-89285D01*
X842412Y-89285D01*
X842411Y-67285D01*
G37*
X856912Y-100285D02*
G54D20*
D03*
X833912Y-100285D02*
G54D20*
D03*
X845411Y-100285D02*
G54D21*
D03*
X51469Y-241982D02*
G54D12*
D03*
X69974Y-73830D02*
G54D10*
D03*
X69974Y-94430D02*
G54D10*
D03*
X416000Y-324000D02*
G54D13*
D03*
X416000Y-293500D02*
G54D13*
D03*
X431200Y-324000D02*
G54D13*
D03*
X431200Y-293500D02*
G54D13*
D03*
X446400Y-324000D02*
G54D13*
D03*
X446400Y-293500D02*
G54D13*
D03*
X464906Y-287766D02*
G54D10*
D03*
X464906Y-308366D02*
G54D10*
D03*
X475394Y-348112D02*
G54D10*
D03*
X475394Y-327512D02*
G54D10*
D03*
X461394Y-386112D02*
G54D10*
D03*
X461394Y-365512D02*
G54D10*
D03*
X533408Y-385210D02*
G54D10*
D03*
X533408Y-364610D02*
G54D10*
D03*
X533214Y-347129D02*
G54D15*
D03*
X533214Y-322429D02*
G54D15*
D03*
X533306Y-308366D02*
G54D10*
D03*
X533306Y-287766D02*
G54D10*
D03*
X533408Y-364610D02*
G54D10*
D03*
X514408Y-385210D02*
G54D10*
D03*
X514408Y-364610D02*
G54D10*
D03*
X514214Y-347129D02*
G54D15*
D03*
X514214Y-322429D02*
G54D15*
D03*
X514306Y-308366D02*
G54D10*
D03*
X514306Y-287766D02*
G54D10*
D03*
X514408Y-364610D02*
G54D10*
D03*
X495408Y-385210D02*
G54D10*
D03*
X495408Y-364610D02*
G54D10*
D03*
X495214Y-347129D02*
G54D15*
D03*
X495214Y-322429D02*
G54D15*
D03*
X495306Y-308366D02*
G54D10*
D03*
X495306Y-287766D02*
G54D10*
D03*
X495408Y-364610D02*
G54D10*
D03*
G36*
X587212Y-311529D02*
X579434Y-319307D01*
X569535Y-309408D01*
X577313Y-301630D01*
X587212Y-311529D01*
G37*
G36*
X572645Y-326096D02*
X564867Y-333874D01*
X554968Y-323974D01*
X562746Y-316196D01*
X572645Y-326096D01*
G37*
G36*
X602212Y-326529D02*
X594434Y-334307D01*
X584534Y-324408D01*
X592313Y-316630D01*
X602212Y-326529D01*
G37*
G36*
X587645Y-341096D02*
X579867Y-348874D01*
X569968Y-338975D01*
X577746Y-331196D01*
X587645Y-341096D01*
G37*
X632101Y-383600D02*
G54D12*
D03*
X652701Y-383600D02*
G54D12*
D03*
X653988Y-400567D02*
G54D14*
D03*
X629288Y-400567D02*
G54D14*
D03*
X644448Y-437847D02*
G54D10*
D03*
X644448Y-417247D02*
G54D10*
D03*
X525141Y-424556D02*
G54D12*
D03*
G36*
X540241Y-417556D02*
X551241Y-417556D01*
X551241Y-431556D01*
X540241Y-431556D01*
X540241Y-417556D01*
G37*
X545600Y-461800D02*
G54D10*
D03*
X545600Y-441200D02*
G54D10*
D03*
X700000Y-324000D02*
G54D13*
D03*
X700000Y-293500D02*
G54D13*
D03*
X715200Y-324000D02*
G54D13*
D03*
X715200Y-293500D02*
G54D13*
D03*
X730400Y-324000D02*
G54D13*
D03*
X730400Y-293500D02*
G54D13*
D03*
X822437Y-239218D02*
G54D11*
D03*
X841437Y-239217D02*
G54D11*
D03*
X831937Y-261418D02*
G54D11*
D03*
X822437Y-184818D02*
G54D11*
D03*
X841437Y-184817D02*
G54D11*
D03*
X831937Y-207018D02*
G54D11*
D03*
X841665Y-328694D02*
G54D12*
D03*
G36*
X856765Y-321694D02*
X867765Y-321694D01*
X867765Y-335694D01*
X856765Y-335694D01*
X856765Y-321694D01*
G37*
X861712Y-239746D02*
G54D10*
D03*
X861712Y-260347D02*
G54D10*
D03*
X859712Y-185146D02*
G54D10*
D03*
X859712Y-205746D02*
G54D10*
D03*
X875413Y-367337D02*
G54D11*
D03*
X875412Y-348337D02*
G54D11*
D03*
X897613Y-357837D02*
G54D11*
D03*
X960058Y-355793D02*
G54D12*
D03*
X939458Y-355793D02*
G54D12*
D03*
X859688Y-368109D02*
G54D10*
D03*
X859688Y-347510D02*
G54D10*
D03*
X916015Y-377190D02*
G54D12*
D03*
X936615Y-377190D02*
G54D12*
D03*
X843413Y-301337D02*
G54D11*
D03*
X843412Y-282337D02*
G54D11*
D03*
X865613Y-291837D02*
G54D11*
D03*
X827688Y-302109D02*
G54D10*
D03*
X827688Y-281510D02*
G54D10*
D03*
X909413Y-243337D02*
G54D11*
D03*
X909413Y-224337D02*
G54D11*
D03*
X931613Y-233837D02*
G54D11*
D03*
X893688Y-244909D02*
G54D10*
D03*
X893688Y-224310D02*
G54D10*
D03*
X960058Y-295793D02*
G54D12*
D03*
X939458Y-295793D02*
G54D12*
D03*
X960058Y-213793D02*
G54D12*
D03*
X939458Y-213793D02*
G54D12*
D03*
X935072Y-335819D02*
G54D12*
D03*
X914472Y-335819D02*
G54D12*
D03*
X949072Y-261819D02*
G54D12*
D03*
X928472Y-261819D02*
G54D12*
D03*
X681698Y-242948D02*
G54D10*
D03*
X681698Y-222348D02*
G54D10*
D03*
X723196Y-201426D02*
G54D11*
D03*
X723196Y-182426D02*
G54D11*
D03*
X745396Y-191926D02*
G54D11*
D03*
X706506Y-200681D02*
G54D10*
D03*
X706506Y-180081D02*
G54D10*
D03*
X711298Y-242948D02*
G54D10*
D03*
X711298Y-222348D02*
G54D10*
D03*
X739400Y-422400D02*
G54D12*
D03*
X718800Y-422400D02*
G54D12*
D03*
X739400Y-385800D02*
G54D11*
D03*
X739400Y-366800D02*
G54D11*
D03*
X761600Y-376300D02*
G54D11*
D03*
X739400Y-402800D02*
G54D12*
D03*
G36*
X754500Y-395800D02*
X765500Y-395800D01*
X765500Y-409800D01*
X754500Y-409800D01*
X754500Y-395800D01*
G37*
X760000Y-420800D02*
G54D10*
D03*
X760000Y-441400D02*
G54D10*
D03*
G36*
X303212Y-311529D02*
X295434Y-319307D01*
X285535Y-309408D01*
X293313Y-301630D01*
X303212Y-311529D01*
G37*
G36*
X288645Y-326096D02*
X280867Y-333874D01*
X270968Y-323974D01*
X278746Y-316196D01*
X288645Y-326096D01*
G37*
G36*
X318212Y-326529D02*
X310434Y-334307D01*
X300534Y-324408D01*
X308312Y-316630D01*
X318212Y-326529D01*
G37*
G36*
X303645Y-341096D02*
X295867Y-348874D01*
X285968Y-338975D01*
X293746Y-331196D01*
X303645Y-341096D01*
G37*
M02*
