<?xml version="1.0" encoding="utf-8"?>
<!-- Created with "sPlan" (http://www.abacom-online.de) -->
<svg version="1.1" baseProfile="full"
xmlns="http://www.w3.org/2000/svg"
width="148mm" height="54mm"
viewBox="0 0 1484 547">
<title>MIX1 schematic</title>
<defs>
<style type="text/css">
<![CDATA[
polyline {stroke-linecap:round; stroke-linejoin:round}
polygon {stroke-linecap:round; stroke-linejoin:round}
path {stroke-linecap:round; stroke-linejoin:round}
circle {stroke-linecap:round; stroke-linejoin:round}
]]>
</style>
</defs>
<polyline points="183.00 386.00 105.00 386.00 58.00 386.00" fill="none" stroke="rgb(0,0,0)" stroke-width="2" />
<circle cx="123.04" cy="386.00" r="15.04" fill="none" stroke="rgb(0,0,0)" stroke-width="2" />
<polyline points="123.00 401.00 123.00 491.00" fill="none" stroke="rgb(0,0,0)" stroke-width="2" />
<path fill="rgb(0,0,0)" stroke="rgb(0,0,0)" stroke-width="2" d=" M 103 496 L 143 496 143 506 103 506 103 496 Z" />
<polyline points="123.00 466.00 123.00 496.00" fill="none" stroke="rgb(0,0,0)" stroke-width="2" />
<polyline points="58.00 386.00 48.00 396.00" fill="none" stroke="rgb(0,0,0)" stroke-width="2" />
<polyline points="58.00 386.00 48.00 376.00" fill="none" stroke="rgb(0,0,0)" stroke-width="2" />
<circle cx="123" cy="401" r="6" fill="rgb(0,0,0)" stroke="none" stroke-width="2" />
<circle cx="123" cy="426" r="6" fill="rgb(0,0,0)" stroke="none" stroke-width="2" />
<polyline points="123.00 426.00 58.00 426.00" fill="none" stroke="rgb(0,0,0)" stroke-width="2" />
<polyline points="1313.00 386.00 1391.00 386.00 1438.00 386.00" fill="none" stroke="rgb(0,0,0)" stroke-width="2" />
<circle cx="1372.96" cy="386.00" r="15.04" fill="none" stroke="rgb(0,0,0)" stroke-width="2" />
<polyline points="1373.00 401.00 1373.00 491.00" fill="none" stroke="rgb(0,0,0)" stroke-width="2" />
<path fill="rgb(0,0,0)" stroke="rgb(0,0,0)" stroke-width="2" d=" M 1393 495 L 1353 495 1353 505 1393 505 1393 495 Z" />
<polyline points="1373.00 465.00 1373.00 495.00" fill="none" stroke="rgb(0,0,0)" stroke-width="2" />
<polyline points="1439.00 386.00 1429.00 396.00" fill="none" stroke="rgb(0,0,0)" stroke-width="2" />
<polyline points="1439.00 386.00 1429.00 376.00" fill="none" stroke="rgb(0,0,0)" stroke-width="2" />
<circle cx="1373" cy="401" r="6" fill="rgb(0,0,0)" stroke="none" stroke-width="2" />
<circle cx="1373" cy="426" r="6" fill="rgb(0,0,0)" stroke="none" stroke-width="2" />
<polyline points="1373.00 426.00 1438.00 426.00" fill="none" stroke="rgb(0,0,0)" stroke-width="2" />
<path fill="rgb(0,0,0)" stroke="rgb(0,0,0)" stroke-width="0" d=" M 425.09 290.00 L 425.11 270.80 427.50 270.80 427.49 287.60 437.05 287.60 437.05 290.00 Z M 439.74 290.00 L 439.76 270.80 446.85 270.80 447.56 270.81 448.21 270.83 448.78 270.87 449.28 270.92 449.71 270.98 450.24 271.09 450.75 271.24 451.21 271.42 451.64 271.63 452.03 271.88 452.39 272.17 452.72 272.50 453.02 272.87 453.29 273.28 453.54 273.74 453.74 274.22 453.90 274.73 454.01 275.25 454.08 275.79 454.10 276.35 454.04 277.31 453.86 278.20 453.55 279.02 453.12 279.79 452.56 280.50 451.85 281.11 450.93 281.59 449.82 281.93 448.51 282.13 447.00 282.20 442.14 282.20 442.13 290.00 Z M 442.14 279.80 L 447.14 279.80 448.08 279.76 448.90 279.66 449.60 279.48 450.19 279.24 450.67 278.92 451.04 278.54 451.34 278.10 451.54 277.60 451.67 277.05 451.71 276.44 451.69 275.99 451.61 275.56 451.49 275.17 451.32 274.80 451.10 274.45 450.84 274.14 450.55 273.88 450.23 273.66 449.87 273.49 449.49 273.36 449.18 273.30 448.79 273.26 448.32 273.23 447.75 273.21 447.10 273.20 442.15 273.20 Z M 457.38 290.00 L 457.40 270.80 470.25 270.80 470.25 273.20 459.79 273.20 459.78 278.90 468.75 278.90 468.75 281.30 459.78 281.30 459.77 290.00 Z M 487.87 290.00 L 487.87 285.50 479.20 285.50 479.21 283.10 488.48 271.10 490.28 271.10 490.27 283.10 492.66 283.10 492.66 285.50 490.26 285.50 490.26 290.00 Z M 487.88 283.10 L 487.88 275.68 482.15 283.10 Z M 512.09 282.50 L 512.09 280.10 519.86 280.10 519.86 287.28 519.11 287.85 518.35 288.36 517.58 288.81 516.80 289.21 516.02 289.54 515.22 289.81 514.42 290.03 513.61 290.18 512.79 290.27 511.96 290.30 510.86 290.25 509.79 290.11 508.77 289.87 507.79 289.53 506.85 289.09 505.98 288.57 505.20 287.95 504.50 287.26 503.90 286.47 503.39 285.60 502.97 284.66 502.65 283.68 502.41 282.66 502.27 281.60 502.23 280.49 502.27 279.39 502.42 278.32 502.65 277.27 502.98 276.26 503.40 275.27 503.91 274.36 504.50 273.54 505.17 272.82 505.92 272.20 506.75 271.68 507.65 271.25 508.61 270.92 509.61 270.69 510.67 270.55 511.79 270.50 512.60 270.53 513.38 270.61 514.13 270.75 514.84 270.94 515.53 271.18 516.17 271.48 516.75 271.81 517.28 272.19 517.74 272.62 518.15 273.08 518.51 273.60 518.84 274.17 519.13 274.81 519.38 275.50 519.59 276.26 517.39 276.88 517.20 276.34 517.00 275.84 516.79 275.40 516.55 275.00 516.30 274.66 516.02 274.35 515.69 274.07 515.32 273.82 514.90 273.59 514.44 273.38 513.94 273.21 513.43 273.07 512.89 272.98 512.33 272.92 511.75 272.90 511.06 272.92 510.41 272.98 509.80 273.09 509.22 273.23 508.69 273.42 508.19 273.64 507.73 273.88 507.32 274.16 506.94 274.45 506.60 274.78 506.30 275.12 506.02 275.48 505.78 275.85 505.56 276.23 505.37 276.63 505.10 277.33 504.89 278.06 504.74 278.82 504.65 279.60 504.62 280.40 504.65 281.36 504.76 282.26 504.94 283.10 505.19 283.87 505.51 284.58 505.91 285.22 506.36 285.79 506.89 286.29 507.47 286.72 508.13 287.08 508.82 287.38 509.53 287.61 510.26 287.77 511.01 287.87 511.77 287.90 512.44 287.88 513.10 287.80 513.75 287.68 514.40 287.51 515.04 287.28 515.65 287.03 516.20 286.78 516.68 286.51 517.11 286.24 517.47 285.97 517.47 282.50 Z M 523.74 290.00 L 523.76 270.80 526.15 270.80 526.15 278.60 536.31 278.60 536.31 270.80 538.71 270.80 538.69 290.00 536.30 290.00 536.30 281.00 526.14 281.00 526.13 290.00 Z M 541.08 290.00 L 541.08 287.74 549.35 278.30 548.81 278.30 548.29 278.30 547.80 278.30 547.34 278.30 546.90 278.30 541.69 278.30 541.69 275.90 552.75 275.90 552.75 277.94 545.42 286.32 544.30 287.60 544.88 287.60 545.45 287.60 546.00 287.60 546.54 287.60 547.07 287.60 553.04 287.60 553.04 290.00 Z" />
<path fill="rgb(0,0,0)" stroke="rgb(0,0,0)" stroke-width="0" d=" M 1365.00 335.00 L 1365.02 319.00 1367.02 319.00 1367.00 335.00 Z M 1371.00 335.00 L 1371.02 319.00 1381.77 319.00 1381.77 321.00 1373.02 321.00 1373.01 325.75 1380.51 325.75 1380.51 327.75 1373.01 327.75 1373.00 335.00 Z M 1383.75 335.00 L 1384.62 330.75 1382.75 330.75 1382.76 328.75 1385.03 328.75 1385.74 325.25 1382.76 325.25 1382.76 323.25 1386.15 323.25 1387.02 319.00 1389.04 319.00 1388.18 323.25 1391.12 323.25 1391.98 319.00 1394.02 319.00 1393.15 323.25 1395.01 323.25 1395.01 325.25 1392.74 325.25 1392.03 328.75 1395.01 328.75 1395.00 330.75 1391.62 330.75 1390.75 335.00 1388.72 335.00 1389.59 330.75 1386.65 330.75 1385.78 335.00 Z M 1387.06 328.75 L 1390.00 328.75 1390.71 325.25 1387.77 325.25 Z M 1403.50 335.00 L 1401.50 335.00 1401.51 322.53 1401.20 322.80 1400.86 323.07 1400.48 323.34 1400.07 323.61 1399.62 323.88 1399.16 324.14 1398.72 324.37 1398.30 324.57 1397.89 324.74 1397.51 324.89 1397.51 323.00 1398.17 322.68 1398.79 322.33 1399.37 321.96 1399.93 321.55 1400.45 321.13 1400.92 320.69 1401.33 320.26 1401.69 319.84 1401.99 319.42 1402.23 319.00 1403.52 319.00 Z M 1414.51 329.12 L 1414.58 327.89 1414.79 326.79 1415.13 325.83 1415.62 325.00 1416.24 324.30 1416.85 323.83 1417.50 323.47 1418.20 323.21 1418.96 323.05 1419.77 323.00 1420.66 323.06 1421.48 323.25 1422.24 323.57 1422.92 324.01 1423.54 324.58 1424.07 325.27 1424.48 326.04 1424.77 326.92 1424.95 327.89 1425.01 328.96 1424.98 329.83 1424.90 330.62 1424.77 331.33 1424.59 331.96 1424.35 332.52 1424.07 333.02 1423.74 333.46 1423.36 333.87 1422.94 334.22 1422.46 334.53 1421.96 334.79 1421.43 334.99 1420.89 335.14 1420.33 335.22 1419.75 335.25 1418.85 335.19 1418.02 335.00 1417.26 334.68 1416.57 334.24 1415.95 333.67 1415.43 332.98 1415.03 332.19 1414.74 331.28 1414.56 330.26 1414.51 329.12 Z M 1416.51 329.12 L 1416.54 329.91 1416.65 330.61 1416.84 331.23 1417.10 331.77 1417.43 332.22 1417.82 332.59 1418.24 332.88 1418.71 333.09 1419.21 333.21 1419.75 333.25 1420.29 333.21 1420.79 333.08 1421.26 332.88 1421.69 332.59 1422.08 332.21 1422.41 331.76 1422.67 331.21 1422.86 330.58 1422.97 329.86 1423.01 329.06 1422.97 328.30 1422.86 327.61 1422.67 327.01 1422.41 326.48 1422.08 326.03 1421.69 325.66 1421.26 325.37 1420.80 325.16 1420.30 325.04 1419.77 325.00 1419.22 325.04 1418.72 325.16 1418.25 325.37 1417.83 325.66 1417.44 326.03 1417.10 326.48 1416.84 327.01 1416.66 327.63 1416.54 328.33 1416.51 329.12 Z M 1434.75 335.00 L 1434.75 332.98 1434.18 333.80 1433.54 334.43 1432.81 334.89 1432.02 335.16 1431.14 335.25 1430.74 335.23 1430.36 335.19 1429.98 335.11 1429.61 334.99 1429.26 334.85 1428.93 334.68 1428.63 334.50 1428.37 334.30 1428.15 334.08 1427.96 333.85 1427.80 333.60 1427.66 333.33 1427.55 333.03 1427.45 332.72 1427.37 332.38 1427.33 332.12 1427.30 331.80 1427.27 331.43 1427.26 331.00 1427.25 330.52 1427.26 323.25 1429.26 323.25 1429.25 329.58 1429.26 330.14 1429.27 330.63 1429.30 331.04 1429.33 331.37 1429.38 331.62 1429.47 331.91 1429.59 332.17 1429.75 332.41 1429.94 332.63 1430.16 332.81 1430.42 332.97 1430.69 333.09 1430.99 333.18 1431.31 333.23 1431.65 333.25 1432.00 333.23 1432.35 333.18 1432.68 333.09 1433.01 332.96 1433.32 332.80 1433.62 332.61 1433.88 332.40 1434.10 332.15 1434.28 331.89 1434.43 331.59 1434.55 331.26 1434.64 330.87 1434.70 330.42 1434.74 329.92 1434.76 329.36 1434.76 323.25 1436.76 323.25 1436.75 335.00 Z M 1443.75 333.33 L 1444.00 335.06 1443.67 335.13 1443.36 335.18 1443.06 335.22 1442.78 335.24 1442.50 335.25 1442.09 335.24 1441.72 335.20 1441.38 335.13 1441.09 335.04 1440.83 334.92 1440.60 334.78 1440.41 334.62 1440.24 334.45 1440.10 334.25 1439.99 334.05 1439.91 333.78 1439.84 333.42 1439.79 332.97 1439.76 332.42 1439.75 331.78 1439.76 325.25 1438.26 325.25 1438.26 323.25 1439.76 323.25 1439.77 320.39 1441.77 319.22 1441.76 323.25 1443.76 323.25 1443.76 325.25 1441.76 325.25 1441.75 331.72 1441.76 332.02 1441.77 332.27 1441.79 332.47 1441.82 332.64 1441.86 332.75 1441.91 332.84 1441.96 332.92 1442.03 332.99 1442.11 333.06 1442.20 333.12 1442.30 333.16 1442.42 333.20 1442.56 333.23 1442.71 333.24 1442.88 333.25 1443.02 333.25 1443.18 333.26 1443.35 333.28 1443.54 333.30 1443.75 333.33 Z" />
<path fill="rgb(0,0,0)" stroke="rgb(0,0,0)" stroke-width="0" d=" M 1370.45 360.00 L 1370.46 356.25 1363.25 356.25 1363.26 354.25 1370.97 344.25 1372.46 344.25 1372.45 354.25 1374.44 354.25 1374.43 356.25 1372.45 356.25 1372.44 360.00 Z M 1370.46 354.25 L 1370.47 348.07 1365.70 354.25 Z M 1377.16 360.00 L 1377.17 358.00 1379.15 358.00 1379.15 360.00 Z M 1382.38 355.75 L 1384.37 355.50 1384.53 356.05 1384.71 356.54 1384.93 356.96 1385.18 357.32 1385.47 357.61 1385.79 357.84 1386.16 358.02 1386.57 358.15 1387.02 358.22 1387.52 358.25 1388.10 358.21 1388.63 358.11 1389.12 357.93 1389.55 357.68 1389.93 357.36 1390.26 356.99 1390.51 356.59 1390.69 356.15 1390.80 355.67 1390.83 355.17 1390.80 354.69 1390.69 354.24 1390.52 353.82 1390.27 353.44 1389.95 353.10 1389.57 352.80 1389.16 352.58 1388.71 352.41 1388.22 352.31 1387.69 352.28 1387.45 352.29 1387.20 352.32 1386.92 352.36 1386.62 352.42 1386.29 352.50 1386.52 350.50 1386.59 350.51 1386.66 350.52 1386.73 350.52 1386.79 350.52 1386.84 350.52 1387.33 350.50 1387.80 350.43 1388.25 350.32 1388.68 350.16 1389.09 349.95 1389.45 349.69 1389.73 349.39 1389.93 349.04 1390.05 348.64 1390.09 348.18 1390.07 347.82 1389.98 347.48 1389.83 347.17 1389.63 346.88 1389.37 346.62 1389.06 346.40 1388.72 346.22 1388.35 346.10 1387.94 346.02 1387.50 346.00 1387.06 346.02 1386.65 346.10 1386.27 346.23 1385.92 346.40 1385.60 346.62 1385.32 346.90 1385.08 347.23 1384.89 347.60 1384.74 348.02 1384.63 348.50 1382.64 348.25 1382.82 347.48 1383.07 346.78 1383.40 346.15 1383.80 345.60 1384.27 345.11 1384.80 344.71 1385.39 344.40 1386.02 344.18 1386.70 344.04 1387.43 344.00 1387.94 344.02 1388.44 344.09 1388.92 344.20 1389.38 344.35 1389.83 344.55 1390.25 344.78 1390.62 345.05 1390.96 345.35 1391.25 345.68 1391.51 346.05 1391.71 346.43 1391.88 346.83 1391.99 347.23 1392.06 347.64 1392.08 348.07 1392.06 348.46 1391.99 348.85 1391.88 349.22 1391.73 349.57 1391.53 349.91 1391.29 350.23 1391.00 350.52 1390.68 350.79 1390.31 351.02 1389.90 351.23 1390.43 351.39 1390.92 351.61 1391.35 351.88 1391.73 352.21 1392.06 352.60 1392.34 353.04 1392.55 353.52 1392.70 354.04 1392.79 354.60 1392.82 355.20 1392.76 356.02 1392.58 356.79 1392.27 357.50 1391.84 358.17 1391.30 358.78 1390.65 359.31 1389.95 359.72 1389.18 360.02 1388.34 360.19 1387.45 360.25 1386.64 360.20 1385.88 360.05 1385.18 359.80 1384.54 359.45 1383.96 359.00 1383.46 358.46 1383.05 357.87 1382.73 357.23 1382.51 356.52 1382.38 355.75 Z M 1408.97 353.75 L 1408.97 351.75 1415.43 351.75 1415.43 357.73 1414.81 358.21 1414.18 358.63 1413.54 359.01 1412.89 359.34 1412.24 359.62 1411.58 359.85 1410.91 360.02 1410.23 360.15 1409.55 360.22 1408.87 360.25 1407.95 360.21 1407.06 360.09 1406.22 359.89 1405.40 359.61 1404.62 359.24 1403.89 358.81 1403.24 358.30 1402.67 357.71 1402.17 357.06 1401.74 356.33 1401.39 355.55 1401.12 354.74 1400.93 353.89 1400.81 353.00 1400.77 352.08 1400.81 351.16 1400.93 350.26 1401.13 349.39 1401.40 348.55 1401.75 347.73 1402.17 346.96 1402.66 346.28 1403.22 345.68 1403.84 345.16 1404.54 344.73 1405.29 344.38 1406.08 344.10 1406.92 343.91 1407.80 343.79 1408.72 343.75 1409.40 343.77 1410.04 343.84 1410.67 343.95 1411.26 344.11 1411.83 344.32 1412.36 344.56 1412.85 344.84 1413.28 345.16 1413.67 345.51 1414.01 345.90 1414.31 346.33 1414.58 346.81 1414.82 347.34 1415.03 347.92 1415.21 348.55 1413.38 349.07 1413.22 348.61 1413.06 348.20 1412.88 347.83 1412.68 347.50 1412.47 347.22 1412.24 346.96 1411.97 346.73 1411.66 346.51 1411.31 346.32 1410.92 346.15 1410.51 346.01 1410.08 345.89 1409.64 345.81 1409.17 345.77 1408.69 345.75 1408.12 345.77 1407.58 345.82 1407.07 345.91 1406.59 346.03 1406.15 346.18 1405.73 346.37 1405.35 346.57 1405.01 346.80 1404.69 347.04 1404.41 347.31 1404.16 347.60 1403.93 347.90 1403.73 348.21 1403.55 348.53 1403.39 348.86 1403.16 349.44 1402.99 350.05 1402.86 350.68 1402.79 351.33 1402.76 352.00 1402.79 352.80 1402.88 353.55 1403.03 354.25 1403.24 354.89 1403.51 355.48 1403.83 356.02 1404.21 356.49 1404.65 356.91 1405.14 357.27 1405.68 357.57 1406.26 357.81 1406.85 358.00 1407.45 358.14 1408.07 358.22 1408.71 358.25 1409.26 358.23 1409.81 358.17 1410.35 358.07 1410.89 357.92 1411.43 357.74 1411.93 357.53 1412.39 357.31 1412.79 357.10 1413.14 356.87 1413.44 356.64 1413.45 353.75 Z M 1418.66 360.00 L 1418.67 344.00 1420.66 344.00 1420.66 350.50 1429.10 350.50 1429.11 344.00 1431.10 344.00 1431.08 360.00 1429.09 360.00 1429.10 352.50 1420.65 352.50 1420.64 360.00 Z M 1433.07 360.00 L 1433.07 358.12 1439.94 350.25 1439.49 350.25 1439.06 350.25 1438.66 350.25 1438.27 350.25 1437.91 350.25 1433.58 350.25 1433.58 348.25 1442.77 348.25 1442.77 349.95 1436.68 356.93 1435.75 358.00 1436.23 358.00 1436.70 358.00 1437.16 358.00 1437.61 358.00 1438.04 358.00 1443.01 358.00 1443.01 360.00 Z" />
<path fill="rgb(0,0,0)" stroke="rgb(0,0,0)" stroke-width="0" d=" M 41.75 334.00 L 41.77 318.00 48.66 318.00 49.46 318.02 50.18 318.07 50.82 318.16 51.38 318.28 51.86 318.43 52.28 318.63 52.67 318.88 53.02 319.19 53.33 319.55 53.61 319.96 53.84 320.41 54.03 320.87 54.16 321.36 54.24 321.86 54.26 322.38 54.22 323.04 54.09 323.66 53.87 324.24 53.57 324.77 53.18 325.26 52.69 325.70 52.12 326.06 51.45 326.36 50.68 326.59 49.82 326.75 50.11 326.92 50.37 327.10 50.59 327.27 50.79 327.44 50.96 327.61 51.29 327.98 51.62 328.37 51.94 328.79 52.26 329.22 52.58 329.66 55.24 334.00 52.92 334.00 50.84 330.68 50.49 330.14 50.16 329.64 49.86 329.21 49.59 328.82 49.34 328.49 49.11 328.20 48.89 327.96 48.68 327.75 48.47 327.58 48.28 327.45 48.10 327.35 47.91 327.26 47.72 327.18 47.53 327.12 47.33 327.07 47.17 327.05 46.98 327.03 46.74 327.01 46.48 327.00 46.17 327.00 43.76 327.00 43.75 334.00 Z M 43.76 325.00 L 48.23 325.00 48.78 324.99 49.29 324.95 49.74 324.90 50.15 324.82 50.52 324.72 50.85 324.59 51.14 324.44 51.40 324.25 51.62 324.05 51.82 323.81 51.98 323.56 52.10 323.29 52.19 323.02 52.24 322.74 52.26 322.45 52.23 322.04 52.13 321.66 51.96 321.31 51.72 320.98 51.42 320.69 51.04 320.44 50.59 320.25 50.05 320.11 49.44 320.03 48.75 320.00 43.77 320.00 Z M 57.75 334.00 L 57.77 318.00 68.52 318.00 68.52 320.00 59.77 320.00 59.76 324.75 67.26 324.75 67.26 326.75 59.76 326.75 59.75 334.00 Z M 77.27 320.00 L 77.27 318.00 79.27 318.00 79.27 320.00 Z M 77.25 334.00 L 77.26 322.25 79.26 322.25 79.25 334.00 Z M 82.25 334.00 L 82.26 322.25 84.26 322.25 84.26 323.89 84.81 323.21 85.44 322.68 86.16 322.30 86.98 322.08 87.88 322.00 88.28 322.02 88.67 322.06 89.05 322.14 89.42 322.24 89.77 322.38 90.09 322.54 90.39 322.72 90.65 322.92 90.87 323.14 91.06 323.38 91.22 323.64 91.36 323.91 91.48 324.21 91.57 324.52 91.65 324.85 91.69 325.11 91.72 325.43 91.74 325.81 91.75 326.27 91.76 326.79 91.75 334.00 89.75 334.00 89.76 327.05 89.75 326.61 89.72 326.20 89.68 325.85 89.61 325.54 89.53 325.29 89.42 325.06 89.29 324.85 89.13 324.67 88.94 324.50 88.72 324.35 88.47 324.22 88.22 324.13 87.94 324.06 87.65 324.01 87.34 324.00 86.85 324.03 86.39 324.13 85.96 324.28 85.55 324.50 85.17 324.79 84.84 325.16 84.59 325.64 84.40 326.23 84.29 326.94 84.26 327.77 84.25 334.00 Z" />
<path fill="rgb(0,0,0)" stroke="rgb(0,0,0)" stroke-width="0" d=" M 41.00 351.13 L 41.03 350.04 41.10 349.04 41.22 348.12 41.38 347.28 41.59 346.53 41.85 345.85 42.16 345.24 42.50 344.71 42.90 344.26 43.34 343.87 43.82 343.56 44.35 343.31 44.93 343.14 45.56 343.03 46.24 343.00 46.75 343.02 47.23 343.08 47.70 343.19 48.14 343.33 48.57 343.52 48.96 343.74 49.32 344.00 49.64 344.30 49.92 344.63 50.17 345.00 50.39 345.41 50.60 345.85 50.78 346.32 50.95 346.83 51.10 347.37 51.23 347.97 51.33 348.64 51.40 349.39 51.45 350.22 51.46 351.13 51.43 352.21 51.36 353.21 51.25 354.12 51.08 354.96 50.87 355.71 50.62 356.39 50.32 356.99 49.97 357.53 49.58 357.99 49.14 358.37 48.65 358.69 48.12 358.93 47.54 359.11 46.90 359.21 46.22 359.25 45.34 359.19 44.53 359.01 43.80 358.70 43.15 358.27 42.58 357.73 42.01 356.79 41.57 355.66 41.25 354.34 41.07 352.83 41.00 351.13 Z M 43.00 351.12 L 43.03 352.54 43.14 353.75 43.33 354.74 43.59 355.52 43.92 356.09 44.31 356.51 44.74 356.83 45.20 357.06 45.69 357.20 46.22 357.25 46.75 357.20 47.25 357.06 47.71 356.83 48.14 356.51 48.53 356.09 48.87 355.52 49.13 354.74 49.32 353.74 49.43 352.54 49.47 351.12 49.43 349.75 49.33 348.57 49.15 347.58 48.90 346.80 48.57 346.21 48.19 345.78 47.76 345.44 47.29 345.19 46.78 345.05 46.22 345.00 45.69 345.04 45.20 345.17 44.75 345.39 44.34 345.68 43.96 346.07 43.62 346.71 43.35 347.54 43.15 348.55 43.04 349.74 43.00 351.12 Z M 60.41 359.00 L 60.42 357.00 62.41 357.00 62.41 359.00 Z M 66.64 359.00 L 66.64 357.00 68.63 357.00 68.63 359.00 Z M 72.86 359.00 L 72.86 357.00 74.86 357.00 74.85 359.00 Z M 84.32 354.75 L 86.31 354.50 86.46 355.05 86.65 355.54 86.87 355.96 87.12 356.32 87.41 356.61 87.73 356.84 88.10 357.02 88.51 357.15 88.96 357.22 89.46 357.25 90.04 357.21 90.58 357.11 91.06 356.93 91.50 356.68 91.88 356.36 92.20 355.99 92.46 355.59 92.64 355.15 92.74 354.67 92.78 354.17 92.75 353.69 92.64 353.24 92.46 352.82 92.21 352.44 91.89 352.10 91.52 351.80 91.10 351.58 90.65 351.41 90.16 351.31 89.63 351.28 89.39 351.29 89.14 351.32 88.86 351.36 88.56 351.42 88.23 351.50 88.46 349.50 88.54 349.51 88.61 349.52 88.67 349.52 88.73 349.52 88.78 349.52 89.27 349.50 89.74 349.43 90.19 349.32 90.63 349.16 91.04 348.95 91.40 348.69 91.68 348.39 91.88 348.04 92.00 347.64 92.04 347.18 92.01 346.82 91.93 346.48 91.78 346.17 91.58 345.88 91.32 345.62 91.01 345.40 90.67 345.22 90.29 345.10 89.89 345.02 89.44 345.00 89.00 345.02 88.59 345.10 88.21 345.23 87.86 345.40 87.54 345.62 87.26 345.90 87.02 346.23 86.83 346.60 86.67 347.02 86.56 347.50 84.57 347.25 84.75 346.48 85.01 345.78 85.34 345.15 85.73 344.60 86.21 344.11 86.74 343.71 87.32 343.40 87.96 343.18 88.64 343.04 89.37 343.00 89.89 343.02 90.38 343.09 90.86 343.20 91.33 343.35 91.78 343.55 92.19 343.78 92.57 344.05 92.91 344.35 93.20 344.68 93.46 345.05 93.66 345.43 93.83 345.83 93.94 346.23 94.01 346.64 94.03 347.07 94.01 347.46 93.94 347.85 93.83 348.22 93.68 348.57 93.48 348.91 93.24 349.23 92.95 349.52 92.62 349.79 92.25 350.02 91.84 350.23 92.38 350.39 92.87 350.61 93.30 350.88 93.68 351.21 94.01 351.60 94.29 352.04 94.50 352.52 94.65 353.04 94.74 353.60 94.77 354.20 94.71 355.02 94.53 355.79 94.22 356.50 93.80 357.17 93.25 357.78 92.60 358.31 91.90 358.72 91.12 359.02 90.29 359.19 89.39 359.25 88.58 359.20 87.82 359.05 87.12 358.80 86.48 358.45 85.90 358.00 85.39 357.46 84.98 356.87 84.66 356.23 84.44 355.52 84.32 354.75 Z M 97.51 359.00 L 97.51 357.00 99.50 357.00 99.50 359.00 Z M 102.75 345.25 L 102.75 343.25 113.21 343.25 113.21 344.87 112.61 345.56 112.01 346.34 111.42 347.20 110.82 348.14 110.23 349.17 109.67 350.24 109.16 351.33 108.71 352.42 108.31 353.53 107.96 354.65 107.74 355.46 107.56 356.30 107.41 357.17 107.30 358.07 107.22 359.00 105.22 359.00 105.27 358.22 105.37 357.38 105.53 356.48 105.75 355.52 106.02 354.49 106.35 353.44 106.73 352.40 107.17 351.38 107.66 350.38 108.20 349.39 108.77 348.44 109.36 347.55 109.96 346.72 110.58 345.95 111.21 345.25 Z M 129.38 352.75 L 129.38 350.75 135.85 350.75 135.85 356.73 135.22 357.21 134.59 357.63 133.95 358.01 133.30 358.34 132.65 358.62 131.99 358.85 131.32 359.02 130.64 359.15 129.96 359.22 129.27 359.25 128.35 359.21 127.47 359.09 126.62 358.89 125.80 358.61 125.02 358.24 124.29 357.81 123.64 357.30 123.06 356.71 122.56 356.06 122.14 355.33 121.79 354.55 121.51 353.74 121.32 352.89 121.20 352.00 121.16 351.08 121.20 350.16 121.32 349.26 121.52 348.39 121.79 347.55 122.14 346.73 122.56 345.96 123.05 345.28 123.61 344.68 124.24 344.16 124.93 343.73 125.68 343.38 126.48 343.10 127.32 342.91 128.20 342.79 129.13 342.75 129.80 342.77 130.45 342.84 131.08 342.95 131.67 343.11 132.24 343.32 132.78 343.56 133.26 343.84 133.70 344.16 134.09 344.51 134.43 344.90 134.73 345.33 135.00 345.81 135.24 346.34 135.45 346.92 135.63 347.55 133.79 348.07 133.64 347.61 133.47 347.20 133.29 346.83 133.09 346.50 132.88 346.22 132.65 345.96 132.38 345.73 132.07 345.51 131.72 345.32 131.33 345.15 130.92 345.01 130.49 344.89 130.04 344.81 129.58 344.77 129.10 344.75 128.52 344.77 127.98 344.82 127.47 344.91 126.99 345.03 126.55 345.18 126.13 345.37 125.75 345.57 125.40 345.80 125.09 346.04 124.81 346.31 124.56 346.60 124.33 346.90 124.12 347.21 123.94 347.53 123.78 347.86 123.56 348.44 123.38 349.05 123.26 349.68 123.18 350.33 123.16 351.00 123.19 351.80 123.28 352.55 123.43 353.25 123.63 353.89 123.90 354.48 124.23 355.02 124.61 355.49 125.04 355.91 125.53 356.27 126.08 356.57 126.66 356.81 127.25 357.00 127.85 357.14 128.48 357.22 129.11 357.25 129.67 357.23 130.22 357.17 130.76 357.07 131.30 356.92 131.84 356.74 132.34 356.53 132.80 356.31 133.20 356.10 133.56 355.87 133.86 355.64 133.86 352.75 Z M 139.08 359.00 L 139.10 343.00 141.09 343.00 141.08 349.50 149.55 349.50 149.55 343.00 151.54 343.00 151.53 359.00 149.54 359.00 149.54 351.50 141.08 351.50 141.07 359.00 Z M 153.52 359.00 L 153.52 357.12 160.40 349.25 159.96 349.25 159.53 349.25 159.12 349.25 158.73 349.25 158.37 349.25 154.03 349.25 154.03 347.25 163.24 347.25 163.24 348.95 157.14 355.93 156.20 357.00 156.69 357.00 157.16 357.00 157.62 357.00 158.07 357.00 158.51 357.00 163.48 357.00 163.48 359.00 Z" />
<polyline points="183.00 386.00 773.00 386.00" fill="none" stroke="rgb(0,0,0)" stroke-width="7" />
<polygon points="201 428 201 428 208 434 216 438 224 440 233 441 242 440 250 438 258 434 265 428 265 428" fill="rgb(0,0,0)" stroke="rgb(0,0,0)" stroke-width="2" />
<polygon points="201 428 233 386 265 428" fill="rgb(0,0,0)" stroke="rgb(0,0,0)" stroke-width="2" />
<polyline points="201.02 427.98 264.97 427.93" fill="none" stroke="rgb(0,0,0)" stroke-width="2" />
<polygon points="265 344 265 344 258 338 250 334 242 332 233 331 224 332 216 334 208 338 201 344 201 344" fill="rgb(0,0,0)" stroke="rgb(0,0,0)" stroke-width="2" />
<polygon points="265 344 233 386 201 344" fill="rgb(0,0,0)" stroke="rgb(0,0,0)" stroke-width="2" />
<polyline points="264.98 344.02 201.03 344.07" fill="none" stroke="rgb(0,0,0)" stroke-width="2" />
<polygon points="281 436 281 436 289 442 298 447 308 450 319 451 329 450 339 447 348 442 357 436 357 436" fill="rgb(0,0,0)" stroke="rgb(0,0,0)" stroke-width="2" />
<polygon points="281 436 319 386 357 436" fill="rgb(0,0,0)" stroke="rgb(0,0,0)" stroke-width="2" />
<polyline points="281.02 435.58 356.55 435.52" fill="none" stroke="rgb(0,0,0)" stroke-width="2" />
<polygon points="357 336 357 336 348 330 339 325 329 322 319 321 308 322 298 325 289 330 281 336 281 336" fill="rgb(0,0,0)" stroke="rgb(0,0,0)" stroke-width="2" />
<polygon points="357 336 319 386 281 336" fill="rgb(0,0,0)" stroke="rgb(0,0,0)" stroke-width="2" />
<polyline points="356.56 336.42 281.03 336.48" fill="none" stroke="rgb(0,0,0)" stroke-width="2" />
<polygon points="371 436 371 436 379 442 388 447 398 450 409 451 419 450 429 447 438 442 447 436 447 436" fill="rgb(0,0,0)" stroke="rgb(0,0,0)" stroke-width="2" />
<polygon points="371 436 409 386 447 436" fill="rgb(0,0,0)" stroke="rgb(0,0,0)" stroke-width="2" />
<polyline points="371.02 435.58 446.55 435.52" fill="none" stroke="rgb(0,0,0)" stroke-width="2" />
<polygon points="447 336 447 336 438 330 429 325 419 322 409 321 398 322 388 325 379 330 371 336 371 336" fill="rgb(0,0,0)" stroke="rgb(0,0,0)" stroke-width="2" />
<polygon points="447 336 409 386 371 336" fill="rgb(0,0,0)" stroke="rgb(0,0,0)" stroke-width="2" />
<polyline points="446.56 336.42 371.03 336.48" fill="none" stroke="rgb(0,0,0)" stroke-width="2" />
<polygon points="461 436 461 436 469 442 478 447 488 450 499 451 509 450 519 447 528 442 537 436 537 436" fill="rgb(0,0,0)" stroke="rgb(0,0,0)" stroke-width="2" />
<polygon points="461 436 499 386 537 436" fill="rgb(0,0,0)" stroke="rgb(0,0,0)" stroke-width="2" />
<polyline points="461.02 435.58 536.55 435.52" fill="none" stroke="rgb(0,0,0)" stroke-width="2" />
<polygon points="537 336 537 336 528 330 519 325 509 322 499 321 488 322 478 325 469 330 461 336 461 336" fill="rgb(0,0,0)" stroke="rgb(0,0,0)" stroke-width="2" />
<polygon points="537 336 499 386 461 336" fill="rgb(0,0,0)" stroke="rgb(0,0,0)" stroke-width="2" />
<polyline points="536.56 336.42 461.03 336.48" fill="none" stroke="rgb(0,0,0)" stroke-width="2" />
<polygon points="551 436 551 436 559 442 568 447 578 450 589 451 599 450 609 447 618 442 627 436 627 436" fill="rgb(0,0,0)" stroke="rgb(0,0,0)" stroke-width="2" />
<polygon points="551 436 589 386 627 436" fill="rgb(0,0,0)" stroke="rgb(0,0,0)" stroke-width="2" />
<polyline points="551.02 435.58 626.55 435.52" fill="none" stroke="rgb(0,0,0)" stroke-width="2" />
<polygon points="627 336 627 336 618 330 609 325 599 322 589 321 578 322 568 325 559 330 551 336 551 336" fill="rgb(0,0,0)" stroke="rgb(0,0,0)" stroke-width="2" />
<polygon points="627 336 589 386 551 336" fill="rgb(0,0,0)" stroke="rgb(0,0,0)" stroke-width="2" />
<polyline points="626.56 336.42 551.03 336.48" fill="none" stroke="rgb(0,0,0)" stroke-width="2" />
<polygon points="641 428 641 428 648 434 656 438 664 440 673 441 682 440 690 438 698 434 705 428 705 428" fill="rgb(0,0,0)" stroke="rgb(0,0,0)" stroke-width="2" />
<polygon points="641 428 673 386 705 428" fill="rgb(0,0,0)" stroke="rgb(0,0,0)" stroke-width="2" />
<polyline points="641.02 427.98 704.97 427.93" fill="none" stroke="rgb(0,0,0)" stroke-width="2" />
<polygon points="705 344 705 344 698 338 690 334 682 332 673 331 664 332 656 334 648 338 641 344 641 344" fill="rgb(0,0,0)" stroke="rgb(0,0,0)" stroke-width="2" />
<polygon points="705 344 673 386 641 344" fill="rgb(0,0,0)" stroke="rgb(0,0,0)" stroke-width="2" />
<polyline points="704.98 344.02 641.03 344.07" fill="none" stroke="rgb(0,0,0)" stroke-width="2" />
<polygon points="721 415 721 415 726 419 731 422 737 423 743 424 749 423 755 422 760 419 765 415 765 415" fill="rgb(0,0,0)" stroke="rgb(0,0,0)" stroke-width="2" />
<polygon points="721 415 743 386 765 415" fill="rgb(0,0,0)" stroke="rgb(0,0,0)" stroke-width="2" />
<polyline points="721.00 414.83 764.95 414.80" fill="none" stroke="rgb(0,0,0)" stroke-width="2" />
<polygon points="765 357 765 357 760 353 755 350 749 349 743 348 737 349 731 350 726 353 721 357 721 357" fill="rgb(0,0,0)" stroke="rgb(0,0,0)" stroke-width="2" />
<polygon points="765 357 743 386 721 357" fill="rgb(0,0,0)" stroke="rgb(0,0,0)" stroke-width="2" />
<polyline points="764.95 357.13 721.00 357.16" fill="none" stroke="rgb(0,0,0)" stroke-width="2" />
<path fill="rgb(255,255,255)" stroke="rgb(0,0,0)" stroke-width="2" d=" M 783 306 L 783 146 983 146 983 306 783 306 Z" />
<polyline points="823.00 306.00 823.00 346.00" fill="none" stroke="rgb(0,0,0)" stroke-width="2" />
<path fill="rgb(0,0,0)" stroke="rgb(0,0,0)" stroke-width="0" d=" M 824.41 287.45 L 822.41 287.45 822.41 280.95 828.39 280.95 828.87 281.58 829.30 282.22 829.67 282.86 830.00 283.51 830.28 284.17 830.51 284.83 830.68 285.50 830.81 286.18 830.89 286.87 830.91 287.56 830.87 288.48 830.75 289.37 830.55 290.23 830.27 291.04 829.91 291.83 829.47 292.56 828.96 293.21 828.37 293.79 827.72 294.30 826.99 294.72 826.21 295.08 825.40 295.35 824.55 295.54 823.66 295.66 822.74 295.70 821.82 295.66 820.92 295.54 820.05 295.34 819.21 295.07 818.39 294.72 817.62 294.29 816.94 293.80 816.34 293.24 815.83 292.61 815.39 291.91 815.04 291.16 814.76 290.36 814.57 289.52 814.45 288.63 814.41 287.70 814.43 287.02 814.50 286.37 814.62 285.75 814.77 285.15 814.98 284.57 815.22 284.04 815.51 283.55 815.82 283.11 816.17 282.72 816.56 282.38 816.99 282.08 817.47 281.81 818.00 281.57 818.58 281.36 819.21 281.18 819.73 283.02 819.27 283.17 818.86 283.34 818.49 283.52 818.17 283.72 817.88 283.93 817.62 284.17 817.39 284.44 817.17 284.75 816.98 285.10 816.81 285.49 816.67 285.90 816.56 286.33 816.48 286.78 816.43 287.25 816.41 287.73 816.43 288.31 816.48 288.85 816.57 289.37 816.69 289.85 816.84 290.29 817.03 290.71 817.23 291.09 817.46 291.44 817.71 291.76 817.98 292.04 818.26 292.29 818.56 292.52 818.87 292.73 819.19 292.91 819.52 293.07 820.11 293.30 820.71 293.47 821.34 293.60 821.99 293.67 822.66 293.70 823.46 293.67 824.21 293.58 824.91 293.43 825.55 293.22 826.14 292.95 826.68 292.62 827.15 292.24 827.57 291.80 827.93 291.31 828.23 290.77 828.47 290.18 828.67 289.59 828.80 288.98 828.88 288.36 828.91 287.72 828.89 287.16 828.83 286.61 828.73 286.06 828.58 285.52 828.40 284.98 828.19 284.47 827.98 284.01 827.76 283.61 827.53 283.26 827.30 282.95 824.41 282.95 Z M 830.66 277.71 L 814.66 277.69 814.66 275.55 827.34 267.20 814.66 267.19 814.66 265.19 830.66 265.21 830.66 267.35 817.98 275.70 830.66 275.71 Z M 830.66 261.71 L 814.66 261.69 814.66 256.17 814.67 255.46 814.70 254.82 814.74 254.25 814.81 253.75 814.89 253.32 815.04 252.78 815.23 252.28 815.46 251.81 815.73 251.37 816.04 250.96 816.49 250.48 816.99 250.05 817.53 249.68 818.13 249.35 818.77 249.07 819.46 248.85 820.18 248.67 820.94 248.55 821.74 248.47 822.58 248.45 823.29 248.47 823.97 248.52 824.61 248.60 825.22 248.72 825.80 248.88 826.35 249.06 826.85 249.26 827.32 249.48 827.75 249.72 828.13 249.97 828.49 250.25 828.81 250.53 829.10 250.82 829.36 251.13 829.58 251.44 829.79 251.77 829.97 252.12 830.13 252.51 830.27 252.92 830.39 253.35 830.49 253.81 830.56 254.30 830.62 254.81 830.65 255.35 830.66 255.92 Z M 828.66 259.70 L 828.66 256.16 828.65 255.54 828.61 254.96 828.56 254.45 828.48 253.99 828.37 253.59 828.25 253.23 828.10 252.90 827.94 252.61 827.76 252.34 827.56 252.11 827.24 251.81 826.88 251.54 826.49 251.29 826.05 251.08 825.57 250.89 825.05 250.73 824.49 250.61 823.88 250.52 823.23 250.47 822.54 250.45 821.60 250.48 820.75 250.58 820.00 250.75 819.33 250.99 818.75 251.30 818.26 251.65 817.84 252.04 817.48 252.45 817.20 252.90 816.98 253.37 816.87 253.77 816.78 254.25 816.71 254.82 816.67 255.47 816.66 256.21 816.66 259.69 Z" />
<polyline points="863.00 306.00 863.00 346.00" fill="none" stroke="rgb(0,0,0)" stroke-width="2" />
<path fill="rgb(0,0,0)" stroke="rgb(0,0,0)" stroke-width="0" d=" M 870.66 294.71 L 854.66 294.69 854.66 292.69 870.66 292.71 Z M 870.66 288.71 L 854.66 288.69 854.66 277.94 856.66 277.94 856.66 286.69 861.41 286.70 861.41 279.20 863.41 279.20 863.41 286.70 870.66 286.71 Z" />
<polyline points="903.00 306.00 903.00 346.00" fill="none" stroke="rgb(0,0,0)" stroke-width="2" />
<path fill="rgb(0,0,0)" stroke="rgb(0,0,0)" stroke-width="0" d=" M 904.41 287.45 L 902.41 287.45 902.41 280.95 908.39 280.95 908.87 281.58 909.30 282.22 909.67 282.86 910.00 283.51 910.28 284.17 910.51 284.83 910.68 285.50 910.81 286.18 910.89 286.87 910.91 287.56 910.87 288.48 910.75 289.37 910.55 290.23 910.27 291.04 909.91 291.83 909.47 292.56 908.96 293.21 908.37 293.79 907.72 294.30 906.99 294.72 906.21 295.08 905.40 295.35 904.55 295.54 903.66 295.66 902.74 295.70 901.82 295.66 900.92 295.54 900.05 295.34 899.21 295.07 898.39 294.72 897.62 294.29 896.94 293.80 896.34 293.24 895.83 292.61 895.39 291.91 895.04 291.16 894.76 290.36 894.57 289.52 894.45 288.63 894.41 287.70 894.43 287.02 894.50 286.37 894.62 285.75 894.77 285.15 894.98 284.57 895.22 284.04 895.51 283.55 895.82 283.11 896.17 282.72 896.56 282.38 896.99 282.08 897.47 281.81 898.00 281.57 898.58 281.36 899.21 281.18 899.73 283.02 899.27 283.17 898.86 283.34 898.49 283.52 898.17 283.72 897.88 283.93 897.62 284.17 897.39 284.44 897.17 284.75 896.98 285.10 896.81 285.49 896.67 285.90 896.56 286.33 896.48 286.78 896.43 287.25 896.41 287.73 896.43 288.31 896.48 288.85 896.57 289.37 896.69 289.85 896.84 290.29 897.03 290.71 897.23 291.09 897.46 291.44 897.71 291.76 897.98 292.04 898.26 292.29 898.56 292.52 898.87 292.73 899.19 292.91 899.52 293.07 900.11 293.30 900.71 293.47 901.34 293.60 901.99 293.67 902.66 293.70 903.46 293.67 904.21 293.58 904.91 293.43 905.55 293.22 906.14 292.95 906.68 292.62 907.15 292.24 907.57 291.80 907.93 291.31 908.23 290.77 908.47 290.18 908.67 289.59 908.80 288.98 908.88 288.36 908.91 287.72 908.89 287.16 908.83 286.61 908.73 286.06 908.58 285.52 908.40 284.98 908.19 284.47 907.98 284.01 907.76 283.61 907.53 283.26 907.30 282.95 904.41 282.95 Z M 910.66 277.71 L 894.66 277.69 894.66 275.55 907.34 267.20 894.66 267.19 894.66 265.19 910.66 265.21 910.66 267.35 897.98 275.70 910.66 275.71 Z M 910.66 261.71 L 894.66 261.69 894.66 256.17 894.67 255.46 894.70 254.82 894.74 254.25 894.81 253.75 894.89 253.32 895.04 252.78 895.23 252.28 895.46 251.81 895.73 251.37 896.04 250.96 896.49 250.48 896.99 250.05 897.53 249.68 898.13 249.35 898.77 249.07 899.46 248.85 900.18 248.67 900.94 248.55 901.74 248.47 902.58 248.45 903.29 248.47 903.97 248.52 904.61 248.60 905.22 248.72 905.80 248.88 906.35 249.06 906.85 249.26 907.32 249.48 907.75 249.72 908.13 249.97 908.49 250.25 908.81 250.53 909.10 250.82 909.36 251.13 909.58 251.44 909.79 251.77 909.97 252.12 910.13 252.51 910.27 252.92 910.39 253.35 910.49 253.81 910.56 254.30 910.62 254.81 910.65 255.35 910.66 255.92 Z M 908.66 259.70 L 908.66 256.16 908.65 255.54 908.61 254.96 908.56 254.45 908.48 253.99 908.37 253.59 908.25 253.23 908.10 252.90 907.94 252.61 907.76 252.34 907.56 252.11 907.24 251.81 906.88 251.54 906.49 251.29 906.05 251.08 905.57 250.89 905.05 250.73 904.49 250.61 903.88 250.52 903.23 250.47 902.54 250.45 901.60 250.48 900.75 250.58 900.00 250.75 899.33 250.99 898.75 251.30 898.26 251.65 897.84 252.04 897.48 252.45 897.20 252.90 896.98 253.37 896.87 253.77 896.78 254.25 896.71 254.82 896.67 255.47 896.66 256.21 896.66 259.69 Z" />
<polyline points="943.00 306.00 943.00 346.00" fill="none" stroke="rgb(0,0,0)" stroke-width="2" />
<path fill="rgb(0,0,0)" stroke="rgb(0,0,0)" stroke-width="0" d=" M 950.66 294.96 L 934.66 294.94 934.66 288.05 934.68 287.25 934.73 286.52 934.82 285.88 934.94 285.32 935.09 284.85 935.29 284.43 935.54 284.04 935.85 283.69 936.21 283.38 936.62 283.10 937.07 282.86 937.53 282.68 938.02 282.55 938.52 282.47 939.04 282.45 939.70 282.49 940.32 282.62 940.90 282.84 941.43 283.14 941.92 283.53 942.36 284.01 942.72 284.59 943.02 285.26 943.25 286.02 943.41 286.88 943.58 286.60 943.76 286.34 943.93 286.11 944.10 285.92 944.27 285.75 944.64 285.42 945.03 285.09 945.45 284.77 945.88 284.45 946.33 284.13 950.66 281.46 950.66 283.79 947.34 285.87 946.80 286.22 946.31 286.55 945.87 286.85 945.48 287.12 945.15 287.37 944.86 287.60 944.62 287.82 944.41 288.03 944.24 288.23 944.11 288.42 944.01 288.61 943.92 288.80 943.84 288.99 943.78 289.18 943.73 289.38 943.71 289.54 943.69 289.73 943.67 289.96 943.66 290.23 943.66 290.54 943.66 292.95 950.66 292.96 Z M 941.66 292.95 L 941.66 288.47 941.65 287.92 941.62 287.42 941.56 286.96 941.48 286.55 941.38 286.19 941.25 285.86 941.10 285.57 940.92 285.31 940.71 285.08 940.47 284.89 940.22 284.73 939.96 284.60 939.68 284.52 939.40 284.46 939.11 284.45 938.70 284.48 938.32 284.58 937.97 284.75 937.64 284.99 937.35 285.29 937.10 285.67 936.91 286.12 936.77 286.66 936.69 287.27 936.66 287.96 936.66 292.94 Z M 950.66 278.96 L 934.66 278.94 934.66 268.19 936.66 268.19 936.66 276.94 941.41 276.95 941.41 269.45 943.41 269.45 943.41 276.95 950.66 276.96 Z" />
<polyline points="823.00 106.00 823.00 146.00" fill="none" stroke="rgb(0,0,0)" stroke-width="2" />
<polyline points="863.00 106.00 863.00 146.00" fill="none" stroke="rgb(0,0,0)" stroke-width="2" />
<polyline points="903.00 106.00 903.00 146.00" fill="none" stroke="rgb(0,0,0)" stroke-width="2" />
<polyline points="943.00 106.00 943.00 146.00" fill="none" stroke="rgb(0,0,0)" stroke-width="2" />
<path fill="rgb(0,0,0)" stroke="rgb(0,0,0)" stroke-width="0" d=" M 944.41 194.45 L 942.41 194.45 942.41 187.95 948.39 187.95 948.87 188.58 949.30 189.22 949.67 189.86 950.00 190.51 950.28 191.17 950.51 191.83 950.68 192.50 950.81 193.18 950.89 193.87 950.91 194.56 950.87 195.48 950.75 196.37 950.55 197.23 950.27 198.04 949.91 198.83 949.47 199.56 948.96 200.21 948.37 200.79 947.72 201.30 946.99 201.72 946.21 202.08 945.40 202.35 944.55 202.54 943.66 202.66 942.74 202.70 941.82 202.66 940.92 202.54 940.05 202.34 939.21 202.07 938.39 201.72 937.62 201.29 936.94 200.80 936.34 200.24 935.83 199.61 935.39 198.91 935.04 198.16 934.76 197.36 934.57 196.52 934.45 195.63 934.41 194.70 934.43 194.02 934.50 193.37 934.62 192.75 934.77 192.15 934.98 191.57 935.22 191.04 935.51 190.55 935.82 190.11 936.17 189.72 936.56 189.38 936.99 189.08 937.47 188.81 938.00 188.57 938.58 188.36 939.21 188.18 939.73 190.02 939.27 190.17 938.86 190.34 938.49 190.52 938.17 190.72 937.88 190.93 937.62 191.17 937.39 191.44 937.17 191.75 936.98 192.10 936.81 192.49 936.67 192.90 936.56 193.33 936.48 193.78 936.43 194.25 936.41 194.73 936.43 195.31 936.48 195.85 936.57 196.37 936.69 196.85 936.84 197.29 937.03 197.71 937.23 198.09 937.46 198.44 937.71 198.76 937.98 199.04 938.26 199.29 938.56 199.52 938.87 199.73 939.19 199.91 939.52 200.07 940.11 200.30 940.71 200.47 941.34 200.60 941.99 200.67 942.66 200.70 943.46 200.67 944.21 200.58 944.91 200.43 945.55 200.22 946.14 199.95 946.68 199.62 947.15 199.24 947.57 198.80 947.93 198.31 948.23 197.77 948.47 197.18 948.67 196.59 948.80 195.98 948.88 195.36 948.91 194.72 948.89 194.16 948.83 193.61 948.73 193.06 948.58 192.52 948.40 191.98 948.19 191.47 947.98 191.01 947.76 190.61 947.53 190.26 947.30 189.95 944.41 189.95 Z M 950.66 184.71 L 934.66 184.69 934.66 182.55 947.34 174.20 934.66 174.19 934.66 172.19 950.66 172.21 950.66 174.35 937.98 182.70 950.66 182.71 Z M 950.66 168.71 L 934.66 168.69 934.66 163.17 934.67 162.46 934.70 161.82 934.74 161.25 934.81 160.75 934.89 160.32 935.04 159.78 935.23 159.28 935.46 158.81 935.73 158.37 936.04 157.96 936.49 157.48 936.99 157.05 937.53 156.68 938.13 156.35 938.77 156.07 939.46 155.85 940.18 155.67 940.94 155.55 941.74 155.47 942.58 155.45 943.29 155.47 943.97 155.52 944.61 155.60 945.22 155.72 945.80 155.88 946.35 156.06 946.85 156.26 947.32 156.48 947.75 156.72 948.13 156.97 948.49 157.25 948.81 157.53 949.10 157.82 949.36 158.13 949.58 158.44 949.79 158.77 949.97 159.12 950.13 159.51 950.27 159.92 950.39 160.35 950.49 160.81 950.56 161.30 950.62 161.81 950.65 162.35 950.66 162.92 Z M 948.66 166.70 L 948.66 163.16 948.65 162.54 948.61 161.96 948.56 161.45 948.48 160.99 948.37 160.59 948.25 160.23 948.10 159.90 947.94 159.61 947.76 159.34 947.56 159.11 947.24 158.81 946.88 158.54 946.49 158.29 946.05 158.08 945.57 157.89 945.05 157.73 944.49 157.61 943.88 157.52 943.23 157.47 942.54 157.45 941.60 157.48 940.75 157.58 940.00 157.75 939.33 157.99 938.75 158.30 938.26 158.65 937.84 159.04 937.48 159.45 937.20 159.90 936.98 160.37 936.87 160.77 936.78 161.25 936.71 161.82 936.67 162.47 936.66 163.21 936.66 166.69 Z" />
<path fill="rgb(0,0,0)" stroke="rgb(0,0,0)" stroke-width="0" d=" M 904.41 194.45 L 902.41 194.45 902.41 187.95 908.39 187.95 908.87 188.58 909.30 189.22 909.67 189.86 910.00 190.51 910.28 191.17 910.51 191.83 910.68 192.50 910.81 193.18 910.89 193.87 910.91 194.56 910.87 195.48 910.75 196.37 910.55 197.23 910.27 198.04 909.91 198.83 909.47 199.56 908.96 200.21 908.37 200.79 907.72 201.30 906.99 201.72 906.21 202.08 905.40 202.35 904.55 202.54 903.66 202.66 902.74 202.70 901.82 202.66 900.92 202.54 900.05 202.34 899.21 202.07 898.39 201.72 897.62 201.29 896.94 200.80 896.34 200.24 895.83 199.61 895.39 198.91 895.04 198.16 894.76 197.36 894.57 196.52 894.45 195.63 894.41 194.70 894.43 194.02 894.50 193.37 894.62 192.75 894.77 192.15 894.98 191.57 895.22 191.04 895.51 190.55 895.82 190.11 896.17 189.72 896.56 189.38 896.99 189.08 897.47 188.81 898.00 188.57 898.58 188.36 899.21 188.18 899.73 190.02 899.27 190.17 898.86 190.34 898.49 190.52 898.17 190.72 897.88 190.93 897.62 191.17 897.39 191.44 897.17 191.75 896.98 192.10 896.81 192.49 896.67 192.90 896.56 193.33 896.48 193.78 896.43 194.25 896.41 194.73 896.43 195.31 896.48 195.85 896.57 196.37 896.69 196.85 896.84 197.29 897.03 197.71 897.23 198.09 897.46 198.44 897.71 198.76 897.98 199.04 898.26 199.29 898.56 199.52 898.87 199.73 899.19 199.91 899.52 200.07 900.11 200.30 900.71 200.47 901.34 200.60 901.99 200.67 902.66 200.70 903.46 200.67 904.21 200.58 904.91 200.43 905.55 200.22 906.14 199.95 906.68 199.62 907.15 199.24 907.57 198.80 907.93 198.31 908.23 197.77 908.47 197.18 908.67 196.59 908.80 195.98 908.88 195.36 908.91 194.72 908.89 194.16 908.83 193.61 908.73 193.06 908.58 192.52 908.40 191.98 908.19 191.47 907.98 191.01 907.76 190.61 907.53 190.26 907.30 189.95 904.41 189.95 Z M 910.66 184.71 L 894.66 184.69 894.66 182.55 907.34 174.20 894.66 174.19 894.66 172.19 910.66 172.21 910.66 174.35 897.98 182.70 910.66 182.71 Z M 910.66 168.71 L 894.66 168.69 894.66 163.17 894.67 162.46 894.70 161.82 894.74 161.25 894.81 160.75 894.89 160.32 895.04 159.78 895.23 159.28 895.46 158.81 895.73 158.37 896.04 157.96 896.49 157.48 896.99 157.05 897.53 156.68 898.13 156.35 898.77 156.07 899.46 155.85 900.18 155.67 900.94 155.55 901.74 155.47 902.58 155.45 903.29 155.47 903.97 155.52 904.61 155.60 905.22 155.72 905.80 155.88 906.35 156.06 906.85 156.26 907.32 156.48 907.75 156.72 908.13 156.97 908.49 157.25 908.81 157.53 909.10 157.82 909.36 158.13 909.58 158.44 909.79 158.77 909.97 159.12 910.13 159.51 910.27 159.92 910.39 160.35 910.49 160.81 910.56 161.30 910.62 161.81 910.65 162.35 910.66 162.92 Z M 908.66 166.70 L 908.66 163.16 908.65 162.54 908.61 161.96 908.56 161.45 908.48 160.99 908.37 160.59 908.25 160.23 908.10 159.90 907.94 159.61 907.76 159.34 907.56 159.11 907.24 158.81 906.88 158.54 906.49 158.29 906.05 158.08 905.57 157.89 905.05 157.73 904.49 157.61 903.88 157.52 903.23 157.47 902.54 157.45 901.60 157.48 900.75 157.58 900.00 157.75 899.33 157.99 898.75 158.30 898.26 158.65 897.84 159.04 897.48 159.45 897.20 159.90 896.98 160.37 896.87 160.77 896.78 161.25 896.71 161.82 896.67 162.47 896.66 163.21 896.66 166.69 Z" />
<path fill="rgb(0,0,0)" stroke="rgb(0,0,0)" stroke-width="0" d=" M 864.41 194.45 L 862.41 194.45 862.41 187.95 868.39 187.95 868.87 188.58 869.30 189.22 869.67 189.86 870.00 190.51 870.28 191.17 870.51 191.83 870.68 192.50 870.81 193.18 870.89 193.87 870.91 194.56 870.87 195.48 870.75 196.37 870.55 197.23 870.27 198.04 869.91 198.83 869.47 199.56 868.96 200.21 868.37 200.79 867.72 201.30 866.99 201.72 866.21 202.08 865.40 202.35 864.55 202.54 863.66 202.66 862.74 202.70 861.82 202.66 860.92 202.54 860.05 202.34 859.21 202.07 858.39 201.72 857.62 201.29 856.94 200.80 856.34 200.24 855.83 199.61 855.39 198.91 855.04 198.16 854.76 197.36 854.57 196.52 854.45 195.63 854.41 194.70 854.43 194.02 854.50 193.37 854.62 192.75 854.77 192.15 854.98 191.57 855.22 191.04 855.51 190.55 855.82 190.11 856.17 189.72 856.56 189.38 856.99 189.08 857.47 188.81 858.00 188.57 858.58 188.36 859.21 188.18 859.73 190.02 859.27 190.17 858.86 190.34 858.49 190.52 858.17 190.72 857.88 190.93 857.62 191.17 857.39 191.44 857.17 191.75 856.98 192.10 856.81 192.49 856.67 192.90 856.56 193.33 856.48 193.78 856.43 194.25 856.41 194.73 856.43 195.31 856.48 195.85 856.57 196.37 856.69 196.85 856.84 197.29 857.03 197.71 857.23 198.09 857.46 198.44 857.71 198.76 857.98 199.04 858.26 199.29 858.56 199.52 858.87 199.73 859.19 199.91 859.52 200.07 860.11 200.30 860.71 200.47 861.34 200.60 861.99 200.67 862.66 200.70 863.46 200.67 864.21 200.58 864.91 200.43 865.55 200.22 866.14 199.95 866.68 199.62 867.15 199.24 867.57 198.80 867.93 198.31 868.23 197.77 868.47 197.18 868.67 196.59 868.80 195.98 868.88 195.36 868.91 194.72 868.89 194.16 868.83 193.61 868.73 193.06 868.58 192.52 868.40 191.98 868.19 191.47 867.98 191.01 867.76 190.61 867.53 190.26 867.30 189.95 864.41 189.95 Z M 870.66 184.71 L 854.66 184.69 854.66 182.55 867.34 174.20 854.66 174.19 854.66 172.19 870.66 172.21 870.66 174.35 857.98 182.70 870.66 182.71 Z M 870.66 168.71 L 854.66 168.69 854.66 163.17 854.67 162.46 854.70 161.82 854.74 161.25 854.81 160.75 854.89 160.32 855.04 159.78 855.23 159.28 855.46 158.81 855.73 158.37 856.04 157.96 856.49 157.48 856.99 157.05 857.53 156.68 858.13 156.35 858.77 156.07 859.46 155.85 860.18 155.67 860.94 155.55 861.74 155.47 862.58 155.45 863.29 155.47 863.97 155.52 864.61 155.60 865.22 155.72 865.80 155.88 866.35 156.06 866.85 156.26 867.32 156.48 867.75 156.72 868.13 156.97 868.49 157.25 868.81 157.53 869.10 157.82 869.36 158.13 869.58 158.44 869.79 158.77 869.97 159.12 870.13 159.51 870.27 159.92 870.39 160.35 870.49 160.81 870.56 161.30 870.62 161.81 870.65 162.35 870.66 162.92 Z M 868.66 166.70 L 868.66 163.16 868.65 162.54 868.61 161.96 868.56 161.45 868.48 160.99 868.37 160.59 868.25 160.23 868.10 159.90 867.94 159.61 867.76 159.34 867.56 159.11 867.24 158.81 866.88 158.54 866.49 158.29 866.05 158.08 865.57 157.89 865.05 157.73 864.49 157.61 863.88 157.52 863.23 157.47 862.54 157.45 861.60 157.48 860.75 157.58 860.00 157.75 859.33 157.99 858.75 158.30 858.26 158.65 857.84 159.04 857.48 159.45 857.20 159.90 856.98 160.37 856.87 160.77 856.78 161.25 856.71 161.82 856.67 162.47 856.66 163.21 856.66 166.69 Z" />
<path fill="rgb(0,0,0)" stroke="rgb(0,0,0)" stroke-width="0" d=" M 830.66 182.21 L 814.66 182.19 814.66 180.19 828.66 180.20 828.66 172.20 830.66 172.21 Z M 822.87 170.70 L 821.35 170.61 819.97 170.36 818.73 169.93 817.62 169.33 816.66 168.56 815.85 167.66 815.22 166.65 814.77 165.55 814.50 164.35 814.41 163.05 814.45 162.19 814.58 161.36 814.79 160.56 815.09 159.80 815.47 159.07 815.92 158.40 816.44 157.79 817.03 157.25 817.69 156.78 818.41 156.37 819.18 156.04 820.00 155.78 820.85 155.60 821.75 155.48 822.69 155.45 823.64 155.49 824.55 155.61 825.42 155.81 826.24 156.08 827.03 156.43 827.76 156.86 828.41 157.35 828.99 157.90 829.50 158.52 829.93 159.21 830.28 159.94 830.56 160.69 830.75 161.46 830.87 162.26 830.91 163.08 830.87 163.96 830.74 164.81 830.52 165.61 830.21 166.38 829.82 167.10 829.36 167.78 828.83 168.38 828.23 168.92 827.58 169.39 826.85 169.79 826.09 170.12 825.31 170.37 824.52 170.55 823.70 170.66 822.87 170.70 Z M 822.89 168.70 L 823.96 168.64 824.94 168.45 825.82 168.13 826.61 167.68 827.30 167.11 827.88 166.43 828.33 165.70 828.65 164.89 828.85 164.03 828.91 163.09 828.85 162.14 828.65 161.26 828.33 160.45 827.87 159.71 827.29 159.04 826.58 158.47 825.77 158.02 824.85 157.71 823.81 157.51 822.67 157.45 821.94 157.48 821.24 157.56 820.58 157.69 819.96 157.88 819.37 158.12 818.83 158.42 818.35 158.77 817.91 159.17 817.52 159.61 817.19 160.11 816.91 160.64 816.69 161.21 816.54 161.79 816.44 162.40 816.41 163.04 816.47 163.94 816.65 164.79 816.95 165.59 817.37 166.33 817.91 167.03 818.58 167.63 819.42 168.09 820.42 168.43 821.57 168.63 822.89 168.70 Z" />
<path fill="rgb(0,0,0)" stroke="rgb(0,0,0)" stroke-width="0" d=" M 819.00 319.20 L 819.00 320.80 809.03 320.79 809.24 321.04 809.46 321.31 809.67 321.61 809.89 321.95 810.10 322.31 810.31 322.67 810.49 323.03 810.65 323.36 810.79 323.68 810.91 323.99 809.40 323.99 809.14 323.47 808.86 322.97 808.56 322.50 808.24 322.06 807.90 321.64 807.55 321.26 807.21 320.93 806.87 320.65 806.53 320.41 806.20 320.22 806.20 319.19 Z" />
<path fill="rgb(0,0,0)" stroke="rgb(0,0,0)" stroke-width="0" d=" M 857.40 317.00 L 859.00 317.00 859.00 325.40 858.77 325.40 858.55 325.38 858.33 325.35 858.11 325.30 857.90 325.23 857.55 325.09 857.21 324.93 856.87 324.73 856.53 324.51 856.20 324.25 855.86 323.96 855.51 323.61 855.14 323.21 854.75 322.76 854.34 322.25 853.68 321.47 853.08 320.81 852.55 320.26 852.08 319.82 851.68 319.48 851.31 319.23 850.94 319.04 850.58 318.90 850.22 318.82 849.87 318.79 849.53 318.82 849.21 318.89 848.92 319.02 848.65 319.21 848.40 319.44 848.18 319.72 848.02 320.02 847.90 320.36 847.82 320.74 847.80 321.14 847.82 321.57 847.89 321.96 848.01 322.31 848.17 322.63 848.38 322.92 848.64 323.16 848.92 323.34 849.25 323.48 849.61 323.56 850.00 323.59 849.80 325.19 849.13 325.09 848.53 324.91 847.99 324.67 847.52 324.35 847.12 323.96 846.79 323.51 846.53 322.99 846.35 322.42 846.24 321.79 846.20 321.11 846.24 320.41 846.36 319.78 846.57 319.21 846.86 318.69 847.22 318.24 847.65 317.86 848.12 317.57 848.63 317.36 849.18 317.23 849.77 317.19 850.08 317.20 850.38 317.24 850.69 317.29 850.99 317.37 851.29 317.48 851.59 317.61 851.89 317.77 852.21 317.95 852.53 318.17 852.85 318.42 853.21 318.73 853.60 319.11 854.04 319.57 854.52 320.10 855.05 320.72 855.47 321.24 855.84 321.69 856.15 322.05 856.39 322.35 856.59 322.56 856.75 322.73 856.91 322.88 857.07 323.03 857.24 323.16 857.40 323.28 Z" />
<path fill="rgb(0,0,0)" stroke="rgb(0,0,0)" stroke-width="0" d=" M 895.60 325.20 L 895.40 323.60 895.84 323.47 896.23 323.32 896.57 323.15 896.85 322.94 897.08 322.72 897.27 322.46 897.41 322.16 897.52 321.83 897.58 321.47 897.60 321.07 897.57 320.60 897.49 320.17 897.34 319.78 897.15 319.43 896.89 319.12 896.59 318.86 896.27 318.66 895.92 318.51 895.54 318.43 895.13 318.40 894.75 318.42 894.39 318.51 894.06 318.65 893.76 318.85 893.48 319.11 893.24 319.41 893.06 319.74 892.93 320.11 892.85 320.50 892.83 320.93 892.83 321.12 892.85 321.32 892.89 321.55 892.94 321.79 893.00 322.05 891.40 321.87 891.41 321.81 891.41 321.75 891.42 321.70 891.42 321.65 891.42 321.61 891.40 321.22 891.35 320.84 891.25 320.47 891.12 320.13 890.96 319.80 890.76 319.51 890.51 319.28 890.23 319.12 889.91 319.02 889.55 318.99 889.25 319.01 888.98 319.08 888.73 319.20 888.50 319.36 888.30 319.57 888.12 319.82 887.98 320.09 887.88 320.39 887.82 320.72 887.80 321.08 887.82 321.43 887.88 321.76 887.98 322.07 888.12 322.35 888.30 322.60 888.52 322.83 888.78 323.02 889.08 323.18 889.42 323.30 889.80 323.39 889.60 324.99 888.98 324.85 888.42 324.64 887.92 324.38 887.48 324.06 887.09 323.68 886.77 323.25 886.52 322.78 886.34 322.27 886.24 321.72 886.20 321.13 886.22 320.72 886.27 320.32 886.36 319.94 886.48 319.56 886.64 319.20 886.83 318.87 887.04 318.57 887.28 318.30 887.55 318.06 887.84 317.85 888.15 317.69 888.46 317.56 888.79 317.46 889.12 317.41 889.45 317.39 889.77 317.41 890.08 317.46 890.37 317.55 890.66 317.68 890.93 317.84 891.18 318.03 891.42 318.26 891.63 318.52 891.82 318.82 891.99 319.15 892.12 318.72 892.29 318.33 892.51 317.98 892.77 317.67 893.08 317.41 893.43 317.19 893.81 317.01 894.23 316.89 894.68 316.82 895.16 316.80 895.82 316.85 896.43 316.99 897.00 317.24 897.53 317.58 898.03 318.02 898.45 318.54 898.78 319.11 899.01 319.73 899.15 320.40 899.20 321.12 899.16 321.78 899.04 322.38 898.84 322.94 898.56 323.46 898.20 323.93 897.77 324.33 897.30 324.66 896.78 324.92 896.21 325.10 895.60 325.20 Z" />
<path fill="rgb(0,0,0)" stroke="rgb(0,0,0)" stroke-width="0" d=" M 939.00 320.00 L 936.00 320.00 936.00 325.80 934.40 325.79 926.40 319.59 926.40 318.39 934.40 318.39 934.40 316.79 936.00 316.80 936.00 318.40 939.00 318.40 Z M 934.40 319.99 L 929.46 319.99 934.40 323.83 Z" />
<path fill="rgb(0,0,0)" stroke="rgb(0,0,0)" stroke-width="0" d=" M 935.60 135.20 L 935.40 133.60 935.82 133.51 936.19 133.38 936.52 133.22 936.81 133.02 937.05 132.79 937.25 132.53 937.40 132.23 937.51 131.89 937.58 131.52 937.60 131.12 937.57 130.63 937.48 130.18 937.32 129.78 937.11 129.42 936.83 129.11 936.51 128.86 936.14 128.66 935.73 128.51 935.28 128.43 934.80 128.40 934.34 128.42 933.92 128.50 933.54 128.64 933.20 128.82 932.90 129.06 932.65 129.36 932.45 129.71 932.31 130.12 932.23 130.58 932.20 131.09 932.21 131.42 932.24 131.72 932.30 132.00 932.38 132.26 932.48 132.50 932.60 132.71 932.73 132.91 932.87 133.09 933.03 133.25 933.20 133.39 933.00 134.99 926.40 133.59 926.40 127.39 928.00 127.39 928.00 132.29 931.53 132.98 931.19 132.53 930.93 132.07 930.75 131.60 930.64 131.13 930.60 130.64 930.65 130.01 930.78 129.42 931.01 128.88 931.33 128.37 931.75 127.91 932.23 127.51 932.77 127.19 933.36 126.97 934.00 126.84 934.70 126.80 935.36 126.84 936.00 126.96 936.59 127.16 937.15 127.44 937.67 127.80 938.22 128.33 938.65 128.92 938.95 129.59 939.14 130.32 939.20 131.13 939.16 131.80 939.04 132.41 938.85 132.98 938.57 133.49 938.21 133.95 937.79 134.35 937.32 134.67 936.80 134.92 936.23 135.10 935.60 135.20 Z" />
<path fill="rgb(0,0,0)" stroke="rgb(0,0,0)" stroke-width="0" d=" M 889.60 126.99 L 889.80 128.59 889.45 128.68 889.15 128.79 888.88 128.91 888.65 129.04 888.47 129.19 888.23 129.47 888.04 129.76 887.91 130.08 887.83 130.43 887.80 130.80 887.82 131.10 887.86 131.40 887.94 131.68 888.05 131.97 888.19 132.24 888.40 132.50 888.66 132.73 888.95 132.95 889.28 133.15 889.64 133.34 890.06 133.49 890.56 133.62 891.13 133.71 891.77 133.77 892.49 133.79 892.17 133.55 891.88 133.29 891.62 133.01 891.40 132.70 891.22 132.38 891.07 132.04 890.95 131.70 890.87 131.35 890.82 130.99 890.80 130.63 890.85 130.01 890.98 129.43 891.21 128.89 891.53 128.38 891.94 127.91 892.42 127.51 892.96 127.20 893.55 126.97 894.19 126.84 894.89 126.80 895.36 126.82 895.81 126.88 896.25 126.99 896.68 127.14 897.10 127.33 897.48 127.55 897.84 127.81 898.15 128.10 898.42 128.43 898.66 128.78 898.85 129.16 899.00 129.56 899.11 129.98 899.18 130.42 899.20 130.88 899.14 131.65 898.97 132.36 898.68 133.01 898.28 133.60 897.76 134.14 897.11 134.59 896.31 134.94 895.37 135.19 894.27 135.34 893.03 135.39 891.63 135.34 890.40 135.17 889.32 134.89 888.41 134.49 887.66 133.99 887.13 133.46 886.73 132.87 886.43 132.22 886.26 131.49 886.20 130.70 886.24 130.10 886.34 129.55 886.53 129.05 886.78 128.59 887.10 128.17 887.49 127.81 887.94 127.51 888.44 127.27 888.99 127.10 889.60 126.99 Z M 894.86 133.80 L 895.15 133.78 895.43 133.74 895.71 133.66 895.98 133.56 896.25 133.43 896.50 133.27 896.73 133.09 896.93 132.90 897.10 132.68 897.25 132.44 897.38 132.19 897.48 131.92 897.54 131.63 897.59 131.33 897.60 131.00 897.57 130.55 897.49 130.14 897.34 129.76 897.14 129.42 896.88 129.12 896.58 128.86 896.23 128.66 895.84 128.51 895.41 128.43 894.94 128.40 894.49 128.42 894.08 128.51 893.70 128.65 893.37 128.85 893.08 129.10 892.84 129.41 892.64 129.76 892.51 130.15 892.43 130.58 892.40 131.06 892.43 131.51 892.51 131.92 892.64 132.31 892.84 132.67 893.08 133.00 893.37 133.28 893.69 133.51 894.05 133.67 894.44 133.76 894.86 133.80 Z" />
<path fill="rgb(0,0,0)" stroke="rgb(0,0,0)" stroke-width="0" d=" M 848.00 135.19 L 846.40 135.19 846.40 126.79 847.69 126.79 848.25 127.27 848.87 127.75 849.56 128.23 850.32 128.70 851.14 129.18 851.99 129.63 852.86 130.03 853.74 130.40 854.63 130.72 855.52 131.00 856.17 131.18 856.84 131.32 857.54 131.44 858.26 131.53 859.00 131.60 859.00 133.20 858.38 133.16 857.71 133.08 856.98 132.95 856.21 132.78 855.39 132.56 854.55 132.29 853.72 131.99 852.91 131.64 852.10 131.25 851.31 130.81 850.55 130.35 849.84 129.88 849.18 129.39 848.56 128.90 848.00 128.39 Z" />
<path fill="rgb(0,0,0)" stroke="rgb(0,0,0)" stroke-width="0" d=" M 811.95 132.86 L 811.80 133.24 811.62 133.57 811.43 133.86 811.20 134.11 810.96 134.32 810.69 134.49 810.40 134.62 810.09 134.72 809.76 134.77 809.41 134.79 808.88 134.75 808.39 134.62 807.93 134.42 807.51 134.13 807.12 133.76 806.79 133.32 806.53 132.82 806.35 132.27 806.24 131.67 806.20 131.01 806.24 130.35 806.35 129.74 806.54 129.19 806.81 128.68 807.15 128.24 807.54 127.86 807.97 127.57 808.43 127.36 808.93 127.23 809.45 127.19 809.79 127.21 810.11 127.27 810.41 127.36 810.70 127.49 810.96 127.66 811.21 127.87 811.43 128.11 811.63 128.40 811.80 128.72 811.95 129.08 812.12 128.65 812.34 128.27 812.59 127.93 812.88 127.63 813.20 127.38 813.57 127.17 813.95 127.00 814.37 126.89 814.81 126.82 815.28 126.80 815.92 126.84 816.52 126.98 817.08 127.21 817.59 127.54 818.07 127.95 818.48 128.45 818.79 129.00 819.02 129.61 819.15 130.27 819.20 131.00 819.15 131.73 819.02 132.39 818.79 133.00 818.47 133.55 818.06 134.04 817.59 134.46 817.07 134.78 816.50 135.01 815.89 135.15 815.23 135.20 814.74 135.17 814.28 135.10 813.86 134.98 813.47 134.81 813.11 134.59 812.79 134.32 812.52 134.02 812.28 133.68 812.10 133.29 811.95 132.86 Z M 809.46 133.19 L 809.75 133.17 810.03 133.10 810.28 132.99 810.51 132.83 810.71 132.62 810.89 132.38 811.02 132.09 811.12 131.76 811.18 131.39 811.20 130.97 811.18 130.57 811.12 130.21 811.03 129.88 810.89 129.60 810.72 129.35 810.51 129.15 810.29 128.99 810.06 128.88 809.80 128.81 809.53 128.79 809.24 128.81 808.98 128.88 808.73 129.00 808.51 129.16 808.30 129.37 808.12 129.62 807.98 129.91 807.88 130.23 807.82 130.59 807.80 130.99 807.82 131.39 807.88 131.75 807.98 132.08 808.11 132.36 808.29 132.61 808.49 132.82 808.71 132.98 808.94 133.10 809.19 133.17 809.46 133.19 Z M 815.17 133.60 L 815.42 133.59 815.67 133.55 815.91 133.50 816.15 133.43 816.38 133.33 816.60 133.21 816.80 133.05 816.98 132.86 817.14 132.64 817.28 132.39 817.40 132.11 817.49 131.84 817.55 131.56 817.59 131.27 817.60 130.99 817.57 130.52 817.49 130.09 817.36 129.71 817.17 129.37 816.93 129.08 816.65 128.83 816.34 128.64 815.99 128.51 815.62 128.42 815.22 128.40 814.82 128.42 814.44 128.51 814.10 128.65 813.78 128.84 813.49 129.10 813.24 129.40 813.05 129.74 812.91 130.13 812.83 130.56 812.80 131.03 812.83 131.50 812.91 131.91 813.04 132.29 813.23 132.63 813.48 132.92 813.76 133.16 814.08 133.35 814.41 133.49 814.78 133.57 815.17 133.60 Z" />
<path fill="rgb(0,0,0)" stroke="rgb(0,0,0)" stroke-width="0" d=" M 993.81 225.00 L 995.73 225.00 995.80 225.45 995.90 225.87 996.02 226.25 996.17 226.61 996.35 226.92 996.57 227.21 996.83 227.48 997.13 227.72 997.47 227.94 997.86 228.14 998.28 228.30 998.72 228.43 999.18 228.53 999.66 228.58 1000.16 228.60 1000.61 228.59 1001.03 228.55 1001.43 228.48 1001.81 228.38 1002.17 228.25 1002.50 228.10 1002.80 227.93 1003.06 227.74 1003.28 227.52 1003.47 227.29 1003.62 227.04 1003.74 226.79 1003.82 226.53 1003.88 226.27 1003.89 226.00 1003.88 225.73 1003.84 225.48 1003.78 225.24 1003.69 225.01 1003.58 224.80 1003.42 224.60 1003.22 224.42 1002.95 224.24 1002.64 224.08 1002.27 223.93 1001.96 223.82 1001.52 223.70 1000.96 223.55 1000.28 223.38 999.48 223.20 998.66 223.00 997.96 222.81 997.35 222.62 996.86 222.43 996.47 222.25 996.05 222.01 995.68 221.74 995.36 221.46 995.07 221.15 994.84 220.82 994.64 220.47 994.49 220.11 994.39 219.72 994.32 219.33 994.30 218.91 994.33 218.45 994.41 218.01 994.54 217.57 994.73 217.15 994.97 216.74 995.26 216.35 995.60 216.01 995.99 215.70 996.43 215.43 996.91 215.20 997.44 215.02 997.98 214.87 998.55 214.76 999.15 214.70 999.76 214.68 1000.43 214.70 1001.07 214.77 1001.68 214.88 1002.26 215.03 1002.80 215.23 1003.30 215.47 1003.75 215.75 1004.16 216.07 1004.51 216.43 1004.82 216.84 1005.08 217.27 1005.28 217.73 1005.43 218.21 1005.53 218.72 1005.58 219.24 1003.66 219.24 1003.57 218.74 1003.41 218.30 1003.19 217.90 1002.91 217.56 1002.57 217.27 1002.17 217.03 1001.69 216.84 1001.14 216.71 1000.53 216.63 999.84 216.60 999.12 216.63 998.49 216.71 997.94 216.84 997.47 217.02 997.08 217.26 996.77 217.54 996.53 217.83 996.36 218.15 996.26 218.49 996.22 218.85 996.24 219.17 996.32 219.46 996.44 219.72 996.61 219.97 996.83 220.19 997.15 220.40 997.62 220.61 998.25 220.82 999.03 221.04 999.96 221.26 1000.91 221.47 1001.72 221.68 1002.40 221.87 1002.95 222.05 1003.36 222.22 1003.84 222.48 1004.26 222.77 1004.63 223.08 1004.95 223.42 1005.22 223.78 1005.43 224.17 1005.60 224.58 1005.72 225.01 1005.79 225.47 1005.81 225.95 1005.79 226.43 1005.70 226.90 1005.56 227.36 1005.37 227.81 1005.12 228.25 1004.82 228.66 1004.47 229.03 1004.08 229.37 1003.63 229.66 1003.14 229.92 1002.61 230.14 1002.06 230.31 1001.48 230.43 1000.87 230.50 1000.24 230.52 999.44 230.50 998.71 230.42 998.02 230.29 997.39 230.11 996.81 229.88 996.28 229.59 995.80 229.26 995.36 228.87 994.98 228.43 994.64 227.93 994.36 227.40 994.13 226.84 993.97 226.26 993.86 225.64 993.81 225.00 Z M 1008.93 230.28 L 1008.94 214.92 1010.86 214.92 1010.85 230.28 Z M 1014.69 230.28 L 1014.70 214.92 1018.01 214.92 1021.14 225.75 1021.30 226.32 1021.45 226.83 1021.58 227.29 1021.68 227.68 1021.77 228.01 1021.87 227.64 1021.99 227.22 1022.13 226.73 1022.28 226.18 1022.46 225.56 1025.56 214.92 1028.86 214.92 1028.85 230.28 1026.93 230.28 1026.94 216.84 1023.07 230.28 1020.47 230.28 1016.62 216.84 1016.61 230.28 Z M 1031.25 225.72 L 1031.26 223.80 1037.26 223.80 1037.25 225.72 Z M 1046.13 230.28 L 1044.21 230.28 1044.22 218.31 1043.93 218.57 1043.60 218.83 1043.23 219.09 1042.83 219.35 1042.40 219.61 1041.96 219.85 1041.54 220.07 1041.13 220.27 1040.75 220.43 1040.38 220.58 1040.38 218.76 1041.01 218.45 1041.60 218.12 1042.17 217.76 1042.70 217.37 1043.20 216.96 1043.65 216.55 1044.05 216.13 1044.39 215.72 1044.68 215.32 1044.91 214.92 1046.14 214.92 Z M 1056.93 230.28 L 1056.93 226.68 1049.97 226.68 1049.98 224.76 1057.42 215.16 1058.86 215.16 1058.86 224.76 1060.78 224.76 1060.77 226.68 1058.85 226.68 1058.85 230.28 Z M 1056.94 224.76 L 1056.94 218.83 1052.34 224.76 Z M 1063.17 230.28 L 1063.18 214.92 1065.10 214.92 1065.09 228.36 1072.77 228.36 1072.77 230.28 Z M 1074.93 230.28 L 1074.94 214.92 1076.86 214.92 1076.86 221.16 1085.02 221.16 1085.02 214.92 1086.94 214.92 1086.93 230.28 1085.01 230.28 1085.02 223.08 1076.86 223.08 1076.85 230.28 Z M 1093.89 227.88 L 1093.90 223.80 1089.82 223.80 1089.82 221.88 1093.90 221.88 1093.90 217.80 1095.82 217.80 1095.82 221.88 1099.90 221.88 1099.90 223.80 1095.82 223.80 1095.81 227.88 Z M 1112.37 234.60 L 1111.74 233.81 1111.16 232.96 1110.61 232.06 1110.11 231.10 1109.64 230.10 1109.24 229.06 1108.93 228.00 1108.71 226.93 1108.58 225.85 1108.54 224.75 1108.57 223.78 1108.67 222.83 1108.84 221.90 1109.07 220.98 1109.37 220.08 1109.81 219.05 1110.32 218.01 1110.93 216.98 1111.61 215.95 1112.38 214.92 1113.82 214.92 1113.32 215.72 1112.88 216.43 1112.52 217.04 1112.24 217.55 1112.02 217.96 1111.76 218.53 1111.52 219.11 1111.31 219.70 1111.11 220.30 1110.94 220.91 1110.77 221.68 1110.63 222.45 1110.53 223.22 1110.48 223.99 1110.46 224.76 1110.59 226.73 1110.99 228.70 1111.66 230.67 1112.60 232.63 1113.81 234.60 Z M 1115.26 224.64 L 1115.32 223.46 1115.52 222.40 1115.86 221.47 1116.32 220.68 1116.92 220.01 1117.50 219.56 1118.13 219.21 1118.81 218.96 1119.53 218.81 1120.30 218.76 1121.16 218.82 1121.95 219.00 1122.68 219.31 1123.34 219.73 1123.93 220.28 1124.44 220.94 1124.83 221.68 1125.11 222.52 1125.28 223.46 1125.34 224.48 1125.31 225.32 1125.23 226.07 1125.11 226.76 1124.93 227.36 1124.71 227.90 1124.44 228.38 1124.12 228.81 1123.76 229.19 1123.35 229.54 1122.89 229.83 1122.41 230.08 1121.91 230.27 1121.39 230.41 1120.85 230.49 1120.29 230.52 1119.42 230.46 1118.63 230.28 1117.90 229.98 1117.24 229.55 1116.64 229.01 1116.14 228.35 1115.75 227.58 1115.48 226.71 1115.31 225.73 1115.26 224.64 Z M 1117.18 224.64 L 1117.21 225.39 1117.32 226.07 1117.49 226.66 1117.74 227.18 1118.06 227.61 1118.43 227.97 1118.84 228.25 1119.29 228.44 1119.77 228.56 1120.29 228.60 1120.81 228.56 1121.29 228.44 1121.74 228.24 1122.15 227.97 1122.52 227.61 1122.84 227.17 1123.09 226.65 1123.27 226.04 1123.38 225.35 1123.42 224.58 1123.38 223.85 1123.27 223.19 1123.10 222.61 1122.85 222.10 1122.52 221.67 1122.15 221.31 1121.74 221.04 1121.30 220.84 1120.82 220.72 1120.30 220.68 1119.78 220.72 1119.30 220.84 1118.85 221.04 1118.44 221.31 1118.07 221.67 1117.75 222.10 1117.50 222.61 1117.32 223.21 1117.21 223.88 1117.18 224.64 Z M 1127.49 230.28 L 1127.50 219.00 1129.18 219.00 1129.18 220.67 1129.43 220.24 1129.68 219.86 1129.92 219.56 1130.15 219.31 1130.37 219.13 1130.60 219.00 1130.83 218.89 1131.07 218.82 1131.32 218.78 1131.57 218.76 1131.95 218.78 1132.34 218.86 1132.72 218.97 1133.11 219.14 1133.50 219.35 1132.86 221.07 1132.59 220.93 1132.32 220.82 1132.05 220.74 1131.78 220.70 1131.51 220.68 1131.27 220.70 1131.05 220.74 1130.83 220.82 1130.62 220.92 1130.42 221.06 1130.24 221.22 1130.08 221.41 1129.94 221.62 1129.82 221.85 1129.73 222.11 1129.62 222.53 1129.53 222.96 1129.47 223.41 1129.43 223.87 1129.42 224.35 1129.41 230.28 Z M 1140.21 225.00 L 1142.13 225.00 1142.20 225.45 1142.29 225.87 1142.42 226.25 1142.57 226.61 1142.75 226.92 1142.97 227.21 1143.23 227.48 1143.53 227.72 1143.87 227.94 1144.26 228.14 1144.68 228.30 1145.12 228.43 1145.58 228.53 1146.06 228.58 1146.56 228.60 1147.01 228.59 1147.43 228.55 1147.83 228.48 1148.21 228.38 1148.57 228.25 1148.90 228.10 1149.20 227.93 1149.46 227.74 1149.68 227.52 1149.87 227.29 1150.02 227.04 1150.14 226.79 1150.22 226.53 1150.28 226.27 1150.29 226.00 1150.28 225.73 1150.24 225.48 1150.18 225.24 1150.09 225.01 1149.98 224.80 1149.82 224.60 1149.62 224.42 1149.35 224.24 1149.04 224.08 1148.67 223.93 1148.36 223.82 1147.92 223.70 1147.36 223.55 1146.68 223.38 1145.88 223.20 1145.06 223.00 1144.36 222.81 1143.75 222.62 1143.26 222.43 1142.87 222.25 1142.45 222.01 1142.08 221.74 1141.76 221.46 1141.47 221.15 1141.24 220.82 1141.04 220.47 1140.89 220.11 1140.79 219.72 1140.72 219.33 1140.70 218.91 1140.73 218.45 1140.81 218.01 1140.94 217.57 1141.13 217.15 1141.37 216.74 1141.66 216.35 1142.00 216.01 1142.39 215.70 1142.83 215.43 1143.31 215.20 1143.84 215.02 1144.38 214.87 1144.95 214.76 1145.54 214.70 1146.16 214.68 1146.83 214.70 1147.47 214.77 1148.08 214.88 1148.66 215.03 1149.20 215.23 1149.70 215.47 1150.15 215.75 1150.56 216.07 1150.91 216.43 1151.22 216.84 1151.48 217.27 1151.68 217.73 1151.83 218.21 1151.93 218.72 1151.98 219.24 1150.06 219.24 1149.97 218.74 1149.81 218.30 1149.59 217.90 1149.31 217.56 1148.97 217.27 1148.57 217.03 1148.09 216.84 1147.54 216.71 1146.93 216.63 1146.24 216.60 1145.52 216.63 1144.89 216.71 1144.34 216.84 1143.87 217.02 1143.48 217.26 1143.17 217.54 1142.93 217.83 1142.76 218.15 1142.65 218.49 1142.62 218.85 1142.64 219.17 1142.72 219.46 1142.84 219.72 1143.01 219.97 1143.23 220.19 1143.55 220.40 1144.02 220.61 1144.65 220.82 1145.43 221.04 1146.36 221.26 1147.31 221.47 1148.12 221.68 1148.80 221.87 1149.35 222.05 1149.76 222.22 1150.24 222.48 1150.66 222.77 1151.03 223.08 1151.35 223.42 1151.62 223.78 1151.83 224.17 1152.00 224.58 1152.12 225.01 1152.19 225.47 1152.21 225.95 1152.19 226.43 1152.10 226.90 1151.96 227.36 1151.77 227.81 1151.52 228.25 1151.22 228.66 1150.87 229.03 1150.48 229.37 1150.03 229.66 1149.54 229.92 1149.01 230.14 1148.46 230.31 1147.88 230.43 1147.27 230.50 1146.64 230.52 1145.84 230.50 1145.11 230.42 1144.42 230.29 1143.79 230.11 1143.21 229.88 1142.68 229.59 1142.20 229.26 1141.76 228.87 1141.38 228.43 1141.04 227.93 1140.76 227.40 1140.53 226.84 1140.36 226.26 1140.26 225.64 1140.21 225.00 Z M 1155.33 230.28 L 1155.34 214.92 1157.26 214.92 1157.25 230.28 Z M 1161.09 230.28 L 1161.10 214.92 1164.41 214.92 1167.54 225.75 1167.70 226.32 1167.85 226.83 1167.98 227.29 1168.08 227.68 1168.17 228.01 1168.27 227.64 1168.39 227.22 1168.53 226.73 1168.68 226.18 1168.86 225.56 1171.96 214.92 1175.26 214.92 1175.25 230.28 1173.33 230.28 1173.34 216.84 1169.47 230.28 1166.87 230.28 1163.02 216.84 1163.01 230.28 Z M 1177.65 225.72 L 1177.66 223.80 1183.66 223.80 1183.65 225.72 Z M 1192.53 230.28 L 1190.61 230.28 1190.62 218.31 1190.33 218.57 1190.00 218.83 1189.63 219.09 1189.23 219.35 1188.80 219.61 1188.36 219.85 1187.94 220.07 1187.53 220.27 1187.15 220.43 1186.78 220.58 1186.78 218.76 1187.41 218.45 1188.00 218.12 1188.57 217.76 1189.10 217.37 1189.60 216.96 1190.05 216.55 1190.45 216.13 1190.79 215.72 1191.08 215.32 1191.31 214.92 1192.54 214.92 Z M 1197.09 226.20 L 1199.01 225.96 1199.12 226.46 1199.27 226.91 1199.47 227.31 1199.70 227.65 1199.98 227.94 1200.30 228.18 1200.66 228.36 1201.06 228.50 1201.50 228.57 1201.98 228.60 1202.57 228.56 1203.11 228.45 1203.59 228.27 1204.02 228.01 1204.39 227.68 1204.70 227.29 1204.94 226.85 1205.12 226.36 1205.22 225.82 1205.25 225.24 1205.22 224.68 1205.13 224.18 1204.97 223.72 1204.74 223.32 1204.45 222.96 1204.10 222.66 1203.68 222.42 1203.19 222.26 1202.64 222.15 1202.02 222.12 1201.63 222.13 1201.26 222.17 1200.92 222.24 1200.62 222.33 1200.33 222.45 1200.08 222.60 1199.84 222.75 1199.63 222.93 1199.43 223.12 1199.26 223.32 1197.34 223.08 1199.02 215.16 1206.46 215.16 1206.46 217.08 1200.58 217.08 1199.75 221.31 1200.29 220.91 1200.84 220.60 1201.41 220.38 1201.98 220.25 1202.56 220.20 1203.31 220.26 1204.02 220.42 1204.68 220.70 1205.28 221.08 1205.84 221.58 1206.32 222.16 1206.70 222.80 1206.96 223.51 1207.12 224.28 1207.17 225.12 1207.12 225.92 1206.98 226.68 1206.74 227.39 1206.40 228.06 1205.97 228.68 1205.34 229.34 1204.62 229.86 1203.83 230.23 1202.94 230.45 1201.98 230.52 1201.18 230.47 1200.44 230.33 1199.76 230.10 1199.14 229.76 1198.59 229.34 1198.11 228.83 1197.72 228.27 1197.42 227.64 1197.21 226.95 1197.09 226.20 Z M 1208.85 226.20 L 1210.77 225.96 1210.92 226.49 1211.10 226.96 1211.31 227.36 1211.56 227.70 1211.83 227.98 1212.14 228.21 1212.50 228.38 1212.89 228.50 1213.33 228.58 1213.81 228.60 1214.37 228.57 1214.89 228.47 1215.35 228.29 1215.77 228.06 1216.14 227.75 1216.46 227.39 1216.70 227.00 1216.87 226.58 1216.98 226.13 1217.01 225.64 1216.98 225.18 1216.88 224.75 1216.71 224.35 1216.47 223.99 1216.16 223.66 1215.80 223.37 1215.40 223.15 1214.96 223.00 1214.49 222.90 1213.98 222.87 1213.75 222.88 1213.50 222.90 1213.23 222.95 1212.94 223.01 1212.63 223.08 1212.85 221.16 1212.92 221.17 1212.99 221.18 1213.05 221.18 1213.10 221.18 1213.15 221.18 1213.63 221.16 1214.08 221.10 1214.52 220.99 1214.94 220.83 1215.33 220.63 1215.68 220.39 1215.95 220.10 1216.15 219.76 1216.26 219.37 1216.30 218.94 1216.27 218.59 1216.19 218.26 1216.05 217.96 1215.85 217.69 1215.60 217.44 1215.30 217.22 1214.98 217.06 1214.62 216.94 1214.22 216.87 1213.80 216.84 1213.37 216.87 1212.97 216.94 1212.61 217.06 1212.27 217.23 1211.96 217.44 1211.69 217.71 1211.46 218.02 1211.27 218.38 1211.13 218.79 1211.02 219.24 1209.10 219.00 1209.27 218.26 1209.52 217.59 1209.83 216.98 1210.22 216.45 1210.68 215.99 1211.19 215.61 1211.75 215.31 1212.36 215.09 1213.02 214.96 1213.73 214.92 1214.22 214.94 1214.70 215.01 1215.16 215.11 1215.61 215.26 1216.04 215.45 1216.45 215.67 1216.81 215.93 1217.14 216.22 1217.42 216.54 1217.66 216.89 1217.87 217.26 1218.02 217.64 1218.13 218.02 1218.20 218.42 1218.22 218.82 1218.20 219.21 1218.13 219.57 1218.03 219.93 1217.88 220.27 1217.69 220.59 1217.45 220.90 1217.18 221.18 1216.86 221.44 1216.51 221.66 1216.11 221.87 1216.63 222.02 1217.10 222.23 1217.51 222.49 1217.88 222.81 1218.20 223.18 1218.47 223.60 1218.67 224.06 1218.82 224.56 1218.90 225.10 1218.93 225.68 1218.87 226.46 1218.70 227.20 1218.40 227.88 1217.99 228.52 1217.46 229.11 1216.84 229.62 1216.16 230.01 1215.42 230.30 1214.61 230.46 1213.74 230.52 1212.96 230.47 1212.23 230.33 1211.56 230.09 1210.94 229.75 1210.38 229.32 1209.89 228.81 1209.49 228.24 1209.19 227.62 1208.97 226.94 1208.85 226.20 Z M 1221.33 230.28 L 1221.34 214.92 1223.26 214.92 1223.25 228.36 1230.93 228.36 1230.93 230.28 Z M 1233.09 230.28 L 1233.10 214.92 1235.02 214.92 1235.02 221.16 1243.18 221.16 1243.18 214.92 1245.10 214.92 1245.09 230.28 1243.17 230.28 1243.18 223.08 1235.02 223.08 1235.01 230.28 Z M 1252.05 227.88 L 1252.06 223.80 1247.98 223.80 1247.98 221.88 1252.06 221.88 1252.06 217.80 1253.98 217.80 1253.98 221.88 1258.06 221.88 1258.06 223.80 1253.98 223.80 1253.97 227.88 Z M 1261.17 234.60 L 1259.73 234.60 1260.94 232.63 1261.88 230.67 1262.55 228.70 1262.96 226.73 1263.10 224.76 1263.08 223.99 1263.02 223.23 1262.92 222.46 1262.79 221.70 1262.62 220.94 1262.45 220.33 1262.26 219.73 1262.05 219.14 1261.81 218.56 1261.55 217.99 1261.34 217.57 1261.05 217.06 1260.69 216.44 1260.26 215.73 1259.74 214.92 1261.18 214.92 1261.95 215.95 1262.64 216.98 1263.24 218.01 1263.76 219.05 1264.19 220.08 1264.49 220.98 1264.72 221.90 1264.88 222.83 1264.98 223.78 1265.02 224.75 1264.97 225.85 1264.83 226.93 1264.61 228.00 1264.29 229.06 1263.89 230.10 1263.42 231.10 1262.91 232.06 1262.37 232.96 1261.79 233.81 1261.17 234.60 Z" />
<path fill="rgb(0,0,0)" stroke="rgb(0,0,0)" stroke-width="2" d=" M 803 346 L 843 346 843 356 803 356 803 346 Z" />
<polyline points="823.00 326.00 823.00 346.00" fill="none" stroke="rgb(0,0,0)" stroke-width="2" />
<path fill="rgb(0,0,0)" stroke="rgb(0,0,0)" stroke-width="2" d=" M 883 346 L 923 346 923 356 883 356 883 346 Z" />
<polyline points="903.00 326.00 903.00 346.00" fill="none" stroke="rgb(0,0,0)" stroke-width="2" />
<path fill="rgb(0,0,0)" stroke="rgb(0,0,0)" stroke-width="2" d=" M 883 106 L 843 106 843 96 883 96 883 106 Z" />
<polyline points="863.00 126.00 863.00 106.00" fill="none" stroke="rgb(0,0,0)" stroke-width="2" />
<path fill="rgb(0,0,0)" stroke="rgb(0,0,0)" stroke-width="2" d=" M 923 106 L 883 106 883 96 923 96 923 106 Z" />
<polyline points="903.00 126.00 903.00 106.00" fill="none" stroke="rgb(0,0,0)" stroke-width="2" />
<path fill="rgb(0,0,0)" stroke="rgb(0,0,0)" stroke-width="2" d=" M 963 106 L 923 106 923 96 963 96 963 106 Z" />
<polyline points="943.00 126.00 943.00 106.00" fill="none" stroke="rgb(0,0,0)" stroke-width="2" />
<polyline points="773.00 386.00 853.00 386.00 863.00 376.00 863.00 346.00" fill="none" stroke="rgb(0,0,0)" stroke-width="7" />
<polyline points="1313.00 386.00 953.00 386.00 943.00 376.00 943.00 346.00" fill="none" stroke="rgb(0,0,0)" stroke-width="7" />
<polyline points="748.00 56.00 670.00 56.00 623.00 56.00" fill="none" stroke="rgb(0,0,0)" stroke-width="2" />
<circle cx="688.04" cy="56.00" r="15.04" fill="none" stroke="rgb(0,0,0)" stroke-width="2" />
<polyline points="688.00 71.00 688.00 136.00" fill="none" stroke="rgb(0,0,0)" stroke-width="2" />
<path fill="rgb(0,0,0)" stroke="rgb(0,0,0)" stroke-width="2" d=" M 668 136 L 708 136 708 146 668 146 668 136 Z" />
<polyline points="688.00 106.00 688.00 136.00" fill="none" stroke="rgb(0,0,0)" stroke-width="2" />
<polyline points="623.00 56.00 613.00 66.00" fill="none" stroke="rgb(0,0,0)" stroke-width="2" />
<polyline points="623.00 56.00 613.00 46.00" fill="none" stroke="rgb(0,0,0)" stroke-width="2" />
<circle cx="688" cy="71" r="6" fill="rgb(0,0,0)" stroke="none" stroke-width="2" />
<circle cx="688" cy="96" r="6" fill="rgb(0,0,0)" stroke="none" stroke-width="2" />
<polyline points="688.00 96.00 623.00 96.00" fill="none" stroke="rgb(0,0,0)" stroke-width="2" />
<polyline points="823.00 106.00 823.00 76.00 803.00 56.00 748.00 56.00" fill="none" stroke="rgb(0,0,0)" stroke-width="7" />
<path fill="rgb(0,0,0)" stroke="rgb(0,0,0)" stroke-width="0" d=" M 546.65 64.00 L 546.66 48.00 548.66 48.00 548.65 62.00 556.65 62.00 556.65 64.00 Z M 558.15 56.21 L 558.24 54.69 558.50 53.31 558.93 52.07 559.52 50.96 560.29 50.00 561.20 49.19 562.20 48.56 563.30 48.11 564.50 47.84 565.80 47.75 566.66 47.79 567.49 47.92 568.29 48.13 569.05 48.42 569.78 48.80 570.45 49.26 571.06 49.78 571.60 50.37 572.07 51.02 572.48 51.75 572.81 52.52 573.07 53.34 573.26 54.19 573.37 55.09 573.40 56.03 573.36 56.98 573.24 57.89 573.05 58.75 572.77 59.58 572.42 60.37 571.99 61.10 571.50 61.75 570.95 62.33 570.33 62.83 569.64 63.27 568.91 63.62 568.16 63.90 567.39 64.09 566.59 64.21 565.77 64.25 564.89 64.21 564.05 64.08 563.24 63.86 562.48 63.55 561.75 63.16 561.08 62.70 560.47 62.16 559.93 61.57 559.46 60.91 559.07 60.19 558.74 59.43 558.48 58.65 558.30 57.86 558.19 57.04 558.15 56.21 Z M 560.15 56.23 L 560.22 57.30 560.41 58.28 560.73 59.16 561.17 59.95 561.75 60.64 562.42 61.22 563.16 61.67 563.96 61.99 564.83 62.19 565.76 62.25 566.71 62.18 567.59 61.99 568.40 61.67 569.14 61.21 569.81 60.62 570.38 59.92 570.83 59.11 571.15 58.18 571.34 57.15 571.40 56.01 571.38 55.27 571.30 54.58 571.16 53.92 570.97 53.29 570.73 52.71 570.43 52.17 570.08 51.68 569.69 51.25 569.24 50.86 568.74 50.53 568.21 50.25 567.65 50.03 567.06 49.87 566.45 49.78 565.81 49.75 564.91 49.81 564.06 49.99 563.27 50.29 562.52 50.71 561.83 51.24 561.23 51.92 560.76 52.76 560.42 53.76 560.22 54.91 560.15 56.23 Z M 582.16 50.00 L 582.16 48.00 584.16 48.00 584.16 50.00 Z M 582.15 64.00 L 582.16 52.25 584.16 52.25 584.15 64.00 Z M 587.15 64.00 L 587.16 52.25 589.16 52.25 589.16 53.89 589.70 53.21 590.34 52.68 591.06 52.30 591.87 52.08 592.77 52.00 593.18 52.02 593.57 52.06 593.95 52.14 594.31 52.24 594.66 52.38 594.99 52.54 595.28 52.72 595.54 52.92 595.76 53.14 595.95 53.38 596.11 53.64 596.25 53.91 596.37 54.21 596.47 54.52 596.55 54.85 596.59 55.11 596.62 55.43 596.64 55.81 596.65 56.27 596.65 56.79 596.65 64.00 594.65 64.00 594.65 57.05 594.64 56.61 594.62 56.20 594.57 55.85 594.51 55.54 594.43 55.29 594.32 55.06 594.19 54.85 594.02 54.67 593.83 54.50 593.61 54.35 593.37 54.22 593.11 54.13 592.84 54.06 592.55 54.01 592.24 54.00 591.75 54.03 591.29 54.13 590.85 54.28 590.45 54.50 590.07 54.79 589.74 55.16 589.48 55.64 589.30 56.24 589.19 56.94 589.15 57.77 589.15 64.00 Z" />
<path fill="rgb(0,0,0)" stroke="rgb(0,0,0)" stroke-width="0" d=" M 480.89 89.00 L 480.89 85.25 473.67 85.25 473.68 83.25 481.40 73.25 482.90 73.25 482.89 83.25 484.88 83.25 484.88 85.25 482.89 85.25 482.88 89.00 Z M 480.90 83.25 L 480.90 77.07 476.13 83.25 Z M 487.61 89.00 L 487.62 87.00 489.61 87.00 489.60 89.00 Z M 503.05 87.00 L 503.05 89.00 492.59 89.00 492.59 88.71 492.62 88.43 492.66 88.16 492.72 87.89 492.80 87.62 492.98 87.19 493.18 86.76 493.42 86.33 493.70 85.91 494.02 85.50 494.38 85.08 494.82 84.63 495.32 84.17 495.88 83.68 496.52 83.18 497.48 82.35 498.30 81.61 498.99 80.94 499.54 80.35 499.96 79.85 500.27 79.38 500.51 78.93 500.68 78.47 500.78 78.03 500.82 77.58 500.79 77.16 500.69 76.77 500.53 76.40 500.30 76.06 500.01 75.75 499.67 75.48 499.28 75.27 498.86 75.12 498.40 75.03 497.89 75.00 497.36 75.03 496.88 75.12 496.43 75.26 496.04 75.47 495.68 75.73 495.38 76.04 495.15 76.40 494.98 76.81 494.88 77.26 494.84 77.75 492.85 77.50 492.98 76.66 493.20 75.91 493.50 75.24 493.90 74.65 494.38 74.15 494.95 73.74 495.59 73.41 496.30 73.18 497.08 73.05 497.94 73.00 498.80 73.05 499.59 73.21 500.30 73.46 500.94 73.82 501.50 74.28 501.97 74.82 502.34 75.40 502.60 76.04 502.76 76.73 502.81 77.46 502.80 77.85 502.75 78.23 502.68 78.61 502.58 78.98 502.45 79.36 502.29 79.73 502.09 80.12 501.86 80.51 501.59 80.91 501.28 81.32 500.90 81.76 500.42 82.25 499.85 82.80 499.18 83.40 498.42 84.06 497.77 84.59 497.21 85.05 496.75 85.43 496.39 85.74 496.13 85.98 495.92 86.18 495.72 86.39 495.54 86.59 495.38 86.80 495.23 87.00 Z M 512.26 89.00 L 512.26 87.00 514.25 87.00 514.25 89.00 Z M 518.48 89.00 L 518.49 87.00 520.48 87.00 520.47 89.00 Z M 524.71 89.00 L 524.71 87.00 526.70 87.00 526.70 89.00 Z M 539.07 80.19 L 538.60 80.00 538.19 79.78 537.83 79.53 537.51 79.25 537.25 78.95 537.04 78.61 536.88 78.25 536.76 77.86 536.69 77.45 536.67 77.01 536.72 76.35 536.87 75.74 537.13 75.17 537.49 74.64 537.95 74.16 538.50 73.74 539.12 73.42 539.80 73.18 540.55 73.05 541.37 73.00 542.20 73.05 542.95 73.19 543.64 73.43 544.27 73.76 544.82 74.18 545.29 74.68 545.66 75.21 545.92 75.79 546.08 76.41 546.13 77.07 546.10 77.49 546.03 77.89 545.92 78.26 545.75 78.62 545.54 78.95 545.29 79.26 544.98 79.53 544.63 79.78 544.23 80.00 543.78 80.19 544.31 80.41 544.78 80.67 545.21 80.98 545.58 81.35 545.89 81.76 546.16 82.21 546.36 82.69 546.50 83.21 546.59 83.76 546.62 84.34 546.56 85.15 546.39 85.90 546.10 86.60 545.69 87.24 545.18 87.84 544.56 88.35 543.88 88.74 543.12 89.02 542.29 89.19 541.38 89.25 540.48 89.19 539.65 89.02 538.89 88.74 538.21 88.34 537.60 87.83 537.08 87.23 536.68 86.58 536.39 85.87 536.22 85.11 536.16 84.29 536.19 83.68 536.28 83.11 536.44 82.58 536.65 82.09 536.92 81.64 537.25 81.24 537.62 80.90 538.05 80.61 538.53 80.37 539.07 80.19 Z M 538.66 77.07 L 538.69 77.44 538.77 77.78 538.91 78.10 539.11 78.38 539.36 78.64 539.67 78.86 540.03 79.03 540.44 79.15 540.91 79.23 541.42 79.25 541.92 79.23 542.37 79.15 542.78 79.03 543.13 78.86 543.43 78.64 543.69 78.39 543.88 78.12 544.02 77.82 544.11 77.50 544.13 77.16 544.11 76.81 544.02 76.48 543.88 76.17 543.67 75.88 543.41 75.62 543.10 75.40 542.74 75.22 542.34 75.10 541.89 75.02 541.40 75.00 540.90 75.02 540.45 75.10 540.05 75.22 539.69 75.39 539.38 75.61 539.12 75.86 538.92 76.14 538.77 76.43 538.69 76.74 538.66 77.07 Z M 538.15 84.22 L 538.17 84.53 538.21 84.83 538.27 85.13 538.37 85.43 538.48 85.72 538.64 86.00 538.83 86.25 539.07 86.48 539.34 86.68 539.66 86.85 540.00 87.00 540.34 87.11 540.69 87.19 541.04 87.23 541.40 87.25 541.98 87.22 542.51 87.12 542.99 86.95 543.41 86.71 543.78 86.41 544.08 86.06 544.32 85.67 544.49 85.24 544.59 84.78 544.62 84.28 544.59 83.77 544.49 83.30 544.31 82.87 544.07 82.47 543.75 82.11 543.38 81.80 542.95 81.56 542.47 81.39 541.93 81.28 541.34 81.25 540.77 81.28 540.25 81.39 539.78 81.56 539.36 81.79 539.00 82.10 538.70 82.45 538.46 82.84 538.29 83.27 538.19 83.73 538.15 84.22 Z M 562.80 82.75 L 562.80 80.75 569.27 80.75 569.27 86.73 568.65 87.21 568.01 87.63 567.37 88.01 566.73 88.34 566.07 88.62 565.41 88.85 564.74 89.02 564.06 89.15 563.38 89.22 562.69 89.25 561.77 89.21 560.89 89.09 560.04 88.89 559.22 88.61 558.44 88.24 557.71 87.81 557.06 87.30 556.48 86.71 555.98 86.06 555.56 85.33 555.21 84.55 554.94 83.74 554.74 82.89 554.63 82.00 554.59 81.08 554.63 80.16 554.74 79.26 554.94 78.39 555.21 77.55 555.56 76.73 555.99 75.96 556.48 75.28 557.04 74.68 557.66 74.16 558.36 73.73 559.11 73.38 559.90 73.10 560.74 72.91 561.62 72.79 562.55 72.75 563.23 72.77 563.87 72.84 564.50 72.95 565.09 73.11 565.66 73.32 566.20 73.56 566.68 73.84 567.12 74.16 567.51 74.51 567.85 74.90 568.15 75.33 568.42 75.81 568.66 76.34 568.87 76.92 569.05 77.55 567.21 78.07 567.06 77.61 566.89 77.20 566.71 76.83 566.52 76.50 566.31 76.22 566.07 75.96 565.80 75.73 565.49 75.51 565.14 75.32 564.76 75.15 564.34 75.01 563.91 74.89 563.47 74.81 563.00 74.77 562.52 74.75 561.94 74.77 561.40 74.82 560.89 74.91 560.41 75.03 559.97 75.18 559.55 75.37 559.17 75.57 558.83 75.80 558.51 76.04 558.23 76.31 557.98 76.60 557.75 76.90 557.54 77.21 557.36 77.53 557.20 77.86 556.98 78.44 556.81 79.05 556.68 79.68 556.60 80.33 556.58 81.00 556.61 81.80 556.70 82.55 556.85 83.25 557.06 83.89 557.33 84.48 557.65 85.02 558.03 85.49 558.47 85.91 558.96 86.27 559.50 86.57 560.08 86.81 560.67 87.00 561.28 87.14 561.90 87.22 562.53 87.25 563.09 87.23 563.64 87.17 564.19 87.07 564.73 86.92 565.26 86.74 565.77 86.53 566.22 86.31 566.63 86.10 566.98 85.87 567.28 85.64 567.28 82.75 Z M 572.50 89.00 L 572.52 73.00 574.51 73.00 574.51 79.50 582.97 79.50 582.97 73.00 584.97 73.00 584.95 89.00 582.96 89.00 582.97 81.50 574.50 81.50 574.49 89.00 Z M 586.94 89.00 L 586.95 87.12 593.83 79.25 593.38 79.25 592.95 79.25 592.54 79.25 592.16 79.25 591.79 79.25 587.45 79.25 587.45 77.25 596.66 77.25 596.66 78.95 590.56 85.93 589.63 87.00 590.11 87.00 590.58 87.00 591.04 87.00 591.49 87.00 591.93 87.00 596.90 87.00 596.90 89.00 Z" />
<polygon points="1021 428 1021 428 1028 434 1036 438 1044 440 1053 441 1062 440 1070 438 1078 434 1085 428 1085 428" fill="rgb(0,0,0)" stroke="rgb(0,0,0)" stroke-width="2" />
<polygon points="1021 428 1053 386 1085 428" fill="rgb(0,0,0)" stroke="rgb(0,0,0)" stroke-width="2" />
<polyline points="1021.02 427.98 1084.97 427.93" fill="none" stroke="rgb(0,0,0)" stroke-width="2" />
<polygon points="1085 344 1085 344 1078 338 1070 334 1062 332 1053 331 1044 332 1036 334 1028 338 1021 344 1021 344" fill="rgb(0,0,0)" stroke="rgb(0,0,0)" stroke-width="2" />
<polygon points="1085 344 1053 386 1021 344" fill="rgb(0,0,0)" stroke="rgb(0,0,0)" stroke-width="2" />
<polyline points="1084.98 344.02 1021.03 344.07" fill="none" stroke="rgb(0,0,0)" stroke-width="2" />
<polygon points="1101 436 1101 436 1109 442 1118 447 1128 450 1139 451 1149 450 1159 447 1168 442 1177 436 1177 436" fill="rgb(0,0,0)" stroke="rgb(0,0,0)" stroke-width="2" />
<polygon points="1101 436 1139 386 1177 436" fill="rgb(0,0,0)" stroke="rgb(0,0,0)" stroke-width="2" />
<polyline points="1101.02 435.58 1176.55 435.52" fill="none" stroke="rgb(0,0,0)" stroke-width="2" />
<polygon points="1177 336 1177 336 1168 330 1159 325 1149 322 1139 321 1128 322 1118 325 1109 330 1101 336 1101 336" fill="rgb(0,0,0)" stroke="rgb(0,0,0)" stroke-width="2" />
<polygon points="1177 336 1139 386 1101 336" fill="rgb(0,0,0)" stroke="rgb(0,0,0)" stroke-width="2" />
<polyline points="1176.56 336.42 1101.03 336.48" fill="none" stroke="rgb(0,0,0)" stroke-width="2" />
<polygon points="1201 428 1201 428 1208 434 1216 438 1224 440 1233 441 1242 440 1250 438 1258 434 1265 428 1265 428" fill="rgb(0,0,0)" stroke="rgb(0,0,0)" stroke-width="2" />
<polygon points="1201 428 1233 386 1265 428" fill="rgb(0,0,0)" stroke="rgb(0,0,0)" stroke-width="2" />
<polyline points="1201.02 427.98 1264.97 427.93" fill="none" stroke="rgb(0,0,0)" stroke-width="2" />
<polygon points="1265 344 1265 344 1258 338 1250 334 1242 332 1233 331 1224 332 1216 334 1208 338 1201 344 1201 344" fill="rgb(0,0,0)" stroke="rgb(0,0,0)" stroke-width="2" />
<polygon points="1265 344 1233 386 1201 344" fill="rgb(0,0,0)" stroke="rgb(0,0,0)" stroke-width="2" />
<polyline points="1264.98 344.02 1201.03 344.07" fill="none" stroke="rgb(0,0,0)" stroke-width="2" />
<path fill="rgb(0,0,0)" stroke="rgb(0,0,0)" stroke-width="0" d=" M 1075.09 290.00 L 1075.11 270.80 1077.50 270.80 1077.49 287.60 1087.05 287.60 1087.05 290.00 Z M 1089.74 290.00 L 1089.76 270.80 1096.85 270.80 1097.56 270.81 1098.21 270.83 1098.78 270.87 1099.28 270.92 1099.71 270.98 1100.24 271.09 1100.75 271.24 1101.21 271.42 1101.64 271.63 1102.03 271.88 1102.39 272.17 1102.72 272.50 1103.02 272.87 1103.29 273.28 1103.54 273.74 1103.74 274.22 1103.90 274.73 1104.01 275.25 1104.08 275.79 1104.10 276.35 1104.04 277.31 1103.86 278.20 1103.55 279.02 1103.12 279.79 1102.56 280.50 1101.85 281.11 1100.93 281.59 1099.82 281.93 1098.51 282.13 1097.00 282.20 1092.14 282.20 1092.13 290.00 Z M 1092.14 279.80 L 1097.14 279.80 1098.08 279.76 1098.90 279.66 1099.60 279.48 1100.19 279.24 1100.67 278.92 1101.04 278.54 1101.34 278.10 1101.54 277.60 1101.67 277.05 1101.71 276.44 1101.69 275.99 1101.61 275.56 1101.49 275.17 1101.32 274.80 1101.10 274.45 1100.84 274.14 1100.55 273.88 1100.23 273.66 1099.87 273.49 1099.49 273.36 1099.18 273.30 1098.79 273.26 1098.32 273.23 1097.75 273.21 1097.10 273.20 1092.15 273.20 Z M 1107.38 290.00 L 1107.40 270.80 1120.25 270.80 1120.25 273.20 1109.79 273.20 1109.78 278.90 1118.75 278.90 1118.75 281.30 1109.78 281.30 1109.77 290.00 Z M 1137.87 290.00 L 1137.87 285.50 1129.20 285.50 1129.21 283.10 1138.48 271.10 1140.28 271.10 1140.27 283.10 1142.66 283.10 1142.66 285.50 1140.26 285.50 1140.26 290.00 Z M 1137.88 283.10 L 1137.88 275.68 1132.15 283.10 Z M 1145.94 290.00 L 1145.94 287.60 1148.34 287.60 1148.33 290.00 Z M 1152.22 284.90 L 1154.61 284.60 1154.75 285.23 1154.94 285.79 1155.18 286.28 1155.47 286.71 1155.82 287.07 1156.21 287.37 1156.66 287.60 1157.16 287.77 1157.71 287.87 1158.31 287.90 1159.05 287.85 1159.72 287.72 1160.32 287.49 1160.85 287.16 1161.31 286.75 1161.70 286.26 1162.00 285.71 1162.21 285.10 1162.34 284.43 1162.39 283.70 1162.35 283.00 1162.23 282.37 1162.03 281.80 1161.75 281.29 1161.39 280.85 1160.95 280.47 1160.42 280.18 1159.82 279.97 1159.13 279.84 1158.36 279.80 1157.87 279.82 1157.41 279.87 1156.99 279.95 1156.61 280.07 1156.26 280.22 1155.94 280.39 1155.65 280.59 1155.38 280.81 1155.13 281.04 1154.92 281.30 1152.53 281.00 1154.63 271.10 1163.89 271.10 1163.89 273.50 1156.56 273.50 1155.53 278.79 1156.21 278.29 1156.89 277.90 1157.59 277.62 1158.31 277.46 1159.03 277.40 1159.97 277.47 1160.85 277.68 1161.67 278.02 1162.42 278.50 1163.12 279.12 1163.72 279.85 1164.18 280.65 1164.51 281.54 1164.71 282.50 1164.78 283.55 1164.72 284.55 1164.54 285.49 1164.24 286.38 1163.81 287.22 1163.27 288.00 1162.49 288.83 1161.60 289.47 1160.61 289.93 1159.51 290.21 1158.30 290.30 1157.31 290.24 1156.39 290.06 1155.54 289.77 1154.78 289.35 1154.09 288.82 1153.49 288.19 1153.00 287.48 1152.63 286.70 1152.37 285.84 1152.22 284.90 Z M 1184.21 282.50 L 1184.21 280.10 1191.98 280.10 1191.98 287.28 1191.23 287.85 1190.47 288.36 1189.70 288.81 1188.92 289.21 1188.14 289.54 1187.34 289.81 1186.54 290.03 1185.73 290.18 1184.91 290.27 1184.08 290.30 1182.98 290.25 1181.91 290.11 1180.89 289.87 1179.91 289.53 1178.97 289.09 1178.10 288.57 1177.32 287.95 1176.63 287.26 1176.02 286.47 1175.51 285.60 1175.09 284.66 1174.77 283.68 1174.53 282.66 1174.39 281.60 1174.35 280.49 1174.40 279.39 1174.54 278.32 1174.77 277.27 1175.10 276.26 1175.52 275.27 1176.03 274.36 1176.62 273.54 1177.29 272.82 1178.04 272.20 1178.87 271.68 1179.77 271.25 1180.73 270.92 1181.74 270.69 1182.80 270.55 1183.91 270.50 1184.72 270.53 1185.50 270.61 1186.25 270.75 1186.97 270.94 1187.65 271.18 1188.29 271.48 1188.87 271.81 1189.40 272.19 1189.86 272.62 1190.27 273.08 1190.63 273.60 1190.96 274.17 1191.25 274.81 1191.50 275.50 1191.71 276.26 1189.51 276.88 1189.32 276.34 1189.12 275.84 1188.91 275.40 1188.67 275.00 1188.42 274.66 1188.14 274.35 1187.81 274.07 1187.44 273.82 1187.02 273.59 1186.56 273.38 1186.06 273.21 1185.55 273.07 1185.01 272.98 1184.45 272.92 1183.87 272.90 1183.18 272.92 1182.53 272.98 1181.92 273.09 1181.35 273.23 1180.81 273.42 1180.31 273.64 1179.86 273.88 1179.44 274.16 1179.06 274.45 1178.72 274.78 1178.42 275.12 1178.15 275.48 1177.90 275.85 1177.68 276.23 1177.49 276.63 1177.22 277.33 1177.01 278.06 1176.86 278.82 1176.77 279.60 1176.74 280.40 1176.77 281.36 1176.88 282.26 1177.06 283.10 1177.31 283.87 1177.64 284.58 1178.03 285.22 1178.48 285.79 1179.01 286.29 1179.59 286.72 1180.25 287.08 1180.94 287.38 1181.65 287.61 1182.38 287.77 1183.13 287.87 1183.89 287.90 1184.56 287.88 1185.22 287.80 1185.87 287.68 1186.52 287.51 1187.16 287.28 1187.77 287.03 1188.32 286.78 1188.80 286.51 1189.23 286.24 1189.59 285.97 1189.59 282.50 Z M 1195.86 290.00 L 1195.88 270.80 1198.27 270.80 1198.27 278.60 1208.43 278.60 1208.44 270.80 1210.83 270.80 1210.81 290.00 1208.42 290.00 1208.43 281.00 1198.26 281.00 1198.25 290.00 Z M 1213.20 290.00 L 1213.20 287.74 1221.47 278.30 1220.93 278.30 1220.41 278.30 1219.92 278.30 1219.46 278.30 1219.02 278.30 1213.81 278.30 1213.81 275.90 1224.87 275.90 1224.87 277.94 1217.54 286.32 1216.42 287.60 1217.00 287.60 1217.57 287.60 1218.12 287.60 1218.66 287.60 1219.19 287.60 1225.16 287.60 1225.16 290.00 Z" />
</svg>
