<?xml version="1.0" encoding="utf-8"?>
<!-- Created with "sPlan" (http://www.abacom-online.de) -->
<svg version="1.1" baseProfile="full"
xmlns="http://www.w3.org/2000/svg"
width="148mm" height="57mm"
viewBox="0 0 1484 574">
<title>MIX2 schematic</title>
<defs>
<style type="text/css">
<![CDATA[
polyline {stroke-linecap:round; stroke-linejoin:round}
polygon {stroke-linecap:round; stroke-linejoin:round}
path {stroke-linecap:round; stroke-linejoin:round}
circle {stroke-linecap:round; stroke-linejoin:round}
]]>
</style>
</defs>
<polyline points="183.00 166.22 105.00 166.22 58.00 166.22" fill="none" stroke="rgb(0,0,0)" stroke-width="2" />
<circle cx="123.04" cy="166.22" r="15.04" fill="none" stroke="rgb(0,0,0)" stroke-width="2" />
<polyline points="123.00 181.22 123.00 271.22" fill="none" stroke="rgb(0,0,0)" stroke-width="2" />
<path fill="rgb(0,0,0)" stroke="rgb(0,0,0)" stroke-width="2" d=" M 103 276 L 143 276 143 286 103 286 103 276 Z" />
<polyline points="123.00 246.22 123.00 276.22" fill="none" stroke="rgb(0,0,0)" stroke-width="2" />
<polyline points="58.00 166.22 48.00 176.22" fill="none" stroke="rgb(0,0,0)" stroke-width="2" />
<polyline points="58.00 166.22 48.00 156.22" fill="none" stroke="rgb(0,0,0)" stroke-width="2" />
<circle cx="123" cy="181" r="6" fill="rgb(0,0,0)" stroke="none" stroke-width="2" />
<circle cx="123" cy="206" r="6" fill="rgb(0,0,0)" stroke="none" stroke-width="2" />
<polyline points="123.00 206.22 58.00 206.22" fill="none" stroke="rgb(0,0,0)" stroke-width="2" />
<path fill="rgb(0,0,0)" stroke="rgb(0,0,0)" stroke-width="0" d=" M 355.09 280.22 L 355.11 261.02 357.50 261.02 357.49 277.82 367.05 277.82 367.05 280.22 Z M 369.74 280.22 L 369.76 261.02 376.85 261.02 377.56 261.03 378.21 261.05 378.78 261.09 379.28 261.14 379.71 261.21 380.24 261.32 380.75 261.46 381.21 261.64 381.64 261.86 382.03 262.11 382.39 262.39 382.72 262.72 383.02 263.09 383.29 263.51 383.54 263.96 383.74 264.45 383.90 264.95 384.01 265.48 384.08 266.02 384.10 266.58 384.04 267.53 383.86 268.42 383.55 269.25 383.12 270.02 382.56 270.73 381.85 271.34 380.93 271.81 379.82 272.15 378.51 272.36 377.00 272.42 372.14 272.42 372.13 280.22 Z M 372.14 270.02 L 377.14 270.02 378.08 269.99 378.90 269.88 379.60 269.71 380.19 269.46 380.67 269.14 381.04 268.76 381.34 268.32 381.54 267.83 381.67 267.27 381.71 266.66 381.69 266.21 381.61 265.79 381.49 265.39 381.32 265.02 381.10 264.68 380.84 264.37 380.55 264.11 380.23 263.89 379.87 263.72 379.49 263.59 379.18 263.53 378.79 263.48 378.32 263.45 377.75 263.43 377.10 263.42 372.15 263.42 Z M 387.38 280.22 L 387.40 261.02 400.25 261.02 400.25 263.42 389.79 263.42 389.78 269.12 398.75 269.12 398.75 271.52 389.78 271.52 389.77 280.22 Z M 417.87 280.22 L 417.87 275.72 409.20 275.72 409.21 273.32 418.48 261.32 420.28 261.32 420.27 273.32 422.66 273.32 422.66 275.72 420.26 275.72 420.26 280.22 Z M 417.88 273.32 L 417.88 265.91 412.15 273.32 Z M 425.94 280.22 L 425.94 277.82 428.34 277.82 428.33 280.22 Z M 432.22 275.12 L 434.61 274.82 434.75 275.45 434.94 276.01 435.18 276.50 435.47 276.93 435.82 277.30 436.21 277.60 436.66 277.83 437.16 277.99 437.71 278.09 438.31 278.12 439.05 278.08 439.72 277.94 440.32 277.71 440.85 277.39 441.31 276.97 441.70 276.48 442.00 275.93 442.21 275.32 442.34 274.65 442.39 273.92 442.35 273.23 442.23 272.60 442.03 272.03 441.75 271.52 441.39 271.07 440.95 270.69 440.42 270.40 439.82 270.19 439.13 270.07 438.36 270.02 437.87 270.04 437.41 270.09 436.99 270.18 436.61 270.29 436.26 270.44 435.94 270.62 435.65 270.82 435.38 271.03 435.13 271.27 434.92 271.52 432.53 271.22 434.63 261.32 443.89 261.32 443.89 263.72 436.56 263.72 435.53 269.01 436.21 268.51 436.89 268.12 437.59 267.85 438.31 267.68 439.03 267.62 439.97 267.69 440.85 267.90 441.67 268.24 442.42 268.73 443.12 269.35 443.72 270.07 444.18 270.88 444.51 271.76 444.71 272.73 444.78 273.77 444.72 274.77 444.54 275.72 444.24 276.61 443.81 277.44 443.27 278.22 442.49 279.05 441.60 279.70 440.61 280.16 439.51 280.43 438.30 280.52 437.31 280.47 436.39 280.29 435.54 279.99 434.78 279.58 434.09 279.05 433.49 278.42 433.00 277.71 432.63 276.92 432.37 276.06 432.22 275.12 Z M 464.21 272.72 L 464.21 270.32 471.98 270.32 471.98 277.50 471.23 278.07 470.47 278.59 469.70 279.04 468.92 279.43 468.14 279.77 467.34 280.04 466.54 280.25 465.73 280.40 464.91 280.49 464.08 280.52 462.98 280.48 461.91 280.33 460.89 280.09 459.91 279.75 458.97 279.32 458.10 278.79 457.32 278.18 456.63 277.48 456.02 276.70 455.51 275.82 455.09 274.89 454.77 273.91 454.53 272.89 454.39 271.82 454.35 270.72 454.40 269.61 454.54 268.54 454.77 267.50 455.10 266.48 455.52 265.50 456.03 264.58 456.62 263.76 457.29 263.04 458.04 262.42 458.87 261.90 459.77 261.48 460.73 261.15 461.74 260.91 462.80 260.77 463.91 260.72 464.72 260.75 465.50 260.83 466.25 260.97 466.97 261.16 467.65 261.41 468.29 261.70 468.87 262.04 469.40 262.42 469.86 262.84 470.27 263.31 470.63 263.82 470.96 264.40 471.25 265.03 471.50 265.73 471.71 266.48 469.51 267.10 469.32 266.56 469.12 266.07 468.91 265.62 468.67 265.23 468.42 264.89 468.14 264.58 467.81 264.30 467.44 264.04 467.02 263.81 466.56 263.61 466.06 263.43 465.55 263.30 465.01 263.20 464.45 263.14 463.87 263.12 463.18 263.15 462.53 263.21 461.92 263.31 461.35 263.46 460.81 263.64 460.31 263.86 459.86 264.11 459.44 264.38 459.06 264.68 458.72 265.00 458.42 265.35 458.15 265.70 457.90 266.07 457.68 266.46 457.49 266.85 457.22 267.56 457.01 268.29 456.86 269.04 456.77 269.82 456.74 270.62 456.77 271.59 456.88 272.49 457.06 273.33 457.31 274.10 457.64 274.80 458.03 275.44 458.48 276.01 459.01 276.51 459.59 276.95 460.25 277.31 460.94 277.60 461.65 277.83 462.38 277.99 463.13 278.09 463.89 278.12 464.56 278.10 465.22 278.03 465.87 277.90 466.52 277.73 467.16 277.51 467.77 277.26 468.32 277.00 468.80 276.74 469.23 276.47 469.59 276.19 469.59 272.72 Z M 475.86 280.22 L 475.88 261.02 478.27 261.02 478.27 268.82 488.43 268.82 488.44 261.02 490.83 261.02 490.81 280.22 488.42 280.22 488.43 271.22 478.26 271.22 478.25 280.22 Z M 493.20 280.22 L 493.20 277.97 501.47 268.52 500.93 268.52 500.41 268.52 499.92 268.52 499.46 268.52 499.02 268.52 493.81 268.52 493.81 266.12 504.87 266.12 504.87 268.16 497.54 276.54 496.42 277.82 497.00 277.82 497.57 277.82 498.12 277.82 498.66 277.82 499.19 277.82 505.16 277.82 505.16 280.22 Z" />
<path fill="rgb(0,0,0)" stroke="rgb(0,0,0)" stroke-width="0" d=" M 42.00 114.22 L 42.02 98.22 44.02 98.22 44.00 114.22 Z M 48.00 114.22 L 48.02 98.22 58.77 98.22 58.77 100.22 50.02 100.22 50.01 104.97 57.51 104.97 57.51 106.97 50.01 106.97 50.00 114.22 Z M 60.75 114.22 L 61.62 109.97 59.75 109.97 59.76 107.97 62.03 107.97 62.74 104.47 59.76 104.47 59.76 102.47 63.15 102.47 64.02 98.22 66.04 98.22 65.18 102.47 68.12 102.47 68.98 98.22 71.02 98.22 70.15 102.47 72.01 102.47 72.01 104.47 69.74 104.47 69.03 107.97 72.01 107.97 72.00 109.97 68.62 109.97 67.75 114.22 65.72 114.22 66.59 109.97 63.65 109.97 62.78 114.22 Z M 64.06 107.97 L 67.00 107.97 67.71 104.47 64.77 104.47 Z M 80.50 114.22 L 78.50 114.22 78.51 101.76 78.20 102.03 77.86 102.30 77.48 102.57 77.07 102.84 76.62 103.11 76.16 103.36 75.72 103.59 75.30 103.79 74.89 103.97 74.51 104.12 74.51 102.22 75.17 101.90 75.79 101.55 76.37 101.18 76.93 100.78 77.45 100.35 77.92 99.92 78.33 99.49 78.69 99.06 78.99 98.64 79.23 98.22 80.52 98.22 Z M 92.02 100.22 L 92.02 98.22 94.02 98.22 94.02 100.22 Z M 92.00 114.22 L 92.01 102.47 94.01 102.47 94.00 114.22 Z M 97.00 114.22 L 97.01 102.47 99.01 102.47 99.01 104.12 99.56 103.43 100.19 102.91 100.91 102.53 101.73 102.30 102.63 102.22 103.03 102.24 103.42 102.29 103.80 102.36 104.17 102.47 104.52 102.61 104.84 102.77 105.14 102.95 105.40 103.15 105.62 103.37 105.81 103.61 105.97 103.86 106.11 104.14 106.23 104.43 106.32 104.75 106.40 105.08 106.44 105.33 106.47 105.65 106.49 106.04 106.50 106.49 106.51 107.01 106.50 114.22 104.50 114.22 104.51 107.28 104.50 106.83 104.47 106.43 104.43 106.07 104.36 105.77 104.28 105.51 104.17 105.29 104.04 105.08 103.88 104.89 103.69 104.72 103.47 104.57 103.22 104.45 102.97 104.35 102.69 104.28 102.40 104.24 102.09 104.22 101.60 104.26 101.14 104.35 100.71 104.51 100.30 104.73 99.92 105.01 99.59 105.38 99.34 105.86 99.15 106.46 99.04 107.17 99.01 107.99 99.00 114.22 Z" />
<path fill="rgb(0,0,0)" stroke="rgb(0,0,0)" stroke-width="0" d=" M 47.47 139.22 L 47.47 135.47 40.25 135.47 40.26 133.47 47.98 123.47 49.48 123.47 49.47 133.47 51.46 133.47 51.46 135.47 49.46 135.47 49.46 139.22 Z M 47.48 133.47 L 47.48 127.30 42.71 133.47 Z M 54.19 139.22 L 54.19 137.22 56.19 137.22 56.18 139.22 Z M 59.42 134.97 L 61.41 134.72 61.57 135.28 61.75 135.76 61.97 136.18 62.22 136.54 62.51 136.83 62.83 137.06 63.20 137.24 63.61 137.37 64.07 137.45 64.56 137.47 65.15 137.44 65.68 137.33 66.17 137.16 66.60 136.91 66.99 136.59 67.31 136.22 67.56 135.81 67.74 135.37 67.85 134.90 67.89 134.39 67.85 133.91 67.75 133.46 67.57 133.05 67.32 132.67 67.00 132.32 66.62 132.03 66.21 131.80 65.76 131.64 65.27 131.54 64.74 131.51 64.50 131.51 64.24 131.54 63.96 131.58 63.66 131.65 63.34 131.72 63.56 129.72 63.64 129.73 63.71 129.74 63.77 129.74 63.83 129.75 63.88 129.75 64.38 129.73 64.85 129.66 65.30 129.54 65.73 129.38 66.14 129.17 66.50 128.92 66.79 128.62 66.99 128.26 67.11 127.86 67.15 127.41 67.12 127.04 67.03 126.70 66.89 126.39 66.68 126.10 66.42 125.84 66.11 125.62 65.77 125.45 65.40 125.32 64.99 125.25 64.55 125.22 64.11 125.25 63.70 125.32 63.32 125.45 62.97 125.62 62.65 125.85 62.37 126.12 62.13 126.45 61.93 126.82 61.78 127.25 61.67 127.72 59.68 127.47 59.86 126.70 60.11 126.00 60.44 125.37 60.84 124.82 61.31 124.34 61.85 123.94 62.43 123.63 63.06 123.40 63.75 123.27 64.48 123.22 64.99 123.25 65.49 123.31 65.97 123.42 66.43 123.58 66.88 123.77 67.30 124.01 67.68 124.28 68.01 124.58 68.31 124.91 68.56 125.27 68.77 125.66 68.93 126.05 69.05 126.46 69.12 126.87 69.14 127.29 69.12 127.69 69.05 128.07 68.94 128.44 68.78 128.80 68.58 129.14 68.34 129.45 68.06 129.75 67.73 130.01 67.36 130.25 66.95 130.46 67.49 130.62 67.97 130.84 68.41 131.11 68.79 131.44 69.12 131.83 69.39 132.26 69.61 132.74 69.76 133.26 69.85 133.82 69.88 134.43 69.82 135.25 69.63 136.01 69.33 136.73 68.90 137.39 68.35 138.01 67.71 138.53 67.00 138.95 66.23 139.24 65.39 139.42 64.49 139.47 63.68 139.42 62.93 139.27 62.23 139.02 61.59 138.67 61.00 138.22 60.50 137.69 60.08 137.10 59.77 136.45 59.55 135.74 59.42 134.97 Z M 86.06 132.97 L 86.06 130.97 92.54 130.97 92.53 136.96 91.91 137.43 91.27 137.86 90.64 138.24 89.99 138.56 89.33 138.84 88.67 139.07 88.00 139.25 87.33 139.37 86.64 139.45 85.95 139.47 85.03 139.43 84.15 139.31 83.30 139.11 82.48 138.83 81.70 138.47 80.97 138.03 80.32 137.52 79.75 136.94 79.24 136.28 78.82 135.56 78.47 134.78 78.20 133.96 78.00 133.11 77.89 132.22 77.85 131.30 77.89 130.38 78.01 129.49 78.20 128.62 78.47 127.77 78.82 126.95 79.25 126.19 79.74 125.51 80.30 124.91 80.92 124.39 81.62 123.96 82.37 123.60 83.16 123.33 84.00 123.13 84.88 123.01 85.81 122.97 86.49 123.00 87.14 123.07 87.76 123.18 88.36 123.34 88.93 123.54 89.46 123.79 89.94 124.07 90.38 124.39 90.77 124.74 91.11 125.13 91.41 125.56 91.68 126.04 91.92 126.56 92.13 127.14 92.31 127.77 90.47 128.29 90.32 127.84 90.15 127.43 89.97 127.06 89.78 126.73 89.57 126.44 89.33 126.19 89.06 125.95 88.75 125.74 88.40 125.55 88.02 125.38 87.61 125.23 87.17 125.12 86.73 125.04 86.26 124.99 85.78 124.97 85.21 124.99 84.66 125.04 84.15 125.13 83.68 125.25 83.23 125.41 82.82 125.59 82.44 125.80 82.09 126.02 81.77 126.27 81.49 126.54 81.24 126.83 81.01 127.12 80.81 127.43 80.62 127.75 80.47 128.08 80.24 128.67 80.07 129.28 79.94 129.91 79.87 130.55 79.84 131.22 79.87 132.03 79.96 132.78 80.11 133.48 80.32 134.12 80.59 134.71 80.91 135.24 81.29 135.72 81.73 136.13 82.22 136.49 82.76 136.79 83.34 137.04 83.93 137.23 84.54 137.37 85.16 137.45 85.79 137.47 86.35 137.45 86.90 137.39 87.45 137.29 87.99 137.15 88.52 136.96 89.03 136.75 89.48 136.54 89.89 136.32 90.24 136.10 90.54 135.87 90.54 132.97 Z M 95.76 139.22 L 95.78 123.22 97.77 123.22 97.77 129.72 106.23 129.72 106.24 123.22 108.23 123.22 108.21 139.22 106.22 139.22 106.23 131.72 97.76 131.72 97.76 139.22 Z M 110.20 139.22 L 110.21 137.34 117.09 129.47 116.64 129.47 116.21 129.47 115.80 129.47 115.42 129.47 115.05 129.47 110.71 129.47 110.71 127.47 119.92 127.47 119.92 129.17 113.82 136.15 112.89 137.22 113.37 137.22 113.84 137.22 114.30 137.22 114.75 137.22 115.19 137.22 120.16 137.22 120.16 139.22 Z" />
<polyline points="183.00 166.22 703.00 166.22" fill="none" stroke="rgb(0,0,0)" stroke-width="7" />
<polygon points="201 208 201 208 208 214 216 218 224 221 233 221 242 221 250 218 258 214 265 208 265 208" fill="rgb(0,0,0)" stroke="rgb(0,0,0)" stroke-width="2" />
<polygon points="201 208 233 166 265 208" fill="rgb(0,0,0)" stroke="rgb(0,0,0)" stroke-width="2" />
<polyline points="201.02 208.20 264.97 208.15" fill="none" stroke="rgb(0,0,0)" stroke-width="2" />
<polygon points="265 124 265 124 258 119 250 114 242 112 233 111 224 112 216 114 208 119 201 124 201 124" fill="rgb(0,0,0)" stroke="rgb(0,0,0)" stroke-width="2" />
<polygon points="265 124 233 166 201 124" fill="rgb(0,0,0)" stroke="rgb(0,0,0)" stroke-width="2" />
<polyline points="264.98 124.25 201.03 124.30" fill="none" stroke="rgb(0,0,0)" stroke-width="2" />
<polygon points="281 216 281 216 289 222 298 227 308 230 319 231 329 230 339 227 348 222 357 216 357 216" fill="rgb(0,0,0)" stroke="rgb(0,0,0)" stroke-width="2" />
<polygon points="281 216 319 166 357 216" fill="rgb(0,0,0)" stroke="rgb(0,0,0)" stroke-width="2" />
<polyline points="281.02 215.81 356.55 215.75" fill="none" stroke="rgb(0,0,0)" stroke-width="2" />
<polygon points="357 117 357 117 348 110 339 105 329 102 319 101 308 102 298 105 289 110 281 117 281 117" fill="rgb(0,0,0)" stroke="rgb(0,0,0)" stroke-width="2" />
<polygon points="357 117 319 166 281 117" fill="rgb(0,0,0)" stroke="rgb(0,0,0)" stroke-width="2" />
<polyline points="356.56 116.64 281.03 116.70" fill="none" stroke="rgb(0,0,0)" stroke-width="2" />
<polygon points="371 216 371 216 379 222 388 227 398 230 409 231 419 230 429 227 438 222 447 216 447 216" fill="rgb(0,0,0)" stroke="rgb(0,0,0)" stroke-width="2" />
<polygon points="371 216 409 166 447 216" fill="rgb(0,0,0)" stroke="rgb(0,0,0)" stroke-width="2" />
<polyline points="371.02 215.81 446.55 215.75" fill="none" stroke="rgb(0,0,0)" stroke-width="2" />
<polygon points="447 117 447 117 438 110 429 105 419 102 409 101 398 102 388 105 379 110 371 117 371 117" fill="rgb(0,0,0)" stroke="rgb(0,0,0)" stroke-width="2" />
<polygon points="447 117 409 166 371 117" fill="rgb(0,0,0)" stroke="rgb(0,0,0)" stroke-width="2" />
<polyline points="446.56 116.64 371.03 116.70" fill="none" stroke="rgb(0,0,0)" stroke-width="2" />
<polygon points="461 216 461 216 469 222 478 227 488 230 499 231 509 230 519 227 528 222 537 216 537 216" fill="rgb(0,0,0)" stroke="rgb(0,0,0)" stroke-width="2" />
<polygon points="461 216 499 166 537 216" fill="rgb(0,0,0)" stroke="rgb(0,0,0)" stroke-width="2" />
<polyline points="461.02 215.81 536.55 215.75" fill="none" stroke="rgb(0,0,0)" stroke-width="2" />
<polygon points="537 117 537 117 528 110 519 105 509 102 499 101 488 102 478 105 469 110 461 117 461 117" fill="rgb(0,0,0)" stroke="rgb(0,0,0)" stroke-width="2" />
<polygon points="537 117 499 166 461 117" fill="rgb(0,0,0)" stroke="rgb(0,0,0)" stroke-width="2" />
<polyline points="536.56 116.64 461.03 116.70" fill="none" stroke="rgb(0,0,0)" stroke-width="2" />
<polygon points="551 216 551 216 559 222 568 227 578 230 589 231 599 230 609 227 618 222 627 216 627 216" fill="rgb(0,0,0)" stroke="rgb(0,0,0)" stroke-width="2" />
<polygon points="551 216 589 166 627 216" fill="rgb(0,0,0)" stroke="rgb(0,0,0)" stroke-width="2" />
<polyline points="551.02 215.81 626.55 215.75" fill="none" stroke="rgb(0,0,0)" stroke-width="2" />
<polygon points="627 117 627 117 618 110 609 105 599 102 589 101 578 102 568 105 559 110 551 117 551 117" fill="rgb(0,0,0)" stroke="rgb(0,0,0)" stroke-width="2" />
<polygon points="627 117 589 166 551 117" fill="rgb(0,0,0)" stroke="rgb(0,0,0)" stroke-width="2" />
<polyline points="626.56 116.64 551.03 116.70" fill="none" stroke="rgb(0,0,0)" stroke-width="2" />
<polygon points="651 195 651 195 656 199 661 202 667 204 673 204 679 204 685 202 690 199 695 195 695 195" fill="rgb(0,0,0)" stroke="rgb(0,0,0)" stroke-width="2" />
<polygon points="651 195 673 166 695 195" fill="rgb(0,0,0)" stroke="rgb(0,0,0)" stroke-width="2" />
<polyline points="651.00 195.06 694.95 195.02" fill="none" stroke="rgb(0,0,0)" stroke-width="2" />
<polygon points="695 137 695 137 690 133 685 131 679 129 673 128 667 129 661 131 656 133 651 137 651 137" fill="rgb(0,0,0)" stroke="rgb(0,0,0)" stroke-width="2" />
<polygon points="695 137 673 166 651 137" fill="rgb(0,0,0)" stroke="rgb(0,0,0)" stroke-width="2" />
<polyline points="694.95 137.35 651.00 137.39" fill="none" stroke="rgb(0,0,0)" stroke-width="2" />
<polyline points="703.00 166.22 743.00 166.22 753.00 176.22 753.00 226.22" fill="none" stroke="rgb(0,0,0)" stroke-width="7" />
<polyline points="1323.00 166.22 843.00 166.22 833.00 176.22 833.00 226.22" fill="none" stroke="rgb(0,0,0)" stroke-width="7" />
<polyline points="1273.00 166.22 1391.00 166.22 1438.00 166.22" fill="none" stroke="rgb(0,0,0)" stroke-width="2" />
<circle cx="1372.96" cy="166.22" r="15.04" fill="none" stroke="rgb(0,0,0)" stroke-width="2" />
<polyline points="1373.00 181.22 1373.00 271.22" fill="none" stroke="rgb(0,0,0)" stroke-width="2" />
<path fill="rgb(0,0,0)" stroke="rgb(0,0,0)" stroke-width="2" d=" M 1393 275 L 1353 275 1353 285 1393 285 1393 275 Z" />
<polyline points="1373.00 245.22 1373.00 275.22" fill="none" stroke="rgb(0,0,0)" stroke-width="2" />
<polyline points="1439.00 166.22 1429.00 176.22" fill="none" stroke="rgb(0,0,0)" stroke-width="2" />
<polyline points="1439.00 166.22 1429.00 156.22" fill="none" stroke="rgb(0,0,0)" stroke-width="2" />
<circle cx="1373" cy="181" r="6" fill="rgb(0,0,0)" stroke="none" stroke-width="2" />
<circle cx="1373" cy="206" r="6" fill="rgb(0,0,0)" stroke="none" stroke-width="2" />
<polyline points="1373.00 206.22 1438.00 206.22" fill="none" stroke="rgb(0,0,0)" stroke-width="2" />
<path fill="rgb(0,0,0)" stroke="rgb(0,0,0)" stroke-width="0" d=" M 1365.00 115.22 L 1365.02 99.22 1367.02 99.22 1367.00 115.22 Z M 1371.00 115.22 L 1371.02 99.22 1381.77 99.22 1381.77 101.22 1373.02 101.22 1373.01 105.97 1380.51 105.97 1380.51 107.97 1373.01 107.97 1373.00 115.22 Z M 1383.75 115.22 L 1384.62 110.97 1382.75 110.97 1382.76 108.97 1385.03 108.97 1385.74 105.47 1382.76 105.47 1382.76 103.47 1386.15 103.47 1387.02 99.22 1389.04 99.22 1388.18 103.47 1391.12 103.47 1391.98 99.22 1394.02 99.22 1393.15 103.47 1395.01 103.47 1395.01 105.47 1392.74 105.47 1392.03 108.97 1395.01 108.97 1395.00 110.97 1391.62 110.97 1390.75 115.22 1388.72 115.22 1389.59 110.97 1386.65 110.97 1385.78 115.22 Z M 1387.06 108.97 L 1390.00 108.97 1390.71 105.47 1387.77 105.47 Z M 1406.25 113.22 L 1406.25 115.22 1395.75 115.22 1395.75 114.94 1395.78 114.66 1395.82 114.38 1395.88 114.11 1395.96 113.85 1396.14 113.41 1396.34 112.98 1396.59 112.56 1396.87 112.14 1397.18 111.72 1397.55 111.30 1397.99 110.86 1398.49 110.39 1399.06 109.91 1399.69 109.40 1400.66 108.58 1401.49 107.83 1402.18 107.16 1402.73 106.58 1403.15 106.07 1403.46 105.61 1403.70 105.15 1403.87 104.70 1403.98 104.25 1404.01 103.81 1403.98 103.39 1403.88 102.99 1403.72 102.63 1403.49 102.29 1403.20 101.97 1402.85 101.70 1402.47 101.49 1402.04 101.34 1401.58 101.25 1401.07 101.22 1400.54 101.25 1400.05 101.34 1399.61 101.49 1399.21 101.69 1398.86 101.96 1398.56 102.27 1398.32 102.63 1398.15 103.03 1398.05 103.48 1398.01 103.97 1396.01 103.72 1396.14 102.89 1396.36 102.14 1396.66 101.47 1397.06 100.88 1397.55 100.38 1398.12 99.96 1398.76 99.64 1399.47 99.41 1400.26 99.27 1401.12 99.22 1401.98 99.28 1402.78 99.43 1403.49 99.69 1404.13 100.04 1404.70 100.51 1405.17 101.04 1405.54 101.63 1405.80 102.27 1405.96 102.95 1406.01 103.69 1406.00 104.07 1405.95 104.45 1405.88 104.83 1405.78 105.21 1405.65 105.58 1405.49 105.96 1405.29 106.34 1405.06 106.74 1404.78 107.14 1404.47 107.54 1404.09 107.98 1403.62 108.48 1403.04 109.02 1402.37 109.63 1401.60 110.28 1400.95 110.81 1400.39 111.27 1399.93 111.66 1399.57 111.97 1399.30 112.21 1399.09 112.41 1398.89 112.61 1398.71 112.82 1398.55 113.02 1398.40 113.22 Z M 1414.51 109.35 L 1414.58 108.12 1414.79 107.02 1415.13 106.05 1415.62 105.22 1416.24 104.53 1416.85 104.06 1417.50 103.69 1418.20 103.43 1418.96 103.28 1419.77 103.22 1420.66 103.29 1421.48 103.48 1422.24 103.80 1422.92 104.24 1423.54 104.81 1424.07 105.49 1424.48 106.27 1424.77 107.14 1424.95 108.12 1425.01 109.19 1424.98 110.05 1424.90 110.84 1424.77 111.55 1424.59 112.19 1424.35 112.74 1424.07 113.24 1423.74 113.69 1423.36 114.09 1422.94 114.45 1422.46 114.76 1421.96 115.02 1421.43 115.22 1420.89 115.36 1420.33 115.45 1419.75 115.47 1418.85 115.41 1418.02 115.22 1417.26 114.91 1416.57 114.46 1415.95 113.90 1415.43 113.21 1415.03 112.41 1414.74 111.50 1414.56 110.48 1414.51 109.35 Z M 1416.51 109.35 L 1416.54 110.13 1416.65 110.84 1416.84 111.46 1417.10 111.99 1417.43 112.45 1417.82 112.82 1418.24 113.10 1418.71 113.31 1419.21 113.43 1419.75 113.47 1420.29 113.43 1420.79 113.31 1421.26 113.10 1421.69 112.81 1422.08 112.44 1422.41 111.98 1422.67 111.44 1422.86 110.81 1422.97 110.09 1423.01 109.28 1422.97 108.52 1422.86 107.84 1422.67 107.23 1422.41 106.70 1422.08 106.25 1421.69 105.88 1421.26 105.60 1420.80 105.39 1420.30 105.27 1419.77 105.22 1419.22 105.27 1418.72 105.39 1418.25 105.59 1417.83 105.88 1417.44 106.25 1417.10 106.70 1416.84 107.24 1416.66 107.86 1416.54 108.56 1416.51 109.35 Z M 1434.75 115.22 L 1434.75 113.21 1434.18 114.02 1433.54 114.66 1432.81 115.11 1432.02 115.38 1431.14 115.47 1430.74 115.46 1430.36 115.41 1429.98 115.33 1429.61 115.22 1429.26 115.08 1428.93 114.91 1428.63 114.73 1428.37 114.53 1428.15 114.31 1427.96 114.08 1427.80 113.83 1427.66 113.55 1427.55 113.26 1427.45 112.94 1427.37 112.60 1427.33 112.34 1427.30 112.03 1427.27 111.65 1427.26 111.23 1427.25 110.74 1427.26 103.47 1429.26 103.47 1429.25 109.80 1429.26 110.37 1429.27 110.85 1429.30 111.26 1429.33 111.59 1429.38 111.84 1429.47 112.13 1429.59 112.40 1429.75 112.64 1429.94 112.85 1430.16 113.04 1430.42 113.20 1430.69 113.32 1430.99 113.41 1431.31 113.46 1431.65 113.47 1432.00 113.46 1432.35 113.40 1432.68 113.31 1433.01 113.19 1433.32 113.03 1433.62 112.84 1433.88 112.62 1434.10 112.38 1434.28 112.11 1434.43 111.82 1434.55 111.48 1434.64 111.09 1434.70 110.65 1434.74 110.14 1434.76 109.59 1434.76 103.47 1436.76 103.47 1436.75 115.22 Z M 1443.75 113.56 L 1444.00 115.28 1443.67 115.35 1443.36 115.41 1443.06 115.44 1442.78 115.47 1442.50 115.47 1442.09 115.46 1441.72 115.42 1441.38 115.36 1441.09 115.26 1440.83 115.14 1440.60 115.00 1440.41 114.84 1440.24 114.67 1440.10 114.48 1439.99 114.27 1439.91 114.01 1439.84 113.65 1439.79 113.20 1439.76 112.65 1439.75 112.00 1439.76 105.47 1438.26 105.47 1438.26 103.47 1439.76 103.47 1439.77 100.62 1441.77 99.44 1441.76 103.47 1443.76 103.47 1443.76 105.47 1441.76 105.47 1441.75 111.94 1441.76 112.24 1441.77 112.49 1441.79 112.70 1441.82 112.86 1441.86 112.97 1441.91 113.06 1441.96 113.14 1442.03 113.22 1442.11 113.28 1442.20 113.34 1442.30 113.39 1442.42 113.43 1442.56 113.45 1442.71 113.47 1442.88 113.47 1443.02 113.48 1443.18 113.49 1443.35 113.50 1443.54 113.53 1443.75 113.56 Z" />
<path fill="rgb(0,0,0)" stroke="rgb(0,0,0)" stroke-width="0" d=" M 1364.01 126.47 L 1364.01 124.47 1374.44 124.47 1374.44 126.09 1373.85 126.79 1373.25 127.57 1372.66 128.43 1372.07 129.37 1371.48 130.39 1370.92 131.47 1370.41 132.55 1369.96 133.65 1369.56 134.76 1369.21 135.88 1368.99 136.69 1368.81 137.53 1368.66 138.39 1368.55 139.29 1368.47 140.22 1366.48 140.22 1366.52 139.45 1366.62 138.61 1366.78 137.70 1367.00 136.74 1367.27 135.71 1367.60 134.66 1367.99 133.63 1368.42 132.61 1368.91 131.60 1369.45 130.61 1370.02 129.66 1370.61 128.77 1371.21 127.95 1371.83 127.18 1372.46 126.47 Z M 1376.18 132.35 L 1376.20 131.27 1376.27 130.26 1376.39 129.34 1376.56 128.51 1376.77 127.75 1377.02 127.07 1377.33 126.47 1377.67 125.94 1378.07 125.48 1378.50 125.10 1378.99 124.78 1379.52 124.54 1380.10 124.36 1380.73 124.26 1381.40 124.22 1381.91 124.25 1382.39 124.31 1382.86 124.41 1383.30 124.55 1383.72 124.74 1384.12 124.97 1384.48 125.23 1384.80 125.52 1385.08 125.86 1385.33 126.23 1385.55 126.63 1385.75 127.07 1385.94 127.55 1386.10 128.05 1386.26 128.59 1386.39 129.19 1386.49 129.87 1386.56 130.62 1386.60 131.45 1386.61 132.35 1386.59 133.43 1386.52 134.43 1386.40 135.35 1386.24 136.18 1386.03 136.94 1385.77 137.61 1385.47 138.22 1385.13 138.75 1384.73 139.21 1384.30 139.60 1383.81 139.91 1383.28 140.16 1382.70 140.33 1382.07 140.44 1381.39 140.47 1380.50 140.41 1379.69 140.23 1378.97 139.93 1378.32 139.50 1377.75 138.95 1377.18 138.01 1376.74 136.88 1376.43 135.56 1376.24 134.05 1376.18 132.35 Z M 1378.16 132.35 L 1378.20 133.77 1378.31 134.97 1378.50 135.97 1378.76 136.75 1379.09 137.32 1379.48 137.73 1379.90 138.06 1380.36 138.29 1380.86 138.43 1381.39 138.47 1381.92 138.43 1382.41 138.29 1382.87 138.06 1383.30 137.73 1383.69 137.31 1384.02 136.74 1384.28 135.96 1384.47 134.97 1384.59 133.76 1384.62 132.35 1384.59 130.97 1384.48 129.79 1384.30 128.81 1384.05 128.02 1383.73 127.44 1383.35 127.00 1382.92 126.66 1382.45 126.42 1381.94 126.27 1381.38 126.22 1380.85 126.27 1380.36 126.40 1379.91 126.61 1379.50 126.91 1379.13 127.30 1378.78 127.94 1378.51 128.76 1378.32 129.77 1378.20 130.97 1378.16 132.35 Z M 1395.30 140.22 L 1395.32 124.22 1398.74 124.22 1401.98 135.50 1402.15 136.10 1402.30 136.63 1402.43 137.11 1402.54 137.51 1402.63 137.86 1402.74 137.48 1402.86 137.03 1403.00 136.52 1403.16 135.95 1403.34 135.31 1406.56 124.22 1409.98 124.22 1409.96 140.22 1407.97 140.22 1407.99 126.22 1403.98 140.22 1401.28 140.22 1397.30 126.22 1397.29 140.22 Z M 1413.69 140.22 L 1413.70 124.22 1415.69 124.22 1415.69 130.72 1424.13 130.72 1424.14 124.22 1426.13 124.22 1426.11 140.22 1424.12 140.22 1424.13 132.72 1415.68 132.72 1415.67 140.22 Z M 1428.10 140.22 L 1428.10 138.34 1434.97 130.47 1434.52 130.47 1434.09 130.47 1433.69 130.47 1433.30 130.47 1432.94 130.47 1428.61 130.47 1428.61 128.47 1437.80 128.47 1437.80 130.17 1431.71 137.15 1430.78 138.22 1431.26 138.22 1431.73 138.22 1432.19 138.22 1432.64 138.22 1433.08 138.22 1438.04 138.22 1438.04 140.22 Z" />
<polyline points="948.00 516.22 1026.00 516.22 1073.00 516.22" fill="none" stroke="rgb(0,0,0)" stroke-width="2" />
<circle cx="1008.00" cy="516.22" r="15.00" fill="none" stroke="rgb(0,0,0)" stroke-width="2" />
<polyline points="1008.00 501.22 1008.00 436.22" fill="none" stroke="rgb(0,0,0)" stroke-width="2" />
<path fill="rgb(0,0,0)" stroke="rgb(0,0,0)" stroke-width="2" d=" M 1028 436 L 988 436 988 426 1028 426 1028 436 Z" />
<polyline points="1008.00 466.22 1008.00 436.22" fill="none" stroke="rgb(0,0,0)" stroke-width="2" />
<polyline points="1073.00 516.22 1083.00 526.22" fill="none" stroke="rgb(0,0,0)" stroke-width="2" />
<polyline points="1073.00 516.22 1083.00 506.22" fill="none" stroke="rgb(0,0,0)" stroke-width="2" />
<circle cx="1008" cy="501" r="6" fill="rgb(0,0,0)" stroke="none" stroke-width="2" />
<circle cx="1008" cy="476" r="6" fill="rgb(0,0,0)" stroke="none" stroke-width="2" />
<polyline points="1008.00 476.22 1073.00 476.22" fill="none" stroke="rgb(0,0,0)" stroke-width="2" />
<path fill="rgb(0,0,0)" stroke="rgb(0,0,0)" stroke-width="0" d=" M 1100.60 504.22 L 1100.62 488.22 1102.62 488.22 1102.61 502.22 1110.61 502.22 1110.60 504.22 Z M 1112.11 496.44 L 1112.20 494.92 1112.46 493.54 1112.88 492.29 1113.48 491.19 1114.25 490.22 1115.15 489.41 1116.16 488.78 1117.26 488.33 1118.46 488.06 1119.76 487.97 1120.62 488.02 1121.45 488.14 1122.25 488.35 1123.01 488.65 1123.74 489.03 1124.41 489.48 1125.02 490.01 1125.56 490.59 1126.03 491.25 1126.44 491.97 1126.77 492.75 1127.03 493.56 1127.22 494.42 1127.33 495.31 1127.36 496.25 1127.32 497.20 1127.20 498.11 1127.01 498.98 1126.73 499.81 1126.38 500.59 1125.95 501.32 1125.46 501.97 1124.91 502.55 1124.29 503.06 1123.60 503.49 1122.87 503.84 1122.12 504.12 1121.35 504.32 1120.55 504.44 1119.73 504.47 1118.85 504.43 1118.01 504.30 1117.20 504.08 1116.44 503.78 1115.71 503.39 1115.03 502.92 1114.43 502.39 1113.89 501.80 1113.42 501.14 1113.02 500.42 1112.70 499.66 1112.44 498.88 1112.26 498.08 1112.15 497.27 1112.11 496.44 Z M 1114.11 496.46 L 1114.17 497.53 1114.37 498.51 1114.68 499.39 1115.13 500.17 1115.71 500.87 1116.38 501.44 1117.11 501.90 1117.92 502.22 1118.78 502.41 1119.72 502.47 1120.67 502.41 1121.55 502.21 1122.36 501.89 1123.10 501.43 1123.77 500.85 1124.34 500.15 1124.79 499.33 1125.11 498.41 1125.30 497.38 1125.36 496.24 1125.34 495.50 1125.26 494.80 1125.12 494.14 1124.93 493.52 1124.69 492.94 1124.39 492.40 1124.04 491.91 1123.65 491.47 1123.20 491.09 1122.70 490.75 1122.17 490.47 1121.61 490.25 1121.02 490.10 1120.41 490.01 1119.77 489.97 1118.87 490.03 1118.02 490.21 1117.22 490.51 1116.48 490.93 1115.79 491.47 1115.18 492.15 1114.72 492.98 1114.38 493.98 1114.18 495.14 1114.11 496.46 Z M 1139.61 502.22 L 1139.60 504.22 1129.10 504.22 1129.11 503.94 1129.13 503.66 1129.17 503.38 1129.24 503.11 1129.32 502.85 1129.49 502.41 1129.70 501.98 1129.94 501.56 1130.22 501.14 1130.54 500.72 1130.91 500.30 1131.34 499.86 1131.84 499.39 1132.41 498.91 1133.05 498.40 1134.01 497.58 1134.84 496.83 1135.53 496.16 1136.09 495.58 1136.50 495.07 1136.81 494.61 1137.05 494.15 1137.23 493.70 1137.33 493.25 1137.37 492.81 1137.33 492.39 1137.24 491.99 1137.07 491.63 1136.85 491.29 1136.55 490.97 1136.21 490.70 1135.82 490.49 1135.40 490.34 1134.93 490.25 1134.43 490.22 1133.90 490.25 1133.41 490.34 1132.96 490.49 1132.56 490.69 1132.21 490.96 1131.91 491.27 1131.68 491.63 1131.51 492.03 1131.40 492.48 1131.37 492.97 1129.37 492.72 1129.49 491.89 1129.71 491.14 1130.02 490.47 1130.42 489.88 1130.90 489.38 1131.47 488.96 1132.11 488.64 1132.83 488.41 1133.61 488.27 1134.47 488.22 1135.34 488.28 1136.13 488.43 1136.85 488.69 1137.49 489.04 1138.05 489.51 1138.53 490.04 1138.89 490.63 1139.16 491.27 1139.31 491.95 1139.37 492.69 1139.35 493.07 1139.31 493.45 1139.24 493.83 1139.14 494.21 1139.01 494.58 1138.85 494.96 1138.65 495.34 1138.41 495.74 1138.14 496.14 1137.82 496.54 1137.45 496.98 1136.97 497.48 1136.40 498.02 1135.72 498.63 1134.96 499.28 1134.30 499.81 1133.75 500.27 1133.29 500.66 1132.92 500.97 1132.66 501.21 1132.44 501.41 1132.25 501.61 1132.07 501.82 1131.90 502.02 1131.75 502.22 Z M 1148.37 490.22 L 1148.37 488.22 1150.37 488.22 1150.37 490.22 Z M 1148.35 504.22 L 1148.37 492.47 1150.37 492.47 1150.35 504.22 Z M 1153.35 504.22 L 1153.37 492.47 1155.37 492.47 1155.37 494.12 1155.91 493.43 1156.54 492.91 1157.27 492.53 1158.08 492.30 1158.98 492.22 1159.39 492.24 1159.78 492.29 1160.16 492.36 1160.52 492.47 1160.87 492.61 1161.20 492.77 1161.49 492.95 1161.75 493.15 1161.97 493.37 1162.16 493.61 1162.32 493.86 1162.46 494.14 1162.58 494.43 1162.68 494.75 1162.76 495.08 1162.79 495.33 1162.82 495.65 1162.85 496.04 1162.86 496.49 1162.86 497.01 1162.85 504.22 1160.85 504.22 1160.86 497.28 1160.85 496.83 1160.83 496.43 1160.78 496.07 1160.72 495.77 1160.63 495.51 1160.53 495.29 1160.39 495.08 1160.23 494.89 1160.04 494.72 1159.82 494.57 1159.58 494.45 1159.32 494.35 1159.05 494.28 1158.76 494.24 1158.45 494.22 1157.96 494.26 1157.50 494.35 1157.06 494.51 1156.66 494.73 1156.28 495.01 1155.95 495.38 1155.69 495.86 1155.51 496.46 1155.40 497.17 1155.36 497.99 1155.35 504.22 Z" />
<path fill="rgb(0,0,0)" stroke="rgb(0,0,0)" stroke-width="0" d=" M 1105.11 529.22 L 1105.12 525.47 1097.90 525.47 1097.90 523.47 1105.63 513.47 1107.12 513.47 1107.11 523.47 1109.10 523.47 1109.10 525.47 1107.11 525.47 1107.10 529.22 Z M 1105.12 523.47 L 1105.12 517.30 1100.35 523.47 Z M 1111.83 529.22 L 1111.84 527.22 1113.83 527.22 1113.83 529.22 Z M 1127.27 527.22 L 1127.27 529.22 1116.81 529.22 1116.82 528.94 1116.84 528.66 1116.88 528.38 1116.94 528.11 1117.03 527.85 1117.20 527.41 1117.40 526.98 1117.65 526.56 1117.93 526.14 1118.24 525.72 1118.61 525.30 1119.04 524.86 1119.54 524.39 1120.11 523.91 1120.74 523.40 1121.70 522.58 1122.53 521.83 1123.21 521.16 1123.77 520.58 1124.18 520.07 1124.49 519.61 1124.73 519.15 1124.90 518.70 1125.01 518.25 1125.04 517.81 1125.01 517.39 1124.91 516.99 1124.75 516.63 1124.52 516.29 1124.23 515.97 1123.89 515.70 1123.50 515.49 1123.08 515.34 1122.62 515.25 1122.12 515.22 1121.59 515.25 1121.10 515.34 1120.66 515.49 1120.26 515.69 1119.91 515.96 1119.61 516.27 1119.37 516.63 1119.21 517.03 1119.10 517.48 1119.07 517.97 1117.07 517.72 1117.20 516.89 1117.42 516.14 1117.72 515.47 1118.12 514.88 1118.60 514.38 1119.17 513.96 1119.81 513.64 1120.52 513.41 1121.30 513.27 1122.16 513.22 1123.02 513.28 1123.81 513.43 1124.52 513.69 1125.16 514.04 1125.72 514.51 1126.20 515.04 1126.56 515.63 1126.82 516.27 1126.98 516.95 1127.03 517.69 1127.02 518.07 1126.98 518.45 1126.90 518.83 1126.80 519.21 1126.68 519.58 1126.52 519.96 1126.32 520.34 1126.08 520.74 1125.81 521.14 1125.50 521.54 1125.12 521.98 1124.65 522.48 1124.07 523.02 1123.41 523.63 1122.64 524.28 1121.99 524.81 1121.44 525.27 1120.98 525.66 1120.62 525.97 1120.35 526.21 1120.14 526.41 1119.94 526.61 1119.76 526.82 1119.60 527.02 1119.45 527.22 Z M 1129.27 524.97 L 1131.26 524.72 1131.41 525.28 1131.60 525.76 1131.82 526.18 1132.07 526.54 1132.35 526.83 1132.68 527.06 1133.04 527.24 1133.46 527.37 1133.91 527.45 1134.41 527.47 1134.99 527.44 1135.52 527.33 1136.01 527.16 1136.44 526.91 1136.83 526.59 1137.15 526.22 1137.41 525.81 1137.59 525.37 1137.69 524.90 1137.73 524.39 1137.69 523.91 1137.59 523.46 1137.41 523.05 1137.16 522.67 1136.84 522.32 1136.47 522.03 1136.05 521.80 1135.60 521.64 1135.11 521.54 1134.58 521.51 1134.34 521.51 1134.09 521.54 1133.81 521.58 1133.51 521.65 1133.18 521.72 1133.41 519.72 1133.48 519.73 1133.55 519.74 1133.62 519.74 1133.68 519.75 1133.73 519.75 1134.22 519.73 1134.69 519.66 1135.14 519.54 1135.57 519.38 1135.99 519.17 1136.35 518.92 1136.63 518.62 1136.83 518.26 1136.95 517.86 1136.99 517.41 1136.96 517.04 1136.87 516.70 1136.73 516.39 1136.53 516.10 1136.26 515.84 1135.96 515.62 1135.62 515.45 1135.24 515.32 1134.83 515.25 1134.39 515.22 1133.95 515.25 1133.54 515.32 1133.16 515.45 1132.81 515.62 1132.49 515.85 1132.21 516.12 1131.97 516.45 1131.77 516.82 1131.62 517.25 1131.51 517.72 1129.52 517.47 1129.70 516.70 1129.96 516.00 1130.28 515.37 1130.68 514.82 1131.16 514.34 1131.69 513.94 1132.27 513.63 1132.91 513.40 1133.59 513.27 1134.32 513.22 1134.83 513.25 1135.33 513.31 1135.81 513.42 1136.28 513.58 1136.72 513.77 1137.14 514.01 1137.52 514.28 1137.86 514.58 1138.15 514.91 1138.40 515.27 1138.61 515.66 1138.78 516.05 1138.89 516.46 1138.96 516.87 1138.98 517.29 1138.96 517.69 1138.89 518.07 1138.78 518.44 1138.63 518.80 1138.43 519.14 1138.18 519.45 1137.90 519.75 1137.57 520.01 1137.20 520.25 1136.79 520.46 1137.33 520.62 1137.81 520.84 1138.25 521.11 1138.63 521.44 1138.96 521.83 1139.24 522.26 1139.45 522.74 1139.60 523.26 1139.69 523.82 1139.72 524.43 1139.66 525.25 1139.48 526.01 1139.17 526.73 1138.74 527.39 1138.19 528.01 1137.55 528.53 1136.84 528.95 1136.07 529.24 1135.24 529.42 1134.34 529.47 1133.52 529.42 1132.77 529.27 1132.07 529.02 1131.43 528.67 1130.85 528.22 1130.34 527.69 1129.93 527.10 1129.61 526.45 1129.39 525.74 1129.27 524.97 Z M 1155.91 522.97 L 1155.91 520.97 1162.38 520.97 1162.38 526.96 1161.75 527.43 1161.12 527.86 1160.48 528.24 1159.83 528.56 1159.18 528.84 1158.51 529.07 1157.84 529.25 1157.17 529.37 1156.49 529.45 1155.80 529.47 1154.88 529.43 1153.99 529.31 1153.14 529.11 1152.33 528.83 1151.54 528.47 1150.82 528.03 1150.16 527.52 1149.59 526.94 1149.09 526.28 1148.66 525.56 1148.31 524.78 1148.04 523.96 1147.85 523.11 1147.73 522.22 1147.69 521.30 1147.73 520.38 1147.85 519.49 1148.04 518.62 1148.32 517.77 1148.67 516.95 1149.09 516.19 1149.58 515.51 1150.14 514.91 1150.77 514.39 1151.46 513.96 1152.21 513.60 1153.00 513.33 1153.84 513.13 1154.73 513.01 1155.65 512.97 1156.33 513.00 1156.98 513.07 1157.60 513.18 1158.20 513.34 1158.77 513.54 1159.30 513.79 1159.79 514.07 1160.22 514.39 1160.61 514.74 1160.95 515.13 1161.25 515.56 1161.53 516.04 1161.77 516.56 1161.97 517.14 1162.15 517.77 1160.32 518.29 1160.16 517.84 1160.00 517.43 1159.82 517.06 1159.62 516.73 1159.41 516.44 1159.18 516.19 1158.90 515.95 1158.59 515.74 1158.25 515.55 1157.86 515.38 1157.45 515.23 1157.02 515.12 1156.57 515.04 1156.11 514.99 1155.62 514.97 1155.05 514.99 1154.51 515.04 1154.00 515.13 1153.52 515.25 1153.07 515.41 1152.66 515.59 1152.28 515.80 1151.93 516.02 1151.62 516.27 1151.34 516.54 1151.08 516.83 1150.85 517.12 1150.65 517.43 1150.47 517.75 1150.31 518.08 1150.08 518.67 1149.91 519.28 1149.78 519.91 1149.71 520.55 1149.68 521.22 1149.71 522.03 1149.80 522.78 1149.95 523.48 1150.16 524.12 1150.43 524.71 1150.76 525.24 1151.14 525.72 1151.57 526.13 1152.06 526.49 1152.60 526.79 1153.18 527.04 1153.77 527.23 1154.38 527.37 1155.00 527.45 1155.64 527.47 1156.19 527.45 1156.74 527.39 1157.29 527.29 1157.83 527.15 1158.36 526.96 1158.87 526.75 1159.33 526.54 1159.73 526.32 1160.08 526.10 1160.38 525.87 1160.39 522.97 Z M 1165.61 529.22 L 1165.62 513.22 1167.61 513.22 1167.61 519.72 1176.07 519.72 1176.08 513.22 1178.07 513.22 1178.05 529.22 1176.06 529.22 1176.07 521.72 1167.61 521.72 1167.60 529.22 Z M 1180.05 529.22 L 1180.05 527.34 1186.93 519.47 1186.48 519.47 1186.05 519.47 1185.65 519.47 1185.26 519.47 1184.90 519.47 1180.56 519.47 1180.56 517.47 1189.77 517.47 1189.77 519.17 1183.66 526.15 1182.73 527.22 1183.21 527.22 1183.69 527.22 1184.15 527.22 1184.60 527.22 1185.03 527.22 1190.01 527.22 1190.00 529.22 Z" />
<polygon points="1087 71 1087 71 1072 58 1055 49 1037 43 1019 41 1000 43 982 49 966 58 951 71 951 71" fill="rgb(0,0,0)" stroke="rgb(0,0,0)" stroke-width="2" />
<polygon points="1087 71 1019 167 951 71" fill="rgb(0,0,0)" stroke="rgb(0,0,0)" stroke-width="2" />
<polyline points="1086.56 71.14 951.04 71.25" fill="none" stroke="rgb(0,0,0)" stroke-width="2" />
<polygon points="951 262 951 262 966 275 982 285 1000 290 1019 292 1037 290 1055 285 1072 275 1087 262 1087 262" fill="rgb(0,0,0)" stroke="rgb(0,0,0)" stroke-width="2" />
<polygon points="951 262 1019 167 1087 262" fill="rgb(0,0,0)" stroke="rgb(0,0,0)" stroke-width="2" />
<polyline points="951.02 262.19 1086.54 262.08" fill="none" stroke="rgb(0,0,0)" stroke-width="2" />
<polygon points="1277 71 1277 71 1262 58 1245 49 1227 43 1209 41 1190 43 1172 49 1156 58 1141 71 1141 71" fill="rgb(0,0,0)" stroke="rgb(0,0,0)" stroke-width="2" />
<polygon points="1277 71 1209 167 1141 71" fill="rgb(0,0,0)" stroke="rgb(0,0,0)" stroke-width="2" />
<polyline points="1276.56 71.14 1141.04 71.25" fill="none" stroke="rgb(0,0,0)" stroke-width="2" />
<polygon points="1141 262 1141 262 1156 275 1172 285 1190 290 1209 292 1227 290 1245 285 1262 275 1277 262 1277 262" fill="rgb(0,0,0)" stroke="rgb(0,0,0)" stroke-width="2" />
<polygon points="1141 262 1209 167 1277 262" fill="rgb(0,0,0)" stroke="rgb(0,0,0)" stroke-width="2" />
<polyline points="1141.02 262.19 1276.54 262.08" fill="none" stroke="rgb(0,0,0)" stroke-width="2" />
<path fill="rgb(0,0,0)" stroke="rgb(0,0,0)" stroke-width="0" d=" M 1037.49 341.62 L 1037.51 322.42 1039.90 322.42 1039.89 339.22 1049.46 339.22 1049.45 341.62 Z M 1052.14 341.62 L 1052.16 322.42 1059.25 322.42 1059.96 322.43 1060.61 322.45 1061.18 322.48 1061.68 322.54 1062.11 322.60 1062.65 322.71 1063.15 322.86 1063.61 323.04 1064.04 323.25 1064.43 323.50 1064.79 323.79 1065.12 324.11 1065.42 324.49 1065.70 324.90 1065.94 325.36 1066.14 325.84 1066.30 326.35 1066.41 326.87 1066.48 327.41 1066.50 327.97 1066.44 328.92 1066.26 329.81 1065.95 330.64 1065.52 331.41 1064.96 332.12 1064.25 332.73 1063.33 333.21 1062.22 333.55 1060.91 333.75 1059.40 333.82 1054.54 333.82 1054.53 341.62 Z M 1054.54 331.42 L 1059.55 331.42 1060.48 331.38 1061.30 331.28 1062.00 331.10 1062.59 330.85 1063.07 330.54 1063.45 330.16 1063.74 329.72 1063.95 329.22 1064.07 328.67 1064.11 328.06 1064.09 327.61 1064.02 327.18 1063.89 326.78 1063.72 326.41 1063.50 326.07 1063.24 325.76 1062.95 325.50 1062.63 325.28 1062.27 325.11 1061.89 324.98 1061.59 324.92 1061.20 324.88 1060.72 324.85 1060.15 324.83 1059.50 324.82 1054.55 324.82 Z M 1069.78 341.62 L 1069.80 322.42 1082.65 322.42 1082.65 324.82 1072.19 324.82 1072.18 330.52 1081.15 330.52 1081.15 332.92 1072.18 332.92 1072.17 341.62 Z M 1101.47 341.62 L 1099.07 341.62 1099.09 326.66 1098.72 326.98 1098.31 327.30 1097.86 327.63 1097.36 327.95 1096.82 328.28 1096.27 328.58 1095.75 328.86 1095.24 329.10 1094.76 329.31 1094.31 329.49 1094.31 327.22 1095.09 326.83 1095.83 326.41 1096.53 325.96 1097.19 325.48 1097.81 324.97 1098.38 324.45 1098.88 323.93 1099.30 323.42 1099.66 322.92 1099.94 322.42 1101.48 322.42 Z M 1108.34 341.62 L 1108.35 339.22 1110.74 339.22 1110.73 341.62 Z M 1114.62 336.52 L 1117.01 336.22 1117.15 336.84 1117.34 337.40 1117.58 337.90 1117.87 338.33 1118.22 338.69 1118.61 338.99 1119.06 339.22 1119.56 339.39 1120.11 339.49 1120.71 339.52 1121.45 339.47 1122.12 339.33 1122.72 339.10 1123.25 338.78 1123.72 338.37 1124.10 337.88 1124.40 337.33 1124.62 336.72 1124.74 336.05 1124.79 335.31 1124.75 334.62 1124.63 333.99 1124.43 333.42 1124.15 332.91 1123.79 332.46 1123.35 332.09 1122.82 331.80 1122.22 331.59 1121.53 331.46 1120.76 331.42 1120.27 331.44 1119.82 331.49 1119.40 331.57 1119.01 331.69 1118.66 331.84 1118.34 332.01 1118.05 332.21 1117.78 332.43 1117.54 332.66 1117.32 332.92 1114.93 332.62 1117.03 322.72 1126.30 322.72 1126.30 325.12 1118.96 325.12 1117.93 330.41 1118.61 329.91 1119.30 329.52 1119.99 329.24 1120.71 329.07 1121.43 329.02 1122.37 329.09 1123.25 329.29 1124.07 329.64 1124.82 330.12 1125.52 330.74 1126.12 331.47 1126.58 332.27 1126.92 333.16 1127.11 334.12 1127.18 335.16 1127.12 336.17 1126.94 337.11 1126.64 338.00 1126.22 338.84 1125.67 339.62 1124.89 340.45 1124.01 341.09 1123.01 341.55 1121.91 341.83 1120.70 341.92 1119.71 341.86 1118.79 341.68 1117.94 341.39 1117.18 340.97 1116.49 340.44 1115.89 339.81 1115.41 339.10 1115.03 338.32 1114.77 337.46 1114.62 336.52 Z M 1146.61 334.12 L 1146.61 331.72 1154.39 331.72 1154.38 338.90 1153.63 339.47 1152.87 339.98 1152.10 340.43 1151.33 340.83 1150.54 341.16 1149.74 341.43 1148.94 341.65 1148.13 341.80 1147.31 341.89 1146.48 341.92 1145.38 341.87 1144.32 341.73 1143.29 341.48 1142.31 341.15 1141.38 340.71 1140.50 340.19 1139.72 339.57 1139.03 338.87 1138.43 338.09 1137.91 337.22 1137.49 336.28 1137.17 335.30 1136.94 334.28 1136.80 333.22 1136.75 332.11 1136.80 331.01 1136.94 329.93 1137.17 328.89 1137.50 327.88 1137.92 326.89 1138.43 325.97 1139.02 325.16 1139.69 324.44 1140.44 323.82 1141.28 323.30 1142.18 322.87 1143.13 322.54 1144.14 322.31 1145.20 322.17 1146.31 322.12 1147.12 322.15 1147.90 322.23 1148.65 322.36 1149.37 322.56 1150.05 322.80 1150.69 323.09 1151.27 323.43 1151.80 323.81 1152.27 324.23 1152.67 324.70 1153.04 325.22 1153.36 325.79 1153.65 326.43 1153.90 327.12 1154.12 327.88 1151.91 328.50 1151.73 327.96 1151.53 327.46 1151.31 327.02 1151.07 326.62 1150.82 326.28 1150.54 325.97 1150.21 325.69 1149.84 325.43 1149.42 325.20 1148.96 325.00 1148.47 324.83 1147.95 324.69 1147.41 324.60 1146.85 324.54 1146.27 324.52 1145.58 324.54 1144.93 324.60 1144.32 324.71 1143.75 324.85 1143.21 325.04 1142.71 325.26 1142.26 325.50 1141.84 325.77 1141.46 326.07 1141.13 326.40 1140.82 326.74 1140.55 327.10 1140.30 327.47 1140.08 327.85 1139.89 328.25 1139.62 328.95 1139.41 329.68 1139.26 330.44 1139.17 331.21 1139.14 332.01 1139.18 332.98 1139.28 333.88 1139.46 334.72 1139.71 335.49 1140.04 336.20 1140.43 336.84 1140.89 337.41 1141.41 337.91 1142.00 338.34 1142.65 338.70 1143.34 339.00 1144.05 339.22 1144.78 339.39 1145.53 339.49 1146.29 339.52 1146.96 339.49 1147.62 339.42 1148.28 339.30 1148.92 339.12 1149.57 338.90 1150.17 338.65 1150.72 338.40 1151.21 338.13 1151.63 337.86 1151.99 337.59 1151.99 334.12 Z M 1158.26 341.62 L 1158.28 322.42 1160.67 322.42 1160.67 330.22 1170.83 330.22 1170.84 322.42 1173.23 322.42 1173.21 341.62 1170.82 341.62 1170.83 332.62 1160.66 332.62 1160.65 341.62 Z M 1175.60 341.62 L 1175.61 339.36 1183.87 329.92 1183.33 329.92 1182.81 329.92 1182.33 329.92 1181.86 329.92 1181.43 329.92 1176.21 329.92 1176.21 327.52 1187.27 327.52 1187.27 329.56 1179.94 337.93 1178.82 339.22 1179.41 339.22 1179.97 339.22 1180.53 339.22 1181.06 339.22 1181.59 339.22 1187.56 339.22 1187.56 341.62 Z" />
<path fill="rgb(255,255,255)" stroke="rgb(0,0,0)" stroke-width="2" d=" M 913 266 L 913 426 713 426 713 266 913 266 Z" />
<polyline points="873.00 266.22 873.00 226.22" fill="none" stroke="rgb(0,0,0)" stroke-width="2" />
<path fill="rgb(0,0,0)" stroke="rgb(0,0,0)" stroke-width="0" d=" M 871.59 284.78 L 873.59 284.78 873.59 291.28 867.61 291.27 867.13 290.64 866.70 290.01 866.33 289.37 866.00 288.72 865.72 288.06 865.49 287.39 865.32 286.72 865.19 286.04 865.11 285.36 865.09 284.67 865.13 283.74 865.25 282.85 865.45 282.00 865.73 281.18 866.09 280.39 866.53 279.66 867.04 279.01 867.63 278.43 868.28 277.93 869.01 277.50 869.79 277.15 870.60 276.88 871.45 276.68 872.34 276.56 873.26 276.53 874.18 276.57 875.08 276.68 875.95 276.88 876.79 277.15 877.61 277.51 878.38 277.93 879.06 278.42 879.66 278.98 880.17 279.61 880.61 280.31 880.96 281.06 881.24 281.86 881.43 282.70 881.55 283.59 881.59 284.52 881.57 285.20 881.50 285.85 881.38 286.48 881.23 287.08 881.02 287.65 880.78 288.19 880.49 288.67 880.18 289.11 879.83 289.50 879.44 289.84 879.01 290.15 878.53 290.42 878.00 290.66 877.42 290.87 876.79 291.05 876.27 289.21 876.73 289.05 877.14 288.88 877.51 288.70 877.83 288.51 878.12 288.30 878.38 288.06 878.61 287.79 878.83 287.47 879.02 287.13 879.19 286.74 879.33 286.32 879.44 285.89 879.52 285.44 879.57 284.98 879.59 284.49 879.57 283.91 879.52 283.37 879.43 282.86 879.31 282.38 879.16 281.93 878.97 281.51 878.77 281.13 878.54 280.78 878.29 280.47 878.02 280.19 877.74 279.93 877.44 279.70 877.13 279.50 876.81 279.31 876.48 279.15 875.89 278.93 875.29 278.75 874.66 278.63 874.01 278.55 873.34 278.53 872.54 278.56 871.79 278.65 871.09 278.80 870.45 279.01 869.86 279.28 869.32 279.60 868.85 279.99 868.43 280.42 868.07 280.91 867.77 281.46 867.53 282.04 867.33 282.63 867.20 283.24 867.12 283.87 867.09 284.51 867.11 285.06 867.17 285.62 867.27 286.17 867.42 286.71 867.60 287.24 867.81 287.75 868.02 288.21 868.24 288.62 868.47 288.97 868.70 289.27 871.59 289.28 Z M 865.34 294.52 L 881.34 294.53 881.34 296.67 868.66 305.02 881.34 305.03 881.34 307.03 865.34 307.02 865.34 304.88 878.02 296.53 865.34 296.52 Z M 865.34 310.52 L 881.34 310.53 881.34 316.05 881.33 316.77 881.30 317.41 881.26 317.98 881.19 318.48 881.11 318.91 880.96 319.44 880.77 319.94 880.54 320.42 880.27 320.85 879.96 321.26 879.51 321.74 879.01 322.17 878.47 322.55 877.87 322.88 877.23 323.15 876.54 323.38 875.82 323.55 875.06 323.68 874.26 323.75 873.42 323.78 872.71 323.76 872.03 323.71 871.39 323.62 870.78 323.50 870.20 323.35 869.65 323.17 869.15 322.97 868.68 322.75 868.25 322.51 867.87 322.25 867.51 321.98 867.19 321.69 866.90 321.40 866.64 321.10 866.42 320.79 866.21 320.46 866.03 320.10 865.87 319.72 865.73 319.31 865.61 318.88 865.51 318.41 865.44 317.93 865.38 317.41 865.35 316.87 865.34 316.30 Z M 867.34 312.52 L 867.34 316.06 867.35 316.69 867.39 317.26 867.44 317.78 867.52 318.23 867.63 318.64 867.75 318.99 867.90 319.32 868.06 319.62 868.24 319.88 868.44 320.12 868.76 320.42 869.12 320.69 869.51 320.93 869.95 321.15 870.43 321.34 870.95 321.50 871.51 321.62 872.12 321.71 872.77 321.76 873.46 321.78 874.40 321.74 875.25 321.64 876.00 321.47 876.67 321.23 877.25 320.93 877.74 320.57 878.16 320.19 878.52 319.77 878.80 319.33 879.02 318.85 879.13 318.46 879.22 317.98 879.29 317.41 879.33 316.76 879.34 316.02 879.34 312.53 Z" />
<polyline points="833.00 266.22 833.00 226.22" fill="none" stroke="rgb(0,0,0)" stroke-width="2" />
<path fill="rgb(0,0,0)" stroke="rgb(0,0,0)" stroke-width="0" d=" M 825.34 277.52 L 841.34 277.53 841.34 279.53 825.34 279.52 Z M 825.34 283.52 L 841.34 283.53 841.34 294.28 839.34 294.28 839.34 285.53 834.59 285.53 834.59 293.03 832.59 293.03 832.59 285.53 825.34 285.52 Z" />
<polyline points="793.00 266.22 793.00 226.22" fill="none" stroke="rgb(0,0,0)" stroke-width="2" />
<path fill="rgb(0,0,0)" stroke="rgb(0,0,0)" stroke-width="0" d=" M 791.59 284.78 L 793.59 284.78 793.59 291.28 787.61 291.27 787.13 290.64 786.70 290.01 786.33 289.37 786.00 288.72 785.72 288.06 785.49 287.39 785.32 286.72 785.19 286.04 785.11 285.36 785.09 284.67 785.13 283.74 785.25 282.85 785.45 282.00 785.73 281.18 786.09 280.39 786.53 279.66 787.04 279.01 787.63 278.43 788.28 277.93 789.01 277.50 789.79 277.15 790.60 276.88 791.45 276.68 792.34 276.56 793.26 276.53 794.18 276.57 795.08 276.68 795.95 276.88 796.79 277.15 797.61 277.51 798.38 277.93 799.06 278.42 799.66 278.98 800.17 279.61 800.61 280.31 800.96 281.06 801.24 281.86 801.43 282.70 801.55 283.59 801.59 284.52 801.57 285.20 801.50 285.85 801.38 286.48 801.23 287.08 801.02 287.65 800.78 288.19 800.49 288.67 800.18 289.11 799.83 289.50 799.44 289.84 799.01 290.15 798.53 290.42 798.00 290.66 797.42 290.87 796.79 291.05 796.27 289.21 796.73 289.05 797.14 288.88 797.51 288.70 797.83 288.51 798.12 288.30 798.38 288.06 798.61 287.79 798.83 287.47 799.02 287.13 799.19 286.74 799.33 286.32 799.44 285.89 799.52 285.44 799.57 284.98 799.59 284.49 799.57 283.91 799.52 283.37 799.43 282.86 799.31 282.38 799.16 281.93 798.97 281.51 798.77 281.13 798.54 280.78 798.29 280.47 798.02 280.19 797.74 279.93 797.44 279.70 797.13 279.50 796.81 279.31 796.48 279.15 795.89 278.93 795.29 278.75 794.66 278.63 794.01 278.55 793.34 278.53 792.54 278.56 791.79 278.65 791.09 278.80 790.45 279.01 789.86 279.28 789.32 279.60 788.85 279.99 788.43 280.42 788.07 280.91 787.77 281.46 787.53 282.04 787.33 282.63 787.20 283.24 787.12 283.87 787.09 284.51 787.11 285.06 787.17 285.62 787.27 286.17 787.42 286.71 787.60 287.24 787.81 287.75 788.02 288.21 788.24 288.62 788.47 288.97 788.70 289.27 791.59 289.28 Z M 785.34 294.52 L 801.34 294.53 801.34 296.67 788.66 305.02 801.34 305.03 801.34 307.03 785.34 307.02 785.34 304.88 798.02 296.53 785.34 296.52 Z M 785.34 310.52 L 801.34 310.53 801.34 316.05 801.33 316.77 801.30 317.41 801.26 317.98 801.19 318.48 801.11 318.91 800.96 319.44 800.77 319.94 800.54 320.42 800.27 320.85 799.96 321.26 799.51 321.74 799.01 322.17 798.47 322.55 797.87 322.88 797.23 323.15 796.54 323.38 795.82 323.55 795.06 323.68 794.26 323.75 793.42 323.78 792.71 323.76 792.03 323.71 791.39 323.62 790.78 323.50 790.20 323.35 789.65 323.17 789.15 322.97 788.68 322.75 788.25 322.51 787.87 322.25 787.51 321.98 787.19 321.69 786.90 321.40 786.64 321.10 786.42 320.79 786.21 320.46 786.03 320.10 785.87 319.72 785.73 319.31 785.61 318.88 785.51 318.41 785.44 317.93 785.38 317.41 785.35 316.87 785.34 316.30 Z M 787.34 312.52 L 787.34 316.06 787.35 316.69 787.39 317.26 787.44 317.78 787.52 318.23 787.63 318.64 787.75 318.99 787.90 319.32 788.06 319.62 788.24 319.88 788.44 320.12 788.76 320.42 789.12 320.69 789.51 320.93 789.95 321.15 790.43 321.34 790.95 321.50 791.51 321.62 792.12 321.71 792.77 321.76 793.46 321.78 794.40 321.74 795.25 321.64 796.00 321.47 796.67 321.23 797.25 320.93 797.74 320.57 798.16 320.19 798.52 319.77 798.80 319.33 799.02 318.85 799.13 318.46 799.22 317.98 799.29 317.41 799.33 316.76 799.34 316.02 799.34 312.53 Z" />
<polyline points="753.00 266.22 753.00 226.22" fill="none" stroke="rgb(0,0,0)" stroke-width="2" />
<path fill="rgb(0,0,0)" stroke="rgb(0,0,0)" stroke-width="0" d=" M 745.34 277.27 L 761.34 277.28 761.34 284.18 761.32 284.98 761.27 285.70 761.18 286.34 761.06 286.90 760.91 287.38 760.71 287.80 760.46 288.18 760.15 288.53 759.79 288.85 759.38 289.13 758.93 289.36 758.47 289.54 757.98 289.68 757.48 289.75 756.96 289.78 756.30 289.74 755.68 289.61 755.10 289.39 754.57 289.08 754.08 288.69 753.64 288.21 753.28 287.64 752.98 286.97 752.75 286.20 752.59 285.34 752.42 285.63 752.24 285.88 752.07 286.11 751.90 286.31 751.73 286.48 751.36 286.81 750.97 287.13 750.55 287.46 750.12 287.78 749.67 288.10 745.34 290.76 745.34 288.44 748.66 286.36 749.20 286.01 749.69 285.68 750.13 285.38 750.52 285.10 750.85 284.86 751.14 284.63 751.38 284.40 751.59 284.19 751.76 283.99 751.89 283.80 751.99 283.61 752.08 283.42 752.16 283.23 752.22 283.04 752.27 282.85 752.29 282.69 752.31 282.49 752.33 282.26 752.34 281.99 752.34 281.69 752.34 279.28 745.34 279.27 Z M 754.34 279.28 L 754.34 283.75 754.35 284.30 754.38 284.80 754.44 285.26 754.52 285.67 754.62 286.04 754.75 286.36 754.90 286.66 755.08 286.92 755.29 287.14 755.53 287.34 755.78 287.50 756.04 287.62 756.32 287.71 756.60 287.76 756.89 287.78 757.30 287.75 757.68 287.64 758.03 287.48 758.36 287.24 758.65 286.94 758.90 286.56 759.09 286.10 759.23 285.57 759.31 284.96 759.34 284.26 759.34 279.28 Z M 745.34 293.27 L 761.34 293.28 761.34 304.03 759.34 304.03 759.34 295.28 754.59 295.28 754.59 302.78 752.59 302.78 752.59 295.28 745.34 295.27 Z" />
<polyline points="873.00 466.22 873.00 426.22" fill="none" stroke="rgb(0,0,0)" stroke-width="2" />
<polyline points="833.00 466.22 833.00 426.22" fill="none" stroke="rgb(0,0,0)" stroke-width="2" />
<polyline points="793.00 466.22 793.00 426.22" fill="none" stroke="rgb(0,0,0)" stroke-width="2" />
<polyline points="753.00 466.22 753.00 426.22" fill="none" stroke="rgb(0,0,0)" stroke-width="2" />
<path fill="rgb(0,0,0)" stroke="rgb(0,0,0)" stroke-width="0" d=" M 751.59 377.78 L 753.59 377.78 753.59 384.28 747.61 384.27 747.13 383.64 746.70 383.01 746.33 382.37 746.00 381.72 745.72 381.06 745.49 380.39 745.32 379.72 745.19 379.04 745.11 378.36 745.09 377.67 745.13 376.74 745.25 375.85 745.45 375.00 745.73 374.18 746.09 373.39 746.53 372.66 747.04 372.01 747.63 371.43 748.28 370.93 749.01 370.50 749.79 370.15 750.60 369.88 751.45 369.68 752.34 369.56 753.26 369.53 754.18 369.57 755.08 369.68 755.95 369.88 756.79 370.15 757.61 370.51 758.38 370.93 759.06 371.42 759.66 371.98 760.17 372.61 760.61 373.31 760.96 374.06 761.24 374.86 761.43 375.70 761.55 376.59 761.59 377.52 761.57 378.20 761.50 378.85 761.38 379.48 761.23 380.08 761.02 380.65 760.78 381.19 760.49 381.67 760.18 382.11 759.83 382.50 759.44 382.84 759.01 383.15 758.53 383.42 758.00 383.66 757.42 383.87 756.79 384.05 756.27 382.21 756.73 382.05 757.14 381.88 757.51 381.70 757.83 381.51 758.12 381.30 758.38 381.06 758.61 380.79 758.83 380.47 759.02 380.13 759.19 379.74 759.33 379.32 759.44 378.89 759.52 378.44 759.57 377.98 759.59 377.49 759.57 376.91 759.52 376.37 759.43 375.86 759.31 375.38 759.16 374.93 758.97 374.51 758.77 374.13 758.54 373.78 758.29 373.47 758.02 373.19 757.74 372.93 757.44 372.70 757.13 372.50 756.81 372.31 756.48 372.15 755.89 371.93 755.29 371.75 754.66 371.63 754.01 371.55 753.34 371.53 752.54 371.56 751.79 371.65 751.09 371.80 750.45 372.01 749.86 372.28 749.32 372.60 748.85 372.99 748.43 373.42 748.07 373.91 747.77 374.46 747.53 375.04 747.33 375.63 747.20 376.24 747.12 376.87 747.09 377.51 747.11 378.06 747.17 378.62 747.27 379.17 747.42 379.71 747.60 380.24 747.81 380.75 748.02 381.21 748.24 381.62 748.47 381.97 748.70 382.27 751.59 382.28 Z M 745.34 387.52 L 761.34 387.53 761.34 389.67 748.66 398.02 761.34 398.03 761.34 400.03 745.34 400.02 745.34 397.88 758.02 389.53 745.34 389.52 Z M 745.34 403.52 L 761.34 403.53 761.34 409.05 761.33 409.77 761.30 410.41 761.26 410.98 761.19 411.48 761.11 411.91 760.96 412.44 760.77 412.94 760.54 413.42 760.27 413.85 759.96 414.26 759.51 414.74 759.01 415.17 758.47 415.55 757.87 415.88 757.23 416.15 756.54 416.38 755.82 416.55 755.06 416.68 754.26 416.75 753.42 416.78 752.71 416.76 752.03 416.71 751.39 416.62 750.78 416.50 750.20 416.35 749.65 416.17 749.15 415.97 748.68 415.75 748.25 415.51 747.87 415.25 747.51 414.98 747.19 414.69 746.90 414.40 746.64 414.10 746.42 413.79 746.21 413.46 746.03 413.10 745.87 412.72 745.73 412.31 745.61 411.88 745.51 411.41 745.44 410.93 745.38 410.41 745.35 409.87 745.34 409.30 Z M 747.34 405.52 L 747.34 409.06 747.35 409.69 747.39 410.26 747.44 410.78 747.52 411.23 747.63 411.64 747.75 411.99 747.90 412.32 748.06 412.62 748.24 412.88 748.44 413.12 748.76 413.42 749.12 413.69 749.51 413.93 749.95 414.15 750.43 414.34 750.95 414.50 751.51 414.62 752.12 414.71 752.77 414.76 753.46 414.78 754.40 414.74 755.25 414.64 756.00 414.47 756.67 414.23 757.25 413.93 757.74 413.57 758.16 413.19 758.52 412.77 758.80 412.33 759.02 411.85 759.13 411.46 759.22 410.98 759.29 410.41 759.33 409.76 759.34 409.02 759.34 405.53 Z" />
<path fill="rgb(0,0,0)" stroke="rgb(0,0,0)" stroke-width="0" d=" M 791.59 377.78 L 793.59 377.78 793.59 384.28 787.61 384.27 787.13 383.64 786.70 383.01 786.33 382.37 786.00 381.72 785.72 381.06 785.49 380.39 785.32 379.72 785.19 379.04 785.11 378.36 785.09 377.67 785.13 376.74 785.25 375.85 785.45 375.00 785.73 374.18 786.09 373.39 786.53 372.66 787.04 372.01 787.63 371.43 788.28 370.93 789.01 370.50 789.79 370.15 790.60 369.88 791.45 369.68 792.34 369.56 793.26 369.53 794.18 369.57 795.08 369.68 795.95 369.88 796.79 370.15 797.61 370.51 798.38 370.93 799.06 371.42 799.66 371.98 800.17 372.61 800.61 373.31 800.96 374.06 801.24 374.86 801.43 375.70 801.55 376.59 801.59 377.52 801.57 378.20 801.50 378.85 801.38 379.48 801.23 380.08 801.02 380.65 800.78 381.19 800.49 381.67 800.18 382.11 799.83 382.50 799.44 382.84 799.01 383.15 798.53 383.42 798.00 383.66 797.42 383.87 796.79 384.05 796.27 382.21 796.73 382.05 797.14 381.88 797.51 381.70 797.83 381.51 798.12 381.30 798.38 381.06 798.61 380.79 798.83 380.47 799.02 380.13 799.19 379.74 799.33 379.32 799.44 378.89 799.52 378.44 799.57 377.98 799.59 377.49 799.57 376.91 799.52 376.37 799.43 375.86 799.31 375.38 799.16 374.93 798.97 374.51 798.77 374.13 798.54 373.78 798.29 373.47 798.02 373.19 797.74 372.93 797.44 372.70 797.13 372.50 796.81 372.31 796.48 372.15 795.89 371.93 795.29 371.75 794.66 371.63 794.01 371.55 793.34 371.53 792.54 371.56 791.79 371.65 791.09 371.80 790.45 372.01 789.86 372.28 789.32 372.60 788.85 372.99 788.43 373.42 788.07 373.91 787.77 374.46 787.53 375.04 787.33 375.63 787.20 376.24 787.12 376.87 787.09 377.51 787.11 378.06 787.17 378.62 787.27 379.17 787.42 379.71 787.60 380.24 787.81 380.75 788.02 381.21 788.24 381.62 788.47 381.97 788.70 382.27 791.59 382.28 Z M 785.34 387.52 L 801.34 387.53 801.34 389.67 788.66 398.02 801.34 398.03 801.34 400.03 785.34 400.02 785.34 397.88 798.02 389.53 785.34 389.52 Z M 785.34 403.52 L 801.34 403.53 801.34 409.05 801.33 409.77 801.30 410.41 801.26 410.98 801.19 411.48 801.11 411.91 800.96 412.44 800.77 412.94 800.54 413.42 800.27 413.85 799.96 414.26 799.51 414.74 799.01 415.17 798.47 415.55 797.87 415.88 797.23 416.15 796.54 416.38 795.82 416.55 795.06 416.68 794.26 416.75 793.42 416.78 792.71 416.76 792.03 416.71 791.39 416.62 790.78 416.50 790.20 416.35 789.65 416.17 789.15 415.97 788.68 415.75 788.25 415.51 787.87 415.25 787.51 414.98 787.19 414.69 786.90 414.40 786.64 414.10 786.42 413.79 786.21 413.46 786.03 413.10 785.87 412.72 785.73 412.31 785.61 411.88 785.51 411.41 785.44 410.93 785.38 410.41 785.35 409.87 785.34 409.30 Z M 787.34 405.52 L 787.34 409.06 787.35 409.69 787.39 410.26 787.44 410.78 787.52 411.23 787.63 411.64 787.75 411.99 787.90 412.32 788.06 412.62 788.24 412.88 788.44 413.12 788.76 413.42 789.12 413.69 789.51 413.93 789.95 414.15 790.43 414.34 790.95 414.50 791.51 414.62 792.12 414.71 792.77 414.76 793.46 414.78 794.40 414.74 795.25 414.64 796.00 414.47 796.67 414.23 797.25 413.93 797.74 413.57 798.16 413.19 798.52 412.77 798.80 412.33 799.02 411.85 799.13 411.46 799.22 410.98 799.29 410.41 799.33 409.76 799.34 409.02 799.34 405.53 Z" />
<path fill="rgb(0,0,0)" stroke="rgb(0,0,0)" stroke-width="0" d=" M 831.59 377.78 L 833.59 377.78 833.59 384.28 827.61 384.27 827.13 383.64 826.70 383.01 826.33 382.37 826.00 381.72 825.72 381.06 825.49 380.39 825.32 379.72 825.19 379.04 825.11 378.36 825.09 377.67 825.13 376.74 825.25 375.85 825.45 375.00 825.73 374.18 826.09 373.39 826.53 372.66 827.04 372.01 827.63 371.43 828.28 370.93 829.01 370.50 829.79 370.15 830.60 369.88 831.45 369.68 832.34 369.56 833.26 369.53 834.18 369.57 835.08 369.68 835.95 369.88 836.79 370.15 837.61 370.51 838.38 370.93 839.06 371.42 839.66 371.98 840.17 372.61 840.61 373.31 840.96 374.06 841.24 374.86 841.43 375.70 841.55 376.59 841.59 377.52 841.57 378.20 841.50 378.85 841.38 379.48 841.23 380.08 841.02 380.65 840.78 381.19 840.49 381.67 840.18 382.11 839.83 382.50 839.44 382.84 839.01 383.15 838.53 383.42 838.00 383.66 837.42 383.87 836.79 384.05 836.27 382.21 836.73 382.05 837.14 381.88 837.51 381.70 837.83 381.51 838.12 381.30 838.38 381.06 838.61 380.79 838.83 380.47 839.02 380.13 839.19 379.74 839.33 379.32 839.44 378.89 839.52 378.44 839.57 377.98 839.59 377.49 839.57 376.91 839.52 376.37 839.43 375.86 839.31 375.38 839.16 374.93 838.97 374.51 838.77 374.13 838.54 373.78 838.29 373.47 838.02 373.19 837.74 372.93 837.44 372.70 837.13 372.50 836.81 372.31 836.48 372.15 835.89 371.93 835.29 371.75 834.66 371.63 834.01 371.55 833.34 371.53 832.54 371.56 831.79 371.65 831.09 371.80 830.45 372.01 829.86 372.28 829.32 372.60 828.85 372.99 828.43 373.42 828.07 373.91 827.77 374.46 827.53 375.04 827.33 375.63 827.20 376.24 827.12 376.87 827.09 377.51 827.11 378.06 827.17 378.62 827.27 379.17 827.42 379.71 827.60 380.24 827.81 380.75 828.02 381.21 828.24 381.62 828.47 381.97 828.70 382.27 831.59 382.28 Z M 825.34 387.52 L 841.34 387.53 841.34 389.67 828.66 398.02 841.34 398.03 841.34 400.03 825.34 400.02 825.34 397.88 838.02 389.53 825.34 389.52 Z M 825.34 403.52 L 841.34 403.53 841.34 409.05 841.33 409.77 841.30 410.41 841.26 410.98 841.19 411.48 841.11 411.91 840.96 412.44 840.77 412.94 840.54 413.42 840.27 413.85 839.96 414.26 839.51 414.74 839.01 415.17 838.47 415.55 837.87 415.88 837.23 416.15 836.54 416.38 835.82 416.55 835.06 416.68 834.26 416.75 833.42 416.78 832.71 416.76 832.03 416.71 831.39 416.62 830.78 416.50 830.20 416.35 829.65 416.17 829.15 415.97 828.68 415.75 828.25 415.51 827.87 415.25 827.51 414.98 827.19 414.69 826.90 414.40 826.64 414.10 826.42 413.79 826.21 413.46 826.03 413.10 825.87 412.72 825.73 412.31 825.61 411.88 825.51 411.41 825.44 410.93 825.38 410.41 825.35 409.87 825.34 409.30 Z M 827.34 405.52 L 827.34 409.06 827.35 409.69 827.39 410.26 827.44 410.78 827.52 411.23 827.63 411.64 827.75 411.99 827.90 412.32 828.06 412.62 828.24 412.88 828.44 413.12 828.76 413.42 829.12 413.69 829.51 413.93 829.95 414.15 830.43 414.34 830.95 414.50 831.51 414.62 832.12 414.71 832.77 414.76 833.46 414.78 834.40 414.74 835.25 414.64 836.00 414.47 836.67 414.23 837.25 413.93 837.74 413.57 838.16 413.19 838.52 412.77 838.80 412.33 839.02 411.85 839.13 411.46 839.22 410.98 839.29 410.41 839.33 409.76 839.34 409.02 839.34 405.53 Z" />
<path fill="rgb(0,0,0)" stroke="rgb(0,0,0)" stroke-width="0" d=" M 865.34 390.02 L 881.34 390.03 881.34 392.03 867.34 392.02 867.34 400.02 865.34 400.02 Z M 873.13 401.53 L 874.65 401.61 876.03 401.87 877.27 402.30 878.38 402.90 879.34 403.66 880.15 404.57 880.78 405.57 881.23 406.67 881.50 407.87 881.59 409.17 881.55 410.04 881.42 410.87 881.21 411.66 880.91 412.42 880.53 413.15 880.08 413.83 879.56 414.43 878.97 414.97 878.31 415.45 877.59 415.85 876.82 416.19 876.00 416.45 875.15 416.63 874.25 416.74 873.31 416.78 872.36 416.74 871.45 416.62 870.58 416.42 869.76 416.14 868.97 415.79 868.24 415.37 867.59 414.88 867.01 414.32 866.50 413.70 866.07 413.02 865.72 412.29 865.44 411.53 865.25 410.76 865.13 409.96 865.09 409.14 865.13 408.26 865.26 407.42 865.48 406.62 865.79 405.85 866.18 405.12 866.64 404.45 867.17 403.84 867.77 403.31 868.42 402.84 869.15 402.44 869.91 402.11 870.69 401.85 871.48 401.67 872.30 401.56 873.13 401.53 Z M 873.11 403.53 L 872.04 403.59 871.06 403.78 870.18 404.10 869.39 404.54 868.70 405.12 868.12 405.79 867.67 406.53 867.35 407.33 867.15 408.20 867.09 409.13 867.15 410.08 867.35 410.96 867.67 411.77 868.13 412.51 868.71 413.18 869.42 413.75 870.23 414.20 871.15 414.52 872.19 414.71 873.33 414.78 874.06 414.75 874.76 414.67 875.42 414.53 876.04 414.34 876.63 414.10 877.17 413.80 877.65 413.46 878.09 413.06 878.48 412.61 878.81 412.12 879.09 411.58 879.31 411.02 879.46 410.43 879.56 409.82 879.59 409.18 879.53 408.28 879.35 407.43 879.05 406.64 878.63 405.89 878.09 405.20 877.42 404.60 876.58 404.13 875.58 403.80 874.43 403.59 873.11 403.53 Z" />
<path fill="rgb(0,0,0)" stroke="rgb(0,0,0)" stroke-width="0" d=" M 877.00 253.02 L 877.00 251.42 886.97 251.43 886.76 251.19 886.54 250.91 886.33 250.61 886.11 250.28 885.90 249.92 885.69 249.55 885.51 249.20 885.35 248.86 885.21 248.54 885.09 248.23 886.60 248.23 886.86 248.76 887.14 249.25 887.44 249.72 887.76 250.17 888.10 250.58 888.45 250.96 888.79 251.29 889.13 251.58 889.47 251.82 889.80 252.01 889.80 253.04 Z" />
<path fill="rgb(0,0,0)" stroke="rgb(0,0,0)" stroke-width="0" d=" M 838.60 255.23 L 837.00 255.22 837.00 246.82 837.23 246.83 837.45 246.84 837.67 246.88 837.89 246.93 838.10 247.00 838.45 247.13 838.79 247.30 839.13 247.49 839.47 247.72 839.80 247.97 840.14 248.27 840.49 248.61 840.86 249.02 841.25 249.47 841.66 249.98 842.32 250.75 842.92 251.41 843.45 251.97 843.92 252.41 844.32 252.74 844.69 252.99 845.06 253.19 845.42 253.32 845.78 253.41 846.13 253.43 846.47 253.41 846.79 253.33 847.08 253.20 847.35 253.02 847.60 252.78 847.82 252.51 847.98 252.20 848.10 251.86 848.18 251.49 848.20 251.08 848.18 250.66 848.11 250.27 847.99 249.91 847.83 249.59 847.62 249.31 847.36 249.07 847.08 248.88 846.75 248.75 846.39 248.66 846.00 248.63 846.20 247.03 846.87 247.14 847.47 247.31 848.01 247.56 848.48 247.87 848.88 248.26 849.21 248.72 849.47 249.23 849.65 249.80 849.76 250.43 849.80 251.12 849.76 251.81 849.64 252.45 849.43 253.02 849.14 253.53 848.78 253.98 848.35 254.36 847.88 254.66 847.37 254.87 846.82 254.99 846.23 255.03 845.92 255.02 845.62 254.99 845.31 254.93 845.01 254.85 844.71 254.75 844.41 254.62 844.11 254.46 843.79 254.27 843.47 254.05 843.15 253.80 842.79 253.50 842.40 253.12 841.96 252.66 841.48 252.12 840.95 251.51 840.53 250.98 840.16 250.54 839.85 250.17 839.61 249.88 839.41 249.67 839.25 249.50 839.09 249.34 838.93 249.20 838.76 249.06 838.60 248.94 Z" />
<path fill="rgb(0,0,0)" stroke="rgb(0,0,0)" stroke-width="0" d=" M 800.40 247.03 L 800.60 248.63 800.16 248.75 799.77 248.90 799.43 249.08 799.15 249.28 798.92 249.51 798.73 249.77 798.59 250.06 798.48 250.39 798.42 250.76 798.40 251.16 798.43 251.63 798.51 252.06 798.66 252.45 798.85 252.80 799.11 253.10 799.41 253.36 799.73 253.57 800.08 253.71 800.46 253.80 800.87 253.83 801.25 253.80 801.61 253.72 801.94 253.57 802.24 253.37 802.52 253.12 802.76 252.81 802.94 252.48 803.07 252.12 803.15 251.72 803.17 251.30 803.17 251.11 803.15 250.90 803.11 250.68 803.06 250.43 803.00 250.17 804.60 250.36 804.59 250.42 804.59 250.47 804.58 250.52 804.58 250.57 804.58 250.61 804.60 251.01 804.65 251.39 804.75 251.75 804.88 252.10 805.04 252.43 805.24 252.72 805.49 252.94 805.77 253.11 806.09 253.20 806.45 253.23 806.75 253.21 807.02 253.14 807.27 253.02 807.50 252.86 807.70 252.65 807.88 252.40 808.02 252.13 808.12 251.83 808.18 251.50 808.20 251.15 808.18 250.79 808.12 250.46 808.02 250.16 807.88 249.88 807.70 249.62 807.48 249.39 807.22 249.20 806.92 249.04 806.58 248.92 806.20 248.83 806.40 247.23 807.02 247.38 807.58 247.58 808.08 247.85 808.52 248.17 808.91 248.55 809.23 248.98 809.48 249.44 809.66 249.95 809.76 250.50 809.80 251.09 809.78 251.50 809.73 251.90 809.64 252.29 809.52 252.66 809.36 253.02 809.17 253.36 808.96 253.66 808.72 253.93 808.45 254.17 808.16 254.37 807.85 254.54 807.54 254.67 807.21 254.76 806.88 254.82 806.55 254.83 806.23 254.82 805.92 254.76 805.63 254.67 805.34 254.55 805.07 254.39 804.82 254.19 804.58 253.96 804.37 253.70 804.18 253.41 804.01 253.07 803.88 253.51 803.71 253.90 803.49 254.25 803.23 254.55 802.92 254.82 802.57 255.04 802.19 255.21 801.77 255.33 801.32 255.40 800.84 255.43 800.18 255.38 799.57 255.23 799.00 254.99 798.47 254.64 797.97 254.20 797.55 253.68 797.22 253.12 796.99 252.50 796.85 251.83 796.80 251.10 796.84 250.45 796.96 249.84 797.16 249.28 797.44 248.77 797.80 248.30 798.23 247.89 798.70 247.56 799.22 247.31 799.79 247.13 800.40 247.03 Z" />
<path fill="rgb(0,0,0)" stroke="rgb(0,0,0)" stroke-width="0" d=" M 757.00 252.22 L 760.00 252.23 760.00 246.43 761.60 246.43 769.60 252.64 769.60 253.84 761.60 253.83 761.60 255.43 760.00 255.43 760.00 253.83 757.00 253.82 Z M 761.60 252.23 L 766.54 252.23 761.60 248.40 Z" />
<path fill="rgb(0,0,0)" stroke="rgb(0,0,0)" stroke-width="0" d=" M 760.40 437.03 L 760.60 438.63 760.18 438.72 759.81 438.85 759.48 439.01 759.19 439.20 758.95 439.43 758.75 439.70 758.60 440.00 758.49 440.33 758.42 440.70 758.40 441.10 758.43 441.60 758.52 442.04 758.68 442.45 758.89 442.80 759.17 443.11 759.49 443.37 759.86 443.57 760.27 443.71 760.72 443.80 761.20 443.83 761.66 443.80 762.08 443.72 762.46 443.59 762.80 443.40 763.10 443.16 763.35 442.87 763.55 442.51 763.69 442.11 763.77 441.65 763.80 441.13 763.79 440.81 763.76 440.50 763.70 440.22 763.62 439.96 763.52 439.73 763.40 439.52 763.27 439.32 763.13 439.14 762.97 438.98 762.80 438.83 763.00 437.23 769.60 438.64 769.60 444.84 768.00 444.84 768.00 439.93 764.47 439.24 764.81 439.69 765.07 440.15 765.25 440.62 765.36 441.10 765.40 441.58 765.35 442.21 765.22 442.80 764.99 443.35 764.67 443.85 764.25 444.32 763.77 444.72 763.23 445.03 762.64 445.25 762.00 445.38 761.30 445.43 760.64 445.39 760.00 445.27 759.41 445.07 758.85 444.78 758.33 444.42 757.78 443.90 757.35 443.30 757.05 442.64 756.86 441.90 756.80 441.10 756.84 440.43 756.96 439.81 757.15 439.25 757.43 438.74 757.79 438.27 758.21 437.88 758.68 437.55 759.20 437.30 759.77 437.13 760.40 437.03 Z" />
<path fill="rgb(0,0,0)" stroke="rgb(0,0,0)" stroke-width="0" d=" M 806.40 445.23 L 806.20 443.63 806.55 443.54 806.85 443.44 807.12 443.32 807.35 443.18 807.53 443.03 807.77 442.76 807.96 442.46 808.09 442.14 808.17 441.80 808.20 441.43 808.18 441.13 808.14 440.83 808.06 440.54 807.95 440.26 807.81 439.98 807.60 439.73 807.34 439.49 807.05 439.27 806.72 439.07 806.36 438.89 805.94 438.73 805.44 438.61 804.87 438.51 804.23 438.46 803.51 438.43 803.83 438.67 804.12 438.93 804.38 439.22 804.60 439.52 804.78 439.84 804.93 440.18 805.05 440.52 805.13 440.87 805.18 441.23 805.20 441.59 805.15 442.21 805.02 442.79 804.79 443.34 804.47 443.84 804.06 444.31 803.58 444.71 803.04 445.03 802.45 445.25 801.81 445.38 801.11 445.43 800.64 445.41 800.19 445.34 799.75 445.24 799.32 445.09 798.90 444.90 798.52 444.67 798.16 444.41 797.85 444.12 797.58 443.80 797.34 443.44 797.15 443.06 797.00 442.66 796.89 442.24 796.82 441.81 796.80 441.35 796.86 440.58 797.03 439.87 797.32 439.21 797.72 438.62 798.24 438.09 798.89 437.63 799.69 437.28 800.63 437.03 801.73 436.88 802.97 436.83 804.37 436.89 805.60 437.06 806.68 437.34 807.59 437.73 808.34 438.24 808.87 438.76 809.27 439.35 809.57 440.01 809.74 440.73 809.80 441.53 809.76 442.12 809.66 442.67 809.47 443.18 809.22 443.64 808.90 444.06 808.51 444.42 808.06 444.72 807.56 444.95 807.01 445.13 806.40 445.23 Z M 801.14 438.43 L 800.85 438.44 800.57 438.49 800.29 438.56 800.02 438.67 799.75 438.80 799.50 438.96 799.27 439.13 799.07 439.33 798.90 439.55 798.75 439.78 798.62 440.03 798.52 440.31 798.46 440.59 798.41 440.90 798.40 441.22 798.43 441.67 798.51 442.08 798.66 442.46 798.86 442.80 799.12 443.11 799.42 443.37 799.77 443.57 800.16 443.71 800.59 443.80 801.06 443.83 801.51 443.80 801.92 443.72 802.30 443.58 802.63 443.38 802.92 443.12 803.16 442.82 803.36 442.47 803.49 442.08 803.57 441.64 803.60 441.16 803.57 440.72 803.49 440.31 803.36 439.92 803.16 439.56 802.92 439.23 802.63 438.94 802.31 438.72 801.95 438.56 801.56 438.46 801.14 438.43 Z" />
<path fill="rgb(0,0,0)" stroke="rgb(0,0,0)" stroke-width="0" d=" M 848.00 437.04 L 849.60 437.04 849.60 445.44 848.31 445.44 847.75 444.96 847.13 444.48 846.44 444.00 845.68 443.52 844.86 443.05 844.01 442.60 843.14 442.19 842.26 441.82 841.37 441.50 840.48 441.22 839.83 441.05 839.16 440.90 838.46 440.78 837.74 440.69 837.00 440.62 837.00 439.02 837.62 439.06 838.29 439.14 839.02 439.27 839.79 439.44 840.61 439.67 841.45 439.93 842.28 440.24 843.09 440.59 843.90 440.98 844.69 441.41 845.45 441.88 846.16 442.35 846.82 442.83 847.44 443.33 848.00 443.84 Z" />
<path fill="rgb(0,0,0)" stroke="rgb(0,0,0)" stroke-width="0" d=" M 884.05 439.36 L 884.20 438.99 884.38 438.66 884.57 438.37 884.80 438.12 885.04 437.91 885.31 437.74 885.60 437.60 885.91 437.51 886.24 437.45 886.59 437.43 887.12 437.48 887.61 437.60 888.07 437.81 888.49 438.10 888.88 438.47 889.21 438.91 889.47 439.40 889.65 439.95 889.76 440.56 889.80 441.22 889.76 441.88 889.65 442.49 889.46 443.04 889.19 443.54 888.85 443.99 888.46 444.37 888.03 444.66 887.57 444.87 887.07 444.99 886.55 445.03 886.21 445.02 885.89 444.96 885.59 444.87 885.30 444.73 885.04 444.57 884.79 444.36 884.57 444.11 884.37 443.83 884.20 443.51 884.05 443.15 883.88 443.57 883.66 443.96 883.41 444.30 883.12 444.59 882.80 444.85 882.43 445.06 882.05 445.22 881.63 445.34 881.19 445.41 880.72 445.43 880.08 445.38 879.48 445.24 878.92 445.01 878.41 444.69 877.93 444.27 877.52 443.78 877.21 443.23 876.98 442.62 876.85 441.95 876.80 441.22 876.85 440.50 876.98 439.83 877.21 439.22 877.53 438.67 877.94 438.18 878.41 437.77 878.93 437.44 879.50 437.21 880.11 437.07 880.77 437.03 881.26 437.05 881.72 437.13 882.14 437.25 882.53 437.42 882.89 437.64 883.21 437.90 883.48 438.20 883.72 438.55 883.90 438.94 884.05 439.36 Z M 886.54 439.03 L 886.25 439.06 885.97 439.13 885.72 439.24 885.49 439.40 885.29 439.60 885.11 439.85 884.98 440.14 884.88 440.47 884.82 440.84 884.80 441.25 884.82 441.66 884.88 442.02 884.97 442.34 885.11 442.63 885.28 442.87 885.49 443.07 885.71 443.23 885.94 443.34 886.20 443.41 886.47 443.43 886.76 443.41 887.02 443.34 887.27 443.23 887.49 443.06 887.70 442.85 887.88 442.60 888.02 442.32 888.12 441.99 888.18 441.63 888.20 441.24 888.18 440.84 888.12 440.47 888.02 440.15 887.89 439.86 887.71 439.61 887.51 439.40 887.29 439.24 887.06 439.13 886.81 439.06 886.54 439.03 Z M 880.83 438.63 L 880.58 438.64 880.33 438.67 880.09 438.72 879.85 438.80 879.62 438.90 879.40 439.02 879.20 439.17 879.02 439.36 878.86 439.58 878.72 439.84 878.60 440.11 878.51 440.39 878.45 440.67 878.41 440.95 878.40 441.24 878.43 441.71 878.51 442.13 878.64 442.51 878.83 442.85 879.07 443.15 879.35 443.39 879.66 443.58 880.01 443.72 880.38 443.80 880.78 443.83 881.18 443.80 881.56 443.72 881.90 443.58 882.22 443.38 882.51 443.13 882.76 442.83 882.95 442.48 883.09 442.09 883.17 441.66 883.20 441.19 883.17 440.73 883.09 440.31 882.96 439.93 882.77 439.60 882.52 439.31 882.24 439.06 881.92 438.87 881.59 438.74 881.22 438.66 880.83 438.63 Z" />
<path fill="rgb(0,0,0)" stroke="rgb(0,0,0)" stroke-width="0" d=" M 292.66 347.81 L 294.58 347.81 294.65 348.26 294.74 348.68 294.87 349.06 295.02 349.41 295.20 349.73 295.42 350.02 295.68 350.28 295.98 350.53 296.32 350.75 296.71 350.94 297.13 351.11 297.57 351.24 298.03 351.33 298.51 351.39 299.01 351.41 299.45 351.39 299.88 351.35 300.28 351.28 300.66 351.18 301.02 351.06 301.35 350.91 301.64 350.73 301.90 350.54 302.13 350.33 302.32 350.09 302.47 349.84 302.59 349.59 302.67 349.33 302.72 349.07 302.74 348.80 302.73 348.54 302.69 348.28 302.63 348.04 302.54 347.82 302.42 347.61 302.27 347.41 302.06 347.22 301.80 347.05 301.49 346.88 301.12 346.73 300.81 346.63 300.37 346.50 299.81 346.36 299.13 346.19 298.33 346.00 297.51 345.80 296.80 345.61 296.20 345.42 295.71 345.24 295.32 345.05 294.90 344.81 294.53 344.55 294.20 344.26 293.92 343.96 293.68 343.63 293.49 343.28 293.34 342.91 293.23 342.53 293.17 342.13 293.15 341.72 293.18 341.26 293.26 340.81 293.39 340.38 293.58 339.95 293.82 339.54 294.11 339.16 294.45 338.81 294.84 338.51 295.28 338.24 295.76 338.01 296.29 337.82 296.83 337.68 297.40 337.57 297.99 337.51 298.61 337.49 299.28 337.51 299.92 337.57 300.53 337.68 301.10 337.84 301.65 338.03 302.15 338.27 302.60 338.55 303.01 338.88 303.36 339.24 303.67 339.64 303.93 340.08 304.13 340.54 304.28 341.02 304.38 341.52 304.43 342.05 302.51 342.05 302.41 341.55 302.26 341.10 302.04 340.71 301.76 340.37 301.42 340.07 301.02 339.83 300.54 339.65 299.99 339.51 299.37 339.43 298.68 339.41 297.97 339.43 297.34 339.51 296.79 339.64 296.32 339.83 295.93 340.07 295.62 340.34 295.38 340.64 295.21 340.96 295.10 341.30 295.07 341.66 295.09 341.97 295.17 342.26 295.29 342.53 295.46 342.77 295.68 342.99 296.00 343.20 296.47 343.42 297.10 343.63 297.88 343.85 298.81 344.06 299.76 344.28 300.57 344.48 301.25 344.67 301.80 344.86 302.21 345.03 302.69 345.29 303.11 345.57 303.48 345.88 303.80 346.22 304.07 346.58 304.28 346.97 304.45 347.38 304.57 347.82 304.64 348.28 304.66 348.76 304.63 349.24 304.55 349.71 304.41 350.17 304.22 350.62 303.97 351.05 303.67 351.46 303.32 351.84 302.93 352.17 302.48 352.47 301.99 352.73 301.46 352.94 300.90 353.11 300.32 353.23 299.72 353.30 299.08 353.33 298.29 353.30 297.55 353.22 296.87 353.09 296.23 352.91 295.66 352.68 295.13 352.40 294.65 352.06 294.21 351.67 293.83 351.23 293.49 350.74 293.20 350.21 292.98 349.65 292.81 349.06 292.71 348.45 292.66 347.81 Z M 307.78 353.09 L 307.79 337.73 309.71 337.73 309.70 353.09 Z M 313.54 353.09 L 313.55 337.73 316.86 337.73 319.99 348.55 320.15 349.13 320.30 349.64 320.42 350.09 320.53 350.48 320.62 350.81 320.72 350.45 320.84 350.02 320.97 349.53 321.13 348.98 321.31 348.37 324.41 337.73 327.71 337.73 327.70 353.09 325.78 353.09 325.79 339.65 321.92 353.09 319.32 353.09 315.47 339.65 315.46 353.09 Z M 330.10 348.53 L 330.10 346.61 336.10 346.61 336.10 348.53 Z M 340.58 344.63 L 340.13 344.45 339.74 344.24 339.39 344.00 339.09 343.73 338.83 343.43 338.63 343.11 338.47 342.76 338.36 342.39 338.29 342.00 338.27 341.58 338.32 340.95 338.47 340.36 338.72 339.81 339.06 339.30 339.51 338.84 340.04 338.44 340.63 338.13 341.29 337.90 342.02 337.77 342.81 337.73 343.60 337.77 344.33 337.91 345.00 338.14 345.60 338.45 346.13 338.86 346.59 339.34 346.94 339.85 347.19 340.40 347.34 341.00 347.39 341.63 347.37 342.04 347.30 342.42 347.19 342.78 347.03 343.12 346.83 343.44 346.58 343.73 346.28 344.00 345.94 344.24 345.56 344.45 345.12 344.63 345.63 344.84 346.09 345.09 346.50 345.39 346.86 345.74 347.17 346.13 347.42 346.56 347.61 347.03 347.75 347.53 347.83 348.06 347.86 348.62 347.81 349.39 347.64 350.11 347.36 350.78 346.97 351.40 346.47 351.97 345.88 352.46 345.22 352.84 344.49 353.11 343.69 353.27 342.82 353.33 341.95 353.27 341.15 353.11 340.42 352.84 339.76 352.45 339.17 351.96 338.67 351.39 338.28 350.77 338.00 350.09 337.84 349.35 337.78 348.56 337.81 347.98 337.90 347.43 338.05 346.92 338.25 346.45 338.51 346.02 338.83 345.64 339.19 345.31 339.61 345.03 340.07 344.80 340.58 344.63 Z M 340.19 341.63 L 340.22 341.99 340.30 342.32 340.43 342.62 340.62 342.89 340.87 343.14 341.17 343.35 341.51 343.52 341.91 343.63 342.36 343.70 342.85 343.73 343.33 343.70 343.77 343.63 344.16 343.52 344.50 343.35 344.79 343.15 345.04 342.90 345.23 342.64 345.36 342.35 345.44 342.05 345.47 341.72 345.44 341.38 345.36 341.06 345.22 340.77 345.02 340.50 344.77 340.25 344.47 340.03 344.13 339.86 343.74 339.74 343.31 339.67 342.83 339.65 342.35 339.67 341.92 339.74 341.53 339.86 341.18 340.02 340.88 340.23 340.63 340.48 340.44 340.74 340.30 341.02 340.22 341.32 340.19 341.63 Z M 339.70 348.50 L 339.71 348.79 339.75 349.09 339.82 349.38 339.91 349.66 340.02 349.94 340.17 350.21 340.36 350.45 340.58 350.67 340.85 350.86 341.15 351.02 341.48 351.16 341.81 351.27 342.15 351.35 342.49 351.39 342.83 351.41 343.39 351.37 343.90 351.28 344.36 351.12 344.77 350.89 345.12 350.60 345.42 350.26 345.65 349.89 345.81 349.48 345.91 349.04 345.94 348.56 345.91 348.07 345.81 347.62 345.64 347.20 345.40 346.82 345.10 346.47 344.74 346.17 344.32 345.94 343.86 345.78 343.34 345.68 342.78 345.65 342.22 345.68 341.72 345.78 341.27 345.94 340.87 346.17 340.52 346.46 340.22 346.80 340.00 347.18 339.83 347.58 339.73 348.02 339.70 348.50 Z M 349.54 349.01 L 351.46 348.77 351.61 349.30 351.79 349.76 352.00 350.17 352.24 350.51 352.52 350.79 352.83 351.01 353.18 351.18 353.58 351.31 354.02 351.38 354.50 351.41 355.06 351.37 355.58 351.27 356.04 351.10 356.46 350.86 356.83 350.56 357.15 350.20 357.39 349.81 357.56 349.39 357.67 348.93 357.70 348.45 357.67 347.98 357.57 347.55 357.40 347.16 357.16 346.79 356.85 346.46 356.48 346.18 356.08 345.96 355.65 345.80 355.17 345.71 354.66 345.68 354.44 345.69 354.19 345.71 353.92 345.75 353.63 345.81 353.32 345.89 353.53 343.97 353.61 343.98 353.68 343.98 353.74 343.99 353.79 343.99 353.84 343.99 354.32 343.97 354.77 343.90 355.21 343.79 355.62 343.64 356.02 343.44 356.37 343.19 356.64 342.90 356.83 342.56 356.95 342.18 356.99 341.74 356.96 341.39 356.88 341.07 356.74 340.77 356.54 340.49 356.29 340.24 355.99 340.03 355.66 339.86 355.30 339.74 354.91 339.67 354.48 339.65 354.06 339.67 353.66 339.74 353.30 339.86 352.96 340.03 352.65 340.25 352.38 340.51 352.15 340.82 351.96 341.18 351.81 341.59 351.71 342.05 349.79 341.81 349.96 341.06 350.21 340.39 350.52 339.79 350.91 339.26 351.36 338.80 351.88 338.41 352.44 338.11 353.05 337.90 353.71 337.77 354.42 337.73 354.91 337.75 355.39 337.81 355.85 337.92 356.30 338.06 356.73 338.25 357.14 338.48 357.50 338.74 357.82 339.03 358.11 339.34 358.35 339.69 358.55 340.06 358.71 340.44 358.82 340.83 358.89 341.23 358.91 341.63 358.89 342.01 358.82 342.38 358.72 342.73 358.57 343.07 358.37 343.40 358.14 343.71 357.87 343.99 357.55 344.24 357.19 344.47 356.80 344.67 357.32 344.83 357.78 345.03 358.20 345.30 358.57 345.61 358.89 345.98 359.15 346.40 359.36 346.86 359.51 347.36 359.59 347.90 359.62 348.48 359.56 349.27 359.39 350.00 359.09 350.69 358.68 351.33 358.15 351.92 357.53 352.42 356.85 352.82 356.10 353.10 355.30 353.27 354.43 353.33 353.65 353.28 352.92 353.13 352.25 352.89 351.63 352.56 351.07 352.12 350.58 351.61 350.18 351.05 349.88 350.42 349.66 349.74 349.54 349.01 Z M 362.02 353.09 L 362.03 337.73 363.95 337.73 363.94 351.17 371.62 351.17 371.62 353.09 Z M 373.78 353.09 L 373.79 337.73 375.71 337.73 375.71 343.97 383.87 343.97 383.87 337.73 385.79 337.73 385.78 353.09 383.86 353.09 383.86 345.89 375.70 345.89 375.70 353.09 Z M 392.74 350.69 L 392.74 346.61 388.66 346.61 388.66 344.69 392.74 344.69 392.75 340.61 394.67 340.61 394.66 344.69 398.74 344.69 398.74 346.61 394.66 346.61 394.66 350.69 Z M 411.21 357.41 L 410.59 356.61 410.00 355.76 409.46 354.86 408.96 353.91 408.49 352.90 408.09 351.86 407.78 350.81 407.56 349.74 407.43 348.66 407.38 347.56 407.42 346.59 407.52 345.64 407.69 344.70 407.92 343.79 408.22 342.89 408.65 341.85 409.17 340.82 409.77 339.79 410.46 338.76 411.23 337.73 412.67 337.73 412.16 338.53 411.73 339.24 411.37 339.84 411.08 340.35 410.87 340.77 410.61 341.34 410.37 341.92 410.15 342.51 409.96 343.11 409.79 343.72 409.62 344.48 409.48 345.25 409.38 346.02 409.32 346.79 409.30 347.57 409.44 349.54 409.84 351.50 410.51 353.47 411.45 355.44 412.65 357.41 Z M 414.10 347.45 L 414.17 346.26 414.37 345.21 414.70 344.28 415.17 343.48 415.77 342.82 416.35 342.37 416.98 342.02 417.65 341.77 418.38 341.62 419.15 341.57 420.01 341.63 420.80 341.81 421.52 342.11 422.18 342.54 422.78 343.09 423.28 343.74 423.68 344.49 423.96 345.33 424.13 346.26 424.18 347.29 424.16 348.12 424.08 348.88 423.96 349.56 423.78 350.17 423.56 350.71 423.28 351.18 422.97 351.61 422.60 352.00 422.20 352.34 421.74 352.64 421.26 352.89 420.75 353.08 420.23 353.22 419.70 353.30 419.14 353.33 418.27 353.27 417.47 353.08 416.74 352.78 416.08 352.36 415.49 351.81 414.99 351.15 414.60 350.39 414.33 349.51 414.16 348.53 414.10 347.45 Z M 416.02 347.44 L 416.06 348.20 416.16 348.87 416.34 349.47 416.59 349.98 416.91 350.42 417.28 350.77 417.69 351.05 418.14 351.25 418.62 351.37 419.14 351.41 419.66 351.37 420.14 351.25 420.59 351.05 421.00 350.77 421.37 350.41 421.69 349.97 421.94 349.45 422.12 348.85 422.23 348.16 422.26 347.38 422.23 346.65 422.12 346.00 421.94 345.41 421.69 344.91 421.37 344.48 421.00 344.12 420.59 343.84 420.14 343.65 419.67 343.53 419.15 343.49 418.63 343.53 418.15 343.64 417.70 343.84 417.29 344.12 416.92 344.47 416.59 344.91 416.35 345.42 416.17 346.01 416.06 346.69 416.02 347.44 Z M 426.34 353.09 L 426.35 341.81 428.03 341.81 428.03 343.48 428.28 343.04 428.53 342.67 428.77 342.36 429.00 342.12 429.22 341.94 429.44 341.80 429.68 341.70 429.92 341.63 430.16 341.58 430.42 341.57 430.80 341.59 431.18 341.66 431.57 341.78 431.96 341.95 432.35 342.16 431.71 343.88 431.44 343.74 431.17 343.63 430.90 343.55 430.63 343.50 430.36 343.49 430.12 343.50 429.89 343.55 429.68 343.62 429.47 343.73 429.27 343.87 429.09 344.03 428.93 344.22 428.79 344.43 428.67 344.66 428.58 344.92 428.46 345.33 428.38 345.77 428.31 346.21 428.28 346.68 428.26 347.16 428.26 353.09 Z M 439.06 347.81 L 440.98 347.81 441.05 348.26 441.14 348.68 441.27 349.06 441.42 349.41 441.60 349.73 441.82 350.02 442.08 350.28 442.38 350.53 442.72 350.75 443.11 350.94 443.53 351.11 443.97 351.24 444.43 351.33 444.91 351.39 445.41 351.41 445.85 351.39 446.28 351.35 446.68 351.28 447.06 351.18 447.42 351.06 447.75 350.91 448.04 350.73 448.30 350.54 448.53 350.33 448.72 350.09 448.87 349.84 448.99 349.59 449.07 349.33 449.12 349.07 449.14 348.80 449.13 348.54 449.09 348.28 449.03 348.04 448.94 347.82 448.82 347.61 448.67 347.41 448.46 347.22 448.20 347.05 447.89 346.88 447.52 346.73 447.21 346.63 446.77 346.50 446.21 346.36 445.53 346.19 444.73 346.00 443.91 345.80 443.20 345.61 442.60 345.42 442.11 345.24 441.72 345.05 441.30 344.81 440.93 344.55 440.60 344.26 440.32 343.96 440.08 343.63 439.89 343.28 439.74 342.91 439.63 342.53 439.57 342.13 439.55 341.72 439.58 341.26 439.66 340.81 439.79 340.38 439.98 339.95 440.22 339.54 440.51 339.16 440.85 338.81 441.24 338.51 441.68 338.24 442.16 338.01 442.69 337.82 443.23 337.68 443.80 337.57 444.39 337.51 445.01 337.49 445.68 337.51 446.32 337.57 446.93 337.68 447.50 337.84 448.05 338.03 448.55 338.27 449.00 338.55 449.41 338.88 449.76 339.24 450.07 339.64 450.33 340.08 450.53 340.54 450.68 341.02 450.78 341.52 450.83 342.05 448.91 342.05 448.81 341.55 448.66 341.10 448.44 340.71 448.16 340.37 447.82 340.07 447.42 339.83 446.94 339.65 446.39 339.51 445.77 339.43 445.08 339.41 444.37 339.43 443.74 339.51 443.19 339.64 442.72 339.83 442.33 340.07 442.02 340.34 441.78 340.64 441.61 340.96 441.50 341.30 441.47 341.66 441.49 341.97 441.57 342.26 441.69 342.53 441.86 342.77 442.08 342.99 442.40 343.20 442.87 343.42 443.50 343.63 444.28 343.85 445.21 344.06 446.16 344.28 446.97 344.48 447.65 344.67 448.20 344.86 448.61 345.03 449.09 345.29 449.51 345.57 449.88 345.88 450.20 346.22 450.47 346.58 450.68 346.97 450.85 347.38 450.97 347.82 451.04 348.28 451.06 348.76 451.03 349.24 450.95 349.71 450.81 350.17 450.62 350.62 450.37 351.05 450.07 351.46 449.72 351.84 449.33 352.17 448.88 352.47 448.39 352.73 447.86 352.94 447.30 353.11 446.72 353.23 446.12 353.30 445.48 353.33 444.69 353.30 443.95 353.22 443.27 353.09 442.63 352.91 442.06 352.68 441.53 352.40 441.05 352.06 440.61 351.67 440.23 351.23 439.89 350.74 439.60 350.21 439.38 349.65 439.21 349.06 439.11 348.45 439.06 347.81 Z M 454.18 353.09 L 454.19 337.73 456.11 337.73 456.10 353.09 Z M 459.94 353.09 L 459.95 337.73 463.26 337.73 466.39 348.55 466.55 349.13 466.70 349.64 466.82 350.09 466.93 350.48 467.02 350.81 467.12 350.45 467.24 350.02 467.37 349.53 467.53 348.98 467.71 348.37 470.81 337.73 474.11 337.73 474.10 353.09 472.18 353.09 472.19 339.65 468.32 353.09 465.72 353.09 461.87 339.65 461.86 353.09 Z M 476.50 348.53 L 476.50 346.61 482.50 346.61 482.50 348.53 Z M 491.38 353.09 L 489.46 353.09 489.47 341.12 489.17 341.38 488.84 341.64 488.48 341.89 488.08 342.15 487.65 342.41 487.21 342.66 486.79 342.88 486.38 343.07 486.00 343.24 485.63 343.38 485.63 341.57 486.26 341.26 486.85 340.92 487.41 340.56 487.95 340.18 488.44 339.77 488.90 339.35 489.30 338.94 489.64 338.53 489.93 338.13 490.15 337.73 491.39 337.73 Z M 502.18 353.09 L 502.18 349.49 495.22 349.49 495.22 347.57 502.67 337.97 504.11 337.97 504.10 347.57 506.02 347.57 506.02 349.49 504.10 349.49 504.10 353.09 Z M 502.18 347.57 L 502.19 341.63 497.59 347.57 Z M 508.42 353.09 L 508.43 337.73 510.35 337.73 510.34 351.17 518.02 351.17 518.02 353.09 Z M 520.18 353.09 L 520.19 337.73 522.11 337.73 522.11 343.97 530.27 343.97 530.27 337.73 532.19 337.73 532.18 353.09 530.26 353.09 530.26 345.89 522.10 345.89 522.10 353.09 Z M 539.14 350.69 L 539.14 346.61 535.06 346.61 535.06 344.69 539.14 344.69 539.15 340.61 541.07 340.61 541.06 344.69 545.14 344.69 545.14 346.61 541.06 346.61 541.06 350.69 Z M 553.30 347.45 L 553.37 346.26 553.57 345.21 553.90 344.28 554.37 343.48 554.97 342.82 555.55 342.37 556.18 342.02 556.85 341.77 557.58 341.62 558.35 341.57 559.21 341.63 560.00 341.81 560.72 342.11 561.38 342.54 561.98 343.09 562.48 343.74 562.88 344.49 563.16 345.33 563.33 346.26 563.38 347.29 563.36 348.12 563.28 348.88 563.16 349.56 562.98 350.17 562.76 350.71 562.48 351.18 562.17 351.61 561.80 352.00 561.40 352.34 560.94 352.64 560.46 352.89 559.95 353.08 559.43 353.22 558.90 353.30 558.34 353.33 557.47 353.27 556.67 353.08 555.94 352.78 555.28 352.36 554.69 351.81 554.19 351.15 553.80 350.39 553.52 349.51 553.36 348.53 553.30 347.45 Z M 555.22 347.44 L 555.26 348.20 555.36 348.87 555.54 349.47 555.79 349.98 556.11 350.42 556.48 350.77 556.89 351.05 557.34 351.25 557.82 351.37 558.34 351.41 558.86 351.37 559.34 351.25 559.79 351.05 560.20 350.77 560.57 350.41 560.89 349.97 561.14 349.45 561.32 348.85 561.43 348.16 561.46 347.38 561.43 346.65 561.32 346.00 561.14 345.41 560.89 344.91 560.57 344.48 560.20 344.12 559.79 343.84 559.34 343.65 558.87 343.53 558.35 343.49 557.83 343.53 557.35 343.64 556.90 343.84 556.49 344.12 556.12 344.47 555.79 344.91 555.55 345.42 555.37 346.01 555.26 346.69 555.22 347.44 Z M 565.54 353.09 L 565.55 341.81 567.23 341.81 567.23 343.48 567.48 343.04 567.73 342.67 567.97 342.36 568.20 342.12 568.42 341.94 568.64 341.80 568.88 341.70 569.12 341.63 569.36 341.58 569.62 341.57 570.00 341.59 570.38 341.66 570.77 341.78 571.16 341.95 571.55 342.16 570.91 343.88 570.64 343.74 570.37 343.63 570.10 343.55 569.83 343.50 569.56 343.49 569.32 343.50 569.09 343.55 568.88 343.62 568.67 343.73 568.47 343.87 568.29 344.03 568.13 344.22 567.99 344.43 567.87 344.66 567.78 344.92 567.66 345.33 567.58 345.77 567.51 346.21 567.48 346.68 567.46 347.16 567.46 353.09 Z M 578.26 347.81 L 580.18 347.81 580.25 348.26 580.34 348.68 580.47 349.06 580.62 349.41 580.80 349.73 581.02 350.02 581.28 350.28 581.58 350.53 581.92 350.75 582.31 350.94 582.73 351.11 583.17 351.24 583.63 351.33 584.11 351.39 584.61 351.41 585.05 351.39 585.48 351.35 585.88 351.28 586.26 351.18 586.62 351.06 586.95 350.91 587.24 350.73 587.50 350.54 587.73 350.33 587.92 350.09 588.07 349.84 588.19 349.59 588.27 349.33 588.32 349.07 588.34 348.80 588.33 348.54 588.29 348.28 588.23 348.04 588.14 347.82 588.02 347.61 587.87 347.41 587.66 347.22 587.40 347.05 587.09 346.88 586.72 346.73 586.41 346.63 585.97 346.50 585.41 346.36 584.73 346.19 583.93 346.00 583.11 345.80 582.40 345.61 581.80 345.42 581.31 345.24 580.92 345.05 580.50 344.81 580.13 344.55 579.80 344.26 579.52 343.96 579.28 343.63 579.09 343.28 578.94 342.91 578.83 342.53 578.77 342.13 578.75 341.72 578.78 341.26 578.86 340.81 578.99 340.38 579.18 339.95 579.42 339.54 579.71 339.16 580.05 338.81 580.44 338.51 580.88 338.24 581.36 338.01 581.89 337.82 582.43 337.68 583.00 337.57 583.59 337.51 584.21 337.49 584.88 337.51 585.52 337.57 586.13 337.68 586.70 337.84 587.25 338.03 587.75 338.27 588.20 338.55 588.61 338.88 588.96 339.24 589.27 339.64 589.53 340.08 589.73 340.54 589.88 341.02 589.98 341.52 590.03 342.05 588.11 342.05 588.01 341.55 587.86 341.10 587.64 340.71 587.36 340.37 587.02 340.07 586.62 339.83 586.14 339.65 585.59 339.51 584.97 339.43 584.28 339.41 583.57 339.43 582.94 339.51 582.39 339.64 581.92 339.83 581.53 340.07 581.22 340.34 580.98 340.64 580.81 340.96 580.70 341.30 580.67 341.66 580.69 341.97 580.77 342.26 580.89 342.53 581.06 342.77 581.28 342.99 581.60 343.20 582.07 343.42 582.70 343.63 583.48 343.85 584.41 344.06 585.36 344.28 586.17 344.48 586.85 344.67 587.40 344.86 587.81 345.03 588.29 345.29 588.71 345.57 589.08 345.88 589.40 346.22 589.67 346.58 589.88 346.97 590.05 347.38 590.17 347.82 590.24 348.28 590.26 348.76 590.23 349.24 590.15 349.71 590.01 350.17 589.82 350.62 589.57 351.05 589.27 351.46 588.92 351.84 588.53 352.17 588.08 352.47 587.59 352.73 587.06 352.94 586.50 353.11 585.92 353.23 585.32 353.30 584.68 353.33 583.89 353.30 583.15 353.22 582.47 353.09 581.83 352.91 581.26 352.68 580.73 352.40 580.25 352.06 579.81 351.67 579.43 351.23 579.09 350.74 578.80 350.21 578.58 349.65 578.41 349.06 578.31 348.45 578.26 347.81 Z M 593.38 353.09 L 593.39 337.73 595.31 337.73 595.30 353.09 Z M 599.14 353.09 L 599.15 337.73 602.46 337.73 605.59 348.55 605.75 349.13 605.90 349.64 606.02 350.09 606.13 350.48 606.22 350.81 606.32 350.45 606.44 350.02 606.57 349.53 606.73 348.98 606.91 348.37 610.01 337.73 613.31 337.73 613.30 353.09 611.38 353.09 611.39 339.65 607.52 353.09 604.92 353.09 601.07 339.65 601.06 353.09 Z M 615.70 348.53 L 615.70 346.61 621.70 346.61 621.70 348.53 Z M 630.58 353.09 L 628.66 353.09 628.67 341.12 628.37 341.38 628.04 341.64 627.68 341.89 627.28 342.15 626.85 342.41 626.41 342.66 625.99 342.88 625.58 343.07 625.20 343.24 624.83 343.38 624.83 341.57 625.46 341.26 626.05 340.92 626.61 340.56 627.15 340.18 627.64 339.77 628.10 339.35 628.50 338.94 628.84 338.53 629.13 338.13 629.35 337.73 630.59 337.73 Z M 635.14 349.01 L 637.06 348.77 637.17 349.27 637.32 349.72 637.51 350.11 637.75 350.45 638.03 350.75 638.34 350.98 638.70 351.17 639.11 351.30 639.55 351.38 640.03 351.41 640.62 351.37 641.16 351.26 641.64 351.08 642.07 350.82 642.44 350.49 642.75 350.09 642.99 349.65 643.16 349.16 643.27 348.63 643.30 348.04 643.27 347.49 643.17 346.99 643.01 346.53 642.79 346.12 642.50 345.76 642.15 345.46 641.72 345.23 641.24 345.06 640.69 344.96 640.07 344.93 639.67 344.94 639.31 344.98 638.97 345.05 638.66 345.14 638.38 345.26 638.13 345.40 637.89 345.56 637.68 345.73 637.48 345.92 637.30 346.13 635.38 345.89 637.07 337.97 644.51 337.97 644.51 339.89 638.62 339.89 637.80 344.12 638.34 343.72 638.89 343.41 639.45 343.18 640.03 343.05 640.61 343.01 641.36 343.06 642.07 343.23 642.72 343.50 643.33 343.89 643.89 344.38 644.37 344.97 644.74 345.61 645.01 346.32 645.17 347.09 645.22 347.92 645.17 348.72 645.03 349.48 644.79 350.19 644.45 350.86 644.01 351.49 643.39 352.15 642.67 352.66 641.87 353.03 640.99 353.25 640.02 353.33 639.22 353.28 638.48 353.14 637.81 352.90 637.19 352.57 636.64 352.14 636.16 351.64 635.77 351.07 635.47 350.45 635.26 349.76 635.14 349.01 Z M 646.90 349.01 L 648.82 348.77 648.97 349.30 649.15 349.76 649.36 350.17 649.60 350.51 649.88 350.79 650.19 351.01 650.54 351.18 650.94 351.31 651.38 351.38 651.86 351.41 652.42 351.37 652.94 351.27 653.40 351.10 653.82 350.86 654.19 350.56 654.51 350.20 654.75 349.81 654.92 349.39 655.03 348.93 655.06 348.45 655.03 347.98 654.93 347.55 654.75 347.16 654.51 346.79 654.21 346.46 653.84 346.18 653.44 345.96 653.01 345.80 652.53 345.71 652.02 345.68 651.80 345.69 651.55 345.71 651.28 345.75 650.99 345.81 650.68 345.89 650.89 343.97 650.97 343.98 651.04 343.98 651.10 343.99 651.15 343.99 651.20 343.99 651.68 343.97 652.13 343.90 652.57 343.79 652.98 343.64 653.38 343.44 653.73 343.19 654.00 342.90 654.19 342.56 654.31 342.18 654.35 341.74 654.32 341.39 654.24 341.07 654.10 340.77 653.90 340.49 653.65 340.24 653.35 340.03 653.02 339.86 652.66 339.74 652.27 339.67 651.84 339.65 651.42 339.67 651.02 339.74 650.66 339.86 650.32 340.03 650.01 340.25 649.74 340.51 649.51 340.82 649.32 341.18 649.17 341.59 649.07 342.05 647.15 341.81 647.32 341.06 647.57 340.39 647.88 339.79 648.27 339.26 648.72 338.80 649.24 338.41 649.80 338.11 650.41 337.90 651.07 337.77 651.78 337.73 652.27 337.75 652.75 337.81 653.21 337.92 653.66 338.06 654.09 338.25 654.50 338.48 654.86 338.74 655.18 339.03 655.47 339.34 655.71 339.69 655.91 340.06 656.07 340.44 656.18 340.83 656.25 341.23 656.27 341.63 656.25 342.01 656.18 342.38 656.08 342.73 655.93 343.07 655.73 343.40 655.50 343.71 655.23 343.99 654.91 344.24 654.55 344.47 654.16 344.67 654.68 344.83 655.14 345.03 655.56 345.30 655.93 345.61 656.25 345.98 656.51 346.40 656.72 346.86 656.87 347.36 656.95 347.90 656.98 348.48 656.92 349.27 656.75 350.00 656.45 350.69 656.04 351.33 655.51 351.92 654.89 352.42 654.21 352.82 653.46 353.10 652.66 353.27 651.79 353.33 651.01 353.28 650.28 353.13 649.61 352.89 648.99 352.56 648.43 352.12 647.94 351.61 647.54 351.05 647.23 350.42 647.02 349.74 646.90 349.01 Z M 659.38 353.09 L 659.39 337.73 661.31 337.73 661.30 351.17 668.98 351.17 668.98 353.09 Z M 671.14 353.09 L 671.15 337.73 673.07 337.73 673.07 343.97 681.23 343.97 681.23 337.73 683.15 337.73 683.14 353.09 681.22 353.09 681.22 345.89 673.06 345.89 673.06 353.09 Z M 690.10 350.69 L 690.10 346.61 686.02 346.61 686.02 344.69 690.10 344.69 690.11 340.61 692.03 340.61 692.02 344.69 696.10 344.69 696.10 346.61 692.02 346.61 692.02 350.69 Z M 699.21 357.41 L 697.77 357.41 698.98 355.44 699.93 353.47 700.60 351.50 701.01 349.54 701.14 347.57 701.13 346.80 701.07 346.03 700.97 345.27 700.84 344.51 700.66 343.75 700.50 343.14 700.31 342.54 700.10 341.95 699.86 341.37 699.60 340.80 699.39 340.38 699.10 339.86 698.74 339.25 698.30 338.54 697.79 337.73 699.23 337.73 700.00 338.76 700.69 339.79 701.29 340.82 701.80 341.85 702.24 342.89 702.53 343.79 702.77 344.70 702.93 345.64 703.03 346.59 703.06 347.56 703.02 348.66 702.88 349.74 702.66 350.81 702.34 351.86 701.94 352.90 701.47 353.91 700.96 354.86 700.42 355.76 699.83 356.61 699.21 357.41 Z" />
<path fill="rgb(0,0,0)" stroke="rgb(0,0,0)" stroke-width="2" d=" M 813 206 L 773 206 773 196 813 196 813 206 Z" />
<polyline points="793.00 226.22 793.00 206.22" fill="none" stroke="rgb(0,0,0)" stroke-width="2" />
<path fill="rgb(0,0,0)" stroke="rgb(0,0,0)" stroke-width="2" d=" M 893 206 L 853 206 853 196 893 196 893 206 Z" />
<polyline points="873.00 226.22 873.00 206.22" fill="none" stroke="rgb(0,0,0)" stroke-width="2" />
<path fill="rgb(0,0,0)" stroke="rgb(0,0,0)" stroke-width="2" d=" M 733 486 L 773 486 773 496 733 496 733 486 Z" />
<polyline points="753.00 466.22 753.00 486.22" fill="none" stroke="rgb(0,0,0)" stroke-width="2" />
<path fill="rgb(0,0,0)" stroke="rgb(0,0,0)" stroke-width="2" d=" M 773 486 L 813 486 813 496 773 496 773 486 Z" />
<polyline points="793.00 466.22 793.00 486.22" fill="none" stroke="rgb(0,0,0)" stroke-width="2" />
<path fill="rgb(0,0,0)" stroke="rgb(0,0,0)" stroke-width="2" d=" M 813 486 L 853 486 853 496 813 496 813 486 Z" />
<polyline points="833.00 466.22 833.00 486.22" fill="none" stroke="rgb(0,0,0)" stroke-width="2" />
<polyline points="873.00 466.22 873.00 496.22 893.00 516.22 948.00 516.22" fill="none" stroke="rgb(0,0,0)" stroke-width="7" />
</svg>
