<?xml version="1.0" encoding="utf-8"?>
<!-- Created with "sPlan" (http://www.abacom-online.de) -->
<svg version="1.1" baseProfile="full"
xmlns="http://www.w3.org/2000/svg"
width="148mm" height="55mm"
viewBox="0 0 1484 554">
<title>MIX2 schematic</title>
<defs>
<style type="text/css">
<![CDATA[
polyline {stroke-linecap:round; stroke-linejoin:round}
polygon {stroke-linecap:round; stroke-linejoin:round}
path {stroke-linecap:round; stroke-linejoin:round}
circle {stroke-linecap:round; stroke-linejoin:round}
]]>
</style>
</defs>
<path fill="rgb(255,255,255)" stroke="rgb(0,0,0)" stroke-width="2" d=" M 713 406 L 713 246 913 246 913 406 713 406 Z" />
<polyline points="753.00 406.22 753.00 446.22" fill="none" stroke="rgb(0,0,0)" stroke-width="2" />
<path fill="rgb(0,0,0)" stroke="rgb(0,0,0)" stroke-width="0" d=" M 754.41 387.67 L 752.41 387.67 752.41 381.17 758.39 381.18 758.87 381.81 759.30 382.44 759.67 383.08 760.00 383.73 760.28 384.39 760.51 385.06 760.68 385.73 760.81 386.41 760.89 387.09 760.91 387.78 760.87 388.71 760.75 389.60 760.55 390.45 760.27 391.27 759.91 392.06 759.47 392.79 758.96 393.44 758.37 394.02 757.72 394.52 756.99 394.95 756.21 395.30 755.40 395.57 754.55 395.77 753.66 395.89 752.74 395.92 751.82 395.88 750.92 395.77 750.05 395.57 749.21 395.30 748.39 394.94 747.62 394.52 746.94 394.03 746.34 393.47 745.83 392.84 745.39 392.14 745.04 391.39 744.76 390.59 744.57 389.75 744.45 388.86 744.41 387.93 744.43 387.25 744.50 386.60 744.62 385.97 744.77 385.37 744.98 384.80 745.22 384.26 745.51 383.78 745.82 383.34 746.17 382.95 746.56 382.61 746.99 382.30 747.47 382.03 748.00 381.79 748.58 381.58 749.21 381.40 749.73 383.24 749.27 383.40 748.86 383.57 748.49 383.75 748.17 383.94 747.88 384.15 747.62 384.39 747.39 384.66 747.17 384.98 746.98 385.32 746.81 385.71 746.67 386.13 746.56 386.56 746.48 387.01 746.43 387.47 746.41 387.96 746.43 388.54 746.48 389.08 746.57 389.59 746.69 390.07 746.84 390.52 747.03 390.94 747.23 391.32 747.46 391.67 747.71 391.98 747.98 392.26 748.26 392.52 748.56 392.75 748.87 392.95 749.19 393.14 749.52 393.30 750.11 393.52 750.71 393.70 751.34 393.82 751.99 393.90 752.66 393.92 753.46 393.89 754.21 393.80 754.91 393.65 755.55 393.44 756.14 393.17 756.68 392.85 757.15 392.46 757.57 392.03 757.93 391.54 758.23 390.99 758.47 390.41 758.67 389.81 758.80 389.21 758.88 388.58 758.91 387.94 758.89 387.39 758.83 386.83 758.73 386.28 758.58 385.74 758.40 385.21 758.19 384.70 757.98 384.24 757.76 383.83 757.53 383.48 757.30 383.18 754.41 383.17 Z M 760.66 377.93 L 744.66 377.92 744.66 375.78 757.34 367.43 744.66 367.42 744.66 365.42 760.66 365.43 760.66 367.57 747.98 375.92 760.66 375.93 Z M 760.66 361.93 L 744.66 361.92 744.66 356.40 744.67 355.68 744.70 355.04 744.74 354.47 744.81 353.97 744.89 353.54 745.04 353.01 745.23 352.51 745.46 352.03 745.73 351.60 746.04 351.19 746.49 350.71 746.99 350.28 747.53 349.90 748.13 349.57 748.77 349.30 749.46 349.07 750.18 348.90 750.94 348.77 751.74 348.70 752.58 348.67 753.29 348.69 753.97 348.74 754.61 348.83 755.22 348.95 755.80 349.10 756.35 349.28 756.85 349.48 757.32 349.70 757.75 349.94 758.13 350.20 758.49 350.47 758.81 350.76 759.10 351.05 759.36 351.35 759.58 351.66 759.79 351.99 759.97 352.35 760.13 352.73 760.27 353.14 760.39 353.57 760.49 354.04 760.56 354.52 760.62 355.04 760.65 355.58 760.66 356.15 Z M 758.66 359.93 L 758.66 356.39 758.65 355.76 758.61 355.19 758.56 354.67 758.48 354.22 758.37 353.81 758.25 353.46 758.10 353.13 757.94 352.83 757.76 352.57 757.56 352.33 757.24 352.03 756.88 351.76 756.49 351.52 756.05 351.30 755.57 351.11 755.05 350.95 754.49 350.83 753.88 350.74 753.23 350.69 752.54 350.67 751.60 350.71 750.75 350.81 750.00 350.98 749.33 351.22 748.75 351.52 748.26 351.88 747.84 352.26 747.48 352.68 747.20 353.12 746.98 353.60 746.87 353.99 746.78 354.47 746.71 355.04 746.67 355.69 746.66 356.43 746.66 359.92 Z" />
<polyline points="793.00 406.22 793.00 446.22" fill="none" stroke="rgb(0,0,0)" stroke-width="2" />
<path fill="rgb(0,0,0)" stroke="rgb(0,0,0)" stroke-width="0" d=" M 800.66 395.18 L 784.66 395.17 784.66 393.17 798.66 393.18 798.66 385.18 800.66 385.18 Z M 792.87 383.67 L 791.35 383.59 789.97 383.33 788.73 382.90 787.62 382.30 786.66 381.54 785.85 380.63 785.22 379.63 784.77 378.53 784.50 377.33 784.41 376.03 784.45 375.16 784.58 374.33 784.79 373.54 785.09 372.78 785.47 372.05 785.92 371.37 786.44 370.77 787.03 370.23 787.69 369.75 788.41 369.35 789.18 369.01 790.00 368.75 790.85 368.57 791.75 368.46 792.69 368.42 793.64 368.46 794.55 368.58 795.42 368.78 796.24 369.06 797.03 369.41 797.76 369.83 798.41 370.32 798.99 370.88 799.50 371.50 799.93 372.18 800.28 372.91 800.56 373.67 800.75 374.44 800.87 375.24 800.91 376.06 800.87 376.94 800.74 377.78 800.52 378.58 800.21 379.35 799.82 380.08 799.36 380.75 798.83 381.36 798.23 381.89 797.58 382.36 796.85 382.76 796.09 383.09 795.31 383.35 794.52 383.53 793.70 383.64 792.87 383.67 Z M 792.89 381.67 L 793.96 381.61 794.94 381.42 795.82 381.10 796.61 380.66 797.30 380.08 797.88 379.41 798.33 378.67 798.65 377.87 798.85 377.00 798.91 376.07 798.85 375.12 798.65 374.24 798.33 373.43 797.87 372.69 797.29 372.02 796.58 371.45 795.77 371.00 794.85 370.68 793.81 370.49 792.67 370.42 791.94 370.45 791.24 370.53 790.58 370.67 789.96 370.86 789.37 371.10 788.83 371.40 788.35 371.74 787.91 372.14 787.52 372.59 787.19 373.08 786.91 373.62 786.69 374.18 786.54 374.77 786.44 375.38 786.41 376.02 786.47 376.92 786.65 377.77 786.95 378.56 787.37 379.31 787.91 380.00 788.58 380.60 789.42 381.07 790.42 381.40 791.57 381.61 792.89 381.67 Z" />
<polyline points="833.00 406.22 833.00 446.22" fill="none" stroke="rgb(0,0,0)" stroke-width="2" />
<path fill="rgb(0,0,0)" stroke="rgb(0,0,0)" stroke-width="0" d=" M 834.41 387.67 L 832.41 387.67 832.41 381.17 838.39 381.18 838.87 381.81 839.30 382.44 839.67 383.08 840.00 383.73 840.28 384.39 840.51 385.06 840.68 385.73 840.81 386.41 840.89 387.09 840.91 387.78 840.87 388.71 840.75 389.60 840.55 390.45 840.27 391.27 839.91 392.06 839.47 392.79 838.96 393.44 838.37 394.02 837.72 394.52 836.99 394.95 836.21 395.30 835.40 395.57 834.55 395.77 833.66 395.89 832.74 395.92 831.82 395.88 830.92 395.77 830.05 395.57 829.21 395.30 828.39 394.94 827.62 394.52 826.94 394.03 826.34 393.47 825.83 392.84 825.39 392.14 825.04 391.39 824.76 390.59 824.57 389.75 824.45 388.86 824.41 387.93 824.43 387.25 824.50 386.60 824.62 385.97 824.77 385.37 824.98 384.80 825.22 384.26 825.51 383.78 825.82 383.34 826.17 382.95 826.56 382.61 826.99 382.30 827.47 382.03 828.00 381.79 828.58 381.58 829.21 381.40 829.73 383.24 829.27 383.40 828.86 383.57 828.49 383.75 828.17 383.94 827.88 384.15 827.62 384.39 827.39 384.66 827.17 384.98 826.98 385.32 826.81 385.71 826.67 386.13 826.56 386.56 826.48 387.01 826.43 387.47 826.41 387.96 826.43 388.54 826.48 389.08 826.57 389.59 826.69 390.07 826.84 390.52 827.03 390.94 827.23 391.32 827.46 391.67 827.71 391.98 827.98 392.26 828.26 392.52 828.56 392.75 828.87 392.95 829.19 393.14 829.52 393.30 830.11 393.52 830.71 393.70 831.34 393.82 831.99 393.90 832.66 393.92 833.46 393.89 834.21 393.80 834.91 393.65 835.55 393.44 836.14 393.17 836.68 392.85 837.15 392.46 837.57 392.03 837.93 391.54 838.23 390.99 838.47 390.41 838.67 389.81 838.80 389.21 838.88 388.58 838.91 387.94 838.89 387.39 838.83 386.83 838.73 386.28 838.58 385.74 838.40 385.21 838.19 384.70 837.98 384.24 837.76 383.83 837.53 383.48 837.30 383.18 834.41 383.17 Z M 840.66 377.93 L 824.66 377.92 824.66 375.78 837.34 367.43 824.66 367.42 824.66 365.42 840.66 365.43 840.66 367.57 827.98 375.92 840.66 375.93 Z M 840.66 361.93 L 824.66 361.92 824.66 356.40 824.67 355.68 824.70 355.04 824.74 354.47 824.81 353.97 824.89 353.54 825.04 353.01 825.23 352.51 825.46 352.03 825.73 351.60 826.04 351.19 826.49 350.71 826.99 350.28 827.53 349.90 828.13 349.57 828.77 349.30 829.46 349.07 830.18 348.90 830.94 348.77 831.74 348.70 832.58 348.67 833.29 348.69 833.97 348.74 834.61 348.83 835.22 348.95 835.80 349.10 836.35 349.28 836.85 349.48 837.32 349.70 837.75 349.94 838.13 350.20 838.49 350.47 838.81 350.76 839.10 351.05 839.36 351.35 839.58 351.66 839.79 351.99 839.97 352.35 840.13 352.73 840.27 353.14 840.39 353.57 840.49 354.04 840.56 354.52 840.62 355.04 840.65 355.58 840.66 356.15 Z M 838.66 359.93 L 838.66 356.39 838.65 355.76 838.61 355.19 838.56 354.67 838.48 354.22 838.37 353.81 838.25 353.46 838.10 353.13 837.94 352.83 837.76 352.57 837.56 352.33 837.24 352.03 836.88 351.76 836.49 351.52 836.05 351.30 835.57 351.11 835.05 350.95 834.49 350.83 833.88 350.74 833.23 350.69 832.54 350.67 831.60 350.71 830.75 350.81 830.00 350.98 829.33 351.22 828.75 351.52 828.26 351.88 827.84 352.26 827.48 352.68 827.20 353.12 826.98 353.60 826.87 353.99 826.78 354.47 826.71 355.04 826.67 355.69 826.66 356.43 826.66 359.92 Z" />
<polyline points="873.00 406.22 873.00 446.22" fill="none" stroke="rgb(0,0,0)" stroke-width="2" />
<path fill="rgb(0,0,0)" stroke="rgb(0,0,0)" stroke-width="0" d=" M 874.41 387.67 L 872.41 387.67 872.41 381.17 878.39 381.18 878.87 381.81 879.30 382.44 879.67 383.08 880.00 383.73 880.28 384.39 880.51 385.06 880.68 385.73 880.81 386.41 880.89 387.09 880.91 387.78 880.87 388.71 880.75 389.60 880.55 390.45 880.27 391.27 879.91 392.06 879.47 392.79 878.96 393.44 878.37 394.02 877.72 394.52 876.99 394.95 876.21 395.30 875.40 395.57 874.55 395.77 873.66 395.89 872.74 395.92 871.82 395.88 870.92 395.77 870.05 395.57 869.21 395.30 868.39 394.94 867.62 394.52 866.94 394.03 866.34 393.47 865.83 392.84 865.39 392.14 865.04 391.39 864.76 390.59 864.57 389.75 864.45 388.86 864.41 387.93 864.43 387.25 864.50 386.60 864.62 385.97 864.77 385.37 864.98 384.80 865.22 384.26 865.51 383.78 865.82 383.34 866.17 382.95 866.56 382.61 866.99 382.30 867.47 382.03 868.00 381.79 868.58 381.58 869.21 381.40 869.73 383.24 869.27 383.40 868.86 383.57 868.49 383.75 868.17 383.94 867.88 384.15 867.62 384.39 867.39 384.66 867.17 384.98 866.98 385.32 866.81 385.71 866.67 386.13 866.56 386.56 866.48 387.01 866.43 387.47 866.41 387.96 866.43 388.54 866.48 389.08 866.57 389.59 866.69 390.07 866.84 390.52 867.03 390.94 867.23 391.32 867.46 391.67 867.71 391.98 867.98 392.26 868.26 392.52 868.56 392.75 868.87 392.95 869.19 393.14 869.52 393.30 870.11 393.52 870.71 393.70 871.34 393.82 871.99 393.90 872.66 393.92 873.46 393.89 874.21 393.80 874.91 393.65 875.55 393.44 876.14 393.17 876.68 392.85 877.15 392.46 877.57 392.03 877.93 391.54 878.23 390.99 878.47 390.41 878.67 389.81 878.80 389.21 878.88 388.58 878.91 387.94 878.89 387.39 878.83 386.83 878.73 386.28 878.58 385.74 878.40 385.21 878.19 384.70 877.98 384.24 877.76 383.83 877.53 383.48 877.30 383.18 874.41 383.17 Z M 880.66 377.93 L 864.66 377.92 864.66 375.78 877.34 367.43 864.66 367.42 864.66 365.42 880.66 365.43 880.66 367.57 867.98 375.92 880.66 375.93 Z M 880.66 361.93 L 864.66 361.92 864.66 356.40 864.67 355.68 864.70 355.04 864.74 354.47 864.81 353.97 864.89 353.54 865.04 353.01 865.23 352.51 865.46 352.03 865.73 351.60 866.04 351.19 866.49 350.71 866.99 350.28 867.53 349.90 868.13 349.57 868.77 349.30 869.46 349.07 870.18 348.90 870.94 348.77 871.74 348.70 872.58 348.67 873.29 348.69 873.97 348.74 874.61 348.83 875.22 348.95 875.80 349.10 876.35 349.28 876.85 349.48 877.32 349.70 877.75 349.94 878.13 350.20 878.49 350.47 878.81 350.76 879.10 351.05 879.36 351.35 879.58 351.66 879.79 351.99 879.97 352.35 880.13 352.73 880.27 353.14 880.39 353.57 880.49 354.04 880.56 354.52 880.62 355.04 880.65 355.58 880.66 356.15 Z M 878.66 359.93 L 878.66 356.39 878.65 355.76 878.61 355.19 878.56 354.67 878.48 354.22 878.37 353.81 878.25 353.46 878.10 353.13 877.94 352.83 877.76 352.57 877.56 352.33 877.24 352.03 876.88 351.76 876.49 351.52 876.05 351.30 875.57 351.11 875.05 350.95 874.49 350.83 873.88 350.74 873.23 350.69 872.54 350.67 871.60 350.71 870.75 350.81 870.00 350.98 869.33 351.22 868.75 351.52 868.26 351.88 867.84 352.26 867.48 352.68 867.20 353.12 866.98 353.60 866.87 353.99 866.78 354.47 866.71 355.04 866.67 355.69 866.66 356.43 866.66 359.92 Z" />
<polyline points="753.00 206.22 753.00 246.22" fill="none" stroke="rgb(0,0,0)" stroke-width="2" />
<polyline points="793.00 206.22 793.00 246.22" fill="none" stroke="rgb(0,0,0)" stroke-width="2" />
<polyline points="833.00 206.22 833.00 246.22" fill="none" stroke="rgb(0,0,0)" stroke-width="2" />
<polyline points="873.00 206.22 873.00 246.22" fill="none" stroke="rgb(0,0,0)" stroke-width="2" />
<path fill="rgb(0,0,0)" stroke="rgb(0,0,0)" stroke-width="0" d=" M 880.66 272.43 L 864.66 272.42 864.66 270.42 880.66 270.43 Z M 880.66 266.43 L 864.66 266.42 864.66 255.67 866.66 255.67 866.66 264.42 871.41 264.42 871.41 256.92 873.41 256.92 873.41 264.42 880.66 264.43 Z" />
<path fill="rgb(0,0,0)" stroke="rgb(0,0,0)" stroke-width="0" d=" M 834.41 294.67 L 832.41 294.67 832.41 288.17 838.39 288.18 838.87 288.81 839.30 289.44 839.67 290.08 840.00 290.73 840.28 291.39 840.51 292.06 840.68 292.73 840.81 293.41 840.89 294.09 840.91 294.78 840.87 295.71 840.75 296.60 840.55 297.45 840.27 298.27 839.91 299.06 839.47 299.79 838.96 300.44 838.37 301.02 837.72 301.52 836.99 301.95 836.21 302.30 835.40 302.57 834.55 302.77 833.66 302.89 832.74 302.92 831.82 302.88 830.92 302.77 830.05 302.57 829.21 302.30 828.39 301.94 827.62 301.52 826.94 301.03 826.34 300.47 825.83 299.84 825.39 299.14 825.04 298.39 824.76 297.59 824.57 296.75 824.45 295.86 824.41 294.93 824.43 294.25 824.50 293.60 824.62 292.97 824.77 292.37 824.98 291.80 825.22 291.26 825.51 290.78 825.82 290.34 826.17 289.95 826.56 289.61 826.99 289.30 827.47 289.03 828.00 288.79 828.58 288.58 829.21 288.40 829.73 290.24 829.27 290.40 828.86 290.57 828.49 290.75 828.17 290.94 827.88 291.15 827.62 291.39 827.39 291.66 827.17 291.98 826.98 292.32 826.81 292.71 826.67 293.13 826.56 293.56 826.48 294.01 826.43 294.47 826.41 294.96 826.43 295.54 826.48 296.08 826.57 296.59 826.69 297.07 826.84 297.52 827.03 297.94 827.23 298.32 827.46 298.67 827.71 298.98 827.98 299.26 828.26 299.52 828.56 299.75 828.87 299.95 829.19 300.14 829.52 300.30 830.11 300.52 830.71 300.70 831.34 300.82 831.99 300.90 832.66 300.92 833.46 300.89 834.21 300.80 834.91 300.65 835.55 300.44 836.14 300.17 836.68 299.85 837.15 299.46 837.57 299.03 837.93 298.54 838.23 297.99 838.47 297.41 838.67 296.81 838.80 296.21 838.88 295.58 838.91 294.94 838.89 294.39 838.83 293.83 838.73 293.28 838.58 292.74 838.40 292.21 838.19 291.70 837.98 291.24 837.76 290.83 837.53 290.48 837.30 290.18 834.41 290.17 Z M 840.66 284.93 L 824.66 284.92 824.66 282.78 837.34 274.43 824.66 274.42 824.66 272.42 840.66 272.43 840.66 274.57 827.98 282.92 840.66 282.93 Z M 840.66 268.93 L 824.66 268.92 824.66 263.40 824.67 262.68 824.70 262.04 824.74 261.47 824.81 260.97 824.89 260.54 825.04 260.01 825.23 259.51 825.46 259.03 825.73 258.60 826.04 258.19 826.49 257.71 826.99 257.28 827.53 256.90 828.13 256.57 828.77 256.30 829.46 256.07 830.18 255.90 830.94 255.77 831.74 255.70 832.58 255.67 833.29 255.69 833.97 255.74 834.61 255.83 835.22 255.95 835.80 256.10 836.35 256.28 836.85 256.48 837.32 256.70 837.75 256.94 838.13 257.20 838.49 257.47 838.81 257.76 839.10 258.05 839.36 258.35 839.58 258.66 839.79 258.99 839.97 259.35 840.13 259.73 840.27 260.14 840.39 260.57 840.49 261.04 840.56 261.52 840.62 262.04 840.65 262.58 840.66 263.15 Z M 838.66 266.93 L 838.66 263.39 838.65 262.76 838.61 262.19 838.56 261.67 838.48 261.22 838.37 260.81 838.25 260.46 838.10 260.13 837.94 259.83 837.76 259.57 837.56 259.33 837.24 259.03 836.88 258.76 836.49 258.52 836.05 258.30 835.57 258.11 835.05 257.95 834.49 257.83 833.88 257.74 833.23 257.69 832.54 257.67 831.60 257.71 830.75 257.81 830.00 257.98 829.33 258.22 828.75 258.52 828.26 258.88 827.84 259.26 827.48 259.68 827.20 260.12 826.98 260.60 826.87 260.99 826.78 261.47 826.71 262.04 826.67 262.69 826.66 263.43 826.66 266.92 Z" />
<path fill="rgb(0,0,0)" stroke="rgb(0,0,0)" stroke-width="0" d=" M 800.66 282.43 L 784.66 282.42 784.66 275.52 784.68 274.72 784.73 274.00 784.82 273.36 784.94 272.80 785.09 272.32 785.29 271.90 785.54 271.52 785.85 271.17 786.21 270.85 786.62 270.57 787.07 270.34 787.53 270.16 788.02 270.02 788.52 269.95 789.04 269.92 789.70 269.96 790.32 270.09 790.90 270.31 791.43 270.62 791.92 271.01 792.36 271.49 792.72 272.06 793.02 272.73 793.25 273.50 793.41 274.36 793.58 274.07 793.76 273.82 793.93 273.59 794.10 273.39 794.27 273.22 794.64 272.89 795.03 272.57 795.45 272.24 795.88 271.92 796.33 271.60 800.66 268.94 800.66 271.26 797.34 273.34 796.80 273.69 796.31 274.02 795.87 274.32 795.48 274.60 795.15 274.84 794.86 275.07 794.62 275.30 794.41 275.51 794.24 275.71 794.11 275.90 794.01 276.09 793.92 276.28 793.84 276.47 793.78 276.66 793.73 276.85 793.71 277.01 793.69 277.21 793.67 277.44 793.66 277.71 793.66 278.01 793.66 280.42 800.66 280.43 Z M 791.66 280.42 L 791.66 275.95 791.65 275.40 791.62 274.90 791.56 274.44 791.48 274.03 791.38 273.66 791.25 273.34 791.10 273.04 790.92 272.78 790.71 272.56 790.47 272.36 790.22 272.20 789.96 272.08 789.68 271.99 789.40 271.94 789.11 271.92 788.70 271.95 788.32 272.06 787.97 272.22 787.64 272.46 787.35 272.76 787.10 273.14 786.91 273.60 786.77 274.13 786.69 274.74 786.66 275.44 786.66 280.42 Z M 800.66 266.43 L 784.66 266.42 784.66 255.67 786.66 255.67 786.66 264.42 791.41 264.42 791.41 256.92 793.41 256.92 793.41 264.42 800.66 264.43 Z" />
<path fill="rgb(0,0,0)" stroke="rgb(0,0,0)" stroke-width="0" d=" M 754.41 294.67 L 752.41 294.67 752.41 288.17 758.39 288.18 758.87 288.81 759.30 289.44 759.67 290.08 760.00 290.73 760.28 291.39 760.51 292.06 760.68 292.73 760.81 293.41 760.89 294.09 760.91 294.78 760.87 295.71 760.75 296.60 760.55 297.45 760.27 298.27 759.91 299.06 759.47 299.79 758.96 300.44 758.37 301.02 757.72 301.52 756.99 301.95 756.21 302.30 755.40 302.57 754.55 302.77 753.66 302.89 752.74 302.92 751.82 302.88 750.92 302.77 750.05 302.57 749.21 302.30 748.39 301.94 747.62 301.52 746.94 301.03 746.34 300.47 745.83 299.84 745.39 299.14 745.04 298.39 744.76 297.59 744.57 296.75 744.45 295.86 744.41 294.93 744.43 294.25 744.50 293.60 744.62 292.97 744.77 292.37 744.98 291.80 745.22 291.26 745.51 290.78 745.82 290.34 746.17 289.95 746.56 289.61 746.99 289.30 747.47 289.03 748.00 288.79 748.58 288.58 749.21 288.40 749.73 290.24 749.27 290.40 748.86 290.57 748.49 290.75 748.17 290.94 747.88 291.15 747.62 291.39 747.39 291.66 747.17 291.98 746.98 292.32 746.81 292.71 746.67 293.13 746.56 293.56 746.48 294.01 746.43 294.47 746.41 294.96 746.43 295.54 746.48 296.08 746.57 296.59 746.69 297.07 746.84 297.52 747.03 297.94 747.23 298.32 747.46 298.67 747.71 298.98 747.98 299.26 748.26 299.52 748.56 299.75 748.87 299.95 749.19 300.14 749.52 300.30 750.11 300.52 750.71 300.70 751.34 300.82 751.99 300.90 752.66 300.92 753.46 300.89 754.21 300.80 754.91 300.65 755.55 300.44 756.14 300.17 756.68 299.85 757.15 299.46 757.57 299.03 757.93 298.54 758.23 297.99 758.47 297.41 758.67 296.81 758.80 296.21 758.88 295.58 758.91 294.94 758.89 294.39 758.83 293.83 758.73 293.28 758.58 292.74 758.40 292.21 758.19 291.70 757.98 291.24 757.76 290.83 757.53 290.48 757.30 290.18 754.41 290.17 Z M 760.66 284.93 L 744.66 284.92 744.66 282.78 757.34 274.43 744.66 274.42 744.66 272.42 760.66 272.43 760.66 274.57 747.98 282.92 760.66 282.93 Z M 760.66 268.93 L 744.66 268.92 744.66 263.40 744.67 262.68 744.70 262.04 744.74 261.47 744.81 260.97 744.89 260.54 745.04 260.01 745.23 259.51 745.46 259.03 745.73 258.60 746.04 258.19 746.49 257.71 746.99 257.28 747.53 256.90 748.13 256.57 748.77 256.30 749.46 256.07 750.18 255.90 750.94 255.77 751.74 255.70 752.58 255.67 753.29 255.69 753.97 255.74 754.61 255.83 755.22 255.95 755.80 256.10 756.35 256.28 756.85 256.48 757.32 256.70 757.75 256.94 758.13 257.20 758.49 257.47 758.81 257.76 759.10 258.05 759.36 258.35 759.58 258.66 759.79 258.99 759.97 259.35 760.13 259.73 760.27 260.14 760.39 260.57 760.49 261.04 760.56 261.52 760.62 262.04 760.65 262.58 760.66 263.15 Z M 758.66 266.93 L 758.66 263.39 758.65 262.76 758.61 262.19 758.56 261.67 758.48 261.22 758.37 260.81 758.25 260.46 758.10 260.13 757.94 259.83 757.76 259.57 757.56 259.33 757.24 259.03 756.88 258.76 756.49 258.52 756.05 258.30 755.57 258.11 755.05 257.95 754.49 257.83 753.88 257.74 753.23 257.69 752.54 257.67 751.60 257.71 750.75 257.81 750.00 257.98 749.33 258.22 748.75 258.52 748.26 258.88 747.84 259.26 747.48 259.68 747.20 260.12 746.98 260.60 746.87 260.99 746.78 261.47 746.71 262.04 746.67 262.69 746.66 263.43 746.66 266.92 Z" />
<path fill="rgb(0,0,0)" stroke="rgb(0,0,0)" stroke-width="0" d=" M 749.00 419.43 L 749.00 421.03 739.03 421.02 739.24 421.26 739.46 421.54 739.67 421.84 739.89 422.17 740.10 422.53 740.31 422.90 740.49 423.25 740.65 423.59 740.79 423.91 740.91 424.22 739.40 424.22 739.14 423.69 738.86 423.20 738.56 422.73 738.24 422.28 737.90 421.87 737.55 421.49 737.21 421.16 736.87 420.87 736.53 420.63 736.20 420.44 736.20 419.41 Z" />
<path fill="rgb(0,0,0)" stroke="rgb(0,0,0)" stroke-width="0" d=" M 787.40 417.22 L 789.00 417.23 789.00 425.62 788.77 425.62 788.55 425.60 788.33 425.57 788.11 425.52 787.90 425.45 787.55 425.32 787.21 425.15 786.87 424.96 786.53 424.73 786.20 424.48 785.86 424.18 785.51 423.84 785.14 423.43 784.75 422.98 784.34 422.47 783.68 421.70 783.08 421.04 782.55 420.48 782.08 420.04 781.68 419.71 781.31 419.46 780.94 419.26 780.58 419.13 780.22 419.04 779.87 419.02 779.53 419.04 779.21 419.12 778.92 419.25 778.65 419.43 778.40 419.67 778.18 419.94 778.02 420.25 777.90 420.59 777.82 420.96 777.80 421.37 777.82 421.79 777.89 422.18 778.01 422.54 778.17 422.86 778.38 423.14 778.64 423.38 778.92 423.57 779.25 423.70 779.61 423.79 780.00 423.82 779.80 425.42 779.13 425.31 778.53 425.14 777.99 424.89 777.52 424.58 777.12 424.19 776.79 423.73 776.53 423.22 776.35 422.65 776.24 422.02 776.20 421.33 776.24 420.64 776.36 420.00 776.57 419.43 776.86 418.92 777.22 418.47 777.65 418.09 778.12 417.79 778.63 417.58 779.18 417.46 779.77 417.42 780.08 417.43 780.38 417.46 780.69 417.52 780.99 417.60 781.29 417.70 781.59 417.83 781.89 417.99 782.21 418.18 782.53 418.40 782.85 418.65 783.21 418.95 783.60 419.33 784.04 419.79 784.52 420.33 785.05 420.94 785.47 421.47 785.84 421.91 786.15 422.28 786.39 422.57 786.59 422.78 786.75 422.95 786.91 423.11 787.07 423.25 787.24 423.39 787.40 423.51 Z" />
<path fill="rgb(0,0,0)" stroke="rgb(0,0,0)" stroke-width="0" d=" M 825.60 425.42 L 825.40 423.82 825.84 423.70 826.23 423.55 826.57 423.37 826.85 423.17 827.08 422.94 827.27 422.68 827.41 422.39 827.52 422.06 827.58 421.69 827.60 421.29 827.57 420.82 827.49 420.39 827.34 420.00 827.15 419.65 826.89 419.35 826.59 419.08 826.27 418.88 825.92 418.74 825.54 418.65 825.13 418.62 824.75 418.65 824.39 418.73 824.06 418.88 823.76 419.08 823.48 419.33 823.24 419.64 823.06 419.97 822.93 420.33 822.85 420.73 822.83 421.15 822.83 421.34 822.85 421.55 822.89 421.77 822.94 422.02 823.00 422.28 821.40 422.09 821.41 422.03 821.41 421.98 821.42 421.93 821.42 421.88 821.42 421.84 821.40 421.44 821.35 421.06 821.25 420.70 821.12 420.35 820.96 420.02 820.76 419.73 820.51 419.51 820.23 419.34 819.91 419.25 819.55 419.22 819.25 419.24 818.98 419.31 818.73 419.43 818.50 419.59 818.30 419.80 818.12 420.05 817.98 420.32 817.88 420.62 817.82 420.95 817.80 421.30 817.82 421.66 817.88 421.99 817.98 422.29 818.12 422.57 818.30 422.83 818.52 423.06 818.78 423.25 819.08 423.41 819.42 423.53 819.80 423.62 819.60 425.22 818.98 425.07 818.42 424.87 817.92 424.60 817.48 424.28 817.09 423.90 816.77 423.47 816.52 423.01 816.34 422.50 816.24 421.95 816.20 421.36 816.22 420.95 816.27 420.55 816.36 420.16 816.48 419.79 816.64 419.43 816.83 419.09 817.04 418.79 817.28 418.52 817.55 418.28 817.84 418.08 818.15 417.91 818.46 417.78 818.79 417.69 819.12 417.63 819.45 417.62 819.77 417.63 820.08 417.69 820.37 417.78 820.66 417.90 820.93 418.06 821.18 418.26 821.42 418.49 821.63 418.75 821.82 419.04 821.99 419.38 822.12 418.94 822.29 418.55 822.51 418.20 822.77 417.90 823.08 417.63 823.43 417.41 823.81 417.24 824.23 417.12 824.68 417.05 825.16 417.02 825.82 417.07 826.43 417.22 827.00 417.46 827.53 417.81 828.03 418.25 828.45 418.77 828.78 419.33 829.01 419.95 829.15 420.62 829.20 421.35 829.16 422.00 829.04 422.61 828.84 423.17 828.56 423.68 828.20 424.15 827.77 424.56 827.30 424.89 826.78 425.14 826.21 425.32 825.60 425.42 Z" />
<path fill="rgb(0,0,0)" stroke="rgb(0,0,0)" stroke-width="0" d=" M 869.00 420.23 L 866.00 420.22 866.00 426.02 864.40 426.02 856.40 419.81 856.40 418.61 864.40 418.62 864.40 417.02 866.00 417.02 866.00 418.62 869.00 418.63 Z M 864.40 420.22 L 859.46 420.22 864.40 424.05 Z" />
<path fill="rgb(0,0,0)" stroke="rgb(0,0,0)" stroke-width="0" d=" M 865.60 235.42 L 865.40 233.82 865.82 233.73 866.19 233.60 866.52 233.44 866.81 233.25 867.05 233.02 867.25 232.75 867.40 232.45 867.51 232.12 867.58 231.75 867.60 231.35 867.57 230.85 867.48 230.41 867.32 230.00 867.11 229.65 866.83 229.34 866.51 229.08 866.14 228.88 865.73 228.74 865.28 228.65 864.80 228.62 864.34 228.65 863.92 228.73 863.54 228.86 863.20 229.05 862.90 229.29 862.65 229.58 862.45 229.94 862.31 230.34 862.23 230.80 862.20 231.32 862.21 231.64 862.24 231.95 862.30 232.23 862.38 232.49 862.48 232.72 862.60 232.93 862.73 233.13 862.87 233.31 863.03 233.47 863.20 233.62 863.00 235.22 856.40 233.81 856.40 227.61 858.00 227.61 858.00 232.52 861.53 233.21 861.19 232.76 860.93 232.30 860.75 231.83 860.64 231.35 860.60 230.87 860.65 230.24 860.78 229.65 861.01 229.10 861.33 228.60 861.75 228.13 862.23 227.73 862.77 227.42 863.36 227.20 864.00 227.07 864.70 227.02 865.36 227.06 866.00 227.18 866.59 227.38 867.15 227.67 867.67 228.03 868.22 228.55 868.65 229.15 868.95 229.81 869.14 230.55 869.20 231.35 869.16 232.02 869.04 232.64 868.85 233.20 868.57 233.71 868.21 234.18 867.79 234.57 867.32 234.90 866.80 235.15 866.23 235.32 865.60 235.42 Z" />
<path fill="rgb(0,0,0)" stroke="rgb(0,0,0)" stroke-width="0" d=" M 819.60 227.22 L 819.80 228.82 819.45 228.91 819.15 229.01 818.88 229.13 818.65 229.27 818.47 229.42 818.23 229.69 818.04 229.99 817.91 230.31 817.83 230.65 817.80 231.02 817.82 231.32 817.86 231.62 817.94 231.91 818.05 232.19 818.19 232.47 818.40 232.72 818.66 232.96 818.95 233.18 819.28 233.38 819.64 233.56 820.06 233.72 820.56 233.84 821.13 233.94 821.77 233.99 822.49 234.02 822.17 233.78 821.88 233.52 821.62 233.23 821.40 232.93 821.22 232.61 821.07 232.27 820.95 231.93 820.87 231.58 820.82 231.22 820.80 230.86 820.85 230.24 820.98 229.66 821.21 229.11 821.53 228.61 821.94 228.14 822.42 227.74 822.96 227.42 823.55 227.20 824.19 227.07 824.89 227.02 825.36 227.04 825.81 227.11 826.25 227.21 826.68 227.36 827.10 227.55 827.48 227.78 827.84 228.04 828.15 228.33 828.42 228.65 828.66 229.01 828.85 229.39 829.00 229.79 829.11 230.21 829.18 230.64 829.20 231.10 829.14 231.87 828.97 232.58 828.68 233.24 828.28 233.83 827.76 234.36 827.11 234.82 826.31 235.17 825.37 235.42 824.27 235.57 823.03 235.62 821.63 235.56 820.40 235.39 819.32 235.11 818.41 234.72 817.66 234.21 817.13 233.69 816.73 233.10 816.43 232.44 816.26 231.72 816.20 230.92 816.24 230.33 816.34 229.78 816.53 229.27 816.78 228.81 817.10 228.39 817.49 228.03 817.94 227.73 818.44 227.50 818.99 227.32 819.60 227.22 Z M 824.86 234.02 L 825.15 234.01 825.43 233.96 825.71 233.89 825.98 233.78 826.25 233.65 826.50 233.49 826.73 233.32 826.93 233.12 827.10 232.90 827.25 232.67 827.38 232.42 827.48 232.14 827.54 231.86 827.59 231.55 827.60 231.23 827.57 230.78 827.49 230.37 827.34 229.99 827.14 229.65 826.88 229.34 826.58 229.08 826.23 228.88 825.84 228.74 825.41 228.65 824.94 228.62 824.49 228.65 824.08 228.73 823.70 228.87 823.37 229.07 823.08 229.33 822.84 229.63 822.64 229.98 822.51 230.37 822.43 230.81 822.40 231.29 822.43 231.73 822.51 232.14 822.64 232.53 822.84 232.89 823.08 233.22 823.37 233.51 823.69 233.73 824.05 233.89 824.44 233.99 824.86 234.02 Z" />
<path fill="rgb(0,0,0)" stroke="rgb(0,0,0)" stroke-width="0" d=" M 778.00 235.41 L 776.40 235.41 776.40 227.01 777.69 227.01 778.25 227.49 778.87 227.97 779.56 228.45 780.32 228.93 781.14 229.40 781.99 229.85 782.86 230.26 783.74 230.63 784.63 230.95 785.52 231.23 786.17 231.40 786.84 231.55 787.54 231.67 788.26 231.76 789.00 231.83 789.00 233.43 788.38 233.39 787.71 233.31 786.98 233.18 786.21 233.01 785.39 232.78 784.55 232.52 783.72 232.21 782.91 231.86 782.10 231.47 781.31 231.04 780.55 230.57 779.84 230.10 779.18 229.62 778.56 229.12 778.00 228.61 Z" />
<path fill="rgb(0,0,0)" stroke="rgb(0,0,0)" stroke-width="0" d=" M 741.95 233.09 L 741.80 233.46 741.62 233.79 741.43 234.08 741.20 234.33 740.96 234.54 740.69 234.71 740.40 234.85 740.09 234.94 739.76 235.00 739.41 235.02 738.88 234.97 738.39 234.85 737.93 234.64 737.51 234.35 737.12 233.98 736.79 233.54 736.53 233.05 736.35 232.50 736.24 231.89 736.20 231.23 736.24 230.57 736.35 229.96 736.54 229.41 736.81 228.91 737.15 228.46 737.54 228.08 737.97 227.79 738.43 227.58 738.93 227.46 739.45 227.42 739.79 227.43 740.11 227.49 740.41 227.58 740.70 227.72 740.96 227.88 741.21 228.09 741.43 228.34 741.63 228.62 741.80 228.94 741.95 229.30 742.12 228.88 742.34 228.49 742.59 228.15 742.88 227.86 743.20 227.60 743.57 227.39 743.95 227.23 744.37 227.11 744.81 227.04 745.28 227.02 745.92 227.07 746.52 227.21 747.08 227.44 747.59 227.76 748.07 228.18 748.48 228.67 748.79 229.22 749.02 229.83 749.15 230.50 749.20 231.23 749.15 231.95 749.02 232.62 748.79 233.23 748.47 233.78 748.06 234.27 747.59 234.68 747.07 235.01 746.50 235.24 745.89 235.38 745.23 235.42 744.74 235.40 744.28 235.32 743.86 235.20 743.47 235.03 743.11 234.81 742.79 234.55 742.52 234.25 742.28 233.90 742.10 233.51 741.95 233.09 Z M 739.46 233.42 L 739.75 233.39 740.03 233.32 740.28 233.21 740.51 233.05 740.71 232.85 740.89 232.60 741.02 232.31 741.12 231.98 741.18 231.61 741.20 231.20 741.18 230.79 741.12 230.43 741.03 230.11 740.89 229.82 740.72 229.58 740.51 229.38 740.29 229.22 740.06 229.11 739.80 229.04 739.53 229.02 739.24 229.04 738.98 229.11 738.73 229.22 738.51 229.39 738.30 229.60 738.12 229.85 737.98 230.13 737.88 230.46 737.82 230.82 737.80 231.21 737.82 231.61 737.88 231.98 737.98 232.30 738.11 232.59 738.29 232.84 738.49 233.05 738.71 233.21 738.94 233.32 739.19 233.39 739.46 233.42 Z M 745.17 233.82 L 745.42 233.81 745.67 233.78 745.91 233.73 746.15 233.65 746.38 233.55 746.60 233.43 746.80 233.28 746.98 233.09 747.14 232.87 747.28 232.61 747.40 232.34 747.49 232.06 747.55 231.78 747.59 231.50 747.60 231.21 747.57 230.74 747.49 230.32 747.36 229.94 747.17 229.60 746.93 229.30 746.65 229.06 746.34 228.87 745.99 228.73 745.62 228.65 745.22 228.62 744.82 228.65 744.44 228.73 744.10 228.87 743.78 229.07 743.49 229.32 743.24 229.62 743.05 229.97 742.91 230.36 742.83 230.79 742.80 231.26 742.83 231.72 742.91 232.14 743.04 232.52 743.23 232.85 743.48 233.14 743.76 233.39 744.08 233.58 744.41 233.71 744.78 233.79 745.17 233.82 Z" />
<path fill="rgb(0,0,0)" stroke="rgb(0,0,0)" stroke-width="0" d=" M 594.50 334.37 L 594.52 319.01 596.44 319.01 596.44 325.25 604.60 325.25 604.60 319.01 606.52 319.01 606.50 334.37 604.58 334.37 604.59 327.17 596.43 327.17 596.42 334.37 Z M 609.86 334.37 L 609.88 319.01 613.18 319.01 616.31 329.83 616.48 330.41 616.62 330.92 616.75 331.37 616.86 331.77 616.95 332.10 617.05 331.73 617.16 331.30 617.30 330.81 617.46 330.26 617.63 329.65 620.74 319.01 624.04 319.01 624.02 334.37 622.10 334.37 622.12 320.93 618.25 334.37 615.64 334.37 611.80 320.93 611.78 334.37 Z M 638.43 328.91 L 640.35 329.40 640.05 330.37 639.68 331.24 639.22 332.02 638.69 332.69 638.07 333.28 637.38 333.76 636.64 334.13 635.83 334.40 634.97 334.56 634.05 334.61 633.10 334.57 632.23 334.45 631.43 334.25 630.71 333.96 630.05 333.60 629.47 333.16 628.94 332.65 628.47 332.06 628.06 331.41 627.71 330.68 627.42 329.90 627.20 329.10 627.04 328.28 626.94 327.44 626.91 326.57 626.95 325.64 627.06 324.76 627.24 323.92 627.50 323.14 627.83 322.40 628.22 321.72 628.68 321.11 629.20 320.57 629.77 320.10 630.41 319.69 631.10 319.36 631.81 319.10 632.55 318.92 633.31 318.81 634.10 318.77 634.99 318.82 635.82 318.96 636.59 319.20 637.30 319.53 637.95 319.96 638.54 320.48 639.04 321.08 639.48 321.75 639.83 322.50 640.12 323.33 638.20 323.79 637.96 323.18 637.68 322.63 637.37 322.16 637.02 321.76 636.62 321.43 636.19 321.16 635.71 320.96 635.20 320.81 634.63 320.72 634.03 320.69 633.33 320.72 632.69 320.82 632.09 320.98 631.53 321.21 631.02 321.51 630.57 321.86 630.17 322.26 629.83 322.70 629.55 323.18 629.33 323.71 629.15 324.27 629.01 324.84 628.91 325.41 628.85 325.98 628.83 326.57 628.86 327.31 628.92 328.01 629.04 328.67 629.20 329.29 629.41 329.88 629.67 330.41 629.97 330.89 630.33 331.32 630.75 331.68 631.21 331.99 631.71 332.24 632.22 332.44 632.75 332.58 633.30 332.66 633.86 332.69 634.53 332.65 635.16 332.54 635.75 332.35 636.29 332.08 636.80 331.74 637.25 331.32 637.64 330.83 637.96 330.26 638.23 329.62 638.43 328.91 Z M 652.11 332.45 L 652.10 334.37 642.02 334.37 642.03 334.09 642.05 333.83 642.09 333.56 642.15 333.30 642.23 333.04 642.40 332.63 642.59 332.21 642.83 331.81 643.10 331.40 643.40 331.01 643.75 330.60 644.17 330.18 644.65 329.73 645.20 329.27 645.81 328.78 646.74 327.99 647.53 327.27 648.20 326.63 648.73 326.07 649.13 325.58 649.42 325.14 649.66 324.70 649.82 324.26 649.92 323.83 649.96 323.41 649.92 323.00 649.83 322.63 649.67 322.27 649.46 321.95 649.18 321.65 648.84 321.39 648.47 321.19 648.07 321.04 647.62 320.96 647.14 320.93 646.62 320.96 646.16 321.04 645.73 321.18 645.35 321.38 645.01 321.63 644.72 321.93 644.49 322.28 644.33 322.66 644.23 323.10 644.20 323.57 642.28 323.33 642.40 322.53 642.61 321.80 642.90 321.16 643.28 320.60 643.75 320.11 644.30 319.72 644.91 319.41 645.60 319.19 646.35 319.05 647.18 319.01 648.01 319.06 648.77 319.21 649.46 319.45 650.07 319.80 650.61 320.24 651.07 320.75 651.42 321.32 651.68 321.93 651.83 322.59 651.88 323.29 651.86 323.66 651.82 324.03 651.75 324.39 651.66 324.75 651.53 325.11 651.38 325.47 651.19 325.84 650.96 326.22 650.70 326.60 650.40 326.99 650.03 327.42 649.58 327.89 649.02 328.42 648.38 328.99 647.64 329.62 647.01 330.13 646.48 330.57 646.04 330.94 645.69 331.24 645.43 331.47 645.23 331.67 645.04 331.86 644.87 332.06 644.71 332.25 644.57 332.45 Z M 661.22 334.37 L 659.30 334.37 659.32 322.40 659.02 322.66 658.69 322.92 658.33 323.18 657.93 323.44 657.50 323.69 657.06 323.94 656.63 324.16 656.23 324.35 655.84 324.52 655.48 324.66 655.48 322.85 656.10 322.54 656.70 322.20 657.26 321.85 657.79 321.46 658.29 321.05 658.75 320.63 659.15 320.22 659.49 319.81 659.77 319.41 660.00 319.01 661.24 319.01 Z M 665.79 330.29 L 667.71 330.05 667.86 330.58 668.04 331.05 668.25 331.45 668.49 331.79 668.77 332.07 669.08 332.29 669.43 332.47 669.83 332.59 670.27 332.66 670.75 332.69 671.31 332.65 671.82 332.55 672.29 332.38 672.71 332.14 673.08 331.84 673.39 331.48 673.64 331.09 673.81 330.67 673.91 330.22 673.95 329.73 673.92 329.27 673.81 328.84 673.64 328.44 673.40 328.08 673.09 327.74 672.73 327.46 672.33 327.24 671.90 327.08 671.42 326.99 670.91 326.96 670.68 326.97 670.44 326.99 670.17 327.03 669.88 327.09 669.56 327.17 669.78 325.25 669.86 325.26 669.92 325.26 669.98 325.27 670.04 325.27 670.09 325.27 670.56 325.25 671.02 325.18 671.46 325.07 671.87 324.92 672.27 324.72 672.62 324.48 672.89 324.18 673.08 323.85 673.20 323.46 673.24 323.02 673.21 322.67 673.12 322.35 672.98 322.05 672.79 321.77 672.54 321.52 672.24 321.31 671.91 321.14 671.55 321.02 671.16 320.95 670.73 320.93 670.31 320.95 669.91 321.02 669.54 321.14 669.21 321.31 668.90 321.53 668.63 321.79 668.40 322.10 668.21 322.46 668.06 322.87 667.96 323.33 666.04 323.09 666.21 322.35 666.46 321.67 666.77 321.07 667.16 320.54 667.61 320.08 668.13 319.69 668.69 319.39 669.30 319.18 669.96 319.05 670.66 319.01 671.16 319.03 671.64 319.09 672.10 319.20 672.55 319.35 672.98 319.54 673.38 319.76 673.75 320.02 674.07 320.31 674.35 320.63 674.60 320.98 674.80 321.35 674.96 321.72 675.07 322.11 675.13 322.51 675.16 322.91 675.13 323.29 675.07 323.66 674.96 324.02 674.81 324.36 674.62 324.68 674.39 324.99 674.11 325.27 673.80 325.52 673.44 325.75 673.04 325.95 673.56 326.11 674.03 326.31 674.45 326.58 674.82 326.89 675.14 327.27 675.40 327.69 675.61 328.14 675.75 328.64 675.84 329.18 675.87 329.76 675.81 330.55 675.63 331.29 675.34 331.97 674.93 332.61 674.40 333.20 673.78 333.71 673.09 334.10 672.35 334.38 671.55 334.55 670.68 334.61 669.89 334.56 669.17 334.42 668.49 334.18 667.88 333.84 667.31 333.40 666.82 332.89 666.43 332.33 666.12 331.71 665.91 331.03 665.79 330.29 Z M 678.26 334.37 L 678.28 319.01 684.14 319.01 684.83 319.03 685.46 319.08 686.03 319.17 686.55 319.30 687.01 319.46 687.43 319.66 687.80 319.90 688.14 320.18 688.44 320.49 688.71 320.85 688.93 321.23 689.10 321.61 689.22 322.01 689.29 322.41 689.32 322.81 689.30 323.19 689.23 323.56 689.13 323.92 688.99 324.27 688.80 324.61 688.57 324.93 688.30 325.23 687.99 325.50 687.64 325.75 687.24 325.97 687.71 326.16 688.13 326.40 688.51 326.69 688.84 327.02 689.13 327.40 689.37 327.82 689.55 328.27 689.68 328.75 689.76 329.25 689.79 329.79 689.77 330.23 689.72 330.65 689.62 331.07 689.50 331.47 689.33 331.85 689.14 332.22 688.94 332.55 688.71 332.84 688.47 333.10 688.21 333.32 687.93 333.52 687.63 333.70 687.29 333.85 686.93 333.99 686.54 334.10 686.12 334.20 685.67 334.27 685.17 334.33 684.65 334.36 684.08 334.37 Z M 680.20 325.25 L 683.70 325.25 684.24 325.24 684.72 325.22 685.12 325.19 685.47 325.14 685.75 325.08 686.06 324.99 686.34 324.87 686.59 324.73 686.80 324.56 686.98 324.37 687.13 324.16 687.25 323.93 687.33 323.68 687.38 323.41 687.40 323.12 687.38 322.84 687.33 322.58 687.26 322.33 687.15 322.09 687.01 321.87 686.84 321.67 686.65 321.49 686.43 321.34 686.18 321.22 685.91 321.13 685.58 321.06 685.17 321.00 684.67 320.96 684.10 320.94 683.44 320.93 680.20 320.93 Z M 680.19 332.45 L 684.13 332.45 684.51 332.45 684.84 332.44 685.12 332.42 685.36 332.40 685.55 332.37 685.83 332.32 686.09 332.25 686.33 332.16 686.55 332.07 686.76 331.96 686.94 331.83 687.12 331.68 687.28 331.51 687.42 331.32 687.56 331.10 687.67 330.87 687.76 330.63 687.82 330.37 687.86 330.10 687.87 329.81 687.85 329.47 687.81 329.16 687.74 328.86 687.64 328.58 687.50 328.32 687.34 328.08 687.14 327.87 686.90 327.69 686.62 327.54 686.31 327.43 685.96 327.33 685.54 327.26 685.06 327.21 684.53 327.18 683.94 327.17 680.19 327.17 Z" />
<path fill="rgb(0,0,0)" stroke="rgb(0,0,0)" stroke-width="2" d=" M 773 206 L 733 206 733 196 773 196 773 206 Z" />
<polyline points="753.00 226.22 753.00 206.22" fill="none" stroke="rgb(0,0,0)" stroke-width="2" />
<path fill="rgb(0,0,0)" stroke="rgb(0,0,0)" stroke-width="2" d=" M 853 206 L 813 206 813 196 853 196 853 206 Z" />
<polyline points="833.00 226.22 833.00 206.22" fill="none" stroke="rgb(0,0,0)" stroke-width="2" />
<path fill="rgb(0,0,0)" stroke="rgb(0,0,0)" stroke-width="2" d=" M 733 446 L 773 446 773 456 733 456 733 446 Z" />
<polyline points="753.00 426.22 753.00 446.22" fill="none" stroke="rgb(0,0,0)" stroke-width="2" />
<path fill="rgb(0,0,0)" stroke="rgb(0,0,0)" stroke-width="2" d=" M 813 446 L 853 446 853 456 813 456 813 446 Z" />
<polyline points="833.00 426.22 833.00 446.22" fill="none" stroke="rgb(0,0,0)" stroke-width="2" />
<path fill="rgb(0,0,0)" stroke="rgb(0,0,0)" stroke-width="2" d=" M 853 446 L 893 446 893 456 853 456 853 446 Z" />
<polyline points="873.00 426.22 873.00 446.22" fill="none" stroke="rgb(0,0,0)" stroke-width="2" />
<polyline points="183.00 166.22 105.00 166.22 58.00 166.22" fill="none" stroke="rgb(0,0,0)" stroke-width="2" />
<circle cx="123.04" cy="166.22" r="15.04" fill="none" stroke="rgb(0,0,0)" stroke-width="2" />
<polyline points="123.00 181.22 123.00 271.22" fill="none" stroke="rgb(0,0,0)" stroke-width="2" />
<path fill="rgb(0,0,0)" stroke="rgb(0,0,0)" stroke-width="2" d=" M 103 276 L 143 276 143 286 103 286 103 276 Z" />
<polyline points="123.00 246.22 123.00 276.22" fill="none" stroke="rgb(0,0,0)" stroke-width="2" />
<polyline points="58.00 166.22 48.00 176.22" fill="none" stroke="rgb(0,0,0)" stroke-width="2" />
<polyline points="58.00 166.22 48.00 156.22" fill="none" stroke="rgb(0,0,0)" stroke-width="2" />
<circle cx="123" cy="181" r="6" fill="rgb(0,0,0)" stroke="none" stroke-width="2" />
<circle cx="123" cy="206" r="6" fill="rgb(0,0,0)" stroke="none" stroke-width="2" />
<polyline points="123.00 206.22 58.00 206.22" fill="none" stroke="rgb(0,0,0)" stroke-width="2" />
<path fill="rgb(0,0,0)" stroke="rgb(0,0,0)" stroke-width="0" d=" M 355.09 270.22 L 355.11 251.02 357.50 251.02 357.49 267.82 367.05 267.82 367.05 270.22 Z M 369.74 270.22 L 369.76 251.02 376.85 251.02 377.56 251.03 378.21 251.05 378.78 251.09 379.28 251.14 379.71 251.21 380.24 251.32 380.75 251.46 381.21 251.64 381.64 251.86 382.03 252.11 382.39 252.39 382.72 252.72 383.02 253.09 383.29 253.51 383.54 253.96 383.74 254.45 383.90 254.95 384.01 255.48 384.08 256.02 384.10 256.58 384.04 257.53 383.86 258.42 383.55 259.25 383.12 260.02 382.56 260.73 381.85 261.34 380.93 261.81 379.82 262.15 378.51 262.36 377.00 262.42 372.14 262.42 372.13 270.22 Z M 372.14 260.02 L 377.14 260.02 378.08 259.99 378.90 259.88 379.60 259.71 380.19 259.46 380.67 259.14 381.04 258.76 381.34 258.32 381.54 257.83 381.67 257.27 381.71 256.66 381.69 256.21 381.61 255.79 381.49 255.39 381.32 255.02 381.10 254.68 380.84 254.37 380.55 254.11 380.23 253.89 379.87 253.72 379.49 253.59 379.18 253.53 378.79 253.48 378.32 253.45 377.75 253.43 377.10 253.42 372.15 253.42 Z M 387.38 270.22 L 387.40 251.02 400.25 251.02 400.25 253.42 389.79 253.42 389.78 259.12 398.75 259.12 398.75 261.52 389.78 261.52 389.77 270.22 Z M 417.87 270.22 L 417.87 265.72 409.20 265.72 409.21 263.32 418.48 251.32 420.28 251.32 420.27 263.32 422.66 263.32 422.66 265.72 420.26 265.72 420.26 270.22 Z M 417.88 263.32 L 417.88 255.91 412.15 263.32 Z M 425.94 270.22 L 425.94 267.82 428.34 267.82 428.33 270.22 Z M 432.22 265.12 L 434.61 264.82 434.75 265.45 434.94 266.01 435.18 266.50 435.47 266.93 435.82 267.30 436.21 267.60 436.66 267.83 437.16 267.99 437.71 268.09 438.31 268.12 439.05 268.08 439.72 267.94 440.32 267.71 440.85 267.39 441.31 266.97 441.70 266.48 442.00 265.93 442.21 265.32 442.34 264.65 442.39 263.92 442.35 263.23 442.23 262.60 442.03 262.03 441.75 261.52 441.39 261.07 440.95 260.69 440.42 260.40 439.82 260.19 439.13 260.07 438.36 260.02 437.87 260.04 437.41 260.09 436.99 260.18 436.61 260.29 436.26 260.44 435.94 260.62 435.65 260.82 435.38 261.03 435.13 261.27 434.92 261.52 432.53 261.22 434.63 251.32 443.89 251.32 443.89 253.72 436.56 253.72 435.53 259.01 436.21 258.51 436.89 258.12 437.59 257.85 438.31 257.68 439.03 257.62 439.97 257.69 440.85 257.90 441.67 258.24 442.42 258.73 443.12 259.35 443.72 260.07 444.18 260.88 444.51 261.76 444.71 262.73 444.78 263.77 444.72 264.77 444.54 265.72 444.24 266.61 443.81 267.44 443.27 268.22 442.49 269.05 441.60 269.70 440.61 270.16 439.51 270.43 438.30 270.52 437.31 270.47 436.39 270.29 435.54 269.99 434.78 269.58 434.09 269.05 433.49 268.42 433.00 267.71 432.63 266.92 432.37 266.06 432.22 265.12 Z M 464.21 262.72 L 464.21 260.32 471.98 260.32 471.98 267.50 471.23 268.07 470.47 268.59 469.70 269.04 468.92 269.43 468.14 269.77 467.34 270.04 466.54 270.25 465.73 270.40 464.91 270.49 464.08 270.52 462.98 270.48 461.91 270.33 460.89 270.09 459.91 269.75 458.97 269.32 458.10 268.79 457.32 268.18 456.63 267.48 456.02 266.70 455.51 265.82 455.09 264.89 454.77 263.91 454.53 262.89 454.39 261.82 454.35 260.72 454.40 259.61 454.54 258.54 454.77 257.50 455.10 256.48 455.52 255.50 456.03 254.58 456.62 253.76 457.29 253.04 458.04 252.42 458.87 251.90 459.77 251.48 460.73 251.15 461.74 250.91 462.80 250.77 463.91 250.72 464.72 250.75 465.50 250.83 466.25 250.97 466.97 251.16 467.65 251.41 468.29 251.70 468.87 252.04 469.40 252.42 469.86 252.84 470.27 253.31 470.63 253.82 470.96 254.40 471.25 255.03 471.50 255.73 471.71 256.48 469.51 257.10 469.32 256.56 469.12 256.07 468.91 255.62 468.67 255.23 468.42 254.89 468.14 254.58 467.81 254.30 467.44 254.04 467.02 253.81 466.56 253.61 466.06 253.43 465.55 253.30 465.01 253.20 464.45 253.14 463.87 253.12 463.18 253.15 462.53 253.21 461.92 253.31 461.35 253.46 460.81 253.64 460.31 253.86 459.86 254.11 459.44 254.38 459.06 254.68 458.72 255.00 458.42 255.35 458.15 255.70 457.90 256.07 457.68 256.46 457.49 256.85 457.22 257.56 457.01 258.29 456.86 259.04 456.77 259.82 456.74 260.62 456.77 261.59 456.88 262.49 457.06 263.33 457.31 264.10 457.64 264.80 458.03 265.44 458.48 266.01 459.01 266.51 459.59 266.95 460.25 267.31 460.94 267.60 461.65 267.83 462.38 267.99 463.13 268.09 463.89 268.12 464.56 268.10 465.22 268.03 465.87 267.90 466.52 267.73 467.16 267.51 467.77 267.26 468.32 267.00 468.80 266.74 469.23 266.47 469.59 266.19 469.59 262.72 Z M 475.86 270.22 L 475.88 251.02 478.27 251.02 478.27 258.82 488.43 258.82 488.44 251.02 490.83 251.02 490.81 270.22 488.42 270.22 488.43 261.22 478.26 261.22 478.25 270.22 Z M 493.20 270.22 L 493.20 267.97 501.47 258.52 500.93 258.52 500.41 258.52 499.92 258.52 499.46 258.52 499.02 258.52 493.81 258.52 493.81 256.12 504.87 256.12 504.87 258.16 497.54 266.54 496.42 267.82 497.00 267.82 497.57 267.82 498.12 267.82 498.66 267.82 499.19 267.82 505.16 267.82 505.16 270.22 Z" />
<path fill="rgb(0,0,0)" stroke="rgb(0,0,0)" stroke-width="0" d=" M 42.00 114.22 L 42.02 98.22 44.02 98.22 44.00 114.22 Z M 48.00 114.22 L 48.02 98.22 50.16 98.22 58.50 110.90 58.52 98.22 60.52 98.22 60.50 114.22 58.36 114.22 50.01 101.55 50.00 114.22 Z M 63.25 114.22 L 64.12 109.97 62.25 109.97 62.26 107.97 64.53 107.97 65.24 104.47 62.26 104.47 62.26 102.47 65.65 102.47 66.52 98.22 68.54 98.22 67.68 102.47 70.62 102.47 71.48 98.22 73.52 98.22 72.65 102.47 74.51 102.47 74.51 104.47 72.24 104.47 71.53 107.97 74.51 107.97 74.50 109.97 71.12 109.97 70.25 114.22 68.22 114.22 69.09 109.97 66.15 109.97 65.28 114.22 Z M 66.56 107.97 L 69.50 107.97 70.21 104.47 67.27 104.47 Z M 83.00 114.22 L 81.00 114.22 81.01 101.76 80.70 102.03 80.36 102.30 79.98 102.57 79.57 102.84 79.12 103.11 78.66 103.36 78.22 103.59 77.80 103.79 77.39 103.97 77.01 104.12 77.01 102.22 77.67 101.90 78.29 101.55 78.87 101.18 79.43 100.78 79.95 100.35 80.42 99.92 80.83 99.49 81.19 99.06 81.49 98.64 81.73 98.22 83.02 98.22 Z M 94.52 100.22 L 94.52 98.22 96.52 98.22 96.52 100.22 Z M 94.50 114.22 L 94.51 102.47 96.51 102.47 96.50 114.22 Z M 99.50 114.22 L 99.51 102.47 101.51 102.47 101.51 104.12 102.06 103.43 102.69 102.91 103.41 102.53 104.23 102.30 105.13 102.22 105.53 102.24 105.92 102.29 106.30 102.36 106.67 102.47 107.02 102.61 107.34 102.77 107.64 102.95 107.90 103.15 108.12 103.37 108.31 103.61 108.47 103.86 108.61 104.14 108.73 104.43 108.82 104.75 108.90 105.08 108.94 105.33 108.97 105.65 108.99 106.04 109.00 106.49 109.01 107.01 109.00 114.22 107.00 114.22 107.01 107.28 107.00 106.83 106.97 106.43 106.93 106.07 106.86 105.77 106.78 105.51 106.67 105.29 106.54 105.08 106.38 104.89 106.19 104.72 105.97 104.57 105.72 104.45 105.47 104.35 105.19 104.28 104.90 104.24 104.59 104.22 104.10 104.26 103.64 104.35 103.21 104.51 102.80 104.73 102.42 105.01 102.09 105.38 101.84 105.86 101.65 106.46 101.54 107.17 101.51 107.99 101.50 114.22 Z" />
<path fill="rgb(0,0,0)" stroke="rgb(0,0,0)" stroke-width="0" d=" M 47.47 139.22 L 47.47 135.47 40.25 135.47 40.26 133.47 47.98 123.47 49.48 123.47 49.47 133.47 51.46 133.47 51.46 135.47 49.46 135.47 49.46 139.22 Z M 47.48 133.47 L 47.48 127.30 42.71 133.47 Z M 54.19 139.22 L 54.19 137.22 56.19 137.22 56.18 139.22 Z M 59.42 134.97 L 61.41 134.72 61.57 135.28 61.75 135.76 61.97 136.18 62.22 136.54 62.51 136.83 62.83 137.06 63.20 137.24 63.61 137.37 64.07 137.45 64.56 137.47 65.15 137.44 65.68 137.33 66.17 137.16 66.60 136.91 66.99 136.59 67.31 136.22 67.56 135.81 67.74 135.37 67.85 134.90 67.89 134.39 67.85 133.91 67.75 133.46 67.57 133.05 67.32 132.67 67.00 132.32 66.62 132.03 66.21 131.80 65.76 131.64 65.27 131.54 64.74 131.51 64.50 131.51 64.24 131.54 63.96 131.58 63.66 131.65 63.34 131.72 63.56 129.72 63.64 129.73 63.71 129.74 63.77 129.74 63.83 129.75 63.88 129.75 64.38 129.73 64.85 129.66 65.30 129.54 65.73 129.38 66.14 129.17 66.50 128.92 66.79 128.62 66.99 128.26 67.11 127.86 67.15 127.41 67.12 127.04 67.03 126.70 66.89 126.39 66.68 126.10 66.42 125.84 66.11 125.62 65.77 125.45 65.40 125.32 64.99 125.25 64.55 125.22 64.11 125.25 63.70 125.32 63.32 125.45 62.97 125.62 62.65 125.85 62.37 126.12 62.13 126.45 61.93 126.82 61.78 127.25 61.67 127.72 59.68 127.47 59.86 126.70 60.11 126.00 60.44 125.37 60.84 124.82 61.31 124.34 61.85 123.94 62.43 123.63 63.06 123.40 63.75 123.27 64.48 123.22 64.99 123.25 65.49 123.31 65.97 123.42 66.43 123.58 66.88 123.77 67.30 124.01 67.68 124.28 68.01 124.58 68.31 124.91 68.56 125.27 68.77 125.66 68.93 126.05 69.05 126.46 69.12 126.87 69.14 127.29 69.12 127.69 69.05 128.07 68.94 128.44 68.78 128.80 68.58 129.14 68.34 129.45 68.06 129.75 67.73 130.01 67.36 130.25 66.95 130.46 67.49 130.62 67.97 130.84 68.41 131.11 68.79 131.44 69.12 131.83 69.39 132.26 69.61 132.74 69.76 133.26 69.85 133.82 69.88 134.43 69.82 135.25 69.63 136.01 69.33 136.73 68.90 137.39 68.35 138.01 67.71 138.53 67.00 138.95 66.23 139.24 65.39 139.42 64.49 139.47 63.68 139.42 62.93 139.27 62.23 139.02 61.59 138.67 61.00 138.22 60.50 137.69 60.08 137.10 59.77 136.45 59.55 135.74 59.42 134.97 Z M 86.06 132.97 L 86.06 130.97 92.54 130.97 92.53 136.96 91.91 137.43 91.27 137.86 90.64 138.24 89.99 138.56 89.33 138.84 88.67 139.07 88.00 139.25 87.33 139.37 86.64 139.45 85.95 139.47 85.03 139.43 84.15 139.31 83.30 139.11 82.48 138.83 81.70 138.47 80.97 138.03 80.32 137.52 79.75 136.94 79.24 136.28 78.82 135.56 78.47 134.78 78.20 133.96 78.00 133.11 77.89 132.22 77.85 131.30 77.89 130.38 78.01 129.49 78.20 128.62 78.47 127.77 78.82 126.95 79.25 126.19 79.74 125.51 80.30 124.91 80.92 124.39 81.62 123.96 82.37 123.60 83.16 123.33 84.00 123.13 84.88 123.01 85.81 122.97 86.49 123.00 87.14 123.07 87.76 123.18 88.36 123.34 88.93 123.54 89.46 123.79 89.94 124.07 90.38 124.39 90.77 124.74 91.11 125.13 91.41 125.56 91.68 126.04 91.92 126.56 92.13 127.14 92.31 127.77 90.47 128.29 90.32 127.84 90.15 127.43 89.97 127.06 89.78 126.73 89.57 126.44 89.33 126.19 89.06 125.95 88.75 125.74 88.40 125.55 88.02 125.38 87.61 125.23 87.17 125.12 86.73 125.04 86.26 124.99 85.78 124.97 85.21 124.99 84.66 125.04 84.15 125.13 83.68 125.25 83.23 125.41 82.82 125.59 82.44 125.80 82.09 126.02 81.77 126.27 81.49 126.54 81.24 126.83 81.01 127.12 80.81 127.43 80.62 127.75 80.47 128.08 80.24 128.67 80.07 129.28 79.94 129.91 79.87 130.55 79.84 131.22 79.87 132.03 79.96 132.78 80.11 133.48 80.32 134.12 80.59 134.71 80.91 135.24 81.29 135.72 81.73 136.13 82.22 136.49 82.76 136.79 83.34 137.04 83.93 137.23 84.54 137.37 85.16 137.45 85.79 137.47 86.35 137.45 86.90 137.39 87.45 137.29 87.99 137.15 88.52 136.96 89.03 136.75 89.48 136.54 89.89 136.32 90.24 136.10 90.54 135.87 90.54 132.97 Z M 95.76 139.22 L 95.78 123.22 97.77 123.22 97.77 129.72 106.23 129.72 106.24 123.22 108.23 123.22 108.21 139.22 106.22 139.22 106.23 131.72 97.76 131.72 97.76 139.22 Z M 110.20 139.22 L 110.21 137.34 117.09 129.47 116.64 129.47 116.21 129.47 115.80 129.47 115.42 129.47 115.05 129.47 110.71 129.47 110.71 127.47 119.92 127.47 119.92 129.17 113.82 136.15 112.89 137.22 113.37 137.22 113.84 137.22 114.30 137.22 114.75 137.22 115.19 137.22 120.16 137.22 120.16 139.22 Z" />
<polyline points="183.00 166.22 773.00 166.22" fill="none" stroke="rgb(0,0,0)" stroke-width="7" />
<polygon points="201 208 201 208 208 214 216 218 224 221 233 221 242 221 250 218 258 214 265 208 265 208" fill="rgb(0,0,0)" stroke="rgb(0,0,0)" stroke-width="2" />
<polygon points="201 208 233 166 265 208" fill="rgb(0,0,0)" stroke="rgb(0,0,0)" stroke-width="2" />
<polyline points="201.02 208.20 264.97 208.15" fill="none" stroke="rgb(0,0,0)" stroke-width="2" />
<polygon points="265 124 265 124 258 119 250 114 242 112 233 111 224 112 216 114 208 119 201 124 201 124" fill="rgb(0,0,0)" stroke="rgb(0,0,0)" stroke-width="2" />
<polygon points="265 124 233 166 201 124" fill="rgb(0,0,0)" stroke="rgb(0,0,0)" stroke-width="2" />
<polyline points="264.98 124.25 201.03 124.30" fill="none" stroke="rgb(0,0,0)" stroke-width="2" />
<polygon points="281 216 281 216 289 222 298 227 308 230 319 231 329 230 339 227 348 222 357 216 357 216" fill="rgb(0,0,0)" stroke="rgb(0,0,0)" stroke-width="2" />
<polygon points="281 216 319 166 357 216" fill="rgb(0,0,0)" stroke="rgb(0,0,0)" stroke-width="2" />
<polyline points="281.02 215.81 356.55 215.75" fill="none" stroke="rgb(0,0,0)" stroke-width="2" />
<polygon points="357 117 357 117 348 110 339 105 329 102 319 101 308 102 298 105 289 110 281 117 281 117" fill="rgb(0,0,0)" stroke="rgb(0,0,0)" stroke-width="2" />
<polygon points="357 117 319 166 281 117" fill="rgb(0,0,0)" stroke="rgb(0,0,0)" stroke-width="2" />
<polyline points="356.56 116.64 281.03 116.70" fill="none" stroke="rgb(0,0,0)" stroke-width="2" />
<polygon points="371 216 371 216 379 222 388 227 398 230 409 231 419 230 429 227 438 222 447 216 447 216" fill="rgb(0,0,0)" stroke="rgb(0,0,0)" stroke-width="2" />
<polygon points="371 216 409 166 447 216" fill="rgb(0,0,0)" stroke="rgb(0,0,0)" stroke-width="2" />
<polyline points="371.02 215.81 446.55 215.75" fill="none" stroke="rgb(0,0,0)" stroke-width="2" />
<polygon points="447 117 447 117 438 110 429 105 419 102 409 101 398 102 388 105 379 110 371 117 371 117" fill="rgb(0,0,0)" stroke="rgb(0,0,0)" stroke-width="2" />
<polygon points="447 117 409 166 371 117" fill="rgb(0,0,0)" stroke="rgb(0,0,0)" stroke-width="2" />
<polyline points="446.56 116.64 371.03 116.70" fill="none" stroke="rgb(0,0,0)" stroke-width="2" />
<polygon points="461 216 461 216 469 222 478 227 488 230 499 231 509 230 519 227 528 222 537 216 537 216" fill="rgb(0,0,0)" stroke="rgb(0,0,0)" stroke-width="2" />
<polygon points="461 216 499 166 537 216" fill="rgb(0,0,0)" stroke="rgb(0,0,0)" stroke-width="2" />
<polyline points="461.02 215.81 536.55 215.75" fill="none" stroke="rgb(0,0,0)" stroke-width="2" />
<polygon points="537 117 537 117 528 110 519 105 509 102 499 101 488 102 478 105 469 110 461 117 461 117" fill="rgb(0,0,0)" stroke="rgb(0,0,0)" stroke-width="2" />
<polygon points="537 117 499 166 461 117" fill="rgb(0,0,0)" stroke="rgb(0,0,0)" stroke-width="2" />
<polyline points="536.56 116.64 461.03 116.70" fill="none" stroke="rgb(0,0,0)" stroke-width="2" />
<polygon points="551 216 551 216 559 222 568 227 578 230 589 231 599 230 609 227 618 222 627 216 627 216" fill="rgb(0,0,0)" stroke="rgb(0,0,0)" stroke-width="2" />
<polygon points="551 216 589 166 627 216" fill="rgb(0,0,0)" stroke="rgb(0,0,0)" stroke-width="2" />
<polyline points="551.02 215.81 626.55 215.75" fill="none" stroke="rgb(0,0,0)" stroke-width="2" />
<polygon points="627 117 627 117 618 110 609 105 599 102 589 101 578 102 568 105 559 110 551 117 551 117" fill="rgb(0,0,0)" stroke="rgb(0,0,0)" stroke-width="2" />
<polygon points="627 117 589 166 551 117" fill="rgb(0,0,0)" stroke="rgb(0,0,0)" stroke-width="2" />
<polyline points="626.56 116.64 551.03 116.70" fill="none" stroke="rgb(0,0,0)" stroke-width="2" />
<polygon points="651 195 651 195 656 199 661 202 667 204 673 204 679 204 685 202 690 199 695 195 695 195" fill="rgb(0,0,0)" stroke="rgb(0,0,0)" stroke-width="2" />
<polygon points="651 195 673 166 695 195" fill="rgb(0,0,0)" stroke="rgb(0,0,0)" stroke-width="2" />
<polyline points="651.00 195.06 694.95 195.02" fill="none" stroke="rgb(0,0,0)" stroke-width="2" />
<polygon points="695 137 695 137 690 133 685 131 679 129 673 128 667 129 661 131 656 133 651 137 651 137" fill="rgb(0,0,0)" stroke="rgb(0,0,0)" stroke-width="2" />
<polygon points="695 137 673 166 651 137" fill="rgb(0,0,0)" stroke="rgb(0,0,0)" stroke-width="2" />
<polyline points="694.95 137.35 651.00 137.39" fill="none" stroke="rgb(0,0,0)" stroke-width="2" />
<polyline points="703.00 166.22 783.00 166.22 793.00 176.22 793.00 206.22" fill="none" stroke="rgb(0,0,0)" stroke-width="7" />
<polyline points="1313.00 166.22 883.00 166.22 873.00 176.22 873.00 206.22" fill="none" stroke="rgb(0,0,0)" stroke-width="7" />
<polyline points="1313.00 166.22 1391.00 166.22 1438.00 166.22" fill="none" stroke="rgb(0,0,0)" stroke-width="2" />
<circle cx="1372.96" cy="166.22" r="15.04" fill="none" stroke="rgb(0,0,0)" stroke-width="2" />
<polyline points="1373.00 181.22 1373.00 271.22" fill="none" stroke="rgb(0,0,0)" stroke-width="2" />
<path fill="rgb(0,0,0)" stroke="rgb(0,0,0)" stroke-width="2" d=" M 1393 275 L 1353 275 1353 285 1393 285 1393 275 Z" />
<polyline points="1373.00 245.22 1373.00 275.22" fill="none" stroke="rgb(0,0,0)" stroke-width="2" />
<polyline points="1439.00 166.22 1429.00 176.22" fill="none" stroke="rgb(0,0,0)" stroke-width="2" />
<polyline points="1439.00 166.22 1429.00 156.22" fill="none" stroke="rgb(0,0,0)" stroke-width="2" />
<circle cx="1373" cy="181" r="6" fill="rgb(0,0,0)" stroke="none" stroke-width="2" />
<circle cx="1373" cy="206" r="6" fill="rgb(0,0,0)" stroke="none" stroke-width="2" />
<polyline points="1373.00 206.22 1438.00 206.22" fill="none" stroke="rgb(0,0,0)" stroke-width="2" />
<path fill="rgb(0,0,0)" stroke="rgb(0,0,0)" stroke-width="0" d=" M 1365.00 115.22 L 1365.02 99.22 1367.02 99.22 1367.00 115.22 Z M 1371.00 115.22 L 1371.02 99.22 1381.77 99.22 1381.77 101.22 1373.02 101.22 1373.01 105.97 1380.51 105.97 1380.51 107.97 1373.01 107.97 1373.00 115.22 Z M 1383.75 115.22 L 1384.62 110.97 1382.75 110.97 1382.76 108.97 1385.03 108.97 1385.74 105.47 1382.76 105.47 1382.76 103.47 1386.15 103.47 1387.02 99.22 1389.04 99.22 1388.18 103.47 1391.12 103.47 1391.98 99.22 1394.02 99.22 1393.15 103.47 1395.01 103.47 1395.01 105.47 1392.74 105.47 1392.03 108.97 1395.01 108.97 1395.00 110.97 1391.62 110.97 1390.75 115.22 1388.72 115.22 1389.59 110.97 1386.65 110.97 1385.78 115.22 Z M 1387.06 108.97 L 1390.00 108.97 1390.71 105.47 1387.77 105.47 Z M 1406.25 113.22 L 1406.25 115.22 1395.75 115.22 1395.75 114.94 1395.78 114.66 1395.82 114.38 1395.88 114.11 1395.96 113.85 1396.14 113.41 1396.34 112.98 1396.59 112.56 1396.87 112.14 1397.18 111.72 1397.55 111.30 1397.99 110.86 1398.49 110.39 1399.06 109.91 1399.69 109.40 1400.66 108.58 1401.49 107.83 1402.18 107.16 1402.73 106.58 1403.15 106.07 1403.46 105.61 1403.70 105.15 1403.87 104.70 1403.98 104.25 1404.01 103.81 1403.98 103.39 1403.88 102.99 1403.72 102.63 1403.49 102.29 1403.20 101.97 1402.85 101.70 1402.47 101.49 1402.04 101.34 1401.58 101.25 1401.07 101.22 1400.54 101.25 1400.05 101.34 1399.61 101.49 1399.21 101.69 1398.86 101.96 1398.56 102.27 1398.32 102.63 1398.15 103.03 1398.05 103.48 1398.01 103.97 1396.01 103.72 1396.14 102.89 1396.36 102.14 1396.66 101.47 1397.06 100.88 1397.55 100.38 1398.12 99.96 1398.76 99.64 1399.47 99.41 1400.26 99.27 1401.12 99.22 1401.98 99.28 1402.78 99.43 1403.49 99.69 1404.13 100.04 1404.70 100.51 1405.17 101.04 1405.54 101.63 1405.80 102.27 1405.96 102.95 1406.01 103.69 1406.00 104.07 1405.95 104.45 1405.88 104.83 1405.78 105.21 1405.65 105.58 1405.49 105.96 1405.29 106.34 1405.06 106.74 1404.78 107.14 1404.47 107.54 1404.09 107.98 1403.62 108.48 1403.04 109.02 1402.37 109.63 1401.60 110.28 1400.95 110.81 1400.39 111.27 1399.93 111.66 1399.57 111.97 1399.30 112.21 1399.09 112.41 1398.89 112.61 1398.71 112.82 1398.55 113.02 1398.40 113.22 Z M 1414.51 109.35 L 1414.58 108.12 1414.79 107.02 1415.13 106.05 1415.62 105.22 1416.24 104.53 1416.85 104.06 1417.50 103.69 1418.20 103.43 1418.96 103.28 1419.77 103.22 1420.66 103.29 1421.48 103.48 1422.24 103.80 1422.92 104.24 1423.54 104.81 1424.07 105.49 1424.48 106.27 1424.77 107.14 1424.95 108.12 1425.01 109.19 1424.98 110.05 1424.90 110.84 1424.77 111.55 1424.59 112.19 1424.35 112.74 1424.07 113.24 1423.74 113.69 1423.36 114.09 1422.94 114.45 1422.46 114.76 1421.96 115.02 1421.43 115.22 1420.89 115.36 1420.33 115.45 1419.75 115.47 1418.85 115.41 1418.02 115.22 1417.26 114.91 1416.57 114.46 1415.95 113.90 1415.43 113.21 1415.03 112.41 1414.74 111.50 1414.56 110.48 1414.51 109.35 Z M 1416.51 109.35 L 1416.54 110.13 1416.65 110.84 1416.84 111.46 1417.10 111.99 1417.43 112.45 1417.82 112.82 1418.24 113.10 1418.71 113.31 1419.21 113.43 1419.75 113.47 1420.29 113.43 1420.79 113.31 1421.26 113.10 1421.69 112.81 1422.08 112.44 1422.41 111.98 1422.67 111.44 1422.86 110.81 1422.97 110.09 1423.01 109.28 1422.97 108.52 1422.86 107.84 1422.67 107.23 1422.41 106.70 1422.08 106.25 1421.69 105.88 1421.26 105.60 1420.80 105.39 1420.30 105.27 1419.77 105.22 1419.22 105.27 1418.72 105.39 1418.25 105.59 1417.83 105.88 1417.44 106.25 1417.10 106.70 1416.84 107.24 1416.66 107.86 1416.54 108.56 1416.51 109.35 Z M 1434.75 115.22 L 1434.75 113.21 1434.18 114.02 1433.54 114.66 1432.81 115.11 1432.02 115.38 1431.14 115.47 1430.74 115.46 1430.36 115.41 1429.98 115.33 1429.61 115.22 1429.26 115.08 1428.93 114.91 1428.63 114.73 1428.37 114.53 1428.15 114.31 1427.96 114.08 1427.80 113.83 1427.66 113.55 1427.55 113.26 1427.45 112.94 1427.37 112.60 1427.33 112.34 1427.30 112.03 1427.27 111.65 1427.26 111.23 1427.25 110.74 1427.26 103.47 1429.26 103.47 1429.25 109.80 1429.26 110.37 1429.27 110.85 1429.30 111.26 1429.33 111.59 1429.38 111.84 1429.47 112.13 1429.59 112.40 1429.75 112.64 1429.94 112.85 1430.16 113.04 1430.42 113.20 1430.69 113.32 1430.99 113.41 1431.31 113.46 1431.65 113.47 1432.00 113.46 1432.35 113.40 1432.68 113.31 1433.01 113.19 1433.32 113.03 1433.62 112.84 1433.88 112.62 1434.10 112.38 1434.28 112.11 1434.43 111.82 1434.55 111.48 1434.64 111.09 1434.70 110.65 1434.74 110.14 1434.76 109.59 1434.76 103.47 1436.76 103.47 1436.75 115.22 Z M 1443.75 113.56 L 1444.00 115.28 1443.67 115.35 1443.36 115.41 1443.06 115.44 1442.78 115.47 1442.50 115.47 1442.09 115.46 1441.72 115.42 1441.38 115.36 1441.09 115.26 1440.83 115.14 1440.60 115.00 1440.41 114.84 1440.24 114.67 1440.10 114.48 1439.99 114.27 1439.91 114.01 1439.84 113.65 1439.79 113.20 1439.76 112.65 1439.75 112.00 1439.76 105.47 1438.26 105.47 1438.26 103.47 1439.76 103.47 1439.77 100.62 1441.77 99.44 1441.76 103.47 1443.76 103.47 1443.76 105.47 1441.76 105.47 1441.75 111.94 1441.76 112.24 1441.77 112.49 1441.79 112.70 1441.82 112.86 1441.86 112.97 1441.91 113.06 1441.96 113.14 1442.03 113.22 1442.11 113.28 1442.20 113.34 1442.30 113.39 1442.42 113.43 1442.56 113.45 1442.71 113.47 1442.88 113.47 1443.02 113.48 1443.18 113.49 1443.35 113.50 1443.54 113.53 1443.75 113.56 Z" />
<path fill="rgb(0,0,0)" stroke="rgb(0,0,0)" stroke-width="0" d=" M 1364.01 126.47 L 1364.01 124.47 1374.44 124.47 1374.44 126.09 1373.85 126.79 1373.25 127.57 1372.66 128.43 1372.07 129.37 1371.48 130.39 1370.92 131.47 1370.41 132.55 1369.96 133.65 1369.56 134.76 1369.21 135.88 1368.99 136.69 1368.81 137.53 1368.66 138.39 1368.55 139.29 1368.47 140.22 1366.48 140.22 1366.52 139.45 1366.62 138.61 1366.78 137.70 1367.00 136.74 1367.27 135.71 1367.60 134.66 1367.99 133.63 1368.42 132.61 1368.91 131.60 1369.45 130.61 1370.02 129.66 1370.61 128.77 1371.21 127.95 1371.83 127.18 1372.46 126.47 Z M 1376.18 132.35 L 1376.20 131.27 1376.27 130.26 1376.39 129.34 1376.56 128.51 1376.77 127.75 1377.02 127.07 1377.33 126.47 1377.67 125.94 1378.07 125.48 1378.50 125.10 1378.99 124.78 1379.52 124.54 1380.10 124.36 1380.73 124.26 1381.40 124.22 1381.91 124.25 1382.39 124.31 1382.86 124.41 1383.30 124.55 1383.72 124.74 1384.12 124.97 1384.48 125.23 1384.80 125.52 1385.08 125.86 1385.33 126.23 1385.55 126.63 1385.75 127.07 1385.94 127.55 1386.10 128.05 1386.26 128.59 1386.39 129.19 1386.49 129.87 1386.56 130.62 1386.60 131.45 1386.61 132.35 1386.59 133.43 1386.52 134.43 1386.40 135.35 1386.24 136.18 1386.03 136.94 1385.77 137.61 1385.47 138.22 1385.13 138.75 1384.73 139.21 1384.30 139.60 1383.81 139.91 1383.28 140.16 1382.70 140.33 1382.07 140.44 1381.39 140.47 1380.50 140.41 1379.69 140.23 1378.97 139.93 1378.32 139.50 1377.75 138.95 1377.18 138.01 1376.74 136.88 1376.43 135.56 1376.24 134.05 1376.18 132.35 Z M 1378.16 132.35 L 1378.20 133.77 1378.31 134.97 1378.50 135.97 1378.76 136.75 1379.09 137.32 1379.48 137.73 1379.90 138.06 1380.36 138.29 1380.86 138.43 1381.39 138.47 1381.92 138.43 1382.41 138.29 1382.87 138.06 1383.30 137.73 1383.69 137.31 1384.02 136.74 1384.28 135.96 1384.47 134.97 1384.59 133.76 1384.62 132.35 1384.59 130.97 1384.48 129.79 1384.30 128.81 1384.05 128.02 1383.73 127.44 1383.35 127.00 1382.92 126.66 1382.45 126.42 1381.94 126.27 1381.38 126.22 1380.85 126.27 1380.36 126.40 1379.91 126.61 1379.50 126.91 1379.13 127.30 1378.78 127.94 1378.51 128.76 1378.32 129.77 1378.20 130.97 1378.16 132.35 Z M 1395.30 140.22 L 1395.32 124.22 1398.74 124.22 1401.98 135.50 1402.15 136.10 1402.30 136.63 1402.43 137.11 1402.54 137.51 1402.63 137.86 1402.74 137.48 1402.86 137.03 1403.00 136.52 1403.16 135.95 1403.34 135.31 1406.56 124.22 1409.98 124.22 1409.96 140.22 1407.97 140.22 1407.99 126.22 1403.98 140.22 1401.28 140.22 1397.30 126.22 1397.29 140.22 Z M 1413.69 140.22 L 1413.70 124.22 1415.69 124.22 1415.69 130.72 1424.13 130.72 1424.14 124.22 1426.13 124.22 1426.11 140.22 1424.12 140.22 1424.13 132.72 1415.68 132.72 1415.67 140.22 Z M 1428.10 140.22 L 1428.10 138.34 1434.97 130.47 1434.52 130.47 1434.09 130.47 1433.69 130.47 1433.30 130.47 1432.94 130.47 1428.61 130.47 1428.61 128.47 1437.80 128.47 1437.80 130.17 1431.71 137.15 1430.78 138.22 1431.26 138.22 1431.73 138.22 1432.19 138.22 1432.64 138.22 1433.08 138.22 1438.04 138.22 1438.04 140.22 Z" />
<polyline points="718.00 496.22 640.00 496.22 593.00 496.22" fill="none" stroke="rgb(0,0,0)" stroke-width="2" />
<circle cx="658.04" cy="496.22" r="15.04" fill="none" stroke="rgb(0,0,0)" stroke-width="2" />
<polyline points="658.00 481.22 658.00 416.22" fill="none" stroke="rgb(0,0,0)" stroke-width="2" />
<path fill="rgb(0,0,0)" stroke="rgb(0,0,0)" stroke-width="2" d=" M 638 416 L 678 416 678 406 638 406 638 416 Z" />
<polyline points="658.00 446.22 658.00 416.22" fill="none" stroke="rgb(0,0,0)" stroke-width="2" />
<polyline points="593.00 496.22 583.00 506.22" fill="none" stroke="rgb(0,0,0)" stroke-width="2" />
<polyline points="593.00 496.22 583.00 486.22" fill="none" stroke="rgb(0,0,0)" stroke-width="2" />
<circle cx="658" cy="481" r="6" fill="rgb(0,0,0)" stroke="none" stroke-width="2" />
<circle cx="658" cy="456" r="6" fill="rgb(0,0,0)" stroke="none" stroke-width="2" />
<polyline points="658.00 456.22 593.00 456.22" fill="none" stroke="rgb(0,0,0)" stroke-width="2" />
<polyline points="793.00 446.22 793.00 476.22 773.00 496.22 718.00 496.22" fill="none" stroke="rgb(0,0,0)" stroke-width="7" />
<path fill="rgb(0,0,0)" stroke="rgb(0,0,0)" stroke-width="0" d=" M 503.65 484.22 L 503.66 468.22 505.66 468.22 505.65 482.22 513.65 482.22 513.65 484.22 Z M 515.15 476.44 L 515.24 474.92 515.50 473.54 515.93 472.29 516.52 471.19 517.29 470.22 518.20 469.41 519.20 468.78 520.30 468.33 521.50 468.06 522.80 467.97 523.66 468.02 524.49 468.14 525.29 468.35 526.05 468.65 526.78 469.03 527.45 469.48 528.06 470.01 528.60 470.59 529.07 471.25 529.48 471.97 529.81 472.75 530.07 473.56 530.26 474.42 530.37 475.31 530.40 476.25 530.36 477.20 530.24 478.11 530.05 478.98 529.77 479.81 529.42 480.59 528.99 481.32 528.50 481.97 527.95 482.55 527.33 483.06 526.64 483.49 525.91 483.84 525.16 484.12 524.39 484.32 523.59 484.44 522.77 484.47 521.89 484.43 521.05 484.30 520.24 484.08 519.48 483.78 518.75 483.39 518.08 482.92 517.47 482.39 516.93 481.80 516.46 481.14 516.07 480.42 515.74 479.66 515.48 478.88 515.30 478.08 515.19 477.27 515.15 476.44 Z M 517.15 476.46 L 517.22 477.53 517.41 478.51 517.73 479.39 518.17 480.17 518.75 480.87 519.42 481.44 520.16 481.90 520.96 482.22 521.83 482.41 522.76 482.47 523.71 482.41 524.59 482.21 525.40 481.89 526.14 481.43 526.81 480.85 527.38 480.15 527.83 479.33 528.15 478.41 528.34 477.38 528.40 476.24 528.38 475.50 528.30 474.80 528.16 474.14 527.97 473.52 527.73 472.94 527.43 472.40 527.08 471.91 526.69 471.47 526.24 471.09 525.74 470.75 525.21 470.47 524.65 470.25 524.06 470.10 523.45 470.01 522.81 469.97 521.91 470.03 521.06 470.21 520.27 470.51 519.52 470.93 518.83 471.47 518.23 472.15 517.76 472.98 517.42 473.98 517.22 475.14 517.15 476.46 Z M 542.65 482.22 L 542.65 484.22 532.15 484.22 532.15 483.94 532.17 483.66 532.21 483.38 532.28 483.11 532.36 482.85 532.53 482.41 532.74 481.98 532.98 481.56 533.26 481.14 533.58 480.72 533.95 480.30 534.38 479.86 534.88 479.39 535.45 478.91 536.09 478.40 537.05 477.58 537.88 476.83 538.57 476.16 539.13 475.58 539.54 475.07 539.85 474.61 540.10 474.15 540.27 473.70 540.37 473.25 540.41 472.81 540.38 472.39 540.28 471.99 540.12 471.63 539.89 471.29 539.60 470.97 539.25 470.70 538.87 470.49 538.44 470.34 537.98 470.25 537.47 470.22 536.94 470.25 536.45 470.34 536.01 470.49 535.61 470.69 535.25 470.96 534.95 471.27 534.72 471.63 534.55 472.03 534.45 472.48 534.41 472.97 532.41 472.72 532.54 471.89 532.75 471.14 533.06 470.47 533.46 469.88 533.94 469.38 534.51 468.96 535.15 468.64 535.87 468.41 536.65 468.27 537.51 468.22 538.38 468.28 539.17 468.43 539.89 468.69 540.53 469.04 541.09 469.51 541.57 470.04 541.94 470.63 542.20 471.27 542.36 471.95 542.41 472.69 542.39 473.07 542.35 473.45 542.28 473.83 542.18 474.21 542.05 474.58 541.89 474.96 541.69 475.34 541.45 475.74 541.18 476.14 540.87 476.54 540.49 476.98 540.01 477.48 539.44 478.02 538.77 478.63 538.00 479.28 537.34 479.81 536.79 480.27 536.33 480.66 535.96 480.97 535.70 481.21 535.49 481.41 535.29 481.61 535.11 481.82 534.94 482.02 534.79 482.22 Z M 551.41 470.22 L 551.41 468.22 553.41 468.22 553.41 470.22 Z M 551.40 484.22 L 551.41 472.47 553.41 472.47 553.40 484.22 Z M 556.40 484.22 L 556.41 472.47 558.41 472.47 558.41 474.12 558.95 473.43 559.59 472.91 560.31 472.53 561.12 472.30 562.02 472.22 562.43 472.24 562.82 472.29 563.20 472.36 563.56 472.47 563.91 472.61 564.24 472.77 564.53 472.95 564.79 473.15 565.01 473.37 565.20 473.61 565.36 473.86 565.50 474.14 565.62 474.43 565.72 474.75 565.80 475.08 565.84 475.33 565.87 475.65 565.89 476.04 565.90 476.49 565.90 477.01 565.90 484.22 563.90 484.22 563.90 477.28 563.89 476.83 563.87 476.43 563.82 476.07 563.76 475.77 563.68 475.51 563.57 475.29 563.44 475.08 563.27 474.89 563.08 474.72 562.86 474.57 562.62 474.45 562.36 474.35 562.09 474.28 561.80 474.24 561.49 474.22 561.00 474.26 560.54 474.35 560.10 474.51 559.70 474.73 559.32 475.01 558.99 475.38 558.73 475.86 558.55 476.46 558.44 477.17 558.40 477.99 558.40 484.22 Z" />
<path fill="rgb(0,0,0)" stroke="rgb(0,0,0)" stroke-width="0" d=" M 482.47 509.22 L 482.47 505.47 475.25 505.47 475.26 503.47 482.98 493.47 484.48 493.47 484.47 503.47 486.46 503.47 486.46 505.47 484.46 505.47 484.46 509.22 Z M 482.48 503.47 L 482.48 497.30 477.71 503.47 Z M 489.19 509.22 L 489.19 507.22 491.19 507.22 491.18 509.22 Z M 504.63 507.22 L 504.62 509.22 494.17 509.22 494.17 508.94 494.19 508.66 494.24 508.38 494.30 508.11 494.38 507.85 494.55 507.41 494.76 506.98 495.00 506.56 495.28 506.14 495.60 505.72 495.96 505.30 496.40 504.86 496.90 504.39 497.46 503.91 498.09 503.40 499.06 502.58 499.88 501.83 500.57 501.16 501.12 500.58 501.53 500.07 501.84 499.61 502.09 499.15 502.26 498.70 502.36 498.25 502.40 497.81 502.36 497.39 502.27 496.99 502.10 496.63 501.88 496.29 501.59 495.97 501.24 495.70 500.86 495.49 500.44 495.34 499.97 495.25 499.47 495.22 498.94 495.25 498.45 495.34 498.01 495.49 497.61 495.69 497.26 495.96 496.96 496.27 496.73 496.63 496.56 497.03 496.46 497.48 496.42 497.97 494.43 497.72 494.56 496.89 494.77 496.14 495.08 495.47 495.48 494.88 495.96 494.38 496.53 493.96 497.16 493.64 497.88 493.41 498.66 493.27 499.51 493.22 500.38 493.28 501.17 493.43 501.88 493.69 502.52 494.04 503.08 494.51 503.55 495.04 503.92 495.63 504.18 496.27 504.34 496.95 504.39 497.69 504.37 498.07 504.33 498.45 504.26 498.83 504.16 499.21 504.03 499.58 503.87 499.96 503.67 500.34 503.44 500.74 503.16 501.14 502.85 501.54 502.48 501.98 502.00 502.48 501.43 503.02 500.76 503.63 500.00 504.28 499.35 504.81 498.79 505.27 498.33 505.66 497.97 505.97 497.70 506.21 497.49 506.41 497.30 506.61 497.12 506.82 496.96 507.02 496.81 507.22 Z M 506.62 504.97 L 508.61 504.72 508.77 505.28 508.95 505.76 509.17 506.18 509.42 506.54 509.71 506.83 510.03 507.06 510.40 507.24 510.81 507.37 511.26 507.45 511.76 507.47 512.35 507.44 512.88 507.33 513.36 507.16 513.80 506.91 514.18 506.59 514.51 506.22 514.76 505.81 514.94 505.37 515.05 504.90 515.08 504.39 515.05 503.91 514.94 503.46 514.77 503.05 514.52 502.67 514.20 502.32 513.82 502.03 513.41 501.80 512.96 501.64 512.46 501.54 511.93 501.51 511.70 501.51 511.44 501.54 511.16 501.58 510.86 501.65 510.54 501.72 510.76 499.72 510.84 499.73 510.91 499.74 510.97 499.74 511.03 499.75 511.08 499.75 511.57 499.73 512.05 499.66 512.50 499.54 512.93 499.38 513.34 499.17 513.70 498.92 513.98 498.62 514.18 498.26 514.31 497.86 514.35 497.41 514.32 497.04 514.23 496.70 514.08 496.39 513.88 496.10 513.62 495.84 513.31 495.62 512.97 495.45 512.60 495.32 512.19 495.25 511.75 495.22 511.31 495.25 510.90 495.32 510.52 495.45 510.17 495.62 509.85 495.85 509.56 496.12 509.33 496.45 509.13 496.82 508.98 497.25 508.87 497.72 506.88 497.47 507.06 496.70 507.31 496.00 507.64 495.37 508.04 494.82 508.51 494.34 509.04 493.94 509.63 493.63 510.26 493.40 510.94 493.27 511.68 493.22 512.19 493.25 512.69 493.31 513.17 493.42 513.63 493.58 514.08 493.77 514.50 494.01 514.88 494.28 515.21 494.58 515.51 494.91 515.76 495.27 515.97 495.66 516.13 496.05 516.25 496.46 516.32 496.87 516.34 497.29 516.31 497.69 516.25 498.07 516.14 498.44 515.98 498.80 515.78 499.14 515.54 499.45 515.25 499.75 514.93 500.01 514.56 500.25 514.15 500.46 514.68 500.62 515.17 500.84 515.60 501.11 515.99 501.44 516.32 501.83 516.59 502.26 516.80 502.74 516.96 503.26 517.05 503.82 517.08 504.43 517.01 505.25 516.83 506.01 516.53 506.73 516.10 507.39 515.55 508.01 514.91 508.53 514.20 508.95 513.43 509.24 512.59 509.42 511.69 509.47 510.88 509.42 510.12 509.27 509.43 509.02 508.78 508.67 508.20 508.22 507.69 507.69 507.28 507.10 506.97 506.45 506.75 505.74 506.62 504.97 Z M 533.26 502.97 L 533.26 500.97 539.73 500.97 539.73 506.96 539.11 507.43 538.47 507.86 537.83 508.24 537.19 508.56 536.53 508.84 535.87 509.07 535.20 509.25 534.52 509.37 533.84 509.45 533.15 509.47 532.23 509.43 531.35 509.31 530.50 509.11 529.68 508.83 528.90 508.47 528.17 508.03 527.52 507.52 526.94 506.94 526.44 506.28 526.02 505.56 525.67 504.78 525.40 503.96 525.20 503.11 525.09 502.22 525.05 501.30 525.09 500.38 525.20 499.49 525.40 498.62 525.67 497.77 526.02 496.95 526.45 496.19 526.94 495.51 527.49 494.91 528.12 494.39 528.82 493.96 529.57 493.60 530.36 493.33 531.20 493.13 532.08 493.01 533.01 492.97 533.68 493.00 534.33 493.07 534.96 493.18 535.55 493.34 536.12 493.54 536.66 493.79 537.14 494.07 537.58 494.39 537.97 494.74 538.31 495.13 538.61 495.56 538.88 496.04 539.12 496.56 539.33 497.14 539.51 497.77 537.67 498.29 537.52 497.84 537.35 497.43 537.17 497.06 536.98 496.73 536.77 496.44 536.53 496.19 536.26 495.95 535.95 495.74 535.60 495.55 535.22 495.38 534.80 495.23 534.37 495.12 533.93 495.04 533.46 494.99 532.98 494.97 532.40 494.99 531.86 495.04 531.35 495.13 530.87 495.25 530.43 495.41 530.01 495.59 529.63 495.80 529.29 496.02 528.97 496.27 528.69 496.54 528.44 496.83 528.21 497.12 528.00 497.43 527.82 497.75 527.66 498.08 527.44 498.67 527.27 499.28 527.14 499.91 527.06 500.55 527.04 501.22 527.07 502.03 527.16 502.78 527.31 503.48 527.52 504.12 527.78 504.71 528.11 505.24 528.49 505.72 528.93 506.13 529.42 506.49 529.96 506.79 530.54 507.04 531.13 507.23 531.74 507.37 532.36 507.45 532.99 507.47 533.55 507.45 534.10 507.39 534.65 507.29 535.19 507.15 535.72 506.96 536.23 506.75 536.68 506.54 537.09 506.32 537.44 506.10 537.74 505.87 537.74 502.97 Z M 542.96 509.22 L 542.98 493.22 544.97 493.22 544.97 499.72 553.43 499.72 553.43 493.22 555.43 493.22 555.41 509.22 553.42 509.22 553.43 501.72 544.96 501.72 544.95 509.22 Z M 557.40 509.22 L 557.41 507.34 564.29 499.47 563.84 499.47 563.41 499.47 563.00 499.47 562.62 499.47 562.25 499.47 557.91 499.47 557.91 497.47 567.12 497.47 567.12 499.17 561.02 506.15 560.09 507.22 560.57 507.22 561.04 507.22 561.50 507.22 561.95 507.22 562.39 507.22 567.36 507.22 567.36 509.22 Z" />
<polygon points="1087 71 1087 71 1072 58 1055 49 1037 43 1019 41 1000 43 982 49 966 58 951 71 951 71" fill="rgb(0,0,0)" stroke="rgb(0,0,0)" stroke-width="2" />
<polygon points="1087 71 1019 167 951 71" fill="rgb(0,0,0)" stroke="rgb(0,0,0)" stroke-width="2" />
<polyline points="1086.56 71.14 951.04 71.25" fill="none" stroke="rgb(0,0,0)" stroke-width="2" />
<polygon points="951 262 951 262 966 275 982 285 1000 290 1019 292 1037 290 1055 285 1072 275 1087 262 1087 262" fill="rgb(0,0,0)" stroke="rgb(0,0,0)" stroke-width="2" />
<polygon points="951 262 1019 167 1087 262" fill="rgb(0,0,0)" stroke="rgb(0,0,0)" stroke-width="2" />
<polyline points="951.02 262.19 1086.54 262.08" fill="none" stroke="rgb(0,0,0)" stroke-width="2" />
<polygon points="1277 71 1277 71 1262 58 1245 49 1227 43 1209 41 1190 43 1172 49 1156 58 1141 71 1141 71" fill="rgb(0,0,0)" stroke="rgb(0,0,0)" stroke-width="2" />
<polygon points="1277 71 1209 167 1141 71" fill="rgb(0,0,0)" stroke="rgb(0,0,0)" stroke-width="2" />
<polyline points="1276.56 71.14 1141.04 71.25" fill="none" stroke="rgb(0,0,0)" stroke-width="2" />
<polygon points="1141 262 1141 262 1156 275 1172 285 1190 290 1209 292 1227 290 1245 285 1262 275 1277 262 1277 262" fill="rgb(0,0,0)" stroke="rgb(0,0,0)" stroke-width="2" />
<polygon points="1141 262 1209 167 1277 262" fill="rgb(0,0,0)" stroke="rgb(0,0,0)" stroke-width="2" />
<polyline points="1141.02 262.19 1276.54 262.08" fill="none" stroke="rgb(0,0,0)" stroke-width="2" />
<path fill="rgb(0,0,0)" stroke="rgb(0,0,0)" stroke-width="0" d=" M 1035.09 340.22 L 1035.11 321.02 1037.50 321.02 1037.49 337.82 1047.05 337.82 1047.05 340.22 Z M 1049.74 340.22 L 1049.76 321.02 1056.85 321.02 1057.56 321.03 1058.21 321.05 1058.78 321.09 1059.28 321.14 1059.71 321.21 1060.24 321.32 1060.75 321.46 1061.21 321.64 1061.64 321.86 1062.03 322.11 1062.39 322.39 1062.72 322.72 1063.02 323.09 1063.29 323.51 1063.54 323.96 1063.74 324.45 1063.90 324.95 1064.01 325.48 1064.08 326.02 1064.10 326.58 1064.04 327.53 1063.86 328.42 1063.55 329.25 1063.12 330.02 1062.56 330.73 1061.85 331.34 1060.93 331.81 1059.82 332.15 1058.51 332.36 1057.00 332.42 1052.14 332.42 1052.13 340.22 Z M 1052.14 330.02 L 1057.14 330.02 1058.08 329.99 1058.90 329.88 1059.60 329.71 1060.19 329.46 1060.67 329.14 1061.04 328.76 1061.34 328.32 1061.54 327.83 1061.67 327.27 1061.71 326.66 1061.69 326.21 1061.61 325.79 1061.49 325.39 1061.32 325.02 1061.10 324.68 1060.84 324.37 1060.55 324.11 1060.23 323.89 1059.87 323.72 1059.49 323.59 1059.18 323.53 1058.79 323.48 1058.32 323.45 1057.75 323.43 1057.10 323.42 1052.15 323.42 Z M 1067.38 340.22 L 1067.40 321.02 1080.25 321.02 1080.25 323.42 1069.79 323.42 1069.78 329.12 1078.75 329.12 1078.75 331.52 1069.78 331.52 1069.77 340.22 Z M 1099.06 340.22 L 1096.67 340.22 1096.69 325.26 1096.32 325.59 1095.91 325.91 1095.46 326.23 1094.96 326.56 1094.42 326.88 1093.87 327.19 1093.35 327.46 1092.84 327.71 1092.36 327.92 1091.90 328.09 1091.90 325.82 1092.69 325.44 1093.43 325.02 1094.13 324.57 1094.79 324.09 1095.41 323.58 1095.98 323.06 1096.47 322.54 1096.90 322.03 1097.26 321.52 1097.54 321.02 1099.08 321.02 Z M 1105.94 340.22 L 1105.94 337.82 1108.34 337.82 1108.33 340.22 Z M 1112.22 335.12 L 1114.61 334.82 1114.75 335.45 1114.94 336.01 1115.18 336.50 1115.47 336.93 1115.82 337.30 1116.21 337.60 1116.66 337.83 1117.16 337.99 1117.71 338.09 1118.31 338.12 1119.05 338.08 1119.72 337.94 1120.32 337.71 1120.85 337.39 1121.31 336.97 1121.70 336.48 1122.00 335.93 1122.21 335.32 1122.34 334.65 1122.39 333.92 1122.35 333.23 1122.23 332.60 1122.03 332.03 1121.75 331.52 1121.39 331.07 1120.95 330.69 1120.42 330.40 1119.82 330.19 1119.13 330.07 1118.36 330.02 1117.87 330.04 1117.41 330.09 1116.99 330.18 1116.61 330.29 1116.26 330.44 1115.94 330.62 1115.65 330.82 1115.38 331.03 1115.13 331.27 1114.92 331.52 1112.53 331.22 1114.63 321.32 1123.89 321.32 1123.89 323.72 1116.56 323.72 1115.53 329.01 1116.21 328.51 1116.89 328.12 1117.59 327.85 1118.31 327.68 1119.03 327.62 1119.97 327.69 1120.85 327.90 1121.67 328.24 1122.42 328.73 1123.12 329.35 1123.72 330.07 1124.18 330.88 1124.51 331.76 1124.71 332.73 1124.78 333.77 1124.72 334.77 1124.54 335.72 1124.24 336.61 1123.81 337.44 1123.27 338.22 1122.49 339.05 1121.60 339.70 1120.61 340.16 1119.51 340.43 1118.30 340.52 1117.31 340.47 1116.39 340.29 1115.54 339.99 1114.78 339.58 1114.09 339.05 1113.49 338.42 1113.00 337.71 1112.63 336.92 1112.37 336.06 1112.22 335.12 Z M 1144.21 332.72 L 1144.21 330.32 1151.98 330.32 1151.98 337.50 1151.23 338.07 1150.47 338.59 1149.70 339.04 1148.92 339.43 1148.14 339.77 1147.34 340.04 1146.54 340.25 1145.73 340.40 1144.91 340.49 1144.08 340.52 1142.98 340.48 1141.91 340.33 1140.89 340.09 1139.91 339.75 1138.97 339.32 1138.10 338.79 1137.32 338.18 1136.63 337.48 1136.02 336.70 1135.51 335.82 1135.09 334.89 1134.77 333.91 1134.53 332.89 1134.39 331.82 1134.35 330.72 1134.40 329.61 1134.54 328.54 1134.77 327.50 1135.10 326.48 1135.52 325.50 1136.03 324.58 1136.62 323.76 1137.29 323.04 1138.04 322.42 1138.87 321.90 1139.77 321.48 1140.73 321.15 1141.74 320.91 1142.80 320.77 1143.91 320.72 1144.72 320.75 1145.50 320.83 1146.25 320.97 1146.97 321.16 1147.65 321.41 1148.29 321.70 1148.87 322.04 1149.40 322.42 1149.86 322.84 1150.27 323.31 1150.63 323.82 1150.96 324.40 1151.25 325.03 1151.50 325.73 1151.71 326.48 1149.51 327.10 1149.32 326.56 1149.12 326.07 1148.91 325.62 1148.67 325.23 1148.42 324.89 1148.14 324.58 1147.81 324.30 1147.44 324.04 1147.02 323.81 1146.56 323.61 1146.06 323.43 1145.55 323.30 1145.01 323.20 1144.45 323.14 1143.87 323.12 1143.18 323.15 1142.53 323.21 1141.92 323.31 1141.35 323.46 1140.81 323.64 1140.31 323.86 1139.86 324.11 1139.44 324.38 1139.06 324.68 1138.72 325.00 1138.42 325.35 1138.15 325.70 1137.90 326.07 1137.68 326.46 1137.49 326.85 1137.22 327.56 1137.01 328.29 1136.86 329.04 1136.77 329.82 1136.74 330.62 1136.77 331.59 1136.88 332.49 1137.06 333.33 1137.31 334.10 1137.64 334.80 1138.03 335.44 1138.48 336.01 1139.01 336.51 1139.59 336.95 1140.25 337.31 1140.94 337.60 1141.65 337.83 1142.38 337.99 1143.13 338.09 1143.89 338.12 1144.56 338.10 1145.22 338.03 1145.87 337.90 1146.52 337.73 1147.16 337.51 1147.77 337.26 1148.32 337.00 1148.80 336.74 1149.23 336.47 1149.59 336.19 1149.59 332.72 Z M 1155.86 340.22 L 1155.88 321.02 1158.27 321.02 1158.27 328.82 1168.43 328.82 1168.44 321.02 1170.83 321.02 1170.81 340.22 1168.42 340.22 1168.43 331.22 1158.26 331.22 1158.25 340.22 Z M 1173.20 340.22 L 1173.20 337.97 1181.47 328.52 1180.93 328.52 1180.41 328.52 1179.92 328.52 1179.46 328.52 1179.02 328.52 1173.81 328.52 1173.81 326.12 1184.87 326.12 1184.87 328.16 1177.54 336.54 1176.42 337.82 1177.00 337.82 1177.57 337.82 1178.12 337.82 1178.66 337.82 1179.19 337.82 1185.16 337.82 1185.16 340.22 Z" />
</svg>
