<?xml version="1.0" encoding="utf-8" standalone="no"?>
<!DOCTYPE svg PUBLIC "-//W3C//DTD SVG 1.1//EN"
  "http://www.w3.org/Graphics/SVG/1.1/DTD/svg11.dtd">
<svg xmlns:xlink="http://www.w3.org/1999/xlink" width="460.8pt" height="345.6pt" viewBox="0 0 460.8 345.6" xmlns="http://www.w3.org/2000/svg" version="1.1">
 <metadata>
  <rdf:RDF xmlns:dc="http://purl.org/dc/elements/1.1/" xmlns:cc="http://creativecommons.org/ns#" xmlns:rdf="http://www.w3.org/1999/02/22-rdf-syntax-ns#">
   <cc:Work>
    <dc:type rdf:resource="http://purl.org/dc/dcmitype/StillImage"/>
    <dc:date>2022-09-13T12:57:05.183672</dc:date>
    <dc:format>image/svg+xml</dc:format>
    <dc:creator>
     <cc:Agent>
      <dc:title>Matplotlib v3.5.1, https://matplotlib.org/</dc:title>
     </cc:Agent>
    </dc:creator>
   </cc:Work>
  </rdf:RDF>
 </metadata>
 <defs>
  <style type="text/css">*{stroke-linejoin: round; stroke-linecap: butt}</style>
 </defs>
 <g id="figure_1">
  <g id="patch_1">
   <path d="M 0 345.6 
L 460.8 345.6 
L 460.8 0 
L 0 0 
z
" style="fill: #ffffff"/>
  </g>
  <g id="axes_1">
   <g id="patch_2">
    <path d="M 57.6 307.584 
L 414.72 307.584 
L 414.72 41.472 
L 57.6 41.472 
z
" style="fill: #ffffff"/>
   </g>
   <g id="matplotlib.axis_1">
    <g id="xtick_1">
     <g id="line2d_1">
      <defs>
       <path id="m40bc58f826" d="M 0 0 
L 0 3.5 
" style="stroke: #000000; stroke-width: 0.8"/>
      </defs>
      <g>
       <use xlink:href="#m40bc58f826" x="73.832727" y="307.584" style="stroke: #000000; stroke-width: 0.8"/>
      </g>
     </g>
     <g id="text_1">
      <!-- $\mathdefault{10^{3}}$ -->
      <g transform="translate(65.032727 322.182437)scale(0.1 -0.1)">
       <defs>
        <path id="DejaVuSans-31" d="M 794 531 
L 1825 531 
L 1825 4091 
L 703 3866 
L 703 4441 
L 1819 4666 
L 2450 4666 
L 2450 531 
L 3481 531 
L 3481 0 
L 794 0 
L 794 531 
z
" transform="scale(0.015625)"/>
        <path id="DejaVuSans-30" d="M 2034 4250 
Q 1547 4250 1301 3770 
Q 1056 3291 1056 2328 
Q 1056 1369 1301 889 
Q 1547 409 2034 409 
Q 2525 409 2770 889 
Q 3016 1369 3016 2328 
Q 3016 3291 2770 3770 
Q 2525 4250 2034 4250 
z
M 2034 4750 
Q 2819 4750 3233 4129 
Q 3647 3509 3647 2328 
Q 3647 1150 3233 529 
Q 2819 -91 2034 -91 
Q 1250 -91 836 529 
Q 422 1150 422 2328 
Q 422 3509 836 4129 
Q 1250 4750 2034 4750 
z
" transform="scale(0.015625)"/>
        <path id="DejaVuSans-33" d="M 2597 2516 
Q 3050 2419 3304 2112 
Q 3559 1806 3559 1356 
Q 3559 666 3084 287 
Q 2609 -91 1734 -91 
Q 1441 -91 1130 -33 
Q 819 25 488 141 
L 488 750 
Q 750 597 1062 519 
Q 1375 441 1716 441 
Q 2309 441 2620 675 
Q 2931 909 2931 1356 
Q 2931 1769 2642 2001 
Q 2353 2234 1838 2234 
L 1294 2234 
L 1294 2753 
L 1863 2753 
Q 2328 2753 2575 2939 
Q 2822 3125 2822 3475 
Q 2822 3834 2567 4026 
Q 2313 4219 1838 4219 
Q 1578 4219 1281 4162 
Q 984 4106 628 3988 
L 628 4550 
Q 988 4650 1302 4700 
Q 1616 4750 1894 4750 
Q 2613 4750 3031 4423 
Q 3450 4097 3450 3541 
Q 3450 3153 3228 2886 
Q 3006 2619 2597 2516 
z
" transform="scale(0.015625)"/>
       </defs>
       <use xlink:href="#DejaVuSans-31" transform="translate(0 0.765625)"/>
       <use xlink:href="#DejaVuSans-30" transform="translate(63.623047 0.765625)"/>
       <use xlink:href="#DejaVuSans-33" transform="translate(128.203125 39.046875)scale(0.7)"/>
      </g>
     </g>
    </g>
    <g id="xtick_2">
     <g id="line2d_2">
      <g>
       <use xlink:href="#m40bc58f826" x="154.996364" y="307.584" style="stroke: #000000; stroke-width: 0.8"/>
      </g>
     </g>
     <g id="text_2">
      <!-- $\mathdefault{10^{4}}$ -->
      <g transform="translate(146.196364 322.182437)scale(0.1 -0.1)">
       <defs>
        <path id="DejaVuSans-34" d="M 2419 4116 
L 825 1625 
L 2419 1625 
L 2419 4116 
z
M 2253 4666 
L 3047 4666 
L 3047 1625 
L 3713 1625 
L 3713 1100 
L 3047 1100 
L 3047 0 
L 2419 0 
L 2419 1100 
L 313 1100 
L 313 1709 
L 2253 4666 
z
" transform="scale(0.015625)"/>
       </defs>
       <use xlink:href="#DejaVuSans-31" transform="translate(0 0.684375)"/>
       <use xlink:href="#DejaVuSans-30" transform="translate(63.623047 0.684375)"/>
       <use xlink:href="#DejaVuSans-34" transform="translate(128.203125 38.965625)scale(0.7)"/>
      </g>
     </g>
    </g>
    <g id="xtick_3">
     <g id="line2d_3">
      <g>
       <use xlink:href="#m40bc58f826" x="236.16" y="307.584" style="stroke: #000000; stroke-width: 0.8"/>
      </g>
     </g>
     <g id="text_3">
      <!-- $\mathdefault{10^{5}}$ -->
      <g transform="translate(227.36 322.182437)scale(0.1 -0.1)">
       <defs>
        <path id="DejaVuSans-35" d="M 691 4666 
L 3169 4666 
L 3169 4134 
L 1269 4134 
L 1269 2991 
Q 1406 3038 1543 3061 
Q 1681 3084 1819 3084 
Q 2600 3084 3056 2656 
Q 3513 2228 3513 1497 
Q 3513 744 3044 326 
Q 2575 -91 1722 -91 
Q 1428 -91 1123 -41 
Q 819 9 494 109 
L 494 744 
Q 775 591 1075 516 
Q 1375 441 1709 441 
Q 2250 441 2565 725 
Q 2881 1009 2881 1497 
Q 2881 1984 2565 2268 
Q 2250 2553 1709 2553 
Q 1456 2553 1204 2497 
Q 953 2441 691 2322 
L 691 4666 
z
" transform="scale(0.015625)"/>
       </defs>
       <use xlink:href="#DejaVuSans-31" transform="translate(0 0.684375)"/>
       <use xlink:href="#DejaVuSans-30" transform="translate(63.623047 0.684375)"/>
       <use xlink:href="#DejaVuSans-35" transform="translate(128.203125 38.965625)scale(0.7)"/>
      </g>
     </g>
    </g>
    <g id="xtick_4">
     <g id="line2d_4">
      <g>
       <use xlink:href="#m40bc58f826" x="317.323636" y="307.584" style="stroke: #000000; stroke-width: 0.8"/>
      </g>
     </g>
     <g id="text_4">
      <!-- $\mathdefault{10^{6}}$ -->
      <g transform="translate(308.523636 322.182437)scale(0.1 -0.1)">
       <defs>
        <path id="DejaVuSans-36" d="M 2113 2584 
Q 1688 2584 1439 2293 
Q 1191 2003 1191 1497 
Q 1191 994 1439 701 
Q 1688 409 2113 409 
Q 2538 409 2786 701 
Q 3034 994 3034 1497 
Q 3034 2003 2786 2293 
Q 2538 2584 2113 2584 
z
M 3366 4563 
L 3366 3988 
Q 3128 4100 2886 4159 
Q 2644 4219 2406 4219 
Q 1781 4219 1451 3797 
Q 1122 3375 1075 2522 
Q 1259 2794 1537 2939 
Q 1816 3084 2150 3084 
Q 2853 3084 3261 2657 
Q 3669 2231 3669 1497 
Q 3669 778 3244 343 
Q 2819 -91 2113 -91 
Q 1303 -91 875 529 
Q 447 1150 447 2328 
Q 447 3434 972 4092 
Q 1497 4750 2381 4750 
Q 2619 4750 2861 4703 
Q 3103 4656 3366 4563 
z
" transform="scale(0.015625)"/>
       </defs>
       <use xlink:href="#DejaVuSans-31" transform="translate(0 0.765625)"/>
       <use xlink:href="#DejaVuSans-30" transform="translate(63.623047 0.765625)"/>
       <use xlink:href="#DejaVuSans-36" transform="translate(128.203125 39.046875)scale(0.7)"/>
      </g>
     </g>
    </g>
    <g id="xtick_5">
     <g id="line2d_5">
      <g>
       <use xlink:href="#m40bc58f826" x="398.487273" y="307.584" style="stroke: #000000; stroke-width: 0.8"/>
      </g>
     </g>
     <g id="text_5">
      <!-- $\mathdefault{10^{7}}$ -->
      <g transform="translate(389.687273 322.182437)scale(0.1 -0.1)">
       <defs>
        <path id="DejaVuSans-37" d="M 525 4666 
L 3525 4666 
L 3525 4397 
L 1831 0 
L 1172 0 
L 2766 4134 
L 525 4134 
L 525 4666 
z
" transform="scale(0.015625)"/>
       </defs>
       <use xlink:href="#DejaVuSans-31" transform="translate(0 0.684375)"/>
       <use xlink:href="#DejaVuSans-30" transform="translate(63.623047 0.684375)"/>
       <use xlink:href="#DejaVuSans-37" transform="translate(128.203125 38.965625)scale(0.7)"/>
      </g>
     </g>
    </g>
    <g id="xtick_6">
     <g id="line2d_6">
      <defs>
       <path id="mf7003903a5" d="M 0 0 
L 0 2 
" style="stroke: #000000; stroke-width: 0.6"/>
      </defs>
      <g>
       <use xlink:href="#mf7003903a5" x="61.260321" y="307.584" style="stroke: #000000; stroke-width: 0.6"/>
      </g>
     </g>
    </g>
    <g id="xtick_7">
     <g id="line2d_7">
      <g>
       <use xlink:href="#mf7003903a5" x="65.967158" y="307.584" style="stroke: #000000; stroke-width: 0.6"/>
      </g>
     </g>
    </g>
    <g id="xtick_8">
     <g id="line2d_8">
      <g>
       <use xlink:href="#mf7003903a5" x="70.118883" y="307.584" style="stroke: #000000; stroke-width: 0.6"/>
      </g>
     </g>
    </g>
    <g id="xtick_9">
     <g id="line2d_9">
      <g>
       <use xlink:href="#mf7003903a5" x="98.265416" y="307.584" style="stroke: #000000; stroke-width: 0.6"/>
      </g>
     </g>
    </g>
    <g id="xtick_10">
     <g id="line2d_10">
      <g>
       <use xlink:href="#mf7003903a5" x="112.557623" y="307.584" style="stroke: #000000; stroke-width: 0.6"/>
      </g>
     </g>
    </g>
    <g id="xtick_11">
     <g id="line2d_11">
      <g>
       <use xlink:href="#mf7003903a5" x="122.698105" y="307.584" style="stroke: #000000; stroke-width: 0.6"/>
      </g>
     </g>
    </g>
    <g id="xtick_12">
     <g id="line2d_12">
      <g>
       <use xlink:href="#mf7003903a5" x="130.563675" y="307.584" style="stroke: #000000; stroke-width: 0.6"/>
      </g>
     </g>
    </g>
    <g id="xtick_13">
     <g id="line2d_13">
      <g>
       <use xlink:href="#mf7003903a5" x="136.990312" y="307.584" style="stroke: #000000; stroke-width: 0.6"/>
      </g>
     </g>
    </g>
    <g id="xtick_14">
     <g id="line2d_14">
      <g>
       <use xlink:href="#mf7003903a5" x="142.423957" y="307.584" style="stroke: #000000; stroke-width: 0.6"/>
      </g>
     </g>
    </g>
    <g id="xtick_15">
     <g id="line2d_15">
      <g>
       <use xlink:href="#mf7003903a5" x="147.130795" y="307.584" style="stroke: #000000; stroke-width: 0.6"/>
      </g>
     </g>
    </g>
    <g id="xtick_16">
     <g id="line2d_16">
      <g>
       <use xlink:href="#mf7003903a5" x="151.282519" y="307.584" style="stroke: #000000; stroke-width: 0.6"/>
      </g>
     </g>
    </g>
    <g id="xtick_17">
     <g id="line2d_17">
      <g>
       <use xlink:href="#mf7003903a5" x="179.429053" y="307.584" style="stroke: #000000; stroke-width: 0.6"/>
      </g>
     </g>
    </g>
    <g id="xtick_18">
     <g id="line2d_18">
      <g>
       <use xlink:href="#mf7003903a5" x="193.72126" y="307.584" style="stroke: #000000; stroke-width: 0.6"/>
      </g>
     </g>
    </g>
    <g id="xtick_19">
     <g id="line2d_19">
      <g>
       <use xlink:href="#mf7003903a5" x="203.861742" y="307.584" style="stroke: #000000; stroke-width: 0.6"/>
      </g>
     </g>
    </g>
    <g id="xtick_20">
     <g id="line2d_20">
      <g>
       <use xlink:href="#mf7003903a5" x="211.727311" y="307.584" style="stroke: #000000; stroke-width: 0.6"/>
      </g>
     </g>
    </g>
    <g id="xtick_21">
     <g id="line2d_21">
      <g>
       <use xlink:href="#mf7003903a5" x="218.153949" y="307.584" style="stroke: #000000; stroke-width: 0.6"/>
      </g>
     </g>
    </g>
    <g id="xtick_22">
     <g id="line2d_22">
      <g>
       <use xlink:href="#mf7003903a5" x="223.587594" y="307.584" style="stroke: #000000; stroke-width: 0.6"/>
      </g>
     </g>
    </g>
    <g id="xtick_23">
     <g id="line2d_23">
      <g>
       <use xlink:href="#mf7003903a5" x="228.294431" y="307.584" style="stroke: #000000; stroke-width: 0.6"/>
      </g>
     </g>
    </g>
    <g id="xtick_24">
     <g id="line2d_24">
      <g>
       <use xlink:href="#mf7003903a5" x="232.446156" y="307.584" style="stroke: #000000; stroke-width: 0.6"/>
      </g>
     </g>
    </g>
    <g id="xtick_25">
     <g id="line2d_25">
      <g>
       <use xlink:href="#mf7003903a5" x="260.592689" y="307.584" style="stroke: #000000; stroke-width: 0.6"/>
      </g>
     </g>
    </g>
    <g id="xtick_26">
     <g id="line2d_26">
      <g>
       <use xlink:href="#mf7003903a5" x="274.884896" y="307.584" style="stroke: #000000; stroke-width: 0.6"/>
      </g>
     </g>
    </g>
    <g id="xtick_27">
     <g id="line2d_27">
      <g>
       <use xlink:href="#mf7003903a5" x="285.025378" y="307.584" style="stroke: #000000; stroke-width: 0.6"/>
      </g>
     </g>
    </g>
    <g id="xtick_28">
     <g id="line2d_28">
      <g>
       <use xlink:href="#mf7003903a5" x="292.890947" y="307.584" style="stroke: #000000; stroke-width: 0.6"/>
      </g>
     </g>
    </g>
    <g id="xtick_29">
     <g id="line2d_29">
      <g>
       <use xlink:href="#mf7003903a5" x="299.317585" y="307.584" style="stroke: #000000; stroke-width: 0.6"/>
      </g>
     </g>
    </g>
    <g id="xtick_30">
     <g id="line2d_30">
      <g>
       <use xlink:href="#mf7003903a5" x="304.75123" y="307.584" style="stroke: #000000; stroke-width: 0.6"/>
      </g>
     </g>
    </g>
    <g id="xtick_31">
     <g id="line2d_31">
      <g>
       <use xlink:href="#mf7003903a5" x="309.458067" y="307.584" style="stroke: #000000; stroke-width: 0.6"/>
      </g>
     </g>
    </g>
    <g id="xtick_32">
     <g id="line2d_32">
      <g>
       <use xlink:href="#mf7003903a5" x="313.609792" y="307.584" style="stroke: #000000; stroke-width: 0.6"/>
      </g>
     </g>
    </g>
    <g id="xtick_33">
     <g id="line2d_33">
      <g>
       <use xlink:href="#mf7003903a5" x="341.756325" y="307.584" style="stroke: #000000; stroke-width: 0.6"/>
      </g>
     </g>
    </g>
    <g id="xtick_34">
     <g id="line2d_34">
      <g>
       <use xlink:href="#mf7003903a5" x="356.048532" y="307.584" style="stroke: #000000; stroke-width: 0.6"/>
      </g>
     </g>
    </g>
    <g id="xtick_35">
     <g id="line2d_35">
      <g>
       <use xlink:href="#mf7003903a5" x="366.189015" y="307.584" style="stroke: #000000; stroke-width: 0.6"/>
      </g>
     </g>
    </g>
    <g id="xtick_36">
     <g id="line2d_36">
      <g>
       <use xlink:href="#mf7003903a5" x="374.054584" y="307.584" style="stroke: #000000; stroke-width: 0.6"/>
      </g>
     </g>
    </g>
    <g id="xtick_37">
     <g id="line2d_37">
      <g>
       <use xlink:href="#mf7003903a5" x="380.481221" y="307.584" style="stroke: #000000; stroke-width: 0.6"/>
      </g>
     </g>
    </g>
    <g id="xtick_38">
     <g id="line2d_38">
      <g>
       <use xlink:href="#mf7003903a5" x="385.914866" y="307.584" style="stroke: #000000; stroke-width: 0.6"/>
      </g>
     </g>
    </g>
    <g id="xtick_39">
     <g id="line2d_39">
      <g>
       <use xlink:href="#mf7003903a5" x="390.621704" y="307.584" style="stroke: #000000; stroke-width: 0.6"/>
      </g>
     </g>
    </g>
    <g id="xtick_40">
     <g id="line2d_40">
      <g>
       <use xlink:href="#mf7003903a5" x="394.773428" y="307.584" style="stroke: #000000; stroke-width: 0.6"/>
      </g>
     </g>
    </g>
    <g id="text_6">
     <!-- Frequency [Hz] -->
     <g transform="translate(198.455312 335.860562)scale(0.1 -0.1)">
      <defs>
       <path id="DejaVuSans-46" d="M 628 4666 
L 3309 4666 
L 3309 4134 
L 1259 4134 
L 1259 2759 
L 3109 2759 
L 3109 2228 
L 1259 2228 
L 1259 0 
L 628 0 
L 628 4666 
z
" transform="scale(0.015625)"/>
       <path id="DejaVuSans-72" d="M 2631 2963 
Q 2534 3019 2420 3045 
Q 2306 3072 2169 3072 
Q 1681 3072 1420 2755 
Q 1159 2438 1159 1844 
L 1159 0 
L 581 0 
L 581 3500 
L 1159 3500 
L 1159 2956 
Q 1341 3275 1631 3429 
Q 1922 3584 2338 3584 
Q 2397 3584 2469 3576 
Q 2541 3569 2628 3553 
L 2631 2963 
z
" transform="scale(0.015625)"/>
       <path id="DejaVuSans-65" d="M 3597 1894 
L 3597 1613 
L 953 1613 
Q 991 1019 1311 708 
Q 1631 397 2203 397 
Q 2534 397 2845 478 
Q 3156 559 3463 722 
L 3463 178 
Q 3153 47 2828 -22 
Q 2503 -91 2169 -91 
Q 1331 -91 842 396 
Q 353 884 353 1716 
Q 353 2575 817 3079 
Q 1281 3584 2069 3584 
Q 2775 3584 3186 3129 
Q 3597 2675 3597 1894 
z
M 3022 2063 
Q 3016 2534 2758 2815 
Q 2500 3097 2075 3097 
Q 1594 3097 1305 2825 
Q 1016 2553 972 2059 
L 3022 2063 
z
" transform="scale(0.015625)"/>
       <path id="DejaVuSans-71" d="M 947 1747 
Q 947 1113 1208 752 
Q 1469 391 1925 391 
Q 2381 391 2643 752 
Q 2906 1113 2906 1747 
Q 2906 2381 2643 2742 
Q 2381 3103 1925 3103 
Q 1469 3103 1208 2742 
Q 947 2381 947 1747 
z
M 2906 525 
Q 2725 213 2448 61 
Q 2172 -91 1784 -91 
Q 1150 -91 751 415 
Q 353 922 353 1747 
Q 353 2572 751 3078 
Q 1150 3584 1784 3584 
Q 2172 3584 2448 3432 
Q 2725 3281 2906 2969 
L 2906 3500 
L 3481 3500 
L 3481 -1331 
L 2906 -1331 
L 2906 525 
z
" transform="scale(0.015625)"/>
       <path id="DejaVuSans-75" d="M 544 1381 
L 544 3500 
L 1119 3500 
L 1119 1403 
Q 1119 906 1312 657 
Q 1506 409 1894 409 
Q 2359 409 2629 706 
Q 2900 1003 2900 1516 
L 2900 3500 
L 3475 3500 
L 3475 0 
L 2900 0 
L 2900 538 
Q 2691 219 2414 64 
Q 2138 -91 1772 -91 
Q 1169 -91 856 284 
Q 544 659 544 1381 
z
M 1991 3584 
L 1991 3584 
z
" transform="scale(0.015625)"/>
       <path id="DejaVuSans-6e" d="M 3513 2113 
L 3513 0 
L 2938 0 
L 2938 2094 
Q 2938 2591 2744 2837 
Q 2550 3084 2163 3084 
Q 1697 3084 1428 2787 
Q 1159 2491 1159 1978 
L 1159 0 
L 581 0 
L 581 3500 
L 1159 3500 
L 1159 2956 
Q 1366 3272 1645 3428 
Q 1925 3584 2291 3584 
Q 2894 3584 3203 3211 
Q 3513 2838 3513 2113 
z
" transform="scale(0.015625)"/>
       <path id="DejaVuSans-63" d="M 3122 3366 
L 3122 2828 
Q 2878 2963 2633 3030 
Q 2388 3097 2138 3097 
Q 1578 3097 1268 2742 
Q 959 2388 959 1747 
Q 959 1106 1268 751 
Q 1578 397 2138 397 
Q 2388 397 2633 464 
Q 2878 531 3122 666 
L 3122 134 
Q 2881 22 2623 -34 
Q 2366 -91 2075 -91 
Q 1284 -91 818 406 
Q 353 903 353 1747 
Q 353 2603 823 3093 
Q 1294 3584 2113 3584 
Q 2378 3584 2631 3529 
Q 2884 3475 3122 3366 
z
" transform="scale(0.015625)"/>
       <path id="DejaVuSans-79" d="M 2059 -325 
Q 1816 -950 1584 -1140 
Q 1353 -1331 966 -1331 
L 506 -1331 
L 506 -850 
L 844 -850 
Q 1081 -850 1212 -737 
Q 1344 -625 1503 -206 
L 1606 56 
L 191 3500 
L 800 3500 
L 1894 763 
L 2988 3500 
L 3597 3500 
L 2059 -325 
z
" transform="scale(0.015625)"/>
       <path id="DejaVuSans-20" transform="scale(0.015625)"/>
       <path id="DejaVuSans-5b" d="M 550 4863 
L 1875 4863 
L 1875 4416 
L 1125 4416 
L 1125 -397 
L 1875 -397 
L 1875 -844 
L 550 -844 
L 550 4863 
z
" transform="scale(0.015625)"/>
       <path id="DejaVuSans-48" d="M 628 4666 
L 1259 4666 
L 1259 2753 
L 3553 2753 
L 3553 4666 
L 4184 4666 
L 4184 0 
L 3553 0 
L 3553 2222 
L 1259 2222 
L 1259 0 
L 628 0 
L 628 4666 
z
" transform="scale(0.015625)"/>
       <path id="DejaVuSans-7a" d="M 353 3500 
L 3084 3500 
L 3084 2975 
L 922 459 
L 3084 459 
L 3084 0 
L 275 0 
L 275 525 
L 2438 3041 
L 353 3041 
L 353 3500 
z
" transform="scale(0.015625)"/>
       <path id="DejaVuSans-5d" d="M 1947 4863 
L 1947 -844 
L 622 -844 
L 622 -397 
L 1369 -397 
L 1369 4416 
L 622 4416 
L 622 4863 
L 1947 4863 
z
" transform="scale(0.015625)"/>
      </defs>
      <use xlink:href="#DejaVuSans-46"/>
      <use xlink:href="#DejaVuSans-72" x="50.269531"/>
      <use xlink:href="#DejaVuSans-65" x="89.132812"/>
      <use xlink:href="#DejaVuSans-71" x="150.65625"/>
      <use xlink:href="#DejaVuSans-75" x="214.132812"/>
      <use xlink:href="#DejaVuSans-65" x="277.511719"/>
      <use xlink:href="#DejaVuSans-6e" x="339.035156"/>
      <use xlink:href="#DejaVuSans-63" x="402.414062"/>
      <use xlink:href="#DejaVuSans-79" x="457.394531"/>
      <use xlink:href="#DejaVuSans-20" x="516.574219"/>
      <use xlink:href="#DejaVuSans-5b" x="548.361328"/>
      <use xlink:href="#DejaVuSans-48" x="587.375"/>
      <use xlink:href="#DejaVuSans-7a" x="662.570312"/>
      <use xlink:href="#DejaVuSans-5d" x="715.060547"/>
     </g>
    </g>
   </g>
   <g id="matplotlib.axis_2">
    <g id="ytick_1">
     <g id="line2d_41">
      <defs>
       <path id="m4349e7eaa6" d="M 0 0 
L -3.5 0 
" style="stroke: #000000; stroke-width: 0.8"/>
      </defs>
      <g>
       <use xlink:href="#m4349e7eaa6" x="57.6" y="307.584" style="stroke: #000000; stroke-width: 0.8"/>
      </g>
     </g>
     <g id="text_7">
      <!-- −140 -->
      <g transform="translate(23.132812 311.383219)scale(0.1 -0.1)">
       <defs>
        <path id="DejaVuSans-2212" d="M 678 2272 
L 4684 2272 
L 4684 1741 
L 678 1741 
L 678 2272 
z
" transform="scale(0.015625)"/>
       </defs>
       <use xlink:href="#DejaVuSans-2212"/>
       <use xlink:href="#DejaVuSans-31" x="83.789062"/>
       <use xlink:href="#DejaVuSans-34" x="147.412109"/>
       <use xlink:href="#DejaVuSans-30" x="211.035156"/>
      </g>
     </g>
    </g>
    <g id="ytick_2">
     <g id="line2d_42">
      <g>
       <use xlink:href="#m4349e7eaa6" x="57.6" y="274.32" style="stroke: #000000; stroke-width: 0.8"/>
      </g>
     </g>
     <g id="text_8">
      <!-- −130 -->
      <g transform="translate(23.132812 278.119219)scale(0.1 -0.1)">
       <use xlink:href="#DejaVuSans-2212"/>
       <use xlink:href="#DejaVuSans-31" x="83.789062"/>
       <use xlink:href="#DejaVuSans-33" x="147.412109"/>
       <use xlink:href="#DejaVuSans-30" x="211.035156"/>
      </g>
     </g>
    </g>
    <g id="ytick_3">
     <g id="line2d_43">
      <g>
       <use xlink:href="#m4349e7eaa6" x="57.6" y="241.056" style="stroke: #000000; stroke-width: 0.8"/>
      </g>
     </g>
     <g id="text_9">
      <!-- −120 -->
      <g transform="translate(23.132812 244.855219)scale(0.1 -0.1)">
       <defs>
        <path id="DejaVuSans-32" d="M 1228 531 
L 3431 531 
L 3431 0 
L 469 0 
L 469 531 
Q 828 903 1448 1529 
Q 2069 2156 2228 2338 
Q 2531 2678 2651 2914 
Q 2772 3150 2772 3378 
Q 2772 3750 2511 3984 
Q 2250 4219 1831 4219 
Q 1534 4219 1204 4116 
Q 875 4013 500 3803 
L 500 4441 
Q 881 4594 1212 4672 
Q 1544 4750 1819 4750 
Q 2544 4750 2975 4387 
Q 3406 4025 3406 3419 
Q 3406 3131 3298 2873 
Q 3191 2616 2906 2266 
Q 2828 2175 2409 1742 
Q 1991 1309 1228 531 
z
" transform="scale(0.015625)"/>
       </defs>
       <use xlink:href="#DejaVuSans-2212"/>
       <use xlink:href="#DejaVuSans-31" x="83.789062"/>
       <use xlink:href="#DejaVuSans-32" x="147.412109"/>
       <use xlink:href="#DejaVuSans-30" x="211.035156"/>
      </g>
     </g>
    </g>
    <g id="ytick_4">
     <g id="line2d_44">
      <g>
       <use xlink:href="#m4349e7eaa6" x="57.6" y="207.792" style="stroke: #000000; stroke-width: 0.8"/>
      </g>
     </g>
     <g id="text_10">
      <!-- −110 -->
      <g transform="translate(23.132812 211.591219)scale(0.1 -0.1)">
       <use xlink:href="#DejaVuSans-2212"/>
       <use xlink:href="#DejaVuSans-31" x="83.789062"/>
       <use xlink:href="#DejaVuSans-31" x="147.412109"/>
       <use xlink:href="#DejaVuSans-30" x="211.035156"/>
      </g>
     </g>
    </g>
    <g id="ytick_5">
     <g id="line2d_45">
      <g>
       <use xlink:href="#m4349e7eaa6" x="57.6" y="174.528" style="stroke: #000000; stroke-width: 0.8"/>
      </g>
     </g>
     <g id="text_11">
      <!-- −100 -->
      <g transform="translate(23.132812 178.327219)scale(0.1 -0.1)">
       <use xlink:href="#DejaVuSans-2212"/>
       <use xlink:href="#DejaVuSans-31" x="83.789062"/>
       <use xlink:href="#DejaVuSans-30" x="147.412109"/>
       <use xlink:href="#DejaVuSans-30" x="211.035156"/>
      </g>
     </g>
    </g>
    <g id="ytick_6">
     <g id="line2d_46">
      <g>
       <use xlink:href="#m4349e7eaa6" x="57.6" y="141.264" style="stroke: #000000; stroke-width: 0.8"/>
      </g>
     </g>
     <g id="text_12">
      <!-- −90 -->
      <g transform="translate(29.495313 145.063219)scale(0.1 -0.1)">
       <defs>
        <path id="DejaVuSans-39" d="M 703 97 
L 703 672 
Q 941 559 1184 500 
Q 1428 441 1663 441 
Q 2288 441 2617 861 
Q 2947 1281 2994 2138 
Q 2813 1869 2534 1725 
Q 2256 1581 1919 1581 
Q 1219 1581 811 2004 
Q 403 2428 403 3163 
Q 403 3881 828 4315 
Q 1253 4750 1959 4750 
Q 2769 4750 3195 4129 
Q 3622 3509 3622 2328 
Q 3622 1225 3098 567 
Q 2575 -91 1691 -91 
Q 1453 -91 1209 -44 
Q 966 3 703 97 
z
M 1959 2075 
Q 2384 2075 2632 2365 
Q 2881 2656 2881 3163 
Q 2881 3666 2632 3958 
Q 2384 4250 1959 4250 
Q 1534 4250 1286 3958 
Q 1038 3666 1038 3163 
Q 1038 2656 1286 2365 
Q 1534 2075 1959 2075 
z
" transform="scale(0.015625)"/>
       </defs>
       <use xlink:href="#DejaVuSans-2212"/>
       <use xlink:href="#DejaVuSans-39" x="83.789062"/>
       <use xlink:href="#DejaVuSans-30" x="147.412109"/>
      </g>
     </g>
    </g>
    <g id="ytick_7">
     <g id="line2d_47">
      <g>
       <use xlink:href="#m4349e7eaa6" x="57.6" y="108" style="stroke: #000000; stroke-width: 0.8"/>
      </g>
     </g>
     <g id="text_13">
      <!-- −80 -->
      <g transform="translate(29.495313 111.799219)scale(0.1 -0.1)">
       <defs>
        <path id="DejaVuSans-38" d="M 2034 2216 
Q 1584 2216 1326 1975 
Q 1069 1734 1069 1313 
Q 1069 891 1326 650 
Q 1584 409 2034 409 
Q 2484 409 2743 651 
Q 3003 894 3003 1313 
Q 3003 1734 2745 1975 
Q 2488 2216 2034 2216 
z
M 1403 2484 
Q 997 2584 770 2862 
Q 544 3141 544 3541 
Q 544 4100 942 4425 
Q 1341 4750 2034 4750 
Q 2731 4750 3128 4425 
Q 3525 4100 3525 3541 
Q 3525 3141 3298 2862 
Q 3072 2584 2669 2484 
Q 3125 2378 3379 2068 
Q 3634 1759 3634 1313 
Q 3634 634 3220 271 
Q 2806 -91 2034 -91 
Q 1263 -91 848 271 
Q 434 634 434 1313 
Q 434 1759 690 2068 
Q 947 2378 1403 2484 
z
M 1172 3481 
Q 1172 3119 1398 2916 
Q 1625 2713 2034 2713 
Q 2441 2713 2670 2916 
Q 2900 3119 2900 3481 
Q 2900 3844 2670 4047 
Q 2441 4250 2034 4250 
Q 1625 4250 1398 4047 
Q 1172 3844 1172 3481 
z
" transform="scale(0.015625)"/>
       </defs>
       <use xlink:href="#DejaVuSans-2212"/>
       <use xlink:href="#DejaVuSans-38" x="83.789062"/>
       <use xlink:href="#DejaVuSans-30" x="147.412109"/>
      </g>
     </g>
    </g>
    <g id="ytick_8">
     <g id="line2d_48">
      <g>
       <use xlink:href="#m4349e7eaa6" x="57.6" y="74.736" style="stroke: #000000; stroke-width: 0.8"/>
      </g>
     </g>
     <g id="text_14">
      <!-- −70 -->
      <g transform="translate(29.495313 78.535219)scale(0.1 -0.1)">
       <use xlink:href="#DejaVuSans-2212"/>
       <use xlink:href="#DejaVuSans-37" x="83.789062"/>
       <use xlink:href="#DejaVuSans-30" x="147.412109"/>
      </g>
     </g>
    </g>
    <g id="ytick_9">
     <g id="line2d_49">
      <g>
       <use xlink:href="#m4349e7eaa6" x="57.6" y="41.472" style="stroke: #000000; stroke-width: 0.8"/>
      </g>
     </g>
     <g id="text_15">
      <!-- −60 -->
      <g transform="translate(29.495313 45.271219)scale(0.1 -0.1)">
       <use xlink:href="#DejaVuSans-2212"/>
       <use xlink:href="#DejaVuSans-36" x="83.789062"/>
       <use xlink:href="#DejaVuSans-30" x="147.412109"/>
      </g>
     </g>
    </g>
    <g id="text_16">
     <!-- Phase noise [dBc/Hz] -->
     <g transform="translate(17.053125 227.257688)rotate(-90)scale(0.1 -0.1)">
      <defs>
       <path id="DejaVuSans-50" d="M 1259 4147 
L 1259 2394 
L 2053 2394 
Q 2494 2394 2734 2622 
Q 2975 2850 2975 3272 
Q 2975 3691 2734 3919 
Q 2494 4147 2053 4147 
L 1259 4147 
z
M 628 4666 
L 2053 4666 
Q 2838 4666 3239 4311 
Q 3641 3956 3641 3272 
Q 3641 2581 3239 2228 
Q 2838 1875 2053 1875 
L 1259 1875 
L 1259 0 
L 628 0 
L 628 4666 
z
" transform="scale(0.015625)"/>
       <path id="DejaVuSans-68" d="M 3513 2113 
L 3513 0 
L 2938 0 
L 2938 2094 
Q 2938 2591 2744 2837 
Q 2550 3084 2163 3084 
Q 1697 3084 1428 2787 
Q 1159 2491 1159 1978 
L 1159 0 
L 581 0 
L 581 4863 
L 1159 4863 
L 1159 2956 
Q 1366 3272 1645 3428 
Q 1925 3584 2291 3584 
Q 2894 3584 3203 3211 
Q 3513 2838 3513 2113 
z
" transform="scale(0.015625)"/>
       <path id="DejaVuSans-61" d="M 2194 1759 
Q 1497 1759 1228 1600 
Q 959 1441 959 1056 
Q 959 750 1161 570 
Q 1363 391 1709 391 
Q 2188 391 2477 730 
Q 2766 1069 2766 1631 
L 2766 1759 
L 2194 1759 
z
M 3341 1997 
L 3341 0 
L 2766 0 
L 2766 531 
Q 2569 213 2275 61 
Q 1981 -91 1556 -91 
Q 1019 -91 701 211 
Q 384 513 384 1019 
Q 384 1609 779 1909 
Q 1175 2209 1959 2209 
L 2766 2209 
L 2766 2266 
Q 2766 2663 2505 2880 
Q 2244 3097 1772 3097 
Q 1472 3097 1187 3025 
Q 903 2953 641 2809 
L 641 3341 
Q 956 3463 1253 3523 
Q 1550 3584 1831 3584 
Q 2591 3584 2966 3190 
Q 3341 2797 3341 1997 
z
" transform="scale(0.015625)"/>
       <path id="DejaVuSans-73" d="M 2834 3397 
L 2834 2853 
Q 2591 2978 2328 3040 
Q 2066 3103 1784 3103 
Q 1356 3103 1142 2972 
Q 928 2841 928 2578 
Q 928 2378 1081 2264 
Q 1234 2150 1697 2047 
L 1894 2003 
Q 2506 1872 2764 1633 
Q 3022 1394 3022 966 
Q 3022 478 2636 193 
Q 2250 -91 1575 -91 
Q 1294 -91 989 -36 
Q 684 19 347 128 
L 347 722 
Q 666 556 975 473 
Q 1284 391 1588 391 
Q 1994 391 2212 530 
Q 2431 669 2431 922 
Q 2431 1156 2273 1281 
Q 2116 1406 1581 1522 
L 1381 1569 
Q 847 1681 609 1914 
Q 372 2147 372 2553 
Q 372 3047 722 3315 
Q 1072 3584 1716 3584 
Q 2034 3584 2315 3537 
Q 2597 3491 2834 3397 
z
" transform="scale(0.015625)"/>
       <path id="DejaVuSans-6f" d="M 1959 3097 
Q 1497 3097 1228 2736 
Q 959 2375 959 1747 
Q 959 1119 1226 758 
Q 1494 397 1959 397 
Q 2419 397 2687 759 
Q 2956 1122 2956 1747 
Q 2956 2369 2687 2733 
Q 2419 3097 1959 3097 
z
M 1959 3584 
Q 2709 3584 3137 3096 
Q 3566 2609 3566 1747 
Q 3566 888 3137 398 
Q 2709 -91 1959 -91 
Q 1206 -91 779 398 
Q 353 888 353 1747 
Q 353 2609 779 3096 
Q 1206 3584 1959 3584 
z
" transform="scale(0.015625)"/>
       <path id="DejaVuSans-69" d="M 603 3500 
L 1178 3500 
L 1178 0 
L 603 0 
L 603 3500 
z
M 603 4863 
L 1178 4863 
L 1178 4134 
L 603 4134 
L 603 4863 
z
" transform="scale(0.015625)"/>
       <path id="DejaVuSans-64" d="M 2906 2969 
L 2906 4863 
L 3481 4863 
L 3481 0 
L 2906 0 
L 2906 525 
Q 2725 213 2448 61 
Q 2172 -91 1784 -91 
Q 1150 -91 751 415 
Q 353 922 353 1747 
Q 353 2572 751 3078 
Q 1150 3584 1784 3584 
Q 2172 3584 2448 3432 
Q 2725 3281 2906 2969 
z
M 947 1747 
Q 947 1113 1208 752 
Q 1469 391 1925 391 
Q 2381 391 2643 752 
Q 2906 1113 2906 1747 
Q 2906 2381 2643 2742 
Q 2381 3103 1925 3103 
Q 1469 3103 1208 2742 
Q 947 2381 947 1747 
z
" transform="scale(0.015625)"/>
       <path id="DejaVuSans-42" d="M 1259 2228 
L 1259 519 
L 2272 519 
Q 2781 519 3026 730 
Q 3272 941 3272 1375 
Q 3272 1813 3026 2020 
Q 2781 2228 2272 2228 
L 1259 2228 
z
M 1259 4147 
L 1259 2741 
L 2194 2741 
Q 2656 2741 2882 2914 
Q 3109 3088 3109 3444 
Q 3109 3797 2882 3972 
Q 2656 4147 2194 4147 
L 1259 4147 
z
M 628 4666 
L 2241 4666 
Q 2963 4666 3353 4366 
Q 3744 4066 3744 3513 
Q 3744 3084 3544 2831 
Q 3344 2578 2956 2516 
Q 3422 2416 3680 2098 
Q 3938 1781 3938 1306 
Q 3938 681 3513 340 
Q 3088 0 2303 0 
L 628 0 
L 628 4666 
z
" transform="scale(0.015625)"/>
       <path id="DejaVuSans-2f" d="M 1625 4666 
L 2156 4666 
L 531 -594 
L 0 -594 
L 1625 4666 
z
" transform="scale(0.015625)"/>
      </defs>
      <use xlink:href="#DejaVuSans-50"/>
      <use xlink:href="#DejaVuSans-68" x="60.302734"/>
      <use xlink:href="#DejaVuSans-61" x="123.681641"/>
      <use xlink:href="#DejaVuSans-73" x="184.960938"/>
      <use xlink:href="#DejaVuSans-65" x="237.060547"/>
      <use xlink:href="#DejaVuSans-20" x="298.583984"/>
      <use xlink:href="#DejaVuSans-6e" x="330.371094"/>
      <use xlink:href="#DejaVuSans-6f" x="393.75"/>
      <use xlink:href="#DejaVuSans-69" x="454.931641"/>
      <use xlink:href="#DejaVuSans-73" x="482.714844"/>
      <use xlink:href="#DejaVuSans-65" x="534.814453"/>
      <use xlink:href="#DejaVuSans-20" x="596.337891"/>
      <use xlink:href="#DejaVuSans-5b" x="628.125"/>
      <use xlink:href="#DejaVuSans-64" x="667.138672"/>
      <use xlink:href="#DejaVuSans-42" x="730.615234"/>
      <use xlink:href="#DejaVuSans-63" x="799.21875"/>
      <use xlink:href="#DejaVuSans-2f" x="854.199219"/>
      <use xlink:href="#DejaVuSans-48" x="887.890625"/>
      <use xlink:href="#DejaVuSans-7a" x="963.085938"/>
      <use xlink:href="#DejaVuSans-5d" x="1015.576172"/>
     </g>
    </g>
   </g>
   <g id="line2d_50">
    <path d="M 398.487273 279.95226 
L 398.133009 280.16515 
L 397.413619 278.953232 
L 397.048342 279.382337 
L 396.67924 278.844569 
L 396.306232 281.229598 
L 395.929234 281.851635 
L 395.548161 283.58358 
L 394.773428 281.072148 
L 394.379582 280.450112 
L 393.981285 280.629737 
L 393.578435 281.480187 
L 393.170929 280.141865 
L 392.341504 279.747132 
L 391.919356 279.007563 
L 391.492092 278.812414 
L 391.059584 279.587465 
L 390.621704 281.738537 
L 389.729278 278.070627 
L 389.274447 278.228076 
L 388.81367 280.327035 
L 388.346791 280.25718 
L 387.394059 276.564876 
L 386.907859 275.765432 
L 386.414859 275.897379 
L 385.407679 277.64263 
L 384.893087 277.722464 
L 384.370871 277.35656 
L 383.840802 277.358777 
L 383.30264 276.626969 
L 382.201022 274.555731 
L 381.637027 273.960305 
L 381.063862 274.35282 
L 380.481221 276.1269 
L 379.888789 278.361132 
L 379.286228 278.476448 
L 378.673188 276.267718 
L 378.049297 276.696824 
L 377.414164 277.751292 
L 376.767377 279.770417 
L 376.1085 277.352124 
L 375.437071 276.243324 
L 374.752605 273.554484 
L 374.054584 272.898075 
L 373.34246 271.645131 
L 372.615652 272.839308 
L 371.873543 273.638753 
L 371.115472 273.908192 
L 370.340739 273.268414 
L 369.548595 273.737436 
L 367.908815 273.230715 
L 367.059402 272.266059 
L 366.189015 271.902372 
L 365.296589 272.249427 
L 364.380981 270.996483 
L 362.47517 269.109305 
L 361.482177 268.120256 
L 360.460398 267.407297 
L 359.408113 266.458164 
L 358.323446 266.747561 
L 357.204338 266.59122 
L 354.853539 263.6906 
L 353.616608 262.528577 
L 352.334688 261.745764 
L 351.004382 260.417422 
L 349.621895 259.537035 
L 348.182963 259.397326 
L 346.682783 257.295041 
L 345.115906 254.859008 
L 343.476126 254.259147 
L 341.756325 254.890054 
L 339.948292 254.937732 
L 338.042481 250.496988 
L 336.027709 247.688398 
L 333.890756 244.945227 
L 331.615843 244.467334 
L 329.183919 242.032409 
L 326.571693 240.05431 
L 323.455302 238.158262 
L 323.157841 238.060688 
L 322.857849 238.248075 
L 322.250094 238.246966 
L 322.034879 236.364224 
L 322.004027 236.370876 
L 321.911307 236.562699 
L 321.725133 236.919732 
L 321.694008 236.925276 
L 321.444015 235.534841 
L 321.223807 236.080371 
L 321.192236 236.073718 
L 321.002214 234.756464 
L 320.811163 234.776422 
L 320.747248 234.9627 
L 320.683217 234.911696 
L 320.586952 234.550227 
L 320.52263 234.567968 
L 320.490424 234.576838 
L 320.16674 235.67455 
L 320.03643 234.615646 
L 319.807221 232.777256 
L 319.708531 232.93027 
L 319.177463 230.63838 
L 319.076991 230.834638 
L 319.043437 230.751478 
L 318.875184 230.248083 
L 318.807657 229.607196 
L 318.740001 229.64046 
L 318.502176 230.822441 
L 318.46807 230.840182 
L 318.365552 231.416758 
L 318.331313 231.236024 
L 318.159618 230.857923 
L 318.021658 230.742608 
L 317.883155 230.462081 
L 317.604506 227.621336 
L 317.569519 227.641294 
L 317.534498 227.661252 
L 317.394064 228.332076 
L 317.28837 234.528051 
L 316.93375 232.480097 
L 316.575526 232.345932 
L 316.213624 232.843784 
L 315.847968 232.493403 
L 315.105076 228.879824 
L 314.727675 229.486337 
L 314.34619 227.917385 
L 313.96053 226.973796 
L 313.570605 228.989595 
L 313.176317 229.42868 
L 312.77757 230.126115 
L 312.37426 228.630344 
L 311.966282 229.29895 
L 311.553526 229.162568 
L 310.713226 226.953838 
L 310.285442 224.048782 
L 309.413979 223.798193 
L 308.970032 226.24088 
L 308.520422 224.467908 
L 308.065003 225.36271 
L 307.603623 223.990016 
L 307.136124 223.880244 
L 306.662341 222.074009 
L 306.182103 220.824392 
L 305.695232 221.078307 
L 305.201542 220.007206 
L 304.700838 220.111433 
L 304.19292 218.618988 
L 303.154585 214.446574 
L 302.623718 215.077481 
L 302.084733 216.730702 
L 301.537379 216.432435 
L 300.981391 215.677342 
L 300.416492 214.383372 
L 299.842393 215.393489 
L 299.258788 213.733616 
L 298.665358 212.52835 
L 296.82266 204.1935 
L 296.186381 201.667654 
L 295.538405 203.468345 
L 294.878293 204.423022 
L 294.205583 206.686083 
L 293.519785 205.648246 
L 292.820379 205.950948 
L 292.106814 204.672502 
L 291.378504 205.388787 
L 290.634829 204.663632 
L 289.875124 203.315331 
L 289.098685 199.074171 
L 287.492534 197.018456 
L 286.661153 197.249086 
L 285.809688 198.66835 
L 284.937146 199.080824 
L 284.042455 199.104108 
L 283.124462 197.293438 
L 282.181922 196.232316 
L 281.213484 196.53391 
L 280.217686 195.54486 
L 278.1375 191.650755 
L 277.049484 188.964132 
L 275.926812 187.675707 
L 274.767203 186.85076 
L 273.568145 187.023732 
L 272.326858 185.359424 
L 271.040258 182.56303 
L 269.704912 181.746953 
L 268.31698 183.160673 
L 266.87215 181.52852 
L 265.365556 179.57814 
L 263.791682 176.314942 
L 262.144237 176.271699 
L 260.416002 176.415843 
L 260.05995 178.356243 
L 259.880566 177.4814 
L 259.33687 171.252161 
L 259.153758 171.695681 
L 258.784656 173.677107 
L 258.598645 172.84218 
L 258.223653 170.265329 
L 258.034651 170.173299 
L 257.844629 171.17898 
L 257.653577 171.449528 
L 257.461485 170.943915 
L 257.07413 168.914811 
L 256.878845 168.512316 
L 256.484998 169.08224 
L 256.286412 168.24066 
L 255.683852 163.391878 
L 255.480687 163.56596 
L 255.070812 167.89028 
L 254.864072 170.176625 
L 254.656114 171.103582 
L 254.446921 171.29984 
L 254.236479 170.729916 
L 253.381918 164.793401 
L 253.165 164.704697 
L 252.94674 164.223478 
L 252.72712 163.4451 
L 252.506123 163.165683 
L 252.283732 163.279889 
L 252.059928 163.625835 
L 251.834695 163.656881 
L 251.608013 164.516201 
L 251.379864 164.719112 
L 251.150228 165.259097 
L 250.919087 164.040526 
L 250.68642 163.486126 
L 250.4287 162.084603 
L 250.287327 160.614334 
L 250.26371 160.772892 
L 250.169082 161.37608 
L 250.097943 161.224174 
L 250.050438 161.173169 
L 250.002869 161.235262 
L 249.955235 161.488068 
L 249.931394 161.10775 
L 249.57183 155.003806 
L 249.547729 155.038179 
L 249.354318 155.315379 
L 249.3058 155.237763 
L 249.111054 155.002697 
L 249.037746 155.2677 
L 248.988789 155.112468 
L 248.939764 155.10138 
L 248.841509 156.068254 
L 248.816902 156.359868 
L 248.718304 156.29334 
L 248.693611 156.296667 
L 248.569887 157.201448 
L 248.495444 157.146008 
L 248.420843 157.306784 
L 248.346084 158.023068 
L 248.221132 159.399089 
L 248.196088 159.369152 
L 247.716847 156.865481 
L 247.666019 156.905398 
L 247.231 161.27407 
L 247.205243 161.178713 
L 247.076173 160.09098 
L 247.024412 160.175249 
L 246.790545 162.16998 
L 246.581352 164.326596 
L 246.528859 164.189105 
L 246.318102 161.505809 
L 246.265216 161.543508 
L 246.185737 162.301928 
L 246.106078 162.175524 
L 245.946219 161.991464 
L 245.919505 162.039142 
L 245.785631 162.321886 
L 245.731939 162.277534 
L 245.489307 161.156537 
L 245.353786 160.750716 
L 245.326619 160.870467 
L 245.272223 161.109968 
L 245.217742 160.943648 
L 244.668254 157.141572 
L 244.612832 157.327851 
L 244.334403 159.044273 
L 243.855967 157.430969 
L 243.82762 157.672688 
L 243.714006 158.711633 
L 243.685545 158.3546 
L 243.57147 157.597289 
L 243.542894 157.602833 
L 243.457026 157.523 
L 243.370948 157.404358 
L 243.082493 154.254257 
L 242.791659 154.746564 
L 242.703939 154.570265 
L 242.67465 154.616835 
L 242.498405 154.966107 
L 242.409951 154.942822 
L 242.291666 154.84303 
L 241.874514 156.989667 
L 241.814516 156.695835 
L 241.784479 156.536168 
L 241.694212 156.630416 
L 241.633906 156.645939 
L 241.422019 155.308726 
L 241.330818 155.581491 
L 241.178291 156.462987 
L 241.147707 156.250097 
L 241.055793 156.03499 
L 241.025102 156.119259 
L 240.902069 156.287796 
L 240.685722 154.508172 
L 240.623664 154.776502 
L 240.592594 154.912884 
L 240.561497 154.735476 
L 240.436832 154.377334 
L 240.154714 156.900963 
L 240.06017 156.845523 
L 239.933717 155.159038 
L 239.806808 154.535892 
L 239.743181 154.680036 
L 239.711325 154.60242 
L 239.519581 154.340744 
L 239.423316 154.996044 
L 239.358993 154.96278 
L 239.197671 154.330764 
L 239.100522 154.702212 
L 239.035606 154.680036 
L 238.905416 154.49154 
L 238.872794 154.560286 
L 238.742 154.992718 
L 238.544894 156.31219 
L 238.412876 156.378718 
L 238.213916 155.05592 
L 238.08065 154.946148 
L 237.913355 155.741158 
L 237.846214 155.694588 
L 237.474636 153.628894 
L 237.33854 153.682116 
L 236.995982 156.512883 
L 236.892562 156.048296 
L 236.510738 152.790641 
L 236.230427 153.958208 
L 236.124733 148.027791 
L 235.769757 147.166253 
L 235.41117 150.118988 
L 235.048897 147.119684 
L 234.682862 146.769303 
L 234.312986 143.425162 
L 233.939188 143.671316 
L 233.561383 145.068404 
L 233.179485 145.699311 
L 232.793404 147.653016 
L 232.403047 145.286837 
L 232.008319 145.051772 
L 231.609121 143.400768 
L 231.20535 145.113864 
L 230.7969 146.096261 
L 230.383661 146.191618 
L 229.965521 143.313173 
L 229.54236 141.192039 
L 229.114058 140.04554 
L 228.241518 141.683237 
L 227.797012 138.590794 
L 227.346829 138.477696 
L 226.890823 136.555037 
L 226.428839 139.842629 
L 225.960721 138.464391 
L 225.486301 140.092109 
L 224.517866 140.558914 
L 224.023485 139.135215 
L 223.522071 135.466196 
L 223.013421 135.787748 
L 222.497323 136.720248 
L 221.973557 138.219346 
L 221.441891 142.181088 
L 220.902082 141.592316 
L 220.353878 143.71345 
L 219.797013 139.38913 
L 219.23121 140.992455 
L 218.656176 138.784834 
L 218.071605 140.227383 
L 217.477176 139.193981 
L 216.872551 140.509018 
L 216.257373 139.87922 
L 215.631268 138.883517 
L 214.99384 137.584004 
L 214.344673 137.392181 
L 213.683325 136.726901 
L 213.009332 138.679498 
L 212.322199 138.014218 
L 211.621405 137.895576 
L 211.4065 133.158783 
L 211.334573 133.003551 
L 211.262499 132.540072 
L 211.190277 133.440418 
L 210.972719 141.004652 
L 210.75381 134.863008 
L 210.680537 135.065919 
L 210.533533 138.016436 
L 210.459801 137.468688 
L 210.311871 134.274236 
L 210.088806 136.45968 
L 209.939308 138.721632 
L 209.864321 138.447759 
L 209.713866 135.364186 
L 209.562765 135.958503 
L 209.411015 140.025581 
L 209.334894 140.684208 
L 209.258608 137.782479 
L 209.182157 137.95656 
L 209.105539 137.630573 
L 208.951803 140.00784 
L 208.874683 139.865914 
L 208.797393 137.900012 
L 208.719934 138.595229 
L 208.642304 138.342423 
L 208.48653 137.044018 
L 208.330064 140.431402 
L 208.172901 136.633762 
L 208.094055 137.170421 
L 207.935834 139.543253 
L 207.856456 139.358084 
L 207.776898 139.393565 
L 207.617243 140.642074 
L 207.537144 140.068824 
L 207.295747 141.88393 
L 207.214913 141.858428 
L 207.052686 140.17416 
L 206.88971 137.622812 
L 206.807938 139.379151 
L 206.643823 136.633762 
L 206.561478 133.304036 
L 206.313282 144.109292 
L 206.230161 141.59786 
L 206.063327 135.71124 
L 205.8957 135.904172 
L 205.811587 138.014218 
L 205.727272 137.229188 
L 205.642755 140.292802 
L 205.473111 138.535354 
L 205.387982 134.377354 
L 205.302647 135.234456 
L 205.045395 143.244428 
L 204.699445 137.793567 
L 204.525188 137.387746 
L 204.350066 135.806597 
L 204.174069 137.070629 
L 204.08574 136.634871 
L 203.908416 134.642357 
L 203.461161 140.690861 
L 203.280659 139.337016 
L 203.190059 136.730228 
L 202.916856 140.311652 
L 202.641519 133.509164 
L 202.364013 139.684071 
L 202.271024 137.465362 
L 202.177789 137.520802 
L 202.084306 137.140484 
L 201.990575 137.185944 
L 201.802362 135.164602 
L 201.707877 134.783175 
L 201.518144 139.048728 
L 201.422893 138.6041 
L 201.231616 134.75989 
L 201.135586 136.054968 
L 200.942739 141.229738 
L 200.845919 142.395087 
L 200.553851 139.433482 
L 200.259343 134.073543 
L 200.160624 134.405074 
L 200.061628 134.349634 
L 199.962353 133.842912 
L 199.862798 132.14534 
L 199.66284 134.289759 
L 199.562434 136.708052 
L 199.056069 133.052338 
L 198.851469 135.082551 
L 198.748721 137.659402 
L 198.645674 136.073818 
L 198.542324 136.091559 
L 198.43867 135.245544 
L 198.334711 135.447346 
L 198.125867 134.193293 
L 197.915779 138.262589 
L 197.810264 137.806872 
L 197.598281 134.00258 
L 197.491809 134.437229 
L 197.385015 137.481994 
L 196.846136 132.259546 
L 196.737365 132.12649 
L 196.409022 136.356562 
L 196.298891 135.650256 
L 196.077592 132.484632 
L 195.966419 131.949082 
L 195.630781 135.986223 
L 195.405234 134.859682 
L 195.291916 133.064535 
L 195.064183 136.33993 
L 194.719801 132.483524 
L 194.488329 136.377629 
L 194.37202 136.427525 
L 194.255327 136.878807 
L 193.90291 134.293085 
L 193.784651 134.334111 
L 193.665993 135.116924 
L 193.536306 138.028632 
L 193.44524 132.245132 
L 193.366996 133.858436 
L 193.288578 139.604237 
L 193.196869 138.340205 
L 193.118071 130.551994 
L 193.025917 134.358504 
L 192.999543 136.005072 
L 192.946736 133.882829 
L 192.893849 131.880336 
L 192.840883 132.904868 
L 192.774563 134.462732 
L 192.748001 133.054556 
L 192.734712 132.506808 
L 192.681506 134.8619 
L 192.641548 140.935906 
L 192.574852 135.43404 
L 192.49465 132.749636 
L 192.44108 133.588997 
L 192.266414 137.616159 
L 192.239465 135.787748 
L 192.172003 134.773196 
L 192.131464 135.842079 
L 192.104412 136.732445 
L 192.03669 135.712349 
L 192.009565 135.208954 
L 191.955253 131.922471 
L 191.873626 134.368484 
L 191.80546 137.383311 
L 191.764497 135.389688 
L 191.723486 134.32524 
L 191.709805 136.138128 
L 191.682427 139.66633 
L 191.613889 136.30334 
L 191.545218 134.825309 
L 191.517712 136.584975 
L 191.503951 137.860095 
L 191.421272 136.087124 
L 191.213721 130.921224 
L 191.199841 130.748252 
L 191.172064 130.92566 
L 191.130357 134.762108 
L 191.060737 132.393711 
L 191.046796 132.166407 
L 191.018898 133.469247 
L 191.004941 133.49364 
L 190.97701 132.544508 
L 190.921082 134.558088 
L 190.879077 140.370418 
L 190.794917 137.763629 
L 190.597759 125.402727 
L 190.583634 125.77861 
L 190.512924 131.84929 
L 190.4846 127.12802 
L 190.47043 125.498084 
L 190.399492 128.154768 
L 190.385288 128.752412 
L 190.342639 127.274381 
L 190.299939 128.196903 
L 190.171528 124.112084 
L 190.114305 125.182076 
L 190.071328 128.078261 
L 189.913293 137.00521 
L 189.725606 132.207432 
L 189.638643 133.172088 
L 189.624128 133.400501 
L 189.595081 132.956981 
L 189.449484 128.971954 
L 189.420293 130.206048 
L 189.405688 129.65054 
L 189.37646 131.809373 
L 189.361837 133.166544 
L 189.303284 129.536333 
L 189.200581 126.503765 
L 189.185885 127.059274 
L 189.009051 131.583178 
L 188.994274 131.278258 
L 188.935107 128.845551 
L 188.861008 130.578605 
L 188.816474 130.902375 
L 188.801616 130.35241 
L 188.742124 128.817831 
L 188.712341 130.428917 
L 188.637772 132.857189 
L 188.592954 131.467863 
L 188.54808 131.782762 
L 188.503148 135.458434 
L 188.428134 134.525933 
L 188.277626 130.670636 
L 188.035469 135.355316 
L 188.020278 133.699877 
L 187.989878 131.775 
L 187.913763 134.112351 
L 187.89852 135.446237 
L 187.837483 132.614362 
L 187.669084 123.491156 
L 187.653735 123.113055 
L 187.623017 124.181938 
L 187.546105 129.477567 
L 187.453588 128.16253 
L 187.391775 129.430997 
L 187.345344 134.402856 
L 187.267822 131.769456 
L 187.236766 132.761832 
L 187.221228 133.494749 
L 187.174571 131.619768 
L 187.143433 132.393711 
L 187.112266 130.122888 
L 187.065466 132.553378 
L 187.018602 131.151855 
L 186.971677 131.59981 
L 186.924689 135.88754 
L 186.86194 133.895026 
L 186.704579 128.087132 
L 186.79908 134.144506 
L 186.688804 128.87438 
L 186.56235 136.33993 
L 186.530666 133.809648 
L 186.483086 129.22476 
L 186.403643 129.728156 
L 186.387732 130.427808 
L 186.339959 128.093784 
L 186.29212 128.586092 
L 186.244217 127.98734 
L 186.212245 126.49933 
L 186.164233 128.546175 
L 186.132189 127.650264 
L 186.019803 132.225173 
L 186.003719 130.665092 
L 185.907058 128.479647 
L 185.890922 129.081725 
L 185.810131 135.765572 
L 185.777763 131.650815 
L 185.696712 128.812287 
L 185.66424 130.967794 
L 185.647992 130.90681 
L 185.631738 129.768072 
L 185.582928 133.006877 
L 185.55035 131.602028 
L 185.517742 133.26301 
L 185.468774 131.344786 
L 185.436091 132.260655 
L 185.337859 128.318871 
L 185.305054 130.732728 
L 185.157053 133.331756 
L 184.908994 127.823237 
L 184.825919 128.056085 
L 184.792634 130.319146 
L 184.742647 126.355186 
L 184.709283 126.317487 
L 184.625735 131.770565 
L 184.575511 127.969599 
L 184.441229 124.881591 
L 184.390741 124.932596 
L 184.289548 123.480068 
L 184.255753 124.571127 
L 184.10327 132.593295 
L 184.018271 130.529818 
L 183.984214 129.342293 
L 183.933067 130.275903 
L 183.796311 137.672708 
L 183.74489 136.912071 
L 183.572944 133.769732 
L 183.503929 130.705008 
L 183.45208 129.056223 
L 183.400154 129.861212 
L 183.278696 135.595925 
L 183.261311 134.619072 
L 183.121918 130.589693 
L 183.104455 130.279229 
L 183.086983 130.349084 
L 183.052014 133.8917 
L 182.999495 129.620602 
L 182.981971 129.738135 
L 182.964439 129.855668 
L 182.894222 130.071884 
L 182.788634 126.483807 
L 182.700401 123.994551 
L 182.647355 125.512498 
L 182.558768 129.089487 
L 182.52327 126.041396 
L 182.452168 123.462327 
L 182.398747 124.354911 
L 182.380922 124.321647 
L 182.327393 127.357541 
L 182.237997 127.011596 
L 182.202175 126.90626 
L 182.18425 126.98942 
L 182.09449 128.752412 
L 182.040523 122.375703 
L 181.96844 124.513469 
L 181.841937 132.24624 
L 181.823828 131.392464 
L 181.80571 130.607434 
L 181.733144 131.893642 
L 181.696805 134.135636 
L 181.642226 131.777218 
L 181.624014 131.478951 
L 181.587563 132.464674 
L 181.532814 135.712349 
L 181.496268 133.828498 
L 181.404736 128.489626 
L 181.368056 129.625037 
L 181.349702 129.931066 
L 181.312966 128.801199 
L 181.110226 124.322756 
L 181.091737 124.323864 
L 181.036213 128.489626 
L 180.943477 128.012842 
L 180.9249 127.728989 
L 180.906314 128.278954 
L 180.887718 129.112772 
L 180.831871 127.31208 
L 180.775935 124.612152 
L 180.71991 126.295311 
L 180.701215 126.44389 
L 180.68251 125.751999 
L 180.663796 125.060108 
L 180.626337 127.22005 
L 180.51372 129.171538 
L 180.494916 128.1714 
L 180.419598 124.530101 
L 180.325223 124.951445 
L 180.287402 127.761144 
L 180.192673 126.857472 
L 180.173696 126.652344 
L 180.154709 127.177916 
L 180.040573 129.652757 
L 180.021515 128.399813 
L 179.983367 125.634466 
L 179.906946 126.174452 
L 179.792004 128.958648 
L 179.77281 128.373202 
L 179.695932 123.636408 
L 179.638162 123.760594 
L 179.618885 123.495591 
L 179.580298 123.90252 
L 179.522339 128.376528 
L 179.464284 126.349199 
L 179.444911 125.751112 
L 177.62102 126.003475 
L 177.435009 125.206248 
L 177.248012 125.159678 
L 177.060017 124.142908 
L 176.871014 126.3217 
L 176.680993 124.373539 
L 176.489941 125.990169 
L 176.297848 123.684974 
L 176.104703 125.441313 
L 175.910494 123.301329 
L 175.715208 123.877905 
L 175.321362 121.582689 
L 175.122776 121.816646 
L 174.722215 123.983241 
L 174.520215 123.375619 
L 174.112709 120.188928 
L 173.907175 118.777425 
L 173.700436 120.363009 
L 173.492477 121.008331 
L 173.283284 120.268761 
L 173.072842 118.053379 
L 172.861136 117.897038 
L 172.648151 119.436052 
L 172.433872 119.811936 
L 172.218281 120.896342 
L 172.001364 120.218865 
L 171.563484 117.96911 
L 171.342487 118.127668 
L 171.120095 119.951644 
L 170.896292 118.941528 
L 170.671058 120.286502 
L 170.444376 118.887196 
L 170.216227 118.919352 
L 169.986592 118.344993 
L 169.75545 119.515886 
L 169.522784 119.519212 
L 169.052791 115.081795 
L 168.815424 113.394201 
L 168.576447 115.262529 
L 168.335839 115.961073 
L 168.093577 117.579921 
L 167.849639 117.837163 
L 167.604001 116.766062 
L 167.356639 116.681793 
L 166.856646 113.735712 
L 166.603965 114.546244 
L 166.349459 114.852273 
L 166.093102 116.838134 
L 165.834867 113.649225 
L 165.574726 113.294409 
L 165.312651 111.327398 
L 165.048613 110.704252 
L 164.782582 111.234259 
L 164.514528 111.293025 
L 164.24442 112.919635 
L 163.972227 110.602243 
L 163.421451 108.824836 
L 163.142802 110.217489 
L 162.578807 111.536961 
L 162.293389 110.149852 
L 162.005642 112.680134 
L 161.423001 114.897734 
L 161.12803 111.779788 
L 160.530576 107.595177 
L 160.228008 108.288177 
L 159.922821 107.224838 
L 159.304403 108.374664 
L 158.991077 107.353459 
L 158.674941 107.503147 
L 158.355944 107.418878 
L 158.034034 108.27598 
L 157.709157 110.167593 
L 157.381258 109.168564 
L 157.05028 109.455744 
L 156.378851 106.627195 
L 156.038279 105.990744 
L 155.694385 104.313129 
L 155.347102 106.015137 
L 154.996364 106.605019 
L 154.6421 107.466556 
L 154.28424 107.331283 
L 153.922709 107.643964 
L 153.557432 106.414305 
L 152.815323 101.879313 
L 152.438325 102.451454 
L 151.672014 106.150411 
L 151.282519 106.503009 
L 150.888673 105.382012 
L 150.490375 105.331008 
L 150.087526 104.804328 
L 149.68002 103.507032 
L 149.267747 101.436902 
L 148.850595 100.774948 
L 148.428447 102.737524 
L 148.001182 106.413196 
L 147.568675 107.142787 
L 147.130795 105.355401 
L 146.687406 104.461708 
L 146.238369 103.910635 
L 145.783538 105.461846 
L 145.322761 105.030523 
L 144.855881 104.910772 
L 144.382734 102.166492 
L 143.90315 100.040923 
L 143.41695 100.927963 
L 142.92395 102.072244 
L 142.423957 103.834128 
L 141.91677 101.063236 
L 141.402178 99.910084 
L 140.879962 98.008492 
L 140.349893 99.629558 
L 139.811731 100.905787 
L 139.265226 100.026508 
L 138.710113 99.434409 
L 137.572952 99.037459 
L 136.990312 99.519787 
L 136.39788 98.20475 
L 135.795319 100.04314 
L 135.182279 99.24924 
L 134.558388 99.129489 
L 133.923255 97.417502 
L 133.276468 97.359844 
L 132.617591 97.839955 
L 131.946162 99.23039 
L 131.261696 98.963169 
L 130.563675 99.861297 
L 129.851551 97.862131 
L 129.124743 100.096363 
L 128.382633 98.198097 
L 127.624563 97.109256 
L 126.84983 93.747374 
L 126.057686 94.987012 
L 125.247331 94.978142 
L 124.417906 94.771905 
L 123.568493 93.042177 
L 122.698105 92.199489 
L 121.80568 90.8401 
L 119.950045 91.526448 
L 118.984261 93.856036 
L 117.991268 94.705377 
L 116.969489 96.147926 
L 115.917204 94.865044 
L 114.832536 93.033307 
L 112.557623 92.394638 
L 110.125699 94.150977 
L 107.513473 95.750976 
L 106.130985 95.271974 
L 104.692054 95.173291 
L 103.191874 91.726032 
L 101.624997 90.8401 
L 99.985217 90.944328 
L 98.265416 94.179806 
L 97.911153 95.232057 
L 97.553293 93.731851 
L 97.191762 91.242595 
L 97.009597 90.931022 
L 96.826485 90.270177 
L 96.642417 90.40656 
L 96.457383 91.143912 
L 96.271373 92.851464 
L 96.084375 93.439128 
L 95.896381 93.260611 
L 95.517356 91.615152 
L 95.326305 91.882372 
L 95.134212 91.081819 
L 94.941067 90.866712 
L 94.746857 90.114945 
L 94.551572 89.899838 
L 93.959139 92.434555 
L 93.759428 91.65396 
L 93.356579 88.990622 
L 93.153415 89.742388 
L 92.5368 95.370657 
L 92.119648 97.039401 
L 91.909206 96.718958 
L 91.484515 92.855899 
L 91.270235 90.143774 
L 90.619467 88.463942 
L 90.399847 87.204345 
L 90.17885 86.990347 
L 89.956459 87.718828 
L 89.052591 94.993665 
L 88.822955 94.616673 
L 88.359147 92.15292 
L 88.124934 92.240515 
L 87.889155 92.548761 
L 87.172203 94.448136 
L 86.929941 93.88043 
L 86.686003 92.911339 
L 86.193003 89.716886 
L 85.69301 87.956112 
L 85.440329 88.838716 
L 85.185823 88.659091 
L 84.929466 89.877662 
L 84.671231 90.485284 
L 84.149015 93.369273 
L 83.884977 93.737395 
L 83.618946 93.730742 
L 83.080784 93.411408 
L 82.534278 95.504822 
L 82.257815 97.047163 
L 81.698296 98.570654 
L 81.415171 97.971902 
L 81.129753 98.097196 
L 80.842005 97.519512 
L 80.551889 97.344321 
L 80.259365 96.252153 
L 79.666932 93.375926 
L 79.36694 92.627486 
L 78.759185 93.31716 
L 78.451332 93.267264 
L 77.827441 91.202678 
L 77.511305 90.516331 
L 77.192308 90.530745 
L 76.96728 89.75015 
L 76.838045 89.285563 
L 76.708334 88.518273 
L 76.675831 88.654656 
L 76.447471 89.136984 
L 76.349147 89.199076 
L 76.184663 89.30663 
L 76.052521 89.273366 
L 75.886643 89.785632 
L 75.753377 89.413075 
L 75.586082 90.377731 
L 75.552528 90.35999 
L 75.41799 90.324508 
L 75.215215 92.063107 
L 75.079381 94.316188 
L 74.908849 93.138643 
L 74.668709 94.291795 
L 74.426922 94.898308 
L 74.392246 94.898308 
L 74.253197 95.570241 
L 74.043589 93.980222 
L 73.867959 93.734068 
L 73.832727 93.734068 
L 73.832727 93.734068 
" clip-path="url(#pe1358a4ba2)" style="fill: none; stroke: #ff0000; stroke-width: 1.5; stroke-linecap: square"/>
   </g>
   <g id="patch_3">
    <path d="M 57.6 307.584 
L 57.6 41.472 
" style="fill: none; stroke: #000000; stroke-width: 0.8; stroke-linejoin: miter; stroke-linecap: square"/>
   </g>
   <g id="patch_4">
    <path d="M 414.72 307.584 
L 414.72 41.472 
" style="fill: none; stroke: #000000; stroke-width: 0.8; stroke-linejoin: miter; stroke-linecap: square"/>
   </g>
   <g id="patch_5">
    <path d="M 57.6 307.584 
L 414.72 307.584 
" style="fill: none; stroke: #000000; stroke-width: 0.8; stroke-linejoin: miter; stroke-linecap: square"/>
   </g>
   <g id="patch_6">
    <path d="M 57.6 41.472 
L 414.72 41.472 
" style="fill: none; stroke: #000000; stroke-width: 0.8; stroke-linejoin: miter; stroke-linecap: square"/>
   </g>
   <g id="text_17">
    <!-- PLL 1 -655 MHz -->
    <g transform="translate(189.8625 35.472)scale(0.12 -0.12)">
     <defs>
      <path id="DejaVuSans-4c" d="M 628 4666 
L 1259 4666 
L 1259 531 
L 3531 531 
L 3531 0 
L 628 0 
L 628 4666 
z
" transform="scale(0.015625)"/>
      <path id="DejaVuSans-2d" d="M 313 2009 
L 1997 2009 
L 1997 1497 
L 313 1497 
L 313 2009 
z
" transform="scale(0.015625)"/>
      <path id="DejaVuSans-4d" d="M 628 4666 
L 1569 4666 
L 2759 1491 
L 3956 4666 
L 4897 4666 
L 4897 0 
L 4281 0 
L 4281 4097 
L 3078 897 
L 2444 897 
L 1241 4097 
L 1241 0 
L 628 0 
L 628 4666 
z
" transform="scale(0.015625)"/>
     </defs>
     <use xlink:href="#DejaVuSans-50"/>
     <use xlink:href="#DejaVuSans-4c" x="60.302734"/>
     <use xlink:href="#DejaVuSans-4c" x="116.015625"/>
     <use xlink:href="#DejaVuSans-20" x="171.728516"/>
     <use xlink:href="#DejaVuSans-31" x="203.515625"/>
     <use xlink:href="#DejaVuSans-20" x="267.138672"/>
     <use xlink:href="#DejaVuSans-2d" x="298.925781"/>
     <use xlink:href="#DejaVuSans-36" x="335.009766"/>
     <use xlink:href="#DejaVuSans-35" x="398.632812"/>
     <use xlink:href="#DejaVuSans-35" x="462.255859"/>
     <use xlink:href="#DejaVuSans-20" x="525.878906"/>
     <use xlink:href="#DejaVuSans-4d" x="557.666016"/>
     <use xlink:href="#DejaVuSans-48" x="643.945312"/>
     <use xlink:href="#DejaVuSans-7a" x="719.140625"/>
    </g>
   </g>
   <g id="legend_1">
    <g id="patch_7">
     <path d="M 321.904375 64.150125 
L 407.72 64.150125 
Q 409.72 64.150125 409.72 62.150125 
L 409.72 48.472 
Q 409.72 46.472 407.72 46.472 
L 321.904375 46.472 
Q 319.904375 46.472 319.904375 48.472 
L 319.904375 62.150125 
Q 319.904375 64.150125 321.904375 64.150125 
z
" style="fill: #ffffff; opacity: 0.8; stroke: #cccccc; stroke-linejoin: miter"/>
    </g>
    <g id="line2d_51">
     <path d="M 323.904375 54.570438 
L 333.904375 54.570438 
L 343.904375 54.570438 
" style="fill: none; stroke: #ff0000; stroke-width: 1.5; stroke-linecap: square"/>
    </g>
    <g id="text_18">
     <!-- 30 kHz filt. -->
     <g transform="translate(351.904375 58.070438)scale(0.1 -0.1)">
      <defs>
       <path id="DejaVuSans-6b" d="M 581 4863 
L 1159 4863 
L 1159 1991 
L 2875 3500 
L 3609 3500 
L 1753 1863 
L 3688 0 
L 2938 0 
L 1159 1709 
L 1159 0 
L 581 0 
L 581 4863 
z
" transform="scale(0.015625)"/>
       <path id="DejaVuSans-66" d="M 2375 4863 
L 2375 4384 
L 1825 4384 
Q 1516 4384 1395 4259 
Q 1275 4134 1275 3809 
L 1275 3500 
L 2222 3500 
L 2222 3053 
L 1275 3053 
L 1275 0 
L 697 0 
L 697 3053 
L 147 3053 
L 147 3500 
L 697 3500 
L 697 3744 
Q 697 4328 969 4595 
Q 1241 4863 1831 4863 
L 2375 4863 
z
" transform="scale(0.015625)"/>
       <path id="DejaVuSans-6c" d="M 603 4863 
L 1178 4863 
L 1178 0 
L 603 0 
L 603 4863 
z
" transform="scale(0.015625)"/>
       <path id="DejaVuSans-74" d="M 1172 4494 
L 1172 3500 
L 2356 3500 
L 2356 3053 
L 1172 3053 
L 1172 1153 
Q 1172 725 1289 603 
Q 1406 481 1766 481 
L 2356 481 
L 2356 0 
L 1766 0 
Q 1100 0 847 248 
Q 594 497 594 1153 
L 594 3053 
L 172 3053 
L 172 3500 
L 594 3500 
L 594 4494 
L 1172 4494 
z
" transform="scale(0.015625)"/>
       <path id="DejaVuSans-2e" d="M 684 794 
L 1344 794 
L 1344 0 
L 684 0 
L 684 794 
z
" transform="scale(0.015625)"/>
      </defs>
      <use xlink:href="#DejaVuSans-33"/>
      <use xlink:href="#DejaVuSans-30" x="63.623047"/>
      <use xlink:href="#DejaVuSans-20" x="127.246094"/>
      <use xlink:href="#DejaVuSans-6b" x="159.033203"/>
      <use xlink:href="#DejaVuSans-48" x="216.943359"/>
      <use xlink:href="#DejaVuSans-7a" x="292.138672"/>
      <use xlink:href="#DejaVuSans-20" x="344.628906"/>
      <use xlink:href="#DejaVuSans-66" x="376.416016"/>
      <use xlink:href="#DejaVuSans-69" x="411.621094"/>
      <use xlink:href="#DejaVuSans-6c" x="439.404297"/>
      <use xlink:href="#DejaVuSans-74" x="467.1875"/>
      <use xlink:href="#DejaVuSans-2e" x="506.396484"/>
     </g>
    </g>
   </g>
  </g>
 </g>
 <defs>
  <clipPath id="pe1358a4ba2">
   <rect x="57.6" y="41.472" width="357.12" height="266.112"/>
  </clipPath>
 </defs>
</svg>
